<?xml version="1.0"?>
<svg xmlns="http://www.w3.org/2000/svg" version="1.2" baseProfile="tiny" width="800" height="499" viewBox="0 0 800 499" stroke-linecap="round" stroke-linejoin="round">
<g id="diamondvalleylake">
<path d="M 687.83 56.28 690.63 52.22 693.14 49.07 695.87 46.17 696.22 45.29 696.59 42.18 696.76 39.47 696.65 36.02 697.46 32.65 698.09 32.09 699.79 31.91 700.64 32.73 712.67 50.22 713.61 50.9 716.2 51.41 723.29 62.17 743.84 92.36 756.98 112.08 765.57 125.08 771.32 134.57 776.78 145.26 780.14 154.15 782.38 161.1 784.77 172.01 786.11 179.56 787.46 194.05 792.02 240.9 795.89 285.21 797.32 299.94 799 319.33 798.75 320.67 796.79 321.79 794.68 321.95 792.61 321.75 786.49 320.96 781.49 320.96 778.39 320.84 774.29 319.54 772.52 318.57 769.53 316.18 767.36 313.27 766.09 310.95 759.82 307.29 757.8 307.07 756.23 308.93 756.31 311.92 758.77 319.69 762.15 328.17 762.98 330.06 766.04 337.01 766.17 337.78 766.33 338.5 766.93 344.48 765.95 345.31 762.96 343.45 760.16 341.67 757.48 340.64 753.32 339.64 749.21 339.72 746.52 341.44 743.84 345.84 740.47 345.85 736.36 346.68 735.92 345.55 737.33 340.54 736.06 337.03 732.18 332.32 729.27 330.75 723.66 330.98 718.35 331.55 717.31 329.86 717.84 323.65 717.46 319.32 714.63 317.08 711.34 316.7 707.68 317.15 706.04 317.3 703.42 318.12 696.71 321.36 694.46 321.34 687.59 319.77 682.28 319.54 680.54 318.59 677.35 316.03 676.31 315.86 634.85 330.17 622.9 334.21 622.07 334.88 624.02 337.49 626.33 338.61 628.09 339.59 625.08 343.05 622.07 342.13 619.15 342.39 616.09 341.87 614.68 341.38 613.04 340.78 612.36 341.23 612.81 344.07 615.12 348.23 614.83 348.85 613.86 349.75 614.45 350.79 615.72 352.15 615.87 352.96 614.68 354.83 614.53 356.02 617.07 359.83 617.59 362.15 618.37 363.61 619.77 365.1 622.15 367.01 621.66 367.69 619.37 368.39 616.33 369.19 616.08 370.88 617.03 372.47 619.27 374.42 622.28 376.54 622.73 376.86 624.32 378.14 624.63 380.29 624.4 380.9 622.54 381.91 619.72 382.18 617.92 381.94 615.08 380.89 613.69 381.39 611.35 384.53 610.55 386.07 611.34 387.41 612.49 388.41 615.42 388.63 628.6 389.7 631.81 390.04 634.77 392.33 629.19 393.06 628.1 394.15 628.88 396.66 631.12 400.77 633.81 402.19 636.12 403.65 635.68 404.21 633.29 404.17 630.71 403.82 628.67 403.09 628.1 402.25 627.38 401.19 625.75 399.8 621.26 397.34 618.2 396.81 614.62 397.56 611.85 399.35 611.33 401.67 611.63 403.24 612.81 405.04 613.05 405.96 612.67 406.68 610.13 407.95 609.16 408.99 609.16 411.38 609.46 414.45 609.54 417.66 611.4 421.17 612.11 421.88 612.75 422.52 615.85 423.32 617.25 424.76 617.45 426.18 618.13 428.97 616.56 430.96 616.11 432.9 617.41 435.37 616.06 435.58 614.9 435.14 612.45 433.35 611.07 432.53 609.67 432.88 608.94 433.57 607.89 436.09 605.57 439.85 603.78 441.63 603.49 438.81 604.08 435.89 603.49 432.16 600.2 428.79 598.32 427.75 596.24 425.7 595.87 425.06 593.48 421.17 591.83 421.1 590.71 422.81 589.34 423.28 588.84 422.37 588.39 418.49 589.07 417.21 591.91 416.24 593.85 415.72 595.12 414.97 594.9 413.4 592.95 412.73 591.09 412.35 589.59 411.83 587.05 410.11 584.14 408.99 582.26 407.71 586.16 407.27 588.32 406.45 589.82 405.63 591.61 405.63 591.76 404.66 591.23 402.71 589.44 400.17 588.92 398.38 588.1 394.87 587.8 391.43 587.65 389.71 588.25 388.29 587.95 386.95 584.29 383.29 581.23 381.94 579.51 382.17 577.19 384.78 574.05 386.87 572.37 386.76 574.5 383.56 575.91 380.37 576.52 377.98 577.79 376.94 578.84 376.19 579.21 374.84 578.76 373.27 577.71 371.78 574.43 371.33 569.44 370.57 566.58 369.99 565.46 370.51 565.17 371.71 564.27 373.2 561.36 375.14 560.01 379.55 557.83 382.9 557 383.7 554.85 383.75 554.26 382.9 553.51 376.71 552.09 375.67 549.26 375.21 547.04 373.85 545.89 373.27 545.03 373.05 542.95 373.97 542.38 373.77 541.72 372.55 541.43 372.02 541.56 370.62 542.69 368.48 542.84 368.07 542.94 366.57 541.05 364.38 539.75 362.49 539.55 360.2 538.66 355.91 536.56 353.62 534.27 352.72 532.28 352.82 528 353.02 523.12 352.72 522.64 351.61 523.52 349.04 522.52 347.64 517.44 345.95 514.45 345.95 512.99 345.14 511.86 341.96 509.67 340.17 504.15 334.7 500.71 327.32 500.61 325.62 502.3 322.74 502.4 321.54 500.91 319.45 497.92 316.66 496.73 314.07 494.31 312.11 492.02 310.32 490.83 307.73 489.83 305.04 488.64 302.75 486.65 299.76 483.86 297.17 480.67 296.07 476.29 293.68 471.31 292.29 467.03 288.9 462.64 287.21 456.97 287.5 454.72 288.91 454.08 290.1 454.77 293.08 455.67 297.87 457.36 301.45 459.16 304.54 461.55 307.73 462.56 309.97 460.35 310 459.3 309.28 458.77 308.92 454.48 306.53 449.3 303.35 446.91 303.35 442.42 304.34 442.03 302.65 443.52 299.06 443.12 297.47 441.23 295.97 438.54 294.48 436.75 291.49 436.05 290.99 433.46 291.49 431.07 291.69 429.98 291.79 431.27 294.18 431.69 295.14 431.87 297.67 433.16 301.05 433.96 304.04 433.86 308.73 432.76 310.82 432.37 312.91 433.66 318.99 432.96 320.88 430.17 322.77 427.29 322.97 424.1 322.77 423 323.07 422.8 323.47 423.01 323.78 424.43 325.94 427.39 330.37 428.46 332.68 428.14 334.76 424.89 334.74 422.48 334.32 418.82 334.62 415.01 336.79 412.92 338.66 410.38 342.47 409.26 342.54 409.07 340.87 408.74 339.93 407.02 338.58 405 337.91 404.4 337.24 404.55 334.77 405.23 331.93 404.93 330.29 402.16 328.79 400.74 328.72 398.55 330.03 398.06 329.76 396.71 327 394.54 324.24 394.02 321.25 393.65 319.23 392.23 318.18 388.79 317.66 385.95 316.84 385.28 317.59 385.43 320.05 384.82 321.85 382.27 322.35 381.17 321.69 379.61 320.13 378.26 317.59 377.74 316.31 376.09 315.27 375.35 314.15 375.2 312.06 374.23 311.46 372.14 311.68 370.87 311.68 369.45 310.79 364.37 307.42 363.17 307.05 362.13 307.65 360.78 307.8 360.03 307.2 359.66 306 357.35 305.78 355.33 306.15 353.98 307.5 351.98 308.85 352.19 306 352.27 304.28 353.69 302.64 354.66 300.55 354.51 296.74 353.98 293.15 353.01 291.36 352.19 288.37 352.94 285.31 352.71 282.24 352.19 280.3 352.71 278.88 353.46 276.56 353.91 272.3 353.16 270.51 349.5 267.75 348.61 267.52 347.34 270.36 344.87 274.32 344.5 277.46 345.54 280.75 347.11 285.38 347.26 289.12 347.93 291.51 347.26 294.42 347.26 297.93 346.59 300.32 345.99 303.69 345.81 306.2 344.69 309.77 343.6 310.79 341.73 311.16 339.94 312.35 338.34 314.71 338.97 318.34 339.01 320.16 338.51 322.19 337.71 322.52 335.73 321.58 335.43 322.03 335.05 323.6 334.58 324.19 333.57 324.71 329.3 324.64 329 325.24 329 327.11 329.11 328.1 328.85 329.24 327.95 329.51 322.24 328.75 317.08 326.76 312.53 324.4 309.05 323.71 307.8 324.21 307.49 325.08 308.3 327.26 310.17 328.82 311.66 330.44 313.9 335.23 313.59 336.32 312.03 336.29 310.79 336.23 310.29 336.66 309.67 337.84 308.55 337.97 305.37 336.6 303.07 336.23 299.27 336.72 298.65 337.66 298.28 340.52 298.34 341.52 299.89 344.17 300.52 346.75 300.52 347.37 300.04 348.19 298.91 348.63 296.97 350.17 294.11 352.98 293.98 353.66 295.85 354.53 296.29 356.03 296.97 359.83 297.97 361.26 301.2 362.75 301.95 364.5 301.58 366.67 301.51 367.67 304.19 369.85 309.88 371.66 311.72 372.53 310.54 375.27 309.54 375.39 305.31 374.27 302.51 374.83 303.07 376.14 306.18 377.82 308.8 379.88 310.91 381.93 316.22 383.31 320.81 384.86 322.29 386.08 317.51 387.1 314.77 388.38 312.35 387.53 306.74 388.47 305.19 387.85 303.01 384.79 299.65 384.05 298.53 384.71 297.7 386.25 298.07 388.19 299.26 389.99 300.11 390.6 301.1 391.33 304.39 393.52 301.51 393.41 297.3 392.67 296.07 391.63 290.35 386.15 287.61 384.16 284.22 383.81 283.67 384.16 285.31 387.92 285.39 388.63 284.02 388.48 281.61 387.78 280.24 387 277.01 384.84 275.66 383.61 274.86 382.96 273.71 382.91 272.82 383.46 272.22 384.38 269.79 385.86 267.84 383.06 266.15 381.53 265.2 379.3 263.26 377.73 260.34 377.36 256.68 378.33 255.71 377.88 254.59 374.89 253.4 374.52 252.2 375.04 249.65 378.19 248.36 378.89 247.35 378.54 244.23 375.84 241.89 373.45 238.23 371.36 235.17 371.43 232.25 371.29 230.69 371.29 228.74 373.83 229.49 377.04 232.99 380.1 232.7 380.92 231.88 381.67 229.12 383.17 228.97 384.14 230.73 387.09 231.21 389.59 231.02 390.96 228.89 392.21 228.37 393.93 230.91 398.56 232.4 399.83 233.49 400.12 235.06 400.54 237.07 400.63 238.45 400.2 239.35 400.2 242.56 401.7 245.21 403.07 239.28 404.16 238.08 405.06 238.68 406.18 244.21 409.05 239.27 409.81 237.91 410.23 234.79 411.19 232.78 412.76 231.11 416.29 230.34 416.92 229.04 417.46 228.89 418.51 229.49 419.85 230.76 420.95 231.48 422.23 231.8 425.01 232.18 428.52 232.04 430.1 229.71 428.34 228.29 427.1 225.61 426.28 222.77 426.13 221.95 427.03 222.47 429.5 222.54 432.03 222.77 434.57 226.13 439.13 226.35 441 226.05 442.42 228.82 445.63 230.83 445.78 232.36 446.39 231.66 448.02 230.39 448.7 226.89 450.2 225.71 450.57 224.34 451 222.87 451.7 222.02 453.03 221.2 455.12 220 460.58 220.3 461.47 222.62 462.59 223.51 463.94 224.56 464.84 225.98 465.13 227.17 464.39 232.93 456.24 233.37 456.09 254.71 469.47 256.36 470.74 257.1 474.62 256.66 476.72 250.75 485.16 246.87 490.91 244.48 492.03 231.41 494.13 225.91 495.15 221.55 495.32 217.21 495.17 209.79 494.35 198.48 493.68 183.23 492.26 161.12 490.59 149.46 489.57 143.64 489.74 138.27 490.68 123.84 492.58 105.87 494.81 99.62 495.57 88.73 497.1 79.32 498 70.95 497.82 68.07 497.65 65.03 497.2 63.74 496.21 61.35 493.91 58.31 487.84 56.22 485.2 55.97 483.7 55.64 480.85 54.9 479.73 52.51 478.31 49.37 476.74 48.25 476.52 46.46 476.67 45.04 477.49 43.69 477.56 43.32 475.02 43.02 474.65 41.79 476.31 39.07 479.41 37.89 480.1 35.18 479.66 32.25 478.87 31.75 477.18 32.05 471.3 30.85 469.7 28.56 470.1 27.37 471 27.37 473.69 26.67 474.98 22.68 478.37 21.08 479.27 13.97 465.64 6.8 451.2 6.3 449.11 5.9 410.75 5.6 364.12 4.81 302.65 4.86 299.17 4.37 273.95 4.17 244.56 4.33 241.83 7.88 240.24 7.65 238.02 3.99 231.59 1 226.58 1.52 225.69 5.71 224.49 6.83 223.67 6.9 221.8 6.08 218.74 6.75 216.94 11.08 213.81 12.5 211.86 12.43 210.89 9.29 209.17 8.69 208.35 8.69 207.75 11.61 206.04 11.98 204.39 10.56 202.22 8.92 200.66 8.62 199.09 7.65 194.83 8.1 193.86 9.66 193.63 11.53 194.3 13.03 196.84 14.74 197.52 18.26 198.64 20.27 200.51 32.22 195.8 29.83 192.14 29.91 191.31 32.74 187.45 32.82 186.3 31.4 184.29 28.19 181.23 27.74 180.11 27.97 178.16 27.78 176.71 26.74 174.57 26.01 173.47 25.31 171.45 25.2 168.38 26.02 166.96 29.31 165.76 30.51 166.13 31.55 165.84 32 164.34 35.29 163.15 37.38 162.92 39.32 163.22 40.44 165.09 41.79 166.06 46.58 168.15 47.24 168.6 48.21 169.12 52.93 169.94 53.43 169.63 53.3 167.08 54.11 166.48 61.21 166.77 63.7 167.89 64.01 169.07 63.14 171.25 63.76 171.75 66.12 171.44 69.71 171.72 72.43 172.61 77.95 174.43 80.5 176.3 84.18 178.48 87.23 179.16 88.35 179.16 88.66 178.72 87.29 177.85 85.36 176.48 84.24 173.49 82.81 172.44 81.26 170.81 81 170.07 80.38 168.14 79.26 166.96 78.76 165.03 78.45 159.36 78.01 157.24 77.7 156.12 76.02 154.19 75.21 151.89 75.03 149.89 75.77 147.78 76.14 146.02 90.13 144.54 124.43 140.62 151.13 137.5 152.32 137.39 153.34 137.65 158.81 138.32 161.35 139.29 162.17 139.29 163.89 138.77 164.63 138.32 166.05 138.32 167.85 139.22 169.27 140.34 171.73 141.09 172.33 141.39 172.63 143.18 173.6 144 176.66 144.45 184.88 144.53 185.92 145.05 185.62 146.09 184.73 149.16 184.73 150.43 185.1 152.74 185.92 153.79 186.07 154.46 185.18 155.96 183.31 160.37 182.49 161.41 180.17 163.13 178.83 164.4 177.56 166.87 177.11 170.08 177.78 170.75 178.98 170.45 179.8 169.26 181.67 166.42 184.28 164.48 189.21 163.21 193.46 162.52 197.35 162.98 198.47 162.68 199.11 160.73 199.82 160.22 202.43 160.26 204.14 160.66 206.44 161.52 207.96 161.71 209.5 161.3 212.77 159.95 213.68 161 215.18 164.88 217.49 166.68 219.23 167.15 222.5 168.84 225.34 171.53 228.4 173.4 229.3 174.45 230.12 176.47 232.73 177.81 235.5 179.6 238.03 181.32 241.1 182.29 244.98 182.74 247.89 182.67 248.87 181.4 248.94 179.31 249.76 178.93 252.75 178.86 253.05 177.81 253.42 176.24 254.38 175.86 258.64 176.55 262.83 178.56 268.06 182.22 269.56 183.04 270.68 183.94 271.8 186.55 272.47 187.75 273.67 188.2 274.94 187.82 276.42 184.48 277.77 184.69 279.57 185.13 280.24 184.31 281.36 179.6 283.15 174.45 284.03 173.93 287.91 174.32 288.23 175.12 288.68 176.17 290.55 177.81 293.16 179.9 295.1 183.49 296.22 184.39 296.82 185.06 296.75 187.08 297.2 189.54 299.06 191.93 300.41 192.46 303.62 192.31 308.4 192.01 312.51 192.16 315.12 192.31 317.21 191.63 317.66 190.66 316.69 188.57 316.84 186.78 318.04 185.88 319.31 184.39 320.43 178.71 321.92 174.37 323.15 173.22 324.46 172.95 330.36 175.49 333.57 176.84 335.89 176.77 337.23 176.77 339.85 177.66 341.79 177.59 343.36 176.32 346.42 175.35 347.69 174.37 348.06 172.8 348.14 168.92 348.81 167.43 350.6 164.96 350.45 163.39 349.78 161.96 348.35 160.2 345.3 157.71 343.66 156.74 343.51 156.07 344.03 154.5 343.54 152.12 342.39 150.18 341.39 149.14 338.56 147.67 338.53 146.89 339.22 145.46 339.41 143.94 341.02 143.22 344.91 139.79 346.12 139.37 349.82 139.73 351.91 140.17 354.9 140.17 356.15 139.3 359.69 136.93 360.5 136.12 360.69 134.25 359.01 129.77 359.32 129.21 361.06 128.59 361.38 127.28 361.67 126.82 362.56 126.47 366.54 127.72 370.09 128.03 371.96 127.47 373.02 125.54 374.82 120.62 375.01 119.5 373.89 118.38 373.24 118.07 370.54 116.2 370.15 115.57 369.66 114.39 371.65 114.83 373.58 114.64 376.88 113.99 377.5 114 380.98 114.64 381.17 114.27 380.25 113.13 379.77 111.92 380.11 110.72 379.8 108.85 380.61 108.35 388.39 107.85 390.76 108.23 397.36 107.04 398.41 106.36 400.28 103.99 401.34 104.05 403.77 106.79 404.73 108.4 404.08 111.03 402.83 114.39 402.93 116.58 402.46 117.32 402.52 119 405.88 122.8 406.88 125.23 407.94 125.66 411.73 125.6 413.35 125.85 415.03 126.53 417.59 126.44 419.45 125.62 420.64 125.23 424.27 125.03 427.45 125.24 431.11 126.21 433.5 125.84 435.81 125.84 440.97 126.21 447.91 125.96 450.39 125.38 451.2 125.02 458.37 120.46 462.03 118.52 462.26 117.92 462.85 115.08 463.6 114.18 467.55 112.05 471.07 110.45 471.98 110.67 475.63 112.76 478.61 113.14 480.41 112.76 482.95 111.79 483.47 110.9 483.17 108.73 479.72 105.09 476.87 102.09 477.42 101.29 478.35 100.05 478.04 98.31 476.6 96.48 477.11 95.13 478.47 94.15 480.12 93.96 482.48 94.24 485.9 94.89 486.4 94.2 486.08 93.58 483.69 92.45 481.76 91.46 480.8 90.64 480.72 88.84 480.85 88.05 480.35 86.59 479.54 85.54 477.52 84.1 478.85 83.3 478.18 80.98 481.34 80.31 484.27 78.32 485.64 75.7 486.51 70.22 486.76 67.3 487.16 66.62 487.94 66.62 489.18 67.42 492.67 72.84 493.67 73.96 495.03 73.96 497.21 72.71 499.16 70.96 502.37 68.8 503.44 68.42 504.99 68.42 508.61 69.41 511.97 69.85 513.9 69.85 515.95 68.42 516.65 68.12 518.96 67.78 523.5 67.79 525.11 68.28 526.55 70.29 526.98 70.42 527.44 68.36 528.63 66.79 529.69 66.1 530.75 66.3 534.1 68.29 535.16 69.11 538.84 72.34 542.43 75.34 543.15 75.95 543.55 75.99 543.64 76 544.4 76.08 545.14 75.52 545.02 72.09 544.34 68.11 542.47 64.62 541.97 62.56 540.55 56.28 540.86 54.72 542.42 52.42 546.03 46.38 546.9 43.45 546.81 42.77 545.31 40.52 542.54 37.43 541.55 35.56 539.99 31.2 536.38 26.97 532.52 24.66 530.78 22.86 529.85 20.49 530.03 17.31 530.97 16.26 534.33 15.88 536.38 15.38 537.63 14.2 538.31 10.28 539.49 7.79 541.11 6.6 547.65 2.99 548.96 1.5 550.45 1 551.77 1.1 553.56 3.8 554.06 4.3 554.52 5.69 554.25 6.29 553.75 7.29 554.18 10.28 555.43 12.21 557.48 15.07 558.32 15.91 561.33 18.99 562.09 20.12 563.71 22.17 564.14 23.35 564.36 25.45 567.19 28.96 571.55 32.2 572.92 34.19 574.6 37.05 575.78 37.36 578.21 37.18 580.39 36.68 582.57 35.19 583.16 34.77 585.74 33.63 585.74 32.57 584.55 30.02 584.5 29.15 585.06 27.58 586.68 25.22 588.01 24.29 589.48 23.73 590.41 23.17 591.16 22.11 591.28 20.3 590.13 17.7 590.32 17.06 592.62 15.65 593.37 14.78 593.06 12.29 593.8 9.05 593.43 6.81 593.17 6.2 593.5 5.55 594.93 4.73 596.55 4.34 599.1 4.25 601.12 3.81 602.32 3.65 602.33 4.88 601.46 6.87 600.84 8.49 600.96 9.8 602.48 11.8 604.02 15.24 604.14 15.96 604.26 17.27 604.49 17.42 604.64 17.52 605.01 17.77 605.76 17.52 606.63 16.33 607.25 14.71 608.25 9.98 610.3 5.75 611.05 5.37 612.58 6.04 616.31 8.39 617.33 8.27 618.7 6.93 619.01 3.44 619.8 1.45 621.26 2.58 627.21 9.22 627.42 9.48 627.93 9.95 630.64 12.92 632.01 14.35 633.5 14.54 634.16 14.4 635.43 14.38 637.42 14.54 638.54 13.85 644.08 9.25 650.43 11.61 650.99 11.49 655.6 7.57 657.59 7.13 661.7 7.57 665.18 9.18 667.18 12.3 667.92 14.35 669.29 15.29 671.47 16.16 675.21 17.03 676.51 18.09 677.9 20.26 678.49 21.94 678.82 24.56 679.44 27.62 680.31 30.79 680.19 31.79 679.87 32.72 680.31 33.41 680.75 35.34 679.94 36.96 678.38 38.08 676.76 40.07 676.95 42 677.82 43 678.32 43.93 678.69 46.11 680.06 47.35 681.31 48.23 681.41 48.85 680.78 49.89 679.69 50.72 677.88 50.97 675.89 50.97 673.65 51.46 672.53 52.9 672.09 57.13 672.34 60.37 673.65 63.3 674.77 64.04 677.07 64.1 678.38 64.48 679.38 66.72 679.38 69.4 680.19 69.02 683.61 64.23 687.03 57.94 687.83 56.28 Z M 164.41 188.64 167.1 187.16 167.62 186 168 183.68 168.52 180.84 168.15 178.37 167.32 178 160.75 179.92 159.85 180.54 160.45 182.18 162.02 186.25 162.82 188.18 163.04 188.72 163.76 188.99 164.41 188.64 Z M 405.05 150.99 406.85 151.35 409.05 151.3 410.69 151.59 413.01 152.17 414.16 152.26 414.91 150.77 413.57 148 413.34 145.69 411.4 144.71 405.95 145.84 403.32 147.97 403.01 148.91 403.63 149.95 405.05 150.99 Z M 402.27 127.82 401.72 128.35 401.82 128.88 402.12 129.83 403.87 131.12 405.11 131.52 406.56 133.11 407.1 133.06 407.5 132.47 407.45 131.42 406.61 130.27 405.51 128.33 404.76 127.78 402.27 127.82 Z" fill-rule="evenodd"/>
</g>
</svg>