<?xml version="1.0"?>
<svg xmlns="http://www.w3.org/2000/svg" version="1.2" baseProfile="tiny" width="800" height="1313" viewBox="0 0 800 1313" stroke-linecap="round" stroke-linejoin="round">
<g id="fallenleaflake">
<path d="M 394.84 38.09 395.93 37.83 402.54 36.23 411.57 34.04 414.69 36.94 418.26 37.87 422.62 37.14 426.64 35.55 432.53 32.6 440.34 26.88 453.24 19.88 459.83 17.51 466 16.55 476.58 13.43 485.69 11.13 490.02 10.95 499.05 10.62 508.75 11.42 521.72 11.47 543.77 10.05 561.88 7.98 581.84 4.54 592.68 3.97 601.73 3.07 612.26 1.36 620.2 1 625.61 1.14 639.48 5.71 655.45 11.75 672.85 18.1 695.3 24.31 704.16 27.91 711.22 31.47 716.81 35.84 724.31 37.43 728.95 38.68 734.92 42.49 747.47 52.66 756.11 61.62 765.06 71.98 773.56 84.32 784.41 100.64 787.4 106.91 790.02 113.17 792.3 127.6 794.92 134.14 797.34 145.19 798.04 154.5 799 166.07 797.13 185.18 795.18 205.97 794.03 225.1 793.66 242.84 792.22 251.53 788.93 261.31 788.23 278.19 786.54 292.79 785.28 305.72 783.16 313.55 782.77 331.57 783.99 345.68 783.51 374.68 783.66 388.49 782.32 394.65 779.93 400.22 775.38 414.19 774.84 418.68 770.68 432.1 769.82 435.46 769.21 450.09 767.11 457.36 766.41 465.51 766.58 470.02 767.16 473.42 768.43 477.67 768.59 482.47 767.35 486.38 767.21 489.75 768.47 494.01 769.41 497.41 767 503.55 762.75 510.49 753.44 526.31 741.76 547.14 735.21 557.39 727.89 568.75 715.82 581.97 710.93 586.91 704.2 592.66 692.97 602.8 685.58 607.4 678.98 610.05 673.13 612.16 669.8 614.04 663.02 621.2 659.62 625.05 651.82 630.77 645.52 634.84 637.59 643.65 627.38 655.22 614.92 668.99 602.54 680.79 583.92 695.25 582.06 696.61 579.45 698.8 577.56 701 572.63 706.8 563.33 713.88 557.4 717.96 554.32 722.67 546.05 739.64 543.49 749.43 541.95 760.38 543.32 779.57 542.87 790.55 541.43 799.24 536.63 810.67 535.62 817.68 536.93 829.55 537.88 841.4 537.36 845.33 537.37 853.78 536.91 856.3 539.77 874.12 538.92 885.93 534.78 907.8 531.82 927.16 529.57 938.09 527.05 946.75 522 955.64 512.85 967.8 510.11 973.08 510.36 975.63 511.6 980.44 512.47 985.54 511.88 991.16 509.52 995.89 510.74 1001.27 508.75 1006.01 501.8 1017.1 499.36 1023.8 496.41 1034.14 493.67 1039.43 490.57 1044.7 485.34 1049.36 482.34 1052.1 480.42 1055.15 478.81 1059.05 478.95 1073.14 475.78 1080.1 465.09 1094.76 455.8 1110.3 448.84 1121.95 445.26 1130.03 442.28 1141.22 436.84 1150.66 433.14 1161.83 430.52 1173.04 428.65 1183.41 425.89 1188.97 421.26 1196.47 415.92 1203.65 412.03 1210.6 405.88 1220.02 401.13 1230.32 398.22 1239.82 394.11 1252.12 388 1260.41 383.86 1264.81 379.04 1268.07 362.17 1275.25 351.17 1280.04 342.3 1285.46 339.27 1289.04 335 1296.54 330.49 1300.93 317.63 1307.08 307.1 1309.07 284.69 1311.05 266.63 1312 258.71 1311.8 243.63 1310.57 219.58 1308.56 211 1306.94 203.51 1305.06 197.48 1302.65 195.44 1299.79 192.83 1293.24 182.9 1280.6 171.1 1269.6 163.7 1265.47 156.61 1262.75 153.41 1261.83 149.79 1262.3 142.84 1264.66 140.77 1262.64 143.06 1259.32 146.15 1254.32 146.3 1250.67 144.66 1246.68 141.54 1243.79 137.6 1243.13 126.82 1242.57 120.04 1240.99 108.3 1237.32 105.17 1234.71 102.08 1230.97 99.67 1228.09 94.68 1226.84 86.75 1226.92 81.03 1225.93 78.23 1223.89 74.42 1220.13 72.74 1217.27 72.84 1214.74 74.78 1211.41 79.29 1206.73 81.27 1202.56 82.16 1198.35 81.18 1195.8 76.41 1189.2 70.72 1178.63 65.91 1172.88 60.76 1166.83 57.7 1162.25 53.95 1157.08 50.37 1147.98 50.15 1144.32 51.05 1140.11 54.88 1134.57 61.37 1125.73 62.97 1121.82 62.7 1119.56 61.33 1117.84 57.49 1114.92 49.8 1109.1 44.31 1102.48 38.15 1094.44 33.09 1086.14 28.82 1075.9 21.77 1063.33 19.02 1060.16 16.57 1058.41 11.91 1057.72 7.3 1056.2 3.48 1052.73 1.83 1049.02 1 1042.8 1.11 1031.26 2.74 1018.06 4.85 1010.51 8.27 1006.09 12.75 1002.26 18.37 997.05 22.53 992.37 24.58 986.22 25.88 980.9 30.8 975.11 40.62 955.35 49.24 938.39 53.59 929.2 55.56 916.29 56.25 908.14 58.67 902.01 65.02 896.54 69.27 889.6 71.65 884.31 74.28 872.82 73.13 865.76 72.32 859.25 72.45 855.87 75.9 850.89 80.32 839.74 81.75 831.33 81.52 819.49 79.03 818.58 76.46 819.64 74.4 817.34 76.35 813.72 79.78 809.02 82.56 802.89 86.67 799.34 91.15 795.51 93.06 792.74 93.56 789.37 94.11 784.88 95 780.67 96.63 776.21 102.72 768.19 109.76 754.85 114.72 739.48 115.94 727.12 115.17 719.78 113.94 714.68 109.53 707.81 107.16 704.09 106.96 700.14 109.33 695.13 115.52 684.86 119.15 666.64 121.82 654.31 127.94 637.01 132.35 617.4 136.45 605.39 141.96 593.98 149.21 584.31 156.17 572.65 159.06 563.71 162.48 550.84 171.79 526 179.16 513.23 188.03 499.09 193.84 489.38 208.12 475.09 216.07 465.71 220.24 460.75 220.73 457.66 222.41 451.79 232.83 435.15 238.16 428.24 240.13 424.07 244.79 416.02 254.5 399.08 263.38 384.65 279.88 360.28 284.9 352.24 296.14 341.82 313.72 326.21 318.63 320.98 322.45 315.72 328.28 305.45 334.32 298.84 348.54 285.96 360.15 275.55 368.79 267.03 371.22 260.62 371.84 254.15 370.62 248.77 368.31 243.64 364.79 241.58 357.24 241.11 350.48 238.97 346.26 236.61 335.89 234.66 333.42 233.19 333.19 230.08 335.12 227.03 340.51 218.72 345.34 215.18 350.12 212.76 354.9 210.63 358.33 205.93 359.67 199.77 362.84 184.07 367.33 162.5 366.59 154.31 364.25 141.01 364.02 129.18 365.84 120.21 369.02 112.97 372.09 108.25 377.76 101.92 388.97 92.34 395.29 87.71 410.04 79.63 422.21 73.18 432.84 68.94 439.47 65.45 434.79 65.33 426.83 65.97 418.57 65.2 405.29 63.74 401.68 63.93 389.75 64.76 387.73 61.33 390.72 50.14 392.09 43.13 391.54 38.89 394.84 38.09 Z"/>
</g>
</svg>