<?xml version="1.0"?>
<svg xmlns="http://www.w3.org/2000/svg" version="1.2" baseProfile="tiny" width="800" height="445" viewBox="0 0 800 445" stroke-linecap="round" stroke-linejoin="round">
<g id="whiskeytownlake">
<path d="M 379.88 114 380.42 114.29 381.18 114.74 381.89 115.32 382.86 115.98 384.06 116.72 385.31 117.55 386.01 118.13 387.2 118.87 388.45 119.61 389.27 120.11 390.24 120.65 391 120.85 391.6 120.85 392.19 120.65 393.17 120.56 393.77 120.48 394.53 120.48 395.34 120.77 396.15 121.14 397.35 121.68 398.11 121.97 398.7 122.01 399.3 122.01 399.79 121.8 400.06 121.64 400.17 121.1 400.17 120.23 400.17 119.45 400.17 118.58 400.55 117.67 400.66 116.81 401.14 115.77 401.52 115.15 401.74 114.7 402.07 114.45 402.28 114.53 402.61 114.62 402.93 114.99 403.1 115.28 403.37 116.02 403.26 116.68 403.37 117.42 403.53 118.25 403.69 118.99 403.91 119.45 404.18 120.11 404.56 120.85 404.72 121.68 404.72 122.63 404.51 123.49 404.56 124.24 404.56 125.27 404.56 126.51 404.56 127.33 404.78 128.12 405.38 128.82 405.54 129.23 405.7 129.4 406.52 129.6 406.9 129.52 407.55 129.44 408.03 129.31 408.69 129.07 409.5 128.03 409.77 127.66 410.04 127 409.88 126.51 409.82 126.09 409.82 125.72 409.99 125.43 410.58 125.06 410.86 124.9 411.45 124.81 412.05 124.61 412.54 124.57 412.92 124.28 413.24 123.95 413.51 123.29 413.67 122.67 414.05 122.09 414.43 121.43 414.81 120.77 415.41 120.15 415.68 119.74 416.06 118.99 416.28 118.66 416.66 118.21 416.87 118.04 417.36 117.96 417.63 117.84 417.74 117.88 417.96 118.08 418.01 118.33 418.23 118.95 418.34 119.45 418.45 119.86 418.72 120.56 419.21 121.1 419.91 121.55 420.51 122.05 420.94 122.46 421.59 122.67 421.97 122.83 422.62 122.91 423.44 122.95 423.98 122.95 424.96 122.83 426.2 122.83 427.07 122.62 427.56 122.54 428.37 122.33 428.86 122.17 429.41 121.76 430.33 121.06 430.54 120.68 430.82 120.02 430.81 119.65 430.54 119.28 430.22 118.99 429.84 118.25 429.73 117.55 429.67 117.22 429.73 116.56 429.95 116.06 430.22 115.52 430.54 114.99 430.81 114.49 430.98 114.29 431.08 114.12 431.19 114.28 431.57 114.57 431.84 115.03 432.28 115.69 432.71 116.1 433.15 116.51 433.69 116.8 434.29 117.09 434.77 117.13 435.32 117.09 435.53 117.01 435.97 116.93 436.51 117.22 436.94 117.38 437.32 117.67 437.87 118 438.19 118.41 438.68 118.91 439.28 119.73 439.28 120.11 439.06 120.6 438.68 121.14 438.95 121.43 439.28 121.47 439.49 121.47 439.93 121.3 440.36 121.18 440.52 121.18 440.9 121.67 441.55 122.46 441.93 123.2 442.1 123.78 442.1 124.32 441.99 124.61 441.83 124.69 441.45 124.89 440.69 125.06 440.14 125.27 439.87 125.55 439.49 125.97 439.39 126.46 439.28 127.58 439.28 128.2 439.49 128.86 439.71 129.35 439.71 129.77 440.31 130.05 440.74 129.89 441.72 129.85 442.64 129.89 443.24 129.89 443.94 129.93 444.97 130.18 445.46 130.34 445.73 130.55 445.73 131.09 445.35 131.46 444.97 131.66 444.86 132.12 445.08 132.66 445.46 133.23 445.46 133.89 445.46 134.47 445.19 134.76 444.97 135.13 445.08 135.55 445.24 136.08 445.84 136.54 446.27 136.95 447.14 137.65 447.85 138.19 448.01 138.6 448.07 139.18 447.9 139.63 448.06 139.8 448.77 140.29 449.26 140.79 450.07 141.7 450.83 142.44 451.37 143.39 452.24 144.55 452.57 145.33 453 146.03 453 146.69 453.11 147.35 453.38 147.72 454.19 148.01 455.01 148.51 455.98 149.13 456.36 149.5 456.64 149.79 456.58 150.24 456.2 150.99 456.2 151.6 456.36 151.85 456.96 152.06 457.39 151.93 458.05 151.73 458.59 151.52 459.24 151.65 460.16 151.85 460.87 152.1 461.08 152.22 460.97 152.68 460.87 153.21 460.59 153.92 460.16 154.66 459.78 155.61 459.4 156.06 459.02 156.97 458.81 158.04 458.59 158.91 458.59 159.78 458.59 160.32 458.91 160.81 459.4 161.18 459.78 161.43 460.43 161.59 461.08 161.88 461.36 162.21 461.79 162.83 462.98 163.7 463.96 164.24 464.72 164.81 465.59 165.1 465.96 165.27 466.29 165.19 467 164.86 467.54 164.73 468.19 164.53 468.73 164.48 469.06 164.53 469.92 164.81 470.52 165.1 470.85 165.81 471.06 166.34 471.5 167.17 471.82 167.83 472.2 168.7 472.69 169.27 473.72 170.18 474.32 170.59 474.86 170.97 475.51 171.5 476.05 171.67 476.32 172.41 476.6 173.24 476.92 174.19 477.41 174.93 477.79 175.51 478.11 175.8 478.55 175.88 479.04 175.8 479.36 175.75 479.74 175.38 480.34 174.72 480.77 174.1 481.21 173.44 481.86 172.7 481.96 172.41 482.18 172.41 482.4 172.49 482.62 172.7 482.83 173.28 482.89 173.9 483 174.27 483.27 175.01 483.48 175.42 483.92 175.75 484.57 176 485.38 176.21 486.25 176.37 486.79 176.62 487.28 176.79 487.61 177.04 487.71 177.2 487.39 177.65 487.06 177.98 485.98 178.44 485.38 178.6 484.46 178.97 483.27 179.35 482.62 179.55 481.86 180.01 481.64 180.3 481.48 180.87 481.04 181.29 480.45 181.7 479.36 181.99 478.38 182.28 477.35 182.57 476.49 182.77 476.05 183.06 475.62 183.39 475.4 183.76 475.18 184.26 475.29 184.63 475.73 185.37 476.05 185.75 476.49 186.16 477.3 186.53 477.84 186.9 478.28 187.36 478.39 187.64 478.49 188.47 478.55 189.05 478.76 189.34 479.36 189.59 479.74 189.75 480.55 189.59 480.93 189.63 481.31 189.79 481.69 189.91 482.18 190.37 482.62 190.74 482.94 191.07 483.27 191.28 483.59 191.44 484.13 191.44 484.41 191.4 484.89 191.03 485.33 190.87 485.87 190.45 486.36 190.16 486.95 189.87 487.22 189.87 487.55 189.87 487.77 189.87 488.26 189.87 488.69 189.79 488.96 189.5 489.23 189.34 489.39 189.17 489.61 188.76 489.61 188.35 489.61 187.89 489.61 187.64 489.61 187.07 489.77 186.36 489.77 185.95 490.04 185.54 490.15 185.37 490.7 184.92 491.35 184.59 491.89 184.42 492.76 184.26 493.52 183.76 494.38 183.19 494.71 182.65 494.98 182.44 495.47 182.19 496.34 181.99 496.93 181.99 497.53 182.15 498.13 182.28 498.51 182.32 499.16 182.32 499.65 182.11 500.19 181.91 499.97 179.76 499.54 179.47 499.1 179.1 498.61 178.89 498.18 178.6 497.75 178.23 497.64 178.03 497.53 177.65 497.48 177.49 497.48 177.2 497.53 176.91 497.91 176.5 498.24 176 498.51 175.55 498.89 175.01 499.32 174.43 499.54 174.14 500.3 173.53 500.68 172.87 501.16 172.41 501.49 172.12 501.82 171.83 539.62 188.02 541.68 185.13 539.56 183.23 509.14 170.14 508.43 169.89 508.27 169.69 507.73 169.36 507.35 168.94 507.08 168.28 507.08 167.66 507.08 166.88 507.13 165.97 507.4 165.43 507.84 165.1 508.38 164.94 508.87 164.94 509.9 165.1 510.76 165.35 511.69 165.68 512.23 165.97 512.93 166.05 513.64 166.05 514.34 165.72 515.21 165.19 515.86 164.61 516.24 164.07 516.62 163.49 516.62 162.83 516.13 162.26 515.81 161.76 515.21 161.22 514.83 160.77 514.45 160.4 514.24 159.98 513.91 159.28 513.75 158.91 513.96 158.62 514.18 158.42 514.83 158.29 515.43 158.09 515.81 157.59 515.92 157.09 516.24 156.64 516.24 156.39 516.41 156.31 516.68 156.35 517 156.43 517.27 156.48 518.03 156.31 518.41 156.06 518.63 155.61 518.79 155.15 518.85 154.74 519.23 154.45 519.71 154.29 520.42 154.12 521.02 154.04 521.77 153.75 522.21 153.34 522.59 152.93 522.59 152.43 522.21 151.89 521.77 151.48 521.12 150.98 520.8 150.61 520.53 150.08 520.36 149.54 519.98 149.21 519.71 148.92 519.17 148.55 518.47 148.01 518.19 147.64 517.98 147.31 517.76 146.9 517.76 146.61 517.76 146.24 517.87 145.82 518.09 145.82 518.41 145.91 518.85 146.07 519.39 146.28 520.26 146.44 521.02 146.61 521.78 146.61 522.59 146.61 523.18 146.53 523.67 146.53 524.32 146.44 525.14 146.24 525.52 145.95 525.52 145.62 525.36 145.21 525.03 144.88 524.76 144.26 524.54 143.88 524.38 143.31 524.16 142.77 524.27 142.36 524.38 141.74 524.76 141.24 525.14 140.83 525.73 140.38 526.28 140 526.77 139.71 527.31 139.34 527.9 138.77 528.18 138.27 528.55 137.57 528.77 136.99 529.15 136.41 529.64 136 530.73 135.63 531.11 135.67 531.43 135.83 531.65 136.08 531.92 136.16 532.14 136.21 532.41 136.16 532.84 135.88 533.38 135.5 534.03 135.42 534.74 135.5 535.88 135.46 536.53 135.5 537.18 135.59 537.72 135.59 538.81 135.09 539.02 134.8 539.02 134.55 538.64 134.31 538.1 133.89 537.51 133.69 536.96 133.44 536.31 133.23 535.88 133.07 535.5 133.07 535.06 133.15 534.58 133.36 533.93 133.52 533.38 133.65 532.84 133.73 532.14 133.89 531.76 133.89 531.1 134.02 530.67 133.98 530.18 133.89 529.75 133.81 529.21 133.61 528.94 133.23 528.56 132.78 528.23 132.33 527.96 132.04 527.9 131.83 528.18 131.66 528.56 131.42 529.1 131.09 529.53 130.8 529.97 130.18 530.56 129.81 530.94 129.39 531.54 128.9 531.76 128.32 531.86 127.99 531.92 127.25 531.92 126.79 531.81 126.3 531.81 125.88 531.76 125.6 531.43 125.22 531.05 124.81 530.73 124.36 530.67 123.94 530.73 123.41 530.89 123.2 531.27 122.83 531.76 122.58 532.03 122.54 532.57 122.54 533.06 122.5 533.71 122.25 534.03 122 534.09 121.76 534.25 121.01 534.36 120.43 534.25 119.82 534.36 118.82 534.58 117.96 534.8 117.26 535.17 116.35 535.23 115.77 535.55 115.36 535.66 115.23 535.93 115.23 536.1 115.52 536.31 116.14 536.86 116.55 537.51 117.01 537.94 117.34 538.48 117.59 539.08 117.88 539.62 117.96 540.54 118.16 541.09 118.25 541.85 118.37 542.55 118.45 542.82 118.49 542.99 118.58 543.2 118.74 543.04 118.95 542.93 119.16 542.93 119.57 542.82 119.82 542.23 120.31 541.95 120.48 541.68 121.01 541.47 121.51 541.68 121.72 542.01 121.84 542.33 122.17 542.82 122.91 543.04 123.41 543.31 124.07 543.42 124.65 543.31 125.06 543.26 125.51 543.2 125.84 543.31 125.93 543.64 125.93 544.18 125.93 544.72 126.13 545.15 126.38 545.21 126.67 545.37 127.25 545.21 127.54 545.15 128.03 545.26 128.94 545.48 129.39 545.8 129.52 546.13 129.52 546.56 129.39 547.16 129.11 547.76 128.57 548.24 127.99 548.84 127.45 549.44 126.92 549.93 126.63 550.63 126.46 551.77 126.34 552.8 126.3 553.78 126.13 554.86 125.89 555.62 125.64 556.71 125.14 557.19 124.81 557.47 124.36 557.52 124.03 557.36 123.53 557.2 123.12 556.98 122.54 556.71 122.17 556.6 121.72 556.76 121.26 557.2 120.97 557.47 120.68 557.9 120.6 558.66 120.56 559.64 120.64 560.61 120.64 561.59 120.56 562.29 120.44 563.16 120.27 564.36 120.19 565.33 119.57 565.98 119.2 566.53 118.75 566.96 118.21 566.96 118.04 567.01 117.42 566.91 116.43 566.42 115.69 565.93 115.07 565.5 114.74 564.68 114.16 564.14 113.83 563.6 113.54 563.27 113.29 562.95 112.96 562.84 112.39 563.27 112.22 563.76 112.22 564.36 112.3 565.12 112.43 565.93 112.43 566.53 112.14 566.53 111.52 566.15 110.61 565.66 109.95 565.06 108.92 564.36 108.09 563.49 107.18 562.51 106.28 561.7 105.41 561 104.71 559.91 103.84 559.04 103.39 558.23 103.01 557.47 102.56 557.25 102.44 556.82 101.98 556.71 101.45 556.33 100.41 555.63 99.34 554.76 98.72 553.67 98.43 552.59 98.06 551.5 97.89 550.64 98.02 549.5 98.51 548.79 98.89 548.03 99.3 547.43 99.71 546.57 100.29 545.7 100.78 545.21 101.4 544.67 101.78 544.29 101.82 543.85 101.86 543.31 101.57 542.93 101.03 542.82 100.5 542.34 99.88 541.68 99.55 540.82 99.09 540 98.76 538.86 98.31 538.16 97.89 537.72 97.61 537.67 96.86 537.67 96 537.73 95.25 537.83 95 538.11 94.67 538.48 94.51 539.41 94.51 539.9 94.51 540.65 94.72 541.52 94.88 542.66 94.47 542.77 93.89 542.77 93.23 542.55 92.61 542.66 91.16 542.34 90.26 541.85 89.72 541.52 88.94 540.98 88.23 540.66 88.03 540.06 87.78 539.25 87.61 538.16 87.53 537.46 87.53 536.53 87.2 535.94 87.12 535.07 86.83 534.96 86.62 535.07 85.84 535.66 85.26 536.26 84.89 537.13 84.6 538.11 84.35 538.92 84.11 539.52 83.82 539.79 83.28 539.9 82.25 539.68 81.46 539.25 80.93 538.7 80.51 538.27 80.35 537.51 80.18 536.86 80.14 535.99 80.02 535.56 80.02 535.07 79.85 534.58 79.52 534.53 79.36 534.91 78.66 535.77 77.91 536.48 77.46 537.08 76.92 537.46 76.18 537.4 75.52 537.29 75.31 536.97 75.02 536.7 74.82 536.1 74.73 535.88 74.65 535.23 74.65 534.47 74.57 533.99 74.44 533.77 74.07 533.71 73.7 533.71 72.83 533.5 72.46 533.01 71.72 532.74 71.39 532.25 70.81 531.92 70.32 531.76 69.86 531.6 69.66 531.54 69.45 531.76 69.41 532.3 69.49 533.01 69.7 534.09 69.86 535.02 69.9 535.88 69.86 536.7 69.66 537.46 69.41 537.89 69.04 538.27 68.21 537.73 66.85 537.4 66.19 537.08 65.82 536.54 65.53 536.48 64.95 536.26 62.97 536.21 62.06 536.21 61.4 535.89 60.41 535.51 59.79 534.91 59.29 534.1 58.51 533.34 57.89 532.74 57.35 532.09 56.73 531.28 56.16 531.06 55.91 531.06 55.54 532.31 54.5 532.9 54.05 533.34 53.6 534.1 53.1 534.69 52.4 535.18 51.86 535.67 51.16 536.1 50.62 536 49.96 536.1 49.26 536.1 48.64 535.78 47.94 535.24 47.03 534.91 46.29 534.75 45.92 534.31 45.34 533.77 44.6 533.34 43.94 533.01 43.28 532.63 42.78 532.04 42.24 531.76 41.91 531.87 41.05 532.31 39.97 532.9 38.45 533.83 36.88 534.26 36.38 536.76 33.24 536.27 32.25 536.16 31.76 535.51 30.35 535.29 29.9 535.18 29.36 535.29 28.74 535.29 28.25 535.29 27.79 535.18 27.05 535.29 26.1 535.4 26.02 535.73 25.89 536.38 25.69 536.54 25.89 537.08 26.22 537.52 26.72 537.9 27.01 538.33 27.63 538.65 27.96 539.09 28.5 539.52 29.28 539.85 29.78 540.5 30.44 540.77 31.22 540.88 31.96 540.88 32.62 540.88 33.45 540.99 34.07 540.88 34.77 540.82 35.47 540.5 36.05 539.9 36.63 539.52 37.17 539.03 37.66 538.6 37.95 537.89 38.36 537.46 38.78 537.46 39.02 537.68 39.35 537.89 39.77 538.27 39.97 538.6 39.97 538.87 39.81 539.25 39.73 539.52 39.64 539.9 39.27 540.23 38.78 540.5 38.32 540.66 37.87 540.88 37.7 541.53 37.41 541.96 37.29 542.72 37.21 543.05 37.37 543.48 37.5 544.19 37.66 544.62 37.7 545.49 37.7 546.09 37.58 546.68 37.37 547.23 37.08 547.66 36.88 548.42 36.42 548.96 36.01 549.51 35.39 549.83 34.85 550.43 34.11 550.81 33.62 551.51 33.04 552 32.38 552.81 31.8 553.19 31.18 553.95 30.68 554.55 30.27 555.36 30.02 556.07 29.57 557.05 29.53 557.75 29.32 558.4 29.16 558.89 28.99 559.38 29.12 559.65 29.16 559.76 29.28 559.76 29.53 559.76 29.74 559.49 29.82 559.11 29.94 558.4 30.07 557.75 30.15 557.37 30.31 557.15 30.44 556.83 30.6 556.4 30.64 556.01 30.81 555.64 30.97 554.98 31.34 554.33 31.72 553.57 32.21 552.98 32.79 552.49 33.62 551.95 34.48 551.67 35.52 551.46 36.42 550.97 37.25 550.32 38.12 549.72 38.82 548.64 39.4 547.66 39.77 546.41 40.18 545.11 40.59 543.7 41.21 542.45 41.87 541.69 42.37 541.2 42.78 540.88 43.28 540.82 43.94 540.88 44.31 541.8 44.84 542.83 45.42 543.43 45.63 543.48 46.5 543.26 47.24 543.05 48.19 543.05 48.81 543.26 49.55 543.64 50.34 544.19 51 544.62 51.29 545.22 51.78 546.03 51.9 547.06 52.28 547.66 52.4 547.98 52.52 548.04 53.06 547.6 53.52 547.06 53.84 546.46 54.09 546.03 54.46 545.6 54.92 545.22 55.7 545.22 56.24 545.22 56.98 545.6 57.73 546.03 58.51 546.79 59.34 547.33 59.91 547.98 60.62 548.8 61.44 549.61 62.14 550.64 62.8 551.73 63.63 552.65 64.33 554.22 65.53 554.98 66.23 556.01 67.3 557.04 68.01 557.75 68.71 558.56 69.74 559.7 70.94 560.57 72.01 561.33 73.17 561.71 73.95 562.19 74.41 563.17 74.94 563.71 75.02 564.31 74.9 564.74 74.9 565.07 75.02 565.34 75.19 565.77 75.4 566.15 75.73 566.32 76.22 566.15 77.09 565.66 77.96 564.91 78.82 564.09 79.48 563.39 80.02 562.73 80.56 562.19 81.18 561.54 81.88 560.83 82.37 560.4 82.87 560.46 83.49 560.67 83.86 561.32 84.56 561.81 84.97 562.52 85.35 563.28 85.68 564.36 85.84 565.12 85.88 565.99 85.51 566.53 85.18 567.24 84.73 567.67 84.02 568.1 83.03 568.1 82.21 568.11 81.63 568.32 80.8 568.48 80.47 568.7 80.19 569.14 79.73 569.41 79.61 569.95 79.36 570.76 78.99 571.09 78.53 571.14 77.83 571.09 77.46 571.09 77.13 571.04 76.8 571.31 76.55 571.74 76.55 572.66 76.84 573.31 77.13 573.91 77.42 574.29 77.46 574.62 77.34 575.05 77.09 575.43 76.84 575.92 76.64 576.62 76.14 577.33 75.69 577.82 75.23 578.41 74.74 579.23 74.45 579.55 74.32 579.82 74.28 580.31 74.37 580.42 74.57 579.99 75.15 579.55 75.6 579.28 75.98 578.85 76.55 578.09 77.34 577.44 77.92 576.89 78.58 576.4 79.2 575.92 80.23 575.97 80.39 576.08 80.76 576.24 81.14 576.4 81.38 576.46 81.63 576.35 81.88 575.92 82.25 574.94 82.75 574.23 83.32 573.47 83.98 572.66 84.69 571.68 85.47 571.03 86.42 570.65 87.53 570.33 88.65 570.16 89.31 569.62 90.63 569.46 92.2 569.46 93.15 569.57 94.26 569.95 95.5 570.06 96.33 570.65 97.57 571.46 98.97 571.57 99.63 572.12 100.21 573.31 100.83 574.39 101.45 574.99 101.9 575.75 102.36 576.4 102.69 577.32 102.64 578.24 102.52 578.9 102.44 579.6 102.07 580.2 101.61 580.58 101.03 580.58 100.62 580.09 99.67 579.98 98.76 579.82 98.48 579.76 98.06 579.87 97.73 580.41 97.36 580.74 97.07 581.39 96.82 582.04 96.37 582.37 96 582.75 95.67 582.58 95.13 582.15 94.55 581.83 94.02 581.5 93.44 581.39 92.98 581.39 92.61 581.61 92.41 582.21 92.04 582.91 91.66 583.56 91.29 584.1 91 584.81 90.71 585.19 90.38 585.19 89.89 585.08 89.52 584.81 89.02 584.7 88.65 584.7 88.03 584.87 87.62 585.3 87.25 585.52 87.21 585.9 87.25 586.28 87.49 586.76 87.95 587.31 88.44 587.79 88.82 588.23 88.86 588.61 88.9 589.15 88.94 589.8 88.73 590.4 88.53 591.43 88.03 592.35 87.62 593.11 87.49 593.65 87.33 593.87 87.25 594.09 87.41 594.25 87.62 594.09 87.87 593.76 88.4 593.11 88.94 592.57 89.31 591.97 89.81 591.59 90.34 591.37 90.67 591.59 91.42 591.92 92.04 592.41 92.61 592.78 92.82 593.65 93.15 594.63 93.15 595.12 93.03 595.93 92.7 596.42 92.49 597.18 92.04 597.67 91.5 598.26 90.8 598.91 90.1 599.35 89.68 600.11 89.31 600.87 89.11 601.52 89.07 601.68 89.11 601.79 89.35 601.68 89.64 601.36 90.14 601.03 90.51 600.65 90.92 600.16 91.46 599.94 91.75 600.11 92.12 600.54 92.41 600.92 92.41 601.25 92.37 601.68 92.45 601.84 92.53 601.9 92.62 601.79 92.95 601.25 93.23 600.27 93.44 599.29 93.73 598.75 93.98 598.26 94.47 597.88 94.84 597.29 95.05 596.58 95.13 595.82 95.13 595.12 95.38 594.74 95.67 594.36 96.04 594.25 96.58 593.92 97.16 593.65 97.69 592.94 98.1 592.57 98.31 591.7 98.39 590.99 98.56 590.18 98.97 589.58 99.55 589.15 99.88 588.61 100.17 588.44 100.46 588.44 100.66 588.61 101.08 588.82 101.32 589.15 101.61 589.91 101.65 590.34 101.7 590.99 101.57 591.59 101.32 592.08 101.12 592.67 101.2 593.16 101.41 593.76 101.61 593.92 101.9 593.81 102.48 593.59 103.06 593.76 103.6 594.03 103.93 594.35 104.59 595.11 105 595.82 105.25 596.47 105.45 597.66 105.45 598.53 105.33 599.67 105.25 600.65 105.08 601.68 104.88 602.87 104.8 604.23 104.71 605.31 104.51 606.4 104.3 607.37 103.64 608.08 102.98 608.62 102.61 608.78 102.44 609.11 102.44 609.6 102.44 610.03 102.44 610.46 102.48 610.52 102.73 610.25 103.27 609.98 103.72 609.6 104.14 609.27 104.51 609 104.71 608.89 104.8 609 104.84 609.43 104.92 609.87 104.96 610.52 105 611.22 105.13 611.71 105.33 612.47 105.62 613.23 105.83 614.37 106.12 615.45 106.45 616.43 106.74 616.97 107.27 616.16 107.48 615.45 107.69 614.86 107.89 613.61 108.06 612.47 108.3 611.55 108.43 610.25 108.55 609.05 108.59 608.02 108.63 607.05 108.8 605.91 108.88 604.88 109.09 603.68 109.3 603.3 109.58 602.81 110.28 602.54 110.7 602.33 111.36 601.57 112.68 601.08 113.5 600.54 114.66 599.67 115.07 598.91 115.4 598.09 115.94 597.23 116.48 596.68 116.81 596.09 117.1 595.82 117.63 595.82 118.17 596.03 118.79 596.57 119.57 597.17 120.23 597.28 120.77 597.23 121.64 597.33 121.97 597.44 122.63 597.71 123 598.26 123.46 598.74 123.87 599.45 123.95 599.67 124.07 600.32 123.87 600.91 123.37 601.13 123 601.35 122.59 601.29 122.17 601.29 121.76 601.35 121.18 601.56 120.73 602 120.19 602.6 119.74 603.19 119.28 603.84 119.08 604.33 118.79 604.93 118.67 605.42 118.58 605.74 118.96 605.96 119.12 605.96 119.49 605.85 119.95 605.85 120.44 605.85 120.94 606.07 121.39 606.45 121.68 606.83 121.89 607.8 122.26 608.45 122.38 609.43 122.47 610.24 122.55 610.79 122.63 611.6 122.75 612.74 122.96 613.61 123.04 614.58 123.54 614.96 123.66 615.23 123.87 615.23 124.24 614.96 124.7 614.85 125.36 614.69 125.85 614.85 126.3 615.23 126.76 615.83 127.25 616.32 127.54 617.02 127.75 617.51 127.79 618.32 127.75 618.92 127.59 619.35 127.59 620.17 127.5 620.87 127.38 621.74 127.17 622.12 127.09 622.72 127.05 623.53 127.3 624.18 127.5 625.05 127.67 625.7 127.88 626.24 127.96 626.95 128.25 627.54 128.41 628.47 128.62 629.33 128.7 630.2 128.99 630.96 128.99 631.67 128.87 632.37 128.74 633.13 128.5 634.43 128.21 635.73 127.79 636.87 127.59 637.69 127.42 638.45 127.26 639.15 127.18 639.53 127.18 639.91 127.51 640.07 127.8 640.24 127.96 640.02 128.13 640.02 128.29 639.69 128.42 639.42 128.62 639.1 128.79 638.39 128.95 637.47 128.99 636.6 129.2 636.01 129.4 635.63 129.49 635.3 129.9 635.08 130.31 634.92 130.68 634.05 131.01 633.08 131.3 632.05 131.63 630.58 132.01 629.44 132.29 628.19 132.71 627.16 132.87 625.97 133.12 624.51 133.24 623.53 133.37 622.55 133.49 621.68 133.78 621.2 134.03 621.03 134.15 621.03 134.32 621.14 135.02 621.36 135.59 621.63 136.21 622.17 136.67 622.55 137 622.71 137.16 622.61 137.37 622.39 137.45 621.96 137.62 621.63 137.62 621.14 137.41 620.54 137.29 619.57 137 618.48 136.79 617.18 136.67 616.21 136.34 615.01 136.21 614.15 136.13 613.44 136.13 612.79 136.25 612.19 136.5 612.08 136.91 612.3 137.45 612.41 137.91 612.63 138.28 612.73 138.4 613.06 138.77 612.68 138.77 612.41 138.73 611.81 138.69 611.05 138.61 610.29 138.77 609.81 138.98 608.61 139.23 608.01 139.52 607.26 139.72 606.44 140.01 605.63 140.59 605.03 141 604.49 141.5 604.06 141.87 603.84 142.4 603.68 142.78 603.68 143.27 604.05 143.64 604.65 144.01 605.03 144.39 605.41 144.96 605.63 145.46 605.74 145.83 605.63 146.08 605.19 146.08 604.87 146.12 604.27 146.08 603.84 145.96 603.24 145.62 602.37 145.25 601.99 145.09 601.51 144.88 600.58 144.88 600.2 145.01 599.72 145.13 599.12 145.29 598.9 145.62 598.74 145.95 598.74 146.49 598.96 147.07 599.12 147.48 599.44 147.77 599.44 147.98 599.33 148.06 598.9 148.31 598.63 148.35 598.3 148.35 597.98 148.18 597.44 148.06 596.89 148.06 596.52 148.1 595.97 148.35 595.38 148.64 594.94 148.76 594.4 148.76 593.59 148.43 593.31 148.1 592.83 147.81 592.39 147.52 591.74 147.32 591.36 147.23 590.98 147.36 590.01 147.85 589.41 148.26 588.6 148.76 588 149.21 587.62 149.63 587.19 149.96 587.19 150.25 587.24 150.49 587.4 150.58 587.94 150.78 588.49 150.78 588.76 150.7 589.25 150.54 590.01 150.54 590.93 150.33 591.58 150.25 591.96 150.04 592.56 149.83 592.83 149.83 592.94 150.16 592.83 150.54 592.45 150.82 591.96 151.24 591.58 151.61 590.98 152.02 590.76 152.72 590.71 153.14 590.71 153.76 590.76 154.05 590.98 154.29 591.63 154.54 592.34 154.54 592.77 154.46 593.15 154.29 593.53 154.13 593.75 154.05 594.13 153.88 594.34 154.05 594.51 154.75 594.72 155.53 594.78 156.07 595 156.36 595.32 156.52 595.37 156.77 594.83 156.81 594.02 156.73 593.53 156.73 592.77 156.65 591.96 156.73 591.47 157.22 590.98 157.64 590.93 158.09 590.93 158.3 591.2 158.59 591.74 158.83 592.61 159.08 593.15 159.29 593.75 159.54 593.91 159.82 593.85 160.03 593.53 160.24 593.15 160.4 592.93 160.53 592.17 160.49 591.58 160.44 590.55 160.44 589.57 160.36 588.7 160.2 587.94 160.03 587.18 159.99 586.1 159.91 585.77 160.11 584.8 160.32 584.15 160.86 583.66 161.52 583.6 161.89 583.6 162.38 583.88 163 584.15 163.58 584.58 164.37 585.07 165.03 585.77 165.69 586.15 166.22 586.53 167.09 586.96 167.63 587.24 168.16 587.18 168.62 587.07 168.74 586.96 168.82 586.37 168.82 585.77 168.74 585.39 168.58 584.85 168.53 583.98 168.58 583.11 168.91 582.79 169.28 582.46 169.77 582.19 170.52 582.03 171.26 582.03 171.67 581.97 172.04 581.65 172.42 581.16 172.54 580.46 172.79 579.86 172.87 579.21 173.16 578.4 173.61 578.01 173.94 577.42 174.48 576.93 175.02 576.82 175.59 576.82 176.21 577.04 177 577.47 177.37 577.91 177.82 578.34 178.07 578.61 178.4 578.66 178.77 578.56 178.98 578.12 179.27 577.69 179.56 577.15 179.97 576.71 180.42 576.5 180.84 576.22 181.42 576.12 182.12 576.17 182.53 576.5 182.94 576.82 183.48 577.04 183.93 577.2 184.51 577.04 184.88 576.49 185.13 576.06 185.17 575.03 185.17 574.49 185.17 573.78 185.09 573.08 185.17 572.54 185.21 571.88 185.42 570.91 185.63 570.26 185.91 569.88 186.2 569.44 186.66 569.39 187.07 569.34 187.73 568.74 188.31 568.41 188.76 567.65 189.22 567.38 189.3 567.11 189.3 566.73 189.09 566.3 188.84 565.97 188.76 565.27 188.76 564.73 189.01 564.29 189.3 564.24 189.88 564.24 190.37 564.29 191.07 564.29 191.45 563.91 191.69 563.37 192.06 562.28 192.56 561.31 192.97 560.77 193.34 560.33 193.8 560.12 194.25 559.95 195.04 559.9 195.57 559.79 196.15 560.33 197.56 560.44 198.05 560.6 198.79 560.77 199.62 561.09 200.61 561.36 201.52 561.74 202.18 562.34 202.8 562.93 203.46 563.48 204.04 564.24 204.95 564.94 205.4 565.7 206.02 566.51 206.47 567.27 206.64 567.98 206.68 568.68 206.64 569.39 206.72 570.09 206.85 571.07 206.93 571.83 206.76 572.69 206.76 573.45 206.85 574.27 207.26 574.97 207.67 575.89 208.08 576.82 208.21 577.63 208.95 578.33 209.24 578.99 209.2 579.8 209.2 580.18 209.12 580.45 208.99 580.77 208.83 581.21 208.83 581.75 208.87 582.29 209.16 582.67 209.94 583 210.6 583 210.89 583.27 211.18 583.7 211.26 584.25 211.26 585 211.14 585.76 211.02 586.58 210.81 587.34 210.48 587.93 210.27 588.75 210.23 589.18 210.27 589.67 210.56 589.94 211.06 589.99 211.55 589.99 212.59 589.94 213.08 589.94 213.33 590.26 213.54 590.75 213.58 591.57 213.7 592.33 213.78 592.76 213.66 593.52 213.25 594.17 212.88 594.6 212.59 594.93 212.46 595.04 212.75 595.04 213.04 594.93 213.58 594.77 214.07 594.49 215.02 594.17 215.43 593.79 215.97 593.36 216.55 593.08 216.84 592.76 217.29 592.43 217.75 592.32 218.04 592.43 218.2 592.76 218.41 593.19 218.66 593.63 218.66 594.17 218.7 594.82 218.57 595.58 218.37 596.12 218.16 597.26 217.95 598.02 217.66 598.62 217.38 599.32 217.38 599.7 217.58 600.51 217.95 600.68 218.45 600.89 218.95 601.06 219.36 601.16 219.56 601.6 219.65 601.76 219.77 601.49 220.06 601.16 220.31 600.51 220.35 599.64 220.56 599.1 220.68 598.02 221.22 597.15 221.71 596.5 222.08 596.01 222.37 595.69 222.78 595.09 223.28 594.82 223.86 594.6 224.52 594.49 225.26 594.27 225.92 594.49 226.54 594.98 227.33 595.68 228.23 596.01 228.73 596.93 229.31 598.23 229.64 599.59 230.01 600.51 230.22 601.16 230.34 601.92 230.5 602.46 230.75 602.68 231.04 602.79 231.7 602.68 232.45 602.9 233.64 602.9 234.26 603.22 234.92 603.33 235.75 603.76 236.2 604.09 236.62 604.3 236.7 604.9 236.66 605.28 236.66 605.88 236.62 606.09 236.41 606.58 235.87 607.07 235.42 607.34 234.76 607.61 234.1 607.83 233.31 607.94 232.65 608.16 231.91 608.32 230.96 608.43 229.93 608.43 229.1 608.43 228.65 608.54 228.07 608.59 227.16 608.54 226.67 608.37 226.34 608.32 225.88 608.43 225.63 608.7 225.14 609.03 224.68 609.41 224.4 609.84 224.15 610.22 223.86 610.54 223.57 610.76 222.91 610.6 222.83 610.49 222.46 610.27 222.17 610.11 222 609.89 221.67 609.52 221.22 609.41 220.89 609.52 220.64 609.84 220.47 610.06 220.47 610.55 220.6 610.98 220.68 611.47 221.18 612.01 221.51 612.39 221.96 612.93 222.17 613.37 222.25 613.69 222.17 614.02 222.04 614.18 222.08 614.61 222.33 614.61 222.62 614.72 222.79 614.67 223.36 614.72 223.65 614.88 223.98 614.99 224.6 614.88 225.1 614.83 225.59 614.72 225.88 614.83 226.09 614.83 226.5 614.88 226.71 615.21 227.08 615.64 227.16 616.08 227.37 616.4 227.49 616.78 227.7 616.67 228.2 616.4 228.52 616.07 228.77 615.59 228.94 614.99 229.02 614.39 229.06 614.01 229.19 613.74 229.35 613.36 229.64 613.04 230.05 612.98 230.34 612.98 230.75 613.36 231.25 613.85 231.74 614.01 232.16 614.45 232.36 614.99 232.57 615.37 232.78 615.64 233.07 615.8 233.27 615.8 233.85 615.8 234.26 615.86 234.76 616.02 235.42 616.07 235.87 616.13 236.33 616.29 236.7 616.56 236.95 616.83 237.28 616.99 237.52 617.37 237.65 617.97 237.65 618.24 237.65 618.73 237.32 619.16 236.95 619.33 236.7 619.81 236.29 620.36 235.83 620.74 235.46 620.95 234.92 621.22 234.43 621.5 234.14 621.71 233.81 622.09 233.56 622.31 233.44 622.85 233.23 623.39 233.07 623.77 233.07 624.1 233.27 624.59 233.48 625.13 233.81 625.51 234.06 625.84 234.31 626.32 234.55 626.59 234.76 627.03 234.97 627.52 235.01 628.11 234.97 628.44 234.97 628.87 234.72 629.41 234.47 629.96 234.18 630.39 233.89 630.93 233.52 631.53 233.28 631.91 233.03 632.5 232.78 632.83 232.7 633.1 232.78 633.59 232.9 633.86 233.03 634.08 233.23 634.29 233.69 634.02 234.1 633.7 234.64 633.48 235.17 632.99 235.67 632.61 236.33 632.34 236.78 631.91 237.28 631.69 237.49 631.09 237.82 630.5 238.11 629.95 238.56 629.63 238.85 629.36 239.05 629.25 239.34 629.14 239.51 629.52 239.88 629.85 240.05 630.33 240.09 630.82 240.09 631.36 239.96 632.07 239.8 632.5 239.63 632.83 239.34 633.37 238.97 633.7 238.52 634.08 237.86 634.51 237.69 634.67 237.57 634.89 237.57 635.27 237.65 635.87 237.69 636.3 237.69 637.11 237.57 637.82 237.36 638.36 237.28 639.17 237.12 639.61 236.99 640.31 236.74 641.13 236.37 641.62 235.92 642.21 235.47 642.65 235.22 643.08 234.85 643.3 234.72 643.68 234.39 643.78 234.47 644.22 234.85 644.38 235.3 644.44 235.8 644.49 236.17 645.19 236.5 645.63 236.87 646.44 237.24 647.09 237.74 647.74 238.07 648.12 238.23 648.34 238.48 648.39 238.69 648.12 239.3 648.12 239.88 647.74 240.79 647.36 241.62 647.14 241.96 648.4 241.96 649.43 243.53 650.68 244.81 651.27 245.84 653.49 247.24 654.58 247.66 656.31 249.39 657.83 249.72 663.42 250.38 665.26 251.54 667.27 252.28 669.11 254.1 671.22 254.35 673.07 253.77 674.59 252.33 675.02 252.33 676.54 253.24 677.73 253.4 678.06 253.9 678.06 254.56 678.71 254.97 680.5 254.81 682.99 253.98 683.75 253.98 685.49 255.55 686.68 255.96 688.9 256.34 689.99 255.96 690.96 254.85 691.29 253.61 692.16 252.62 692.21 251.13 691.24 250.27 690.48 249.85 690.15 249.56 690.15 249.28 691.89 248.28 692.21 248.28 692.86 247.62 692.86 246.88 689.23 243.7 689.45 243.29 691.84 243.29 698.94 245.07 702.68 246.35 703.55 246.93 703.44 247.42 702.03 248.66 702.03 249.73 703.22 251.14 702.84 252.33 703.16 254.23 704.03 255.64 704.46 255.8 705.33 254.89 706.74 251.55 708.05 250.39 709.13 250.39 710.87 251.34 713.96 253.53 714.5 254.19 713.2 255.14 712 255.72 710.92 257.45 710.92 257.74 710.81 257.78 710.7 260.34 710.81 260.51 712.16 261.09 713.68 261.09 714.87 260.1 718.24 259.98 720.84 258.74 721.92 259.23 724.26 260.72 727.4 262.37 728 262.95 727.67 263.86 726.15 265.22 725.93 265.59 725.93 265.76 724.41 266.38 723.11 267.37 722.79 268.52 723.87 270.42 725.28 271.58 725.71 271.62 727.07 271.62 729.56 270.84 731.08 270.67 731.19 270.84 730.97 271.66 730.97 273.4 731.62 273.85 734.82 273.32 737.32 272.24 738.19 272.45 738.29 273.4 737.97 276 738.94 276.7 742.36 277.45 743.66 277.12 745.72 275.63 746.48 275.88 750.65 278.48 755.48 281.29 758.95 283.89 759.98 285.91 760.08 286.37 763.77 289.43 766.53 290.42 767.83 291.32 771.57 296.9 772.44 299.17 773.04 299.46 775.42 298.59 777.59 297.03 778.13 296.94 780.41 296.94 781.93 298.6 785.56 299.92 786.64 300.66 786.86 303.06 791.25 307.31 797.92 310.28 799 311.15 798.57 311.61 792.6 311.19 791.41 311.44 789.08 310.69 786.48 310.53 784.85 310.57 783.55 311.44 782.9 311.48 781.92 311.48 779.64 311.72 778.23 312.55 777.47 313.13 773.95 312.55 772.65 312.55 771.46 312.92 769.39 314.49 769.39 315.81 770.31 317.75 770.75 318.99 770.42 319.23 768.8 319.56 767.39 318.32 765.6 317.33 764.19 317.17 762.78 317.21 760.93 318.49 759.96 319.68 756.33 317.7 755.35 318.03 754.91 318.53 754.86 320.01 756.05 321.46 756.05 322.2 754.1 322.86 752.91 323.11 752.26 324.84 753.12 326.29 753.01 326.87 750.84 328.02 749.54 329.18 749.27 330.5 750.9 332.03 754.04 333.14 754.69 333.64 754.64 335.49 754.2 335.87 752.47 336.57 752.25 337.39 751.71 337.89 745.36 336.65 741.57 336.27 739.78 336.44 739.34 337.18 737.99 338.17 737.55 338.96 738.31 341.19 738.31 342.34 738.42 343.58 738.64 344.16 737.88 344.78 737.28 346.64 735.54 347.67 735.33 348.82 734.24 349.44 733.27 350.35 732.94 351.34 732.29 352.25 730.23 352.7 728.39 353.98 728.38 355.59 728.82 356.5 728.71 357.16 724.37 358.28 724.15 358.44 724.59 359.1 728.33 360.96 727.78 363.77 728.22 364.14 730.98 364.14 731.74 363.73 734.13 365.05 735.1 365.21 738.03 364.27 739.55 363.27 739.76 362.86 740.63 362.2 741.83 363.11 742.69 362.57 743.67 360.84 743.99 360.84 744.86 361.5 745.62 361.67 746.65 361.09 748.39 360.92 748.71 361.58 748.71 362.49 746.87 363.4 746.87 363.85 747.73 365.51 747.95 366.33 747.3 366.99 745.89 367.08 745.56 367.4 745.56 367.9 746.54 368.64 746.48 368.85 743.94 370.13 742.2 370.58 740.74 372.15 739.65 374.01 739.54 374.75 739.76 376.24 738.13 377.06 738.67 378.22 735.42 380.98 734.99 382.55 734.39 383.5 734.01 383.87 730 385.69 728.37 386.76 726.85 386.93 724.79 386.18 722.73 385.85 718.01 386.68 716.5 387.79 716.22 390.27 716.01 390.64 712.32 391.88 710.48 391.71 709.77 391.71 709.55 392.21 709.72 393.16 707.98 394.72 707.76 395.72 708.74 397.53 709.28 398.03 710.2 399.27 710.2 399.84 709.66 400.13 708.57 399.97 707 399.1 705.81 397.99 702.4 395.38 702.4 394.1 701.21 392.58 700.23 392.37 699.58 392.33 698.82 392.66 696.54 394.85 696.54 397.49 696.76 397.94 697.62 399.1 697.79 399.92 697.35 400.25 694.48 400.42 693.61 400.87 690.9 400.83 688.3 402.6 687.54 402.77 686.56 403.43 685.8 405.7 685.42 406.36 684.77 407.02 684.45 409.54 685.2 412.1 685.42 412.43 686.45 413.5 686.78 413.75 689.16 414.58 690.24 415.65 690.19 418.05 691.71 421.35 691.65 423.12 693.6 425.19 693.28 426.67 692.14 427.62 689.75 428.2 671.7 431.33 665.03 433.23 661.02 435.09 660.73 435.24 657.44 436.99 649.2 442.02 645.41 443.34 643.51 443.34 640.26 440.82 638.68 439.96 636.84 439.42 636.52 439.54 634.89 440.74 634.35 442.81 633.48 442.89 631.31 442.31 630.17 442.52 627.46 442.8 626.6 443.42 625.4 444 620.36 443.46 617.11 442.64 614.13 440.82 613.64 437.89 612.99 436.65 612.23 436.07 609.58 434.42 609.58 433.26 610.45 431.16 610.77 428.85 610.18 428.35 607.36 427.44 605.08 427.11 604.48 426.04 604.05 424.64 605.89 421.04 605.68 419.97 604 418.48 601.72 417.99 599.44 417.82 599.06 417.66 599.07 416.09 600.04 415.47 599.83 414.35 598.96 413.2 598.2 412.41 598.25 410.35 596.52 409.19 595.65 408.04 595.71 407.71 596.41 407.13 596.14 405.44 595.71 404.28 595.16 403.87 593.43 403.87 590.67 399.16 588.99 397.59 587.36 396.68 586.82 397.1 586.28 400.07 585.52 400.48 584.22 400.52 583.24 399.78 582.43 398.21 581.78 397.59 581.02 397.18 579.5 397.55 577.76 398.38 576.57 398.71 575.6 398.13 575.43 397.55 576.84 395.94 577.06 394.2 576.63 392.18 575.38 390.82 574.51 390.41 571.04 390.32 570.07 389.75 569.85 389.25 571.48 388.01 571.53 387.6 570.01 386.69 564.97 385.91 564.43 385.78 564.97 385.2 568.39 384.21 574.57 384.34 574.79 383.84 574.46 383.18 572.4 381.94 570.72 381.45 566 378.56 566.76 378.14 568.55 378.39 570.5 378.56 572.46 379.88 573.81 379.96 575.11 379.55 577.39 377.86 578.04 377.77 579.56 379.18 580.42 379.67 582.43 379.84 583.62 379.18 584.06 377.98 583.84 376.83 584.44 374.93 584.87 374.35 584.98 374.43 585.96 374.18 586.71 372.41 586.61 370.51 584.38 367.45 584.38 366.38 584.49 365.31 583.08 365.02 582.27 361.38 581.51 360.15 579.72 358.58 579.94 358.25 581.02 358.21 582.05 358.62 584.33 359.65 586.28 359.49 587.15 359.03 587.15 358.62 585.63 357.75 584.11 356.31 582.11 353.75 582.76 353.42 584.6 353.75 585.04 353.99 585.58 353.91 585.91 353.25 585.04 350.77 584.71 349.5 585.15 349.25 586.01 349.25 587.21 350.16 589.38 349.91 590.03 349.54 590.46 348.59 590.24 346.23 589.43 343.84 588.78 343.59 587.59 344.21 586.61 344.09 585.53 343.59 583.47 343.22 582.33 343.34 582.11 342.97 582.11 342.77 583.2 341.44 583.52 340.12 583.41 338.47 583.96 336.99 584.28 335.21 584.12 334.3 582.06 332.98 580.98 332.94 580 333.68 579.57 334.55 578.7 335.17 578.26 335.83 578.48 338.55 578.75 339.63 578.21 340.21 576.42 340.41 575.66 341.24 575.34 341.9 573.49 341.32 572.19 341.24 571.76 340.74 571.97 340.16 573.06 338.51 573.11 335.58 572.79 335.17 570.08 333.27 570.4 332.69 571.92 332.2 572.46 331.7 572.46 331.37 569.05 329.55 567.64 327.98 566.39 327.41 565.96 327.36 565.42 327.16 565.2 326.99 565.2 324.64 563.9 323.36 563.09 322.91 561.46 322.91 558.42 324.19 554.08 327.32 551.27 328.69 548.07 329.72 547.85 329.26 549.15 327.28 549.58 326.46 549.8 324.64 549.58 324.31 549.37 323.44 552.84 321.38 553.06 320.55 551.27 317.66 550.4 316.75 550.51 316.22 553.22 316.22 554.09 316.46 555.88 316.38 557.39 315.68 558.04 314.81 557.83 313.82 556.47 312.63 554.2 311.68 546.01 309.28 542.7 308.78 541.4 308.12 540.04 306.56 539.07 305.98 533.92 304.57 532.07 303.83 530.45 303.58 530.01 303.83 529.9 303.87 529.69 305.85 531.69 307.83 531.69 309.12 532.24 310.81 531.69 311.39 529.63 311.84 528.87 312.66 528.44 314.65 527.57 314.98 525.89 311.59 525.13 307.83 524.37 306.97 521.07 306.27 519.33 306.22 518.79 306.8 519.01 308.62 519.93 310.35 519.71 311.55 519.17 311.96 518.19 311.72 514.02 308.91 512.61 308.66 511.42 310.31 510.87 312.62 509.57 313.9 508.92 313.66 508.54 311.84 508.54 311.51 507.35 307.5 508.76 305.85 509.08 303.75 509.03 302.18 506.1 299.91 506.1 299.54 506.97 298.71 507.3 297.64 506.59 295.9 505.94 295.04 505.94 294.21 507.89 291.65 509.19 290.58 509.41 290.08 508.98 289.83 505.24 289.83 504.37 290.82 502.42 292.68 500.57 292.85 499.27 292.1 498.78 291.61 498.19 291.11 497.05 290.7 496.18 290.78 494.34 293.01 493.25 292.43 491.08 290.74 490.32 290.7 489.46 291.49 489.02 292.81 489.24 294.21 490.87 295.65 490.87 295.94 489.89 296.98 490.05 298.09 491.25 299.12 491.79 299.29 492.87 299.82 492.55 301.93 493.14 302.76 494.44 303.66 496.72 304.08 496.4 306.51 496.67 307.09 497.97 308.7 498.08 310.68 498.73 311.47 499.05 311.84 499 313.86 499.87 314.69 500.19 315.68 501.17 316.83 503.72 317.74 505.34 318.57 506.1 319.31 505.99 319.64 503.39 320.22 502.41 321.17 502.2 322.49 503.72 323.81 505.29 324.72 505.07 325.21 502.79 326.04 501.38 327.82 498.46 329.63 498.02 329.34 498.73 327.07 498.73 324.64 497.75 322.37 496.61 321.21 495.31 320.76 493.58 320.96 488.7 325.46 488.05 325.21 488.05 324.6 488.15 323.48 487.88 322.12 488.97 320.88 490.16 319.23 490.7 318.07 490.7 316.05 488.43 314.23 489.13 312.66 489.13 311.42 488.16 309.73 486.75 308.62 485.61 308.33 484.09 308.49 479.42 310.43 478.88 310.31 478.67 310.02 480.4 307.3 482.03 304.16 481.76 303.58 479.05 303.33 477.85 303.58 476.88 303.91 476.66 303.58 476.99 301.76 476.82 299.82 474.98 298.26 472.59 296.98 471.24 296.98 467.77 299.04 467.01 299.12 466.47 298.46 466.25 296.98 465.71 296.15 465.71 295.74 466.41 292.64 465.76 291.32 465 290.82 463.16 291.32 461.1 290.33 460.07 289.17 459.42 287.93 459.42 287.77 460.5 287.44 460.93 287.03 460.72 286.45 458.17 283.81 457.19 282.32 455.02 280.09 452.26 277.78 449.71 276.5 446.89 275.88 445.05 275.63 443.85 275.55 441.14 277.86 440.27 279.06 440.49 280.05 441.25 280.96 442.93 283.97 446.29 286.57 446.02 287.15 444.99 286.7 442.82 285.58 441.74 285.29 440.66 285.38 438.7 287.03 436.75 287.81 435.13 288.39 433.93 289.46 433.5 290.66 433.17 290.91 432.2 295.57 431.66 296.48 430.35 296.48 428.29 296.15 425.69 296.32 424.82 296.65 424.82 297.23 425.58 298.09 424.93 298.67 420.7 299.25 411.76 299.79 410.13 300.36 408.83 301.64 408.18 304.04 407.85 304.2 407.31 303.87 407.2 303.3 407.09 303.21 406.98 301.64 407.15 301.35 407.31 301.07 408.5 299.75 411.76 297.35 412.89 295.53 413.76 293.39 414.52 292.93 417.88 292.19 418.42 291.61 418.32 290.46 416.47 289.13 416.69 288.64 420.27 288.68 420.81 288.1 421.03 287.77 420.65 281 420.86 280.38 421.3 279.97 422.27 279.39 425.2 278.07 428.13 275.88 428.56 273.78 431.27 270.6 431.33 269.52 431 268.95 427.97 266.72 423.46 264.73 421.95 264.45 420.1 265.73 419.13 265.93 418.2 265.52 416.47 265.27 415.06 265.85 410.83 268.7 400.2 277.12 399.44 278.28 399.5 279.89 400.04 281.37 400.04 282.08 396.68 282.24 395.7 283.32 392.99 287.65 391.15 289.8 389.96 290.42 389.2 289.88 388.82 287.57 388.28 286.74 387.08 286.99 386.65 286.25 385.78 285.42 384.64 285.26 382.8 285.75 382.69 285.26 383.23 284.76 383.67 283.44 381.88 282.29 381.66 281.83 382.09 281.54 387.14 282.66 392.83 279.23 394.29 277.82 394.62 277 394.62 274.98 397.22 273.74 398.85 272.09 401.67 268.37 401.18 267.13 399.98 266.64 399.12 266.55 397.98 264.32 397.98 264.16 397.11 263.17 390.44 265.27 387.84 266.76 386.65 267.34 386.43 267.01 386.27 264.99 387.78 262.92 387.78 261.6 386.81 260.32 385.23 259.66 383.93 259.66 381.71 260.4 378.89 262.22 378.67 263.09 379.92 264.33 379.92 264.7 377.97 265.61 377.1 266.43 375.1 266.76 374.66 266.43 374.34 265.28 373.74 264.29 373.58 264.2 372.87 264.2 368.75 265.19 367.29 264.99 365.12 264.29 364.09 264.29 363.44 264.45 363.22 264.29 363 263.71 364.41 261.73 363.98 261.15 362.95 260.94 361.43 259.29 361.75 258.88 363.27 258.88 364.25 258.14 364.46 257.06 365.22 256.9 366.2 257.6 367.12 257.64 369.4 256.53 372.44 255.33 372.98 254.05 374.22 253.3 379 251.53 379.7 250.62 379.75 248.72 379.32 247.56 378.45 247.15 376.66 247.32 372.98 248.56 371.46 249.71 371.08 249.55 371.3 248.72 371.84 247.24 370.1 245.38 369.67 244.06 368.85 243.73 365.38 248.72 361.05 253.06 356.01 256.16 354.92 256.07 354.38 255.74 354.81 255.12 358.72 251.32 359.91 248.68 360.34 246.58 358.93 245.5 358.66 244.88 361.1 243.27 361.94 241.99 361.8 241.99 361.8 240.83 362.01 239.67 362.01 238.52 362.66 237.94 362.88 237.15 363.15 236.45 363.31 235.75 363.8 234.92 364.18 234.18 364.61 233.36 364.94 232.53 365.16 231.66 365.16 230.88 364.99 230.34 364.83 229.97 364.34 229.76 363.85 229.68 363.15 229.76 362.34 229.81 361.2 229.97 360.17 230.05 358.81 230.26 357.67 230.47 356.75 230.8 355.34 231.17 354.69 231.25 353.93 231.46 353.06 231.58 352.09 231.91 351.44 232.04 350.62 232.28 350.3 232.74 349.97 233.15 349.43 233.56 349.1 233.98 349 234.27 349 234.47 349 234.84 348.89 235.42 348.73 236.04 348.67 236.7 348.45 237.28 348.29 238.06 348.02 238.97 347.64 239.63 347.32 240.09 346.78 240.54 346.34 240.67 345.69 240.75 345.31 240.83 344.71 240.79 344.5 240.75 344.47 240.7 344.39 240.58 344.39 240.34 344.5 239.63 344.5 238.6 344.33 237.86 343.95 237.2 343.47 236.74 343.14 236.37 342.44 235.79 342 235.38 341.24 235.01 340.27 234.89 339.4 234.85 338.31 234.85 337.34 235.05 336.74 235.34 336.36 235.63 335.55 235.96 334.79 236.42 334.3 236.7 333.6 236.87 333 236.91 332.62 236.79 332.29 236.75 331.64 236.33 330.99 235.96 330.45 235.96 329.64 235.8 328.99 235.63 328.01 235.59 327.3 235.55 326.6 235.51 326 235.38 325.19 235.3 324.76 235.22 324 235.05 323.62 234.97 323.35 234.85 323.13 234.68 323.35 234.56 323.83 234.48 324.54 234.48 325.3 234.44 325.52 234.44 325.84 234.39 326.44 234.39 326.6 234.44 326.98 234.35 327.63 234.27 328.01 234.23 328.44 234.19 328.88 234.35 329.2 234.52 329.91 234.68 330.67 234.72 331.53 234.43 331.81 234.27 332.02 233.98 332.18 233.57 332.62 233.07 333.11 232.66 333.49 232.45 334.46 232.29 335.55 232.16 336.47 232.12 337.55 232 337.99 231.46 338.42 230.8 338.64 230.43 339.13 229.77 339.34 229.48 339.94 229.15 340.37 229.11 341.24 229.07 342.05 228.98 342.49 228.82 342.92 228.53 343.3 228.07 343.68 227.62 343.9 227.29 343.95 226.84 344.11 226.51 344.6 226.09 345.09 225.8 345.9 225.72 346.93 225.56 348.23 225.6 349.21 225.55 350.62 225.27 351.6 225.02 352.68 224.61 353.17 224.23 353.33 223.94 353.55 223.33 353.71 222.83 353.71 222.25 353.44 221.96 352.9 221.71 352.35 221.59 351.49 221.43 350.62 221.3 349.91 221.05 349.1 220.85 347.85 220.77 346.93 220.77 346.17 220.81 345.14 220.85 344.44 220.77 343.73 220.48 343.41 220.31 343.19 219.98 342.92 219.73 342.92 219.32 343.19 219.03 343.62 218.87 344.49 218.91 345.68 218.79 346.5 218.7 347.26 218.58 348.29 218.41 348.99 218.21 349.81 217.92 350.24 217.67 350.78 217.22 351.05 216.84 351 216.43 350.46 216.02 349.91 215.52 349.1 215.11 348.29 214.74 347.63 214.28 346.6 213.91 345.68 213.46 344.87 213.05 344.33 212.67 343.68 212.3 343.4 212.01 343.19 211.73 342.92 211.44 342.64 211.19 342.92 211.02 342.92 210.65 343.51 210.53 344.6 210.61 345.74 210.61 347.04 210.53 347.8 210.24 348.28 209.95 348.45 209.83 348.28 209.66 348.01 209.21 347.69 208.67 347.69 208.26 347.69 207.6 347.8 207.14 347.9 206.65 348.28 206.44 349.04 206.28 349.8 205.49 349.91 204.95 350.02 204.09 350.07 203.39 350.18 202.48 350.18 201.73 350.23 201.12 350.29 200.21 350.67 199.67 350.67 199.34 350.94 199.34 351.21 199.34 351.43 199.34 351.48 199.17 351.48 198.97 351.43 198.6 351.37 198.22 351.64 198.18 352.08 198.02 352.46 197.85 352.84 197.81 353.16 197.85 353.65 198.1 353.92 198.51 354.14 199.34 354.25 200.12 354.03 200.7 353.92 201.28 353.81 202.15 353.71 202.52 353.6 202.97 353.38 203.38 353.38 203.84 353.44 204.17 353.71 204.62 353.92 204.91 354.09 205.28 354.25 205.82 354.14 206.19 354.03 206.52 353.92 206.77 354.03 207.14 354.3 207.43 354.57 207.76 355.01 208.05 355.66 208.26 356.2 208.54 356.8 208.88 357.02 209.16 357.02 209.66 356.85 209.95 356.74 210.44 356.53 210.9 356.2 211.15 355.66 211.43 355.12 211.56 354.79 211.77 354.63 212.05 354.58 212.55 354.68 212.92 355.06 213.33 355.82 213.99 356.8 214.53 357.72 215.03 358.7 215.4 360 216.14 360.7 216.35 361.46 216.51 362.44 216.72 363.36 216.76 364.18 216.8 365.42 216.64 366.94 216.55 367.43 216.26 367.97 215.73 368.95 215.36 369.76 214.94 370.85 214.98 371.82 214.94 372.8 215.02 373.5 214.94 374.32 214.86 375.08 214.69 375.35 214.16 375.46 213.54 375.51 212.92 375.4 212.51 375.51 212.01 376.16 211.68 376.43 211.47 377.3 211.27 378.49 211.39 379.58 211.18 380.66 210.98 381.91 210.73 382.61 210.61 383.81 210.19 384.78 209.57 385.59 209.2 386.63 208.79 387.6 208.54 388.74 208.13 389.72 207.8 390.96 207.51 392.1 207.18 393.4 206.89 394.22 206.81 394.38 206.39 394.38 205.98 394.22 205.44 394.05 205.24 393.73 205.07 393.35 205.03 393.02 205.03 392.37 205.03 391.67 204.91 391.13 204.7 390.47 204.12 390.15 203.59 390.15 203.01 390.15 202.43 390.91 201.6 391.61 201.03 392.37 200.99 393.4 200.9 394.54 200.74 395.52 200.28 396.01 199.66 396.17 198.96 396.44 198.3 396.82 197.6 397.14 196.86 397.52 196.07 398.34 195.62 398.88 195.33 399.53 194.96 400.07 194.46 400.51 193.76 400.78 193.14 400.56 192.52 400.51 192.03 400.89 191.24 401.75 190.66 402.46 190.29 403.43 189.84 404.03 189.75 404.57 189.42 405.01 188.68 405.12 188.27 405.01 187.57 405.22 186.99 405.66 186.29 406.09 185.58 406.69 184.51 406.74 183.69 406.52 182.98 406.31 182.57 405.77 182.16 405.38 181.66 404.57 181.37 404.19 181.37 403.76 181.25 403.54 181.33 403 181.62 402.35 182.08 401.75 182.7 401.26 183.07 400.78 183.56 400.29 183.89 399.53 184.18 398.77 184.35 397.79 184.18 396.54 183.89 395.35 183.4 394.59 182.82 393.89 182.16 392.8 181.5 392.31 181.09 391.23 180.55 390.58 180.1 389.98 179.97 389.06 179.97 387.98 179.97 386.89 180.39 386.02 180.59 385.26 180.84 384.18 181.21 383.47 181.62 382.72 182 381.85 182.41 380.87 182.66 380.22 183.03 379.52 183.4 378.81 183.94 378.27 184.64 377.62 185.34 377.13 185.79 376.48 185.92 375.61 185.67 374.64 185.46 373.93 185.63 373.33 186.04 372.52 186.41 371.98 186.66 371.06 187.03 370.57 186.87 370.19 186.46 370.19 186.17 370.62 185.55 371.38 184.72 371.92 183.85 372.14 183.28 372.25 182.86 371.54 182.45 371.33 182.08 371.38 181.58 372.25 181.13 373.01 181.05 373.88 181.09 374.53 180.84 375.45 180.63 376.1 180.22 376.37 179.93 376.31 179.35 376.1 178.53 375.61 178.03 375.23 177.54 374.85 176.88 374.85 176.46 374.63 175.93 374.9 175.6 375.45 175.14 376.1 174.48 376.31 173.91 376.1 173.41 375.45 172.96 374.85 172.58 374.74 172.29 375.12 171.96 375.88 171.26 376.31 170.89 376.86 170.11 377.4 169.16 377.51 168.41 377.29 167.51 376.91 166.8 376.47 166.02 375.72 165.44 375.12 165.19 373.87 164.91 372.57 164.62 371.92 164.41 371.16 164.25 370.18 164.2 369.21 164.25 367.96 163.96 366.93 163.87 365.52 163.54 364.49 163.34 363.4 163.46 362.32 163.59 361.45 163.96 360.64 164.45 360.26 164.82 359.72 165.24 359.5 165.73 359.39 166.31 359.5 166.93 359.66 167.26 359.39 167.84 358.41 168.13 357.65 168.5 356.19 169.32 355.22 170.07 354.29 170.9 353.64 171.64 352.94 172.51 352.5 173.33 352.07 174.03 351.69 174.86 350.93 175.6 350.5 176.14 350.23 176.06 350.28 175.77 350.17 175.31 349.9 174.9 349.25 174.82 348.82 174.4 348.44 173.83 348.22 173.25 348.33 172.63 348.71 171.93 348.82 171.06 348.54 170.61 348.06 170.15 347.13 169.7 346.32 169.37 345.83 169.12 345.83 168.91 345.94 168.13 346.37 167.3 346.92 166.4 347.24 165.82 347.3 165.24 347.24 164.45 347.3 163.38 347.24 162.76 347.02 162.23 346.91 161.94 346.32 161.94 345.5 161.94 344.69 161.98 343.99 162.1 343.23 162.52 342.9 162.6 342.41 162.72 342.41 162.43 342.25 161.85 342.09 161.57 341.49 161.44 341.44 161.19 341.76 160.74 342.2 160.29 342.9 159.67 343.12 159.05 343.17 158.47 342.9 157.73 342.25 157.23 341.71 156.86 340.62 156.28 340.57 155.87 340.73 155.25 341 154.84 341.22 154.05 341.33 153.76 341.11 153.43 340.29 152.69 339.86 152.36 339.1 151.99 337.96 151.25 337.69 151.25 337.2 151.29 336.34 151.29 335.79 151.37 335.52 151.45 335.36 151.16 335.25 150.42 335.14 149.84 334.6 148.89 334 148.23 332.86 147.7 332.16 147.41 331.13 147.24 330.53 147.2 330.15 146.95 330.15 146.37 330.21 145.71 330.15 144.89 329.99 144.1 329.39 143.61 328.25 143.07 327.38 142.99 326.57 142.99 326.08 143.07 325.32 143.2 325 143.07 324.56 142.62 324.35 141.88 324.07 141.09 323.31 140.31 322.94 139.52 322.34 138.95 321.9 138.57 320.98 138.29 320.01 138.12 319.25 138.2 318.05 138.29 317.08 138.62 316.26 138.86 315.18 139.03 314.36 139.4 313.82 139.69 313.12 140.1 312.25 140.68 311.71 141.05 311.22 141.34 310.79 141.26 310.35 140.85 310.13 140.19 310.35 139.4 310.57 138.08 311.11 137.01 311.92 136.02 312.3 135.48 312.9 135.19 313.66 134.61 314.47 133.91 314.69 133.5 314.85 133.13 314.69 132.59 314.47 132.22 314.09 132.09 313.6 132.01 312.68 131.93 311.65 132.14 311.11 132.22 310.95 132.43 310.02 132.71 308.94 133.04 308.29 133.46 307.53 134.12 306.82 134.7 306.34 135.36 305.74 136.02 305.2 136.68 304.76 137.17 304.55 137.46 304.55 137.67 304.17 137.63 303.68 137.42 302.92 137.17 302.27 137.05 301.73 136.97 301.13 137.01 300.75 137.09 300.1 137.22 299.23 137.59 298.64 137.71 298.15 137.88 297.5 137.96 297.01 138 296.52 137.96 296.46 137.88 296.3 137.42 296.46 136.76 296.63 135.85 296.68 134.99 296.79 134.2 297.17 133.38 297.28 132.63 297.28 131.77 297.01 130.86 296.79 130.36 296.19 129.83 295.59 129.83 295.27 129.99 294.62 130.2 293.97 130.41 293.32 130.69 292.56 131.23 291.8 131.89 290.93 132.64 290.28 133.01 289.63 133.42 288.98 133.87 288.65 134.25 288.17 134.82 287.84 135.2 287.57 135.36 287.08 135.44 286.76 135.4 286.65 135.2 286.65 134.49 286.75 133.75 286.75 133.17 286.65 132.47 286.32 131.89 285.89 131.11 285.61 130.37 285.07 129.91 284.31 129.5 283.06 128.84 281.98 128.39 280.89 127.81 280.19 127.48 279.1 127.19 278.51 127.11 277.42 127.11 276.55 126.78 276.28 126.61 276.39 126.08 276.44 125.21 276.55 124.3 276.55 123.64 276.44 123.14 275.85 122.65 275.09 122.2 274.65 121.91 274.11 121.78 273.46 121.95 272.76 122.11 271.73 122.4 270.75 122.61 269.88 122.73 268.9 122.77 267.98 122.77 267.6 122.4 267.11 121.91 266.79 121.29 266.41 120.88 266.03 120.75 265.38 120.55 264.62 120.59 263.86 120.63 263.26 120.38 262.67 120.05 262.02 119.93 260.6 119.76 259.85 119.76 258.87 119.68 258.06 119.56 257.4 119.43 256.7 119.23 256.43 119.14 256.26 118.61 256.26 118.44 256.7 118.36 257.3 118.44 258.22 118.53 259.36 118.65 260.12 118.52 260.82 118.15 261.31 117.7 262.07 117.41 263.59 117.24 265.05 117.04 266.35 116.87 268.2 116.58 269.17 116.29 270.04 116.04 270.42 115.76 270.64 115.55 270.8 115.09 270.8 114.56 270.96 113.94 271.07 113.57 271.56 113.2 271.94 113.15 272.59 113.28 272.91 113.48 273.35 113.86 273.78 114.23 274.11 114.68 274.43 114.97 274.76 115.18 275.19 115.34 276.12 115.51 276.88 115.55 277.31 115.46 278.07 115.18 278.56 114.97 278.88 114.84 279.37 114.89 279.75 114.97 280.29 115.26 280.67 115.38 281 115.38 281.54 115.18 281.97 114.89 282.41 114.56 283.06 113.73 283.06 113.03 283.11 112.33 283.06 111.5 282.84 110.59 282.68 110.05 282.46 109.81 281.92 109.73 281.65 109.77 281.27 109.81 280.89 110.06 280.07 110.1 279.53 110.1 279.1 109.97 278.72 109.64 278.55 109.27 278.12 108.86 277.63 108.49 276.87 108.08 276.6 108.07 276.38 108.28 276.06 108.45 275.68 108.7 275.08 108.7 274.65 108.49 274.21 108.04 273.78 107.54 273.29 107.46 272.7 107.37 271.72 107.54 270.96 107.75 270.42 107.83 270.15 107.75 270.15 107.5 270.09 106.96 270.15 106.34 270.09 105.68 269.82 105.39 269.11 105.06 268.57 104.9 267.87 104.69 267.38 104.69 267 104.86 266.73 105.15 266.4 105.6 265.97 106.05 265.53 106.43 264.83 106.34 264.5 106.18 263.74 106.1 262.66 105.89 261.63 105.85 260.49 105.6 259.73 105.48 259.03 105.52 258.37 105.35 258.27 105.07 258.65 104.78 258.92 104.36 259.19 103.74 259.62 103.13 259.95 102.38 260.22 102.01 260.87 101.8 261.63 101.85 262.55 101.97 263.42 101.93 263.8 101.93 264.18 102.26 264.83 102.46 265.53 102.38 266.02 102.22 267 101.93 267.86 101.68 268.68 101.88 269.55 101.97 270.14 101.88 270.74 101.68 271.61 101.1 272.37 100.69 273.13 100.4 274.37 100.07 275.4 100.11 276.54 100.15 277.3 100.44 278.01 100.81 279.04 101.47 279.91 101.84 280.99 102.21 281.97 102.5 282.84 102.5 283.43 102.5 283.81 102.34 283.92 101.92 284.08 101.59 283.81 101.18 283.22 100.68 282.67 100.44 281.97 100.15 281.26 99.98 280.88 99.78 280.67 99.57 280.67 99.28 280.77 98.83 280.56 98.29 280.01 97.71 279.91 97.42 279.69 96.85 279.74 96.23 279.96 95.85 280.5 95.94 281.21 96.18 282.24 96.51 283.1 96.89 283.92 97.34 284.68 97.71 285.55 98 286.31 98.08 287.12 98.08 287.77 97.88 288.26 97.63 289.18 97.05 289.89 96.93 290.65 96.88 291.4 96.88 292.06 96.88 292.92 96.72 293.3 96.51 293.41 96.22 293.25 95.73 292.54 95.11 291.78 94.61 291.24 94.2 290.7 93.79 290.59 93.54 290.48 93.13 290.81 92.71 291.13 92.09 291.24 91.31 291.19 90.94 291.08 90.32 291.35 89.82 291.89 89.41 292.38 89.08 292.65 88.54 292.65 88.05 292.22 87.68 291.46 87.47 290.37 87.51 289.23 87.55 287.66 87.72 286.25 88.09 284.4 88.42 282.83 88.71 281.53 89.04 280.45 89.46 279.69 90.03 278.87 90.49 278.17 91.02 277.41 91.52 276.92 92.1 276.92 92.43 277.14 93.13 277.14 93.5 276.7 94.12 276.87 94.74 277.19 94.91 277.35 95.19 277.52 95.73 277.3 96.1 276.65 96.31 275.57 96.56 274.75 96.6 273.78 96.52 273.12 96.48 271.77 96.48 271.06 96.31 270.79 96.02 270.85 95.82 271.5 95.4 271.93 94.86 272.91 94.29 273.67 93.75 273.99 93.17 274.1 92.64 274.1 92.43 273.56 91.98 273.28 91.52 273.34 91.11 273.56 90.53 273.88 89.91 274.15 89.04 273.77 88.63 273.28 88.26 272.9 87.93 272.36 87.81 271.28 87.81 269.87 87.89 268.62 88.18 267.7 88.3 266.77 88.22 266.01 88.59 265.42 88.92 264.5 89.01 263.52 89.17 262.22 89.13 260.92 89.05 260.05 88.88 259.18 88.68 258.26 88.51 257.77 88.51 257.66 88.88 257.28 89.5 257.17 89.87 257.07 90.29 256.69 90.41 256.2 90.41 255.87 90.08 255.22 89.3 254.84 88.72 254.57 88.51 254.24 88.59 253.65 88.88 253.32 89.42 252.94 90.21 252.67 90.66 251.97 91.4 251.53 92.1 251.1 92.81 250.67 93.26 250.07 93.88 249.69 94.33 249.31 94.5 248.93 94.38 248.71 94.05 248.71 93.51 249.04 92.81 249.8 91.86 250.29 91.11 251.26 90.04 251.97 89.09 252.51 88.31 252.72 87.6 252.67 86.9 252.62 86.33 252.34 85.66 252.18 84.88 251.91 84.34 251.86 84.14 251.96 83.89 252.23 83.6 252.67 83.68 253.1 84.1 253.59 84.47 254.03 84.63 254.51 84.71 255.06 84.51 255.49 84.18 255.6 84.09 256.52 84.42 256.85 84.8 257.66 85.33 258.85 86.12 259.61 86.24 260.16 86.24 261.67 86.16 262.76 85.83 263.84 85.5 264.82 85.12 265.8 84.63 266.39 84.17 266.61 83.72 266.61 83.02 266.39 82.44 265.8 82.03 265.04 81.53 264.22 81.29 263.08 80.83 262.27 80.42 261.35 80.13 260.37 79.76 259.45 79.76 258.69 79.35 257.66 78.64 257.06 77.94 256.52 77.12 255.98 76.46 255.22 75.76 255 74.85 254.67 74.27 254.56 73.44 254.29 72.99 253.8 72.78 253.32 72.83 252.5 72.87 251.63 72.99 250.87 72.83 250.06 72.66 249.08 72.17 248.6 71.75 247.89 71.38 247.4 71.05 246.91 70.84 246.53 70.84 246.1 71.09 245.67 71.34 245.07 71.59 244.47 71.88 243.93 71.84 243.5 71.59 242.79 71.26 242.03 70.72 241.33 70.23 240.94 69.98 240.51 69.86 239.86 69.86 239.53 69.9 239.1 70.27 238.78 70.56 238.4 70.76 237.96 70.77 237.15 70.56 236.61 70.35 235.96 69.94 235.36 69.73 234.92 69.86 234.38 70.15 233.84 70.44 232.86 70.64 232.48 70.44 231.78 70.15 231.02 69.53 230.2 69.03 229.61 68.29 229.01 67.88 228.36 67.59 226.95 67.18 226.08 66.97 225.1 66.76 224.13 66.48 223.15 66.31 222.17 66.06 221.47 66.11 220.87 66.19 220.49 66.35 220.6 66.77 220.93 67.34 221.47 68.25 222.28 69.04 223.15 69.7 223.86 70.27 224.62 71.06 225.49 71.68 226.08 72.42 226.3 72.87 226.68 73.25 226.84 73.74 227.28 74.07 227.93 74.53 228.47 75.43 228.69 76.13 228.74 76.63 228.74 77.5 228.69 78.12 228.74 78.69 229.18 79.07 230.1 79.52 230.81 79.73 231.84 80.06 232.22 80.39 232.6 80.8 232.81 82.2 232.38 82.86 232.22 82.82 231.4 82.53 230.43 82 229.94 81.42 229.18 80.8 228.58 80.51 227.99 80.64 227.44 80.72 226.74 80.76 226.25 80.76 225.98 80.51 225.65 79.64 225.65 78.12 225.43 76.92 224.78 76.34 223.92 75.76 223.26 75.52 222.45 75.23 221.47 74.86 220.98 74.53 220.66 73.74 220.28 73.25 219.79 72.75 218.98 72.05 218.32 71.35 218.05 70.77 217.51 70.36 216.81 69.78 215.67 69.08 214.53 68.38 214.09 67.68 213.6 66.97 213.39 66.15 213.22 65.86 212.73 65.65 212.03 65.36 211.16 64.99 210.56 64.46 210.56 64.04 210.29 63.63 209.8 62.89 209.59 62.27 209.97 61.69 210.56 61.07 211.16 60.49 211.65 59.71 211.81 58.97 211.75 58.02 211.21 56.9 210.78 56.28 210.94 55.75 211.26 55.17 211.48 54.55 211.32 54.01 210.83 53.27 210.12 52.81 209.36 52.4 208.77 52.4 207.63 52.73 206.38 53.35 205.41 53.81 204.81 53.97 204.48 54.38 204 55 203.29 55.46 202.53 55.87 201.99 55.91 200.58 56.08 199.87 56.62 199.22 57.28 198.79 58.27 198.46 59.05 198.19 59.42 197.6 60 196.67 60.29 195.81 60.5 195.43 60.83 194.61 61.65 194.23 62.19 194.02 63.1 193.58 64.17 193.48 65.08 193.26 65.91 192.99 67.02 192.88 67.97 192.83 68.88 192.88 70.24 192.88 71.07 192.67 71.73 192.34 72.64 191.91 74.16 192.02 74.91 192.34 75.57 192.45 76.15 192.29 76.72 191.48 76.93 190.39 77.22 189.47 77.43 188.17 77.96 187.35 78.05 186.81 78.54 186.54 78.79 186.32 79.24 185.89 80.03 185.73 80.73 185.24 80.73 184.86 80.73 184.37 80.73 183.72 81.02 183.45 81.39 183.29 82.09 182.85 82.51 182.2 82.51 181.55 82.43 180.95 81.97 180.25 80.82 179.92 79.82 179.71 78.96 179.38 77.93 179.11 77.55 178.84 77.14 178.57 76.89 178.02 76.69 177.26 76.61 176.56 76.61 175.96 76.61 175.31 76.61 174.77 76.65 174.33 76.77 174.12 76.9 173.95 77.27 173.96 77.64 173.79 77.85 173.58 77.76 173.14 77.56 172.82 77.14 172.38 76.73 171.73 76.07 171.24 75.74 170.97 75.58 170.37 75.49 169.67 75.33 169.13 75.45 168.8 75.45 168.1 75.66 167.23 76.07 166.63 76.4 166.03 76.61 165.76 76.86 165.28 76.98 164.84 77.02 164.24 76.86 163.76 76.69 163.11 76.32 162.13 75.95 161.64 75.66 160.93 75.54 159.85 75.42 159.25 75.5 158.28 75.54 157.68 75.46 156.92 75.38 155.84 75.17 154.8 75 153.72 74.88 152.91 74.76 152.09 74.68 151.5 74.76 151.01 74.88 150.52 75.05 149.81 75.17 149.43 75.25 148.68 75.25 147.97 74.97 146.94 74.76 145.53 74.26 143.95 73.77 142.98 73.56 141.57 73.07 140.59 72.62 139.99 72.53 139.29 72.24 138.58 71.79 137.88 71.25 137.01 70.76 136.03 70.47 135.6 70.26 134.78 70.1 134.3 70.06 133.97 70.06 133.48 70.26 133.1 70.47 132.78 70.88 132.34 71.34 131.86 71.59 131.8 71.79 131.75 71.88 131.53 71.84 131.04 71.59 130.39 71.46 129.63 70.97 129.2 70.64 128.27 70.18 127.73 70.14 126.92 70.27 125.83 70.35 124.97 70.6 124.26 70.89 123.34 71.22 122.8 71.26 122.15 71.51 121.39 71.63 120.19 72.05 119.54 72.38 118.89 72.71 118.08 73.33 117.37 73.86 116.56 74.44 115.75 74.94 115.1 75.23 114.55 75.6 113.85 75.85 113.36 76.01 112.22 76.1 111.52 75.97 110.38 75.97 108.86 75.81 107.88 75.68 106.91 75.52 105.6 75.11 104.79 74.86 103.81 74.53 102.84 74.24 102.57 74.24 101.48 74.16 100.45 73.83 99.69 73.62 98.6 73.42 97.84 73.42 97.03 73.42 96.65 73.75 96 74.12 95.57 74.33 94.86 74.29 94.21 74.16 93.89 74 93.45 73.75 92.69 73.75 91.93 73.75 91.61 73.96 91.28 74.04 90.85 74.45 90.36 74.62 89.98 74.74 89.44 74.87 89 75.03 88.68 74.83 88.3 74.54 87.97 74.17 87.32 73.67 86.78 73.5 86.02 73.46 85.04 73.47 84.5 73.42 83.58 73.34 82.66 73.22 82.01 73.05 81.95 72.93 81.9 72.39 81.95 72.02 82.33 71.28 82.98 70.78 83.52 70.49 84.17 70.12 84.82 69.87 85.37 69.46 85.91 69.21 86.56 68.92 87.1 68.84 87.81 68.84 88.29 68.72 89.11 68.72 89.71 68.67 90.14 68.55 90.63 68.18 90.95 67.81 91.11 67.56 90.84 67.27 90.3 66.86 89.7 66.57 89.21 66.4 88.13 65.95 87.1 65.58 86.34 65.17 85.14 64.22 83.9 63.47 82.76 62.77 81.78 62.2 80.8 61.74 79.99 61.29 79.34 60.75 78.52 60.22 77.87 60.05 77 59.97 76.19 59.97 75.81 60.09 75.59 60.67 75.11 61.33 74.73 62.2 74.46 63.19 74.19 63.97 73.75 64.97 73.43 65.91 73.05 66.95 72.94 67.69 72.67 68.97 72.56 69.47 72.51 70.09 72.46 70.66 72.4 71.57 72.08 72.15 71.59 72.93 71.26 73.64 70.89 74.17 70.51 74.59 70.13 75.16 70.02 75.54 69.91 75.95 70.02 76.49 70.02 77.06 70.24 77.93 70.56 78.47 71 78.96 71.21 79.25 71.22 79.95 71.22 80.45 71.11 81.15 71.05 81.4 70.78 81.69 70.62 81.85 70.4 81.94 70.02 81.94 69.54 81.85 69.05 81.61 68.23 81.32 67.58 80.95 67.09 80.37 66.44 79.83 66.06 79.54 65.84 79.34 65.68 79.46 65.47 79.63 64.92 79.92 64.22 80.37 63.13 80.91 62.48 81.03 61.56 81.28 60.69 81.24 60.1 81.07 59.28 80.83 58.85 80.83 58.2 80.95 57.49 81.03 56.35 81.2 55.7 81.36 55.27 81.49 54.89 81.57 54.56 81.86 54.35 82.03 53.91 82.27 53.53 82.69 53.1 82.89 52.56 83.06 52.12 83.06 51.96 83.06 51.74 82.9 51.53 82.69 51.53 82.44 51.53 82.03 51.63 81.24 51.85 80.54 51.85 79.96 51.9 79.3 51.63 78.76 51.25 78.44 50.76 78.06 50 77.65 49.3 77.32 48.59 77.16 48.05 77.03 47.62 76.99 47.13 77.03 46.64 77.24 46.37 77.36 45.99 77.78 45.56 78.36 44.96 78.56 44.58 78.77 43.77 79.06 42.9 79.31 42.41 79.39 42.03 79.47 41.6 79.43 41.6 79.31 41.76 79.06 41.81 78.73 42.03 78.36 42.68 77.9 43.39 77.49 43.93 76.95 44.25 76.58 44.25 75.96 44.25 75.38 43.98 74.85 43.87 74.31 43.11 73.86 42.62 73.4 41.97 73.16 41.32 72.62 40.45 72.25 39.64 72 38.66 71.59 37.9 71.38 37.2 71.38 36.27 71.3 35.73 71.47 34.86 71.76 34.21 72.04 33.45 72.29 32.53 72.58 31.39 73.12 30.31 73.45 29.49 73.78 28.52 74.11 27.76 74.53 26.73 74.9 26.08 75.31 24.99 75.56 24.13 75.85 22.12 76.18 20.11 76.76 18.32 77.09 16.75 77.42 15.29 77.75 14.39 78.12 14.39 79.61 13.95 79.53 13.52 79.45 13.08 79.37 12.65 79.28 12.22 79.12 11.84 78.95 11.67 78.87 11.35 78.7 10.97 78.5 10.81 78.42 10.59 78.13 10.37 77.84 10.21 77.59 10.05 77.26 9.94 76.93 9.83 76.6 9.83 76.19 9.83 75.81 9.83 75.48 9.83 75.36 9.62 75.07 9.4 74.82 9.02 74.62 8.69 74.37 8.59 74.29 8.15 74.37 7.99 74.37 7.61 74.53 7.23 74.7 6.74 74.66 6.31 74.61 6.2 74.41 6.58 74.2 6.9 73.96 7.01 73.87 6.8 73.58 6.36 73.46 6.09 73.42 5.66 73.38 5.22 73.33 5.01 73.29 5.12 72.96 5.55 72.84 5.93 72.67 6.04 72.63 6.47 72.59 6.91 72.55 7.45 72.39 7.83 72.26 8.21 72.14 8.59 71.93 8.91 71.73 9.18 71.56 9.51 71.31 9.78 71.07 10 70.86 10.27 70.57 10.54 70.32 10.7 70.16 10.65 69.79 10.65 69.46 10.6 69.13 10.6 68.8 10.44 68.47 10.33 68.14 10.22 67.8 9.89 67.52 9.62 67.27 9.3 66.98 9.03 66.73 8.86 66.61 8.48 66.48 8.05 66.32 7.67 66.19 7.24 66.03 6.8 65.86 6.37 65.74 5.99 65.61 5.83 65.53 5.39 65.57 4.96 65.61 4.47 65.61 4.04 65.65 3.55 65.61 3.11 65.57 2.68 65.49 2.25 65.45 1.76 65.41 1.65 65.41 1.22 65.32 1 65.28 1.11 64.99 1.98 64.87 2.57 64.87 3.82 64.54 4.85 63.88 5.72 63.55 5.34 63.3 4.42 62.93 3.39 62.52 2.68 62.27 2.74 61.94 3.06 61.65 4.04 61.4 5.83 61.53 7.13 61.53 7.35 61.16 7.3 60.08 7.08 58.89 7.41 58.43 8.38 58.31 9.36 58.1 10.5 57.44 11.64 56.29 12.24 55.63 13.65 54.88 13.87 54.18 14.39 53.54 14.39 53.23 14.56 53.15 14.77 52.98 15.37 52.69 15.97 52.61 16.73 52.44 17.38 52.4 18.19 52.77 18.74 53.06 19.55 53.43 19.98 53.56 20.2 53.47 20.53 53.19 20.52 52.86 20.52 52.32 20.47 51.99 20.52 51.58 20.74 51.16 21.34 50.91 22.31 50.71 23.51 50.67 24.32 50.62 25.35 50.38 26.44 50.25 27.47 49.96 27.95 49.75 28.39 49.3 28.71 48.85 28.71 48.47 28.49 48.1 28.22 47.81 27.84 47.53 27.52 46.99 27.3 46.49 26.87 46.12 26.49 45.83 26.11 45.38 25.78 45.17 25.45 44.97 25.07 44.8 24.53 44.89 24.26 44.93 23.72 45.01 23.56 45.09 23.12 45.18 22.69 45.3 22.31 45.38 21.71 45.46 21.17 45.47 20.52 45.38 19.76 45.18 18.94 44.89 18.29 44.56 17.59 44.19 17.1 43.69 16.94 43.28 16.39 42.5 15.85 41.88 15.74 41.26 15.41 40.76 15.2 40.1 14.92 39.52 14.82 39.03 14.76 38.7 14.75 38.67 14.74 38.62 13.99 38 13.83 36.8 13.99 35.4 14.38 34.29 14.38 34.24 14.38 32.3 15.51 29.74 16 28.83 16.49 27.63 16.87 27.01 17.14 26.52 17.57 25.65 18.33 24.78 18.76 24.04 19.14 23.21 19.36 22.43 19.79 21.36 20.11 20.65 20.71 19.75 21.31 19.08 21.96 18.26 22.93 17.06 23.58 16.28 24.29 15.49 24.83 14.95 25.48 14.09 25.91 13.05 26.08 12.31 26.29 11.57 26.56 9.5 26.56 8.35 26.56 7.4 26.5 6.28 26.34 5.29 26.18 4.39 26.07 3.52 26.17 2.73 26.28 2.07 26.34 1.49 26.44 1 27.64 2.49 28.24 3.39 28.67 4.09 28.89 4.8 29.43 6.32 29.43 7.52 29.33 8.92 29.27 10.58 29.06 11.57 28.63 12.76 28.25 13.59 27.92 14.33 27.11 15.57 26.19 16.77 25.27 18.13 24.13 19.41 23.48 20.82 22.72 22.18 22.07 23.63 21.15 24.82 20.88 25.44 20.12 26.68 19.47 27.67 19.04 28.83 18.66 29.82 18.28 31.14 18.17 32.42 18.23 33.41 18.18 34.49 18.34 35.48 18.94 36.51 19.75 37.42 20.94 38.07 21.81 38.4 22.95 38.69 24.15 38.82 25.66 38.82 27.18 38.82 28.7 38.81 30.28 38.73 31.25 38.81 32.01 39.06 32.66 39.27 34.08 39.84 34.67 40.17 35.27 40.59 35.87 41.41 36.03 41.99 36.19 43.14 36.03 44.51 35.87 45.87 35.44 47.07 35 48.43 34.25 49.67 33.81 50.41 33.11 51.44 32.24 52.52 31.32 53.14 30.29 53.88 29.1 54.54 27.9 55.16 26.93 55.49 25.95 56.28 24.49 57.48 23.41 58.43 21.45 59.63 19.77 60.78 17.93 62.02 16.74 62.85 16.14 63.67 16.03 64.33 16.03 64.54 16.85 64.79 17.93 64.99 19.13 65.28 20.1 65.53 21.4 65.74 22.87 66.15 23.52 66.39 24.55 66.68 25.37 66.93 25.53 66.77 26.02 66.39 26.78 65.86 27.21 65.24 27.21 64.74 27.91 64.25 29.05 63.54 29.81 63.01 30.89 62.35 31.49 62.01 32.52 61.93 33.5 61.85 34.96 61.72 36.64 61.6 37.89 61.64 39.41 61.72 40.93 61.93 42.07 62.22 43.75 62.96 45.11 63.49 46.14 63.91 46.85 64.57 47.93 65.47 48.37 66.3 49.18 67.58 49.56 68.57 50.16 69.31 50.76 70.1 51.73 71.38 52.6 72.08 53.15 72.45 54.28 72.53 55.1 72.53 55.91 72.9 56.67 73.07 57.54 73.02 58.25 72.82 58.84 72.28 59.11 71.62 59.22 70.79 59.22 69.68 59.11 69.18 59 68.36 58.89 67.41 58.89 66.95 59.11 66.54 59.65 66.09 60.14 65.43 60.14 64.89 59.86 64.02 59.48 63.36 59.1 62.58 58.89 62.04 58.4 61.59 58.13 61.09 58.29 60.6 58.67 60.47 59.43 60.27 60.35 59.98 61.27 59.73 61.6 59.48 62.25 59.03 63.28 58.57 63.77 58.2 63.87 57.99 64.09 57.7 63.98 57 64.04 56.47 63.98 56.01 63.87 55.72 64.85 55.76 65.45 55.85 66.42 55.93 66.96 55.89 67.83 55.76 69.03 55.72 70.06 55.55 70.87 55.27 71.79 54.77 72.44 54.36 73.04 53.86 74.01 53.41 74.83 53.12 75.86 52.79 76.45 52.83 77.27 52.83 78.35 53.12 79.17 53.49 80.25 54.02 81.34 54.6 82.32 54.72 82.97 54.85 83.56 54.81 84.16 54.56 84.86 54.06 85.51 53.73 85.79 53.48 86 53.4 86.38 53.52 86.82 53.9 86.98 54.31 86.76 54.72 86.71 55.09 86.6 55.3 86.93 55.51 87.09 55.59 87.74 55.38 87.96 55.26 88.17 55.22 88.66 55.38 88.93 55.71 88.93 55.96 88.77 56.33 88.56 56.91 88.29 57.57 88.29 58.11 88.56 58.89 89.1 59.47 90.08 60.09 91.16 60.58 92.41 61.28 93.39 61.9 94.53 62.6 95.67 63.01 96.05 63.06 96.64 63.01 97.02 62.64 97.4 62.44 98.05 61.9 98.7 61.61 99.14 61.4 99.46 61.4 99.68 61.36 99.84 61.86 100.01 62.56 100.06 63.3 100.33 64.62 100.66 65.49 100.99 66.44 101.85 67.26 102.99 67.8 103.81 68.17 105 68.38 105.82 68.38 106.57 68.09 107.61 67.63 108.09 67.43 108.85 67.26 109.61 67.26 110.59 67.34 111.56 67.47 112.54 67.47 113.73 67.26 114.66 67.18 115.58 66.93 116.34 66.14 116.72 65.56 116.93 64.82 117.1 64 117.15 63.42 117.47 62.88 117.91 61.97 118.12 61.15 118.34 60.28 118.56 59.58 118.77 58.88 119.15 58.38 119.31 58.3 119.75 58.46 120.02 58.55 120.62 58.92 122.35 59.74 122.68 59.95 123.76 60.36 124.69 60.65 125.66 60.81 126.31 60.65 127.45 60.57 128.48 60.52 129.84 60.23 130.44 60.23 131.41 60.32 132.12 60.6 132.88 60.81 133.53 60.6 134.02 60.6 134.61 60.52 135.05 60.56 135.43 60.69 135.92 61.1 136.57 61.72 137.65 62.3 138.41 62.96 139.5 63.53 140.75 64.19 141.45 64.48 142.92 64.94 144 65.26 144.55 65.55 145.52 66.09 146.07 66.54 147.04 66.71 147.86 66.79 149.21 66.63 150.13 66.34 151 65.96 151.71 65.55 152.3 65.05 152.47 65.05 152.95 65.3 153.82 65.76 154.58 66.46 155.29 66.75 156.1 66.99 157.29 67.16 158.43 67.45 159.9 67.86 160.71 67.86 161.91 67.69 162.99 67.32 163.48 67.12 164.29 66.91 164.94 66.74 165.92 66.87 166.52 67.07 167.71 67.44 168.69 67.69 169.99 68.06 171.62 68.43 173.03 68.64 174.38 68.76 176.34 69.01 177.8 69.01 178.94 68.93 180.03 68.43 180.57 68.26 181.33 67.98 181.54 67.69 181.76 67.23 182.14 66.2 182.46 65.58 182.74 64.96 183.33 64.47 183.6 63.93 184.09 63.47 184.52 63.19 185.07 62.77 185.28 62.28 185.28 62.15 185.01 61.41 184.9 60.79 185.28 59.02 185.5 58.52 185.55 57.98 185.82 57.61 186.58 57.57 187.29 57.49 187.67 57.45 188.1 57.16 188.21 56.7 188.48 56.33 188.64 56.41 188.86 56.58 189.24 56.62 189.89 56.41 190.43 56.25 191.08 56.04 191.68 55.59 192.28 55.21 192.76 54.84 193.52 54.1 194.01 53.52 194.61 52.82 194.99 52.61 195.1 52.2 194.88 51.46 194.61 50.71 194.61 49.85 194.44 49.1 194.34 48.86 194.34 48.53 194.5 48.16 194.77 48.11 195.09 48.11 195.31 48.15 195.85 48.36 196.61 48.53 197.43 48.57 198.02 48.32 198.67 47.99 199.22 47.49 199.43 47.12 199.38 46.63 199.16 46.09 198.89 45.26 198.84 44.69 198.84 44.15 199.16 43.61 199.59 43.03 200.19 42.54 200.79 42.04 201.6 41.51 202.36 41.13 203.5 40.8 204.04 40.55 205.02 40.55 205.78 40.27 206.43 39.93 206.81 39.65 207.13 39.19 207.67 38.7 208.16 38.32 209.14 38.03 209.95 37.75 210.93 37.66 212.01 37.46 212.67 37.33 213.53 37.33 214.94 37.37 215.81 37.29 216.35 37.21 217.06 37.08 217.98 37.04 218.74 36.96 219.5 37.12 220.21 37.29 220.69 37.54 220.91 37.74 220.69 38.28 220.48 38.4 219.88 38.61 219.07 38.78 218.04 38.98 217.12 39.44 216.84 39.72 216.57 40.14 216.36 40.72 216.52 41.38 216.52 41.75 216.9 42.29 217.71 42.74 218.31 43.11 219.07 43.4 219.88 43.56 220.54 43.98 221.24 44.26 221.62 44.55 221.73 45.09 222.06 45.63 222.33 46.21 222.87 46.7 223.68 47.07 224.5 47.61 225.31 47.9 226.07 48.1 226.83 48.23 227.64 48.19 227.97 48.23 228.67 48.39 228.95 48.64 229.11 49.05 229 49.42 228.89 49.84 228.62 50.17 228.35 50.54 228.35 50.99 228.73 51.49 229.11 52.02 229.6 52.4 229.93 52.73 230.09 53.1 230.03 53.3 229.38 53.55 228.51 54.01 227.76 54.46 227.05 55 226.67 55.41 226.4 55.82 226.18 56.19 226.18 56.69 226.24 57.27 226.78 57.97 228.25 59 229.33 59.46 230.31 59.58 231.61 59.58 232.8 59.45 233.94 59.25 234.54 59 235.24 58.71 236 58.63 236.71 58.79 237.58 58.96 238.66 59.08 239.31 59.08 239.96 58.87 240.61 58.38 240.99 57.76 241.37 57.02 241.59 56.52 241.7 55.82 241.54 54.95 241.15 52.47 241.05 51.57 241.04 50.78 241.21 50.04 241.53 49.75 241.97 49.63 242.35 50.12 242.67 50.45 242.78 51.03 242.94 51.69 242.89 52.52 242.78 53.09 243.11 53.51 243.76 54.21 244.46 55.07 244.63 55.4 244.63 55.98 244.63 57.22 244.36 58.09 244.36 59.41 244.68 60.44 245.44 61.18 246.15 61.8 247.13 62.09 248.32 62.17 249.19 62.01 250.33 61.72 250.98 61.55 251.47 61.35 252.06 60.89 252.28 60.19 252.5 59.49 252.66 58.91 252.66 58.33 252.49 57.59 252.44 57.22 252.06 56.85 251.63 56.48 251.25 55.98 250.92 55.49 250.54 55.03 250.7 54.78 250.87 54.5 251.3 53.71 251.52 53.46 251.89 53.09 252.44 52.55 252.87 52.14 253.47 51.77 254.28 51.36 255.09 51.23 255.64 51.31 255.75 51.73 255.64 52.14 255.48 52.59 254.61 53.09 254.01 53.75 253.79 54.37 253.85 55.24 253.85 56.1 254.01 56.64 254.5 57.18 254.88 57.59 255.64 58.09 255.86 58.33 256.29 58.79 256.46 59.49 256.29 59.86 255.86 60.32 255.64 60.81 255.48 61.06 255.37 61.39 255.37 61.6 255.48 61.93 255.75 62.46 255.59 63.12 255.37 63.7 255.05 64.28 255.05 64.73 255.48 65.23 256.57 65.68 258.03 66.01 258.85 66.26 260.04 66.8 261.07 67.29 261.23 67.54 261.78 68.36 262.54 69.23 262.97 70.1 263.62 71.21 264.82 72.04 265.79 72.74 266.99 73.28 268.56 73.4 269.75 73.44 270.29 73.4 271.38 73.4 272.3 73.56 272.46 73.77 273.17 74.43 273.71 74.84 274.36 74.97 275.12 75.13 275.72 75.25 276.32 75.54 276.7 75.87 277.19 76.58 277.51 76.86 278.27 76.95 279.25 76.78 280.11 76.66 281.25 76.33 282.45 76.2 284.07 76.04 285.48 75.75 286.79 75.38 288.2 75.25 289.06 74.88 289.72 74.14 290.2 73.6 290.37 73.06 290.15 72.28 289.66 71.41 289.17 70.88 288.41 70.38 287.65 69.97 287.11 69.68 286.73 69.35 286.73 68.85 287.49 68.4 288.46 68.03 289.6 67.7 290.85 67.61 292.04 67.41 292.64 67.37 293.4 67.41 293.84 67.65 294.21 68.19 294.27 68.77 294.22 69.43 294.11 70.21 294.05 70.96 294.32 71.58 294.98 71.99 295.84 72.53 296.82 72.77 297.47 72.98 298.34 72.69 299.8 72.36 301.11 71.99 302.24 71.45 303.17 70.79 303.6 70.17 303.49 69.51 303.22 68.68 302.51 68.31 301.16 68.19 300.29 68.23 298.83 68.19 298.34 67.9 297.69 67.61 297.58 66.91 297.47 66.08 297.47 65.22 297.47 64.39 297.36 63.65 296.76 62.66 296.38 62.29 295.41 61.71 294.21 61.21 292.69 60.6 291.34 59.98 290.03 59.44 288.95 58.94 287.86 58.53 287.54 58.28 287.43 58 287.75 57.58 287.86 57.21 288.3 56.59 288.62 56.1 289 55.85 289.49 55.93 290.36 56.34 291.55 56.76 293.07 57.21 294.37 57.62 295.95 58.08 297.03 58.36 298.33 58.74 299.42 58.86 300.67 59.02 301.37 59.23 302.19 59.11 302.78 58.86 302.78 58.49 302.62 57.79 302.35 56.96 302.29 56.51 302.51 56.09 302.84 55.76 303.16 55.43 303.54 55.31 304.19 55.43 304.79 55.51 305.11 55.64 305.33 56.09 305.77 56.88 306.74 57.74 307.34 58.36 307.94 58.94 308.59 59.31 308.91 59.52 309.62 59.6 310.32 59.6 311.3 59.6 312.11 59.6 312.28 59.6 312.93 59.93 313.47 60.26 314.07 60.59 314.66 60.84 315.15 60.92 315.69 60.84 316.4 60.71 317.05 60.51 317.76 60.18 318.46 59.8 318.68 59.52 318.68 58.86 318.57 58.36 318.24 58.03 317.75 57.62 316.99 57.33 316.02 56.96 314.61 56.63 313.52 56.3 312.49 56.01 311.73 55.72 311.03 55.22 310.21 54.23 309.51 53.49 308.58 52.83 307.88 52.17 307.12 51.47 306.58 50.64 305.98 49.73 305.33 48.78 304.79 47.96 304.51 47.09 304.35 46.43 304.46 45.89 304.73 45.4 304.95 44.57 305.11 44 304.95 43.25 304.73 42.59 304.57 41.85 304.73 41.48 304.95 41.31 305.98 41.44 306.3 41.48 306.9 41.72 307.55 42.14 307.93 42.59 308.58 42.8 309.23 42.96 309.94 43.25 310.7 43.46 311.67 43.75 312.54 43.75 312.98 43.62 313.52 43.42 314.17 42.96 314.6 42.59 314.87 42.3 315.04 42.22 315.31 42.18 315.52 42.3 316.07 42.88 316.5 43.46 316.99 43.87 317.59 43.99 318.45 44.08 318.83 44.12 319.32 44.12 319.65 44.65 319.76 45.23 319.65 45.73 319.32 46.64 319.32 47.21 319.49 47.83 320.03 48.37 321.11 48.74 321.82 49.07 322.36 49.73 322.8 50.76 323.07 51.42 323.61 51.92 324.43 52.25 324.8 52.17 325.46 51.96 326 51.8 326.92 51.34 327.79 50.68 328.38 50.14 328.66 49.56 328.98 48.9 329.25 48.24 329.36 47.71 329.25 47.21 328.87 46.84 328.38 46.47 327.51 45.81 326.76 45.72 325.83 45.73 324.86 45.73 324.1 45.56 323.77 45.07 323.45 44.49 323.45 44.03 323.88 43.58 324.64 43.25 325.45 43 325.83 42.79 327.03 42.05 327.4 40.44 327.68 39.94 328.92 39.33 329.57 39.7 330.17 40.07 331.42 41.1 332.07 41.18 332.61 41.18 333.1 41.1 333.59 40.94 335.49 37.67 335.87 37.67 336.25 37.8 336.57 38.09 337.01 38.46 337.33 38.66 337.55 38.99 337.44 39.24 337.33 39.53 337.01 39.9 336.57 40.27 336.14 40.65 335.54 41.18 335.38 41.39 335.27 41.76 336.19 42.5 336.74 42.79 337.12 42.92 337.82 43 338.42 43 338.91 43.08 339.07 43.29 339.4 43.7 339.61 44.03 339.88 44.32 340.37 44.48 341.13 44.61 341.73 44.69 342.27 44.9 342.33 45.1 342.7 45.47 342.92 45.64 342.7 45.8 342.33 46.09 341.57 46.26 340.7 46.47 339.78 46.55 338.75 46.63 338.37 46.96 338.09 47.29 337.71 47.95 337.55 48.82 337.39 49.36 337.44 50.22 337.44 51.05 337.66 51.67 338.15 52.2 338.8 52.66 339.51 52.78 340.37 52.78 341.24 52.74 341.89 52.45 342.44 52.29 343.14 52.45 343.68 52.58 344.44 52.95 345.2 53.15 345.47 53.44 345.69 53.77 345.64 54.14 345.37 54.47 344.82 55.01 343.74 56.04 343.03 57.03 342.55 57.53 342.44 57.82 342.71 58.36 343.14 58.93 343.69 59.31 344.44 59.63 345.1 60.09 345.48 60.38 345.59 61.2 345.64 62.15 345.48 62.65 345.59 62.98 345.91 63.43 346.51 64.09 347.38 64.59 347.65 65.04 347.65 65.54 347.49 66.28 347.38 67.15 347.11 68.06 346.78 68.8 346.67 69.46 346.67 70.2 346.89 70.78 347.38 71.24 348.25 71.69 348.84 72.18 349.87 72.56 350.85 72.93 351.45 72.93 352.15 72.84 352.8 72.8 353.4 72.76 354.43 72.72 355.03 72.64 355.9 72.18 356.44 72.14 356.6 71.94 356.76 72.18 357.03 72.43 357.25 72.6 357.03 73.01 356.76 73.5 356.27 74 355.79 74.7 355.24 75.49 354.92 76.23 354.65 76.97 354.59 77.47 354.92 78 355.3 78.42 356.22 78.79 357.47 79.28 358.61 79.7 359.42 79.86 360.34 80.07 361.32 80.19 362.03 80.32 362.41 80.56 363 80.89 363 81.18 362.73 81.47 362.19 81.68 361.43 82.09 360.45 82.83 359.8 83.49 359.26 84.03 358.61 84.4 357.25 84.86 356.22 85.35 355.25 85.89 355.25 86.59 355.25 87.17 355.41 88.04 356.23 88.82 356.55 89.48 357.2 90.22 357.69 91.05 358.23 91.71 358.78 92.12 359.37 92.29 359.7 92.25 360.35 92.04 361.16 91.59 361.81 91.26 362.57 91.05 364.09 91.05 364.74 91.17 365.56 91.46 366.48 91.54 367.13 91.75 367.67 91.67 368.16 91.59 368.54 91.25 368.86 90.88 368.97 90.47 369.19 89.98 369.51 89.56 369.79 89.31 369.95 89.31 370.55 89.36 370.87 89.4 371.14 89.36 371.74 89.19 371.96 89.02 372.06 88.49 372.28 87.91 372.5 87.13 372.93 86.38 373.42 85.48 373.91 84.77 374.23 84.32 374.78 83.86 375.48 83.29 376.19 82.87 376.89 82.58 377.16 82.58 377.54 82.58 377.7 82.71 377.81 83.29 377.81 83.7 377.92 84.36 377.7 85.1 377.49 85.76 377.11 86.38 376.29 87.41 375.37 88.45 374.5 89.4 373.91 90.1 373.2 90.76 372.28 91.75 371.36 92.7 370.38 93.57 368.97 94.56 368.21 95.26 367.35 96.25 366.53 97.36 366.21 98.36 365.99 99.22 366.21 100.25 366.53 100.67 366.64 101.29 366.53 101.49 366.15 101.87 365.4 101.91 364.36 101.99 363.77 102.61 363.17 103.23 363.01 103.64 362.74 104.14 362.58 104.88 362.74 105.54 363.01 106.49 363.06 107.31 363.39 107.93 364.04 108.68 364.75 109.01 365.45 109.21 366.54 109.13 367.73 109.09 368.87 108.8 369.36 108.72 369.84 108.92 370.17 109.3 370.17 109.75 369.95 110.33 369.52 111.07 368.92 111.81 368.33 112.68 367.73 113.3 367.62 113.84 367.73 114.58 368 115.45 368.54 116.27 368.6 117.06 368.54 117.55 368.44 117.88 367.68 118.01 366.86 118.17 365.78 118.17 364.59 118.54 364.37 118.79 364.21 118.96 364.21 119.45 364.26 120.07 364.37 120.61 364.37 120.94 364.59 121.39 364.75 121.64 364.97 122.09 365.08 123.09 364.91 123.66 365.02 124.16 365.18 124.78 365.4 125.36 366.05 125.73 366.97 126.02 368.11 126.35 368.98 126.47 369.58 126.47 370.07 126.26 370.12 125.64 369.85 125.07 369.74 124.49 369.31 123.95 368.82 123.5 368.55 123.04 368.44 122.55 368.44 121.89 368.55 121.27 368.71 120.77 368.71 120.48 368.98 120.28 369.52 120.44 370.28 120.85 370.55 121.1 370.77 121.27 371.69 121.89 372.56 122.42 373.16 122.84 373.92 123.25 374.51 123.58 375.11 123.66 376.19 123.58 376.68 123.25 377.28 122.92 377.33 122.63 377.33 121.84 377.33 121.39 377.33 120.57 377.28 119.9 377.17 119.12 377.28 118.3 377.33 117.68 377.33 117.18 377.49 116.89 377.55 116.68 378.09 116.6 378.74 116.64 379.12 116.64 379.45 116.23 379.28 115.82 379.23 115.24 379.12 114.66 379.01 114.12 378.9 113.71 378.9 113.55 378.9 113.26 379.12 113.51 379.56 113.71 379.88 114 Z M 314.08 102.08 314.14 101.63 314.14 100.68 313.86 100.1 313.65 99.52 313.27 98.94 313.21 98.41 313.27 97.91 313.97 96.92 314.3 96.63 314.84 96.47 315.6 96.42 316.03 96.59 316.63 96.8 317.23 97 317.77 97.17 318.47 97.25 319.07 97.25 319.23 97.13 319.29 96.8 319.02 96.51 318.42 96.18 317.71 95.89 317.06 95.68 316.25 95.39 315.49 94.81 314.84 94.11 314.46 93.53 313.75 92.67 313.26 92.17 313.21 91.84 313.37 91.55 313.75 91.55 314.29 91.64 315.27 91.88 316.14 92.01 317.06 92.09 317.82 92.01 318.53 91.51 318.69 91.35 318.85 90.73 318.85 90.23 319.18 89.32 318.85 88.46 318.58 88.08 317.98 87.88 317.22 87.63 316.52 87.47 315.16 87.26 314.4 87.14 313.64 87.22 313.26 87.38 312.94 87.92 312.5 88.17 312.29 88.54 312.02 88.99 312.12 89.37 311.91 89.61 311.2 89.82 310.55 89.98 309.74 90.15 308.16 90.15 307.57 90.11 306.97 90.07 306.7 89.9 306.7 89.53 306.7 88.91 306.54 88.21 306.43 87.47 306.32 87.01 305.78 86.52 305.4 86.19 304.96 86.19 304.42 86.15 303.82 86.15 303.5 86.35 303.01 86.81 302.58 87.22 302.25 87.59 301.6 88.21 301.17 88.62 300.79 89.04 300.57 89.62 300.52 90.03 300.41 90.69 300.84 91.27 301.17 91.85 301.6 92.42 302.09 93.12 302.96 93.21 303.93 93.5 304.64 93.62 305.4 93.87 305.73 94.16 306 94.69 306.1 95.27 306.1 96.01 306 96.92 305.78 97.5 305.24 97.83 304.42 97.91 303.67 97.83 302.96 97.58 302.25 97.25 301.17 96.92 300.57 96.8 299.76 96.72 298.57 96.59 297.59 96.8 296.99 97.09 296.23 97.25 295.53 97.71 295.09 98.12 294.82 98.49 295.04 98.74 295.47 99.28 296.23 99.61 296.78 99.73 297.75 99.77 298.95 99.4 299.98 98.95 300.41 98.86 300.74 98.95 301.06 99.44 301.28 100.02 301.98 100.02 302.96 99.98 303.67 100.1 304.15 100.31 304.37 100.72 304.37 101.17 304.26 101.42 303.99 101.75 303.34 101.96 302.58 102.33 301.88 102.45 301.28 102.33 300.9 102.21 300.52 102.21 299.76 102.41 299.11 103.08 298.57 103.57 298.24 104.02 297.65 104.56 297.21 105.14 296.67 105.72 296.4 106.25 296.18 106.83 296.51 107.29 297.05 107.78 297.76 107.99 298.57 108.03 299.38 107.78 300.31 107.37 300.79 106.91 301.33 106.54 301.77 106.09 302.2 105.8 302.58 105.51 302.96 105.51 303.07 105.59 303.56 105.88 304.05 106.29 304.43 106.67 304.75 107.04 305.51 107.41 306.22 107.66 306.71 107.57 307.52 107.41 308.17 107.28 308.5 107.2 309.09 107.12 310.01 107.04 310.34 107.04 310.99 107.16 311.53 107.37 312.46 107.78 312.89 108.07 313.49 108.36 313.87 108.52 314.3 108.69 314.46 108.73 315.17 108.56 315.33 108.44 315.55 108.15 315.71 107.9 315.82 107.61 315.93 107.2 316.09 106.91 316.09 106.66 316.04 106.37 315.93 106 315.71 105.88 315.55 105.63 315.33 105.47 315.28 105.3 314.9 105.01 314.73 104.76 314.41 104.48 314.3 104.19 314.14 103.81 314.08 103.61 313.86 103.28 313.76 103.07 313.76 102.7 314.08 102.08 Z M 451.61 252.22 452.37 251.89 455.18 249.91 455.29 249.42 454.75 248.92 454.53 248.76 452.15 247.77 448.62 245.41 446.67 244.79 445.26 244.96 443.69 245.54 442.6 246.69 442.22 247.35 439.89 248.88 439.68 248.88 438.32 250.29 438.43 251.03 439.73 251.36 445.26 250.62 446.62 250.66 450.3 252.06 451.61 252.22 Z M 465.33 278.36 466.41 277.61 469.72 276.91 470.59 276.21 470.64 274.19 470.32 273.61 469.23 273.2 468.25 272.37 467.39 271.05 466.36 270.14 463.32 270.6 458.55 270.93 457.68 271.5 457.68 272.33 458.44 273.49 462.18 277.16 463.59 278.11 465.33 278.36 Z M 560.23 130.47 558.55 130.26 558.39 130.26 557.74 130.47 557.3 130.63 556.76 131.05 556.6 131.46 556.71 131.95 556.6 132.41 556.6 132.82 556.16 132.9 555.62 133.24 555.3 133.61 555.08 134.23 555.08 134.56 555.3 135.05 555.73 135.34 556.16 135.59 556.71 135.79 557.52 135.79 558.39 135.67 558.77 135.59 559.53 135.42 560.12 135.22 560.67 135.05 561.37 135.05 562.18 135.09 563.11 135.22 564.03 135.34 565.11 135.34 565.93 135.34 566.63 135.22 567.01 135.05 567.66 134.18 567.5 133.81 566.9 133.36 566.14 132.95 565.49 132.58 564.68 132.41 564.03 132.04 563.05 131.63 562.18 131.29 561.53 131.01 560.56 130.63 560.23 130.47 Z M 615.61 379.31 617.45 378.81 618.97 378.65 619.51 377.61 619.62 376.62 618.59 374.64 618.59 374.31 618.27 373.49 615.34 372 613.33 371.42 612.79 371.75 612.41 374.19 612.52 374.31 612.95 375.84 613.28 376.25 614.25 378.4 615.61 379.31 Z M 378.91 144.72 379.24 144.55 379.72 144.51 380.1 144.3 380.54 144.06 380.92 143.68 381.08 143.35 381.3 142.9 381.68 142.45 382.17 141.99 382.92 141.7 383.68 141.54 385.09 141.25 386.01 140.96 386.45 140.75 386.56 140.46 386.61 139.84 386.5 139.22 386.12 138.94 385.53 138.61 385.04 138.32 384.33 138.23 383.85 138.23 383.25 138.32 382.49 138.61 382.22 138.77 381.95 139.06 381.67 139.6 381.19 140.01 380.65 140.3 379.89 140.59 379.13 140.71 378.37 140.79 377.61 140.84 376.96 141.12 376.31 141.33 375.98 141.7 375.93 141.99 376.09 142.2 376.09 142.36 376.14 142.9 376.36 143.31 376.58 143.69 376.96 143.93 377.34 144.1 377.61 144.22 377.93 144.51 378.37 144.55 378.91 144.72 Z M 561.32 125.85 561.43 127.17 561.64 127.46 562.29 127.87 562.89 128.08 563.54 128.36 564.3 128.57 565.11 128.57 565.93 128.57 566.47 128.32 566.96 127.95 567.45 127.25 567.5 126.55 567.39 125.97 567.12 125.27 566.96 124.77 566.63 124.19 566.31 123.78 566.15 123.37 565.49 122.92 565.11 122.83 564.46 122.75 564.03 122.83 563.54 123.08 562.73 123.53 562.19 123.91 561.81 124.28 561.59 124.57 561.43 125.27 561.37 125.56 561.32 125.85 Z M 358.5 94.02 358.18 93.4 357.47 92.82 356.61 92.29 356.23 91.83 355.63 91.42 355.03 90.89 354.6 90.43 354.27 90.14 354.06 90.31 353.46 90.56 353.4 91.22 353.46 92.29 353.13 93.61 352.59 94.64 352.48 95.1 352.81 95.59 353.35 96.33 353.62 96.79 353.89 96.95 354.44 96.87 355.25 96.79 355.85 96.5 356.55 95.76 356.82 95.43 356.71 94.93 356.82 94.64 357.47 94.52 358.18 94.39 358.5 94.02 Z M 402.7 265.4 404.54 264.32 407.47 261.52 407.68 260.57 407.03 259.78 405.62 259.66 404.32 260.15 401.28 262.76 401.07 263.62 401.18 264.32 401.94 265.32 402.7 265.4 Z M 534.52 145.95 534.9 146.98 535.33 147.43 535.88 147.72 536.31 147.97 536.85 148.05 537.12 148.18 537.61 148.14 537.83 148.01 538.15 147.72 538.43 147.52 538.43 147.15 538.43 146.49 538.16 145.83 538.05 145.16 537.72 144.42 537.12 143.88 536.53 143.31 536.26 143.1 535.66 143.14 535.28 143.35 534.79 143.68 534.68 143.97 534.36 144.26 534.36 144.96 534.47 145.25 534.47 145.74 534.52 145.95 Z M 405.89 256.07 407.63 254.91 408.39 253.96 408.39 252.72 407.3 251.9 406.87 251.81 405.51 251.9 404.38 253.18 404.38 255.08 405.03 255.9 405.89 256.07 Z M 370.13 157.64 370.72 158.55 370.94 158.75 371.37 158.88 372.08 159.04 372.68 159.08 373.16 159.17 373.65 159.04 374.14 158.88 374.3 158.42 374.19 157.27 373 156.61 372.35 156.57 371.7 156.61 370.94 156.57 370.56 156.61 370.18 157.14 370.13 157.47 370.13 157.64 Z M 578.25 391.65 578.9 391.65 579.88 391.23 581.61 389.79 581.94 389.13 581.61 388.8 580.31 389.04 578.47 389.09 577.6 389.79 577.39 390 577.39 390.66 578.25 391.65 Z M 394.8 146.86 394.96 146.78 395.24 146.57 395.62 146.37 395.83 146.12 396.16 145.83 396.48 145.38 396.81 145.09 397.03 144.8 396.97 144.59 396.76 144.43 396.43 144.34 396.16 144.22 395.72 144.1 395.29 143.97 394.97 143.85 394.37 143.68 393.99 143.68 393.61 143.85 393.18 143.97 393.01 144.18 393.01 144.47 393.18 144.76 393.18 144.96 393.39 145.29 393.5 145.46 393.61 145.71 393.61 145.91 393.61 146.12 393.61 146.37 393.83 146.37 393.99 146.45 394.1 146.49 394.8 146.86 Z M 380.51 245.79 381.71 245.54 382.79 244.55 382.79 243.64 382.57 243.48 381.6 243.56 380.95 243.73 379.97 244.63 380.08 245.46 380.51 245.79 Z M 477.15 277.33 479.21 276.99 480.08 276.54 480.08 276.21 479.75 276 476.98 275.96 476.55 276.25 476.55 276.75 477.15 277.33 Z M 370.65 260.28 372.27 260.12 372.82 259.37 372.38 258.96 370.54 258.84 370.21 259.04 370.1 259.99 370.65 260.28 Z M 391 128.37 391.38 128.74 391.82 128.78 391.93 128.86 392.2 128.94 392.41 128.94 392.85 128.82 393.12 128.57 393.17 128.2 393.17 127.91 393.12 127.75 393.01 127.5 392.85 127.33 392.41 127.33 392.03 127.33 391.82 127.38 391.22 127.5 390.95 127.79 390.95 128.08 390.95 128.24 391 128.37 Z M 399.09 151.11 399.2 151.28 401.1 151.28 401.31 150.7 401.26 150.33 400.93 149.96 400.66 149.83 400.34 149.79 399.85 149.79 399.63 150 399.58 150.29 399.41 150.45 399.31 150.7 399.09 151.11 Z M 385.34 247.94 386.32 247.44 385.67 246.78 385.56 246.7 384.8 246.95 384.8 247.61 385.34 247.94 Z" fill-rule="evenodd"/>
</g>
</svg>