<?xml version="1.0"?>
<svg xmlns="http://www.w3.org/2000/svg" version="1.2" baseProfile="tiny" width="800" height="464" viewBox="0 0 800 464" stroke-linecap="round" stroke-linejoin="round">
<g id="turlocklake">
<path d="M 697.23 405.84 697.77 405.76 700.32 405.91 702.68 405.84 703.86 405.98 704.41 406.2 708.77 408.73 709.5 410.1 709.68 411.12 709.59 411.55 709.31 411.91 706.4 413.64 705.13 414.66 702.95 416.75 700.04 418.49 698.95 418.92 697.77 418.99 696.04 418.41 695.32 417.76 694.59 416.39 694.22 416.03 693.41 415.3 691.14 413.79 690.41 413.06 690.04 412.63 689.86 412.12 689.77 411.11 690.05 410.75 690.86 410.17 694.05 408.58 695.86 406.63 697.23 405.84 Z"/>
<path d="M 223.55 353.29 221.79 350.78 220.29 347.81 220.26 347.78 219.29 346.55 217.03 344.55 214.52 343.8 212.02 342.04 210.01 340.29 208.26 338.04 206.5 335.78 205 334.53 202.99 332.77 201.49 331.52 199.48 330.02 198.98 327.76 197.73 326.76 195.97 326.76 194.72 327.26 194.22 328.76 191.96 330.77 188.45 332.02 183.69 332.02 179.18 331.02 175.67 330.27 172.16 329.52 168.65 328.76 163.13 327.01 158.62 325.51 155.11 325.26 152.1 326.51 149.85 327.26 148.09 329.27 146.09 332.77 144.83 337.03 144.08 338.04 141.07 337.78 138.56 336.28 137.31 335.53 137.31 333.53 136.81 332.27 135.31 331.27 133.3 331.02 131.29 331.77 129.04 333.53 127.53 335.78 127.28 337.53 125.78 337.03 124.28 337.03 123.27 338.54 123.77 336.03 124.78 333.27 126.03 329.52 125.78 326.76 125.78 324 125.78 322.25 126.03 320.25 125.28 316.49 125.03 313.98 124.28 312.48 125.78 312.73 126.78 313.23 128.04 313.73 130.29 314.48 133.55 314.98 137.81 314.98 141.82 313.98 145.33 313.23 147.84 311.98 150.85 309.72 153.36 307.72 155.61 305.21 157.62 301.45 158.62 299.95 159.37 297.7 159.62 294.94 160.12 292.68 160.12 290.43 158.87 287.67 157.62 286.17 156.86 283.92 157.12 281.66 157.12 280.16 158.62 278.65 161.13 278.15 162.63 277.15 163.63 275.9 163.63 274.39 162.38 272.14 160.63 271.39 157.87 270.64 154.61 269.38 153.1 266.88 152.35 264.62 151.6 261.62 150.35 259.11 148.34 257.36 145.08 255.85 142.32 254.85 139.07 253.35 135.81 252.6 132.8 252.6 131.04 252.09 131.8 251.59 133.55 250.34 135.56 249.34 137.56 246.83 139.57 244.83 141.07 244.58 142.58 244.58 145.33 244.83 147.09 245.58 148.59 246.08 150.35 246.08 151.85 245.33 152.6 244.58 153.86 244.58 155.36 244.83 157.62 244.08 158.87 242.57 158.87 241.07 159.12 238.56 158.87 236.56 158.87 234.31 159.12 231.8 158.62 229.79 157.87 229.04 155.61 228.54 153.36 227.04 150.6 226.29 148.34 227.04 145.33 228.54 142.58 230.3 140.57 232.05 138.06 233.05 135.31 231.55 131.04 230.05 127.79 229.29 124.53 228.79 122.02 227.04 121.27 225.79 121.77 225.03 123.02 224.78 124.28 223.95 124.53 223.78 124.02 222.53 123.02 221.28 121.75 220.7 120.26 220.02 115.75 219.02 112.99 219.27 107.98 220.77 103.72 220.52 99.82 219.58 102.54 215.97 104.45 216.55 105.72 216.62 107.54 216.62 109.18 215.97 109.09 215.32 108.18 214.45 106.54 213.94 104.18 213.51 105.28 211.66 105.9 210.62 107.18 210.91 107.72 210.4 107.9 210.26 108.54 210.55 110.18 211.05 115.81 214.14 121.58 216.89 127.1 219.15 131.11 220.15 132.36 221.4 134.12 221.9 137.12 222.65 140.13 223.66 143.39 222.9 146.15 220.4 149.41 216.64 152.67 213.13 155.17 209.12 157.68 205.62 159.43 204.11 159.69 201.86 159.18 199.85 157.68 197.6 156.93 195.34 155.42 193.59 153.42 191.84 153.42 190.58 153.42 189.33 152.67 188.33 150.91 188.58 148.4 188.33 145.9 188.08 141.64 188.33 138.63 188.33 136.62 188.08 135.37 187.83 135.12 186.82 136.62 186.32 140.88 185.82 143.89 185.07 146.9 185.32 150.41 185.07 154.17 185.07 157.18 186.07 157.43 187.08 157.43 188.58 158.68 190.08 161.69 191.08 165.45 193.09 168.96 195.59 171.72 197.6 176.23 199.1 178.74 200.61 180.49 202.61 184.5 203.36 189.02 201.61 192.02 199.6 195.03 199.1 197.04 197.85 198.54 195.84 201.55 192.59 203.81 190.33 204.56 189.08 207.07 188.58 209.82 189.08 212.58 188.33 214.08 187.08 214.84 186.07 215.34 184.82 214.34 183.82 213.33 183.07 211.33 183.57 209.57 183.57 206.81 183.57 203.56 184.07 199.54 185.07 196.79 186.07 192.02 186.82 188.01 186.82 184.75 186.32 182.75 185.32 181.5 183.82 179.49 183.82 177.23 184.07 174.23 184.32 171.97 183.57 169.46 182.82 166.7 182.06 164.2 181.31 162.44 180.31 162.44 177.8 163.19 174.8 164.7 171.79 166.7 168.53 170.46 165.53 173.22 163.77 175.23 161.52 177.73 158.26 180.24 156.26 181.75 154.5 183 153.5 185.76 152.5 189.27 151.5 191.27 149.99 191.6 149.39 192.78 147.24 193.53 145.73 195.53 144.23 198.35 142.91 200.8 141.41 202.3 139.47 203.81 136.71 203.62 136.34 203.43 134.27 202.8 133.21 200.05 131.7 197.29 130.45 195.72 129.76 194.22 128.44 193.09 126.75 192.34 124.12 192.34 121.12 192.9 119.05 194.03 116.79 194.22 114.73 194.28 113.41 192.53 113.16 190.77 113.66 187.51 114.91 184 114.41 179.24 112.66 176.23 109.9 173.97 108.65 170.97 107.4 168.21 107.9 165.2 108.65 163.7 109.9 161.69 111.91 160.44 113.41 160.69 114.41 160.69 115.92 159.18 117.17 158.18 118.17 154.67 119.93 151.41 119.93 148.15 120.18 144.64 120.43 141.39 121.68 137.62 123.18 135.37 125.44 132.61 126.19 130.61 125.44 130.1 123.68 130.61 122.18 131.36 120.18 132.11 118.17 133.11 114.91 133.61 112.91 133.61 110.66 133.86 109.65 133.86 107.4 132.86 105.14 130.86 103.64 128.35 100.88 125.59 99.13 122.58 98.63 119.32 96.87 116.57 95.37 115.56 93.12 113.81 90.86 111.3 89.11 108.04 88.11 105.29 88.61 102.53 90.11 99.52 92.36 97.51 95.37 95.01 94.43 93.44 92.87 91.56 90.36 90.93 87.54 88.74 85.35 86.86 84.1 82.16 84.72 79.97 83.47 76.52 83.16 74.01 81.59 73.07 78.46 71.51 74.7 69 74.07 67.43 75.33 64.61 76.89 61.17 79.4 59.28 80.65 58.66 82.84 56.78 83.78 56.46 85.66 57.09 87.54 58.66 89.11 60.54 90.36 61.17 91.3 60.85 92.87 59.91 93.81 58.97 94.74 57.09 94.74 56.15 93.81 55.21 91.3 53.96 88.79 54.58 87.23 53.96 85.35 53.02 82.84 52.08 79.71 48.94 76.58 45.5 75.95 40.8 74.7 36.1 74.07 32.65 73.76 28.89 74.39 26.07 75.95 22.94 76.89 20.74 76.58 18.23 75.64 17.29 73.45 15.73 71.88 15.1 70.63 15.1 69.69 15.41 67.5 15.1 65.62 14.16 64.05 11.03 62.8 8.21 61.86 6.01 62.17 5.07 62.49 5.07 64.05 6.33 64.99 7.58 67.5 7.58 70 9.77 71.26 11.34 72.51 11.34 74.07 10.4 74.7 9.46 75.33 6.95 73.13 4.13 70.94 2.57 67.5 1.63 64.05 1 60.92 1.94 56.22 3.19 52.15 4.76 50.9 7.58 48.08 10.09 47.14 12.59 46.51 14.79 46.51 16.98 46.51 18.55 45.57 20.43 43.69 23.56 42.44 25.44 40.88 28.26 40.25 28.89 39 28.89 37.43 28.89 35.86 28.89 34.61 28.26 33.36 28.26 32.42 29.52 31.48 31.4 31.48 33.28 32.11 34.22 33.05 35.16 35.55 36.1 36.8 38.29 37.43 41.11 37.43 42.68 37.12 44.24 36.8 45.5 37.43 45.5 38.37 44.56 39.31 42.99 39.94 42.99 41.19 43.93 41.5 46.12 41.5 48.63 40.88 50.51 39.62 53.64 38.68 56.15 38.68 58.66 39 61.48 39 64.3 39.94 65.24 42.44 67.75 44.63 70.57 45.89 74.01 46.51 77.46 46.2 80.28 45.57 81.53 43.07 82.16 42.13 84.04 41.5 86.55 41.19 89.37 41.81 92.81 42.44 95.32 42.13 98.77 42.13 101.59 42.44 104.41 42.75 107.23 43.69 109.74 44.63 111.3 45.57 112.87 46.51 115.06 46.83 116.32 46.83 118.51 46.2 120.7 45.89 122.58 45.57 125.09 45.26 127.6 46.2 130.1 46.83 132.61 48.71 135.43 49.64 138.25 49.96 142.64 48.71 146.4 47.45 152.98 44.95 157.37 43.69 160.81 42.44 163.95 41.19 167.71 39.62 171.15 38.06 174.6 35.55 179.61 32.11 184 28.97 189.02 24.9 192.15 23.34 193.72 22.08 194.66 20.52 194.34 19.26 194.66 17.7 195.6 15.82 196.85 14.88 200.61 12.06 204.06 10.5 209.07 7.36 215.02 4.86 220.69 1.36 222.6 1 223.78 1.14 225.51 1.65 230.78 3.96 232.42 4.54 233.87 4.76 236.65 5.17 239.15 5.8 239.78 7.68 240.41 10.5 240.72 13.31 241.35 16.13 243.23 18.64 246.52 22.25 247.7 23.33 249.16 24.2 250.25 24.56 254.19 25.84 257.33 26.16 260.15 25.22 262.34 24.9 264.85 25.84 267.36 27.09 270.18 28.03 273 28.03 275.5 29.29 278.01 29.29 281.77 28.35 285.53 28.66 290.35 27.51 293.26 28.09 294.26 28.6 296.08 29.9 297.44 31.42 299.26 33.59 300.17 35.68 301.82 38.06 301.46 38.18 300.88 38.37 298.69 39.62 297.12 40.56 296.5 42.75 296.18 44.32 296.81 45.57 297.44 46.83 297.75 48.71 297.44 50.27 296.18 50.27 294.93 50.27 293.05 50.9 293.05 52.15 294.62 54.66 295.87 57.16 296.81 59.35 298.06 60.61 300.57 61.23 301.51 58.73 302.14 57.16 304.02 56.85 305.27 56.22 307.78 55.28 310.6 55.6 313.42 56.54 316.24 55.91 318.12 55.91 321.25 56.54 324.07 55.6 325.01 53.09 325.01 49.33 324.39 47.77 322.51 46.51 322.19 45.26 322.82 42.13 322.19 40.25 319.69 39.62 316.55 38.37 313.11 37.74 310.29 37.74 309.03 37.74 308.72 36.8 309.97 35.55 314.36 35.24 320.94 32.42 325.33 31.48 328.46 30.23 333.47 30.23 336.92 30.23 341.31 29.6 343.19 29.29 344.13 31.17 341.93 33.36 337.86 34.3 335.04 35.24 332.85 35.55 330.97 35.86 330.34 37.74 330.97 39.31 332.85 41.19 333.79 43.07 333.16 45.26 333.79 47.77 335.04 51.21 335.98 55.28 337.23 58.73 339.74 60.92 342.25 59.98 344.13 57.47 344.76 54.66 343.19 51.21 341.31 49.02 340.37 45.89 340.68 42.44 342.88 40.56 345.07 39 346.95 37.43 347.89 36.18 349.14 36.18 349.77 37.74 348.52 40.56 347.58 42.13 347.58 43.69 348.52 44.95 351.02 45.89 352.9 44.63 353.84 42.75 355.1 41.5 357.6 41.19 358.23 42.75 357.92 44.63 358.54 47.45 360.74 48.71 363.56 48.39 365.12 46.51 366.06 44.32 367.32 43.07 368.26 42.13 368.26 39.94 367.94 37.74 368.57 35.24 371.08 33.05 374.52 31.48 377.34 29.91 380.48 28.66 381.42 27.72 383.3 28.35 383.93 29.29 383.93 31.17 382.67 32.42 381.73 34.3 380.48 37.12 378.6 39 376.72 40.56 374.52 42.75 372.64 44.95 372.33 47.14 372.33 49.33 373.27 51.21 373.58 53.09 372.64 53.72 371.08 54.34 369.51 54.03 367 53.4 364.5 53.4 361.99 53.72 358.54 54.97 357.6 56.54 357.6 58.41 357.92 61.55 361.36 64.36 363.24 67.18 364.5 67.81 366.38 68.44 369.2 69.69 371.7 70 373.58 69.38 375.78 68.44 376.72 66.56 379.78 64.1 379.85 64.05 379.92 64.04 382.67 63.43 386.43 62.17 388.07 61.52 388.39 61.39 389.57 60.92 391.76 59.35 393.64 58.41 394.27 59.35 394.89 60.92 396.46 62.17 398.97 62.49 398.97 64.36 397.71 65.93 394.27 67.18 389.88 67.5 386.75 68.12 383.93 69.69 382.67 72.51 382.67 74.39 381.42 75.64 379.54 76.27 375.78 77.52 373.27 78.46 372.96 80.65 373.9 82.53 375.46 84.72 376.72 88.17 376.09 90.36 374.84 90.67 372.64 89.73 369.2 88.17 367.63 85.98 364.18 84.1 361.36 82.22 359.17 80.02 356.98 79.09 353.22 77.52 349.77 75.95 347.89 76.58 348.52 78.46 351.02 80.34 353.22 81.59 356.04 83.16 358.86 86.92 362.3 90.67 365.12 93.49 367.94 97.56 366.69 99.76 364.18 101.01 360.11 100.07 356.35 99.76 351.02 100.07 347.58 99.13 344.44 97.25 340.99 96.31 338.8 96.62 338.17 97.25 340.05 98.82 341.62 100.07 342.25 101.95 343.19 103.83 344.44 104.77 346.32 105.39 348.83 107.27 351.02 110.09 353.84 111.03 356.98 112.6 360.11 114.79 362.93 117.3 365.75 118.23 371.08 120.43 373.9 121.68 374.84 123.25 376.4 124.81 377.03 125.44 377.03 127.63 378.28 127.63 380.16 127 382.36 126.38 386.12 126.06 390.19 125.44 393.95 124.19 398.65 123.87 403.04 123.56 406.8 122.62 409.31 121.68 411.19 120.11 413.69 116.98 415.89 115.1 417.14 112.28 418.39 107.9 418.39 104.77 417.45 102.57 416.2 98.5 416.2 96.31 417.77 93.49 419.33 91.3 420.59 88.79 421.84 86.6 422.15 84.41 420.59 82.22 418.39 80.96 417.45 78.15 417.77 76.58 418.39 74.39 418.71 72.19 418.08 69.38 418.08 66.56 419.33 64.99 421.21 64.99 423.72 63.74 425.29 62.17 425.6 59.35 424.98 56.85 424.98 54.66 426.86 54.66 429.36 54.66 429.99 55.6 430.93 57.47 431.24 59.98 430.62 63.11 430.62 65.93 429.68 67.5 427.8 68.75 427.8 70.63 428.42 72.51 428.74 75.64 430.93 77.52 433.44 77.83 434.46 75.92 435.09 75.06 435.64 72.74 435.82 70.79 435.36 67.97 435.55 67.03 436.55 65.3 437.64 64.14 439.09 63.35 441.09 61.47 441.55 61.18 442.64 61.1 444.46 61.32 445.73 61.32 451.55 60.38 452.64 59.95 455.37 59.04 456.62 59.35 458.82 60.61 461.01 61.55 463.83 63.43 467.28 63.74 472.01 64.07 473.19 64.21 474.92 64.07 477.92 63.56 485.55 62.77 486.39 64.36 484.2 64.68 480.13 65.62 478.87 66.87 478.25 68.75 475.61 70.24 473.73 69.11 471.29 68.55 468.47 67.61 464.9 67.79 462.08 68.55 459.26 69.67 457 69.49 455.31 68.17 453.99 67.04 452.3 67.04 449.48 67.61 447.04 68.36 445.72 69.86 445.91 71.18 446.47 73.06 446.85 75.12 446.1 76.44 445.34 77.57 445.34 79.07 446.66 81.14 448.16 82.64 450.98 83.39 453.8 83.77 457 83.77 459.07 83.58 461.89 82.45 464.9 81.89 466.21 81.89 467.91 82.26 470.73 82.26 472.61 81.7 474.3 80.95 476.55 80.2 478.81 80.01 481.25 80.2 482.95 81.32 482.76 81.89 480.5 81.89 479.19 82.64 478.25 83.96 477.31 85.27 476.18 85.46 473.92 85.65 471.1 86.21 468.85 86.96 465.84 87.34 463.02 88.09 460.95 89.03 459.26 90.34 458.69 91.28 458.69 92.41 459.44 93.73 461.14 94.48 462.64 94.48 463.58 94.85 463.58 96.17 462.83 97.67 461.32 98.43 459.63 98.43 456.81 97.49 454.37 96.36 452.49 95.61 450.98 93.92 449.29 93.54 447.98 93.73 446.28 94.29 444.65 93.85 443.4 92.6 442.15 91.35 441.14 91.35 439.89 91.6 439.64 92.35 438.89 93.85 438.01 95.23 436.88 95.98 435.94 96.73 435.38 98.24 435.75 100.12 436.51 101.62 437.45 102.94 438.76 104.81 439.89 106.51 440.83 107.45 441.21 108.76 441.58 112.27 442.08 115.27 443.59 117.03 444.84 118.28 446.85 119.53 449.1 119.28 451.61 118.53 452.61 119.03 453.11 121.29 452.11 124.04 450.36 126.05 448.85 127.55 447.6 128.81 445.84 130.81 445.09 132.31 444.34 133.82 443.84 135.26 443.55 135.67 442.9 136.57 441.21 136.01 439.89 135.44 438.01 133.57 437.63 131.69 437.63 130.37 438.01 129.43 438.39 128.68 439.33 128.3 440.11 127.83 440.27 127.74 440.29 127.66 440.43 127.11 440.46 126.99 440.02 126.42 438.89 125.49 436.82 124.73 435.32 124.55 433.44 124.73 432.12 126.05 430.8 127.93 428.92 131.12 427.42 133.75 425.54 135.26 424.79 136.38 423.28 139.2 421.4 140.71 419.71 142.77 418.02 143.71 416.7 144.09 415.57 144.09 414.82 143.9 413.69 144.28 412.75 144.84 412.38 146.16 412.57 147.85 413.32 149.73 413.51 150.67 413.13 152.92 412.38 154.05 411.44 154.99 410.31 155.74 410.12 156.68 410.12 157.62 410.87 158.56 412.19 159.31 412.94 160.81 413.32 162.32 415.32 162.76 417.83 163.51 420.84 165.76 423.35 167.27 425.1 169.27 426.86 171.52 429.61 173.78 433.37 175.78 435.88 175.78 437.38 175.03 436.38 173.28 433.87 171.52 431.87 168.27 432.37 166.26 434.63 163.76 436.63 161.5 437.63 159.75 437.13 156.99 434.38 154.49 432.37 152.23 431.12 150.23 429.86 148.22 429.61 145.97 430.11 144.97 431.87 146.22 434.13 148.47 436.63 149.98 439.39 150.73 441.9 151.48 442.4 152.98 443.15 155.24 444.65 156.74 445.41 158.75 445.16 161 444.4 162.5 444.4 164.76 445.66 166.26 445.91 167.77 446.66 169.02 448.41 169.77 450.17 169.27 452.93 168.77 454.68 169.27 456.44 170.02 458.94 171.02 460.95 170.27 461.7 168.52 460.2 166.26 458.19 164.26 456.69 163.76 455.68 162.76 455.68 161.75 456.44 160 458.19 158.25 458.19 156.24 457.44 153.23 456.44 151.98 456.19 150.48 457.44 149.48 460.2 149.23 462.95 149.98 465.46 151.23 466.46 150.73 465.21 148.97 463.21 147.22 462.95 145.47 463.96 143.21 464.21 141.21 464.21 139.7 464.21 137.95 463.71 136.2 465.71 136.95 467.97 138.95 469.47 139.95 471.48 142.71 472.98 144.28 474.11 146.91 475.99 148.97 477.87 150.29 480.13 151.23 483.13 150.29 485.01 148.97 486.52 147.85 487.65 146.53 488.59 145.59 490.09 146.16 491.6 146.91 493.85 147.1 494.98 147.47 494.98 148.41 493.48 148.41 491.97 148.41 490.47 148.6 488.21 149.35 487.27 150.85 486.52 152.73 486.52 154.8 486.52 156.87 486.52 158.93 485.58 161 483.89 162.5 482.04 162.22 480.47 163.01 479.53 164.26 479.37 165.35 480.16 166.29 481.1 166.61 482.66 167.23 483.92 167.86 485.01 167.23 485.01 166.45 485.8 165.67 487.21 166.14 487.99 166.92 488.31 167.86 487.84 168.33 486.9 168.33 485.8 168.49 484.86 169.11 484.23 170.05 484.23 171.46 485.48 173.03 487.05 174.28 489.09 175.22 490.81 175.85 492.22 175.38 493.32 174.75 494.42 174.59 495.67 174.91 497.55 176.94 497.71 180.23 497.24 183.05 497.08 185.09 497.39 186.81 498.18 189 498.65 190.41 500.06 190.88 501.47 190.72 503.19 190.88 504.91 192.29 506.95 193.7 510.71 194.33 512.43 194.8 513.69 196.52 514.63 197.93 512.12 197.52 509.93 197.52 507.42 197.52 505.54 198.46 504.91 200.65 506.17 202.84 507.42 205.04 507.42 207.54 508.05 210.05 509.61 212.55 510.55 216 510.87 218.19 511.49 220.07 513.06 221.95 514.63 224.14 516.51 225.08 518.7 225.08 520.27 224.77 521.83 224.46 524.03 226.33 525.59 228.53 526.85 231.03 527.79 233.54 529.98 235.42 531.24 238.24 531.55 241.68 532.18 243.87 534.68 246.07 538.44 247.01 542.52 246.07 545.34 244.5 547.22 243.87 549.41 244.81 551.6 246.38 554.11 247.63 557.24 247.94 559.75 247.32 560.38 245.44 561.94 244.19 562.88 242.93 563.2 241.68 564.14 240.74 564.45 237.92 564.45 236.04 565.39 233.22 566.33 230.41 568.53 226.65 570.09 223.83 571.35 221.32 571.66 218.19 571.66 214.43 571.35 212.24 571.35 210.67 572.51 211.64 573.23 212.24 574.48 214.43 575.11 215.69 575.11 217.88 576.67 219.76 577.61 221.64 577.61 224.14 579.18 228.53 581.69 232.28 582.63 235.42 585.76 238.24 586.7 238.86 586.7 240.43 587.01 242.62 587.95 244.19 588.89 246.69 588.89 250.45 588.27 255.46 587.01 259.22 586.07 260.79 585.45 262.66 586.07 264.54 589.83 265.48 592.97 265.48 596.41 263.6 601.11 261.73 606.44 257.97 611.46 254.83 614.9 251.7 617.1 249.2 619.29 246.38 620.23 243.56 620.86 242.62 623.05 242.62 627.12 241.37 628.69 238.55 629.94 235.73 630.26 233.22 629.94 231.35 630.26 228.84 630.88 225.39 631.82 220.7 631.51 218.19 631.51 215.37 630.88 213.49 630.57 210.36 631.82 207.86 633.7 206.6 635.27 206.6 637.15 205.04 638.4 204.41 640.28 204.1 641.22 202.84 641.22 201.59 639.97 200.65 639.03 199.71 638.72 198.15 638.4 196.58 636.21 195.01 640.6 196.27 641.85 197.83 643.73 198.15 644.67 196.58 644.98 194.7 644.98 192.82 646.24 190.63 649.06 189.38 652.51 188.44 655.33 187.5 656.89 186.56 658.77 187.5 660.97 187.5 662.22 186.56 665.35 186.25 668.17 186.25 671.62 184.99 674.75 183.11 676.32 182.17 679.77 181.55 681.02 179.98 683.21 179.04 686.03 179.67 687.29 179.67 688.54 178.1 690.74 177.16 693.56 177.16 696.38 177.79 697.94 179.35 698.88 180.61 702.02 179.98 703.9 177.79 705.15 175.28 706.4 173.4 707.97 172.15 710.16 172.15 712.98 172.46 715.49 173.4 715.18 174.03 713.3 173.72 711.42 173.72 709.85 173.72 707.97 174.66 706.4 177.79 705.46 179.67 704.21 181.55 702.64 182.17 702.64 183.11 705.78 184.05 708.28 184.99 709.54 186.25 710.79 187.18 709.85 189.38 707.97 190.63 706.4 192.2 703.58 193.76 703.27 196.58 705.15 199.09 707.34 200.65 710.48 199.71 713.92 197.83 716.12 196.27 718.94 195.64 721.76 196.27 722.07 197.21 718.94 197.21 717.06 198.15 716.43 199.4 714.24 201.28 711.73 202.53 709.54 203.16 707.34 203.47 706.09 204.72 705.46 206.6 703.9 207.86 702.64 207.23 702.96 205.66 703.58 205.04 703.58 204.1 702.02 203.78 699.2 204.1 697.32 205.04 695.75 206.6 695.12 208.48 693.87 210.05 694.5 212.24 697 213.81 699.82 214.12 702.64 215.06 705.46 215.37 707.34 217.56 708.28 219.44 709.22 221.32 711.73 221.32 715.49 220.7 718.31 221.32 720.82 223.52 722.38 225.71 724.89 227.59 728.34 229.47 729.59 231.97 730.85 234.48 729.91 236.67 728.34 238.86 727.08 241.05 726.46 242.62 726.46 244.5 748.71 233.85 748.39 236.04 745.26 236.98 740.56 239.49 736.49 241.99 732.41 244.19 728.65 246.07 723.32 248.26 720.82 249.82 722.38 251.08 725.83 251.7 730.85 252.02 737.43 252.02 742.44 250.76 744.01 248.88 746.51 247.32 749.96 246.69 752.47 248.88 756.23 247.63 759.36 244.81 762.49 242.93 766.88 242.62 770.02 241.37 773.78 240.74 776.6 239.18 776.91 236.98 777.54 234.79 779.73 233.22 783.18 231.97 786.31 232.28 789.44 230.09 792.04 229.8 792.26 229.78 795.4 227.59 795.73 227.41 799 225.73 797.58 228.83 796 232.31 795.45 233.18 795.54 234.12 795.18 234.48 793.05 234.99 790.98 235.37 787.97 235.75 786.28 236.31 784.4 237.81 783.27 239.32 783.27 240.44 783.63 241.13 783.99 242.5 783.54 243.36 780.07 245.02 777.57 246.27 774.75 246.9 772.24 247.52 770.36 248.46 768.79 248.46 765.66 249.71 763.47 250.34 761.9 250.34 760.02 250.65 758.14 251.59 756.57 252.85 754.69 255.35 752.18 257.54 748.11 259.42 745.29 259.42 742.16 258.17 735.58 258.17 729.62 259.11 725.86 258.8 723.36 258.48 717.4 258.17 713.33 258.17 709.88 258.17 708.63 259.42 708.63 260.99 710.19 263.18 712.39 263.81 714.27 266 714.58 268.51 715.52 270.7 717.4 272.26 717.72 275.4 720.22 278.21 721.79 280.09 723.04 281.35 723.04 282.91 721.16 282.91 718.66 282.91 718.03 284.79 718.66 286.98 717.4 288.55 717.4 290.74 719.28 292.62 718.97 294.19 717.4 295.13 716.78 296.38 716.78 297.95 718.03 298.57 718.97 298.89 720.85 301.7 720.85 303.27 721.16 305.46 720.22 306.72 718.97 307.66 718.97 308.91 718.34 310.16 717.09 311.41 715.84 312.67 713.96 316.11 711.13 318.3 709.25 319.24 707.69 320.5 707.06 321.44 706.43 323.94 706.43 325.82 706.43 327.7 705.81 330.83 705.81 332.71 707.06 335.53 707.06 337.72 707.06 339.6 707.69 342.11 708.63 343.36 708.63 344.61 707.69 346.49 708.63 348.68 709.57 350.25 710.51 351.19 710.51 353.07 710.51 354.63 709.57 356.2 708 357.45 708 359.33 708.63 362.15 708.31 365.28 707.37 367.48 705.81 368.1 702.99 368.73 700.17 368.73 696.72 369.36 694.84 370.92 692.65 372.49 691.39 374.68 690.45 376.87 689.83 379.69 689.2 381.88 687.63 383.76 685.44 385.33 685.13 387.21 684.5 391.91 682.93 395.35 681.99 397.54 681.37 400.99 679.49 403.18 678.55 405.69 677.29 407.56 674.79 409.44 672.59 411.32 672.59 413.2 673.53 416.33 673.53 418.84 675.41 421.97 675.73 425.1 675.41 427.61 674.47 428.24 672.28 428.24 671.91 428.4 670.08 429.18 668.83 426.04 667.89 424.79 666.95 423.54 664.44 423.22 663.19 424.79 661 426.98 659.12 426.98 657.86 429.18 657.86 431.05 658.49 434.5 656.92 434.81 654.73 433.87 652.85 433.87 649.72 433.56 646.27 432.93 643.14 432.31 640.94 431.68 639.69 431.05 638.75 430.12 636.56 431.05 637.81 433.25 641.57 435.13 646.27 436.38 650.03 438.57 651.91 439.2 652.85 441.7 653.79 443.9 651.72 445.21 649.97 445.46 649.47 446.46 649.6 447.15 649.72 447.72 650.97 447.97 652.47 448.22 652.98 449.97 655.23 451.22 655.73 452.73 655.23 453.73 653.73 452.48 652.22 452.23 650.97 452.23 649.97 452.98 648.21 452.98 645.45 452.48 644.91 451.93 644.45 451.47 643.7 450.97 643.45 449.72 641.95 449.22 641.19 449.22 640.94 449.97 640.94 451.47 642.2 452.73 642.95 453.73 641.69 453.98 638.44 452.98 637.18 451.73 636.18 450.97 634.93 450.47 634.17 450.22 633.92 448.22 633.67 445.96 633.17 444.21 632.67 443.21 631.42 442.96 627.91 442.2 623.9 441.2 621.14 440.45 619.13 440.2 616.88 439.45 615.62 439.45 615.37 441.45 615.37 442.45 613.87 442.45 612.61 441.7 611.36 440.95 609.61 440.45 608.6 439.2 607.85 438.45 606.6 436.44 605.6 436.19 603.59 436.19 601.33 434.69 599.83 432.93 597.82 431.18 596.57 428.92 595.32 428.67 594.57 430.18 595.32 431.43 596.82 432.68 597.82 433.69 597.32 434.94 598.83 437.44 600.33 438.95 602.09 440.2 603.34 440.95 603.34 442.45 602.84 443.46 602.34 444.21 602.59 446.21 603.59 447.47 606.35 448.72 609.36 449.22 612.11 449.22 614.12 449.72 615.12 450.97 616.38 452.98 617.38 453.73 616.12 453.73 613.87 452.73 612.87 451.98 612.36 451.47 610.61 451.22 608.85 451.22 608.1 452.48 606.85 452.23 604.84 452.48 603.34 453.23 601.58 454.23 599.83 455.48 597.57 455.98 594.82 455.98 592.06 456.24 590.55 456.24 588.8 456.99 587.04 457.24 584.79 457.74 583.28 457.99 581.78 458.24 580.28 459.24 577.77 459.99 575.76 460.5 572.76 460.75 571 461 567.99 461.5 563.98 462 559.72 462.75 554.96 463 549.94 462.5 545.68 461.25 541.92 459.99 539.16 459.49 535.65 458.49 531.14 457.24 528.13 455.48 525.12 454.23 523.37 453.48 520.36 453.48 518.11 453.48 515.85 453.98 513.59 454.48 512.09 454.98 511.34 454.73 513.34 453.23 516.35 451.73 519.11 449.97 521.62 448.72 523.62 447.72 525.12 446.21 525.38 443.96 524.87 441.45 523.62 439.45 523.12 437.69 521.87 435.94 521.62 434.19 521.87 432.18 523.37 429.93 525.12 427.67 528.13 425.17 531.89 422.41 537.66 417.4 544.93 409.88 549.69 406.37 552.7 402.37 554.71 398.86 556.71 395.6 558.47 391.59 560.47 386.08 562.73 381.32 564.23 375.56 563.48 371.3 561.73 367.79 559.72 365.78 556.96 364.78 552.95 364.53 549.69 364.78 546.93 364.53 545.43 362.53 545.93 360.02 548.19 357.52 550.69 355.01 552.45 352.25 553.95 350 554.2 348.75 554.96 348 555.46 346.74 554.96 346.24 553.45 344.99 551.2 344.74 547.69 344.49 544.93 344.24 542.17 343.74 539.41 341.98 536.66 340.48 534.15 338.72 531.14 338.22 528.38 338.22 526.13 339.23 525.63 340.23 525.63 341.98 525.63 344.24 527.38 346.24 529.64 347.74 531.89 349.25 534.4 351.25 534.9 353.51 534.65 357.02 533.4 360.77 532.65 365.03 531.64 368.29 530.39 370.8 528.13 373.3 523.87 375.81 521.11 377.06 517.85 379.82 515.85 382.82 515.35 385.33 515.35 386.83 515.35 388.59 515.35 390.09 514.09 391.59 512.09 392.09 510.58 392.09 508.33 391.84 506.32 393.1 504.82 394.85 503.82 397.35 503.32 398.86 501.81 400.11 498.05 401.36 494.54 402.87 491.28 404.62 487.02 405.87 483.76 407.63 482.01 409.63 480.5 412.64 480 415.39 479 418.15 478 419.9 477.49 421.66 476.24 423.16 475.74 423.54 474.61 423.35 473.3 423.54 472.73 424.29 472.54 425.42 471.79 425.79 471.42 425.04 469.91 423.73 468.78 422.79 467.09 422.22 466.15 422.22 464.46 423.35 462.77 423.54 461.26 423.54 460.32 424.29 460.32 425.23 459.01 426.73 456.94 427.67 456.19 427.48 454.68 426.92 452.61 426.54 449.98 427.11 447.35 427.48 446.03 427.67 444.53 428.24 444.15 428.8 442.65 429.18 440.77 429.93 439.26 430.3 438.14 429.74 437.76 428.99 436.82 428.05 434.38 427.3 432.5 427.11 431.37 427.3 430.24 428.24 428.36 429.55 427.42 430.68 425.92 431.24 426.29 429.93 426.86 428.99 427.23 428.05 428.36 426.92 428.92 425.98 428.17 425.61 426.86 425.42 425.35 425.04 424.22 424.48 423.1 423.54 421.21 422.03 420.09 421.09 419.33 420.91 418.58 421.09 416.7 421.28 415.76 420.34 415.39 418.84 415.76 417.34 416.14 416.4 417.08 415.65 417.64 414.89 417.83 413.39 418.21 412.45 418.77 411.14 418.96 408.88 419.71 407.56 419.71 406.44 419.71 404.93 420.09 403.24 420.84 402.3 421.21 400.8 421.78 400.24 423.1 400.24 424.6 399.67 427.04 398.54 430.05 397.04 432.31 396.67 434.19 396.1 436.26 395.35 437.76 394.22 439.08 393.1 441.14 391.78 443.4 390.84 445.66 390.28 448.29 389.9 450.55 389.52 452.24 387.83 453.55 386.14 454.68 384.08 456.94 383.07 459.44 382.57 462.7 381.32 466.46 379.82 469.47 378.31 472.73 377.06 475.49 376.31 476.74 375.31 478.5 374.55 480.75 373.55 483.76 372.05 485.77 370.29 487.52 367.79 488.52 365.82 487.52 362.31 487.02 360.05 485.77 359.05 484.76 357.55 483.26 356.55 482.51 355.54 481.25 354.54 478.75 353.79 476.74 353.04 474.99 352.79 474.24 352.04 473.98 350.78 473.98 348.78 474.49 346.52 474.74 344.77 475.99 343.02 476.99 341.51 477.24 339.51 477.24 336.75 475.99 335 474.74 332.99 473.73 330.74 472.98 327.23 471.98 324.47 471.73 322.47 470.73 320.72 469.72 318.96 468.47 316.96 467.47 315.2 465.96 314.2 463.96 312.45 461.45 311.7 458.44 310.94 455.18 310.44 452.17 310.19 449.67 309.94 447.66 309.19 446.41 308.19 446.16 307.19 445.91 305.93 446.41 304.18 446.66 303.18 447.91 302.68 447.41 300.67 446.16 298.92 445.16 298.17 443.65 297.66 442.65 295.91 440.64 294.91 437.89 294.91 434.63 295.41 431.62 296.91 428.86 298.17 426.6 297.92 424.1 297.92 421.59 297.66 419.59 296.91 417.58 295.16 416.33 294.16 414.32 293.66 412.06 293.66 409.06 294.16 406.8 294.66 404.79 295.41 402.79 295.16 400.28 296.16 398.28 297.16 397.78 298.42 397.27 300.42 397.02 301.92 398.53 304.43 399.78 306.94 401.29 308.69 402.29 310.69 403.04 313.2 402.79 314.95 402.04 316.46 401.03 318.21 399.28 318.96 397.78 318.96 396.27 318.96 395.27 319.46 394.02 319.96 393.26 320.21 393.01 321.22 393.51 322.97 394.52 325.23 394.27 326.98 394.27 328.48 395.02 331.49 396.77 332.24 396.77 334 395.27 336 394.02 337.75 393.01 338.76 391.26 339.26 389.75 340.01 388.25 341.26 385.99 341.76 382.99 341.76 380.98 342.01 379.48 342.76 378.47 344.27 376.72 344.77 374.46 345.77 371.7 346.52 368.45 346.77 364.43 346.77 358.92 347.53 352.9 348.78 349.14 349.78 345.38 349.78 341.62 348.78 337.11 348.53 331.84 349.03 328.84 349.03 326.58 347.53 324.57 346.02 322.32 344.77 319.06 344.27 315.68 344.36 312.23 344.36 309.09 344.05 306.59 343.11 305.33 341.23 305.02 339.35 302.83 338.41 300.32 337.78 297.19 337.16 294.05 336.85 291.23 335.28 290.92 333.4 289.98 332.15 289.04 330.89 287.16 330.27 285.91 330.27 285.91 331.83 284.97 332.77 283.71 333.4 282.46 334.97 282.15 337.16 283.4 340.29 284.97 342.17 285.91 343.74 286.85 345.93 286.97 347.02 285.47 349.78 283.96 351.78 282.21 353.29 281.96 355.04 281.96 357.55 282.46 359.8 282.71 362.31 281.46 365.31 279.7 367.07 278.45 368.82 276.44 370.58 274.19 372.33 271.93 373.08 268.67 373.33 266.16 373.58 263.41 374.84 261.4 377.09 259.15 378.59 255.13 379.85 251.12 381.1 246.86 381.85 243.35 382.35 241.85 384.11 241.35 385.86 240.85 387.11 238.84 387.36 236.83 386.86 233.83 387.61 231.57 388.62 230.07 391.12 227.81 392.37 224.3 393.38 221.54 394.13 219.79 395.63 218.28 397.39 216.53 398.64 217.78 395.63 219.54 394.13 221.54 392.12 223.3 391.37 225.3 390.87 227.06 388.37 229.06 386.11 230.57 384.61 232.32 383.61 235.58 383.1 237.34 382.35 238.09 381.1 238.34 379.6 237.59 377.34 236.58 374.84 234.08 373.33 232.57 372.58 231.57 371.08 231.07 369.32 230.57 366.82 229.06 364.06 229.88 363.91 231.76 364.22 233.64 364.53 235.83 364.22 237.4 363.91 239.28 362.03 239.59 360.46 239.28 357.95 238.65 357.02 236.46 356.39 234.58 356.39 232.7 357.02 232.07 357.95 231.44 359.83 229.88 360.77 228.94 362.03 227.61 362.82 227.37 362.97 225.8 362.34 225.8 361.56 225.8 360.77 225.55 358.8 225.3 357.05 223.55 353.29 Z M 688.57 252.53 692.16 252.22 694.34 252.03 698.1 252.03 704.12 251.78 708.63 251.78 711.39 251.78 712.39 251.03 723.92 245.77 724.17 244.77 723.92 242.51 724.42 240.51 725.42 238.25 726.93 236 727.68 232.74 726.18 230.48 723.42 228.98 720.66 226.73 718.66 224.22 715.9 223.47 712.64 223.22 710.38 224.22 707.88 223.22 705.87 220.96 704.12 219.21 701.36 218.21 696.85 217.46 694.59 216.95 692.58 214.95 689.83 213.95 688.07 214.7 687.57 215.7 687.07 217.71 688.07 218.96 689.83 220.71 691.58 221.71 692.83 221.71 693.84 222.47 693.34 223.97 691.58 225.22 688.82 226.22 686.57 227.23 684.06 225.72 683.81 227.23 682.81 229.23 680.55 230.48 678.8 232.99 678.8 234.99 678.29 238.25 677.54 243.26 677.29 246.52 677.79 249.28 678.8 251.28 680.8 252.53 683.81 253.28 688.57 252.53 Z M 594.82 421.41 596.07 424.41 597.07 426.67 599.58 427.42 602.59 427.92 604.34 427.17 606.6 426.67 608.6 426.92 611.36 427.42 615.37 428.42 620.14 428.17 624.15 427.42 627.66 426.67 629.91 425.92 631.17 423.41 630.91 421.66 629.16 419.15 627.66 416.65 625.4 413.14 622.14 410.38 619.13 408.13 615.37 406.37 611.36 405.12 607.35 404.87 603.59 405.37 601.33 406.88 600.33 408.63 599.33 411.14 598.58 413.64 597.07 415.14 594.53 415.68 593.28 414.93 591.27 412.67 590.02 410.42 588.77 409.16 588.27 406.91 587.77 404.4 586.76 403.15 585.26 402.9 584.01 404.15 584.51 406.16 584.51 407.41 585.76 409.16 587.77 411.17 589.52 413.92 591.53 415.18 593.03 416.93 592.78 418.43 593.81 420.16 594.82 421.41 Z M 244.42 154.75 247.61 153.81 250.25 152.12 252.13 149.3 253.07 146.67 253.44 143.85 253.82 142.16 255.13 140.47 255.89 139.34 256.45 137.09 256.26 135.02 255.32 132.95 253.82 131.83 253.07 130.14 251.75 128.26 249.68 127.51 247.24 126.19 244.61 126.19 243.1 126.75 240.85 127.69 239.15 129.76 237.08 131.64 235.58 133.14 234.45 135.02 233.7 137.46 232.76 139.91 231.82 141.41 230.5 142.54 228.25 144.79 227.12 146.67 226.37 148.36 224.68 149.3 222.98 149.68 221.67 150.06 220.92 150.81 220.92 151.93 221.48 153.06 222.98 153.63 224.49 155.13 225.43 156.63 227.68 157.76 229.94 158.51 232.95 158.32 235.77 157.76 238.4 156.26 240.09 155.88 242.16 155.13 244.42 154.75 Z M 118.26 68.69 116.19 68.12 114.87 67.75 112.81 68.12 111.49 69.25 111.3 70.57 112.62 71.13 114.12 71.51 116 72.07 117.88 73.57 119.58 75.26 121.46 76.96 122.77 77.71 124.65 79.02 126.91 79.77 129.54 80.9 130.86 82.22 134.24 83.72 138.56 84.47 140.82 83.34 141.39 81.65 141.2 79.96 139.88 78.08 138.56 76.39 138.56 74.89 140.07 73.57 140.82 71.51 142.7 68.87 144.77 66.62 145.33 63.8 143.83 61.92 140.63 60.61 137.44 60.61 134.62 61.55 132.17 62.86 130.29 64.36 128.41 66.81 126.34 68.31 122.96 69.06 120.33 69.31 118.26 68.69 Z M 465.71 231.53 467.22 231.86 467.72 231.11 466.71 230.36 465.96 229.11 465.21 227.6 464.71 225.6 465.46 223.84 467.22 222.84 468.97 221.59 471.23 220.59 471.48 218.08 472.23 217.08 473.48 216.08 475.49 216.08 476.74 214.57 477.74 212.57 476.49 212.07 474.24 212.32 471.98 213.07 469.47 213.57 467.72 213.32 465.46 213.07 463.46 213.07 461.7 212.07 460.06 211.56 458.44 211.07 456.19 211.07 454.93 211.57 454.17 213.18 453.71 216.94 453.8 217.44 454.71 218.67 460.38 227.54 465.71 231.53 Z M 489.53 198.73 491.78 199.04 493.79 199.54 494.97 200.72 495.54 201.29 497.17 201.53 497.3 201.54 498.3 201.54 499.55 200.54 500.56 198.54 501.41 196.4 501.56 196.03 501.75 193.71 498.3 192.46 496.05 191.77 495.59 191.84 494.29 192.02 492.79 192.78 490.53 193.28 489.28 193.28 488.52 192.52 487.02 192.02 485.77 191.52 485.01 190.52 485.01 189.02 484.76 187.01 484.01 185.76 481.51 185.01 479.5 186.01 478.75 188.01 479 189.52 479.75 192.02 481.51 194.53 482.51 196.28 484.47 197.46 489.53 198.73 Z M 576.14 313.04 577.83 312.67 579.71 312.67 581.78 312.1 583.28 311.35 584.04 310.04 585.16 308.16 585.73 306.09 585.92 304.02 586.1 302.52 585.92 300.45 586.48 299.32 587.04 298.95 587.23 299.14 587.61 297.82 586.29 297.82 584.98 298.01 582.91 297.45 581.03 297.07 579.52 297.26 577.64 298.01 576.89 298.95 575.39 299.89 574.26 301.2 573.51 303.08 572.94 305.15 572.57 306.84 572.94 308.53 573.88 310.41 574.64 311.91 576.14 313.04 Z M 203.74 276.09 204.12 277.59 205.06 278.9 206.75 280.03 209.01 280.6 211.26 280.78 212.39 280.22 212.96 279.84 213.52 277.78 215.4 276.46 217.28 276.27 218.97 275.9 220.29 275.52 221.04 274.58 221.42 272.89 221.04 271.76 219.72 271.2 218.41 270.07 216.72 268.57 214.27 266.88 212.39 266.5 210.7 266.69 208.82 267.07 207.5 268.19 206 269.51 204.5 270.82 203.93 272.14 203.74 273.89 203.74 276.09 Z M 159.7 73.47 161.88 73.39 163.76 72.63 165.26 70.94 165.83 69.44 166.2 67.56 163.95 65.49 161.97 65.31 160.97 65.74 158.42 66.17 157.51 66.54 156.88 67.84 156.79 69.35 157.15 70.73 158.06 71.96 159.7 73.47 Z M 506.26 230.92 504 229.23 502.69 227.92 502.51 227.81 501.75 227.35 501 227.35 500.43 227.73 500.39 227.91 500.06 229.42 500.43 231.67 500.49 232.9 500.95 233.19 502.81 235.87 504.82 236.12 507.08 235.87 507.83 234.87 507.76 233.11 506.26 230.92 Z M 301.7 318.37 298.88 319.31 298.13 321.19 299.07 323.06 300.57 323.82 302.64 324.38 305.08 324 306.59 322.69 307.15 320.25 305.27 318.74 301.7 318.37 Z M 494.63 215.01 495.89 216.58 498.08 217.52 499.02 217.05 498.87 216.26 497.46 214.86 496.83 212.98 496.52 211.88 496.83 210.47 496.83 209.22 496.83 208.28 495.89 208.12 494.55 207.72 493.07 207.5 491.97 207.65 491.79 207.74 491.03 208.12 491.19 209.22 491.23 209.29 491.81 210.16 492.44 211.41 492.75 212.35 493.38 212.98 494.32 213.13 494.32 214.07 494.63 215.01 Z" fill-rule="evenodd"/>
</g>
</svg>