<?xml version="1.0"?>
<svg xmlns="http://www.w3.org/2000/svg" version="1.2" baseProfile="tiny" width="800" height="584" viewBox="0 0 800 584" stroke-linecap="round" stroke-linejoin="round">
<g id="honeylake">
<path d="M 690.52 157.77 692.87 160.2 698.66 162.66 702.69 167.46 707.96 179.09 709.82 190.72 711.53 199.56 713.08 208.87 717.26 231.66 720.98 239.11 722.84 250.89 724.55 263.61 727.03 278.03 728.73 290.65 728.42 300.58 728.73 307.87 728.11 312.52 727.03 321.67 725.48 330.04 723.46 339.5 722.84 345.71 721.76 348.03 718.04 354.24 716.49 357.65 715.33 363.46 715.48 364.17 715.54 364.87 715.5 365.57 715.77 366.01 717.21 368.72 718.96 370.88 721.7 373.34 725.12 375.32 728.44 376.74 732.52 378.18 736.58 379.82 739.8 381.4 747.87 382.47 751.75 382.47 761.6 383.19 768.19 386.68 775.55 392.69 783.11 406.46 792.99 418.86 798.61 430.88 799 439.21 797.26 446.77 792.8 452.4 788.8 453.96 780.73 458.77 773.14 461.71 770.88 463.8 767.14 461.99 763.91 459.15 757.83 455.14 751.63 455.14 745.17 455.27 734.84 451.52 731.35 445.58 726.7 429.31 727.86 423.23 730.06 417.16 732.39 413.67 739.49 413.15 740.65 411.73 738.59 405.92 732 399.97 722.83 390.67 707.97 380.85 696.29 374.49 684.66 370.09 668.65 365.83 654.05 360.14 650.43 360.79 646.43 360.27 639.58 361.18 634.54 360.92 628.47 359.5 624.21 356.52 619.04 353.81 610.13 351.48 602.76 348.12 596.43 342.83 590.75 339.98 582.22 338.43 571.89 335.59 563.1 330.81 559.74 325.83 553.16 319.76 548.25 313.94 538.56 309.68 535.97 305.41 526.54 304.51 519.18 304.12 513.75 302.7 506.65 302.44 501.09 304.25 494.38 307.74 487.27 309.42 480.55 311.75 465.05 311.88 458.98 307.48 455.88 303.73 453.94 297.79 454.07 293.27 453.68 287.84 447.74 277.76 440.76 270.78 428.14 272.78 425.71 274.32 422.57 275.69 420.14 277.23 419.17 279.08 418.77 281.83 417.56 283.2 416.91 285.29 415.22 290.62 411.26 299.34 408.27 303.3 404.64 313.23 401.49 318.24 398.99 320.1 398.1 321.96 397.13 327.29 394.52 340.49 393.98 342.54 392.47 347.08 392 348.94 391.65 353.82 389.25 363.68 389.13 364.61 389.13 365.85 388.44 367.82 388.44 370.46 388.67 374.3 389.29 375.93 389.44 378.6 389.95 381.82 391.11 391.53 394.02 406.54 394.56 412.59 394.87 419.18 394.21 421.46 393.47 424.1 389.1 429.91 385.49 433.37 384.84 434.89 385 436.66 385 438.83 385.23 440.38 385.49 441.83 385.84 443.26 385.91 444.19 385.62 445.1 385.49 446.32 385.87 447.49 386.91 449.27 388.95 450.82 391.57 452.31 393.6 453.21 395.18 453.76 396.7 453.99 398.44 454.8 400.16 455.28 402.03 455.22 404.1 455.47 405.9 455.76 407.55 455.44 409.42 454.96 411.78 453.89 413.62 452.24 414.5 450.92 416.27 450.14 418.08 450.14 420.18 450.21 421.92 449.76 422.67 449.24 422.26 448 422.1 446.29 422.49 443.45 423.84 440.7 425.23 440.06 429.2 439.44 433.11 439.57 441.28 441.28 445.51 441.87 448.13 442.77 449.42 443.22 451.97 444.58 456.91 446.61 464.92 450.28 468.8 452.71 472.88 455.45 475.96 458.08 480.96 461.8 486.1 466.13 487.68 467.97 490.65 471.59 491.75 473.21 493.78 476.5 495.37 479.67 496.46 483.13 496.92 485.39 496.56 487.39 495.98 488.46 494.88 489.43 493.91 489.72 489.63 492.3 488.87 493.23 488.37 493.76 487.75 494.67 487.03 496.94 486.64 499.38 486.39 501.7 486.22 503.37 485.87 504.38 485.02 506.95 485.02 507.34 484.84 507.52 484.07 509.45 482.93 511.16 482.07 512.11 481.61 512.54 480.48 513.33 478.68 514.15 477.31 514.4 476.03 514.49 473.93 514.36 473.28 514.2 472.89 514.16 472.25 514.15 471.61 513.99 470.84 514 470.15 513.95 469.08 514.35 468.64 514.68 468.79 515.25 469.2 515.8 469.73 516.17 470.44 516.85 471.59 517.92 472.88 518.94 473.99 519.69 476.44 520.7 478.06 521.05 478.8 521.22 479.67 521.4 480.84 521.61 481.78 521.78 483.03 522.04 484.97 522.16 487.08 522.11 488.92 521.69 491.86 520.89 493.54 520.95 495.54 520.93 497.41 521.08 498.86 521.28 499.35 521.41 499.66 521.59 499.65 521.81 499.51 522 499.19 522.12 497.26 522.21 495.73 522.25 494.58 522.3 496.74 522.74 498.29 522.94 498.42 522.95 498.68 523.08 499.3 523.07 500.37 523.1 502.33 523.3 502.97 523.52 504.76 523.72 507.66 523.85 508.21 524.31 508.17 524.78 507.2 524.89 506.58 525.05 504.43 524.91 504.91 525.43 506.11 525.54 507.82 525.76 510.01 525.92 513.9 525.74 513.92 525.92 513.48 526.15 513.02 526.28 510.8 526.78 508.99 527.07 505.57 527.21 504.55 527.58 504.02 528.04 504.26 528.65 505.44 528.6 505.78 528.99 506.85 529.44 508.67 529.85 509.8 529.96 508.07 530.27 507.61 530.54 507.88 530.85 509.31 531.25 511.66 530.97 514.32 530.3 516.16 530.01 518.64 530.19 521.61 529.57 523.91 528.1 527.71 525.15 528.04 522.98 528.6 520.13 528.6 517.95 528.92 516.09 529.89 513.99 530.37 512.21 530.53 510.92 533.52 510.6 534.98 510.6 537.24 509.55 537.32 508.17 536.83 506.72 536.19 505.1 534.89 503.97 534.36 502.91 534.26 501.98 534.26 500.69 534.05 499.34 533.64 498.52 531.9 497.08 530.87 496.2 530.3 495.53 530.17 495.06 530.22 492.92 530.12 491.57 530.14 490.95 529.68 490.54 529.19 490.52 528.67 491.08 528.08 491.6 527.1 492.2 526.66 492.32 525.08 492.45 523.07 492.3 521.18 491.86 520.18 491.57 519.44 491.14 518.59 490.37 517.78 489.75 516.61 489.32 515.76 489.17 515.26 489.17 514.56 488.82 513.94 488.74 513.4 488.66 511.54 488.28 510.22 487.97 509.6 487.85 507.7 487.77 506.34 487.66 505.22 487.35 504.48 487.38 503.71 487.23 502.82 486.8 502.27 486.49 501.81 485.83 501.73 485.48 501.61 485.06 502.35 479.01 502.05 477.9 501.79 476.86 501.79 476.03 502.1 475 502.05 473.71 501.59 472.11 501.28 471.43 501.33 470.66 504.89 466.63 505.93 465.13 508.36 462.44 509.39 461.15 509.96 460.73 510.84 460.32 512.9 457.99 512.96 456.91 511.66 455 510.84 454.43 510.22 454.54 509.86 455.36 510.06 456.14 510.11 456.81 510.11 457.69 509.49 458.83 509.24 459.6 508.62 459.86 507.79 461.05 506.29 462.5 504.84 463.84 503.55 463.94 502.67 464.05 501.59 464 500.19 463.07 499.26 462.19 498.95 460.84 499.21 458.98 499.88 458.46 500.55 456.97 500.71 456.66 501.17 454.85 500.81 453.4 501.28 451.8 502.1 450.25 502.98 449.42 503.71 448.28 505.2 447.3 506.44 446.63 510.32 446.27 515.85 447.76 525.77 451.49 537.91 456.4 540.91 457.74 548.09 461.41 552.07 464.87 556.05 468.75 559.67 472.47 561.55 475 563.29 477.42 565.52 478.49 566.59 476.75 566.59 473.45 568.62 472.38 572.4 473.26 579.67 476.26 586.45 480.24 592.84 483.82 596.23 485.86 590.03 484.21 582.38 480.82 578.89 479.17 577.83 477.72 576.95 476.55 574.05 476.07 571.62 474.9 568.62 474.13 568.82 476.84 568.72 479.85 565.52 480.62 560.97 479.46 557.87 480.62 557.29 482.08 559.51 482.76 562.61 483.43 566.88 484.79 574.14 488.57 578.41 490.8 583.93 494.39 583.64 496.54 581.89 498.96 579.18 501.38 580.05 503.23 583.45 503.61 582.67 505.94 578.99 508.27 576.95 509.33 575.4 508.27 573.95 508.27 572.21 509.62 569.88 510.4 566.2 511.27 563.68 513.01 562.52 514.76 561.94 516.5 561.55 520.19 561.06 522.03 560.64 524.62 560.97 528.33 560.77 532.11 561.55 535.11 562.32 536.18 561.65 538.99 562.23 542.28 564.84 545.19 568.91 547.42 571.82 548.37 577.73 549.05 581.99 549.24 586.25 551.09 587.51 553.61 587.32 556.22 586.16 557.73 585.09 561.36 583.54 563.1 581.8 564.36 580.44 565.33 579.76 566.4 577.83 567.66 575.98 568.82 575.02 570.95 574.61 573.54 573.77 574.83 572.28 577.93 571.12 580.06 570.54 581.55 570.21 582.59 570.15 583 569.24 582.83 568.61 582.6 568.05 582.13 567.72 581.57 566.57 580.44 566.03 580.09 565.51 579.65 564.79 579.39 563.85 579.39 563 579.44 561.5 579.24 560.39 578.6 559.69 578.57 558.46 578.17 558.14 578.82 558.01 579.3 557.04 579.24 555.97 578.85 554.91 578.24 554.36 578.01 553.71 577.4 552.71 577.52 551.84 577.65 550.71 577.4 549.29 576.39 545.48 573 543.12 570.68 542.25 570.01 538.51 566.56 536.83 565.18 531.83 560.61 530.19 559.03 527.95 557.67 526.59 556.97 524.01 554.45 521.13 551.85 519.83 550.9 518.37 549.52 517.73 549.06 516.6 548.12 514.46 547.25 513.09 547.21 511.14 546.41 507.81 545.31 505.49 544.41 503.84 543.03 501.84 542.21 499.48 541.63 498.83 541.92 497.9 542.44 496.19 542.05 494.54 541.21 492.31 540.4 489.79 539.21 488.78 538.79 487.98 537.88 486.84 536.7 486.44 536.81 484.63 536.42 482.69 536.04 480.46 535.55 478.2 535.39 476.97 534.93 474.96 534.03 472.39 533.16 470.18 532.35 468.06 531.39 462.18 528.86 459.39 528.13 458 527.56 454.9 526.48 453.09 525.86 450.87 524.31 449.11 523.52 438.48 516.43 430.9 511.25 425.95 509.36 419.52 506.39 413.76 504.42 410.5 503.09 409.41 502.48 405.82 501.67 401.2 500.9 396.68 499.6 392.48 497.75 388.82 496.23 388.38 496.04 383.5 492.68 380.34 490.26 379.17 489.23 378.14 487.61 377.75 486.45 376.65 484.84 376.04 483.61 375.52 481.57 374.85 479.83 371.55 471.2 371.02 467.01 369.9 464.71 368.77 462.83 368.38 461.56 367.81 460.45 367.22 459.08 366.52 457.39 365.73 454.24 365.5 452.59 365.41 451.66 365.42 450.78 365.57 450.2 365.92 449.99 366.47 449.85 367.42 450.14 368.67 450.77 369.85 451.2 371.04 451.62 372.04 451.85 372.95 452.07 376 452.3 377.11 452.42 378.03 452.37 378.41 452.24 378.66 452.09 378.71 451.43 378.44 450.95 377.73 450.49 372.75 444.85 367.61 443.11 366.16 443.59 363.93 443.59 362.96 440.68 359.18 439.04 354.24 436.52 352.4 434.09 351.14 432.16 349.01 432.54 346.88 432.93 348.72 431.19 346.01 430.7 345.04 427.6 343.2 427.21 343.68 430.12 336.9 427.21 334.67 427.6 334.67 430.02 332.54 429.34 331.14 425.78 326.68 425.35 325.52 426.32 324.58 428.05 323.1 428.9 319.62 429.29 315.48 429.29 307.92 428.71 304.11 427.74 301.53 427.26 295.11 426.08 289.43 424.99 284.26 423.5 281.87 421.3 278.64 420.14 274.12 419.62 270.63 421.17 269.14 421.29 266.34 421.5 255.36 420.85 247.93 420.53 242.57 419.04 239.45 417.59 238.11 416.97 237.21 415.23 234.82 414.39 231.72 414.78 228.62 413.1 225.89 412.11 223.45 411.22 218.48 410.12 211.62 408.41 207.03 407.11 204.04 406.07 202.77 405.63 200.06 404.59 196.23 403.08 193.08 401.17 190.43 400.39 188.67 398.86 186.81 397.29 184.1 394.58 180.87 392.12 178.48 390.64 174.63 388.84 168.08 386.82 166.27 384.89 167.95 383.85 168.41 382.49 166.18 380.5 161.68 376.86 159.59 375.17 151.36 369.64 141.96 363.24 139.25 361.31 137.99 359.75 135.77 358.19 134.4 357.23 130.24 354.62 126.75 354.91 126.75 356.17 120.16 355.1 115.51 353.28 113.31 352.41 112.65 352.16 112 352 108.63 348.8 107.75 348.95 106.05 347.91 103.15 345.59 103.31 344.35 101.6 342.64 98.3 335.66 96.75 333.13 94.39 331.17 94.01 330.86 91.32 329.87 90.18 330.24 88.84 329.36 87.75 328.84 86.82 327.39 84.34 326.36 80.16 322.17 76.64 320.31 74.73 318.4 73.65 316.12 72.56 312.97 72.41 309.82 71.45 308.63 70.91 307.96 68.69 304.91 67.19 300.93 65.43 297.36 64.24 293.48 63.83 291.21 64.37 289.63 64.55 289.09 62.95 288.99 62.49 287.95 60.88 287.33 59.33 287.75 59.02 286.71 57.89 285.94 56.49 284.33 55.62 283.98 54.68 283.61 52.46 281.44 51.17 281.54 47.6 280.56 43.94 279.73 41.2 279.37 39.89 279.55 38.84 279.41 36.3 278.75 34.83 277.98 32.04 276.37 29.87 274.49 29.63 273.58 28.29 271.27 28.24 270.4 27 269.26 27.26 267.86 26.43 267.6 26.64 267.09 26.28 266.52 25.56 266.42 25.14 264.81 25.5 263.62 26.54 263.73 27.31 263.42 26.64 262.33 26.33 260.78 28.09 257.16 27.57 253.13 25.87 250.13 23.08 247.08 20.03 244.55 16.88 244.4 15.07 244.34 16.51 243.15 15.79 242.64 15.17 242.74 15.17 241.76 14.39 241.14 12.64 241.71 12.02 242.74 11.66 244.14 10.73 243.36 9.8 243.62 8.81 243.05 7.26 242.84 6.7 242.33 8.25 241.71 8.61 240.72 8.3 239.64 7.21 238.92 7.63 238.24 6.85 237.88 6.02 238.61 5.35 238.45 4.84 237.68 4.19 237.64 3.85 236.26 3.01 235.29 4.75 234.83 6.56 234.12 6.89 232.64 5.53 231.22 3.4 231.67 2.04 231.41 1.27 229.21 1.65 226.76 3.4 223.27 7.21 218.1 9.4 215 9.41 214.96 9.66 210.6 9.6 207.76 8.57 207.82 6.63 210.6 4.88 210.67 3.33 208.73 3.14 206.98 3.59 205.56 2.75 203.88 1 202.15 1.16 201.43 1.14 201.4 1.21 201.15 2.91 200.28 3.64 198.91 5.17 196.97 8.24 198.75 11.71 198.34 13.91 196.35 14.38 195.92 15.59 194.22 12.28 192.28 13.89 191.31 17.04 189.78 23.42 189.38 27.78 191.4 30.44 193.41 35.45 194.46 39.24 192.77 39.55 191.15 39.86 189.48 40.14 188.03 41.42 186.78 43.54 185.95 45.08 185.61 46.59 185.9 47.67 185.02 48.45 182.85 50.98 181.82 52.48 180.17 53.25 179.49 54.28 178.61 55.37 179.39 55.99 179.08 56.2 178.46 57.59 177.63 60.02 176.91 61.98 176.91 64 177.22 64.31 178.2 64.36 179.8 64.57 179.75 65.65 179.49 66.38 180.01 67.41 179.29 68.75 179.6 70.77 179.65 72.22 179.44 71.91 177.94 73.2 177.94 74.02 177.74 72.63 176.65 72.89 176.24 74.18 177.37 73.51 175.67 75.01 175.98 75.78 176.39 77.12 175.56 79.14 175.36 81 175.46 84.92 174.56 85.93 174.6 88.35 174.59 88.95 174.65 89.45 174.62 90.58 174.5 90.91 174.47 91.52 174.71 92.57 174.74 93.42 174.53 94.36 174.47 95.49 174.48 96.98 174.6 98.27 175.09 99.14 175.48 99.75 175.68 100.19 175.77 100.62 176.03 101.22 176.36 102 176.41 103.7 177.14 103.97 177.17 104.59 177.02 104.88 176.85 105.06 176.69 105.08 176.85 105.1 176.99 105.25 177.42 105.91 177.52 106.96 177.41 107.94 177.41 108.68 177.35 109.12 177.06 109.86 176.74 110.39 176.02 110.95 175.69 111.48 175.44 112.74 175.44 113.52 175.54 114.53 175.51 115.04 175.35 115.69 175.68 117.21 175.29 118.89 174.26 120.31 173.71 122.05 173.13 123.31 172.9 124.61 173.13 125.99 172.64 127.13 173.16 128.9 173.19 131.1 172.96 132.58 173.03 134 173.03 133.62 173.42 134.46 173.71 135.3 173.35 135.13 173 136.17 172.58 136.04 171.93 136.52 171.48 137.1 171.67 137.56 172.22 139.75 172.38 141.56 172.22 142.24 172.54 142.24 173.32 143.5 173.61 144.37 173.74 145.05 173.48 144.92 172.45 145.6 171.77 146.76 171.12 148.34 170.74 150.25 171.58 150.98 171.19 152.16 170.57 153.83 170.97 156.16 170.31 157.71 169.34 160.42 168.18 162.1 166.63 163.01 165.53 167.27 163.85 172.44 162.43 178.19 162.3 184.26 161.72 187.62 160.94 193.17 160.62 200.02 160.55 216.68 158.49 231.06 156.68 236.88 155.71 241.33 154.48 253.35 149.37 265.94 146.47 271.17 145.63 277.56 143.98 289.86 142.43 300.13 140.68 311.47 138.84 323.09 134.87 334.06 126.98 336.78 124.59 340.31 122.21 347.46 119.15 351.37 117.48 350.79 115.64 353.02 103.91 355.51 97.03 362.13 96.3 367.94 95.09 375.87 94.75 385.85 94.31 387.28 93.89 397.4 90.92 406.12 90.73 414.64 90.53 424.73 93.36 429.84 94.62 441.76 94.55 459.79 92.69 464.65 87.73 470.07 84.94 484.15 62.82 491.34 55.82 506.88 41.35 519.55 43.45 520.04 43.52 520.76 42.39 520.1 13.9 520.32 11.5 520.4 1 522.1 3.1 523.12 5.51 523.23 8.35 523.47 9.88 526.11 12.61 529.47 14.8 531.69 17.08 532.88 19.91 535.69 21.14 538.49 20.63 541.74 19.48 544.37 18.55 544.84 18.51 546.82 18.32 548.37 18.84 550.34 18.91 555.61 20.88 556.61 21.78 558.2 23.14 562.48 25.78 581.47 28.21 591.36 30.44 602.98 35.18 612.01 40.41 617.23 43.44 620.71 45.46 630.72 52.18 634.87 54.33 653.47 69.69 661.06 78.06 667.16 89.73 668.97 91.71 668.5 93.41 666.8 94.5 665.09 95.89 664.47 97.91 665.09 101.17 667.57 104.58 670.98 107.99 672.07 112.49 673.47 117.29 674.4 120.86 674.86 125.05 676.88 128.77 679.05 133.27 679.2 135.13 680.13 138.38 682.47 142.97 683.7 145.21 684.94 145.98 684.94 149.86 686.95 153.89 690.52 157.77 Z"/>
</g>
</svg>