<?xml version="1.0"?>
<svg xmlns="http://www.w3.org/2000/svg" version="1.2" baseProfile="tiny" width="800" height="241" viewBox="0 0 800 241" stroke-linecap="round" stroke-linejoin="round">
<g id="camanchereservoir">
<path d="M 101.2 205.41 99.61 206.38 97.76 208.32 95.91 211.05 93.18 213.87 92.92 214.46 92 215.75 91.33 216.74 90.64 217.87 89.95 218.33 88.52 217.77 86.9 217.27 85.55 216.68 84.46 216.33 82.33 215.37 76.51 212.99 71.48 210.79 68.4 210.7 66.81 210.08 65.93 209.47 65.58 210.35 66.46 212.11 61.08 212.9 59.66 212.97 57.64 213.31 55.86 213.54 53.34 214.03 50.99 214.3 49.84 214.27 48.56 213.96 43.97 213.61 37.54 213.26 31.72 212.73 30.78 212.49 27.84 211.85 24.75 210.17 21.67 208.06 19.29 206.47 16.55 204.71 15.76 202.86 16.2 200.57 16.02 199.69 14.79 199.69 12.76 200.48 11.17 200.74 8.88 198.81 8.53 197.04 9.15 194.4 11.17 191.85 13.2 189.55 15.23 187.7 17.08 185.77 18.23 184 16.99 183.12 14.35 183.3 13.29 184 10.2 184.88 6.94 183.92 6.94 179.95 9.06 178.28 13.11 176.87 14.61 175.81 14.94 174.8 14.44 172.99 12.76 169.11 11.53 166.38 10.73 165.76 9.23 166.2 7.91 168.23 7.91 169.99 7.47 170.17 4.65 169.11 3.68 168.05 3.24 167.09 3.77 165.68 3.85 164.62 3.06 164.44 1.83 164.18 1 163.09 1.53 160.64 3.31 156.48 6.29 150.4 8.97 145.05 11.12 140.75 12.37 138.17 13.43 136.92 14.49 136.65 15.75 136.79 18.13 136.26 20.24 135.93 21.5 135.27 24.54 132.82 26.53 131.43 28.31 130.44 29.3 129.52 29.83 128.33 30.89 128.13 32.48 128.59 33.34 129.91 33.73 131.23 34.66 131.76 35.98 131.23 37.44 131.04 39.69 130.97 40.61 131.89 41.27 132.49 42.33 132.89 42.6 133.88 42.66 134.6 44.12 134.67 46.04 133.81 46.96 132.75 47.82 132.03 47.16 130.77 47.16 129.19 47.42 128.19 48.22 127.67 49.47 127.2 49.61 126.41 48.95 125.42 48.42 124.49 49.41 124.76 50.53 125.15 51.33 126.28 52.25 127.14 53.11 128.13 53.64 128.52 55.95 128.46 56.48 127.8 56.29 127.07 58.34 126.74 58.86 126.28 58.8 125.22 60.12 126.21 61.38 126.08 62.3 125.75 62.3 124.76 61.91 123.57 62.96 123.37 63.96 123.17 65.41 123.7 66.4 123.9 67.53 123.96 69.05 123.37 70.31 122.51 71.17 121.45 71.1 120.46 70.57 118.68 70.78 118.07 70.44 117.49 69.58 116.83 68.78 116.1 67.92 114.84 66.87 114.18 65.87 113.79 64.68 113.39 64.02 112.93 62.57 112.47 61.58 112 61.18 111.34 61.05 110.42 61.64 108.9 62.3 107.91 63.1 107.05 63.36 105.99 64.02 104.6 65.87 103.54 67.46 102.09 68.72 100.64 69.18 99.51 70.83 98.52 72.88 97.6 76.12 96.67 78.24 96.01 79.5 95.35 81.02 94.42 83.86 92.44 86.38 90.99 87.7 90 88.16 88.28 88.62 85.97 89.15 84.45 89.81 83.32 90.94 82.93 93.45 83.26 94.91 83.98 97.29 84.71 98.81 85.64 99.01 86.63 101.06 88.01 102.84 88.41 104.03 89.07 105.16 89.47 106.15 89.8 107.01 90.33 106.48 91.25 106.15 92.24 106.48 93.24 107.54 92.71 108.4 92.51 109.39 92.71 109.19 93.63 107.93 94.56 107.21 95.22 107.54 96.21 108.4 96.87 109.79 96.34 110.78 96.08 112.17 96.54 112.3 97.27 111.97 98.13 111.64 98.79 112.89 99.71 114.08 99.71 116.27 99.51 117.26 99.58 118.05 100.24 119.24 100.64 120.37 100.7 121.76 101.03 123.34 101.63 124.14 101.69 125.19 101.69 125.92 101.03 126.78 99.84 126.78 99.12 126.32 98.52 125.59 98.06 125.19 97.53 124.73 96.74 124.07 96.14 123.47 95.88 122.95 95.88 122.09 96.34 121.42 96.61 120.96 96.08 120.3 94.89 119.71 94.09 118.51 94.03 117.72 95.02 117.46 95.68 116.66 95.68 116.13 95.15 116.07 94.42 115.67 93.9 115.08 93.17 114.94 91.98 115.8 91.25 116.8 91.19 117.26 90.59 117.52 90 118.58 89.27 119.24 89.47 119.71 89.47 119.84 89.14 119.77 89.01 119.75 88.97 119.31 88.15 118.38 87.62 118.18 87.62 117.32 87.49 116.27 87.09 114.68 86.23 112.96 85.5 112.03 85.64 110.18 86.1 108.53 85.97 107.74 85.64 106.21 85.37 104.5 85.24 103.5 84.71 102.71 83.78 102.31 83.26 101.12 82.53 100.79 82 99.87 81.87 98.34 81.47 97.02 81.34 95.24 81.47 93.19 80.35 91.86 79.62 90.21 79.29 88.82 78.63 88.43 77.77 88.43 76.65 89.15 74.8 90.54 73.48 92.72 72.29 95.37 70.77 97.95 69.71 99.27 69.05 100 68.65 100.33 68.06 100.2 67.33 99.93 66.07 99.73 65.08 100.13 64.09 101.39 63.36 102.18 63.3 103.04 63.23 103.11 62.64 102.31 61.91 100.92 61.12 100.33 60.26 100.26 59.4 101.06 58.41 102.05 58.01 103.04 57.68 104.03 57.68 105.09 57.81 106.15 57.81 107.4 58.41 107.87 59.33 108.99 59.99 109.52 60.92 110.38 61.78 110.98 61.84 111.7 62.24 112.76 62.97 113.42 63.63 113.75 63.63 113.62 63.23 113.16 62.51 113.36 61.78 113.62 60.92 114.08 60.52 114.68 60.39 116 60.46 117.39 60.79 118.58 60.66 119.64 60.99 120.56 61.51 121.56 61.78 122.95 61.58 124.27 61.38 125.19 61.12 126.19 60.66 126.65 59.86 127.09 59.16 127.11 59.14 127.91 60.46 127.97 61.84 127.18 63.23 127.44 64.55 128.17 65.61 128.9 66.73 129.89 69.38 130.95 71.36 131.74 72.09 132.67 73.34 133 74.67 132.87 76.19 133.59 76.38 133.79 74.67 133.86 73.08 134.06 71.56 134.32 70.24 135.11 69.58 136.37 69.58 137.1 70.3 137.56 69.25 137.69 68.25 138.49 67.4 138.09 66.54 137.83 65.55 137.16 65.21 136.9 64.69 137.3 64.09 137.49 63.43 138.42 62.7 138.75 62.04 139.35 60.79 139.61 59.86 139.61 58.41 139.94 57.68 139.02 56.62 138.42 55.1 138.7 55.25 140.14 55.96 140.54 57.81 140.4 59.27 140.93 61.45 140.47 62.84 139.74 64.03 140.47 64.62 140.87 65.55 141.13 66.54 141.33 67.73 141.07 68.85 141.33 69.91 141.4 70.63 141 72.42 140.4 73.48 139.61 74.14 139.48 75 140.21 75.85 141.07 76.19 141.73 75.99 142.85 75.59 142.85 74.86 142.85 73.61 143.38 72.22 143.84 71.03 144.11 69.91 144.44 69.38 145.36 69.71 146.09 70.5 146.49 71.1 147.41 71.03 148.91 69.73 149.79 67.79 150.94 66.91 152.18 65.59 152.53 64.62 152.62 63.65 152.88 61.89 153.06 60.66 153.23 60.21 152.53 58.54 152.18 57.66 152.42 57.95 153.67 59.42 154.38 59.95 155.09 59.33 155.97 58.8 157.11 58.54 155.88 59.77 155.8 59.91 155.35 60.66 156.5 61.18 156.72 61.25 157.73 61.54 155.7 62.06 154.56 62.06 154.38 62.95 154.64 64.18 154.56 65.24 154.38 66.29 153.5 67.79 152.62 69.2 151.38 70.96 152.7 71.32 155 71.58 159.03 72.78 159.14 72.81 156.06 72.81 153.5 72.64 152 72.81 150.94 73.17 150.68 74.14 150.68 75.28 150.68 76.25 150.85 77.57 150.06 78.72 149 79.42 150.68 79.86 151.47 79.95 152.44 80.3 153.5 80.74 153.94 81.54 153.92 81.77 153.94 82.65 154.14 83.08 155.13 83.55 155.59 84.21 156.02 85.23 156.68 85.53 157.64 85.36 158.17 85.86 157.58 86.65 157.54 87.28 158.34 88.11 158.27 88.54 156.65 88.83 155.43 88.97 154.96 89.43 154.44 90.55 154.2 92.47 154.83 93.26 155.89 93.36 156.72 93.59 158.17 94.42 159.49 94.55 160.39 94.45 161.15 94.05 161.94 93.79 162.67 93.99 163.3 94.38 163.96 94.48 164.35 94.85 162.9 95.41 161.35 96.14 160.22 96.76 159.56 97.26 158.4 97.79 157.74 97.76 156.88 97.89 156.49 98.38 157.97 98.15 158.87 98.52 159.76 99.18 160.42 99.34 161.51 99.11 163.1 99.11 163.92 98.75 164.72 99.08 165.74 99.34 166.4 99.08 167.23 98.94 168.39 98.94 169.38 98.91 170.2 98.69 170.64 98.03 170.63 97.34 171.12 96.73 172.39 96.46 173.44 96.79 174.48 97.28 174.81 97.78 176.24 98.33 178.46 98.25 180.67 97.58 182.21 94.94 183.09 92.52 182.87 90.98 181.11 90.98 179.9 91.09 178.8 91.53 178.45 91.72 177.73 91.77 176.8 91.39 176.64 90.93 175.71 90.54 173.95 90.54 173.16 90.89 173.14 90.89 172.73 90.89 172.61 90.89 172.45 90.79 172.15 90.58 172.11 90.56 171.89 89.63 171.62 89.35 171.51 89.24 171.42 89.22 171.29 89.19 170.46 89.02 169.85 88.86 169.58 88.14 169.91 87.86 170.68 87.42 171.41 86.68 171.63 85.03 171.52 83.16 171.63 81.94 173.06 84.15 173.62 86.13 174.83 87.01 176.48 87.34 177.47 86.57 178.46 85.14 178.35 84.04 178.91 83.49 180.56 83.71 181.77 83.27 182.54 82.61 183.53 83.05 184.75 83.27 186.07 82.72 186.84 82.39 188.6 81.17 189.25 80.87 189.97 80.76 190.69 80.32 190.74 79.38 190.13 78.12 189.97 76.91 190.41 76.63 191.84 77.51 192.78 77.9 193.72 77.84 193.22 76.74 193 75.75 193.94 75.86 195.04 76.52 196.03 76.85 196.97 76.91 197.85 76.3 198.62 75.69 199.72 75.31 200.72 75.2 201.65 74.43 201.54 73.71 201.05 72.44 200.77 71.73 199.06 71.18 197.79 70.68 197.08 70.19 198.01 70.24 198.79 70.24 199.23 70.02 199.94 69.53 200.55 69.91 201.49 70.79 202.7 71.73 203.91 72.89 205.01 73.44 206.01 73.82 207.66 73.6 209.59 73.05 211.02 72.61 213.28 71.51 213.94 70.9 213.89 69.75 213.61 69.03 212.84 68.15 212.01 67.43 211.08 66.61 210.25 65.78 209.42 64.79 209.15 63.74 208.65 62.92 207.66 62.04 207.55 61.65 208.04 61.65 208.82 62.04 209.2 62.53 209.86 62.75 210.8 63.47 211.3 64.62 212.4 65.29 213.78 66.28 214.82 66.99 215.82 67.65 216.59 68.31 217.58 68.59 218.85 68.81 219.67 68.59 220.66 68.2 221.71 67.6 222.54 67.21 223.03 66.33 223.53 65.34 222.87 64.07 221.82 62.81 221.44 61.43 222.15 61.82 223.42 62.37 224.47 62.97 225.62 63.25 226.84 63.25 227.61 62.97 228.44 62.26 229.15 61.27 229.48 60.6 229.98 59.94 231.52 59.72 232.73 59.34 234.44 59.06 235.08 59.16 236.03 59.29 237.47 58.84 239.24 58.84 239.95 59.12 240.25 59.45 241.06 60.33 242.49 62.26 243.33 63.15 243.37 63.19 244.36 65.12 244.64 65.95 245.57 66.06 246.4 66.17 247.06 66.83 248.16 67.71 249.21 68.65 249.55 69.51 249.6 69.64 249.94 70.04 250.26 70.41 251.47 71.12 252.52 71.95 253.18 72.78 253.45 73.82 252.96 75.75 253.12 76.13 253.95 76.41 254.61 77.46 254.83 78.23 255.6 78.67 257.04 78.94 258.3 79.05 259.74 79.93 260.51 80.82 261.72 81.81 262.49 82.69 263.22 84.48 262.93 86.16 262.98 86.26 263.59 87.7 263.65 89.35 263.7 90.84 264.04 91.77 265.63 92.27 267.23 92.55 269.05 92.88 269.93 92.93 270.32 93.21 269.49 94.14 268.84 94.39 267.73 94.53 265.8 94.64 263.87 95.13 262.6 95.69 261.83 96.79 261.89 98.05 262.16 98.66 262.55 99.32 262.71 99.58 263.26 100.42 263.54 101.25 261.34 99.93 261.31 99.92 259.41 99.87 258.03 99.71 256.21 99.82 254.45 99.37 253.29 99.43 251.14 99.93 249.32 100.48 247.56 101.3 246.84 101.91 246.46 102.79 246.13 104 246.35 105.6 247.1 107.13 247.67 107.86 248.66 108.85 249.82 109.67 250.59 110.39 250.75 111.16 249.76 112.48 248.72 113.25 247.83 113.25 246.55 112.69 246.46 112.65 245.74 112.04 245.08 111.71 244.86 112.26 244.82 112.36 244.47 113.14 244.03 114.41 243.7 115.79 242.93 116.72 241.72 117.38 240.45 117.66 239.13 117.66 237.31 117.27 236.32 117.06 234.61 117.11 234.58 117.11 233.67 117.11 232.29 117.71 231.74 118.43 231.13 119 230.91 119.2 230.14 119.59 229.42 119.93 229.48 120.85 229.21 121.35 229.21 121.69 229.59 121.84 229.98 122.5 230.14 123.5 229.65 124.38 229.21 124.98 228.77 125.42 228.71 125.48 228.38 126.58 228.88 127.57 229.81 128.34 230.53 128.84 231.52 129.17 232.95 129.61 233.89 130.05 234.77 130.54 235.65 131.1 236.1 131.26 237.03 131.21 237.75 131.21 238.96 131.48 239.95 131.54 240.5 132.2 240.72 132.97 241.22 132.86 241.39 132.14 241.28 130.77 241.75 129.92 242.25 129.39 244.25 128.23 245.24 126.8 245.79 125.7 245.83 125.54 245.96 124.98 246.18 123.83 245.85 122.78 246.29 122.06 246.95 121.79 247.94 121.79 248.77 121.84 249.25 121.87 249.82 121.9 250.81 121.62 251.42 121.29 251.47 120.25 251.41 119.55 251.36 119.04 250.81 117.66 249.93 117.27 249.05 116.61 248.61 115.62 248.66 114.96 249.21 114.46 250.42 114.9 251.47 115.46 252.35 115.73 253.07 116.17 253.95 116.45 254.24 116.51 255.22 116.12 255.71 115.24 256.04 114.41 256.82 113.91 257.85 114.02 257.86 114.02 258.8 114.24 259.63 115.07 259.63 115.99 259.63 116.5 259.52 118.21 259.51 118.23 259.24 119.75 259.13 121.18 259.13 122.56 259.62 123.49 260.34 123.33 262.33 122.61 263.87 122.17 265.69 122.12 266.96 122.34 267.89 122.34 268.18 122.25 269 122.01 269.99 121.18 270.81 119.37 270.76 117.82 270.43 116.34 269.82 115.68 268.93 114.65 268.77 114.46 268.11 113.31 267.78 112.15 267.62 110.94 268.61 110.11 269.6 109.78 270.76 109.23 271.92 108.46 272.47 107.69 272.63 106.53 273.35 105.27 274.07 104.61 274.29 104 274.12 103.01 274.12 103.01 274.45 101.96 274.95 101.41 275.28 100.42 275.44 99.71 275.04 98.2 275.26 97.09 276.14 96.87 277.59 96.35 279.13 96.06 279.36 96.02 280.29 96.02 281.56 95.91 282.77 95.8 283.07 95.81 284.04 95.85 285.47 95.35 286.52 94.91 287.35 94.64 288.56 95.13 289 96.29 288.97 96.55 288.89 97.39 289.55 98.71 290.1 99.26 290.93 100.04 291.3 100.06 291.87 100.09 292.53 99.43 293.24 98.16 293.41 97.5 293.52 95.85 294.29 95.46 295.28 96.4 296.05 97.28 296.61 98.55 296.99 99.21 297.27 100.64 297.15 101.04 296.94 101.74 296.44 102.84 295.45 103.62 294.07 105.43 292.91 106.42 292.42 107.64 292.14 108.52 292.75 109.12 294.07 109.56 294.57 109.78 295.21 109.96 294.46 110.88 292.58 111.6 291.42 112.54 291.54 113.86 291.15 114.74 289.94 114.9 288.23 115.35 287.02 115.84 285.75 116.61 284.87 117.55 283.87 119.04 282.88 120.08 282.28 121.79 282.06 123 282.55 124.38 283.27 125.2 284.76 126.19 286.08 126.8 287.98 127.83 291.31 127.26 293.69 126.46 296.25 125.23 298.36 123.73 299.42 122.94 302.77 122.5 305.59 122.5 308.59 122.15 309.74 121.18 311.5 120.29 312.47 119.15 313.71 117.03 314.85 115.98 316.18 114.21 317.5 115.01 318.47 115.98 319 117.83 320.58 117.56 320.85 116.24 320.85 115.1 321.55 114.39 323.23 113.51 326.12 112.06 327.64 111.31 328.52 109.99 330.28 109.1 331.17 107.78 333.72 106.9 335.84 106.11 336.81 105.23 337.51 103.38 337.87 101.7 339.28 102.94 339.1 104.61 338.75 106.99 337.34 109.1 335.31 110.34 334.09 112.51 334.07 112.54 334.07 114.04 334.78 114.66 336.19 115.1 338.57 114.92 340.16 114.92 338.48 116.51 337.43 118.09 338.48 118.36 339.9 117.8 340.95 117.39 343.07 116.15 345.18 115.27 347.3 113.95 349.33 114.66 352.04 114.76 351.93 113.55 351.49 112.78 350.94 112.12 350.59 112.06 350.27 112.01 349.94 111.68 348.89 109.9 348.71 107.43 348.54 105.05 348.36 103.64 350.21 102.58 352.68 102.14 354.71 102.5 355.24 105.14 355.77 105.93 356.74 104.43 357.97 102.94 358.68 102.41 358.06 101.79 356.65 100.56 356.21 98.88 357 97.39 358.41 97.56 359.73 99.5 361.85 100.2 365.64 99.85 367.49 98.71 368.64 97.65 369.61 96.15 371.55 96.68 373.49 98.53 374.37 100.73 373.22 103.73 371.73 106.64 370.93 108.49 370.58 110.87 371.64 112.1 374.11 113.51 375.96 113.77 378.07 114.3 380.19 115.54 382.48 117.03 384.86 118.27 386.45 118.71 388.66 118.36 390.07 117.3 392.89 117.74 393.95 117.74 395 117.3 395.09 116.33 395.71 114.39 396.24 112.98 396.77 111.13 397.38 109.99 397.74 108.84 396.41 107.78 395.89 106.55 395.71 105.76 394.47 104.52 393.5 103.99 393.42 102.58 393.24 101.35 392.98 98.88 393.24 97.39 393.24 96.5 393.24 94.65 392.98 92.89 393.47 93.1 394.03 93.33 394.56 93.42 396.15 92.8 396.94 91.04 397.27 91.1 398 91.22 398.53 93.07 399.5 95.71 399.61 95.94 400.65 98.09 401.79 99.85 402.76 102.14 403.64 103.47 404.97 104.35 406.29 105.84 408.05 106.73 410.7 107.25 412.81 107.25 415.64 106.55 419.96 106.02 423.92 105.49 430.19 105.23 432.13 104.7 435.48 104.7 438.03 105.05 440.5 106.28 442.44 108.66 444.03 109.81 444.65 108.84 444.65 106.99 445.18 105.49 446.85 105.14 448.44 105.67 449.41 106.15 450.91 106.9 451.82 108.55 452.23 109.28 451.7 111.13 449.5 112.45 447.03 113.69 446.14 114.57 445.97 115.98 446.14 116.33 446.94 116.77 447.11 118.44 446.59 120.21 446.14 123.03 446.67 125.05 447.11 126.9 447.64 128.23 449.58 130.08 450.55 130.43 451.35 129.46 452.76 128.58 454.79 127.96 455.67 127.78 456.55 127.87 457.87 127.52 459.28 126.73 461.93 125.58 462.02 124.52 461.84 122.76 462.46 121.7 463.69 121.62 464.84 122.15 465.63 125.23 465.9 126.46 466.34 127.17 467.66 127.17 469.86 126.46 471.54 126.37 475.82 125.72 478.36 124.63 479.83 123.11 482.3 122.5 483.8 122.06 487.59 120.82 489.35 120.65 491.11 120.56 493.32 120.21 494.37 120.19 497.46 118.44 497.82 116.86 498.17 115.36 499.05 114.13 499.4 112.89 499.31 110.95 498.34 109.72 496.93 109.1 494.73 109.19 492.97 109.19 491.2 109.46 491.38 108.75 492.35 108.75 493.76 108.05 494.55 107.43 494.73 106.2 496.14 106.37 497.2 106.28 498.96 106.11 500.64 106.64 501.61 106.99 503.11 107.34 503.9 106.28 504.25 104.96 504.34 103.91 503.99 102.76 503.99 101.35 503.99 99.5 503.99 97.3 503.99 95.36 503.72 93.86 503.19 92.8 501.43 92.01 499.67 90.51 499.63 90.5 498.13 90.02 496.93 89.63 494.82 87.96 494.82 87.74 494.82 86.64 496.93 88.31 498.52 89.19 500.28 90.07 500.28 88.66 501.78 89.37 502.75 90.16 504.05 90.32 505.66 90.51 507.78 90.34 509.01 89.9 510.6 89.81 512.19 89.01 513.95 87.34 515.36 85.67 516.07 84.52 517.3 83.29 517.83 82.93 518.71 81.44 520.21 79.59 521.36 79.15 523.12 77.91 524.8 76.85 524.53 75.27 525.33 73.59 526.56 71.83 527.7 71.03 528.06 70.77 527.62 71.76 527.6 71.8 526.91 73.33 526.74 74.48 526.56 75.36 527.27 76.33 527.88 77.82 528.15 79.15 527.86 80.09 527.79 80.29 526.47 81.08 526.03 81.61 525.59 83.11 525.59 84.7 525.68 86.37 526.47 87.96 525.5 89.19 523.83 89.81 523.21 90.78 524 92.45 525.15 93.07 526.65 93.51 527.71 93.68 526.82 95.27 525.94 96.77 524.44 98 522.95 98.8 522.68 100.2 523.72 100.44 524.62 100.65 526.38 99.41 527.44 99.41 528.85 100.91 530.09 101.09 531.76 100.73 534.14 99.68 535.11 99.24 536.17 99.32 535.2 100.2 534.32 100.73 533.35 101.7 534.5 101.61 534.85 102.41 533.53 102.41 531.67 102.5 528.76 103.55 527.97 104.52 528.85 105.4 529.12 106.2 527.62 106.02 526.47 105.67 525.24 105.84 523.47 106.55 521.62 107.61 521.09 107.78 520.39 108.66 519.24 109.37 518.27 109.99 516.68 111.13 515.19 112.72 515.1 113.69 514.39 114.04 512.98 114.15 510.42 115.54 507.6 117.12 506.9 117.74 506.63 118.8 508.4 119.59 510.78 120.12 514.39 120.91 517.13 121 518.62 121 520.39 121.79 522.77 121.97 524.97 121.97 527.71 121.79 530 121.53 530.97 121.53 532.64 121.62 535.11 121.44 538.64 121.18 542.34 121.35 546.14 120.56 548.52 120.29 550.01 119.77 553.1 118.53 555.66 117.21 557.6 116.42 558.57 115.8 558.66 115.01 558.48 112.89 559.18 110.69 559.01 109.72 559.45 109.63 561.21 109.72 562.54 109.54 563.77 108.84 564.48 107.96 565 106.73 565.36 108.84 564.83 110.43 563.86 112.81 566.24 113.6 566.77 114.48 567.56 115.36 568.88 116.59 571 117.48 573.2 117.39 575.94 116.42 577.53 115.54 578.85 113.69 579.29 115.54 579.47 116.42 580.96 116.95 582.9 116.86 584.84 115.8 585.9 114.83 586.61 113.42 587.49 113.86 587.93 114.13 588.28 112.89 588.64 114.39 588.46 115.98 587.84 117.56 586.96 118.62 585.37 120.12 584.23 121 582.46 121.53 579.38 121 578.32 120.65 576.91 121 574.7 122.41 573.91 123.03 575.23 124.44 576.38 126.02 577.97 127.17 578.67 129.02 579.64 130.08 579.44 131.29 579.71 132.35 580.37 132.38 580.96 132.41 581.82 132.54 582.95 133.2 581.96 134.13 580.57 134.39 579.64 135.39 579.84 137.04 580.63 138.69 581.43 139.35 583.01 139.35 584.4 139.35 586.39 140.47 588.3 141.99 589.63 142.72 591.02 143.32 592.14 143.32 593.33 142.85 594.52 141.66 594.85 142.65 594.52 144.17 593.2 144.64 591.54 145.36 590.02 146.29 590.82 147.68 591.21 149.53 591.68 151.25 592.07 151.84 592.74 150.65 593.2 150.45 593.66 150.32 594.72 150.39 595.25 151.05 595.25 151.91 595.91 151.58 597.7 151.31 599.94 151.91 602.52 152.63 604.51 152.9 606.82 153.29 608.08 153.29 608.74 152.96 608.67 152.37 608.14 151.58 607.95 151.31 606.95 150.72 605.63 150.39 604.04 149.99 602.52 150.52 601 150.58 599.81 150.58 598.16 150.65 596.77 150.45 595.84 149.99 595.65 149.53 596.44 148.8 597.7 148.87 598.29 148.4 599.75 147.81 601.13 147.61 602.92 147.15 603.78 147.08 604.57 147.88 605.83 148.01 606.49 147.74 607.28 147.88 608.54 147.15 609.8 146.95 611.45 147.35 614.03 146.62 616.15 145.69 617.53 144.44 618.53 142.98 619.12 141.86 620.05 140.14 619.39 139.09 619.45 138.43 620.38 138.23 621.11 137.63 621.83 136.97 622.03 136.44 623.09 136.11 624.25 135.53 624.68 134.92 625.27 133.73 625.73 132.87 626.86 131.95 627.39 130.96 627.39 130.03 626.93 128.31 626.4 126.4 625.54 125.21 624.88 123.69 624.81 123.36 625.85 123.73 626.26 123.89 626.73 124.68 627.19 125.74 628.18 126.46 630.23 127.39 631.82 127.65 632.35 127.26 632.68 126 632.88 126.07 633.93 126.46 634.93 126.07 635.39 125.41 635.79 124.55 636.51 124.15 637.18 124.28 637.04 124.94 637.51 125.87 638.23 126.66 639.62 126.27 640.61 125.87 641.56 125.47 641.21 124.5 641.12 122.56 641.56 122.21 641.91 123.18 642.53 123.97 643.33 124.59 643.59 125.12 644.12 125.12 645.97 124.42 647.12 123.53 648.09 122.48 648.79 121.33 649.85 120.36 651.44 118.78 651.61 117.81 651.17 116.75 650.73 116.22 649.5 115.78 648.26 116.22 647.29 116.57 647.73 115.87 648.18 115.25 648 114.55 648.09 113.93 648.62 113.58 649.23 112.52 649.41 114.11 650.29 114.9 651.53 115.16 652.58 114.9 653.83 114.05 654.52 113.05 654.79 111.99 654.86 110.87 655.12 109.68 655.78 108.62 657.56 107.72 659.22 107.16 661.4 106.18 662.39 105.65 663.25 104.92 663.12 103.93 662.39 103.01 661.87 102.08 661.6 101.49 661.8 100.76 661.93 99.97 661.93 98.97 662.33 98.38 662.99 97.52 662.92 95.87 663.06 93.36 663.14 92.84 662.06 91.9 661.14 91.71 658.82 91.64 659.15 90.98 658.89 90.05 657.7 88.8 656.51 86.95 655.12 86.62 654.99 86.09 656.11 86.22 656.97 86.68 657.96 87.54 658.43 88.07 659.29 88.73 660.28 88.73 661.27 88.4 661.53 87.74 661.53 86.29 661.01 84.63 660.81 82.65 660.81 80.67 661.6 79.55 662.26 78.22 662.72 77.56 663.58 75.65 664.31 73.2 664.84 70.89 664.51 70.03 664.11 68.97 664.78 69.37 665.97 70.16 666.69 69.3 667.88 69.04 669.14 69.04 671.98 69.04 674.03 69.1 675.09 69.9 675.82 70.76 676.81 72.01 677.41 73.07 678.13 74.11 679.07 75.34 680.94 76.36 682.48 76.64 683.32 76.33 683.58 76.31 684.68 76.03 685.81 75.98 686.48 75.77 686.85 75.3 688.32 75.18 689.31 74.26 690.24 73.27 690.76 71.75 690.76 70.62 691.16 69.24 692.02 67.91 692.35 66.92 692.46 65.34 693.9 64.34 693.91 64.29 694.36 63.94 694.55 63.94 695.07 63.71 695.19 63.61 695.32 63.61 695.81 63.33 697.23 62.89 698.32 62.66 698.39 62.59 701.1 62.36 701.16 62.41 703.35 62.53 704.59 63.02 705.91 62.56 706.83 60.78 707.1 59.26 707.47 58.55 707.89 57.74 708.82 56.61 709.32 55.36 710.25 54.96 710.64 54.65 710.77 54.65 713.02 53.4 713.28 53.38 713.7 53.17 714.6 52.87 715.25 52.26 715.51 51.95 715.77 51.93 715.93 51.86 715.99 51.84 716.02 51.83 716.22 51.83 716.54 51.62 717.05 51.16 717.54 50.86 718.63 50.71 719.41 50.2 719.73 50.12 721.05 50.2 721.21 50.21 721.47 50.22 722.31 50.15 722.38 50.07 724.63 49.81 726.25 49.81 726.96 49.97 728.89 50.24 729.54 50.19 730.63 49.89 731.76 49.15 732.2 49.03 732.86 48.85 732.99 48.69 733.7 48.34 733.89 48.31 734.02 48.21 734.79 48.01 735.5 47.75 735.63 47.75 735.95 47.65 736.47 47.34 738.37 46.5 739.28 46.35 739.71 46.31 739.79 46.3 740.05 46.27 740.11 46.2 740.76 46.15 741.53 46.02 741.6 45.97 743.34 45.82 743.4 45.89 746.95 46.02 747.02 46.07 748.01 46.13 748.27 46.15 749.86 46.25 754.11 45.96 754.18 45.91 755.79 45.79 756.05 45.74 756.11 45.68 756.63 45.63 757.82 45.23 758.27 45.15 758.34 45.07 759.69 44.95 760.27 44.79 760.4 44.69 761.37 44.51 762.08 44.31 762.4 44.16 762.47 44.18 763.24 44 763.63 43.9 763.69 43.85 763.89 43.88 764.01 43.78 764.47 43.67 764.79 43.47 765.08 43.42 765.66 43.21 765.92 43.06 767.4 42.68 768.05 42.45 768.43 42.38 768.69 42.22 769.01 42.12 769.21 41.97 769.66 41.79 769.98 41.61 771.34 41.43 771.34 41.43 771.4 41.38 771.41 41.38 771.66 41.38 771.95 41.23 772.21 41.18 772.27 41.13 772.46 41.13 772.59 41.05 773.43 40.82 773.69 40.7 774.08 40.59 774.53 40.39 774.85 40.19 774.98 40.19 775.37 39.98 775.5 39.98 776.14 39.58 776.33 39.58 776.46 39.47 776.59 39.5 776.72 39.4 777.21 39.3 778.11 38.94 778.82 38.79 778.82 38.58 779.53 38.15 779.91 37.85 779.91 37.69 780.04 37.59 780.04 37.49 780.04 37.49 780.3 37.29 780.43 37.29 781.11 36.93 782.2 35.99 782.59 35.58 782.66 35.33 782.85 35.13 783.07 35.02 783.07 34.95 783.78 34.16 783.78 34.06 783.98 33.91 783.98 33.85 784.85 32.94 784.98 32.69 785.69 31.87 785.81 31.62 785.94 31.13 786.14 30.96 786.36 30.63 786.36 30.5 786.49 30.4 786.56 30.14 786.59 29.56 786.66 29.4 786.63 28.81 786.79 28.18 786.92 28.1 786.92 28 787.05 27.72 787.05 27.54 787.17 26.85 787.11 25.63 787.33 24.57 787.33 24.16 787.14 23.6 786.69 23.14 786.62 21.82 786.56 21.72 786.56 20.91 786.69 20.8 786.69 20.55 786.85 20.04 786.98 19.94 787.04 18.92 786.91 18.42 786.88 18.33 786.59 17.55 786.46 16.51 786.91 15.97 787.1 15.97 787.36 15.31 787.78 14.86 787.85 14.65 788.04 14.45 788.55 13.13 788.75 12.01 788.68 11.96 788.75 11.86 788.81 11.45 789.13 10.28 789.29 10.03 789.29 9.92 789.42 9.82 789.62 9.11 790.39 8.91 790.46 8.81 790.65 8.81 790.97 8.6 792.65 7.18 792.84 6.95 793.23 5.96 793.23 5.68 793.39 4.86 793.45 4.81 793.58 4.2 793.71 4.1 793.78 3.8 793.9 3.7 793.9 3.57 794.03 3.47 794.26 3.17 794.48 2.88 795.58 1.86 795.97 1.76 796.61 1.51 796.74 1.51 797.65 1 798.1 1 798.61 1.14 799 1.43 799 1.56 796.11 3.74 795.56 4.51 795.42 4.92 795.23 5.5 795.12 6.27 795.09 6.43 795.01 6.83 794.93 7.06 794.86 7.25 794.34 8.81 793.46 10.02 792.52 10.8 792.14 11.12 792.07 11.44 791.92 12.11 790.75 13.48 790.74 13.49 790.62 13.63 790.6 13.65 790.51 13.81 790.48 13.87 790.18 14.44 790.17 14.46 790.04 14.7 790.02 14.74 789.6 15.53 789.38 16.96 789.38 18.5 789.44 19.43 789.49 20.37 789.71 22.58 789.61 25.29 789.6 25.33 789.53 26.01 789.43 27.02 789.38 27.42 788.94 29.51 788.81 29.77 788.06 31.17 786.86 32.07 786.74 32.16 786.51 32.52 785.64 33.92 784.31 35.24 782.11 37.45 781.68 37.72 781.63 37.74 780.35 38.55 779.91 39.05 778.91 40.2 777.5 40.57 777.26 40.64 775.61 41.19 774.06 41.85 772.85 42.18 771.64 42.73 769.77 43.28 768.99 43.5 767.67 44.05 767.11 44.33 766.47 44.49 766.34 44.59 766.08 44.64 765.95 44.74 765.82 44.74 765.39 44.92 765.25 45.18 764.22 45.72 763.48 45.27 763.26 45.19 762.82 45.04 762.38 45.14 762.23 45.17 761.28 45.38 758.96 46.15 757.31 46.59 756.43 46.8 755.28 47.07 755 47.14 753.67 47.36 752.46 47.36 751.61 47.28 751.25 47.25 749.93 47.14 748.27 46.92 747.34 46.92 746.07 46.92 744.64 46.92 744.34 47.12 743.97 47.36 742.32 47.69 741.22 47.58 738.86 48.01 738.24 48.13 735.93 48.9 734.61 49.45 733.79 50.1 733.5 50.33 732.29 51.32 731.26 51.66 731.21 51.68 730.64 51.87 728.32 51.87 728.04 51.69 727.33 51.21 726.78 50.88 724.91 51.1 723.91 51.1 723.02 51.48 722.59 51.65 720.06 52.53 718.73 53.2 717.19 54.08 714.77 54.96 713.33 55.73 713.19 55.82 713.1 55.88 711.68 56.83 710.14 57.82 709.04 58.92 708.26 60.24 708.37 61.35 707.93 62.45 707.27 63.44 706.61 63.99 705.62 64.32 705.15 64.32 704.91 64.32 704.8 64.32 704.28 64.32 703.96 64.32 702.86 64.21 701.99 63.94 701.43 63.77 699.45 63.88 697.9 64.32 697.7 64.46 696.69 65.2 695.81 66.3 695.04 67.51 693.94 68.84 693.82 70.38 693.94 71.08 694.05 71.7 693.94 72.91 693.59 73.33 692.83 74.23 692.06 75 690.85 75.55 689.75 76.33 689.51 76.4 688.75 76.66 687.65 76.77 686.22 76.88 685.34 77.1 684.57 77.54 683.13 78.09 681.59 78.31 680.93 78.42 680.05 78.34 679.61 78.31 679.52 78.23 679.06 77.76 677.41 77.36 675.95 76.77 675.22 75.91 674.76 74.39 674.36 72.94 672.38 72.47 670.66 73 669.58 74.01 669.26 74.87 668.92 75.77 668.03 76.66 667.15 77.43 666.05 78.75 665.06 81.17 665.06 82.71 665.28 85.47 665.17 86.57 665.83 87.23 666.71 89.32 667.04 91.52 667.81 93.4 668.47 95.49 667.7 97.47 667.04 98.13 666.16 99.34 665.61 100.67 665.39 102.32 665.83 103.64 666.93 104.19 666.93 105.84 666.38 106.83 666.6 108.38 666.49 110.03 665.39 110.8 664.29 111.02 663.32 111.53 662.72 111.8 662.77 111.82 663.52 112.13 664.05 112.46 663.98 112.85 663.25 113.32 662.33 113.32 661.4 113.05 660.69 113.74 660.1 115.43 660.32 117.74 660.32 119.61 660.1 120.93 659.14 123.07 659.11 123.14 659.01 123.22 657.56 124.46 654.81 126.55 654 128.12 651.88 129.11 650.62 130.03 651.09 131.75 652.01 132.61 652.74 133.54 652.61 135.12 650.82 135.72 649.96 136.97 650.76 139.55 651.68 140.67 653.47 139.95 655.19 138.96 657.83 137.7 659.82 136.91 662.39 136.05 664.51 136.05 666.23 136.05 667.09 135.59 668.08 135.92 668.94 136.45 670.4 136.71 671.72 136.84 672.51 137.11 674.03 137.17 675.82 137.24 677.34 137.97 679.65 138.76 680.58 139.15 678.66 139.35 676.35 139.29 674.96 138.82 673.44 139.02 670.93 138.63 668.41 138.36 666.3 137.83 664.64 137.57 663.27 137.6 659.53 139.04 658.16 140.48 656.77 141.07 655.72 141.73 654.59 142.53 653.27 143.52 652.34 143.85 650.82 143.85 650.09 144.57 650.09 145.56 649.3 144.9 648.44 143.85 647.12 144.04 646.92 143.32 646.59 142.53 646.66 141.93 645.53 141.67 645.27 141.01 645.8 140.48 645.99 139.75 646.79 139.55 647.12 138.3 647.51 136.64 647.78 135.06 647.65 134 647.07 132.98 645.53 133.01 644.21 133.27 642.49 133.6 640.24 134.2 639.25 134.33 637.93 133.6 636.4 132.81 634.49 132.15 632.32 132.06 631.67 132.48 630.65 134.13 629.59 135.65 628.54 137.11 627.68 137.9 626.82 140.21 626.62 141.73 626.15 143.12 625.82 144.44 624.43 145.83 624.24 146.82 624.77 148.34 624.9 150.12 624.7 151.64 624.57 153.1 624.43 155.08 624.43 157.53 624.43 159.44 623.11 160.17 621.99 161.62 621.46 162.68 620.53 162.81 619.67 162.02 618.68 161.56 619.21 162.42 619.67 163.08 619.14 163.8 618.28 163.94 618.02 163.21 617.56 162.61 616.76 162.95 616.7 163.41 615.64 163.67 614.58 163.47 613.99 163.61 614.25 164.27 615.18 164.86 615.24 164.99 615.57 165.59 615.38 166.58 615.51 167.84 616.96 169.16 618.15 169.49 619.01 170.61 620.07 170.68 620.8 170.81 621.79 171.34 623.18 171.4 624.57 171.4 625.36 170.94 625.29 169.88 625.29 169.09 625.43 167.97 625.82 167.44 626.68 167.44 627.54 167.7 628.54 167.77 629.06 168.36 629.46 168.63 628.14 169.42 628.2 169.82 628.2 170.55 628.47 171.07 628.34 171.8 627.34 172.59 627.08 173.72 627.28 174.38 628.2 174.11 628.73 174.11 630.32 174.11 631.78 174.05 632.7 174.31 633.43 174.71 634.35 175.5 634.82 175.11 635.28 174.18 636.14 174.18 637 173.72 637.13 174.38 636.21 175.77 636.01 175.96 635.28 176.89 634.88 177.42 634.02 177.55 632.9 177.29 631.64 176.89 631.31 176.36 629.92 175.83 629.46 175.7 628.4 176.16 627.87 176.82 625.96 177.02 624.96 176.49 624.63 175.63 623.18 175.11 621.06 175.5 619.34 175.11 617.76 174.44 616.23 173.92 615.57 173.25 614.25 173.06 613.72 172.53 613.26 171.73 612.53 171.27 611.28 171.21 610.55 171.21 610.08 170.61 610.15 169.75 610.35 169.16 610.08 168.3 608.63 167.57 607.84 167.77 604.6 168.43 603.34 168.76 602.02 169.42 601.62 170.41 601.29 171.01 600.89 171.4 599.83 171.67 598.84 171.6 597.26 171.73 596.4 171.93 596.4 172.53 597.06 173.06 598.31 173.12 598.31 174.31 598.11 175.11 598.05 175.96 598.58 176.56 598.11 176.96 596.86 176.76 595.8 176.1 594.15 174.91 592.36 174.64 591.63 174.25 591.24 173.72 591.24 172.66 591.17 171.21 591.04 169.62 591.3 167.9 590.77 166.65 589.19 166.38 587.27 166.51 586.15 166.58 584.95 166.25 584.29 166.18 583.9 166.45 583.04 166.78 581.98 166.98 581.52 166.84 580.79 166.25 579.8 166.78 580.06 167.97 578.41 169.42 577.15 170.74 575.96 171.4 575.7 170.55 575.5 169.09 575.56 168.56 575.83 167.7 575.76 167.24 574.04 167.77 571.93 168.23 569.94 168.63 568.36 168.76 567.89 169.36 568.16 171.07 568.82 172.33 568.75 173.06 567.89 172.2 567.03 171.67 566.44 171.21 566.31 170.35 565.51 169.82 565.05 169.62 563.07 169.29 561.21 169.03 559.89 169.03 558.77 168.96 557.91 168.89 557.09 168.29 556.06 168.03 554.8 167.84 554.47 167.37 553.74 167.17 552.22 166.91 551.49 166.98 551.16 167.31 551.56 168.3 551.49 169.69 551.36 170.55 550.5 171.27 549.91 171.8 549.11 172.46 548.52 173.12 547.66 172.99 547.52 172.13 547.19 170.81 546.93 170.55 546.27 170.08 545.41 169.82 544.81 169.75 543.36 169.62 542.43 169.75 542.5 168.76 542.7 168.3 543.42 168.3 543.76 168.17 544.28 167.44 545.21 166.84 546.14 166.12 546.4 165.19 546.8 163.87 546.8 163.08 546.14 162.15 545.28 161.82 544.68 161.49 545.01 160.57 545.21 159.44 544.81 158.78 543.89 157.72 542.37 155.94 540.85 154.62 539.59 152.64 539.08 151.47 537.94 150.92 536.94 150.12 535.42 148.94 533.84 147.88 532.25 146.89 530.86 146.03 529.07 145.23 527.69 144.97 525.11 144.9 523.52 145.1 522.86 145.1 521.8 144.97 520.54 144.31 519.62 142.92 518.76 141.67 517.24 140.15 516.18 138.63 515.19 137.44 514.86 135.92 514.46 134.33 513.27 134.07 511.75 134.13 510.49 134.53 509.7 134.86 508.51 136.11 505.93 138.23 504.47 139.35 503.81 139.75 502.36 141.34 501.3 141.8 500.9 142.79 500.24 144.71 498.72 145.5 497.86 146.09 497.46 146.89 496.96 146.85 496.54 146.82 496.01 146.29 495.48 145.83 494.95 145.76 493.69 145.76 493.03 145.56 491.91 145.56 491.11 145.76 490.59 146.23 490.39 146.82 489.59 147.15 488.21 147.75 487.41 147.48 486.82 147.81 486.29 148.08 485.36 147.81 484.3 147.48 482.85 147.94 481.46 147.94 479.08 147.48 478.02 147.28 476.24 146.95 474.58 146.49 473.39 145.96 472.14 145.43 471.34 145.17 470.02 144.97 469.16 144.77 468.56 143.65 468.1 142.59 467.31 142.33 466.05 142.13 464.46 142.79 463 142.83 462.15 143.65 461.49 144.31 461.29 145.43 460.43 146.62 459.97 148.41 459.31 150.59 458.98 151.51 458.98 152.24 458.91 153.76 457.65 155.21 456.4 157.06 455.47 157.26 454.35 156.87 453.55 156.27 454.02 155.21 453.09 154.29 452.03 154.02 451.11 154.02 449.85 154.22 448.59 154.55 447.67 155.28 446.74 156.34 445.02 155.94 444.03 155.48 442.57 155.35 440.59 155.61 439.8 155.61 438.61 155.41 437.42 155.28 434.97 155.74 432.59 156.54 430.67 157.79 429.48 158.25 428.49 159.57 427.96 159.97 427.1 160.43 425.91 160.76 425.38 160.9 424.65 161.56 423.4 162.09 422.16 161.78 421.48 162.19 419.83 163.29 419.1 164.13 419.03 164.86 419.43 165.92 420.62 166.58 422.01 166.98 422.74 167.31 422.93 167.84 422.27 168.5 421.48 168.56 420.62 169.09 418.17 169.95 416.98 169.88 415.66 169.69 414.93 169.62 414.07 170.02 413.48 170.35 412.68 171.01 411.89 171.54 410.7 171.87 409.58 172.13 408.98 172.13 407.92 171.67 406.86 171.07 405.01 170.48 403.95 170.35 403.16 170.02 402.37 170.02 401.64 170.55 400.52 171.6 399.99 172.33 399.26 174.31 399.06 176.29 399.26 177.68 399.59 178.94 399.59 180.19 399.19 181.91 398.47 182.44 397.34 181.91 396.02 180.13 394.83 179.4 393.9 178.81 393.44 178.41 392.71 178.41 392.18 178.48 391.39 179.4 390.13 180.46 389.27 181.71 388.35 181.98 387.75 182.9 388.74 185.02 390.13 185.68 392.05 185.48 393.37 185.22 395.69 185.61 397.94 185.22 400.05 184.56 403.43 183.63 405.74 182.44 407.33 181.71 408.19 181.05 407.46 180.06 406.86 178.81 406 177.48 406.27 177.22 407.92 177.48 409.11 177.75 410.3 177.75 412.09 177.75 413.87 176.56 415.79 176.1 416.59 176.63 415.86 177.48 415.33 178.87 415.33 179.33 414.6 180.52 413.74 181.32 412.09 181.45 412.62 181.98 412.88 183.04 413.28 184.03 414.6 183.89 415.86 183.76 416.92 184.29 418.3 185.02 419.83 185.55 421.41 185.55 423.33 185.41 424.85 186.41 426.64 186.93 430.01 187.66 432.66 188.52 433.98 188.52 434.9 187.99 435.43 187.86 436.09 188.45 437.28 188.85 437.61 188.78 439.86 188.19 441.38 188.12 442.64 188.32 443.3 188.19 443.96 187.93 444.43 186.87 445.29 186.41 446.15 186.27 446.67 187.07 446.34 188.26 446.67 189.38 447.34 190.17 447.73 191.3 448.33 191.69 448.79 192.16 448.86 193.34 449.12 193.61 449.45 192.75 449.52 192.42 449.92 191.56 450.91 191.56 451.17 191.63 452.1 192.02 452.89 192.88 452.96 193.61 451.5 194.4 449.85 194.4 449.65 194.34 449.06 194.4 449.19 195.19 449.98 195.72 450.11 196.58 450.38 197.57 450.38 197.84 450.38 198.9 450.64 198.43 451.17 197.51 451.57 196.85 452.3 196.78 452.89 197.24 453.42 197.71 454.74 197.84 455.67 197.97 455.8 199.16 455.07 199.75 454.35 199.42 452.83 200.15 451.37 200.22 450.91 199.89 450.25 199.75 450.11 200.88 450.31 201.8 450.07 202.4 450.31 203.39 450.78 203.46 451.97 203.26 452.96 203.32 454.21 203.32 456.2 203.92 457.92 204.05 459.44 204.12 461.16 204.45 463.27 204.78 465.19 205.37 467.37 205.97 468.63 206.03 469.89 205.64 471.21 205.7 472.73 205.97 473.72 205.97 475.05 205.7 475.84 206.3 476.7 206.23 478.09 206.3 479.08 206.76 480.53 207.09 480.73 207.82 478.02 206.89 476.5 206.83 475.57 206.89 475.38 206.96 473.85 207.22 472.73 207.55 470.88 207.88 469.56 208.15 467.97 208.61 466.51 209.47 464.86 209.47 464.07 208.41 463.21 208.28 462.48 208.41 462.68 209.54 463.01 210.59 463.67 211.45 463.67 212.05 463.21 213.17 462.74 214.23 461.22 214.29 461.29 215.15 462.22 215.68 463.54 215.75 465.46 216.14 467.11 216.28 468.5 216.28 468.83 216.61 469.23 217.14 468.83 217.6 469.56 217.86 470.42 217.8 471.87 217.86 471.61 218.59 469.82 218.59 468.89 219.12 468.3 219.78 467.57 220.57 465.92 220.84 464.93 220.51 464.53 221.3 464.73 222.29 465.06 222.55 465.72 222.55 466.25 222.62 466.71 223.15 467.24 223.41 468.1 223.41 469.23 223.48 469.69 224.01 470.15 225.33 470.35 226.45 470.61 227.05 470.09 227.84 469.03 228.24 468.63 229.16 468.76 230.42 469.03 231.94 469.49 233.06 470.09 234.12 470.48 235.64 471.21 235.9 470.94 236.56 471.41 236.96 471.8 237.95 471.08 237.82 470.28 237.69 469.49 237.82 469.95 238.75 470.81 239.34 471.14 240 469.89 239.41 468.56 238.22 467.84 237.09 466.78 236.43 465.26 237.42 464.66 236.37 463.27 235.57 462.22 236.63 462.41 235.57 462.28 233.92 461.62 232.67 460.63 232.33 459.57 231.28 458.64 229.63 457.92 228.44 457.39 227.38 457.45 225.92 457.12 224.01 456.33 222.36 456.33 221.43 456.59 220.64 456.13 219.32 455.4 217.47 454.15 215.42 453.16 213.7 452.49 213.63 451.77 214.36 451.3 215.62 450.78 216.67 450.44 217.07 449.65 216.28 449.85 215.55 450.71 215.22 451.57 213.96 452.03 212.71 451.7 211.52 450.84 210.39 449.85 209.87 449.39 210.72 448.72 211.91 448.13 212.18 446.41 211.85 444.76 211.52 442.05 211.12 440.46 211.06 438.74 211.39 437.55 211.39 436.23 210.66 435.3 208.87 435.23 207.82 436.76 207.55 439.14 206.56 441.98 204.65 442.91 202.93 443.43 201.54 443.22 200.65 432.32 197.87 430.54 196.91 429.94 196.78 429.02 197.02 428.69 197.11 426.5 198.1 425.18 199.23 425.12 199.36 423.99 200.88 423.73 202.73 424.52 204.58 424.72 205.97 423.13 206.63 422.01 206.83 420.95 207.02 420.35 207.42 420.82 209.21 421.61 211.12 422.47 211.58 423.66 211.72 424.39 212.11 425.31 212.77 426.31 213.9 427.76 214.56 429.48 216.01 431.33 217.14 431.6 218.52 429.61 219.58 427.56 220.51 424.92 220.9 424.06 220.57 422.4 221.36 422.14 223.28 421.28 224.01 419.36 224.27 417.38 224.34 415.79 224.21 415.33 223.68 414.93 222.03 414.73 220.51 414.01 218.66 413.48 218.13 412.35 218.19 410.1 218.52 407.26 218.19 406.6 217.2 406.47 216.21 406.86 215.02 407.66 213.96 408.25 212.77 408.65 212.05 408.72 211.12 408.52 210.66 407.13 210.92 406.14 210.79 406.07 209.73 406.14 208.28 406.4 207.35 406.4 206.3 405.21 205.24 403.89 204.05 402.7 203.26 401.9 202.33 401.9 201.67 401.51 200.68 400.52 200.61 399.26 200.48 398.6 200.35 397.87 200.15 396.61 200.88 395.49 202.07 395.22 202.93 394.5 203.19 392.84 202.93 391.39 202.4 390.07 202 389.21 202 388.22 202.27 384.34 200.85 383.24 200.85 383.02 200.32 382.47 198.98 381.7 197.66 381.03 196.22 379.27 195.01 378.06 194.02 376.74 193.47 375.3 193.14 372.74 193.08 371.35 193.28 369.96 193.48 368.84 194.27 367.71 194.67 366.33 195.39 365.27 195.59 363.28 194.8 362.16 193.87 361.43 193.28 360.7 193.34 360.57 194.6 361.37 196.45 361.5 196.71 361.96 198.43 362.69 200.28 362.95 201.87 362.69 202.6 361.83 202.07 361.04 201.14 360.24 201.34 359.78 201.74 359.91 203.26 359.91 204.78 359.51 205.64 358.65 206.63 357.73 207.55 357.27 208.61 357.07 209.67 356.85 209.47 356.34 209.01 356.41 207.16 356.41 206.03 355.41 204.31 355.08 203.92 354.03 203.46 352.17 203.46 350.39 203.46 348.54 203.65 347.81 203.65 346.62 202.99 346.02 201.14 345.43 200.22 343.78 199.09 342.39 198.76 340.8 199.75 339.67 200.61 338.42 200.94 335.84 201.67 335.11 202 333.99 203.46 334.25 204.78 335.77 205.24 337.62 206.23 337.69 207.29 336.77 209.14 335.44 209.87 334.05 210.39 332.53 210.92 329.62 211.45 328.43 212.44 327.97 212.97 327.97 214.76 328.37 216.01 328.23 217.47 325.99 218.59 322.88 219.38 321.03 219.91 318.65 220.51 317.32 221.23 316.26 221.56 314.94 221.63 313.42 220.9 311.77 220.31 310.58 219.98 308.99 219.91 306.74 219.91 305.22 220.37 303.83 220.04 302.44 219.32 301.39 218.39 300 218.32 299.33 217.27 298.74 216.67 297.75 216.61 297.28 217.8 295.96 218.72 293.45 219.25 292.59 218.92 289.88 219.65 288.56 220.24 288.03 220.57 287.7 221.7 286.84 221.83 285.65 221.7 284.98 221.5 284.39 221.63 283.53 222.22 283.6 223.28 284.06 224.74 283.79 225.79 282.8 226.32 282.21 226.19 281.15 226.39 279.56 226.72 278.31 226.45 277.91 226.12 278.31 225.66 279.76 225.26 279.76 224.21 279.5 223.28 279.76 222.75 280.36 222.03 280.36 220.97 280.29 219.65 280.42 218.46 280.75 217.6 279.63 216.87 279.03 216.61 278.97 215.62 278.11 213.37 277.51 211.85 277.18 210.2 276.52 208.81 275.06 207.69 274.34 206.76 273.94 205.57 273.01 205.17 272.02 205.31 271.56 205.97 271.36 207.09 271.16 208.08 270.5 208.94 268.72 210.26 266.53 210.46 265.48 210.33 264.02 211.25 262.83 212.05 260.25 212.64 259.52 212.71 258.6 214.29 258.47 215.75 258.2 216.47 257.54 215.88 257.41 215.22 256.88 214.36 256.61 214.23 255.47 214.51 254.68 214.51 253.09 213.65 252.3 211.8 252.03 210.28 252.23 208.7 252.36 207.71 251.44 207.84 250.38 209.42 250.84 210.55 250.64 211.54 249.78 212.46 248.99 212.66 248.33 212.07 247.27 212.73 248.07 213.59 248.26 214.12 248.07 215.11 246.54 215.37 245.75 215.44 244.83 215.77 243.44 216.69 242.71 217.35 241.72 218.41 240.99 219.14 240.99 220.39 242.05 222.11 242.84 223.5 242.11 224.82 240.33 223.9 238.74 222.11 237.55 220.46 236.89 219.2 236.49 218.87 235.83 218.87 234.91 219.93 234.38 221.39 232.72 221.91 231.86 222.31 232.46 223.7 232.46 224.23 231.86 224.82 232.26 225.81 232.52 226.94 232.13 227.73 232.13 228.65 231.8 229.05 230.14 228.85 229.28 229.58 229.09 231.23 228.19 233.26 226.87 236.23 225.33 236.78 222.02 236.67 218.82 236.23 214.64 235.13 209.57 233.92 207.14 233.26 202.34 231.85 190.34 228.41 183.87 226.75 183.47 226.65 178.79 226.21 173.33 225.33 167.6 224.62 159.48 223.39 158.78 222.6 158.34 220.66 157.37 219.78 156.57 219.6 155.07 219.34 154.37 219.25 153.66 220.13 153.31 221.8 152.61 222.33 151.28 222.42 149.7 222.24 146.35 222.07 142.29 221.19 140.08 220.92 137.09 220.75 134.44 220.92 132.15 221.89 128.45 223.57 125.18 224.71 121.92 226.39 120.16 227.36 119.45 227.62 118.48 228.06 116.89 227.27 115.48 227.09 113.98 227 112.31 227.53 110.46 227 93.18 219.95 94.5 217.75 96.26 215.37 98.82 213.96 101.46 212.02 102.01 211.48 103.07 210.93 103.97 210.27 104.53 208.71 104.49 207.49 104.26 206.34 103.77 205.31 103.14 205.15 101.2 205.41 Z M 565.11 143.56 564.89 141.8 564.89 140.7 564.89 139.15 563.46 139.04 561.7 138.82 560.93 137.5 560.93 136.29 558.5 135.74 557.18 135.85 557.73 136.62 558.06 137.61 556.85 138.27 555.97 138.71 556.19 139.15 558.06 139.81 558.06 140.26 559.6 141.91 560.82 143.56 562.91 144.33 564.78 144 565.11 143.56 Z M 568.09 136.07 568.42 136.73 570.52 136.73 571.62 135.52 572.83 134.42 573.82 133.1 573.27 131.99 572.17 131.11 571.4 130.56 570.63 130.78 570.18 132.44 569.08 133.65 568.31 134.75 568.09 136.07 Z M 478.81 140.48 479.19 140.71 480.2 140.92 481.35 141.27 482.05 142.15 483.07 142.5 483.55 142.64 485.05 142.72 486.46 142.72 487.65 142.42 488.89 142.28 490.35 142.06 491.16 141.8 492.71 140.49 493.56 139.07 494.31 138.32 495.1 137.66 495.72 137.09 496.07 136.47 496.16 135.68 496.07 135.01 496.07 134.93 496.56 134.88 497.4 134.88 498.17 134.7 499.09 134.31 500.31 132.66 499.76 131.33 497.66 130.34 495.02 129.57 492.04 128.69 488.73 128.47 485.87 128.58 484.72 128.89 484.04 129.2 482.76 129.64 481.79 130.08 480.6 130.17 479.8 130.39 477.86 131.14 475.92 131.8 474.12 132.24 471.65 132.86 468.87 133.83 466.62 134.53 465.78 134.88 465.64 135.07 466.8 135.52 470.44 136.62 472.53 137.5 474.12 138.41 474.69 138.8 475.48 139.2 476.15 139.2 477.38 139.24 478.13 139.55 478.48 139.73 478.81 140.48 Z M 436.49 131.44 434.84 130.34 433.84 128.69 433.62 126.82 432.74 125.39 430.76 123.84 429.22 122.85 427.67 121.64 425.69 121.2 422.82 121.2 420.51 122.74 418.41 124.39 417.2 125.94 417.53 127.15 419.52 128.58 422.6 128.69 424.04 129.68 422.71 130.23 422.49 131.22 422.05 132.66 421.17 133.98 419.08 134.09 417.86 133.21 416.1 132.1 413.89 131.66 412.02 132.66 413.12 134.64 414.67 135.41 414.23 136.18 411.91 136.73 409.93 136.62 408.38 136.62 407.17 136.07 406.07 135.19 404.64 135.41 402.21 135.85 400.67 136.62 399.13 138.49 398.35 140.04 398.35 141.14 400.01 140.92 401 141.25 402.76 142.46 404.75 142.13 404.86 141.58 406.07 141.03 407.28 140.81 408.49 141.25 409.6 141.58 411.59 142.27 413.23 142.24 420.62 142.13 423.59 142.46 425.8 141.03 428 140.81 429.88 140.81 432.3 139.26 434.51 137.17 435.94 134.86 437.15 132.88 436.49 131.44 Z M 310.62 142.68 311.06 141.25 310.73 140.37 310.18 139.93 309.52 139.48 308.75 139.59 308.2 139.7 307.53 140.92 307.64 142.13 308.53 142.68 309.74 142.79 310.62 142.68 Z M 285.27 142.68 286.15 141.36 285.82 140.92 283.95 140.59 282.18 140.48 281.85 141.58 281.52 143.12 280.2 144.22 279.1 145.54 280.2 147.08 282.18 145.87 282.74 144.44 285.27 142.68 Z M 265.21 142.57 265.43 138.82 264.33 136.62 263.23 135.08 262.12 132.99 261.57 130.78 261.57 128.8 260.69 128.25 259.26 128.03 258.71 130.01 257.72 133.1 257.72 136.18 257.72 139.48 259.26 143.45 259.92 145.65 262.23 146.31 264.44 144.88 265.21 142.57 Z M 257.05 128.47 256.06 127.81 255.29 126.93 254.41 126.82 253.09 127.04 251.65 127.15 250.55 127.48 250.11 128.14 250.66 130.45 252.43 130.34 254.3 130.12 255.18 130.01 256.5 129.35 257.05 128.47 Z M 322.08 127.04 322.3 128.69 322.52 130.78 323.96 132.22 325.5 131.66 325.72 130.56 325.17 128.8 324.4 127.81 323.3 126.71 322.08 127.04 Z M 301.69 135.19 301.8 137.28 302.46 138.82 302.79 139.93 302.35 141.47 303.57 141.91 304.67 141.47 306.43 140.37 308.09 137.94 309.74 136.51 310.62 134.42 309.3 134.53 307.09 134.42 305.11 133.21 303.68 133.21 301.69 135.19 Z M 319.44 136.62 318.67 136.95 317.01 137.17 315.36 136.62 314.7 136.84 314.92 137.94 316.35 138.49 316.13 138.93 315.36 140.15 315.25 141.14 315.91 142.02 317.34 141.91 319 140.48 320.87 139.04 321.86 138.27 321.86 137.5 320.76 136.62 319.44 136.62 Z M 299.49 137.83 298.17 136.95 297.39 137.28 296.62 138.71 297.28 139.81 298.72 139.37 299.49 138.82 299.49 137.83 Z M 329.91 121.53 329.36 121.09 328.37 121.53 327.7 122.52 328.37 123.62 329.91 123.29 330.57 122.52 329.91 121.53 Z M 317.89 122.52 318 120.65 317.34 119.44 316.57 118.89 316.35 120.1 316.57 121.75 316.35 122.41 317.89 122.52 Z M 572.72 120.65 571.62 120.43 570.85 119.77 570.74 120.87 572.06 121.31 573.27 121.31 572.72 120.65 Z M 155.34 112.16 156.82 110.38 157.76 108.35 157.52 107.43 156.63 106.69 155.05 106.52 153.71 106.92 153.02 107.45 152.32 108.28 151.72 109.5 151.37 110.51 151.59 111.5 152.5 112.14 153.6 112.51 154.86 112.59 155.34 112.16 Z M 87.7 105.64 86.77 105.24 84.9 105.57 84.9 106.57 85.53 107.11 86.72 107.26 87.52 107.13 87.7 105.64 Z M 152.35 91.68 150.69 91.57 149.81 92.23 146.95 92.67 145.4 92.78 146.28 93.78 146.95 94.22 148.38 94.22 150.8 93.67 152.13 92.56 152.35 91.68 Z M 237.1 182.88 236.99 184.86 237.99 187.07 241.29 189.16 244.71 190.92 248.13 191.69 250.33 190.37 252.87 189.38 256.06 190.48 259.59 190.15 262.79 188.72 263.67 186.96 262.34 186.29 259.59 185.96 257.05 187.29 255.29 186.4 252.87 186.4 251.1 187.29 248.13 187.4 247.02 186.96 244.16 184.09 240.3 181.45 236.88 178.81 234.24 177.59 233.8 178.81 234.24 179.58 236.33 180.13 236.88 181.34 237.1 182.88 Z M 258.38 191.69 257.72 192.13 257.72 193.23 259.37 193.67 260.03 192.13 258.38 191.69 Z M 320.54 193.67 319.55 194.34 318.12 196.1 316.24 195.99 313.82 195.33 312.38 194.45 311.06 193.89 310.29 194.23 309.63 195.44 310.07 196.32 312.38 196.43 314.81 197.2 317.12 197.42 319.33 197.64 320.87 197.53 322.52 196.87 324.62 196.54 326.05 196.65 327.92 197.64 328.92 199.18 330.35 199.62 331.12 197.75 329.25 196.76 327.81 195.55 325.5 194.11 323.08 193.12 321.75 193.23 320.54 193.67 Z M 319.77 199.07 319 198.74 318.34 200.06 318.23 201.71 318.78 202.82 319.88 203.04 322.74 203.7 322.74 203.48 321.86 202.6 320.65 201.6 319.99 199.84 319.77 199.07 Z M 256.5 194.23 255.84 193.01 253.09 193.67 252.76 195.66 253.86 196.65 255.62 195.44 256.5 194.23 Z M 110.04 190.44 111.29 189.61 111.52 188.24 110.75 186.58 109.66 186.15 108.93 185.96 108.02 185.68 107.56 185.81 107.39 186.34 107.26 187.04 106.95 189.28 107.46 190.44 108.32 190.64 109.41 190.7 110.04 190.44 Z M 555.53 162.5 556.41 162.94 557.62 161.4 557.4 160.85 556.19 160.41 555.42 159.75 554.86 159.97 554.97 161.51 555.53 162.5 Z M 557.62 162.83 556.85 163.39 556.74 163.94 557.18 164.71 559.27 165.7 562.14 167.35 564.67 167.46 564.89 167.02 564.34 166.14 563.79 165.48 563.79 164.49 563.9 164.05 564.01 163.05 562.69 163.39 561.7 163.28 560.38 162.61 559.6 162.17 558.61 162.28 557.62 162.83 Z" fill-rule="evenodd"/>
</g>
</svg>