<?xml version="1.0"?>
<svg xmlns="http://www.w3.org/2000/svg" version="1.2" baseProfile="tiny" width="800" height="1533" viewBox="0 0 800 1533" stroke-linecap="round" stroke-linejoin="round">
<g id="washoelake">
<path d="M 50.8 708.39 52.87 706.09 54.07 704.4 54.73 702.87 54.62 702.1 54.29 701.68 53.42 700.49 53.42 699.73 54.07 699.05 54.84 698.54 56.37 697.95 56.8 697.35 56.59 696.84 55.06 694.47 55.27 693.62 55.93 692.94 56.69 692.77 58.33 692.68 60.73 692.17 61.61 691.66 62.16 691.07 62.37 690.05 62.59 688.78 62.81 687 63.03 686.23 63.57 685.72 64.12 685.47 64.88 684.96 66.74 683.77 68.6 682.33 71 680.29 72.64 677.15 73.18 676.3 74.17 675.28 75.04 674.52 77.01 672.82 77.66 671.8 77.88 670.61 78.32 669.43 78.75 668.83 79.41 668.07 80.5 667.73 81.05 667.13 81.38 666.28 81.59 664.67 81.81 662.89 82.25 661.19 82.9 660.09 84 658.81 85.52 657.71 86.84 657.12 87.82 656.35 88.69 655.76 89.35 654.57 89.57 653.64 89.56 652.7 89.67 651.85 90.22 650.75 91.1 650.5 91.64 649.9 92.08 648.88 92.19 647.78 92.51 645.83 92.84 644.64 93.39 643.62 94.15 642.18 94.37 641.08 94.04 639.8 94.15 638.44 93.82 637.59 94.37 636.66 94.92 634.29 95.24 632.16 94.92 630.04 94.26 628.6 92.4 626.64 91.2 625.29 90.87 624.1 91.31 622.74 91.75 620.7 92.18 618.41 92.07 617.22 91.31 614.42 90.66 612.55 91.2 610.77 92.29 610.35 93.17 610.18 94.81 609.75 96.99 609.24 99.39 608.48 101.69 607.55 102.78 606.78 104.09 605.42 105.84 600.93 106.6 597.19 107.47 593.71 108.02 589.81 107.36 586.33 106.27 582.76 106.05 580.22 106.27 577.67 106.6 574.61 107.36 572.41 108.13 572.07 109.44 571.98 111.29 572.15 115.45 572.32 117.41 571.56 118.72 570.12 118.94 567.74 118.07 565.02 116.32 562.73 113.7 559.76 113.81 558.99 114.68 558.65 116.54 558.4 119.16 558.23 120.58 557.72 120.8 556.45 120.69 552.03 119.38 543.21 119.7 540.49 120.69 537.44 122.33 535.23 123.85 534.8 128 535.4 128.99 535.23 129.21 534.47 129.86 533.36 131.28 532.94 134.01 532.6 135.98 531.92 136.31 531.32 135.43 529.12 133.9 527.67 133.36 526.48 133.79 524.62 134.56 521.14 134.34 520.29 133.14 520.04 130.63 520.71 127.57 521.39 127.02 520.8 127.24 519.36 128.11 518.59 130.08 517.23 132.26 515.45 134.34 513.92 134.67 511.63 135.54 509.51 136.63 508.23 136.85 507.22 135.65 505.94 134.45 505.69 132.7 505.94 131.72 506.62 131.17 507.56 129.32 509 128.33 508.75 127.46 508.23 126.58 508.24 125.6 508.74 124.51 509.68 124.4 512.31 123.53 514.18 122.98 514.6 122.21 514.69 121.01 514.35 120.25 514.6 118.83 516.13 118.28 518.17 117.41 518.68 116.43 518.42 115.77 517.66 115.77 515.11 116.53 513.16 117.3 511.63 118.83 509.59 120.03 508.15 120.14 507.64 119.81 506.54 120.14 505.86 121.01 505.27 122.76 504.76 124.07 504.08 125.6 502.55 129.09 498.3 130.08 497.63 131.61 497.79 134.01 498.9 135.76 499.24 136.74 499.07 137.07 497.88 137.51 493.64 136.85 493.13 136.3 492.87 135.54 492.62 134.67 493.04 129.42 494.83 128.77 494.74 127.57 494.06 127.46 493.13 127.24 492.11 126.69 491.43 125.82 490.92 123.09 490.33 119.16 488.97 115.11 486.51 113.58 484.3 114.13 481.33 114.79 480.23 115 479.63 114.79 479.21 114.35 478.36 113.8 477.26 114.02 476.07 114.57 475.13 115.88 474.54 117.19 473.86 117.41 473.35 117.19 472.84 116.64 471.74 116.53 470.81 117.41 470.21 118.93 469.95 119.59 469.79 119.7 469.53 119.81 469.45 120.14 468.43 120.14 467.67 120.46 467.41 121.12 467.07 121.67 466.39 121.45 465.54 120.36 465.03 117.95 464.44 116.97 464.1 116.64 463.76 116.97 463.08 117.62 462.23 119.26 460.7 120.9 459.09 121.56 457.39 120.79 456.54 119.92 455.95 116.97 455.1 110.74 454.59 107.68 454.25 104.73 454.34 102.55 455.02 101.13 455.53 100.69 455.44 99.49 454.93 98.07 453.4 98.4 451.71 99.38 451.28 100.14 451.11 100.69 451.28 104.08 452.13 106.37 452.13 107.14 451.79 109.65 451.11 115.11 449.84 118.17 448.82 119.81 448.23 120.57 447.29 120.9 446.1 120.03 445.68 118.82 445.85 117.08 446.61 114.67 447.8 113.91 447.97 113.36 447.72 113.47 447.04 115 446.02 117.4 444.49 117.84 443.64 119.7 441.77 121.12 440.42 122.97 439.31 124.83 438.63 125.92 438.21 126.25 437.53 126.69 436.94 129.75 433.03 130.08 432.69 130.73 432.52 132.37 431.93 133.79 431.42 135.65 430.23 136.52 429.13 137.83 427.6 139.14 426.41 140.56 426.33 141.55 425.9 142.2 425.31 142.2 424.29 141.76 423.02 141.22 421.74 139.25 418.69 138.92 417.75 139.47 416.99 140.35 416.99 142.53 416.91 143.29 416.82 144.39 416.06 147.34 413.17 148.87 410.96 149.3 410.28 150.39 409.52 151.38 409.61 152.69 409.86 153.56 410.45 155.2 411.39 156.73 411.22 157.71 410.79 158.15 410.45 158.59 409.43 158.7 408.67 159.13 408.67 159.9 409.09 160.23 409.44 160.34 410.2 160.99 411.05 162.41 411.3 163.72 411.13 165.58 410.96 168.31 410.03 169.62 409.27 170.28 408.25 170.61 407.06 171.48 406.29 172.46 405.78 173.12 405.44 173.77 404.68 174.97 403.24 175.19 402.81 175.96 402.56 181.75 401.54 185.57 400.78 188.41 400.01 190.38 398.65 194.31 396.28 199.45 393.82 205.34 392.12 209.28 391.19 212.45 389.91 212.66 389.15 212.56 388.47 211.68 388.22 207.97 387.45 206.98 387.11 207.53 386.6 208.84 386.18 210.59 385.75 214.41 385.16 217.58 384.39 219.98 383.46 222.06 381.76 222.61 380.66 222.61 379.9 222.28 379.56 221.95 379.13 222.17 377.86 222.61 377.35 223.7 375.99 224.57 375.14 224.68 374.64 224.35 373.7 224.46 373.11 224.79 372.68 225.56 372.17 226.87 370.9 226.54 370.05 225.34 369.29 220.97 368.69 217.58 368.44 215.18 368.95 214.2 368.95 213.54 368.52 213.43 367.93 214.85 367 219.88 366.4 224.57 365.89 227.41 365.98 230.04 366.4 231.24 367.84 232 369.12 233.2 370.14 235.5 370.73 237.25 370.48 238.34 369.8 238.34 368.01 238.99 366.15 240.96 364.87 242.16 363.77 242.93 362.84 242.71 361.9 242.27 361.31 242.49 359.78 243.91 359.44 245.33 359.87 245.66 360.8 245.33 362.41 245.77 363.01 247.08 363.01 252.54 361.56 253.96 361.65 255.38 362.24 256.26 362.41 255.38 362.92 244.02 366.57 242.49 367.25 242.05 368.1 242.16 369.8 241.73 370.81 239.98 371.83 240.2 372.43 241.84 372.68 243.91 372.43 245.11 372 245.55 371.15 245.66 370.05 246.86 369.37 248.39 368.44 255.06 366.4 257.57 365.72 260.84 363.35 261.39 361.9 260.63 360.2 258.99 359.19 252.21 358.34 250.14 358 249.16 357.23 248.61 356.64 247.3 355.71 243.69 354.01 240.09 353.67 236.16 353.67 232.77 354.43 229.6 355.03 224.9 356.21 222.28 356.3 221.52 356.13 221.19 355.79 221.84 354.77 223.37 354.01 225.12 352.82 226.87 352.65 228.4 353.08 229.05 353.16 231.78 352.74 233.97 351.8 234.95 350.95 235.83 350.02 237.79 349.17 239.87 348.92 244.13 347.81 246.53 347.05 248.39 346.29 249.7 345.44 250.58 345.18 252 345.27 254.4 345.18 257.79 345.52 259.43 345.86 261.17 346.54 263.58 347.81 265.33 348.83 267.18 348.83 268.06 348.32 269.04 347.56 269.59 347.47 270.24 347.64 271.33 347.98 272.21 348.15 273.19 347.9 274.17 347.13 274.83 346.37 276.14 345.01 277.89 343.82 278.87 344.08 280.08 344.16 282.26 344.67 285.21 345.01 286.74 345.18 287.61 344.5 288.16 343.66 288.16 342.04 288.38 339.33 288.71 337.29 288.93 335.76 287.83 335.25 286.74 335.17 283.9 336.1 281.82 336.78 280.84 336.53 280.4 336.27 280.4 335 281.17 333.55 282.59 331.6 282.92 330.67 282.7 329.14 281.5 328.04 280.19 328.04 278.44 328.46 276.36 329.06 273.96 329.56 272.97 329.23 271.66 328.8 270.46 328.04 269.26 327.36 267.62 326.85 265.65 326.34 263.47 326.68 262.81 327.44 261.94 328.63 260.08 329.9 259.21 331.77 259.75 333.04 261.07 333.72 262.27 333.98 265.98 335.08 268.17 335.85 268.93 336.7 269.26 337.71 268.71 338.56 267.29 339.07 265.44 338.73 263.36 338.31 260.41 337.37 258.55 336.78 258.01 336.61 256.91 336.44 255.06 335.42 253.31 333.98 252.76 332.96 252.76 330.41 252.87 327.7 253.42 326.34 254.29 325.66 255.6 325.15 256.26 324.73 256.37 324.05 256.26 322.35 256.91 321.67 257.57 321.16 258.12 321.08 259.54 320.99 259.97 320.74 260.08 320.06 260.41 318.7 260.3 317.94 260.96 316.75 262.27 315.9 262.82 315.3 262.49 313.1 264.24 310.55 265.87 308.09 267.95 308.51 270.68 309.53 273.19 309.53 274.18 309.11 274.29 308.09 273.85 307.66 272.65 306.65 270.9 305.8 269.92 305.29 270.25 304.69 270.68 304.02 272.21 303.42 275.27 303.25 278 303.51 279.64 304.95 280.4 307.07 281.61 308.34 282.37 309.28 282.37 311.48 282.92 314.2 283.68 315.56 284.56 316.49 286.41 316.24 287.07 315.9 287.29 315.05 287.73 311.65 288.05 306.73 287.73 303.85 286.74 301.98 285.32 300.28 284.01 298.41 283.68 297.31 284.01 296.29 284.78 295.36 287.51 291.54 289.37 288.82 290.46 287.72 290.9 287.55 291.23 288.06 291.44 288.48 291.66 288.99 291.66 289.42 291.77 290.52 291.44 292.13 291.11 293.83 291.22 295.78 291.33 297.65 291.88 300.79 292.53 303.08 293.19 305.46 293.95 308.26 294.17 310.13 293.95 311.74 293.52 313.27 293.3 315.39 293.41 317.09 293.63 318.28 294.72 321.25 295.26 322.1 295.05 322.69 294.94 323.62 294.72 324.73 294.72 325.83 295.04 326.43 295.7 327.1 296.79 328.29 297.67 328.8 298.54 328.89 299.63 328.55 301.16 327.87 301.6 327.44 301.93 326.51 302.47 325.07 303.46 323.2 303.9 322.44 304.55 322.27 305.32 322.61 305.64 323.2 305.86 324.05 306.08 325.92 306.08 328.04 305.86 329.4 305.86 330.59 305.53 332.54 305.53 334.15 306.08 334.91 306.95 336.95 307.61 338.39 307.61 339.84 307.82 343.49 308.26 344.42 309.79 347.82 310.88 351.89 311.87 355.2 312.85 356.56 313.72 357.41 314.82 357.83 316.89 357.75 318.09 357.07 319.08 356.22 320.94 354.35 322.57 352.49 324.32 351.55 326.07 351.04 327.27 350.45 328.47 349.6 329.35 348.5 330.44 347.56 331.42 346.97 333.28 346.37 334.81 345.87 335.68 345.36 337.54 344.25 338.31 343.49 338.96 342.98 339.4 342.3 339.51 341.88 339.29 341.62 339.07 341.37 338.53 340.94 337.43 340.52 335.9 340.18 334.48 339.67 334.05 339.41 333.94 338.99 334.05 338.48 334.38 337.97 335.8 335.51 336.67 334.58 336.89 334.07 337 333.47 337 333.05 336.56 331.86 337.22 330.93 338.31 330.5 339.84 329.91 341.8 329.48 343.88 328.72 345.52 328.3 347.38 327.7 348.69 326.85 349.56 325.66 350.22 325.07 350.44 324.05 350.44 323.2 349.89 322.44 349.34 322.18 348.47 321.93 347.82 321.76 346.94 322.02 345.85 322.44 343.44 323.54 340.17 324.65 338.09 324.98 336.67 324.98 336.02 324.47 335.58 323.2 335.03 321.93 334.38 320.23 333.39 319.13 332.19 317.77 330.66 316.41 329.03 315.22 328.48 314.71 328.37 313.78 328.59 312.25 329.46 310.81 330.12 310.21 330.99 309.87 332.19 309.96 332.85 310.04 333.4 310.3 334.05 310.39 334.6 310.47 335.03 310.39 335.58 309.62 336.13 308.69 336.78 306.74 337.33 304.87 337.55 303.77 337 303 336.35 302.24 335.69 301.47 335.25 301.05 335.14 300.54 335.47 299.94 335.91 299.61 336.56 299.27 337.33 299.18 338.53 299.01 339.52 298.93 340.5 299.35 341.81 299.78 343.67 300.12 345.41 300.71 346.29 300.88 347.71 300.71 349.02 300.54 350.44 299.78 351.21 299.27 352.3 298.42 353.72 297.23 354.48 296.64 355.14 296.55 355.47 296.72 355.79 297.32 355.9 298.33 356.12 300.62 356.67 302.58 356.78 304.87 356.67 306.4 356.12 307.5 355.79 308.27 354.92 308.44 354.26 308.27 351.97 307.33 349.35 306.4 346.94 306.23 345.52 306.99 345.52 307.67 346.18 308.35 347.16 308.77 348.91 309.54 351.31 310.56 352.3 311.83 353.06 312.76 353.93 313.87 355.9 315.56 357.32 316.33 359.07 316.67 361.04 316.75 362.13 316.16 362.89 314.29 364.1 311.15 365.41 308.52 365.95 308.18 366.94 307.76 367.48 307.33 367.92 306.48 368.03 305.21 368.03 304.62 367.48 303.94 366.83 303.68 365.41 303 363.66 302.24 362.57 301.81 362.35 301.22 362.57 300.29 363.33 298.76 363.88 296.38 364.32 293.07 363.23 289 363.01 287.73 363.44 286.71 363.99 285.01 364.21 283.23 364.21 281.27 363.33 279.66 362.35 278.39 359.18 275.5 357.87 274.48 356.56 273.55 355.91 272.44 355.58 271.43 355.47 270.41 354.93 268.46 354.93 266.08 355.36 264.21 355.8 263.45 356.46 262.85 357.11 262.34 358.42 261.67 359.4 260.82 359.84 260.39 359.73 259.29 359.95 257.93 358.64 257.17 357.88 256.74 356.57 256.15 355.47 255.73 354.16 255.3 353.29 254.71 352.41 253.94 351.32 252.84 349.79 251.06 349.14 250.72 348.48 250.46 347.5 250.04 346.73 249.7 345.64 249.19 345.42 248.51 344.77 247.58 344.11 246.9 343.13 246.22 341.38 245.79 339.96 245.37 338.1 245.45 337.23 245.54 335.59 245.88 334.82 246.13 333.19 246.81 331.65 247.57 330.24 248.51 329.14 248.93 328.7 248.93 328.16 248.68 327.72 248.25 327.61 247.74 327.72 246.81 329.36 244.43 331.87 242.14 333.51 241.12 335.59 239.85 337.88 238.58 338.65 238.15 340.51 236.8 341.82 235.69 343.67 234.5 344.22 233.82 344.44 233.06 344.33 232.13 344.33 230.26 344.88 228.82 345.53 226.86 345.64 226.02 345.53 225.59 345.75 224.23 345.97 223.64 346.3 223.3 347.83 222.2 348.7 221.77 349.58 221.35 350.34 220.75 350.56 219.99 350.34 219.48 349.8 219.05 348.81 218.21 346.85 217.1 345.43 216.25 344.23 215.91 343.13 215.91 342.37 216 340.51 216.59 338.43 216.93 337.12 216.85 336.36 216.68 336.25 216.17 336.25 215.83 337.01 215.06 337.45 214.13 338.54 213.54 339.85 212.43 339.96 211.92 339.75 211.58 339.31 211.5 338.76 211.33 336.69 210.82 335.92 210.48 335.27 209.97 335.16 209.46 335.16 208.87 335.16 208.02 335.38 206.92 335.38 205.64 335.49 204.03 335.37 203.27 335.48 202.67 335.7 202.42 336.25 201.57 336.14 201.14 336.03 200.38 336.03 199.11 336.14 198.26 336.47 197.83 336.91 196.9 336.91 196.39 336.91 195.46 336.58 194.52 336.14 193.76 335.92 193 335.7 192.4 335.49 191.98 336.03 191.21 336.79 190.79 337.34 190.53 338.54 190.28 339.42 190.2 339.96 189.77 340.4 189.26 340.29 188.75 339.86 188.24 339.09 187.65 338.55 187.14 337.56 186.63 336.69 186.38 336.25 185.95 336.25 185.61 336.36 185.19 336.91 184.68 337.56 184.34 338.11 184.08 339.42 183.49 340.84 182.81 341.93 182.05 342.48 181.54 342.59 180.52 343.03 178.65 343.24 176.53 343.79 173.81 343.46 172.46 343.36 170.59 343.14 169.15 342.7 168.13 341.93 167.62 341.39 167.19 340.3 166.85 337.78 166.09 334.72 165.33 333.63 164.99 333.41 164.22 333.63 163.88 334.61 163.2 335.16 163.12 336.25 163.37 337.68 163.54 338.88 163.63 339.42 163.46 339.75 163.2 339.75 162.52 339.86 162.01 339.64 161.34 338.66 160.32 338.5 160.12 337.89 159.38 337.46 158.87 337.89 158.45 338.22 158.28 339.53 158.11 342.48 158.19 343.79 158.11 344.45 157.69 345 157.09 346.09 155.73 346.53 155.06 346.85 153.87 347.62 152 347.95 149.28 349.04 145.38 349.81 141.64 350.35 138.42 350.35 134.01 350.14 130.87 349.59 126.45 349.7 124.67 350.03 123.48 350.68 122.55 352.65 119.41 355.38 115.33 355.82 114.06 355.6 112.87 355.49 111.85 355.06 111.09 353.64 109.56 351.78 107.52 350.79 106.16 349.81 104.89 348.5 103.62 347.19 103.53 346.42 103.53 343.8 104.13 342.27 104.64 341.72 104.97 341.18 105.57 339.98 106.67 338.88 107.52 337.79 108.29 336.7 108.97 336.26 109.31 334.29 107.01 333.64 102.09 334.95 98.78 335.5 96.32 336.92 93.69 337.57 91.39 338.12 89.44 338.78 87.74 338.78 86.47 339.22 85.03 339.32 84.35 339.1 83.33 338.89 82.65 338.34 81.55 337.14 79.51 337.03 79.26 336.37 78.07 336.05 77.05 336.15 75.18 336.37 73.06 336.81 71.53 337.25 69.92 338.45 67.29 340.09 64.57 341.4 62.45 342.28 60.67 342.82 59.48 343.7 57.1 344.79 54.39 345.89 51.67 346.87 49.29 348.07 45.47 348.4 41.32 349.16 37.33 349.05 34.53 348.4 30.79 348.07 29.26 347.31 28.24 346.54 27.4 345.34 26.72 344.03 25.78 342.28 24.93 341.08 24.34 340.09 23.66 338.78 22.98 336.82 21.71 334.41 20.26 332.67 19.33 330.7 18.82 329.49 18.91 327.42 18.91 325.12 18.99 322.83 18.91 320.86 18.91 319.44 18.65 316.93 18.06 314.19 17.55 310.7 16.61 308.29 16.02 306.87 15.68 303.38 14.92 301.19 14.07 298.68 12.62 297.69 11.86 298.57 11.52 301.41 11.18 318.02 13.64 325.01 14.32 330.59 14.24 331.03 13.73 331.79 12.63 333.1 11.61 339.55 10.25 340.2 10 342.39 9.83 345.12 9.32 347.53 8.72 350.37 7.53 354.09 6.26 358.35 5.16 362.17 4.23 365.23 3.46 367.85 2.7 370.59 2.19 373.21 1.85 375.73 1.6 379.44 1.17 381.74 1 385.02 1.34 388.19 1.85 390.81 2.44 393.21 3.12 396.49 4.23 398.68 4.91 401.74 6.1 403.59 6.94 405.67 7.96 407.86 8.98 410.48 10.43 412.55 11.78 414.52 13.06 416.71 14.84 419 16.71 421.84 19.59 424.14 22.48 425.67 24.43 427.2 26.47 428.83 29.27 430.15 31.65 430.91 33.85 431.89 37.17 432.66 40.47 433.53 43.79 434.4 47.69 435.28 51.34 436.04 54.65 436.59 57.11 436.7 60.85 436.7 64.67 436.59 68.4 436.37 71.97 435.71 75.19 434.62 77.4 433.63 79.01 432.98 79.52 432.43 79.95 428.71 81.98 427.73 82.66 426.53 84.27 425.44 86.57 424.89 88.52 424.56 89.88 423.36 92.17 419.75 98.02 417.46 101.67 415.05 105.24 412.76 108.04 409.69 112.03 407.4 114.66 405.54 116.69 402.92 118.82 401.39 120.51 400.19 121.79 398 123.74 394.94 125.69 391.55 127.64 388.82 128.75 385.87 129.51 382.04 130.87 379.31 131.29 375.6 131.55 373.08 131.12 370.57 130.36 368.38 129.17 366.42 128.49 363.69 127.98 362.48 127.98 361.5 128.58 360.74 129.34 360.3 130.36 359.86 132.22 360.19 134.94 360.62 136.64 361.28 138.25 362.15 139.61 363.57 140.71 365.21 141.73 367.73 142.5 369.37 143.34 373.85 145.21 378.43 147.08 382.26 148.18 384.56 149.12 386.41 150.05 387.4 150.98 388.27 152.34 388.82 153.36 389.36 154.21 391.77 156.59 394.61 158.96 398.76 161.68 402.36 164.06 405.97 165.92 407.61 166.86 409.57 168.47 414.6 172.97 417.88 175.6 420.39 178.57 421.48 180.19 421.92 181.8 422.03 182.82 421.15 183.84 419.84 184.69 417.33 186.13 414.27 188.08 410.33 190.29 408.26 191.65 406.62 193.09 405.75 194.19 404.76 195.63 403.67 197.33 403.23 198.86 402.9 199.96 402.79 200.39 402.47 201.15 401.48 201.91 399.95 203.19 397.66 205.39 396.57 206.41 395.8 207.26 395.14 209.13 394.49 211.25 393.72 213.03 392.74 213.88 391.43 215.07 389.02 216.68 387.38 218.04 385.96 220.16 384.98 222.03 384.43 224.49 384.1 226.1 383.89 226.95 383.12 228.06 381.26 229.75 380.28 231.54 379.73 233.32 379.73 235.1 379.62 236.63 379.51 238.41 378.64 240.19 377.55 242.15 376.67 244.27 376.56 245.96 377 246.98 378.53 247.92 380.61 248.51 388.58 250.72 390.11 251.23 391.86 252.33 393.06 253.52 394.15 254.96 394.59 256.32 395.24 257.85 395.46 259.04 395.79 260.65 395.57 262.86 395.24 265.23 394.8 268.03 394.91 270.41 395.35 271.94 396.44 273.21 397.97 273.98 400.81 275.76 402.78 277.29 405.07 278.99 407.48 281.02 409.45 283.15 410.65 284.93 410.75 285.86 410.43 286.63 409.66 287.73 409.55 288.32 409.99 289.17 411.08 290.02 412.07 290.53 412.39 291.29 412.61 292.23 412.94 293.5 413.81 294.69 414.47 295.54 415.34 296.56 417.09 301.57 418.4 306.49 418.73 308.02 418.72 308.53 418.29 309.72 417.63 310.73 416.76 315.23 416.65 318.54 416.97 321.85 417.41 323.04 418.72 324.74 420.14 325.76 421.45 327.03 422.54 328.9 422.76 330.68 423.2 332.38 423.31 333.4 423.75 334.07 425.38 335.77 426.8 337.47 427.9 340.1 428.55 342.31 428.99 343.92 429.86 346.47 431.06 349.53 432.26 351.9 432.48 352.67 433.03 353.85 433.47 354.96 433.79 356.32 434.45 357.93 434.89 359.63 435.1 360.73 435.32 361.67 435.54 362.43 435.65 363.36 435.54 363.79 435.43 363.96 435.21 364.21 434.77 364.21 434.12 363.87 433.46 363.28 433.03 362.77 432.59 362.17 432.26 361.58 431.82 361.07 431.06 360.39 430.19 359.63 429.2 359.03 428.11 358.35 426.91 357.5 425.93 356.57 424.94 355.72 424.07 354.96 422.87 354.02 421.89 352.92 421.45 352.33 421.34 351.56 421.23 350.88 420.9 350.12 420.68 349.18 420.47 348.17 420.46 347.06 420.25 346.21 420.25 345.7 419.92 344.94 419.59 344.26 419.37 343.75 419.05 343.41 418.83 343.58 418.39 344.09 418.06 344.6 418.61 345.19 418.83 345.87 419.16 346.47 419.26 347.32 419.15 348 419.05 348.51 418.83 349.27 418.83 350.2 418.72 351.05 418.93 352.24 419.05 353 419.26 353.94 419.48 354.79 419.59 355.55 419.92 356.4 420.25 357.08 420.46 357.59 420.79 358.18 421.01 358.78 421.34 359.54 421.34 360.13 421.45 360.81 421.45 361.15 421.99 361.92 423.19 362.76 424.4 363.53 425.38 364.46 425.92 364.97 426.36 365.48 426.8 365.91 427.24 366.67 427.34 367.01 427.89 368.03 428.11 369.13 428.22 371.09 428.54 372.61 428.65 373.8 428.87 374.57 429.09 375.41 430.18 376.94 431.38 378.72 432.69 380.34 433.9 381.78 434.66 382.71 435.75 383.82 436.19 384.5 436.84 385.43 437.39 386.28 438.15 387.13 438.7 388.06 439.68 389.17 440.67 390.44 441.43 391.46 442.2 392.48 442.96 393.58 443.29 394.26 443.62 394.94 443.83 395.62 444.05 396.72 443.94 397.4 443.94 398.59 443.73 399.1 443.83 399.78 443.83 400.96 443.94 401.9 444.38 402.75 445.25 403.85 446.78 405.38 447.87 406.57 449.73 408.18 451.15 409.37 452.46 410.56 453.99 411.75 454.54 412.43 454.98 413.53 454.87 414.21 454.54 414.63 454.1 415.06 452.68 415.57 451.48 416.08 450.93 416.75 449.51 418.54 449.18 419.56 449.29 420.57 449.84 421.85 450.71 422.19 451.48 422.27 452.46 422.02 453.33 421.42 454.21 420.4 455.3 419.47 455.85 418.96 456.83 418.96 458.03 419.39 459.01 420.07 459.67 421.34 459.89 422.61 459.89 423.89 460.44 425.07 461.31 425.84 462.84 426.86 464.91 427.71 467.64 428.47 469.17 428.56 470.05 428.73 470.7 428.89 471.36 429.74 471.69 430.76 472.12 430.93 473.32 431.36 474.31 431.7 474.96 432.04 475.62 432.55 476.49 433.14 477.58 433.65 478.89 434.24 479.66 434.92 479.77 435.09 479.77 435.43 478.02 436.03 477.25 436.62 475.07 438.4 473.1 440.01 472.01 440.69 470.92 441.37 469.5 441.88 468.3 441.88 467.42 441.37 466.66 440.86 466.11 440.1 465.89 438.99 466 438.23 466.33 437.47 467.75 436.36 468.19 435.85 468.19 435.09 467.86 434.67 466.77 434.07 464.8 433.39 463.49 433.14 462.29 432.88 461.2 432.46 459.89 432.2 459.12 432.46 458.47 433.05 458.47 433.73 458.57 434.24 458.47 434.5 457.81 434.83 455.41 435.51 454.2 435.85 453.11 436.28 452.56 436.96 452.02 437.8 451.69 439.08 451.91 440.44 452.35 441.71 453.66 443.49 455.07 444.68 455.84 445.53 455.95 445.61 456.17 446.21 456.39 447.14 456.39 449.01 456.71 450.11 457.15 450.96 457.91 451.81 458.57 452.49 458.9 452.66 459.33 453.25 459.44 453.59 459.44 454.27 459.33 454.78 459.22 455.21 459.66 456.14 460.21 457.16 460.86 458.18 461.3 459.37 461.41 460.04 461.3 461.4 460.42 463.52 459.77 465.31 459.44 466.24 459.33 466.67 459.33 467.51 459.33 468.36 459.22 468.79 458.89 469.38 458.78 469.55 458.35 470.15 457.69 471 456.82 472.18 456.27 473.03 455.94 474.05 455.61 475.15 455.5 475.83 455.29 476.51 454.96 477.1 454.63 477.78 454.19 478.63 453.65 479.31 452.88 480.08 452.44 480.92 452.01 481.77 451.68 482.45 451.57 483.3 451.57 484.15 452.12 485 452.77 486.1 453.32 486.87 454.19 488.56 455.06 489.84 456.27 491.19 457.14 492.21 457.9 493.4 458.12 494.34 458.67 495.61 458.78 496.97 458.67 498.07 458.34 499 457.57 500.11 456.48 501.04 454.95 502.74 453.31 504.1 451.78 505.2 450.69 506.3 450.14 506.9 449.71 507.58 449.38 508.34 449.05 508.76 448.72 509.1 447.74 509.53 446.43 509.78 445.01 510.29 443.59 510.89 441.84 511.31 439.87 512.16 438.78 512.84 437.58 513.6 436.81 514.36 435.5 516.06 435.07 517.08 434.63 518.44 434.52 519.46 434.41 520.48 434.63 521.5 434.96 522.68 435.28 523.96 435.72 525.23 436.92 527.86 438.01 530.24 438.89 532.87 439.98 535.5 441.07 538.3 441.94 540.76 442.38 542.38 443.03 544.5 443.47 546.03 444.02 547.38 444.67 548.66 445.33 549.93 446.31 550.95 446.64 551.8 446.97 552.73 447.19 553.92 446.86 554.94 446.42 556.13 445.54 557.32 444.56 558.42 443.69 559.01 442.49 559.69 440.74 560.46 439.65 561.05 438.22 561.64 437.24 562.24 436.81 562.49 436.15 562.83 435.28 562.92 434.29 562.83 432.55 562.41 431.34 561.9 429.92 561.39 429.16 560.96 427.63 560.54 426.1 560.11 424.9 560.03 423.91 560.03 423.15 560.54 422.39 561.81 422.28 563.34 422.39 564.44 422.6 565.54 422.82 566.48 423.04 567.16 423.04 567.67 423.48 567.92 424.57 567.92 425.44 567.84 426.75 566.9 427.74 566.22 428.39 566.14 428.94 566.14 429.49 566.22 430.25 567.41 430.14 568.69 430.03 570.05 429.59 571.4 428.94 572.76 428.28 573.95 427.19 575.22 425.44 576.92 424.02 578.19 423.26 578.87 422.71 579.55 422.06 580.4 421.51 581.84 421.18 583.03 420.96 584.39 420.74 585.58 420.52 586.26 420.42 586.85 419.98 587.7 419.21 589.57 418.45 591.77 418.23 593.05 418.01 593.98 417.79 595.42 417.9 596.44 418.56 598.23 419.32 600.18 420.3 601.96 420.74 603.06 421.07 604.08 421.18 605.18 421.17 605.78 421.07 606.03 420.63 606.29 419.43 607.14 418.01 607.82 417.02 608.41 416.48 608.92 415.93 609.34 415.5 609.77 415.06 610.28 414.84 610.79 414.73 611.64 414.62 612.57 414.84 614.1 414.95 615.11 415.17 616.05 415.06 616.81 415.06 618.09 414.73 618.68 414.29 619.27 413.74 619.7 412.98 620.12 412.21 620.46 410.91 620.89 409.81 621.06 408.61 621.48 407.19 621.99 406.43 622.58 405.01 623.77 404.24 624.87 403.37 626.4 403.15 627.93 402.93 629.03 403.48 630.05 404.57 631.5 405.11 632.26 405.77 633.2 406.21 633.87 406.42 634.55 406.53 635.06 406.53 635.83 406.21 637.27 405.66 638.8 405.22 640.15 404.89 641.77 404.56 642.87 404.89 643.55 405.44 644.31 406.42 644.82 408.39 645.16 410.46 645.42 411.77 645.59 412.32 645.84 412.97 646.18 413.74 646.86 414.28 647.79 414.72 649.24 415.49 651.36 416.69 654.5 417.45 657.64 417.89 659.93 417.89 661.46 417.78 662.31 417.56 663.07 417.12 663.58 416.36 664.09 415.04 664.86 413.74 665.62 412.21 666.21 410.89 666.81 410.13 667.4 408.6 668.42 407.29 669.18 406.09 669.95 403.79 670.62 401.94 671.13 400.41 671.47 399.1 671.64 397.13 672.15 396.04 672.41 394.73 673 393.85 673.6 392.11 674.61 390.8 675.55 389.49 676.57 388.06 677.84 387.19 679.03 386.65 680.22 385.66 681.74 385.22 683.19 385.12 684.46 385.55 685.99 385.77 687.01 386.43 688.36 386.75 689.38 386.97 690.32 387.19 691.25 387.08 692.27 386.75 694.13 386.42 696.77 385.98 699.91 385.33 702.45 384.46 704.66 383.8 705.85 383.47 706.44 383.14 706.95 382.6 707.46 381.18 708.14 380.09 708.57 379.32 708.9 378.56 709.07 378.23 709.5 377.9 710.01 377.79 710.69 377.68 711.11 378.01 711.96 378.34 712.98 378.66 713.49 379.32 714.51 379.76 715.27 380.08 715.86 380.19 716.12 380.63 716.8 381.29 717.99 382.49 719.85 383.25 721.04 384.23 722.49 385.65 724.44 386.63 725.97 387.29 726.98 387.73 728.26 388.16 730.04 388.38 731.14 388.49 732.16 388.82 733.1 391 734.79 392.53 735.64 394.06 736.41 395.04 736.66 395.81 736.83 396.02 736.32 395.7 735.39 395.15 734.46 394.17 733.86 393.51 733.18 392.75 732.5 392.2 731.91 391.77 730.89 391.66 729.62 391.88 728.51 392.64 727.07 392.97 725.88 393.19 724.18 393.19 722.66 393.08 721.72 392.97 720.87 392.64 720.28 391.88 719.77 391.22 719.35 390.68 718.75 390.13 717.56 389.59 716.37 389.59 715.7 389.48 715.19 389.26 714.51 389.15 714.17 388.49 713.74 387.18 712.98 386.53 712.47 385.98 712.04 385.66 711.62 385.66 711.11 386.2 710.6 387.08 710.35 388.39 710.01 389.81 710.09 391.12 710.09 391.66 710.09 392.21 709.92 392.75 709.59 393.41 709.41 394.5 709.42 397.56 709.84 397.78 709.42 397.67 708.82 396.91 708.06 395.7 707.63 394.28 707.29 392.76 706.87 391.55 706.61 391.01 706.44 390.79 706.19 390.57 705.68 390.68 705.09 390.9 704.15 391.55 703.3 391.99 702.54 392.32 701.95 392.76 701.44 393.08 700.93 393.52 700.42 394.07 699.57 394.39 698.47 394.5 697.87 395.05 697.19 395.49 696.77 396.25 696.6 397.02 696.6 397.89 696.85 398.44 696.94 399.2 697.45 399.97 698.04 400.51 698.72 400.95 699.06 401.38 699.32 401.71 699.57 402.26 699.74 402.91 699.66 404.33 699.15 405.54 698.38 407.17 697.03 409.14 695.41 410.12 694.9 411.33 694.73 413.07 694.9 414.71 695.75 415.69 697.03 416.24 698.55 416.13 699.57 415.8 700.08 414.71 700.42 413.73 700.59 412.53 700.85 411.87 701.27 411.54 702.37 411.43 702.97 411.43 703.48 411.21 704.07 410.78 705 410.01 706.02 409.46 706.96 409.46 707.97 409.57 709.08 410.12 710.27 410.88 711.54 411.43 712.81 411.76 714.34 411.87 715.53 411.43 716.89 411.21 718.16 411.43 720.28 411.75 721.72 411.86 722.4 411.1 723.25 410.01 723.93 409.35 724.61 409.13 725.88 409.03 726.99 409.57 728.69 410.55 730.3 411.43 731.57 413.28 732.85 414.48 733.78 415.25 734.8 415.47 735.9 415.36 736.92 414.92 737.94 414.48 738.87 414.81 740.14 414.92 741.08 415.47 741.93 416.78 742.78 417.54 743.37 418.09 744.64 418.3 745.66 418.63 746.51 419.18 747.28 420.6 748.04 423 749.4 424.75 750.59 425.95 751.43 426.6 751.78 427.37 751.69 427.8 751.44 429.23 750.25 429.99 749.4 431.3 749.06 432.06 748.97 433.38 748.98 434.58 749.23 435.12 749.65 435.56 750.25 435.89 750.76 436.21 751.18 436.54 751.44 437.52 751.44 438.18 751.44 439.27 751.44 440.47 751.86 441.46 752.37 442.11 753.05 442.55 753.65 442.44 754.41 442.22 755.17 441.02 755.85 439.71 756.36 438.61 756.96 438.5 757.8 438.4 758.91 439.16 760.6 439.92 762.47 440.69 763.92 440.8 764.59 440.69 764.93 440.03 765.27 439.27 765.02 438.4 765.1 437.63 765.44 436.65 765.87 435.66 766.21 434.57 766.29 433.81 766.21 432.93 766.04 431.95 766.04 430.75 766.38 429.55 767.05 428.68 767.56 427.47 768.07 426.38 768.16 425.29 768.07 423.32 767.99 422.34 767.48 421.25 767.22 420.26 767.56 419.83 768.75 419.83 770.36 420.26 771.98 421.14 773.33 421.79 774.01 422.67 774.35 423.54 774.35 424.52 773.59 425.4 772.74 427.03 772.57 428.67 773.25 430.64 774.35 431.62 775.54 431.84 776.48 431.62 777.07 430.86 777.24 429.44 777.16 428.23 777.24 427.47 777.33 427.14 777.83 427.14 778.26 427.47 778.77 429.54 779.62 431.51 779.87 432.49 779.96 432.93 779.79 433.91 779.36 434.24 778.51 434.68 777.84 435.44 776.82 436.53 776.65 437.52 776.9 437.96 777.84 437.84 778.77 437.08 779.79 436.43 780.38 436.53 780.89 437.19 780.98 438.39 781.15 439.15 781.4 439.81 782.08 440.46 783.01 440.9 783.61 440.57 784.12 440.14 784.2 439.59 784.03 438.83 783.52 437.95 783.44 437.41 783.86 437.3 784.54 437.52 785.73 438.17 786.92 438.71 787.6 440.14 788.28 441.12 788.53 441.77 789.12 442.32 789.89 441.99 790.57 440.46 790.74 438.71 790.57 437.08 790.14 436.09 790.06 434.57 789.63 432.71 789.29 431.07 789.38 429.21 789.63 427.79 789.72 425.72 789.46 423.86 789.21 422.88 789.12 421.9 789.04 421.13 789.38 420.81 789.97 420.26 791.75 419.71 793.53 419.39 794.22 419.17 794.47 418.73 794.47 418.51 793.36 418.18 792.18 417.97 791.07 417.75 790.4 417.53 790.14 416.33 789.8 414.47 789.21 413.05 788.36 411.74 787.42 410.54 785.81 409.78 784.71 409.01 783.69 407.92 782.58 406.83 781.74 405.3 780.97 404.64 780.29 404.43 780.04 403.99 779.36 403.34 777.24 402.57 775.71 401.92 774.86 401.26 774.43 399.73 774.18 397.87 774.35 396.78 774.43 395.58 774.86 394.71 775.45 394.82 776.3 395.47 777.41 398.86 781.4 399.29 781.99 399.4 782.84 399.73 784.28 399.62 785.89 399.95 786.32 400.39 786.83 401.04 787.34 402.68 785.72 403.66 784.45 404.43 783.86 405.3 784.03 406.72 784.88 407.59 786.74 409.23 788.61 412.29 791.07 413.6 792.43 414.91 794.13 416 796.25 415.89 798.54 415.34 799.73 414.69 800.41 413.71 800.75 412.72 800.75 412.17 800.58 411.74 799.99 412.39 798.63 413.05 797.18 413.16 795.74 412.83 795.23 411.96 794.64 410.97 794.81 410.65 795.74 410.32 797.18 410.21 797.69 409.66 797.52 408.14 796.67 406.93 795.74 405.19 794.64 403.33 794.04 402.13 793.96 400.06 794.04 399.51 794.04 398.74 794.04 397.98 794.04 397.33 793.87 397 793.62 397 793.28 396.78 792.51 396.45 791.5 395.58 790.05 394.71 789.12 393.61 788.1 390.34 786.49 386.95 784.62 384.88 783.68 383.57 783.51 382.37 783.01 382.15 782.92 382.15 782.67 382.37 781.82 382.91 781.56 383.46 781.14 383.68 780.8 383.35 780.37 382.59 780.2 381.71 780.29 380.18 781.22 379.42 782.33 379.2 783.68 379.42 784.62 380.62 785.64 383.24 786.49 385.2 787.5 387.39 788.61 389.46 790.82 390.88 792.43 393.28 794.38 394.49 795.74 395.91 797.44 396.78 798.28 397.32 798.37 399.07 798.37 401.04 798.28 402.02 798.2 402.78 798.54 403.33 798.88 403.88 799.39 404.53 800.24 405.84 801.17 407.15 802.28 408.03 804.15 408.79 805.76 409.99 807.45 410.64 808.39 411.3 808.9 412.17 808.81 413.05 808.98 413.37 810 412.94 810.68 411.95 811.45 411.3 811.53 410.21 810.51 408.68 809.24 406.93 808.13 405.62 807.37 403.98 806.94 402.89 807.03 402.02 807.45 401.91 808.39 402.13 809.32 403.44 810.68 406.28 813.06 409.66 815.94 412.17 818.49 414.03 820.44 416.21 822.65 417.63 824.35 418.28 826.05 417.96 827.32 417.3 827.83 415.77 827.74 413.59 827.15 410.97 825.87 408.35 824.26 405.62 822.65 402.67 821.29 398.52 820.36 392.51 818.83 386.73 817.47 381.05 815.85 378.54 814.92 377.45 814.33 376.46 813.48 376.03 812.2 375.81 811.69 375.15 811.36 368.93 809.06 364.12 806.94 363.25 806.43 362.92 805.84 363.47 805.84 363.9 805.58 364.02 805.16 363.25 804.48 360.74 803.12 360.19 802.61 359.76 801.51 359.21 799.22 358.56 796.58 358.67 795.06 358.88 793.61 359.21 792.34 359.54 791.66 359.54 791.24 359.43 790.64 358.67 790.56 357.68 790.9 356.7 791.66 355.83 792.59 355.17 793.87 354.95 795.48 354.95 797.69 355.28 799.81 355.71 801.85 356.59 803.37 357.79 804.9 359.1 806.6 360.41 807.87 361.18 808.72 362.38 809.4 363.69 809.83 365.22 810.51 367.07 811.35 369.15 812.37 371.33 813.22 374.82 814.84 377.66 815.77 380.39 817.04 385.09 818.91 391.53 821.88 396.33 824.18 399.61 825.53 402.34 827.06 407.58 828.93 411.84 830.63 413.81 831.73 415.34 832.75 420.47 835.81 425.6 838.1 431.39 840.9 435.21 842.94 440.67 845.99 446.02 849.14 451.15 851.94 458.03 855.93 463.6 859.07 464.47 859.58 469.06 862.21 474.41 866.2 480.19 869.85 482.16 871.89 486.52 875.37 492.97 879.62 497.66 882.68 502.57 886.58 508.58 890.74 514.25 895.24 520.26 899.91 530.3 907.3 539.58 915.45 551.7 925.13 561.96 934.55 568.4 940.83 576.81 948.47 583.68 955.44 591.32 963.25 598.53 970.38 605.95 978.02 612.93 985.49 619.37 992.11 627.12 1000.94 631.59 1006.04 635.74 1011.3 639.56 1015.97 645.57 1023.61 651.67 1031 658.77 1039.57 665.53 1047.47 672.08 1056.13 676.77 1062.67 682.44 1071.16 688.99 1080.15 693.25 1085.84 697.94 1092.97 699.36 1095.18 701.43 1098.32 703.72 1102.65 705.9 1106.39 708.74 1111.23 711.68 1116.15 716.05 1124.05 719.21 1129.4 721.17 1132.79 722.92 1135.68 724.66 1138.31 726.41 1141.28 728.26 1144.51 730.88 1149.26 732.95 1153.34 734.92 1157.07 736.55 1160.72 738.41 1164.46 740.15 1167.94 742.44 1172.35 744.84 1177.02 748.22 1183.99 750.73 1188.91 752.47 1193.07 754.43 1197.57 756.07 1200.88 757.16 1203.94 758.47 1206.65 759.99 1210.81 761.52 1214.55 763.16 1217.94 764.46 1221.08 765.77 1224.48 767.19 1227.71 768.5 1231.44 769.37 1234.33 770.46 1236.53 771.44 1239.34 772.2 1241.2 772.65 1242.85 776.46 1252.11 779.4 1264.16 781.04 1269 782.13 1271.97 783.55 1276.98 785.18 1282.41 785.29 1283.09 785.84 1284.53 788.67 1297.27 789.65 1300.75 790.52 1304.99 794.77 1323.67 795.42 1328.84 796.61 1338.78 797.37 1344.89 798.13 1352.61 798.57 1355.33 799 1367.38 798.78 1376.46 798.66 1387.16 798.66 1389.62 797.78 1396.75 797.46 1399.3 797.24 1402.78 797.13 1402.95 796.69 1406.43 796.14 1409.74 795.59 1413.98 794.94 1415.43 793.51 1421.28 792.86 1422.98 792.64 1423.4 792.09 1425.52 790.56 1429.85 789.58 1431.72 789.25 1432.65 788.05 1434.18 786.96 1436.39 786.2 1437.83 785.87 1438.42 784.56 1440.21 780.3 1444.96 779.86 1445.47 779.42 1445.72 776.58 1448.35 776.26 1448.78 775.6 1449.2 775.17 1449.54 772.22 1451.41 772 1451.49 771.13 1452.34 770.8 1452.51 770.36 1452.77 769.38 1453.11 768.4 1453.11 766.43 1453.36 761.52 1453.53 755.74 1453.1 751.81 1453.52 745.26 1453.86 740.46 1454.62 736.09 1455.64 735.43 1455.81 734.78 1455.9 732.7 1456.66 730.74 1457.42 719.72 1458.78 713.6 1459.96 706.95 1460.81 704.22 1461.49 701.82 1462.17 698.21 1464.12 694.17 1467.26 693.08 1468.11 692.86 1468.28 692.75 1468.45 691.44 1470.15 689.91 1472.1 685.11 1480.41 681.29 1485.42 676.26 1490.6 673.1 1492.72 668.73 1494.59 663.71 1495.94 655.74 1497.72 651.92 1498.32 648.98 1499.08 647.12 1499.51 644.17 1500.86 637.52 1503.49 633.7 1504.76 630.09 1506.38 626.38 1507.39 625.4 1507.56 623.65 1508.41 616.56 1511.81 615.68 1512.32 612.84 1514.26 610.88 1515.79 610.12 1516.47 603.79 1521.4 600.84 1523.43 598.87 1524.36 598 1524.79 593.96 1526.32 579.55 1530.81 577.48 1531.32 574.53 1531.83 573.66 1531.83 573.22 1531.91 570.71 1532 563.29 1531.83 560.56 1531.49 555.22 1530.98 554.12 1530.81 553.69 1530.81 551.4 1530.3 550.96 1530.04 550.85 1529.45 550.8 1529.3 550.31 1528.01 549.76 1526.82 549.43 1526.22 549.22 1525.97 549.11 1525.8 548.67 1525.46 548.45 1525.46 547.58 1525.38 546.38 1525.37 539.83 1525.97 536.99 1526.05 535.36 1525.88 532.3 1525.71 531.21 1525.46 528.59 1524.78 527.5 1524.35 523.24 1522.65 522.15 1522.23 521.06 1521.55 519.1 1520.7 516.48 1520.02 512.55 1519 511.68 1518.83 508.51 1518.58 496.61 1518.83 495.09 1518.83 491.81 1518.75 480.79 1518.57 480.46 1518.57 477.95 1518.32 465.18 1516.45 460.38 1515.85 452.09 1514.84 443.79 1513.39 438.34 1512.88 436.92 1512.63 435.61 1512.37 428.41 1511.27 423.17 1509.99 418.91 1508.72 409.42 1505.58 407.56 1504.98 398.83 1502.27 385.52 1498.45 380.71 1497.51 373.4 1496.07 365.22 1494.71 361.29 1493.95 360.96 1493.78 359.87 1493.61 355.61 1492.67 353.54 1492.25 347.97 1491.48 344.15 1491.14 318.73 1490.97 315.45 1491.48 312.72 1492.08 309.67 1492.41 304.97 1492.67 297.33 1492.58 287.84 1491.65 270.7 1489.61 259.46 1488 257.83 1487.75 257.39 1487.66 256.73 1487.58 249.21 1486.05 245.17 1485.11 243.42 1484.69 239.82 1484.18 232.94 1483.08 230.54 1482.57 226.07 1481.72 223.89 1481.21 221.05 1480.53 218.21 1479.77 212.21 1478.32 205.22 1476.2 204.79 1475.95 196.71 1473.15 191.58 1471.02 191.36 1470.85 188.3 1469.75 184.27 1467.54 183.94 1467.37 183.61 1467.2 183.07 1466.78 181.87 1465.85 180.01 1463.98 179.9 1463.73 179.14 1462.45 176.73 1454.64 176.19 1453.37 175.32 1452.18 174.12 1449.8 173.9 1449.04 173.79 1448.79 172.48 1446.75 171.6 1444.2 171.6 1443.95 171.5 1443.01 171.06 1435.97 171.6 1433.76 172.8 1432.15 173.79 1430.71 174.11 1429.86 174.01 1428.33 173.24 1427.31 169.42 1424.42 169.2 1424.26 168.44 1423.92 164.62 1423.58 164.4 1423.41 163.85 1422.39 163.31 1421.71 163.53 1421.11 165.49 1416.11 166.25 1413.98 167.13 1412.29 168.33 1410.42 169.53 1409.23 170.07 1408.89 172.15 1408.3 173.02 1408.21 173.89 1407.7 173.9 1403.55 173.02 1400.74 172.8 1400.32 172.58 1400.23 168.55 1399.05 168.11 1398.87 167.89 1398.71 167.78 1398.54 167.35 1398.2 167.24 1397.86 167.23 1396.33 168.22 1391.91 168.44 1391.66 168.66 1391.07 169.31 1390.39 171.17 1388.69 171.27 1388.52 171.82 1386.82 171.82 1383.68 171.93 1383.51 172.04 1383 174.11 1379.78 174.66 1379.27 175.53 1377.83 175.86 1376.97 175.75 1375.62 175.64 1375.02 174.66 1374.17 173.89 1373.16 172.58 1370.02 172.25 1369.93 170.95 1369.68 170.4 1369.51 169.42 1368.06 168.87 1366.71 168.76 1366.28 168.76 1365.09 169.64 1361.19 170.18 1358.81 170.18 1358.3 169.96 1356.95 169.85 1356.27 170.07 1356.01 170.18 1355.84 170.62 1355.5 171.49 1354.4 172.8 1352.28 174.33 1350.75 175.2 1348.12 180.99 1344.38 181.2 1344.3 181.75 1343.96 182.84 1342.77 182.84 1341.84 182.51 1341.16 180.77 1340.14 179.13 1339.12 177.71 1338.01 176.84 1336.83 176.84 1336.4 177.06 1335.72 180 1335.21 180.66 1335.21 184.7 1335.21 186.11 1335.21 197.03 1334.62 197.47 1334.87 197.58 1335.21 197.68 1341.58 197.69 1342.68 198.23 1348.28 198.12 1348.45 198.23 1348.71 198.12 1348.88 197.79 1351.17 196.81 1356.35 197.25 1357.11 197.9 1357.45 199.54 1357.2 200.52 1355.92 200.96 1354.48 200.2 1345.57 200.2 1343.87 200.09 1342.68 200.09 1341.5 200.2 1340.56 200.3 1338.86 200.96 1335.21 200.96 1334.87 201.18 1334.45 202.82 1333.69 203.47 1333.26 203.47 1332.41 203.25 1332.16 201.07 1331.73 185.24 1332.33 172.25 1332.5 172.47 1331.56 173.23 1329.78 173.78 1328.25 174.22 1326.64 174.33 1323.59 174.11 1321.29 173.23 1317.31 173.34 1314.84 174 1313.23 177.05 1310.01 177.6 1308.48 177.49 1306.78 177.16 1305.76 176.4 1304.66 175.2 1303.64 174.43 1303.3 173.12 1302.45 172.58 1302.11 172.58 1301.94 172.47 1301.26 172.58 1301.09 173.67 1300.67 179.13 1298.37 179.45 1298.29 180.66 1297.02 180.87 1295.15 180.98 1294.56 180.66 1293.28 180.11 1290.06 178.25 1287.77 178.25 1287.34 178.25 1287.09 178.91 1286.83 184.69 1287 186 1286.75 188.73 1285.81 190.26 1285.81 191.79 1286.32 192.55 1286.83 193.97 1288.61 194.74 1289.38 195.72 1289.29 196.59 1288.87 196.81 1288.44 196.81 1286.83 195.83 1285.05 194.95 1281.82 194.74 1281.57 191.24 1281.65 186.98 1282.84 184.37 1283.01 183.71 1283.1 182.51 1283.01 178.47 1282.16 177.71 1281.99 175.3 1281.15 172.58 1280.13 167.45 1277.83 166.46 1277.66 164.39 1277.24 158.38 1276.73 155.66 1276.05 155.33 1275.63 155.11 1275.37 153.8 1274.02 151.51 1267.65 150.31 1266.89 148.34 1266.38 139.5 1266.55 137.53 1266.55 137.32 1266.63 134.92 1269.26 131.86 1274.1 131.09 1274.95 130.77 1275.29 129.68 1276.31 127.71 1276.73 126.51 1276.82 124.87 1276.39 120.4 1273.85 119.2 1272.91 117.78 1272.24 117.67 1272.07 114.39 1270.45 113.52 1269.77 109.15 1248.3 107.95 1241.77 107.94 1241.26 106.85 1236.68 104.12 1225.05 102.27 1215.54 99.43 1201.11 98.55 1196.7 97.9 1194.07 94.73 1180.06 91.68 1166.06 89.05 1153.41 86.32 1141.02 85.01 1133.8 82.28 1120.91 82.28 1120.39 82.5 1120.05 82.72 1119.72 83.26 1119.38 84.03 1119.21 85.67 1118.95 87.3 1118.7 88.07 1118.53 88.51 1118.02 89.38 1117.25 89.71 1116.4 90.14 1115.3 91.01 1114.2 92.65 1113.35 93.85 1113.01 95.27 1112.84 96.91 1112.84 99.75 1112.07 101.39 1111.65 102.26 1111.06 103.9 1109.27 104.23 1107.92 104.23 1106.98 103.9 1105.62 103.9 1104.69 104.23 1103.93 104.33 1102.48 104.12 1101.29 103.24 1100.36 101.5 1098.41 99.64 1097.31 98.66 1096.46 98.22 1095.69 98.33 1094.5 98.77 1092.98 99.53 1091.02 99.42 1090.09 99.2 1089.24 98.55 1088.14 98.11 1086.87 98.22 1086.1 98.44 1085.25 99.97 1083.56 102.59 1080.07 103.9 1078.46 104.44 1077.27 104.66 1076.51 104.55 1075.58 104.33 1074.81 103.57 1073.54 102.81 1072.35 101.61 1071.33 100.4 1070.74 98.98 1070.06 97.67 1069.38 96.26 1068.45 95.49 1067.51 94.62 1066.24 93.85 1065.05 93.42 1063.61 93.42 1061.99 93.74 1060.98 93.96 1060.13 93.74 1059.2 92.87 1057.41 92.11 1055.97 91.56 1054.61 91.12 1053 91.12 1051.89 91.56 1050.54 92.43 1049.35 92.87 1048.33 92.21 1047.14 91.45 1046.38 90.03 1045.44 88.28 1044.25 86.75 1043.32 86.21 1042.73 85.23 1041.96 84.79 1041.2 84.68 1040.44 84.79 1039.76 85.12 1038.91 85.99 1037.38 87.19 1035.85 87.74 1033.99 87.63 1032.97 87.74 1031.27 87.3 1028.89 85.88 1025.07 85.22 1022.61 84.79 1020.49 84.24 1019.13 84.02 1018.2 83.15 1017.35 82.38 1016.16 81.51 1015.14 80.31 1013.7 78.78 1012.09 77.8 1010.73 77.03 1009.46 76.27 1008.1 75.51 1006.65 74.74 1004.79 74.41 1003.68 73.32 1001.9 72.67 1000.88 71.46 999.61 70.37 998.51 69.61 997.74 69.06 997.06 68.62 996.3 67.53 995.11 66.88 994.35 64.37 992.48 63.6 991.97 63.17 991.55 62.18 990.53 60.65 988.15 59.78 986.71 58.69 985.6 58.14 985.1 57.49 984.42 55.85 983.14 54.65 981.87 53.45 980.85 53.45 980.26 52.03 973.47 50.94 967.7 47.99 954.12 44.05 937.14 43.51 934.08 43.29 933.49 39.24 913.88 35.31 895.21 35.2 894.7 33.56 887.4 33.78 886.55 34.22 886.38 34.77 886.21 35.53 886.3 36.18 886.04 36.62 885.45 37.6 884.52 38.59 883.92 39.68 883.41 41.1 883.24 42.3 883.32 44.05 883.58 46.12 883.75 47.98 884 49.62 884.17 50.82 884.17 51.14 884.26 52.78 884 54.42 883.41 55.84 882.65 57.26 881.8 58.9 880.27 60.53 878.65 61.95 876.79 62.83 875.52 63.59 874.5 64.14 873.14 64.14 872.12 64.14 869.06 63.7 866.18 63.05 864.9 62.39 863.63 61.95 862.78 62.28 862.27 62.61 861.09 63.59 859.56 63.92 858.96 64.79 857.35 65.12 856.08 64.68 855.23 64.14 854.04 62.83 852.26 60.75 849.97 59.11 847.93 59 847.08 58.89 845.98 58.89 845.21 58.78 844.45 58.46 843.77 57.15 842.67 55.29 841.9 53.65 841.22 52.12 840.29 50.49 838.59 49.83 837.15 49.61 836.3 49.72 835.2 49.72 833.5 49.83 830.87 49.61 829.09 48.95 827.22 48.52 825.27 47.53 823.23 46.55 822.47 45.02 822.13 44.37 822.3 43.49 822.81 42.95 822.72 42.07 822.46 41.09 821.7 39.89 821.11 38.58 820.77 37.71 820.6 36.94 820.17 35.52 820.34 34.98 820.77 33.99 821.79 32.47 823.23 30.94 823.82 29.95 823.99 28.21 823.32 27 823.15 25.26 824.76 23.51 826.54 21.87 827.73 21.33 827.48 20.23 821.36 20.34 821.11 21.33 820.77 21.98 820.09 22.64 819.41 22.85 818.31 22.96 817.37 22.42 816.36 21.33 815.42 19.36 814.15 18.37 813.39 17.61 810.08 15.2 797.43 12.91 786.48 11.27 779.52 8.65 767.13 6.03 754.14 5.81 752.1 3.84 743.19 1 728.68 2.2 728.76 3.73 729.44 5.26 730.29 7.01 730.54 8.32 730.46 9.95 729.7 10.83 728.93 12.58 726.72 13.45 725.54 13.89 725.03 14.54 724.6 15.85 724.43 18.04 723.84 21.42 722.99 23.71 722.4 26.01 721.97 28.19 721.63 30.05 721.21 31.25 720.78 32.78 720.27 33.54 719.34 34.31 718.49 34.63 717.55 34.53 716.87 33.87 715.86 32.89 715.6 31.69 715.43 29.07 715.69 26.66 715.77 25.13 715.18 24.59 714.41 24.26 713.56 24.91 711.78 24.91 710.85 24.81 710.43 24.26 710 23.49 709.41 23.17 708.81 23.82 708.39 24.69 708.56 26.44 709.41 29.72 711.1 31.47 711.7 32.67 711.61 33.65 710.85 33.98 709.58 33.65 708.73 33 707.2 33 706.61 33.43 706.52 34.09 706.52 34.85 706.44 36.82 706.18 39 705.76 39.77 705.5 41.41 704.4 42.93 703.13 43.7 702.79 44.57 702.95 44.79 703.46 44.68 704.23 44.14 705.92 44.14 706.94 44.68 707.62 45.23 708.22 46.43 708.9 48.07 709.15 49.16 709.07 50.8 708.39 Z M 339.39 439.23 336.11 441.19 333.16 443.31 330.54 445.77 328.13 449.51 326.82 451.62 324.75 452.05 321.47 452.39 317.65 453.49 315.46 455.78 314.26 457.65 312.84 460.37 311.96 462.15 312.29 463.17 313.38 464.27 314.48 464.36 315.9 462.57 316.99 461.81 318.08 461.9 318.96 463 319.61 463.51 320.16 463.76 321.69 463.51 323.32 464.1 324.09 465.63 324.85 467.58 326.16 469.37 326.27 469.54 327.47 470.89 327.47 471.66 326.82 474.12 325.62 479.04 324.96 481.42 325.29 482.35 326.6 483.29 327.8 482.78 329.66 481.08 330.53 480.48 330.97 480.31 331.84 482.27 332.93 484.22 334.9 486.6 338.18 488.46 341.45 490.67 343.31 491.69 345.06 491.1 345.72 490.42 345.28 488.46 344.73 486.34 344.73 485.41 345.28 484.65 346.04 484.65 346.81 485.49 347.68 485.92 348.99 485.75 350.74 485.83 352.49 487.02 354.35 488.89 355.88 490.67 356.97 491.61 358.93 492.63 361.66 492.37 363.41 491.61 365.6 490.16 366.25 488.13 366.47 486.43 367.13 484.9 369.1 483.54 370.95 482.53 371.94 481.85 371.39 480.49 370.95 479.73 371.39 477.86 371.72 476.33 371.06 475.91 368.99 476.24 367.35 477.01 366.37 477.52 364.29 477.26 362.98 477.52 362.43 478.37 362.65 480.91 362.65 482.78 361.99 484.14 360.9 484.39 360.14 484.31 357.95 482.61 357.08 481.76 355.77 481.08 354.89 480.49 354.78 479.81 355.77 477.94 355.99 477.18 354.56 476.07 347.47 474.21 343.86 472.85 342.33 471.66 341.68 469.96 341.79 469.54 341.89 469.2 341.57 468.52 339.6 467.5 337.63 466.65 336.87 465.55 338.07 464.44 340.8 463.77 343.43 463.26 345.5 462.83 347.25 462.24 349 460.79 349.54 459.78 349.54 459.1 348.34 458.93 346.48 458.93 345.06 459.18 343.43 458.67 341.24 457.82 339.82 457.82 338.73 458.93 338.51 460.37 338.07 461.13 337.31 461.47 335.78 461.64 334.91 461.47 334.14 461.64 333.48 462.24 332.83 463 332.39 463.34 331.85 463.34 331.19 463.25 330.32 461.05 329.33 457.23 329.66 456.04 330.65 455.36 332.39 454.51 334.69 453.92 335.56 453.41 337.31 450.69 337.96 450.02 339.06 449.51 340.26 451.12 340.91 452.65 342.23 453.16 343.43 452.48 343.86 450.27 343.54 447.81 344.85 445.52 346.49 443.9 348.89 442.8 351.08 442.46 352.72 443.22 353.37 444.75 353.04 447.13 352.5 449.51 352.38 450.78 351.73 451.46 349.98 452.14 348.01 452.56 347.03 453.58 346.92 454.6 347.79 454.94 350.75 454.94 353.7 454.52 356.32 453.41 357.85 452.14 358.5 450.02 358.83 447.38 357.74 444.75 356.43 442.97 355.12 441.44 354.35 440 354.35 438.3 354.9 437.11 356.65 436.01 357.2 435.25 357.2 434.48 356.1 434.14 352.39 434.74 348.67 435.5 344.96 436.69 341.68 438.05 339.39 439.23 Z M 380.04 366.83 381.13 369.13 381.79 370.91 381.46 372.18 379.93 373.12 377.85 373.54 375.88 374.81 374.79 375.32 372.5 375.15 370.42 373.71 369.11 371.67 368.79 370.65 368.13 369.97 366.82 369.8 365.84 370.4 364.96 372.35 364.52 375.41 364.52 377.36 365.07 378.63 366.05 379.82 368.78 380.33 371.19 380.75 372.83 381.52 374.03 383.05 374.9 385 376.54 386.7 377.96 387.21 379.71 387.04 381.24 386.19 382.44 383.9 384.41 379.14 386.48 374.9 388.23 372.69 390.63 370.91 393.91 369.47 397.08 368.28 398.39 367.77 399.05 367.09 398.83 366.07 398.28 365.14 398.07 364.54 398.5 363.02 399.27 362 400.36 361.49 402.87 361.15 404.29 360.3 405.61 358.43 406.04 355.55 406.48 354.62 407.68 352.83 409.32 349.95 410.41 347.32 410.85 345.7 410.96 344.43 410.53 343.66 409.54 342.9 407.58 341.97 406.15 340.61 405.28 339.17 404.84 337.47 404.63 334.92 404.63 332.8 404.19 331.19 402.44 328.73 401.57 326.86 400.7 324.48 400.48 322.87 400.7 321.34 400.81 320.41 400.26 319.22 399.71 317.86 399.5 316.16 399.28 314.55 398.18 313.62 396.44 312.6 394.47 312.26 392.07 312 389.12 312.43 386.93 312.77 385.29 313.11 383.54 312.6 381.8 312 379.94 311.49 378.41 311.83 377.54 312.51 377.53 313.19 378.63 313.79 382.78 315.4 386.17 316.25 387.69 315.99 389.99 315.57 391.96 315.31 393.38 315.74 393.59 316.84 392.06 318.88 391.19 321.25 390.75 323.46 390.75 325.07 389.77 326.94 389.77 328.38 390.53 329.83 392.06 331.44 393.48 333.05 394.79 335.34 395.23 337.38 395.34 338.4 395.23 339.76 394.36 340.44 393.81 340.61 393.48 340.27 392.28 339.16 391.52 338.57 388.89 337.81 385.62 337.21 383.65 337.13 382.34 337.21 382.12 338.06 382.99 339.16 388.02 342.48 388.67 343.07 387.91 343.83 385.83 344.43 383.76 344.85 382.01 344.85 381.24 345.44 381.46 346.21 382.77 346.89 385.07 347.23 387.47 347.31 389.55 346.72 390.64 346.3 391.73 347.31 392.39 348.33 393.26 348.93 394.79 349.44 396.32 350.88 397.19 353 396.21 356.57 393.81 359.37 391.29 361.32 388.78 362.76 386.81 364.04 385.83 364.2 384.85 364.12 384.41 363.44 384.19 362.42 384.96 360.64 386.92 357.84 388.02 355.89 388.12 354.44 387.8 353.26 385.62 351.05 383.1 350.03 382.23 350.11 381.35 351.05 381.02 353.42 380.59 355.97 379.5 358.43 378.51 360.64 378.29 362.93 378.84 364.8 379.49 366.16 379.82 366.5 380.04 366.83 Z M 304.65 387.71 303.01 391.36 300.72 396.79 297.22 401.54 296.35 402.9 296.57 403.75 297.66 404.6 298.32 405.19 297.88 405.62 295.58 405.53 293.51 404.85 292.63 404.6 290.12 404.6 288.81 404.43 288.04 404 288.37 402.65 289.57 400.36 290.99 399.68 292.31 398.66 292.2 398.06 289.36 397.22 288.05 397.55 286.51 398.32 285.75 398.49 284.55 398.4 283.13 398.66 282.26 399.59 282.04 401.71 282.14 403.24 281.71 404 279.3 405.62 277.78 407.57 275.26 411.56 274.72 413.26 274.28 414.11 274.5 414.7 275.7 415.12 279.74 414.7 282.69 414.28 285.75 413.26 287.5 412.75 289.03 413.17 290.78 414.02 291.1 414.87 290.78 416.06 291.1 416.99 291.21 417.5 295.15 419.71 298.09 422.42 300.06 424.21 301.04 424.63 301.81 424.21 306.18 420.05 308.25 417.93 311.21 414.87 313.17 412.5 314.81 409.52 315.25 408.34 314.48 406.64 314.38 404.6 314.26 403.58 313.17 402.82 311.32 402.57 309.68 402.48 309.13 401.55 309.13 399.25 309.9 397.05 311.1 395.35 313.5 393.06 316.34 390.68 318.09 389.15 320.06 386.86 321.48 384.82 322.46 382.79 323.01 381.26 322.68 378.29 321.37 374.64 321.15 373.19 321.37 371.24 322.02 369.21 322.35 368.27 323.12 367.68 325.19 366.41 327.6 365.64 328.47 364.88 328.8 363.77 328.14 362.93 323.88 361.31 322.14 361.57 319.84 362.25 318.64 363.94 316.56 367.42 315.58 369.29 314.6 370.39 313.28 371.24 312.85 372.26 311.54 376.08 309.13 380.49 308.26 381.85 305.96 385.5 304.98 387.11 304.65 387.71 Z M 404.81 489.91 405.91 489.07 407.44 487.88 408.64 487.11 409.08 486.69 409.4 486.52 410.17 486.35 411.26 486.09 412.68 485.84 413.23 485.42 413.66 484.99 413.77 484.4 413.77 484.06 413.45 483.64 412.9 483.21 411.59 482.87 410.06 482.62 409.62 482.53 408.2 482.28 406.02 482.11 403.18 482.02 402.3 482.02 401.32 482.19 400.12 482.53 399.14 483.12 397.93 484.06 396.62 485.16 395.64 485.92 394.22 486.69 393.24 487.2 392.25 487.71 391.49 488.22 390.72 488.64 390.07 489.23 389.63 489.83 389.19 490.59 388.76 491.7 388.54 492.71 388.32 493.73 387.88 494.41 387.45 495.26 386.68 496.62 385.8 497.89 384.93 499.08 384.06 500.27 383.07 501.12 381.87 502.22 380.78 503.07 380.01 503.75 379.25 504.26 378.7 504.85 377.5 506.29 376.85 507.31 376.52 507.99 375.65 508.92 374.77 509.52 373.9 510.28 372.91 511.05 371.71 511.9 370.07 512.66 368.65 513.17 366.9 513.42 365.05 513.51 362.64 513.59 361.66 513.85 360.57 513.93 359.59 514.44 358.49 514.95 357.51 515.63 356.53 516.31 355.98 516.82 355.76 517.33 355.54 518.26 355.33 519.19 355.76 520.13 356.09 521.06 356.64 521.99 356.85 522.42 356.64 522.84 356.31 523.35 354.67 524.37 353.69 525.05 353.25 525.73 353.25 526.49 353.69 527.26 354.56 528.62 355.1 529.72 355.76 531.67 356.3 532.94 356.74 533.28 357.18 533.45 357.94 533.45 358.93 533.11 360.02 532.52 360.46 532.35 360.78 531.76 360.57 530.82 360.46 529.21 360.35 527.34 360.24 526.32 360.35 525.64 360.57 524.71 360.89 523.95 361.33 523.18 362.1 522.5 362.75 521.91 363.3 521.49 363.85 521.15 364.61 520.64 365.59 520.13 366.47 519.62 366.9 519.53 367.45 519.54 367.89 519.53 368.33 519.96 368.43 520.55 368.76 521.66 369.31 522.33 370.18 523.78 370.73 524.63 371.6 525.65 372.04 526.41 372.04 526.83 371.71 527.26 371.27 527.51 369.85 527.94 368.76 528.11 367.34 528.36 366.25 528.45 365.92 528.7 365.59 529.21 365.16 530.31 364.61 532.1 364.39 532.94 364.17 533.29 363.95 533.79 363.19 534.64 361.88 535.75 360.68 536.85 360.02 537.36 359.25 538.12 359.15 538.46 359.36 538.89 359.91 538.8 360.57 538.63 361.55 538.21 362.42 537.61 363.08 537.36 363.84 537.19 364.5 537.27 364.93 537.7 365.04 538.21 365.26 539.06 365.48 539.23 366.14 539.4 366.79 538.8 367.34 538.72 367.66 538.63 367.99 538.55 368.21 538.8 368.21 539.14 367.67 539.65 367.44 540.16 367.34 540.67 367.45 541.18 367.66 541.69 367.66 542.28 367.01 543.72 366.79 544.06 366.9 544.83 367.23 545.76 367.23 546.27 366.79 547.03 366.03 547.54 365.37 548.22 364.93 548.9 364.93 550.01 365.37 550.6 365.7 550.85 366.24 550.77 367.44 550.43 367.99 550.18 368.97 549.41 369.74 548.48 370.28 547.97 370.83 547.2 371.27 546.02 371.38 544.57 371.38 542.96 371.38 541.09 371.6 539.57 371.92 538.89 372.25 538.12 372.47 537.27 372.36 536.34 372.47 535.24 372.47 534.13 373.13 532.86 373.89 531.5 374.55 530.4 375.2 529.3 375.64 528.45 376.08 527.94 377.5 527.18 379.14 526.41 381.32 525.73 382.74 525.39 385.04 524.63 386.35 524.12 387.44 523.61 388.86 522.68 389.84 521.57 390.61 520.22 391.15 518.18 391.7 516.4 391.92 514.36 392.14 512.32 392.03 510.54 391.7 509.1 391.16 507.48 391.05 506.63 391.05 505.87 391.48 504.68 392.03 503.66 392.25 503.41 392.25 502.98 392.25 502.05 392.25 501.12 392.47 500.35 392.8 499.33 393.34 498.32 394.11 497.21 394.87 496.62 396.4 495.43 397.49 494.58 398.48 493.99 399.79 493.14 401.21 492.12 402.41 491.1 403.72 490.34 404.81 489.91 Z M 389.43 407.5 384.84 408.6 382.87 408.6 381.78 407.66 380.8 406.14 379.7 405.88 378.28 406.14 377.19 407.58 376.32 409.36 375.77 412.25 376.1 414.37 376.86 415.56 377.84 416.07 379.05 416.07 380.14 415.13 382 413.43 384.4 412.08 386.58 411.48 388.11 411.4 389.32 411.74 389.43 413.18 386.8 416.83 385.16 419.04 384.51 421.75 382.98 424.64 383.09 426.08 383.63 427.27 387.34 430.16 390.19 431.43 391.17 432.02 391.72 432.79 392.15 433.72 392.81 434.06 394.66 433.89 395.54 433.64 396.63 433.64 400.02 434.74 401 435.34 401.66 435.76 405.7 436.27 407.56 436.61 408.87 437.21 408.87 437.8 407.12 437.8 403.73 437.97 402.2 438.05 399.58 439.16 397.83 440.34 396.08 442.38 394.66 444.08 394.55 445.1 395.21 445.61 397.07 445.69 398.82 444.93 403.08 441.87 404.61 440.68 405.48 440.34 407.12 440.26 408.32 440.6 409.85 441.36 411.6 441.36 412.36 440.35 413.13 438.99 414.11 438.05 416.19 437.2 417.39 436.53 417.5 435.76 417.06 435.25 415.64 435 412.36 434.66 409.74 434.32 407.89 433.21 407.23 432.03 407.45 430.84 407.12 429.82 405.81 429.05 401.98 428.46 398.27 427.44 394.01 426.68 390.3 425.07 389.21 423.54 388.99 421.59 389.43 418.78 390.84 416.66 392.38 415.3 393.69 413.69 394.12 411.74 394.78 409.36 395.22 407.67 394.67 406.56 393.14 406.65 390.19 407.41 389.43 407.5 Z M 334.46 559.09 335.44 558.24 337.08 556.62 339.81 554.42 341.34 552.89 341.01 552.04 338.39 551.87 336.2 552.38 333.8 553.65 331.18 555.77 329.54 557.9 328.45 559 327.36 559.09 326.37 558.41 326.15 556.96 326.37 555.26 325.5 553.65 324.84 551.87 325.39 550.17 328.34 548.73 330.74 548.39 332.71 548.65 334.02 549.24 335.22 549.75 336.53 549.83 337.73 549.49 339.26 548.73 340.35 548.65 341.01 548.9 342.76 549.49 344.61 549.75 347.02 549.16 349.09 547.63 350.3 546.01 349.97 545 348.77 544.15 347.24 543.98 341.67 543.38 336.53 543.72 332.05 544.06 329.54 544.15 327.9 543.47 324.85 542.28 322.99 541.85 320.91 542.45 317.96 544.48 316.65 545.93 313.92 547.71 312.83 549.15 312.5 550.85 313.27 552.12 315.34 554.33 317.09 556.96 319.05 559.25 319.82 561.04 321.02 563.84 323.1 564.94 325.71 564.6 327.9 564.01 329.87 562.74 334.46 559.09 Z M 333.58 588.54 331.28 590.15 329.75 591.51 328.12 592.36 326.8 592.95 326.04 594.23 325.82 596.43 326.15 599.06 326.59 600.42 326.48 601.44 325.06 602.8 324.07 604.49 322.65 605.85 322.33 606.19 321.89 607.13 321.23 608.99 320.79 610.18 320.68 610.61 320.79 611.37 321.67 611.88 322.65 611.79 323.63 611.45 324.72 610.44 326.15 609.67 331.94 607.13 333.25 606.45 333.36 605.6 331.28 604.5 330.62 603.9 331.39 602.37 332.81 601.1 333.03 601.02 335.87 599.83 337.51 599.23 338.38 597.96 338.16 597.03 336.74 596.09 336.52 595.41 336.96 594.65 339.04 593.46 339.26 592.7 338.82 591.09 338.93 590.32 340.89 589.05 342.42 588.79 344.39 589.47 345.26 589.64 346.36 588.71 347.45 588.12 348.32 587.95 348.98 588.79 348.87 589.64 347.56 593.04 346.9 595.5 347.34 596.1 348.1 596.18 348.87 595.59 350.51 592.36 353.89 588.03 355.2 587.27 357.94 586.93 360.88 586.5 363.5 585.83 366.35 584.47 369.08 582.18 369.95 581.33 370.5 580.31 371.48 578.7 371.37 577.59 371.15 577.25 370.39 577.42 367 579.46 365.91 580.9 364.6 582.86 363.4 583.45 360.99 583.7 358.04 584.04 354 585.49 352.04 585.82 350.4 585.74 349.85 584.72 349.96 583.53 351.82 582.68 354.66 581.92 358.81 581.84 361.21 581.58 363.07 580.9 363.73 580.05 362.63 578.95 359.47 578.61 355.42 578.61 352.47 579.54 350.18 580.73 347.34 582.68 345.48 583.79 342.86 584.21 338.82 585.06 335.54 586.76 333.58 588.54 Z M 389.53 458.25 393.68 453.5 395.65 451.21 395.98 449.17 395.76 448.15 394.99 447.73 393.13 447.64 386.8 448.32 385.16 448.32 384.83 447.22 384.83 444.93 384.5 443.06 384.07 441.36 384.29 439.15 384.83 436.27 384.4 433.21 382.76 431.35 381.77 431.43 381.12 432.53 381.34 434.4 381.12 436.01 380.9 437.29 380.14 437.28 378.72 436.44 377.29 435.33 376.31 435.59 375.77 436.52 374.89 438.98 373.03 443.31 371.5 445.69 372.05 446.2 372.92 446.37 374.12 446.2 376.31 445.52 377.29 444.93 377.84 442.38 378.5 440.68 379.26 440.51 379.92 441.7 379.92 445.94 379.26 447.39 377.51 448.24 375.65 449.25 375.44 450.02 376.53 452.05 377.29 455.37 378.27 456.3 379.47 456.64 380.46 456.05 380.9 454.35 381.33 452.31 381.77 451.88 382.64 452.82 383.96 455.11 385.16 456.64 383.96 458.34 381.22 461.05 379.37 462.58 378.82 463.68 377.95 465.21 376.09 465.89 374.01 466.4 373.9 466.99 374.45 468.27 376.2 469.2 377.4 469.03 380.46 467.5 382.97 465.64 386.03 462.5 389.53 458.25 Z M 214.06 1303.72 213.95 1303.04 213.73 1302.62 213.62 1302.45 212.64 1301.43 211.55 1298.97 210.89 1297.86 209.8 1295.83 209.69 1295.4 209.04 1293.88 208.16 1291.92 206.96 1290.14 206.41 1287.59 206.74 1284.45 206.96 1283.27 206.96 1280.13 206.53 1279.02 206.31 1278.85 205.22 1278.85 205 1279.02 203.47 1280.55 202.38 1282.08 201.94 1283.69 201.94 1284.96 203.25 1288.19 204.01 1289.55 205 1291.16 206.31 1294.22 206.74 1295.74 207.73 1297.02 207.94 1297.95 208.49 1298.89 208.82 1299.56 209.36 1300.33 210.13 1301.77 210.24 1302.02 211 1303.89 211.55 1304.74 211.55 1305.16 212.86 1309.15 213.08 1311.19 212.86 1311.87 211.55 1313.74 210.67 1314.25 207.4 1316.2 205.65 1317.56 204.23 1317.73 203.58 1317.05 203.58 1316.71 203.8 1316.03 206.2 1312.3 206.96 1310.85 207.95 1308.73 208.16 1307.97 208.16 1307.54 207.95 1307.2 207.4 1306.61 205.65 1305.5 204.34 1305.5 204.01 1305.84 204.45 1308.82 204.23 1311.36 203.14 1312.89 201.94 1313.91 201.07 1313.91 200.41 1313.57 200.2 1313.4 198.67 1312.04 198.56 1311.7 197.25 1310.26 196.05 1309.41 194.96 1309.33 194.52 1309.58 194.63 1309.83 194.63 1310.68 195.17 1311.79 195.5 1312.55 198.45 1316.88 199.43 1319.17 200.41 1323.59 200.85 1326.98 201.29 1328.93 201.83 1329.19 204.02 1328.85 204.78 1328.25 206.53 1326.64 208.82 1323.33 211.55 1320.02 213.73 1316.71 215.48 1313.23 215.91 1310.34 215.91 1308.98 214.06 1303.72 Z M 300.16 493.13 297.98 497.8 296.99 500.18 295.57 502.47 293.28 505.18 291.75 507.47 291.31 509.51 291.53 510.36 292.51 510.96 294.7 510.45 298.3 508.41 299.94 507.05 300.71 505.01 301.69 502.81 302.56 501.62 304.64 500.52 306.83 499.41 307.26 497.21 307.26 495.25 308.25 494.57 309.12 493.89 310.54 492.28 310.21 490.41 309.88 489.31 310.1 488.46 311.63 487.27 312.84 486.26 313.71 485.32 313.71 482.78 313.27 481.5 311.85 481.42 308.25 482.35 307.04 482.69 305.08 483.96 303.88 484.98 302.35 487.27 301.36 490.67 300.16 493.13 Z M 241.18 417.16 244.67 416.82 247.95 416.23 249.26 415.97 252.1 415.55 254.29 414.87 255.49 413.85 255.38 413.08 254.29 411.56 253.96 410.71 254.18 410.2 255.49 408.33 255.38 407.74 254.51 407.4 252.98 407.06 250.46 407.23 248.72 406.89 244.67 406.3 242.82 406.55 241.94 407.23 241.29 407.99 241.62 408.5 242.38 409.1 244.56 410.45 247.84 411.39 249.26 412.24 249.59 412.83 249.04 413.51 247.73 413.93 245.22 414.1 241.72 414.19 237.9 414.87 234.08 415.21 231.13 414.95 229.81 414.27 229.6 413.51 230.69 412.83 232.44 412.66 236.37 412.49 238.56 412.15 239.65 411.56 238.99 410.62 237.9 410.11 235.6 409.94 231.89 409.86 228.94 410.11 226.98 410.88 225.34 412.07 223.7 414.02 222.93 416.65 222.82 417.92 223.92 419.28 225.01 419.28 226.87 418.35 228.83 417.67 230.91 417.67 233.31 417.84 236.48 417.58 241.18 417.16 Z M 256.8 371.32 255.82 371.83 255.16 372.09 253.74 372.68 251.67 373.28 250.47 373.79 249.16 374.21 248.06 374.55 246.97 374.98 246.53 375.14 245.77 375.57 245.22 375.91 244.89 376.33 244.46 376.59 244.35 377.1 244.57 377.27 245.66 377.52 247.19 377.35 249.04 377.18 250.47 377.01 252.65 376.67 254.29 376.33 255.38 376.33 256.36 376.33 257.57 376.5 258.55 376.84 259.2 377.18 259.86 377.78 260.41 378.37 261.17 379.05 261.72 379.98 262.05 380.41 262.26 380.83 262.59 381.26 263.36 381.68 264.23 381.68 265 381.34 265.54 380.92 265.98 380.32 266.53 379.47 266.85 378.46 266.96 377.86 267.29 377.1 267.29 376.84 267.62 376.5 268.16 376.16 269.04 375.65 270.35 375.14 271 374.72 271 374.47 271 374.04 270.68 373.79 270.02 373.53 269.69 373.45 269.26 373.19 269.04 372.94 269.04 372.6 269.47 371.92 270.02 371.24 270.13 370.65 270.24 370.22 270.02 369.8 269.8 369.63 269.58 369.29 269.47 368.86 270.35 368.52 272.21 367.67 273.08 367.25 274.39 366.57 276.14 365.64 276.69 365.21 277.23 364.87 277.34 364.54 277.34 364.03 277.23 363.69 277.01 363.6 275.81 363.77 274.5 364.03 272.64 364.62 271.12 365.04 270.24 365.38 269.04 365.89 268.27 366.15 267.51 366.23 266.42 366.49 265.54 366.74 264.78 367 263.8 367.59 262.81 368.36 261.94 368.95 261.39 369.37 260.63 369.63 259.32 370.14 258 370.64 256.8 371.32 Z M 373.86 721.8 372.66 721.55 370.8 720.96 369.49 720.79 368.18 721.04 367.31 721.8 366.54 723.16 365.45 725.2 364.68 726.9 364.36 728 364.57 729.19 364.79 730.46 364.36 731.65 363.7 732.84 362.5 733.94 360.42 735.56 359.55 736.4 358.89 737.51 358.57 738.19 358.56 738.95 358.89 739.29 359.77 739.8 361.19 739.55 363.26 738.53 364.13 737.76 365.45 737 367.63 736.32 369.81 736.15 372 736.23 374.07 736.57 376.37 736.83 377.46 736.66 378.22 736.32 379.21 735.81 379.64 735.13 379.54 734.11 378.55 732.33 378.33 730.97 378.23 730.04 378.12 729.53 377.24 729.28 375.71 729.61 373.86 730.63 372.11 731.91 370.14 732.84 369.16 733.09 368.61 733.26 368.18 732.92 368.72 731.73 369.92 730.38 370.47 729.19 371.13 728.09 372.44 726.98 373.2 726.81 374.51 726.73 376.15 726.56 376.92 726.05 377.24 724.95 376.48 723.5 375.39 722.65 373.86 721.8 Z M 340.65 747.78 340 749.05 339.12 750.92 337.59 753.72 337.05 755.41 337.59 756.35 338.36 756.77 339.78 756.6 340.22 756.09 342.29 754.14 343.05 753.8 344.15 753.89 344.69 753.63 345.02 753.04 345.24 751.43 345.35 750.41 346.66 748.2 348.08 747.18 348.95 747.01 350.26 747.95 351.46 749.22 352.56 749.73 354.09 749.56 356.38 748.97 357.47 748.03 358.13 746.84 358.45 746.25 359.22 746.08 360.53 745.49 361.18 744.98 361.08 744.04 360.42 743.53 358.89 743.28 355.07 743.03 354.09 743.11 349.72 742.17 347.32 742.09 345.9 742.34 344.8 742.85 343.49 743.62 342.62 744.55 341.63 746.16 340.65 747.78 Z M 357.32 337.97 355.14 337.21 352.51 335.6 350.76 335.17 349.23 335.09 348.47 336.02 348.14 337.29 349.45 339.5 350 340.52 350.33 341.03 352.29 341.62 353.39 342.13 354.48 343.66 354.48 345.44 354.91 347.56 355.13 349.18 355.02 351.22 354.91 352.4 355.46 354.02 356.44 354.61 357.54 354.69 358.95 354.27 360.81 352.91 361.69 350.88 362.02 349.01 361.58 347.06 361.47 345.95 362.13 344.09 362.13 342.3 362.02 340.61 360.92 339.25 359.83 338.4 358.19 338.14 357.32 337.97 Z M 258 391.7 256.58 391.02 255.82 390.68 254.51 390.42 253.74 390.25 252.65 390.42 251.45 390.68 250.25 390.51 248.83 390.25 247.3 389.83 245.55 389.66 243.47 389.49 241.72 389.74 240.52 390.08 240.2 391.02 240.41 391.53 241.4 392.12 242.71 392.63 243.8 392.97 244.89 393.48 245.88 393.99 247.29 395.18 248.93 396.03 250.36 396.36 251.67 396.36 252.98 396.36 254.51 396.02 255.71 395.6 256.36 395.35 257.02 395.35 257.89 395.69 259.64 395.69 260.62 395.43 262.26 395.18 262.81 395.09 263.46 395.35 264.56 395.69 265.98 396.2 266.85 396.28 267.51 395.94 267.83 395.6 268.27 394.84 268.49 394.07 269.36 393.23 270.46 391.95 271.11 390.51 270.79 389.66 270.57 389.15 269.91 388.98 269.25 389.23 268.27 389.66 267.07 390.34 266.09 391.02 265.43 391.87 264.78 392.46 264.23 392.8 263.9 392.8 262.7 392.55 261.61 392.21 260.3 392.21 258.99 391.87 258 391.7 Z M 369.1 426.93 365.39 428.54 362.55 429.98 361.78 430.92 361.56 431.6 362.88 432.36 365.61 432.61 369.43 432.28 371.4 431.94 372.05 431.43 373.14 430.92 374.02 431 375.11 431.51 376.53 431.51 377.62 428.46 378.83 423.37 379.59 422.69 380.79 421.58 380.9 419.97 379.7 418.78 377.84 418.7 377.08 418.27 376.75 417.51 376.21 417.26 374.89 418.1 373.47 420.05 373.58 420.82 374.13 421.58 375.55 422.18 376.09 422.77 375.66 423.87 374.13 424.72 371.62 426 369.98 426.76 369.1 426.93 Z M 369.98 394.5 370.53 394.5 371.51 394.33 374.24 393.66 375.99 392.47 376.65 391.45 375.99 390.52 375.01 390.43 371.95 389.84 369.66 388.65 368.24 387.2 365.72 384.23 364.74 383.3 363.32 383.64 362.99 385.34 364.41 387.37 366.05 390.01 366.27 391.62 365.17 392.55 363.21 392.3 362.34 391.45 361.68 389.33 361.13 388.99 359.39 389.58 356.55 391.28 355.67 392.47 356.44 393.23 357.53 393.4 359.06 393.66 360.26 394.42 362.12 395.27 363.97 395.61 366.38 395.27 369.98 394.5 Z M 307.27 428.62 303.99 428.79 300.72 429.3 297.99 430.83 297.11 432.01 297.33 432.95 298.97 434.56 301.04 435.07 303.34 435.5 305.3 435.16 307.16 434.99 308.25 435.07 308.91 435.16 311.31 435.75 312.95 434.99 314.81 433.88 316.01 432.86 315.68 431.34 314.26 430.07 310.77 429.13 308.25 428.79 307.27 428.62 Z M 374.4 748.71 376.04 749.56 377.57 750.58 378.22 751.09 379.53 751.35 381.61 751.6 383.14 751.77 384.23 751.86 385.32 752.19 386.63 752.62 387.5 752.62 388.49 752.02 388.81 750.92 388.6 749.65 388.05 748.8 387.07 748.04 385.1 747.7 382.92 747.36 381.94 746.85 380.52 745.66 378.88 744.05 377.02 743.03 374.4 742.6 372.22 742.77 371.34 742.77 370.36 743.2 370.14 744.3 370.69 745.57 372.11 747.27 374.4 748.71 Z M 366.91 458.51 368.77 460.97 370.08 462.33 371.17 462.92 374.01 462.58 376.52 462.16 377.95 460.88 377.73 459.69 376.52 459.19 373.03 458.42 370.3 457.49 368.55 456.21 367.68 455.11 367.79 454.69 368.44 454.26 370.41 454.86 372.7 455.03 373.69 454.26 373.25 452.9 373.14 451.54 372.49 450.27 370.3 450.27 368.55 450.95 366.91 451.37 365.06 451.8 364.18 453.07 364.4 454.18 365.49 456.38 366.91 458.51 Z M 231.57 384.31 233.53 384.06 235.28 383.63 236.59 382.95 236.7 382.44 235.93 381.85 233.75 381.43 232.22 381.17 231.45 380.75 231.67 379.98 233.09 379.05 234.3 378.46 234.95 377.27 235.5 375.91 236.04 374.63 236.59 373.45 236.48 373.19 235.72 372.85 234.19 373.19 233.42 373.87 232.11 374.63 231.46 375.23 230.47 375.91 228.94 376.67 227.41 377.35 226.54 378.03 225.78 379.05 225.99 379.98 226.21 380.83 226.1 381.68 225.23 382.7 224.68 383.55 224.79 384.39 225.34 385.07 226.43 384.9 227.85 384.9 229.38 384.65 230.47 384.65 231.57 384.31 Z M 335.32 622.24 333.68 622.24 330.73 621.98 327.78 622.41 324.94 623.34 323.85 624.44 323.96 625.12 325.27 625.89 328.55 626.65 330.73 627.58 332.15 627.67 334.34 626.9 335.87 626.82 337.83 626.91 338.92 626.57 342.53 624.96 343.29 624.27 343.84 623.43 342.53 622.41 339.47 622.41 335.32 622.24 Z M 269.26 315.56 268.28 317.09 268.06 317.6 268.06 318.11 268.72 319.04 269.04 319.55 269.26 320.23 269.15 320.74 269.37 320.99 269.92 321.42 271.01 321.33 271.56 321.59 271.88 322.52 271.99 323.54 272.76 324.22 273.63 324.39 275.6 323.96 276.8 323.03 277.24 321.76 277.02 320.06 276.58 318.27 276.8 317.09 276.47 315.81 275.05 314.71 273.08 313.69 272.1 313.1 271.34 312.67 270.79 313.1 269.7 314.45 269.26 315.22 269.26 315.56 Z M 292.97 346.97 290.78 347.56 289.25 348.41 288.81 349.09 289.14 350.02 290.02 350.36 291.55 350.79 291.88 351.46 291.98 352.4 291.76 353.25 292.86 353.59 295.81 353.76 297.88 353.33 300.18 352.48 301.49 351.38 301.71 350.36 301.6 349.77 300.51 349.43 299.08 349.34 298.54 349.26 298.54 348.75 298.54 347.56 297.88 346.37 296.13 346.37 294.28 346.71 293.62 346.8 292.97 346.97 Z M 237.9 420.81 234.4 421.57 231.45 422.08 229.05 423.36 228.07 424.21 228.61 424.71 231.35 425.23 234.4 425.39 236.26 425.73 237.9 425.48 242.6 424.2 245.33 422.68 246.2 421.49 246.2 420.89 244.89 420.64 240.74 420.72 237.9 420.81 Z M 396.79 740.48 395.15 741.5 393.84 742.77 393.07 744.3 392.96 745.91 393.73 747.02 394.71 747.44 396.02 747.95 397.11 748.72 398.21 749.82 398.64 750.33 399.41 750.58 400.06 750.24 400.83 748.46 401.16 747.1 400.94 745.41 400.17 744.3 399.74 743.79 399.08 743.45 399.08 742.86 399.74 742.09 400.61 741.07 401.05 740.23 400.5 739.72 399.96 739.38 398.86 739.72 396.79 740.48 Z M 336.23 350.7 334.59 351.89 332.73 353.34 332.41 353.84 330.55 354.69 329.46 355.97 330.33 357.07 332.19 357.75 334.81 357.15 335.68 356.64 336.67 356.73 337.98 356.81 339.51 355.88 340.05 354.52 340.49 353.51 341.69 351.72 341.7 350.45 340.71 349.69 338.31 349.94 336.89 350.36 336.23 350.7 Z M 419.35 451.38 420.77 452.06 422.19 452.14 422.96 451.47 423.07 447.73 422.08 446.8 420.12 446.29 417.39 446.2 414.77 445.27 413.45 444.33 411.38 444.16 408.97 444.42 408.54 444.93 409.19 445.86 410.72 446.46 411.81 447.47 412.8 448.41 414.65 449 416.51 449.34 418.04 450.36 419.35 451.38 Z M 347.8 411.31 347.58 411.65 346.82 412.58 346.27 413.18 345.95 413.6 345.62 414.53 345.4 415.64 345.29 416.49 345.18 417.08 345.18 417.51 345.73 417.85 346.93 418.35 348.13 418.44 348.89 418.35 349.55 418.1 350.21 417.59 350.42 417 350.64 416.06 350.86 415.72 351.19 415.22 351.73 414.45 352.06 414.11 352.5 413.26 353.26 412.75 353.92 412.07 354.47 411.74 354.8 411.39 354.9 410.97 355.12 410.04 354.8 409.53 354.8 409.27 354.69 408.85 354.14 408.68 353.48 408.59 352.83 408.76 352.06 408.85 351.3 408.85 350.75 409.1 350.21 409.36 349.88 409.61 349.44 409.95 349.01 410.21 348.57 410.55 347.8 411.31 Z M 217.03 400.01 218.46 399.08 219.77 398.06 220.97 397.13 221.4 396.45 221.51 395.94 220.86 395.43 219.55 394.84 218.02 394.5 215.94 394.16 214.96 394.24 214.52 394.41 214.08 394.92 213.65 395.51 212.99 396.11 212.56 396.62 212.01 397.21 212.12 397.98 212.01 398.48 211.57 399.16 210.59 399.67 210.04 400.44 209.93 400.95 210.15 401.71 210.59 402.14 211.13 402.3 212.34 402.31 213.65 401.8 214.96 401.03 215.94 400.61 217.03 400.01 Z M 353.65 723.08 353.33 725.28 353.22 726.47 353.43 727.74 353.76 728.25 354.53 728.34 355.4 728 356.17 726.72 356.82 724.6 357.91 723.25 359.77 721.12 361.41 719.43 363.27 718.49 365.23 717.73 365.89 717.14 365.67 716.88 364.47 716.88 362.94 716.63 360.97 716.8 359.01 717.47 357.26 718.32 356.38 719.26 355.29 720.11 354.64 721.29 353.65 723.08 Z M 341.55 607.55 342.31 607.3 343.62 607.21 344.61 607.3 345.92 607.38 347.01 606.79 346.68 605.43 345.59 603.14 345.26 602.21 344.83 601.44 343.41 600.59 342.31 600.85 341 601.44 340.46 602.37 340.24 604.67 339.8 605.01 338.6 605.01 336.52 605.85 336.31 606.62 336.74 607.13 337.51 607.47 339.91 607.64 341.55 607.55 Z M 341.96 762.89 340.1 763.56 338.25 763.99 336.83 764.16 335.52 764.33 335.08 764.92 334.64 765.68 334.64 766.19 335.19 766.53 335.74 766.79 337.59 766.7 339.12 766.62 340.98 766.62 342.61 766.11 344.47 765.35 345.45 764.84 346.77 764.41 348.29 763.82 348.95 763.14 349.28 762.55 348.95 761.87 347.97 761.87 346.88 761.95 344.8 762.12 343.49 762.54 341.96 762.89 Z M 291.98 443.31 290.34 444.07 289.68 444.92 290.01 445.77 291.43 446.36 294.92 447.64 296.34 447.38 297.87 446.79 298.97 446.11 299.51 444.67 299.62 443.81 299.08 443.22 297.11 442.63 294.81 442.54 293.61 442.71 291.98 443.31 Z M 226.98 387.28 225.56 387.03 223.92 387.03 222.93 387.11 222.06 387.54 221.29 388.39 221.4 389.23 221.73 390.17 222.93 390.59 224.57 390.68 225.88 390.68 227.3 390.42 229.27 390 230.69 389.91 232 389.66 233.64 389.32 234.73 388.47 234.84 387.96 234.08 387.71 232.44 387.54 230.8 387.54 228.73 387.54 226.98 387.28 Z M 361.51 782.49 360.19 781.98 359.21 781.39 358.12 781.22 356.92 781.05 355.94 781.22 355.5 781.56 355.28 782.07 355.83 782.92 356.92 783.77 358.12 784.7 359.1 785.21 359.87 785.55 361.07 785.89 362.16 786.14 363.58 786.31 365 786.23 365.77 786.06 366.31 785.8 366.53 785.55 366.75 785.04 366.53 784.36 366.09 784.19 364.78 783.77 363.25 783.43 362.38 782.92 361.51 782.49 Z M 206.98 420.13 207.97 419.62 209.17 418.94 210.37 418.35 211.46 417.5 212.12 416.99 212.34 416.23 212.23 415.46 211.9 414.95 211.57 414.7 210.81 414.95 210.04 415.29 209.39 415.72 208.51 416.31 207.97 416.82 206.77 417.16 205.56 417.41 204.25 418.01 202.94 418.69 202.07 419.45 201.85 420.05 201.74 420.64 202.18 421.15 202.72 421.4 203.82 421.23 204.69 421.15 205.56 420.72 206.98 420.13 Z M 366.97 776.38 366.53 777.06 366.31 777.74 365.98 778.17 365.11 778.5 364.02 778.76 363.15 779.1 362.71 779.61 362.49 780.29 362.71 780.88 363.15 781.31 364.02 781.65 365.11 781.82 365.98 781.82 367.08 781.9 367.84 781.65 368.5 781.48 368.82 780.97 368.82 780.12 368.71 779.61 368.6 779.18 368.82 778.5 369.37 777.66 370.03 776.98 370.79 776.04 370.79 775.36 370.68 774.86 370.24 774.77 369.04 774.94 368.06 775.19 367.3 775.87 366.97 776.38 Z M 277.99 420.64 276.68 420.9 273.4 421.32 271.33 422.25 271.22 422.68 271.66 423.27 272.97 423.78 275.26 424.04 277.56 424.46 279.41 424.29 281.82 423.7 282.26 422.76 281.49 421.57 279.74 420.98 277.99 420.64 Z M 313.6 495.68 314.47 496.7 315.35 497.54 316.55 497.46 317.86 496.7 318.19 495.85 318.19 493.98 317.42 492.2 316.99 490.92 316.22 490.16 315.24 490.08 314.04 490.92 313.27 492.28 313.16 493.89 313.38 495.17 313.6 495.68 Z M 385.21 776.05 386.52 776.13 387.17 775.54 387.39 774.69 387.17 774.09 386.19 773.24 384.99 772.65 383.57 772.14 382.81 771.04 382.48 770.27 381.93 769.85 381.28 769.59 380.51 769.76 379.31 770.61 378.98 771.21 379.09 771.97 379.53 772.73 380.18 773.41 381.27 773.67 381.82 774.01 382.37 774.52 382.91 775.37 383.35 775.71 384.12 775.96 385.21 776.05 Z M 385.14 547.97 383.06 547.04 381.21 546.44 380.33 546.36 379.57 546.7 379.46 547.97 380.77 549.84 381.86 550.69 382.95 551.2 384.92 551.87 386.56 551.71 387.54 550.77 387.43 549.75 386.45 548.9 385.14 547.97 Z M 299.61 525.39 301.36 526.66 302.45 527 304.2 526.32 305.08 525.47 305.07 524.54 303.22 522.5 302.34 522.07 300.38 521.91 298.52 522.16 298.08 522.75 298.19 523.6 299.07 524.79 299.61 525.39 Z M 231.35 396.02 229.6 396.19 228.4 396.36 227.63 396.79 227.2 397.13 226.98 398.06 227.19 398.57 227.52 399.08 228.51 399.5 229.71 399.59 231.02 399.42 232.44 399.25 233.53 398.82 234.62 398.15 234.95 397.47 235.06 397.04 234.84 396.62 234.52 396.19 233.31 396.02 232.22 395.94 231.35 396.02 Z M 316.23 421.75 317.21 421.07 317.54 420.39 317.54 419.29 316.56 418.6 315.25 418.61 313.83 419.54 313.17 421.32 312.52 423.53 312.62 424.38 314.15 424.38 315.68 423.53 316.23 421.75 Z M 382.89 322.19 383.43 323.21 383.54 323.46 383.98 323.72 386.17 323.55 387.69 322.87 388.68 322.27 388.79 321.34 388.35 320.58 387.59 320.07 386.38 319.98 384.31 320.32 383.22 320.75 383 321.17 382.89 321.42 382.89 322.19 Z M 393.4 766.88 394.49 766.63 395.47 766.12 396.13 765.78 396.02 765.35 396.02 764.84 395.8 764.76 394.82 764.76 393.62 764.76 392.74 764.93 391.76 765.27 390.23 765.86 388.59 766.45 388.38 767.22 388.16 767.9 388.05 768.49 388.37 768.75 388.92 768.75 389.69 768.58 390.67 767.98 392.31 767.56 393.4 766.88 Z M 394.06 754.83 394.82 753.81 395.04 752.79 394.6 752.37 393.73 752.54 392.74 752.79 391.87 753.47 391.11 754.32 390.01 755.33 389.69 756.44 389.8 757.29 390.23 757.8 390.89 757.97 391.54 757.54 392.31 756.95 393.4 755.84 394.06 754.83 Z M 386.73 801.17 387.6 801.6 388.26 801.77 388.8 801.85 389.35 801.94 390.12 801.77 390.34 801.51 390.66 801.17 390.55 800.66 390.44 800.24 390.01 799.64 389.57 799.14 389.35 798.88 389.13 798.79 388.37 798.45 387.71 798.28 386.73 798.2 385.97 798.37 385.2 798.71 384.76 799.05 384.87 799.47 385.09 799.9 385.75 800.49 386.73 801.17 Z M 194.2 418.6 192.56 419.11 192.13 419.96 192.34 420.64 194.2 421.23 195.95 420.81 198.14 419.96 198.68 418.6 198.57 418.26 197.26 417.84 195.4 418.18 194.2 418.6 Z M 425.28 782.93 424.3 782.59 423.65 782.5 423.21 782.59 422.77 782.76 422.44 783.6 422.56 784.45 422.77 784.88 422.99 785.22 423.54 785.64 424.19 785.81 425.18 785.81 425.94 785.81 426.81 785.47 427.47 785.22 427.69 784.79 427.8 784.54 427.58 784.11 427.14 783.69 426.49 783.35 425.94 783.1 425.28 782.93 Z M 200.98 414.44 201.3 413.68 200.98 413.08 200.32 412.57 199.34 412.32 198.46 412.23 197.59 412.66 197.04 413.08 196.71 413.42 196.61 414.1 196.61 414.78 196.82 415.12 197.48 415.46 197.92 415.8 198.57 415.89 199.01 415.8 199.99 415.63 200.54 415.04 200.76 414.78 200.98 414.44 Z M 347.97 754.4 347.53 755.25 347.2 756.18 347.53 756.69 347.86 757.03 348.95 756.77 350.48 755.5 351.03 755.08 351.14 754.4 351.25 753.13 350.81 752.19 350.26 751.77 349.93 751.77 349.28 752.45 348.3 753.63 347.97 754.4 Z M 372.64 808.22 373.62 808.81 374.61 809.06 375.59 809.06 376.25 808.89 376.57 808.72 376.57 808.13 376.35 807.54 375.48 807.11 373.52 806.18 372.2 805.75 371.44 805.84 370.89 806.43 370.89 806.94 371.44 807.53 371.66 807.79 372.64 808.22 Z M 296.46 385.16 295.48 386.1 295.26 387.28 295.91 387.88 297.55 388.05 299.52 387.37 300.06 386.61 299.95 385.93 299.08 385.16 297.77 384.74 296.46 385.16 Z M 385.1 760.68 386.19 761.02 387.39 761.02 388.05 760.51 387.72 759.32 386.3 758.39 384.88 757.8 384.12 758.22 383.79 758.81 383.68 759.58 384.33 760.43 385.1 760.68 Z M 191.57 1343.53 192.77 1343.45 193.54 1343.28 193.76 1342.68 193.86 1342 193.87 1340.98 192.77 1340.73 191.14 1340.65 190.81 1340.73 190.37 1340.99 190.26 1341.5 190.26 1342.09 190.26 1342.94 190.37 1343.11 191.57 1343.53 Z M 356.92 752.11 355.61 752.28 354.52 752.79 353.76 753.55 353.87 754.14 354.09 754.48 355.28 754.82 356.16 754.74 356.92 754.48 357.91 753.55 358.45 752.62 358.34 752.36 357.8 752.19 356.92 752.11 Z M 281.17 361.65 280.95 362.92 281.17 363.69 281.71 364.03 283.02 363.69 284.12 362.5 284.22 361.06 283.24 360.55 281.82 360.71 281.17 361.65 Z M 393.62 760.17 393.07 759.83 392.31 759.66 391.65 759.58 390.89 759.83 390.45 760.26 390.34 760.68 390.45 760.94 391.33 761.79 392.31 762.21 392.74 762.38 393.4 762.21 393.84 761.96 394.27 761.53 394.27 761.02 394.06 760.6 393.62 760.17 Z M 236.81 391.02 236.15 390.76 235.5 390.93 235.06 391.19 234.84 391.78 234.84 392.04 234.95 392.55 235.5 393.22 235.82 393.31 236.37 393.31 236.81 393.31 237.35 393.14 237.79 392.88 237.9 392.46 237.9 392.04 237.68 391.53 237.57 391.27 236.81 391.02 Z M 307.6 360.8 306.4 361.23 305.64 362.25 306.29 362.84 306.73 363.26 307.82 363.18 308.26 362.92 308.59 362.67 308.92 361.82 309.13 361.23 308.91 360.8 308.26 360.8 307.6 360.8 Z M 314.05 362.16 314.38 361.23 313.61 360.63 312.63 360.72 311.65 361.57 311.21 362.41 311.43 362.92 312.41 363.09 313.29 362.84 314.05 362.16 Z" fill-rule="evenodd"/>
</g>
</svg>