<?xml version="1.0"?>
<svg xmlns="http://www.w3.org/2000/svg" version="1.2" baseProfile="tiny" width="800" height="212" viewBox="0 0 800 212" stroke-linecap="round" stroke-linejoin="round">
<g id="bigbearlake">
<path d="M 5.99 172.44 6.65 172 7.21 171.5 7.59 171.2 7.76 171.01 8.09 170.82 8.47 170.65 8.91 170.4 9.3 170.21 9.91 170.04 10.62 170.04 11.34 170.18 12.11 170.29 12.88 170.32 13.82 170.15 14.42 169.94 14.86 169.74 15.47 169.27 16.19 168.67 16.68 168.23 16.85 167.71 16.74 167.19 16.68 166.69 16.85 166.14 17.4 166 17.89 166.11 18.56 166.31 19.16 166.33 19.66 166.17 19.99 165.84 20.54 165.48 20.87 165.29 21.04 165.1 21.15 164.82 21.09 164.47 20.87 164 20.93 163.78 21.48 163.67 22.03 163.72 22.41 163.97 22.8 164.38 23.18 164.58 23.68 164.66 24.51 164.77 25.33 164.93 26.05 164.96 26.93 165.1 27.32 165.34 27.98 165.34 28.7 164.93 29.19 164.33 29.14 163.83 28.97 162.98 29.03 162.24 29.74 161.66 29.74 161.19 29.74 160.62 30.24 159.9 31.07 159.11 31.95 158.39 32.55 157.32 33.32 156.58 34.37 155.75 35.25 154.98 35.8 154.51 36.13 154.08 36.58 153.58 36.96 153.14 37.68 152.23 38.45 151.38 39.72 150.23 40.93 149.21 42.08 148.06 42.97 147.31 44.01 146.87 44.84 146.68 46.22 146.4 47.04 146.05 48.09 145.52 49.14 144.9 50.18 144.45 51.45 144.18 52.78 144.07 54.04 143.91 55.2 143.69 56.36 143.38 57.57 143.11 58.67 142.81 59.66 142.36 60.87 141.6 61.7 140.72 62.25 139.95 62.75 139.2 63.19 138.6 63.85 138.24 64.62 137.88 65.89 137.5 67.32 137.2 68.42 136.92 69.36 136.7 69.97 136.51 70.79 136.29 71.35 136.1 71.84 135.9 72.39 135.69 73 135.44 73.93 135.08 74.76 134.5 75.75 133.71 76.8 132.91 77.52 132.11 78.34 131.43 79.5 130.98 80.05 130.87 80.44 130.87 81.1 130.79 81.92 130.79 83.08 130.88 83.91 130.96 84.96 131.12 86 131.15 87.27 131.01 88.1 130.43 89.25 129.91 90.52 129.2 91.68 128.62 92.84 127.77 94.05 127.03 95.26 126.23 96.47 125.43 97.35 124.91 98.29 124.31 99.17 123.7 100.11 123.23 100.99 122.57 101.76 122.05 102.64 121.61 102.95 121.61 105.8 119.53 107.37 118.1 110.53 116.68 112.68 115.96 114.35 115.09 115.31 114.1 117.13 111.92 118.42 110.49 120.04 109.5 121.76 108 123.1 107.32 124.54 107.24 125.78 106.93 127.64 105.14 128.79 104.63 129.51 103.84 129.75 103.2 129.6 101.3 129.89 100.23 131.23 99 133.1 97.54 135.29 96.47 137.3 95.95 139.22 95.16 141.03 94.13 142.99 92.78 145.1 90.96 147.53 87.91 148.39 87.51 152.03 86.17 154.71 84.82 157.29 83.67 160.35 81.85 162.07 80.5 164.6 77.84 169.29 71.86 171.3 70.32 172.83 69.33 174.26 68.89 176.08 68.73 181.34 69.09 183.06 68.81 184.73 68.14 188.85 65.72 190.95 64.93 193.39 63.78 194.3 63.18 194.35 62.19 194.68 61.44 195.25 61.2 196.02 61.28 197.07 61.84 198.08 62.03 199.61 61.68 206.88 62.07 218.21 63.58 225.53 64.01 227.39 64.01 227.87 64.21 228.83 64.96 229.69 65 230.93 64.92 232.22 64.17 233.56 62.94 234.33 62.7 235.04 62.98 235.95 63.54 238.2 64.13 239.59 64.33 240.73 64.13 241.79 63.38 242.31 62.39 242.22 61.2 242.45 60.6 243.32 60.05 246.47 58.74 247.67 57.67 250.11 56.01 251.73 54.66 252.5 53.51 253.21 52.09 253.55 50.74 253.55 49.91 252.69 48.48 251.4 47.45 249.44 46.15 242.02 43.37 239.54 42.03 238.96 41.35 238.91 40.6 239.2 39.65 240.64 37.83 240.64 37.27 240.4 36.87 234.9 32.99 234.56 32.52 234.61 31.49 234.85 30.85 235.81 30.1 236.28 29.51 236.09 28.79 234.85 27.05 233.84 26.58 233.08 26.58 231.79 27.17 231.07 27.8 230.5 29.27 229.44 30.06 227.72 30.46 226.53 30.34 224.85 29.71 221.7 29.67 220.21 29.15 219.5 28.64 219.11 27.81 218.68 25.86 218.16 23.09 218.16 20.12 217.49 13.86 217.68 11.29 218.59 7.32 219.49 5.26 219.64 4.39 219.42 3.16 218.51 2.26 218 1.27 219.5 1 220.21 1.06 220.68 1.13 223.56 1.06 226.08 1.07 228.99 1.2 230.04 1.2 230.77 1.26 231.09 1.28 232.26 1.48 231.69 2.58 232.08 2.74 233.05 2.75 233.82 2.97 234.94 3.2 235.96 3.55 237.14 4.27 238.69 4.56 238.59 3.26 239.15 2.97 240.3 3.24 241.45 3.08 243.69 2.45 244.41 2.45 244.7 3.04 244.46 5.42 244.84 7.92 245.56 9.5 246.28 10.41 247.47 11.13 248.96 11.48 250.2 11.4 251.87 10.93 253.02 10.1 253.98 7.6 255.01 5.66 254.97 2.48 255.55 2.04 256.33 1.86 258.53 2.04 261.53 2.08 263 2.24 263.47 2.33 263.56 2.6 263.51 3.12 262.97 4.98 262.92 5.97 263.02 6.77 262.59 8.15 262.59 8.99 262.97 9.86 261.42 13.24 262.61 13.92 263.3 13.58 263.35 12.1 264.38 11.93 265.02 13.07 266.6 12.44 267.25 11.96 268.18 12.76 270.64 17.8 274.04 24.75 273.4 28.83 273.13 30.57 274.22 32.23 276.15 33.08 281.65 33.34 284.98 32.93 287.09 30.44 287.77 26.79 288.45 24.46 289.61 23.75 290.79 24.07 290.69 26.67 291.46 27.27 294.05 26.4 296.73 26.34 298.55 26.06 304.15 23.96 307.97 22.22 308.88 22.14 309.36 22.34 310.27 23.72 310.94 24.24 314.09 25.07 314.81 25.39 315.48 26.3 316.01 26.85 317.2 27.49 317.92 29.11 318.92 30.14 321.55 31.92 324.33 33.31 327.44 34.66 328.15 34.78 328.92 34.42 332.46 30.85 333.17 30.3 334.32 30.06 335.66 30.02 336.71 30.26 341.93 32.56 343.22 33.47 345.32 36.2 347.09 37.75 348.48 38.5 350.68 38.98 357.56 40.92 358.76 41.16 360.58 41.12 364.88 39.18 366.32 38.3 367.27 38.11 367.8 38.3 368.52 38.94 369.62 39.49 370.48 39.49 371.53 38.94 372.77 38.94 375.02 39.3 376.6 39.89 381.19 42.62 387.12 44.65 391.61 46.86 392.57 46.78 393.81 46.43 394.67 46.39 400.8 46.67 404.09 46.67 405.48 46.59 405.82 46.87 405.96 56.14 405.81 61.68 406.05 62 407.25 62.04 407.82 61.72 407.68 46.71 407.97 46.39 409.31 46.27 415.76 46.71 419.3 46.39 423.32 46.43 426.52 46.67 427.96 47.15 429.06 47.62 429.63 48.41 429.92 49.92 430.3 50.59 431.07 50.71 431.93 50.32 434.61 48.22 435.8 47.98 440.11 47.58 444.17 47.58 446.13 47.78 451.77 48.97 453.45 49.53 455.84 50.04 458.95 50.2 462.53 49.92 463.49 50.2 464.26 50.8 465.5 52.34 466.6 52.94 473.29 54.52 476.16 55.47 477.6 55.67 479.56 55.55 482.14 55.16 483.53 55.28 485.39 56.35 486.59 56.63 487.88 56.55 489.84 55.87 491.94 54.92 493.14 54.69 495.72 54.73 496.92 54.57 498.59 54.05 500.41 54.09 501.89 53.78 507.97 50.37 508.92 49.74 509.74 49.3 511.07 48.83 511.55 48.51 512.85 46.81 513.66 46.01 514.61 45.58 515.38 45.58 517.44 46.21 520.83 46.45 522.6 46.77 524.42 47.52 526.28 48.83 527.24 49.31 528.67 49.54 530.83 49.58 533.98 49.51 539.19 49.11 543.79 49.07 545.84 48.76 547.61 49.07 548.66 48.92 550.29 48.09 551.15 47.97 553.64 48.52 554.69 48.56 555.84 48.36 556.99 47.73 557.61 47.18 558.18 47.1 558.99 47.57 559.71 47.61 560.67 47.18 561.53 45.95 562.15 44.4 562.96 43.41 564.54 41.99 569.33 38.86 572.77 37.04 579.71 33.83 585.4 31.74 587.55 31.06 588.51 30.94 589.75 31.26 595.06 32.89 598.93 33.72 603.86 33.72 607.59 34.04 609.6 33.84 611.08 33.49 613.19 32.54 616.1 31.55 618.11 31.31 618.97 31.11 619.83 30.48 620.98 28.74 622.08 28.38 623.52 28.38 626.24 28.78 627.53 29.1 628.2 29.69 629.4 30.96 630.59 31.79 632.08 32.31 633.41 32.9 635.9 34.33 637.34 35.04 640.35 35.87 643.74 36.47 645.32 36.99 647.09 37.82 648.24 38.97 650.58 41.74 651.3 42.34 658.51 45.43 660.38 46.3 661.77 46.58 663.92 46.78 665.64 47.02 668.13 47.85 670.04 48.13 670.85 48.33 671.23 49.08 673.14 53.99 679.83 68.93 679.83 69.53 678.3 70.24 677.1 70.47 676.19 70.43 674.42 69.32 671.89 68.65 670.17 68.33 668.97 68.45 668.11 68.77 666.82 70.47 666.1 70.91 665 71.22 662.71 71.5 662.04 71.82 660.7 73.44 659.45 75.7 658.45 76.8 657.11 77.6 656.15 77.75 654.24 77.28 641.23 77.19 640.18 77.43 639.16 77.21 638.35 77.64 637.81 78.72 636.13 80.4 633.86 81.42 632.03 82.08 630.29 82.26 628.31 83.23 625.35 83.28 623.07 84.22 622.52 84.72 621.88 85.18 621.14 86.12 620.05 88.46 620.23 90.12 617.97 91.67 615.68 93.16 614.65 94.68 612.64 95.77 607.36 98.18 605.31 98.33 602.77 98.85 601 99.05 599.62 98.97 598.04 98.41 597.08 97.94 595.46 96.75 594.45 96.67 592.64 98.13 591.2 98.92 586.18 100.7 584.17 101.5 582.88 102.17 581.59 103.2 579.63 104.39 576.04 106.29 574.56 106.84 571.16 107.08 569.25 106.96 567.29 107.04 566.19 107.47 564.75 108.26 563.7 108.34 562.51 108.22 560.64 107.55 559.16 106.84 557.82 106.36 554.81 105.09 553.18 104.02 550.89 101.41 548.69 98.4 548.17 97.09 547.74 94.79 546.49 93.01 545.63 90.91 544.92 90.07 543.77 89.56 541.95 89.04 538.75 88.57 535.31 88.49 533.82 88.57 532.44 89.04 530.28 90.31 529.04 91.42 527.94 92.09 525.55 93.12 524.5 93.91 522.2 96.21 521.43 97.16 521.1 98.23 521.24 99.46 521.81 100.84 523.82 102.9 524.25 103.74 525.11 106.19 526.78 108.77 528.07 110.23 529.84 111.42 531.8 112.41 537.92 115.19 539.64 116.34 541.43 118.84 543.42 121.1 544.03 121.61 544.64 122.11 545.52 122.93 546.06 124.5 546.29 126.47 545.84 127.95 545.76 128.75 545.61 129.99 544.65 131.53 543.81 132.57 543.87 132.95 542.11 133.87 540.54 133.9 537.87 133.05 537.45 132.89 535.4 134.25 534.15 135.87 533.35 136.52 530.13 136.82 528.53 136.97 527.89 136.69 528.67 134.56 530.42 132.18 532.27 130.3 533.04 129.55 532.25 128.82 531.57 129.01 528.9 131.85 526.27 135.67 524.87 137.12 524.64 138.57 524.63 139.89 524.58 140.93 524.63 142.12 524.75 143.19 524.97 143.52 525.46 143.85 526.12 144.4 526.95 145.03 526.34 146.18 525.19 147.03 523.77 147.18 521.92 147.81 519.56 148.36 516.73 148.31 514.66 147.97 510.74 146.84 508.93 146.32 507.61 145.58 506.89 145.11 505.79 144.09 505.13 143.19 505.07 142.39 504.8 141.4 504.3 141.21 503.64 141.24 501.88 142.03 500.88 142.17 499.89 142.04 498.29 141.54 497.3 141.54 496.53 141.98 495.98 142.72 495.6 143.49 495.6 143.9 496.15 144.4 496.64 144.78 496.92 145.31 496.86 145.94 496.53 147.42 496.97 149.2 496.89 150.79 495.9 151.48 494.23 150.82 492.56 150.23 491.79 150.39 491.53 151.9 492.21 154.15 492.34 156.23 492.44 158.21 491.73 159.12 489.14 159.39 487.61 159.65 487.16 159.84 485.9 159.82 484.91 159.32 484.3 158.83 483.58 158.17 483.14 157.59 483.03 156.82 478.55 156.65 478.23 154.39 478.35 148.02 478.39 142.29 478.61 142.09 487.58 142.01 488.9 141.97 489.04 141.35 488.43 140.86 487.31 141.1 477 141.15 475.41 142.42 475.1 155.92 475.26 156.55 475.37 157.18 474.48 158.07 472.36 159.21 470.91 158.83 469.71 159.03 468.86 159.7 467.47 159.77 466.67 158.28 465.92 157.4 464.63 157.31 463.27 158.16 462.38 158.94 461.36 160.48 460.43 161.58 459.07 161.49 457.42 160.46 456.15 158.78 454.31 158.02 452.87 157.8 450.15 157.87 448.79 158.27 439.82 162.76 437.97 163.51 437.27 163.44 436.54 163.24 436.57 162.55 436.37 162.04 436.23 161.74 435.41 161.74 434.76 161.63 434.33 161.67 433.44 162.07 433.44 162.54 433.55 163.38 433.77 163.96 434.05 165.06 434.25 165.71 434.45 167.19 434.49 167.98 434.21 168.82 432.17 168.91 431.49 168.88 431.18 168.5 429.97 168.48 429.62 168.11 429.57 167.29 429.69 166.59 430.07 166.09 430.12 165.29 430.32 164.36 430.03 163.86 429.65 163.39 429.1 163.34 428.57 163.5 428.7 164.41 428.75 165.05 428.6 166.16 428.59 167.42 428.42 168.17 427.92 168.72 426.77 168.86 424.83 168.84 424.54 169.32 424.07 169.93 422.94 169.77 422.22 169.93 421.67 169.88 420.46 169.86 418.68 170.2 417.22 170.3 416.18 170.04 415.55 169.39 414.85 168.97 414.89 167.52 415.13 165.57 415.3 164.21 415.45 162.96 414.91 162.76 413.96 162.63 412.34 162.37 411.25 162.12 409.92 161.87 409.03 161.77 408.05 161.9 407.32 162.02 405.96 162.46 405.05 162.47 403.82 161.74 402.61 160.76 401.92 159.9 401.17 159.02 401.26 157.89 401.63 156.85 402.28 156.13 402.79 155.29 403.13 154.8 403.16 154.11 403.03 153.34 403.18 152.56 402.78 151.87 402.56 151.29 402.52 150.66 403.29 149.51 404.4 148.44 405.34 147.73 406.55 146.82 407.54 146.71 408.64 146.35 409.32 145.73 409.36 144.78 408.9 143.85 408.53 143.13 407.3 142.54 405.84 142.17 404.69 142.33 403.87 143.29 404.01 144.51 402.69 145.47 401.59 146.1 399.93 146.37 398.59 146.74 397.34 147.2 396.3 147.37 395.25 147.64 394.48 148.11 393.27 149.32 392.71 150.06 392.05 151.1 391.56 152.04 390.73 153.11 389.79 153.22 388.93 153.4 388.01 153.37 387.29 152.74 386.52 152.11 385.89 151.14 385.14 150.22 385.2 149.13 384.71 148.49 384.43 148.03 383.57 147.42 382.85 146.93 383.08 144.86 382.95 143.05 383.02 141.46 382.58 140.46 381.65 139.85 381.01 139.09 379.6 138.38 378.99 137.94 378.11 137.55 377.12 137.12 376.11 136.4 374.09 136.59 373.32 136.4 372.99 136.07 372.16 135.6 371.55 134.89 370.95 134.04 370.62 133.4 369.68 131.88 369.24 130.92 369.27 130.15 369.4 129.4 370.51 128.4 372.19 127.79 373.52 126.95 374.13 126.08 374.52 125.48 374.67 124.96 374.09 124.45 373.65 123.97 372.99 123.48 372.38 123.23 371.45 123.18 370.29 123.07 368.77 123.29 367.07 123.17 365.99 122.66 364.5 122.41 363.29 122.19 362.85 121.94 361.91 121.18 361.15 120.76 360.11 119.58 359.35 118.5 358.58 117.27 357.71 116.32 356.53 115.64 355.08 115.22 353.44 115.13 352.7 115.29 351.91 115.28 351.16 115.88 350.75 116.79 350.37 117.33 349.52 118.06 347.76 118.1 346.02 117.99 344.31 117.36 342.54 115.99 341.16 115.03 339.9 114.26 338.55 114.01 336.5 114.02 331.11 115.18 329.3 115.67 327.42 115.95 327.46 116.38 328.63 117.03 328.8 117.77 330.48 118.44 332.04 118.58 333.09 118.84 334.2 120.23 335 120.13 336.06 120.25 337 120.42 338.57 121.58 339.12 122.26 340.93 122.91 342.46 124.26 344.11 125.82 345.6 126.81 346.59 127.69 347.25 128.23 347.86 128.73 348.68 129.39 349.24 129.91 349.95 130.54 350.39 130.82 351 131.59 351.75 132.7 352.68 133.68 353.57 134.67 354.54 135.6 355.4 136.7 356.02 137.29 355.52 138.21 354.37 138.16 353.5 138.19 352.87 137.75 352.49 137.72 348.21 134.1 347.55 133.04 347.18 132.3 346.55 131.34 345.29 130.42 344.72 130.22 344.28 129.89 343.45 128.95 342.58 127.76 341.54 126.91 340.74 126.35 339.92 126.37 338.93 125.87 337.89 125.69 336.51 125.33 336.04 125.05 336.4 124.47 334.47 123.92 333.53 123.54 332.87 123.21 332.04 122.93 331.44 122.85 330.78 122.91 330.23 123.2 330.06 123.89 330.17 124.72 330 125.32 329.73 126.2 329.51 126.75 329.4 127.41 328.68 128.43 328.19 128.7 327.53 129.03 326.97 129.56 326.7 130.27 326.25 131.45 325.43 132.44 324.13 131.73 323.26 130.96 324.16 130.11 324.94 128.4 324.89 127.58 325.21 126.35 325.56 125.23 325.98 124.64 325.82 123.92 325.6 122.92 325.15 122.08 323.57 121.87 322.2 121.88 320.8 121.93 319.11 121.85 317.92 121.83 316.46 121.67 315.34 121.71 314.18 121.58 314.13 122.11 313.79 122.74 312.51 122.88 311.45 122.77 310.94 122.23 310.59 122.03 306.01 121.96 302.21 121.53 299.25 121.3 296.4 120.46 292.77 118.47 292.04 118 291.08 118.06 290.66 118.48 288.6 120.34 287.79 120.3 287.41 119.95 286.59 119.1 286.1 118.45 285.09 118.36 284.6 117.86 284.57 116.95 284.96 113.99 285.75 112.39 285.69 111.05 284.53 109.96 282.74 108.07 281.05 106.7 279.86 105.99 278.07 105.41 275.6 103.74 273.52 103.17 271.66 103.15 271.42 102.35 271.11 102.47 271.12 103.17 270.21 103.21 268.55 103.42 266.99 103.42 264.73 103.58 263.89 103.72 263.75 105.03 262.69 106.08 262.11 107.39 261.97 108.22 262.73 110.08 262.3 111.31 262.35 112.34 261.35 112.93 260.23 112.72 259.24 111.86 258 111.16 256.31 111.07 254.63 111.21 253.19 111.63 252.98 112.22 252.28 112.19 251.35 112.68 251.01 114.16 250.67 115.46 251 116.91 251.74 118.28 252.21 119.15 252.93 119.91 254.37 120.78 256.37 121.61 256.55 121.61 257.1 121.78 257.65 122.11 258.26 124.33 258.59 124.97 259.31 125.52 260.46 126.06 263.38 127.05 266.47 128.27 268.45 129.47 270.82 130.38 272.2 131.89 272.86 132.55 274.85 135 276.83 136.76 278.48 138.49 279.58 139.56 280.41 140.72 281.18 141.57 282.18 142.64 283.22 143.49 283.44 143.93 283.72 144.59 284.78 145.09 286.17 145.33 287.33 145.53 288.26 145.45 289.35 145.23 290.39 145.17 291.47 144.75 292.6 144.84 294.88 145.4 295.59 145.83 296.08 146.22 295.86 146.57 294.9 146.82 294.61 147.3 294.15 148.4 292.93 149.78 292.45 150.3 291.9 150.74 290.99 151.08 290.88 151.35 291.24 151.68 291.12 152.69 291.01 153.02 291.18 153.58 291.19 154.33 290.55 154.83 290.11 155.12 290.33 155.48 291 155.62 291.4 156.26 291.47 157.19 291.51 157.5 292.79 157.56 293.87 157.3 294.1 156.32 294.32 155.3 294.9 155.12 295.4 155.23 295.99 155.77 296.34 157.64 295.79 159.16 295.35 160.15 293.85 160.38 292.99 159.46 291.98 159.43 290.88 159.97 291.09 161.19 291.24 162.55 291.39 163.23 293.73 163.51 295.72 163.65 297.02 163.04 298.3 162.23 299.44 161.64 300.45 161.16 301.06 160.9 302.01 160.74 302.83 161 304.22 161.79 305.5 162 307.26 162.61 308.79 162.95 310.53 163.84 311.14 163.77 311.8 163.51 312.98 163.64 314.14 164.47 314.91 164.57 315.68 165.04 315.74 166.23 315.51 166.63 314.33 167.09 313.75 166.97 311.17 167.59 309.58 167.84 308.45 168.37 307.16 169.75 307.11 171.01 306.54 171.7 306.26 172.31 306.7 173.37 307.76 174.8 307.74 174.81 307.29 175.15 307.3 176.04 307.47 176.5 307.63 177.3 307.63 177.8 307.3 177.88 306.75 177.74 306.09 177.58 305.32 177.91 304.99 178.21 304.88 178.76 304.82 179.25 304.27 179.94 303.83 180.54 303.28 181.15 302.73 181.53 302.18 181.7 301.68 181.59 301.35 180.99 301.19 180.82 300.64 180.57 300.09 180.71 299.37 180.93 298.71 181.34 298.32 181.89 297.55 182.41 296.83 182.96 296.39 183.24 295.84 183.76 295.46 184.39 295.35 184.86 295.4 185.49 295.46 186.23 295.46 186.92 295.46 187.44 295.4 187.66 295.57 187.99 295.29 188.46 294.96 188.71 294.3 189.06 292.49 188.62 290.4 189.3 288.3 189.93 286.64 190.32 284.16 190.68 282.65 190.83 280.45 190.64 279.44 190.48 277.82 190.26 275.94 189.63 274.8 190.04 274.13 190.76 274.79 191.48 274.96 192.17 272.75 193.57 271.98 193.87 271.27 194.12 270.27 194.45 269.39 194.89 269.17 195.44 269.12 195.99 269.28 196.51 269.5 197.06 269.56 197.53 269.5 197.86 269.12 198.05 268.84 197.94 268.73 197.67 268.57 197.45 268.4 197.26 268.18 196.73 268.18 196.18 267.96 195.55 267.9 194.64 268.35 193.93 268.57 193.38 268.68 193.13 269.28 192.86 269.84 192.67 270.49 192.47 270.82 192.33 270.99 192.17 270.66 191.81 270.01 189.36 268.97 187.37 267.58 187.17 264.69 187.15 263.06 186.88 262.27 185.96 262.36 184.06 261.95 182.69 261.58 181.71 260.72 180.58 260.14 179.63 260.14 178.63 260.22 177.18 260.47 175.54 260.81 174.71 261.12 173.27 261.24 172.2 261.17 169.01 260.7 168.7 259.65 168.88 258.26 170.38 257.99 170.62 257.71 170.76 256.61 171.67 253.69 175.63 252.31 175.69 251.05 175.46 249.91 175.1 249.96 174.54 250.02 173.75 250.29 172.44 250.25 172.06 250.33 171.14 251.04 170.57 251.7 170.04 251.76 169.58 251.87 169.06 252.2 168.42 252.42 167.87 252.69 167.32 252.86 166.75 251.72 166.12 250.39 166.34 249.57 167.09 248.55 166.37 249.48 165.78 250.05 164.74 251.23 163.99 250.73 163.3 249.56 163.11 248.87 162.78 248.71 161.76 248.45 160.42 248.4 160.15 248.34 159.76 248.34 159.32 248.34 158.8 248.45 158.36 249.28 158.28 250.11 158.2 251.37 158.09 251.65 157.98 251.98 157.73 252.09 157.34 251.98 156.88 252.15 156.63 252.31 156.08 252.53 155.5 252.7 154.76 253.03 154.07 253.3 153.53 253.56 152.54 252.9 151.82 251.49 151.56 250.42 151.19 249.02 150.71 247.89 150.9 246.22 151.01 245.06 150.32 243.64 149.79 243.21 149.09 243.06 148.34 242.93 147.42 242.83 146.11 243.43 144.9 242.94 144.27 241.35 143.65 240.02 143.15 238.63 142.72 237.29 142.18 235.99 141.79 234.31 141.62 232.98 141.13 231.16 140.5 229.75 140.95 228.88 141.76 227.23 141.93 225.36 140.37 224.42 139.47 223.37 139.15 222.12 139.42 220.23 139.79 218.46 140.03 217.22 140.35 215.94 141.01 213.95 141.51 213.07 142.04 212.48 143.03 211.88 143.73 212.25 144.75 212.19 145.58 212.25 146.38 209.59 147.93 209.05 148.74 208.23 148.88 207.34 149.05 206.63 149.29 205.91 149.7 205.47 150.26 205.25 150.78 204.92 151.3 204.42 151.66 203.6 152.12 202.93 152.18 202.16 152.51 201.67 152.84 201.17 153.14 200.56 153.55 199.85 153.94 199.19 154.4 198.64 155.09 198.2 155.64 197.92 156.38 198.14 157.18 198.03 158.09 197.81 158.28 197.54 158.33 197.26 158.17 196.82 157.81 196.1 157.12 195.49 156.49 194.89 155.86 194.56 155.56 194.17 155.12 193.57 154.82 192.91 154.71 191.86 154.57 190.7 154.29 190.04 154.13 189.1 153.91 188 153.69 186.84 153.66 185.47 153.72 184.7 153.74 183.87 153.85 183.26 153.99 182.33 154.1 180.95 154.4 179.68 154.84 179.13 155.26 178.3 155.45 177.37 156.03 176.65 156.58 176.05 157.32 175.49 157.79 175.05 157.79 174.72 157.7 174.34 157.51 173.95 157.1 173.84 156.71 173.95 156.03 173.73 155.56 173.51 155.23 172.79 154.92 172.13 154.54 171.47 154.1 170.81 153.55 170.26 152.89 169.71 152.43 169.32 152.29 168.38 152.51 167.5 152.65 166.62 152.62 166.07 152.56 165.52 152.4 164.8 152.12 163.81 152.18 162.87 152.59 162.1 152.84 161.28 152.84 160.72 152.92 160.01 152.95 159.46 152.97 158.96 152.95 158.19 152.87 157.48 152.81 156.15 152.56 155.05 152.43 154.22 152.56 153.73 153.36 153.06 154.27 152.57 154.82 151.74 155.45 151.19 156.16 150.81 156.99 150.64 157.81 150.48 158.59 150.31 158.94 150.26 159.6 150.64 160.31 151.41 160.86 152.24 161.39 153.29 161.74 154.11 162.1 155.05 162.57 155.99 163.01 156.92 163.42 157.81 163.89 158.63 164.52 159.46 165.07 160.06 165.4 160.17 165.57 160.62 165.87 161.28 166.22 162.16 166.5 162.82 166.72 163.43 166.94 164.31 167.1 165.24 167.29 166.07 167.57 166.68 167.9 167.23 168.18 167.45 168.48 167.45 168.83 167.23 169.28 167.06 169.66 166.46 169.85 166.07 170.29 166.13 170.9 166.29 171.56 166.62 172.16 166.79 172.57 166.79 172.9 166.9 173.48 167.23 174.11 167.45 175.1 167.78 175.74 168.39 175.96 168.99 176.06 170.04 176.26 170.86 176.83 171.69 177.49 172.13 178.02 172.41 178.67 172.85 179.53 173.34 180.02 174.01 180.55 174.89 180.96 176.04 181.15 176.82 181.18 178.03 181.26 179.85 181.51 180.62 181.7 181.45 181.89 182.33 182.25 182.82 182.8 183.49 183.49 183.87 184.12 184.7 184.97 185.41 185.63 185.85 186.01 186.51 186.65 187.12 187.31 187.73 187.72 188 187.91 188.61 188.21 189.33 188.68 190.26 189.18 190.92 189.5 191.48 189.81 192.02 190.19 192.58 190.82 192.8 191.4 193.02 192.31 192.85 193.19 192.69 194.01 192.58 194.7 192.47 195.77 192.47 196.43 192.47 196.87 192.8 197.42 193.02 197.86 193.57 198.08 194.51 198.36 195.44 198.79 196.43 199.12 197.26 199.23 197.59 199.32 198.2 199.59 199.19 199.87 200.24 200.11 201.01 200.39 201.45 200.78 201.61 201.4 201.67 201.87 201.51 202.67 200.84 203.28 200.46 203.47 199.91 203.63 199.41 203.82 198.97 203.99 198.69 204.02 198.25 204.16 197.59 204.29 196.88 204.54 196.16 204.79 195.44 204.98 195.11 204.98 194.34 205.15 193.57 205.26 192.47 205.59 191.7 205.72 191.2 205.8 190.76 206.05 190.04 206.25 189.88 206.52 189.93 207.04 190.26 207.57 190.76 208.14 191.09 208.47 190.76 208.5 190.37 208.58 190.1 208.99 189.66 209.27 188.99 209.52 188.39 209.65 187.45 209.76 186.41 210.09 185.58 210.34 184.59 210.56 183.65 210.72 182.33 210.89 181.39 210.86 180.4 210.95 179.35 211 178.47 211 177.59 210.94 177.15 210.94 176.76 210.81 176.6 210.64 176.76 210.45 176.98 210.12 177.59 209.49 178.25 208.91 179.08 208.14 179.57 207.84 180.23 207.48 180.62 207.04 180.95 206.79 181.67 206.47 182.22 206.13 182.66 205.67 183.15 205.37 183.49 204.9 183.54 204.43 183.87 204.02 184.38 203.84 184.56 203.42 184.58 203.13 184.61 202.86 184.41 202.48 184.16 201.97 184.07 201.6 183.82 201.13 183.41 200.57 183.1 200.64 182.76 200.94 182.85 201.6 183.01 202.72 182.69 202.93 182.07 202.45 181.06 202.4 180.62 202.37 180.34 202.72 180.01 203.19 179.46 203.36 178.86 203.36 177.76 203.47 177.31 203.93 176.76 204.46 176.05 205.09 175.44 205.31 174.89 205.48 174.06 205.81 173.4 206.44 173.48 205.52 172.78 205.28 172.57 204.93 172.26 204.38 171.47 203.82 171.31 202.65 170.88 202.51 170.45 201.82 169.85 201.28 169.54 200.64 168.18 200.65 168.17 200.06 166.84 199.49 165.51 199.36 164.68 199.28 163.69 198.86 162.94 199.2 162.56 199.9 161.56 199.6 160.21 199.19 159.58 199.33 159.01 197.88 159.07 197.27 159.16 196.32 157.76 195.21 156.33 194.07 155.21 193.61 153.81 193.72 152.74 193.46 152.18 193.3 151.8 193.13 151.52 192.97 151.3 192.56 151.08 192.2 150.64 192.2 149.93 192.31 149.1 192.31 148.77 191.98 148.88 191.65 149.49 191.29 150.15 191.04 150.64 190.74 151.08 190.33 150.86 190.03 150.37 189.86 149.6 189.7 148.77 189.5 147.83 189.42 146.78 189.42 145.63 189.75 144.91 190 144.58 189.89 144.25 189.59 143.2 189.62 142.65 189.62 142.05 189.62 141.11 189.53 140.17 189.73 139.57 189.83 139.01 190.05 138.79 190.58 138.41 191.04 137.86 191.43 137.14 191.95 136.54 192.5 135.76 192.94 135.16 193.19 134.55 193.43 133.89 193.65 133.56 193.68 133.29 193.46 133.18 192.91 133.12 192.47 133.12 192.03 132.9 191.68 132.46 191.32 132.18 190.69 132.35 189.89 132.68 189.26 132.68 188.9 132.35 188.19 132.13 187.72 131.74 186.98 131.35 186.32 131.47 185.55 131.74 184.75 131.74 184.25 131.47 183.46 131.19 182.5 131.08 181.75 130.97 180.93 130.8 179.78 130.64 178.84 130.42 178.32 130.03 178.04 128.66 177.52 127.99 177.38 127.06 177.19 126.17 177.14 125.4 177.03 124.91 176.94 124.03 176.89 122.59 176.72 121.82 176.72 121.05 176.72 120.33 176.56 119.73 176.64 119.34 176.83 118.79 177.49 118.41 178.43 118.19 179.5 118.19 180.63 118.08 181.89 117.97 183.13 117.86 184.47 117.97 185.3 117.85 186.01 117.63 186.81 117.75 188.27 117.64 189.34 117.97 190.69 117.97 191.48 117.8 191.89 117.36 192.53 116.81 193.16 116.64 193.71 116.64 194.18 116.59 194.62 116.48 194.87 116.59 195.52 116.48 196.13 116.48 196.51 116.15 197.01 115.98 197.45 116.2 197.97 116.59 198.55 117.08 199.12 117.25 199.48 117.08 199.65 116.64 199.62 116.31 199.43 115.87 199.15 115.54 199.12 115.27 199.29 115.16 199.68 114.83 200.09 114.55 200.55 114.11 201 113.56 201.32 112.95 201.27 112.67 201.02 112.67 200.56 112.51 200.03 112.12 199.7 111.35 199.65 110.53 199.76 110.14 200.03 110.03 200.69 110.03 201.21 109.92 201.82 109.7 202.34 109.48 202.81 109.37 203.52 109.37 204.32 109.26 204.87 108.99 205.31 108.76 205.78 108.65 206.3 108.43 206.44 108.05 206.25 107.72 205.89 107.28 205.5 106.95 204.95 106.78 204.43 106.45 203.85 106.23 203.03 106.12 202.26 105.79 201.46 105.46 201.05 104.96 200.55 104.46 200.09 104.02 199.73 103.69 199.65 103.53 199.37 103.31 199.18 102.7 198.71 102.15 198.19 102.04 197.95 101.82 197.48 101.76 196.95 101.49 196.27 101.21 195.72 100.66 195.14 100.28 194.62 99.51 194.23 98.79 194.12 97.96 194.18 97.25 194.21 96.47 194.43 95.87 194.51 95.48 194.34 95.54 194.07 95.98 193.87 96.48 193.63 97.14 193.24 97.52 192.75 97.63 192.31 97.63 191.76 97.63 191.02 97.52 190.33 97.14 189.83 96.64 189.48 96.8 189.31 97.03 189.23 97.41 189.39 98.24 189.75 98.73 190.19 99.01 190.58 99.34 190.82 99.51 190.74 99.62 190.58 99.67 190.19 99.62 189.59 99.45 189.23 99.23 188.79 98.9 188.32 98.35 187.88 97.74 187.64 97.41 187.47 97.25 187.36 97.03 187.25 96.7 187 96.42 186.81 96.25 186.34 96.26 185.91 96.48 185.46 96.81 184.91 96.8 184.39 96.58 184.01 96.2 183.57 96.09 183.1 96.14 182.91 96.64 182.77 97.03 182.69 97.58 182.47 97.74 182.06 97.8 181.59 97.85 181.09 98.18 180.68 98.35 180.38 98.79 179.94 99.12 179.61 99.67 179.33 100.06 179.01 100.06 178.73 99.73 178.37 99.51 178.07 99.17 177.79 98.9 177.91 98.68 178.62 98.46 179.12 97.96 179.53 97.41 179.91 96.81 180.41 96.25 180.79 95.76 180.87 95.32 180.76 95.15 180.3 94.93 179.75 94.38 179.53 93.99 179.5 93.17 179.45 92.18 179.53 91.07 179.69 90.3 179.83 89.48 179.99 88.65 180.16 87.77 180.24 87.33 180.41 86.94 180.76 86.72 181.26 87.11 181.67 87.38 182.19 87.49 182.91 87.27 183.65 86.72 184.39 86.39 185.24 86.34 185.82 86 185.99 85.73 185.99 85.18 185.96 84.24 185.85 82.92 185.8 81.93 185.71 81.05 185.69 79.94 185.63 78.73 185.63 77.41 185.68 77.02 185.63 76.8 185.44 76.69 185.08 76.69 184.78 77.02 184.53 77.3 184.25 77.79 183.82 77.96 183.43 78.07 183.02 78.13 182.5 77.96 182.11 77.41 181.95 77.02 182.09 76.47 182.36 75.87 182.69 75.31 183.21 74.76 183.76 74.16 184.34 73.77 184.89 73.16 185.24 72.78 185.49 72.39 185.54 71.57 185.38 70.85 185.19 70.35 184.97 69.75 185.05 69.14 185.08 68.7 185.02 67.76 185 66.72 184.97 66.22 184.86 65.51 184.72 64.74 184.48 63.85 184.48 63.08 184.5 62.15 184.5 61.32 184.47 60.44 184.42 59.72 184.36 59.06 184.23 58.73 183.79 59.28 183.54 59.61 183.07 59.72 182.52 59.83 182.2 60.22 182.11 60.44 182.03 60.77 181.67 60.6 181.45 60.22 181.09 60.16 180.77 60.32 180.38 60.21 180.02 60.16 179.61 59.61 179.31 58.67 179.09 57.73 178.95 56.85 179.23 56.14 179.23 55.75 179.14 55.31 179.31 54.82 179.47 53.93 179.72 52.89 180.05 52.06 180.05 51.62 179.78 51.46 179.39 51.46 178.95 51.46 178.51 51.07 178.65 50.68 178.79 50.08 178.98 49.47 179.14 49.19 179.33 49.69 179.58 50.3 179.94 50.68 180.43 50.68 180.79 50.41 181.29 50.41 182 50.68 182.3 51.56 182.63 52 182.99 52.39 183.81 52.56 184.37 51.77 185.74 51.95 186.67 52.1 187.29 51.8 187.64 51.26 187.73 50.96 187.58 50.57 186.87 50.59 186.37 50.59 185.74 50.58 185.41 50.54 184.91 50.43 184.41 50.06 184.18 49.66 184 48.59 184.15 48.37 183.79 48.04 183.71 47.38 183.71 46.94 183.9 46.83 184.37 46.72 184.8 46.66 185 46.27 184.72 45.94 184.28 45.45 183.9 44.84 183.62 44.13 183.43 43.57 183.18 43.41 182.91 43.24 182.47 43.02 181.92 42.86 181.56 42.09 181.37 41.48 181.04 40.76 181.07 39.88 181.09 39.17 181.09 38.06 181.26 37.51 181.2 37.68 180.74 38.12 180.38 38.56 179.94 38.84 179.47 38.84 178.98 38.67 178.51 38.45 178.12 38.12 177.77 37.68 177.52 37.35 177.22 36.91 176.78 36.35 176.36 35.75 176.23 34.98 176.31 34.15 176.5 33.44 176.84 32.99 177.3 32.55 177.91 31.95 178.35 30.9 178.51 30.19 178.68 29.25 178.78 28.31 178.98 27.76 179.28 27.15 179.67 26.44 179.83 25.55 179.94 24.84 179.94 24.78 179.67 25.11 179.2 25.55 178.78 25.89 178.45 26.18 177.89 26.26 177.63 26.5 176.34 26.48 176.11 26.31 175.87 25.83 175.64 25.55 175.34 25.17 175.08 24.97 175.1 24.69 175.17 24.52 175.04 24.11 175.01 23.94 175.23 23.43 175.55 21.43 175.79 18.53 176.07 17.56 176.15 16.81 176.15 16.36 176.26 16.1 176.41 15.48 176.52 14.77 176.62 13.12 177.05 12.28 177.27 11.1 177.59 9.57 178.27 8.67 178.77 7.12 179.13 6.39 179.39 6.1 179.5 5.8 179.62 4.29 178.9 3.45 178.43 3.33 178.37 1.04 177.09 1 176.77 1 176.54 1.08 176.34 1.15 176.17 1.58 175.14 2.01 174.76 3.34 173.9 3.86 173.71 4.03 173.49 4.29 173.24 5.11 172.99 5.99 172.44 Z M 44.02 174.28 43.68 174.36 43.19 174.58 43.02 174.72 43.02 174.99 43.02 175.19 43.24 175.49 43.41 175.98 43.57 176.48 43.57 176.97 43.79 177.33 44.07 177.58 44.4 177.69 44.84 177.58 45.12 177.58 45.56 177.52 45.78 177.41 45.72 177.16 45.72 176.89 45.67 176.7 45.72 176.51 46.11 176.37 46.11 176.06 45.94 175.79 45.89 175.51 45.72 175.35 45.56 174.88 45.23 174.52 44.84 174.39 44.51 174.36 44.02 174.28 Z M 190.98 199.35 191.31 199.18 191.64 198.82 192.03 198.68 192.14 198.41 191.97 198.25 191.86 198.08 191.86 197.89 191.97 197.7 192.03 197.48 191.92 197.25 191.86 196.98 191.64 196.73 191.31 196.43 191.09 196.43 190.92 196.54 190.59 196.6 190.15 196.68 189.77 196.81 189.38 197.06 189.22 197.4 189.11 197.67 189.11 197.89 188.94 198.16 188.94 198.38 189.22 198.58 189.55 198.74 189.77 198.94 190.15 199.24 190.54 199.32 190.98 199.35 Z M 40.43 175.51 40.38 175.71 40.32 175.98 40.21 176.39 40.32 176.67 40.6 176.89 40.87 177.25 40.93 177.5 41.15 177.61 41.37 177.44 41.54 177.16 41.59 176.81 41.48 176.61 41.26 176.23 41.15 175.95 41.15 175.76 40.93 175.54 40.65 175.51 40.43 175.51 Z M 188.5 200.06 188.72 199.98 188.83 199.78 188.72 199.59 188.61 199.4 188.44 199.15 188.17 198.96 187.84 198.69 187.56 198.6 187.45 198.8 187.29 198.99 187.29 199.26 187.45 199.62 187.67 199.87 187.95 199.9 188.22 199.98 188.5 200.06 Z" fill-rule="evenodd"/>
<path d="M 752.21 26.6 755.32 24.7 758.13 22.98 759.32 19.65 760.2 17.18 761.76 15.01 766.42 13.76 768.86 13.11 772.5 13.79 775.6 15.18 777.64 15.37 781.05 15.68 784.61 15.26 789.07 15.89 791.99 16.31 794.03 17.17 797.43 17.93 798.19 18.87 799 19.87 798.02 21.33 796.82 22.86 795.34 24.39 788.12 27.47 786.85 29.28 779.61 32.12 776.56 33.74 774.4 34.53 771.9 33.63 771.05 34.11 769.99 35.41 772.43 37.77 772.33 40.01 772.44 41.69 772.12 43.85 771.98 47.15 771.31 48.34 769.54 49.49 764.66 49.94 761.66 49.64 757.49 48.34 754.83 47.96 748.02 47.83 741.75 47.6 740.79 49.44 738.54 50.86 734.45 51.88 731.82 52.2 728.76 52.28 725.66 52.51 722.56 50.79 718.17 49.94 716.16 49.09 714.3 48.46 709.77 50.12 706.66 53.76 705.1 55.9 702.74 58.21 700.73 59.51 699.37 60.8 696.13 62.2 694.2 62.1 691.77 63.06 689.89 62.54 687.27 62.75 685.86 64.07 683.95 64.81 682.19 64.68 680.39 64.62 676.63 56.69 675.15 53.4 672.76 48.09 673.34 47.93 675.63 47.89 684.67 47.11 686.92 46.79 688.55 46 689.7 44.77 690.56 43.7 692.18 42.59 693.91 41.72 695.77 40.93 697.45 39.94 701.51 36.81 702.9 35.59 706.49 31.03 708.6 28.93 710.56 27.35 712.38 26.2 713.96 25.33 720.8 23.43 722.28 23.39 724.38 23.59 725.91 24.11 728.06 25.1 730.31 26.53 731.89 27.16 733.28 27.52 734.47 27.68 738.44 27.99 741.98 28.5 745.95 28.46 748.63 27.87 752.21 26.6 Z M 733.58 38.77 733.97 39.65 736.04 41.82 736.8 42.36 738.16 43.55 739.57 43.55 740.61 42.72 741.34 41.57 741.51 40.41 741.63 37.03 740.92 36.39 735.53 36.56 734.51 37.01 733.58 38.77 Z" fill-rule="evenodd"/>
</g>
</svg>