<?xml version="1.0"?>
<svg xmlns="http://www.w3.org/2000/svg" version="1.2" baseProfile="tiny" width="800" height="502" viewBox="0 0 800 502" stroke-linecap="round" stroke-linejoin="round">
<g id="flagstafflake">
<path d="M 778.2 295.24 778.76 296.8 779.36 298.5 778.75 299.05 779.8 301.89 786.21 310.95 787.83 316.26 789.65 318.88 790.32 321.29 792.04 325.18 793.09 327.23 795.2 331.77 797.39 341.54 798.91 360.23 799 369.08 798.23 374.31 796.79 378.77 791.52 386.35 785.77 391.94 783.09 393.35 782.13 394.98 778.58 397.6 776.38 398.31 771.02 398.8 761.44 399.15 754.55 400.21 753.01 400.7 752.44 402.4 740.75 409.55 736.73 412.87 732.32 415.85 729.54 416.98 718.91 420.23 709.72 421.57 705.22 421.71 700.53 421.07 696.22 419.8 687.22 415.83 685.69 415.55 684.16 415.83 683.1 417.32 681.86 418.24 679.46 418.59 677.26 419.23 676.11 420.71 674.86 423.47 673.33 425.6 670.36 427.65 668.16 428.14 664.33 428 660.6 426.94 657.34 425.24 650.26 422.83 638.86 418.51 622.78 413.83 617.13 411.49 613.4 409.01 609.38 407.1 604.02 405.97 589.94 404.34 579.89 404.12 576.82 404.54 576.44 405.18 576.82 405.61 577.59 405.89 583.72 406.39 603.82 408.59 609.28 410.15 615.02 412.48 618.28 414.4 624.41 417.02 632.35 420.13 648.15 424.88 656.09 428.78 656.29 429.34 655.62 429.63 654.85 429.48 653.51 428.63 649.39 426.79 639.72 423.6 633.5 423.53 630.05 422.12 628.52 422.12 624.69 421.12 612.25 414.39 606.12 411.49 602.29 410.43 593.1 409.79 582.28 408.3 578.45 408.44 575.19 410.14 572.89 410.28 570.31 408.72 567.25 408.65 561.12 409.07 558.91 409.85 558.63 410.42 559.29 412.82 558.91 413.25 556.71 414.03 550.49 414.1 545.12 413.32 539.76 413.24 536.03 414.52 524.54 416.29 515.44 418.2 499.92 425.2 494.46 428.39 489.01 432.49 482.49 438.15 475.5 444.88 469.85 451.25 468.03 453.87 466.21 455.78 465.44 455.78 465.16 455.28 465.44 454.08 469.66 447.57 473.21 443.67 482.3 435.32 493.8 425.69 499.93 422.09 514.29 416.14 532.68 411.26 553.27 406.88 563.03 405.32 569.35 404.97 574.05 405.82 574.72 405.46 574.81 404.26 574.05 403.27 572.51 402.7 564.66 402.84 558.92 403.55 539.86 407.23 529.32 409.84 522.05 411.97 511.03 415.93 498.49 421.31 491.5 425.41 477.71 437.02 466.69 447.5 464.87 450.33 463.34 454.22 459.6 458.4 458.84 458.61 457.78 461.01 458.36 462.08 461.13 463.14 460.65 464.27 457.69 467.31 451.94 471.21 446.58 474.04 436.14 477.86 429.44 483.81 425.41 485.86 416.22 489.04 407.41 490.95 394.49 491.66 384.91 492.93 373.14 496.83 362.12 499.58 355.81 500.86 348.62 501 348.72 500.43 349.97 499.65 359.44 497.82 365.57 496.19 375.34 492.65 382.71 490.67 390.85 489.32 405.6 488.55 411.34 487.63 420.82 485.29 424.55 483.88 426.95 482.03 427.91 479.77 432.6 477.15 442.94 472.83 445.91 470.71 451.08 467.74 455.87 465.55 456.92 464.77 456.54 463.63 455.87 463.21 453.57 463.14 451.46 463.85 444.09 467.88 437.1 472.27 430.97 475.67 419.86 479.7 413.74 480.9 409.14 481.54 399.95 483.38 396.88 483.52 382.62 486 365.77 490.24 354.94 491.94 344.89 493.28 329.57 493.64 328.14 494.2 327.47 495.19 325.93 494.98 321.44 492.64 309.95 490.45 298.46 486.27 293.19 484.93 289.36 484.85 287.83 485.28 286.43 485.11 284.55 484.88 283.81 481.81 283.43 481.32 282.09 480.75 280.55 480.89 279.21 481.53 276.92 481.6 276.15 481.39 273.66 475.16 270.98 470.06 270.79 466.66 269.83 465.6 267.63 464.96 266.29 464.18 265.81 463.12 267.91 461.28 268.11 460.15 267.34 459.16 265.91 458.52 261.88 452.57 259.87 451.65 258.44 451.23 257.58 451.44 257.38 453.71 258.15 457.17 257.77 461.78 258.92 465.1 262.07 471.47 261.88 473.81 259.68 479.4 258.72 481.03 254.89 481.88 238.43 481.88 235.36 481.1 220.23 475.65 209.13 468.15 196.3 455.83 194.19 453.14 186.05 444.58 178.29 437.07 176.47 435.37 173.31 433.6 163.07 426.1 157.71 423.2 150.91 419.94 147.75 417.04 143.82 411.02 141.23 407.91 139.42 405.15 137.5 403.23 124.38 395.38 117.39 390.99 112.22 386.18 93.45 375.06 90.67 372.8 89.23 370.53 87.03 365.37 84.64 361.54 73.05 347.1 67.58 339.6 63.75 335.78 59.92 330.33 58.01 325.8 55.8 317.66 53.89 314.26 51.2 311.99 45.46 308.53 24.86 293.24 18.45 286.37 16.91 284.11 14.71 282.06 9.63 272.21 6.75 264.07 3.11 255.01 1 239.58 1 236.75 2.15 232.01 2.43 213.67 3.48 209.14 6.93 201.71 10.28 196.04 16.31 182.38 16.79 179.55 15.92 175.59 16.4 172.19 18.32 168.22 21.66 156.12 21.66 153.15 19.08 143.8 19.17 140.9 20.7 137.43 23.57 133.18 23.96 131.48 22.8 125.25 22.42 124.76 20.98 124.33 19.45 124.4 20.12 120.37 20.79 119.31 23.86 118.67 25.2 118.1 26.06 116.33 25.96 113.92 23.28 110.81 21.65 105.57 21.26 100.83 20.5 97.93 13.5 89.29 9.86 83.28 6.7 74.07 7.08 71.1 7.75 68.69 6.79 64.09 7.46 62.39 8.89 60.2 12.15 57.37 15.31 55.17 19.14 53.12 28.34 49.51 36.1 47.52 42.13 46.6 57.56 44.97 60.62 45.04 65.6 48.23 67.9 48.79 70.11 48.65 77.96 45.32 80.16 43.48 81.12 41.29 80.54 39.02 78.44 36.4 77.38 33 77.29 31.24 76.13 27.77 76.04 26.07 74.51 24.72 74.03 22.95 73.26 22.67 72.88 21.61 72.97 21.04 75.08 20.12 75.08 16.01 75.56 10.85 76.9 9.43 78.62 6.74 81.3 5.47 97.97 2.28 105.06 1.29 143.29 1 169.92 2.34 180.93 3.19 187.83 3.97 191.38 4.18 204.41 6.02 209.1 7.01 213.03 8.22 221.37 8.64 239.09 10.34 254.41 12.39 264.38 14.23 278.27 20.25 282.87 21.03 287.47 20.82 288.14 21.17 288.9 22.16 292.74 23.44 306.63 27.4 315.82 29.17 338.91 34.91 346.09 37.53 359.22 40.86 368.99 43.9 379.05 46.59 382.21 46.73 382.21 45.6 380.58 44.32 375.41 42.7 360.18 39.3 357.88 39.15 355.39 37.67 349.83 36.89 341.4 33.78 338.34 33.35 334.79 32.07 329.43 31.51 322.24 28.75 317.64 28.53 313.72 26.62 313.43 25.99 314.96 25.7 317.93 26.06 324.16 27.33 327.61 28.68 362.29 37.39 376.75 40.36 391.98 44.61 398.11 46.17 406.06 48.72 406.83 48.72 416.5 51.41 420.81 53.11 446.87 61.39 466.98 69.68 472.06 71.52 472.92 71.59 483.94 75.56 489.59 77.89 499.84 82.78 514.01 88.16 528.96 95.46 531.35 97.09 535.47 99 541.69 103.88 548.02 104.59 552.04 106.58 558.36 110.68 560.18 112.67 569.95 117.34 574.06 120.46 579.24 122.23 589.96 127.47 595.52 132 599.44 134.19 604.13 135.4 614.48 141.35 644.83 161.25 650.58 164.93 658.91 171.94 666.47 177.54 670.87 181.22 678.44 186.88 684.09 190.57 692.51 197.51 704.48 208.7 712.71 217.2 720.08 223.92 726.59 231.29 732.91 238.3 734.25 239.29 737.6 242.76 744.58 251.89 750.52 258.62 766.79 280.08 777.02 294.52 778.2 295.24 Z"/>
</g>
</svg>