<?xml version="1.0"?>
<svg xmlns="http://www.w3.org/2000/svg" version="1.2" baseProfile="tiny" width="800" height="388" viewBox="0 0 800 388" stroke-linecap="round" stroke-linejoin="round">
<g id="woodwardreservoir">
<path d="M 174.18 7.72 177.66 8.88 182.06 8.65 184.61 9.58 184.61 12.13 182.29 16.99 182.52 20.01 184.14 23.25 188.31 27.19 190.63 29.05 187.19 32.39 184.59 34.58 179.05 39.25 178.59 43.19 179.98 45.5 184.14 46.43 187.39 47.36 189.47 48.75 192.02 50.37 197.58 50.83 204.3 51.99 210.09 51.53 214.72 50.6 222.02 48.76 229.32 48.04 233.49 46.65 236.27 44.74 238.01 43.17 238.35 44.91 236.79 48.56 232.97 51.17 231.93 52.56 228.8 54.47 224.63 56.04 221.68 57.43 218.9 59.17 218.03 62.47 215.77 64.56 213.34 66.29 209.86 67.51 205.87 67.51 202.91 67.51 200.13 68.73 199.09 71.68 199.09 74.29 197.7 75.51 195.61 75.68 193.88 74.81 192.14 73.77 190.23 74.29 188.32 76.55 186.58 78.29 185.71 80.38 185.71 82.11 186.23 84.37 184.84 85.94 182.41 87.85 180.85 89.76 179.11 91.5 178.59 93.41 179.98 96.02 181.89 97.06 181.93 97.15 183.02 99.4 185.38 101.6 186.64 102.27 187.66 102.6 189.76 102.94 191.87 102.94 193.39 102.6 196.51 101.06 198.44 99.72 198.86 99.26 202.56 99.15 205 98.63 207.43 97.59 209.17 96.72 212.12 96.02 214.73 95.5 216.46 94.46 217.85 92.37 219.24 89.94 219.76 86.81 219.76 84.2 220.63 81.94 221.5 81.24 223.59 81.42 224.8 82.64 226.19 83.85 228.28 85.07 230.19 84.89 231.93 83.68 233.14 81.07 235.57 78.64 237.14 78.29 237.83 79.33 238.01 81.24 238.01 83.68 237.83 86.29 237.83 88.2 236.96 89.94 235.05 92.54 233.32 94.46 233.66 96.02 234.01 97.76 233.49 99.32 232.62 100.37 231.93 102.45 233.14 104.02 235.23 104.02 237.14 104.36 238.88 104.36 240.79 103.5 240.44 101.76 240.27 100.19 240.96 98.28 242.52 97.24 243.74 96.54 245.82 95.5 247.56 93.41 249.13 91.15 249.3 89.07 248.78 86.81 249.65 85.42 251.56 84.37 253.99 83.85 255.38 82.29 255.73 80.55 255.73 78.12 255.73 75.51 255.9 73.25 256.6 71.68 258.16 70.81 259.72 69.6 260.42 67.34 261.29 65.95 262.68 64.9 264.59 63.17 265.98 61.25 268.06 60.38 270.84 58.82 274.49 57.78 272.93 58.99 272.58 61.25 272.75 63.34 274.84 65.6 276.58 66.64 277.27 67.51 274.14 68.9 272.93 70.29 272.23 72.73 271.71 75.68 270.32 78.29 268.24 80.03 266.85 81.59 266.68 82.87 266.5 84.2 265.99 86 265.8 86.63 265.98 88.55 268.06 89.41 269.97 89.94 270.84 90.98 270.5 92.72 269.11 94.46 267.89 97.06 265.63 99.15 263.02 101.76 262.33 104.02 262.68 105.76 264.41 106.62 266.5 105.58 269.28 104.54 271.02 104.54 271.89 106.45 271.71 108.54 271.02 110.97 270.84 112.88 269.63 114.62 268.41 116.53 267.54 117.75 267.89 119.32 268.93 120.88 270.15 122.79 271.71 124.7 272.89 124.7 273.32 124.7 273.8 124.7 275.53 124.01 276.92 122.62 277.27 120.71 278.31 118.62 277.97 116.71 277.79 114.45 278.49 113.4 280.92 113.58 282.14 115.49 283.7 117.58 286.83 118.79 289.95 119.66 291.34 120.53 292.56 122.44 293.95 123.49 294.43 123.6 296.21 124.01 298.64 124.41 299.34 124.53 302.12 124.01 303.09 123.52 304.2 122.97 305.66 122.11 307.15 121.23 308.37 119.66 308.54 118.1 307.15 115.84 304.2 114.27 301.59 113.4 299.51 111.67 298.29 109.58 297.08 107.67 295.51 105.23 292.91 101.93 291.69 99.85 292.91 99.85 295.69 100.37 297.77 101.24 298.64 102.63 300.2 104.02 304.03 105.41 310.8 106.45 313.41 106.28 316.01 105.23 318.45 104.02 319.66 103.67 320.53 104.19 321.75 105.58 324.18 106.28 326.44 106.1 329.22 105.06 331.82 103.84 335.13 101.76 337.38 101.06 339.12 100.02 340.34 97.76 341.55 95.15 341.38 93.59 339.47 92.02 336.17 90.11 333.21 87.68 332.17 84.72 331.48 80.38 330.61 76.72 333.21 77.07 335.3 76.55 336.52 75.86 337.91 76.2 339.12 77.07 340.34 76.72 341.73 76.55 343.47 76.9 345.03 76.9 346.59 77.77 347.29 79.16 347.29 80.9 347.98 83.16 349.2 84.89 351.28 86.46 353.37 87.5 353.89 88.89 355.63 90.46 357.71 92.2 362.58 94.11 365.7 94.8 368.31 94.11 370.57 92.54 372.48 90.63 373.87 87.68 373.52 84.2 372.65 81.07 374.56 82.29 377 84.37 378.39 85.94 378.54 86.14 378.9 86.58 379.56 87.42 380.99 89.24 385.16 92.89 388.46 94.63 391.94 96.02 393.66 96.12 394.89 96.19 398.19 94.46 399.76 91.85 402.36 87.5 401.84 84.37 401.84 81.07 402.36 76.55 402.71 73.77 403.4 72.2 403.93 70.12 403.93 67.68 403.06 65.6 402.36 63.69 402.36 62.12 402.36 60.67 402.36 60.38 401.8 59.75 400.97 58.82 400.8 57.78 401.15 58.05 403.06 59.51 404.97 61.08 406.88 63.17 410.01 66.64 411.4 69.08 413.13 71.34 415.74 72.73 419.04 73.42 421.82 72.55 423.56 72.2 421.99 74.64 421.47 76.38 420.6 77.94 419.91 80.38 418.87 81.59 418.52 83.68 417.48 84.72 416.61 86.11 416.61 89.07 417.13 92.02 417.65 94.98 419.04 97.93 420.78 100.19 423.73 101.76 424.4 102.16 424.57 102.26 428.08 104.36 430.68 105.06 432.94 105.06 435.55 105.06 437.46 105.58 439.54 105.76 442.5 105.06 445.1 104.89 447.01 104.71 449.1 105.76 452.22 106.62 454.66 106.62 457.96 108.02 460.04 107.84 463.17 108.71 465.78 109.23 468.21 108.88 468.9 110.28 470.12 111.84 472.38 112.88 474.81 112.36 478.81 111.49 481.93 111.32 485.06 109.75 486.62 107.32 488.36 104.19 489.75 101.76 491.49 99.67 492.88 97.59 494.96 96.54 497.92 95.85 498.96 94.28 499.31 92.72 499.3 90.81 500.31 89.94 503.68 89.61 505.45 89.9 506.35 90.05 502.84 90.86 502.03 92.37 501.68 95.04 500.87 96.89 500.52 99.09 499.94 101.41 497.74 104.42 495.89 106.39 494.04 110.68 493.46 113.81 493.58 115.89 493.16 117.56 491.72 119.7 491.3 120.04 489.62 121.04 488.1 121.57 487.26 122.04 486.83 122.04 484.31 123.25 478.41 123.72 478.24 123.92 475.88 124.55 471.06 124.96 468.05 125.65 464.11 125.65 460.63 125.65 457.16 126.35 453.45 127.74 451.6 128.44 451.14 129.36 451.14 131.22 449.75 132.84 448.59 134.23 448.59 135.39 448.59 137.01 450.67 139.1 454.38 142.34 456.46 145.12 458.55 148.83 460.17 151.38 464.11 154.4 468.28 157.18 472.22 158.34 476.15 157.87 479.63 156.71 482.41 156.25 483.1 157.18 481.95 159.5 479.63 161.81 477.54 163.44 475.46 165.99 471.98 169.23 468.97 171.78 467.81 173.63 467.12 175.26 468.05 177.89 469.32 179.08 471.58 180.82 472.1 182.73 472.8 186.21 472.62 188.12 471.93 189.69 471.75 191.08 472.97 192.64 475.4 194.21 477.49 195.94 479.4 196.47 482.87 195.6 486.17 194.03 487.74 193.34 489.13 193.68 488.43 195.07 488.26 196.81 489.65 198.2 491.91 198.9 495.38 199.42 497.47 199.07 500.42 198.73 503.37 199.77 507.02 199.25 512.06 198.38 514.84 196.29 516.4 193.51 518.84 190.38 519.88 188.47 519.36 186.56 519.7 184.82 520.92 186.9 522.31 189.16 524.22 192.29 526.48 193.34 529.26 193.34 531.69 191.6 537.08 190.55 541.07 189.69 542.99 190.21 545.94 190.73 548.2 191.25 544.9 191.77 542.12 192.64 539.68 194.03 537.95 195.07 536.73 197.16 536.04 198.9 535.17 200.12 533.78 201.33 532.56 202.55 530.65 203.59 530.13 204.81 530.13 206.55 532.56 208.46 534.82 210.02 538.47 210.89 540.73 211.94 543.33 213.85 546.98 215.41 550.98 215.59 554.63 216.98 556.71 218.37 560.88 218.72 563.83 219.41 565.22 220.45 564.18 222.02 563.83 224.63 563.83 227.58 564.7 230.36 567.13 232.28 570.96 233.49 575.82 232.8 576.86 232.28 578.65 231.3 578.78 231.23 580.16 231.06 581.55 231.23 583.81 231.75 585.38 231.75 588.85 231.58 592.15 231.06 594.06 229.32 594.93 227.58 595.98 228.45 597.71 230.02 599.8 231.93 603.98 233.91 600.06 246.41 603.77 246.94 608.71 233.99 610.68 233.85 613.23 233.5 616.24 233.27 619.95 230.84 621.33 227.94 622.26 225.39 623.77 226.32 625.62 226.78 626.78 228.17 628.17 228.98 629.56 229.22 630.83 228.75 632.45 228.75 633.03 230.61 634.77 232.58 637.78 233.39 641.03 233.39 642.88 233.04 643.69 233.62 643.92 234.89 644.73 236.17 646.24 236.28 647.97 235.82 649.13 235.13 649.6 236.28 648.9 237.33 647.97 237.68 645.89 237.68 644.38 238.26 642.88 239.07 641.26 239.88 640.91 241.04 641.84 241.96 643.92 242.2 646.24 241.27 648.21 241.15 649.13 240.46 650.75 240.57 652.38 240.23 654 238.95 655.04 238.37 655.85 238.83 656.2 240.34 658.05 240.69 660.37 240.57 661.41 239.41 662.45 239.3 663.84 239.76 665.81 239.53 665.93 238.49 665.46 237.56 666.27 237.21 667.78 237.91 668.94 237.56 669.4 236.63 670.79 236.4 671.83 236.86 672.99 236.17 673.57 234.43 673.57 233.27 674.15 233.97 674.27 235.71 674.38 237.56 675.43 238.72 677.05 238.95 679.25 238.83 681.22 238.83 682.95 237.56 684 237.1 683.85 238.04 683.94 239 684.72 239.43 685.41 238.91 686.54 238.65 687.24 238.39 687.93 237.87 689.15 238.39 690.37 238.65 690.28 239.35 689.24 239.78 688.02 239.95 687.41 240.39 687.59 241.17 687.93 241.61 688.19 242.21 688.71 242.65 688.98 243.26 688.63 243.87 688.63 244.65 689.58 245.17 690.45 245.78 691.06 246.65 691.67 247.34 692.45 247.34 692.97 246.99 693.58 247.34 694.19 248.04 695.58 248.04 697.16 248.24 698.47 248.39 699.04 247.81 699.62 247.23 700.93 247.66 702.52 247.81 704.26 247.23 704.84 247.81 703.82 248.82 703.1 249.98 701.51 250.41 700.64 251.86 699.33 252.59 699.15 253.13 699.04 253.46 698.61 254.76 698.32 255.77 698.76 256.79 699.62 257.51 701.07 257.51 701.94 256.64 702.95 255.92 703.97 255.77 704.4 256.21 703.24 257.22 702.09 258.67 700.35 259.25 699.91 259.25 698.32 259.25 696.44 257.95 695.28 257.37 694.99 256.06 694.41 255.34 693.4 255.77 692.1 256.5 690.21 255.92 688.62 255.63 686.59 255.63 685.15 255.34 683.84 255.34 681.67 255.34 680.66 255.05 679.35 255.19 678.34 255.77 678.34 256.64 678.69 257.76 679.04 258.71 679.56 259.58 680.08 260.28 680.34 261.32 680.08 262.02 679.04 262.45 678.51 263.15 677.39 263.41 676.34 263.41 675.21 263.84 674.52 264.45 673.48 264.97 673.13 266.1 672.61 267.15 671.65 268.1 670.78 268.8 670.18 269.58 669.05 270.19 668.18 271.23 667.4 271.75 666.96 273.06 667.57 273.93 668.87 274.45 670.52 275.23 671.65 275.84 672.52 275.84 674.08 275.4 676.34 274.01 678.69 273.06 681.56 272.45 683.64 271.93 685.03 271.93 686.85 272.1 687.9 271.67 689.2 271.58 690.85 272.27 692.33 272.97 694.32 274.53 695.63 276.88 696.24 278.36 697.71 280.53 699.1 281.75 698.15 282.01 697.71 282.53 698.15 283.57 699.45 284.79 700.41 286.09 701.1 287.66 701.1 289.4 700.75 290.96 700.49 292.7 700.32 294.61 700.32 296.61 700.41 297.91 700.41 299.48 700.06 301.13 699.62 302.26 698.93 302.96 699.62 304.26 701.71 304.87 703.71 305.56 705.62 306 707.53 306.61 709.18 308.08 710.74 309.04 713.09 309.39 714.48 308.95 715.43 308.52 717 307.82 718.3 307.48 719.34 308.08 720.91 308.17 722.38 307.82 723.77 306.52 724.47 305.82 726.55 305.65 728.03 305.04 729.07 304.17 729.47 303.77 730.38 302.87 731.5 301.65 733.16 300.52 735.15 299.91 737.24 299.57 738.09 299.47 740.19 299.22 743.41 298.78 746.53 299.04 750.96 298.52 755.22 298.52 758.61 299.04 763.21 300.17 765.47 300.7 767.9 300.87 770.33 301.57 772.94 301.48 774.5 300.87 775.98 300.09 777.37 300.61 777.64 300.81 778.41 301.39 779.54 302.09 779.63 302.78 779.11 303.56 777.89 304.61 777.02 305.48 776.16 306.26 776.16 306.87 776.68 308.17 778.33 308.95 779.98 309.74 781.14 309.71 782.38 309.86 783.53 310.08 784.55 310.91 785.28 311.39 786.93 312.87 788.49 313.73 790.4 314.43 792.66 314.43 794.75 313.91 796.22 313.91 797.09 314.25 797.35 315.38 798.22 315.99 798.91 316.34 798.98 316.9 799 317.12 797.44 317.12 795.87 317.47 795.53 318.51 794.74 319.03 793.35 318.86 791.79 319.21 791.53 320.51 791.53 321.9 791.18 323.38 791.27 324.77 791.96 325.64 792.22 327.21 791.36 328.67 789.52 326.72 788.58 325.73 788.92 324.51 789.36 322.34 789.36 320.08 788.66 317.99 786.84 317.12 784.75 315.91 782.5 314.34 781.11 313.04 780.06 312.52 778.5 311.65 777.46 310.86 776.33 310.43 774.42 310.17 773.81 310.34 772.77 310.86 772.24 311.82 771.64 313.04 770.94 313.56 769.81 313.61 768.37 313.42 766.48 312.84 764.17 311.82 762 311.1 759.1 310.81 757.22 310.66 756.2 309.5 755.05 308.64 755.05 307.04 754.47 305.3 752.87 304.14 751.14 302.99 750.27 302.55 747.81 302.12 743.9 302.41 741.15 302.26 737.82 302.55 735.5 302.7 734.27 303.07 733.06 304.12 732.13 305.56 731.84 307.48 730.8 308.75 729.76 309.39 728.95 310.55 727.44 311.65 724.55 313.21 721.59 314.55 720.32 315.7 719.16 316.98 717.07 317.62 714.82 318.02 713.54 318.08 712.5 319.36 711.98 319.76 711.08 319.09 710.82 318.89 710.99 317.73 710.24 316.63 708.62 315.7 706.95 314.99 703.65 313.6 701.39 311.86 698.27 309.77 696.35 308.38 694.27 306.64 693.23 304.73 693.23 302.47 693.05 301.08 692.53 299.17 692.53 297.26 693.57 295 695.14 293.95 696.01 293.08 696.35 291.87 697.74 289.26 697.57 287.7 696.01 287 692.36 286.65 689.75 288.04 686.1 288.56 683.15 288.22 681.07 286.3 678.81 283 676.55 280.39 673.42 280.05 670.99 280.22 669.6 281.44 670.29 283.7 672.21 284.74 673.94 284.91 676.03 288.74 675.85 290.82 677.42 292.91 677.59 296.04 676.37 297.6 674.81 296.04 672.38 296.73 671.51 297.43 669.43 296.91 666.3 296.39 664.04 296.91 662.65 298.82 663 300.21 662.48 302.12 661.78 303.86 661.43 302.3 660.56 300.39 658.83 298.65 657.26 298.3 655.01 298.3 652.57 296.56 650.31 294.3 649.27 291.69 648.06 289.26 647.88 286.83 648.06 285.26 646.67 284.39 644.75 284.39 643.02 283.35 641.97 281.26 638.85 281.26 637.11 283 635.87 285.02 635.72 285.26 635.49 285.36 632.07 286.83 628.42 289.43 625.47 291.87 624.08 294.3 623.21 297.26 622.52 295.34 622 293.61 620.95 292.74 619.56 292.74 617.3 293.95 615.39 295.17 612.79 296.56 611.22 297.27 610.88 297.43 610.88 295.69 612.44 293.95 614.7 292.74 616.61 291.69 619.56 290.3 621.13 288.22 623.91 287 626.69 285.78 628.25 284.74 628.94 282.31 628.42 280.22 626.34 278.83 622.69 277.44 618.17 277.26 614.87 277.09 611.57 274.83 610.53 272.05 608.96 270.31 607.23 268.75 605.14 265.79 603.93 264.05 601.49 264.57 600.45 265.62 597.96 268.61 597.71 268.61 597.54 268.75 596.45 267.94 596.02 267.41 596.45 265.6 600.49 253.9 600.91 253.57 601.33 251.89 600.66 251.69 600.24 251.36 599.81 251.42 598.38 250.89 597.96 250.89 597.54 251.36 597.54 251.69 594.89 260.4 594.14 261.53 593.5 262.49 590.72 263.01 588.64 261.97 586.73 262.84 584.82 265.27 583.77 268.05 583.08 270.31 582.73 273.44 581.34 274.48 579.08 273.79 575.78 275 571.96 276.92 569.7 279.52 566.92 280.92 562.75 282.83 558.23 283.52 554.59 284.22 551.28 285.61 547.29 285.44 545.2 285.26 544.33 285.78 544.16 287.35 544.86 288.39 545.72 288.91 546.59 289.78 547.64 291.17 547.64 292.91 547.81 294.13 548.68 294.65 549.89 296.39 551.46 299.34 553.89 301.6 555.8 303.34 556.5 305.43 555.8 306.12 554.41 305.08 552.85 304.04 550.76 304.04 548.68 303.86 549.2 302.12 548.68 300.21 547.11 298.99 544.16 298.82 542.25 299.69 540.51 299.52 539.3 298.13 536.52 297.6 534.66 298.53 532.58 300.39 530.73 300.62 528.18 301.54 524.7 303.4 521.69 305.48 521.46 307.57 518.68 308.03 516.83 309.66 516.36 311.28 515.44 312.9 513.12 313.13 513.12 311.05 513.12 309.66 511.73 307.34 511.03 304.79 509.88 301.54 509.41 298.3 508.95 296.21 509.88 295.05 511.5 293.66 513.58 292.27 516.13 290.19 516.36 287.87 514.74 286.25 511.73 285.09 508.95 286.01 505.94 287.64 504.55 289.49 503.16 291.11 499.68 291.11 495.28 291.81 498.76 289.26 499.45 285.78 498.53 282.07 498.29 279.76 501.07 279.52 502.93 278.13 504.09 276.05 503.39 273.5 503.39 271.18 504.78 270.25 507.56 270.02 510.77 269.66 511.73 269.56 514.05 268.67 514.74 268.4 517.06 265.62 517.52 261.91 517.29 259.13 515.44 257.74 514.28 255.19 514.51 253.33 514.97 251.48 514.51 249.62 510.8 249.16 509.18 250.09 507.56 251.71 504.09 252.64 500.84 253.56 498.29 255.42 495.98 254.72 496.21 252.87 496.67 250.78 496.67 248.93 497.83 248.93 499.68 247.77 502.46 246.61 503.85 244.52 502.23 242.9 499.92 241.74 497.6 240.82 493.89 241.51 489.26 240.35 484.86 238.5 481.62 235.02 476.98 232.47 473.04 231.78 470.26 232.47 467.02 232.94 465.86 231.78 466.79 230.62 466.56 228.53 465.4 226.45 461.69 225.52 457.52 224.82 454.28 224.82 449.18 224.36 445.01 225.52 441.08 226.91 440.35 227.3 438.07 228.53 436.44 231.31 435.52 233.4 434.59 235.49 434.59 236.86 434.59 237.17 434.59 237.8 434.36 239.39 434.36 239.42 434.3 239.83 434.13 241.05 433.66 244.76 433.66 247.07 435.52 249.62 437.14 251.01 439.69 251.94 441.31 252.64 441.77 254.03 442.23 256.11 444.09 259.36 445.48 260.98 445.25 262.14 443.16 260.98 440.15 258.43 437.6 257.27 435.29 256.81 433.2 256.58 432.04 258.2 431.81 260.05 432.04 262.37 430.88 263.99 430.19 266.31 429.03 268.86 429.26 270.95 429.26 273.73 427.87 275.35 425.56 276.98 425.79 279.29 426.48 281.61 425.56 283.46 423.47 283.7 422.54 281.61 421.15 280.68 420.69 279.06 420.69 276.98 421.62 273.96 421.39 272.34 420 271.18 419.76 268.4 420.92 266.54 421.85 264.23 422.78 260.52 423.47 258.2 424.4 255.65 425.09 253.8 424.63 250.78 422.08 248.47 418.84 247.31 416.52 247.07 416.06 245.68 417.22 244.52 418.37 243.13 418.61 240.12 418.37 236.88 416.99 233.86 413.97 232.47 409.8 232.47 407.72 230.62 406.1 227.6 406.79 225.52 407.49 223.43 407.95 222.74 408.65 220.88 407.02 219.26 404.71 218.33 401.93 217.64 399.15 218.33 396.37 218.33 393.59 217.41 391.74 215.55 390.81 213.93 388.03 212.77 385.25 212.07 383.16 213 382.01 215.32 382.24 216.71 384.32 218.1 385.48 219.96 385.71 221.81 386.18 224.36 387.33 225.52 387.33 227.84 386.64 229.92 385.25 231.31 384.32 232.94 382.93 232.7 380.62 231.31 378.3 230.15 377.84 228.76 377.6 225.75 377.37 223.9 376.21 222.27 373.43 220.19 372.04 218.1 370.89 216.02 368.57 216.48 367.64 217.64 367.5 217.96 366.72 219.72 363.94 221.81 361.85 223.9 361.59 224.04 359.3 225.29 355.6 225.75 353.28 225.05 353.28 222.74 352.82 220.88 351.2 219.26 351.2 216.94 349.57 215.32 348.4 214.14 348.24 213.98 347.26 213 347 213 344.48 213 343.32 213.7 342.86 215.55 341.7 216.25 340.58 217.36 340.31 217.64 338.8 219.14 338.69 219.26 338.58 219.27 333.82 219.49 330.97 218.83 330.81 218.8 328.8 217.39 328.49 217.17 325.48 216.25 322.94 214.86 322.24 212.77 322.7 210.68 323.63 209.06 324.56 206.74 324.33 204.89 323.17 203.27 321.55 201.64 320.16 199.79 320.39 197.94 320.16 196.31 319.23 194.69 316.22 192.84 312.74 191.91 310.66 192.6 308.33 195.72 305.38 197.05 303.87 197.05 302.43 197.39 300.6 198.47 299.44 199.62 297.7 199.33 295.68 198.18 294.81 195.86 296.84 193.83 296.84 192.38 296.84 191.22 297.7 189.48 299.44 188.33 302.34 187.75 303.5 186.01 304.94 184.27 304.94 182.53 304.36 180.79 302.92 179.34 300.31 179.05 297.13 178.76 293.36 178.18 290.47 177.89 288.15 177.6 285.25 178.18 282.07 177.32 279.46 176.16 276.57 174.71 273.96 174.42 271.64 174.71 271.06 175.58 271.06 177.32 271.64 179.05 272.22 180.79 271.06 181.66 269.62 181.66 265.56 180.5 263.25 179.34 260.35 178.47 257.46 177.6 256.3 176.74 256.59 175 258.61 173.84 260.93 173.55 263.25 172.68 264.69 171.23 264.69 169.2 264.12 167.46 263.25 165.73 261.51 163.99 260.35 165.44 258.9 166.88 255.72 167.17 252.82 166.6 249.35 165.44 246.16 164.28 242.69 163.99 241.53 164.57 241.24 166.6 241.56 169.59 242.11 171.81 243.85 173.84 246.45 175.58 247.9 177.03 248.48 180.21 250.22 182.82 252.82 185.72 253.69 188.61 253.4 191.22 251.37 191.8 249.06 189.77 247.32 187.75 244.71 186.88 240.95 185.14 236.9 183.69 235.16 182.53 234.29 181.37 234.29 179.92 231.68 178.76 229.37 177.6 227.05 177.6 226.18 179.63 223.87 180.79 220.97 180.79 218.65 181.66 218.08 183.69 221.55 187.17 224.74 188.9 225.89 191.51 225.31 193.83 223.87 195.28 223.58 196.73 224.74 199.33 227.92 199.05 228.5 197.6 230.82 197.6 233.42 198.18 236.03 198.18 238.05 199.62 239.21 201.65 238.34 203.68 239.79 206.29 242.11 207.16 246.74 208.9 249.06 210.92 252.82 211.79 256.3 212.08 258.61 210.92 260.06 210.06 262.67 209.77 265.27 211.21 269.91 210.63 273.67 207.74 274.83 205.13 274.83 203.1 275.7 202.23 276.28 204.26 277.72 206.29 278.59 208.32 277.72 211.21 275.7 212.66 273.09 216.43 271.06 220.49 271.06 222.8 273.09 223.96 275.41 224.83 278.3 226.57 281.2 227.44 285.83 227.73 292.17 226.02 295.98 225.06 301.76 224.08 306.16 222.92 308.94 222.69 310.33 224.77 312.65 228.02 316.12 230.8 317.97 232.65 317.74 234.74 317.28 236.83 318.67 239.84 321.45 241.46 324.92 243.32 327.94 242.62 331.41 241 332.57 241.23 333.96 243.78 335.12 245.63 334.65 246.56 334.88 248.18 336.51 250.27 340.91 252.12 344.38 253.51 346.47 253.28 348.55 252.82 349.98 249.82 349.98 244.89 352.87 243.73 357.79 243.44 362.72 246.34 362.14 249.53 363.59 252.43 363.57 255.08 363.99 255.88 363.91 256.15 363.23 256.09 361.8 255.35 361.29 255.22 359.61 254.95 358.51 254.95 353.42 255.14 350.41 255.83 346.93 256.3 345.08 257.92 345.08 260.47 346.24 263.95 347.86 267.65 348.09 270.2 349.71 272.29 349.71 272.98 348.09 273.22 345.77 271.83 344.38 269.74 342.53 267.19 340.91 264.87 338.36 263.48 334.42 262.09 330.25 260.93 327.7 261.63 326.31 264.18 324.69 267.42 322.84 269.51 320.52 269.97 318.44 269.74 317.74 268.12 318.9 266.73 319.83 265.34 320.75 263.71 319.83 262.09 317.05 262.55 316.12 264.87 316.12 266.73 315.43 269.74 314.27 271.36 311.26 273.45 308.01 275.3 305.7 275.53 303.38 276.69 301.06 276.23 300.37 273.91 298.98 271.36 298.05 268.58 295.97 266.96 292.26 266.49 289.48 267.19 287.4 269.04 286.24 271.36 286.47 273.22 288.41 274.56 288.9 274.9 290.51 275.37 290.93 275.63 292.19 277.1 292.53 278.31 292.45 280.58 292.03 282.32 292.36 283.12 293.65 285.04 294.11 287.82 294.35 290.14 292.96 292.45 291.1 294.54 288.55 295.7 286.01 295.7 283.86 296.56 283.35 296.77 282.51 297.91 281.76 301.38 281.92 302.32 282.18 302.65 282.6 302.92 283.69 303.19 285.38 303.32 286.73 304.06 287.82 304.26 290.1 304.39 292.67 305.26 294.75 304.74 297.7 305.09 299.79 306.3 302.4 306.65 303.96 305.09 304.48 301.61 306.04 298.31 307.43 295 309 294.83 310.04 296.74 310.39 298.31 310.39 301.09 311.08 304.04 314.04 307.17 317.68 307.69 320.81 306.65 323.77 304.04 326.72 301.96 332.1 300.05 334.19 298.66 337.84 300.39 340.97 304.22 345.48 306.3 350.69 308.22 354.34 309.95 354.34 310.82 351.04 310.48 345.83 310.13 342.01 310.65 340.1 311.69 339.23 314.13 339.58 316.39 337.66 318.65 334.88 319.69 332.28 320.21 329.67 319.34 328.11 318.3 325.33 318.3 322.9 319.52 321.51 321.08 319.25 322.12 316.82 321.95 315.74 321.16 310.67 321.53 307.41 321.53 303.07 321.53 301.26 322.25 304.51 324.79 306.69 326.96 308.11 326.27 309.48 325.41 309.5 325.4 310.72 328.35 310.71 328.39 310.2 330.79 310.2 332.7 310.56 333.34 311.07 334.26 312.98 335.48 313.01 335.55 313.85 337.57 316.63 338.26 319.06 338.09 320.97 338.78 321.72 340.02 322.31 340.69 322.73 340.96 324.42 341.09 326.61 340.76 328.13 340.16 329.64 338.88 331.08 337.01 331.5 336.68 332.42 336.21 333.52 336.01 334.11 336.07 334.53 336.27 336.98 338.08 339 338.88 340.1 339.08 344.43 338.44 348.42 336.7 351.2 334.61 352.59 333.92 353.29 334.44 352.24 336.35 351.2 340.52 350.85 343.48 352.94 346.26 355.54 349.91 358.85 352.86 362.49 353.21 366.32 351.3 369.1 350.95 373.44 351.3 377.78 348.87 380.56 346.43 381.61 346.43 381.08 348 381.08 350.08 383.17 352.17 386.12 352.86 391.16 354.43 395.33 354.43 397.24 353.56 401.41 355.82 406.28 357.38 410.79 358.25 413.57 357.73 414.96 357.73 418.44 359.3 422.78 359.82 426.43 360.51 428.51 361.56 431.12 360.86 430.95 362.08 428.34 363.12 425.39 363.82 422.26 364.16 420.35 365.03 417.74 365.55 416.01 366.95 414.79 368.34 413.05 370.07 411.49 371.46 409.58 372.51 408.36 372.16 406.8 370.94 404.71 369.9 403.15 368.68 401.59 367.99 400.54 368.16 398.98 369.38 398.63 371.29 399.67 373.72 400.89 375.81 401.59 377.38 402.28 379.11 403.15 380.33 402.45 381.2 399.85 379.64 396.72 375.98 395.5 374.42 394.81 372.86 393.42 372.16 390.64 372.16 387.86 371.99 385.25 371.99 383 372.16 380.91 371.64 380.74 370.6 382.47 370.07 385.08 369.73 384.04 369.21 382.3 369.03 379.69 368.86 377.26 369.73 375.35 369.9 373.44 369.55 371.53 370.25 369.62 370.25 367.01 370.42 365.1 371.46 363.59 372.37 363.36 372.51 361.73 372.86 360.93 373.03 359.37 373.2 358.5 374.77 358.15 376.16 358.67 378.24 359.71 380.68 361.1 382.24 360.93 383.98 359.02 384.33 356.76 382.94 354.33 379.98 351.72 377.9 349.46 377.03 347.9 376.33 346.86 375.29 348.07 374.42 349.81 373.2 351.38 371.46 352.59 370.94 352.24 370.25 350.16 369.9 348.6 369.9 345.64 368.51 343.9 368.16 341.82 368.68 339.04 368.86 336.09 369.73 334.18 371.12 331.57 372.33 327.92 373.2 326.28 373.2 326.01 373.2 324.62 372.51 322.36 372.51 321.14 371.29 321.07 371.22 320.45 370.6 318.54 370.07 316.83 370.32 316.11 370.42 312.81 370.07 310.03 370.6 307.42 371.46 303.94 372.51 300.12 372.51 298.04 371.29 297 370.42 295.26 370.07 293.52 369.73 291.78 370.07 290.74 371.29 289.7 373.38 289.52 374.94 289 376.68 287.96 378.94 287.27 380.33 287.16 380.46 286.43 381.3 286.01 385.64 285.85 385.8 284.53 387 281.99 387 280.36 386.54 279.9 385.38 281.06 382.13 281.06 380.05 280.13 377.73 278.74 375.87 276.89 374.48 275.27 373.56 275.04 372.63 276.2 371.47 276.2 369.85 275.73 366.6 275.27 364.52 274.85 360.72 274.85 356.66 275.14 353.62 275.1 353.43 274.56 351.16 273.83 349.6 273.55 348.99 271.52 347.54 269.06 347.1 267.04 347.25 265.3 348.26 262.98 349.86 261.1 351.3 260.23 353.19 258.78 354.64 258.64 356.66 258.35 358.69 258.93 360.87 258.35 363.91 257.05 365.94 255.45 367.82 254.73 369.99 252.7 371.59 249.81 372.6 248.36 372.02 249.23 369.56 251.11 366.37 251.83 362.89 251.83 360.43 250.53 358.26 247.78 356.66 245.61 355.65 244.02 354.06 243.15 351.3 242.71 348.55 243.15 347.1 245.32 347.1 247.49 347.83 249.37 347.83 252.41 348.26 254 347.97 253.43 345.65 252.68 345.43 249.5 343.98 245.73 343.11 243.18 343.19 242.08 341.19 241.07 340.12 240.31 339.58 238.46 338.58 236.94 337.98 235.93 337.71 233.65 337.58 232.81 338.11 230.98 339.08 228.73 339.95 226.64 340.82 224.73 341.51 222.65 341.86 221.95 343.42 221.26 344.81 218.3 345.51 215 346.21 212.05 346.55 211 345.34 211.53 343.77 213.26 341.69 215 339.95 214.83 338.21 214.83 336.47 215 335.08 214.31 334.04 212.92 333.69 212.05 332.47 212.05 330.91 213.09 328.13 213.78 325.69 213.26 324.13 211 322.91 209.44 322.56 207.01 322.22 204.06 322.74 201.97 323.61 200.41 325 199.54 326.56 199.03 327.15 198.32 327.95 198.13 328.05 196.58 328.82 194.5 330.21 194.15 331.95 193.11 333.34 189.98 333.34 188.07 333.34 184.42 334.21 181.64 335.25 177.98 334.25 177.82 334.21 174.17 330.21 172.09 327.08 170 325.17 168.44 324.13 165.83 324.13 162.94 323.76 160.75 323.7 159.73 323.5 155.97 321.24 151.93 320.82 149.33 321.35 147.76 323.08 146.2 324.82 144.98 325.34 143.94 326.39 142.07 328.19 135.41 328.48 129.33 323.84 129.05 317.36 128.71 316.49 128.38 316.16 127.88 308.49 126.72 304.14 124.7 301.25 120.64 297.19 115.14 294.58 111.38 294.29 110.33 296.64 104.14 297.48 99.22 300.38 97.48 303.56 97.19 306.46 93.13 311.39 90.82 311.97 89.27 310.09 86.48 304.34 85.3 302.33 82.71 294.58 85.03 288.21 86.76 283.57 89.08 280.67 93.13 278.36 94.8 274.31 97.81 270.18 99.62 267.28 102.52 267.64 107.7 270.83 109.04 271.63 109.97 271.96 111.66 271.83 112.75 271.62 113.68 271.16 114.86 270.22 115.95 267.81 116.12 266.47 115.78 265.14 114.77 264.13 111.38 260.68 105.3 259.23 100.95 259.23 95.04 259.13 91.33 258.19 90.19 257.94 84.16 256.63 82.42 260.97 83.58 264.16 83 267.06 81.84 271.4 81.26 274.59 82.42 278.07 86.8 280.06 86.63 280.93 86.38 281.33 83.26 284.41 83.1 285.28 83.01 287.49 81.67 290.83 80.41 294.71 80.15 295.11 79.73 295.25 78.55 295.11 77.12 294.38 76.11 294.38 75.01 294.71 73.66 295.45 68.52 289.51 65.92 288.64 63.02 287.77 58.68 290.67 56.94 294.73 55.49 297.33 54.17 298.97 49.71 295.83 48.7 295.29 47.86 295.16 46.76 294.62 46.34 294.29 45.33 292.95 44.07 288.94 43.82 288.8 43.4 286.8 43.23 286.6 42.56 283.92 43.4 282.92 45.34 282.38 47.45 282.05 47.62 281.92 48.29 281.92 50.4 280.58 55.78 274.79 56.88 274.46 57.21 274 58.68 271.98 56.36 270.53 51.73 269.66 47.96 270.82 42.17 271.11 39.37 269.27 39.79 268.47 40.63 267.6 42.32 266.4 43.5 266.2 50.16 265.87 50.92 265.94 51.84 265.8 54.63 264.87 55.81 264.27 56.61 263.29 56.87 262.56 56.87 261.89 56.61 261.22 55.85 260.55 53.75 258.08 47.09 254.6 45.65 253.44 44.2 252.28 42.75 247.36 42.73 247.3 41.59 243.88 43.33 243.3 47.09 243.3 50.57 245.04 55.2 247.36 58.97 245.62 56.94 241.85 50.86 238.08 47.32 233.57 46.73 232.76 45.05 231.56 44.04 231.43 42.69 231.42 40.58 231.76 39.99 231.89 36.62 233.76 26.93 231.75 26.93 231.08 26.25 229.94 25.41 229.28 24.57 229.07 24.4 228.94 23.14 229.27 22.29 229.94 20.77 230.74 19.93 230.61 19.09 230.07 18.92 230.07 18.08 229.41 17.83 229.41 12.35 224.59 11.34 223.25 10.92 222.38 10.25 221.71 10.08 220.57 10.08 219.04 10.5 218.23 15.31 213.49 16.58 212.55 16.58 212.35 18.09 211.22 18.26 210.01 18.09 209.68 17.51 209.21 14.72 210.54 7.55 217.03 5.19 217.16 3.25 216.02 1.65 214.08 1.91 212.54 1.66 210.54 1.83 205.32 2.08 205.19 2.09 202.18 1.59 193.49 1.42 193.29 1.17 190.28 1 190.14 1.17 189.94 1.17 188.6 2.01 186.6 2.69 185.93 2.69 185.73 3.53 185.06 4.12 184.79 10.28 184.73 11.29 184.93 12.38 184.4 12.38 183.73 11.71 182.59 11.12 180.92 10.7 178.04 10.45 177.91 11.3 176.71 13.4 175.37 16.36 174.17 29.42 172.84 31.87 170.43 34.31 168.49 34.06 167.29 31.87 166.29 28.16 166.68 25.89 167.42 24.54 168.42 21.84 167.22 21.42 165.54 22.43 162.33 21.85 154.44 23.79 152.24 24.13 151.3 22.53 150.36 21.85 149.23 21.1 147.42 20.84 147.42 16.97 144.41 15.71 144.07 14.27 144.07 5.43 137.05 5.01 136.58 4.59 133.17 5.6 130.83 6.28 130.16 10.07 124.81 11.51 123.01 11.93 122.14 12.61 121.47 13.03 120.67 13.62 120 14.46 118.46 15.56 117.32 16.15 116.12 16.83 115.45 17.25 114.58 17.84 113.91 18.68 112.44 19.11 112.11 20.2 110.77 20.62 109.9 21.47 108.9 22.9 106.69 23.75 105.76 24.17 104.89 24.84 104.22 25.44 103.02 26.11 102.35 26.28 101.68 26.7 101.35 28.14 99.54 28.56 98.67 29.23 98 31.51 94.66 32.61 93.33 33.2 92.12 33.88 91.45 35.31 89.18 36.41 87.98 42.32 79.62 43.75 77.42 44.85 76.08 48.39 70.86 50.5 68.06 52.19 65.45 53.21 64.25 55.82 60.5 56.28 60.53 62.43 54.91 62.44 54.71 65.38 52.23 65.55 52.23 69.17 49.02 73.81 50.09 78.2 49.69 78.87 49.42 79.88 48.01 80.72 46.08 83.08 42.53 83.25 41.86 85.35 38.65 86.45 37.38 90.24 33.97 90.49 33.97 93.02 32.36 94.88 31.96 96.56 32.16 101.2 33.29 101.45 33.49 103.98 33.49 106.09 33.16 108.2 32.49 109.63 31.82 113.26 30.9 120.44 30.21 122.53 27.66 124.15 23.95 126.23 22.09 130.87 20.93 133.18 21.4 135.5 23.25 139.2 23.72 140.83 22.32 142.5 20.37 148.36 18.69 149.5 18.36 156.81 18.15 161.21 17.92 162.83 15.6 161.91 11.89 160.28 7.03 159.82 1.23 163.06 1 169.32 3.32 174.18 7.72 Z M 140.19 80.03 141.93 80.55 143.67 80.2 145.06 79.68 148.01 79.68 149.57 80.55 152.35 81.59 155.66 81.59 158.96 81.24 162.26 81.77 163.65 84.2 161.91 86.81 157.39 88.37 153.4 91.5 151 95.25 150.56 95.93 149.29 96.94 147.19 98.94 145.93 101.62 145.76 102.82 145.93 102.96 145.93 103.49 146.35 104.29 148.04 105.83 149.55 106.77 151.83 106.83 154.61 105.76 156.3 104.76 163.21 99.47 165.73 97.24 167.12 94.28 168.86 92.72 171.47 91.67 173.9 91.67 175.81 90.46 177.2 89.07 179.28 88.55 179.8 86.98 178.41 85.24 177.72 81.94 177.55 78.81 175.63 76.72 172.33 75.86 168.69 74.99 163.99 75.16 158.78 74.64 157.22 72.38 155.31 70.99 153.05 71.34 150.96 72.38 148.01 75.16 143.84 76.72 140.54 78.12 140.19 80.03 Z M 175.01 105.62 176.53 106.75 177.79 106.75 178.81 105.95 179.06 105.28 178.64 104.61 178.21 102.94 177.37 102.27 176.53 102.27 175.26 103.28 174.84 103.75 174.59 104.62 175.01 105.62 Z M 205.61 104.6 206.62 105.41 207.3 105.4 208.31 105.07 209.15 104.2 209.15 103.73 208.14 103.06 206.45 103.07 205.78 103.53 205.36 104.07 205.61 104.6 Z M 132.86 100.75 131.01 100.62 129.49 100.96 129.07 101.29 127.38 102.16 126.12 103.17 125.11 104.3 125.11 106.51 126.12 107.31 126.8 107.65 128.06 107.84 128.23 107.98 130.34 107.64 133.54 106.31 135.22 104.97 135.81 104.16 135.81 102.83 135.64 101.96 134.55 101.09 132.86 100.75 Z M 387.8 124.47 386.59 125.67 385.43 128.57 385.43 130.6 384.75 131.11 383.12 132.34 380.51 130.89 377.9 128.28 374.72 125.38 371.82 125.09 370.38 125.09 368.06 125.67 365.16 125.38 363.14 125.38 360.24 126.25 357.06 127.7 355.96 128.8 355.32 129.44 352.99 130.16 352.95 130.17 352.3 130.37 351.55 130.6 348.08 131.76 344.8 133.71 343.54 134.72 343.12 135.19 342.61 137.53 341.85 138.53 341.18 139.06 339.66 139.87 334.18 142.61 334.02 142.54 331.91 144.42 331.66 145.55 332.33 147.29 334.19 149.1 335.28 149.76 338.82 150.57 339.5 150.57 342.69 150.04 342.87 150.01 346.05 149.14 348.08 147.98 349.82 146.53 350.69 144.8 352.13 144.8 353.58 145.95 355.03 146.82 356.48 148.27 358.21 149.43 361.4 151.75 363.72 153.78 366.03 154.94 370.38 154.94 373.85 154.65 377.33 152.91 380.22 152.04 382.54 152.04 385.43 152.91 387.53 153.84 388.04 154.07 389.62 155.2 390.07 155.52 393.54 155.52 395.28 155.52 396.39 155.15 397.24 154.86 397.88 154.65 400.49 153.2 401.94 151.46 402.81 149.14 403.39 148.27 404.83 148.85 407.44 149.72 410.31 149.88 412.24 150.01 414.68 150.01 417.28 149.43 419.89 149.14 422.5 147.69 424.23 145.66 426.26 143.35 429.74 141.03 433.5 137.84 436.11 134.66 439 133.5 441.9 130.6 444.21 127.12 443.06 125.96 440.45 125.38 438.13 124.22 435.24 121.91 432.63 120.46 428.87 120.17 424.88 120.59 419.56 120.12 418.72 119.92 418.55 119.78 414.7 119.87 414.39 119.88 414.14 119.95 411.2 120.75 410.04 120.46 407.73 119.88 406.28 119.01 404.25 119.01 400.49 120.46 394.12 121.62 390.36 122.49 388.33 123.93 387.8 124.47 Z M 435.42 149.81 436.02 151.55 437.95 153.35 439.22 154.15 442.59 155.16 443.01 155.15 443.18 155.35 445.54 155.36 447.39 155.02 449.34 154.22 450.56 153.18 451.08 150.75 450.73 147.62 450.21 145.18 449.86 142.05 448.65 139.27 446.73 138.4 444.65 138.4 443.85 139.17 442.75 140.31 442.16 142.65 441.32 143.85 439.38 145.32 437.95 146.19 437.7 146.19 436.27 147.33 435.59 148.14 435.42 149.34 435.42 149.81 Z M 155.98 258.97 155.64 259.37 155.64 259.77 156.83 261.31 157 262.65 156.91 263.51 156.66 264.32 155.06 266.66 154.39 267.86 154.05 269.2 151.92 271.26 152.2 273 154.09 273.72 159.15 270.1 160.89 269.23 163.64 269.81 165.09 271.26 163.06 274.45 163.06 277.34 164.95 279.37 167.7 279.95 171.17 279.23 172.76 278.5 175.08 277.2 176.09 275.17 175.37 273.29 173.63 271.55 172.18 270.1 172.73 268 174.18 266.55 178.7 265.46 177.98 264.3 177.54 263.29 176.09 262.86 174.21 262.71 170.88 262.57 168.28 261.55 164.51 259.67 160.78 258.23 160.28 258.1 159.18 258.1 158.09 258.23 156.49 258.7 155.98 258.97 Z M 152.2 311.1 156.55 313.12 159.15 311.39 158.98 309.29 158.62 306.76 159.73 304.72 160.38 302.6 163.5 303.56 162.34 299.51 158.86 298.64 154.23 299.22 151.92 302.4 150.18 306.75 152.2 311.1 Z M 173.05 312.83 171.11 316.54 170.94 316.87 170.94 319.01 171.11 319.88 172.8 321.35 175.95 322.11 179.71 319.79 181.42 315.45 184.35 313.12 182.03 311.1 176.82 311.39 173.05 312.83 Z M 286.74 359.3 285.7 359.64 285.04 359.35 284.46 359.64 284.17 360.51 284.75 361.09 284.75 361.82 284.1 362.54 282.94 363.34 282.72 364.42 282.58 364.86 282.36 365.51 282.29 366.31 281.71 366.96 281.71 367.68 282.36 368.12 282.58 368.86 285.18 369.9 287.44 369.21 289.52 367.99 291.44 366.6 292.3 365.55 293.52 364.51 295.08 364.16 296.47 363.99 296.47 362.95 295.61 361.9 295.43 360.51 294.56 359.3 293.87 357.73 292.65 356.17 291.26 355.65 290.57 355.65 289.18 355.65 287.96 356.69 287.09 358.08 286.74 359.3 Z M 633.78 250.2 633 251.07 631.61 251.5 630.22 251.76 629.26 251.67 628.39 252.02 628.91 253.06 630.22 253.85 630.91 254.8 631.17 255.76 630.91 256.89 631.52 257.67 632.13 258.97 633.08 259.5 633.78 259.78 635.69 260.89 639.51 261.15 642.81 259.58 644.9 258.54 646 257.64 647.85 256.8 648.46 255.06 648.81 253.93 648.46 252.98 646.37 251.5 644.9 250.63 642.64 250.11 640.38 249.85 638.82 249.33 636.82 249.33 635.43 249.67 633.78 250.2 Z M 637.77 279.49 638.64 280.01 639.86 280.01 641.25 279.49 641.94 279.05 641.42 278.44 640.81 277.75 640.53 277.3 640.1 276.43 639.6 275.32 638.73 274.45 637.86 274.27 636.73 274.09 635.22 274.09 634.63 274.63 634.63 274.96 635.05 276.1 635.78 277.58 636.21 278.36 637.17 278.88 637.77 279.49 Z M 692.29 275.6 690.26 274 688.12 273.46 685.36 273.5 682.31 273.82 679.59 274.62 676.72 275.93 674.47 276.94 675.08 277.16 677.15 276.84 679.37 276.84 680.57 277.78 680.24 280.58 682.2 282.76 683.8 284.98 686.05 285.56 690.37 284.61 694.22 283.12 694.98 282.54 694.69 280.69 693.75 278.25 692.29 275.6 Z" fill-rule="evenodd"/>
</g>
</svg>