<?xml version="1.0"?>
<svg xmlns="http://www.w3.org/2000/svg" version="1.2" baseProfile="tiny" width="800" height="619" viewBox="0 0 800 619" stroke-linecap="round" stroke-linejoin="round">
<g id="lakealmanor">
<path d="M 148.97 283.56 147.57 282.2 145.79 281.27 144.57 281.19 143.21 281.32 141.49 282.01 140.51 281.71 139.97 281.26 140 280.26 139.11 278.99 138.26 278.4 135.68 278.23 134.24 278.27 132.76 277.05 132.3 276.03 131.45 273.58 130.98 272.1 130.39 270.62 129.25 267.49 127.85 265.67 127.18 263.94 126.37 263.43 123.88 262.41 122.4 262.03 121.72 262.12 120.79 262.84 119.56 264.1 118.82 266.02 118.64 266.67 118.48 267.22 118.06 268.69 118.07 268.96 118.04 269.45 118.06 269.96 118.08 270.15 118.48 272.56 118.71 273.46 118.76 273.95 118.74 276.42 118.78 277.95 118.87 278.69 118.87 279.86 118.8 280.3 118.77 281.26 118.87 282.28 119.1 283.38 119.52 284.23 119.58 284.79 119.84 285.57 119.97 285.65 120.28 286.33 120.6 287.11 120.92 287.6 121.24 287.91 121.5 288.33 121.72 289.38 121.92 290.4 122.35 291.43 122.87 292.16 123.61 293.16 124.46 293.93 124.88 294.5 125.25 295.21 125.52 295.94 125.67 296.55 125.36 297.23 125 297.77 124.47 298.33 124.27 298.75 124.11 299.26 123.99 299.82 123.99 300.9 124.27 301.65 124.94 302.62 125.49 303.97 125.8 304.58 125.84 305.12 125.74 305.19 125.42 305.6 125.01 306.28 124.91 306.45 124.62 306.77 124.38 307.61 124.21 308.22 124.14 308.7 124.38 309.08 124.62 309.94 124.92 310.38 125.23 310.8 125.38 311.33 125.39 311.97 125.17 312.99 124.94 313.89 124.91 314.82 124.86 315.67 124.37 317.38 123.96 318.8 123.89 319.22 122.98 320.6 121.65 322.15 120.69 323.26 119.77 323.59 119.71 323.42 118.16 322.85 116.7 321.68 115.05 320.18 113.9 318.31 112.44 315.97 111.36 314.51 110.03 313.68 108.89 311.94 106.83 310.13 105.94 308.7 105.68 307.75 105.62 305.59 105.11 304.68 103.59 304.2 102.64 304.36 101.65 305.06 101.34 305.95 100.96 306.75 100.79 307.34 100.64 307.9 100.78 308.7 100.71 309 100.55 309.38 100.49 310.58 100.32 312.16 100.2 313.64 99.97 314.86 99.75 315.9 98.48 316.25 96.83 315.46 95.97 313.65 96.2 313.03 95.47 312.7 94.32 309.62 93.5 308.26 93.34 307.31 92.45 305.12 91.34 302.99 91.15 301.54 91.5 300.2 91.28 297.76 91.12 296.71 90.58 295.57 90.23 294.53 90.42 293.51 90.9 291.83 90.86 290.91 91.5 289.01 91.85 286.47 92.17 284.79 92.04 283.65 91.47 282.09 90.45 281.17 88.48 281.71 87.88 282.16 87.18 282.76 86.2 283.04 85.18 282.79 83.25 281.68 82.3 281.14 81.85 280.09 81.03 278.76 79.63 277.87 77.98 277.49 77.09 276.99 76.36 276.73 75.6 276.57 74.05 275.65 73.25 274.92 72.55 274.23 71.16 273.47 70.46 272.51 70.36 271.37 68.56 269.31 64.84 266.65 64.15 266.04 63.86 264.43 63.26 263.06 62.08 262.27 59.8 260.3 58.05 258.59 57.23 257.35 55.29 255.58 53.96 253.77 53.2 251.45 52.15 249.04 51.71 248.31 51.61 247.81 50.66 245.08 48.88 242.64 46.98 240.7 44.28 237.06 42.85 236.29 41.49 234.84 41.01 232.84 41.01 231.09 41.04 228.9 39.14 229.41 37.55 229.13 36.54 227.95 33.05 224.56 31.24 222.18 30 221.55 28.83 220.98 27.3 218.72 24.44 216.03 21.73 212.42 21.53 211.98 21.55 211.64 21.34 211.2 21.19 211.1 20.29 211.06 19.85 210.93 19.6 210.84 19.28 210.67 18.47 210.4 18.34 210.23 18.31 210.08 18.42 209.4 18.31 209.13 18.22 208.98 17.43 208.36 17.35 208.09 17.42 207.77 17.66 207.44 17.48 206.25 15.47 202.92 13.64 198.97 12.24 197.37 12.45 194.67 12.43 193.5 12.33 192.68 12.87 192.68 13.78 193.53 14.23 193.72 14.63 193.66 14.77 192.58 14.52 191.6 13.86 190.71 12.39 189.63 11.12 189.44 8.17 189.54 6.14 189.31 5.28 188.3 4.6 187.48 2.66 184.03 1.66 182.45 1.12 181.65 1 181.41 1.18 181.15 2.96 180.51 3.26 180.57 3.5 180.91 3.84 181.57 4.6 182.75 6.02 183.81 7 184.93 8.32 186.27 9.51 186.84 12.27 188.24 13.9 189.06 16.17 190.2 18.71 190.14 20.26 190.08 20.68 191.31 21.31 193.18 20.99 194.17 19.98 194.64 18.65 195.12 17.69 194.9 16.39 194.58 16.23 195.28 16.77 195.94 17.22 196.7 18.36 197.59 19.18 198.16 19.44 198.96 18.93 200.03 18.36 200.61 20.17 203.46 21.76 206.38 22.68 207.07 23.32 207.13 23.7 207.06 25.04 206.83 25.52 206.71 25.89 206.52 27.2 206.84 27.83 206.65 28.06 206.08 28.38 206.09 28.6 206.55 28.84 206.76 28.81 207.06 28.51 207.27 28.16 207.52 28.06 208 27.71 208.15 26.68 208.11 26.28 208.33 25.81 208.68 26.03 208.96 26.56 208.84 27.6 208.57 28.97 208.03 30.36 206.9 31.41 206.17 32.3 207.06 33.5 208.77 35.28 211.18 37.12 213.02 38.96 215.43 42.9 220.32 44.42 222.03 44.93 221.9 45.06 220.32 44.29 218.6 44.74 217.65 45.31 215.5 46.58 214.74 46.9 213.85 45.44 211.75 44.1 210.55 43.41 208.9 43.6 207.63 45.37 207.63 46.65 205.71 47.28 202.81 46.96 200.15 48.42 196.78 49.56 195.52 48.74 194.12 49.37 193.23 51.08 192.53 51.72 191.2 51.59 189.36 52.61 188.28 54.07 187.65 55.46 186.06 55.65 184.48 55.27 183.34 56.42 182.51 57.88 181.43 58.26 179.66 59.97 178.9 60.48 177.37 61.94 176.74 63.71 176.36 63.59 175.53 62.51 174.27 63.08 173.06 64.73 172.49 65.49 171.85 64.54 170.33 65.11 168.56 66.13 168.05 66.89 167.67 67.78 166.34 66.63 165.83 66.89 164.37 68.28 164.5 68.86 163.74 67.9 162.66 67.65 161.64 68.16 159.49 69.49 157.96 70.95 156.95 67.68 152.41 69.02 150.06 68.66 147.59 66.96 141.41 69.42 141.16 69 138.79 69.93 136.93 69.42 134.9 73.65 136.68 75.26 136.09 75.85 132.11 78.9 133.97 81.27 131.86 81.86 129.49 84.06 126.44 83.38 124.58 87.02 123.32 88.54 122.47 98.36 122.13 103.27 121.2 105.81 119.85 106.4 118.24 106.48 115.11 106.56 114.99 107.81 113 107.92 112.83 109.95 111.14 112.83 109.19 114.86 106.48 117.91 103.02 122.43 98.53 125.44 95.35 125.18 90.97 127.4 86.15 130.07 84.82 131.53 82.6 131.66 77.84 133.18 76.45 135.91 74.16 139.94 71.69 140.79 71.38 141.85 70.82 142.16 69.8 142.99 68.85 144.13 69.11 145.53 67.52 147.56 65.05 147.37 60.67 146.61 56.1 147.11 54.63 146.6 52.85 147.3 51.26 148.06 49.3 149.31 47.27 151.22 46.57 152.74 45.94 154.1 44.49 154.36 44.28 155.75 43.16 158.03 42.65 160 42.27 159.87 41.13 159.11 40.56 157.59 40.75 157.45 38.87 155.84 39.21 155.42 37.77 156.01 36.33 156.86 33.96 157.53 32.53 156.35 32.1 156.09 30.33 156.77 27.79 160.41 25.93 160.41 23.98 161.43 22.12 162.19 19.84 162.02 18.06 162.27 16.79 161.6 15.78 162.53 14.68 163.03 12.57 163.54 10.79 164.98 9.1 164.64 8.34 163.54 7.32 163.12 5.63 164.13 3.85 163.11 2.63 162.32 2.44 161.71 2.36 161.2 2.36 160.76 2.37 159.45 2.26 158.53 2.24 157.59 2.17 156.22 2.07 153.93 1.86 152.84 1.9 151.6 1.83 150.1 1.78 148.89 1.64 146.79 1.49 145.61 1.52 144.65 1.64 143.34 1.83 141.2 1.93 141.11 1.81 141.08 1.73 141.88 1.45 142.74 1.24 143.79 1.13 144.98 1.08 146.31 1 147.75 1.07 148.74 1.08 149.73 1.07 150.75 1.13 153.23 1.27 154.7 1.34 156.16 1.41 157.25 1.46 160.88 1.66 204.21 4.81 212.44 5.41 220.82 6.04 221.17 6.02 221.77 6.06 222.31 6.06 223.3 6.25 223.79 6.48 224.38 6.61 224.55 6.85 224.86 7.59 225.25 9.43 225.53 10.16 225.95 10.97 226.84 12.52 227.11 13.01 227.74 14.55 227.86 15.21 227.97 15.7 227.99 16.27 228.08 16.84 228.28 17.4 228.56 18.06 229.85 19.84 230.54 20.58 230.83 20.75 231.22 20.97 231.79 21.11 232.33 21.24 232.62 21.24 232.94 21.22 233.07 21.14 233.1 21.05 233.01 20.95 232.75 20.87 232.29 20.8 231.78 20.57 231.69 20.45 231.72 20.35 231.98 20.31 232.36 20.36 232.71 20.43 233.31 20.62 233.57 20.65 233.98 20.62 234.33 20.55 234.62 20.65 235.08 20.89 235.17 20.94 235.36 21.04 236.03 21.07 236.8 21.21 237.34 21.27 237.79 21.26 238.23 21.21 238.68 21.16 240.84 20.77 241.57 20.6 242.08 20.43 242.4 20.23 243.29 19.56 243.74 19.33 244.16 19.11 244.99 18.99 245.24 18.98 245.37 18.89 245.44 18.74 245.44 18.6 245.31 18.42 244.99 18.36 244.39 18.31 243.94 18.3 243.24 18.41 241.83 19.08 241.29 19.21 241.09 19.21 241.06 19.02 241.03 18.8 240.79 18.28 240.69 18.26 240.53 18.3 240.08 18.64 239.7 18.75 239.41 18.8 239.18 19.01 238.89 19.31 238.6 19.4 238.22 19.46 237.92 19.7 237.56 19.89 236.38 20.17 236.32 20.07 236.42 19.9 237.27 19.01 237.69 18.82 238.3 18.53 238.81 18.26 239.27 18.09 240.55 17.65 240.97 17.5 241.48 17.19 241.84 16.94 244.54 14.89 244.99 14.53 245.49 14.16 245.97 13.79 246.62 13.46 247.13 13.28 249.35 12.62 250.18 12.51 252.35 12.42 253.05 12.38 253.66 12.31 254.2 12.4 254.52 12.47 255.09 12.67 255.47 12.87 255.69 12.94 255.76 12.96 256.17 13.01 258.15 12.82 258.47 12.72 258.6 12.67 258.79 12.51 258.89 12.21 258.99 12.01 259.18 11.75 259.9 11.57 260.06 11.48 260.29 11.14 260.36 10.94 260.45 10.7 260.55 10.58 261.18 10.08 261.43 10.06 261.62 10.13 261.43 10.43 261.48 10.52 261.64 10.53 263.73 9.99 263.9 9.88 264.02 9.8 264.31 9.66 264.6 9.62 264.85 9.52 265.14 9.38 265.38 9.09 265.61 9.04 265.8 9.14 265.97 9.3 266.16 9.37 266.38 9.38 266.61 9.16 266.69 8.96 266.95 8.77 267.2 8.77 267.46 8.65 267.65 8.52 267.85 8.3 268.04 7.96 268.16 7.67 268.32 7.67 268.57 7.79 268.83 7.82 269.18 7.6 269.41 7.3 269.47 6.98 269.59 6.37 269.66 6.11 269.95 5.69 270.14 5.55 271.15 5.08 271.38 4.93 271.54 4.81 271.77 4.69 272.12 4.65 273.04 4.59 273.33 4.52 273.55 4.45 273.78 4.45 274.13 4.55 274.54 4.69 274.86 4.71 275.3 4.74 275.69 4.77 276.01 4.7 276.17 4.64 276.52 4.35 276.75 4.25 277.06 4.21 277.73 4.21 278.18 4.13 278.28 4.03 278.2 3.89 278.04 3.83 276.96 3.79 276.96 3.72 277.02 3.6 277.89 3.42 278.33 3.4 278.84 3.43 279.93 3.47 282.25 3.69 283.4 3.71 284.26 3.84 285.23 4.01 286.5 4.22 287.14 4.33 289.4 4.82 291.03 5.33 292.05 5.84 293.17 6.75 293.42 6.93 293.93 7.13 296.38 7.67 297.72 8.14 297.95 8.28 298.45 8.74 299.47 8.99 299.79 9.14 300.08 9.43 300.52 9.98 300.81 10.16 301.35 10.33 301.98 10.54 302.57 10.72 303.21 10.85 303.94 10.94 304.61 11.14 305.34 11.13 305.91 11.21 306.55 11.21 307.89 11.21 309.1 11.06 309.39 11.01 309.52 10.89 309.52 10.74 309.46 10.65 309.29 10.55 308.93 10.5 308.3 10.53 307.23 10.67 306.53 10.67 306.24 10.67 306 10.57 305.94 10.45 306.1 10.35 306.45 10.31 306.96 10.24 307.41 10.25 307.89 10.16 308.17 10.11 308.52 10.16 309.57 10.31 310.24 10.31 310.53 10.37 311.1 10.55 311.59 10.82 312.04 11.07 312.58 11.23 313.37 11.33 313.82 11.48 314.23 11.69 314.45 11.86 315.07 12.26 315.67 12.62 316.53 12.89 317.36 13.4 317.62 13.57 317.77 13.72 317.68 13.84 317.58 13.96 317.64 14.13 318.38 14.65 319.33 15.38 319.71 15.79 320.14 16.24 320.61 16.58 321.4 17.21 321.95 17.43 322.56 17.77 323.22 18.26 324.75 19.18 325.55 20.07 326.31 20.99 328.77 24.34 329.02 24.68 329.48 25.26 329.92 25.63 330.36 26.07 330.71 26.44 331 26.77 332.41 27.83 332.85 28.06 333.46 28.31 334.31 28.51 334.73 28.72 336.51 30.04 337.1 30.48 337.6 30.8 337.95 31.04 338.87 31.24 341.43 31.89 342 32.02 342.57 32.12 343.18 32.38 344.19 32.88 346.43 34.82 346.84 35.21 347.39 35.78 347.93 36.2 349.51 38.05 350.1 38.55 350.6 39.12 351.06 39.66 351.5 40.19 353.28 41.73 353.72 42.14 354.33 42.98 355.78 44.91 356.46 45.81 356.82 46.39 358.73 49.56 359.04 50.17 359.58 51.25 359.85 51.76 360.13 52.22 360.55 52.83 363.99 56.81 364.56 57.66 365.07 58.38 365.48 58.85 366.28 60.08 366.83 61 367.2 61.83 367.82 63.45 369.4 68.03 369.88 69.52 371.67 74.26 371.98 74.88 372.88 76.67 374.11 78.69 374.44 79.23 375.33 80.88 375.54 81.37 375.87 82.06 376.63 84.89 377.42 86.72 377.75 87.69 377.87 88.18 377.94 88.79 378.16 90.43 378.22 90.65 378.41 90.82 379.6 91.43 379.82 91.45 380.01 91.7 380.13 91.82 380.21 92.31 380.46 94.01 380.61 94.59 380.81 95.25 381.15 95.84 381.57 96.38 381.98 97.19 383.32 100.65 384.37 103.26 385.42 106.38 385.62 106.82 385.71 107.45 385.77 108.55 385.61 112.18 385.7 112.96 385.77 113.79 385.92 114.28 386.28 115.38 386.53 115.78 386.73 116.12 387.33 116.4 389.23 117.16 389.76 117.51 390.29 117.9 390.7 118.23 391.16 118.65 391.57 119.14 391.91 119.51 392.17 119.74 392.88 120.17 393.29 120.44 393.57 120.49 393.86 120.43 394.34 120.24 395.1 119.9 396.12 119.34 396.64 119.09 397.92 118.7 398.67 118.56 398.92 118.49 399.27 118.46 399.62 118.48 399.91 118.63 399.51 118.97 398.35 119.85 397.88 120.07 396.41 120.63 396.09 120.77 395.45 120.93 393.04 121.43 392.62 121.53 392.21 121.5 391.51 121.34 390.73 121.14 390.48 121.04 389.97 120.85 389.71 120.9 389.46 120.94 389.17 121.09 388.6 122 388.42 122.58 388.31 123.12 388.34 123.66 388.69 125.11 390.31 130.29 391.47 134.98 391.6 135.88 391.72 136.42 391.87 137.98 391.91 138.81 391.78 140 391.43 142.46 390.83 146.39 390.59 147.48 389.8 150.64 389.64 151.28 389.6 151.44 389.13 153.51 388.66 155.58 388.17 157.47 387.62 159.24 386.9 161.26 386.65 162.04 386.48 162.86 386.26 164.1 386.03 166.95 385.9 167.98 385.56 169.95 384.85 173.01 384.57 173.88 384.43 174.76 384.38 177.79 384.37 179.37 384.37 180.18 384.4 180.96 384.5 181.71 384.68 182.84 386.02 189.06 386.16 189.79 386.24 190.55 386.22 193.86 386.35 194.79 386.37 195.35 386.57 196.15 387.32 198.42 387.4 198.96 387.52 199.62 387.64 201.18 387.71 201.91 387.86 202.47 388 202.99 388.31 203.93 388.47 204.61 388.64 205.47 388.89 206.72 389.07 207.57 389.45 209.23 389.71 209.89 390.23 210.84 391.78 212.88 395.54 216.62 396.01 217.14 396.34 217.59 396.77 218.4 397.41 219.67 398.6 222.77 401.11 229.46 401.47 230.31 402.09 231.55 405.53 237.68 405.83 238.19 406.05 238.65 406.36 239.34 406.86 240.67 407 241.01 407.15 241.7 407.16 242.26 407.09 242.7 406.78 243.83 406.8 244.23 406.9 244.58 407.12 245.28 407.5 245.97 407.76 246.61 407.85 247.29 407.85 248.22 407.31 249.48 406.06 251.24 405.62 251.92 405.02 252.89 404.82 253.37 404.57 254.29 404.15 256.02 404.13 256.92 404.12 259.13 404.22 259.97 404.19 260.56 404.02 261.75 403.99 262.39 404.03 263.29 404.09 263.91 404.59 265.54 404.66 266.22 404.63 267.28 404.31 270.07 404.34 272.71 404.21 274.27 404.2 274.88 404.28 275.56 404.44 276.69 404.83 278.04 405.14 278.92 405.6 280.12 406.13 281.25 406.35 281.81 406.86 282.72 407.23 283.43 407.34 283.99 407.49 284.65 407.81 285.33 408.2 286.11 408.6 287.35 408.8 287.84 409.02 288.45 409.22 288.82 409.34 289.65 409.37 290.63 409.38 291.51 409.78 292.47 410.2 293.62 410.36 294.17 410.51 294.72 410.78 295.53 411.16 296.68 411.64 298.01 412.05 299.28 412.36 300.02 412.49 301.04 413.19 302.65 413.92 303.97 414.43 305.39 414.65 306.53 414.85 307.28 415.06 308.23 415.16 309.21 415.35 310.63 415.67 311.43 416.06 312.46 416.62 313.36 417.42 314.22 417.83 314.9 417.92 315.88 417.99 316.05 418.18 317.21 418.56 318.55 418.98 320.48 419.23 322.32 419.42 324.78 419.51 326.66 419.76 328.19 419.93 329.87 419.87 330.92 419.54 331.66 419.15 332.17 419.13 332.88 419.31 333.32 419.9 333.8 421.07 333.98 423.62 333.83 424.31 333.27 425.94 332.1 427.29 331.05 427.98 330.44 428.65 330.19 429.29 329.95 430.06 329.86 431.26 330.15 431.62 331.1 432.26 332.37 433.33 334.03 433.83 334.63 435.55 335.95 436.52 336.74 437.63 337.64 438.45 338.45 439.41 339.79 440.14 341.01 440.78 341.98 441.1 343.01 441.12 343.69 441.54 344.72 441.77 345.5 442.11 346.42 442.65 347.47 443 348.99 443.54 350.45 444.15 352.2 444.79 353.45 444.91 354.06 445.52 355.03 445.92 355.67 446.22 356.4 446.62 357.04 447.58 357.94 448.48 358.89 449.42 359.62 450.26 359.99 450.83 360.47 451.04 361.16 451.52 362.53 452.28 363.84 453 365.23 453.63 365.65 454.29 366.13 454.87 366.92 455.5 367.66 456.46 368.43 457.09 368.92 458.25 369.6 459.26 370.33 460.22 370.97 460.56 371.49 461.12 371.84 461.3 372.26 461.45 372.68 461.69 373.19 461.84 373.66 462.34 374.32 462.73 374.8 463.2 375.56 463.52 376.39 463.84 376.88 464.29 377.72 465.05 378.85 465.55 379.51 465.95 380.11 466.39 380.6 466.78 381.15 467.24 382.32 467.56 383.02 467.89 383.87 468.13 384.61 468.62 385.47 468.89 386.15 469.35 386.85 469.69 387.49 469.79 387.97 469.69 388.34 469.79 388.58 470.49 389.17 470.74 389.54 471.13 390.39 471.37 391.29 471.68 392.17 472.01 392.91 472.14 393.57 472.53 394.25 473.42 394.83 473.98 395.57 474.69 396.05 475.16 396.59 475.33 397.08 476.79 398.3 479.11 400.13 480.31 400.84 482.23 402.3 483.08 402.94 485.22 404.97 486.7 405.29 487.33 406.35 488.18 405.18 489.02 404.02 488.81 402.44 489.02 401.06 490.08 399.37 490.93 397.36 490.61 395.99 488.81 394.82 487.54 394.19 486.59 392.71 485.32 389.86 484.79 388.69 484.05 386.47 484.16 385.31 484.69 384.78 483.95 383.72 483.31 382.67 482.68 379.71 481.94 374.53 481.94 371.35 481.58 369.19 482.68 368.29 482.15 367.13 480.56 366.81 477.39 367.13 475.06 366.17 473.16 364.38 471.6 362.68 471.15 361.41 471.02 360.54 470.7 359.51 470.94 357.5 468.82 356.02 466.49 353.8 464.8 351.27 463.85 349.15 463.95 347.99 465.01 345.66 465.01 343.76 463.85 342.17 462.47 340.27 462.37 339.21 463.3 338.28 463.78 338.04 463.8 337.97 464.69 337.42 464.91 336.89 464.38 336.25 463.11 336.04 461.94 334.56 460.88 332.82 460.78 332.16 460.56 331.55 460.24 330.79 460.21 330.33 459.99 329.96 459.95 329.47 459.96 328.55 460.21 328.01 460.31 327.38 460.37 326.65 460.22 325.82 460.12 325.3 460.12 324.82 459.92 324.33 459.77 323.96 459.71 321.96 459.62 320.54 459.77 318.79 459.91 317.91 460.31 317.45 460.92 316.97 462.28 316.18 463.55 316.5 464.75 316.62 466.21 317 466.66 316.31 465.96 315.55 465.26 315.04 464.37 314.47 462.59 313.07 461.64 312.25 460.63 310.98 459.99 310.03 459.74 309.27 459.1 308.95 458.47 308.19 457.83 307.17 457.83 305.84 457.9 305.27 458.41 306.03 459.29 306.98 459.93 307.24 460.8 307.06 461.76 307.72 461.92 307.79 462.96 308.52 464.11 309.35 464.43 309.6 464.9 309.76 465.61 310.28 466.44 310.49 467.52 310.62 468.76 310.47 469.62 310.41 470.58 310.18 471.37 309.82 471.85 309.35 472.39 308.45 472.56 307.41 472.88 306.36 472.88 305.26 473.04 303.99 473.39 302.2 473.71 301.06 473.93 299.77 474.08 298.6 474.13 298.38 474.12 297.33 474.09 295.99 474.03 295.57 473.61 294.96 472.97 294.21 472.52 293.35 472.41 293.06 472.09 292.13 471.8 291.06 471.81 290.32 471.64 289.64 471.71 289.03 471.9 288.54 472.51 287.82 473.14 287.33 473.65 286.81 474.04 286.45 474.25 286.08 474.1 285.47 473.87 284.93 473.62 284.25 473.47 283.79 473.75 282.98 474.17 282.5 474.48 281.99 474.33 281.25 474.15 280.49 473.84 279.97 473.52 279.68 473.07 279.11 472.97 278.88 472.85 278.34 472.84 277.85 472.91 277.49 473.36 276.38 474.06 275.19 474.24 274.63 474.51 273.54 474.45 273.19 474.33 272.71 474.06 272.45 473.52 272.21 473.44 272.06 473.46 271.93 473.53 271.84 473.66 271.75 475.08 271.2 475.82 270.76 476.17 270.44 476.46 270.04 477.7 268.09 477.83 267.61 477.86 267.14 477.82 265.9 477.86 265.4 477.93 265.03 478.15 264.39 478.28 263.83 478.18 262.68 478.15 261.97 477.73 260.63 477.71 260.07 477.8 259.29 477.83 258.81 477.76 258.09 477.61 257.68 477.52 257.34 477.51 256.77 477.84 255.87 478.1 255.73 478.5 255.63 479.74 255.45 480.67 255.29 481.82 254.64 482.31 254.33 483.45 253.17 484.82 251.74 485.04 251.27 485.43 250.73 486.25 249.74 486.96 248.9 487.2 248.81 487.43 248.77 487.92 249.07 488.61 249.78 488.99 250.08 489.43 250.34 490.59 250.66 491 250.68 491.51 250.66 492.12 250.59 492.71 250.34 493.71 249.71 494.16 249.29 494.62 248.88 495.01 248.39 496.36 246.68 496.53 246.49 497.05 246.17 498.58 245.66 499 245.45 499.5 245.05 499.96 244.37 500.18 243.88 500.72 243.27 501.4 242.61 501.96 242.03 503.17 240.51 505.06 236.64 505.32 236.08 505.53 235.54 505.86 235.08 506.4 234.66 509.66 231.63 509.9 231.37 510.16 231.03 510.41 230.52 510.8 229.5 511.08 229.23 511.3 229.03 511.9 228.6 512.2 228.47 512.62 228.45 513.08 228.67 513.41 229.03 514.78 230.92 515.19 231.27 515.95 231.85 516.56 232.36 517.89 233.48 518.28 233.87 518.9 234.3 519.48 234.65 519.94 234.8 520.23 234.79 520.76 234.82 521.25 234.75 522.21 234.13 526.03 230.89 526.97 229.98 528.19 228.77 528.68 228.13 529.09 227.56 529.75 226.25 530 225.55 530.29 224.36 530.52 222.23 530.59 219.94 530.65 219.52 530.74 219.2 530.96 218.96 531.16 218.74 531.4 218.36 531.71 217.77 531.92 216.92 532.27 215.13 532.43 214.35 532.46 213.86 532.44 213.18 532.16 211.95 531.94 211.49 531.7 211.09 531.36 210.43 531.19 210.01 530.86 209.54 530.48 209.29 529.39 208.77 527.65 207.96 527.13 207.83 526.37 207.6 526.08 207.42 526.04 207.2 526.14 206.97 526.6 206.5 527.04 205.67 527.13 205.39 527.32 205.25 528.17 204.97 528.77 204.94 529.43 204.91 530.21 204.84 530.8 204.76 532.3 204.28 532.98 203.89 533.83 203.36 534.63 202.62 534.86 202.5 535.16 202.41 535.58 202.46 536.44 202.65 536.82 202.82 537.16 202.9 537.52 202.89 537.9 202.77 539.31 202.06 541.49 200.09 541.72 199.67 542.19 197.42 542.15 196.86 542.12 196.47 541.86 195.58 541.74 195.06 541.67 194.77 541.5 194.48 541.31 194.26 541.31 193.7 541.54 193.62 541.83 193.55 542.34 193.54 545.15 193.86 545.93 193.82 546.32 193.77 546.59 193.59 546.77 193.27 546.92 192.86 546.97 192.52 546.9 191.44 546.57 190.34 546.48 190.05 546.36 189.57 546.18 189.26 545.83 188.16 545.65 187.58 545.45 187.15 544.81 186.21 542.85 183.37 542.33 183.03 541.9 182.84 541.41 182.62 540.33 182.58 539.85 182.55 537.16 182.72 536.47 182.74 535.58 183.03 533.97 183.55 533.78 183.55 533.61 183.45 533.53 183.28 533.63 182.82 533.66 181.67 533.59 181.3 533.08 180.47 532.1 179.18 531.93 178.96 531.72 178.52 531.3 177.66 530.77 176.68 530.27 175.62 529.96 175.2 529.55 174.69 529.44 174.42 529.38 173.95 529.31 173.29 529.16 172.78 528.41 171.45 528.32 171.23 528.37 170.86 528.49 170.25 528.4 169.83 528.06 169.25 527.92 168.88 527.96 168.64 528.01 168.39 528.18 168.17 528.46 168.03 528.7 168.03 529.07 168.3 529.33 168.54 530.19 169.74 531.16 170.64 531.7 170.96 532.08 171.21 532.98 172 533.45 172.42 533.8 172.89 534.43 173.98 534.61 174.21 534.99 174.52 535.58 175.11 536.89 175.16 537.84 175.27 538.32 175.37 539.08 175.53 539.62 175.59 540.2 175.62 540.93 175.57 542.95 175.57 543.73 175.56 544.48 175.62 545.25 175.66 545.92 175.64 546.89 175.59 547.56 175.52 548.13 175.44 548.77 175.49 550.02 176.1 550.88 176.33 551.02 176.34 551.32 176.34 551.77 176.3 552.3 176.3 554.04 176.78 554.85 176.93 555.49 176.97 555.9 176.93 556.23 176.63 557.13 176.47 557.89 176.34 557.58 175.52 557.01 174.31 556.82 172.86 556.94 172.35 557.39 171.84 558.54 171.29 558.89 171.36 559.24 171.44 559.86 171.49 562.16 171.19 562.74 171.07 563.22 170.87 564.25 169.61 564.4 169.17 564.56 168.09 564.53 167.75 564.66 167.53 565.11 167.33 565.45 167.29 566.48 167.87 566.73 168.09 567.31 168.41 567.73 168.55 568.17 168.58 568.6 168.63 569.03 168.65 569.32 168.6 569.67 168.46 569.96 168.26 570.56 167.72 570.79 167.26 571.16 166.72 571.45 166.41 571.92 165.97 573.17 165.24 573.75 164.94 574.19 164.33 574.26 163.94 574.28 163.43 574.25 161.77 574.16 161.21 574.18 160.92 573.42 159.75 573.2 159.41 573.03 159.09 572.1 157.84 571.78 157.14 571.63 156.72 571.6 156.41 571.7 154.85 571.75 154.19 571.73 153.5 571.76 152.33 572.4 152.5 572.81 152.74 573.25 153.11 573.53 153.44 574.08 154.33 574.33 154.57 575.03 155.05 575.29 155.2 575.71 155.45 576.83 156.01 577.4 156.16 577.83 156.26 578.45 156.45 580.94 157.19 581.58 157.37 582.15 157.53 582.54 157.69 583.1 157.89 583.61 158.04 585.53 158.45 586.32 158.59 587.48 158.79 588.04 158.81 588.52 158.73 589.61 158.5 590.69 158.3 591.09 158.08 591.46 157.83 592.06 157.35 592.67 156.89 592.91 156.58 593.08 156.17 593.14 155.29 593.14 155 593.18 154.56 593.33 154.1 594.1 152.84 594.26 152.5 594.41 152.17 594.54 151.66 594.53 151.05 594.54 150.7 594.64 150.49 594.89 150.29 595.68 150.08 595.79 150.37 595.94 150.58 596.27 150.97 596.97 152.42 597.45 153.63 597.89 155.15 598.22 155.71 598.53 156.15 599.43 157.03 600.03 157.54 600.4 157.8 601.08 158.71 601.3 158.95 601.69 159.38 602.93 160.61 603.28 160.87 603.82 161.22 604.26 161.49 604.69 161.66 605.29 161.9 605.8 162.01 606.31 162.12 607.2 162.27 607.74 162.24 608.57 162.15 609.3 162.02 612.36 161.27 613.19 161.17 613.79 160.97 614.18 160.71 615.08 160 616.37 159.24 616.94 159.01 617.49 158.9 619.78 158.77 620.29 158.7 620.77 158.51 621.1 158.36 621.53 158.14 622.31 158.41 622.97 158.89 624.69 160.26 625.21 160.68 625.55 161.12 625.84 161.87 626.22 163.72 626.36 164.14 626.66 165.07 627.66 166.58 628.2 167.12 628.72 167.5 629.44 167.8 629.98 168 630.52 168.28 630.85 168.55 631.23 168.76 631.87 169.08 632.59 169.47 635.31 170.98 635.82 171.31 637.86 172.45 639.26 172.84 639.99 172.99 640.73 173.15 641.5 173.26 642 173.37 643.24 175.06 643.66 175.54 644.32 176.32 644.65 176.72 644.96 177.27 645.36 177.72 645.67 178.04 647.74 180.36 648.09 180.67 648.47 180.96 650.77 182.43 652.17 183.04 652.93 183.24 653.65 183.44 654.57 183.72 655.23 183.94 656.16 183.96 659.85 183.73 660.43 183.69 660.97 183.72 661.61 183.83 664.62 184.7 665.4 184.96 666.19 185.15 666.83 185.23 667.24 185.27 667.63 185.2 667.93 185.14 668.49 184.87 669.63 184.1 670.02 183.95 670.27 183.91 670.62 184 671 185.32 671.09 185.76 671.2 187.04 671.29 187.53 671.29 187.81 671.01 189.31 670.37 190.95 670.24 191.24 669.73 192.08 669.5 192.54 669.58 193.86 669.7 194.33 669.92 194.63 670.17 194.88 672.25 196.79 673.96 198.28 674.77 198.96 675.15 199.33 675.44 199.62 675.86 199.9 676.49 200.33 678.82 201.19 679.58 201.44 680.34 201.74 680.77 201.95 681.34 202.25 681.81 202.55 683.53 204.02 683.86 204.48 684.07 204.81 684.29 205.2 684.62 206.06 684.62 206.12 684.69 206.57 684.82 206.68 684.97 206.81 685.32 206.93 685.79 207.13 687.58 208.32 687.91 208.69 688.29 209.05 688.63 209.33 688.95 209.4 689.3 209.24 689.9 208.44 690 208.22 690.33 207.81 691.94 206.18 692.14 205.93 692.43 205.63 692.56 205.46 692.7 205.11 692.72 204.99 692.74 204.85 692.78 204.61 693.05 203.95 693.25 203.64 693.51 203.3 693.82 202.89 694.55 201.65 694.62 201.24 694.72 200.94 694.88 200.05 694.99 199.55 695.12 198.41 695.19 198.02 695.39 197.53 695.52 197.36 695.73 197.02 696.12 196.53 697.49 195.14 697.77 194.86 698.09 194.57 698.32 194.19 698.53 193.71 699.84 191.47 700.07 190.97 700.29 190.8 700.45 190.9 700.48 190.98 700.5 191.46 700.16 193.09 700.03 193.59 699.91 194.1 699.68 194.81 699.53 195.13 698.7 196.25 698.35 196.66 697.7 197.27 697.04 197.8 696.94 197.93 696.92 198.54 696.98 198.75 697.01 198.99 697 199.35 696.98 199.75 697.08 201.91 697.17 202.26 697.2 202.87 697.15 203.07 696.85 203.71 696.69 203.94 696.37 204.77 696.03 205.78 696.02 207 695.92 207.46 695.83 208 695.78 208.74 695.74 209.28 695.74 209.32 695.78 210.07 695.87 210.47 696.03 211.05 696.31 211.76 696.5 212.07 697.2 212.86 698 213.72 698.29 214.02 698.51 214.18 699 214.59 699.26 214.81 699.53 215.03 699.88 215.36 701.38 217.41 702.54 218.99 703.1 219.79 703.37 220.15 703.62 220.44 703.99 220.76 704.5 221.14 704.8 221.37 705.02 221.47 705.78 221.68 706.51 221.86 706.77 221.86 706.99 221.88 707.25 221.85 707.44 221.78 707.95 221.41 708.35 221.11 708.61 220.91 708.77 220.8 708.93 220.73 709.19 220.69 709.57 220.71 709.79 220.72 709.98 220.79 710.21 220.81 710.4 220.91 710.59 221.02 711.74 221.8 711.86 221.9 712.88 222.35 713.13 222.45 713.65 222.7 714.41 223.3 714.6 223.48 715.02 223.97 716.64 225.46 717.76 226.49 718.14 226.92 718.62 227.4 719.83 228.52 721.17 229.71 722.04 230.68 723.31 231.79 724.59 232.91 725.34 233.57 725.8 233.95 726.58 234.64 727.36 235.23 727.89 235.65 728.46 236.13 729.83 237.08 730.29 237.46 730.7 237.87 731.1 238.41 731.31 238.9 731.46 239.3 731.69 240.83 731.72 241.18 731.78 241.52 731.94 242.54 732.16 242.93 732.39 243.2 732.61 243.41 732.96 243.62 733.37 243.89 733.76 244.64 733.98 244.84 734.17 245.06 734.48 245.32 735.54 246.18 735.53 246.46 735.42 246.67 735.23 246.82 734.52 247.38 734.33 247.53 734.21 247.67 733.98 247.98 734.04 248.36 734.1 248.63 734.2 248.72 734.22 248.78 734.3 249.03 734.43 249.39 734.45 249.68 734.44 249.96 734.21 250.4 733.62 251.03 733.45 251.16 733.19 251.57 733.09 251.78 733.01 251.86 732.93 251.94 732.75 252.19 732.68 252.46 732.65 253.56 732.71 253.83 732.83 254.06 732.96 254.26 733.12 254.43 733.32 254.59 733.54 254.87 735.13 256.2 735.54 256.55 735.87 256.79 736.28 257.03 736.73 257.3 737.01 257.61 736.7 259.1 736.53 259.59 736.43 259.93 736.4 260.96 736.53 261.19 736.79 261.47 737.08 261.67 737.46 261.81 737.78 261.87 738.06 261.88 739.43 261.81 739.72 261.8 739.91 261.77 740.14 261.69 740.3 261.68 740.46 261.66 740.55 261.64 740.65 261.65 740.77 261.7 740.93 261.76 741.22 261.87 741.66 262.01 741.79 262.09 742.23 262.43 742.34 262.55 742.37 262.63 742.36 263.1 742.33 263.41 742.33 263.49 742.47 263.76 742.5 263.85 742.59 263.98 742.65 264.04 742.75 264.19 742.68 264.28 742.48 264.76 742.27 265.24 742.2 265.39 741.91 265.75 741.8 265.94 741.73 266 741.73 266.1 741.83 266.27 742.01 266.55 742.2 266.83 742.37 267.25 742.46 267.6 742.58 267.9 742.84 268.67 742.9 268.88 743.36 269.39 743.58 269.63 743.57 270.27 743.71 270.61 743.93 270.86 744.09 271 744.43 271.26 745.14 272.04 745.45 272.48 745.81 273.42 745.99 273.83 747.55 276.35 748.06 277.24 748.51 278.36 748.03 279.38 747.46 280.37 746.53 281.24 745.95 282.61 744.91 283.91 743.75 284.94 742.9 285.25 741.05 285.58 739.68 286.05 739.43 286.46 739.42 287.22 739.65 288.16 740.07 288.56 741.28 288.81 742.52 290.81 741.87 291.69 741.43 292.74 741.34 293.82 741.73 295.65 742.05 296.56 742.02 297.58 741.85 298.5 741.95 299.95 742.58 301.61 743.13 302.4 743.63 302.73 744.46 303.08 745.2 303.57 745.77 304.1 746.06 305.03 745.77 306.03 745.81 306.82 746.18 307.62 746.73 308.98 747.27 310.24 748.38 312.15 748.64 312.88 748.63 313.39 748.35 314.03 748.17 314.68 748.44 315.47 750.29 318.81 751.29 320.56 752.14 322.13 752.34 322.93 752.28 324.07 751.92 325.72 751.71 326.14 751.26 326.22 750.55 326.74 749.82 327.55 749.46 328.29 749.41 330.2 749.38 330.9 749.37 331.37 748.92 332.69 748.93 333.33 749.32 334.1 749.34 334.98 749.31 335.81 749.51 336.69 749.92 337.69 750.26 338.45 750.23 339.5 750.17 341.43 750.02 342.55 750.02 343.6 750.27 344.5 750.74 345.2 751.61 345.94 752.79 347.13 753.41 347.72 754.03 348.31 754.54 349.16 754.85 350.03 754.9 351.26 754.82 353.01 754.95 354.2 754.99 357.15 755.04 357.81 755.52 359.13 755.91 361.13 756.32 363.41 756.38 364.57 756.23 365.33 755.6 366.16 754.98 366.74 754.67 367.5 754.03 370.16 753.62 373.55 753.46 374.47 753.27 375.55 752.63 376.72 752.32 377.69 752.31 379.62 752.56 380.72 752.99 381.97 753.53 383.33 753.97 384.57 754.67 385.24 755.22 385.72 755.37 386.21 755.51 386.55 755.95 387.11 756.13 387.46 756.24 387.76 755.92 388.14 754.92 388.52 754 388.5 753.6 388.79 753.59 389.16 754.06 389.8 754.8 390.59 755.09 391.26 755.15 391.72 755.51 392.31 755.47 392.67 755.13 393.38 755.02 394.16 754.6 394.41 754.16 394.48 753.79 394.72 753.72 395.01 754.23 395.11 754.93 395.11 755.34 395.31 755.81 395.6 756.11 395.95 755.86 396.07 755.22 396.04 754.58 396.29 754.35 396.58 754.39 396.9 754.74 397.18 754.93 397.45 755.22 398.28 755.63 399.75 756.52 401.72 757.13 403.18 757.54 404.05 757.98 404.55 759.06 405.79 759.92 407.02 760.53 407.94 761.23 409.15 762.03 410.21 762.8 410.82 764.46 411.99 766.34 412.95 768.17 413.72 768.34 414.04 768.34 414.45 768.22 415.11 768.09 416.26 768.3 417.33 768.85 418.56 769.41 419.57 770.12 420.43 770.75 420.66 771.82 420.82 772.7 421.06 773.28 421.26 773.91 421.67 774.52 422.09 775.03 422.29 775.21 422.63 775.44 423.3 776.11 424.63 776.07 425.04 775.75 425.21 775.34 425.28 775.03 425.63 774.99 426.17 775.03 426.83 774.77 427.02 774.2 427.01 773.82 427.01 773.68 427.34 773.73 427.71 773.88 427.94 774.77 428.34 775.21 428.71 775.29 429.04 775.38 429.38 775.66 430.33 776.14 431.26 777.06 432.19 777.96 432.73 778.62 432.84 779.35 432.9 780.12 433.14 781.07 433.29 782.25 433.24 783.18 432.89 783.78 432.48 784.1 432.54 784 432.78 783.74 433.17 783.31 433.65 783.05 434.09 783.11 434.41 783.82 434.53 784.35 434.43 784.65 434.65 784.86 435.21 785.22 435.78 785.09 436.26 784.87 436.99 784.7 437.67 784.93 438.34 785.69 438.79 787.54 439.77 790.44 441.53 792.1 442.68 792.63 443.22 792.92 443.83 793.01 444.44 792.92 445.63 793.14 446.77 793.31 447.21 793.65 447.85 794.15 448.12 794.81 448.31 795.56 449.22 795.94 450.15 796.42 451.21 796.74 452.19 797.16 453.07 797.54 454.11 797.66 454.75 797.76 455.7 798.13 456.22 798.55 456.85 798.84 457.73 798.93 459.26 799 460.26 798.81 461.12 798.07 461.92 797.21 462.9 796.42 463.51 795.63 463.68 794.93 463.56 794.29 463.42 793.69 463.51 793.17 463.9 792.22 464.56 791.8 464.89 791.26 465.32 790.25 465.63 789.54 466.34 789.29 466.85 789.13 467.44 788.56 468.41 787.73 469.54 786.62 470.56 785.82 471.7 784.64 473.19 784.19 474.12 784.23 475.12 784.29 476.44 784.45 477.44 784.42 478.19 784.17 479.07 783.46 479.98 782.89 480.71 782.29 481.47 781.78 482.08 781.72 482.68 781.91 482.93 782 483.18 781.65 483.27 781.47 483.56 781.31 483.88 780.5 484.57 779.81 485.22 778.8 485.93 777.58 486.49 776.12 487.1 774.94 487.51 774.01 487.95 773.35 488.45 772.77 489.03 772.46 489.66 772.35 491.44 772.93 496.06 773.35 497.71 774.18 499.91 774.83 501.07 775.2 501.83 775.25 502.64 775.27 504.08 775.1 505.37 774.78 505.93 774.39 506.23 773.79 506.2 773.1 505.67 772.32 505.08 771.83 504.97 771.51 505.25 771.73 505.69 772.08 506.29 772.17 507.86 772.21 508.91 772.02 509.78 771.76 510.22 771.5 510.67 771.38 511.35 771.15 511.91 770.64 512.81 769.94 513.91 769.27 515.13 768.86 515.95 768.42 516.62 768.1 517.11 767.82 517.84 767.17 518.77 766.51 519.45 765.91 520.12 765.33 520.79 764.92 521.54 764.57 522.22 764.15 523.06 763.93 523.96 763.52 525.03 763.17 526.32 762.43 527.55 762.05 528.45 761.54 529.79 761.25 531.05 760.93 532.31 760.37 533.79 759.93 534.76 759.45 536.33 759.13 537.4 758.85 538.38 758.28 539.2 757.71 540.19 757.51 540.99 756.83 542.28 756.51 543.55 756.07 544.89 755.54 546.25 755.17 547.4 754.71 548.6 754.62 549.26 754.29 549.96 753.66 551.2 752.93 552.28 752.48 553.23 752.1 554.12 751.55 555.09 751.27 555.97 750.7 557.13 750.14 558.16 749.36 559.18 748.48 559.87 748.25 560.53 747.99 561.62 747.67 562.99 747.67 564.23 747.58 564.99 746.97 566.24 746.57 566.99 745.97 567.61 745.55 567.92 745.32 568.36 745.11 568.89 744.69 569.21 743.6 569.55 742.42 569.95 741.51 570.36 740.73 571.02 739.92 571.54 739.53 571.97 739.41 572.7 739.48 574.09 739.34 575.07 739.25 575.78 738.99 576.29 738.23 577.17 737.44 578.14 736.91 578.82 736.22 579.7 735.52 580.83 734.79 582.19 734.34 583.31 733.96 584.54 733.71 585.68 733.58 586.12 733.46 586.56 732.95 587.63 732.25 588.9 731.65 589.7 731.28 590.21 731.14 590.75 731.02 591.66 730.92 592.86 730.6 594.07 729.9 595.04 729.48 596.08 729.16 597.1 729.04 598.64 728.9 599.51 728.56 600.54 728.15 601.53 727.99 602.58 728.06 603.39 728.16 606.58 728.34 608.39 728.64 609.56 729.36 610.69 730.12 611.56 730.35 612.49 730.57 613.52 730.6 615.01 730.41 616 729.94 616.71 728.92 617.35 728.24 617.73 727.54 617.98 726.82 618 725.95 617.66 724.75 617.01 723.57 616.54 722.55 616.42 721.78 616.47 721.45 616.66 720.84 616.9 720.23 617.25 719.72 617.61 719.21 617.61 718.8 617.5 717.94 617 716.51 616.75 715.14 616.98 714.18 617.52 713.35 617.71 712.14 617.47 711.86 617.37 711.07 617.08 709.69 616.4 709.03 616.06 708.56 615.82 707.51 615.69 706.77 616.08 705.47 616.65 704.32 617.06 703.85 616.82 703.71 616.33 703.96 615.46 703.61 614.7 702.52 614.06 701.65 613.49 701.18 613.22 699.46 612.17 697.19 611.3 695.38 610.57 693.98 610.4 692.42 610.2 688.42 609.89 687.08 609.82 685.91 609.6 685.32 609.17 684.62 608.32 683.92 607.86 683.51 607.71 682.49 607.93 681.38 608.06 680.97 608.43 680.52 608.68 677.75 610.13 676 611.25 674.5 611.74 673.96 611.93 673.26 611.69 672.28 611.42 670.79 610.83 669.35 610.48 667.22 610.07 666.81 609.8 666.58 609.17 666.14 608.52 665.69 607.79 666.01 607.06 667.18 604.84 667.69 603.58 668.23 602.58 669.06 602.15 669.96 602.01 671.48 601.97 673.52 602.03 675.04 602.18 676.45 602.03 677.96 601.67 679.31 600.96 680.73 600.24 681.62 599.58 682.04 598.81 681.8 597.92 681.21 597.02 680.35 595.92 680.07 595.01 679.85 593.99 679.59 592.96 678.98 592.39 678.09 592.2 677.23 592.28 676.05 592.45 674.01 592.38 671.63 592.15 670.71 592.01 669.66 592.1 668.86 592.33 668.24 592.55 668.04 592.11 668.54 591.29 669.27 590.07 670.17 589.37 670.97 589.09 671.61 589.04 672.75 588.41 673.74 588.11 675.06 587.89 675.48 587.55 675.45 587.09 674.78 586.47 673.39 585.81 672.36 585.17 671.95 584.69 671.38 584.68 670.33 585.14 669.4 585.62 668.12 586.75 667.06 587.58 666.5 587.72 665.3 587.5 664.48 587.02 664.39 586.27 664.92 585.15 665.68 583.74 665.77 583.03 665.45 582.25 664.77 581.93 664.15 582.02 663.28 582.43 662.4 582.87 661.44 583.06 659.79 582.61 659.41 582.48 659.16 582.31 658.99 581.86 658.92 581.21 658.64 580.79 657.9 580.34 657.23 579.51 656.47 579.01 656.35 578.43 656.61 577.97 656.92 577.28 656.87 576.56 656.28 576.33 655.17 576.19 654.32 575.82 653.7 575.35 653.14 575.4 652.37 575.99 651.28 576.58 650.57 576.63 649.77 576.39 648.86 575.55 647.76 573.88 646.9 572.25 646.57 570.7 646.57 569.53 646.89 568.31 647.53 567.24 648.13 565.95 648.8 563.33 648.91 561.7 648.83 560.19 648.86 559.21 649.38 558.61 650.27 557.5 650.68 557.15 651.12 556.55 651.34 555.9 651.24 554.99 651.2 554.01 651.56 553.56 652.65 552.64 653.95 551.26 654.24 550.42 654.45 549.11 654.3 547.3 653.67 546.04 652.81 544.62 651.14 543.4 649.65 542.65 648.49 542.73 647.01 543.21 646.09 543.83 644.07 544.98 643.25 545.16 642.68 545.14 642.06 545.28 641.56 545.59 640.02 545.79 638.76 545.67 636.61 544.77 634.16 543.65 633.13 543.01 632.92 542.39 632.75 541.62 632.04 540.99 631.07 540.08 630.84 539.65 630.86 538.96 630.86 538.79 629.97 538.72 628.19 538.68 625.57 539.36 623.66 540.33 622.97 540.12 622.2 540.46 620.66 540.44 619.7 540.38 619.07 540.11 618.43 540.06 617.32 540.13 616.34 539.48 615.15 538.93 614.35 538.26 613.97 537.29 613.39 536.54 612.82 535.81 612.44 535.26 611.82 534.46 611.26 533.73 610.93 532.83 610.62 531.96 610.29 531.62 608.87 530.8 607.5 530.6 607.13 529.73 606.92 528.72 605.33 527.67 603.8 526.35 602.46 525.55 601.58 523.41 601.87 521.97 601.67 521.46 601.07 520.89 600.28 520.7 598.93 520.39 598.3 519.85 597.59 519.1 596.88 517.94 596.09 517.44 595.57 517.09 595.31 516.51 595.33 515.8 594.99 515.4 594.02 515.09 593.4 515.11 592.85 515.66 592.14 516.41 591.72 517.07 591.12 517.62 590.5 517.61 589.93 517.17 589.06 516.92 588.3 516.93 587.87 517.12 587.32 517.33 586.73 517.44 586.43 517.39 586.45 516.83 586.8 515.73 587.04 514.83 586.99 513.12 587.43 512.33 587.48 511.6 587.02 510.88 586.65 510.41 586.08 510.38 585.34 511 584.8 511.9 584.07 513.73 583.53 514.8 582.96 515.34 582.19 515.68 581.97 516.07 581.64 516.14 581.18 515.93 580.98 515.32 580.86 513.81 580.83 512.61 580.38 511.61 579.67 510.88 579.31 510.32 579.17 509.46 578.97 508.46 578.08 507.27 577.7 506.85 577.71 505.98 578.2 505.1 578.07 504.54 577.63 503.76 576.94 503.24 576.41 503.3 576.11 503.49 575.67 503.97 575.02 504.81 574.38 505.17 573.91 505.08 573.6 504.42 573.45 503.22 573.37 501.42 573.52 499.27 573.19 498.15 572.18 497.01 570.91 495.71 569.44 494.86 567.26 493.44 566 492.71 565.33 492 565.12 491.07 565.02 490.74 564.93 490.4 564.16 490.03 562.21 489.51 559.6 489.1 558.65 488.64 557.79 487.71 556.76 487.18 554.11 486.72 552.39 486.42 550.54 485.76 549.06 484.84 547.86 483.91 547.15 483.58 546.07 483.42 545.42 483.87 545.06 484.94 544.96 486.65 545.24 488.14 545.42 489.31 545.92 493.47 546.24 495.55 546.88 500.09 546.91 501.7 547.04 502.9 546.66 505.95 546.5 507.51 546.28 508.48 545.97 508.59 545.75 508.67 544.88 508.68 544.16 508 542.3 506.22 541.66 505.33 540.97 504.68 540.53 504.14 540.46 503.34 540 502.97 539.27 502.75 538.19 502.83 537.06 502.78 536.27 501.89 536.33 501.04 537.13 500.31 537.44 500.21 537.41 500.75 538.14 500.69 539 500.66 538.21 499.58 538.21 498.78 537.95 498.21 536.94 497.8 536.11 497.93 535.38 497.86 533.73 497.71 532.93 497.56 532.68 497.19 531.68 496.98 530.92 496.92 530.04 497.12 529.98 497.14 528.15 496.94 525.64 496.82 522.62 496.34 521 495.97 520.5 495.09 520.14 494.62 519.57 494.38 519.12 494.4 518.18 494.38 517.13 494.41 516.85 495.83 516.37 496.47 515.14 497.77 514.25 498.75 513.42 499.39 511.99 499.01 511.87 498.4 512.06 497.96 512.15 497.33 511.64 496.6 510.6 495.93 509.48 495.23 508.66 494.72 508.03 493.99 507.77 493.25 507.46 492.35 506.95 491.87 505.77 490.95 504.47 490.22 503.72 489.32 503.27 488.69 502.86 488.17 502.12 487.54 500.93 486.74 499.98 486.34 499.63 486.41 499.13 486.84 498.73 487.44 498.53 488.17 498.03 488.54 497.17 488.63 495.91 488.25 494.43 487.73 493.87 487.47 493.18 487.15 492.95 487.1 488.54 485.37 484.73 483.88 481.78 482.35 480.8 481.18 480.42 480.55 479.82 479.88 478.29 478.36 477.15 477.22 475.5 475.66 474.77 474.74 472.9 472.9 472.23 472.36 471.57 471.89 470.93 472.24 470.87 473.22 469.76 473.76 469.34 474.24 469.66 474.68 470.23 475.03 471.06 475.09 471.44 475.57 470.99 476.68 471.6 477.82 472.3 479.12 472.07 479.47 471.41 480.07 470.84 480.01 470.23 479.63 469.44 479.56 468.84 479.6 466.81 480.55 465.57 481.34 465.16 480.93 465.38 479.47 466.55 479.25 466.93 478.87 466.87 477.91 466.58 477.44 465.57 477.28 463.98 476.84 462.84 476.84 461.28 477.25 460.24 477.72 458.94 478.64 457.41 479.6 456.05 479.56 454.84 479.09 454.3 478.39 453.48 478.2 452.59 477.76 452.81 477.12 451.54 476.11 450.81 475.52 450.44 474.96 449.87 474.46 449.19 474.13 448.46 473.95 447.98 474.01 445.4 474.17 444.03 474.3 441.59 474.77 438.73 475.12 436.61 474.77 434.96 474.05 434.16 473.51 432.23 472.46 430.1 471.22 429.05 470.87 428.1 470.18 427.15 469.73 426.67 469.45 426.39 468.69 425.31 467.96 424.74 467.26 423.93 466.53 422.8 466.05 419.38 464.85 417.82 464.53 415.54 463.42 413.82 461.9 411.57 460.34 410.39 459.87 408.2 459.65 405.79 459.23 402.97 459.46 401.57 459.33 400.62 458.5 398.75 457.27 397.92 456.73 396.81 455.49 395.42 454.92 393.16 454.16 391.58 454.1 390.4 453.75 389.2 452.6 388.82 451.81 388.24 451.08 387.23 450.64 385.8 449.91 385.1 448.99 384.09 448.39 381.64 448.45 379.65 448.64 378.28 448.13 377.77 447.5 378.34 446.96 377.96 446.71 375.77 446.74 373.49 447.83 371.8 447.86 371.15 447.61 370.68 447.32 370.36 447.13 369.43 446.36 368.96 446.06 368.23 445.59 367.96 445.15 368.07 444.37 368.25 443.59 368.39 443.05 368.17 442.73 367.58 442.34 366.92 441.98 366.29 441.76 365.58 441.15 364.19 440.41 363.52 440.22 362.41 440.07 361.52 439.93 360.17 439.66 359.34 439.26 358.08 438.78 357.27 438.38 356.83 438.27 356.54 438.1 356.13 437.85 355.62 437.68 354.5 437.02 353.59 436.44 352.65 435.78 351.71 435.12 350.9 434.48 350.24 433.95 349.39 433.26 348.75 432.38 348.01 431.44 347.21 430.46 345.78 428.97 342.98 426.61 341.75 425.51 340.44 424.7 340.32 424.21 340.15 423.96 339.8 423.8 339.19 423.77 338.56 423.77 338.08 423.66 337.73 423.41 337.93 422.87 338.4 422.15 339.84 420.56 340 420.07 339.7 419.87 339.45 419.95 338.89 420.28 336.08 422 335.34 422.23 331.2 419.97 331.14 419.73 334.36 416.63 334.62 416.34 334.3 416.09 333.81 416.01 333.25 416.19 332.68 416.58 331.34 417.56 330 417.81 329.31 417.72 327.78 416.58 326.07 415.4 324.9 414.74 323.69 414.13 322.1 413.63 321.34 412.87 319.95 412.48 318.51 413.51 317.26 414.31 315.58 415.33 315.74 414.8 315.99 414.07 316.24 413.3 316.25 412.25 316.33 411.28 315.92 410.42 315.12 409.76 313.92 408.84 313.25 408.36 312.11 407.32 312.08 406.84 311.31 406.21 310.62 405.6 307.81 403.59 307.56 403.42 306.36 401.92 303.22 399.77 302.21 399.23 298.53 397.17 295.07 395.29 291.96 393.9 291 394.12 288.91 393.23 287.26 392.09 285.23 389.9 284.69 388.41 283.67 387.33 281.07 385.87 277.74 384.26 276.12 382.39 275.8 381.34 274.6 378.87 274.09 378.26 274.12 377.66 273.36 376.46 272.44 375.73 272.12 375.22 272.19 374.36 271.77 373.03 270.66 371.95 268.7 370.43 267.19 368.73 266.61 367.42 266.32 366.74 266.51 365.13 266.32 364.09 265.78 363.32 265.75 362.59 265.02 361.68 264.16 361.14 263.56 360.66 262.25 359.58 261.33 358.41 260.38 357.96 259.33 356.85 259.24 356.38 258 355.17 257.08 354.29 256.1 353.78 255.65 353.18 255.08 352.19 255.21 351.72 254.61 351.49 253.97 350.89 252.92 350.57 252.42 350.76 251.27 350.98 250.01 351.21 248.48 350.64 248.1 349.91 249 349.57 248.97 349.13 248.97 348.73 249.72 348.16 250.29 347.78 250.01 346.55 249.56 346.39 248.61 346.45 248.3 346.76 247.73 346.76 246.93 346.64 246.58 346.49 246.03 346.18 245.91 345.44 245.25 344.39 244.07 343.31 243.91 342.61 242.9 341.82 242.29 341.03 241.72 340.08 241.44 339.35 239.25 338.52 237.82 337.95 235.54 336.82 234.09 335.63 233.47 334.15 233.54 333.19 233.16 332.59 232.52 332.12 231.85 331.73 231.41 331.32 231.06 330.47 230.62 329.61 229.98 328.98 229.25 328.59 228.77 328.48 228.33 328.1 227.94 327.66 227.12 325.93 226.27 324.28 226.23 323.86 226.44 322.93 226.06 322.38 225.51 321.83 224.66 320.39 223.39 318.95 222.33 318.02 219.92 316.75 217.09 315.7 215.14 315.57 213.87 315.65 211.41 316.56 210.17 316.52 203.76 313.96 199.82 312.69 196.97 312.73 196.57 312.68 196.01 312.44 195.78 312.34 194.92 311.9 194.24 310.79 190.26 309.18 188.99 308.76 188.08 308.93 187.71 308.74 186.54 308.24 185.44 307.7 183.45 305.63 182.22 303.69 181.29 302.63 178.92 301.53 177.48 301.28 175.16 300.81 171.9 299.71 171.9 298.91 170.63 298.1 168.94 297.3 167.08 296.24 166.35 296.42 165.81 296 165.07 295.47 163.94 293.88 163.18 293.24 162.17 292.56 161.41 291.3 159.8 290.83 158.83 290.75 158.28 290.49 157.68 290.03 156.12 289.44 153.32 288.76 151.67 288.25 150.49 287.74 149.96 286.76 149.6 286.09 149.47 285.55 149.18 284.38 148.97 283.56 Z M 464.41 448.2 463.86 448.19 463.92 448.83 463.85 449.15 464.24 449.22 464.43 449.11 465.19 448.97 464.83 448.49 464.41 448.2 Z M 246.52 25.04 246.68 25.07 246.97 24.96 247.09 24.64 247.19 24.18 247.42 23.6 247.4 23.35 247.28 23.3 247.09 23.38 246.84 23.63 246.61 24.21 246.46 24.94 246.52 25.04 Z" fill-rule="evenodd"/>
</g>
</svg>