<?xml version="1.0"?>
<svg xmlns="http://www.w3.org/2000/svg" version="1.2" baseProfile="tiny" width="800" height="854" viewBox="0 0 800 854" stroke-linecap="round" stroke-linejoin="round">
<g id="meisslake">
<path d="M 624.6 510.15 635.64 520.84 641.63 531.81 644.25 537.64 647.9 545.75 646.85 557.71 644.57 573.76 642.68 581.94 641.95 585.09 634.29 599.68 638.9 621.37 637.52 628.29 630.13 640.75 617.68 655.52 605.68 665.21 597.84 665.21 587.69 666.59 580.77 671.67 577.08 679.51 573.85 692.44 566.46 700.74 551.24 708.59 534.63 717.36 530.48 728.43 546.78 734.18 551.33 734.48 555.74 734.78 559.15 735.33 561.86 736.14 563.57 737.99 565 740.01 566.98 740.99 569.26 741.7 570.83 743.29 570.26 747.22 569.13 750.52 569.71 752.28 570.08 752.58 571.23 753.51 571.7 753.86 572.56 757.8 574.41 758.95 570.62 782.43 564.16 795.35 555.14 799.24 551.43 798 521.85 794.59 499.56 778.73 489.41 769.04 474.19 765.81 463.12 765.81 442.6 763.25 431.28 733.05 418.36 722.89 413.29 701.67 418.36 680.9 428.05 656.44 424.82 643.06 412.36 626.44 390.22 620.91 365.3 628.29 336.24 643.06 324.24 657.36 313.63 699.82 315.01 715.97 315.01 738.12 307.63 757.04 285.48 780.58 280.41 797.19 257.09 820.23 239.29 818.18 225.71 814.7 219.72 802.24 203.57 794.85 177.73 805.93 160.2 830.39 137.59 844.69 72.07 848.38 34.24 853 6.63 849.45 7.33 843.08 7.86 834.44 8.45 829.72 9.29 822.39 9.3 818.03 8.57 813.74 8 809.55 8.56 805.97 7.71 800.46 6.13 795.47 4.28 791.87 2.29 788.54 1 784.68 1.41 780.23 4.61 775.02 7.31 769.8 11 765.02 14.84 759.03 18.53 754.08 22.51 748.61 26.91 741.92 30.47 735.83 34.45 729.05 37.71 725.41 41.54 718.89 45.95 711.94 49.79 706.03 51 703.42 54.69 698.38 58.09 693.87 60.66 689.44 62.79 686.13 65.63 682.31 69.04 677.1 71.88 672.93 75.15 668.42 78.71 663.38 82.68 659.04 86.09 655.84 87.93 653.23 92.35 649.43 96.33 646.05 101.87 642.43 106.71 638.45 112.11 634.91 117.66 631.29 122.86 627.57 126.25 624.72 132.67 619.36 135.93 616.06 139.63 611.38 141.47 607.2 152.54 576.63 153.68 573.41 155.23 571.06 154.8 568.35 152.81 566.07 150.81 563.87 149.34 555.38 146.17 536.84 138.01 494.24 137.58 489.87 141.26 482.56 152.13 460.38 152.83 457.59 151.99 454.44 148.98 450.31 145.71 448.97 142.01 449.47 139.17 449.36 136.31 447.06 132.9 443.71 128.2 439.57 125.34 436.05 123.35 432.81 123.19 429.31 121.63 427.12 120.21 425.71 121.2 423.97 127.17 421.83 133.81 419.62 170.86 407.34 222.69 392.54 228.38 383.5 228.8 379.05 229.94 375.65 229.93 372.25 228.79 366.56 228.36 364.55 227.21 362.53 223.81 359.88 219.37 356.26 213.69 353.51 209.27 352.52 203.72 351.25 198.74 350.51 183.96 345.52 174.98 338.72 158.67 325.58 150.84 319.66 141.57 312.25 138.87 309.61 137.15 306.27 136.58 302.17 136.57 296.58 136.7 284.87 136.76 273.52 136.99 229.76 137.84 162.08 139.21 101.74 146.25 96.82 161.87 105.3 178.94 109.91 201.09 114.99 219.54 116.83 228.77 123.29 236.61 121.45 241.23 113.14 238.92 99.3 241.23 90.53 248.61 79.91 262.45 70.22 280.91 66.07 286.44 63.76 293.82 66.99 291.52 74.84 283.21 81.3 279.98 90.53 273.06 93.76 265.68 93.76 259.22 96.53 254.15 98.84 264.76 102.53 286.44 110.83 303.51 115.45 317.35 116.37 328.93 123.35 346.42 133.91 358.42 142.22 366.72 149.6 372.26 155.6 369.95 163.91 369.96 163.93 381.49 186.52 393.02 203.59 419.78 209.13 415.17 204.06 400.4 196.67 392.1 192.52 387.02 184.21 383.33 165.75 388.41 150.52 396.25 142.68 406.86 142.68 417.94 144.52 435.93 150.06 459 155.6 465.46 152.83 484.84 127.45 483.45 120.06 477.91 116.37 464.53 110.83 454.85 98.37 445.62 75.76 443.77 62.38 442.39 43.46 439.62 27.31 438.7 11.61 441 4.23 452.54 6.54 458.54 7.92 464.07 2.85 469.15 1 477.91 1.46 486.22 9.31 491.29 17.61 489.45 26.84 487.6 37.46 494.06 41.15 506.06 38.84 510.21 41.61 511.61 50.35 514.38 57.74 530.07 61.43 561.44 74.35 587.28 92.81 593.74 102.04 581.74 110.35 571.59 114.96 564.21 122.34 573.44 129.73 589.13 125.11 609.43 114.96 624.19 112.19 652.8 120.5 679.56 135.27 728.87 168.65 747.79 212.03 727.49 256.33 710.42 270.64 679.96 261.41 647.67 244.33 626.91 238.33 634.29 266.02 651.36 275.25 676.27 296.94 687.81 315.4 698.42 334.32 708.57 351.4 727.95 372.62 757.48 375.86 772.24 384.62 797.62 411.39 799 433.54 785.16 452.92 753.78 469.54 727.02 468.61 711.8 454.77 701.65 437.23 681.81 417.39 659.2 401.7 631.98 388.32 614.45 394.31 611.22 403.08 615.37 421.08 609.83 431.23 591.38 434 580.31 431.23 583.54 455.69 592.3 469.08 596.92 483.38 602.45 498.61 624.6 510.15 Z M 305.6 405.21 293.39 369.24 266.86 371.55 240.29 408.54 252.47 419.62 274.61 438.44 297.87 472.78 323.32 513.75 349.41 534.04 350.69 532.47 352.97 533.28 355.53 534.35 358.1 535.42 361.52 537.02 364.93 538.44 368.07 540.39 371.91 542.34 376.47 542.9 380.17 543.63 383.3 544.88 385.57 545.51 389.99 546.16 393.83 546.71 396.97 547.79 397.28 548.07 410.79 535.9 401.94 501.56 404.15 490.49 414.12 481.63 419.65 472.77 418.55 458.37 393.08 450.62 360.97 426.25 343.25 409.64 305.6 405.21 Z M 213.14 213.37 206.77 218.08 203.17 224.81 201.51 236.08 205.94 244.88 242.48 252.69 254.66 259.06 262.97 259.34 269.89 252.14 270.72 239.4 264.35 225.28 261.59 216.25 260.2 211.71 263.25 204.24 265.74 198.98 262.14 193.99 256.6 193.72 230.03 205.07 220.61 210.05 213.14 213.37 Z M 400.2 323.44 385.8 316.21 380.82 315.3 378.54 317.29 377.36 326.44 381.05 343.98 384.05 371.9 383.36 379.74 381.74 385.28 385.32 390.13 384.51 401.2 396.05 403.97 404.57 405.4 403.87 387.4 401.11 350.71 405.95 328.56 400.2 323.44 Z M 568.53 356.1 569.91 353.74 566.04 349.17 559.53 349.03 552.33 351.8 542.23 361.49 540.98 367.17 542.37 370.22 544.68 370.44 549.7 370.22 554 366.76 568.53 356.1 Z M 467.66 266.08 474.58 265.16 481.04 262.85 469.97 254.54 466.74 261.01 467.66 266.08 Z" fill-rule="evenodd"/>
</g>
</svg>