<?xml version="1.0"?>
<svg xmlns="http://www.w3.org/2000/svg" version="1.2" baseProfile="tiny" width="800" height="964" viewBox="0 0 800 964" stroke-linecap="round" stroke-linejoin="round">
<g id="topazlake">
<path d="M 397.98 633.47 403.37 636.48 424.44 654.65 426.09 666.74 432.41 674.16 436.84 683.73 439.28 707.42 435.43 714.29 429.39 720.61 429.94 727.21 433.23 737.1 439.28 750.3 438.45 761.56 430.76 781.9 429.94 789.87 432.41 796.75 452.74 819.01 471.7 834.4 482.41 842.92 495.88 850.89 506.42 850.35 508.63 851.22 512.16 852.63 516.74 853.78 521.85 854.3 527.31 854.13 532.96 853.51 537.53 851.75 540.7 850.43 544.23 849.37 546.52 849.19 550.92 849.72 557.09 850.87 562.9 852.1 568.54 853.51 574 853.87 578.58 852.81 580.87 851.92 584.4 850.6 586.86 850.25 589.86 850.43 592.85 851.05 597.08 851.84 602.01 852.89 605.9 853.43 608.72 853.43 611.36 853.16 614.35 852.63 618.57 852.19 622.45 851.13 624.75 850.6 627.04 849.9 629.15 849.28 630.74 848.84 632.85 848.23 634.79 848.31 637.07 848.14 641.13 847.6 647.83 847.08 656.14 851.39 659.8 856.13 632.37 861.09 614.57 863.4 591.16 863.73 579.29 867.02 565.44 872.96 549.29 878.24 534.45 879.89 513.68 875.93 493.57 872.3 475.43 872.63 467.19 874.61 468.51 878.24 469.83 884.5 471.15 896.38 466.15 901.76 462.58 905.61 453.67 909.24 446.09 913.86 441.48 920.78 430.27 923.42 424.99 928.04 419.39 931.34 406.86 934.31 393.01 941.56 379.16 947.83 367.95 954.42 358.72 956.73 345.64 958.15 333.01 958.71 320.15 962.34 310.92 961.35 300.04 963 295.09 958.38 291.46 954.09 275.31 947.5 270.03 943.87 264.43 939.91 263.44 946.84 258.82 946.18 257.83 940.9 253.88 937.27 252.23 932.66 253.22 926.39 251.57 919.46 251.24 912.87 247.83 906.36 244.65 901.65 234.1 899.68 223.22 896.38 220.58 890.77 223.88 880.88 225.85 867.68 219.59 861.42 213.19 852.08 206.4 849.21 199.48 847.56 189.26 836.68 166.84 818.87 151.01 794.79 152 789.19 157.28 783.25 157.96 778.15 154.97 775 155.3 770.39 151.34 767.75 142.11 763.46 134.86 759.83 129.25 757.85 124.64 752.58 122.22 750.16 106.87 734.8 101.23 729.16 91.01 718.94 80.46 711.35 68.92 708.38 60.68 703.76 58.17 701.88 54.35 699.02 52.76 697.83 46.5 688.92 33.64 678.04 29.71 671.66 31.33 664.85 29.68 653.96 25.4 644.73 19.46 637.8 9.24 630.22 2.65 621.97 1 612.74 1.33 607.79 3.97 597.23 5.35 595.58 6.42 594.29 8.91 591.3 9.57 583.38 5.95 577.44 5.95 571.91 5.95 571.51 7.89 566.43 9.12 563.21 11.88 556.01 13.85 549.36 17.16 538.2 22.76 527.97 24.74 519.73 20.78 515.44 22.1 509.83 37.93 497.96 51.36 487.31 55.4 484.11 60.4 474.41 61.28 473.33 67.27 465.97 70.24 459.04 72.54 451.46 75.51 432.66 75.18 423.42 69.25 417.48 67.57 407.72 61.33 400 57.71 392.42 50.45 388.13 45.18 382.85 39.9 374.94 39.24 365.7 41.48 353.94 27.81 344.25 26.75 342.22 24.98 340.9 23.75 340.29 21.64 339.93 19.52 339.58 17.23 338.87 17.58 337.73 17.05 335.79 16.52 331.65 15.29 327.24 14.42 322.22 14.42 318.69 14.06 313.49 14.06 312.26 14.59 310.15 16.35 307.5 17.58 305.83 19.35 303.36 20.76 301.51 20.93 298.95 20.05 297.1 18.81 295.6 18.64 294.64 19.52 293.31 20.76 291.9 21.28 289.61 21.82 287.85 21.99 285.29 23.22 282.83 24.63 281.41 26.75 279.12 30.79 276.22 34.14 273.57 41.37 267.84 44.89 265.02 46.47 262.73 47.53 260.45 49.3 258.94 50.53 256.92 51.59 255.69 53.53 254.27 54.94 252.86 55.46 251.72 56.16 249.87 57.23 248.89 57.93 248.28 60.92 246.6 62.68 245.11 63.57 243.79 64.63 242.38 65.51 240.97 66.57 239.73 68.86 238.06 70.97 235.5 73.26 232.24 75.02 229.42 76.25 226.16 77.31 223.87 77.66 222.02 78.73 220.08 80.66 217.88 82.6 215.5 83.3 213.74 84.36 211.71 85.95 209.68 87.71 207.83 89.64 206.07 91.4 204.57 92.47 203.34 92.47 202.37 93 201.23 93.35 200.78 95.11 199.11 96.34 198.14 98.81 196.38 100.39 193.38 101.98 190.12 104.28 187.21 106.74 185.36 110.96 183.42 113.43 182.27 115.9 180.69 117.66 178.22 119.6 176.55 121.54 175.58 123.65 174.96 125.59 173.29 126.47 171.26 128.05 170.21 129.46 168.08 130.35 166.06 131.58 164.12 133.52 162.89 134.76 161.48 136.34 158.84 137.92 157.25 139.86 156.19 140.56 154.87 141.27 152.14 141.45 148.97 142.68 147.11 144.61 144.91 145.15 142.18 146.38 138.83 147.26 136.98 147.61 134.6 148.32 131.42 150.08 128.52 151.66 125.61 153.25 122.62 154.31 120.5 155.36 119 155.54 118.56 156.42 117.51 157.84 115.04 159.42 112.84 160.83 110.01 162.24 107.46 164 104.9 166.12 102.44 167.52 101.11 167.7 100.23 168.94 98.38 169.97 96.09 170.17 95.65 170.52 93.98 171.05 93 171.22 91.68 173.16 87.9 173.34 87.19 174.04 85.96 176.86 83.75 180.92 81.64 182.85 80.67 184.27 79.96 184.44 79.09 184.61 77.14 185.5 74.68 186.73 72.91 189.2 70.18 190.25 68.68 190.96 67.98 190.95 66.83 189.9 65.78 189.2 64.63 189.02 62.96 189.72 60.93 190.95 59.87 192.9 58.2 193.95 57.32 194.83 55.91 194.48 52.82 194.31 51.41 194.48 50.18 196.24 48.15 198.01 44.54 199.24 42.33 200.65 39.34 201.36 36.52 201.36 34.58 201.71 33.08 203.65 31.58 205.23 30.08 207.34 28.5 210.52 25.59 210.69 24.36 210.69 23.04 210.51 21.45 211.05 20.31 212.28 18.45 214.03 17.13 215.81 15.99 217.04 14.67 217.04 13.43 215.62 13.34 214.75 12.99 212.64 11.66 211.05 10.61 210.34 10.17 209.11 9.64 208.58 8.58 209.28 8.32 211.58 8.05 214.75 8.06 217.03 7.7 219.33 6.47 221.62 5.15 225.67 4.44 229.72 4 234.83 3.73 240.82 4.09 246.81 4 252.45 2.77 257.56 1.35 262.67 1 266.19 1.8 269.01 2.68 272.01 4.09 275.71 5.06 279.41 5.05 282.4 6.38 285.4 7.88 288.04 9.37 290.33 10.61 293.68 11.4 297.03 11.66 301.78 11.76 308.13 12.02 314.82 12.1 319.76 13.51 322.57 14.57 325.57 15.45 329.62 16.24 332.61 16.42 336.15 16.33 338.61 16.34 340.9 16.77 342.31 17.13 343.54 18.01 344.95 18.72 346.01 19.77 347.59 21.63 350.06 23.21 352.7 24.44 355.52 25.06 357.82 24.97 361.16 25.32 363.45 26.47 366.8 27.88 370.5 28.41 375.08 28.41 382.48 27.88 388.12 27.26 392 27 399.39 27.08 406.97 27 412.61 27.26 417.37 28.05 421.06 28.94 425.12 29.91 427.59 30.44 429.7 29.91 431.82 29.2 434.81 27.79 437.46 26.47 441.5 25.94 444.51 25.68 449.61 25.76 454.19 24.62 460.01 23.39 463.88 22.5 474.98 21.18 478.86 21.53 483.8 21.97 488.73 22.85 493.83 24.09 498.24 24.8 502.82 25.06 508.11 24.88 512.51 25.06 516.74 25.76 522.21 28.14 525.19 30.08 528.19 32.81 531.89 34.13 534.36 34.31 536.83 33.61 540.52 33.08 544.05 34.13 551.45 36.07 560.79 38.19 567.83 40.48 573.3 42.42 578.41 44.53 583.17 47.27 588.98 49.9 596.03 53.08 601.67 56.25 606.07 58.89 610.66 63.39 616.65 66.91 628.27 71.06 634.44 72.47 638.84 74.05 641.13 75.46 643.25 77.49 645.37 79.78 647.82 81.81 651.53 84.1 654 87.01 654.88 91.24 655.58 94.06 657.52 97.23 659.99 100.05 662.98 102.96 664.92 105.95 665.28 107.89 664.92 110.45 663.16 113.8 661.92 115.21 659.99 115.91 658.05 116 655.58 115.12 652.59 114.06 649.77 112.74 645.89 111.77 642.36 111.06 637.96 110.01 634.44 109.13 631.27 107.45 627.74 105.78 622.46 104.54 618.06 104.02 612.77 104.02 609.41 104.19 607.66 104.81 606.96 105.96 607.3 106.92 607.66 107.81 609.07 109.21 610.65 110.97 612.42 113.01 612.42 115.2 612.76 117.06 613.65 119.17 615.41 121.38 615.59 123.31 615.59 125.43 615.59 126.04 615.06 127.63 615.06 129.31 616.12 130.63 618.05 132.21 620.35 133.1 623.34 133.27 626.86 132.74 630.39 132.04 633.21 131.51 634.97 132.04 636.55 132.66 638.66 132.83 640.43 133.98 641.84 134.6 644.83 134.86 648.53 135.12 650.37 135.5 651.53 135.74 654.88 135.83 657.87 135.21 659.99 134.06 661.22 132.21 663.69 129.65 666.33 126.67 668.62 125.96 671.62 126.4 674.96 127.37 678.31 129.66 681.66 132.57 685.54 134.86 689.76 136.09 692.76 137.42 694.34 139.44 697.52 140.32 699.63 139.97 702.8 140.24 708.79 141.2 714.26 140.41 719.19 139.18 723.24 137.41 727.65 135.04 733.29 130.18 736.28 127.01 739.62 124.72 742.44 123.75 746.32 122.7 752.84 121.72 759.54 121.46 772.92 124.81 776.27 126.75 780.15 129.04 784.55 131.86 788.26 135.39 792.31 139.61 794.78 143.14 794.95 143.76 796.36 147.55 797.24 150.98 798.48 155.12 799 159.18 798.66 162.61 797.77 166.23 796.71 169.49 795.31 174.95 793.01 183.5 791.78 187.99 790.54 190.2 787.9 191.35 785.79 192.58 783.85 194.25 782.09 195.84 781.2 197.87 780.68 200.34 780.15 202.62 779.98 205.89 779.62 208.26 778.56 209.68 777.99 209.79 776.8 210.03 774.87 209.76 773.46 209.94 772.22 211.7 770.46 214.61 769.23 218.13 767.47 221.66 765.88 224.74 763.76 228.53 763.06 231.09 763.06 232.41 763.06 233.38 762.71 234.79 760.87 235.4 760.06 235.67 756.72 236.64 754.43 237.17 751.43 237.43 748.44 237.43 745.97 237.08 744.03 236.38 742.1 236.46 739.28 236.99 733.81 238.05 729.94 238.49 726.41 239.19 722.89 240.69 719.9 242.9 718.13 245.28 715.49 246.78 712.49 248.1 710.73 251.1 708.79 254 706.15 257.09 703.34 258.94 699.1 261.59 695.04 265.98 692.94 269.07 690.82 272.24 688.53 273.39 685.71 273.92 682.01 275.6 681.31 277.36 680.25 279.03 678.13 280.26 676.55 282.03 675.32 284.67 674.08 288.19 670.56 292.34 666.68 295.43 661.92 297.36 656.47 299.03 651.35 299.83 646.95 300.18 640.43 299.91 636.38 299.39 633.56 298.77 629.5 296.83 624.57 293.66 619.99 291.01 616.64 290.14 614.17 290.22 609.6 291.99 604.31 295.16 600.08 297.36 596.03 298.6 592.85 300.44 591.8 301.85 591.62 303.97 591.98 306.97 592.32 310.93 591.62 313.66 591.62 316.66 592.33 320.01 594.62 325.47 596.03 329.97 594.79 333.05 593.56 336.05 592.86 339.75 591.62 341.33 589.33 343.36 587.4 345.39 587.4 346.8 587.92 348.56 587.39 350.5 587.4 351.82 587.92 354.29 586.87 355.7 586.52 357.2 586.87 358.61 586.87 359.84 585.98 361.16 585.64 362.84 585.64 363.98 584.93 365.57 583.17 367.33 582.81 369.18 582.99 371.39 583.69 373.68 584.93 376.85 586.16 380.02 586.16 382.22 585.1 383.28 583.87 385.84 584.4 388.3 583.87 390.33 581.93 391.56 579.47 393.59 577.88 397.73 577.7 403.2 578.23 409.19 579.47 413.24 580.88 418.18 581.93 422.85 583.69 430.34 585.1 435.71 585.28 440.21 584.93 446.47 584.93 451.14 585.81 454.57 586.69 456.95 587.92 459.24 587.39 459.68 588.63 462.77 589.33 464.44 589.5 465.94 589.33 467 588.98 467.97 588.62 469.02 587.92 469.64 586.87 470.17 586.16 470.26 585.1 470.08 583.17 469.02 580.52 467.27 578.93 465.86 577.18 464 576.11 462.77 574.71 461.97 572.77 462.33 572.24 463.3 570.83 464.62 567.49 465.06 565.02 465.23 562.37 465.06 556.2 465.41 553.39 466.12 550.92 467.7 548.46 469.64 544.76 470.53 541.05 470.88 536.3 471.49 532.6 472.46 528.9 474.31 525.02 475.2 520.62 475.29 515.51 475.46 511.63 475.72 507.75 476.16 503.52 477.66 499.47 479.42 495.07 481.8 492.25 483.04 489.25 484.8 486.97 486.56 484.14 488.68 481.86 490.53 478.33 492.47 475.34 494.14 472.86 495.82 470.58 497.49 469.69 499.26 469.17 501.72 469 504.9 468.29 506.92 466.88 509.57 464.23 513.09 462.29 515.73 459.3 518.56 456.84 521.47 454.37 523.49 451.37 525.43 447.14 528.78 444.15 531.33 441.5 533.8 439.21 536.53 437.28 538.47 432.87 541.82 427.59 545.43 423.35 547.19 419.66 548.43 415.43 549.75 406.97 551.87 402.04 553.1 395.7 554.16 390.94 554.95 386.71 556.27 383.19 557.94 380.72 560.15 378.6 562 377.19 563.41 375.08 566.32 372.44 570.29 370.5 573.54 368.03 578.39 367.15 581.21 365.92 584.56 365.92 586.76 364.69 589.67 363.45 592.14 362.92 595.48 362.92 598.4 363.45 602.09 364.68 605.71 368.39 608.71 373.85 611.61 378.25 615.76 382.48 620.16 386.89 624.31 389.88 627.57 393.58 630.74 397.98 633.47 Z"/>
</g>
</svg>