<?xml version="1.0"?>
<svg xmlns="http://www.w3.org/2000/svg" version="1.2" baseProfile="tiny" width="800" height="832" viewBox="0 0 800 832" stroke-linecap="round" stroke-linejoin="round">
<g id="bigsagereservoir">
<path d="M 680.11 275.08 680.97 275.86 682.95 277.39 684.01 277.74 686.51 277.69 688.1 278.07 690.35 279.01 691.51 279.91 693.01 280.92 693.18 281.89 692.41 284.24 691.35 286.05 690.14 287.32 688.71 288.78 687.39 290.33 686.18 291.8 684.82 293.35 683.55 294.35 682.3 295.73 680.4 297.76 678.13 299.07 676.41 299.99 675.01 301.48 674.18 303.07 672.67 306.35 671.61 307.79 669.63 310.01 668.27 311.65 667.2 314 666.15 315.41 665.68 317.51 665.22 319.55 665.58 322.51 666.75 324.63 668.16 325.99 669.63 326.63 671.2 327.65 672.28 328.82 672.63 329.86 672.5 330.76 672.3 333.21 672.12 334.57 670.99 335.9 669.76 336.79 668.19 337.43 666.59 337.89 663.76 338.63 662.39 338.84 661.51 339.14 659.07 339.74 657.86 339.87 655.58 339.87 653.84 339.76 651.87 339.63 649.67 339.51 647.24 339.46 645.04 339.46 643.98 339.45 643.14 339.41 641.69 339.85 640.34 341.11 639.73 343.1 639.41 345.43 638.87 347.98 638.36 350.39 637.9 352.44 638.19 354.78 638.88 356.63 640.53 359.27 642.5 361.43 644.79 362.34 646.84 362.56 648.97 362.27 650.79 361.95 652.21 361.6 653.04 361.61 654.17 361.71 654.81 362.05 655.4 363.09 655.78 365.03 655.7 366.85 656.09 368.22 656.55 369.84 656.45 370.98 655.78 372.31 655.02 373.95 653.72 376.16 653.89 377.41 655 378.85 656 379.91 656.54 381.34 656.44 382.14 655.62 385.46 654.26 388.68 652.04 393.01 650.66 395.59 648.41 398.07 647.26 398.65 644.81 399.73 641.86 400.92 639.07 402.17 637.92 402.69 636.26 403.81 633.99 405.63 632.45 406.39 629.88 407.8 628.8 408.82 626.89 411.16 626.15 412.29 625.23 414.15 624.94 415.6 624.95 417.14 626.36 418.49 628.51 419.17 630.39 419.91 631.61 421.23 632.36 423.46 632.97 425.2 633.97 426.58 634.72 426.93 635.63 427.03 636.7 426.75 637.82 425.66 638.95 424.36 639.66 422.66 639.81 421.3 640.32 418.63 641.25 415.93 642.31 413.84 643.37 412.06 644.53 411.39 645.36 411.29 646.8 411.45 648.91 412.24 650.64 413.03 653.01 413.62 654.68 413.73 656.29 413.38 658.16 412.61 660.05 411.06 660.99 409.79 662.11 408.44 662.87 406.74 663.77 405.36 664.77 404.74 665.92 404.27 667.67 404.29 669.93 404.8 671.39 405.93 671.59 407.3 671.97 410.55 672.57 412.72 673.33 414.38 674.49 415.56 675.76 416.43 676.45 417.71 677.59 419.72 679.77 422.22 682.2 424.21 685.16 425.7 688.26 426.45 690.83 426.68 692.9 425.76 693.65 424.72 694.59 423.25 695.33 422.18 695.95 421.67 696.86 421.54 698.07 421.55 699.14 421.42 699.87 420.92 700.84 419.98 702.35 418.36 704.92 417.11 705.98 416.98 706.9 417.05 707.73 417.26 708.17 417.66 708.65 418.52 708.86 419.26 709.26 420.06 709.78 420.69 710.52 421.47 711.68 422.4 712.04 422.91 712.37 423.92 712.67 425.74 712.42 426.53 711.47 426.95 710.85 427.28 710.76 428.02 711.46 430.76 712.06 431.25 712.88 432 713.82 432.47 715.1 432.85 716.23 433.15 717.36 433.53 718.67 434.17 719.5 434.5 722.67 435.42 723.08 435.99 723.07 436.39 722.59 437.29 722.46 438.26 722.7 439.46 722.7 441.34 722.09 443.21 721.17 443.65 720.18 443.89 718.88 444.11 717.25 444.29 712.67 445.37 711.37 445.84 710.72 446.18 710.26 446.74 710.17 447.36 710.42 448.1 711.08 448.85 712.77 449.76 714.8 450.72 717.77 452.26 723.85 455.26 727.64 457.33 728.08 457.93 728.33 458.67 728.16 459.47 727.8 460.12 727.34 460.51 726.42 461.13 725.31 461.66 723.93 462.15 722.48 462.67 721.03 463.06 719.46 463.41 717.56 463.7 714.37 464.09 712.32 464.32 711.02 464.39 709.28 464.34 708.06 464.38 706.17 464.56 705.18 464.72 703.77 465.07 702.92 465.35 700.84 466.38 698.95 467.01 697.04 467.53 694.98 467.98 693.38 468.03 691.42 467.8 688.77 467.23 685.65 466.14 681.69 464.61 678.24 463.01 674.26 460.86 672.31 459.89 671.08 458.86 670.65 457.94 669.97 457.45 669.41 456.99 668.2 456.86 666.94 457.16 665.26 457.85 664.41 458.63 663.89 459.71 664.56 460.69 665.95 461.19 668.3 462.95 670.1 463.94 671.33 465.06 671.61 465.98 671.61 468.2 671.76 470.13 672.06 471.84 673.06 473.25 675.04 474.35 677.53 475.26 680.63 475.47 683.44 475.59 685.86 475.93 688.08 476.61 689.51 477.48 690.21 478.57 690.7 480.03 691.85 481.69 692.77 482.78 693.47 484.02 693.59 485.44 693.67 487.15 693.91 488.35 694.98 489.61 696.71 490.57 698.85 491.65 700.84 492.14 708.26 493.18 710 493.23 711.75 493.17 712.74 493.07 714.11 492.77 716.28 492.54 717.75 493.07 719.93 493.64 722.58 494.32 724.81 494.66 727.23 494.83 729.13 494.83 731.63 494.77 733.76 494.65 740.25 494.53 741.26 494.94 742.09 495.54 742.53 496.12 742.86 496.75 742.77 497.2 742.22 498.05 741.33 498.86 739.57 499.76 737.38 501.01 732.85 503.52 731.63 503.82 729.72 504.56 728.23 505.23 727.68 505.79 727.52 506.3 727.69 507.21 728.43 508.36 729.58 509.17 730.56 509.78 731.95 510.48 734.06 510.87 737.02 511.19 744.46 512.45 753.94 514.38 755.84 514.66 758.03 514.94 760.68 515.23 763.63 515.52 767.07 516.13 768.19 516.77 769.35 517.67 769.94 518.47 770.34 519.21 770.48 519.84 770.39 520.75 769.95 521.49 769.03 522.05 767.73 522.45 766.18 522.52 762.99 522.57 761.92 522.87 760.92 523.37 760.76 523.88 761.29 524.12 762.38 524.33 763.59 524.51 764.96 524.5 766.55 524.35 768.88 524.04 769.89 524.39 770.41 525.02 770.87 526.33 771.18 527.9 771.17 530.24 770.47 530.94 769.28 531.89 767.97 532.76 766.63 533.37 764.64 534.28 760.77 536.06 757.37 537.13 756.08 537.43 754.55 537.67 752.88 537.76 751.36 537.88 749.24 537.89 746.58 537.94 745.4 538.07 744.11 538.34 742.73 538.81 741.51 539.19 740.48 539.72 739.32 540.33 737.94 541.25 736.9 541.98 734.92 544.15 734.26 545.11 733.62 546.21 733.19 547.29 732.81 548.82 732.67 550.07 732.57 551.21 732.66 552.58 732.82 553.83 733.1 554.8 733.5 555.83 734.04 557.06 734.55 558.09 736 561.35 735.91 562.15 735.4 562.88 734.33 563.55 733.05 564.48 730.31 566.92 729.49 568.22 729.01 569.09 728.65 570 728.59 570.91 728.65 571.76 728.86 572.56 729.34 573.34 730.08 574.14 731.16 575.24 732.09 576.13 734.59 577.95 735.33 578.87 736.03 579.82 736.54 580.79 736.94 581.88 737.07 582.79 737.17 583.59 737.15 584.33 736.95 585.01 736.32 585.74 735.63 586.39 734.89 587.06 731.63 588.93 731.39 589.38 731.26 590.4 731.12 591.8 730.72 592.53 730.18 593.15 728.91 593.94 727.45 594.86 726.56 595.64 725.81 596.86 724.6 598.89 722.29 601.91 721.62 603.35 721.24 605.34 720.66 607.33 720.18 610.39 720.28 611.36 720.71 612.11 721.34 612.85 722.39 613.75 723.92 614.85 727.03 616.71 729.17 617.9 729.83 618.59 730.42 619.39 730.9 620.14 731.27 620.74 731.51 621.6 731.73 622.39 731.72 624.44 731.45 624.95 731.05 625.75 730.3 627.13 729.98 627.98 729.92 628.95 729.92 630.83 729.85 633.9 730.07 634.36 730.84 635.53 731.81 636.51 733.71 638.04 736.52 639.92 738.13 640.77 739.71 641.41 740.84 641.74 742.13 641.93 743.34 641.85 745.54 641.97 747.62 642.08 748.45 642.37 749.42 642.92 750.89 643.79 753.52 644.88 754.73 644.92 755.57 644.82 756.49 644.4 757.25 644.01 758.44 643.26 759.29 642.53 759.8 641.68 760.79 639.9 763.53 635.86 766.64 632 768 630.79 769.35 629.67 770.27 628.91 771.24 628.07 772.54 627.32 774.34 626.54 775.8 626.02 777.78 625.33 779.73 624.7 782.02 623.9 783.7 623.41 785.19 622.89 786.42 622.36 790.05 620.89 791.66 620.32 793.07 619.65 794.38 618.78 795.76 618.09 796.72 617.76 797.63 617.48 798.24 617.29 799 617.3 798.62 619 797.87 620.5 797.28 621.63 796.36 623.61 795.36 626.19 791.9 633.81 791.22 635.39 791.21 636.3 791.57 637.05 791.89 638.02 791.98 639.27 791.14 641.25 789.16 645.24 788.33 646.57 787.52 647.7 786.43 648.82 785.54 649.75 784.53 650.88 783.86 652.06 783.26 653.34 782.5 655.44 781.73 657.48 781.28 659.38 780.83 660.91 780.25 663.35 779.16 666.3 778.63 668.08 778.28 670.07 777.9 672.17 777.59 674.1 777.53 675.36 777.45 677.12 777.06 679.67 776.62 680.81 776.06 681.85 775.55 682.76 775.08 683.61 774.57 684.39 773.79 685.27 772.6 686.05 771.53 686.46 770.92 686.52 770.16 686.45 769.11 686.18 768.74 685.89 767.96 684.92 765.76 679.34 763.88 677.01 762.87 676.32 761.37 675.36 759.76 674.58 758.33 674.1 757.27 673.95 756.05 674.05 754.6 674.34 753.84 674.73 752.41 675.66 751.72 676.33 750.9 677.6 750.5 678.39 750.21 679.7 750.14 683 750.14 684.42 750.31 685.5 750.67 686.42 751.22 687.31 752.11 688.4 753.11 689.66 754.84 692.22 755.31 693.07 755.52 693.88 755.54 694.67 754.84 695.63 754.11 696.19 753.56 697.1 752.97 698.26 752.11 699.15 750.91 700.19 750.37 700.81 750.48 701.27 751 701.7 751.9 701.94 753.05 701.33 754.09 700.57 759.31 697.56 760.84 696.87 762.45 696.21 764.09 695.74 765.61 695.5 767.29 695.38 768.72 695.45 769.86 695.78 770.57 696.07 771.32 696.65 771.75 697.37 772.07 698.57 772.23 699.94 772.07 702.04 771.78 703.46 771.39 705.47 770.87 707.12 769.67 709.78 769.12 710.82 768.76 711.9 768.66 713.1 768.97 714.35 769.36 715.69 769.98 717.01 770.56 718.21 771.18 719.36 771.57 720.59 771.85 721.78 772.16 725.15 772.09 726.79 771.86 728.39 771.65 729.63 771.05 731.02 770 732.32 768.98 733.7 767.39 735.33 765.74 736.54 761.42 739.79 759.54 740.99 758 741.99 756.35 742.74 754.06 743.54 751.66 744.34 749.14 745.08 746.54 745.93 742.16 747.24 740.43 747.93 739.05 748.66 737.75 749.35 736.4 750.22 735.4 751.06 734.66 751.79 733.96 752.84 733.75 753.63 733.99 754.94 734.04 756.25 733.89 757.79 733.69 760.06 732.7 765.8 732.17 767.9 731.63 769.91 731.05 772.18 729.6 776.43 727.71 779.74 726.5 781.29 725.45 782.65 723.98 783.97 722.56 784.74 721.41 785.22 720.5 785.55 719.37 786.64 718.7 787.89 717.84 789.13 716.96 789.89 715.45 791.07 713.84 792.04 712.49 793.31 711.78 794.32 711.72 795.35 711.58 796.71 711.18 797.62 710.37 798.32 708.68 799.32 706.72 800.69 705.36 802.01 703.62 803.67 703.08 804.52 702.63 805.77 702.42 806.73 702.4 807.7 702.8 808.79 703.11 810.16 703.31 811.35 703.77 812.98 700.84 813.9 687 819.07 683.79 820.29 683.33 820.22 681.24 818.8 679.04 817.04 676.84 815.08 675.33 813.33 674.11 811.46 673.06 809.18 672.45 807.35 672.43 805.01 672.35 803.19 672.5 801.31 673.29 800.13 674.88 798.35 675.56 796.83 676 795.3 676.02 794.67 676.07 793.93 676.94 792.15 677.99 791.19 680.11 789.54 682.92 787.55 684.44 785.63 686.25 782.5 687.09 780.29 687.7 778.44 687.84 776.74 687.65 775.37 687.24 774.51 687.12 773.29 687.88 771.33 688.47 770.26 689.33 769.3 689.69 768.17 689.67 767.31 689.08 766.74 687.86 766.66 686.57 766.91 685.46 767.35 684.25 767.53 682.96 767.57 680.95 767.24 680.36 766.78 679.3 764.86 678.77 763.03 677.73 761.77 676.33 761.38 675.28 761.14 673.98 761.21 672.27 761.59 668.6 763.25 665.59 763.87 662.7 764.21 660.43 764.1 657.45 762.95 654.72 761.18 653.3 760.17 652.09 758.22 651.33 756.53 651.32 755.11 651.24 753.8 651.1 753.06 650.96 752.66 649.95 751.85 647.78 750.66 644.8 749.63 642.47 748.77 639.72 747.69 637.63 746.33 636.57 744.46 635.35 742.86 633.85 740.48 631.31 738.31 629.6 736.7 627.7 735.23 624.87 734.48 621.84 733.96 618.73 734.04 616.23 734.38 614.05 734.9 612.98 735.45 611.98 736.18 610.09 737.67 608.8 739.5 607.9 740.91 607 742.21 606.15 743.08 605.32 744.55 603.86 745.56 602.21 746.6 601.05 747.58 599.55 748.42 598.02 748.88 596.53 749.72 595.74 751.1 595.15 752.29 595.43 753.37 596.26 755.24 597.48 756.9 597.95 757.93 598.09 760.2 597.49 763.84 597.02 766.51 596.86 768.44 597.49 769.42 599.29 770.09 601.79 770.32 605.27 770.45 608.31 770.4 611.9 771.12 616.11 772.62 621.35 774.08 626.83 774.88 630.08 775.58 633.17 776.32 635.85 777.35 637.52 778.6 638.81 780.49 639.27 782.4 638.71 785.61 637.43 788.67 636.14 790.67 635.28 791.69 634.84 792.99 635.22 794.65 637.34 796.58 638.94 797.99 639.61 798.85 639.61 800.39 638.25 802.05 636.58 803.97 635.06 805.97 633.46 806.49 631.49 806.35 629.67 806.13 627.08 806.82 625.58 807.62 624.54 808.86 623.89 810.68 623.81 812.55 623.97 814.43 624.9 816.78 624.37 818.54 622.08 821.38 618.12 825.78 616.1 828.09 613.74 829.96 611.68 830.82 609.93 831 608.65 830.47 608.06 829.67 607.75 828.56 607.58 827.19 607.67 825.08 607.75 823.09 607.46 822.24 606.52 821.66 604.79 820.98 603.34 819.83 603.04 819.48 603.49 818.07 603.59 817.04 603.19 816.18 602.23 814.78 601.09 813.23 600.25 811.65 599.78 810.22 600.08 808.63 600.5 806.99 599.48 804.76 597.46 801.8 595.25 800.27 593.58 800.25 590.54 800.78 587.67 802.03 586.46 803.95 584.63 807.83 583.72 809.41 582.91 810.48 581.22 811.4 580 811.64 577.72 811.76 575.75 811.79 574.61 812.15 572.81 812.75 570.6 813.33 569.24 813.11 567.81 812.7 565.51 811.96 563.03 810.99 560.06 809.56 557.48 807.88 554.09 805.2 549.32 801.1 545.97 798.07 540.37 793.85 534.75 790.63 532.65 789.41 530.43 788.67 527.78 788.33 523.31 787.99 519.52 787.89 514.89 788.09 511.39 788.62 507.74 789 505.28 789.12 502.59 788.83 498.52 787.81 493.89 786.28 491.92 785.69 488.64 784.85 485.17 783.99 482 783.41 477.72 783.19 474.02 782.58 469.79 781.53 465.69 779.84 461.91 777.72 457.63 775.33 454.39 772.42 450.15 768.79 447.12 766.67 443.49 764.02 439.91 761.5 435.46 758.32 433.32 757.01 431.37 756.36 429.32 756.48 427.42 756.55 425.11 756.21 422.92 756.04 419.45 756.71 415.71 757.86 412.45 759.67 410.59 761.9 408.66 763.41 406.4 764.55 404.34 765.24 401.63 765.98 398.36 766.42 394.64 766.44 391.47 766.03 387.34 767.29 384.56 767.91 381.45 768.08 379.03 767.85 376.65 767.17 374.48 766.04 372.88 764.62 372.49 763.2 372.72 760.92 372.66 760.24 371.82 758.81 370.29 757.74 368.71 756.75 367.41 755.51 367.35 754.88 367.95 753.67 369.17 751.29 370.46 747.61 370.91 744.11 370.86 740.87 370.3 738.27 368.34 736.2 365.3 734.4 362.9 733.38 360.16 733.77 358.78 734.67 357.95 736.17 356.88 738.37 355.84 744.68 355.98 747.01 356.75 750.27 357.86 753.32 358.87 756.01 359.77 758.3 359.76 760.69 358.38 763.18 356.57 764.55 354.66 765.29 352.42 765.47 348.92 764.43 346.35 763.75 345.06 763.79 343.76 764.32 342.16 764.95 341.4 764.89 340.88 764.14 341.01 763.23 341.88 761.76 341.25 760.9 339.91 759.84 339.07 758.29 339.21 756.81 340.14 754.12 340.07 752.1 338.37 749.74 336.96 748.16 335.35 747.23 333.23 746.95 331.1 747.35 329.6 748.28 328.14 749.23 326.48 751 323.61 753.96 322.38 754.63 321.31 754.98 320.02 755.08 318.43 754.81 314.57 752.83 312.46 752.29 310.27 751.9 307.05 751.46 304.11 750.95 302.3 750.3 300.39 749.05 298.79 747.35 298.21 746.1 297.66 743.53 297.3 740.28 295.93 736.99 294.54 734.56 292.97 731.75 290.84 729.76 289.34 729.32 288.05 729.42 285.07 730.44 282.04 732.25 280.24 733.05 278.72 733.18 277.58 733.11 275.92 732.67 274.46 732.08 272.42 731.63 270.74 731.75 268.54 732.15 267.58 732.71 266.26 734.15 265.75 735.11 264.74 736.01 263.71 736.59 261.87 737.54 259.76 738.51 257.24 739.71 255.12 741.08 252.78 742.45 250.21 743.92 246.46 745.51 245.05 746.03 244.42 745.45 243.75 744.56 243.81 743.51 244.57 741.64 245.51 740.17 246.79 738.68 248.07 737.16 249.2 735.66 250.12 733.45 250.52 730.67 250.29 729.13 249.73 726.33 248.54 723.45 247.47 722.24 244.81 720.36 242.53 718.77 240.97 717.35 239.82 715.64 239.21 714.09 239.52 712.1 240.95 710.7 241.79 710.28 242.7 710.4 244.21 710.85 247.15 711.31 250.57 711.43 254.06 710.93 256.43 710.13 258.7 708.71 261.66 706.61 265.23 704.6 267.64 703.74 270.14 703.57 272.57 703.4 275.22 703.52 277.42 703.57 280.7 702.61 281.54 700.75 281.52 699.72 280.63 698.8 279.73 698.36 277.75 698.34 274.61 698.02 274.31 697.96 271.83 697.11 268.43 696.41 265.89 696.3 261.97 696.82 258.86 697.21 257.51 696.46 256.65 695.51 256.52 694.66 256.97 692.78 257.94 690.2 258.85 688.28 259.76 686.21 260.75 683.89 261.9 681.85 263.72 680.03 266.83 678.21 269.4 676.62 272.28 674.97 274.96 673.64 276.9 673.32 278.83 673.6 281.55 673.77 284.59 673.72 286.25 672.4 287.23 670.65 288.82 668.99 290.79 667.22 291.24 665.68 291.11 664.49 290.12 662.91 288.43 661.98 286.55 661.42 284.87 661.88 283.52 662.67 282.01 664.5 279.78 665.75 277.69 666.13 276.48 666.2 274.43 666.15 272.31 665.98 269.16 665.91 266.61 666.26 265.39 666.75 263.4 667.39 262.58 666.92 261.38 666.03 259.93 664.76 258.55 663.86 256.82 663.18 254.7 662.62 253.24 661.92 252.42 661.17 252.21 660.23 252.41 659.52 253.39 658.17 254.94 656.39 256.05 654.35 255.92 653.04 255.21 652.3 254.08 652.31 252.43 653.09 250.53 653.55 248.32 653.78 245.05 654.06 243.49 654.52 242.88 654.8 241.48 656.12 239.83 657.47 238.53 658 236.89 658.18 235.57 657.88 234.45 657.1 231.43 654.36 229.53 652.63 228.07 651.79 226.7 651.86 225.1 652.3 223.62 652.76 221.34 652.76 218.54 652.36 217.3 652.06 216.26 652.54 215.64 653.04 215.09 653.95 214.42 655.59 213.37 656.8 212.07 657.36 211.01 657.26 209.66 656.5 207.58 655.94 206.55 656.41 205.7 657.37 205.34 661.74 204.8 664.36 204.33 666.69 203.36 667.78 202.6 667.95 201.23 668.08 199.95 667.78 198.56 667.22 197.12 666.86 195.83 666.93 193.25 667.21 190.59 667.33 187.56 667.15 184.31 666.29 181.75 665.6 179.63 665.44 177.96 665.73 176.2 666.51 174.24 667.6 172.63 668.23 171.12 668.27 169.6 668.17 167.26 667.6 165.37 667.38 164.68 667.6 164.05 668.9 164.06 670.1 164.53 671.36 165.27 674.21 165.43 675.58 165.26 676.66 164.74 677.68 163.69 679.26 163.06 680.47 162.99 682.01 163.09 682.92 164.07 684.67 167.48 687.07 169.96 688.09 171.35 688.88 171.1 689.73 170.74 690.67 169.58 691.73 168.15 693.05 165.36 694.19 163.37 695.02 160.73 696.33 159.8 697.43 159.82 698.39 161.72 699.87 162.47 700.33 163.45 700.6 164.51 700.72 165.72 700.59 166.94 700.38 168.17 699.8 170.44 698 172.55 696.74 174 696.33 177.56 696.46 180.67 696.64 183.92 697.02 185.97 699 186.9 700.04 188.1 700.85 190.67 701.13 193.12 701.7 194.78 701.98 197.33 705.33 198.34 706.09 200.15 706.53 201.44 706.41 202.9 706.03 204.19 705.67 205.93 705.97 207.06 706.53 207.8 707.33 208.57 708.42 209.03 709.88 208.94 710.9 208.27 712.17 207.5 712.79 206.54 713.41 205.08 714.33 204.11 715.23 203.25 716.27 202.13 717.4 200.37 718.26 199.3 718.76 197.41 720.13 196.65 720.3 195.9 720.23 195.08 719.45 194.22 718.64 193.47 718.07 191.51 717.45 189.17 717.05 187.26 716.15 185.68 715.13 183.63 713.69 181.33 712.95 178.84 712.32 176.78 712.61 175.07 713.25 173.61 714.09 172.57 714.9 171.32 716.36 170.51 717.35 169.23 718.88 168.29 720.12 167.09 721.44 164.97 723.04 163.09 724.32 161.1 725.3 159.11 726.04 157.32 726.51 156.4 726.73 154.2 727.01 151.77 727.3 149.94 727.42 148.13 727.28 146.7 726.67 145.61 725.86 144.35 724.45 143.36 722.68 141.85 720.47 140.09 719.48 138.05 718.92 136.3 719.15 135.38 719.6 134.34 720.87 133.36 722.51 132.34 723.78 130.39 724.89 128.01 725.98 125.69 726.6 123.24 727.4 121.83 728.27 120.44 729.39 119.24 730.71 116.88 734.82 115.35 737.3 113.77 738.79 112.2 739.4 109.68 740.03 108.69 740.56 107.72 741.57 106.86 742.81 106.34 744.09 105.28 745.72 104.35 746.74 103.02 747.04 102.04 746.86 100.49 746.47 98.84 745.68 98.17 745.22 98.01 743.4 98.08 742.03 97.86 741.34 97.23 740.48 95.97 739.42 94.58 738.61 93.46 737.65 92.84 736.4 92.17 733.88 91.62 733.17 90.2 732.3 87.75 731.27 85.71 730.76 84.26 731.2 83.37 732.36 82.24 733.71 80.78 734.92 79.89 735.54 78.61 737.14 77.7 739.07 76.71 741.05 76.07 742.44 74.73 745.15 73.36 747.22 72.43 748.51 71.98 750.1 71.83 751.92 72.06 753.69 72.07 755.17 71.54 756.7 70.11 758.25 68.34 759.4 66.74 759.83 64.85 759.67 63.65 758.97 62.75 758.36 61.52 757.1 59.8 756.2 57.8 755.41 56.22 754.82 55.85 754.39 54.63 752.9 53.7 752.03 52.35 751.02 50.38 749.38 50.02 748.4 50.15 747.67 50.29 746.24 50.24 745.11 49.76 744.42 48.33 743.58 46.74 743.44 45.14 744.02 43.87 745.15 42.79 745.96 41.79 746.29 40.31 746.53 39.55 746.64 38.32 747.56 37.35 748.52 36.11 749.93 35.06 751.31 33.87 752.26 32.95 752.51 32.12 752.1 31.49 751.52 30.65 750.12 29.68 749.14 28.63 748.73 26.81 748.51 24.54 748.35 21.92 748.12 20.5 747.45 20.14 746.65 19.96 746.02 20.21 745.05 21.17 744.3 22.09 743.57 23.78 742.7 25.21 741.47 25.88 740.25 26.1 738.6 26.26 736.16 26.79 734.06 26.85 732.86 26.43 731.32 25.96 730.23 24.89 728.6 24.36 726.66 24.54 725.47 24.6 724.44 24.74 722.74 24.12 721.53 22.92 719.16 21.86 717.33 20.52 716.15 19.27 715.79 15.78 715.64 13.89 715.45 12.32 714.66 10.49 712.9 9.35 711.24 7.83 709.26 6.7 707.31 6.32 705.43 6.61 704.07 7.01 702.88 7.61 701.57 8.82 699.79 11.18 697.63 12.76 696.11 13.08 695.49 12.79 694.92 12.37 694.57 11.62 694.28 10.11 694.06 8.52 694.1 6.69 694.28 4.26 694.45 2.29 694.17 1.47 693.54 1 692.51 1.78 691.43 3.05 690.65 4.73 689.96 6.34 689.21 7.6 688.43 8.3 687.7 8.81 686.76 9.5 686.48 11.02 686.27 12.99 686.27 15.5 686.32 18.08 686.27 20.35 686.21 23.54 685.99 26.51 685.51 28.68 685.19 30.74 684.62 32.35 683.81 33.85 682.8 36.43 680.81 39.16 678.68 43.25 675.4 47.8 671.63 51.39 668.52 53.35 667.14 56.22 665.9 59.27 664.76 62.13 664.11 66.09 663.16 69.48 662.49 72.31 661.38 73.05 660.54 73.45 659.4 73.35 658.66 72.69 657.34 72.31 655.86 71.85 654.12 71.23 652.69 70.25 650.74 68.22 647.67 65.7 644.94 63.58 642.96 61.53 640.85 59.41 639.04 57.6 638.28 55.53 637.54 54.63 636.94 54.49 636.54 54.35 636.19 55.46 635.61 58.43 634.87 62.66 633.96 66.39 633 71.23 631.8 76.08 630.43 82.71 628.94 86.33 628.16 89.83 627.49 93.75 626.45 98.15 624.91 101.37 623.15 103.33 621.55 106.73 618.6 107.12 618.15 108.35 615.69 108.92 613.47 109.68 611.72 110.91 608.91 112.74 606.6 114.41 604.26 116.06 601.69 117.74 599.09 119.18 595.61 119.87 593.17 119.95 592.77 119.78 590.26 119.18 587.69 119.4 584.45 119.57 583.49 120.09 582.13 121.46 580.24 123.13 578.09 124.17 575.46 124.32 573.64 124.1 571.47 123.49 569.73 122.27 567.95 120.64 566.25 118.95 565.1 117.45 564.48 114.62 563.68 114.25 563.34 114.27 562.54 114.62 561.98 115.31 561.59 116.23 561.25 117.38 560.61 119.03 559.41 120.99 558.01 122.99 556.81 125.64 555.04 127.92 553.1 130.62 550.95 133.36 548.67 134.13 547.77 135.12 545.65 135.27 544 134.96 542.63 134.12 540.6 132.29 537.45 131.16 535.13 128.43 531.37 124.95 527.26 123.45 524.66 122.69 522.43 122.59 519.98 122.84 518.73 123.65 516.29 124.41 514.62 125.17 512.53 125.78 510.31 126.01 508.55 126.34 507.3 126.94 505.54 127.75 504.67 128.75 504 129.6 503.41 130.26 502.96 131.56 501.96 132.56 501.6 134 501.61 135.81 501.95 139.14 502.52 141.42 502.47 142.64 502 143.7 500.3 144.61 498.15 145.28 497.22 146.81 496.21 147.25 495.42 147.11 494.56 146.97 492.4 147.7 489.99 149.6 487.84 151.06 486.87 152.8 485.26 155.3 483.61 157.29 482.67 159.7 481.87 162.89 479.74 165.16 478.23 167.5 476.64 169.48 474.3 170.55 472.17 171.69 470.14 172.6 468.5 172.44 466.79 172.77 463.72 173.27 461.48 173.8 457.78 173.81 455.68 174.64 452.16 174.36 450.73 173.51 447.88 172.74 446.53 170.87 445.03 169.2 443.51 166.54 441.8 163.5 439.97 161.16 439.23 159.02 438.38 157.14 437.71 154.38 436.85 151.59 436.16 149.17 435.88 146.81 435.83 145.44 436.06 141.42 436.1 137.71 435.95 136.34 435.94 133.84 435.82 131.11 435.82 127.85 435.7 125.2 435.18 122.76 433.99 120.78 432.4 119.2 431.61 116.98 430.82 115.57 429.55 115.56 427.96 115.61 427.16 116.86 425.64 117.45 424.74 118.45 423.92 120.13 423.49 121.99 423.08 124.05 422.62 125.82 421.59 127.02 420.41 128.74 419.37 130.65 418.8 132.86 418.54 135.76 417.83 137.24 417.39 139.01 416.25 140.96 413.68 142.94 411.76 145.37 409.66 146.65 408.28 148.12 406.81 150.09 404.99 153.02 402.66 158.19 398.17 163.07 393.5 165.47 391.1 165.86 390.6 167.44 389.28 169.13 388.13 169.95 387 170.74 385.7 171.62 383.41 172.53 381.48 173.89 379.73 175.13 378.35 177.26 376.3 178.07 375.91 179.09 376.23 179.76 376.75 180.42 377.78 181.27 379.1 182.95 380.18 185.43 381.2 188.04 382.23 190.9 382.97 192.56 383.47 195.01 384.38 196.6 384.63 198.64 384.68 200.02 384.04 202.52 382.5 205.18 380.17 207.29 379.31 210.19 378.41 213.13 377.67 215.03 377.5 218.6 377.34 220.95 377.39 224.89 377.61 226.41 377.45 227.48 377.32 228.63 376.71 229.61 375.01 229.96 374.42 230.89 373.52 232.04 372.97 233.61 372.5 237.42 371.66 240.08 371.12 242.86 370.61 245.45 370.27 247.43 370.07 249.25 370.17 250.69 370.22 252.65 370.75 257.06 372.06 262.16 373.37 268.13 374.66 273.98 375.92 279.16 376.95 281.58 377.23 283.63 377.23 284.84 377.24 287.81 377.01 290.13 376.61 292.41 376.44 293.93 376.49 296.2 376.71 300.63 377.02 305.49 377.02 309.02 376.89 311.76 376.55 313.97 376.15 317.02 375.41 318.89 374.61 320.43 373.61 321.4 372.73 322.09 372.06 322.93 371.73 323.55 371.45 324 371.48 324.76 371.66 325.73 372.36 326.13 373.33 326.39 375.01 326.32 376.95 326.26 380.07 326.03 383.91 326.04 386.76 326.49 390.72 326.8 392.54 328 394.78 329.44 396.64 330.74 398.19 332.46 399.27 334.28 399.54 337.16 399.55 339.74 399.89 341.97 400.29 344.76 401.14 346.57 401.65 348.04 402.12 349.61 403.08 351.75 404.21 353.48 405.03 355.29 405.59 356.54 405.86 358.48 405.49 360.62 404.74 363.49 403.61 366.53 401.57 369.49 399.38 372.69 397 375.43 394.44 378.14 391.94 381.05 388.92 384.44 386.2 388.02 383.97 390.58 382.66 393.95 381.48 398.1 380.5 399.87 379.47 400.07 378.79 399.64 377.79 399.09 376.81 398.88 375.96 398.87 374.59 399.31 373.34 400.3 371.62 401.69 370.15 402.97 368.95 404.1 367.71 404.8 366.58 405.25 365.02 405.71 363.2 406.39 361.39 407.16 358.95 407.62 356.94 408.15 354.89 408.5 352.51 408.46 351.03 408.51 350.23 408.45 347.73 408.51 346.7 408.15 345.62 407.54 343.93 407.68 342.68 407.98 341.18 408.52 338.79 408.36 337.42 407.71 335.97 405.83 333.21 405.7 331.99 405.95 330.73 406.32 329.69 406.69 328.1 406.55 325.71 406.71 323.55 407.01 321.9 407.54 320.08 407.76 318.32 407.56 317.29 407.16 316.15 407.01 314.39 406.93 312.74 406.4 310.94 405.57 308.82 404.57 307.44 404.04 305.67 403.46 304.16 402.16 302.61 400.87 300.91 399.8 299.48 397.39 296.8 393.66 293.74 392.21 292.3 390.65 290.55 388.59 287.43 386.55 283.3 385.86 281.67 384.73 281.03 382.97 280.3 381.69 279.55 380.25 277.57 378.51 275.42 376.89 273.12 374.32 269.08 371.98 266.18 369.95 263.96 365.98 259.08 364.49 258.15 362.26 257.7 360.13 257.65 356.94 257.58 354.15 257.07 352.63 257.02 350.81 257.14 348.61 257.15 346.41 256.78 343.84 256.27 341.11 256.12 337.29 255.82 334.26 255.53 331.1 256.06 329.88 256.1 328.64 255.75 325.54 254.86 321.13 253.47 319.01 253.19 316.51 253.14 314.3 253.25 310.38 254 307.71 254.8 305.96 255.06 304.06 255.18 301.86 255.18 299.64 255.76 297.55 256.16 294.35 256.89 293.15 257.85 292.31 258.21 291.48 257.86 291.18 255.92 291.76 255.01 292.84 252.58 292.99 250.76 291.56 248.35 290.42 246.55 289.13 244.77 288.35 243.9 286.07 242.2 284.87 241.59 282.57 240.51 281.75 239.82 280.09 237.49 279.19 235.49 278.41 232.69 275.39 226.17 273.57 224.27 271.98 222.29 271.36 221.03 271.16 219.55 271.44 218.93 272.22 217.74 273.73 216.2 275.09 215.01 276.84 214.21 279.32 213.64 282 212.85 284.64 211.77 287.44 210.12 288.91 208.97 290.65 207.17 291.79 205.56 293.99 203.45 295.42 202.44 297.57 200.96 298.92 200.09 300.44 199.88 302.18 200.1 304.76 200.16 306.66 200.21 307.49 200.45 310.07 200.27 310.68 199.94 311.21 198.58 311.53 197.42 312.21 195.83 312.73 194.24 313.2 191.8 313.87 188.68 314.17 187.29 314.41 184.84 314.25 183.36 313.82 181.91 312.74 180.76 311.62 180.21 309.61 179.73 303.1 179.22 300.23 178.42 297.78 177.34 296.04 177.29 295.35 177.51 293.84 177.58 293.46 177.18 292.31 175.86 291.34 174.91 289.29 173.52 287.26 172.21 285.13 170.68 283.14 169.83 281.25 169.5 279.04 169.87 278.59 169.67 277.76 169.32 277.24 168.85 276.99 168 277.25 166.46 277.31 165.1 277.61 163.45 278.51 162.04 279.45 160.88 280.29 158.84 280.34 158.05 280.21 157.14 279.6 155.37 278.51 152.88 277.7 151.45 276.93 150.41 276.54 149.1 275.96 147.87 274.88 146.66 273.91 145.71 273.05 144.96 272.29 143.42 271.31 140.87 271 139.45 270.78 137.28 270.72 134.72 270.65 132.61 270.81 130.34 270.87 129.15 271.03 126.98 271.11 124.88 271.03 123.23 270.85 122.31 271.11 121.29 270.34 119.63 269.86 118.83 268.76 117.2 267.68 115.82 267.07 114.45 267 112.23 267.09 111.43 268.37 108.48 269.19 107.13 270.74 105.69 272.32 104.49 272.68 103.7 273.09 102.17 273.83 100.86 274.88 99.77 275.96 98.75 276.81 98.14 277.64 96.58 278 95.9 278.84 93.64 280.05 91.97 281.13 91.02 282.4 90.04 283.95 88.74 285.38 87.25 287.2 85.57 288.48 84.19 290.24 81.67 291.54 79.3 292.96 76.84 294.17 74.97 295.57 73.65 297.3 72.37 299.18 71.39 300.26 70.52 301.54 69.28 302.9 67.45 303.89 65.7 304.29 64.51 304.6 62.69 305.12 61.04 305.8 59.31 308.01 55.33 309.14 53.92 310.76 52.66 311.65 51.58 313.02 49.81 314.31 47.94 315.13 46.76 316.5 44.93 317.79 43.12 318.65 41.74 319.85 40.38 321.81 39.35 323.58 38.49 325.18 37.82 327.06 37.19 329.19 36.62 332.09 35.94 333.13 35.5 334.65 35.49 336.17 35.31 337.54 35.09 339.28 35.14 340.72 35.1 342.85 34.98 344.6 34.8 346.35 34.91 348.56 34.48 350.46 34.36 352.81 34.3 354.87 34.18 355.55 33.96 356.51 33.32 357.59 32.59 358.71 31.64 360.1 30.54 361.38 29.28 362.31 28.32 363.75 26.46 364.88 23.48 365.09 22.06 365.62 20.42 366.38 18.55 367.84 15.8 368.44 14.45 369.68 13.24 370.49 12.45 371.58 11.32 372.41 9.77 372.93 8.47 373.3 7.05 373.86 5.58 374.66 3.56 375.44 2.6 375.96 1.47 376.88 1 377.1 1.34 377.26 2.48 376.78 3.62 376.41 5.06 375.97 6.54 375.21 8.46 374.29 10.73 373.68 12.4 372.84 14.55 372 16.71 371.02 18.2 369.73 20.12 368.36 22.3 367.45 24.05 367.3 25.36 368 26.85 368.44 27.65 368.15 28.78 367.68 29.58 366.78 30.76 366.08 31.58 364.57 33.16 363.87 33.89 362.13 35.32 359.4 37.19 357.59 38 354.92 38.68 351.81 38.96 347.86 38.85 344.59 38.9 340.65 38.63 338.83 38.49 335.58 38.06 332.84 38.28 330.63 38.69 327.89 39.19 326.61 40.32 325.25 41.81 323.89 43.73 323.28 45.77 322.49 46.93 321.73 48.68 321.6 49.88 320.83 54.02 319.99 58.14 318.77 59.95 317.18 63.83 315.6 66.77 313.02 70.18 310.8 73.2 308.37 76.73 306.77 78.96 304.89 81.64 304.07 83.23 302.14 86.36 300.63 88.17 298.13 91.01 295.85 93.29 294.5 94.55 292.59 96.75 290.69 98.87 288.94 100.92 287.57 102.9 285.68 106.26 284.17 109.52 283.02 111.9 282.48 114.11 282.33 116.16 282.69 118.95 283.1 122.99 283.56 124.88 284.68 127.6 286.29 130.63 287.57 132.89 289.45 135.39 291.66 138.88 293.46 141.5 294.99 143.13 295.69 144.17 297.48 145.53 299.62 147.06 300.75 149.12 301.52 150.49 302.59 152.07 304.24 153.11 305.69 154.47 306.92 155.76 308.86 157.09 310.77 158.34 311.68 160.28 312.51 162.66 313.2 163.86 314.49 165.72 316.38 168.19 318.13 169.72 321.86 171.02 325.05 172.62 328.67 174.22 332.61 176.03 334.75 177.05 336.72 177.64 338.34 178.2 340.15 178.65 341.58 179.3 341.95 179.75 341.89 180.67 341.19 181.68 340.37 182.64 338.63 184.47 337.62 185.65 336.71 187.04 336.19 188.62 335.66 190.55 335.59 191.97 336.64 194.32 337.34 195.44 337.34 197.43 337.1 199.65 337 200.79 336.32 202.51 335.04 204.26 333.53 205.64 330.87 207.63 328.83 208.89 327.53 209.61 326.09 211.1 325.19 212.51 325.24 213.71 326.39 215.2 328.05 217.35 329.34 219.22 330.57 220.26 332.37 221.39 334.98 221.96 337.17 222.58 340.33 223.73 343 224.7 348.02 226.46 350.73 227.43 353.56 228.46 355.97 228.97 358.02 229.25 359.11 229.72 359.93 230.55 360.69 232.21 361.89 233 362.59 233.63 362.34 234.77 361.9 235.9 362.52 237.21 366.9 239.94 370.02 241.6 372.08 243.13 374.48 244.49 377.82 246.38 380.4 247.92 382.24 249.05 383.44 249.92 384.29 250.73 385.28 252.53 385.48 253.67 385.87 257.03 386.03 258.46 387.76 261.12 389.82 262.6 392.93 264.31 394.8 265.73 398.02 268.01 400.72 269.5 403.24 270.47 405.81 271.15 408.19 271.77 409.67 271.48 413.41 270.47 416.45 270.19 419.11 270.31 421.53 270.53 423.19 271.03 425.79 272.18 427.96 273.31 431.09 274.46 434.04 274.97 436.53 275.49 437.85 275.87 439.28 276.51 440.51 277.64 441.71 278.39 442.76 278.71 444.38 279.53 445.96 281.74 447.08 282.66 449.73 283.12 451.13 283.45 452.26 283.86 452.69 284.92 452.64 285.66 451.71 286.47 449.6 287.45 449.37 287.61 447.23 290.46 446.17 292.22 445.26 293.69 444.97 295.1 445.26 295.91 446.24 296.2 450.74 296.76 453.47 297.11 455.43 297.62 457.39 298.29 458.77 299.22 460 300.51 461.33 301.95 463.1 302.91 464.9 303.7 467.1 304.07 468.8 304.46 470.68 305.19 472.9 306.21 475.53 306.95 477.81 307.01 480.85 306.9 483.21 306.79 484.35 306.68 486.7 306.57 488.6 306.56 490.04 306.64 492.21 306.18 494.35 305.43 497.08 303.84 499.65 302.43 501.41 301.39 501.95 301.06 503.23 299.85 503.69 299.4 504.46 298.89 505.65 298.65 506.86 298.78 508.33 299.11 511.18 298.77 512.41 298.39 513.94 297.41 515.01 297.03 516.43 296.61 518.33 296.44 519.85 296.29 523.21 295.24 525.99 294.96 528.26 295.02 530.11 295.27 533 295.33 535.04 295.84 536.24 296.39 537.55 297.26 538.83 297.76 540.42 297.72 542.67 297.09 544.97 296.46 547.33 295.84 549.15 295.77 550.51 296.07 551.78 297.08 553.32 299.89 553.86 301.35 554.84 303.52 555.42 304.55 555.89 307.69 556.5 309.26 557.64 310.87 559.74 312.06 561.28 312.79 562.94 313.43 565.28 314.06 567.18 314.05 567.94 313.78 569.16 311.71 569.69 309.78 570.47 308.82 571.36 307.9 573.63 306.44 574.79 305.75 575.84 304.22 575.83 302.85 575.26 301.14 574.04 299.82 572.14 298.17 571.36 296.97 570.08 294.71 569.26 292.31 569.11 290.54 569.25 289.29 570.02 288.33 570.24 286.91 570.24 285.26 570.16 283.67 570.65 282.19 571.16 281.23 572.76 279.12 574.04 277.74 576.39 275.77 579.44 273.59 580.51 272.92 583.61 271.79 586.43 271.05 588 270.36 589.31 269.83 590.91 269.23 592.1 268.47 593.33 267.75 594.64 267.05 595.21 267 595.92 267.24 596.9 267.59 598.09 268.77 599.49 271.03 601.77 272.82 605.38 274.23 608.11 276 609.72 277.07 611.93 278.63 614.93 280.09 617.74 281.92 621.01 283.69 623.53 284.49 625.5 284.6 626.49 284.49 628.98 283.47 630.28 282.89 631.17 282.39 634.81 280.49 638.33 279.2 641.04 278.12 643.87 277.05 645.84 275.62 647.19 274.27 648.34 272.37 648.8 270.27 649.42 267.6 648.89 265.49 647.29 264.14 645.84 262.64 644.4 260.94 642.9 259.85 640.16 258.48 636.89 257.35 633.65 255.92 632.11 255.14 629.9 253.83 628.26 252.33 627.18 251.27 626.03 249.89 626.13 248.75 626.73 247.28 627.71 245.84 629.17 245 630.32 244.53 631.66 244.26 632.87 243.96 634.63 243.76 636.15 243.29 637.22 242.79 639.17 242.5 641.15 241.93 642.91 241.52 645.2 240.86 646.38 240.51 647.83 240.18 648.82 239.99 650.34 240.18 652.1 240.86 654.38 242.79 655.8 243.52 657.76 244.28 659.43 244.39 661.78 244.44 664.77 244.9 667.57 245.31 670.61 245.15 672.13 245.02 673.72 245.24 674.69 245.82 675.52 246.34 676 247.06 677.03 248.49 678.4 249.96 679.62 251.34 680.82 252.29 681.38 252.64 682.58 253.28 683.26 253.49 684.16 253.9 684.61 254.3 684.71 255.04 684.39 255.84 683.41 257.19 682.79 257.78 681.28 259.58 680 260.62 678.47 261.46 677.24 261.81 674.3 262.66 672.93 262.96 670.35 262.96 668.97 263.45 667.32 264.71 667 265.45 667.02 265.96 667.69 266.99 669.14 268.35 671.72 269.94 674.16 271.54 677.71 273.71 680.11 275.08 Z M 700.84 704.88 697.4 705.85 695.27 706.14 692.09 706.19 690.19 706.08 688.08 705.6 686.05 704.92 684.2 704.08 683.16 702.98 682.84 702.15 682.53 700.61 682.18 699.36 681.02 698.37 678.78 697.07 676.87 695.65 675.05 694.06 673.67 692.91 671.87 691.78 670.67 691.14 668.97 690.81 667.23 690.7 665.48 691.02 663.06 692.5 661.01 694.33 659.03 696.67 658.15 698.82 657.9 701.49 657.97 703.71 659.32 706 662.46 708.51 666.52 710.04 668.91 710.27 672.54 710.63 676.94 710.56 681.71 710.91 684.27 711.64 687.47 712.79 690.58 712.94 692.92 713.37 693.62 714.2 694.51 715.35 696.34 716.59 698.6 717.5 700.04 717.46 700.84 717.59 703.3 717.56 704.36 717.57 705.8 717.5 707.55 717.39 709 717.17 710.29 716.99 712.42 716.59 714.67 716.07 717.42 715.39 720.39 714.72 722.71 714.15 724.31 713.8 728.41 713.5 731.22 713.68 733.26 713.68 735.09 713.44 736.69 713.23 737.94 712.99 740.39 712.14 741.43 711.29 741.98 710.47 742.14 709.74 741.97 707.12 741.36 705.6 740.77 704.57 739.02 703.1 738.16 702.41 737.11 702.22 735.29 702.29 733.42 702.81 731.96 703.39 730.58 704.05 729.09 704.69 727.49 705.27 726.12 705.59 723.37 705.99 721.82 706.17 720.3 706.12 718.45 705.9 716.71 705.54 714.68 704.92 713.32 704.36 711.47 704.14 709.65 704 708.13 704.02 705.85 704.19 700.84 704.88 Z M 443.19 612.74 443.36 613.65 443.4 615.3 443.64 616.67 443.35 617.97 442.63 619.36 442.19 620.61 442.66 621.81 443.63 622.53 447.97 622.01 450.6 621.11 452.35 620.84 453.56 620.94 455.08 621.01 457.28 621.07 459.11 620.44 461.52 619.3 465.55 617.09 468.46 615.71 471.03 614.34 472.82 613.74 474.57 613.5 476.25 613.38 478.46 612.6 480.34 611.52 482.54 609.92 483.92 609.34 486.13 608.71 488.84 607.86 491.29 606.89 493.01 605.89 493.02 605.43 492.43 604.68 491.11 604.41 487.19 604.97 482.94 604.98 479.23 604.62 476.73 604.45 474.68 604.85 470.93 608.08 469.72 609.63 468.37 610.75 466.38 611.78 464.59 612.02 462.01 612.47 460.18 612.82 457.51 613.33 455.54 613.34 454.11 612.92 452.83 612.08 452.66 611.4 452.84 610.09 452.67 609.01 452.37 608.6 451.31 608.88 450.56 610.03 449.71 610.76 448.87 611.09 447.12 611.22 445.75 611.37 444.5 611.84 443.88 612.18 443.19 612.74 Z M 529.21 715.49 527.99 713.57 527.14 712.94 525.86 712.41 524.26 712.42 522.59 712.89 521.1 713.21 519.58 713.33 518.6 713.32 517.27 713.05 515.99 712.87 514.96 713.11 513.81 713.61 513.33 714.63 513.41 716.34 513.57 718.27 513.41 720.15 512.65 721.99 511.6 723.46 509.7 725.17 506.44 727.04 505.6 727.65 504.62 728.87 505.13 729.98 505.92 730.56 507.27 731.09 509.7 732.8 511.51 733.41 514.26 733.99 517.57 733.77 520.23 733.49 522.81 733.15 523.81 732.39 523.95 731.48 523.64 730.06 522.75 728.82 521.92 726.88 521.52 725.79 521.63 724.54 522.21 723.69 523.9 723 525.62 722.2 527.09 720.85 528.14 719.52 529.19 718.17 529.49 716.81 529.49 716.35 529.21 715.49 Z M 655.17 538 653.89 537.17 652.81 536.58 651.61 535.91 650.3 534.87 649.27 533.55 648.4 533.06 647.27 532.65 646.14 532.66 644.54 532.81 641.98 533.44 639 534.71 636.73 536.11 634.23 537.99 633.41 539.09 632.85 540.33 632.79 541.7 634.15 543.34 637.42 544.83 641.65 545.9 646.67 547.27 649.76 547.9 653.13 548.48 654.87 548.59 655.71 548.43 657.13 547.67 658.63 546.44 659.33 545.68 659.88 544.83 660.01 544.04 659.25 542.46 658.06 540.97 656.32 539.1 655.17 538 Z M 453.5 333.21 451.99 331.98 450.71 331.37 449.02 330.69 447.58 330.39 444.93 330.16 443.18 330.46 441.16 330.86 438.73 331.14 437.66 331.47 436.96 332.26 436.63 333.21 437.22 334.37 437.89 335.12 438.36 335.89 438.58 336.46 438.2 338.19 438.03 339.39 439.27 341.71 440.53 342.92 441.21 343.07 442.91 343.65 444.86 343.14 447.23 342.23 448.6 341.7 449.86 341.54 451.31 341.25 452.3 340.92 454.14 339.94 454.95 339.1 455.71 337.46 455.55 335.81 454.75 334.43 453.5 333.21 Z M 594.63 549.02 596.98 549.08 599.56 548.74 601.85 548.34 604.25 547.88 606.54 547.2 607.76 546.76 608.57 546 608.51 545.51 607.92 544.65 605.85 543.97 603.66 543.09 600.01 541.85 598.81 541.38 597.67 541.17 596.61 541.28 594.17 541.73 591.92 542.42 590.54 543.11 589.53 543.95 589.02 544.97 589.38 546 589.86 546.69 591.43 547.76 593.34 548.72 594.63 549.02 Z M 665.77 497.15 667.27 495.97 668.7 494.88 670.01 493.67 671.06 492.49 671.84 491.48 672.28 490.28 672.34 489.43 671.68 488.51 670.77 488.05 669.34 487.89 668.04 488.16 666.35 488.96 665.23 490.2 664.09 491.93 663.64 493.57 663.54 494.88 664.09 495.8 665.2 496.86 665.77 497.15 Z M 358.76 668.82 358.13 669.81 357.84 670.94 358.07 672.59 358.91 674.06 360.41 674.93 361.69 675.2 362.68 675.32 363.29 675.27 364.51 674.69 365.48 673.74 365.96 672.49 365.95 671.18 365.56 669.86 364.37 668.71 363.13 667.99 361.77 667.86 360.02 668.09 358.76 668.82 Z M 596.55 295.3 595.19 295.28 594.54 295.79 593.3 296.71 591.93 296.87 590.74 297.62 590.04 298.47 591.32 300.87 593.39 301.44 595.9 301.44 596.62 301.08 598.32 300.02 598.98 299.28 599.62 297.84 599.75 296.82 599.09 295.81 597.85 295.23 596.55 295.3 Z M 453.26 358.6 452.31 358.96 451.68 359.86 451.48 360.71 451.6 362.08 452.15 363.06 452.9 363.35 454.19 363.5 455.03 363.17 455.61 362.38 456.48 361 456.46 360.03 455.79 359.23 454.82 358.79 454.02 358.61 453.26 358.6 Z" fill-rule="evenodd"/>
</g>
</svg>