<?xml version="1.0"?>
<svg xmlns="http://www.w3.org/2000/svg" version="1.2" baseProfile="tiny" width="800" height="955" viewBox="0 0 800 955" stroke-linecap="round" stroke-linejoin="round">
<g id="calcuttalake">
<path d="M 36.38 426.7 23.64 415.04 23.2 408.47 26.71 396.65 27.15 393.69 22.32 387.12 13.97 377.27 5.4 351.65 1 321.1 3.18 293.52 8.23 279.39 13.5 270.85 28.43 254.75 44.67 240.63 52.14 229.46 69.04 185.44 85.28 163.1 88.36 156.21 91.86 143.73 99.11 129.93 100.86 119.75 93.39 93.8 96.46 70.81 134.89 37.96 140.16 34.67 152.89 19.89 171.78 8.88 193.73 1 212.63 5.93 260.07 7.56 283.35 12.65 331.89 12.32 339.8 14.94 380.43 37.44 415.58 52.55 446.32 72.26 478.39 83.26 485.42 87.53 512.21 97.38 548.23 118.07 566.9 131.71 587.1 155.35 624 187.21 645.08 212.67 677.36 261.61 680 273.77 673.85 296.1 675.17 303.98 701.74 335.85 719.3 364.59 725.39 370.4 735.11 379.7 764.31 415.17 784.95 447.69 796.36 470.19 799 479.39 797.68 488.26 784.73 514.53 782.09 527.01 782.52 552.96 779.23 574.64 762.54 598.62 751.11 626.53 748.48 640 749.58 666.61 760.11 686.97 763.18 697.48 760.11 707.66 760.99 712.59 766.26 721.13 764.94 730 771.3 739.85 769.11 746.42 769.55 756.93 764.27 765.8 741.88 781.89 732.22 795.36 726.73 809.48 728.92 837.4 722.77 847.59 717.5 862.7 703.01 869.92 690.72 877.48 686.33 878.13 676.23 875.83 672.72 878.46 671.18 884.37 645.71 883.06 634.3 885.19 619.37 892.42 600.05 906.87 561.41 913.44 548.68 918.04 542.53 922.96 542.97 930.85 549.12 933.8 559.44 935.28 560.32 937.25 556.15 938.73 544.95 939.38 515.09 944.81 480.85 953.35 461.97 954 443.97 951.38 429.92 945.46 429.48 942.18 439.14 934.29 445.72 932.32 468.55 931.67 486.56 929.37 504.11 932.98 506.97 929.7 505.65 923.45 499.94 920.83 473.6 921.16 456.04 914.92 371.96 912.46 335.95 903.59 251.65 896.53 240.24 893.25 233.65 889.31 217.18 859.75 215.42 851.04 216.3 848.75 236.06 836.75 242.42 829.69 245.28 822.3 244.18 818.52 235.4 813.93 229.91 814.25 209.71 827.07 205.76 827.72 197.42 825.43 188.63 818.86 177.65 802.11 173.48 789.95 173.92 780.76 171.72 773.86 179.61 732.48 181.81 717.36 194.32 701.6 212.32 688.79 214.52 685.5 211.88 680.57 204.41 675.32 200.9 673.35 195.63 671.71 189.48 673.68 184.65 678.28 180.7 680.9 175.87 683.2 167.97 681.89 159.19 677.46 153.47 669.91 153.91 662.02 160.94 645.93 167.74 618.34 169.05 603.23 165.97 593.37 159.82 583.52 129.52 550.35 121.39 536.88 120.51 516.85 131.04 493.2 129.28 484 124.89 477.76 119.18 473.66 108.64 462.16 102.7 451.65 97.87 448.7 72.4 451 56.81 459.21 49.35 459.21 42.76 452.65 35.95 440.82 36.38 426.7 Z"/>
</g>
</svg>