<?xml version="1.0"?>
<svg xmlns="http://www.w3.org/2000/svg" version="1.2" baseProfile="tiny" width="800" height="754" viewBox="0 0 800 754" stroke-linecap="round" stroke-linejoin="round">
<g id="sanluisreservoir">
<path d="M 249.97 400.62 250.05 400.21 250.31 399.93 250.86 399.36 251.5 398.57 252.43 397.34 252.69 396.66 252.78 396.18 253.88 395.57 255.03 394.52 255.54 394 256.52 393.73 257.41 392.98 257.92 392.26 258.39 391.99 258.94 391.89 260.09 391.86 261.15 391.48 261.75 391.18 262.73 391.14 263.66 390.9 265.07 390.7 265.87 390.02 266.08 389.56 266.21 389.27 267.19 388.89 268.77 388.04 270.21 386.81 271.49 385.42 272.68 384.46 273.1 383.88 273.53 383.06 274.17 382.25 275.1 381.26 275.19 380.47 274.51 379.96 273.83 379.86 271.91 379.35 270.98 378.94 271.11 378.63 271.83 378.29 272.6 377.81 273.62 377 274.85 375.8 276.04 374.54 276.13 373.59 275.66 372.87 275.87 372.56 276.6 372.63 277.53 372.9 278.68 373.31 280.08 373.21 281.57 372.91 283.57 372.26 285.23 371.51 285.86 370.76 285.86 369.87 285.4 368.88 284.46 368.13 283.06 367.25 282.42 366.7 282.85 366.46 284.21 366.22 285.14 365.92 286.25 365.48 287.23 364.49 287.99 363.5 288.29 362.37 288.12 361.62 288.42 361.04 288.85 360.36 289.27 359.07 289.02 358.21 288.46 357.67 288 356.85 287.32 355.21 286.64 354.16 285.32 352.35 284.26 351.32 282.73 350.2 280.9 349.69 281.16 349.28 282.09 348.97 283.75 348.84 285.24 348.53 286.6 348.29 287.49 348.02 287.66 347.51 287.54 346.79 287.24 346.14 286.81 345.32 285.62 344.44 284.39 343.79 282.05 342.97 280.99 342.32 280.52 341.3 279.42 340.21 278.01 339.39 276.44 338.71 273.47 337.92 271.85 337.37 271.47 336.93 270.96 336.28 270.24 335.46 269.56 334.65 269.56 334.41 270.49 334.07 270.92 334.07 271.43 334.24 272.58 334.75 273.85 335.09 275.04 334.85 275.64 334.78 276.61 335.02 277.51 335.06 278.57 335.33 279.97 335.67 281.38 335.6 282.31 335.03 282.82 334.34 282.91 333.49 282.7 332.3 282.4 331.27 282.31 330.53 282.65 329.91 283.29 328.99 283.55 327.93 283.08 327.22 282.06 326.16 282.06 325.61 282.19 324.49 281.89 323.88 281.17 322.99 279.9 321.97 278.83 321.35 278.75 320.81 278.62 319.71 278.41 318.42 277.35 317.77 276.41 317.57 275.6 317.12 274.12 316.75 272.07 316.27 271.14 315.93 269.86 315.24 268.25 314.73 268.29 314.39 268.8 313.98 269.52 313.47 270.46 312.93 271.74 312.18 273.14 311.29 274.33 310.2 274.84 309.35 274.25 308.39 274.16 307.85 274.46 307.37 274.12 307.13 274.03 306.55 274.08 306.07 273.91 305.49 274.16 304.98 275.44 303.79 276.84 302.12 277.7 300.25 277.53 299.94 277.36 299.15 277.31 298.17 277.61 297.42 277.91 296.29 278 295.71 278.42 294.89 278.29 293.32 277.66 292.2 277.74 291.55 277.91 290.9 278.51 289.64 278.76 288.38 278.77 287.26 278.25 286.47 277.7 285.58 277.36 284.83 276.56 283.2 275.62 281.93 274.56 281.15 273.41 280.74 272.13 280.47 270.9 279.82 270.35 279.72 269.71 279.95 269.03 280.4 268.61 280.36 268.61 280.06 268.82 279.55 269.41 278.86 269.88 278.28 269.46 277.91 268.82 277.67 268.61 277.19 268.78 276.51 268.48 276 267.89 275.79 266.61 275.76 265.04 275.59 264.74 275.35 264.7 274.6 264.44 274.16 264.06 273.68 263.68 273.17 262.91 272.32 261.51 270.95 259.68 269.45 258.83 268.02 258.58 266.96 257.73 265.63 256.07 263.58 254.79 262.39 253.99 261.47 252.8 260.45 251.65 259.66 249.48 258.88 248.67 258.4 248.63 257.92 248.93 257.14 249.1 256.49 248.97 256.22 248.72 255.71 248.25 255.43 247.78 255.13 247.53 254.27 247.65 253.18 248.29 251.92 248.38 249.77 247.91 249.3 247.15 249.4 246.47 249.84 245.66 250.52 244.93 251.72 243.91 253.01 243.32 252.87 242.76 252.23 241.91 251.61 240.94 251.17 239.58 251.1 238.34 251.1 237.96 250.83 237.02 249.91 236.73 249.33 236.77 248.71 237.2 247.62 237.45 245.85 237.15 244.62 236.39 244.04 235.37 243.63 233.79 243.63 232.09 244.14 230.01 244.79 228.18 245.3 227.37 246.22 227.29 247.48 226.99 248.91 225.76 248.03 225.16 247.48 224.31 247.04 222.99 246.49 221.08 245.88 218.87 245.47 218.44 244.38 218.1 242.67 218.1 241.27 217.17 240.76 216.19 239.91 214.96 240.01 214.11 240.22 212.96 240.9 211.55 241.99 210.62 242.84 209.98 242.57 209.43 242.26 208.54 241.65 207.64 241.2 206.41 240.86 204.84 241.17 203.3 241.37 201.82 241.51 199.99 241.78 197.69 242.26 195.44 243.04 192.76 244.34 190.59 245.49 189.23 247.37 188.5 248.19 187.65 247.81 186.55 247.3 185.48 246.52 184.63 245.94 183.87 246.11 183.06 246.52 182.08 247.71 181.66 248.36 180.93 249.07 179.53 249.69 178.34 250.37 177.61 251.25 177.19 252.52 177.4 253.71 178.04 254.66 179.19 255.58 179.91 256.13 179.82 256.37 179.31 257.05 178.93 257.66 178.85 258.18 179.1 258.89 179.04 259.14 178.93 259.57 178.68 260.56 178.63 261.24 178.04 261.21 177.06 260.66 176.21 260.05 175.32 259.81 173.91 260.25 173.36 260.22 173.1 259.67 172.51 259.06 171.96 258.45 170.77 258.17 169.83 258.31 168.85 258.86 167.87 259.26 166.81 259.61 165.53 260.12 164.6 260.9 164.09 261.99 163.71 263.01 163.11 264.14 162.05 264.96 161.15 265.67 160.77 266.36 161.03 267.41 160.39 267.82 159.37 268.06 158.69 268.06 157.41 268.2 155.88 268.43 154.48 269.18 153.37 269.8 152.18 270.79 152.05 271.81 153.03 272.59 153.79 273.31 153.41 273.79 152.39 273.99 151.03 274.2 149.63 274.4 147.8 274.84 146.14 275.63 144.99 277.3 144.82 279.92 145.24 281.59 145.16 282.07 144.69 281.93 144.05 281.83 143.33 281.66 142.52 281.87 141.54 282.45 141.12 283.3 140.61 285.07 140.01 287.15 139.46 288.28 139.03 289.3 139.25 290.32 140.35 293.36 140.05 293.63 139.2 293.42 138.86 293.25 138.52 292.81 138.31 291.99 138.23 291.17 137.8 290.66 137.72 290.01 137.55 289.03 137.38 287.87 137.25 287.25 136.74 286.09 135.68 284.83 134.02 284.11 132.36 283.81 129.77 283.6 127.34 283.64 125.85 283.98 124.71 284.59 123.94 284.76 123.22 284.69 123 284.56 123.17 284.15 123.98 283.47 124.62 282.85 125.39 282.48 126.79 282.14 127.85 281.62 128.87 281.28 130.66 280.74 132.15 280.26 133.04 279.51 133.3 278.59 133.68 277.4 133.59 276.24 132.83 274.84 131.68 274.12 130.28 273.99 128.24 273.99 126.79 273.82 122.92 273.3 121.52 273.41 120.37 273.37 119.31 273.24 117.9 273.54 116.63 273.85 114.8 273.78 114.37 273.2 113.95 272.59 112.93 272.04 112.08 271.73 110.25 271.19 108.17 270.78 105.06 271.29 103.4 271.9 102.77 271.63 101.91 271.12 100.77 270.71 99.07 270.51 97.11 270.74 94.6 271.43 92.98 271.26 91.16 271.08 89.67 271.46 88.35 271.32 88.09 270.78 88.35 270.57 89.54 270.47 90.26 270.06 91.03 269.86 92.26 269.86 93.07 269.45 92.73 268.97 91.92 268.46 91.54 268.05 92.05 267.95 92.26 267.88 92.64 267.88 93.11 268.02 93.67 268.15 94.22 268.53 95.32 268.7 96.13 268.7 97.15 268.53 98.51 268.22 99.53 267.81 100.34 267.57 101.06 267.74 101.62 267.88 102.47 268.22 103.45 268.43 104.68 268.36 105.7 268.09 106.42 267.78 107.49 267.3 108.46 266.86 109.1 266.35 109.19 266.18 109.66 265.56 110 265.63 110.63 266.01 111.57 266.38 112.59 266.62 113.48 266.65 114.33 266.45 115.61 266.07 116.59 265.39 117.06 265.22 117.74 265.39 118.76 265.84 119.69 266.08 121.05 266.11 122.67 265.91 123.69 265.5 124.11 264.95 124.2 264.2 124.16 263.52 124.28 263.14 124.88 262.77 125.31 262.39 125.69 262.36 126.24 262.63 126.58 263.31 127.09 263.96 127.64 264.71 128.37 265.22 129.34 265.87 130.79 266.01 132.53 265.8 134.32 265.53 135.98 265.23 137.98 265.12 139.55 264.92 140.95 264.03 141.59 263.08 141.55 262.12 141.38 261.41 141.38 261 141.64 260.66 141.81 260.01 141.85 259.53 142.02 259.43 142.4 259.36 143.34 259.23 144.02 258.95 144.49 258.51 144.53 257.93 144.36 257.28 144.44 257.04 144.66 256.87 145.08 256.81 146.06 257.28 146.82 257.56 148.4 258.14 149.59 258.48 151.03 258.78 151.67 258.48 151.93 257.9 152.1 257.25 152.4 256.5 152.69 255.55 153.03 254.59 153.16 253.91 152.91 253.43 152.27 252.92 151.12 252.58 149.33 252.17 147.97 251.93 147.42 251.62 147.55 251.32 147.85 251.11 148.36 250.8 149.16 250.46 150.1 250.09 151.25 249.68 152.23 249.27 153.46 248.79 154.57 248.08 155.71 247.67 156.61 247.33 157.46 247.23 158.44 246.99 159.37 246.75 160.39 246.65 160.9 246.48 161.07 246.17 160.73 245.97 160.05 246.1 159.2 246.27 159.03 245.83 158.69 245.28 159.16 245.15 159.59 245.15 159.88 244.98 160.35 244.77 160.95 244.5 161.33 244.19 161.75 243.92 161.84 243.78 162.26 243.71 162.9 243.78 163.37 243.78 164.09 243.54 164.99 243.24 165.75 242.9 166.65 242.18 167.11 241.7 167.79 241.02 168.43 240.38 169.03 239.69 169.37 239.11 169.41 238.67 169.07 238.33 168.65 238.16 167.92 237.92 166.35 237.82 164.44 237.44 162.73 237.13 161.08 236.96 159.54 237.3 158.95 237.65 157.63 238.29 156.87 238.36 155.97 238.22 154.61 237.85 153.68 237.81 152.7 237.99 151.93 238.16 151.17 238.36 150.78 238.16 150.32 237.88 149.64 237.47 148.91 237 148.49 236.69 147.89 236.48 147.34 236.45 146.87 236.42 146.32 236.55 145.85 236.82 145.51 237.1 144.83 237.57 143.47 238.73 142.15 240.47 141.3 240.81 140.24 240.85 139 240.78 138.71 240.57 138.11 240.17 137.64 239.48 136.96 238.43 136.15 237.23 135.47 236.65 134.71 236.55 133.35 236.86 132.45 237.44 131.65 238.02 130.88 238.63 130.2 239.45 129.95 240.1 129.73 240.54 129.48 241.77 129.43 242.48 129.77 243.37 129.69 243.78 129.39 243.74 129.09 243.51 128.5 243.16 127.56 242.86 126.67 242.62 125.61 242.52 125.01 242.75 124.59 243.16 124.37 243.71 124.16 244.7 123.82 245.79 123.27 246.13 122.8 246.27 121.74 247.02 120.8 247.49 120.54 247.36 120.37 247.12 120.46 246.84 120.55 246.61 120.59 245.82 120.67 244.97 120.63 244.19 120.42 243.61 120.04 243.3 119.65 242.99 119.82 242.62 120.04 242.31 120.46 241.59 120.72 240.95 120.72 240.54 120.42 240.09 120.04 239.75 119.4 239.38 118.42 239 117.48 238.97 116.46 238.83 116.46 238.59 116.72 238.35 117.14 238.08 117.74 237.81 118.63 237.3 119.61 236.86 120.29 236.41 120.38 236.14 120.25 235.76 119.99 235.49 119.53 235.22 118.8 234.98 118.63 234.57 118.51 234.06 118.12 233.51 118 233.14 118.21 232.73 118.34 232.35 118.51 231.74 118.34 231.23 118 230.92 117.7 230.65 117.19 230.41 116.59 230 115.74 229.66 114.72 229.32 114.09 229.25 113.02 229.25 111.7 229.42 110.38 230 109.07 230.51 108.13 231.26 107.45 231.77 106.43 232.18 105.71 232.45 105.15 233 104.56 233.17 103.92 233 103.28 232.86 102.18 232.79 101.16 232.69 100.52 232.93 100.01 233.37 99.62 233.89 99.03 234.7 98.65 235.42 98.22 236.37 97.63 237.5 96.82 238.08 96.39 237.94 96.26 237.74 96.09 237.16 96.14 236.54 96.22 235.66 95.97 234.98 95.54 234.23 95.12 233.99 94.44 233.71 93.63 233.61 92.73 233.68 91.5 233.99 90.35 234.33 89.59 234.7 88.91 235.32 87.93 236.13 87.38 236.78 87.08 236.78 86.36 236.85 85.59 237.05 84.87 237.43 84.31 238.01 83.63 237.63 82.91 237.16 82.31 236.99 81.63 236.71 81.08 236.65 80.23 236.61 79.76 236.75 79.34 236.82 79.17 236.75 78.74 236.48 78.32 236.17 77.68 235.96 77.21 235.9 76.66 235.76 76.02 235.49 75.26 235.18 74.45 234.84 73.09 234.43 72.11 234.22 70.92 234.33 70.36 234.39 70.24 234.26 70.19 234.02 70.07 233.75 70.02 233.44 69.73 232.83 69.34 232.31 68.66 231.91 68.54 231.67 68.58 231.56 68.71 231.33 68.92 231.09 69.34 230.51 69.43 230.1 69.35 229.55 69.09 229.14 68.49 228.6 67.9 228.26 67.73 228.02 67.73 227.51 67.52 227.2 66.71 226.69 66.03 226.38 64.88 226.14 63.94 226.01 63.26 225.97 61.65 225.87 60.84 225.7 59.95 225.49 58.84 225.15 58.2 225.12 57.61 225.26 57.22 225.49 56.88 225.77 56.54 226.07 56.33 226.55 56.25 226.96 56.03 227.51 55.78 227.95 55.52 228.02 55.1 227.74 54.89 227.47 54.5 227.2 54.12 227.06 53.52 226.99 53.61 226.52 53.61 225.97 53.69 225.15 53.44 224.51 53.18 224.2 52.63 223.75 52.59 223.52 52.12 222.73 51.65 222.15 50.63 221.5 49.48 221.1 48.29 220.89 45.57 221.2 44.72 221.3 44.13 221.2 43.28 220.99 42.43 221.03 41.32 221.84 40.89 221.64 40.43 221.33 39.66 221.13 38.85 221.09 37.92 221.2 37.11 221.57 36.6 221.98 36.05 222.39 35.62 222.7 35.41 222.66 35.24 222.56 35.19 222.29 35.28 221.98 35.45 221.5 35.66 220.99 35.75 220.41 35.79 219.73 35.79 218.78 35.66 218.23 35.32 217.41 35.02 216.94 34.68 216.66 34.22 216.46 33.49 216.05 32.73 215.84 32.09 215.88 31.49 216.05 30.81 216.32 29.75 216.87 28.48 217.28 27.88 217.41 27.67 217.34 27.54 217.21 27.62 217.07 27.75 216.9 27.79 216.8 28.01 216.56 28.09 216.32 28.43 215.88 28.82 215.5 29.16 215.03 29.67 214.58 30.22 214.17 30.69 213.66 30.98 213.25 31.11 212.95 30.9 212.67 30.6 212.5 30.35 212.4 29.88 212.3 29.41 212.26 28.73 212.23 27.92 212.26 26.9 212.13 26.52 212.06 25.88 211.79 25.24 211.44 24.48 211.14 23.97 210.97 23.33 210.9 22.95 210.97 22.44 210.93 22.35 210.82 22.31 210.76 22.35 210.46 22.48 210.15 22.78 209.74 22.73 209.54 22.61 209.3 22.14 208.82 21.42 208.27 20.52 207.66 19.46 206.98 18.61 206.43 18.14 206.23 17.8 205.99 17.42 205.72 16.91 205.17 16.1 204.56 15.33 203.94 14.01 203.53 12.7 203.06 11.21 202.48 10.48 202.27 9.68 202.34 9.29 202.24 8.23 201.86 7.38 201.69 6.57 201.59 5.93 201.39 5.55 201.15 4.96 200.7 4.23 200.19 3.59 199.82 2.7 199.61 1.34 199.37 1 199.03 1.43 198.76 2.45 198.93 3.42 199.27 4.66 199.72 5.98 200.09 8.4 200.6 10.61 201.28 12.48 201.66 14.1 202.14 15.5 202.44 17.08 202.48 18.14 202.41 18.86 202.68 20.99 203.53 23.07 204.25 23.46 204.73 24.05 205.34 24.56 205.92 25.2 206.57 26.14 207.22 27.5 207.49 28.31 207.49 29.62 207.56 30.01 207.84 30.13 207.93 30.9 208.55 32.3 209.06 33.75 208.89 34.22 208.96 35.36 209.03 35.63 209.09 36.51 209.3 36.47 209.67 36.05 210.01 35.62 210.39 35.41 210.73 35.88 211.24 36.81 212.2 38.85 213.63 40.55 214.38 42.72 214.62 44.64 214.41 45.44 214.34 46.51 214.34 47.87 214.55 49.31 214.65 50.51 214.24 51.02 213.73 51.48 213.05 51.74 212.33 52.21 212.2 52.93 212.03 53.27 211.92 53.48 212.47 53.57 213.29 54.38 215.09 55.35 215.74 57.27 216.19 57.74 216.25 58.37 217.07 59.27 218.33 60.16 218.95 61.52 219.9 63.52 220.86 65.35 221.54 66.96 221.95 68.28 222.46 69.77 222.77 70.07 222.97 71.05 223.62 72.36 224.3 72.58 224.57 73.43 225.5 74.45 226.25 75.47 226.93 77 227.58 78.45 227.68 79.47 227.58 80.32 227.2 80.79 227.17 81.68 227.34 82.78 227.3 83 227.41 83.46 227.68 84.31 228.22 85.51 228.29 86.44 228.09 87.97 227.82 88.57 227.41 89.04 227 89.72 226.69 91.08 226.42 92.18 225.91 92.91 225.33 93.25 224.68 93.03 224.06 92.44 223.35 91.72 222.5 90.7 221.61 90.7 221.41 91.12 221.34 91.63 221.24 92.52 221.23 93.84 221 94.65 220.69 94.91 220.42 95.16 220.38 95.54 220.35 96.44 220.52 97.29 220.35 97.76 220.45 98.56 220.69 99.5 220.69 100.26 220.59 101.11 220.55 102.22 220.38 103.84 220.11 104.69 219.84 104.99 219.46 105.16 219.12 105.03 218.78 104.77 218.51 104.35 218.24 103.33 217.89 101.88 217.55 99.58 216.8 97.76 216.19 96.48 215.27 95.63 214.62 94.44 213.6 93.42 212.92 92.35 211.89 91.5 211.65 90.48 211.55 90.02 211.28 90.02 211.07 90.23 210.87 90.53 210.66 90.82 210.53 91.04 210.15 91.25 209.78 91.33 209.23 91.04 208.72 90.61 207.87 89.89 206.88 89.08 206.13 88.57 205.55 88.32 204.97 88.27 204.53 88.4 204.46 88.49 204.53 88.91 204.63 89.55 204.8 90.19 205.31 90.82 205.72 91.93 206.47 93.08 207.22 94.06 207.77 94.52 208.11 94.95 208.72 95.33 209.37 95.71 209.88 96.35 210.32 97.37 210.87 98.44 211.25 99.2 211.48 100.18 211.35 101.24 211.45 101.88 211.25 102.56 211.01 103.2 210.7 103.63 210.26 104.05 209.78 104.26 209.1 104.26 208.35 104.05 207.77 103.8 207.22 103.29 206.37 102.73 205.55 102.35 204.97 102.18 204.39 102.14 203.68 101.59 203.2 100.65 202.69 99.93 202.48 99.54 201.97 99.25 200.98 98.82 200.13 98.4 199.18 98.01 198.63 97.08 198.12 96.23 197.85 95.63 197.4 94.91 196.89 94.27 196.48 93.34 196 92.1 195.66 91.17 195.46 90.44 195.25 90.44 194.78 90.44 194.37 90.4 193.89 90.06 193.11 90.27 192.83 90.57 192.59 90.87 192.15 91.42 191.57 91.64 191.09 91.76 190.34 91.59 189.66 91.3 188.88 90.66 188.09 90.23 187.65 89.59 187.14 89.04 186.8 87.98 186.29 87.51 185.91 86.87 185.23 86.4 184.89 86.4 184.75 86.49 184.55 86.83 184.31 87.13 183.93 87.47 183.59 87.72 183.22 87.85 182.84 87.81 182.36 87.64 182.02 87.38 181.82 86.92 181.61 86.28 181.41 85.94 181.07 85.94 180.59 85.85 179.84 85.47 179.23 85.04 178.92 84.49 178.58 83.51 178.17 82.45 177.9 82.12 177.77 81.81 177.66 80.88 177.15 80.24 176.64 79.64 176.64 79.13 176.77 78.83 176.94 78.49 177.35 78.28 177.83 77.9 178.24 77.56 178.13 77.39 177.9 77.09 177.42 76.75 176.91 76.33 176.5 75.69 175.85 74.54 174.93 73.56 174.25 72.63 173.74 71.65 173.43 71.18 173.26 71.11 173.06 71.09 173.02 70.97 172.68 70.67 172.44 69.95 172.07 69.27 171.76 68.54 171.25 67.48 170.63 66.5 170.12 65.82 169.88 65.18 169.75 64.46 169.81 64.29 169.75 64.12 169.44 63.99 169.03 63.57 168.62 63.23 168.45 62.89 168.35 62.76 168.01 62.63 167.8 62.38 167.56 61.91 167.5 61.44 167.5 60.55 167.46 60.12 167.32 60.04 166.98 59.99 166.78 60.08 166.44 60.16 166.03 60.08 165.89 59.74 165.52 59.48 165.14 59.31 164.97 59.4 164.7 59.74 164.67 60.29 164.53 60.46 164.43 60.42 164.15 60.5 163.54 60.84 163.2 61.4 163.13 61.74 163.64 62.59 164.5 63.65 165.86 65.65 166.88 68.76 167.91 71.14 168.62 73.48 169.37 75.01 169.13 76.33 168.69 77.09 168.32 77.56 168.14 78.03 168.25 78.45 169.07 79.86 169.68 81.6 170.05 82.79 170.19 83.68 170.57 85.22 170.94 85.9 171.11 86.32 171.32 86.53 171.86 87.26 172.24 89.64 173.16 91 173.53 92.96 174.08 94.57 173.74 95.85 172.75 96.78 171.97 97.21 171.01 97.55 170.33 97.72 170.06 98.57 169.82 99.42 170.02 101.08 170.19 102.53 170.36 103.38 170.43 103.97 170.7 103.8 171.39 103.51 172.48 103.55 173.43 103.67 173.94 103.46 174.35 102.53 175.21 101.8 175.96 101.42 176.5 101.16 177.35 101.12 178.24 101.42 179.13 101.72 179.88 102.18 180.29 103.16 180.83 103.5 181.31 103.59 182.26 103.93 182.84 104.48 183.52 105.25 183.9 106.48 184.07 108.35 183.46 109.63 183.12 110.56 182.81 110.95 182.84 111.41 183.08 111.33 183.9 111.54 185.2 111.5 185.98 111.54 186.46 111.12 187.04 110.78 187.69 110.69 188.13 110.77 188.67 111.03 189.08 111.5 189.25 112.39 189.36 112.86 189.6 113.37 190.14 113.96 190.35 114.77 190.58 114.56 191.2 114.82 191.91 116.13 193.21 117.11 194.06 118.26 195.05 119.28 195.39 120.17 195.6 120.98 195.73 121.58 195.8 121.79 196.42 121.24 198.19 121.49 199.25 121.92 200.51 122.72 201.91 123.15 202.38 123.91 203.41 124.68 204.02 125.44 204.33 126.34 204.67 126.85 204.74 127.23 205.83 127.15 206.82 127.32 207.63 127.32 208.08 126.81 208.93 126 209.99 125.44 210.87 125.23 211.52 125.27 212.14 126.21 213.09 128.04 213.98 129.78 214.66 130.8 214.93 131.78 214.86 132.54 214.52 133.1 213.6 132.97 212.38 132.63 210.91 132.25 209.65 132.16 208.56 132.21 207.7 131.95 206.41 131.78 205.18 131.27 204.23 130.42 203.34 130 203.07 129.57 202.38 129.49 201.98 130.21 201.12 131.19 199.96 131.95 199.32 132.25 199.08 133.53 199.11 134.89 197.68 135.65 196.35 136.12 195.43 136.42 194.75 136.89 194.03 137.19 193.32 137.36 193.11 138.5 192.94 139.57 192.33 140.25 191.54 140.84 190.55 141.18 189.43 141.18 188.47 140.93 188.07 140.8 187.66 140.84 187.52 141.18 187.32 141.65 187.32 141.99 187.66 142.55 188.41 143.27 189.26 143.61 189.67 143.57 190.21 143.48 191.89 143.57 193.01 143.57 193.56 143.48 194.1 143.1 194.78 142.46 195.94 142.08 196.86 141.86 197.61 141.86 198.16 142.08 199.01 142.54 199.83 143.1 200.31 144.12 200.41 144.75 200.41 145.35 200.89 145.99 201.19 146.29 201.53 146.41 202.46 147.56 202.83 148.79 202.8 149.86 202.59 150.28 202.76 150.88 203.48 151.73 203.89 152.2 203.99 152.45 204.74 152.58 205.32 152.92 205.73 153.22 205.97 154.11 206.14 155.22 205.76 156.07 205.15 156.87 204.64 157.6 204.06 158.07 203.75 158.24 203.55 158.79 203.41 159.43 203.45 159.94 204.26 160.96 204.88 161.55 205.15 162.87 205.63 163.81 206.07 164.06 207.03 164.66 207.61 165.68 208.26 166.57 208.84 167.08 209.28 167.51 209.52 167.72 209.82 167.42 210.51 167.16 211.09 166.99 211.77 166.95 212.21 167.38 212.72 167.67 213.03 168.27 213.3 168.65 213.34 169.29 213.27 169.76 212.79 170.44 211.8 170.91 210.92 171.38 210.03 171.8 209.25 172.31 208.53 172.7 207.81 172.87 207.4 173.67 207.13 174.31 206.86 174.91 206.38 175.21 206.01 175.59 205.6 176.82 205.46 177.37 206.01 178.69 206.79 180.27 207.34 181.54 207.65 182.86 207.58 183.92 207.34 184.69 206.93 185.33 206.49 185.96 206.21 187.07 206.01 187.96 205.98 188.69 206.25 189.67 206.11 190.3 206.08 190.9 206.49 191.45 206.73 192.34 206.83 193.15 206.66 193.79 206.42 194.13 206.08 195.11 205.7 196.13 205.36 196.85 205.16 197.36 204.89 197.92 204.68 198.17 204.21 198.26 203.59 198.09 203.01 197.75 202.74 197.24 202.5 196.34 202.02 195.88 201.85 195.41 201.82 195.07 201.72 194.81 201.2 194.86 200.18 194.81 199.36 194.35 198.95 193.41 198.2 192.35 197.73 191.54 197.45 190.9 197.21 190.52 196.87 190.01 196.09 189.41 195.37 188.14 194.62 186.99 194.31 186.1 194.14 185.67 194.04 185.33 193.67 185.25 193.09 184.74 192.51 184.35 192.27 183.46 191.99 182.53 191.79 181.46 191.18 180.7 190.97 179.68 190.77 178.66 190.73 177.72 190.9 176.74 191.28 176.1 191.48 175.81 191.58 175.42 191.62 174.61 191.69 173.38 191.79 172.57 191.99 171.93 192.09 171.38 192.23 170.62 192.71 170.11 193.02 169.38 193.53 169 194.11 168.57 194.65 168.36 195.13 167.81 195.27 167.3 194.99 167.26 194.62 167.38 193.7 167.55 192.98 167.47 192.23 167.34 191.62 166.96 191.17 166.19 190.66 165.64 190.29 165.21 190.01 164.96 189.74 165 189.5 165.17 189.3 165.47 189.09 166.36 189.23 167.04 189.5 168.02 189.64 168.87 189.78 169.72 189.78 170.62 189.33 171.21 188.92 171.77 188.48 172.11 188.14 172.87 187.83 173.85 187.49 174.45 187.12 175.38 186.3 176.15 186.2 177.17 186.1 177.85 185.75 178.27 185.45 178.7 185.24 179.46 185.35 180.32 185.48 181.29 185.38 182.19 185.18 182.95 184.77 183.21 184.49 183.68 183.88 183.93 183.61 184.36 183.3 184.65 183.06 184.87 182.89 185.16 182.69 185.8 183.13 186.06 183.88 186.35 184.6 187.04 185.45 187.59 185.76 188.74 186.1 189.76 186.3 190.57 186.3 191.46 186.3 191.84 186.2 192.35 185.89 193.5 186.2 194.01 186.34 194.48 186.68 194.73 187.33 194.69 187.8 194.95 188.25 195.33 188.62 195.84 188.76 196.94 188.93 197.5 189.07 198.01 189.1 198.73 189.17 199.28 189.58 199.88 189.99 200.94 190.26 201.92 190.43 203.11 190.6 204.05 190.5 204.98 190.3 206.39 189.89 207.53 189.65 208.26 189.31 208.85 188.8 209.19 188.59 209.66 188.56 211.28 188.63 212.6 188.73 213.49 188.7 214.08 188.59 215.19 189.48 215.66 190.5 216.25 191.19 216.64 191.39 217.53 191.53 219.15 190.88 221.23 189.65 222.25 189.04 222.85 188.7 223.4 188.6 224.8 188.97 226.67 189.55 227.99 189.76 229.06 189.62 230.03 189.55 230.63 189.08 230.97 188.43 230.97 187.61 230.76 186.93 230.46 186.28 229.95 185.77 229.52 185.7 228.21 185.87 226.08 186.38 224.46 186.65 223.61 186.75 222.85 186.69 220.98 185.53 219.15 184.4 218.04 183.86 217.32 183.68 216.3 183.62 215.02 183.62 212.77 183.48 211.66 183.21 210.77 182.42 209.96 180.92 209.03 180 208.35 179.73 207.58 179.86 206.86 180.27 206.35 181.19 205.41 182.08 204.64 182.73 204.01 183.24 203.11 183.65 200.39 183.68 199.29 183.68 197.8 183.07 196.65 182.66 195.93 182.38 195.46 182.14 195.71 181.12 196.1 180.2 196.39 179.28 196.52 178.74 196.65 178.12 196.57 177.71 195.97 177.3 194.95 177.13 193.89 177.23 192.99 177.17 192.53 176.86 191.76 176.28 191.46 175.6 191.29 175.19 191.12 174.78 190.91 174.4 190.74 174.27 190.57 174.2 190.19 174.3 189.63 174.4 189.12 174.33 188.83 174.16 188.44 173.93 188.06 173.69 187.55 173.35 187 172.7 186.53 171.95 185.98 171.37 185.13 171.09 184.36 171.06 183.68 171.16 183.13 171.54 182.7 172.05 182.36 172.9 182.06 173.14 181.3 173.28 180.11 173.51 179.26 173.65 178.32 174.16 177.13 174.95 176.15 175.63 175.55 175.63 175.04 175.32 174.79 174.95 174.79 174.4 174.71 173.82 174.71 173.21 174.62 172.32 174.49 170.89 174.2 170.07 174.11 169.08 174.37 168.13 174.88 166.9 175.73 165.77 176.49 164.68 177.69 163.08 178.45 161.65 178.62 160.86 178.54 160.52 178.37 160.35 177.9 160.22 177.09 160.05 176.24 159.88 175.35 159.87 174.79 159.74 174.2 159.53 173.82 159.7 173.82 160.01 174.2 160.32 174.45 160.73 174.2 161.27 173.6 162.12 172.79 162.91 172.07 163.86 171.35 164.58 170.75 165.26 170.88 166.01 170.45 166.45 169.69 167.14 168.92 167.78 167.99 168.64 167.22 169.56 166.54 170.65 166.37 171.23 166.16 171.7 165.73 172.08 165.22 172.08 164.67 171.81 163.9 171.4 163.52 171.16 162.75 170.82 162.24 170.68 161.39 170.68 160.5 170.82 159.82 171.16 158.93 171.67 158.42 172.04 157.95 172.52 157.44 172.96 157.1 173.61 156.8 174.26 156.46 175.04 156.24 176.41 156.29 177.26 156.29 178.25 155.78 178.52 155.22 178.38 154.54 177.94 154.07 177.53 153.39 177.26 152.97 177.16 152.25 177.16 151.48 177.33 150.93 177.74 150.25 178.32 149.74 178.04 149.61 177.67 149.74 177.39 149.86 177.02 150.08 176.51 150.38 176.2 150.5 175.69 150.5 175.04 150.67 174.6 151.27 174.29 151.74 173.99 152.08 173.61 152.33 172.96 152.63 172.04 152.42 171.5 152.25 170.82 151.99 170.3 151.57 169.86 150.93 169.25 151.14 168.94 151.31 168.7 151.91 168.16 152.8 167.37 154.25 166.35 155.7 165.16 157.52 163.86 157.52 163.31 157.44 163.18 157.01 162.87 156.42 162.73 155.65 162.5 154.33 162.15 152.51 161.92 151.19 162.09 149.87 162.05 148.68 162.05 147.78 162.15 147.15 162.56 146.64 162.94 145.57 163.31 144.51 163.38 142.81 163.52 141.32 163.62 140.6 163.99 139.79 164.71 139.28 165.56 138.34 166.82 137.57 167.64 137.06 167.54 136.43 167.44 135.7 167.2 134.56 166.99 133.53 166.86 132.68 166.79 132.26 166.86 131.49 166.72 130.9 166.55 129.83 166.24 129.66 165.9 129.41 165.53 129.24 165.08 129.32 164.74 129.62 164.26 129.79 163.48 129.83 163.14 129.62 162.46 129.67 162.01 129.96 161.61 130.22 161.09 130.26 160.41 130.26 159.73 129.79 158.98 129.07 158.3 127.79 157.89 126.56 157.96 125.8 158.19 124.94 158.74 123.8 159.63 123.24 159.83 122.65 159.9 122.22 160.27 121.71 160.17 120.65 160.07 119.54 160.03 118.22 160.38 117.25 160.75 116.56 161.26 115.67 162.22 114.65 163 114.18 162.86 113.54 162.52 112.91 162.22 111.84 161.74 110.69 161.67 109.46 161.5 107.97 161.57 106.78 161.64 106.4 161.43 105.59 161.02 104.74 160.68 103.63 160.14 102.49 159.66 102.36 159.25 102.32 158.74 102.15 158.12 101.89 157.68 101.55 157.1 101.3 156.59 101.34 156.42 101.64 156.35 102.06 156.42 102.66 156.76 103.59 157.24 104.95 157.71 106.61 157.99 108.1 157.78 109.5 157.31 110.74 156.9 111.8 156.18 112.74 155.4 113.25 154.54 113.76 154.24 114.65 153.86 115.59 153.52 116.57 152.98 117.46 152.53 117.8 152.12 118.35 151.85 118.99 151.82 119.97 151.72 121.03 151.54 121.76 151.68 122.35 151.68 123.54 151.27 125.5 150.59 127.29 150.59 129.37 149.91 130.48 149.47 131.75 148.75 132.99 148.07 133.75 147.73 134.26 147.66 135.11 147.76 136.39 147.83 137.45 147.59 138.47 147.08 139.15 146.47 139.66 145.79 140.3 145.38 140.73 145.51 141.24 145.65 141.49 146.06 142.05 146.33 142.43 146.91 142.94 147.53 143.24 148.14 143.49 148.82 144.09 149.57 144.68 149.88 145.24 149.74 145.62 149.57 146.09 149.33 146.72 148.96 147.49 148.34 148.17 147.8 148.77 147.56 149.74 147.49 150.51 147.29 151.06 147.02 151.23 146.78 151.02 146.47 150.72 146.3 150.34 145.99 150 145.75 149.45 145.48 148.81 145.31 148.21 145 147.66 144.53 147.24 144.05 146.94 143.6 146.6 142.85 145.66 141.66 144.98 141.05 143.92 140.54 143.45 140.16 142.56 139.65 140.9 139.72 139.92 140.06 139.33 139.58 137.88 138.62 136.82 138.05 135.28 137.23 134.22 136.95 132.1 136.37 130.86 136.17 129.37 135.73 126.99 134.8 125.89 134.22 125.12 133.75 124.31 133.64 122.82 133.95 121.59 133.88 120.4 133.75 119.89 133.47 119.12 133.06 118.4 132.83 117.34 132.76 116.02 132.86 115.51 133 114.44 133.2 113.38 133.54 112.66 133.34 111.93 132.89 111.34 132.76 110.32 132.69 109.47 132.76 108.49 133.13 107.59 133.78 106.45 134.56 105.89 134.43 105.38 134.36 104.06 134.29 102.79 134.36 102.11 134.02 102.36 133.64 102.92 133.3 104.23 132.62 105.26 131.97 106.19 130.91 106.7 129.79 107.04 128.94 107.38 128.53 108.36 128.32 109.47 128.02 110.83 127.54 112.06 126.58 113.59 125.39 114.91 123.99 116.06 122.56 116.36 121.5 116.02 120.45 115.59 119.39 115 118.68 114.36 118.13 114.57 117.89 117.81 116.97 121.38 116.12 122.32 115.85 122.78 115.95 123.72 116.15 124.7 116.7 126.44 117.99 128.27 118.92 129.38 119.12 130.19 119.02 131.84 118.51 133.46 117.72 133.89 117.45 134.11 117.75 134.14 117.79 133.89 118.34 133.67 119.26 133.63 120.21 134.1 121.27 134.65 121.88 135.76 122.36 136.95 122.63 139.59 122.53 142.65 122.46 143.63 122.63 145.37 123.56 146.65 123.93 148.22 124.82 150.56 125.23 153.92 125.4 157.83 124.38 159.83 122.71 162.43 120.66 162.85 120.46 163.19 120.49 163.19 120.55 163.15 120.93 162.85 121.45 162.34 122.06 162.13 122.71 162.17 123.22 162.56 123.66 163.19 124.24 163.32 124.96 163.11 125.54 163.19 126.8 163.57 128.43 164.3 130.04 165.4 131.71 167.23 133.21 169.06 133.93 171.57 134.57 173.48 134.06 175.65 133.21 177.06 131.95 177.31 130.48 176.85 127.69 177.4 127.31 177.95 127.01 179.36 126.36 179.57 125.4 179.48 124.52 179.49 123.97 179.78 123.15 179.91 122.51 180.12 122.37 180.42 122.4 180.68 122.95 181.19 123.66 181.7 124.21 181.88 124.93 181.91 125.06 182.04 126.29 182.29 127.52 183.4 128.88 186.25 130.79 188.5 131.99 191.9 132.77 193.95 132.67 197.01 132.23 199.56 131.41 202.2 130.66 203.69 130.56 204.54 130.69 205.18 131.1 205.98 131.68 207.05 132.16 208.45 132.26 209.39 131.99 209.9 131.55 209.98 130.97 209.64 130.56 208.79 129.91 208.24 129.13 207.52 127.9 207.13 126.09 207.3 124.52 207.99 123.3 209.26 122.17 210.28 121.18 211.05 120.57 211.18 120.23 211.35 119.45 211.99 118.83 211.73 118.25 211.77 117.64 212.28 116.92 213.35 115.69 214.62 114.33 214.97 113.41 214.8 112.86 214.33 112.46 213.43 111.88 212.07 111.33 210.16 110.78 209.48 110.48 209.61 110.07 209.73 109.45 209.65 108.94 209.35 108.43 209.57 108.23 210.25 107.78 211.18 107.1 211.99 107.61 213.27 107.72 214.97 107.61 216.84 107.79 218.03 107.92 219.9 108.37 220.75 108.3 221.22 107.79 221.65 107.07 221.78 105.91 221.52 104.85 220.93 103.25 220.59 102.43 220.71 101.72 221.01 100.7 221.95 99.26 222.46 98.72 222.93 98.89 223.27 99.2 223.22 99.57 223.78 101.38 225.18 103.29 226.41 103.97 228.24 104.31 229.99 104.04 232.37 103.97 232.96 103.9 233.18 104.11 233.09 104.62 232.67 105.1 231.86 105.91 230.49 107.65 229.09 109.05 228.54 110.24 228.79 110.86 229.51 111.27 230.45 111.37 231.3 111.4 233.05 111.27 235.9 111.34 236.66 111.68 236.83 112.12 236.66 113.28 236.66 114.82 236.83 115.46 237.6 115.8 238.45 115.74 239.59 115.67 241.72 115.77 242.78 115.74 243.59 115.02 244.91 112.36 245.47 111.68 245.85 111.48 246.49 111.31 247.81 110.9 248.91 110.35 249.25 109.74 249.08 108.75 248.57 108.03 248.96 107.69 250.06 106.84 251.64 105.72 252.15 105.61 252.53 106.36 253.55 106.77 254.36 106.4 254.96 106.06 255.68 105.31 256.06 104.15 256.79 103.5 257 103.4 257.47 103.5 257.89 103.67 258.61 104.08 260.23 104.97 262.36 106.03 263.42 106.2 263.97 105.75 264.31 105.31 265.08 104.6 265.72 104.15 266.31 103.54 266.44 102.79 266.4 102.18 266.15 101.49 265.85 100.64 265.72 99.96 265.93 99.86 266.57 99.72 269.46 99.76 273.29 100.03 275.46 100.27 276.61 100.68 278.44 100.71 278.91 100.41 279.33 99.69 279.55 99.08 279.29 98.8 278.65 98.36 277.34 97.37 275.12 95.67 275.12 95.33 275.59 94.68 276.4 93.62 277.38 92.09 277.64 91.3 277.47 90.72 277.04 90.25 276.66 89.77 276.87 89.43 277.38 88.88 277.94 88.3 278.4 88.1 279.04 87.93 280.23 87.93 281.08 87.72 282.83 87.76 284.83 87.45 286.44 87.28 287.17 86.91 287.76 86.26 287.76 85.44 287.55 84.86 287.3 84.28 286.62 83.46 285.72 82.71 285.17 82.47 284.32 82.41 283.55 82.41 283.13 82.61 282.58 83.02 281.85 83.29 280.87 83.53 279.85 83.7 278.49 83.84 276.75 83.83 275.98 83.94 275.13 84.11 274.28 84.62 273.26 85.03 272.75 85.27 271.9 85.88 270.79 86.83 270.02 87.62 269.22 88.06 268.79 88.03 268.62 87.79 268.53 87.31 268.75 86.49 268.66 85.71 268.62 84.65 268.58 83.8 268.33 82.67 267.86 81.48 267.3 80.63 266.54 80.01 265.86 79.81 264.92 80.01 263.82 80.35 262.79 80.93 261.77 81.75 260.75 82.7 259.77 83.76 258.92 84.92 258.2 86.11 257.65 86.49 257.22 86.35 257.13 86.08 257.26 85.81 257.31 85.19 257.43 84.41 257.22 83.32 256.8 82.7 255.9 81.95 255.56 81.44 255.52 80.86 255.95 80.11 256.07 79.4 255.86 78.64 255.65 78.3 254.8 77.89 253.86 77.86 251.99 78.17 251.14 78.1 250.08 77.72 249.01 77.69 248.25 77.93 247.74 78.4 247.4 79.29 246.8 79.77 246.37 79.67 245.86 79.19 244.93 78.33 244.25 78.1 243.23 77.99 242.29 78.27 241.82 78.74 241.35 79.73 240.89 80.28 240.67 80.17 240.55 79.77 240.25 79.12 239.74 78.78 238.93 78.57 238.97 78.37 239.65 77.86 240.55 76.73 240.89 75.71 240.55 74.79 241.83 72.98 244.04 70.22 244.38 69.98 244.93 69.91 245.74 69.78 246.68 69.54 247.21 69.25 247.49 69.1 248.21 68.72 248.85 68.62 249.95 68.59 251.15 68.65 252.38 68.42 254 68.04 254.93 67.56 255.14 67.33 255.02 66.81 254.85 66.23 254.46 65.48 254.55 65.04 254.59 64.9 254.81 64.77 255.27 64.73 255.91 64.7 256.93 64.36 257.49 64.05 258.38 63.68 259.32 63.54 260.29 63.27 261.06 62.66 261.23 62.28 261.4 61.77 261.49 61.29 261.4 60.61 261.15 59.69 260.85 58.8 260.25 57.92 259.66 57.3 259.19 56.86 259.15 56.59 259.36 56.35 259.62 56.14 260.34 55.94 261.57 56.01 262.47 56.11 262.98 56.31 263.32 56.66 264.25 57.47 265.36 57.95 267.02 58.77 267.66 58.98 268.21 59.49 268.55 59.9 269.15 60.17 269.27 60.61 269.53 61.16 270.12 61.53 270.72 61.6 271.57 61.91 272.63 62.28 273.1 62.63 273.95 63.55 274.84 64.47 276.25 65.42 276.97 65.53 277.86 65.66 279.05 65.39 279.27 65.29 279.69 64.88 279.69 64.44 279.61 63.96 279.48 63.31 279.44 62.63 279.61 62.08 279.57 61.33 279.4 60.48 279.19 59.76 279.44 59.39 279.99 58.64 280.25 57.62 280.25 56.93 280.68 56.76 281.1 56.87 281.7 56.9 282.33 57.24 283.57 57.58 284.63 57.62 285.14 57.21 285.91 56.7 286.55 56.19 287.27 55.47 287.74 54.79 288.08 54.24 288.42 54.18 288.76 54.35 288.89 54.82 289.02 55.3 289.31 56.05 290.08 56.9 291.06 57.59 291.86 58.1 292.08 58.47 292.25 58.88 292.54 59.67 293.27 60.21 293.65 60.86 293.56 61.82 293.69 62.5 294.2 63.52 295.22 64.03 296.12 63.93 296.58 63.52 297.14 63.11 297.73 62.19 298.03 61.78 298.5 61.44 299.18 61.03 299.78 60.73 300.12 60.22 300.41 59.29 300.41 58.31 300.67 58.03 301.31 57.73 302.16 57.32 302.71 57.45 303.35 57.76 304.24 58.1 305.18 58.38 305.9 58.55 306.16 58.89 306.46 59.54 306.63 60.01 306.92 60.93 307.35 61.89 308.03 62.78 308.75 63.12 309.64 63.36 310.96 63.36 312.24 63.29 313.01 63.05 313.3 62.71 313.43 62.37 313.47 61.93 313.18 61.38 312.88 60.83 312.54 60.36 312.03 59.91 311.26 59.37 310.28 58.72 309.6 58.21 309.6 57.87 309.65 57.42 309.65 56.91 309.56 56.26 309.39 55.72 309.05 55.1 308.67 54.39 308.59 53.94 308.97 53.67 309.56 53.54 310.33 53.37 311.18 53.3 312.46 53.4 313.99 53.37 314.37 53.09 314.33 52.79 314.25 52.48 314.03 52.21 313.65 51.87 313.23 51.46 312.37 50.91 311.35 50.37 310.72 50.2 309.91 49.96 308.33 49.85 307.1 49.99 306.25 50.26 305.35 50.26 304.89 50.09 304.04 49.89 303.02 49.75 301.99 49.68 300.38 49.65 299.99 49.44 299.95 49.2 299.91 48.76 300.17 48.21 300.12 47.16 299.36 46.3 298.25 45.72 296.76 45.55 296.51 45.45 296.42 45.28 296.25 45.01 295.96 44.5 295.7 43.92 295.15 43.37 294.85 42.99 294.3 42.52 293.92 42.31 292.89 42.14 292.26 42.04 291.58 42.11 290.55 42.31 289.79 42.48 289.62 42.31 289.45 41.97 289.28 41.56 289.15 41.22 288.94 40.64 291.41 39.51 300.98 35.9 302.39 35.29 303.11 35.77 303.7 36.21 305.07 37.07 306.85 37.92 307.7 37.82 308.47 37.95 309.45 37.95 310.38 37.89 310.98 37.68 311.83 37.38 312.72 37.1 313.53 37.14 314.34 37.31 314.76 37.51 315.11 37.92 315.4 38.54 316 39.46 317.1 40.07 318.25 40.31 319.4 40.17 320.85 39.56 322.04 38.91 322.93 38.78 323.53 39.05 323.91 39.63 324.21 40.11 324.85 41 325.61 41.81 326.72 42.39 327.65 42.6 328.63 42.5 329.4 42.33 330.16 41.95 330.93 41.24 331.53 40.35 332.08 39.5 332.63 39.23 333.02 39.26 333.87 39.5 335.14 39.7 336.42 39.77 337.1 39.64 337.65 39.06 338.12 38.44 338.68 37.59 338.97 36.74 339.27 36.26 339.95 35.82 340.63 35.44 340.93 34.83 340.89 34.39 340.63 33.91 340 33.43 339.57 33.16 338.51 32.82 337.23 32.44 335.79 31.83 334.13 30.94 332.09 30.05 330.72 29.68 329.92 29.61 328.89 29.88 327.83 30.22 327.06 30.39 326.55 30.36 326.43 30.22 326.47 29.88 326.6 29.64 326.81 29.3 327.53 28.62 328.17 27.73 328.34 27.22 328.64 26.95 329.32 26.95 330.6 27.05 331.87 27.02 334.73 26.78 337.02 26.2 338.81 25.69 339.88 25.35 340.6 25.35 341.96 25.62 343.07 25.76 344.77 25.8 345.24 25.8 345.75 26 346.89 26.65 348.21 26.72 349.32 26.38 350.55 26.38 351.83 26.48 353.19 26.52 354.17 26.35 355.02 26.04 355.53 25.53 355.92 24.71 355.83 23.96 355.49 23.38 355.19 23.11 354.47 22.9 352.81 22.49 350.22 22.22 349.96 22.05 349.79 21.78 349.41 21.4 348.98 21.2 343.28 19.08 343.07 18.81 343.16 18.6 343.16 18.53 344.13 18.06 352.14 14.86 352.48 14.82 352.86 14.75 353.37 14.75 353.97 14.72 354.48 14.55 355.37 13.97 355.71 13.6 355.84 13.43 362.43 10.94 375.03 6.17 383.93 3.11 385.89 2.5 387.33 2.15 390.69 1.41 392.23 1.2 393.67 1.07 396.52 1 398.22 1.14 399.03 1.31 399.25 1.48 399.16 2.33 398.86 3.32 398.69 4.48 398.86 5.71 399.24 6.83 400.22 8.23 401.66 9.9 402.51 10.65 403.24 10.93 403.92 10.93 404.39 10.72 405.32 10.04 406.3 9.12 406.9 8.64 407.24 8.41 407.75 8.41 408 8.95 408.85 10.08 409.88 10.83 411.11 11.2 411.92 11.37 413.02 12.36 413.66 12.74 415.62 13.97 417.36 14.48 418.47 14.51 419.27 14.52 419.7 14.55 420.13 14.82 420.81 15.23 421.7 14.7 422.5 14.6 423.1 14.7 423.61 14.84 424.12 15.11 424.42 15.38 424.63 15.86 424.76 16.24 424.63 16.78 424.38 17.39 424.04 18.11 423.61 18.9 423.36 19.71 423.23 20.53 423.06 21.49 422.98 22.27 422.85 22.85 422.72 23.36 422.26 24.15 421.7 25.03 421.58 25.75 421.45 26.57 421.32 27.08 421.28 27.32 420.8 27.51 419.77 28.09 418.67 28.26 418.03 28.49 417.52 28.8 417.18 29.18 416.92 29.62 416.71 30.2 416.96 31.05 417.56 32.04 418.11 32.99 418.37 33.51 418.58 34.22 418.7 35.28 418.62 36.51 418.66 37.39 419 38.38 419.59 39.06 419.93 39.44 420.23 39.68 420.83 39.95 422.1 39.63 422.48 39.39 422.95 38.91 423.29 38.5 423.42 37.92 423.54 37.2 423.88 36.35 424.52 35.47 425.29 34.82 426.39 33.96 427.45 33.28 428.26 32.6 429.79 29.8 430.43 28.37 430.73 28.03 430.98 27.72 431.36 27.35 431.92 27.01 432.98 26.97 433.66 26.66 434.17 26.63 435.62 26.94 436.94 27.07 438 27.17 438.89 26.97 439.45 26.8 440.08 26.7 440.51 26.66 440.89 26.66 440.77 27.38 440.09 28.03 439.79 28.3 438.85 29.12 438.09 29.97 437.24 30.62 436.9 31.2 437.2 31.67 437.66 32.05 439.41 32.22 440.22 32.39 440.94 32.56 441.28 32.7 441.58 32.97 441.49 33.14 440.47 33.48 439.66 33.89 438.98 34.3 438.52 34.71 438.39 35.25 438.48 35.97 438.94 36.93 439.63 37.67 440.82 39.55 441.97 41.32 442.82 42.58 443.46 43.3 443.84 43.74 444.14 44.63 444.35 45.75 444.74 46.91 445.25 48.41 445.59 49.88 446.19 50.97 446.74 51.55 447.42 51.68 448.14 51.68 448.65 51.85 448.66 52.2 448.23 53.05 447.93 53.73 448.02 54.51 448.53 55.61 449.42 56.76 450.02 57.82 450.62 58.6 449.98 60.79 449.56 62.8 449.22 64.78 449.35 65.97 449.64 66.75 450.2 67.44 451.39 67.67 452.75 67.88 453.77 67.78 454.54 67.71 455.09 67.84 455.47 68.01 455.77 68.56 454.84 69.99 454.07 70.95 453.6 72.31 453.56 73.13 453.86 73.71 454.67 74.22 455.22 74.32 455.86 74.22 456.41 74.25 456.71 74.35 457.05 74.8 456.67 75.82 456.67 76.74 456.59 77.25 455.65 78.58 455.01 80.01 454.59 80.94 454.38 81.75 454.46 82.47 455.91 84.04 457.27 85.78 458.64 87.48 459.83 88.43 461.15 89.01 462.68 89.15 464.34 88.88 465.78 88.33 467.02 87.34 467.87 86.15 468.38 85.19 468.48 85.06 468.63 84.88 468.89 84.68 469.35 84.65 470.12 85.46 470.55 86.72 471.35 87.61 472.67 88.4 473.27 89.01 473.42 89.21 474.12 90.2 474.46 91.12 475.02 91.63 475.31 92.18 475.66 93.34 476.21 94.19 476.64 94.6 476.38 95.25 476.3 96 475.45 96.85 474.21 97.77 473.49 98.66 473.19 99.54 473.11 100.74 473.96 102 475.32 102.78 476.98 102.92 478.55 102.61 479.28 102.51 480.72 102.47 482.09 102.44 483.28 101.86 484.08 101.18 484.81 100.7 485.06 100.53 485.74 100.77 486.51 101.14 487.15 101.69 487.19 102.27 486.34 103.77 484.98 105.88 484.22 107.55 483.88 108.81 483.79 109.7 484.05 110.28 484.56 110.59 485.49 110.48 486.9 110.89 488.26 111.4 489.37 112.6 490.64 113.75 492.18 114.95 493.24 115.39 493.83 115.53 494.6 114.95 494.94 113.45 495.11 111.37 495.4 109.83 495.74 109.22 496.08 109.01 496.6 109.05 496.98 109.42 498.04 110.92 499.02 112.12 500.85 113.07 502.94 114.57 505.06 116.55 506.38 117.81 508.04 119.41 509.24 121.01 510.09 122.34 510.64 123.43 511.07 124.25 511.41 125.68 511.83 126.53 512.26 127.35 512.77 127.76 513.41 127.73 513.92 126.98 513.88 125.75 513.19 124.35 512.73 122.99 512.6 121.83 512.6 120.8 512.55 119.85 512.6 119.27 512.55 118.83 512.6 118.55 512.85 118.32 513.83 118.35 514.85 118.69 515.62 119.44 515.83 120.19 516.51 120.87 517.53 120.97 518.59 120.73 519.83 120.53 521.23 120.6 522.42 121.01 523.1 121.72 523.4 122.88 524.17 124.18 525.28 125.33 526.04 125.91 526.68 126.94 527.23 128.33 527.7 130.75 528.04 132.94 528.47 134.23 529.24 135.43 529.92 136.45 530.94 137.06 531.75 137.37 532.81 137.2 534.13 136.34 535.49 134.98 536.98 133.41 538.42 131.6 539.36 130.24 539.91 129.11 540.25 127.82 540.25 126.93 540.38 126.28 540.55 126.11 542.59 126.42 549.31 127.92 549.73 128.22 550.12 128.84 550.16 129.52 549.82 131.43 549.74 133.54 549.53 135.38 549.4 137.26 549.44 138.35 549.74 139.37 550.08 139.95 550.64 140.19 552.12 140.5 552.76 140.8 553.53 141.59 554 142.95 553.95 144.52 553.32 145.99 552.42 147.49 551.96 148.78 551.83 149.64 552.04 150.39 552.43 150.73 553.66 150.45 555.74 149.5 557.44 148.07 558.29 146.36 559.02 144.93 559.74 144.01 561.27 142.92 562.55 141.96 563.4 140.97 564.25 140.22 565.14 139.23 565.61 138.14 565.73 137.15 565.73 136.13 565.9 135.45 566.28 134.63 566.41 133.88 566.5 133.47 566.41 132.96 566.24 132.62 566.45 132.45 567.05 132.62 567.77 133.13 568.5 134.15 569.65 135.41 571.01 136.95 573.09 138.14 575.35 139.09 577.09 139.4 578.45 139.4 579.05 139.36 580.32 139.67 581.81 139.88 582.96 139.67 583.81 139.7 584.32 139.87 584.75 141.03 585.22 142.84 585.81 144.34 586.32 145.74 586.84 146.97 587.64 148.77 588.41 150.34 589.35 151.88 590.33 153.27 591.22 154.57 592.75 155.42 594.58 155.9 596.84 155.73 598.66 155.28 600.02 154.87 601.9 154.36 602.96 154.16 603.94 154.05 604.96 154.33 605.77 154.6 606.15 155.11 606.11 156.34 606.36 157.63 606.66 158.66 606.62 159.41 606.02 160.33 604.71 161.49 603.47 162.75 602.88 163.94 602.37 165.2 602.24 166.5 602.54 167.73 603.26 168.61 603.9 168.99 605.18 168.75 606.67 168 608.32 167.32 609.86 167.04 610.62 166.74 611.04 166.36 611.34 165.58 611.04 164.18 611.17 163.29 611.47 162.51 612.11 162.03 613.21 161.86 614.87 162.13 617.13 162.85 618.74 163.39 620.36 163.8 621.64 163.87 623.17 163.12 624.48 162.54 627.46 162.23 629.93 162.26 630.95 162.47 632.06 162.71 633.42 165.47 635.71 169.42 636.18 170.31 637.08 171.61 637.93 172.73 638.61 173.55 639.76 174.64 642.35 176.96 643.59 177.71 645.67 178.97 655.71 184.42 655.84 184.49 660.05 186.77 667.45 190.69 673.11 193.97 674.21 194.61 675.45 195.47 676 195.91 676.85 196.73 677.53 197.58 682.04 203.34 686.59 209.75 692.68 218.51 672.61 227.82 673.03 230.31 673.33 232.19 674.39 232.02 673.88 227.79 693.06 218.95 694.38 220.83 730.11 271.32 740.49 285.98 743.98 290.86 745.8 293.42 746.87 294.85 748.99 298.63 749.67 300.1 752.57 306.47 758.82 320.01 764.6 332.59 768.51 341.05 790.24 388.17 796.75 402.14 797.85 404.63 798.36 406 798.66 406.85 799 408.32 799 409.34 798.92 410.02 797.39 435.42 796.03 435.25 794.54 435.32 793.47 435.86 792.67 436.72 791.94 437.91 791.05 439.1 790.12 439.41 789.1 439.75 788.2 439.85 787.18 439.65 785.87 439.21 784.63 438.35 783.57 437.3 782.76 436.14 781.83 435.05 781.23 433.55 780.68 432.59 780.13 431.64 778.89 430.27 777.7 429.18 776.68 428.5 775.75 428.33 775.07 428.57 774.94 428.98 774.81 429.42 774.86 430.34 774.86 431.33 775.45 432.83 776.26 434.02 777.36 435.18 778.6 436.45 779.79 437.95 780.51 439.72 780.51 441.66 780.64 444.08 780.47 445.82 780.26 446.91 779.41 446.06 778.9 445.41 778.34 444.8 777.62 444.12 776.81 443.64 775.88 442.82 774.77 441.73 773.75 440.98 772.73 440.74 771.75 440.71 771.33 441.08 771.24 441.56 770.95 442.58 770.61 443.84 770.01 444.49 769.42 444.49 768.99 444.05 768.82 443.64 768.4 442.86 768.01 442.11 767.67 441.53 766.99 440.74 766.1 439.79 764.61 438.59 763.85 437.81 762.49 437.03 761.21 436.72 759.55 436.65 758.28 436.92 757.34 437.57 756.92 438.56 756.62 439.68 756.11 440.16 755.43 440.06 754.67 439.51 753.82 438.9 752.63 438.25 751.22 437.71 749.86 437.61 748.5 437.71 747.44 437.81 746.76 437.33 745.95 436.92 745.14 436.24 744.17 435.36 743.31 434.67 742.59 434.26 741.4 433.86 739.57 433.48 738.21 433.34 736.39 433.17 734.01 433.34 731.88 433.45 730.14 433.86 729.71 433.96 728.48 434.81 727.76 435.66 726.65 436.93 725.59 438.56 724.27 440.23 723.29 441.6 722.57 442.93 722.06 444.26 721.17 445.59 720.19 446 719.6 445.93 719.39 445.69 719.39 445.14 719.43 444.56 718.96 443.88 718.79 443.47 718.96 442.79 718.96 442.18 718.79 441.56 718.41 440.68 717.94 440.1 717.13 439.25 716.45 438.53 715.43 437.88 714.75 437.54 714.16 437.71 714.03 438.02 713.99 438.43 714.33 439.07 714.75 439.89 715.13 440.92 714.88 442.04 714.67 442.93 714.24 443.88 714.03 444.77 714.11 446.03 713.22 447.16 712.5 447.39 711.56 447.6 711.18 448.01 710.59 448.45 710.08 448.28 709.78 447.84 709.57 447.22 709.31 446.37 708.93 445.32 708.16 444.43 707.14 444.02 705.78 443.54 704.12 443.24 702.13 443.07 700.17 443.1 697.88 443.24 696 442.73 693.84 442.15 692.05 441.81 690.01 441.67 688.57 441.74 687.33 442.39 686.19 443.24 685.17 444.12 683.98 444.36 683.42 444.77 682.83 445.63 682.02 446.68 681.6 446.75 681.04 446.14 680.96 445.86 680.79 445.39 681 444.74 681.43 443.82 681.64 442.76 681.47 441.98 680.91 441.57 680.06 441.16 678.83 440.31 677.77 440.1 676.41 440.41 675.18 440.55 674.5 440.17 674.2 439.63 673.82 439.01 674.07 437.89 674.45 436.73 675.17 435.91 676.45 434.99 677.21 434.82 678.4 434.95 680.15 435.26 682.32 435.74 685.29 435.64 687.5 435.06 688.95 434.44 690.65 433.66 691.33 432.84 690.9 432.29 689.97 431.85 688.9 431.44 687.46 431 685.2 430.45 682.48 429.7 681.21 429.06 679.55 427.76 677.59 425.92 675.51 424.76 674.19 424.08 672.24 423.84 670.58 424.22 669.77 424.73 669.31 425.51 668.71 425.78 668.11 425.78 666.88 425.58 664.33 425.04 661.7 424.11 660.38 423.06 659.82 422.31 659.23 420.84 658.97 419.58 658.72 417.64 658.46 415.86 658.21 414.88 657.31 413.55 656.59 412.63 655.19 411.33 654.59 410.58 654.29 409.59 653.95 408.4 653.74 406.83 654.04 406.11 654.59 405.57 655.74 404.65 656.29 404.44 657.06 404.34 658.29 404.2 659.56 404.07 660.63 403.42 661.09 402.4 661.31 401.27 661.18 398.85 661.47 398.1 662.28 397.45 663.52 396.6 663.98 396.53 665.13 396.77 667.43 397.25 669.13 397.45 670.66 397.93 671.38 398.61 671.85 399.29 672.57 400.55 673.12 401.95 673.72 403.11 674.19 403.72 675.12 404.27 676.23 404.78 678.1 405.22 680.14 405.56 680.73 405.29 681.2 404.61 681.71 403.89 682.31 403.38 683.07 403.24 684.47 403.14 686.52 403.45 687.96 403.41 689.45 403.45 690.26 403.55 691.41 404.3 692.08 405.22 692.89 406.21 693.91 407.2 695.27 408.39 696.55 408.94 698.38 409.17 701.44 409.21 701.74 408.77 701.57 408.05 701.27 407.37 700.84 406.48 699.91 405.39 698.76 403.96 697.44 402.36 696.67 401.03 695.36 399.12 694.59 397.82 693.87 396.36 693.7 395.47 694.21 394.14 694.67 392.64 695.14 390.63 695.61 389.06 695.65 388 694.76 387.01 693.74 386.54 692.38 386.3 689.27 385.75 688.42 385.48 686.72 384.93 685.49 384.49 684.85 383.91 683.7 383.33 681.49 382.65 679.58 382.31 678.14 381.73 676.69 380.98 675.71 380.47 675.07 379.89 674.73 379 674.44 378.36 674.18 378.15 673.54 377.78 672.9 377.4 671.93 376.99 671.03 376.82 669.25 376.52 668.14 376.41 666.95 376.38 666.02 376.62 664.74 377.57 664.06 378.73 663.85 379.48 664.15 380.44 664.57 381.73 665 383.27 664.28 384.6 663.09 385.01 661.05 385.31 659.6 385.79 658.2 386.68 656.63 387.6 654.37 388.18 651.69 388.59 650.33 388.35 649.4 387.84 648.12 386.92 647.31 385.93 646.89 385.38 646.55 385.32 646.38 385.42 646.25 385.69 646.25 385.93 646.51 386.37 647.02 387.02 647.61 388.15 648.38 389.41 648.89 390.67 649.14 392.24 648.93 393.81 648.38 395.48 647.66 397.25 647.4 399.36 647.36 401.41 647.92 402.94 648.09 404.17 647.66 405.36 647.36 406.63 647.32 408.02 647.19 409.25 647.07 410.99 647.92 413.1 648.81 414.3 648.6 415.15 647.88 416.45 646.94 417.57 646.26 418.36 645.67 418.76 644.6 418.73 643.54 418.46 642.18 418.02 640.4 417.47 638.91 417.2 636.74 416.93 634.4 416.93 631.55 417.2 629.56 417.61 628.71 418.26 628.37 419.42 628.03 421.16 627.56 422.89 626.75 423.61 625.65 423.82 622.88 423.3 619.36 422.69 618.21 422.32 617.31 421.02 615.7 419.49 614.29 418.5 612.51 417.85 610.85 417.72 609.07 417.78 607.07 418.23 605.75 419.05 605.28 419.93 605.33 420.75 605.5 422.32 605.37 423.82 604.86 424.71 604.14 426.24 604.05 427.06 604.31 428.05 604.95 428.87 605.63 430.09 606.31 431.56 607.24 433.3 607.33 434.25 607.42 435.07 607.54 435.96 607.8 436.98 607.84 438.34 607.93 439.74 608.18 440.66 608.78 441.38 609.25 442.44 609.42 443.25 609.29 443.94 608.52 444.38 607.85 444.79 607.46 445.47 606.7 445.71 605.85 445.88 605 446.02 604.15 446.29 603.25 446.73 601.94 447.52 600.7 448.3 600.15 448.92 599.64 449.67 598.88 450.52 598.03 451 597.56 451.58 597.52 452.26 597.52 453.11 597.35 453.55 596.71 453.32 596.29 452.8 596.03 452.02 595.48 451.3 594.93 450.9 594.63 450.08 594.5 449.05 594.07 448.17 593.61 447.96 592.84 447.9 591.82 448 590.29 448.37 588.63 448.85 587.15 449.36 586.72 449.33 586.38 449.06 586.21 448.41 586.29 447.93 586.12 447.22 585.53 446.64 584.76 446.19 583.28 445.85 581.58 445.89 580.34 445.61 578.81 444.97 578.39 444.29 578.17 443.5 577.66 442.55 577.11 441.63 576.09 441.05 574.39 440.77 573.24 441.22 571.71 441.97 571.07 442.62 569.93 443.91 568.01 444.49 566.48 444.49 565 444.53 564.4 444.84 564.15 445.18 563.76 445.79 563.34 447.46 562.92 449.37 562.32 450.8 561.9 451.14 561.39 450.87 560.75 450.33 560.07 449.68 559.22 448.79 558.58 448.21 557.52 447.7 555.77 446.88 553.65 446.17 551.27 445.52 549.35 445.22 548.21 445.25 546.89 445.49 545.19 446.14 544 446.41 542.38 446.48 540.9 446.38 538.94 446.41 537.11 446.86 535.63 447.44 534.48 448.36 533.25 449.28 531.67 449.52 530.87 449.25 530.53 448.63 530.01 447.71 529.55 447.06 528.91 445.87 528.02 445.02 526.82 444.03 525.76 443.04 525.04 441.81 525.12 441.13 525.55 440.52 526.01 439.84 526.48 438.95 526.99 437.79 527.37 436.53 527.71 435.16 527.84 433.77 528.05 432.4 528.3 430.87 528.9 429.64 529.15 428.38 529.07 427.46 528.6 426.64 527.71 425.86 526.39 425.07 524.64 424.19 523.54 423.78 521.67 423.4 519.42 422.86 516.86 422.66 514.53 422.69 512.44 422.66 510.32 422.42 507.89 422.22 506.49 421.67 505.26 420.65 504.45 419.9 503.6 418.67 502.92 417.82 502.19 416.56 501.47 415.84 500.75 415.06 500.07 413.86 499.13 412.94 498.36 412.47 497.6 412.3 497.01 412.26 495.86 412.33 494.71 412.47 493.6 412.81 492.16 413.19 491.69 413.46 491.48 414.24 491.31 415.4 491.1 416.15 490.93 416.9 491.06 417.69 491.82 418.23 493.06 418.78 494.37 419.29 495.18 419.97 495.74 420.45 496.03 420.96 496.33 421.84 496.5 423.21 496.84 424.44 496.84 425.77 496.55 427.03 496.46 428.19 496.46 429.11 497.14 430.57 498.12 431.63 499.44 432.31 500.5 432.62 501.61 432.58 502.12 432.62 502.67 432.89 502.84 433.2 502.76 434.01 502.67 435.24 502.59 436.33 502.85 437.6 503.14 438.75 503.7 440.19 504.55 441.69 505.02 442.47 505.44 443.32 505.66 443.77 505.74 444.55 505.44 445.88 505.06 447.31 504.68 448.74 504.47 450.04 504.47 450.93 504.94 453.18 506.17 455.36 507.24 456.76 508.55 458.12 509.7 458.83 511.53 459.69 513.74 459.92 514.85 459.92 517.23 459.17 518.42 458.42 519.56 457.98 521.35 457.47 523.77 456.2 524.79 455.28 526.41 454.22 527.47 453.3 528.28 452.83 529.08 452.55 529.55 452.62 530.02 453.85 531.29 455.55 532.27 456.47 533.21 457.7 534.61 459.1 535.72 459.78 536.82 460.5 537.38 460.67 537.84 461.01 537.84 461.38 537.63 462.1 537.8 463.15 538.23 463.63 538.61 464.14 538.74 464.86 538.78 465.27 538.87 465.88 538.61 466.5 538.19 467.28 538.15 467.93 538.19 468.57 538.19 469.05 537.51 469.12 536.57 468.81 535.51 469.02 533.98 469.8 532.71 470.42 531.81 470.93 531.05 471.61 530.84 472.29 530.96 473.35 531.56 474.34 531.94 475.09 532.71 476.32 533.09 477.24 533.77 478.7 534.41 480 534.88 481.23 536.03 482.42 537.26 483.58 538.03 484.26 538.41 484.67 538.54 485.04 538.48 485.09 538.33 485.25 537.39 485.01 536.33 484.81 534.71 484.87 533.1 485.15 531.57 485.25 530.42 485.39 528.72 485.97 527.15 486.89 525.92 487.47 524.6 487.84 522.73 488.46 522.01 488.32 521.07 487.06 519.71 485.97 518.22 485.19 516.99 484.68 515.67 484.47 513.97 484.54 512.48 484.64 511.25 484.85 510.4 485.29 509.34 485.57 508.27 485.5 507.47 485.06 507.08 484.95 506.7 484.99 506.53 485.57 506.75 486.62 507.04 487.51 507.21 488.23 507.26 489.59 507.3 490.65 507.47 491.98 507.98 493.1 508.92 493.92 509.9 494.67 511.13 495.52 511.77 496.1 512.07 496.71 512.15 497.63 512.15 497.7 511.56 498.73 511.17 499.51 511.09 500.47 510.92 501.56 510.33 502.58 509.01 503.5 508.03 504.15 506.8 504.56 505.78 505 504.21 505.68 502.17 505.82 499.32 505.35 498.09 504.6 496.26 503.23 493.41 501.8 491.11 500.75 488.05 499.59 485.93 499.11 484.52 498.7 481.97 497.92 481.34 497.65 480.19 497.14 479.34 496.45 477.93 495.57 476.28 494.72 475.09 493.83 473.3 492.74 473.13 492.71 472.53 492.78 472.45 492.81 472.28 492.91 472.02 493.29 471.64 494.31 471.56 495.5 471.64 496.8 471.77 497.65 471.77 497.72 472.03 498.64 472.79 500.24 473.65 501.91 474.37 503.62 474.92 504.88 475.31 505.8 475.69 506.69 476.33 508.22 476.75 509.79 476.97 510.98 477.14 511.94 477.65 513.27 478.5 514.66 478.93 515.28 479.78 516.37 480.16 517.22 480.59 518.24 481.22 518.92 482.5 520.22 483.18 521.04 483.78 522.23 484.07 523.42 484.16 524.55 484.25 525.5 484.42 526.25 484.88 526.83 485.44 527.24 486.24 527.41 487.35 526.83 488.33 526.25 489.3 525.64 490.41 525.33 493 525.4 496.49 525.23 499.59 525.02 501.97 524.95 504.43 524.91 507.96 525.22 510.21 525.42 514 525.7 516.21 525.9 517.82 525.86 519.14 526 520.03 525.97 521.01 525.73 521.48 525.08 521.94 524.57 522.11 524.16 522.28 523.95 522.54 523.68 522.67 523.48 522.84 523.37 523.01 523.41 523.17 524.09 523.47 524.77 523.9 525.42 524.32 526 524.75 526.27 525.39 526.37 526.11 526.17 526.75 525.96 527.04 525.76 527.47 525.11 527.68 524.39 527.85 524.02 528.06 523.58 528.36 523.17 528.53 523.06 528.91 523.13 529.08 523.71 529.21 524.46 529.51 525.11 530.23 525.89 531.38 526.71 532.49 526.88 534.82 527.43 537.25 527.7 538.86 527.9 539.67 528.14 540.18 528.28 540.52 528.99 541.16 529.88 541.62 530.36 542.39 530.94 542.77 531.52 542.73 532.37 543.03 533.08 543.28 533.76 543.37 534.65 543.24 535.37 543.07 536.63 542.52 537.86 542.22 538.81 541.84 540.01 541.38 541.03 540.95 541.98 540.53 542.87 540.06 543.42 539.42 544.03 538.95 544.54 538.45 545.05 538.28 545.39 538.28 545.6 538.4 545.67 539.85 545.67 541.51 545.12 542.82 544.68 543.8 544.3 544.78 544.23 545.71 544.37 546.27 544.61 546.69 544.88 546.73 545.29 546.44 545.94 546.22 546.86 546.48 547.61 546.65 547.98 546.78 548.66 546.48 549.31 545.89 550.03 545.55 550.71 545.21 551.6 544.83 552.59 544.78 553.17 544.4 553.85 543.98 554.6 543.17 555.42 542.45 556 541.68 556.54 541 557.26 540.24 557.97 539.73 558.93 539.43 560.02 539.35 560.74 539.48 561.96 539.82 563.12 540.58 564.79 541.18 566.02 541.39 566.5 541.52 567.21 541.05 568.1 540.46 568.89 540.16 569.6 539.95 570.52 539.99 571.31 540.5 572.84 541.35 574.2 542.5 575.16 543.82 576.04 544.29 576.73 544.37 577.31 544.24 578.12 543.86 579.04 543.61 580.14 543.35 581.16 543.31 582.11 543.69 582.73 543.52 583.58 543.1 584.3 542.76 585.01 542.8 585.56 543.19 586.07 543.91 586.44 544.97 587.23 543.87 587.6 541.32 588.29 539.53 588.93 538.26 589.79 537.49 590.4 533.12 591.87 529.89 592.72 527.17 593.64 525.09 594.43 523.69 594.94 523.26 595.32 522.92 595.9 522.46 597.33 521.69 599.61 521.23 601.18 520.93 602.68 520.72 603.26 519.74 604.73 518.93 605.82 518.38 606.71 518.26 607.73 518.47 608.41 519.19 609.26 521.15 610.11 523.31 610.8 525.44 611.07 527.65 610.96 529.26 610.59 530.67 610.01 532.19 609.67 533.77 609.6 535.04 609.87 535.21 610.35 533.81 611.13 532.37 611.88 531.56 612.46 530.16 613.15 529.01 613.79 528.03 614.41 527.65 615.3 527.52 616.08 527.23 616.69 526.46 616.73 524.34 616.97 522.34 617.38 520.64 617.82 518.6 618.2 516.9 618.61 515.97 618.95 515.08 619.56 514.18 620.59 513.76 621.54 513.85 622.29 513.89 623.93 514.48 625.02 514.91 625.87 516.36 627.03 517.93 627.91 519.63 628.77 520.69 629.07 521.33 629.31 521.71 629.52 522.05 629.92 520.82 630.33 519.25 630.68 517.68 630.91 515.81 630.34 514.19 629.79 513 629.69 512.11 628.77 510.75 627.99 509.05 627.47 507.56 627.3 506.97 627.1 506.96 625.7 506.79 624.82 505.65 623.38 503.86 622.26 502.5 621.75 501.61 620.86 500.54 620.35 499.48 620.01 498.8 619.5 497.44 618.85 496.63 617.9 495.15 616.13 494.04 615.17 492.98 614.59 492.47 614.08 491.36 612.72 490.68 611.93 488.56 610.57 486.09 609.48 484.64 609.21 483.45 608.97 482.48 609.04 481.58 609.35 480.23 610.1 479.12 610.92 477.98 611.94 477.25 612.89 477.08 613.95 476.83 615.38 476.45 616.92 476.32 618.11 476.37 619.61 476.54 621.11 476.03 623.16 475.82 624.8 475.78 626.02 475.44 627.83 475.39 628.68 475.31 629.91 475.57 631.17 476.67 632.53 477.48 633.32 477.99 634.38 478.5 635.19 479.14 636.25 479.9 637.14 480.76 637.95 481.35 638.5 481.52 638.87 480.8 639.22 480.08 639.42 478.59 639.08 477.4 639.01 476 638.77 474.55 638.5 473.53 638.33 472.55 638.44 471.41 638.84 470.35 639.73 469.71 640.45 469.07 641.4 468.44 642.63 468.1 643.69 468.06 644.81 467.84 645.56 467.5 646.38 467.21 647.1 467.17 647.68 467.08 648.33 467.29 649.04 467.42 649.52 467.51 649.89 467.3 650.17 467.04 650.37 466.66 650.37 465.64 650.1 464.66 650.13 463.77 650.24 463.3 650.31 463 650.48 462.89 650.79 462.54 651.23 462.37 651.7 462.11 652 461.78 652.85 461.67 653.28 461.24 654.34 461.03 654.62 459.75 655.9 458.47 657.07 458.33 657.73 458.35 658.18 459.04 658.74 459.2 658.83 459.57 658.91 459.78 659.04 460.31 659.17 460.52 659.3 460.97 659.52 461.69 659.99 461.63 661.14 461.73 661.87 461.83 662.08 462.05 662.34 464.05 663.97 464.05 664.1 463.84 664.27 462.94 664.35 461.21 664.24 460.02 664.09 459.14 663.85 458.64 663.78 457.74 663.87 457.26 664.25 457.04 664.46 456.93 665.36 457.01 665.55 457.19 666.3 457.56 667.16 457.77 667.41 457.87 667.71 458.5 669.21 459.05 670.39 459.31 671.59 459.67 673.04 459.86 673.92 460.01 674.13 461.39 675.25 461.97 675.38 462.69 675.77 462.98 675.98 463.03 676.28 463.03 676.54 461.96 677.43 461.9 677.6 461.77 677.84 461.74 678.24 461.88 679.01 462.79 679.79 462.95 679.87 463.7 679.96 466.19 680.1 466.46 680.18 466.72 680.44 466.4 680.7 465.65 680.95 464.54 681.29 463.98 681.59 462.4 682.84 462.3 682.95 462.19 683.25 461.92 683.54 461.76 683.93 461.65 684.87 461.75 686.54 461.85 686.84 463.22 688 463.59 688.25 463.75 688.25 464.18 688.55 463.96 688.94 463.27 689.58 463 690.09 462.84 690.6 462.89 691.24 462.97 691.44 463.04 691.8 463.72 693.34 463.99 693.6 464.33 694.48 464.35 694.71 464.14 694.84 462.76 694.58 462.12 694.49 461.11 695.3 460.98 695.79 461.15 698.12 460.88 698.46 460.13 700.34 459.91 701.88 459.11 702.43 457.35 703.84 456.78 704.45 456.7 704.65 456.54 705.71 457.54 706.53 457.91 706.75 458.65 707.09 459.21 707.39 459.61 707.73 459.34 707.9 459.05 707.92 458.12 708.24 457.69 708.41 457.48 708.54 456.84 708.58 455.46 708.53 454.66 709.17 454.55 709.73 454.28 709.98 454.1 709.96 453.91 709.9 453.28 709.77 453.06 709.64 452.64 709.55 452.43 709.42 452.16 709.38 451.95 709.25 451.32 709.03 450.23 708.92 449.46 708.98 449.08 709.2 448.23 709.9 447.91 710.3 447.59 710.86 447.45 711.48 447.37 711.67 447.05 712.27 446.57 713.33 446.14 713.7 445.66 714.17 445.5 714.36 445.44 714.53 445.54 715.98 445.28 716.19 444.32 716.19 443.2 716.27 442.78 716.36 441.93 716.87 441.07 717.59 440.96 717.93 440.96 718.06 441.01 718.79 441.17 719.09 441.64 719.65 443.12 720.95 443.39 721.28 443.44 721.45 443.23 721.62 442.72 721.55 440.63 721.01 438.24 720.75 437.5 720.4 437.18 720.19 436.44 719.97 435.64 720.1 435.32 720.22 434.95 720.44 434.08 721.17 434.03 721.28 434.09 721.89 435.31 722.87 436.68 723.65 437 723.95 436.74 724.12 435.62 724.2 435.22 724.31 434.77 724.37 434.32 724.47 432.3 724.77 430.52 724.87 429.77 725.04 429.61 725.16 429.24 725.25 428.84 725.46 428.02 726.1 427.43 726.65 426.78 728.27 426.57 729.13 426.24 729.85 426.03 730.11 426.03 730.24 425.65 730.62 425.01 731.35 424.83 731.75 424.72 732.14 424.61 733.12 424.82 734.22 424.99 735.37 425.2 735.58 425.3 736.31 425.29 737.97 425.13 738.79 424.65 739.25 423.96 740.02 423.85 740.15 423.74 740.41 423.21 740.96 422.89 741.17 422.57 741.21 422.3 741.34 422.14 741.47 421.4 741.85 420.97 742.11 420.83 742.14 419.79 742.49 419.66 742.51 419.33 742.65 419.12 742.78 418.93 742.8 417.36 743.39 416.62 743.59 416.41 743.71 416.19 743.76 415.93 743.93 414.65 744.96 414.44 745.81 414.7 746.11 414.81 746.37 414.81 746.58 414.54 746.8 413.8 746.97 413.59 747.1 413.16 747.18 412.26 747.91 412.05 748.12 411.89 748.59 411.86 748.78 411.62 749.32 411.3 751.42 411.14 751.59 410.98 752.23 410.82 752.44 410.55 752.62 410.23 752.87 409.6 753 409.38 752.74 409.28 752.49 409.33 752.1 409.23 746.79 408.97 746.11 408.77 745.73 408.49 745.38 407.22 744.5 406.58 744.18 406.16 744.09 405.79 743.88 404.94 743.66 404.25 743.45 403.82 743.23 401.81 743.06 396.1 742.65 394.53 742.37 392.31 742.05 391.67 741.81 391.35 741.77 390.53 741.21 389.18 740.35 388.43 739.92 387.32 739.32 387 739.24 386.31 738.89 385.55 738.78 383.39 738.53 383.07 738.42 382.91 738.29 382.44 738.16 382.22 738.04 381.69 737.91 380.84 737.52 380.47 737.43 379.41 736.92 379.04 736.83 378.88 736.75 378.4 736.58 378.19 736.53 377.55 736.11 376.71 735.42 374.96 733.88 374.8 733.66 373.95 732.89 373.79 732.72 373.07 731.86 372.92 731.64 372.23 731.09 372.04 730.96 370.5 730.11 369.44 729.46 368.54 729.01 368.19 728.86 368.06 728.78 367.05 728.69 366.31 728.9 365.3 729.72 364.53 730.5 363.73 731.26 363.49 731.43 363.07 731.47 362.38 730.91 362.27 730.78 362.11 729.8 361.85 727.27 361.64 726.76 360.79 726.25 360.53 726.2 360.21 725.99 359.52 725.82 359.31 725.69 358.38 725.22 357.87 724.87 356.12 723.46 354.48 722 354.37 721.87 354.27 721.66 353.69 721.19 353.21 720.57 352.31 719.73 351.86 719.22 351.61 718.87 351.58 718.8 350.56 717.93 347.35 715.49 346.34 714.81 345.57 714.31 343.61 713.35 342.39 712.79 341.91 712.66 341.7 712.53 340.96 712.4 340.21 712.19 339.9 712.06 338.89 711.93 338.73 711.85 338.49 711.78 336.28 711.54 335.86 711.41 334.96 710.69 335.49 710.26 335.81 710.15 337.99 710.22 338.68 710.18 339.47 710.22 339.63 710.32 340.75 710.65 341.33 710.73 342.76 711.04 342.98 711.04 344.36 711.16 344.73 711.34 345.26 711.42 345.52 711.38 346.24 711.94 346.9 712.28 347.94 713.01 353.37 717.25 354.17 717.9 358.6 721.49 358.86 721.66 359.05 721.75 359.79 722.22 359.95 722.22 360.11 722.32 361.44 722.69 364.36 722.95 366 722.95 368.36 724.67 369.29 725.18 369.74 725.48 369.98 725.61 370.99 726.34 372.21 727.15 372.47 727.2 372.63 727.29 373.59 727.58 374.44 727.67 375.07 727.8 375.55 728.1 375.71 728.25 375.87 728.44 375.97 728.87 376.19 729.08 377.54 730.15 377.78 730.28 378.68 730.54 379.56 730.65 380.06 730.76 380.22 730.85 380.91 731.06 381.07 731.18 381.49 731.33 383.14 731.49 384.04 731.44 384.46 731.53 385.68 732.47 386.43 732.52 387.54 732.47 388.23 732.52 388.66 732.6 388.82 732.73 389.29 732.86 389.51 732.99 389.88 733.08 390.41 733.38 390.78 733.46 391.15 733.68 392.53 734.1 394.81 734.75 396.14 735.35 396.83 735.69 398.79 737.15 400.01 737.54 400.7 737.62 401.13 737.71 401.42 737.73 403.65 737.65 404.15 737.5 404.63 737.41 404.95 737.2 405.22 737.11 405.88 737.05 407.45 737.24 407.71 737.24 408.75 737.09 408.99 737.03 409.46 736.94 410.21 736.47 411.01 735.7 411.06 735.49 411.33 735.19 412.02 734.68 412.28 734.68 412.52 734.51 412.76 734.38 413.72 733.52 413.72 733.39 413.98 733.14 414.89 731.3 415.37 730.23 416.22 728.22 416.36 727.21 416.7 726.42 417.29 725.78 417.45 725.43 417.71 725.13 418.46 723.38 418.86 721.73 419.02 720.49 418.95 718.41 418.63 717.04 419.11 716.66 419.27 716.66 419.43 716.75 420.4 716.87 420.83 716.67 421.12 716.48 421.7 715.95 421.81 715.65 422.4 715.05 423.39 713.81 423.63 713.47 424.06 712.36 424.43 711.94 424.97 711.17 425.02 710.91 425.18 710.74 425.25 710.65 425.28 710.54 425.45 710.32 425.8 709.44 425.97 708.63 426.31 706.53 426.47 705.97 426.65 705.75 427.19 704.38 427.35 704.21 427.51 703.78 427.75 703.29 427.64 702.13 427.47 701.94 426.72 701.47 425.88 701.25 425.37 701.06 424.9 701 424.55 700.95 424.13 700.61 423.92 699.67 423.66 699.41 423.55 699.26 422.76 698.42 422.97 698.21 423.29 698.3 423.77 698.55 424.67 698.77 426.15 699.08 428.28 699.42 430.93 699.65 431.57 699.09 431.79 698.45 431.87 698.3 432.06 697.43 432.57 696.17 432.79 695.04 432.95 694.67 433.09 693.88 433.29 693.51 433.94 692.94 434.47 692.6 434.9 692.11 435.17 691.88 435.33 691.45 435.49 691.11 435.65 690.94 436.13 690.32 436.77 689.71 437.42 688.94 437.6 688.4 437.51 686.09 437.26 684.3 437.16 683.19 437.32 682.33 437.35 682.01 437.25 681.5 436.82 681.16 436.24 680.81 435.02 680.55 432.95 679.99 432.69 679.82 432.32 679.73 431.58 679.13 432.06 678.75 432.64 678.45 433.02 678.36 433.28 678.28 433.5 678.15 436.69 677.35 437.32 676.97 438.18 676.2 438.39 675.9 438.65 675.17 438.59 674.09 438.51 673.72 438.25 672.95 438.41 672.61 438.63 672.4 438.73 672.01 439.08 671.18 439.33 669.83 439.44 668.85 439.36 665.13 439.15 664.53 438.62 664.02 438.3 663.63 438.25 663.5 438.36 663.25 438.68 662.86 438.9 662.1 439.06 660.86 439.07 660.39 438.97 657.99 438.9 657.8 438.82 657.44 438.14 655.89 438.56 655.55 439.2 655.43 439.84 654.92 440 654.83 440.27 654.53 440.49 653.59 440.65 653.38 440.65 652.95 440.55 652.4 440.18 652.01 439.94 651.7 439.17 650.94 439.12 650.79 437.85 650.28 437.13 650.18 436.87 650.15 436.4 649.87 436.15 649.57 436.36 649.19 436.79 648.82 437.47 648.48 438.19 648.1 439.33 647.35 439.93 646.8 440.31 645.88 440.44 645.17 440.23 644.86 439.59 644.76 438.74 644.69 437.55 644.62 436.06 644.56 434.32 644.63 432.32 644.63 430.83 644.52 429.52 644.36 429.09 644.18 429.18 643.71 429.77 643.26 430.28 642.96 431 642.51 431.85 641.97 432.53 641.32 433.08 640.77 433.51 640.12 433.34 639.48 433 639.17 432.36 638.69 431.47 638.32 430.28 637.77 429.98 637.5 429.81 636.99 429.38 636.31 428.49 635.56 427.89 635.18 426.79 634.64 425.51 634.37 423.98 634.13 423.3 633.89 422.75 633.41 422.11 632.66 421.82 632.02 422.11 631.95 422.67 632.05 423.56 632.22 424.41 632.15 425.04 631.88 426.53 631.74 427.72 631.6 428.4 631.5 429 631.74 429.72 632.15 430.61 632.83 431.76 633.48 433.29 634.09 434.69 634.43 435.46 634.74 436.95 635.11 437.75 635.31 438.48 635.72 439.67 636.51 441.62 637.39 442.43 637.22 442.94 636.78 443.15 635.82 443.7 634.66 443.96 634.49 444.76 634.15 445.78 633.78 446.12 633.47 446.25 632.89 446.59 632.24 447.01 631.36 447.44 630.61 448.12 629.62 448.58 628.8 448.71 628.18 448.03 627.57 447.14 626.99 446.54 626.58 446.84 626.21 447.48 626.17 448.41 626.14 449.73 625.93 450.58 625.49 451.47 624.84 451.94 623.72 452.36 622.93 452.91 622.38 453.51 621.5 453.89 620.48 453.63 619.93 453.33 619.66 452.61 619.11 452.4 618.7 452.7 618.12 453.25 617.71 454.1 616.96 454.86 616.18 455.54 615.29 455.75 614.47 455.67 613.76 455.5 613.14 454.77 612.46 454.31 612.12 453.37 611.71 452.39 611.61 451.16 611.61 450.23 611.85 448.48 612.12 447.08 612.33 446.49 612.33 446.45 612.13 446.49 611.92 446.66 611.72 447.08 611.31 447.51 610.76 447.89 610.15 447.85 609.64 447.55 609.02 447.25 608.71 446.31 608.1 445.17 607.63 443.98 607.42 442.91 607.15 442.66 606.84 443 606.47 443.68 606.43 444.49 606.33 445.89 606.23 447.03 606.09 448.31 606.12 450.1 605.95 451.75 606.05 453.11 605.81 453.75 605.23 453.83 604.48 453.54 603.97 452.81 603.22 452.43 602.44 451.45 601.65 450.69 601.45 449.71 601.21 448.48 601.32 446.82 601.38 445.12 601.28 443.25 600.94 442.44 600.6 442.48 600.36 442.61 600.06 442.91 599.72 443.46 599.24 444.52 598.73 445.58 598.01 446.26 597.33 446.52 596.82 446.48 596.41 446.09 596.1 445.28 595.52 444.56 595.21 443.29 594.57 441.76 594.16 441.25 593.85 440.95 593.41 440.69 592.49 440.61 591.77 440.73 591.53 441.29 591.43 442.01 591.5 442.69 591.57 443.92 591.63 445.2 591.7 446.98 591.84 448.38 591.9 448.85 591.7 448.89 591.26 448.6 590.81 448.17 590.34 448 589.76 448.21 589.25 448.59 588.87 449.23 588.32 450.04 587.47 450.55 586.96 450.89 586.58 451.48 586.11 451.69 585.73 451.57 585.32 451.01 584.98 450.67 584.78 449.53 584.68 448.34 584.74 446.89 584.95 445.62 585.29 444.68 585.05 443.87 584.92 442.85 584.92 442 584.99 440.81 585.26 439.58 585.64 439.07 585.4 438.65 585.19 437.75 584.95 437.67 584.82 437.97 584.61 438.52 584.34 438.94 583.97 439.45 583.38 440.05 582.63 440.17 581.92 440.13 581.51 439.79 581 439.45 580.56 439.54 580.11 439.49 579.67 439.41 579.09 438.98 578.75 438.34 578.48 437.88 578.31 436.86 578.27 435.88 578.17 434.6 578.07 433.88 578 434.05 577.73 434.48 577.39 435.16 576.81 435.75 576.23 436.47 575.58 437.41 575.14 438.13 574.56 438.81 574.28 439.4 574.25 440.34 574.01 441.06 573.91 442.08 573.73 443.1 573.29 443.99 572.85 444.76 572.4 445.52 571.69 446.29 571.11 447.18 570.83 447.98 570.66 448.75 570.73 449.56 570.73 450.32 570.53 450.92 570.18 451.34 569.71 451.64 569.16 451.72 568.55 451.55 567.97 451.34 567.35 451.04 567.18 450.36 566.84 449.34 566.57 448.28 566.44 447.39 566.03 446.49 565.92 446.03 566.16 445.3 566.33 444.62 566.33 444.16 566.1 443.69 565.79 443.22 565.35 442.75 564.94 442.33 564.7 441.61 564.63 441.01 564.67 440.42 564.94 439.31 565.28 438.5 565.72 437.7 566.03 436.93 566.24 436.55 566.2 436.38 566.07 436.25 565.93 436.34 565.66 436.42 565.38 436.38 565.04 436.51 564.7 436.59 564.33 436.63 563.82 436.63 563.2 436.38 562.08 436.25 561.43 436.38 560.98 436.76 560.34 437.14 559.72 437.31 559.45 437.27 559.04 436.93 558.67 436.46 558.46 435.82 558.19 434.89 557.88 434.46 557.51 434.12 557 433.86 556.28 434.29 555.73 434.25 555.19 433.91 554.88 433.48 554.58 432.67 554.61 431.44 554.82 430.76 554.99 429.7 555.12 428.93 554.95 428.04 554.85 426.81 554.82 425.28 554.82 424.64 555.06 424.34 555.3 424.22 555.64 424.17 556.15 424.47 557.41 425.03 558.5 425.45 559.66 425.67 560.27 425.37 560.51 424.99 560.51 424.26 560.17 422.77 559.22 420.83 558.18 419.81 557.64 419.34 557.43 418.74 557.12 418.02 556.92 416.66 556.85 415.13 556.85 413.13 557.22 411.69 557.6 410.92 557.6 409.9 557.46 408.76 557.22 407.06 557.29 406.55 557.15 405.27 556.88 403.53 556.57 401.23 556.53 399.32 556.87 398.56 556.84 398.52 556.12 398.35 555.61 397.96 555.17 397.47 554.91 397.37 554.86 396.9 554.49 397.12 553.97 397.67 553.43 398.22 552.37 398.56 551.96 398.71 551.96 399.28 551.96 400.47 551.9 402.26 551.62 404.34 551.32 405.96 550.67 407.27 549.72 408.3 549.21 410.55 548.56 412.72 548.02 413.44 547.4 414.38 546.55 414.55 545.8 414.21 545.29 413.65 544.74 412.8 544.1 411.57 543.28 410.04 542.25 409.53 541.91 409.62 541.54 410.13 541.26 411.45 540.89 412.64 540.41 413.49 539.7 414 538.81 414.38 537.75 414.17 536.53 413.32 535.54 412.6 535.09 411.62 534.45 411.54 534.07 411.54 533.12 411.33 532.13 410.94 531.48 409.92 530.83 409.16 530.42 407.33 529.81 405.17 529.4 404.06 529.16 402.23 529.26 400.96 529.73 399.34 530.21 397.64 530.41 397.39 530.18 397.73 529.73 398.28 529.32 399.3 528.23 400.15 527.11 400.54 526.29 400.96 525.98 402.02 525.37 403.13 524.76 403.68 524.28 404.49 523.39 404.87 522.17 404.75 521.66 404.24 520.87 404.28 520.5 404.58 519.98 404.88 519.17 405.3 518.62 405.43 517.7 405.09 516.78 404.28 516.06 403.43 515.65 402.2 515.58 401.73 515.21 401.78 514.87 402.03 514.49 402.33 514.02 402.97 513.13 403.56 511.97 404.03 510.81 403.82 509.72 403.44 509.24 402.67 508.66 401.27 507.88 399.57 506.99 399.53 506.28 399.49 505.83 399.36 504.74 399.19 503.38 398.77 502.46 398.13 501.84 397.45 501.43 396.9 501.3 396.13 501.09 395.24 500.75 394.18 500.27 393.46 500.03 392.69 500.17 392.1 500.54 391.63 501.05 390.74 501.53 389.21 502.14 388.02 502.86 387.63 503.68 387.08 504.6 387.42 505.52 388.05 506.24 388.78 506.82 388.73 506.99 388.27 507.29 387.5 507.77 386.69 508.52 385.8 509.34 385.8 509.95 385.37 510.05 383.93 510.05 382.95 510.29 382.06 510.77 381.63 511.31 381.29 511.89 380.83 511.89 380.1 511.72 379.25 511.69 378.66 511.82 378.23 512.06 377.89 512.4 377.55 512.98 377.21 512.95 377.04 512.54 376.98 512.31 376.96 512.23 376.87 511.58 376.75 510.76 376.49 510.22 375.94 509.95 375.22 509.74 374.15 509.71 372.62 509.77 370.88 510.01 369.01 510.59 367.78 511.37 367.05 512.19 366.2 512.7 365.1 512.77 364.8 512.43 364.76 512.05 365.18 511.48 365.95 510.86 366.8 509.94 367.06 509.4 367.27 508.95 368.25 508.65 369.99 508.03 371.82 507.22 374.07 506.23 376.32 504.83 378.15 503.54 379.47 502.17 379.56 499.96 378.84 497.77 377.95 496.24 377.99 494.13 377.1 492.42 376.25 491.74 375.06 490.99 373.87 490.92 372.47 490.75 371.28 490.65 370.9 490.06 370.43 489.42 369.37 488.84 368.09 488.67 366.56 488.73 365.63 488.73 365.5 488.19 365.37 487.2 365.24 486.41 364.91 485.46 364.31 484.95 363.5 484.81 362.82 484.91 362.14 485.25 361.21 485.83 360.06 486.58 359.34 486.72 359 486.34 358.74 485.7 358.61 484.77 358.7 484.02 358.79 482.56 358.83 481.6 358.96 480.31 358.7 479.59 358.15 478.64 357.68 478.3 356.66 477.89 354.96 477.31 353.01 477.03 351.35 477.34 349.82 477.95 349.27 477.51 349.44 477.06 349.65 476.38 350.25 475.19 351.23 474 352.55 471.95 354.25 469.84 354.8 468.71 354.33 468.27 353.14 467.86 352.29 467.66 351.66 467.07 351.02 466.32 348.98 465.78 347.41 465.78 346.22 466.32 344.9 466.87 344.22 466.77 342.94 466.53 341.37 466.49 339.92 466.73 339.46 466.59 339.46 466.18 339.71 465.64 339.84 464.99 339.63 464.44 339.84 463.93 340.22 463.32 340.91 462.43 341.59 461.55 341.84 460.66 341.67 459.74 341.25 459.3 340.44 458.61 339.12 458.17 337.85 458.07 336.66 458.17 336.4 457.83 336.28 457.21 336.02 456.81 335.42 456.53 334.83 456.43 333.64 456.46 333.04 456.5 332.28 456.8 331.56 457.38 330.83 458.27 330.19 459.16 329.51 459.09 329.09 458.71 328.84 458.2 328.11 458 327.14 457.82 326.92 457.62 327.18 457.11 327.73 456.6 327.9 455.98 327.6 455.2 327.14 454.52 326.12 453.05 325.91 452.61 326.2 451.65 326.76 450.63 326.71 450.22 326.46 449.85 325.87 449.13 325.1 448 324.38 446.37 323.57 443.78 322.68 442.24 321.83 441.69 320.73 441.45 319.15 441.93 317.88 442.85 317.96 443.81 318.22 445.14 318.26 446.77 318.34 448.75 318.43 450.46 318 452.16 317.79 453.97 317.27 455.09 316.93 456.42 316.68 457.68 316.17 458.67 315.27 460.14 314.25 461.94 313.83 463.99 313.78 465.46 313.95 466.45 313.48 466.58 313.15 466.21 312.59 465.66 311.53 464.88 310.98 464.53 310.17 464.16 309.36 463.44 308.51 462.62 307.11 461.19 305.46 459.9 304.14 458.77 302.91 457.81 301.59 456.96 300.82 456.38 300.27 455.43 299.72 454.71 299.08 454.2 298.49 453.99 297.85 454.03 297.08 454.27 296.62 454.54 296.15 455.02 296.02 455.56 295.68 456.24 295.17 456.79 294.57 457.33 293.38 457.91 292.11 458.59 291.47 459.07 291.43 459.69 291.3 460.3 290.96 460.4 290.58 460.1 289.98 459.68 289.47 459.14 288.92 458.83 287.99 458.25 287.26 458.05 286.28 458.01 285.14 458.42 283.52 459.14 281.14 460.26 279.61 461.35 278.76 462.07 278.12 462.54 277.7 462.85 277.44 463.33 277.27 463.87 276.51 464.15 275.78 464.52 274.85 465.2 274.38 465.85 273.57 466.94 273.06 468.41 272.84 468.61 272.72 468.71 272.25 468.31 271.7 467.86 270.98 467.83 269.58 468.03 268.47 468.03 267.75 467.79 266.94 467.83 266.22 468.13 265.75 468.51 264.94 469.29 264.22 469.7 264.01 469.63 264.09 468.92 264.3 468.51 264.39 468.03 264.81 467.45 266.09 466.77 267.41 466.12 268.94 465.44 270.09 464.55 271.11 463.5 271.87 462.37 272.47 461.55 272.72 460.87 273.4 459.88 274.26 458.66 274.64 457.67 274.38 456.78 273.75 455.86 273.11 455.14 272.9 454.29 273.07 451.73 273.24 449.38 273.37 448.39 273.45 447.03 273.92 445.36 274.6 443.69 274.39 441.75 274.05 441.13 272.95 440.48 272.9 440.24 273.37 439.97 274.73 439.53 275.88 438.81 277.03 437.76 278.22 436.46 278.9 435.81 279.41 435.54 280.26 435.1 281.32 434.18 281.88 433.22 282.47 432.2 282.47 431.14 281.79 430.15 280.65 429.37 280.01 429.1 278.44 428.52 277.63 428.07 277.54 427.83 277.71 427.63 277.97 427.53 278.56 427.32 279.41 427.15 280.39 426.85 281.71 426.51 282.86 426.27 284.22 425.96 285.45 425.52 285.96 424.8 286.09 424.05 285.67 423.34 285.11 422.72 283.97 422.04 282.31 421.63 280.31 421.39 279.29 421.36 278.7 421.12 277.97 420.61 277.34 420.06 276.66 419.48 276.66 419.07 276.57 418.56 276.15 418.05 275.81 417.57 275.85 417.33 276.4 417.06 277.47 416.79 278.57 416.21 279.59 415.46 280.23 414.61 280.32 414.09 280.66 414.03 281.5 414.13 282.52 414.13 283.63 414.03 284.61 413.89 285.37 414.1 286.56 414.4 287.97 414.68 289.58 414.75 291.15 414.92 292.73 414.92 293.37 414.54 293.58 414 293.32 413.38 292.73 412.73 291.75 411.75 290.56 411 288.48 409.53 287.8 408.68 287.38 407.72 286.99 407.38 285.8 406.94 285.21 406.49 283.97 405.81 282.19 404.96 279.55 404.1 279.38 403.63 279.81 403.01 280.28 402.47 280.87 401.38 281.34 400.08 281.56 398.58 281.34 397.93 281.13 397.73 280.62 397.59 279.69 397.49 278.79 397.97 277.98 398.89 277.01 400.22 275.86 401.72 275.35 401.75 274.37 401.58 273.94 401.31 273.6 400.93 273.05 400.45 271.69 399.29 269.99 398.58 268.76 398.65 266.89 398.95 264.97 399.36 263.49 399.94 263.1 400.48 262.68 401.92 262.29 402.29 261.91 402.15 261.32 401.64 260.51 400.93 259.36 400.41 258.22 400.31 257.15 400.48 256.3 400.52 256 400.38 255.37 400.07 254.64 399.9 253.84 400 252.69 400.28 251.07 400.62 249.97 400.62 Z M 223.69 209.8 223.69 210.76 223.94 211.44 224.15 212.16 224.54 212.57 225.05 213.04 226.07 213.45 227.09 213.66 228.28 213.66 229.26 213.62 230.92 213.25 232.32 212.81 233.64 212.26 235.04 211.58 235.81 210.93 236.15 210.49 236.06 210.15 235.89 209.91 235.43 209.47 234.83 209.09 234.02 208.85 232.75 208.48 231.43 208 230.24 207.76 229.01 207.69 228.32 207.69 227.52 207.83 226.75 207.9 226.07 207.9 225.43 207.96 224.62 208.27 223.99 208.92 223.77 209.29 223.69 209.8 Z M 574.63 142.98 574.16 143.73 573.9 144.55 573.56 145.61 573.86 147.24 574.76 148.54 575.86 149.7 576.5 149.7 576.97 149.32 577.18 148.78 577.52 147.72 577.82 146.29 577.69 144.45 577.14 142.71 576.41 142.16 575.56 142.09 575.14 142.43 574.63 142.98 Z M 192.44 170.41 191.68 170.35 191.51 170.52 191.12 171.13 191 171.88 191.34 172.36 191.63 172.32 192.06 171.88 192.7 171.1 192.74 170.58 192.44 170.41 Z M 579.99 161.53 579.61 161.25 579.06 161.22 578.85 161.43 578.68 161.63 578.76 162.07 579.31 162.35 579.7 162.21 579.95 161.97 579.99 161.53 Z" fill-rule="evenodd"/>
</g>
</svg>