<?xml version="1.0"?>
<svg xmlns="http://www.w3.org/2000/svg" version="1.2" baseProfile="tiny" width="800" height="530" viewBox="0 0 800 530" stroke-linecap="round" stroke-linejoin="round">
<g id="campbelllake">
<path d="M 286.42 513.55 284.92 512.92 283.41 512.3 283.9 509.23 287.82 503.18 287.26 501.94 282.44 499.7 276.15 495.07 272.12 490.93 268.64 486.04 263.7 477.09 259.22 471.71 255.63 468.39 238.14 456.8 234.66 452.49 230.96 446.53 226.92 441.89 215.71 432.28 211.67 427.73 209.09 423.92 202.13 417.87 199.33 414.31 197.98 410.25 197.86 403.54 195.73 398.98 193.59 392.27 184.73 377.19 179.46 370.4 172.72 362.62 168.68 355.41 166.21 346.71 166.21 343.31 167.21 339.33 168.89 335.36 168.43 327.32 169.21 322.1 173.46 313.39 181.75 299.97 182.64 295.99 180.28 286.71 176.35 281.91 165.36 272.8 161.54 267.99 158.29 260.04 156.49 257.63 149.09 253.17 144.82 248.78 140.45 243.31 137.64 238.09 133.26 228.15 131.69 225.58 130.12 224.92 118.46 223.51 115.21 221.78 112.4 218.88 111.51 218.63 108.15 219.88 107.14 221.87 107.14 222.61 109.72 224.68 111.52 228.08 112.42 233.63 113.32 236.28 114.78 237.35 121.39 240 123.41 241.41 124.87 243.23 124.76 243.9 122.74 245.22 116.58 246.8 104.25 250.95 97.98 252.36 95.17 252.53 92.37 251.87 89.01 249.3 88.11 249.14 86.32 249.55 85.08 250.46 82.51 255.85 78.03 258.5 75.01 261.33 73.78 264.81 72.77 269.03 73.56 270.36 74.9 271.27 77.6 271.93 82.98 272.26 87.46 270.85 92.84 270.43 97.43 269.1 101.13 268.44 108.53 268.76 112.01 269.76 115.71 271.99 117.39 273.9 117.95 277.21 119.52 279.86 121.88 281.27 126.81 283.09 128.04 284.08 127.38 288.14 124.8 291.05 124.13 292.37 125.14 294.36 126.71 296.18 130.75 298.17 139.72 307.28 142.64 308.68 149.03 310.26 153.85 312.33 156.43 314.48 157.78 317.79 157.67 319.95 156.77 321.94 154.09 323.93 152.4 324.59 148.48 324.67 145.12 323.52 140.52 319.79 134.35 317.97 129.53 314.33 119.43 303.06 118.64 299.67 118.87 295.11 117.85 292.46 116.84 291.3 107.21 291.63 104.51 291.14 103.84 289.9 104.06 288.49 107.54 287.33 110 286.08 110.56 284.01 109.77 280.61 108.31 278.04 105.28 276.06 101.48 275.23 96.88 274.9 91.16 275.07 87.02 276.81 80.29 281.12 78.39 281.54 71.67 281.38 67.96 280.72 65.83 279.31 64.6 277.32 62.69 271.86 63.13 265.72 62.46 262.91 59.88 260.92 57.18 260.26 53.82 258.68 50.9 256.61 47.99 252.31 47.31 245.68 44.39 241.12 41.47 238.31 38.11 236.98 36.09 235.41 35.08 232.76 35.41 229.11 38.21 225.55 40.78 224.3 46.39 223.97 51.88 224.55 56.26 228.02 60.29 230.51 63.21 233.32 66.35 235.39 68.82 237.63 71.85 243.92 71.07 247.82 69.06 251.22 69.17 252.63 70.29 253.7 71.98 254.2 75.56 253.87 77.69 252.21 81.83 247.65 84.07 246.57 98.98 244.41 103.57 244.98 110.64 244.07 112.2 243.32 112.54 242.66 111.53 241.34 107.38 238.27 96.83 228.91 94.14 227.92 89.43 224.11 88.08 222.29 90.21 218.39 89.76 215.74 88.19 210.94 89.08 209.94 89.87 209.2 91.77 208.94 94.35 209.44 97.38 211.43 102.31 213.42 107.58 214.74 114.87 215.65 121.26 214.73 124.51 213.16 129.55 209.76 140.07 199.06 144.11 193.18 146.01 189.2 148.91 176.68 150.92 171.88 151.48 169.06 151.14 165.58 144.96 152.82 142.72 149.76 139.69 146.94 137.22 146.2 131.84 145.87 126.35 144.79 124.67 144.05 121.97 141.98 121.3 139.41 120.39 131.29 116.91 119.11 115.11 117.46 101.88 112.16 93.7 110.67 82.71 110.51 72.95 109.44 65.66 107.87 51.98 103.07 50.19 101.42 47.83 100.25 46.04 100.17 41.56 100.84 40.66 100.59 34.48 91.98 32.8 90.32 29.66 88.66 28.65 87.34 28.98 85.43 28.42 83.36 23.37 80.13 21.91 77.81 21.8 75.08 23.03 70.27 23.47 66.96 20.89 61.24 19.76 55.86 18.64 53.95 12.24 49.48 9.77 45.67 4.16 38.47 2.36 38.22 1.8 38.52 1.4 34.33 1 30.15 3.59 29.53 12.33 25.05 17.15 21.9 21.29 18.5 26.33 8.9 30.02 4.76 33.05 2.77 37.31 1.19 44.71 1 59.39 1.66 73.19 3.06 81.6 4.8 92.59 7.86 98.98 9.27 103.8 9.84 131.38 10.24 136.09 10.82 148.99 10.82 161.32 11.72 168.38 12.71 184.86 12.7 193.95 13.11 198.32 14.18 202.69 14.43 214.02 15.75 245.86 22.19 249.45 23.35 259.1 28.07 267.28 31.63 272.67 32.79 281.64 37.17 289.26 40.32 299.58 43.3 312.59 49.59 333.9 57.45 346.79 60.92 360.81 61.08 365.97 62.82 373.14 64.64 378.19 66.79 385.59 69.36 406.33 74.65 412.62 76.72 426.18 83.18 435.49 86.08 446.7 91.13 460.38 95.77 476.42 100.4 486.73 103.96 496.82 106.69 502.09 108.43 523.51 120.03 527.89 122.84 533.72 127.07 538.09 128.39 539.21 129.63 539.55 131.62 540.67 133.45 543.14 134.52 546.73 137.01 547.74 138.91 549.64 140.57 552.22 141.65 557.71 141.98 560.29 142.72 571.84 151.59 576.11 153.49 583.06 158.29 590.01 160.78 597.3 166.91 605.82 172.21 614.34 175.94 622.41 180.66 632.73 189.61 637.33 192.26 641.36 195.57 645.17 196.31 648.76 197.81 651.45 199.96 653.92 203.02 656.5 205.1 663.9 206.75 667.71 209.32 670.18 212.72 676.34 216.11 678.48 217.6 685.09 223.82 695.4 231.93 703.25 236.41 706.73 241.3 715.25 250.91 730.84 264.33 738.46 269.05 744.62 274.6 751.57 280.07 754.72 281.89 764.58 284.87 770.52 287.86 776.46 292.17 782.4 298.21 792.83 311.8 795.86 317.85 798.44 326.63 799 335.17 798.89 340.56 797.77 344.53 794.74 349.5 787.12 357.63 782.64 360.36 781.07 363.51 775.92 367.65 770.99 370.39 764.71 375.03 760.57 376.94 748.69 383.24 738.83 386.72 730.87 391.19 721.68 394.92 711.82 398.08 694 401.06 687.61 402.47 683.47 404.13 680.11 406.45 674.84 413.41 672.15 415.4 662.74 420.54 656.24 422.86 650.86 423.61 640.89 423.86 638.76 423.69 636.29 422.62 635.28 421.46 633.71 420.63 631.81 420.63 628.67 422.12 624.19 425.77 622.17 427.43 617.24 429.33 614.67 431.32 613.99 433.31 612.87 435.13 610.63 436.62 606.37 438.53 599.43 442.18 594.27 445.5 571.53 457.52 562.12 461.41 548.9 464.98 538.48 469.87 529.85 476.75 525.26 479.49 506.88 488.61 498.26 491.76 492.09 492.92 486.94 494.16 483.24 494.5 479.99 495.74 476.18 497.9 472.71 502.12 469.58 503.53 457.14 511.66 452.66 512.98 447.17 513.4 444.59 513.98 441.35 516.47 440.56 519.12 439.33 520.28 435.3 522.1 422.52 525.01 403.36 528.16 392.61 528.42 381.85 529 369.3 528.92 360 527.85 337.58 522.14 322.34 517.25 311.58 515.1 305.87 512.71 300.03 507.9 297.68 506.83 294.99 506.74 293.31 507.41 286.25 512.22 286.42 513.55 Z"/>
</g>
</svg>