<?xml version="1.0"?>
<svg xmlns="http://www.w3.org/2000/svg" version="1.2" baseProfile="tiny" width="800" height="1060" viewBox="0 0 800 1060" stroke-linecap="round" stroke-linejoin="round">
<g id="bridgeportreservoir">
<path d="M 798.27 13.61 791.66 26.69 787.26 34.21 786.82 35.37 784.77 44.05 785.36 55.96 784.04 61.52 784.92 63.95 789.47 67.76 790.21 70.08 789.48 73.55 791.1 75.52 792.12 75.86 794.33 79.8 798.88 84.77 797.56 95.88 796.83 97.04 795.36 97.96 791.25 98.66 789.64 99.58 788.75 102.13 787.73 109.3 786.7 111.16 779.36 115.79 776.72 118.21 776.13 128.05 775.11 131.75 775.4 136.96 774.09 143.32 770.86 149.92 767.78 163 765.14 169.59 755.16 178.5 751.63 180.47 750.9 181.74 763.39 194.58 763.53 199.56 762.36 202.45 757.95 206.62 756.05 210.21 753.26 213.1 749 215.76 745.04 217.04 739.17 218.31 735.64 219.58 729.36 221.67 728.86 225.68 725.85 227.68 719.84 227.18 715.33 232.2 711.32 239.21 706.3 244.23 704.09 250.25 702.79 253.75 696.28 255.76 692.27 263.28 693.77 274.81 699.29 283.84 704.8 293.36 701.79 300.38 701.29 307.4 695.28 312.41 681.74 315.92 668.71 321.44 651.66 334.47 643.64 346 646.15 352.02 639.13 351.02 630.11 363.55 625.6 374.58 620.08 381.6 624.09 389.62 623.09 397.14 628.1 403.16 628.61 410.68 626.1 423.21 625.25 429.49 623.59 441.76 624.59 456.8 631.61 465.33 657.18 478.86 673.72 490.9 687.26 503.93 690.26 516.47 688.26 534.52 683.24 543.04 687.27 560.18 693.77 574.62 688.26 587.16 685.75 599.69 681.24 606.71 681.24 613.73 675.22 622.25 664.7 630.78 657.18 637.29 660.48 652.15 659.68 663.36 673.72 672.39 690.26 688.43 699.29 709.99 702.29 726.54 702.29 739.57 697.78 755.11 692.27 763.64 686.25 775.17 678.23 783.19 667.46 788.34 663.19 799.23 661.69 814.27 664.2 828.81 665.7 842.35 663.69 856.39 659.18 887.47 653.17 900.01 647.15 908.53 642.64 916.55 640.64 925.07 633.12 939.61 630.61 947.13 625.1 952.15 620.42 959.56 619.09 960.25 618.95 961.88 631.72 961.76 633.19 966.04 636.86 966.96 636.27 968.93 621.01 969.4 619.83 969.16 616.31 967.43 614.55 963.96 614.25 960.72 613.22 959.56 610.73 959.1 609.55 960.72 609.7 964.54 610.29 966.51 606.05 973.71 611.06 985.24 611.06 997.27 604.04 984.23 597.53 984.23 599.03 999.78 601.54 1013.81 586.5 1014.82 574.97 1021.34 555.92 1032.87 544.34 1031.87 538.37 1031.36 522.33 1031.36 510.8 1033.37 498.27 1045.4 485.85 1059 483.23 1050.92 493.26 1026.35 495.77 1004.29 482.73 1001.28 460.17 993.76 449.65 992.26 441.63 996.77 429.6 996.27 411.14 995.94 384.98 997.27 367.44 996.27 357.41 990.75 337.86 992.76 321.82 1004.79 313.8 998.77 324.83 990.75 313.3 991.25 301.77 1001.78 301.27 1009.3 293.75 1017.32 280.72 1028.35 265.18 1040.39 247.63 1044.4 236.1 1038.88 224.07 1033.37 222.07 1022.34 229.08 1014.82 242.62 1008.3 258.66 1004.79 277.71 995.77 288.74 988.25 285.73 983.23 270.69 986.74 255.15 995.26 240.11 1001.78 227.08 1001.78 212.54 1008.3 196 1012.31 180.96 1012.31 169.43 1016.32 158.4 1017.83 146.37 1020.33 131.71 1025.93 102.76 1024.84 98.14 1022.07 80.2 1011.31 74.69 1000.78 73.56 988.96 74.69 976.71 78.7 963.18 83.71 949.14 92.73 949.14 100.76 945.63 93.74 943.12 87.22 936.1 89.73 928.58 96.24 923.57 89.73 922.07 75.69 922.07 67.17 925.58 55.64 921.56 45.61 916.55 47.12 909.03 55.14 903.01 70.18 901.51 83.71 892.49 94.74 880.95 116.29 862.4 110.78 850.37 96.24 848.37 89.73 850.37 73.18 847.86 55.14 844.86 34.59 845.86 15.04 841.35 5.51 831.32 1 825.3 16.54 811.77 36.59 803.75 52.13 803.75 77.19 810.76 93.74 803.75 99.25 786.2 104.77 772.66 110.78 764.14 101.76 745.59 101.26 728.54 89.73 726.54 102.26 709.49 120.81 710.49 143.87 706.48 167.93 708.49 193.99 710.99 215.55 720.02 232.09 723.53 240.11 716.51 253.14 703.97 262.67 699.96 274.7 695.45 272.19 686.43 260.66 674.9 262.67 664.37 273.7 651.83 291.74 643.81 313.8 633.28 330.84 625.26 355.41 607.71 370.95 592.67 380.97 573.12 377.96 565.6 375.96 559.08 385.96 550.47 392 545.04 397.01 540.53 405.53 533.01 415.06 529.5 419.07 523.99 424.58 515.96 431.6 514.96 445.14 510.95 446.64 505.94 443.63 497.41 442.13 489.89 446.14 483.38 452.15 482.37 459.67 474.35 475.21 465.83 470.7 460.31 473.21 456.8 479.72 459.81 486.24 457.31 492.76 453.8 494.26 449.28 494.76 441.26 495.26 436.75 499.27 428.73 505.79 421.21 511.31 412.68 516.82 407.17 518.32 403.16 514.31 398.15 516.32 389.62 523.34 386.11 527.35 387.62 533.86 391.13 539.88 388.12 546.39 383.1 550.41 372.07 551.91 362.05 551.41 351.52 554.92 348.01 563.94 341.49 569.96 332.47 572.96 324.95 571.46 312.41 575.47 305.9 584.34 300.63 585.99 297.62 585.69 294.39 587.79 289.28 587.34 287.09 585.31 286.19 581.78 285.14 575.69 282.81 573.13 280.1 573.81 278.05 575.69 276.64 578.55 278.3 581.48 278.67 584.71 278.07 589.15 276.72 593.21 276.72 598.03 273.31 599.53 267.29 601.54 263.78 600.03 254.26 596.02 247.74 591.01 244.23 596.02 240.72 606.05 239.21 610.06 234.7 617.58 238.21 618.08 231.19 622.09 228.18 621.59 219.16 625.1 212.14 634.12 207.13 634.12 203.12 637.13 199.61 647.65 197.6 652.65 189.87 658.09 185.7 660.44 182.46 662.64 177.14 665.87 166.38 667.34 163.48 670.71 160.59 671.59 159.08 671.73 152.03 671.15 149.37 668.35 144.51 669.67 143.93 672.32 144.85 682.01 149.13 683.19 149.25 684.8 148.67 691.7 145.66 697.87 142.42 700.51 141.37 703.74 139.41 704.18 138.25 703.59 137.32 694.63 131.89 693.9 130.38 695.07 129.46 698.45 128.88 711.52 128.99 714.46 128.07 717.69 121.35 717.38 103.88 716.5 102.73 715.47 102.03 707.98 99.49 707.54 98.1 710.77 93.24 712.39 88.72 712.53 85.95 711.8 84.91 710.33 84.1 704.31 83.64 702.4 83.17 701.22 79.01 703.42 77.62 708.56 76.35 712.82 74.15 714.73 71.83 716.19 69.17 716.49 65.35 717.37 63.62 718.54 62.92 720.3 62.34 730.14 61.64 732.05 60.83 733.37 59.79 734.11 56.67 734.54 45.21 735.72 42.67 739.53 37.92 744.82 32.37 748.78 29.24 752.6 25.08 752.89 22.18 751.71 21.26 749.81 21.14 744.96 22.3 745.25 19.41 750.98 15.93 774.03 8.41 797.38 1 797.97 2.39 799 4.12 798.56 12.45 798.27 13.61 Z"/>
</g>
</svg>