<?xml version="1.0"?>
<svg xmlns="http://www.w3.org/2000/svg" version="1.2" baseProfile="tiny" width="800" height="916" viewBox="0 0 800 916" stroke-linecap="round" stroke-linejoin="round">
<g id="buttvalleyreservoir">
<path d="M 666.1 912.62 665.35 912.12 664.99 911.14 665.54 909.59 667.49 907.19 670.67 904.51 674.28 901.55 675.26 900.33 675.49 898.7 675.46 897.06 674.42 894.6 669.73 886.1 665.89 878.42 665.05 876.94 664.91 875.55 665.04 873.59 665.7 871.87 665.78 869.83 665.78 866.14 665.47 865.16 665.05 864.18 660.99 861.24 659.84 859.92 659.52 859.6 655.67 856.13 653.09 853.29 652.59 851.48 652.49 850.18 650.86 848.93 649.47 848.97 647.76 849.2 645.89 849.76 644.71 850.4 642.13 852.06 640.2 852.78 638.5 853.02 637.75 853.05 637.01 852.64 636.49 851.73 636.48 848.46 636.48 843.63 635.63 839.29 635.22 837.98 633.54 836.41 631.47 835.46 629.66 835.03 626.04 835.21 624.01 835.44 621.87 835.84 619.14 837.16 617.32 837.48 615.83 837.47 614.87 837.09 613.98 835.86 613.04 834.87 611.97 834.45 611.66 834.37 610.81 834.2 609.31 834.23 608.8 832.42 608.79 829.56 609.03 827.36 608.92 823.34 608.36 821.13 606.53 818.25 603.07 814.1 599.32 810.96 595.14 808.85 594.61 808.02 591.42 803.7 588.75 799.59 587.14 796.31 583.63 791.82 582.16 789.93 579.73 787.66 577.78 785.77 572.87 782.42 567.05 778.81 564.03 777.53 561.06 776.6 558.08 776.13 554.24 776.27 552.31 776.86 551.24 777.35 550 778.81 549.02 780.28 547.61 782.07 546.96 782.88 545.73 783.2 543.28 783.31 542.31 783.79 541.35 783.86 540.29 783.57 538.34 781.51 537.48 778.39 535.46 773.22 533.54 769.41 532.29 766.94 529.82 764.14 525.51 761.41 517.36 759.06 512.58 758.08 508.85 757.36 504.29 755.53 499.14 753.89 496.69 753.92 492.96 754.3 490.39 754.98 488.3 755.94 486.27 756.17 485.32 755.55 485.71 753.92 485.82 753.59 486.91 751.92 487.08 750.53 485.84 748.03 483.36 745.8 479.23 743.93 476.15 742.52 470.46 741.62 465.78 740.97 460.87 740.73 456.6 741.31 455.26 742.04 453.34 742.76 452.37 743.16 451.84 742.83 452.44 741.36 455.26 737.7 456.83 735.51 458.88 733.67 459.59 732.37 458.76 731.06 455.86 728.13 451.74 724.92 448.63 722.72 441.52 720.01 436.79 718.71 430.83 717.56 425.72 716.91 421.56 717.17 418.57 718.13 414.23 720.01 409.4 722.31 406.98 724.18 404.07 726.81 401.11 728.92 398.32 730.82 395.85 732.11 392.8 732.62 388.54 732.75 384.59 732.77 383.42 732.52 381.7 729.6 377.55 724.58 377.52 722.78 378.39 721.88 381.71 719.86 385.52 718.05 386.16 717.64 387.89 716.1 389.36 713.7 389.57 710.1 388.53 707.84 385.63 705.29 383.41 703.63 379.49 701.84 375.61 700.63 373.39 699.31 371.28 697.53 365.52 693.52 363.26 690.56 358.67 686.56 355.18 684.16 352.9 683.45 351.2 683.36 348.64 683.75 346.34 683.85 342.25 683.21 333.41 681.88 331.39 681.95 329.04 682.54 327.32 683.02 325.66 683.91 322.75 686.13 320.07 687.67 317.87 689 315.39 690.95 312.42 693.91 310.48 695.54 309.96 694.71 309.31 686.61 308.59 684.48 306.95 683.53 305.15 682.86 300.45 683.28 298.05 683.83 295.59 684.43 288.56 684.25 285.68 683.9 283.1 681.72 282.04 680.73 280.76 680.72 279.37 681.32 278 679.76 277.79 679.43 276.9 678.69 275.3 678.1 273.91 678.42 273.5 677.48 273.31 675.51 272.98 671.99 271.68 669.69 270.1 667.88 269.44 665.34 267.62 661.35 266.37 659.3 264.32 656.83 263.7 654.87 263.93 653.8 267.01 650.63 267.86 650.4 269.56 650.77 272.11 651.2 275.11 650.69 279.28 649.58 283.23 648.91 286.22 648.73 289.8 648.02 292.16 647.01 294.95 645.64 296.94 643.81 300.07 640.81 301.33 638.2 300.82 636.23 299.52 633.36 297.37 630.65 295.38 627.98 292.38 624.44 291.44 622.79 289.8 621.76 287.49 619.04 285.27 617.59 283.96 616.19 283.67 613.41 281.42 610.12 279.05 607.36 277.05 605.38 274.48 602.59 272.03 601.54 270.23 601.04 268.43 600 266.36 598.76 266.49 597.04 267.31 595.25 267.44 593.7 266.93 591.65 265.94 589.68 263.95 587.29 261.46 585.51 259.34 584.85 256.99 584.79 254.97 584.53 253.27 583.7 250.94 583.07 248.28 582.72 244.97 582.98 242.84 582.56 242.58 581.74 246.67 578.62 248.58 575.44 249.84 572.59 250.29 570.71 249.84 568.09 248.91 565.95 246.21 563.97 243.35 562.44 241.13 561.44 236.66 560.22 233.52 559.58 233.11 558.68 232.82 556.14 231.4 554.74 231.62 553.76 233.33 553.36 238.04 552.54 241.46 551.46 243.02 550.24 244.33 548.45 244.67 546.82 245.48 545.52 247.62 544.75 249.23 544.19 250.63 542.89 252.2 540.98 252.76 539.11 252.4 537.47 251.24 536.44 244.01 530.95 240.25 528.22 240.16 526.99 236.84 524.39 235.79 522.91 236.33 522.26 238.05 521.29 240.89 519.39 242.94 517.76 243.02 515.47 242.51 514 240.29 512.1 237.59 510.24 234.83 509.32 232.83 507.55 232.79 505.99 232.82 503.54 232.06 500.91 230.98 497.23 228.53 493.41 226 490.69 223.19 489.11 219.59 487.49 214.38 485.61 211.25 484.65 209.02 483.65 203.18 481.61 197.65 480.46 192.92 479.65 190.99 480.04 188.8 480.85 186.43 482.67 182.81 486.53 179.28 491.66 177.48 495.17 176.71 496.92 175.79 498.55 173.53 500.25 171.59 501.38 169.5 502.55 166.4 503.18 163.41 503.53 161.5 503.11 161.46 501.88 160.51 500.97 158.92 500.43 155.51 499.84 153.39 498.71 151.44 497.31 150.93 495.34 151.44 492.48 151.65 488.89 150.95 485.12 149.45 480.69 145.93 477.1 144.29 475.21 144.11 473 144.1 469.48 143.81 467.02 143.04 464.49 141.21 461.32 138.56 459.75 137.41 458.18 137.61 454.67 136 451.75 134.38 449.12 131.32 446.04 127.25 443.14 120.96 438.64 114.76 435.53 110.72 434.31 109.03 433.48 108.2 431.71 106.26 428.02 102.92 422.35 99.51 417.79 99.53 412.06 100.29 406.5 100.17 402.74 99.64 398.56 98.77 395.45 97.95 392.66 95.69 390.15 93.27 387.68 90.9 385.33 86.3 381.94 83.65 379.84 84.85 378.46 86.12 374.74 87.06 371.72 87.18 371.07 88.57 370.01 88.54 368.79 87.49 366.82 88.46 366.01 88.95 364.86 88.12 363.79 87.92 362.48 91.01 362.34 95.07 361.92 98.38 361.41 99.84 359.87 100.61 357.58 99.74 354.71 97.91 351.92 95.7 349.81 92.84 348.24 88.44 345.8 86.76 343.82 86.01 339.89 85.06 334.85 83.74 328.87 82.29 325.58 80.24 323.08 76.7 319.86 73.53 318 69.87 316.25 66.68 315.45 60.7 315.45 52.82 315.19 48.67 314.55 44.09 313.49 38.73 311.37 34.91 310.11 30.35 307.92 26.16 305.72 23.42 303.49 22.21 301.89 21.18 298.94 20.07 297.62 20.21 295 19.96 289.68 20.62 287.47 21.13 285.02 20.21 272.91 19.25 268.81 19.64 267.34 20.51 266.04 21.91 264.82 23.2 263.48 24.25 260.95 24.43 258.91 24.46 256.46 22.97 252.4 21.24 249.19 18.4 246.15 15.71 244.28 13.17 242.31 10.28 238.89 8.65 236.83 5.67 231.62 4.09 225.31 3.14 220.72 4.18 218.36 4.85 215.49 5.89 213.13 8.11 210.4 13.28 206.47 16.03 204.04 16.98 200.2 16.87 195.86 16.23 191.69 14.62 188.07 13.05 185.69 10.59 181.79 8.65 179.24 8.24 177.6 7.05 174.48 5.99 173.78 3.76 173.19 1.84 172.77 1 172.03 1.94 169.25 3.02 167.95 3.64 165.83 3.55 164.11 2.5 162.38 2.79 160.99 6.08 157.33 6.64 155.25 6.54 150.14 7.2 149.2 11.21 144.53 22.73 140.28 38.12 132.61 39.52 131.23 40.65 129.76 41.54 127.44 42.04 125.72 42.17 123.92 41.6 122.12 40.98 120.76 39.29 118.95 37.12 117.46 34.9 116.43 33.42 115.27 34.5 114.22 36.59 113.21 38.63 112.16 40.66 111.6 42.48 111.16 44.63 110.28 46.56 109.23 49.4 107.74 52.19 106.45 54.44 105.52 56.48 104.8 58.03 103.99 59.33 102.73 60.64 100.62 62.12 96.7 63.61 93.03 66.28 87.77 66.91 84.67 67.42 82.22 68.42 78.7 68.82 76.5 68.85 74.13 65.72 72.39 62.44 70.11 57.74 66.44 54.93 64.78 52.08 62.84 50.07 61.27 46.95 58.75 46 57.77 46.24 51.8 45.89 49.66 45.91 47.95 45.01 47.04 44.49 46.47 45.16 34.85 46.12 30.44 46.2 24.06 46.12 21.44 45.68 18.41 44.28 15.3 42.17 12.91 40.86 11.55 39.06 9.81 37.48 8.42 37.28 7.68 37.66 7.03 38.62 6.7 39.68 6.71 41.53 8.11 43.75 10.14 45.81 12.03 47.17 14.25 48.22 16.1 49.31 18.15 49.93 19.55 50.19 20.86 50.14 28.79 49.52 31.74 48.45 36.39 47.38 41.08 47.3 43.21 47.72 43.91 48.89 44.33 50.07 44.09 50.93 43.03 52.09 39.61 52.93 35.93 53.89 31.89 54.61 29.6 55.31 25.27 55.17 23.55 54.52 19.95 53.7 17.16 50.99 11.7 49.43 8.5 48.24 4.89 47.26 2.72 46.95 1.49 47.17 1 48.02 1.62 48.9 3.34 49.73 5.64 50.92 8.35 52.18 10.15 54.34 12.26 55.92 14.23 56.86 15.55 57.41 18.42 58.28 21.61 58.14 24.55 57.62 27.91 57.31 31.83 56.23 37.3 55.7 40.65 55.72 44.33 55.36 47.28 63.24 55.22 68.95 58.82 70.88 60.85 74.43 61.79 80.68 62.81 85.16 63.7 88.53 63.96 91.27 64.89 91.36 66.4 88.88 67.51 86.19 69.06 89.01 73.36 88.7 76.95 85.68 90.46 83.02 99.15 80.54 106.77 75.4 112.09 70.96 117.94 72.56 119.01 78.06 121.49 86.21 128.22 92.6 134.43 97.92 137.44 107.49 142.05 118.13 149.14 128.24 156.41 138.17 160.84 146.33 166.16 155 169.27 156.43 173.96 154.13 179.46 151.11 190.62 150.4 197.18 153.06 202.15 163.35 209.06 172.75 213.67 177.53 215.8 181.44 213.49 183.56 208.88 184.8 205.16 185.16 197.89 182.85 191.87 182.32 189.56 184.1 186.55 188.94 184.81 190.76 184.7 193.09 185.7 195.98 185.66 198.81 189.03 202.54 195.77 208.21 198.42 213.89 201.26 218.32 205.87 221.69 212.61 226.65 225.19 233.21 227.32 235.76 231.53 238 240.44 241.02 250.72 241.19 258.88 242.97 262.6 254.67 268.8 264.78 273.59 270.45 278.55 269.94 281.69 269.32 283.81 267.91 286.09 266.23 288.37 264.22 291.34 268.5 293.8 271.32 295.81 270.81 300.89 274 304.44 276.48 306.74 277.54 310.46 276.3 314.89 272.4 319.15 267.44 322.87 265.84 327.48 268.85 330.14 277.37 332.09 282.15 333.51 284.1 334.22 283.75 337.21 285.62 337.55 289.78 337.95 291.47 338.7 293.08 341.95 295.86 346.38 299.17 350.21 301.06 352.6 305.05 357.33 307.69 360.13 312.27 364.21 315.71 366.69 319.32 368.15 322.19 368.95 325.81 368.89 330.2 367.25 333.79 366.01 337.01 364.39 338.08 364.65 338.59 366.04 338.6 369.64 338.17 374.71 338.29 377.33 338.74 379.79 340.13 384.09 340.94 387.29 343.09 390.82 346.71 395.47 350.43 400.04 354.7 404.9 359.6 409.39 362.71 412.23 364.82 414.3 366.45 415.86 368.23 418.04 368.57 421.15 368.79 424.92 369.65 429.18 371 431.65 371.98 434.68 375.11 435.12 378.37 439.38 376.88 443.34 378.23 450.3 378.51 459.23 381.35 466.04 386.03 470.01 393.25 475.53 395.27 480.59 394.97 491.68 395.25 499.65 398.23 503.05 398.51 507.73 400.21 513.12 402.06 517.52 403.34 522.34 405.18 528.72 402.46 529.97 402.2 538.79 401.63 546.45 402.77 557.65 405.32 566.31 408.73 569.99 413.97 571.27 420.64 574.11 427.17 579.78 431.14 583.61 436.1 587.3 439.79 588 444.9 590.84 446.01 594.79 447 596.4 447.51 598.52 447.42 601.47 447.28 603.84 447.95 605.97 449.32 607.21 451.22 608.45 454.87 611.14 456.55 612.78 457.96 615 460.31 618.99 463.69 621.72 465.33 622.99 466.37 625.38 468.91 631.12 469.58 632.64 470.62 635.02 471.6 637.15 472.24 641.49 472.74 644.36 473.73 646.33 474.56 647.81 474.87 648.55 476.29 650.56 477.96 653.03 479.49 654.68 483.65 658.35 487.24 661.2 490.78 663.84 492.46 665.78 495.88 669.81 501.31 674.47 510.15 679.05 517.53 679.48 524.91 680.33 529.59 682.6 541.93 691.82 551.86 698.2 558.1 700.89 564.63 701.03 566.76 700.75 575.41 702.59 586.9 705.15 597.82 709.83 605.91 710.96 610.73 711.96 616.69 713.37 620.52 713.37 620.99 715.16 633.51 724.66 633.47 727.52 633.67 729 636.9 734.7 640.1 738.82 644.58 742.41 646.91 743.98 653.28 745.75 659.71 747.31 664.92 748.45 667.14 749.94 678.53 761.41 680.99 763.62 682.04 764.7 682.57 765.27 683.03 766.67 683.22 768.55 683.41 770.27 684.38 773.31 686.44 775.41 689.59 778.21 693.77 781.07 698.9 784.17 703.88 786.46 706.86 787.54 707.65 788.17 709.31 790.88 710.95 792.52 712.85 793.93 714.65 794.56 716.78 794.74 718.7 794.51 720.1 793.74 723.72 789.76 726.91 785.89 729.45 783.62 730.3 783.38 731.26 783.51 732.38 783.93 736.64 788.34 740.1 792.54 742.15 794.64 747.59 798.86 749.81 800.14 753.36 801.97 755.48 802.59 757.49 804.08 759.22 806.59 762.4 812.01 764.86 815.67 769.31 821.27 770.27 821.93 771.12 822.22 773.92 823.8 775.61 825.04 776.77 826.24 777.96 828.78 777.82 831.39 777.74 833.69 778.25 835.82 780.06 839.76 782.92 845.14 784.55 847.03 787.09 848.77 788.61 850.13 790.71 853.09 792.97 855.32 794.23 857.09 795.42 859.71 795.91 862.91 795.28 866.5 795.3 869.12 795.71 870.43 798.16 874.13 799 875.49 798.99 876.47 797.96 881.66 796.88 887.13 795.07 890.88 794.32 891.45 793.03 892.01 790.04 892.93 788.75 893.17 787.48 892.91 784.3 891.78 782.38 891.52 780.25 891.71 778.11 891.86 775.02 891.55 773.53 891.7 771.93 892.1 769.99 893.19 768.01 894.64 767.14 895.95 766.69 897.25 767.13 900.77 766.68 902 765.65 903.87 764.59 907.71 763.05 910.93 762.24 911.74 759.88 912.95 758.71 913.35 757.96 913.38 756.79 912.64 757.98 912.16 756.79 910.65 755.72 909.28 754.65 909.68 754.67 907.55 754.74 904.36 754.74 900.89 753.53 899.75 748.5 897.34 742.97 896.85 729.13 898.48 711.54 900.61 700.9 902.17 693.17 903.73 686.72 905.92 684.59 903.51 683.1 902.02 682.04 900.96 680.62 902.45 679.27 903.87 675.09 910.6 675.58 911.88 676.51 912.52 675.8 913.87 674.24 915 669.55 914.43 667.9 913.36 666.1 912.62 Z M 120.96 354.86 119.79 355.14 119.04 355.46 118.81 356.2 118.86 357.43 118.94 359.23 119.25 360.21 120.46 361.08 121.96 361.01 122.87 359.87 123.86 358.08 124.73 356.53 124.79 355.63 122.77 355.13 120.96 354.86 Z" fill-rule="evenodd"/>
</g>
</svg>