<?xml version="1.0"?>
<svg xmlns="http://www.w3.org/2000/svg" version="1.2" baseProfile="tiny" width="800" height="438" viewBox="0 0 800 438" stroke-linecap="round" stroke-linejoin="round">
<g id="lakemcclure">
<path d="M 306.25 1 304.4 2.64 303.93 3.31 303.68 3.93 303.3 4.2 302.7 5.77 302.98 6.94 302.66 7.74 302.62 9.19 303.14 11.15 303.2 11.78 303.28 12.62 303.78 14.32 303.27 14.59 303.29 15.21 303.04 16.39 303.28 17.73 303.2 19.47 303.91 20.5 302.88 21.54 302.45 22.14 302.29 23.14 303.04 24.65 303.85 25.68 304.31 25.85 304.21 26.32 303.48 27.05 302.74 27.38 302.29 28.07 302.04 29.91 302.54 30.91 302.98 31.19 304.21 31.19 304.23 31.4 304.25 31.66 302.64 33.2 302.93 34.24 303.01 34.53 303.45 34.9 305.51 35.5 306.38 36 306.71 38.34 307.68 38.18 308.35 38.31 308.39 39.31 308.75 39.75 309.82 39.81 308.82 42.29 308.71 42.77 309.19 43.29 310.02 43.82 309.15 44.37 308.8 44.94 309.95 45.43 309.72 46.23 310.39 47.36 308.38 48.37 307.79 51.12 308.21 52.63 308.85 53.28 308.39 54.01 308.52 54.41 309.69 54.38 309.85 54.95 309.12 55.38 308.71 55.8 308.82 56.32 309.85 57.12 310.66 57.15 311.29 57.65 311.88 57.72 312.22 58.97 311.88 60.98 311.66 61.66 312.26 61.9 313.09 61.86 313.66 62.13 314.05 61.73 314.9 62.03 315.7 62.03 315.66 62.46 314.83 62.8 312.97 63.73 311.06 65.3 310.52 66.01 309.59 66.41 308.42 67.61 307.78 68.31 308.65 68.85 310.19 69 312.52 68.41 313.53 68.21 314.99 68.1 316.85 68.1 318.23 68.91 316.89 69.83 316.06 71.08 316.29 72.21 317.55 72.86 320 72.22 320.6 72.26 321.54 72.29 321.15 72.75 320.15 74.01 320.04 75.59 320.44 76.6 321.07 77.16 322.2 77.34 323.17 77.9 323.65 79.19 323.57 80.07 323.98 80.61 325.07 80.86 326.96 80.27 328.55 80.34 329.78 80.57 330.95 80.37 331.65 80.27 330.91 81.61 330.33 83.11 330.91 84.03 332.12 84.21 332.92 83.91 333.49 83.48 334.66 83.24 334.12 85.05 334.5 85.7 336.84 86.7 338.03 86.69 338.53 86.75 338.9 86.72 339.63 86.45 340.6 85.62 340.9 86.92 341.43 88.02 341.09 88.71 340.26 89.76 339.9 90.86 341.34 91.46 341.73 91.73 341.87 92.43 341.33 93.37 341.18 95.56 342.18 97.81 343.35 99.57 346.44 100.95 346.56 101.08 347.77 102.4 348.58 103.62 349.41 104.49 350.19 104.49 350.86 105.5 349.02 106.92 347.18 107.58 344.07 108.7 342.77 109.7 341.9 110.94 342.01 112.01 342.2 114.01 343.76 114.77 345.77 115.08 346.21 115.35 345.71 116.32 345.67 117.22 346.24 117.69 347.38 117.86 348.24 118.09 349.07 118.22 349.51 118.41 350.31 118.66 352.03 119.07 353.03 119.18 353.74 119.25 354.29 119.16 354.46 119.08 354.68 119.04 355.51 119.2 356.59 119.41 357.52 119.51 358.22 119.67 358.79 119.68 359.79 119.7 360.39 119.39 361.09 119.56 361.36 119.92 361.71 120.28 362.08 120.38 362.56 120.39 362.98 120.29 363.44 120.02 363.75 119.81 363.97 119.71 364.29 119.58 364.43 119.56 364.63 119.62 364.8 119.91 364.89 120.14 365.08 120.33 365.28 120.51 365.57 120.64 366.19 120.69 367.01 120.96 368.43 121.35 370.07 122.13 370.91 122.03 371.48 122.19 372.86 122.54 374.14 122.79 375.42 122.95 376.3 122.99 376.8 122.95 377.19 122.86 377.48 122.8 377.92 122.86 378.09 122.94 378.21 123.17 378.22 123.37 378.22 123.68 378.58 123.88 378.98 123.77 379.29 123.44 379.53 123.39 379.82 123.37 379.99 123.49 380.36 123.84 380.22 124.24 380.92 124.4 381.89 124.54 382.58 124.45 383.45 124.47 384.23 124.3 384.71 124.13 385.1 124.27 385.63 124.44 385.97 124.27 386.47 124.45 386.53 124.47 386.57 124.84 385.56 126.27 384.83 128.08 384.56 129.08 385.5 129.65 385.38 130.46 385.87 131.51 386.06 132.22 386.83 132.56 388.2 134.33 389.37 134.69 389.77 136.2 390.86 137.77 391.27 138.38 392.09 139.14 392.91 139.8 393.91 140.14 394.91 140.31 395.58 140.21 396.18 140.54 396.85 140.37 397.16 140.6 397.14 140.87 396.87 141.29 396.64 141.96 396.84 142.46 397.44 142.61 397.82 142.93 397.91 143.5 398.36 144.13 398.44 144.57 398.41 145.03 398.84 145.59 399.91 145.97 400.54 145.94 401.11 146.14 402.25 147.09 402.48 147.66 402.9 148.26 403.63 148.68 404.68 149.23 405.44 149.33 406.09 149.79 407.42 150.21 408.64 150.55 410.66 150.94 411.39 151 413.2 150.58 414.18 150.35 414.56 149.95 415.1 149.53 415.65 149.44 416.17 149.68 416.97 149.96 417.45 150.23 417.94 150.2 418.61 150.56 419.65 150.73 420.93 151.41 421.74 151.95 422.19 152.2 422.66 151.95 423.42 151.74 423.68 152.18 423.79 152.45 424.5 152.52 425.56 152.17 425.94 152.27 425.96 152.63 425.91 152.99 426.16 153.25 426.63 153.29 427.07 153.32 427.23 153.54 427.4 153.88 427.86 154.11 428.29 154.46 428.95 154.99 429.36 155.3 429.79 155.51 430.3 155.7 431 155.92 431.18 156 431.37 156.48 432.14 157.35 432.87 158 433.74 158.6 434.43 159.05 435.34 159.53 436.16 159.77 437.29 159.58 437.67 159.39 437.65 160.12 437.75 160.75 438.3 161.35 438.77 161.91 439.05 162.64 439.7 163.14 440.52 163.16 440.79 163.48 441.69 163.84 442.24 164.53 443.09 165.16 443.72 165.43 444.64 165.83 445.41 166.24 446.25 166.33 446.69 166.5 447.06 166.71 447.64 166.86 448.03 166.94 448.63 166.96 449.31 167.02 449.79 167.02 450.3 166.89 450.98 166.78 451.61 166.64 451.99 166.37 453.31 166.05 453.89 165.7 455.83 165.5 456.62 164.55 457.25 163.43 457.27 162.22 457.53 161.22 458.03 161.65 458.3 161.89 459.47 162.32 460.4 162.76 461.24 162.89 463.08 162.89 467.15 163.28 469.95 163.79 470.69 163.69 470.99 164.16 472 164.49 473.86 166.47 474.99 167.13 475.69 167.5 477.53 168.87 478.33 169.21 478.86 169.98 479.81 171.3 482.83 175.49 485.37 179.38 488.67 184.43 489 184.89 489.78 184.84 491.13 184.35 492.18 184.06 493.68 184.39 495.01 184.47 495.6 184.01 495.56 183.26 495.1 181.91 495.18 181.35 495.86 180.65 496.85 180.34 498.14 180.3 499.14 180.34 499.48 180.42 498.83 180.7 498.27 180.78 498.01 180.82 497.93 180.83 496.99 181 496.52 181.46 496.26 181.93 496.65 183.2 496.92 183.97 496.79 184.44 496.25 186.01 495.96 186.28 495.32 185.77 493.75 185.84 492.58 185.94 491.95 186.2 491.35 186.64 491.08 187.04 491.08 187.47 491.43 187.67 491.64 188.21 492.91 189.68 493.24 191.22 494.17 193.47 495.45 195.71 498.04 199.43 500.19 201.99 501.93 204.33 503.68 206.8 505.72 209.21 506.72 210.02 507.24 210.16 507.67 210.27 507.67 211.16 508.07 211.63 509.27 212.93 510.46 214.13 511.63 215.24 512.03 215.63 512.42 216.05 512.83 216.55 513.12 216.9 513.55 217.25 516.1 219.86 516.89 220.19 516.93 220.55 517.3 221.22 518.7 222.45 519.57 223.25 521.04 224.39 521.79 225.44 522.82 226.21 523.38 226.31 523.83 226.18 524.22 225.83 524.88 225.16 525.93 224.82 526.71 224.79 527.34 224.9 528.85 225.02 529.43 224.87 529.91 224.32 530.77 223.05 531.44 222.47 532.32 221.85 532.77 222.15 532.51 222.52 531.77 222.99 531.45 223.45 530.89 224.19 530.35 225.09 529.85 225.71 529.43 225.72 528.72 225.82 527.8 225.88 526.82 226.11 526.15 226.43 525.97 227.22 526.22 228.28 527.11 229.35 528.2 230.52 530.14 232.09 532.9 234.3 535.4 236.25 536.01 236.29 536.08 236.86 538.32 239.03 539.05 239.43 540.15 239.19 540.41 240.06 541.21 240.56 546.33 242.97 551.17 246.35 552.17 246.55 552.63 246.97 553.31 247.62 554.13 247.51 555.03 247.83 555.48 248.09 555.37 248.49 554.71 248.75 556.58 249.88 557.38 249.7 558.49 250.26 559.43 250.8 559.48 251.29 559.21 251.53 559.21 252.19 560.05 252.46 560.94 252.29 562.15 252.23 562.49 252.23 563.32 253.7 564.32 254.1 566.12 255.17 567.85 256.5 570.21 257.81 571.37 258.55 572.37 259.18 572.93 259.74 574.2 260.41 574.67 260.88 575.86 261.51 576.51 261.72 576.74 261.32 577.91 261.75 578.37 262.02 579.01 262.18 580.22 262.9 581.39 263.4 582.31 264.04 583.6 264.86 584.75 265.67 585.98 266.59 587.37 267.82 588.32 268.13 589.56 269.17 596.03 274.48 596.83 274.65 599.39 276.36 599.83 276.65 600.98 277.62 602.63 278.58 604.05 279.31 605.74 280.42 607.07 281.4 607.64 281.92 607.93 282.86 609.12 284.13 609.71 284.41 610.08 284.77 611.52 288.08 613.59 292.54 613.97 294.7 615.17 296.55 615.49 297.96 615.34 299.01 616.8 301.24 616.9 302.04 617.59 303.87 619.01 305.29 621.17 306.04 624.1 306.71 627.1 306.96 628.69 306.96 629.6 306.46 631.02 305.65 631.78 305.48 631.95 305.45 630.62 306.48 631.45 307.3 631.85 307.69 632.74 307.65 634.86 306.38 638.01 305.37 640.21 304.95 642.81 304.54 644.5 304.76 645.95 304.54 647.71 303.99 648.93 303.13 650.32 301.91 652.01 300.7 652.65 300.54 652.68 299.8 654.78 298.4 656.09 297.43 656.94 297.02 657.43 296.79 657.89 296.57 659.29 295.96 660.66 295.49 661.83 295.13 663.39 294.63 664.49 294.13 665.24 294.18 666.59 294.08 667.74 294.18 668.84 294.48 669.65 294.98 670.8 295.23 671.85 295.88 672.55 296.38 673.14 297.23 673.31 298.33 673.35 298.97 673.26 299.37 673.18 300.7 673.04 301.75 672.7 304.15 672.9 307.66 673.75 309.86 675.6 314.73 676.3 316.18 677.02 318.12 677.76 319.19 679.16 321.09 681.26 322.65 683.46 324.1 685.63 325.16 687.2 325.99 690 326.46 691.17 326.56 691.91 326.53 693.07 326.96 694.68 327.66 694.84 327.73 695.38 327.6 696.11 327.46 697.36 327.01 697.93 327.01 698.39 326.97 698.95 327.1 699.66 327.14 699.84 326.99 700.44 326.85 700.84 326.64 701.66 326.39 702.32 326.31 702.69 326.29 702.87 326.15 703.2 326.07 703.5 326.07 703.96 326.02 704.08 325.95 704.17 325.93 706.49 325.7 706.74 325.61 707.44 325.47 710.03 324.9 714.67 324.16 718.74 323.56 721.51 323.42 723.88 323.9 725.8 324.7 727.69 325.47 729.49 326.6 731.33 327.6 732.19 328.27 733.25 328.6 734.17 329.2 735.53 329.64 736.54 330 738.46 330.55 740.37 331.27 741.81 332.03 744.04 332.89 745.1 333.3 746.29 333.71 746.94 333.96 747.51 334.13 749.18 334.98 751.81 335.96 754.34 336.74 754.89 336.96 756.31 337.2 757.27 337.45 758.16 337.79 758.81 337.85 759.87 337.52 760.85 336.99 762.79 336.85 763.98 336.62 764.86 336.2 767.15 335.78 767.41 335.8 767.53 336.18 767.93 336.1 768.18 335.62 769.12 335.32 770.74 335.41 771.79 335.85 772.87 336.41 773.89 337.33 774.73 338.41 774.67 338.98 774.96 339.31 775.02 339.32 775.67 339.42 775.86 340.04 776.73 340.59 777.27 341.65 777.77 342.94 778.17 344.22 777.84 344.66 777.88 345.01 778.02 345.35 778.5 345.37 778.98 345.62 779.71 346.06 780.67 346.41 781.99 346.72 783.03 346.79 784.1 346.7 784.33 346.45 785.7 346.22 785.89 345.97 786.62 345.72 786.81 345.81 787.31 345.64 787.51 345.48 788.08 345.14 789.08 344.91 790.06 344.16 792.02 342.88 792.82 341.63 794.97 340.38 795.82 339.88 797.49 339 798.08 338.57 798.58 338.94 799 339.24 798.64 339.56 798.2 339.94 796.57 341.07 794.76 342.38 793.4 343.38 792.38 344.53 790.25 345.74 787.83 346.85 786.68 347.16 785.43 347.46 783.91 347.79 782.16 347.71 780.63 347.29 780.32 347.43 779.86 347.37 779.01 346.95 778.13 347.16 776.79 346.45 776.56 345.76 776.63 344.87 776.96 343.97 776.75 342.88 776.69 342.77 775.86 341.32 774.85 340.54 774.21 340.29 773.56 339.94 773.08 339.04 772.58 338.54 771.62 337.89 770.83 336.99 770.43 336.87 768.84 336.99 767.11 337.79 764.59 338.64 762.46 339.14 761.02 339.44 759.64 339.1 757.91 338.91 757.55 338.66 757.41 338.56 756.89 338.39 754.62 338.11 754.09 337.96 752.68 337.58 751.69 337.28 751.42 337.21 751.11 337.16 750.9 337.06 750.78 337.03 750.57 336.94 749.69 336.79 749.48 336.74 749.36 336.65 749.05 336.45 747.46 335.83 745.5 335.46 743.7 334.63 742.41 334.11 740.35 332.7 739.49 332.27 739.44 332.24 739.1 331.96 738.67 331.61 737.61 331.55 735.84 331.44 733.89 330.45 732.56 329.69 731.43 329.22 729 327.94 727.73 327.07 727.15 326.78 725.74 326.08 723.94 325.48 722.28 324.96 720.76 324.91 719.1 324.98 717.34 325.19 715.46 325.68 712.96 326.24 712.25 326.55 708.71 327.21 705.83 328 702.07 328.95 697.91 329.4 696.14 329.17 694.34 328.76 694.07 328.7 692.91 328.3 692.24 328.07 690.78 328.09 688.83 328.13 685.66 327.06 685.27 326.89 681.82 325.36 679.89 324.41 679.64 324.25 678.8 323.68 675.98 321.58 674.15 319.85 671.71 316.54 670.9 313.07 670.3 310.12 670 307.21 669.64 304.11 670.55 301.55 670.42 298.99 669.74 297.79 668.39 296.44 665.84 296.14 663.44 296.52 661.78 297.22 660.03 298.23 657.41 299.36 655.76 300.85 654.45 301.94 652.32 304.2 650.42 305.81 648.58 306.58 646.56 306.71 642.97 307.25 641.43 307.42 639.64 307.3 638.63 307.84 637.99 308.49 637.66 308.92 636.29 309.52 634.92 310.19 634.06 310.42 633.94 310.45 633.78 310.52 633.66 310.54 633.15 310.89 632.77 311.14 631.51 311.44 631.01 311.55 630.52 311.8 630.38 312.4 630.45 312.74 630.45 312.76 630.47 312.78 631.12 313.13 631.58 313.53 631.85 313.9 631.22 313.63 630.62 313.33 630.22 313 629.78 312.53 629.65 311.86 629.23 311.25 628.45 310.99 627.25 310.83 625.81 310.16 624.78 309.52 622.48 309.57 620.17 309.27 618.12 308.41 616.37 307.71 614.74 306.32 613.97 305.07 612.92 302.98 612.42 303.38 611.99 303.54 612.59 302.14 612.43 300.98 611.51 299.54 610.66 296.54 609.91 293.73 608.46 290.87 606.52 286.94 604.08 284.5 601.7 282.1 598.44 280 595.74 278.45 593.73 276.98 592.76 276.42 591.93 275.65 590.59 274.46 589.29 273.36 587.79 272.29 586.44 271.31 585.43 270.66 584.78 270.63 584.38 270.64 584.22 270.52 584.15 270.47 583.82 269.87 582.12 268.72 579.56 266.87 576.86 265.87 573.78 264.8 573.41 264.65 572.53 264.29 571.76 263.98 568.5 261.96 564.79 259.8 560.24 257.1 557.81 255.77 557.08 255.44 556.48 255.64 555.31 256.47 554.27 257.17 554.4 256.86 554.71 256.07 555.14 255.87 555.78 254.44 555.43 253.79 553.67 252.66 550.47 250.18 548.7 249.02 547.93 248.65 547.36 248.79 546.96 247.88 546.3 247.38 544.69 247.32 544.06 246.42 541.86 245.28 540.59 244.98 539.61 244.22 535.55 242.27 533.25 240.31 532.2 238.96 528.49 236.05 525.34 233.74 522.98 231.94 522.18 232.04 521.73 230.89 517.52 226.7 516.39 225.13 514.78 223.96 512.17 220.97 510.78 219.89 509.64 219.59 507.71 220.16 507.31 220.12 507.61 219.67 507.71 219.52 508.11 219.02 507.74 217.55 505.2 214.67 503.57 212.74 503 212.54 502.77 211.87 502.12 211.07 498.99 206.92 495.69 203.12 494.95 202.98 494.96 202.86 495.02 202.18 493.62 199.91 493.05 199.51 492.82 198.74 491.04 195.83 489.77 194.09 488.44 193.89 487.34 193.7 485.81 192.66 484.86 192.09 484.71 191.99 485.31 191.76 486.04 192.09 486.91 192.34 487.41 192.35 487.54 192.12 487.41 191.52 487.18 190.69 486.7 189.55 485.91 187.82 484.57 185.68 480.76 179.5 478.63 176.42 477.03 173.98 475.49 172.51 473.35 170.51 471.68 169.64 470.55 169.87 469.01 168.84 466.94 168.3 465 168.5 462.8 169.71 461.17 170.47 460.34 171.28 459.44 171.28 458.39 171.71 457.47 172.85 457.36 172.82 456.06 172.45 452.45 172.71 451.96 171.91 450.09 171.21 448.75 171.44 448.45 170.94 446.58 170.54 445.38 170.64 444.25 171.28 444.14 171.07 443.77 170.37 441.1 169.57 439.37 169.31 437.27 168.2 436.57 168 435.77 167.97 434.56 166.83 432.82 164.03 432.16 162.69 428.82 160.69 425.28 158.61 423.54 158.01 420.41 158.01 417.87 157.68 416.33 158.01 415.74 158.68 415.97 159.15 415.47 159.72 415.07 159.42 414.63 159.84 413.2 158.61 412.87 157.61 412.94 157.11 412.64 156.44 409.93 155.68 408.16 155.58 407.46 155.64 407.26 154.87 404.78 153.94 400.82 153.4 399.08 153.47 398.15 152.94 397.01 151.77 393.23 148.66 391.49 147.36 389.67 146.62 389.77 145.99 387.67 144.55 386.96 142.18 386.53 141.61 385.51 141.27 385.23 141.18 385.46 140.64 386 140.57 385.49 139.17 384.33 137.4 383.03 136.67 381.39 135.5 380.69 134.76 379.95 134.49 379.09 134.66 377.99 132.86 375.62 131.12 370.73 128.48 367.26 127.61 363.79 126.41 360.52 125.94 357.62 126.14 356.99 126.36 355.99 126.48 355.25 126.01 353.71 125.78 352.58 125.44 351.82 125.53 348.61 124.81 347.54 124.81 346.81 124.51 345.91 124.97 345.24 124.51 344.3 124.07 342.8 124.14 342.69 123 340.69 122.47 339.6 123.52 337.83 122.87 337.17 122.06 332.83 116.69 329.66 114.68 327.85 114.62 328.07 113.18 327.78 112.48 326.24 111.34 324.14 111.34 323.11 111.71 323.11 111.17 323.57 110.09 323.54 109.37 323.07 108.92 322.04 108.27 320.7 108.27 320.14 108 319 107.87 317.6 108.03 317.4 107.63 317.9 107.2 318.3 106.26 316.43 104.39 315.36 104.43 314.69 104.73 313.93 104.83 312.39 105.13 312.19 105.66 311.66 105.76 310.96 105.46 309.89 105.56 308.85 106.03 308.72 106.53 308.69 107.5 308.29 107.97 307.48 107.9 306.83 108.14 306.28 108.6 305.85 108.84 304.88 108.8 304.21 108.84 303.75 109.24 303.55 109.77 304.41 110.47 304.51 110.81 303.91 111.07 303.71 111.48 302.78 111.58 302.01 111.84 301.48 112.48 301.34 113.48 301.68 114.18 301.06 114.24 300.94 114.75 300.64 115.08 300.04 114.92 299.14 114.78 298.81 115.08 298.94 115.65 299.21 115.95 299.07 116.45 298.81 116.62 297.47 116.85 295.5 117.66 294.73 119.03 295.53 120.2 296.32 120.26 297.22 121.11 296.94 121.7 295.77 121.41 294.71 122.02 293.66 122.37 293.6 121.9 294.23 121.12 293.69 120.95 291.09 120.93 290.35 121.28 290.13 122.37 289.29 122.7 288.6 122.78 288.29 123.17 288.42 123.74 288.79 124.27 288.12 124.57 287.56 124.34 286.75 124.34 285.89 124.81 285.45 124.81 284.64 124.68 283.69 124.66 282.87 124.76 282.16 124.83 281.46 124.93 281.17 125 277.17 126.04 276.64 126.98 275.95 127.32 274.84 127.58 273.87 128.15 273.66 128.46 273.44 129.05 274.93 130.57 275.07 130.72 274 130.75 272.58 131.28 269.32 130.72 267.69 132.99 267.49 133.69 266.63 134.76 266.19 135.06 265.79 135.96 264.42 136.83 263.55 137.17 262.89 137.6 262.52 138.44 262.78 139.24 263.02 139.67 263.09 140.01 263.15 140.41 263.21 140.78 263.52 141.17 263.69 141.78 262.6 142.27 262.12 142.75 261.55 142.68 260.78 142.48 259.82 142.78 259.28 143.51 258.38 143.75 256.91 143.5 255.44 143.62 254.76 143.85 253.1 144 251.74 143.58 250.77 143.62 248.7 143.4 245.19 144.05 244.29 144.36 243.49 143.55 242.39 143.68 240.69 141.98 239.35 141.54 238.89 141.58 238.42 141.01 237.68 141.04 234.85 140.17 233.78 138.79 232.98 138.74 231.91 139.31 230.27 140.25 229.92 140.71 230.12 141.2 230.92 142.23 231.68 143.68 232.08 144.12 232.19 144.39 232.41 144.88 230.99 144.05 229.79 143.25 228.28 142.88 226.65 141.85 223.8 139.44 223.7 138.54 223.86 137.94 224.43 137.13 224.68 136.27 224.38 135.47 223.38 135.27 222.46 136.16 221.05 136.41 220.65 136.48 218.97 136.8 216.05 138.3 214.4 139.18 213.3 140.26 212.75 142.52 211.66 142.75 210.54 142.97 208.96 143.29 208.42 143.75 207.87 144.59 207.01 144.58 205.68 144.49 204.37 144.69 202.86 144.56 198.53 145.02 197.65 144.9 195.44 145.27 194.34 145.67 193.61 146.41 193.57 147.68 193.89 150.16 194.02 151.86 194.64 152.08 194.14 152.87 194.44 154.96 194.55 156.3 195.21 158.14 195.27 158.3 194.81 158.22 194.44 158.01 193.89 157.05 192.01 154.76 191.21 154.29 189.05 154.54 188.65 154.58 188.55 154.58 190.01 153.69 190.21 153.09 189.94 151.35 188.87 149.88 187.76 149.45 184 148.68 181.46 149.37 178.66 148.61 177.19 148.68 176.45 149.21 175.55 150.23 172.08 152.14 170.57 153.12 169.34 153.91 168.21 154.62 167.37 155.23 166.77 156.25 163.5 156.76 162.43 156.96 161.72 156.67 160.64 156.55 158.09 156.63 156.01 155.92 154.92 156 152.88 154.54 151.92 154.29 150.66 154.71 149.66 155.5 148.12 155.63 147.45 155.67 147.45 155.66 147.79 154.75 146.12 154 143.9 153.96 142.69 155.09 141.65 155.46 138.77 155.84 136.06 157.05 135.06 156.8 133.79 155.76 131.52 155.29 129.79 154.56 128.25 153.16 127.11 152.22 125.32 151.9 123.58 150.28 121.44 148.75 119.83 148.36 118.58 148.36 117.62 149.16 117.41 149.87 116.45 150.3 115.11 150.58 114.14 151.33 113.47 151.92 113.14 152.37 112.59 153.31 112.7 154.97 112.9 155.76 112.9 156.63 112.4 157.13 111.73 157.51 111.56 157.97 111.76 158.97 112.23 159.77 113.63 160.24 114.1 161.17 114.1 162.38 115.53 164.69 115.99 165.19 116.16 165.73 115.7 165.65 113.83 165.45 111.96 165.45 110.76 166.25 110.16 167.25 109.89 169.06 110.27 170.45 111.27 172.08 112.04 172.69 113.15 173.04 113.7 174.42 114.53 175.72 115.28 176.59 119.89 176.75 119.77 177.81 120.17 178.55 121.04 178.95 123.24 179.62 121.04 180.42 120.51 180.82 119.97 181.55 119.97 182.56 120.67 183.81 121.17 184.7 122.19 186.54 123.29 187.65 124.09 187.96 124.26 189.01 124.3 190.28 124.88 191.38 125.99 192.42 126.96 192.71 128.2 192.76 128.27 194.05 128.42 195.3 129.22 196.25 130.39 196.68 132.1 196.76 133.14 196.39 134.18 196.01 136.19 195.22 136.69 195.09 137.98 194.88 137.69 195.84 136.53 198.21 135.53 200.31 134.48 201.77 134.43 202.53 134.98 203.53 136.23 206.48 137.03 208.58 137.98 209.78 139.03 210.69 139.73 210.39 140.03 209.63 140.13 208.28 140.51 207.62 141.26 207.33 142.75 206.43 143.29 206.77 143.99 207.01 146.19 207.29 146.3 207.33 146.42 207.5 145.99 207.91 144.81 208.81 144.67 209.62 145.62 211.17 146.34 211.75 147.39 212.09 147.12 213.05 146.99 213.93 147.28 215.31 147.91 216.06 149.55 216.16 152.32 215.17 154.83 214.8 155.95 214.62 156.66 214.02 156.88 213.05 157.05 212.51 157.22 212.17 157.34 211.8 158.41 210.36 160.85 209.17 161.43 208.95 162.04 208.76 162.56 207.96 162.84 208.81 164.14 208.96 163.1 209.5 162.57 210.49 161.83 212.09 161.63 213.43 162 214.12 161.91 215.28 161.7 215.56 161.39 217.52 161.51 218.6 159.97 219.61 158.43 219.77 156.96 220.51 156.29 221.24 155.88 222.4 156.05 223.2 157.02 223.65 158.59 223.78 160.47 223.74 161.51 225.04 162.31 225.54 162.97 226.54 162.1 227.29 162.51 228.21 163.22 228.96 163.83 230.13 164.77 231 166.64 232.07 168.11 232.94 170.84 233.74 173.31 234.47 174.78 235.01 175.01 235.27 175.45 235.81 175.52 237.41 175.18 238.55 174.12 239.15 173.31 240.09 173.11 241.09 173.45 242.16 174.18 243.76 174.92 244.83 175.99 244.96 176.98 243.69 177.85 245.56 178.59 246.77 178.39 247.7 177.65 249.11 177.72 250.31 178.32 251.65 179.46 252.05 181.32 251.71 180.99 252.71 181.39 253.52 181.99 253.78 183.06 253.85 182.86 254.59 182.73 255.25 183.06 255.79 184.46 256.26 185.23 256.53 184.25 256.89 183.8 257.59 183.25 258.34 182.24 258.69 180.89 259.1 180.14 259.75 178.84 260.85 177.89 261.6 177.14 262.4 176.94 263 177.19 263.86 178.24 264.91 179.99 266.06 181.34 266.71 182.59 267.06 183.7 267.06 184.85 267.06 185.9 266.81 186.6 266.36 186.95 265.86 187.5 265.36 187.9 266.26 187.9 267.21 187.95 267.66 188.55 267.82 189.3 267.66 191.36 267.36 192.11 267.16 192.66 267.01 194.11 267.16 195.01 267.01 195.56 266.7 195.9 266.5 195.83 267.83 194.96 268.62 195.01 269.22 194.31 269.52 193.36 270.17 192.76 271.87 192.51 273.03 189.5 273.73 186.2 274.58 184.85 274.93 184.3 275.53 184.15 276.18 183.65 276.74 183.15 276.79 182.24 276.28 181.29 275.73 180.29 275.53 179.54 275.88 179.14 277.29 178.99 279.34 179.39 281.55 180.14 283 181.13 283.89 182.48 284.26 184.42 284.33 185.95 283.32 186.7 282.4 187.18 281.44 187.68 281.3 188.66 281.36 189.78 281.32 189.55 281.74 189.14 282.22 189.05 282.76 189.05 283.53 189.22 284.26 189.14 285.2 188.93 285.77 189.03 286.18 189.47 286.39 189.95 286.31 190.6 285.87 192.23 285.85 193.83 285.85 194.29 285.95 194.75 286.43 195.29 287.17 195.79 287.58 196.69 287.9 197.8 287.9 198.57 287.73 199.05 287.71 199.72 288.06 200.07 288.31 200.11 288.96 200.28 289.57 200.59 289.9 200.32 290.28 199.36 290.59 198.59 290.84 198.26 291.42 198.48 292.01 199.28 292.72 200.63 293.51 201.3 293.93 201.57 294.56 201.95 295.35 202.55 296.04 203.28 296.27 204.56 296.23 205.47 296.35 206.29 296.52 207.21 296.44 208.29 296.04 209.15 295.75 210 295.5 210.29 295.5 210.32 295.81 209.95 296.81 209.91 297.8 209.76 298.44 208.36 299.88 207.97 300.3 207.26 300.45 206.26 300.84 205.78 301.41 205.71 302.41 206.51 304.02 207.53 305.86 208.91 309.41 209.89 311.01 210.57 311.51 211.62 311.31 213.16 311.03 213.93 310.78 214.43 309.97 214.64 308.03 214.91 306.67 214.69 305.46 214.52 304.27 214.75 303.81 215.37 303.04 215.33 302.22 215.42 301.1 216.56 303.27 216.46 304.04 217.02 305.25 218.17 307.11 218.69 307.57 220.05 308.13 220.23 308.45 219.63 308.74 219.21 309.26 219.09 309.84 219.19 310.85 219.09 312.27 219.15 312.77 219.67 313.08 220.99 313.77 222.13 314.1 223.13 314.1 223.91 314.13 224.14 314.42 223.82 315.11 223.64 315.54 223.97 316.38 224.76 317.84 226.26 318.74 227.08 318.95 227.24 319.14 226.81 319.83 226.79 320.24 227.08 320.81 227.79 321.47 228.48 322.67 228.87 323 229.19 323.58 229.92 323.88 230.4 324.21 230.73 324.69 231.13 324.92 231.74 324.95 232.56 324.54 232.92 324.71 233.39 325.02 233.92 325.31 233.69 325.76 232.89 326.21 232.06 326.52 231.59 327.07 231.24 327.64 230.66 327.87 230.34 328.39 230.34 328.95 230.61 329.55 232.11 330.39 232.77 330.68 233.67 330.7 233.94 330.85 233.99 331.33 234.14 331.9 234.98 332.57 237.07 333.81 237.57 333.63 238.05 333.46 238.82 333.86 239.73 334.43 240.6 334.63 241.43 334.36 243.78 334.36 244.76 334.08 245.36 334.13 246.9 334.14 248 332.79 247.86 331.45 248.73 329.27 248.96 328.67 248.42 327.83 248.45 327.56 249.11 327.26 250.08 327.06 252.6 326.88 252.99 326.64 253.27 326.42 253.38 325.81 254.61 324.37 255.28 323.9 256.55 323.72 257.01 323.07 257.51 322.87 258.17 323.11 258.53 323.35 259.1 323.52 260.15 323.24 260.65 323.25 260.5 323.95 259.8 324.37 259.16 324.64 257.69 324.21 257.26 324.99 258.27 326.23 258.13 327.51 257.83 328.05 257.2 328.41 256.06 329.68 254.66 330.52 254.29 331.09 254.66 331.62 255.19 332.09 256.28 332.25 256.67 332.33 257.63 332.52 258.03 333.13 258.9 333.56 261.14 334.77 260.73 335.05 260.27 335.06 259.37 334.56 258.53 333.99 257.97 333.96 257.33 334.09 255.76 335.53 254.93 335.73 252.79 336.03 252.16 336.3 251.19 337.27 250.22 338 248.72 338.7 247.95 339.31 247.85 339.81 248.25 341.18 248.2 341.41 247.97 341.56 247.55 341.61 247.07 341.83 246.82 342.23 246.83 342.73 247.24 343.39 247.48 344 247.65 344.53 247.83 345.15 248.1 345.77 249.15 346.71 250.29 346.81 250.25 347.26 250.04 347.62 249.99 348.28 250.09 349.53 250.17 350.13 250.45 350.63 250.76 350.93 250.52 351.47 249.19 352.13 248.59 352.5 248.12 352.64 247.7 353.05 247.6 353.67 247.7 355.36 247.68 356.38 247.87 356.91 248.23 357.3 248.87 357.61 249.12 357.9 249.02 358.25 248.59 358.28 247.73 358.13 246.48 357.76 245.71 357.51 244.76 357.51 243.63 357.56 243.61 357.4 244.21 356.66 244.15 355.81 243.9 355.38 243.9 355.11 244.16 354.72 244.08 353.92 243.76 353.17 243.36 352.87 242.59 352.59 241.78 352.44 241.31 352.3 241.31 352.03 241.48 351.9 242.21 351.67 242.64 351.18 242.76 350.68 242.68 350.28 242.39 349.91 242.01 349.68 241.44 349.61 240.81 349.91 240.47 350.01 239.81 349.7 239.36 349.61 238.44 349.61 237.84 349.81 237.04 350.25 236.07 350.9 235.82 351.33 235.63 352.34 235.68 352.82 236.05 353.3 236.62 353.7 236.94 353.87 237.1 354.02 237 354.19 236.37 354.39 235.42 354.76 234.95 355.17 234.32 355.78 233.17 357.79 232.97 358.34 233.02 359.14 232.72 361.05 232.72 361.7 231.97 362.55 231.72 363.45 231.82 364.76 231.72 365.06 230.11 364.7 230.41 363.9 230.01 362.95 229.46 362.45 228.36 362 228.86 361.4 229.21 360.8 229.06 360.19 228.31 359.79 226.86 359.49 226.36 359.39 226.06 358.59 226.76 357.94 227.11 357.59 226.91 356.99 225.36 356.29 224.66 355.18 225.36 355.03 226.21 354.93 226.51 354.58 226.11 354.13 225.06 353.78 224.15 353.18 224.25 351.73 223.9 351.37 223.1 351.17 222.95 350.47 222.55 349.97 221.65 349.47 221.3 348.82 220.95 348.47 219.15 347.57 218.6 347.57 217.49 348.47 216.84 348.97 216.49 349.62 216.84 350.52 216.99 351.22 217.29 352.08 216.59 352.73 215.74 354.28 215.89 355.48 216.34 356.84 216.24 358.64 215.99 359.29 215.39 359.34 215.04 358.54 214.69 357.64 214.39 356.79 212.84 355.68 212.24 355.63 211.24 357.09 210.89 358.24 210.18 359.59 210.33 360.85 210.38 361.8 210.53 362.5 211.49 363.15 210.89 363.65 210.03 363.95 209.42 365.3 208.73 364.96 208.03 364.1 207.83 363.15 206.73 362.25 205.28 361.25 203.77 360.24 202.87 358.74 201.52 357.84 200.72 358.04 199.87 359.04 199.57 359.84 199.47 360.75 198.61 361.29 196.56 360.45 195.61 360.75 193.81 362.35 193.66 363.1 194.91 364.05 196.31 365.11 197.41 365.04 198.14 364.77 198.87 365.56 200.42 366.06 201.07 365.56 201.12 364.5 200.67 363.85 200.92 363.15 201.92 363 203.12 363.4 203.83 364.5 204.68 365.16 205.23 365.56 207.08 365.81 208.09 365.44 208.96 365.37 209.69 365.57 210.18 366.61 211.09 366.91 212.49 366.61 213.64 367.16 212.84 367.71 212.34 368.36 212.74 369.57 213.83 370.05 214.69 370.57 213.84 370.97 211.96 371.32 211.44 370.52 210.68 369.67 208.88 369.32 206.23 369.77 205.35 370.38 204.82 371.32 203.37 371.47 201.52 372.02 201.82 373.17 203.32 373.88 204.88 374.13 206.98 373.98 207.43 374.33 207.03 375.13 206.98 376.38 208.23 376.33 210.16 376.93 210.63 378.27 210.33 379.54 210.48 380.29 211.74 381.04 213.64 381.44 213.29 381.94 212.64 382.5 211.09 382.34 209.88 382.34 208.78 382.75 207.96 382.94 208.02 382.01 207.49 381.01 206.93 379.84 205.83 379.79 205.18 380.04 203.98 379.49 203.32 378.84 201.77 378.54 201.07 379.09 200.21 379.27 198.12 379.24 197.07 379.64 196.56 379.99 196.61 381.04 198.92 382.55 199.42 383.5 200.72 384.5 201.42 385.5 201.62 386.5 202.97 387.61 203.77 387.71 205.33 388.46 205.83 388.81 205.78 390.06 205.03 390.51 204.43 391.27 205.38 392.27 206.83 393.17 208.13 392.82 210.74 391.42 210.74 390.46 209.88 389.96 209.08 389.41 210.13 388.91 211.39 387.66 212.69 387.31 213.29 386.4 212.64 385.55 212.29 385.3 212.99 385 214.99 385.05 215.64 384.75 216.29 384.75 216.46 385.62 216.93 386.12 217.5 386.32 217.5 386.79 217.17 387.32 217.23 388.53 217.7 389.33 218.43 390 219.97 390.4 220.37 389.8 221.2 389.7 221.7 389.9 222.37 389.7 222.41 389.2 222.27 388.59 223.14 388.19 224.04 387.59 225.04 387.86 225.48 388.73 225.84 389.36 226.35 389.93 226.18 390.33 225.54 389.96 224.84 389.8 224.14 390.37 223.71 391.33 223.21 392.5 223.11 393.67 222.67 394.51 221.87 394.91 220.94 395.11 220.37 395.51 219.44 395.74 219.13 396.04 219.27 396.58 220.17 397.31 220.84 397.08 222.04 397.28 223.04 397.51 224.48 398.32 225.14 398.28 225.98 397.65 226.81 397.55 228.35 398.05 228.85 398.58 229.28 398.28 229.38 397.35 229.68 396.51 230.58 396.11 231.12 396.11 231.42 395.61 231.25 394.88 231.25 394.37 231.46 393.1 232.06 392.63 232.92 393.44 233.59 394.24 233.96 395.51 234.06 397.58 234.39 399.12 234.62 400.09 235.55 400.64 237.33 400.19 238.2 399.52 238.36 398.65 238 397.21 238.13 395.98 238.66 395.21 240.16 393.72 240.45 393.18 240.3 392.1 240.06 391.2 240.23 390.6 240.6 389.8 240.77 388.93 240.73 388.29 241.7 387.53 242.7 388.09 242.67 389.13 243.47 390.06 244.64 390.6 245.14 390.6 245.21 390.1 244.4 389.5 244 389.2 243.81 388.42 243.87 388.02 244.19 387.42 244.6 386.89 244.32 386.3 244.17 385.02 244.18 384.65 244.57 383.92 244.57 383.32 244.27 382.85 243.17 382.42 243.1 381.95 244.04 381.78 244.78 381.74 244.9 379.92 244.7 378.44 244.24 378.07 243.46 377.91 242.84 377.8 242.9 377.4 243.33 376.93 243.64 376.6 243.74 376.13 243.47 375.6 242.94 375.07 242.6 374.73 242.8 374.4 243.44 374.2 243.67 373.56 243.86 372.76 244.07 371.89 243.87 371.26 243.34 370.69 243.64 370.29 244.4 370.12 244.67 369.79 244 369.02 243.84 367.85 243.64 367.18 244.07 367.11 245.07 368.52 245.84 369.35 246.94 370.72 246.57 371.46 246.57 371.92 246.84 372.16 247.44 371.52 248.46 371.24 249.44 370.29 249.43 371.05 249.34 371.76 249.71 371.99 250.51 372 250.81 372.29 250.31 372.62 249.65 372.79 248.88 372.96 248.01 373.63 247.74 374.13 248.01 374.6 248.84 374.9 248.64 375.6 248.54 376.7 248.98 377.44 249.38 377.87 249.34 378.61 250.11 379.01 250.08 380.14 251.14 380.85 251.21 381.48 250.51 381.95 250.18 382.28 250.51 382.68 250.91 382.68 251.82 382.61 253.18 382.71 253.82 382.58 255.45 383.36 254.95 383.62 253.82 383.82 253.12 384.59 252.85 385.42 252.72 386.09 251.92 386.62 251.21 386.72 250.75 387.09 250.91 387.43 251.78 387.69 252.28 388.09 252.65 388.93 252.62 389.56 252.82 390.37 254.02 390.97 253.48 391.53 252.82 392.14 252.22 392.34 252.22 392.74 252.75 393.24 254.15 393.84 255.19 394.17 255.62 393.41 255.82 392.57 256.94 393.35 259.33 393.87 259.06 394.61 258.16 395.44 256.72 396.68 254.02 398.65 253.68 399.19 254.81 401.09 257.05 403.53 257.09 404.43 257.56 404.86 258.83 405.35 260.06 404.96 261.26 404.1 262.43 403.7 264.07 403.16 264.46 403.4 265 403.86 265.77 404.03 266.45 403.83 267.78 404.49 270.71 407.4 273.43 407.66 273.93 407.78 274.24 407.86 275.94 408.9 277.08 409.51 278.12 409.27 278.38 408.04 278.7 406.5 279.49 403.96 279.62 402.43 279.5 401.37 279.96 401.49 280.5 403.16 280.96 405.29 281.33 406.63 281.58 407.5 282.21 407.92 283.13 407.92 283.69 406.99 284.2 406.9 285.19 406.84 285.47 406.76 285.83 406.51 287.05 405.79 288.21 405.83 288.01 406.09 287.68 406.54 286.13 408.55 286.05 409.97 285.71 410.39 284.8 410.89 284.42 411.64 284.25 412.68 284.34 413.23 285.05 413.6 285.21 414.23 285.17 415.06 285.67 415.98 286.34 416.44 286.8 416.22 287.34 415.22 288.18 414.99 289.07 415.15 290.22 414.61 291.39 414.39 291.76 415.06 292.47 415.9 295.31 416.9 296.17 416.12 296.76 415.57 297.19 415.94 296.85 416.86 297.06 417.74 296.85 418.65 296.85 419.16 297.98 418.82 299.36 419.36 300.99 420.12 302.15 419.7 302.74 418.9 303.16 417.96 303.83 418.77 305.5 420.35 305.96 420.98 307.84 421.53 309.57 421.24 310.48 420.91 310.8 421.61 311.59 422.07 313.78 422.28 314.8 422.39 315.18 422.24 315.58 422.1 316.14 422.65 319.2 423.53 319.54 423.62 320.83 423.88 324.63 424.64 325.17 424.24 324.79 422.63 325.11 422.91 325.5 423.24 326.64 425.11 328.24 425.87 329.41 425.24 330.29 424.66 330.49 423.81 330.45 422.99 331.45 422.11 333.25 421.4 332.66 422.28 332.11 422.91 330.98 426.78 330.11 427.45 328.21 428.25 326.41 427.78 325.58 427.63 323.58 427.27 321.71 426.99 319.23 427.18 317.27 426.23 315.22 425.85 314.55 426.25 314.49 427.38 314.95 428.85 316.02 429.45 317.37 430.46 317.68 431.17 318.58 432.4 318.72 432.59 317.45 432.32 316.31 432.32 316.32 431.41 316.23 431.24 315.72 430.87 312.84 430.32 312.37 428.98 311.75 427.85 310.81 426.98 309.95 426.25 308.68 426.18 307.94 426.78 307.34 426.98 306.34 426.45 305.4 426.22 303.79 426.33 303.14 426.59 302.68 426.54 302.06 426.29 300.89 425.94 299.97 425.8 299.33 425.98 298.06 425.44 297.33 424.51 295.59 423.91 294.12 423.91 293.32 423.11 292.12 422.5 290.85 422.5 290.32 422.91 289.95 424.73 289.95 426.33 289.7 427.38 289.75 428.33 290.1 429.89 289.87 430.52 289.28 429.83 288.15 428.63 287.55 427.78 287.2 426.68 287.3 425.63 286.8 424.48 285.99 423.82 285.99 423.07 285.59 422.52 284.89 422.17 283.54 422.02 282.49 421.57 280.94 420.47 279.79 419.87 278.83 418.81 277.98 417.21 277.03 416.46 274.83 415.1 273.83 414.3 272.73 413.5 271.72 412.95 270.67 412.95 269.82 413.55 268.87 414.6 268.52 415.56 268.37 416.71 268.67 417.61 268.32 418.26 266.47 418.51 265.72 418.21 264.76 417.86 263.96 417.86 263.61 418.61 263.96 420.17 263.71 420.97 262.86 422.27 262.71 423.42 261.91 423.62 260.36 424.93 260.36 426.18 261.26 428.63 261.26 430.59 261.46 431.89 261.81 432.84 261.97 434.26 261.36 435.15 259.56 435.26 259.06 435.35 258.03 435.53 257.91 436.18 257.82 436.67 257.76 437 257.23 435.13 259.01 434.65 259.86 434.1 260.31 433.4 259.96 431.94 259.71 431.09 258.83 430.72 258.79 430.22 259.3 429.63 259.26 428.67 258.72 427.67 258.22 427.25 257.22 427 255.55 427 256.17 426.54 257.05 426.04 257.34 424.78 257.3 423.91 256.74 423.34 257.09 422.95 257.84 422.82 258.18 422.07 258.47 421.19 258.43 420.7 258.9 420.23 259.55 420.02 259.51 419.36 259.14 419.23 258.26 419.27 257.72 418.94 257.18 418.27 256.55 417.73 255.55 417.39 254.8 417.39 254.3 417.85 254.05 418.52 253.88 419.02 253.29 418.98 252.71 418.31 252.42 417.6 251.75 416.85 251 416.39 250.29 416.72 249.75 417.14 249.37 417.56 248.87 417.23 248.08 416.39 247.54 415.72 246.45 414.76 245.99 415.26 245.78 415.93 245.95 416.81 246.16 417.85 246.24 418.98 246.62 420.02 246.99 420.78 246.16 421.19 245.87 420.52 245.16 419.73 243.91 418.52 243.07 417.81 242.15 417.43 240.69 417.48 239.65 417.64 239.36 417.98 239.52 417.02 240.07 415.93 239.9 415.43 239.07 415.3 237.69 415.3 235.98 414.85 235.02 414.89 234.23 414.93 232.56 414.18 231.47 413.97 229.47 412.88 227.51 412.09 227.05 411.38 226.01 410.25 225.05 409.46 223.54 408.96 222.12 408.71 221.16 408.75 221.25 409.33 221.31 409.94 220.87 410.54 220.79 411.21 221.46 412.3 222.21 413.34 222.75 413.88 222.37 414.8 222.33 415.68 222.83 416.52 223.92 417.52 224.59 417.89 226.51 419.27 226.3 420.19 226.42 421.23 227.17 423.07 228.38 424.53 229.72 426.25 229.93 427.21 230.22 427.92 231.14 428.29 231.39 428.63 231.55 429.29 232.64 430.88 233.39 431.72 234.06 432.09 234.81 432.22 235.1 432.68 234.48 432.84 233.98 433.26 233.89 433.89 234.06 434.81 234.23 435.52 234.52 436.6 234.02 436.31 233.02 435.14 232.56 434.47 232.31 433.72 232.18 433.14 231.35 432.09 230.72 431.97 230.05 430.88 229.55 430.3 228.72 430 227.63 429.96 227.84 429.25 227.42 428.13 226.84 427.37 226.05 427.12 225.21 426.62 224.13 425.95 223.75 424.91 222.83 424.53 222 424.62 221.42 423.91 220.12 423.66 219.58 423.24 219.62 422.2 219.41 421.4 218.83 420.69 216.99 420.19 214.53 419.19 214.11 418.81 213.74 417.77 213.15 416.77 211.99 415.97 210.36 415.22 208.98 415.01 207.73 415.47 207.48 415.89 207.06 416.06 206.73 415.47 206.06 414.39 204.97 414.01 205.02 413.3 205.06 412.51 204.52 411.63 203.51 410.75 202.43 410.29 200.89 409.54 199.76 409 198.88 408.16 197.76 407.04 196.5 406.03 194.79 405.41 193.5 404.99 192.83 404.74 193.04 404.03 193.33 403.4 193.17 401.86 192.37 401.36 190.95 400.86 189.79 400.52 188.83 400.69 187.25 401.79 185.19 401.79 184.05 401.45 181.93 400.78 179.32 400.18 177.67 400.83 177.85 401.72 177.64 401.94 177.17 402.43 176.18 402.05 174.81 400.43 173.81 399.88 172.51 400.13 171.84 400.78 171.44 401.25 170.43 401.52 169.01 400.43 168.06 400.33 167.83 400.92 167.35 400.48 162.83 397.2 158.68 394.17 159.79 393.51 160.34 393.11 160.24 391.01 159.95 390.56 160.54 390.56 161.75 390.21 163 388.85 164.25 388.2 164.8 387 165.16 384.28 167.55 381.69 168.51 381.39 169.21 378.98 168.71 377.48 167.75 376.32 165.9 375.02 164.15 373.97 161.3 373.87 158.14 373.32 153.98 373.82 152.33 374.57 151.38 373.67 149.93 372.57 148.54 372.72 147.2 373.32 146.67 373.05 146.87 371.78 145.87 370.98 145.77 369.41 145.17 366.7 146.02 365.05 145.87 364 144.52 362.29 144.6 360.16 144.2 359.09 145.2 358.02 144.82 356.83 144 356.35 142.87 354.37 142.79 351.87 143.66 350.74 143.57 350.32 142.37 349.56 142.07 348.16 142.22 346.61 141.67 345.4 141.87 344.2 143.07 343.65 143.97 341.9 145.12 340.89 144.92 340.04 142.37 338.79 140.77 338.64 139.61 339.19 139.51 339.24 138.96 338.39 138.11 337.69 136.46 337.69 135.36 338.19 135.51 337.69 134.98 336.71 136.21 336.08 136.25 335.03 137.12 334.3 137.21 333.53 136.16 332.53 134.76 332.03 134.6 331.98 134.18 331.83 134.38 331.78 136.26 331.37 137.71 332.07 138.61 333.03 139.26 333.58 140.52 333.83 140.62 333.18 140.47 331.62 140.16 330.07 140.11 328.52 138.46 327.71 137.46 326.51 137.76 325.76 137.66 324.06 138.21 324.31 138.76 325.26 139.11 325.71 139.26 325.06 139.26 324.26 140.01 323.25 140.62 323.1 140.42 323.86 140.97 324.91 141.72 325.26 142.27 326.56 143.52 327.46 143.87 327.81 143.52 328.57 143.22 329.72 143.87 330.67 144.87 331.17 146.17 331.17 148.03 330.82 148.98 330.62 149.53 330.67 150.23 331.02 150.39 331.94 150.89 332.65 151.64 333.19 151.97 333.94 153.01 334.57 154.18 334.99 154.98 335.36 154.89 336.2 154.52 337.07 154.77 337.99 155.48 338.74 156.64 339.16 157.48 339.16 158.1 338.95 158.48 339.58 158.36 340.62 158.06 341.38 158.44 342.09 158.73 342.67 158.56 343.46 158.19 344.17 157.77 345.01 157.98 345.72 158.69 346.18 159.44 346.09 160.27 345.89 161.15 345.59 161.19 344.72 161.19 343.8 161.53 342.46 162.57 340.87 162.99 339.41 163.36 338.29 163.07 337.07 163.07 336.16 162.53 335.03 162.53 334.15 163.4 333.4 164.07 332.81 164.24 332.19 163.86 331.39 162.95 331.06 161.03 330.94 160.9 330.23 160.65 329.14 159.57 328.43 159.32 327.34 160.65 326.68 162.19 326.88 162.86 326.51 162.53 325.46 161.4 324.63 160.02 323.54 158.36 322.92 158.1 322.12 156.94 321.58 156.02 321.33 155.81 319.99 157.4 320.2 159.19 319.74 159.98 320.87 161.57 321.25 162.86 320.54 163.7 320.2 164.7 320.24 166.58 319.78 166.23 318.73 167.36 318.06 168.83 318.41 169.97 317.66 172.29 317.03 173.34 316.78 174.29 317.49 175.63 317.95 176.8 317.11 177.01 316.07 176.67 314.86 175.24 314.79 174.09 313.56 173.13 312.52 171.7 312.12 173.13 310.6 172.83 309.51 171.25 308.89 169.12 308.59 168.08 308.72 166.66 309.89 165.91 310.01 165.12 309.51 163.24 309.76 162.65 310.3 161.46 311.05 160.79 312.39 159.39 311.99 156.99 311.39 155.18 311.05 152.78 310.78 151.58 310.45 153.18 308.18 154.45 307.84 154.58 306.57 153.85 305.57 152.38 305.37 150.81 304.9 151.54 304.3 151.51 303.37 150.44 302.9 149.04 302.77 145.84 303.3 143.03 303.97 140.9 304.3 140.5 305.51 140.63 306.98 140.63 308.85 140.52 309.51 139.39 309.51 139.49 308.98 139.16 306.11 138.49 304.1 139.03 303.03 140.7 302.03 142.83 300.56 142.39 300.22 141.79 299.69 140.76 299.16 138.16 298.49 136.89 298.76 135.15 299.69 134.69 300.76 134.35 302.5 133.45 302.9 133.82 301.83 133.55 300.76 132.15 300.12 131.24 300.49 131.55 299.76 133.49 298.89 133.95 298.22 134.62 297.22 135.96 295.88 135.49 295.15 134.32 293.81 133.85 293.21 136.79 293.94 138.63 295.28 141.36 295.95 142.43 295.02 142.23 293.55 141.3 292.41 139.36 289.94 138.05 289.46 138.56 288.6 137.29 287.46 136.49 286.26 136.12 284.79 135.9 283.57 135.58 282.65 136.39 282.92 137.96 285.33 139.11 287 141.3 288.67 144.22 292.32 145.37 295.77 147.6 297.48 150.63 296.78 151.07 295.68 151.41 295.48 152.81 295.95 154.28 295.41 157.42 296.15 159.02 296.95 159.02 298.55 159.75 299.69 160.7 301.3 162.37 301.51 163.16 299.22 163.69 299.42 164.46 300.57 165.29 299 163.73 296.5 161.02 293.68 159.35 292.01 157.37 291.7 156.52 291.94 154.43 290.86 155.28 289.92 152.46 287.52 150.84 286.13 149.64 284.26 148.4 280.71 147.74 279.11 148.8 277.04 148.87 274.9 148.29 273.84 146 274.76 144.26 274.63 145.27 272.69 143.6 270.96 145.89 270.61 146.52 269.46 145.47 266.88 143.6 265.49 140.99 265.21 142.46 262.67 141.53 261.8 142.24 260.48 141.82 258.6 141.19 258.59 140.52 257.93 140.36 256.82 138.19 255.59 136.19 255.05 134.94 254.49 136.3 253.92 136.48 253.72 136.73 253.47 137.4 252.6 137.55 251.43 137.37 250.6 137.12 249.67 136.12 248.27 135.42 247.57 134.34 247.2 133.89 246.92 133.82 245.89 132.94 244.76 132.41 244.41 131.54 244.43 131.06 244.36 130.71 243.73 130.14 243.66 129.24 243.68 128.71 244.26 128.51 244.64 127.93 244.31 128.13 243.81 128.21 242.96 127.93 242.46 127.51 242.18 126.91 241.68 127.68 240.98 128.73 239.87 129.04 239.47 129.14 238.87 128.73 238.2 128.11 237.57 126.98 237.14 126.18 237.14 125.43 237.44 123.85 237.62 123.38 237.67 123.23 237.34 123.05 236.52 122.48 235.92 121.07 235.72 119 235.79 117.84 235.82 116.84 236.37 116.09 236.94 114.99 238.1 114.91 239.25 114.46 240.35 113.84 241.08 113.71 241.85 113.24 242.38 112.93 242.1 113.16 240.95 113.56 239.77 113.59 239.32 113.36 238.5 113.69 237.95 114.21 237.34 114.41 236.77 114.61 236.27 115.17 235.79 115.69 235.06 116.52 234.39 117.27 233.84 118.04 233.33 118.34 232.66 118.42 231.88 117.84 231.51 117.17 231.13 117.22 230.37 116.75 229.74 116.08 229.34 113.71 228.7 111.48 228.3 110.94 228.5 109.44 229.77 108.8 229.44 107.67 229.14 106.53 229.14 105.27 229.37 104.73 229.57 103.96 230.44 102.4 230.94 101.59 230.87 101.09 231.11 99.93 231.74 98.67 231.59 98.22 231.73 97.62 232.21 96.59 232.6 97.02 232.08 97.62 231.34 98.5 230.81 99.29 230.97 99.93 230.94 100.16 230.61 100.16 230.17 100.46 229.9 101.13 229.77 101.89 229.87 102.63 229.77 102.86 229.44 102.8 228.94 102.01 228.21 102.7 228.11 105.64 227.23 106.34 226.64 106.77 226.14 107.3 226.34 107.95 226.53 108.23 226.44 111.78 224.77 111.62 223.77 111.26 223.38 111.19 222.68 111.19 222.04 109.9 221.12 108.91 221.22 108.07 221.66 107.64 221.66 107.6 220.86 107.1 220.4 105.81 218.94 105.14 218.1 105.42 217.99 108.55 219.87 110.63 219.76 112.09 218.82 112.41 216.42 111.69 214.64 110.82 214.09 110.44 213.01 110.81 213.2 112.65 214.14 114.57 216.47 115.82 216.06 117.07 217.27 118.12 217.56 119.95 216.81 120.37 216.06 119.58 213.55 118.7 212.72 118.41 212.13 117.24 210.84 115.9 209.34 114.53 208.25 114.07 206.45 111.32 202.74 109.23 201.02 108.94 200.48 106.52 198.56 105.98 197.18 104.93 196.47 104.22 195.76 104.1 195.17 102.97 194.05 102.85 193.34 102.81 191.26 102.34 190.62 101.18 189.71 99.26 189.2 98.51 188.29 97.67 188.22 97.17 188.04 96.77 187.14 96.21 186.53 96 185.4 94.83 182.98 93.33 181.81 92.71 180.64 91.12 179.46 89.77 179.25 87.84 179.98 86.44 180.76 85.2 179.89 85.33 179.39 85.34 179.35 85.4 179.1 85.65 176.88 85.99 176.38 85.76 175.09 85.82 174.42 86.15 173.67 86.32 172.37 86.85 171.76 86.95 171.41 86.6 170.49 86.61 170.16 87.66 169.7 87.99 169.37 88.07 167.71 87.69 167.08 87.48 166.25 87.27 164.37 86.86 163.66 86.02 162.82 84.56 162.11 83.48 162.07 82.64 162.61 81.77 163.31 81.4 163.35 80.98 163.15 80.68 162.49 80.72 161.7 80.02 160.47 80.22 159.94 80.76 159.52 80.81 159.06 80.05 158.44 78.97 158.31 78.94 157.88 79.5 157.56 79.85 157.05 80.56 156.84 82.18 156.35 82.93 156.18 83.64 155.6 83.89 154.97 83.73 154.26 82.73 153.8 82.06 153.34 81.93 152.59 81.81 151.71 81.14 151.01 80.31 150.71 79.8 151.05 79.24 151.67 78.15 151.82 76.98 152.18 76.78 152.05 76.75 151.35 76.52 150.38 76.25 149.94 75.15 149.54 74.85 149.41 74.55 148.84 74.08 147.84 74.51 147.07 74.75 146.5 74.55 145.94 73.58 145.2 73.01 144.43 72.58 144.2 71.61 144.13 71.58 143.5 71.28 143 70.47 142.43 70.61 141.79 70.74 141.12 70.31 140.39 70.64 139.92 71.11 139.55 71.38 138.99 71.41 138.38 70.87 137.98 69.94 137.78 68.47 137.55 67.64 137.22 68.27 136.38 68.57 135.21 68.81 134.18 68.44 132.94 67.54 131.44 66.87 130.57 66.07 130.2 66.8 129.5 67.47 129.23 68.53 129.19 71.11 130.5 72.34 131.71 73.32 132.67 75.82 134.74 77.35 136.48 78.65 137.28 80.59 138.18 81.19 138.22 81.26 137.72 80.66 136.51 80.19 134.61 79.69 130.86 79.59 129.56 79.22 128.63 78.22 127.53 76.35 126.76 75.26 126.08 73.48 125.35 70.3 123.29 69.55 122.89 65.99 121.97 65.47 121.97 64.72 122.44 64.44 122.27 64.27 121.84 63.94 121.57 63.29 121.54 63.09 121.47 62.89 120.56 62.19 119.36 61.54 118.68 60.88 118.02 61.59 118.03 62.26 118.43 62.71 119.01 63.49 119.74 64.29 120.06 64.84 119.96 66.37 119.44 66.97 118.81 66.97 118.36 66.64 117.76 65.99 117.21 64.29 115.5 63.19 114.25 62.14 112.65 60.41 110.27 58.91 107.91 55.99 104.35 53.83 100.49 52.57 98.61 50.72 96.73 49.8 95.96 49.39 94.98 48.54 93.98 47.27 92.28 44.68 88.1 43.61 86.89 42.51 85.83 40.91 83.18 38.85 81.35 38.1 81.07 37.06 81.32 37 80.57 36.93 80.07 36.75 79.65 36.05 79.09 33.57 77.44 32.8 77.34 31.79 77.62 31.07 76.71 30.09 76.21 29.87 75.61 29.09 75.09 28.21 73.88 27.86 72.76 27.71 72.15 26.91 71.18 25.91 69.47 25.79 68.82 24.21 66.77 23.83 66.22 22.48 65.17 21.6 63.38 20.9 63.08 20.7 62.48 19.73 61.68 18.39 60.7 18.27 59.74 18.14 59.49 17.67 58.97 16.9 57.35 14.9 55.09 13.77 54.41 11.77 51.71 10.81 50.43 9.56 48.53 8.86 47.62 7.63 46.72 5.13 44.44 3.4 43.16 1.9 41.79 1 40.71 1.04 40.43 1.05 40.38 2.53 41.68 3.53 42.54 4.83 43.31 5.64 43.8 6.78 44.59 7.98 45.55 9.66 47.22 10.64 48.63 12.01 49.93 12.77 51.03 14.07 52.26 15.47 53.52 16.87 55.29 18.45 57.04 20.45 59.12 21.55 60.33 23.28 61.81 24.38 62.58 24.78 63.03 25.04 63.59 25.36 64.29 26.26 65.04 27.91 66.32 29.3 66.52 29.54 66.74 29.3 67.12 29.12 67.49 29.64 68.56 30.29 70.25 30.87 71.15 31.34 71.73 31.84 72.15 32.55 72.33 33.65 72.25 34.72 72.05 35.15 72.33 35.78 72.71 37.71 72.57 39.56 72 39.75 71.94 39.67 72.4 38.13 73.73 37.46 74.61 37.43 74.96 37.84 75.4 38.7 76.06 39.41 76.68 39.96 77.17 40.63 77.19 40.93 78.16 41.14 78.39 41.98 79.35 43.26 80.27 43.73 81.2 45.74 83.87 47.22 85.22 47.89 85.5 48.7 85.31 49.85 84.8 50.46 84.28 51.02 84.04 52.08 83.71 52.23 83.93 52.14 84.25 51.97 84.39 51.3 84.94 51.21 85.73 50.29 86.55 50.07 87.31 50.14 88.56 51.81 90.81 53.98 92.65 54.14 93.48 57.24 96.37 57.95 96.95 59.2 99.25 59.66 100.27 59.68 100.31 59.87 100.6 61.45 102.88 62.39 103.75 63.14 104.15 63.85 104.19 64.72 103.75 65 103.96 65.14 105.57 65.37 107.06 66.88 108.44 67.67 110.22 68.06 111 68.94 111.5 69.57 111.62 70.88 111.07 71.38 110.73 71.97 110.82 72.2 111.58 73.25 112.37 73.23 113.74 73.26 114.03 73.54 114.42 73.73 114.68 73.99 115.06 74.08 115.18 75.31 116.41 76.06 117.37 76.91 117.93 77.7 117.82 78.58 118.05 79.46 118.1 79.94 117.94 80.53 118.49 81.02 119.34 81.88 120.02 82.71 120.18 83.73 120.1 84.11 120.51 84.49 121.05 85.34 121.77 86.8 122.31 87.41 122.83 87.81 123.44 88.05 124.42 88.99 125.94 89.24 126.85 89.83 127.73 90.57 128.1 90.91 130.45 91.54 131.27 91.85 131.68 92.18 132.11 92.24 132.19 92.79 132.74 93.55 133.45 94.46 134.39 95.98 135.85 96.07 136 97.1 137.78 97.17 138.51 97.11 139.14 97.48 139.65 98.41 140.03 99.17 140.3 99.94 141.06 101.57 141.61 102.99 142.15 104.53 141.94 105.66 141.32 107.17 140.2 108.54 140.02 110.25 138.89 110.5 137.93 110.29 136.64 109.48 135.54 107.56 133.99 106.54 132.5 105.53 131.63 105.08 131.21 104.45 129.87 103.91 128.83 103.26 126.9 103.07 125.49 103.24 125.03 104.62 125.11 105.53 125.32 106.04 124.99 105.58 123.69 105.03 122.02 104.74 121.65 104.15 121.02 104.14 121.01 104.23 121.01 104.56 121.01 104.85 121.01 105.08 120.8 105.27 120.63 106.03 121.22 106.5 121.34 108.2 121.6 108.91 121.79 109.45 121.78 109.87 121.74 110.03 121.94 110.84 122.18 111.52 122.18 111.63 122.18 111.91 122.66 111.95 122.84 112.13 123.19 112.67 123.73 113.33 123.88 112.92 124.62 113.37 125.92 113.77 127.28 114.11 128.44 114.61 129.44 115.17 130.58 115.97 130.43 116.68 129.73 116.63 129.08 115.86 128.02 116.16 127.61 118.78 127.23 119.83 126.78 120.68 125.72 121.03 125.67 122.13 126.12 125.29 125.48 126.54 124.82 127.97 123.89 132.26 124.25 132.26 124.37 131.95 124.76 131.74 124.81 131.59 124.86 131.01 124.86 129.86 125.63 128.89 126.24 128.57 126.36 128.34 126.78 127.88 126.88 127.38 127.69 126.42 128.58 126.29 129.2 126.25 129.87 126.46 130.18 126.9 130.25 127.36 130.12 127.61 129.95 127.9 129.97 128.07 130.27 128.05 131.92 128.34 133.36 128.84 133.67 128.99 134.09 129.07 134.48 129.57 135.09 130.26 135.67 130.7 135.8 130.84 136.13 131.51 137.09 132.22 137.49 133.16 137.7 132.85 138.31 132.8 138.68 132.99 139.04 133.49 139.64 134.01 139.84 134.01 140.37 134.77 141.22 134.79 141.86 135.85 143.4 137.21 144.67 139.46 145.7 140.86 146.18 141.78 145.56 143.11 145.69 143.61 145.73 144.66 145.55 144.9 145.44 145.4 145.11 145.9 144.63 146.05 144.5 147.31 144.49 147.69 144.38 149.81 144.47 150.55 144.13 150.95 143.13 152.33 142.81 153.42 142.6 154.23 141.38 154.91 141.83 155.54 142.25 156.36 143.4 157.67 143.06 158.43 144.34 158.63 145.2 160.05 146.32 162.01 147.07 163.64 146.57 164.29 145.9 165.27 145.47 165.86 145.06 166.18 144.51 167.07 143.89 167.65 143.61 168.33 143.76 168.94 143.6 170.54 142.3 171.75 142.13 173.85 141.86 174.41 141.39 175.45 141.18 176.74 140.42 177.43 140.35 177.84 140.34 178.61 140.55 178.88 140.53 179.15 140.28 180.22 140.2 181.12 140.03 181.55 139.76 181.72 139.46 182.22 139.38 182.57 139.39 183 139.26 183.97 138.75 184.22 138.52 186.2 138.04 186.34 138.42 186 138.86 188.14 139.38 189.54 139.26 190.74 138.46 191.39 136.88 193.22 135.79 194.55 136.52 195.63 136.12 196.54 135.62 197.56 135.53 198.23 135.33 198.78 135.21 199.07 136.07 199.68 136.3 200.54 136.24 203.99 135.17 204.88 135.07 206.16 135.42 208.33 134.41 209.49 134.53 210.39 134 211.09 132.93 211.23 131.99 210.93 131.12 209.96 130.52 209.16 129.96 207.92 128.72 207.55 127.95 207.53 127.63 207.73 127.24 208.76 128.32 209.69 128.85 210.42 128.92 211.33 128.79 212.19 128.35 213.2 127.45 213.96 126.75 215.25 126.22 216.04 126.97 217.34 127.9 218.8 128.02 219.6 127.65 220.26 127.19 220.97 127.25 221.81 127.15 222.31 126.52 223.19 126.56 224.48 126.1 224.85 125.48 224.56 124.61 223.8 123.6 225.31 123.11 225.61 121.85 225.01 120.55 224.06 119.2 223.13 118.52 223.86 117.96 225.16 118.05 226.17 117.54 226.6 116.85 226.6 115.92 226.73 115.58 227.3 116.11 227.94 116.75 228.44 117.22 228.77 117.26 229.2 116.82 230.17 116.72 230.21 116.95 229.81 117.39 229.92 118.16 230.47 118.31 230.13 118.87 230.37 119.91 230.67 120.66 229.84 121.43 230.01 122.37 230.57 123.61 231.24 124.14 231.97 124.06 232.93 123.62 233.53 123.07 233.38 122.4 235.18 121.53 235.91 121.26 235.88 122.01 235.98 122.43 236.53 122.76 237.78 122.76 238.48 122.83 238.65 123.24 238.15 123.64 238.13 124.11 239.15 125.11 237.55 125.17 236.13 125.46 235.48 126.36 235.81 128.48 237.02 129.55 237.03 131.03 237.58 131.73 239.12 131.59 240.32 131.92 241.29 131.88 241.69 130.88 242.14 129.37 243.89 129.32 244.56 129.08 245.16 129.12 245.98 129.53 246.53 129.68 247.4 129.52 247.83 129.75 247.76 130.28 248.6 130.85 248.57 131.65 248.9 132.26 249.99 132.87 250.28 133.14 251.28 134.06 251.84 134.47 252.54 134.8 253.12 134.94 253.64 135.2 254.11 135.1 254.51 134.69 254.94 134.19 255.84 133.32 256.78 132.46 257.67 131.59 258.68 130.89 258.91 130.15 259.71 129.08 260.12 128.48 260.85 127.41 261.05 126.68 261.67 126.53 262.87 126.17 263.42 125.52 263.47 125.02 263.52 124.57 263.19 124.14 263.39 123.8 264.02 123.47 264.67 123.47 266.6 122.91 267.69 122.67 268.43 122.33 269.98 121.01 270.6 120.16 270.66 119.33 270.44 118.69 271.43 118.49 272.7 118.16 273.43 117.55 273.73 116.85 273.87 115.84 274.47 115.32 275.39 115.7 276.44 115.3 277.14 114.95 277.88 113.81 278.71 113.28 279.34 113.57 279.81 113.55 280.31 113.11 280.08 112.71 280.39 112.36 281.12 112.25 281.7 112.08 283.02 111.51 283.75 110.44 284.09 109 283.82 108.2 283.05 106.76 281.71 105.56 280.25 104.73 278.11 104.53 276.56 104.05 273.58 104.08 272.03 103.56 271.16 103.57 269.4 103.52 265.89 102.66 262.52 102.46 259.72 101.22 258.68 101.35 257.75 101.99 257.18 101.82 256.38 101.82 255.88 101.62 255.08 101.09 253.71 100.82 254.31 100.45 254.71 100.22 255.11 99.85 255.48 99.08 255.72 97.81 255.47 96.81 253.3 96.08 251.3 95.22 249.8 95.67 248.04 95.64 245.95 94.8 242.89 92.87 242.18 92.52 241.89 92.42 241.82 92.4 242.57 92.34 243.99 92.53 244.26 92.3 244.79 91.4 244.93 91.86 244.83 92.7 245.86 93.27 247.11 93.24 248.2 93.12 249.03 92.74 249.73 91.6 250.77 91.43 251.95 90.74 252.2 89.69 253 90.03 253.46 90.78 253.54 91.28 254.33 91.03 254.54 90.07 255.17 89.19 255.92 88.86 256.33 88.19 255.79 87.1 254.81 86.22 255.46 85.89 256.21 86.52 256.58 86.06 257.25 86.15 257.48 86.79 257.96 87.6 258.21 88.86 258.42 89.65 258.88 90.16 259.62 90.16 260.55 89.82 260.98 89.73 261.45 90.36 261.85 90.39 262.62 89.56 263.45 89.33 264.5 89.36 265.56 89.59 266.66 88.89 267.46 88.29 267.85 87.48 268.69 86.77 268.39 86.27 267.02 86.35 264.93 87.14 263.89 86.85 263.39 85.81 263.3 85.1 263.34 84.3 262.05 83.59 261.08 83.45 260.34 82.51 259.48 82.11 259.8 81.67 260.68 80.74 260.85 80.27 261.28 80.2 261.67 80.44 262.09 80.71 263.72 79.6 264.72 79.42 265.18 78.88 265.06 78.08 264.55 77.58 265.06 76.91 266.06 76.7 266.68 76.7 267.73 77.12 268.14 77.79 268.81 78.25 269.35 77.92 269.35 77.33 269.48 76.43 269.94 75.87 269.73 75.2 269.23 74.78 268.39 74.7 267.98 74.32 268.81 74.07 270.15 73.45 270.56 72.99 270.98 72.86 271.23 73.28 271.36 73.86 271.73 74.32 272.15 74.57 272.82 74.45 273.32 74.24 273.32 73.81 273.8 73.51 274.44 73.99 274.94 74.24 274.94 74.66 274.4 75.2 274.36 75.99 274.65 76.79 274.99 77.96 275.32 79.54 275.86 80.09 276.45 79.71 277.16 79.17 277.57 78.42 278.28 77.83 278.99 77.54 280.08 77.83 280.74 78.21 280.45 79.08 280.66 79.67 281.5 80.13 282.58 80.21 283.83 79.59 284.96 79.21 286.19 77.33 286.09 76.87 285.21 76.5 283.82 76.4 282.52 75.86 281.31 74.86 281.12 74.07 280.62 73.28 279.83 72.78 278.74 72.49 277.64 72.52 276.74 72.52 276.14 72.15 276.27 71.38 276.07 70.48 275.4 69.65 274.99 68.6 274.36 67.98 273.15 67.27 271.33 66.01 271.76 66.06 271.87 66.07 273.32 66.56 275.5 66.81 275.99 66.56 276.45 67.14 277.07 67.52 278.95 67.77 279.45 67.77 279.83 67.18 280.08 66.1 280.58 65.5 280.88 65.04 281.31 65.5 281.51 66.24 282.58 68.02 283.29 68.18 284.35 67.58 285.45 67.24 285.75 67.74 285.19 68.44 285.04 69.44 284.42 70.18 285 71.32 286.19 71.32 287.92 71.02 289.3 71.11 290.19 70.55 291.18 69.65 291.86 69.38 292.59 68.49 292.79 67.64 292.7 66.71 292.19 65.89 291.44 65.09 291.08 63.83 290.78 63.33 290.39 63.1 290.06 62.7 290.29 62.16 290.68 61.38 291.18 60.53 290.83 59.82 289.98 59.57 288.82 59.52 287.66 59.59 287.19 59.26 287.52 58.79 287.78 57.67 287.26 56.68 286.48 56.07 285.52 55.95 285.28 55.66 285.23 54.11 284.98 53.51 284.17 53.26 282.42 53.56 281.51 53.54 282.47 52.76 282.87 50.9 282.42 50.3 281.37 49.35 280.85 48.93 283.72 47.75 284.38 46.96 285.71 46.34 286.93 45.92 287.1 46.02 287.41 46.13 287.7 46.19 288.12 46.39 288.69 46.26 289.33 45.89 289.88 45.09 290.54 44.87 291.03 45.46 291.93 45.83 292.6 45.46 293.03 44.69 293.54 42.64 293.67 41.75 293.36 41.25 293.89 40.23 293.96 39.28 296.13 37.98 296.74 37.44 295.94 36.67 294.23 36.31 291.83 36.2 290.66 36.41 289.49 36.34 288.59 36 287.08 35.62 286.09 35.97 285.53 35.74 285.25 35.37 283.98 35.27 283.38 34.8 281.58 34.23 280.04 33.33 279.11 33.4 278.41 33.03 278.71 32.93 279.14 33 279.74 32.63 280.28 32.66 281.62 32.31 282.65 31.06 282.48 30.43 282.62 30.06 282.27 29.1 281.17 28.45 280.12 28.75 278.87 29.15 278.31 29.02 277.97 28.75 277.81 28.12 275.86 27.75 273.8 27.38 273.84 27.08 275.71 26.55 276.96 25.8 277.31 25.08 278.21 24.24 278.32 23.39 277.87 22.24 276.46 20.99 274.96 20.03 273.51 18.93 272.46 18.73 271.26 18.73 270.3 19.63 269.76 20.2 267.85 20.54 267 20.89 265.86 21.84 265.62 21.3 264.69 20.57 264.16 20.94 263.42 21.37 263.8 20.62 263.85 20.5 263.7 19.98 262.92 19.33 262.25 19.1 261.32 17.83 259.59 17.03 257.34 15.62 255.78 14.02 254.58 12.52 254.24 11.92 254.18 11.21 254.24 9.71 253.93 8.56 254.83 9.46 255.88 10.95 257.44 11.77 258.74 12.17 260.24 13.07 261.08 13.12 261.64 13.47 262.84 13.37 263.42 12.75 263.92 12.08 264.5 12.02 265.26 11.45 265.86 11.75 267.09 11.95 267.79 12.32 268.29 12.52 268.8 13.59 269.53 14.02 269.85 14.47 270.56 15.26 271.21 15.57 272.21 15.62 274.1 14.05 274.06 13.22 273.9 12.35 273.37 11.65 273.37 10.88 274.56 10.41 275.71 10.76 275.97 11.75 275.66 12.92 276.17 14.32 276.47 14.72 276.87 14.96 277.34 14.99 278.11 15.09 279.68 14.69 280.93 14.82 282.72 14.57 283.6 13.28 284.18 13.49 284.72 13.89 285.29 13.85 286.06 13.35 286.42 12.92 287.26 12.65 287.12 12.02 287.32 11.55 288.12 11.39 288.88 10.91 289.96 10.45 290.66 10.45 291.43 10.15 292.36 10.69 292.7 11.45 293.35 11.89 294.1 12.26 295.84 12.92 296.34 12.12 297.59 10.81 298.24 9.34 299.2 8.51 299.6 7.66 299.34 7.21 299.07 6.77 299.04 6.27 300.71 4.67 301.48 3.87 301.98 3.1 302.87 2.38 303.01 1.99 304.48 1.09 304.99 1.08 305.38 1.11 305.89 1.08 306.25 1 Z M 291.93 14.59 291.13 15.12 290.25 15.28 289.5 16.58 289.55 17.53 289.46 18.06 288.86 18.53 288.16 18.93 287.46 19.27 287.2 20.69 287.6 21.34 288.75 21.44 289.9 21.59 291.26 21.24 291.46 20.49 291.43 19.6 292.41 18.48 294.03 17.23 294.31 16.43 292.66 14.78 291.93 14.59 Z M 128.89 226.38 128.44 226.93 128.74 228.09 129.24 229.19 130.54 230.94 132.44 232.4 133.75 233.4 133.7 234.2 133.65 235.8 134 236.66 133.75 237.46 133.65 238.26 134.25 239.56 136.5 241.72 138.75 243.02 139.99 243.23 142.41 246.13 144.45 246.86 144.76 247.78 144.66 248.33 145.56 249.89 147.3 251.58 147.16 252.49 149.78 254.53 152.49 256.23 152.82 257.47 153.37 258.3 154.24 258.68 154.87 258.43 155.03 257.39 154.93 256 154.32 254.04 153.81 252.58 153.08 251.24 151.87 250.24 150.48 249.3 148.45 248.29 147.87 247.18 148.02 245.93 148.22 245.12 147.94 243.69 147.94 242.96 148.8 242.6 149.74 243.15 150.22 243.21 151.47 243.35 152.52 243.52 153.12 243.52 152.67 242.47 151.52 240.81 150.82 239.96 149.67 239.81 148.72 239.71 147.87 238.76 147.31 238.41 146.16 238.26 144.91 238.16 143.66 238.41 142.83 238.15 142.91 237.36 142.17 236.77 143.36 236.4 143.51 234.2 142.91 233.1 141.86 232.45 139.65 231.34 137.3 229.54 134.15 227.58 131.99 226.28 130.69 225.73 129.39 225.63 128.89 226.38 Z M 213.68 318.19 212.34 318.82 211.11 319.82 209.21 320.76 207.9 321.09 207.27 322.16 206.97 324.97 206.13 325.6 205.33 325.84 204.57 325.57 203.76 325.07 202.83 324.63 201.9 324.83 201.36 324.7 200.43 324.67 199.26 325.07 198.29 325.74 197.49 326 196.15 326.1 194.58 326.57 192.51 326.54 191.31 326.2 190.95 327.11 191.65 327.94 193.12 329.31 192.95 329.61 192.72 329.85 191.64 330.86 190.79 331.06 190.34 331.56 190.44 332.42 190.34 333.06 190.79 333.37 191.5 333.4 191.99 333.46 192.55 333.05 192.61 332.87 192.54 332.34 193.82 332.25 194.25 332.42 194.92 331.92 195.99 330.85 196.32 330.18 196.99 330.11 197.49 329.95 198.16 329.28 199.19 328.74 199.83 328.81 200.69 329.04 201.63 329.44 203.3 329.41 204.6 328.78 205.67 328.28 206.74 328.14 207.6 327.81 208.5 327.94 209.43 328 211.81 328.82 212.25 328.59 212.81 328.42 212.28 327.67 212.68 326.77 213.46 325.92 213.64 325.09 213.31 323.92 212.18 323.39 212.12 323.08 212.52 322.76 212.73 321.88 212.14 321.05 212.41 320.78 213.02 320.57 213.65 320.47 214.05 320.62 214.58 320.66 215.15 320.73 214.88 321.19 214.71 321.89 214.95 322.33 216.48 322.96 217.68 322.73 218.72 322.86 219.02 322.53 219.07 322.12 219.09 321.99 219.67 321.68 220.29 320.83 220.1 320.04 220.28 319.4 220.15 318.89 219.81 318.55 219.4 318.32 218.63 318.24 217.72 318.25 215.65 318.05 215.55 318.06 213.68 318.19 Z M 172.1 320.8 171.53 319.94 169.15 320.4 170.16 322.07 171.37 322.14 172.1 320.8 Z M 210.49 348.97 213.22 351.14 214.6 350.51 214.47 349.39 212.53 348.63 210.49 348.97 Z M 191.35 386.43 191.35 385.91 190.13 386.75 189.13 387.09 188.26 388.16 188.26 388.69 189.73 389.16 191.35 386.43 Z" fill-rule="evenodd"/>
</g>
</svg>