<?xml version="1.0"?>
<svg xmlns="http://www.w3.org/2000/svg" version="1.2" baseProfile="tiny" width="800" height="1468" viewBox="0 0 800 1468" stroke-linecap="round" stroke-linejoin="round">
<g id="biglagoon">
<path d="M 537.29 72.2 538.91 79.46 542.1 86.3 542.1 93.65 541.91 100.54 541.7 102.99 541.91 108.2 541.51 115.09 541.31 121.21 540.71 125.96 538.89 134.84 537.48 143.12 535.26 155.82 533.64 165.47 532.03 173.9 531.82 176.96 551.5 199.69 555.48 217.6 557.47 236.85 548.84 251.45 545.52 269.36 547.52 291.93 542.21 311.17 535.57 321.13 534.9 341.7 540.21 359.62 548.84 377.53 555.48 404.08 563.45 417.35 587.34 441.9 586.01 450.53 578.71 457.83 562.12 471.1 557.47 485.04 561.45 500.97 569.4 519.8 571.02 524.55 571.23 528.68 570.63 535.11 568.81 545.07 566.39 558.7 564.37 567.12 563.36 574.62 563.16 580.14 565.6 589.17 569.26 601.73 569.67 604.94 570.08 612.75 569.88 618.57 570.49 622.86 571.51 626.99 574.55 632.81 599.29 657.58 598.62 669.52 602.47 695.82 602.61 696.73 606.59 700.71 607.25 712.66 608.58 725.27 602.61 745.17 608.58 760.44 615.22 775.04 619.86 784.99 639.78 806.89 638.45 829.45 624.99 846.25 627.03 851.15 629.05 854.52 633.11 858.65 636.77 862.32 638.59 865.08 641.43 868.75 643.26 872.43 644.89 877.02 645.9 881 645.29 884.68 644.08 888.2 642.26 892.19 641.25 894.94 641.86 897.39 643.28 899.84 645.51 901.98 646.12 904.28 646.33 907.8 646.12 909.95 646.74 914.69 646.74 919.75 647.96 923.88 650.4 928.01 653.23 930.46 657.09 932.76 665.4 936.58 673.1 939.64 680.62 939.74 698.64 949.78 733.8 983.95 742.47 1002.71 742.96 1022.38 746.47 1035 745.5 1038.88 743.05 1041.76 743.72 1043.59 745.96 1047.57 747.78 1051.25 748.19 1053.54 748.4 1057.83 749.01 1064.72 749.12 1065.99 752.3 1064 754.36 1061.82 756.86 1074.33 757.66 1087.33 761.11 1114.14 760 1133.17 761.82 1134.54 764.05 1134.54 765.68 1133.93 766.49 1132.25 767.09 1128.72 767.7 1125.36 768.3 1122.45 769.31 1120 770.12 1118.92 771.55 1118.77 773.17 1119.23 773.77 1120.45 773.37 1121.98 772.96 1123.82 772.16 1125.81 772.16 1127.5 772.16 1130.87 773.58 1134.85 771.56 1135.46 777.89 1147.32 778.69 1155.69 779.49 1172.81 785.86 1188.34 794.22 1193.51 799 1200.28 795.42 1234.52 788.25 1249.65 767.54 1268.37 748.02 1279.52 740.46 1284.29 728.11 1292.66 692.67 1309.38 664.39 1327.69 649.65 1335.26 641.36 1337.34 640.76 1343.46 639.75 1352.04 638.74 1354.95 636.72 1357.4 633.27 1359.85 628.82 1362.3 622.74 1365.06 614.03 1369.2 602.27 1375.03 592.35 1379.93 580.8 1385.45 574.72 1388.21 571.28 1390.05 561 1394.74 541.09 1403.84 540.48 1403.99 534 1406.91 520.63 1413.19 502.39 1421.62 491.25 1427.14 476.87 1433.58 455.79 1443.39 449.92 1446.14 437.56 1451.97 426.22 1456.88 417.91 1460.4 409.2 1463.16 402.11 1465.16 395.62 1466.84 390.55 1467 388.53 1466.24 385.89 1463.79 382.85 1460.88 380.82 1458.28 378.79 1453.99 376.96 1449.55 375.95 1444.5 374.73 1439.44 372.49 1434.54 370.66 1428.73 367.41 1419.24 366.8 1417.4 364.97 1412.34 362.53 1405.45 360.3 1400.4 358.88 1398.87 356.04 1395.35 353.41 1392.45 351.58 1389.84 350.56 1387.39 349.54 1384.33 348.53 1379.89 347.92 1377.9 346.5 1374.99 343.86 1369.32 340.81 1363.97 336.96 1358.61 334.12 1353.86 331.48 1350.49 328.64 1347.89 324.58 1345.75 315.26 1343 303.7 1340.1 294.38 1337.96 283.63 1335.21 276.33 1333.98 265.79 1332.15 258.5 1331.08 250.39 1330.32 244.31 1329.71 234.17 1328.19 227.08 1326.97 220.99 1325.75 213.29 1324.07 207.41 1322.23 202.95 1320.86 198.49 1319.17 195.45 1318.41 190.38 1316.73 186.12 1315.05 183.89 1313.51 181.05 1311.68 179.22 1309.38 178.41 1306.47 177.6 1302.19 177.8 1297.28 178.2 1295.29 178.6 1287.48 178.79 1282.28 179.4 1277.22 179.19 1273.85 178.78 1271.41 177.97 1269.41 176.55 1268.04 174.32 1266.66 169.86 1264.98 164.59 1263.45 157.9 1262.23 150.8 1261.62 145.33 1262.24 143.96 1262.35 143.35 1262.5 139.7 1263.11 135.24 1263.88 126.32 1264.79 119.63 1267.54 110.51 1271.52 107.87 1273.97 104.01 1276.42 99.55 1278.56 92.86 1280.39 85.77 1282.84 76.44 1286.36 69.34 1289.57 62.04 1293.24 56.57 1298.14 50.68 1303.65 47.44 1308.24 46.62 1314.82 47.43 1319.42 46.82 1323.24 46.61 1330.44 46.6 1335.5 45.99 1338.71 37.68 1341.46 34.84 1344.37 31.39 1348.66 29.77 1351.57 29.77 1353.86 29.96 1356.31 30.37 1359.38 30.97 1361.67 30.37 1363.51 28.13 1362.44 24.69 1359.68 20.84 1357.08 16.18 1355.08 12.54 1354.16 10.92 1352.02 11.73 1349.57 8.7 1344.36 4.85 1341.14 3.83 1339.15 2.01 1337.01 1 1333.18 2.02 1328.43 3.64 1323.99 4.86 1320.31 7.09 1318.33 7.3 1318.17 9.73 1317.41 13.99 1315.27 15.01 1309.45 14.81 1300.87 15.83 1291.84 17.26 1286.17 17.46 1284.03 19.29 1281.58 20.91 1279.59 26.18 1276.07 31.86 1271.32 31.87 1265.97 32.68 1261.98 33.29 1259.54 36.75 1250.2 38.37 1245.15 38.78 1242.69 41.42 1237.18 43.24 1232.28 46.5 1228 49.7 1200.41 56.94 1194.89 63.63 1189.8 69.61 1179.18 94.83 1124.1 94.83 1108.07 94.83 1097.55 100.14 1086.94 110.76 1059.06 117.4 1052.43 118.15 1049.62 118.79 1047.23 120.05 1042.47 136.5 1010.95 143.95 996.68 150.16 974.32 153.91 960.85 158.91 951.24 170.5 929 176.45 913.14 176.47 913.07 189.09 891.17 191.08 871.92 199.71 857.33 207.01 828.79 234.88 769.73 244.84 749.82 252.81 725.93 247.5 709.34 266.08 698.06 274.05 682.8 272.06 674.17 277.37 658.24 304.58 629.04 315.2 601.17 329.14 557.37 335.78 548.08 331.13 530.83 348.39 500.3 362.33 482.38 373.61 468.45 375.6 449.87 389.54 433.28 393.52 422.66 406.13 401.42 410.78 372.22 420.74 361.61 414.1 353.64 420.74 337.72 439.99 315.82 442.64 294.58 455.25 281.97 466.54 264.06 473.17 248.79 470.52 228.22 475.83 211.63 487.11 203 489.77 185.09 485.12 151.24 489.77 124.03 489.77 111.42 498.89 82.34 499.09 80.04 500.71 76.82 504.15 71 506.58 65.95 508.61 58.9 507.16 50 506.94 47.86 512.61 37.9 519.25 33.38 516.33 22.24 522.43 12.94 519.78 6.57 522.17 1 529.6 1.53 529.76 7.03 534.38 25.42 536.77 36.57 540.22 45.06 542.61 52.5 542.88 60.72 537.29 72.2 Z"/>
</g>
</svg>