<?xml version="1.0"?>
<svg xmlns="http://www.w3.org/2000/svg" version="1.2" baseProfile="tiny" width="800" height="894" viewBox="0 0 800 894" stroke-linecap="round" stroke-linejoin="round">
<g id="lowerlake">
<path d="M 192.82 20.39 193.19 21.16 199.15 22.94 204.74 28.7 211.51 33.48 220.57 33.94 220.89 33.95 232.32 35.94 238.65 43.83 245.15 56.63 246.85 68.83 252.7 76.82 256.85 82.86 261.48 88.81 268.87 95.36 268.92 99.9 274.83 102.19 286.15 105.33 291.72 109.58 297.56 116.05 306.34 117.78 308.68 123.03 310.54 128.36 315.75 133.06 316.54 133.58 322.4 137.47 329.52 140.29 335.32 143.73 340.21 151.9 345.95 161.05 351.09 169.93 355.01 176.78 357.76 187.64 356.07 197.45 350.65 206.84 344.98 215.53 341.83 224.1 338.29 230.1 341.12 236.77 344.17 241.12 346.77 248.59 351.17 255.34 354.94 260.31 367.67 268.48 366.02 274.51 369.34 282.6 377.41 295.48 381.07 301.61 387.85 306.38 394.12 309.83 401.42 318.96 412.4 324.07 421.5 332.57 425.89 339.32 427.64 343.99 436.61 353.97 437.43 363.68 439.34 373.57 443.25 380.41 448.6 386.97 454.67 390.3 456.81 391.47 463.09 394.82 471.54 400.03 479.66 407.21 492 416.23 500.64 427.86 508.25 443.86 519.12 450.13 525.58 459.89 529.15 468.7 530.87 472.17 532.48 476.79 537.9 479.17 547.22 486.87 556.7 497.96 562.57 508.98 569.55 521.69 573.06 536.2 577.51 549.01 593.39 563.29 593.86 563.72 609.49 577.8 630.21 597.74 651.32 608.5 661.42 611.99 671.07 615.34 692.48 621.1 693.57 621.66 708.64 629.39 726.04 641.24 726.67 642.27 732.21 651.43 733.74 651.61 735.03 652.34 737.56 654.29 737.75 657.12 738.4 658.34 739.83 659.41 744.68 661.66 745 664.2 743.52 666.88 743.84 668.74 743.07 673.23 743.72 673.72 745.92 676.16 746.76 679.72 748.19 680.79 751.29 681.81 754.2 684.74 757.11 687.18 758.54 691.18 758.86 692.06 766.63 698.79 770.96 703.53 773.55 704.75 777.56 708.06 779.7 710.5 781.58 715.04 788.37 721.04 790.96 722.75 791.74 724.07 791.74 728.95 792.58 730.41 792.39 733.83 794.14 735.78 794.14 739.49 795.95 740.81 797.05 743.89 797.51 749.01 799 752.52 798.81 754.14 796.35 756.58 796.03 757.9 796.55 758.38 795.26 760.34 795.26 764.39 794.1 765.61 793.91 766.59 793.59 773.91 795.99 778.64 795.21 781.57 797.15 783.18 797.28 786.11 796.31 787.18 795.99 788.8 798.06 790.99 797.61 793.58 798.07 794.8 792.9 799.88 789.16 805.74 788.51 808.57 787.35 810.62 787.55 811.99 785.93 814.92 786.26 816.14 784.64 817.46 784.26 820.63 782.19 822.49 782.19 825.02 779.28 826.49 778.44 827.61 778.25 828.35 779.74 831.27 778.58 832.01 776.83 832.25 771.99 834.65 762.88 841.39 759 843.34 753.32 847.35 752.03 849.15 750.09 850.77 746.21 852.57 740.72 856.24 735.23 858.93 727.74 862.2 725.67 863.57 724.7 864.89 723.74 865.72 720.31 868.89 717.86 871.33 716.57 874.02 716.44 877.68 714.51 879.15 712.7 879.78 709.6 880.03 700.87 882.08 696.22 883.65 692.67 885.26 687.63 887.9 683.56 891.32 681.17 892.3 678.91 892.81 676.81 893 675.32 892.9 672.87 892.66 670.55 892.53 667.9 892.55 665.95 892.57 663.81 891.73 661.95 891.28 660.14 891.3 658.25 891.78 657.02 891.88 655.23 891.23 654.44 890.56 653.41 889.27 652.07 887.81 650.71 886.69 648.96 885.61 647.4 885.02 645.33 884.79 644.48 883.99 643.63 883.17 643.58 881.95 643.4 880.19 642.68 879.56 641.85 879.26 640.17 879.1 639.56 878.73 638.67 877.32 638.35 876.05 638.15 874.09 637.13 871.46 635.96 869.53 634.23 868.87 632.79 868.62 630.22 869.09 629.06 869.88 626.84 871.84 625.5 873.36 624.47 874.22 623.29 874.86 621.68 875.54 620.76 876.13 619.93 876.8 618.37 878.22 617.21 879.05 615.73 879.83 614.3 880.12 612.03 880.48 610.4 880.67 607.52 880.77 605.43 880.32 604.02 879.88 602.52 879.14 601.77 878.47 599.17 875.54 597.63 874.27 596.58 873.62 594.92 871.86 593.6 871.47 592.51 871.42 591.17 871.86 589.66 872.55 589.01 872.63 587.59 873.81 586.58 875.03 584.83 877.37 583.39 879.03 582.09 880.26 580.21 881.52 577.89 882.12 576.66 882.36 576.4 882.11 574.54 880.74 573.36 879.23 571.83 877.17 570.53 875.37 569.68 873.52 568.97 871.36 568.39 870.01 566.98 868.54 565.69 867.27 563.73 865.85 563.56 865.02 564.14 864.05 565.77 862.69 568.08 860.87 570.16 859.61 571.33 858.38 572.03 857.69 573.45 856.56 576.55 854.76 578.06 852.86 578.94 851.6 579.23 849.48 578.04 848.17 575.34 846.51 573.27 845.4 571.47 843.93 569.85 841.97 569.46 840.74 567.91 837.51 566.74 835.61 564.86 833.55 562.74 831.96 561.63 830.35 561.19 828.87 561.44 826.78 562.35 824.47 563.77 822.52 566.22 820.53 567.6 818.82 567.66 816.97 567.15 815.45 566.16 813.99 564.5 812.08 562.31 809.77 560.8 808.4 559.32 807.03 557.07 805.58 555.33 804.25 553.88 802.84 552.47 801.52 551.24 800.35 550.42 798.6 549.9 797.47 547.94 796.14 546.45 794.96 544.34 793.07 542.4 791.11 540.07 790.04 538.2 789.7 536.45 789.84 535.42 789.7 533.01 790.14 530.03 791.36 527.45 792.37 524.48 793.15 521.58 793.88 518.86 793.93 516.6 793.8 515.03 793.55 513.69 793.94 512.39 794.28 510.77 794.23 509.81 793.78 509.02 793.3 508.25 793.02 506.64 792.87 503.8 792.72 501.58 792.27 499.63 792.36 496.56 792.52 494.22 792.66 490.93 792.45 487.35 792.03 484.96 790.94 482.26 790.25 479.67 790.5 477.34 791.49 474.29 793.15 473.33 793.72 470.08 795.25 465.75 796.23 462.34 796.8 459.37 797.83 455.87 799.09 451.58 800.75 449.07 802.71 446.47 805.2 444.43 807.49 443.11 809.49 441.31 812.32 440.35 814.09 440.45 815.07 439.49 815.88 438.6 817.45 437.23 820.09 436.65 821.21 434.39 822.93 432.13 824.13 428.51 825.12 425.46 825.51 422.02 825.84 418.72 825.79 416.84 825.9 414.66 826.48 411.56 828.47 409.67 831.27 407.92 833.42 405.48 836.14 403.01 838.64 400.74 841.09 398.54 843.37 396.42 844.82 393.45 845.85 390 846.55 386.27 846.97 384.26 847.09 382.59 846.69 381.16 845.76 379.61 844.74 378.64 843.62 377.79 842.83 376.95 842.69 376.3 842.68 375.79 842.5 374.42 841.99 372.69 841.32 370.81 840.53 368.02 839.46 365.7 839.49 363.69 840.39 362.39 840.93 360.84 841.85 358.65 842.52 355.37 842.15 353.17 842.14 350.95 842.69 348.96 843.31 346.35 843.95 344.56 844.29 342.62 844.43 340.29 844.44 336.99 844.62 335.19 844.28 331.56 843.17 329.63 843.06 327.15 843.94 325.8 844.58 323.3 845.05 320.49 844.91 318.17 844.43 316.05 844.03 314.04 844.24 311.77 845.25 311.05 845.65 309.51 846.33 308.02 846.63 306.33 846.62 304.35 846.12 302.33 845.31 300.02 844.9 298.2 845.07 296.96 845.24 295.6 845.34 293.35 845.11 291.97 844.52 290.35 843.64 288.69 843 287.27 842.71 286.24 842.72 284.94 842.87 282.6 843.44 280.8 844.02 279.63 844.27 278.66 844.23 276.59 843.04 274.41 842.52 273.87 842.17 273.55 841.97 273.11 841.4 272.65 840.8 271.35 839.78 270.47 839.16 269.88 838.07 269.36 836.99 268.14 835.87 267.41 835.24 266.43 833.37 265.49 831.33 264.51 830.46 263.33 829.88 261.39 828.69 260.64 828 259.67 827.03 258.09 825.71 257.53 825.77 255.91 827.14 254.62 828.07 253.78 828.15 252.82 827.91 251.96 827.27 250.55 825.7 249.77 823.86 249.32 822.43 248.33 821.12 246.8 820.29 245.77 820.1 242.31 820.05 240.2 820.23 237.09 820.69 234.45 821.26 231.85 821.65 231.15 820.1 231.21 819.03 231.13 817.41 231.47 815.93 231.77 814.37 232.1 813.25 231.6 812.51 230.95 811.35 231.59 810.66 232.51 810.13 235.02 809.64 237.42 808.16 238.2 806.81 238.05 805.59 237.56 804.65 236.24 803.29 232.87 802.27 231.07 801.98 228.62 801.74 226.81 801.44 225.5 801 222.86 799.69 221.52 798.93 219.77 798.07 217.75 796.26 216.26 794.25 214.9 792.01 214.21 789.09 213.35 786.34 213.48 784.14 213.62 782.88 213.3 781.41 212.6 780.05 211.02 778.73 210.31 777.5 209.88 775.66 209.08 774.18 208.2 773.7 206.38 772.62 204.84 771.35 202.94 769.92 201.61 768.95 199.4 768.13 196.03 767.14 194.14 766.55 192.55 765.65 191.58 764.7 190.41 762.56 190.14 760.6 189.97 758.94 189.61 757.68 189.19 755.57 188.78 753.17 187.82 751.43 184.13 749.41 182.64 749.53 181.5 749.95 179.95 751.07 179.49 751.14 177.6 750.45 174.63 749.03 173.27 748.05 172.56 746.87 172.24 745.77 172.17 744.79 172.49 743.79 173.74 742.25 175.26 740.78 175.61 739.99 175.54 739.1 175.15 738.14 173.98 737.07 173 736.47 170.82 735.75 169.96 735.3 168.09 734.14 164.93 733.55 162.46 732.9 160.92 732.58 159.35 731.9 157.34 729.84 156.65 729.19 155.56 728.8 153.79 728.6 151.8 728.03 150.43 727.2 149.73 726.85 147.48 726.57 145.66 725.54 143.91 724.7 142.3 724.31 140.3 724.27 138.93 724.47 135.1 725.19 133.5 725.72 131.95 726.65 130.07 727.99 128.78 728.72 126.26 729.98 124.96 730.17 124.63 730.31 123.42 730.66 122.32 730.81 120.44 730.95 119.21 730.86 117.59 730.07 116.61 729.2 115.13 727.74 114.02 726.91 112.47 726.96 111.07 727.3 109.69 727.84 107.69 728.96 105.28 730.43 103.88 730.82 102.26 731.01 100.39 730.77 98.63 730.22 96.83 729.53 94.88 728.82 92.83 728.27 90.69 727.35 88.75 726.12 88.22 725.53 87.83 724.57 86.85 722.55 86.21 721.15 85.44 719.72 84.87 718.32 84.28 717.58 83.32 715.97 82.28 713.95 81.23 712.15 80.14 710.84 78.83 709.08 77.21 707.03 76.33 705.13 75.55 702.82 74.84 700.54 74.31 698.68 74.25 697.7 74.38 695.4 74.3 693.69 73.88 691.63 73.65 689.31 73.08 687.64 72.44 686.31 70.89 684.28 70.1 683.39 69.41 682.72 68.5 681.92 67.25 680.46 67.01 679.63 67 678.84 67.26 677.58 67.65 676.75 68.81 675.58 70.8 673.83 72.37 672.26 74.04 670.48 75.54 668.85 77.21 667.21 79.3 665.32 80.9 663.66 82.93 661.96 83.96 660.98 84.54 659.69 84.98 658.09 85.05 656.87 84.72 655.84 84.47 653.51 84.59 651.63 84.9 649.64 84.93 647.59 84.79 646.75 84.45 645.21 84.79 642.55 85.3 640.36 86.01 638.27 86.93 636.55 87.89 634.79 88.48 633.38 88.94 632.31 90.87 629.32 91.95 627.48 92.55 626.05 92.68 624.92 92.61 622.87 92.69 621.21 92.68 620.19 92.86 618.77 93.38 616.58 93.51 615.41 93.57 614.24 93.72 612.63 93.83 611.07 94.22 608.71 94.93 606.42 95.44 604.33 96.35 602.08 97.52 599.73 98.62 597.72 99.15 596.16 99.53 594.22 99.78 592.31 100.05 590.66 99.52 587.67 99.23 585.76 99.01 583.22 98.76 581.82 98.19 580.35 97.4 578.57 97.2 576.59 97.07 575.42 95.86 573.61 94.12 571.31 93.32 569.64 92.73 567.85 92.35 566.47 91.57 564.09 90.56 562.51 89.25 560.66 88.07 558.9 87.77 558.21 87.38 556.91 86.47 554.94 85.61 553.34 84.38 552.17 82.76 551.24 81.99 550.99 80.78 550.31 79.61 549.53 78.38 548.26 77.4 546.59 77.03 544.85 77.02 543.04 77.73 540.63 78.45 539.42 79.02 538.68 79.42 538.19 80.24 536.79 80.31 535.67 79.98 534.49 79.29 533.75 77.74 532.62 76.31 530.67 75.65 529.8 75.14 528.57 74.3 526.38 73.98 524.08 73.84 522.08 73.77 519.98 73.51 517.97 73.59 517.17 73.65 516.55 73.98 515.1 74.64 513.74 75.19 512.45 75.71 511.1 75.72 509.87 75.9 508.02 76.18 506.12 76.37 505.24 76.44 504.22 76.43 502.67 76.04 499.91 76.29 499.09 75.85 496.66 75.76 495.2 75.83 493.83 76.4 491.91 76.76 490.98 77.26 489.28 80.32 483.18 81.2 481.7 82.12 480.2 82.64 478.92 82.83 478.04 83.08 477.17 83.29 475.61 83.42 474.49 83.74 473.44 84.25 472.43 85.1 471.22 87.94 468.24 89.1 467.21 90.33 466.13 92.08 464.81 93.18 463.83 94.28 462.7 94.93 461.39 95.39 460.18 95.72 458.99 95.88 457.67 96.54 456.17 97.33 454.79 97.83 453.28 98.75 450.49 99.25 448.93 99.79 447.14 100.31 445.9 101.06 444.45 101.78 443.02 102.57 441.37 103.13 440.06 103.98 438.53 104.83 437.16 106.05 435.42 108.76 432.48 110.2 430.73 111.88 428.53 112.96 427.01 114.35 425.05 115.29 423.58 116.27 422.37 117.19 420.66 117.95 419.11 118.48 417.58 118.99 415.63 119.17 413.78 119.19 411.19 118.99 410.01 118.79 408.11 118.47 407.02 117.78 405.18 117.19 404 114.61 399.51 113.3 397.71 111.6 396.04 108.64 394.53 105.52 392.62 103.59 391.37 102.44 390.64 98.34 385.98 97.06 384.13 96.48 383.11 96.46 381.55 96.47 380.18 96.6 378.96 94.72 374.66 94 373.77 93.56 373.34 92.73 373.09 91.18 372.89 89.82 372.89 82.03 374.62 77.76 375.84 75.64 376.27 74.08 376.46 73.31 376.48 72.39 375.63 72.28 375.04 72.46 374.41 72.93 373.93 73.82 373.19 75.5 372.16 77.24 371.49 79.11 370.47 80.56 369.58 85.73 365.42 87.47 363.67 89.1 362.16 89.8 361.27 90.64 360.45 91.82 359.61 92.06 359.33 91.95 358.83 91.54 358.34 90.91 357.67 90.83 357.18 91.36 355.7 91.18 355.13 89.15 354.73 87.79 354.83 86.36 355.03 84.37 355.7 83.32 356.15 82.64 356.28 82.03 356.1 81.78 355.81 81.86 354.05 81.78 353.41 81.25 352.72 80.87 352.4 80.17 352.09 79.46 351.91 78.49 352.04 77.05 352.33 75.88 352.78 74.8 353.22 73.18 354.2 71.36 355.56 67.79 359.33 65.47 362.35 64.62 363.58 63.35 364.88 62.23 365.67 61.27 366.26 59.96 366.7 57.91 367.18 56.02 367.57 54.79 367.62 53.5 367.47 52.22 367.19 50.84 366.7 49.62 366.46 48.52 366.37 47.81 366.16 46.64 365.29 45.67 364.27 45.55 363.68 45.6 360.99 45.99 359.71 46.11 358.93 45.79 357.82 45.15 356.34 44.39 354.89 43.86 353.96 42.93 352.5 42.09 351.31 41.15 350.3 40.09 348.93 39.45 347.6 38.92 344.62 38.28 342.14 37.97 340.72 37.84 339.59 38.15 337.74 38.61 335.45 38.48 334.33 38.21 333.69 37.72 332.65 37.45 331.94 37.7 330.99 37.82 330.31 37.58 329.67 36.99 328.95 36.4 327.92 36.42 327.18 36.54 326.41 37.05 325.68 37.7 324.54 38.09 323.23 38.28 322.31 36.65 319.32 35.84 318.26 35.24 317.81 34.06 317.08 32.85 316.4 31.6 315.92 28.57 315.82 27.14 315.62 25.79 315.43 24.71 314.92 23.34 313.95 22.42 313.32 21.46 313.04 18.62 313.77 17.58 314.1 16.35 314.1 15.38 313.92 13.55 313.27 12.79 312.9 11.93 312.25 10.77 310.98 9.75 309.48 9.29 308.54 9.22 307.61 9.66 305.81 9.95 304.89 9.95 303.86 9.79 303.47 9.36 302.73 8.71 302.03 5.55 299.32 3.71 297.95 2.63 297.17 1.25 295.51 1 293.06 1 292.04 1.01 290.67 1.13 289.65 1.51 288.8 1.97 287.78 2.35 286.71 2.5 286.03 2.36 285.34 2.04 284.26 1.58 283.25 1.58 282.23 1.57 281.2 2.1 279.87 2.75 278.46 3.27 277.47 3.39 276.69 3.33 275.37 3.33 274.1 3.39 273.17 3.72 271.96 4.23 271.04 6.05 268.65 7.98 266.92 9.28 265.55 14.08 261.75 18.8 258.67 20.49 257.41 21.52 256.43 22.03 255.8 22.41 255.02 23.02 254.08 23.96 252.97 25.41 251.95 26.5 251.06 27.6 250.08 28.57 249.09 29.28 247.93 29.93 246.7 30.38 245.63 33.92 241.93 34.99 241.04 35.82 240.22 36.4 239.13 36.4 238.21 36.19 237.37 36.15 236.59 36.28 235.52 36.6 234.59 37.17 233.72 39.04 231.8 41.37 229.72 42.47 228.64 43.96 227.51 45.08 226.68 45.72 225.86 46.63 224.82 50.24 217.46 51.66 214.38 52.05 213.36 52.31 212.14 52.24 210.97 52.11 210.13 51.8 209.35 50.69 207.55 50.3 206.66 50.45 205.98 50.75 205.45 53.15 202.12 54.13 200.69 54.78 199.53 56.27 196.21 57.02 194.68 57.74 193.38 58.48 192.61 59.57 191.77 60.86 190.98 62.01 190.25 62.87 189.53 63.44 188.93 65.65 182.1 66.11 180.62 66.55 178.82 66.95 177.46 69.66 173.21 70.5 172.19 71.35 171.01 71.73 169.99 71.99 169.12 71.98 168.14 71.79 166.77 71.6 165.64 71.59 164.71 71.75 163.94 72.31 162.41 72.71 161.04 73.16 159.83 73.41 158.17 73.6 157.15 73.8 154.64 73.95 152.93 74.01 151.81 74.72 148.5 75.02 147.33 75.5 145.36 75.67 143.95 75.86 141.7 75.87 140.29 75.16 134.58 74.84 132.43 74.52 131.06 74.31 129.64 74.12 128.07 74.13 126.6 74.26 125.48 74.43 124.17 74.75 123.05 75.1 122.32 75.29 121.25 75.48 120.28 75.41 116.12 75.16 111.43 75.1 110.21 75.04 108.74 74.78 106.73 74.44 104.92 74.07 103.28 73.28 101.36 72.75 99.86 72.31 98.29 72.11 97.31 71.91 96.23 71.79 94.96 70.75 85.2 70.35 83.09 69.85 80.42 69.28 78.9 68.3 76.85 67.4 75.54 66.28 74.26 65.63 72.95 65.44 71.73 65.43 70.9 65.83 69.68 67.2 68.02 67.96 67.32 68.48 66.35 68.74 65.04 69 64.02 69.15 63.44 68.17 62.59 70.22 54.54 72.25 53.62 72.76 54.92 75.08 56.74 75.28 56.53 76.57 55.62 77.88 55.03 78.89 54.63 79.87 54.38 84.98 54.64 86.76 54.79 88.38 54.77 89.71 54.69 91.27 54.52 92.58 54.1 93.43 53.75 94.12 53.27 94.76 52.48 95.17 51.8 95.87 51.06 96.71 50.14 97.57 49.4 98.53 48.68 99.19 48.23 99.94 47.9 100.79 47.94 104.63 48.42 106.11 48.57 107.8 48.42 108.42 48.24 109.26 48.13 110.36 48.15 111.33 48.29 114.92 49.74 116.58 50.37 117.52 50.59 118.68 50.68 120.66 50.37 123.46 49.81 124.8 49.46 126.04 49.07 127.85 48.14 129.24 47.41 130.32 46.92 131.43 46.52 132.83 46.18 134 46.12 138.92 46.03 139.89 46.12 140.61 45.94 141.86 45.4 143.08 44.61 144.24 43.68 145.07 42.86 145.85 41.78 146.39 40.03 146.45 38.95 145.97 35.28 145.99 33.62 146.12 32.55 146.24 31.87 146.49 30.9 146.9 30.17 147.28 29.57 148.26 28.17 149.02 27.57 151.76 25.71 153.05 24.9 154.01 24.21 155 23.37 155.84 22.36 156.68 21.32 158.56 19.23 159.39 18.29 159.83 17.76 160.5 17.28 161.98 16.26 161.34 13.9 160.95 12.87 159.72 10.43 159.35 9.01 159.21 8.15 159.07 7.27 158.25 5.64 157.28 4.53 156.49 3.73 155.78 2.52 155.45 1.74 156.6 1 174.6 4.47 180.13 9.35 181.42 9.25 182.79 9.25 184.01 9.37 185.1 9.71 186.06 10.14 187.17 10.86 188.21 11.86 189.56 13.52 190.54 15.27 191.57 17.61 192.82 20.39 Z M 152.19 712.7 150.56 711.77 148.1 710.68 145.06 709.68 143.91 709.27 142.1 707.97 140.61 706.99 138.47 706.1 136.35 705.57 134.86 705.52 131.76 705.62 129.29 705.94 127.21 706.15 125.79 706.1 124.56 706.21 121.92 706.77 119.22 708.58 117.26 710.31 116.82 712.11 117.07 714.46 117.34 716.49 117.32 719.08 116.88 720.9 116.88 721.93 117.27 724.16 118.18 726.42 119.13 728.07 120.3 729.09 121.54 729.58 122.63 729.11 124.82 728.22 126.91 727.5 127.67 727.04 129.04 725.58 130.47 724.21 131.88 723.43 134.52 722.66 137.58 722.03 139.98 722.07 141.83 722.81 143.66 723.18 144.88 723.5 145.71 723.93 146.83 724.46 148.88 724.96 150.32 725.49 151.6 725.98 152.49 726.46 154.11 726.41 156.31 726.47 157.75 726.96 158.9 727.49 160.41 727.69 161.96 727.93 163.11 728.27 164.04 728.85 165.43 729.82 167 730.31 170.43 731.3 172.37 732.38 174.31 733.69 175.98 734.08 177.42 734.57 178.96 734.96 180.57 735.4 181.29 736 181.43 736.81 180.85 737.99 178.58 740.28 177.14 741.79 175.66 743.75 175.39 745.26 175.53 746.19 175.99 746.98 176.42 747.62 177.55 748.88 178.38 749.17 180.07 749.02 181.92 747.61 183.41 746.39 184.58 746.34 185.44 746.79 186.86 747.87 189.06 749.12 191.43 749.75 193.19 749.41 195.12 748.59 197 747.48 198.1 746.25 199.34 745.07 199.84 744.4 199.96 743.42 199.93 742.49 200.11 741.76 200.1 741.03 199.93 740.29 199.33 739.8 198.05 739.21 196.49 738.53 195.45 737.46 193.33 735.84 191.12 735.11 189.19 734.67 186.79 733.89 185.36 732.97 183.95 731.36 182.9 730.63 181.04 729.3 178.78 727.97 176.84 726.91 175.85 726.36 175.13 725.54 174.77 723.63 174.51 722.6 174.04 722.08 173.2 721.72 171.54 721.18 170.04 720.6 169.26 719.68 168.67 718.54 167.95 717.68 167.01 716.71 166.04 715.86 164.01 715.34 161.62 715.23 160.01 715.13 157.49 714.79 155.03 714.02 153.3 713.23 152.19 712.7 Z M 284.04 782.5 284.69 782.29 285.68 781.82 286.76 781.22 287.23 780.84 287.41 779.92 287.91 778.34 287.88 777.41 287.36 776.35 285.98 775.96 284.36 776.11 283.07 775.91 282.18 775.41 282.05 774.33 282.76 770.97 282.19 769.6 281.39 768.04 281.26 767.06 281.64 766.14 282.64 765.35 283.54 764.51 283.78 763.93 284 763.15 283.27 762.38 282.32 761.83 280.75 761.44 279.19 761.63 277.59 762.07 276.55 763.39 277.06 764.87 277.59 766.56 277.4 767.36 276.22 769.05 274.54 770.08 273.3 770.52 271.19 770.88 269.96 770.93 267.49 772.23 265.93 773.64 263.88 776.1 263.42 777.75 262.51 779.96 260.25 783.02 258 786.02 256.88 787.76 257.07 789.96 258.51 792.74 259.99 794.16 260.94 795.79 261.6 797.48 261.81 798.27 261.01 801.04 260.18 802.86 259.8 804.95 259.58 806.76 259.26 807.75 258.31 808.42 256.8 809.1 255.51 809.01 253.85 808.32 252.08 807.73 251.44 807.74 250.14 807.79 247.89 808.46 246.46 809.78 245.11 810.71 243.93 811.16 242.77 811.02 242.26 810.71 242.32 809.98 242.77 808.87 242.98 808.28 242.83 807.89 242.21 808.27 241.5 809.11 240.58 809.68 238.98 810.17 237.55 810.46 235.66 810.77 234.77 811.29 234.43 812.12 235.67 812.58 236.3 812.18 237.36 812.51 238.25 812.82 238.44 814.14 237.55 814.96 235.87 815.78 234.64 816.76 234.3 817.66 235.15 818.39 236.1 818.82 237.94 819.07 239.28 818.72 240.2 818.18 241.24 816.83 242.39 816.19 244.78 816.18 246.92 817.36 248.34 818.53 249.46 819.02 250.14 818.74 251.27 817.95 251.82 816.79 252.02 815.44 252.41 814.18 252.46 813.45 252.42 812.81 252.98 812.38 254.05 812.47 256.16 813.17 256.68 814.18 258.04 816.47 259.06 816.83 259.78 816.43 260.56 815.42 260.88 814.23 261.08 813.01 261.87 812.58 263.21 812.19 264.84 811.51 265.8 810.72 266.58 810.93 268.27 811.54 269.68 812.08 271.05 812.66 271.57 812.77 272.52 812.13 274.42 811.55 276.07 811.4 279.05 812.38 282.1 814.19 284.42 814.48 286.63 813.95 288.3 813.61 290.63 813.26 291.93 813.11 292.62 812.69 293.03 812.08 292.7 811.27 290.76 809.99 289.26 809.31 287.27 809.05 284.49 809.01 282.35 809.02 279.71 808.48 278.49 808.37 276.27 807.99 273.63 807.45 272 807.01 270.66 806.38 270.22 805.98 269.95 805.15 270.34 804.08 270.78 803.35 272.92 800.8 274.54 799.73 275.77 798.75 276.81 797.25 278.62 796.3 280.69 795.19 281.98 794.21 282.81 793.4 283.65 792.31 283.64 791.53 282.56 791.14 281.27 790.85 280.41 790.5 280.3 789.86 280.68 789.04 281.73 787.46 283 785.92 283.45 785.03 283.59 783.66 283.6 783.22 284.04 782.5 Z M 303.89 842.77 304.6 844.13 306.08 845.44 306.66 845.65 308.54 845.24 310.35 844.22 311 843.16 311.39 841.94 312.03 841.25 312.88 840.82 313.39 839.98 313.25 839.29 312.36 838.52 311.12 838.03 309.84 837.4 308.73 836.6 308.21 835.64 308.33 834.96 309.5 834.71 312.62 834.17 314.48 833.55 315.13 832.51 316.05 831.01 316.3 830.16 316.03 829.49 315.72 828.85 315.96 828.22 316.5 827.57 316.68 826.99 315.47 826.41 313.96 826.16 313.26 826.64 312.3 827.43 311.51 827.93 310.8 828.01 310.56 827.42 310.42 826.49 310.29 825.56 309 825.32 307.89 825.77 307.33 826.32 306.91 827.24 306.92 829 307.17 830.37 306.79 831.29 305.51 831.78 304.52 832.4 304.4 833.33 304.41 834.21 303.71 834.95 302.09 834.95 298.65 835.38 296.2 835.14 293.4 835.63 291.97 835.78 290.69 835.54 289.77 834.79 288.29 832.54 287.34 831.62 285.59 830.74 284.24 830.55 283.32 830.75 282.72 831.37 282.09 832.22 281.77 833.14 282.23 833.93 283.27 834.8 284.94 836.22 286.24 837.1 286.93 838.06 287.65 839.88 288.16 841.14 289.32 842.28 291.98 843.4 294.23 843.68 295.41 843.19 297.1 842.95 299.62 843.12 300.08 842.9 300.9 842.48 301.42 841.24 302.08 840.62 302.99 840.56 303.37 840.81 303.63 841.98 303.89 842.77 Z M 377.94 837.8 378.13 839.07 378.62 840 380.19 840.45 381.04 840.19 381.8 839.59 382.07 839.06 382.77 837.46 383.82 836.77 387.24 836.19 388.4 836.09 390.74 836.86 391.31 837.22 392.34 837.36 392.8 837.12 392.54 836.09 391.77 834.83 390.73 833.88 389.56 833.99 387.68 834.39 385.48 834.28 383.49 833.74 382.07 832.76 381.94 831.54 382.01 830.17 381.81 829.31 381.42 828.33 380.27 829.02 380.13 829.41 379.74 830.47 379.23 831.2 376.9 831.45 375.8 831.51 374.42 832.04 373.98 832.62 373.99 833.5 374.55 834.41 375.85 835.27 376.95 836.24 377.94 837.8 Z M 111.5 705.91 111.62 705.01 111.58 704.3 111.04 703.95 110.46 703.65 109.63 703.47 108.71 703.84 107.3 704.67 106.07 705.56 105.04 706.44 104.01 707.67 103.68 708.93 103.68 710.11 103.23 710.98 102.71 712.12 102.5 712.8 102.57 713.78 103.04 714.05 103.82 714.07 105.23 713.28 106.2 712.2 106.97 711.43 107.75 710.39 108.91 709.17 110.27 707.95 111.04 707.03 111.39 706.5 111.5 705.91 Z" fill-rule="evenodd"/>
</g>
</svg>