<?xml version="1.0"?>
<svg xmlns="http://www.w3.org/2000/svg" version="1.2" baseProfile="tiny" width="800" height="395" viewBox="0 0 800 395" stroke-linecap="round" stroke-linejoin="round">
<g id="shermanlake">
<path d="M 799 339.64 780.45 337.47 781.89 335.51 782.13 333.5 782.53 331.56 781.44 330.45 781.42 330.43 782.29 329.23 782.53 328.67 782.38 326.16 782.14 325.84 781.18 325.09 779.67 324.46 777.13 324.14 771.89 323.7 768.95 322.88 766.65 322.38 763.95 322 758.47 321.62 752.91 321.75 747.98 322.25 742.58 323 730.66 325.51 724.71 326.51 709.69 328.57 703.65 329.83 701.67 330.02 700.16 330.02 696.19 329.76 694.44 329.83 690.15 330.58 687.05 330.7 685.46 330.58 682.53 330.14 679.98 329.63 678.71 329.26 677.52 328.81 674.98 327.49 673.39 326.55 672.36 325.73 671.17 324.54 666.56 319.14 663.79 316.56 657.91 311.98 648.14 305 642.19 299.72 623.53 283.77 620.19 281.19 613.2 276.67 606.53 273.21 599.23 270.13 595.25 268.68 588.5 266.99 581.27 264.72 572.3 262.15 563.4 259.19 562.21 259 560.78 258.88 559.99 259.13 559.67 259.38 559.35 259.88 559.11 260.64 558.71 272.32 558.86 287.45 558.22 299.01 558.44 300.11 558.78 301.77 559.41 304.03 559.81 304.54 560.36 304.85 561.08 304.66 561.4 304.47 561.95 303.59 562.03 303.22 561.64 293.67 562.91 289.02 563.39 286.64 564.91 274.83 565.62 272.26 566.42 270.12 567.45 268.87 568.01 268.36 568.64 268.05 569.36 267.86 572.14 267.92 587.55 271.19 588.5 271.57 588.79 271.73 592.23 273.58 594.93 274.65 597.71 275.53 601.76 276.16 603.35 276.54 604.94 277.1 606.53 277.98 613.76 281.56 615.82 282.89 617.41 284.14 618.36 285.08 622.41 290.36 623.52 291.43 630.51 296.64 634.32 300.16 635.67 301.17 636.79 302.17 638.85 304.37 639.64 304.94 641.23 305.63 642.18 306.19 644.65 308.39 648.06 310.28 649.73 311.41 658.86 317.63 662.83 319.89 664.34 321.02 670.29 327.24 672.36 329 674.82 330.57 677.36 331.7 679.74 332.52 684.35 333.84 686.81 334.47 693.56 335.67 696.66 336.36 699.76 336.86 702.86 336.99 705.64 336.93 709.45 336.17 710.24 336.11 713.26 336.3 716.84 336.37 729.39 334.67 732.88 333.8 734.55 333.29 735.9 332.73 737.09 332.04 740.43 329.34 741.63 328.65 742.58 328.27 743.53 328.15 745.28 328.34 746.23 328.65 747.74 329.28 749.41 330.22 751 331.29 752.74 332.67 757.16 336.51 751.21 335.32 750.6 334.49 746.23 330.91 745.59 330.6 744.72 330.35 743.77 330.22 742.97 330.35 742.02 330.66 741.38 331.29 740.27 332.86 739.4 334.74 739.08 334.99 737.01 336 731.37 338.26 728.19 339.32 721.84 340.89 720.49 341.77 719.22 342.77 718.66 343.02 712.7 344.53 710.87 345.16 707.3 346.66 697.6 351.06 694.03 352.75 682.11 359.21 679.41 360.91 678.22 361.47 675.36 362.48 671.78 363.42 661.3 365.23 651.29 366.49 643.11 367.11 640.48 367.49 639.29 367.93 638.34 368.12 636.12 367.8 635.56 367.86 635.4 368.18 635.4 368.68 635.72 369.31 636.19 369.88 636.97 370.43 627.34 370.6 627.14 370.63 627.22 370.44 627.14 370.06 626.9 369.94 624.99 370 622.45 370.31 613.4 371.88 607.92 372.32 602.91 373.32 580.91 376.77 558.9 379.59 555.33 379.65 553.98 379.33 553.03 378.83 552.47 377.95 552.45 377.72 552.31 376.51 552.55 375.06 553.35 372.8 553.67 370.79 552.95 369.73 552.47 369.41 551.44 369.16 550.65 369.29 549.38 370.73 548.11 372.43 547.07 374.37 546.36 376.32 546.04 378.01 546.04 378.89 546.28 379.71 546.75 380.59 547.55 381.59 549.05 383.35 536.62 388.3 536.66 387.69 536.19 384.23 536.67 377.32 537.07 367.9 538.19 334.99 537.88 324.44 538.99 311.25 539.24 305.22 539.03 304.51 539 304.41 538.68 303.97 537.88 303.84 537.73 304.03 536.53 313.39 536.53 314.7 536.37 315.9 535.5 318.29 535.34 319.04 535.55 320.19 535.81 321.62 535.73 322.12 535.02 323.56 535.02 326.07 533.67 330.97 533.77 331.58 533.9 332.29 535.09 334.93 535.33 336.06 535.25 336.81 535.01 337.13 534.54 337.57 533.74 338.01 532.63 338.38 530.88 338.7 522.94 338.5 520.32 338.19 518.41 337.81 517.46 337.5 513.09 333.98 512.61 333.73 510.23 333.42 508.96 333.54 508.56 333.86 506.89 336.3 505.38 337.75 504.43 341.26 504.43 342.21 504.8 343.47 507.44 352.51 508.71 360.55 508.47 361.93 508.47 362.87 508.63 363.12 508.95 363.31 510.06 363.56 515.62 364.32 521.42 361.55 523.01 360.86 523.33 360.93 523.65 361.43 523.49 361.68 522.61 362.43 521.42 363.25 520.55 364.19 519.83 365.38 519.43 367.14 519.27 368.9 519.27 369.72 519.67 371.35 520.07 371.73 521.18 372.36 522.45 372.99 523.32 373.24 529.28 373.55 530.87 373.87 531.82 374.24 532.06 374.62 532.08 374.68 532.77 376.82 533.09 382.47 533.01 383.41 532.69 384.42 531.97 385.92 530.94 386.99 529.43 387.75 527.13 388.25 524.75 388.62 524.03 388.44 523.24 388 523.32 387.24 525.14 385.99 526.02 385.23 526.34 384.67 526.1 384.17 525.46 383.54 524.59 382.97 523.72 382.72 522.6 382.66 521.57 382.91 519.19 383.72 518.39 383.85 517.2 383.79 517.2 383.6 517.44 383.41 519.27 382.59 519.9 382.15 520.06 381.84 520.04 381.6 519.98 381.15 519.67 380.52 516.65 376.12 516.56 375.96 516.17 375.24 515.94 374.49 516.81 368.34 516.81 367.33 516.65 366.7 516.34 366.39 515.62 366.2 507.84 365.88 506.96 366.01 506.01 366.76 503.94 368.84 501.32 370.53 500.53 371.35 500.29 371.91 500.21 372.42 502.43 378.26 502.43 378.37 502.51 381.4 502.35 381.77 501.4 382.15 499.57 382.4 494.33 382.84 494.25 383.03 494.3 383.23 494.41 383.66 494.72 384.03 495.2 384.35 496.55 384.85 496.47 385.04 492.98 388.11 492.1 388.55 491.23 388.81 488.61 389.12 488.05 389.31 487.26 390 486.38 391.06 486.06 391.19 485.59 391.07 484.32 390.19 481.78 389.62 481.22 389.05 481.7 388.24 482.17 388.11 485.27 387.92 486.22 387.67 486.94 387.17 487.73 386.1 489.32 382.08 489.64 381.58 490.44 381.14 491.71 380.83 497.11 380.7 498.38 380.45 498.7 380.33 498.94 380.08 499.33 379.39 499.27 379 499.25 378.88 496.95 374.55 496.63 373.61 496.55 372.35 496.79 371.22 497.11 370.53 500.37 368.08 501.56 367.01 502.51 365.76 503.15 364.19 503.47 362.3 503.39 360.11 503.3 359.51 502.99 357.59 501.45 352.15 500.3 348.11 499.82 345.28 499.66 342.27 499.74 339.5 500.06 337.56 501.02 333.48 501.02 332.66 500.94 331.78 500.22 328.94 499.51 326.13 498.95 325.31 498 324.62 496.49 323.8 494.35 322.99 491.57 322.23 488.71 321.67 486.01 321.54 485.21 321.35 483.23 320.6 480.76 319.47 478.7 319.4 478.3 319.59 478.14 320.09 478.15 320.13 478.22 324.11 478.46 324.87 479.25 326.5 479.41 327.13 479.33 327.69 479.01 328.38 478.78 329.33 478.93 331.84 478.86 332.65 478.38 333.72 475.99 337.87 475.2 339.88 475.28 340.63 475.83 341.95 476.47 342.7 480.2 346.1 480.92 347.29 481.15 348.54 479.88 357.65 479.16 360.35 478.69 361.17 478.13 361.98 475.67 364.06 473.92 365.25 471.22 366.38 468.04 366.69 467.57 366.63 467.25 366.32 467.17 366 467.33 365.75 467.72 365.63 469.47 365.44 470.9 365.06 472.49 364.43 473.92 363.43 475.27 362.24 476.38 360.79 477.34 359.03 479.72 349.8 479.72 348.54 479.56 348.04 479.33 347.54 478.3 346.66 476.87 345.97 475.43 345.59 473.85 345.47 472.26 345.53 470.43 345.84 461.77 348.67 460.9 348.79 460.26 348.67 458.28 347.72 454.94 347.03 448.03 344.96 444.62 344.9 443.98 344.77 443.66 344.46 443.23 343.38 442.95 342.7 441.98 340.69 441.12 338.93 440.25 336.1 440.01 334.16 444.46 323.86 445.34 321.41 445.73 318.96 445.89 316.45 445.89 313.75 445.74 311.23 445.34 309.91 444.8 308.96 444.7 308.78 443.75 307.71 442.64 306.71 441.37 305.89 439.86 305.2 438.43 304.7 434.94 303.76 432.79 302.94 430.01 301.49 424.61 298.1 420.48 298.67 418.97 298.73 415.08 298.54 412.93 298.29 410.39 297.66 409.2 297.6 407.21 297.79 405.23 298.48 404.12 299.04 402.77 300.17 402.37 300.36 401.81 300.42 401.41 300.36 399.75 299.29 397.04 298.35 396.41 298.04 394.11 294.89 392.28 293.07 391.09 292.19 388.94 291 387.12 290.37 386.56 289.93 385.53 288.36 384.65 287.61 381.87 286.1 380.37 285.6 379.25 285.41 374.8 285.72 369.48 286.66 368.45 286.67 367.65 286.47 367.02 285.91 365.35 283.27 365.03 282.9 364.4 282.77 364.08 282.83 363.84 283.08 363.68 283.71 363.52 287.29 363.21 287.67 362.57 287.6 359.39 285.6 358.92 285.41 358.52 285.34 357.96 285.41 357.57 285.66 357.41 285.97 357.73 286.85 357.86 286.99 358.92 288.11 358.99 288.8 358.92 289.68 359.15 290.11 359.31 290.43 359.95 291.06 362.01 292.38 365.27 294.33 367.97 295.52 368.29 295.83 368.13 298.53 368.21 299.54 368.53 300.36 368.7 300.64 369.48 301.93 369.8 303.43 370.27 303.94 373.53 305.25 374.24 305.63 374.29 305.73 374.32 305.82 374.32 306.01 373.93 306.39 372.42 307.45 372.1 307.89 372.17 308.23 372.26 308.71 372.89 309.53 379.17 314.8 380.04 314.93 381.23 314.93 382.27 314.74 382.98 314.61 384.01 314.61 385.2 314.74 387.43 316.12 389.33 316.88 392.35 317.76 393.97 318.98 394.34 319.26 396.56 320.33 397.2 320.83 397.67 321.46 398.07 322.17 398.95 323.72 399.66 324.54 400.46 325.1 403.15 326.42 407.44 327.56 408.79 328.69 409.67 328.94 412.53 329 417.77 328.94 419.44 328.81 419.92 328.69 421.82 327.31 422.7 326.87 423.33 326.62 423.97 326.55 424.28 326.87 424.28 327.18 423.33 327.75 422.86 328.19 422.54 328.75 422.46 329.38 422.62 330.01 423.17 330.45 425.24 331.14 425.95 331.64 426.51 332.27 426.75 332.9 426.51 333.52 426.27 333.78 425.71 333.96 425.16 333.96 423.17 332.71 421.58 331.89 420.47 331.01 420.07 330.89 419.28 330.89 418.49 331.01 418.01 331.26 417.21 332.33 416.82 332.52 416.1 332.58 413.24 332.46 411.81 332.64 410.54 333.08 408.4 334.53 404.58 335.97 403.63 336.72 403.31 342.06 403.15 342.44 402.36 343.13 402.04 344.26 402.04 344.89 402.44 345.52 403.39 346.08 404.26 346.33 406.65 346.46 412.36 346.27 417.93 346.59 419.67 346.52 423.01 346.15 423.64 346.34 423.88 346.65 423.64 346.9 421.66 347.72 418.48 348.28 418.08 348.47 417.85 348.66 417.21 350.29 416.41 350.35 411.73 349.29 409.03 348.91 404.82 348.66 402.75 348.72 402.04 348.91 401.4 349.22 400.85 349.66 400.53 350.16 400.53 350.67 400.66 350.95 400.77 351.17 401.4 351.92 402.04 352.17 403.07 352.24 403.55 352.17 404.42 351.8 406.8 351.92 409.35 351.8 409.82 352.45 410.85 353.87 411.49 354.5 412.2 355 413.87 355.57 417.84 356.2 417.94 356.27 418.32 356.57 418.4 356.76 418.16 357.01 417.6 357.33 415.78 357.83 415.06 358.27 414.67 358.77 414.43 359.34 414.43 360.84 414.98 363.04 416.09 365.55 416.28 365.82 416.89 366.68 417.38 367.17 417.92 367.69 420.62 369.82 420.7 370.39 420.54 370.83 419.82 371.08 419.03 370.96 417.92 370.52 416.49 369.64 414.98 368.32 413.55 366.75 413.12 366.11 412.99 365.93 411.96 363.67 411.83 363.49 411.33 362.85 410.77 362.41 410.3 362.29 409.58 362.35 405.77 363.54 405.29 363.61 404.81 363.48 404.42 363.29 402.43 360.97 401.56 360.28 400.29 359.77 396.4 358.77 394.17 357.95 393.62 357.57 390.04 353.68 387.74 351.92 385.59 350.92 384.96 350.85 384.09 351.04 383.85 351.35 383.53 352.17 383.69 352.55 385.75 355.12 385.91 355.63 385.12 360.34 385.35 361.47 385.67 362.22 389.01 366.81 392.82 370.7 394.88 373.02 396.71 375.29 397.11 376.1 397.19 376.73 396.95 377.48 395.36 380.25 395.04 381.69 394.8 382.32 394.09 383.51 393.93 384.08 394.09 386.72 393.93 387.72 393.29 389.98 392.42 392.18 391.94 392.93 391.15 393.69 390.35 394 389.64 393.94 389.16 393.69 389.08 393.18 389.08 392.62 390.67 390.23 390.91 389.23 390.27 386.27 389.8 384.96 389.32 384.58 388.85 384.64 386.54 385.65 385.83 385.84 384.24 385.65 379.87 384.89 376.22 383.82 375.42 383.51 374.63 382.82 374.39 382.44 374.39 382.19 374.87 381.81 375.98 381.69 377.09 381.75 382.81 382.63 385.03 382.82 388.29 382.76 389.8 382.57 390.2 382.38 390.43 381.94 390.59 380.62 390.35 379.43 388.77 375.85 388.13 374.72 387.18 373.78 386.31 373.34 382.89 372.52 381.38 371.77 380.75 371.2 379.08 368.75 378.21 368 375.58 366.87 375.35 366.49 376.54 364.86 376.78 364.17 376.78 363.66 376.22 361.53 375.9 359.86 375.11 355.69 374.36 353.55 374.31 353.43 373.75 352.53 373.68 352.42 373.12 352.04 372.25 351.67 371.3 351.6 370.42 351.73 369.55 352.11 368.83 352.67 368.2 353.55 367.56 354.74 366.13 358.2 364.54 360.71 364.07 361.02 362.95 361.4 361.6 362.09 360.73 362.85 360.41 363.6 358.51 370.26 358.43 370.88 358.66 371.44 358.74 371.64 359.22 372.2 360.17 372.27 362.24 372.14 363.27 372.39 363.99 373.02 364.3 373.46 364.46 374.09 364.38 374.72 364.14 375.16 363.75 375.47 363.51 375.53 362.4 374.53 360.33 373.77 359.77 373.77 358.5 374.09 356.44 374.84 355.72 374.97 355.01 375.03 354.29 374.97 354.06 374.84 353.9 374.59 354.77 373.84 355.17 373.33 355.65 372.39 355.65 370.95 355.8 369.82 356.2 368.94 357.39 367.18 357.55 366.3 357.5 365.91 357.47 365.67 357.27 365.19 357.16 364.92 356.12 363.6 355.57 363.16 354.69 363.22 354.3 363.47 353.9 363.91 353.26 365.23 353.03 365.48 352.39 365.61 351.52 365.61 350.48 365.29 347.15 363.72 345.96 363.35 341.75 362.84 340.08 363.03 339.52 363.35 339.12 363.66 338.89 364.04 338.57 364.98 338.65 365.73 338.88 366.46 339.04 366.99 340 369.31 339.68 369.82 339.28 370 338.57 369.94 335.87 369.19 329.83 369.12 326.97 369.19 325.62 369.31 325.3 369.69 325.14 372.01 324.99 372.45 324.75 372.64 324.27 372.83 323.16 372.89 319.5 372.33 318.39 372.39 317.36 372.64 316.41 373.01 315.61 373.52 314.66 374.96 313.39 376.22 311.64 377.79 311 377.98 309.89 377.91 309.82 377.8 309.73 377.66 309.97 376.97 311.08 375.21 312.12 373.89 313.71 372.39 315.69 370.82 320.22 367.87 322.05 366.42 322.36 365.92 322.68 364.85 322.84 363.22 322.72 362.58 322.68 362.4 322.41 361.77 322.37 361.65 321.81 360.96 320.14 359.76 319.19 359.32 318.08 359.07 316.73 358.95 313.55 359.45 311.56 360.08 308.54 361.4 305.45 363.03 300.52 366.48 298.61 367.43 298.14 367.49 297.9 367.3 297.82 366.92 297.68 363.93 297.66 363.59 297.59 363.36 297.42 362.78 297.23 362.43 297.11 362.21 296.55 361.84 294.96 361.46 293.29 361.33 290.2 362.15 289.08 361.77 288.61 361.39 288.53 361.19 288.45 360.96 288.37 359.95 288.45 359.38 288.69 358.95 289.16 358.63 289.88 358.38 292.66 357.75 293.77 357.25 294.56 356.62 295.04 356.12 295.12 355.18 295.04 354.8 294.72 354.42 294.01 353.86 293.13 353.61 291.15 353.54 286.54 353.86 283.21 354.61 282.89 354.8 282.89 354.93 282.57 356.37 283.05 357.06 287.18 360.45 287.34 360.83 287.18 361.21 286.7 361.65 284.95 362.34 284.32 362.46 283.52 362.34 282.97 362.09 278.84 358.94 278.56 358.4 277.96 357.25 277.23 356.24 277.09 356.06 276.69 355.8 276.06 355.55 269.94 354.67 268.75 354.8 268.27 354.99 267.88 355.3 267.48 355.87 267.24 356.62 267 358.94 266.84 359.38 266.13 360.07 265.33 360.58 259.77 362.27 252.15 363.84 249.76 363.97 248.89 363.65 248.41 363.28 248.36 363.08 248.34 362.96 250 360.39 251.51 358.38 252.23 357.69 253.26 356.93 256.68 355.99 257.31 355.62 257.55 354.3 257.31 350.9 257.07 350.53 255.01 349.71 254.85 349.52 255.17 349.27 256.99 348.46 257.95 347.7 259.06 346.01 259.22 345.32 259.18 345.16 259.14 344.94 258.5 344.5 257.55 344.18 256.76 344.12 251.75 344.37 247.86 344.31 246.03 344 239.36 339.91 239.04 339.85 238.57 340.16 238.25 340.54 237.65 339.76 237.06 338.97 237.06 338.97 236.4 338.11 235.86 337.4 234.75 333.82 234.43 332.31 234.28 330.68 234.36 321.89 234.12 320 234.12 318.37 234.36 316.8 234.91 315.36 235.55 314.16 236.18 313.28 236.42 312.47 236.26 311.15 235.47 308.7 235.55 307.25 235.87 306.69 237.14 305.56 238.17 304.93 239.6 304.55 242.3 304.11 243.25 303.8 244.36 303.17 244.52 302.8 244.92 297.27 244.68 292.18 245.56 289.73 245.4 285.96 244.68 281.82 244.52 281.63 244.45 281.57 242.78 281.63 242.46 281.82 241.98 282.63 241.59 282.82 241.03 282.89 240.47 282.82 237.38 281.75 236.1 281.19 235.63 280.81 235.63 280.62 235.79 280.5 236.5 280.44 239.36 280.94 240.39 280.94 241.66 280.69 243.81 280.06 244.76 279.62 245.24 278.87 245.48 278.24 245.4 277.42 245.08 276.42 244.05 275.22 242.46 273.78 241.75 273.46 239.2 272.9 238.65 272.65 238.41 272.08 238.01 269.89 237.69 269.19 237.22 268.82 236.1 268.31 234.28 267.69 233.25 267.5 232.13 267.5 231.26 267.62 230.62 267.88 226.01 271.27 224.9 271.77 224.03 272.02 223.39 272.08 223.08 271.96 222.36 271.2 221.89 270.95 220.93 270.58 219.98 270.45 217.75 270.89 216.4 271.33 215.45 271.89 214.66 272.52 214.42 272.58 214.42 272.96 214.66 273.34 216.25 273.65 216.8 273.9 220.3 276.35 221.09 277.04 221.49 277.55 221.65 278.17 221.49 279.87 221.65 280.44 222.2 281.31 222.2 281.63 220.85 283.76 220.69 284.64 220.93 285.02 222.6 286.34 222.68 286.72 222.36 288.6 222.36 289.35 222.52 289.79 223.79 291.18 224.03 293.06 224.19 293.5 226.73 295.32 226.97 295.7 226.73 296.08 226.09 296.26 224.11 296.45 221.96 296.14 219.74 296.01 218.47 296.45 217.44 297.14 216.64 298.77 216.17 299.34 215.69 299.65 214.66 300.03 213.94 300.47 209.73 304.68 207.75 308.38 207.51 309.08 207.51 309.64 208.22 310.33 209.57 311.34 210.68 311.9 213.15 312.03 213.7 312.15 213.94 312.47 214.18 314.48 214.98 318.24 215.29 318.87 215.85 319.5 216.56 320 216.88 320.38 217.04 322.33 217.59 324.21 217.67 324.84 217.6 325.72 217.75 326.41 218.87 327.79 219.18 329.61 219.18 330.3 219.03 330.62 218.79 330.74 218.31 330.74 217.67 330.43 216.72 329.42 216.24 328.54 215.53 325.91 215.37 323.52 215.13 322.77 214.66 322.14 209.25 318.49 208.14 317.99 206.87 318.37 206.63 318.93 208.14 321.07 207.98 321.7 206.4 323.58 204.57 325.15 203.85 325.53 202.9 325.72 202.58 325.59 203.22 324.65 204.57 323.14 205.44 321.13 205.52 320.38 205.36 319.94 204.17 318.87 203.46 317.87 203.3 317.24 203.22 315.42 202.98 314.79 202.18 313.97 201.39 313.53 200.2 313.34 199.09 313.35 198.69 313.53 197.26 314.73 196.78 314.73 196.15 314.35 195.27 313.16 194.72 312.84 191.46 312.47 191.06 312.28 190.27 311.4 189.95 310.83 189.63 309.32 189 308.32 187.97 307.44 187.41 307.13 185.58 306.56 184.79 306.5 184.07 306.94 183.76 307.38 182.88 310.33 182.56 310.65 180.1 311.59 179.15 312.15 176.52 314.22 176.29 314.6 175.97 316.11 176.29 317.05 177.48 318.87 180.34 321.2 180.58 321.45 180.34 321.57 178.67 321.51 177.56 321.13 176.37 320.32 172.87 317.55 172.16 317.11 171.92 317.18 169.54 318.62 168.82 319.38 168.26 320.38 167.87 321.76 167.23 325.22 166.99 325.34 166.28 325.34 166.12 325.09 166.2 321.07 166.6 319.63 169.69 316.67 170.25 315.92 170.57 314.54 170.49 313.47 169.85 312.65 169.06 312.09 168.58 312.03 163.34 312.09 162.94 312.4 160.56 316.36 159.84 317.05 159.45 317.3 158.81 317.49 157.54 317.49 156.67 317.3 156.27 317.05 156.11 316.8 156.27 316.55 157.62 316.17 158.49 315.8 159.69 314.92 161.67 311.96 162.55 310.9 163.74 310.2 165.56 309.89 167.47 309.77 169.06 309.77 171.84 309.95 172.39 309.83 172.71 309.2 172.55 306.44 172.63 305.37 172.87 304.87 174.14 303.55 174.54 302.79 175.09 300.97 175.18 300.28 175.02 299.72 174.78 299.34 174.3 298.96 172.55 298.08 171.84 297.96 169.53 298.15 168.74 298.02 168.5 297.77 169.06 296.64 169.22 296.01 169.14 295.38 168.98 294.88 168.03 293.18 167.63 292.75 167.15 292.43 166.51 292.12 165.24 291.74 161.35 291.49 159.52 290.42 158.89 290.23 156.35 290.3 155.55 290.49 155.23 290.8 154.2 292.49 150.23 298.02 149.83 298.4 149.52 298.52 149.2 298.46 148.96 298.15 148.88 297.58 149.12 296.77 150.63 294.32 154.76 288.47 155.08 287.6 155.08 286.9 153.96 284.46 153.41 283.83 152.37 283.07 147.69 280.18 146.42 279.31 145.07 278.11 144.83 272.65 144.67 272.15 144.27 271.83 142.05 270.76 141.09 270.07 140.46 269.44 140.14 268.88 139.66 266.74 139.5 266.56 131.64 266.05 131.16 265.55 131.24 264.86 132.12 264.8 133.31 264.74 141.09 262.98 143.16 262.1 144.99 260.97 148.88 258.2 152.06 256.13 153.41 254.81 154.44 253.31 154.28 251.73 153.8 249.98 153.88 246.02 153.8 241.75 150.7 239.17 147.92 236.54 142.12 230.63 141.65 230.32 140.06 230.07 138.31 229.94 136.8 230.26 135.69 230.7 130.92 233.58 129.57 234.65 128.06 238.55 127.11 239.93 125.76 241.31 122.02 243.89 120.59 244.51 117.97 245.39 116.46 245.77 115.11 245.9 113.6 245.9 107.96 245.46 106.69 245.52 105.98 246.02 105.42 246.59 105.18 247.03 104.79 248.91 104.55 249.29 104.23 249.48 102.56 249.92 100.89 250.61 98.91 252.74 98.11 253.31 95.81 254.19 95.41 254.44 95.33 255.94 95.57 256.39 97.32 258.08 97.64 258.58 97.72 258.9 97.32 261.1 97.4 261.97 98.59 263.42 99.23 264.55 99.31 265.11 98.91 267.13 99.63 271.96 100.66 275.6 100.82 276.67 100.82 277.49 100.02 280.38 100.18 281.13 100.66 281.88 102.96 284.65 103.2 285.34 102.65 286.22 101.61 287.1 100.9 287.35 99.71 287.41 94.94 286.97 85.33 286.66 82.07 286.22 81.36 285.9 80.08 284.71 78.65 283.58 76.83 282.39 74.84 281.38 69.28 279.19 65.87 277.55 59.51 273.85 58.71 273.54 57.13 273.22 53.63 273.03 51.64 271.65 49.82 270.08 44.97 265.43 42.51 263.55 42.11 262.8 41.95 261.92 41.55 255.7 41.23 254.76 40.52 254.19 39.88 254.32 39.41 255.14 38.77 256.83 37.26 263.3 36.95 263.43 36.47 263.18 36.23 262.92 36.07 261.67 37.1 257.15 36.55 255.26 36.63 254.89 37.5 253.69 37.66 253.06 37.5 252.37 34.8 248.92 33.45 246.91 32.97 245.78 33.05 245.21 33.53 243.96 33.61 243.39 33.52 242.7 32.89 242.2 32.41 242.01 31.86 241.95 31.06 242.01 30.27 242.45 29.32 243.77 29.08 244.59 28.52 244.84 24.47 245.15 23.44 244.59 22.64 243.89 21.77 242.58 20.89 240.88 19.94 236.8 19.62 236.11 18.99 235.16 16.28 232.59 16.05 232.09 15.97 231.46 16.12 230.58 18.03 227.32 18.27 226.56 18.03 226.37 16.2 225.87 13.5 224.87 11.04 224.3 8.89 223.42 8.18 222.98 7.46 222.35 6.67 221.41 5.56 219.47 4.92 217.52 4.6 217.21 4.19 217.04 1.35 210.41 1 210.19 1.98 210.05 6.11 209.23 6.43 208.98 7.46 207.47 7.94 207.53 9.84 208.35 10.88 208.48 13.82 208.35 14.93 208.41 17.71 209.16 19.85 209.48 21.92 210.36 23.19 210.48 27 209.92 28.35 209.54 29.47 209.1 30.26 208.6 30.74 208.16 31.13 207.22 31.61 206.9 35.5 206.59 36.62 206.34 38.2 205.58 39.71 205.27 41.7 204.95 50.36 204.7 53.78 205.52 55.21 205.52 58.3 204.89 59.73 204.39 60.29 204.07 60.69 203.7 61.4 202.44 61.56 201.81 61.56 200.93 61.32 199.74 58.3 189.88 57.98 189.44 56.39 188.18 54.01 187.24 52.42 186.93 49.88 185.23 48.93 184.86 45.91 184.35 44.16 183.79 40.03 180.9 38.6 180.15 37.09 179.52 33.19 178.51 32.56 177.45 32.64 176.69 33.99 175.12 35.02 174.12 35.97 172.92 36.61 171.54 36.85 169.97 36.61 168.4 34.54 163.82 34.3 162.88 34.22 162.06 34.7 159.42 36.76 157.54 40.89 154.33 41.93 153.26 43.84 150.69 44.71 149.18 44.95 147.99 44.95 145.04 45.34 144.6 46.3 144.1 48.04 143.47 48.6 143.4 49.24 143.53 50.35 143.97 51.3 144.66 51.7 145.23 52.02 147.17 52.49 148.93 52.34 151.5 52.02 152.13 51.62 152.45 51.14 152.64 50.27 152.64 48.2 152.13 47.49 152.07 46.62 152.2 45.66 152.57 44.39 153.52 42.09 155.84 39.62 157.29 39.07 157.85 38.51 158.79 37.96 160.61 37.16 161.93 36.92 162.56 37.16 164.76 37.4 165.26 37.96 165.83 39.71 166.83 40.1 167.21 40.34 167.77 40.58 173.49 40.82 174.18 41.38 174.93 42.89 175.87 44.4 176.57 50.75 178.26 51.31 178.32 51.78 178.26 52.58 177.95 55.28 176.12 55.84 175.87 56.39 175.75 57.5 175.81 58.06 176.06 59.73 177.57 61.64 180.27 65.13 184.16 65.37 185.04 65.05 186.11 64.66 186.68 64.02 187.24 63.39 187.68 62.59 187.87 62.35 188.06 62.19 190.07 62.51 190.76 65.06 192.96 65.69 193.71 66.17 194.71 66.72 197.73 65.85 202.38 66.01 202.75 67.84 203.44 68.47 203.44 73.24 202.31 76.89 201.06 77.85 200.55 84.84 195.15 85.71 194.71 89.21 193.58 91.19 192.64 92.86 191.57 93.9 190.5 94.53 189.5 94.77 188.68 94.85 187.86 94.69 187.05 94.21 186.11 93.26 184.98 91.75 183.47 91.51 182.78 91.75 177.63 91.51 174.11 91.67 173.36 92.3 173.42 94.37 175.49 94.77 176.5 95.01 178.13 94.61 180.83 94.85 182.65 95.24 183.34 95.88 184.03 97.94 185.16 99.14 186.23 99.3 186.8 99.06 190.13 99.14 190.44 99.38 190.63 99.85 190.75 100.57 190.69 103.67 189.94 105.57 189.37 107.48 188.56 108.04 187.86 108.11 186.73 108.75 185.35 109.07 184.98 110.66 184.09 110.9 183.84 111.13 182.4 111.37 181.9 111.69 181.77 112.01 181.9 113.28 183.34 114.55 184.47 115.9 185.23 116.93 185.54 118.2 185.35 120.99 184.35 121.54 184.28 122.02 184.41 122.41 184.66 122.73 185.04 122.89 185.98 123.13 186.42 123.61 186.92 123.93 187.05 126.55 187.36 129.88 187.55 130.76 187.49 131.47 187.23 131.95 186.86 132.43 185.79 132.9 185.1 133.86 184.09 137.75 183.65 139.02 183.09 139.97 182.46 140.69 182.15 141.33 182.02 142.12 182.02 144.82 182.65 145.77 182.77 147.28 182.84 148 182.71 154.83 180.01 155.63 179.26 155.71 178.88 155.39 178.38 154.51 177.44 151.57 175.05 147.68 172.16 145.3 170.15 144.74 169.34 144.58 168.71 144.74 166.76 145.14 165.88 145.77 166.07 146.25 166.38 146.81 167.01 148.32 169.65 148.95 170.4 150.06 171.09 155.23 173.67 156.18 174.3 159.68 177.12 161.27 178.06 161.9 178.19 162.85 178.25 166.11 176.43 168.89 174.74 171.59 172.22 172.07 172.03 172.55 172.1 173.02 172.35 174.22 173.92 174.61 174.17 174.93 174.23 180.17 173.16 182.32 172.91 185.26 172.85 187.01 172.98 188.36 173.29 189.15 173.73 190.18 174.67 190.58 175.99 191.38 177.06 191.85 177.44 192.97 177.81 193.6 177.87 194.16 177.81 195.03 177.56 195.27 177.12 194.95 175.43 195.03 175.24 195.27 175.17 198.92 176.62 199.72 176.43 200.04 176.18 200.2 175.68 200.04 174.23 199.8 173.67 199.4 173.16 195.59 169.58 195.03 168.64 194.56 166.88 194.24 163.81 194 163.12 192.73 162.24 186.69 159.47 185.1 158.53 183.91 157.65 183.19 156.77 182 153.76 181.21 152.75 179.94 151.56 174.22 147.41 173.42 146.03 172.15 144.84 169.45 142.83 169.05 142.26 166.67 137.18 165.87 136.42 160.07 132.47 158.4 131.21 157.29 130.27 156.5 129.14 159.67 128.82 160.63 129.2 163.73 131.34 165.4 132.53 166.82 133.79 168.18 135.1 173.58 141.26 175.41 142.77 177 143.77 183.67 146.72 184.54 147.23 185.1 147.92 186.45 150.56 187.09 151.5 187.8 152.19 189.71 153.44 190.5 154.13 193.84 157.97 196.94 160.16 198.13 161.36 198.45 162.17 199.08 169.02 199.32 169.46 201.23 170.84 202.02 171.22 204.72 171.47 208.22 172.22 209.25 172.35 210.13 172.1 213.15 170.65 217.2 169.21 217.52 169.02 217.6 168.77 217.52 167.89 217.2 167.13 216.4 166.07 216.32 165.19 216.01 164 215.21 163.68 212.91 163.43 212.59 163.3 212.43 162.49 212.35 159.6 212.19 158.84 211.72 157.9 210.92 157.21 209.81 156.58 208.86 156.39 207.35 156.58 206.71 156.39 205.84 155.45 204.33 153.38 203.85 152.94 202.66 152.31 202.98 151.31 204.33 150.81 205.6 150.55 207.11 150.49 208.78 150.68 211 151.12 211.64 151.12 212.43 150.99 213.07 150.62 213.31 149.93 213.31 148.61 213.07 147.85 210.92 144.02 207.03 138.06 206.95 136.49 207.19 135.04 208.7 132.09 209.01 130.96 209.17 129.14 209.09 128.32 208.78 127.32 208.22 126.38 207.11 125.5 205.52 124.62 196.54 121.35 195.9 120.91 195.59 120.41 194.79 117.52 193.68 115.45 192.49 113.44 190.9 111.87 190.74 111.3 191.38 108.35 191.61 105.78 191.53 104.52 191.3 103.83 190.1 102.2 189.15 101.25 188.28 100.63 185.89 99.49 184.78 99.37 181.76 99.31 177.07 95.85 176.52 95.16 175.01 91.46 168.41 81.72 162.77 74.18 160.62 70.48 160.46 68.03 161.34 66.96 162.29 66.46 163.88 66.46 165.63 67.02 167.62 66.84 172.3 65.71 173.18 65.64 175.32 66.21 175.96 66.65 176.2 67.02 176.2 67.4 175.96 67.9 174.45 69.35 173.74 69.73 170.95 69.98 170 70.29 168.25 71.42 167.46 72.93 167.62 75.19 168.01 76.13 172.07 80.65 174.13 82.41 175.96 83.73 177.55 84.67 180.57 85.99 181.92 86.43 182.87 86.68 183.83 86.62 187.16 85.68 187.8 85.36 188.2 84.92 189.15 82.79 189.63 82.29 190.26 82.1 190.82 82.22 193.2 83.73 193.6 84.23 192.81 86.62 192.41 88.38 192.17 88.69 188.59 90.7 186.21 92.21 185.81 92.52 185.73 93.65 186.37 94.91 186.69 95.1 189.94 96.16 191.53 96.35 194.71 96.23 195.51 96.29 196.86 96.6 197.49 97.05 199.16 100.69 199.72 101.57 200.12 101.94 201.55 102.57 204.09 103.45 206.23 103.95 207.9 104.02 208.7 103.89 209.09 103.51 209.33 102.82 209.09 102.07 206.47 99.62 206.07 98.93 205.92 98.05 206.07 97.49 206.95 97.36 208.38 97.48 209.65 97.86 210.29 98.24 216.48 103.89 217.04 104.27 231.5 109.23 231.98 109.1 232.45 108.79 233.65 107.53 233.96 106.65 234.28 104.77 234.2 103.77 233.09 101.57 232.77 100.18 231.98 92.33 231.5 91.33 230.79 90.33 228.72 88.44 228.32 87.94 228.08 87.37 227.69 85.49 226.1 81.41 225.94 80.4 226.18 79.08 226.73 78.58 227.77 78.08 229.04 77.83 230.23 77.89 231.34 78.14 232.38 78.46 233.25 79.02 234.2 79.84 236.75 82.73 237.06 83.23 237.06 83.73 235.71 88 233.81 98.05 233.96 99.81 234.68 102.38 235 103.2 235.39 103.64 236.35 103.83 236.82 103.77 237.14 103.58 238.97 101.82 240 101.13 240.72 100.81 244.61 100.19 245.8 99.81 246.68 99.43 247.39 98.74 248.11 98.3 251.13 99.62 255.26 101.69 258.91 104.52 259.15 105.09 258.99 105.34 258.36 105.59 257.32 105.78 253.43 105.71 252.56 105.9 251.68 107.22 251.21 108.22 250.65 108.54 250.17 108.6 248.98 108.22 247.47 107.22 246.99 107.03 246.68 107.03 245.96 107.53 245.09 108.54 244.77 108.54 241.43 106.53 241.11 106.03 241.04 103.51 240.8 102.89 240.48 102.63 239.53 102.95 238.49 104.08 237.14 106.03 236.27 107.79 236.19 108.73 237.38 111.24 238.41 114 238.73 115.38 239.13 119.84 239.29 124.43 239.29 129.08 238.81 137.24 239.44 142.77 239.13 148.04 240.16 149.3 241.03 150.81 242.94 154.64 243.26 154.95 244.05 155.01 244.69 154.89 245.48 154.51 248.02 153 251.76 150.37 252.71 149.99 253.9 149.74 257.64 149.24 258.28 148.99 259.47 147.98 260.1 147.1 260.66 146.1 261.14 144.21 261.37 143.9 262.25 143.9 266.62 144.4 268.37 143.65 269 143.02 269.56 142.14 269.88 141.07 270.04 140.07 269.24 138.12 269.88 137.81 270.83 137.56 273.61 137.18 274.25 136.99 276.15 135.67 276.71 134.92 277.18 133.91 277.5 132.66 277.58 130.65 277.34 130.15 276.63 129.71 275.36 129.27 271.15 129.89 269.24 129.45 266.06 127.63 265.67 127.19 265.51 126.63 265.66 126.38 266.14 126.5 270.99 128.7 271.78 128.83 272.9 128.76 276.55 128.2 277.42 128.39 278.22 128.76 278.62 129.2 278.85 130.77 278.93 134.04 279.25 134.17 282.19 134.23 285.37 133.85 286.8 133.41 288.31 132.78 289.66 131.9 290.22 131.47 290.61 130.96 290.85 130.02 290.61 128.58 289.9 127.57 289.26 126.38 288.71 125.75 286.56 124.37 285.93 123.61 285.69 122.8 285.85 121.98 286.48 120.98 286.88 120.85 288.31 120.98 288.55 120.79 288.71 119.72 288.55 117.27 288.39 116.96 285.37 115.64 284.73 115.2 280.52 110.74 280.21 110.24 280.21 109.61 281.4 107.66 281.64 106.97 281.72 102.39 281.96 100.44 282.51 98.62 283.46 96.73 284.5 95.04 284.58 94.41 284.42 93.97 284.02 93.59 283.39 93.34 281.56 93.03 281.48 92.78 281.56 91.77 284.58 88 285.61 87.19 286.8 86.68 291.89 85.37 292.68 85.24 293.08 85.3 293.24 85.43 293.32 85.56 290.62 88.69 288.71 91.14 286.96 93.66 286.56 94.6 286.33 96.04 286.48 97.93 286.8 98.3 287.2 98.56 287.6 98.62 288.15 98.55 289.98 97.8 291.17 97.67 292.92 97.74 293.4 97.86 293.79 98.3 293.71 98.56 292.92 99.06 289.03 100.5 286.25 100.31 285.69 100.63 285.29 101.57 285.29 102.26 285.77 103.64 285.77 104.14 285.45 105.27 284.74 106.91 284.5 107.85 284.65 108.35 285.13 108.98 287.2 110.49 288.79 111.3 293 112.75 294.99 113.75 296.81 114.95 300.63 118.02 301.26 118.4 303.01 118.9 304.2 119.03 305.31 118.84 306.43 118.46 307.93 118.21 309.68 118.09 313.82 118.28 317.95 118.09 319.7 117.9 323.35 117.02 328.6 115.33 329.47 115.45 330.26 115.7 332.09 116.52 333.76 116.77 334.24 116.65 334.71 116.02 334.55 115.01 334.24 114.39 333.76 113.88 330.11 111.12 329.63 110.55 329.55 109.86 329.95 107.16 330.27 106.35 330.58 105.91 331.06 105.53 333.6 104.84 334.32 104.53 334.79 104.15 335.51 102.83 335.75 101.64 335.51 100.69 334.95 99.75 334.48 99.38 327.25 96.17 326.77 95.86 326.61 95.48 327.09 93.91 327.41 93.53 332.73 89.08 333.37 88.38 334.56 86.56 334.88 86.31 337.5 87.95 338.29 88.07 341.63 87.94 342.35 87.69 344.09 86.82 344.89 86.63 346.87 87.13 348.07 87.82 349.02 88.2 350.21 88.51 351.48 88.57 358.79 87.63 360.38 87.32 363.4 86.31 367.14 84.81 367.77 84.43 375.16 81.73 377.63 80.41 380.41 79.16 384.22 78.03 386.99 77.48 388.35 77.21 392.33 76.83 398.36 76.71 403.13 76.84 408.38 77.4 415.77 79.29 419.1 80.29 422.28 80.86 425.22 80.67 428.59 79.68 430.55 79.1 432.62 78.07 434.6 77.09 437.06 74.27 439.45 71.88 441.67 69.87 444.45 67.05 447.95 66.73 452.08 65.54 456.05 64.72 458.99 63.78 461.46 62.84 465.03 62.46 469.72 62.15 473.22 62.4 474.97 63.72 477.67 66.05 479.57 67.93 482.51 69.63 484.58 70.63 491.65 71.33 494.91 71.51 497.61 69.13 500.47 70.13 505.87 72.52 507.22 73.03 508.41 73.28 509.53 73.34 511.36 73.15 511.91 72.96 512.55 72.02 513.26 71.39 514.37 70.64 519.78 68.32 528.28 63.61 529.32 63.17 530.03 62.98 530.67 63.05 533.53 64.3 534.08 64.36 534.56 64.24 534.72 63.93 534.72 63.24 533.21 57.77 531.39 53.5 531.31 52.93 531.71 51.93 532.34 51.55 533.14 51.36 534.01 51.3 536.16 51.49 537.83 51.87 540.84 54.07 544.02 57.77 546.24 59.59 546.8 59.85 548.23 60.16 548.87 60.22 549.1 60.04 548.32 35.1 548 30.39 547.05 20.22 548.49 9.54 548.81 6.27 548.81 4.58 548.65 3.26 548.03 1.36 548.02 1.31 548.17 1 548.57 1 549.21 1.25 549.84 1.75 550.24 2.32 550.48 3.26 549.83 23.99 550.24 28.11 550.31 28.82 551.04 34.4 551.58 38.43 551.66 39.81 551.58 41.07 550.7 44.9 550.7 49.55 551.64 71.03 552.35 80.45 552.67 94.39 552.82 95.21 553.38 96.27 554.02 96.84 554.57 97.09 556.08 97.47 557.91 96.97 560.45 96.09 561.33 95.9 561.64 95.96 562.63 97.09 563.37 97.94 563.77 98.4 564.82 99.61 565.14 100.24 564.74 100.86 561.72 103.56 555.2 108.21 541.45 118.32 526.27 129.74 518.48 135.77 518.09 136.33 517.45 137.65 516.66 139.66 514.75 147.07 514.27 149.65 514.03 152.16 513.79 159.57 514.1 166.92 514.42 168.87 514.97 171.19 515.17 171.81 517.91 180.61 524.02 197.13 525.93 204.98 530.29 220.5 532.99 234.13 533.25 234.59 533.38 234.82 534.42 236.14 536.16 237.96 538.39 239.78 541.17 241.6 545.53 243.74 555.86 248.51 558.88 249.58 569.44 252.73 582.87 256.62 593.91 259.64 599.23 261.21 605.27 263.54 611.3 266.18 614 267.56 633.54 278.56 638.38 281.51 642.91 284.46 647.2 287.54 651.57 290.81 668.32 304.51 670.54 306.64 672.29 308.84 674.35 312.3 675.07 313.74 677.76 320.02 678.4 320.78 680.54 322.6 681.42 323.23 682.05 323.54 682.85 323.73 685.23 323.98 687.06 324.05 694.68 322.92 717.09 317.65 727.49 315.46 755.14 313.02 757.68 313.02 771.18 313.46 775.07 314.09 778.97 314.91 784.76 316.8 790.48 318.75 792.79 320.07 794.45 321.32 795.64 322.58 795.9 322.92 796.36 323.52 796.59 324.09 796.59 336.15 796.82 336.78 798.57 339.16 799 339.64 Z M 138.71 224.04 138.31 223.16 137.04 221.78 136.01 221.15 128.38 218.51 128.14 218.2 128.3 217.26 128.62 216.75 130.52 215.5 131.71 214.05 131.71 213.17 131.56 212.8 131.24 212.48 129.73 211.41 127.74 210.35 123.45 208.78 122.1 208.65 119.56 208.78 118.21 209.09 115.74 209.91 114.87 210.03 112.96 209.91 110.82 209.47 106.61 208.21 104.46 207.21 103.59 207.02 101.29 207.08 99.93 207.27 98.74 207.9 97.39 208.9 90.72 215.44 89.77 216.94 89.13 218.7 89.05 220.21 89.21 221.59 92.31 222.41 93.58 222.85 94.14 223.22 95.33 224.61 96.52 225.74 97.55 226.05 101.13 226.62 101.37 226.87 101.45 227.49 101.21 227.75 100.33 228 93.26 228.06 92.55 228.25 91.91 228.56 90.64 229.44 90.48 229.76 90.48 230.2 91.6 233.15 92.15 235.6 92.87 236.85 93.03 238.11 92.79 238.55 91.92 239.11 90.56 239.74 89.85 240.24 89.53 241 89.53 241.94 89.69 242.38 90.01 242.63 92.15 243.64 93.74 245.14 95.73 246.4 97.72 247.34 99.54 247.59 101.13 247.59 101.61 247.28 102.32 246.59 103.43 244.89 104.39 244.26 104.94 244.14 110.82 244.08 114.16 243.89 118.85 243.38 120.2 243.07 121.55 242.44 123.85 240.87 124.8 239.93 125.44 238.86 125.84 237.67 126 234.34 126.39 233.65 131.95 230.07 133.15 229.63 134.18 229.38 136.16 229.13 137.04 228.87 138.07 228.18 138.47 227.74 138.79 227.18 138.94 226.36 138.94 225.17 138.71 224.04 Z M 246.28 180.14 244.53 182.27 243.81 182.58 240.72 183.15 240.16 183.34 239.84 183.65 239.05 185.85 238.81 186.23 238.41 186.48 238.17 186.35 237.38 185.29 235.87 184.28 234.04 183.28 232.21 182.52 229.83 181.89 229.2 181.89 226.65 182.27 225.22 182.71 223.71 183.4 222.2 184.41 220.93 185.66 219.98 187.11 219.18 188.74 218.55 190.62 217.6 195.4 214.18 199.04 213.78 199.67 213.62 200.23 213.78 200.61 229.51 204.5 233.56 205.13 237.54 205.57 241.67 205.7 250.72 205.45 258.27 204.95 261.21 204.5 262.32 203.5 263.2 202.31 264.47 199.67 264.95 199.1 265.98 198.22 267.01 197.91 270.59 197.35 271.94 196.91 273.13 196.34 274.08 195.52 274.88 194.52 277.5 189.87 277.66 189.31 276.15 185.79 275.51 183.91 274.88 182.71 274.32 182.15 273.05 181.83 270.03 182.34 269.24 182.4 269 182.34 264.71 177.62 263.83 175.99 263.52 175.74 263.12 175.61 262.64 175.61 261.93 175.8 260.5 177.94 259.62 178.94 259.23 179.19 248.26 179.51 247.47 179.57 246.83 179.76 246.28 180.14 Z M 321.5 330.5 321.73 329.49 321.57 329.05 321.02 328.49 318.95 327.04 318 325.85 316.97 324.9 315.78 323.59 314.74 321.89 313.71 319.82 311.25 313.98 310.93 312.22 310.61 311.78 305.37 308.32 302.27 305.62 300.29 304.81 298.94 303.43 297.51 302.55 294.33 301.04 292.98 300.66 291.79 300.6 290.76 300.79 289.49 301.41 288.85 301.6 284.8 301.85 284.08 302.04 283.61 302.29 283.53 302.67 283.61 307.26 283.29 309.96 283.84 310.71 287.74 311.02 288.85 311.53 289.25 311.84 289.56 312.34 290.04 313.73 290.12 314.73 290.12 316.55 289.88 320 289.41 321.32 288.53 322.58 287.5 323.58 285.91 324.59 285.11 324.78 280.19 324.9 274.79 325.41 269.54 324.84 268.67 324.84 267.48 325.22 266.53 325.66 266.05 326.1 265.89 326.47 265.97 326.98 266.21 327.42 267.08 327.79 271.45 328.8 272.25 329.05 273.12 329.55 273.52 329.99 274.71 331.87 275.66 332.82 276.69 333.57 277.73 333.95 279.08 334.2 283.29 334.51 289.64 334.83 290.28 334.95 290.83 337.34 291.07 337.65 295.52 340.1 296.47 340.42 298.3 340.61 299.25 340.61 299.81 340.48 300.68 339.85 301.16 339.29 301.95 336.4 302.43 335.96 303.38 335.58 304.89 335.39 309.18 335.27 313.47 334.14 315.78 333.2 316.65 332.94 317.36 332.88 317.68 333.07 318.16 333.7 318.56 333.95 319.03 334.01 319.51 333.95 319.83 333.7 320.22 332.13 321.5 330.5 Z M 229.59 156.21 229.99 156.27 230.39 156.21 230.71 155.89 230.94 155.52 231.1 154.76 230.94 154.32 229.12 151.87 228.48 150.55 227.84 148.42 227.77 147.6 228.24 145.09 228.24 144.46 228 143.52 228.96 140.19 229.12 138.69 228.88 138.25 226.34 135.48 226.02 134.79 226.02 134.1 226.41 133.85 226.81 133.85 227.92 134.41 230.31 136.24 231.1 137.18 231.42 137.81 231.58 138.43 231.58 140.38 230.86 145.22 231.1 146.66 231.42 146.97 231.9 147.04 232.53 146.85 233.72 146.1 234.04 145.72 234.6 141.13 234.92 136.93 235 122.98 235.79 120.78 235.95 119.4 235.79 118.02 235.23 116.95 232.77 115.2 230.94 114.32 226.65 112.75 221.81 110.49 219.42 109.61 216.09 108.73 214.81 108.6 209.73 109.17 208.38 109.23 207.11 109.17 202.58 108.29 200.19 108.29 198.29 108.54 197.65 108.73 197.26 109.04 196.94 109.48 196.78 110.05 196.94 110.92 197.49 112.24 197.97 113.31 198.45 113.94 209.25 121.98 216.88 127.19 217.75 128.01 218.31 128.7 219.11 130.65 219.58 133.97 222.44 140.38 222.6 141.32 222.36 148.61 222.44 149.8 222.6 150.37 222.92 150.87 224.27 152.19 227.53 154.83 229.59 156.21 Z M 455.58 345.21 461.77 345.97 464.16 345.9 465.98 345.59 466.78 345.34 468.29 344.4 468.92 344.14 471.31 344.21 472.89 344.59 474.64 344.52 474.96 344.33 474.96 344.08 474.24 343.14 469.88 339.94 469.72 339.37 469.8 338.87 470.67 336.11 470.91 334.66 470.91 333.53 470.75 332.78 470.35 332.15 467.89 329.95 466.94 328.76 465.99 327.19 466.07 326.87 466.38 326.62 466.94 326.5 468.05 326.56 472.98 327.38 474.41 327.5 475.76 327.44 475.76 326.94 475.28 326.31 474.17 325.56 472.74 324.93 471.87 324.74 468.13 324.49 466.7 324.3 465.83 324.05 464.72 323.48 464.16 323.04 463.53 321.66 462.34 316.51 462.1 316.13 460.83 315.07 459.48 314.12 458.68 313.31 457.02 310.92 456.3 310.23 454.71 309.22 453.04 308.59 451.7 308.41 450.9 308.53 449.95 309.16 449.87 309.47 449.63 316.63 449.23 319.52 444.78 332.14 444.22 334.41 443.98 336.42 444.14 337.23 444.38 337.99 445.17 339.3 446.29 340.62 447.63 341.82 448.99 342.82 450.41 343.58 451.76 344.14 454.15 344.9 455.58 345.21 Z M 150.46 193.2 153 195.02 155.23 196.34 162.22 198.92 166.99 201.62 168.66 202.18 169.29 202.24 170.32 202.24 171.28 202.05 171.91 201.8 172.47 201.36 173.03 200.67 173.5 199.73 173.98 198.1 174.22 197.66 175.17 196.97 180.65 194.64 181.61 194.02 182.88 192.38 182.96 191.75 182.8 190.94 181.53 187.49 181.13 186.92 180.26 186.29 178.59 185.66 177.79 185.22 177.71 185.1 178.51 184.41 178.59 183.65 178.35 182.96 177.71 182.33 176.36 181.52 175.01 181.2 172.71 180.95 169.93 180.89 168.26 181.08 163.41 182.02 161.66 182.08 155.86 181.96 154.83 182.15 152.61 183.02 152.29 183.53 152.29 183.97 152.85 184.41 158.33 185.66 160.15 186.42 160.71 186.98 160.87 187.3 160.95 188.18 160.79 188.43 160.55 188.55 159.6 188.49 159.28 188.18 158.8 187.3 158.17 186.79 155.55 185.79 152.85 185.35 151.26 185.29 147.6 185.54 144.82 185.48 143.63 185.35 141.33 184.6 140.77 184.53 140.05 184.53 139.26 184.85 136.88 186.36 135.13 186.86 134.89 187.17 134.73 188.11 135.05 188.3 145.77 189.31 147.6 189.74 148 190.12 148 190.31 146.89 191.13 146.73 191.38 147.21 191.82 149.19 192.51 150.46 193.2 Z M 327.78 292.56 326.9 292.31 326.19 292.37 324.44 293.06 321.9 293.57 320.7 293.63 318.72 293.57 317.69 293.63 317.13 293.82 316.26 294.82 316.02 296.77 315.78 296.96 314.43 297.33 312.76 298.15 311.33 298.65 309.66 299.09 306.25 299.47 305.45 299.78 305.21 300.54 305.45 301.29 307.2 301.98 307.84 302.42 308.55 303.11 312.2 307.38 314.35 310.21 317.37 314.48 317.45 314.92 317.29 316.68 317.45 316.87 318.24 317.18 319.19 319.82 319.75 320.82 320.46 321.51 321.42 322.02 322.53 322.39 323.56 322.58 323.96 322.58 324.75 321.95 330.16 313.1 330.79 312.28 333.81 309.58 334.53 309.21 337.23 308.2 337.54 307.83 337.62 307.07 337.54 306 337.15 304.68 335.16 299.91 334.45 298.84 332.54 296.65 328.97 293.44 327.78 292.56 Z M 257.07 341.48 259.69 341.36 262.08 341.42 262.71 341.29 262.95 341.04 263.19 340.16 263.03 339.66 263.11 338.97 264.22 336.96 264.38 336.4 264.3 334.76 264.14 334.26 263.11 332.63 261.6 330.62 258.82 327.92 255.64 325.09 249.29 320.19 247.78 318.75 246.35 317.18 245.87 316.05 245.48 315.67 244.6 315.36 239.28 314.92 238.57 314.98 238.17 315.1 237.85 315.36 237.45 316.23 236.98 323.9 237.37 336.27 237.61 337.02 238.17 337.71 240.63 338.22 241.98 338.84 247.94 342.36 249.13 342.8 250.16 342.93 251.04 342.86 255.72 341.67 257.07 341.48 Z M 265.66 295.45 261.84 304.93 261.76 305.43 262.08 307.44 262.64 308.51 263.19 309.08 264.78 309.33 265.34 309.2 269.15 307.51 272.96 305.68 273.92 304.99 276.62 302.61 278.92 300.22 279.72 299.72 281.07 299.34 287.9 298.09 288.77 297.83 290.84 296.77 291.79 296.01 292.43 295.32 292.74 294.63 292.9 293.37 292.82 292.37 292.35 291.74 290.28 289.92 289.81 289.29 289.57 288.67 289.41 286.34 288.85 286.15 287.34 286.34 285.52 285.08 281.54 281.76 281.07 281.51 280.43 281.57 279.64 281.82 278.76 282.89 277.81 284.58 277.1 285.34 275.98 286.15 274.71 286.78 274.08 286.97 272.49 287.03 269.55 287.6 266.85 288.22 265.81 288.66 265.74 290.8 265.81 293.63 265.66 295.45 Z M 165.56 270.39 165.24 269.26 164.05 267.62 163.81 266.75 164.69 264.61 164.85 263.98 164.69 263.29 164.45 262.98 163.26 262.16 162.62 261.91 160.16 261.53 157.3 261.28 152.06 261.16 150.47 261.41 147.92 262.29 146.49 263.04 143.24 265.49 142.52 266.18 142.13 266.81 141.89 267.62 141.89 268.75 142.28 269.38 145.86 271.64 146.02 271.96 145.94 273.21 146.02 274.6 146.26 275.91 146.58 276.67 148.08 278.11 150.31 279.62 152.77 280.69 154.04 281.06 155.31 281.25 156.66 281.31 157.94 281.19 159.21 280.69 162.46 278.24 162.94 278.11 165.4 278.18 167.15 278.05 168.02 277.8 170.01 276.79 170.17 276.54 169.77 272.77 168.66 271.08 168.34 270.89 165.88 270.58 165.56 270.39 Z M 236.18 248.59 237.69 248.28 239.76 247.71 241.75 246.96 242.46 246.58 244.05 245.2 246.35 243.63 246.83 243.19 246.99 242.88 246.51 241.56 244.37 239.61 243.49 237.1 243.1 236.22 242.78 235.84 242.22 235.59 240.32 235.34 239.92 235.03 240.24 233.02 240.08 232.14 239.76 231.32 239.36 230.76 238.57 230 237.77 229.63 236.74 229.5 235.55 229.5 234.52 229.69 233.48 230.19 232.69 230.44 231.58 230.57 230.39 230.57 228.32 230.25 227.13 230.38 225.86 230.69 225.38 231.32 225.78 232.01 227.76 233.14 228 233.46 227.92 233.65 227.6 233.77 225.06 234.27 224.51 234.59 223.87 235.84 223.31 237.48 223.32 238.29 224.03 240.93 224.11 241.68 223.79 242.69 222.68 243.38 222.52 243.63 222.76 244.45 223.16 244.89 224.35 245.52 226.97 246.27 229.19 247.08 230.86 248.28 231.5 248.53 233.48 248.72 234.91 248.72 236.18 248.59 Z M 267.8 322.7 269.15 323.08 273.52 322.58 275.9 322.96 283.69 323.33 284.88 323.33 285.75 323.21 286.86 322.46 287.66 321.32 288.13 319.88 288.37 318.18 288.06 313.35 287.82 312.97 286.86 312.53 285.59 312.47 282.81 312.91 282.18 312.91 281.86 312.72 281.54 312.34 281.06 310.58 280.51 305.75 280.35 305.43 279.87 305.25 279.56 305.31 274.87 308.2 273.04 308.95 269.63 310.58 266.21 312.28 265.49 312.84 263.43 315.17 262.79 316.42 262.71 317.3 262.87 317.74 263.67 318.94 261.6 320.63 261.52 321.39 261.76 322.01 262.24 322.33 262.87 322.45 267.8 322.7 Z M 258.75 259.58 253.98 255.19 251.91 253.55 250.88 252.93 250.25 252.8 249.77 252.99 248.97 254.31 247.86 254.18 246.75 253.87 245.32 253.68 244.68 253.74 244.13 253.93 243.49 254.31 243.09 254.69 242.62 255.44 242.22 258.39 242.06 258.7 240.4 258.27 239.6 258.45 239.12 258.83 238.97 259.27 239.36 261.22 238.89 261.59 238.49 262.29 238.73 263.04 239.44 263.67 240.24 263.98 244.29 264.86 244.52 264.99 244.6 265.24 242.86 268.69 242.46 269.95 242.54 270.7 242.94 271.14 244.37 271.71 246.83 273.09 247.7 273.34 248.82 273.4 249.53 273.21 253.66 271.45 257.79 269.38 262.64 266.56 263.19 266.12 263.51 265.24 263.43 264.17 262.96 263.86 259.62 262.85 259.38 262.47 259.38 261.28 259.22 260.4 258.75 259.58 Z M 154.2 208.4 156.34 211.54 156.9 211.98 157.53 212.17 159.84 212.35 161.27 212.29 162.46 212.1 163.49 211.73 165.72 210.41 168.5 209.09 169.53 208.46 170.4 207.71 171.12 206.89 171.59 206.14 171.6 205.63 171.28 205.26 170.33 204.63 169.53 204.38 168.66 204.25 166.59 204.38 165.72 204.19 164.68 203.75 158.41 200.3 156.98 199.73 154.51 199.1 152.93 198.29 149.75 196.4 147.52 195.21 146.73 194.9 145.93 194.71 143.95 194.77 142.68 195.02 141.25 195.52 139.82 196.28 138.71 197.22 137.91 198.29 137.59 199.36 137.67 201.05 137.83 201.68 138.23 202.06 139.26 202.75 141.57 203.56 145.38 204.13 147.21 204.51 149.19 205.07 153.48 207.65 154.2 208.4 Z M 547.5 303.34 547.34 304.03 547.25 311.69 546.85 321.68 545.42 342.03 545.17 354.15 544.06 368.84 544.29 368.78 544.69 368.47 545.88 366.9 547.15 364.89 548.59 362.57 549.78 360.18 549.86 359.49 549.3 356.22 549.3 354.84 549.94 351.26 549.86 345.98 550.5 341.65 550.58 339.2 550.36 333.74 550.35 333.49 550.42 330.97 550.98 325.32 551.06 323.06 550.98 320.74 550.72 319.54 550.19 317.16 549.88 308.62 549.7 306.44 549.64 305.73 549.55 305.25 549.32 304.09 548.93 302.9 548.61 302.46 548.29 302.4 547.97 302.52 547.5 303.34 Z M 553.75 368.78 554.38 368.97 555.02 368.97 555.65 368.78 557.32 367.28 560.82 362.13 562.57 359.12 562.73 358.55 562.73 357.98 561.14 353.96 561.06 353.09 561.14 347.24 560.96 346.81 560.75 346.3 560.75 345.93 561.54 343.79 562.18 341.34 562.89 334.94 563.21 333.05 563.61 324.82 564.01 322.63 564.73 319.8 566.95 316.28 566.87 316.22 566.48 316.28 564.01 317.22 563.54 317.16 562.98 316.91 561.95 316.03 560.84 315.59 560.12 315.4 559.57 315.53 559.01 316.41 558.77 317.1 558.45 318.1 558.29 319.17 558.21 320.93 558.37 322.87 558.56 324.4 558.61 324.76 559.48 328.17 560.04 330.35 560.11 332.04 559.88 333.87 558.21 339.52 557.8 354.15 557.41 356.66 556.69 359.99 556.29 361 555.81 361.75 552.32 366.46 552.16 366.9 552.24 367.4 552.69 367.96 552.79 368.09 553.19 368.47 553.75 368.78 Z M 289.56 351.53 291.71 351.72 292.9 351.35 293.61 350.84 295.04 348.83 296.23 346.32 297.74 344 297.82 343.49 297.66 343.05 297.03 342.49 294.01 340.92 286.86 338.03 284.8 337.59 280.03 337.15 277.41 337.15 276.77 337.34 275.42 338.22 274.87 338.85 274.63 339.6 274.55 340.54 274.71 341.55 275.1 342.43 275.74 343.3 276.69 344.12 277.73 344.81 278.68 345.19 281.38 345.82 283.13 346.76 283.68 347.39 284.48 348.64 285.35 349.65 286.86 350.65 288.13 351.22 289.56 351.53 Z M 291.79 237.04 291 237.1 289.73 237.04 289.17 237.17 286.15 238.99 284.8 239.43 283.53 239.49 282.34 239.36 281.63 239.11 280.28 238.36 279.16 238.17 278.85 238.55 278.77 239.05 279.24 241.62 279.08 242.13 278.13 243.51 277.89 244.07 277.89 244.51 278.05 244.77 279.48 245.39 282.58 247.59 283.85 248.34 285.52 248.97 288.93 250.04 291.24 251.04 292.51 251.42 295.29 251.74 296.64 251.67 297.75 251.49 298.55 251.11 299.02 250.42 299.26 249.66 299.1 248.03 298.79 247.47 294.81 242.44 294.5 241.88 294.18 239.68 293.23 238.61 292.99 236.79 292.83 236.6 292.59 236.6 291.79 237.04 Z M 311.96 347.96 307.75 348.83 306.48 349.21 305.37 349.71 302.35 351.66 301 352.41 299.09 353.1 297.27 353.98 296.95 354.36 295.99 356.81 295.68 357.25 295.28 357.56 293.05 358.44 289.56 359.32 289.16 359.64 289.32 360.45 289.56 360.89 289.8 361.08 290.27 361.14 292.1 360.7 295.68 360.39 296.47 360.52 299.96 361.58 300.44 361.52 302.19 360.95 304.41 360.14 315.3 354.49 316.57 353.48 317.04 352.98 317.28 352.48 317.44 351.79 317.44 351.03 317.28 349.65 317.12 349.4 316.01 348.77 315.62 348.27 315.69 347.95 316.09 347.45 316.17 347.14 316.01 346.89 315.54 346.7 314.74 346.82 311.96 347.96 Z M 125.75 202.31 127.58 205.07 128.69 206.01 130.05 206.83 131.87 207.71 133.22 208.27 134.1 208.53 140.85 209.47 147.6 210.28 149.51 210.41 150.86 210.41 151.89 210.22 152.53 209.84 152.77 209.53 152.29 208.65 151.73 208.02 150.7 207.14 149.59 206.33 147.68 205.45 146.49 205.2 141.49 204.76 140.53 204.51 139.26 203.88 136.8 202.12 136.32 201.49 135.68 199.98 135.05 199.04 134.25 198.16 133.7 197.79 132.59 197.53 129.73 197.41 126.07 197.6 123.93 197.85 123.13 198.1 122.97 198.98 123.05 199.92 125.75 202.31 Z M 552.52 255.17 550.3 254.54 549.66 254.54 549.34 254.86 548.95 255.61 548.47 256.86 548.23 257.93 547.9 276.08 548.22 282.3 548.62 288.08 548.77 289.02 548.85 289.17 549.09 289.65 549.89 289.96 550.12 289.84 550.6 289.33 551.08 288.27 552.67 282.55 553.15 273.64 554.82 260.01 554.9 258.31 554.84 257.95 554.66 257.05 554.49 256.64 554.43 256.49 554.11 256.05 553.63 255.67 552.52 255.17 Z M 335.56 258.59 334.61 258.52 333.9 258.65 330.8 259.78 328.18 260.97 327.3 261.16 326.35 261.22 323.09 260.59 318.88 259.21 316.98 258.77 316.42 258.33 314.91 256.45 314.43 256.07 313.8 255.82 313.4 255.88 313.08 256.07 312.84 256.57 312.92 257.45 313.32 258.08 314.35 258.84 315.94 259.71 320.07 261.47 326.83 264.55 328.89 265.62 329.92 266.56 330.72 267.75 330.72 268.38 330.08 269.39 329.37 270.02 327.22 271.21 326.83 271.84 326.75 272.34 326.75 272.65 327.14 273.03 328.18 273.53 329.37 273.91 331.03 273.91 332.54 273.78 334.29 273.41 337.23 272.53 338.34 271.96 339.14 271.21 340.09 269.58 340.33 268.57 340.41 267.32 340.25 266.06 340.09 265.68 339.77 265.37 338.42 264.3 337.39 263.3 336.99 262.61 336.84 259.9 336.52 259.21 335.56 258.59 Z M 218.71 183.72 218.07 183.65 217.75 183.72 216.48 184.6 215.69 184.91 206.79 186.48 206.39 186.92 206.63 188.17 206.55 188.93 206.08 190.56 206.31 192.76 206.23 193.51 200.83 193.2 198.69 193.2 198.13 193.32 197.89 193.51 197.1 195.71 197.02 196.47 197.18 197.09 197.58 197.66 198.21 198.04 200.04 198.79 200.75 198.85 209.02 198.73 211.08 198.16 211.56 197.85 214.73 194.77 215.37 193.95 215.61 193.2 215.69 191.38 215.93 190.56 216.4 189.56 218.79 185.85 219.1 184.72 219.1 184.03 218.95 183.84 218.71 183.72 Z M 29.55 225.3 30.82 225.87 31.69 225.74 33.84 224.8 39.08 224.74 40.12 224.49 41.15 224.05 42.26 223.35 41.94 220.15 41.46 218.27 40.75 216.7 39.32 214.75 38.21 213.62 37.65 213.18 37.09 212.99 35.03 212.93 33.6 213.12 32.57 213.5 31.53 214.19 28.99 216.2 25.26 219.4 24.39 220.28 24.3 220.66 24.38 221.03 24.94 221.85 28.44 224.61 29.55 225.3 Z M 342.71 279.44 341.84 278.62 340.81 277.93 340.17 277.93 339.69 278.06 338.1 279.12 334.61 282.45 334.13 283.08 334.05 284.15 334.93 286.47 335.16 287.79 335.64 289.23 337.47 291.87 338.34 294.07 338.66 294.57 339.53 295.14 340.25 295.77 340.88 298.78 341.28 299.35 342.15 300.1 343.74 301.17 344.22 301.42 344.77 301.48 345.25 301.42 345.49 301.04 345.81 299.16 345.81 296.14 345.65 294.89 345.41 294.07 344.7 292.56 343.27 290.81 342.87 289.99 341.68 286.47 341.68 285.84 342.16 284.59 342.08 282.64 342.24 281.26 342.63 280.19 342.71 279.44 Z M 190.35 225.86 189.07 227.49 188.76 228.12 188.76 229 189 230.57 189.31 231.64 189.71 232.2 190.11 232.51 190.66 232.7 193.29 232.77 194 232.64 195.99 231.89 196.46 231.82 196.94 231.95 197.34 232.2 197.89 233.27 198.37 233.65 199.09 233.96 201.07 234.21 202.5 233.96 203.3 233.71 203.93 233.33 204.81 232.26 205.2 231.38 205.36 230.13 205.12 228.31 203.93 226.92 202.18 225.35 201.31 224.79 200.2 224.29 198.85 223.97 198.13 224.66 197.5 224.85 197.1 224.73 195.19 223.53 194.4 223.16 193.68 222.97 193.05 222.84 191.14 223.22 190.82 223.53 190.66 224.04 190.35 225.86 Z M 540.76 265.34 541.72 253.72 541.59 253.38 541.56 253.28 540.61 251.9 540.13 251.53 540.05 251.4 539.57 251.21 539.17 251.59 539.1 252.09 539.65 254.29 539.09 257.55 538.69 265.84 538.53 270.43 538.29 273.06 538.21 273.63 537.98 274.07 536.47 276.39 534.8 278.65 534.48 279.28 534.32 280.1 534.24 287.2 534.55 288.26 535.98 290.15 536.38 294.29 536.7 295.42 536.93 295.93 537.25 296.18 538.44 296.3 538.84 295.99 539.16 295.3 539.32 293.54 538.92 285.56 539.32 279.03 540.36 270.05 540.76 265.34 Z M 159.76 253.74 160.72 253.18 162.46 251.55 164.29 250.79 164.45 249.97 163.73 249.41 162.22 248.97 161.91 248.72 161.75 248.22 161.91 247.71 162.54 247.4 164.37 247.02 165.56 246.65 166.12 246.14 166.51 245.26 166.67 241.94 166.35 241.06 165.72 240.3 163.65 239.05 161.67 238.11 161.19 237.98 160.64 237.98 158.65 238.36 156.74 238.99 156.5 239.24 156.66 240.81 156.42 241.37 155.47 242.82 155.15 243.7 155.07 245.08 155.23 245.96 156.35 247.21 156.19 251.55 156.42 253.37 156.82 253.68 157.85 253.93 159.05 253.93 159.76 253.74 Z M 542.89 100.42 542.34 92.44 540.67 82.7 540.54 81.99 540.2 80.13 539.96 79.61 539.8 79.25 539.4 78.75 539.08 78.56 538.37 78.69 538.05 79.06 537.89 79.5 537.89 80.26 539.8 87.48 540.59 91.31 541.3 103.12 541.22 104.44 540.9 105.44 539.47 108.01 538.83 108.83 529.85 115.8 518.01 126.73 516.26 128.11 514.91 129.17 514.51 129.68 514.27 130.37 514.27 130.81 515.54 130.37 522.22 125.28 538.12 111.72 544.16 106.19 544.24 105.69 544.16 104.56 543.92 103.18 542.89 100.42 Z M 273.44 352.16 273.36 351.34 273.12 350.84 268.75 349.65 266.45 348.02 265.65 347.76 265.26 347.83 262.79 348.71 260.49 348.96 259.61 349.27 259.38 349.77 259.38 350.71 260.09 355.55 259.85 356.43 259.22 357.25 258.82 357.56 258.34 357.69 255.41 357.81 254.53 358.06 253.82 358.5 253.02 360.01 252.86 360.64 252.94 361.33 255.33 361.71 256.12 361.64 258.42 361.14 260.57 360.39 262.08 359.63 263.19 358.69 266.13 354.74 267.08 354.04 268.03 353.54 269.15 353.29 271.93 353.1 272.56 352.91 273.36 352.48 273.44 352.16 Z M 221.33 219.2 223.63 224.29 224.19 225.1 225.14 225.86 226.34 226.24 228 226.49 230.15 226.24 232.93 225.42 234.36 224.79 235.31 224.04 236.03 223.28 236.42 222.66 236.58 221.96 236.42 220.33 236.11 219.77 235.15 218.89 234.2 218.26 232.05 217.51 231.18 217.38 228.8 217.32 222.04 217.44 221.49 218.07 221.33 219.2 Z M 328.01 321.01 327.93 322.58 328.25 323.08 328.96 323.65 330.87 324.72 331.82 325.1 332.54 325.22 333.17 325.09 333.89 324.66 336.43 322.39 337.94 320.82 338.73 319.51 339.13 318 339.21 315.99 338.97 312.22 338.58 310.21 338.18 309.71 337.62 309.52 337.23 309.71 332.46 313.73 331.59 314.61 331.03 315.42 330.08 318 329.68 318.63 328.41 320.01 328.01 321.01 Z M 266.77 281.69 267.72 281.19 267.88 280.81 267.8 280.06 267.48 279.87 265.74 279.37 264.39 278.55 261.76 277.8 258.59 277.3 256.68 276.86 256.2 276.86 254.85 277.17 254.46 277.36 254.14 277.67 252.63 282.01 252.31 283.51 252.23 284.71 252.39 285.59 252.71 286.28 253.18 286.72 253.9 287.03 255.09 287.16 256.6 287.09 262.72 284.39 264.31 283.51 266.77 281.69 Z M 213.39 128.95 212.67 128.89 212.03 129.2 211.72 129.52 210.6 132.15 209.57 135.35 209.49 136.3 209.57 137.49 209.73 137.87 210.21 138.37 211.88 139.75 213.15 141.45 214.34 144.15 216.48 147.6 218.39 150.37 219.1 150.8 219.5 150.74 219.74 150.49 219.98 148.98 219.5 144.46 217.67 140.76 217.04 139.06 216.25 135.86 216.25 135.04 216.01 133.6 215.21 131.34 214.18 129.45 213.39 128.95 Z M 167.62 220.77 168.18 221.15 169.53 223.09 170.09 223.6 171.04 224.16 175.49 226.05 176.84 226.3 178.03 226.17 179.14 226.36 179.7 226.17 180.65 225.42 181.05 224.41 180.97 223.35 180.18 221.96 179.54 221.21 177.48 219.64 176.76 219.45 174.46 219.2 170.96 217.69 168.74 217.13 161.98 216.75 160.4 216.94 160 217.13 159.76 217.44 159.52 218.07 159.68 218.64 160.39 219.08 162.7 219.64 166.75 220.27 167.62 220.77 Z M 160 230.57 162.7 228.62 164.05 227.87 165.08 227.62 166.2 227.62 170.41 228.31 171.36 228.31 171.44 228.18 171.36 227.87 170.88 227.11 169.45 225.42 167.78 223.72 166.2 222.53 164.53 221.71 162.86 221.15 161.27 220.83 159.92 220.77 158.01 220.96 157.46 221.34 157.06 221.78 156.9 222.59 157.22 225.36 156.58 228.12 156.9 230.76 157.06 230.88 158.09 230.95 159.12 230.82 160 230.57 Z M 86.11 209.91 87.54 211.29 88.26 211.73 88.81 211.79 89.29 211.73 89.85 211.42 91.43 209.66 93.18 208.21 97.79 205.64 98.9 204.88 99.54 204.26 99.85 203.57 99.77 203 99.38 202.88 96.04 202.62 93.74 202.62 91.51 202.75 90.96 202.94 89.61 203.94 86.67 205.33 85.71 206.08 85.16 206.71 84.92 207.4 85.08 208.47 86.11 209.91 Z M 222.36 208.65 224.59 208.4 225.22 208.08 225.38 207.65 225.3 207.14 224.98 206.83 213.7 202.31 212.19 201.93 210.37 201.68 209.57 201.8 208.78 202.24 208.3 202.68 207.59 204.19 207.74 205.07 207.98 205.38 210.52 206.51 213.39 207.33 215.85 207.46 217.59 207.71 219.58 208.21 222.36 208.65 Z M 213.31 265.55 212.11 265.17 211.08 265.42 210.52 265.68 209.97 266.3 209.41 266.49 208.78 266.49 204.49 265.61 203.06 265.68 202.74 265.93 202.18 266.74 202.58 267.75 203.22 268.44 204.25 268.94 208.38 270.45 211.16 271.39 211.72 271.45 212.91 271.2 214.02 270.07 215.77 269.51 216.48 269.13 217.2 268.31 217.28 268 217.2 267.62 216.8 267.31 213.31 265.55 Z M 263.59 226.36 263.75 226.99 264.39 227.62 265.18 227.87 266.06 227.93 267.01 227.81 269.95 226.93 272.01 226.17 274.24 225.11 274.64 224.67 274.87 223.16 274.8 220.9 274.56 220.46 274.16 220.21 273.29 220.02 272.81 220.08 270.35 221.09 268.04 221.59 267.17 222.34 264.79 223.41 264.23 224.04 263.91 224.6 263.59 226.36 Z M 245.48 310.02 245.4 308.89 245 307.76 244.13 306.31 243.65 305.75 243.09 305.62 239.12 305.81 238.49 306 237.38 306.75 237.14 307.25 237.22 308.95 237.45 310.2 237.93 311.4 238.73 312.91 239.84 313.28 242.38 313.66 243.33 313.97 244.29 314.1 244.6 314.04 244.84 313.85 245.08 313.22 245.32 312.09 245.48 310.02 Z M 135.45 214.81 134.26 214.3 132.83 214.18 132.51 214.43 131.24 216.75 131.16 217.38 131.4 217.76 133.22 218.76 135.92 219.77 138.78 221.4 140.45 221.96 142.28 222.28 143.23 222.22 143.71 221.78 143.87 221.15 143 219.96 141.41 218.39 140.45 217.63 135.45 214.81 Z M 511.71 204.29 511.07 205.86 511.23 206.17 513.29 208.12 515.28 210.19 515.91 211.26 516.39 214.46 516.55 214.78 517.34 215.28 517.58 215.28 517.74 215.34 518.14 215.28 518.38 215.16 518.46 214.28 518.44 214.04 518.38 213.33 517.11 209.19 515.92 205.38 515.84 205.11 513.85 199.83 513.61 199.52 513.22 199.33 512.5 199.2 512.18 199.26 511.79 199.77 511.55 200.77 511.87 203.6 511.71 204.29 Z M 165.96 281.13 164.29 281.38 163.81 281.57 163.42 281.88 161.19 284.89 160.95 285.52 161.11 286.21 161.51 286.53 163.66 287.41 165.88 288.16 166.43 288.16 167.94 287.41 169.14 286.34 170.25 285.15 170.49 284.71 170.33 283.7 169.38 282.45 168.74 281.94 167.39 281.32 165.96 281.13 Z M 744.97 319.55 743.06 319.48 736.94 319.86 732.41 320.36 727.73 321.3 723.28 322.36 718.2 323.93 717.88 324.12 717.8 324.31 717.8 324.87 718.03 325.25 718.59 325.38 725.82 324 729.16 323.06 733.13 322.12 742.19 320.49 744.41 320.36 744.89 320.24 745.2 319.86 744.97 319.55 Z M 190.11 180.95 191.77 181.08 192.73 181.01 193.21 180.83 193.44 180.39 193.36 180.14 193.05 179.82 188.12 177.5 187.72 177.18 186.29 174.74 185.82 174.42 184.86 174.23 179.86 174.74 179.14 174.86 178.82 175.24 178.67 175.49 178.82 175.99 179.06 176.24 187.4 180.51 190.11 180.95 Z M 45.84 228.38 45.04 233.47 45.28 234.22 45.68 234.41 46.47 234.53 49.57 234.53 52.91 234.78 54.1 234.72 54.73 234.53 55.13 234.28 55.21 233.97 55.13 233.65 54.66 233.21 50.68 230.51 48.46 228 47.74 227.63 47.11 227.5 46.55 227.56 46.07 227.94 45.84 228.38 Z M 25.98 231.08 26.21 230.08 26.29 229.2 26.21 228.57 25.9 227.88 25.18 227.06 23.27 225.24 22.8 225.05 21.53 224.93 21.37 227.13 21.13 228.19 20.65 229.14 19.7 230.52 19.62 231.21 19.86 231.9 20.97 233.22 22.32 233.66 23.27 233.78 24.15 233.47 24.79 232.97 25.42 232.15 25.98 231.08 Z M 252.55 307.76 254.14 308.45 254.77 308.2 255.01 307.94 254.93 307.51 254.53 306.82 252.47 304.93 252.15 304.43 251.99 301.92 252.47 298.65 252.31 297.9 252.07 297.46 251.75 297.21 251.2 297.14 250.88 297.33 248.42 299.78 247.94 300.41 247.7 301.29 247.7 302.61 247.86 303.86 248.02 304.36 248.34 304.81 251.2 307 252.55 307.76 Z M 46.22 178.51 42.65 177.32 40.98 176.5 39.71 175.69 38.04 175.75 37.48 176.19 37.64 176.88 38.36 177.88 39.95 178.76 42.49 179.71 44.48 180.58 45.59 181.34 47.65 181.97 49.8 182.28 51.47 182.28 51.31 181.21 50.43 180.08 48.29 179.39 46.22 178.51 Z M 186.06 188.68 186.69 188.8 187.48 188.8 188.04 188.61 189.95 187.48 190.34 187.11 190.5 186.48 190.42 185.98 189.55 185.41 187.72 184.66 185.18 183.84 184.94 183.59 184.63 182.27 184.31 181.64 183.51 181.08 182.8 180.7 182.08 180.58 181.29 180.7 180.65 181.33 180.57 182.21 180.81 182.96 181.29 183.59 183.59 185.1 184.47 186.1 185.26 187.8 185.58 188.24 186.06 188.68 Z M 168.82 234.21 169.93 233.96 171.28 233.33 171.6 232.96 171.68 232.64 171.52 232.2 171.04 231.64 170.09 230.95 167.63 229.63 166.51 229.25 165.72 229.25 165 229.44 164.13 229.88 163.34 230.57 162.86 231.64 162.7 232.7 163.1 233.58 163.73 234.15 164.37 234.4 165.16 234.52 168.82 234.21 Z M 282.98 235.66 281.63 236.98 281.39 237.35 281.39 237.67 281.55 237.92 282.1 238.23 283.14 238.3 284.41 238.17 285.36 237.86 286.79 236.98 287.66 236.29 288.46 235.47 289.17 234.28 289.17 233.9 286.39 231.89 285.76 230.7 284.88 229.82 284.41 229.5 284.09 229.44 283.69 229.63 283.61 230.01 284.09 233.33 284.01 233.9 283.61 234.78 282.98 235.66 Z M 126.07 194.77 127.98 194.52 131.79 193.89 133.86 193.33 134.73 192.7 135.21 192.13 134.65 191.57 134.01 191.25 133.14 190.94 132.19 190.75 129.57 190.69 128.06 190.81 124.4 192.45 123.85 193.01 123.69 194.02 123.85 194.39 124.24 194.58 125.28 194.77 126.07 194.77 Z M 381.39 325.1 380.52 325.42 380.12 325.79 379.88 326.61 379.88 327.3 380.99 328.12 383.69 329 386.55 329.44 388.94 330 390.52 330.06 391.08 329.94 391.32 329.75 391.48 329.12 391.4 328.56 390.21 327.05 389.49 326.92 386.16 326.86 385.12 326.67 384.01 326.17 383.45 325.42 382.74 325.1 382.1 325.04 381.39 325.1 Z M 506.23 178.98 506.71 179.04 507.11 178.73 507.58 178.03 507.9 177.03 507.9 176.02 506.87 172.07 506.32 166.04 505.76 163.15 505.6 162.65 505.36 162.52 505.13 162.83 504.57 164.78 504.33 167.23 504.33 169.74 505.12 173.39 505.52 177.6 505.99 178.79 506.23 178.98 Z M 276.86 232.14 276.07 233.9 276.07 234.97 276.38 235.66 277.1 235.78 278.45 235.78 280.12 235.53 281.63 235.16 282.26 234.9 282.5 234.65 282.58 233.77 281.86 230.76 281.31 229.82 280.67 229.31 279.72 229.31 279.01 229.5 277.5 231.01 276.86 232.14 Z M 521.41 379.77 523.08 380.46 523.8 379.7 524.59 378.57 525.63 377.51 525.54 375.94 524.43 375.12 522.45 374.49 520.07 373.05 519.35 373.11 518.87 373.55 518.71 374.18 518.95 375.75 519.98 377.95 521.41 379.77 Z M 177.8 303.99 177.24 303.93 176.84 304.05 175.57 305.24 174.94 310.08 175.25 311.21 175.65 311.34 176.21 311.27 177 310.96 179.86 309.45 180.5 308.19 180.74 307.32 180.82 306.37 180.74 306.12 177.8 303.99 Z M 639.73 293.51 639.49 293.13 634.33 288.04 628.37 282.89 624.09 280 623.69 279.81 623.37 279.87 623.21 280.56 623.45 280.81 637.74 293.07 638.38 293.44 639.17 293.69 639.65 293.7 639.73 293.51 Z M 304.5 340.61 303.54 341.11 302.19 342.24 301.32 343.31 301.24 343.68 301.48 344 301.95 344.25 304.26 345.07 306.64 345.88 307.83 346.01 308.62 345.82 308.86 345.57 309.18 344 309.02 343.06 308.55 342.18 307.83 341.49 306.88 340.98 305.61 340.54 305.05 340.48 304.5 340.61 Z M 42.02 225.8 41.15 226.31 40.51 226.37 36.94 226.12 35.83 226.25 35.43 226.43 35.27 226.69 35.27 227 35.51 227.38 37.57 228.51 38.13 228.76 38.92 228.88 40.67 228.94 42.02 228.88 43.06 228.69 43.77 228.44 44.96 227.5 45.2 227.12 45.36 226.06 45.36 224.8 45.12 223.92 44.72 223.48 44.09 223.54 43.61 223.79 42.9 225.05 42.02 225.8 Z M 260.09 290.8 257.15 290.61 256.52 290.67 256.04 290.86 255.65 291.18 255.33 291.74 254.85 293.5 254.85 294.82 255.09 295.38 255.65 295.89 256.04 296.14 256.52 296.2 258.74 295.95 259.3 295.7 260.09 295.07 260.65 294 260.81 292.56 260.81 291.87 260.65 291.37 260.41 290.99 260.09 290.8 Z M 171.12 288.91 170.89 290.48 170.01 291.49 169.69 292.74 170.72 293.37 172.55 293.75 173.35 293.69 174.22 293.44 175.02 292.93 175.65 292.18 176.05 291.3 176.21 290.61 176.21 289.61 175.89 288.91 175.1 288.54 173.83 288.35 172.32 288.29 171.44 288.47 171.12 288.91 Z M 147.68 229.82 148.24 228.12 148.32 226.24 148.08 225.92 143.95 223.91 142.84 223.72 142.12 223.79 141.57 224.6 141.57 225.67 141.73 226.05 142.36 226.42 144.19 227.05 145.46 230 145.78 230.51 146.81 231.01 147.13 230.95 147.68 229.82 Z M 214.74 151.94 214.02 151.87 213.62 151.94 212.83 152.44 212.75 152.69 213.39 156.65 213.86 157.78 214.81 158.84 215.85 159.6 216.56 159.98 217.36 160.1 217.59 159.85 217.67 159.22 217.44 157.71 216.88 155.58 216.09 153.51 215.29 152.25 214.74 151.94 Z M 155.63 235.47 155.39 235.09 154.92 234.78 152.53 233.52 152.06 232.64 151.66 230.51 151.34 229.69 150.94 229.12 150.47 228.94 150.07 228.94 149.83 229.06 149.59 229.44 149.19 230.76 148.64 233.4 148.56 234.59 149.27 235.03 150.94 235.72 153.09 236.16 154.12 236.22 154.99 236.1 155.55 235.78 155.63 235.47 Z M 196.39 303.93 195.99 304.62 195.83 305.87 196.15 307.19 196.62 307.76 197.58 308.19 198.53 308.51 199.25 308.57 200.28 308.38 200.91 308.13 201.31 307.44 201.55 306.19 201.47 305.56 201.15 304.93 200.2 304.05 199.64 303.8 198.13 303.48 196.7 303.67 196.39 303.93 Z M 259.14 300.53 258.35 299.09 257.55 298.15 256.92 297.58 256.36 297.27 255.81 297.2 255.33 297.46 254.77 298.9 254.22 301.54 254.3 302.35 255.01 303.8 255.49 304.24 256.28 304.68 256.76 304.68 257.15 302.61 257.47 302.23 258.98 301.16 259.14 300.53 Z M 113.92 203.75 112.88 203.56 112.25 203.57 108.28 204.82 107.48 205.26 107.16 205.7 107.16 206.02 107.56 206.58 108.36 207.08 110.26 207.58 111.37 207.58 113.2 207.52 113.68 207.4 114 207.21 114.32 206.77 114.47 206.14 114.47 205.26 114.31 204.26 113.92 203.75 Z M 31.22 235.48 32.09 235.67 33.28 235.6 33.52 235.48 33.6 234.6 33.44 234.22 32.73 233.47 31.85 232.15 31.06 231.33 30.11 230.89 28.84 230.52 28.12 230.58 27.56 230.83 26.69 231.84 26.53 232.46 26.69 233.22 27.33 233.72 30.27 235.1 31.22 235.48 Z M 272.97 227.93 272.01 228 270.98 228.37 269.87 228.94 269.55 229.31 269.47 229.82 269.47 231.14 269.71 232.14 270.19 232.7 270.98 233.27 271.93 233.71 272.41 233.77 272.81 233.77 273.36 233.4 274 231.89 274.16 230.7 274.08 228.75 273.84 228.25 273.52 228.06 272.97 227.93 Z M 172.63 176.87 171.83 176.81 170.01 176.93 168.1 177.31 165.4 178.44 164.68 178.94 164.36 179.32 164.28 179.63 164.76 180.01 165.48 180.07 167.86 179.82 170.8 179.07 173.34 178.69 174.3 178.38 175.09 177.88 174.77 177.5 172.63 176.87 Z M 184.39 227.36 185.66 227.43 187.09 227.18 187.33 226.93 187.49 226.05 187.33 224.98 186.22 223.72 185.42 223.03 185.02 222.78 184.39 222.78 183.51 223.03 183.12 223.35 182.72 223.97 182.16 225.04 181.85 226.17 181.92 226.74 182.4 227.05 184.39 227.36 Z M 241.75 212.86 242.7 212.92 243.49 212.86 244.45 211.79 244.77 210.85 244.69 210.28 244.29 209.78 242.62 208.9 241.03 208.52 240.48 208.65 239.52 209.53 239.44 210.72 239.52 211.6 239.92 212.04 240.79 212.54 241.75 212.86 Z M 263.51 243.51 264.94 243.57 266.14 243.51 266.61 243.19 266.85 242.88 266.85 242.5 266.77 242.19 266.14 241.37 265.66 241 264.7 240.56 263.91 240.43 262.8 240.43 261.29 240.68 260.18 240.99 259.62 241.37 259.62 241.75 260.02 242.19 260.81 242.69 261.84 243.13 263.51 243.51 Z M 30.43 236.29 28.52 235.6 27.96 235.54 27.65 235.6 27.41 235.73 26.93 237.24 27.01 237.87 27.25 238.43 27.65 238.87 28.28 239.31 29.63 239.37 31.46 239.31 32.49 239.06 32.97 238.74 33.21 238.37 32.89 237.86 31.46 236.86 30.43 236.29 Z M 43.46 245.21 43.06 245.21 42.5 245.84 42.11 246.72 41.55 249.42 41.71 249.86 42.74 250.68 43.54 250.68 44.65 250.42 45.36 249.98 45.68 249.36 45.68 248.48 45.28 247.16 44.89 246.47 44.33 245.84 43.77 245.34 43.46 245.21 Z M 224.51 159.6 226.89 160.67 227.21 160.42 227.53 159.79 227.69 158.91 227.53 158.15 226.89 157.34 225.78 156.46 224.59 155.89 223.63 155.77 223.16 155.96 222.68 156.4 222.36 157.02 222.52 157.71 222.84 158.22 223.55 158.91 224.51 159.6 Z M 179.38 201.8 179.14 201.24 178.19 200.86 177.24 200.8 176.28 200.92 175.17 201.43 174.14 201.99 172.87 203.18 172.79 203.37 172.95 203.62 173.66 203.94 177.48 203.81 179.22 203.5 179.46 203.31 179.46 202.62 179.38 201.8 Z M 16.12 218.08 15.49 218.02 14.85 218.21 14.61 218.52 14.61 219.28 14.85 220.59 15.25 221.29 15.73 221.66 16.76 221.98 17.87 222.29 18.82 222.35 19.78 222.29 20.09 221.98 20.17 221.47 20.09 221.1 19.06 220.16 16.76 218.4 16.12 218.08 Z M 203.45 186.54 202.9 186.54 200.43 187.49 199.56 188.05 199.16 188.61 199.01 189.31 199.08 189.81 199.4 190.12 200.04 190.31 201.71 190.31 203.3 190.19 203.53 189.93 203.69 189.49 204.33 187.42 204.33 186.98 203.45 186.54 Z M 232.38 82.03 231.26 81.22 230.47 81.28 229.75 81.47 229.59 81.66 229.67 82.85 230.63 85.05 230.87 85.36 231.34 85.68 232.85 86.12 233.33 85.93 233.81 85.49 234.04 84.92 234.04 84.17 233.57 83.29 232.38 82.03 Z M 221.17 236.28 219.98 236.16 219.18 236.35 218.55 236.72 218.07 237.16 217.83 237.66 217.75 238.61 217.91 239.05 218.39 239.68 219.26 240.49 219.66 240.62 220.77 240.37 221.33 239.99 221.73 239.3 221.89 238.17 221.81 237.16 221.65 236.72 221.17 236.28 Z M 664.11 305.13 663.79 304.94 662.84 305.07 662.76 306.01 662.92 306.33 668.24 311.67 668.71 311.98 669.11 311.98 669.27 311.67 669.35 310.79 669.03 310.16 664.11 305.13 Z M 581.5 297.82 581.66 297.95 582.61 297.88 585.23 296.94 586.58 296.13 587.77 295.25 588.09 294.81 588.09 294.56 587.85 294.37 586.42 293.87 584.04 294.62 583.41 295.12 581.74 296.88 581.5 297.82 Z M 381.78 357.63 382.57 358.01 382.81 358.01 383.29 357.19 383.29 356.44 382.81 355.44 381.46 353.24 380.75 352.48 379.8 352.04 379.56 352.11 379.24 353.05 379.4 353.74 380.43 355.94 381.15 357.07 381.78 357.63 Z M 549.25 295.8 549.48 297.5 550.28 298.57 550.68 298.57 550.99 298.44 551.15 298.19 551.55 297.25 551.79 296.12 551.39 293.29 551.16 292.6 550.92 292.35 550.04 292.6 549.57 293.04 549.33 293.73 549.25 295.8 Z M 570.22 293.67 571.01 293.74 571.33 293.74 571.57 293.55 572.21 292.36 572.29 291.35 572.68 289.4 572.6 289.03 572.4 288.84 572.13 288.59 571.73 288.46 571.33 288.46 570.62 288.78 570.14 289.72 569.58 291.54 569.5 292.42 569.59 293.05 570.22 293.67 Z M 25.58 239.69 24.15 239.44 23.2 239.5 23.04 239.75 22.96 240.32 23.44 241.82 23.91 242.39 24.47 242.7 24.95 242.83 26.53 242.51 27.57 242.2 28.04 241.82 28.04 241.38 27.17 240.57 25.58 239.69 Z M 401.33 329.94 401.64 330.82 402.2 331.51 402.76 331.89 403.07 331.95 403.71 331.95 404.9 331.64 405.46 331.38 405.85 330.88 406.01 330.38 405.85 329.75 405.54 329.25 405.14 328.94 404.03 328.75 402.91 328.75 401.88 329 401.48 329.37 401.33 329.94 Z M 192.09 204.69 191.54 204.69 190.58 204.95 189.87 205.26 189.63 205.57 189.47 207.27 189.87 207.71 190.98 207.9 192.25 207.83 193.13 207.58 193.68 207.14 193.92 206.64 193.84 205.76 193.52 205.26 192.81 204.88 192.09 204.69 Z M 564 355.91 564.39 356.04 564.79 356.04 565.51 355.72 565.82 355.47 565.98 355.22 566.06 353.53 565.99 352.4 565.87 352.22 565.83 352.15 564.4 351.77 563.52 351.95 563.28 352.21 563.13 352.52 562.97 353.71 563.04 354.53 563.28 355.09 564 355.91 Z M 355.74 279.56 354.79 278.87 354.47 278.87 353.91 279.44 352.4 281.89 352.24 282.33 352.16 282.89 352.24 283.65 352.8 283.96 353.36 284.02 354.07 283.96 354.39 283.84 354.95 281.64 355.74 279.88 355.74 279.56 Z M 564.9 298.07 565.29 297.75 566.25 295.43 566.25 294.55 566.01 293.99 565.53 293.73 564.58 293.73 564.1 293.92 563.55 294.86 563.23 296.06 563.23 297.06 563.54 297.66 563.62 297.82 564.18 298.13 564.9 298.07 Z M 229.91 213.11 230.55 212.73 230.86 211.92 230.94 211.35 230.55 210.22 230.15 210.22 229.43 210.47 227.6 211.41 227.13 211.79 226.73 212.29 226.65 212.86 226.73 213.11 226.97 213.23 228.08 213.3 229.91 213.11 Z M 172.47 270.14 171.84 270.01 171.28 270.26 170.96 270.83 170.81 271.77 171.04 273.09 171.44 273.53 171.92 273.78 172.55 273.65 173.58 272.65 174.06 271.71 174.06 271.08 173.58 270.7 172.47 270.14 Z M 220.38 228.12 221.17 228.24 222.44 228.12 223.63 227.81 224.27 227.43 224.35 226.93 224.11 226.49 222.76 225.73 222.04 225.61 221.25 225.61 220.85 225.92 220.38 226.55 220.06 227.37 220.06 227.93 220.38 228.12 Z M 585.78 321.06 587.21 321.19 588.24 321.19 589.03 321 589.43 320.68 589.59 320.25 589.54 319.96 589.51 319.81 589.27 319.55 587.21 318.99 585.86 318.8 585.54 318.92 585.3 319.18 585.06 319.99 585.3 320.62 585.78 321.06 Z M 11.51 218.46 11.59 217.52 11.43 216.89 11.04 216.51 10.32 216.33 9.53 216.26 9.13 216.51 8.97 216.76 8.97 218.34 9.13 218.9 9.61 219.65 10.16 220.09 10.56 220.16 10.8 220.03 11.2 219.47 11.51 218.46 Z M 303.86 345.94 302.83 345.82 302.27 345.88 301.24 346.57 301.08 346.89 301 347.77 301.48 348.14 301.95 348.14 302.99 348.02 304.49 347.39 305.92 347.26 306.16 347.14 306.24 346.95 305.92 346.7 303.86 345.94 Z M 189.31 237.73 190.43 237.79 191.46 237.41 191.86 237.1 192.01 236.85 191.94 236.47 191.38 235.97 190.35 235.4 189.15 235.22 188.68 235.28 188.28 235.47 188.04 235.84 188.04 236.35 188.28 237.1 188.6 237.54 189.31 237.73 Z M 573.24 281.81 572.45 281.74 571.73 282.12 571.02 282.75 570.7 283.37 570.7 284.19 570.73 284.25 570.78 284.38 571.02 284.5 572.13 284.51 573.24 284.32 573.8 284.07 574.2 283.63 574.28 283 574.25 282.89 574.2 282.62 573.64 281.99 573.24 281.81 Z M 585.79 302.22 584.99 301.59 583.88 302.03 582.77 302.85 582.37 303.79 582.45 304.54 582.77 304.73 583.4 304.73 584.75 304.17 586.02 303.41 586.34 303.04 585.79 302.22 Z M 253.26 290.61 253.26 290.23 253.02 289.98 252.23 289.67 251.6 289.79 251.2 290.11 250.88 290.74 250.56 292.24 250.56 293.25 250.96 293.69 251.28 293.81 251.6 293.75 252.15 293.12 253.26 290.61 Z M 345.8 313.48 346.28 313.73 346.84 313.67 347.08 313.48 347.31 313.04 347.31 312.47 346.84 311.09 345.96 310.46 345.25 310.21 344.61 310.15 344.22 310.21 344.14 310.46 344.77 312.29 345.09 312.79 345.8 313.48 Z M 364.24 300.67 365.19 301.3 365.82 301.11 366.06 300.73 366.22 299.98 366.06 298.72 365.67 298.41 364.95 298.09 363.6 297.97 363.36 298.28 363.28 298.91 363.36 299.85 364.24 300.67 Z M 598.18 296.45 598.89 296.51 600.88 296.26 601.28 296.07 601.52 295.57 601.29 295.15 601.28 295.13 599.85 294.75 598.58 294.62 597.55 294.69 596.83 294.94 596.67 295.38 596.83 295.94 598.18 296.45 Z M 73.72 211.8 73.8 211.54 73.72 210.85 73.56 210.67 73.32 210.48 72.21 210.35 71.41 210.42 70.54 210.6 69.51 211.17 69.27 211.55 69.27 211.86 70.14 212.11 71.1 212.24 72.37 212.17 73.72 211.8 Z M 261.44 296.83 261.21 297.27 260.97 297.96 260.89 298.96 260.97 299.59 261.44 299.72 262.16 299.65 262.64 299.4 263.59 297.58 263.35 296.89 262.8 296.45 262.08 296.51 261.44 296.83 Z M 596.18 324.64 596.5 324.71 597.37 324.39 597.61 324.14 597.77 323.7 597.77 323.2 597.53 322.89 596.74 322.26 596.1 321.94 595.47 321.88 594.59 322.07 594.59 322.7 594.99 323.64 595.62 324.33 596.18 324.64 Z M 84.44 203.32 83.89 203.19 82.77 203.44 82.14 203.69 81.74 204.2 81.5 205.01 81.66 205.45 81.98 205.58 82.77 205.58 83.57 205.58 84.05 205.39 84.52 204.89 84.76 204.45 84.84 203.88 84.76 203.5 84.44 203.32 Z M 648.78 293.63 648.31 293.45 647.91 293.45 646.96 293.76 646.08 294.64 645.92 295.02 645.92 295.64 646.08 295.96 646.48 296.21 647.19 296.33 647.75 296.08 648.7 295.02 648.94 293.89 648.78 293.63 Z M 263.99 247.46 266.06 248.28 266.53 248.15 266.77 247.84 266.77 247.34 266.45 246.77 265.98 246.27 264.78 245.77 264.23 245.71 263.59 245.83 263.12 246.08 263.04 246.46 263.43 247.02 263.99 247.46 Z M 569.89 321.68 570.29 321.75 570.68 321.56 571.08 320.99 571.24 320.62 571.24 320.18 571.01 319.62 570.92 319.42 570.29 318.8 569.81 318.61 569.49 318.61 569.1 318.86 568.86 319.42 568.86 320.18 569.1 320.93 569.49 321.43 569.89 321.68 Z M 345.41 307.95 345.81 308.08 346.36 307.83 346.68 307.45 347 306.88 347.32 305.88 346.92 305.13 346.12 304.87 345.49 305.25 344.93 305.94 344.77 306.32 345.09 307.51 345.41 307.95 Z M 171.36 245.83 170.64 245.71 170.17 245.77 169.53 246.08 168.74 246.71 168.66 247.27 168.9 247.71 169.53 247.97 170.33 247.96 170.96 247.65 171.52 247.02 171.68 246.33 171.6 245.96 171.36 245.83 Z M 372.65 321.65 373.53 321.71 374.72 321.52 375.12 321.27 375.27 320.96 375.12 320.33 374.48 319.83 373.76 319.51 373.29 319.51 372.89 319.7 372.49 320.14 372.34 321.02 372.65 321.65 Z M 263.59 291.18 263.03 290.8 262.64 290.8 262 291.37 261.92 291.68 262.08 293.19 262.32 293.56 262.95 293.88 263.27 293.88 263.51 293.81 263.91 292.93 263.99 291.87 263.59 291.18 Z M 178.19 291.68 178.35 292.31 178.83 292.31 179.78 291.93 180.34 291.55 180.74 291.05 180.89 290.55 180.81 290.11 180.34 289.61 179.7 289.67 179.23 289.86 178.27 291.05 178.19 291.68 Z M 216.8 162.61 216.96 162.43 216.96 161.99 216.64 161.36 216.25 160.98 214.58 160.6 214.1 160.6 213.7 160.73 213.54 160.92 213.54 161.17 214.58 162.24 214.98 162.42 216.56 162.68 216.8 162.61 Z M 180.81 211.03 179.78 210.91 179.54 211.1 179.3 211.79 179.38 212.42 179.54 212.79 180.02 213.04 180.65 213.17 181.21 213.11 181.69 212.92 181.92 212.61 181.92 212.04 181.69 211.66 180.81 211.03 Z M 328.96 327.36 329.84 327.42 330.63 327.29 330.87 327.04 330.87 326.6 330.47 326.1 329.92 325.72 329.36 325.6 328.65 325.53 327.93 325.72 327.69 326.04 327.85 326.6 328.33 327.04 328.96 327.36 Z M 76.66 210.54 77.13 210.6 78.72 208.97 78.96 208.47 78.96 208.15 78.8 207.96 78.48 207.84 77.45 207.96 76.34 209.28 76.26 209.72 76.34 210.23 76.66 210.54 Z M 509.88 191.16 510.28 191.22 510.68 191.16 510.84 190.03 510.76 189.91 510.68 189.21 510.36 188.77 510.31 188.66 510.28 188.59 509.81 188.34 509.41 188.27 509.17 188.34 508.85 189.03 508.93 189.72 509.09 190.41 509.88 191.16 Z M 567.12 288.77 567.36 288.4 567.04 287.52 566.73 287.33 566.41 287.27 566.09 287.39 565.54 287.71 565.22 288.08 564.82 289.28 565.38 289.84 565.69 289.9 566.41 289.46 567.12 288.77 Z M 178.43 239.36 179.23 239.86 179.7 239.8 180.1 239.49 180.34 238.92 180.34 238.61 180.1 238.29 179.22 237.73 178.75 237.54 178.43 237.54 178.11 237.98 178.03 238.73 178.43 239.36 Z M 178.35 215.75 178.59 215.18 178.51 214.99 178.35 214.87 177.71 214.74 176.6 214.62 176.13 214.62 175.89 214.74 175.65 215.37 175.65 215.81 175.89 216 176.84 216.12 177.79 216.12 178.11 216 178.35 215.75 Z M 222.52 231.13 222.2 231.7 222.12 232.2 222.2 233.27 223.63 232.51 224.19 231.2 224.03 230.82 223.79 230.63 223.32 230.57 222.92 230.69 222.52 231.13 Z M 217.36 231.45 217.67 231.51 218.15 231.45 218.71 231.2 219.02 230.88 219.26 230.19 219.26 229.69 219.1 229.56 218.31 229.5 217.91 229.69 217.44 230.19 217.2 231.2 217.36 231.45 Z" fill-rule="evenodd"/>
</g>
</svg>