<?xml version="1.0"?>
<svg xmlns="http://www.w3.org/2000/svg" version="1.2" baseProfile="tiny" width="800" height="1062" viewBox="0 0 800 1062" stroke-linecap="round" stroke-linejoin="round">
<g id="lakehenshaw">
<path d="M 484.48 18.31 488.81 38.44 490.51 50.21 488.63 58.3 480.15 72.04 475.64 78.24 472.81 82.95 471.11 87.27 470.55 90.11 472.63 95.19 471.68 98.01 467.73 101.87 458.5 103.94 455.48 106.67 450.78 111.08 443.25 112.97 439.11 114.76 435.34 121.63 434.03 126.61 435.35 130.93 436.1 135.26 432.52 138.66 430.45 142.23 429.32 147.97 433.09 153.81 436.48 155.79 446.64 156.25 449.47 158.79 452.67 164.72 455.49 173.37 456.62 176.58 454.55 178.92 449.65 182.79 443.62 188.25 439.3 194.27 441.55 200.19 446.64 201.42 451.53 204.24 457 207.34 459.82 209.99 465.65 210.83 468.85 209.42 472.06 209.14 474.13 207.82 474.5 205.93 474.51 204.33 474.88 200.66 476.19 198.21 478.08 197.19 480.15 197.18 482.41 197.38 485.98 199.17 487.68 200.95 490.13 203.11 493.14 204.62 496.72 205.75 498.41 205.56 501.61 204.9 506.32 204.8 510.83 205.18 515.55 205.46 518.18 204.99 521.38 202.82 526.84 202.64 530.04 204.23 532.49 208.38 536.06 210.17 538.89 208.84 542.84 206.22 545.67 204.89 549.81 203.86 554.71 203.48 559.04 203.67 562.43 205.93 562.24 209.89 558.47 214.58 552.44 218.83 553.51 218.85 553.03 221.16 554.81 225.91 557.55 228.21 564.5 229.56 573.06 240.82 578.23 243.12 580.33 241.09 577.41 228.2 579.84 226.17 585.49 226.84 590.65 219.24 595.18 218.84 598.08 218.84 605.35 228.46 608.59 230.36 611.33 230.09 621.5 224.93 626.18 218.83 628.69 217.32 630.58 215.43 632.65 211.39 633.96 209.89 634.72 209.98 635.28 211.11 634.91 215.15 635.06 218.82 638.46 225.2 634.1 234.69 634.91 237.81 641.37 243.23 652.68 245.81 663.33 244.04 667.7 247.83 668.18 252.17 670.61 254.21 671.74 254.62 676.58 251.9 684.01 255.15 692.89 257.18 708.24 268.71 713.89 271.42 726.49 272.64 739.9 277.38 750.87 278.05 757.66 281.98 774.78 286.04 779.94 284.96 792.87 287.26 797.39 283.19 799 284.27 799 286.99 795.77 289.02 791.74 289.29 781.24 288.35 757.34 290.12 742.81 286.87 734.73 288.23 729.08 289.59 724.56 292.71 716.49 294.75 708.42 300.18 699.54 300.99 688.72 305.06 686.3 307.51 681.46 321.07 686.79 329.48 692.93 334.5 696.49 340.6 692.94 345.75 694.23 351.86 685.36 366.51 681.32 370.85 676.16 372.62 671.31 372.35 663.56 369.64 655 369.64 646.93 372.36 641.77 375.48 636.92 376.56 630.95 380.63 612.22 384.03 609.8 385.39 607.86 387.42 608.35 390.54 611.58 393.93 621.59 399.35 624.99 402.75 625.8 404.78 624.51 405.73 608.68 401.39 589.3 404.52 584.14 404.52 571.54 401.95 565.08 402.23 552.97 406.44 540.06 414.85 540.06 416.88 544.1 418.65 555.08 415.52 559.11 416.47 570.42 415.51 574.45 416.87 571.71 418.91 561.86 420.94 562.02 422.98 565.26 425.96 564.45 427.72 554.76 426.78 551.86 428.14 549.93 443.74 550.73 446.45 553.97 448.48 570.92 447.66 575.12 449.69 583.51 447.66 587.23 447.93 588.36 449.01 587.55 450.37 578.68 458.51 578.68 460.27 583.2 464.2 590.95 465.28 597.73 463.79 602.58 460.81 608.71 453.61 621.62 447.78 629.21 442.76 633.57 441.26 653.11 440.85 661.67 448.03 657.95 448.71 651.01 446.27 646.97 448.04 645.52 453.46 649.56 457.8 634.72 479.64 631.49 487.11 631.5 493.62 633.11 494.97 635.53 494.97 644.09 491.44 654.58 491.44 664.27 488.72 673.47 488.99 677.51 485.87 679.13 486.28 678.8 488.31 676.38 491.03 664.27 491.71 658.63 496.46 660.73 499.85 668.32 501.2 669.93 502.28 669.12 503.23 662.34 503.64 655.4 505.68 642.49 512.2 638.45 516.94 633.77 528.88 635.39 541.09 647.67 556.27 649.78 562.38 650.59 573.91 653.5 579.6 656.73 581.36 659.96 579.6 661.58 581.36 658.03 604.69 660.94 608.49 662.08 614.59 671.12 621.91 672.26 625.3 671.13 631.82 676.95 645.65 680.18 649.44 682.92 650.39 694.71 649.71 699.55 651.33 717.31 652.28 725.06 654.99 732.82 660.68 739.76 667.87 748.16 668.41 754.3 672.21 754.3 675.19 750.75 679.26 747.36 679.26 743.8 676.96 740.9 676.68 734.12 677.64 729.27 680.76 719.59 678.05 715.88 681.44 713.45 679.13 711.84 675.07 709.74 674.66 708.61 675.75 707.8 680.9 704.9 679.82 704.25 681.85 718.46 692.97 722.5 698.39 722.5 702.46 719.28 713.04 722.19 715.07 729.78 717.38 732.68 721.45 742.05 728.5 744.96 737.72 751.42 742.74 776.61 752.77 783.07 756.83 782.27 759.54 779.53 761.58 779.53 766.33 774.2 767.01 760.8 764.44 755.95 766.47 752.08 772.3 752.89 778 744.82 784.51 744.02 787.23 746.93 791.29 753.71 792.24 763.4 796.31 768.73 797.25 769.21 798.34 766.3 801.32 765.5 809.19 766.31 811.5 770.51 815.56 775.68 819.23 771.81 831.16 766.16 836.32 765.36 841.06 772.62 847.84 783.28 854.89 784.09 859.23 781.68 870.76 782.48 875.24 798.31 888.8 793.15 891.51 793.47 894.23 796.38 897.21 795.57 899.24 789.92 903.31 786.7 909.15 777.01 908.47 771.04 910.24 766.2 912.95 756.84 920.14 757.32 925.16 756.19 927.6 753.78 928.96 750.55 929.37 746.35 927.61 741.99 928.02 727.46 936.57 725.04 937.24 716.49 935.21 711.65 936.98 708.9 942.68 705.19 943.76 702.45 946.48 704.55 949.19 710.2 949.86 708.64 951.01 706.16 952.85 701.32 953.53 696.48 952.31 691.96 949.19 688.24 949.19 681.47 957.47 679.53 962.9 668.23 967.92 664.2 972.12 658.56 981.21 652.91 984.61 652.1 986.64 653.39 990.03 648.56 994.51 646.94 1000.34 640.98 1006.04 639.68 1009.16 642.27 1018.25 639.86 1021.64 632.11 1026.12 627.27 1030.87 625.66 1035.35 627.76 1043.75 626.63 1046.47 619.37 1045.52 608.87 1052.04 598.38 1052.45 590.64 1056.52 575.3 1061 552.22 1059.38 538.82 1044.19 534.29 1041.08 519.44 1034.71 508.78 1026.71 508.78 1025.35 520.07 1019.11 520.88 1016.13 513.93 1005.28 507.47 999.59 506.66 996.19 500.85 989.01 484.7 976.27 438.83 952.28 428.66 949.3 424.3 949.71 420.59 951.74 418.16 943.88 412.02 932.76 398.94 921.92 392.48 913.91 392.47 906.46 390.85 901.98 383.1 891.81 376.96 887.74 363.56 885.17 361.63 883.41 361.14 879.75 355.81 874.73 353.87 869.58 346.44 864.16 338.04 860.5 329.97 858.88 319.31 853.86 321.4 844.91 317.68 839.62 317.2 834.88 326.88 827.28 328.81 823.21 324.44 813.44 319.12 809.65 317.01 806.66 312.17 803.27 301.67 798.54 303.61 793.11 297.47 787.01 295.65 781.23 292.25 780.67 291.12 780 291.13 778.97 293.01 777.46 294.33 776.91 295.64 776.62 309.56 772.08 314.4 768.69 315.21 766.25 313.92 763.53 305.84 759.6 300.99 754.45 295.67 753.51 295.64 750.74 294.14 750.75 285.85 749.33 282.09 749.24 278.69 749.8 274.94 749.81 271.92 749.7 270.98 749.05 270.04 747.82 269.67 746.79 269.29 745.09 269.47 737.95 268.91 731.83 268.35 729.67 267.78 727.88 264.01 724.11 263.07 722.14 262.32 720.36 262.5 718.47 263.07 716.3 263.26 714.61 262.88 713.02 262.51 712.35 259.87 712.26 252.53 712.73 249.52 712.45 244.24 710.48 239.54 708.87 235.58 708.97 232.38 709.44 229.18 710.1 226.36 711.69 220.33 716.21 216.76 716.87 214.5 715.74 212.81 714.52 210.92 713.38 210.17 712.36 208.1 711.23 203.76 710.19 201.14 708.68 199.44 706.52 198.87 704.07 199.25 702.28 200.19 700.78 201.7 699.18 203.77 696.36 206.78 690.81 207.72 689.68 211.48 686.48 212.81 685.44 214.88 684.32 218.83 682.71 219.4 681.3 219.2 679.71 214.13 671.89 209.6 664.74 209.61 663.42 208.48 656.74 206.97 652.98 206.4 648.46 205.65 646.39 202.45 644.98 198.5 643.38 194.54 643.67 192.66 643.47 188.52 643.67 182.87 643.19 176.47 638.96 173.84 636.41 174.97 629.54 175.16 626.82 173.83 623.16 171.01 619.38 168.37 613.37 166.49 609.5 163.86 602.45 162.72 600.47 161.22 597.36 155.95 590.32 154.44 587.67 152.94 585.04 150.11 580.43 147.1 577.05 144.09 572.25 142.58 567.45 140.51 565.66 136.18 563.12 132.79 561.52 131.47 560.11 128.65 556.82 123.57 551.16 121.49 549.58 116.79 545.99 111.51 540.82 107.19 538.94 106.06 537.71 103.42 536.68 98.9 534.89 94.95 531.03 92.88 529.72 91.75 528.22 89.86 526.61 84.4 523.42 82.52 521.06 73.86 516.26 67.46 512.5 57.3 504.32 53.15 501.86 45.99 497.44 37.71 494.15 31.69 490.96 29.05 490.01 26.23 488.87 23.78 488.22 21.52 487.28 17.95 486.44 13.43 485.96 10.8 486.34 7.59 485.11 5.71 484.36 3.63 483.23 2.32 482.11 1 480.79 2.88 473.63 4.39 469.88 5.71 463.29 7.21 455.76 8.72 448.61 10.6 448.14 12.11 449.45 13.8 451.62 16.63 453.78 20.02 454.35 23.21 454.73 28.86 455.2 30.18 454.43 31.87 450.87 33.76 448.13 34.89 445.41 34.51 439.11 33.01 433.28 32.25 431.38 31.88 428.28 31.88 426.88 31.31 424.9 30.18 422.92 27.73 418.78 27.74 417.47 27.17 415.86 26.23 413.52 25.1 408.72 24.72 405.42 24.16 402.97 22.46 396.48 20.58 390.74 20.02 386.12 19.83 383.68 19.26 380.85 19.26 377.37 19.83 376.35 19.83 372.3 20.2 369.85 20.21 367.59 21.52 365.14 23.22 359.97 23.97 356.58 24.53 353.56 24.72 347.64 24.53 341.52 24.72 336.25 24.91 334.19 26.23 332.12 27.74 329.39 28.12 327.22 28.11 325.44 29.43 321.67 30.37 320.17 31.87 317.81 33.76 316.49 36.21 314.53 39.41 313.39 41.67 313.2 49.2 310.95 56.73 309.35 62.38 308.97 66.71 308.31 71.41 307.93 75.93 305.87 82.9 304.45 90.24 303.05 96.08 299.94 102.86 296.07 108.5 294.29 115.09 293.07 120.74 288.74 128.08 285.54 135.06 283.94 140.7 284.14 146.53 282.34 150.3 278.77 153.69 276.69 161.6 276.69 165.56 276.7 174.21 274.06 177.61 271.9 180.99 266.16 182.87 263.62 187.58 260.97 195.68 257.4 204.9 252.79 209.61 251.2 220.72 248.19 224.86 244.42 228.81 238.68 229.19 238.11 233.14 236.7 239.54 236.05 248.58 231.9 254.6 226.35 256.48 222.59 255.36 218.82 252.53 216.56 252.16 213.28 256.11 211.4 259.69 211.39 262.14 208.75 262.51 202.83 261.76 196.62 257.81 188.15 256.86 182.97 257.61 178.65 261.75 171.22 269.66 164.73 278.89 157.1 283.22 154.28 285.48 151.64 285.48 142.05 285.86 132.63 289.25 128.12 295.06 123.49 295.65 123.03 297.53 121.53 301.49 117.48 308.08 115.88 313.15 114.94 320.13 113.9 326.34 113.82 332.74 114.76 336.69 114.66 344.59 111.74 349.87 108.55 352.31 104.5 356.27 99.23 354.95 95.37 353.44 89.26 347.8 85.49 346.49 85.02 346.67 78.24 349.87 73.26 352.89 70.15 356.64 67.43 361.54 65.54 364.74 62.82 366.25 57.26 367.19 51.71 367.38 47.09 367.95 37.78 368.13 33.45 367.19 28.28 367.19 24.9 368.7 21.32 370.01 16.62 371.71 15.86 373.78 15.86 375.28 16.62 378.86 20.57 383.01 23.29 386.01 26.02 388.65 30.73 390.34 34.68 391.85 39.76 393.55 46.16 394.68 51.24 395.62 55.66 396.75 58.21 397.31 60.56 399.39 61.69 402.58 58.86 403.9 52.75 405.03 53.12 405.03 57.55 404.47 62.44 403.9 66.29 402.96 68.65 405.22 67.8 407.67 64.98 410.12 58.86 412.94 50.77 413.69 37.04 413.88 26.77 412.94 17.83 414.07 10.88 413.88 3.91 416.33 5.13 421.79 17.08 421.41 27.9 422.73 43.62 424.42 51.52 424.24 63.66 421.22 69.4 417.46 77.68 411.62 84.45 407.67 87.56 406.55 89.45 406.16 93.2 407.85 96.68 414.82 97.73 420.47 97.07 426.12 92.17 430.08 85.4 431.21 80.7 434.59 70.82 434.59 65.07 438.73 57.55 443.62 29.69 445.51 10.31 448.71 5.6 450.78 7.48 453.99 13.51 456.62 19.34 460.76 24.9 464.15 29.13 468.48 29.88 471.87 28.19 470.18 20.66 468.48 16.24 468.47 7.86 469.05 2.02 470.55 1 475.07 1.37 480.9 5.32 484.48 18.31 Z"/>
</g>
</svg>