<?xml version="1.0"?>
<svg xmlns="http://www.w3.org/2000/svg" version="1.2" baseProfile="tiny" width="800" height="496" viewBox="0 0 800 496" stroke-linecap="round" stroke-linejoin="round">
<g id="mccoyflatreservoir">
<path d="M 325.42 449.96 324.39 450.24 323.49 450.3 321.18 449.66 318.86 447.8 318.49 447.18 318.61 445.97 319.38 444.7 320.79 439.64 320.54 438.81 319.89 437.66 319.38 436.89 317.2 433.29 317.97 431.94 319.9 428.49 319.13 427.72 317.97 427.32 317.2 427 316.68 426.08 316.29 425.39 315.92 424.32 315.02 418.25 313.21 416.85 307.69 412.36 305.5 411.71 303.46 411.53 297.67 411.65 296.25 412.61 290.73 416.08 288.68 416.26 287.39 416.24 283.41 416.17 281.99 416.07 276.59 416.58 275.82 416.12 275.45 415.05 275.7 413.54 276.08 411.8 279.81 404.21 281.74 402.73 283.4 401.54 286.36 399.85 286.11 399.09 285.33 398.47 284.95 397.63 284.69 396.56 285.21 395.29 285.84 394.31 290.48 390.83 293.17 390.2 295.74 389.33 297.8 388.53 299.34 388.03 300.11 387.97 311.02 386.65 317.2 385.62 318.1 384.65 318.1 383.44 317.71 382.14 317.19 381.3 316.82 380.31 316.81 379.47 316.94 378.34 319.38 375.58 320.79 375.15 321.3 375.16 323.23 375.42 325.04 375.9 326.71 376.16 332.48 375.73 332.36 375.27 331.84 374.74 331.07 374.27 330.43 373.42 329.66 372.5 329.65 371.97 329.4 369.92 328.38 369.37 326.06 368.95 323.75 368.08 322.98 366.92 322.73 365.78 322.33 361.23 321.05 360.68 319 360.64 316.3 361.35 311.02 362.47 306.93 362.17 305.63 361.46 304.48 360 303.96 358.86 301.27 353.13 300.11 352.35 298.31 351.63 296.76 351.38 283.93 349.41 283.28 350.16 282.51 351.13 279.94 353.89 278.53 354.62 273.65 358.02 272.74 360.05 271.46 361.85 266.57 368.66 265.8 369.1 263.88 369.6 262.72 369.65 261.05 369.77 256.55 368.79 251.41 365.59 250.65 364.59 249.24 362.82 248.46 360.91 245.77 355.94 244.6 354.78 240.24 351.07 238.43 350.2 236.76 349.64 235.1 349.16 233.55 348.98 224.31 348.51 222.89 347.88 221.99 347.26 222.38 345.75 223.41 344.25 228.67 340.55 229.96 340.12 232.27 338.87 232.78 338.35 238.31 332.46 238.83 331.49 238.95 330.2 240.36 320.52 241.4 319.86 243.07 319.74 244.73 319.99 252.82 323.4 254.5 324.11 256.05 324.82 257.84 326.06 258.49 327.06 262.21 331.14 263.11 332.14 265.41 335.59 266.32 336.14 267.47 336.39 274.41 335.3 275.19 334.7 275.57 334.18 275.69 333.5 275.83 329.11 276.21 328.58 277.89 326.64 280.71 323.36 280.96 321.85 280.33 319.86 278.01 315.88 278 314.97 278.27 313.84 278.27 312.85 277.75 311.33 276.35 309.49 275.19 307.12 273.64 306.03 272.48 305.55 271.2 305.23 265.42 306.19 264.77 306.33 259 305.24 255.4 304.42 252.7 304.52 250 305.16 248.07 305.27 246.53 304.94 239.21 301.56 238.05 300.02 237.54 298.04 237.54 296.3 238.05 285.24 235.99 281.95 221.99 269.95 220.71 269.32 216.72 268.8 215.31 268.77 200.28 271.54 193.59 273.85 188.2 276.41 186.02 277.28 183.06 279.04 180.62 282.64 179.34 283.9 178.18 284.34 177.02 285.08 176 285.97 175.74 286.42 174.84 288.52 174.19 288.97 173.04 289.4 171.24 289.9 164.18 292.66 163.28 292.72 162.24 292.55 161.09 292.22 155.18 289.62 154.15 288.77 153.51 287.77 152.99 286.55 148.63 280.26 146.84 279.47 145.15 278.83 143.75 278.43 139.64 278.66 138.48 278.03 137.33 277.03 136.81 275.73 131.93 267.08 130.76 265.7 129.48 264.69 128.33 263.76 127.17 263.06 125.5 262.87 121.13 263.33 120.62 263.4 119.21 262.38 118.82 260.56 118.96 258.82 119.2 257.61 124.48 248.68 123.95 246.63 123.19 245.25 122.3 243.57 115.23 236.32 113.43 235.07 109.44 232.73 108.16 232.33 107.26 232.24 105.84 233.12 104.56 234.09 101.86 236.99 99.68 237.71 97.88 237.83 91.2 237.34 89.66 237.39 87.98 237.89 82.71 240.83 80.53 241.7 78.22 242.64 69.61 246.96 68.45 247.4 66.92 247.98 64.35 248.54 63.57 248.3 62.15 247.97 58.3 245.63 57.66 244.93 57.27 243.87 56.76 243.1 55.99 242.33 55.22 241.71 53.42 241.15 51.62 240.36 50.35 239.8 49.83 239.19 48.92 237.58 48.54 235.76 48.67 234.39 51.75 229.07 53.55 223.11 54.32 221.46 54.46 219.94 54.58 218.66 54.32 217.44 54.06 213.95 55.23 212.91 56.5 212.17 62.8 208.64 63.83 207.52 64.48 206.25 64.73 205.42 64.22 200.94 63.57 199.34 62.55 198.11 62.29 196.43 62.29 195.3 62.28 185.44 61.38 183.68 60.36 182.23 59.2 180.99 57.03 179.52 55.09 178.72 53.04 178.23 50.86 177.82 48.03 177.69 32.74 177.88 31.84 177.64 30.81 176.63 30.82 175.87 31.33 174.52 33.38 173.27 39.15 171.85 47.64 169.5 48.92 167.48 48.41 165.72 46.22 160.53 41.6 152.49 40.32 151.56 36.46 149.6 31.58 148 24.9 146.82 22.97 146.48 13.21 145.86 6.27 145.21 4.22 144.64 3.19 144.24 1.52 143.23 1 143.07 1.38 142.31 2.54 141.73 3.7 141.29 4.99 141.24 6.14 141.49 10 143.07 12.06 143.71 13.98 143.82 21.94 144.04 24 144.15 26.18 144.19 28.37 144.45 32.99 145.6 35.43 146.17 44.55 146.78 46.23 147.04 47.64 147.37 51.36 150.24 52.52 151.02 56.51 152.53 57.92 153.23 59.21 154.92 58.94 161.59 59.33 166.07 60.36 166.84 61 167.46 67.68 169.02 72.44 170.09 75.27 171.04 77.45 171.61 82.07 178.59 84.52 183.1 85.8 183.96 87.21 184.67 89.27 185.01 91.19 185.19 92.86 185.07 94.28 184.57 99.42 180.79 106.74 174.4 107.77 173.36 109.44 172.25 118.44 169.3 119.71 168.64 121 167.53 122.67 163.46 123.44 161.96 124.34 160.46 125.89 159.43 132.95 155.08 133.97 153.5 135.39 151.79 136.55 150.52 137.32 148.79 137.58 144.63 137.45 143.33 136.93 141.51 136.16 140.2 131.66 135.8 131.03 134.73 130.51 133.89 129.23 127.58 128.58 122.49 128.07 119.52 126.4 113.28 125.89 111.22 125.88 109.71 124.99 97.79 124.98 95.97 125.5 92.88 125.88 89.92 126.65 87.97 127.04 86.61 127.56 85.56 128.71 83.46 128.72 81.64 128.19 79.73 127.55 76.99 126.4 75.23 124.47 72.54 123.44 71.69 122.81 71 122.16 69.02 120.62 65.58 119.72 64.66 118.95 63.88 117.28 59.84 116.77 58.77 112.91 54.38 112.14 53 113.94 40.53 114.19 36.82 117.53 30.43 125.11 18.36 130 11.93 131.03 11.19 133.46 10.7 136.29 10.98 143.74 10.28 144.64 9.76 147.08 8.82 148.63 8.62 149 8.78 151.71 8.83 158 5.3 159.8 4.12 161.34 3.62 168.75 1.86 170.6 1.43 173.29 1.1 176.38 1 178.82 1.35 191.8 4 203.48 6.55 218 6.81 218.9 6.75 223.78 6.61 240.23 8.04 244.34 8.71 248.2 9.77 249.74 10.48 258.86 24.28 261.04 26.67 264.65 28.7 266.82 29.35 298.56 34.83 302.55 35.05 304.35 34.56 314.24 27.38 316.16 25.97 317.96 25.09 328.25 23.3 330.17 23.04 333.25 22.41 335.44 21.69 343.4 18.34 344.95 17.92 346.49 17.79 346.75 17.95 345.59 20.58 344.81 22.84 345.07 23.6 345.97 24.3 346.74 24.69 347.51 24.71 348.15 24.49 348.93 24.28 349.19 23.9 349.7 23.3 350.47 20.29 350.6 19 351.37 12.65 351.89 10.61 351.88 10.08 352.78 8.96 353.29 8.51 353.81 8.14 355.86 6.13 355.99 7.58 355.99 8.41 355.35 9.99 354.7 11.11 354.33 14.82 354.07 16.03 352.78 22.6 351.89 25.31 351.37 26.14 344.44 28.67 343.41 28.95 342.11 29.54 341.61 29.76 340.83 30.95 341.86 34.54 344.43 37.01 345.46 37.86 347 38.87 348.42 39.35 350.09 40.06 352.14 40.7 354.07 41.12 355.99 41.83 358.18 42.71 363.97 46.75 365.76 47.39 367.04 47.64 367.69 47.19 368.46 46.52 369.23 45.48 368.46 41.07 368.46 40.01 369.35 39.42 370.13 38.9 371.54 38.77 378.74 41.17 380.28 41.43 381.43 41.52 382.97 41.48 384.13 41.04 385.8 39.63 386.83 38.51 387.86 37.62 389.01 37.34 390.68 37.37 392.62 37.55 393.77 42.12 394.28 43.72 394.93 44.87 395.57 45.64 396.34 46.18 396.86 46.34 397.49 46.21 399.16 44.72 399.68 44.42 400.45 44.51 402.12 47.57 402.38 48.03 403.92 49.12 404.69 49.74 405.2 50.28 405.2 51.95 405.34 53.24 409.57 57.26 410.08 58.4 409.96 59.01 409.45 59.3 408.8 59.36 407.77 59.12 405.33 57.56 404.69 57.32 403.66 57.15 399.03 56.09 397.63 55.98 396.86 56.05 395.95 56.48 395.83 57.62 396.34 58.54 397.23 59.24 398.52 59.87 406.88 62.21 407.38 62.37 408.93 63.23 409.95 63.93 410.99 64.71 411.75 65.56 412.91 66.64 415.49 66.61 416.51 66.78 417.67 67.02 418.05 68.47 417.79 69.07 418.18 69.46 421.91 70.74 422.69 71.13 423.7 71.6 424.86 72.61 427.05 78.26 428.33 79.42 429.49 80.42 430.26 81.42 431.93 82.36 447.48 86.27 449.78 87.22 452.22 88.25 454.28 89.27 456.72 91.36 458.14 92.53 459.56 94.07 464.95 96.74 467.01 97.76 470.73 99.34 471.89 99.82 473.3 100.3 473.82 100.84 473.94 101.75 477.41 102.95 478.69 102.97 480.11 103.6 483.07 105.55 484.09 106.25 485.25 107.1 487.17 108.2 488.98 108.84 490.65 109.93 493.09 112.85 493.98 113.7 497.45 116.11 499 116.67 500.92 117.16 502.6 117.42 504.01 117.82 504.77 119.8 505.55 120.8 506.45 121.43 507.22 121.97 508.12 122.67 509.15 123.75 510.18 124.6 514.54 129.3 515.82 130.38 523.4 135.07 530.21 138.98 531.37 139.98 532.66 140.84 533.81 142.22 534.71 144.51 536.26 147.87 537.41 148.88 542.8 153.9 544.09 154.84 545.9 155.47 547.3 155.73 549.49 156.37 556.04 159.06 557.97 160.16 561.7 162.2 565.67 164.84 567.22 165.86 568.89 166.72 573.13 166.72 575.18 166.83 576.6 167.08 578.01 167.41 579.3 167.97 580.84 168.6 582.25 168.78 584.57 169.27 585.6 169.75 585.85 170.51 583.66 171.83 583.03 172.35 582.77 173.26 584.18 174.34 585.09 174.74 586.87 175.53 594.2 177.55 596.38 178.05 599.08 178.63 608.46 178.79 610.39 178.98 612.19 179.01 614.5 179.5 617.45 180.32 619.89 180.89 622.98 181.85 636.72 188.77 639.69 190.19 641.86 191.21 643.79 191.77 645.72 191.66 654.33 188.17 656.26 187.9 658.19 187.64 661.91 187.7 663.58 187.81 666.03 188.15 668.08 188.34 670.65 188.39 672.19 187.96 680.02 186.05 682.09 185.94 683.89 185.9 686.07 186.09 687.74 186.19 689.79 186.83 692.62 187.8 703.92 192.54 706.37 193.73 721.28 200.66 734.76 206.51 736.82 207.15 738.87 208.25 740.54 209.11 742.34 210.06 746.58 212.78 752.11 216.14 763.03 224.67 774.46 234.66 775.49 235.51 776.26 236.28 783.98 243.69 785.51 245.01 791.42 250.65 798.75 258.74 799 259.35 798.49 260.1 797.97 260.16 796.82 259.99 795.79 259.22 795.41 258.22 794.89 257.08 794.25 256.31 791.8 254.37 786.54 249.57 785.78 248.58 784.75 247.27 780.76 242.95 779.6 241.79 778.44 241.09 777.68 240.55 776.39 240.15 775.36 239.52 774.46 238.75 774.07 237.83 773.69 237.07 772.79 235.84 772.15 234.92 771.38 233.99 760.85 226 745.04 213.82 743.5 212.88 742.08 212.1 740.29 211.38 738.87 211.06 737.59 210.43 736.69 209.65 736.18 208.96 734.89 208.26 733.73 207.78 732.44 207.38 729.24 206.18 727.83 205.55 726.93 205.38 726.15 205.22 723.33 205.09 722.04 204.54 721.14 203.92 719.6 203.21 718.06 202.65 716.64 202.4 715.62 202.23 707.4 200.94 705.99 200.08 704.83 198.7 703.16 197.23 701.49 195.84 690.96 189.51 690.04 189.26 689.02 189.02 687.34 188.53 686.07 188.51 684.27 188.78 680.67 190.08 679.25 190.13 677.98 190.41 676.68 190.54 675.27 191.2 674.37 191.79 673.09 192.22 671.16 192.49 669.74 192.54 659.99 192.44 657.67 192.63 655.75 192.59 653.82 192.79 652.27 193.06 650.87 193.49 650.22 194.01 647.26 196.16 645.47 196.35 643.66 196.09 641.1 194.76 639.16 193.81 632.11 189.14 624.01 185.66 621.05 184.93 619.38 184.6 612.71 182.43 607.18 181.5 604.61 181.15 603.71 181.21 602.81 181.12 602.04 181.25 601.52 181.62 600.75 182.45 600.63 183.2 601.79 184.43 605.51 187.23 606.4 188.53 605.77 188.97 604.99 189.11 603.71 188.33 602.81 187.56 601.27 186.55 599.73 185.53 597.93 184.67 595.87 183.72 588.55 180.71 585.2 179.44 582.26 178.7 580.07 178.06 578.4 177.88 576.61 177.62 575.7 177.68 569.8 177.88 568.51 178.08 568.25 178.53 567.86 179.13 568.11 180.05 568.51 180.88 571.2 182.3 571.98 182.31 572.75 182.48 573.39 182.41 574.41 182.43 575.19 182.52 575.7 182.76 577.37 185.06 578.01 185.22 578.78 185.24 579.3 185.4 580.2 185.79 580.85 186.79 581.36 187.94 585.08 191.18 586.37 191.74 587.65 191.91 588.55 191.78 589.07 191.48 589.83 190.97 591.13 189.17 591.76 189.41 592.66 190.26 593.17 192.01 593.44 193.61 596.64 199.96 598.18 201.27 599.85 202.97 601.52 204.36 606.79 207.94 609.11 209.73 611.29 211.74 613.48 213.82 619.13 219.3 622.33 222.54 624.53 224.32 626.96 226.34 640.58 236.74 643.8 238.39 646.36 239.72 648.68 241.13 659.73 246.7 662.04 247.96 663.72 249.12 665.77 250.6 667.95 252.69 671.41 254.72 672.96 256.04 675.02 257.82 677.58 260.06 681.96 263.55 683.75 265.02 685.17 265.95 686.83 266.89 693.01 269.58 694.42 269.91 696.35 270.17 701.1 270.79 701.48 271.4 701.1 272.07 700.46 272.97 700.2 273.88 700.72 275.25 701.1 276.39 701.49 277.23 701.48 278.98 702 284.52 702.64 285.52 704.44 287.37 705.85 287.85 706.88 287.94 709.33 288.36 709.97 289.36 710.35 291.04 710.74 292.03 712.67 294.41 713.43 296.17 713.95 297.84 713.56 298.67 712.53 299.64 710.86 300.21 707.52 302.73 707.4 303.56 706.5 304.84 705.34 305.88 704.32 306.77 702.9 307.8 700.71 310.65 700.71 311.33 701.1 312.09 702.12 314.76 701.75 316.12 701.23 317.25 700.72 318.15 700.2 319.27 700.2 319.73 700.2 322.16 700.71 322.7 701.75 324.23 701.23 325.89 700.21 327.16 699.43 328.21 698.53 329.17 697.25 331.35 697.24 331.8 697.77 333.86 698.54 335.01 699.3 335.25 699.95 335.64 704.7 336.33 706.37 336.74 707.14 337.06 707.39 338.05 707.01 338.72 706.38 339.32 705.33 340.06 705.08 340.96 705.34 341.12 706.37 341.37 709.07 341.79 709.58 342.26 709.58 342.94 710.99 350.39 710.48 351.14 709.71 352.04 708.69 352.93 704.19 356.26 704.7 357.55 705.08 358.09 705.09 361.12 704.44 362.86 703.8 363.68 703.16 364.42 701.48 365.68 697.12 368.26 695.7 369.14 694.68 369.73 693.91 369.87 690.7 370.95 690.18 372.68 690.44 374.35 690.83 377.54 690.31 379.2 690.06 380.86 689.15 382.59 689.02 383.8 689.02 384.64 689.55 386.24 688.64 388.19 687.74 388.33 686.58 388.15 685.43 387.98 684.66 388.05 683.76 388.63 683.12 389.38 682.47 389.97 681.44 390.26 680.41 390.24 679.26 390.07 678.36 389.83 677.07 389.8 675.15 390.15 674.12 390.58 663.84 396.31 662.17 397.65 659.22 399.72 658.44 400.84 657.93 402.19 657.8 403.33 656.78 407.25 656.27 408.23 654.98 409.34 652.79 410.67 650.86 411.85 649.45 413.11 647.78 414.22 646.88 415.03 644.31 418.02 642.64 419.13 641.1 419.55 639.69 419.61 638.28 419.58 637.24 420.32 636.6 422.05 637.11 422.74 637.12 423.73 636.21 425 635.32 426.12 634.29 427.39 633.77 428.6 633.01 431.61 632.23 432.59 631.33 433.17 630.18 433.91 629.41 434.35 627.73 434.47 626.45 434.45 625.68 434.06 625.16 434.05 624.65 434.57 624.53 435.4 624.27 436 622.08 436.88 621.06 435.95 620.8 435.34 618.88 434.24 617.97 434.23 617.2 435.05 615.53 439.03 614.77 440.38 613.99 441.81 613.09 445.58 613.22 446.27 614.25 447.12 615.4 447.67 622.85 450.38 624.14 451.24 624.65 452.38 624.52 453.36 624.78 455.11 625.17 455.65 626.2 455.9 635.05 454.69 639.31 454.92 639.69 455.91 638.66 456.65 637.5 456.32 636.48 456.15 635.57 456.9 635.45 458.18 635.31 464.09 634.29 465.14 632.75 466.47 630.57 468.71 626.84 475.01 625.04 479.07 624.66 480.27 624.52 481.03 624.53 481.64 624.01 484.58 622.85 486 618.36 490.17 614.76 492.91 613.48 493.11 612.32 492.94 611.29 493.3 610.78 493.97 608.98 495 608.21 494.84 607.18 494.14 604.48 492.95 602.3 492.31 600.63 492.12 598.83 491.94 597.67 491.69 591.25 489.83 589.33 489.42 585.72 488.3 585.21 487.91 584.44 487.52 583.67 486.82 579.68 484.17 577.11 482.61 570.43 478.25 569.54 477.4 569.28 476.41 568.51 475.18 568.13 474.42 564.14 467.98 562.86 466.52 559.26 463.65 558.74 462.73 558.49 462.35 557.98 461.35 557.84 458.77 557.07 458.53 555.15 458.8 554.63 458.79 554.37 458.26 554.37 457.8 554.9 456.9 556.43 454.66 557.46 452.47 557.98 449.07 557.84 448.31 556.55 445.33 555.92 444.57 548.6 437.92 548.08 437.83 547.05 437.82 544.09 437.99 543.33 437.45 542.94 436.76 543.2 436 547.18 428.95 546.8 427.73 546.28 426.74 545.64 425.89 544.86 424.82 543.84 422.68 543.97 421.69 544.86 420.87 546.02 420.29 550.01 418.69 551.03 418.33 552.71 417.22 552.71 416.39 551.68 415.01 550.78 414.16 549.36 413 548.33 410.93 547.56 407.58 547.3 406.67 548.08 402.89 546.8 401.81 542.94 399.32 541.91 398.69 541.02 398.45 539.73 398.43 534.84 399.32 533.82 398.62 532.92 397.55 530.22 393.86 530.34 393.03 530.99 392.43 535.22 388.87 534.08 388.24 532.4 387.83 527.65 386.61 526.63 387.13 525.34 388.16 520.72 390.89 518.91 391.84 517.37 392.57 512.88 394.31 511.97 394.45 508.12 395.51 507.99 396.57 506.33 398.74 505.29 399.33 503.88 400.37 501.18 402.29 500.02 403.1 498.48 404.13 494.25 408.83 495.53 409.69 496.82 409.79 498.23 409.97 499.51 410.52 501.82 411.32 503.11 411.27 504.39 410.98 508.89 410.31 513.77 410.24 514.68 410.64 515.57 411.71 515.57 412.55 516.73 415.22 517.89 416.08 519.43 416.86 520.59 417.49 528.03 419.97 528.04 420.58 528.17 420.96 527.27 424.28 525.99 424.1 524.57 423.39 521.87 421.83 520.2 421.27 516.99 421.06 516.09 420.97 508.63 420.76 508.51 421.52 509.16 422.44 510.31 423.14 511.98 424.99 511.6 425.44 509.14 427.29 505.94 428.14 504.53 428.34 502.73 428.08 501.7 427.84 500.54 427.29 499.13 426.88 498.36 426.79 496.69 427.14 495.14 427.72 493.34 428.98 492.07 430.02 486.02 436.73 484.1 436.62 483.33 435.85 478.44 431.29 474.08 428.18 472.53 428.38 472.02 429.13 469.32 433.55 468.93 434.84 468.94 435.14 468.94 437.49 467.64 438.45 467.01 438.59 465.72 437.81 462.26 435.63 459.81 434.37 457.89 433.5 456.86 433.03 455.96 432.94 454.93 433.15 453.78 434.04 451.21 436.57 450.3 438.45 450.56 442.77 449.54 443.66 448.37 444.78 448.38 445.08 446.44 448.31 445.42 448.52 444.01 448.8 439.13 449.39 438.22 449.68 435.02 450.08 433.86 449.53 432.96 448.37 432.32 447.07 431.16 445.31 428.85 442.09 427.05 440.69 424.87 439.36 420.5 436.93 418.83 435.54 417.29 434.76 416 434.05 414.2 433.26 407.52 430.8 406.1 428.72 404.82 426.8 404.05 426.34 402 425.77 395.95 424.98 390.18 423.14 389.4 422.89 388.25 423.18 387.35 424.07 385.68 430.63 384.78 438.88 384.14 440.31 382.98 441.5 380.93 443.28 380.67 444.19 380.41 444.94 380.67 448.36 381.19 449.81 381.69 450.42 384.79 458.44 383.88 459.48 382.47 459.98 381.18 460.19 376.43 460.56 366.79 458.57 362.42 457.58 361.65 457.57 360.25 458 359.46 459.28 356.38 463.84 354.59 464.12 353.05 464.09 351.63 463.99 349.7 463.5 348.68 462.87 347.65 461.95 346.62 460.72 346.11 459.42 345.98 458.58 345.08 457.05 344.31 456.36 343.02 455.5 341.73 454.64 340.2 454.16 334.16 452.69 332.62 451.83 331.85 450.68 331.85 449.84 331.07 448.54 329.78 447.91 328.89 448.05 327.6 448.71 326.44 449.6 325.42 449.96 Z M 153.9 206.15 153.51 205.16 153 204.77 152.74 204.84 150.81 205.19 149.78 205.17 148.75 205.23 144.01 201.2 143.49 200.36 143.23 200.05 142.2 199.88 134.1 201.1 133.21 201.47 131.67 201.97 129.48 203.75 129.1 204.43 128.84 205.48 129.36 206.48 130 207.47 130.38 208.39 130.76 209.84 129.48 214.97 129.49 216.71 129.74 217.78 130.77 218.93 131.53 220.01 132.7 221.01 133.6 222.32 133.98 225.05 133.59 225.88 133.97 226.79 134.62 227.56 135.65 228.57 136.8 229.35 137.97 229.82 138.87 230.06 139.77 230.69 140.67 235.02 140.67 235.4 141.43 236.4 146.7 241.04 148.11 241.75 153.64 244.88 156.6 246.75 157.62 247.52 158.13 248.67 158.52 250.12 155.31 255.74 154.92 256.34 154.92 257.02 154.92 258.31 155.31 259.53 154.67 263.31 154.92 264.53 155.32 264.99 156.21 265.38 156.86 265.4 160.06 264.16 161.22 264.03 162.25 263.9 164.68 265.61 165.07 266.37 163.4 268.54 162.89 268.91 163.02 269.67 163.53 269.98 164.18 270.38 174.2 269.41 175.23 268.75 175.74 264.06 175.74 263.3 176.25 261.95 180.62 260.36 181.52 259.84 182.03 259.32 182.94 258.43 183.32 257.6 181.39 254.69 181.13 254.15 180.88 253.31 182.42 250.91 183.7 249.5 185.11 248.54 186.01 245.82 186.15 244.69 186.41 243.86 190.38 244.23 191.28 243.94 192.19 243.66 193.08 242.99 193.6 242.32 193.85 241.57 193.86 240.88 196.16 239.41 198.47 237.25 200.28 235.31 201.95 233.9 203.5 233.32 204.52 233.41 205.16 233.8 205.81 235.26 206.96 235.73 209.01 233.27 209.14 232.44 209.91 231.69 213.39 228.87 214.42 227.75 215.43 226.48 215.82 226.03 216.59 221.12 216.6 220.36 211.83 215.81 211.32 215.04 211.07 213.6 210.94 212.99 210.69 210.26 209.91 209.11 209.01 208.56 207.73 208.23 204 208.47 203.36 208.46 202.07 208.21 200.79 205.69 200.78 204.7 200.79 204.25 200.41 203.94 198.6 204.13 197.96 204.05 196.93 203.57 194.49 201.26 191.55 199.46 190.38 199.36 189.1 199.42 187.68 200.83 186.66 201.5 185.5 202.39 184.61 203.13 177.66 206.95 175.74 207.82 168.41 209.44 157.5 209.55 156.21 209.07 154.16 207.14 153.9 206.15 Z M 296.77 281.88 296.13 280.96 295.1 280.33 293.68 279.32 292.78 278.7 291.24 277.54 290.34 276.61 289.57 275.69 289.06 274.24 288.81 272.64 288.29 262.71 286.1 261.53 284.43 261.05 279.04 259.51 277.62 259.11 276.34 259.16 274.93 259.44 273.13 259.18 271.97 258.48 269.79 257.15 266.05 254.96 264.26 253.87 262.98 253.24 261.19 252.6 259.77 252.2 256.29 251.46 255.01 250.45 254.89 249.46 254.49 248.16 253.6 247.39 252.19 246.38 250.77 245.6 250 244.67 250 243.99 250 243.16 248.71 242.15 247.56 241.68 246.27 240.97 240.23 237.23 238.83 235.84 237.79 234.3 235.48 231.46 227.78 223.14 226.49 223.19 225.33 223.62 225.2 225.29 225.85 229.4 225.72 231.14 225.33 237.5 225.08 238.47 224.3 241.19 222.38 242.82 219.42 244.06 214.28 245.79 213.51 246.31 212.87 247.36 210.94 252.4 211.2 253.69 212.22 255 221.99 263.36 223.53 264.14 224.55 264.39 225.59 264.56 226.23 264.49 226.88 264.73 227.77 266.72 228.28 267.11 228.54 267.49 229.97 267.74 232.66 267.79 233.56 267.96 234.58 268.66 235.48 269.28 237.03 270.29 247.56 274.49 255 277.5 255.65 277.82 255.78 278.5 256.55 279.43 257.71 279.98 259.51 280.77 266.95 285.9 267.47 286.74 268.5 287.82 269.14 289.5 269.79 291.48 271.96 299.63 273.12 300.33 274.93 300.59 281.74 302.23 283.02 302.71 283.66 303.32 284.43 304.32 284.69 305.16 285.98 308.52 287.39 307.94 288.16 306.96 289.7 304.95 290.09 304.12 290.21 303.36 289.18 298.34 288.28 297.72 287.39 297.48 286.11 297.46 285.2 297.51 284.3 297.58 283.28 297.25 282.76 296.41 283.15 295.2 283.92 293.93 286.36 291.62 287.39 291.19 291.76 290.66 292.78 291.36 292.79 292.04 292.27 293.24 291.51 294.22 290.98 295.42 290.98 296.4 292.01 298.77 293.94 299.56 295.35 299.97 296.39 300.67 297.16 301.9 298.06 305.4 299.6 305.8 300.75 305.29 306.91 303.13 307.69 303.37 308.71 303.99 309.35 304.53 310.9 305.17 311.81 305.11 322.07 303.85 322.59 303.18 322.72 300.75 322.08 299.98 318.61 298.1 316.68 297.09 315.66 295.85 315.14 294.86 314.62 294.09 312.7 292.85 304.99 288.39 297.93 284.17 297.16 283.02 296.77 281.88 Z M 389.92 421.39 390.94 421.1 391.71 420.74 393.64 419.03 393.9 418.2 394.15 417.22 393.9 416.61 392.88 413.41 392.61 412.26 390.95 408.75 390.18 407.37 389.66 406.45 388.76 404.47 388.77 403.25 386.7 399.73 385.3 398.57 384.65 397.88 383.37 397.09 382.46 396.7 381.69 396.31 380.41 396.13 378.99 396.11 372.83 397.21 370.39 398.08 369.36 399.2 368.98 400.1 368.46 401.61 368.34 403.2 370.14 408.61 370.91 409.76 373.34 414.35 374.11 415.12 375.02 415.82 376.3 416.67 377.71 417.23 379.9 418.1 387.74 420.89 389.92 421.39 Z M 137.84 191.32 140.54 188.56 141.43 187.06 145.16 180.76 145.67 180.31 146.83 179.73 151.45 179.13 153 179.23 158.14 178.94 159.29 178.51 160.19 178.07 161.09 177.1 156.98 174.83 156.34 173.45 155.96 172.61 155.69 172.08 155.18 171.99 154.92 171.99 154.15 171.82 151.59 169.73 151.33 168.82 150.94 168.13 149.79 168.11 149.27 168.25 148.25 168.08 145.93 167.13 145.16 166.81 144.65 166.73 144.13 166.72 139.63 169.44 139 169.74 138.35 170.71 138.35 175.64 138.48 176.62 138.09 177.53 133.72 181.62 132.19 182.73 128.59 183.95 127.81 184.17 127.3 184.46 128.2 187.21 129.09 187.83 130 188.15 133.97 187.23 134.88 186.87 136.16 186.81 137.32 187.37 136.16 189.62 136.3 190.46 136.8 190.99 136.93 191.23 137.84 191.32 Z M 360.36 384.18 362.29 384.07 362.94 383.93 363.84 383.11 365.51 380.79 364.61 378.57 363.58 377.57 362.29 376.71 361.14 375.56 354.07 370.66 352.78 370.26 351.89 370.01 350.09 370.21 344.83 372.24 343.53 372.29 340.84 373.08 340.19 374.35 340.19 374.81 341.74 379.46 342.38 380.15 345.21 382.85 346.23 382.87 347.01 382.58 347.78 382.9 348.67 383.29 349.7 383.69 350.99 383.79 358.18 383.84 359.47 383.94 360.36 384.18 Z M 472.54 416.86 473.82 416.66 474.21 416.13 474.72 415.31 475.1 414.86 475.49 413.5 475.48 409.71 475.49 407.74 474.59 405.61 473.56 404.91 472.28 404.58 471.12 404.33 464.82 404.45 463.54 404.88 462.76 405.17 461.74 405.99 461.35 406.74 461.1 407.57 462.13 411.68 462.77 412.37 464.44 413.69 468.54 415.5 472.54 416.86 Z M 308.85 409.72 311.55 409.62 314.25 409.29 317.46 408.51 317.84 407.91 317.84 407.23 317.2 406.39 306.15 400.35 305.25 400.34 303.96 400.16 302.68 400.29 300.75 401.55 300.36 402.91 300.37 404.95 300.76 405.94 304.73 408.29 307.17 409.39 308.85 409.72 Z M 541.27 170.78 542.17 170.64 542.68 170.27 542.69 169.97 542.16 169.65 541.14 168.5 541.27 168.12 542.16 167.99 545.39 167.74 546.8 167.09 546.79 166.48 546.28 165.41 544.1 164.38 542.29 164.2 540.63 164.09 539.21 163.92 538.31 163.75 537.03 163.43 536.13 163.18 535.36 163.17 534.72 163.38 533.44 163.89 528.68 167.29 527.27 168.79 527.52 169.02 528.55 169.34 532.15 170.24 533.43 170.33 534.58 170.28 535.62 170.07 537.03 170.25 541.02 170.62 541.27 170.78 Z M 334.54 203.42 337.89 203.18 338.4 203.03 340.32 202.31 340.84 201.64 340.71 201.33 340.58 200.65 340.32 200.41 339.93 199.95 335.44 198.36 333.63 197.64 332.35 197.39 330.94 197.37 330.3 197.51 326.96 199.12 326.96 199.65 326.71 200.1 326.96 201.62 327.48 202.16 328.25 202.47 334.54 203.42 Z M 355.48 396.9 363.58 396.14 364.09 395.39 363.07 394.39 362.42 393.77 361.14 393.29 360.37 392.97 355.87 392.52 354.33 392.49 353.81 392.71 353.3 392.92 353.18 393.23 352.79 393.6 352.53 394.12 352.39 394.8 352.79 395.42 353.18 396.03 354.21 396.58 355.48 396.9 Z M 560.53 174.98 561.83 174.4 562.73 173.51 561.95 173.27 561.31 172.88 560.28 172.71 559.76 172.55 558.99 172.23 558.74 171.92 558.49 171.69 558.09 170.32 557.07 170.07 556.42 170.14 555.66 169.97 554.38 169.64 552.06 168.69 551.55 168.76 551.16 169.59 551.16 170.27 552.18 172.03 553.86 172.74 555.15 172.99 556.3 173.39 558.1 173.88 558.36 174.34 558.61 174.65 559.52 174.96 560.53 174.98 Z M 365.51 202.83 365.12 201.84 358.19 197.39 357.42 197 356.39 196.98 355.22 196.81 354.71 196.88 354.07 198.16 354.32 198.62 355.35 199.32 360.37 201.3 365.51 202.83 Z M 570.83 449.83 571.72 449.85 572.62 449.56 574.8 447.55 575.83 446.59 575.44 444.61 574.41 444.06 573.91 444.05 573.14 444.04 572.5 444.25 570.31 446.72 569.92 447.32 569.8 447.77 570.83 449.83 Z M 561.95 446.49 564.91 446.09 565.93 445.35 565.94 444.74 565.56 444.28 563.24 442.88 562.34 442.86 561.82 443.08 560.03 444.34 559.77 444.79 560.03 445.4 560.02 445.93 560.54 446.32 561.95 446.49 Z M 404.82 178.59 405.85 178.53 406.22 178.39 406.87 177.03 406.87 175.06 406.23 174.75 405.2 174.81 404.43 174.87 403.54 175.31 402.89 176.21 402.89 176.96 403.92 178.5 404.82 178.59 Z M 336.73 377.4 338.02 377.35 338.39 376.9 338.14 376.29 337.87 375.9 337.24 375.21 336.47 374.89 335.45 375.03 335.05 375.32 335.05 376.46 336.73 377.4 Z" fill-rule="evenodd"/>
</g>
</svg>