<?xml version="1.0"?>
<svg xmlns="http://www.w3.org/2000/svg" version="1.2" baseProfile="tiny" width="800" height="1973" viewBox="0 0 800 1973" stroke-linecap="round" stroke-linejoin="round">
<g id="indianvalleyreservoir">
<path d="M 776.81 1782.43 779.23 1786.05 781.48 1787.42 783.65 1791.2 784.05 1794.25 783.89 1797.07 782.2 1799.56 781.49 1800.61 781.16 1801.09 779.55 1802.62 778.91 1805.36 781.32 1807.04 784.05 1808.01 785.36 1807.96 788.08 1807.85 791.13 1808.09 792.5 1809.78 793.21 1811.12 792.18 1813.3 791.02 1816.26 790.21 1817.17 788.83 1818.71 785.49 1819.61 784.2 1823.09 785.1 1827.08 788.19 1828.88 791.28 1828.1 793.21 1828.1 793.85 1830.16 791.79 1831.07 790.12 1833.12 792.18 1834.15 795.27 1834.41 797.71 1834.28 799 1835.05 798.36 1835.96 796.3 1837.63 794.37 1839.04 794.88 1841.62 793.24 1841.82 791.79 1842.01 788.06 1842.39 783.3 1842.65 778.54 1843.16 775.58 1845.09 774.03 1848.31 771.2 1850.5 767.47 1852.69 761.29 1854.49 756.27 1855.39 751.38 1854.62 746.36 1855.65 739.92 1857.06 736.06 1857.32 733.1 1858.99 731.3 1862.21 731.94 1865.17 731.94 1869.29 731.17 1874.7 729.5 1878.04 725.77 1880.23 721.52 1882.68 719.72 1885.77 719.2 1890.14 718.3 1892.84 717.91 1895.68 718.43 1899.67 721.39 1901.98 724.09 1903.4 727.44 1906.36 730.14 1909.71 734.9 1910.99 737.15 1912.27 734.26 1914.34 731.43 1915.5 731.94 1918.33 733.49 1923.22 735.55 1926.31 738.64 1928.75 744.3 1930.81 755.63 1939.82 758.46 1943.56 760.9 1944.97 763.48 1948.19 766.44 1949.48 769.91 1952.18 771.12 1955.32 771.2 1955.53 771.77 1956.3 772.61 1957.46 774.16 1959.13 775.83 1960.67 778.54 1962.35 779.69 1965.31 778.46 1965.22 777.89 1965.18 775.83 1963.63 773.52 1962.48 772.36 1961.19 771.07 1960.93 769.14 1959.9 768.24 1958.36 766.82 1955.53 762.83 1953.21 759.23 1951.66 754.85 1948.83 748.68 1944.2 746.1 1941.11 743.01 1939.05 736.58 1939.57 730.66 1939.31 723.71 1936.48 719.07 1933.13 712.89 1928.24 707.75 1924.38 700.28 1925.41 694.1 1920.77 690.76 1916.66 687.92 1913.31 684.32 1913.05 678.88 1913.61 676.86 1913.82 674.02 1913.57 669.91 1910.22 664.24 1906.87 660.12 1902.5 656.26 1899.67 652.74 1896.8 652.14 1896.32 649.83 1892.2 645.45 1888.6 641.33 1885.25 635.93 1883.19 635.15 1881.13 628.98 1878.04 623.31 1874.7 622.28 1872.64 619.71 1869.81 615.08 1867.75 610.96 1865.43 608.64 1862.6 605.29 1862.34 604.52 1858.74 601.43 1854.88 598.86 1851.53 595.51 1848.18 589.85 1846.12 582.9 1844.58 581.87 1842.26 577.75 1840.2 573.63 1838.14 567.97 1837.63 564.62 1839.69 562.31 1842.52 560.5 1849.99 559.99 1853.33 556.39 1855.65 552.78 1856.42 552.01 1856.42 547.89 1856.42 541.71 1858.48 538.62 1862.08 535.02 1862.08 530.13 1863.89 522.15 1868.26 513.65 1872.12 509.54 1877.01 505.67 1879.07 501.56 1882.68 501.56 1886.54 502.33 1891.17 499.75 1893.23 498.72 1898.38 501.56 1902.5 504.64 1904.81 506.45 1907.39 505.42 1912.02 505.67 1915.63 507.99 1918.46 512.62 1920 514.68 1918.72 517.77 1917.69 520.86 1917.94 522.66 1916.14 523.69 1914.34 525.5 1911.76 527.81 1913.57 529.1 1915.88 528.33 1918.2 527.36 1920.28 526.52 1922.06 527.3 1923.35 529.36 1926.95 527.04 1928.75 524.21 1928.24 520.35 1928.24 519.06 1929.27 516.23 1930.3 510.57 1931.59 511.08 1929.53 508.51 1929.78 504.64 1930.81 504.64 1934.16 503.87 1936.73 501.04 1939.82 501.56 1943.43 503.1 1944.97 503.87 1948.32 502.33 1953.21 502.07 1955.78 503.36 1959.13 503.36 1961.96 502.07 1964.02 497.95 1964.28 490.23 1965.05 486.82 1965.71 480.96 1966.85 468.35 1969.68 459.6 1972 455.74 1967.62 453.16 1964.53 448.79 1963.25 442.35 1963.51 433.86 1964.53 428.71 1964.53 426.39 1961.96 423.56 1957.33 421.11 1955.4 416.61 1953.47 412.23 1951.66 410.06 1951.14 407.98 1950.63 403.48 1949.35 398.46 1946.52 396.01 1943.43 393.96 1939.18 390.35 1935.58 386.23 1931.59 383.4 1928.75 378.77 1927.21 374.01 1925.79 372.85 1923.22 368.09 1921.16 362.55 1919.1 357.15 1916.66 352.77 1915.24 349.29 1912.41 347.56 1909.14 345.43 1906.23 343.24 1905.46 340.93 1903.91 339.38 1901.08 337.74 1897.43 337.66 1897.39 333.98 1895.93 329.22 1895.68 325.48 1893.62 324.32 1889.88 324.32 1886.67 323.68 1884.99 319.3 1882.55 317.37 1881.39 314.29 1881.52 311.2 1881.65 309.01 1879.85 308.36 1877.14 306.69 1876.11 302.83 1874.05 300.51 1872.38 299.74 1869.93 297.94 1868.13 294.34 1867.62 289.83 1867.49 287.9 1865.82 288.67 1864.4 289.44 1862.47 288.16 1860.02 287.13 1859.12 286.36 1857.45 284.3 1856.16 280.95 1855 278.25 1853.72 274.93 1852.46 272.84 1850.24 271.94 1848.44 271.68 1846 269.37 1845.35 266.15 1846.64 265.5 1847.54 265.5 1849.21 266.41 1850.11 267.82 1851.79 268.71 1853.65 269.11 1854.49 269.75 1856.03 270.91 1858.09 269.75 1860.15 266.02 1862.98 259.71 1864.14 251.09 1865.56 242.34 1865.56 238.09 1866.33 235 1867.1 233.2 1870.84 234.36 1872.38 236.16 1874.31 237.32 1876.89 236.55 1879.33 235.13 1877.4 232.94 1875.08 230.63 1874.57 227.92 1874.7 224.68 1874.68 222.77 1871.99 219.23 1871.03 218.27 1871.18 215.05 1871.67 211.99 1872.48 208.78 1874.57 206.04 1876.5 203.57 1875.71 202.92 1875.49 202.35 1874.57 200.91 1872.97 197.1 1871.89 192.98 1871.43 188.45 1871.48 183.67 1871.63 178.93 1871.99 173.58 1872.51 172.19 1872.79 169.97 1873.23 166.83 1875.39 166.78 1877.81 166.68 1878.48 165.13 1877.55 162.56 1876.11 160.55 1876.22 158.54 1877.09 155.5 1878.58 152.67 1880.23 151.69 1882.96 148.97 1883.37 148.76 1882.65 148.19 1880.49 146.8 1878.33 143.71 1877.09 141.09 1876.22 138 1874.31 136.2 1872.56 135.47 1872.1 133.93 1871.12 129.51 1868.7 125.98 1867.24 121.17 1867.1 116.37 1865.76 109.25 1865.7 106.76 1865.3 104.43 1864.82 99.81 1863.04 98.25 1862.72 94.61 1864.09 91.96 1864.9 90.5 1864.95 89.63 1864.98 88.42 1864.25 90.65 1864.24 92.92 1863.53 94.37 1862.97 96.8 1862.42 98.39 1861.68 100.08 1861.36 102.5 1861.6 106.84 1862.64 108.53 1863.13 110.86 1862.56 116.41 1862.31 121.43 1862.69 126.16 1862.98 127.42 1863.56 128.96 1864.24 131.38 1864.14 134.95 1865.97 136.78 1866.55 138.52 1866.65 140.84 1868.58 142.5 1869.77 144.6 1871.28 146.24 1872.25 149.33 1873.02 154.25 1872.34 157.82 1870.41 159.96 1869.13 160.91 1867.9 163.91 1866.84 166.9 1866.55 168.64 1865.59 170.28 1865.97 172.21 1865.11 174.55 1864.02 174.07 1863.54 173.27 1861.44 171.73 1859.99 170.18 1857.96 168.35 1856.42 165.82 1855.28 165.09 1854.55 166.51 1853.62 168.73 1853.91 169.7 1853.91 172.11 1855.16 175.2 1856.32 178.39 1857.77 182.05 1857.77 185.92 1856.9 187.36 1855.55 189.2 1856.32 191.71 1858.15 194.31 1856.8 196.44 1854 198.46 1851.98 200.49 1850.43 200.39 1848.98 201.94 1848.98 204.55 1847.44 208.6 1845.8 211.79 1845.9 217.48 1846.57 220.86 1847.63 223.08 1846.28 225.78 1844.16 228.58 1842.52 231 1840.97 235.73 1838.95 239.59 1840.01 243.16 1840.49 245.47 1840.1 246.54 1837.21 249.14 1830.45 250.69 1825.91 252.71 1822.53 254.84 1821.57 258.02 1820.31 259.57 1818.19 260.15 1815.01 262.27 1812.5 265.84 1810.66 267.58 1808.63 267.19 1805.64 265.65 1801.01 265.46 1797.34 264.88 1788.27 261.69 1780.25 260.15 1776.3 257.83 1771.47 254.84 1767.51 250.01 1763.65 246.44 1761.91 244.61 1762.4 241.9 1763.07 239.1 1762.01 236.88 1760.08 234.97 1756.82 233.31 1756.8 233.79 1755.74 236.69 1752.41 238.11 1746.92 239.39 1742.8 238.88 1736.11 237.08 1728.64 236.64 1723.8 232.96 1718.86 231.41 1713.71 235.79 1713.71 241.45 1714.48 245.57 1712.94 250.98 1709.85 253.04 1709.85 256.13 1708.05 256.45 1703.81 258.44 1694.92 257.67 1687.46 255.61 1681.54 259.73 1678.19 263.85 1671.5 265.91 1665.32 264.36 1659.14 266.42 1653.48 269.25 1650.9 274.14 1646.27 276.46 1639.58 276.46 1632.88 273.89 1626.96 275.17 1618.98 274.14 1613.32 274.66 1606.63 272.6 1601.22 272.86 1595.3 269.25 1593.76 264.36 1593.24 255.87 1594.79 257.93 1590.67 261.79 1588.35 264.88 1586.81 263.92 1582.77 262.3 1580.11 263.59 1576.77 263.85 1572.39 268.74 1569.82 273.63 1567.76 274.66 1564.93 274.57 1559.75 271.1 1558.2 266.27 1555.69 259.9 1551.06 256.43 1548.74 252.76 1548.74 248.7 1548.74 243.3 1548.55 239.63 1549.51 234.61 1548.36 230.36 1543.72 235.38 1545.85 238.86 1546.62 241.37 1544.69 244.84 1542.37 246.97 1541.21 249.09 1536.19 251.02 1533.68 251.6 1530.79 249.86 1526.93 249.81 1526.83 248.12 1523.84 248.12 1520.36 247.35 1515.34 246.19 1509.36 242.53 1507.43 238.08 1505.57 234.29 1506.08 233.41 1506.2 236.15 1503.37 239.44 1500.28 241.37 1496.04 241.56 1490.24 238.66 1487.15 235.38 1485.22 236.93 1483.29 236.73 1480.78 232.87 1477.5 229.4 1471.52 226.69 1466.88 225.54 1461.48 223.22 1454.91 219.74 1451.05 213.18 1446.23 211.06 1443.33 208.55 1441.01 206.04 1437.92 204.26 1435.59 201.79 1432.33 199.47 1429.62 196 1424.02 192.33 1419 185.76 1412.83 181.52 1407.03 178.24 1405.68 174.76 1400.86 167.81 1395.64 163.95 1391.4 162.4 1386.96 160.09 1383.29 156.35 1377.42 156.03 1376.92 152.17 1373.63 149.93 1372.72 145.99 1371.12 140.2 1369.58 132.48 1366.49 127.07 1363.98 130.74 1363.98 138.85 1366.88 146.38 1369.97 150.35 1371.15 153.52 1372.09 157.38 1375.76 159.92 1378.54 161.25 1380.01 164.53 1384.25 167.04 1387.92 174.37 1389.85 178.5 1391.08 181.52 1391.98 186.73 1394.1 191.94 1397.19 194.45 1395.45 194.26 1397.57 198.7 1400.66 202.75 1402.98 208.55 1405.88 212.6 1405.88 214.34 1405.1 215.5 1405.88 218.97 1406.26 222.45 1405.3 226.69 1404.33 230.56 1403.37 229.01 1405.68 227.15 1408.94 226.69 1409.74 226.69 1414.18 233.26 1421.51 243.1 1427.5 246.58 1428.85 244.07 1431.36 242.53 1435.03 244.26 1436.77 245.81 1439.08 244.65 1443.91 245.33 1447.16 247.35 1452.4 250.63 1454.53 254.11 1458.39 253.92 1463.22 255.85 1467.08 258.74 1470.17 262.8 1473.45 267.62 1475.57 271.1 1473.83 274.19 1472.1 274.51 1471.78 276.89 1469.39 280.75 1466.5 282.88 1464.95 283.84 1466.69 284.42 1474.22 284.64 1480.33 282.88 1485.22 285.39 1489.47 289.25 1493.53 293.69 1495.46 297.16 1493.91 299.62 1492.96 302.18 1488.12 301.41 1484.84 301.02 1478.47 301.02 1473.25 302.37 1471.13 303.92 1472.1 307.59 1474.99 311.83 1477.12 315.5 1477.69 321.68 1476.92 324.96 1477.89 330.18 1476.54 335.2 1477.5 337.7 1475.96 341.95 1476.34 347.36 1479.05 347.36 1483.49 350.83 1484.64 352.57 1486.58 350.64 1489.28 350.25 1493.33 353.73 1494.68 359.33 1494.49 363.77 1494.49 364.93 1497.19 363.19 1501.83 362.61 1505.3 365.51 1505.3 368.21 1504.53 369.75 1501.25 369.75 1496.61 367.82 1487.35 364.93 1476.73 358.56 1463.41 343.3 1443.14 341.95 1440.05 342.34 1434.26 339.83 1423.44 335.77 1411.28 330.37 1406.07 327.67 1404.33 328.05 1402.4 331.33 1399.12 332.49 1392.94 329.79 1385.22 324.58 1380.39 321.1 1377.69 324.96 1375.37 326.31 1372.09 323.03 1366.68 323.03 1364.17 322.65 1357.22 319.17 1352.4 316.47 1348.92 315.12 1343.52 315.89 1339.46 316.27 1335.41 315.31 1329.04 317.05 1327.3 318.78 1322.86 319.94 1316.1 316.08 1310.31 316.27 1304.13 316.27 1298.92 314.92 1293.51 318.01 1288.49 321.68 1281.93 321.87 1278.26 322.65 1267.64 321.49 1264.75 318.59 1263.4 314.54 1261.66 310.68 1259.92 305.46 1256.25 301.8 1252.97 301.02 1249.11 301.6 1245.63 304.5 1242.35 307.01 1239.26 307.39 1236.37 305.27 1234.44 301.8 1233.28 295.81 1231.54 291.37 1232.31 286.54 1233.28 285.21 1232.1 283.07 1230.19 279.79 1226.14 276.31 1222.85 275.15 1217.83 273.42 1215.9 268.01 1213.59 265.31 1212.04 264.15 1209.92 257.78 1208.37 248.51 1207.02 241.17 1206.06 241.37 1202 241.17 1196.21 240.02 1190.61 238.47 1186.17 235.96 1183.66 232.1 1181.92 229.6 1180.29 226.5 1178.26 225.34 1176.52 222.83 1175.36 220.52 1170.73 216.85 1167.83 214.34 1165.13 215.3 1162.23 217.43 1158.56 216.08 1155.47 210.86 1153.35 204.88 1152.19 201.02 1150.46 195.22 1150.65 188.45 1150.23 186.84 1149.59 183.38 1149.99 181.37 1149.35 180.65 1147.82 178.4 1146.53 175.58 1145.16 171.64 1144.36 167.05 1143.63 162.39 1142.59 159.57 1142.11 156.03 1141.54 154.59 1140.74 151.53 1139.69 148.47 1139.85 145.41 1141.14 143.24 1141.22 142.84 1141.22 139.62 1141.22 135.92 1142.19 135.44 1140.98 136.49 1139.53 138.34 1138.65 139.86 1137.84 141.88 1137.52 142.92 1135.83 142.12 1133.26 140.75 1131.17 138.66 1128.75 134.88 1127.22 131.1 1126.58 126.59 1126.42 123.37 1126.1 120.6 1125.43 119.35 1125.13 116.86 1123.76 115.49 1121.03 114.12 1118.37 112.36 1115.98 110.5 1114.03 112.35 1114.35 115.47 1116.62 118.22 1117.93 119.22 1121.1 122.17 1122.16 125.14 1122.88 129.65 1123.2 131.26 1122.64 134.15 1123.12 138.34 1123.36 145.44 1122.7 148.14 1123.25 150.48 1124.65 154.59 1125.61 158.61 1126.26 162.95 1126.26 169.46 1123.09 171.26 1122 173.32 1120.77 180.27 1119.42 188.96 1115.94 195.91 1113.24 199.38 1111.31 203.63 1108.8 209.81 1107.06 213.86 1108.03 216.56 1107.06 219.65 1105.13 221.58 1101.85 223.9 1100.11 225.64 1097.41 225.64 1095.09 223.9 1092.58 222.55 1090.07 223.73 1084.56 224.13 1083.99 226.46 1082.63 229.6 1082.79 231.37 1082.22 232.01 1081.1 231.89 1080.17 231.77 1079.25 231.05 1077.72 229.28 1076.11 227.11 1074.66 224.93 1073.29 222.52 1071.69 221.07 1070.16 223.33 1070.4 225.09 1070 228.55 1070.24 232.5 1070.48 236.76 1070.48 239.66 1071.53 242.47 1072.09 241.83 1069.59 240.14 1067.34 241.51 1065.41 243.36 1063.08 244.88 1061.39 245.45 1059.38 246.81 1057.21 249.23 1056.56 254.05 1055.28 257.67 1054.87 259.85 1054.39 259.77 1053.02 258.32 1051.74 255.9 1049.64 252.77 1048.2 250.43 1047.15 249.07 1046.67 247.62 1047.96 244.8 1048.12 242.15 1047.15 240.38 1045.7 238.37 1044.17 236.36 1044.17 233.22 1045.3 228.96 1045.06 225.26 1043.53 222.2 1040.96 218.98 1039.35 215.84 1037.34 212.63 1037.18 208.44 1037.5 205.87 1037.58 204.58 1037.26 205.23 1036.37 208.52 1035.81 211.02 1034.04 212.39 1032.59 212.55 1031.63 212.95 1030.02 213.35 1029.13 214.56 1029.37 217.29 1030.66 222.2 1032.03 225.58 1032.51 228.55 1032.43 230.73 1031.55 232.17 1030.58 232.09 1028.49 231.45 1027.6 230.22 1026.74 229.28 1026.08 228.31 1025.27 227.59 1022.94 229.12 1022.94 231.21 1022.94 234.83 1022.86 237.8 1021.97 238.93 1020.28 240.62 1017.71 242.63 1014.49 244.16 1012.08 247.54 1008.7 252.2 1006.45 255.34 1003.79 256.71 1000.33 256.31 997.2 255.02 994.06 254.3 990.04 254.46 986.58 255.58 983.12 257.75 980.95 259.69 979.98 259.6 977.49 259.52 975.32 259.77 973.39 259.28 971.54 257.03 971.45 256.15 970.73 252.45 967.67 250.27 965.5 248.66 963.65 246.65 962.36 244.72 960.03 245.21 957.14 245.85 955.61 247.3 953.6 247.7 950.86 246.73 948.77 243.44 946.12 241.59 943.06 237.48 935.26 236.44 933.16 236.84 931.64 236.68 929.46 235.39 927.29 232.33 925.84 228.88 925.04 230.24 923.43 231.29 921.9 231.45 919.17 232.58 917.24 232.82 915.79 230.4 914.02 225.18 912.97 221.07 912.01 218.98 911.36 215.44 912.09 210.7 912.17 206.91 912.17 203.62 912.81 200.24 914.42 196.78 914.82 193.64 914.34 191.31 913.54 191.23 912.65 191.79 911.85 192.9 909.83 193.72 907.58 195.81 903.96 197.26 901.87 196.3 901.31 194.77 901.55 192.76 902.03 190.34 901.39 189.86 900.34 189.14 898.98 190.02 897.05 190.26 895.28 189.78 893.99 188.25 892.62 187.45 890.69 187.69 888.84 188.65 887.55 190.67 887.07 193 886.67 194.12 884.66 193.96 883.37 193.48 881.6 193.56 879.99 191.87 879.11 188.41 877.82 186.4 876.69 184.31 876.13 184.39 874.52 185.76 874.52 187.93 873.23 187.85 870.58 187.29 868.17 188.09 865.75 186.97 863.9 183.99 861.97 181.41 860.36 178.84 859 175.54 858.27 174.26 856.34 174.26 853.04 173.29 852 170.15 851.6 167.58 850.63 164.92 848.78 164.12 847.41 162.11 845.56 159.29 843.55 157.85 842.1 158.33 840.98 158.49 838.97 159.21 837.6 158.33 836.31 156.16 836.96 155.43 836.39 155.73 834.5 158.15 829.51 158.95 825.01 159.27 818.09 158.79 812.62 158.31 807.31 159.92 804.09 165.55 803.45 170.54 803.13 172.47 801.34 172.79 798.46 176.97 796.37 182.28 795.73 188.55 798.62 191.89 800.61 196.12 803.13 200.94 805.06 202.07 807.47 200.14 813.75 197.89 820.18 199.5 823.08 203.52 825.33 208.34 828.07 214.78 830 221.7 829.84 225.72 828.23 227.33 824.69 227.97 820.02 229.26 816.16 227.65 810.69 222.82 808.92 212.53 806.67 203.03 802.65 200.02 800.31 196.6 797.66 192.26 792.99 186.62 787.68 181.64 782.86 176.65 779 171.98 775.94 165.55 774.65 160.08 773.2 153.64 770.47 149.94 766.77 146.56 762.91 141.58 756.63 137.72 752.29 133.21 747.46 126.61 739.9 120.38 735.57 114.55 729.44 111.49 728.16 108.6 723.33 104.57 721.4 100.07 720.6 95.24 715.93 91.38 709.98 88.48 705.15 85.59 701.77 83.18 699.68 82.37 696.78 80.44 694.85 75.13 691.64 73.2 689.38 73.2 686.01 74.97 682.78 77.22 680.54 81.57 677 80.28 674.58 72.4 672.81 77.54 672.81 75.61 670.88 69.02 669.27 60.81 667.83 54.22 666.7 53.09 665.25 60.65 665.25 65.96 666.06 71.75 666.06 77.71 665.57 84.3 665.57 92.99 664.61 99.59 661.71 103.29 659.78 103.93 653.83 107.31 649.16 111.33 645.46 116.16 640.15 117.93 637.58 119.21 634.32 120.34 629.53 121.79 626 122.91 622.94 126.13 621.01 131.28 617.95 134.18 614.25 138.2 609.1 140.13 602.51 140.77 593.5 143.02 588.99 143.02 586.26 138.04 584.65 132.57 582.88 127.26 581.75 124.52 579.66 125.81 577.57 129.51 575.96 133.37 574.51 134.33 571.9 134.34 568.88 133.05 568.24 129.67 566.79 126.78 564.7 129.51 563.25 131.6 559.87 133.53 556.01 134.01 551.18 134.82 548.13 134.34 542.01 135.3 536.22 133.85 533.49 133.85 530.43 136.27 528.82 138.2 525.6 137.73 521.96 135.3 517.72 132.41 514.18 131.6 512.25 135.62 512.09 139.97 510.48 137.23 507.91 131.12 505.81 121.63 500.83 122.59 498.57 130.64 501.63 136.27 499.38 141.42 497.45 141.58 494.87 138.36 489.24 133.85 484.58 128.22 480.88 128.38 476.69 127.26 473.64 124.68 468.97 124.68 461.41 126.29 455.62 128.06 449.83 128.87 447.57 132.41 445.32 134.82 442.59 136.59 440.33 137.23 438.4 128.71 435.67 134.34 435.99 139.16 436.31 138.2 435.03 138.36 431.32 140.77 430.04 138.2 425.21 137.39 421.19 135.62 417.17 135.62 413.31 138.04 411.7 139.49 409.61 139.65 402.53 137.55 391.59 135.78 386.92 134.01 384.02 130.31 374.85 129.02 371.16 128.06 368.42 129.19 364.88 131.12 360.21 132.25 355.71 132.08 355.07 128.87 351.04 125.49 348.79 120.02 346.86 114.23 344.93 110.2 341.87 110.69 338.98 108.76 335.44 106.18 334.15 107.63 331.09 106.5 327.72 105.54 322.41 105.38 318.22 108.76 315.97 109.4 313.88 106.83 308.89 105.06 301.01 103.61 296.18 102.16 292 98.78 288.14 95.72 288.14 92.18 287.98 91.22 285.72 93.95 285.89 93.95 284.28 91.86 278.48 87.48 270.84 85.91 265.94 85.75 262.4 83.98 256.6 82.21 254.19 80.92 253.06 81.08 251.78 78.99 248.4 77.22 245.82 74.17 242.61 70.47 238.59 66.88 232.68 72.92 232.26 71.15 229.69 69.22 225.99 66.8 221.64 63.26 217.14 58.92 213.12 55.54 209.09 51.84 205.39 48.46 199.92 51.04 202.5 55.86 207.81 59.72 210.22 62.14 212.63 62.78 209.9 57.79 204.59 52.32 200.41 48.3 196.55 43.8 193.01 41.7 190.75 36.72 187.86 32.05 184.8 28.51 182.39 24.65 176.6 27.39 178.85 30.44 182.39 35.43 185.61 44.12 189.15 47.98 191.4 53.77 194.94 63.42 200.41 66.16 200.89 64.55 197.83 60.37 194.45 55.54 191.08 51.04 186.57 54.25 186.57 42.19 181.42 38.33 179.65 31.89 176.11 27.71 174.02 24.97 174.5 21.92 171.29 16.77 168.07 13.87 164.37 10.01 162.6 6.63 160.35 3.25 158.09 1 154.55 3.25 153.91 6.15 156.97 11.94 160.67 17.25 163.73 21.03 166.61 28.67 170.16 32.69 170.8 38.81 173.38 45.4 175.63 43.47 171.77 46.21 174.02 54.9 179.49 63.75 182.55 73.24 185.77 77.9 188.02 82.41 189.63 87.72 192.68 91.74 195.42 98.66 202.82 98.82 205.23 99.94 207.97 103.64 211.83 109.6 217.3 113.78 215.37 113.78 212.15 111.85 209.26 108.79 207.16 103.32 203.79 105.41 199.76 108.79 201.05 111.37 200.57 111.85 195.1 111.85 192.2 106.7 189.47 101.71 187.54 101.23 184 106.7 185.61 112.17 187.21 119.73 192.04 124.88 197.67 129.06 206.84 133.41 213.28 138.4 218.59 141.61 221.97 145.31 222.61 146.6 219.71 145.47 217.14 147.73 215.69 151.59 216.98 150.78 215.05 147.73 211.19 141.45 206.68 139.2 204.11 135.02 200.25 131 197.51 130.51 195.26 137.91 197.19 139.2 196.38 143.71 200.25 154.65 204.75 158.18 205.07 165.91 206.84 168.96 205.72 171.06 203.46 174.76 204.27 178.62 204.11 175.88 201.05 170.73 196.87 174.76 197.19 180.39 200.57 184.73 201.53 186.02 199.28 183.77 196.87 185.86 196.38 189.88 197.19 194.38 195.9 189.07 194.13 182.64 192.85 182 190.11 186.66 190.11 193.26 191.24 194.06 189.15 192.45 185.61 190.36 183.67 186.82 181.42 190.84 180.78 192.29 179.17 190.52 175.47 187.63 170.64 191.81 171.61 192.61 170.16 197.6 173.38 200.82 178.37 204.04 184.64 207.09 182.87 207.9 179.65 211.28 175.79 214.01 174.83 212.4 172.57 208.86 170.8 210.15 168.23 214.17 169.03 214.66 167.26 212.4 165.82 214.01 163.08 214.17 160.35 217.55 158.58 222.54 159.22 223.34 156.49 222.38 154.55 219.32 151.5 217.39 150.53 212.72 151.98 203.88 150.21 208.06 149.89 212.08 148.28 213.53 143.94 214.01 141.2 220.93 144.1 226.56 144.1 225.27 142.97 222.54 141.68 223.83 140.08 230.9 141.84 233.96 140.56 234.44 138.14 233.48 134.44 226.72 131.71 232.35 131.71 238.14 133 237.5 131.23 236.21 128.17 232.05 125.32 234.41 122.7 230.55 120.64 229.78 116.52 223.34 116.52 213.56 114.46 220.51 112.92 218.19 111.63 222.06 110.6 228.75 113.18 227.46 109.06 224.89 102.36 232.35 100.05 249.08 96.19 252.69 98.5 256.81 102.88 257.97 99.3 255.65 96.21 259.12 94.67 265.69 91.19 270.32 94.67 272.64 90.42 276.02 82.43 286.48 82.43 299.35 84.85 305.78 96.11 319.46 105.76 336.35 112.2 354.85 117.83 378.18 122.66 386.01 127.78 393.73 135.5 395.66 141.61 397.59 147.41 403.06 145.15 405.64 140 406.93 134.21 413.04 126.17 422.05 120.38 425.91 113.3 426.88 104.61 430.74 98.5 438.46 96.57 444.57 94.96 450.29 88.06 458.41 86.27 463.88 84.02 469.67 81.44 471.92 74.04 474.82 66.64 478.09 60.31 482.54 54.74 484.79 54.74 488.66 50.23 490.91 44.76 493.16 43.47 491.87 51.52 494.13 52.8 499.27 49.91 500.88 45.4 502.49 37.04 506.35 30.92 510.86 24.49 522.44 17.73 532.42 13.55 532.09 16.12 523.09 20.63 516.65 24.81 521.48 25.78 529.52 23.85 540.46 27.39 551.72 23.52 556.55 20.31 564.59 17.41 573.6 10.33 576.18 1 576.18 6.79 574.89 15.16 570.06 20.31 566.2 20.63 558.48 24.17 551.4 29.32 544.97 31.57 531.13 31.57 521.48 29.96 515.68 33.5 515.04 39.61 518.58 42.51 514.72 45.08 513.11 50.87 515.04 53.45 515.68 57.63 511.18 61.49 511.05 64.99 510.86 69.86 515.68 75.01 519.22 81.76 517.29 87.23 519.04 95.04 515.56 101.91 507.06 106.15 502.81 108.47 493.93 111.56 484.67 116.58 486.98 121.21 491.62 125.85 495.48 129.32 487.37 128.55 483.51 125.07 480.8 121.99 478.1 124.3 479.65 128.55 480.03 133.18 473.85 132.02 470.38 136.27 469.61 145.15 469.61 147.56 469.61 157.12 471.92 167.55 475.01 175.27 475.4 180.68 481.19 186.85 481.96 195.35 478.87 202.3 476.17 207.32 476.56 215.43 478.49 219.67 477.32 226.73 479.65 232.42 484.28 233.19 480.03 237.05 477.72 243.61 480.8 247.09 478.49 253.27 476.56 256.74 471.54 259.83 471.54 267.17 478.87 270.64 485.44 273.73 486.6 277.21 490.46 279.91 495.48 281.84 500.11 285.7 492 284.93 485.44 281.45 479.65 281.84 479.65 284.93 475.98 289.18 472.5 288.21 467.04 289.6 467.87 285.7 469.22 283.38 468.45 280.88 470.96 277.98 476.36 277.21 480.8 277.21 481.96 276.63 480.23 274.89 478.1 273.15 474.24 271.42 471.34 270.45 470.38 273.54 469.8 276.63 467.1 279.72 466.13 282.81 465.75 286.09 462.99 288.87 460.73 295.35 459.76 298.83 461.31 300.95 464.97 305.78 467.29 310.41 467.87 314.47 469.61 318.72 469.61 325.28 471.34 331.07 473.47 335.51 474.24 338.02 472.7 340.53 472.7 343.23 474.82 344.97 477.91 344.2 479.84 344.01 480.23 345.55 477.14 345.94 474.05 347.87 474.63 351.34 475.49 357.49 477.42 358.62 478.23 362.32 476.62 366.82 476.78 371.81 479.68 375.99 479.03 382.59 479.35 387.58 478.71 392.08 477.26 395.78 477.23 398.79 477.91 403.99 479.68 408.49 480 413 478.71 417.34 476.46 420.72 476.14 424.1 477.59 427.32 477.91 430.37 475.98 433.43 474.85 436 474.69 439.7 474.63 441.59 474.85 445.01 474.53 447.1 473.24 448.23 472.92 450.48 474.37 452.74 472.6 454.51 470.83 458.37 468.9 468.18 467.61 474.13 466.97 477.67 469.22 479.6 466.81 480.57 463.91 484.11 460.85 490.87 459.24 493.92 457.96 498.75 457.64 500.84 454.9 502.61 452.81 502.77 452.33 505.99 452.12 510.52 452.49 515.32 452.33 520.47 452.81 525.29 453.94 527.39 454.58 528.51 453.29 530.44 452.33 538.17 452.17 543.15 452.33 546.53 453.29 547.98 454.58 549.91 454.1 552.81 452.65 553.93 452.17 558.76 449.43 569.38 448.63 574.69 448.46 581.44 446.53 587.4 444.6 593.03 444.76 598.01 449.32 601.04 450.38 600.62 448.95 603.32 445.41 607.67 443.48 610.08 443.32 612.82 444.93 616.03 447.5 619.09 449.71 620.31 452.17 621.66 454.58 621.66 458.44 622.63 455.54 624.72 454.1 628.26 455.54 631.64 460.85 634.86 463.59 636.47 462.94 638.4 461.98 641.61 461.98 645.48 463.91 648.37 467.77 650.14 470.67 652.23 469.22 654.32 466.16 654.97 463.91 656.09 463.91 657.7 465.68 660.76 467.61 664.3 468.25 667.68 468.74 674.11 469.38 680.07 470.51 684.73 472.33 687.07 472.76 687.63 476.78 689.08 480.64 689.24 483.7 690.04 486.43 691.01 489.49 691.65 491.9 692.13 486.76 694.38 482.41 697.76 478.87 702.11 478.23 707.58 479.52 710.15 479.85 711.33 480.96 715.3 484.02 721.09 485.95 724.15 489.01 725.44 494 727.37 495.93 730.91 496.25 734.12 495.6 739.59 497.53 742.81 501.4 742.81 500.75 749.57 501.07 759.22 507.51 765.66 509.12 770.8 507.51 774.02 507.51 776.92 507.19 780.14 505.58 784 506.54 787.86 508.15 792.36 507.19 795.58 508.8 798.48 511.69 800.09 514.59 802.02 511.69 804.27 511.05 809.74 512.01 813.28 515.88 815.53 518.13 818.75 517.48 823.25 516.84 828.08 521.67 831.94 529.07 832.91 536.79 832.91 543.55 832.58 548.7 830.98 548.05 833.55 548.05 835.48 549.98 837.41 545.8 838.7 538.4 839.02 533.89 840.63 530.68 843.2 530.03 845.46 536.79 847.06 543.23 847.71 549.66 849.64 553.52 851.57 553.85 851.41 557.38 849.64 558.03 852.21 553.49 853.86 548.7 854.14 541.62 855.43 536.79 855.43 533.25 858.33 531.32 861.22 526.82 863.8 522.95 867.66 526.82 872.16 530.36 876.02 533.89 876.99 536.79 872.48 540.65 871.52 544.84 870.23 548.05 870.23 551.14 870.12 550.55 874.22 549.91 878.64 549.28 883 548.77 886.51 553.2 889.86 560.28 891.47 564.78 892.76 571.54 895.33 573.47 896.94 578.62 897.9 579.91 901.12 583.45 901.44 593.63 905.94 587.63 908.84 581.84 910.77 577.66 914.31 574.12 919.46 577.33 923 581.52 926.22 582.48 930.72 580.55 936.52 581.2 941.02 587.95 944.24 591.49 946.81 594.07 950.35 596.96 951.96 599.54 952.28 601.47 955.18 602.11 957.75 606.61 960.65 612.41 963.54 616.59 965.47 623.03 964.51 624 966.13 619.98 967.26 616.44 967.58 612.1 968.39 608.88 969.35 606.63 970.8 603.41 968.71 600.03 967.58 596.81 967.42 593.11 965.65 588.93 965.01 582.82 965.01 579.44 964.85 577.67 966.13 576.7 967.9 576.54 970.8 576.06 974.34 575.42 977.56 575.9 983.03 575.9 988.17 577.19 991.55 575.58 996.06 575.9 998.79 583.14 1000.24 591.5 1002.81 599.87 1004.75 605.82 1006.03 611.45 1007.48 613.87 1007.48 612.42 1010.22 616.07 1011.53 619.98 1012.47 624.09 1014.08 633.98 1017.94 638.48 1020.03 641.54 1021.8 645.08 1021.8 647.81 1020.19 649.42 1020.51 651.84 1020.03 654.09 1020.19 655.38 1021.8 654.57 1022.12 658.75 1022.28 661.33 1021.96 662.45 1022.6 659.72 1022.93 657.47 1024.05 655.21 1024.69 653.12 1023.89 651.03 1025.34 645.88 1026.14 640.74 1026.46 635.91 1026.63 631.4 1026.79 628.99 1026.63 623.84 1028.56 615.48 1030.97 609.85 1032.58 601.64 1035.31 595.04 1038.85 591.67 1042.23 588.77 1046.09 590.86 1050.28 593.43 1054.46 597.14 1058.16 599.23 1060.41 600.03 1063.15 602.12 1067.49 604.05 1072.32 609.2 1075.86 613.55 1075.05 615.8 1072.8 619.66 1072.64 620.62 1074.41 621.43 1077.14 621.75 1080.2 625.77 1081.17 630.44 1080.52 635.75 1078.91 638.8 1078.59 639.77 1080.36 638.48 1081.97 637.36 1083.74 637.36 1086.15 637.51 1086.58 638.32 1088.89 636.55 1091.3 635.75 1092.59 636.39 1094.52 635.75 1096.45 634.46 1098.54 633.5 1100.95 634.14 1102.72 631.56 1103.21 627.7 1102.72 624.32 1102.24 621.59 1104.01 621.11 1106.1 619.66 1108.68 624.16 1111.25 627.86 1111.25 631.08 1111.89 630.6 1113.18 630.26 1113.47 628.35 1115.11 622.56 1118.81 618.21 1122.35 614.35 1127.02 613.06 1131.04 613.71 1134.74 615.32 1137.8 616.76 1140.53 617.41 1143.11 620.62 1146 626.58 1147.13 629.28 1148.87 626.96 1150.22 623.29 1152.4 618.08 1155.24 612.68 1157.94 609.78 1159.87 607.85 1162.77 605.15 1164.7 601.67 1168.56 599.93 1175.12 598.39 1181.11 599.74 1183.23 602.44 1183.81 603.99 1186.71 607.85 1190.18 607.85 1195.39 609.2 1199.45 613.26 1201.57 615.19 1202.92 614.03 1206.78 613.24 1211.23 616.54 1215.67 620.79 1217.98 627.54 1218.17 629.86 1216.82 634.49 1217.98 638.16 1218.17 640.28 1219.14 638.35 1222.04 635.65 1225.9 633.49 1230.92 634.88 1234.78 639.13 1238.25 641.06 1239.6 638.16 1241.34 634.3 1244.82 633.72 1247.71 635.27 1251.38 637.97 1252.54 638.16 1253.7 634.11 1256.59 629.09 1259.88 628.89 1263.74 631.4 1269.53 634.49 1271.07 631.98 1274.74 626.96 1279.38 626.38 1283.43 625.42 1289.22 625.03 1295.01 626.38 1298.68 629.86 1301.19 636.04 1301.19 643.57 1299.07 647.43 1296.36 650.9 1293.47 656.5 1292.89 658.82 1292.89 657.47 1297.14 657.41 1297.55 656.31 1304.86 656.31 1309.49 655.34 1313.93 655.54 1316.64 662.04 1316.92 668.86 1317.99 680.44 1317.79 687.29 1316.97 690.48 1316.83 694.15 1315.28 698.2 1315.09 706.31 1313.55 712.3 1312.39 717.51 1310.65 720.98 1308.72 722.63 1306.17 723.11 1305.44 725.23 1303.12 724.76 1305.71 724.46 1307.37 722.34 1312.58 719.83 1317.02 718.28 1318.76 713.26 1320.88 704.57 1322.62 699.75 1325.71 695.89 1330.92 695.75 1331.09 693.96 1333.24 691.27 1332.74 689.62 1331.97 684.99 1332.45 677.94 1334.28 672.15 1337.18 670.13 1339.69 668.58 1341.04 665.3 1342.1 658.54 1344.61 653.62 1347.89 649.27 1352.14 647.73 1354.55 644.26 1360.25 641.26 1365.65 637.98 1368.74 637.23 1369.57 635.08 1371.93 630.35 1377.53 624.95 1381.97 621.09 1384.38 617.03 1386.02 614.23 1388.63 612.59 1391.81 612.21 1396.06 613.56 1399.83 615.2 1401.56 618.96 1402.53 622.83 1404.17 625.34 1406.87 626.2 1409.48 626.3 1412.18 627.65 1414.21 630.55 1415.46 633.15 1416.33 634.8 1417.49 635.86 1419.52 636.24 1422.13 638.17 1422.9 641.07 1422.8 642.81 1421.55 644.54 1421.74 647.73 1422.41 651.01 1423.28 654.97 1422.7 658.06 1422.22 659.62 1422.9 661.82 1423.86 664.33 1423.77 667.81 1422.32 670.8 1422.9 674.57 1421.74 676.79 1419.71 680.26 1419.04 684.8 1416.24 687.79 1413.53 690.2 1410.73 691.85 1409.96 693.68 1411.41 693.1 1415.17 693.49 1418.55 692.33 1422.13 693.1 1425.31 695.51 1425.41 697.83 1424.44 700.34 1425.21 703.82 1426.28 706.71 1426.47 708.93 1427.43 712.31 1427.82 714.92 1427.63 716.94 1428.11 716.9 1428.61 716.85 1429.17 715.69 1429.36 713.76 1430.43 710.28 1431.39 707.77 1431.39 705.36 1432.07 705.07 1433.42 706.04 1434.67 704.2 1436.6 702.85 1438.25 701.88 1439.6 700.05 1438.73 699.68 1438.62 696.58 1437.76 692.33 1437.38 687.12 1438.73 683.74 1440.56 682.48 1441.72 679.78 1442.49 676.3 1443.36 672.54 1443.36 669.45 1444.52 664.91 1447.9 661.73 1452.05 661.82 1454.46 663.95 1456.1 665.4 1458.32 666.94 1460.25 667.33 1461.51 670.99 1462.96 673.31 1463.73 675.82 1464.79 676.5 1466.43 673.99 1467.98 672.35 1470.29 670.9 1471.84 670.45 1473.1 670.32 1473.48 670.61 1476.09 671.96 1478.79 674.57 1481.97 678.33 1484 678.33 1486.51 675.05 1487.48 671.57 1486.51 667.33 1485.06 659.51 1483.23 655.26 1481.59 651.59 1480.72 648.5 1482.55 646.28 1485.84 645.7 1489.12 646.67 1493.85 646.77 1497.71 645.99 1500.6 644.06 1502.73 642.9 1505.62 643.19 1508.91 647.25 1510.74 651.98 1512.77 654.49 1514.79 654.68 1516.15 653.81 1517.79 653.43 1519.14 653.23 1521.26 652.85 1523.87 650.24 1526.76 648.12 1528.98 649.18 1533.71 652.36 1535.55 656.03 1535.16 657.09 1533.04 658.16 1530.34 660.76 1530.05 662.02 1530.43 664.14 1534.58 665.97 1538.06 668.77 1540.28 672.93 1541.92 676.59 1543.56 678.52 1545.39 679.01 1546.23 679.88 1547.71 679.39 1550.03 679.68 1552.35 679.1 1554.66 678.91 1557.36 680.65 1559.68 686.05 1561.03 689.72 1561.9 693.39 1563.74 695.32 1566.05 696.19 1567.31 698.12 1569.72 701.31 1570.59 704.3 1571.55 707.48 1573.68 710.09 1574.55 712.7 1574.93 716.07 1576.77 718.87 1578.22 723.02 1579.47 726.89 1581.3 730.17 1582.46 732.87 1584.78 737.31 1585.94 739.53 1588.16 744.65 1589.22 747.16 1589.99 745.71 1591.34 742.52 1591.73 739.44 1592.21 736.73 1593.18 736.06 1595.78 738.18 1597.43 740.11 1599.84 742.14 1602.64 743.2 1604.47 744.94 1605.24 746.96 1604.09 750.05 1601.96 752.18 1600.03 753.91 1599.07 754.57 1599.52 755.46 1600.13 755.27 1601.48 755.09 1602.51 754.88 1603.7 755.36 1605.34 756.62 1607.85 758.16 1609.97 759.32 1612.68 760.38 1615.86 761.35 1617.6 762.12 1618.76 765.21 1619.05 768.59 1619.05 773.22 1620.69 776.99 1624.45 779.4 1627.35 781.91 1630.34 783.16 1634.49 782.78 1636.33 777.91 1644.2 774.3 1647.8 770.7 1653.46 765.55 1659.64 757.83 1661.7 750.62 1659.13 746.5 1665.31 746.5 1669.94 741.35 1672 738.51 1670.1 735.18 1667.88 729 1666.34 721.79 1672.51 715.61 1680.75 710.46 1692.08 708.41 1697.74 716.64 1700.83 722.31 1699.8 731.82 1699.53 741.87 1698.25 750.11 1698.77 745.47 1705.46 739.3 1711.64 739.73 1721.4 726.68 1728.24 722.82 1731.33 737.88 1732.1 745.5 1732.34 756.41 1734.81 757.57 1738.28 751.24 1743.24 744.44 1743.69 737.49 1744.85 739.81 1748.71 747.53 1752.18 750.24 1755.66 753.32 1756.04 762.26 1764.14 774.56 1776.51 776.81 1782.43 Z"/>
</g>
</svg>