<?xml version="1.0"?>
<svg xmlns="http://www.w3.org/2000/svg" version="1.2" baseProfile="tiny" width="800" height="473" viewBox="0 0 800 473" stroke-linecap="round" stroke-linejoin="round">
<g id="lakeelsinore">
<path d="M 548.52 198.15 553.35 198.15 556.48 202.69 558.46 206.96 561.59 210.65 563.86 213.49 565.56 216.61 567.55 220.02 570.96 222.3 577.21 223.43 582.89 223.43 590.27 225.14 599.36 226.27 608.45 227.98 621.22 230.25 633.15 233.09 637.98 233.66 642.52 233.66 646.78 233.38 660.98 235.65 672.34 237.35 678.31 238.49 683.42 238.49 688.81 239.62 695.91 240.76 703.3 241.9 713.52 243.32 726.3 245.02 740.78 247.01 758.96 249.57 774.58 251.84 784.23 253.26 788.49 253.54 791.62 254.4 795.02 255.25 797.3 256.67 797.58 259.51 798.72 262.92 798.99 265.68 799 265.76 797.86 267.46 795.88 269.17 791.05 269.74 787.36 268.32 783.66 267.46 778.27 264.91 773.16 262.35 765.77 259.23 760.09 256.95 753.85 255.53 748.17 254.11 742.77 252.98 735.39 251.84 725.45 250.7 717.78 249.28 707.56 248.43 699.61 247.86 687.39 248.15 677.74 249 667.8 250.14 658.71 250.7 648.77 251.27 639.97 248.72 633.44 246.73 625.48 244.74 619.52 243.89 615.55 242.75 611.57 243.32 604.75 245.02 598.51 247.01 593.11 249 586.86 252.98 581.47 258.37 575.22 263.2 570.96 264.62 568.69 266.33 566.13 267.46 564.14 267.75 562.16 268.88 561.87 270.59 562.72 272.86 563.01 275.42 563.29 281.1 562.44 285.93 562.44 289.62 564.71 293.88 568.4 295.3 571.81 298.14 573.8 302.69 575.5 306.95 580.05 314.05 584.02 318.88 586.29 324.28 588.57 329.11 588.57 331.95 586.86 334.22 583.17 334.51 579.48 334.79 574.94 335.64 572.1 335.64 570.11 334.51 570.39 330.53 571.53 326.55 573.23 320.59 573.52 317.18 573.52 313.48 572.38 309.51 570.39 306.67 568.12 304.39 565 301.84 560.17 300.42 553.07 300.13 546.82 301.55 543.98 304.11 542.28 306.67 538.3 311.5 534.61 316.89 530.63 319.45 524.39 320.3 519.56 320.59 515.58 322.01 510.19 324.85 506.49 330.25 505.64 335.36 506.49 342.18 508.2 345.59 513.59 349.85 515.58 350.98 517.85 353.82 520.13 357.52 520.13 360.64 520.41 365.19 518.99 369.45 518.99 374.56 520.41 377.97 523.82 380.81 527.79 381.95 532.05 382.23 533.47 381.66 534.02 379.13 538.6 382.69 540.57 386.78 541.99 389.9 543.98 393.03 543.98 396.72 542.28 398.71 542.84 401.55 543.13 404.11 542.56 407.51 541.42 409.79 540.01 411.21 537.45 410.92 533.47 410.36 530.35 410.64 528.93 411.78 529.21 414.05 530.07 415.75 531.2 417.17 532.62 417.46 532.05 420.01 531.77 423.99 532.05 426.55 533.47 428.54 535.46 432.51 536.88 437.63 538.59 441.89 538.3 446.15 535.46 452.4 531.2 458.36 526.37 462.91 517.29 466.03 505.64 470.58 497.41 471.43 490.59 472 483.21 470.86 475.82 469.16 470.14 465.75 464.18 463.19 458.22 459.22 449.76 455.51 441.14 447.46 433.47 444.91 401.95 430.42 378.95 419.34 344.87 404.85 307.38 387.81 280.97 375.02 267.34 367.35 258.82 354.57 242.63 347.75 234.97 337.53 229 330.71 212.82 322.19 194.92 314.52 162.55 297.47 157.44 290.65 148.07 276.16 140.4 265.09 123.36 253.15 112.28 238.67 90.99 221.62 69.69 207.13 51.8 196.91 43.28 186.68 42.46 182.81 43.6 179.97 45.02 175.99 47.86 172.3 49.63 170.52 50.98 169.17 52.69 165.76 52.12 162.64 47.86 160.94 44.62 158.82 41.33 156.67 37.35 155.54 33.37 154.97 27.98 152.98 24.29 152.41 15.16 161.11 10.09 159.8 5.83 156.67 2.7 155.54 1.85 154.12 1 151.28 1.57 147.87 2.99 146.73 4.41 145.6 6.4 145.31 8.1 144.18 10.37 142.19 11.79 140.48 13.67 138.64 20.37 141.46 26.56 145.88 30.25 149 33.66 151.85 37.63 152.98 40.76 152.13 43.31 149.29 46.44 145.03 50.7 139.35 55.53 133.66 59.22 128.55 63.19 124.57 67.45 120.31 72.56 115.77 77.11 112.36 83.36 109.52 85.07 109.25 87.05 108.95 89.32 107.81 90.63 106.77 90.74 106.68 91.02 104.69 93.86 101 97.27 99.01 100.96 97.3 106.64 97.02 110.33 99.29 113.74 101 119.71 104.4 125.95 108.38 129.93 111.22 133.91 113.49 137.31 114.63 143.28 117.76 138.45 113.21 131.63 107.53 127.09 102.13 122.26 96.45 118.57 92.76 114.03 87.08 114.03 85.94 114.59 84.8 112.32 81.39 109.48 78.27 111.47 76.85 114.03 74.58 118.85 77.42 120.56 79.69 122.26 78.55 125.39 76.56 124.82 74.01 125.95 70.6 129.65 66.05 135.33 61.79 141.86 62.36 146.12 64.63 149.52 64.92 150.94 61.79 154.35 59.52 156.06 56.96 160.03 54.41 163.44 52.42 166.56 51 169.97 49.29 172.81 48.44 176.5 47.87 178.21 46.17 178.78 43.33 180.2 41.06 181.62 37.36 184.74 33.95 187.29 31.11 189.28 29.69 192.69 27.7 196.38 26.85 199.79 24.58 201.21 21.45 201.21 18.33 203.2 15.2 206.61 12.93 214.56 8.1 222.22 5.26 227.62 2.99 233.3 1.57 242.67 1.28 249.77 1.28 258.58 1 268.23 2.7 279.31 5.55 291.52 10.94 298.05 14.35 308.84 19.47 322.76 26.28 339.23 36.79 351.72 44.46 368.48 55.26 374.73 60.66 382.11 63.78 388.64 67.76 396.31 72.02 407.1 79.97 415.9 84.8 424.14 90.48 430.1 95.88 435.78 98.72 442.31 102.42 450.27 109.23 461.91 117.76 470.71 123.15 477.24 127.98 485.2 134.23 492.86 139.91 497.12 143.61 499.96 147.87 504.22 151.85 512.74 156.39 519.56 161.22 522.97 164.91 526.09 166.9 530.07 169.46 532.34 173.15 534.61 177.13 536.03 180.54 536.31 185.08 537.17 189.06 539.72 191.62 540.88 193.35 541.99 195.02 545.68 198.15 548.52 198.15 Z"/>
</g>
</svg>