<?xml version="1.0"?>
<svg xmlns="http://www.w3.org/2000/svg" version="1.2" baseProfile="tiny" width="800" height="416" viewBox="0 0 800 416" stroke-linecap="round" stroke-linejoin="round">
<g id="lakethomasaedison">
<path d="M 751.45 127.61 748.91 134.38 746.77 137.47 746.53 137.81 743.99 141.03 741.61 143.64 737.62 147.19 735.97 149.55 734.62 150.77 733.46 151.22 730.01 152.55 724.67 155.73 721.83 157.88 719.45 159.77 717.07 162.26 716.57 163.13 716.45 163.33 716.34 163.94 714.07 164.52 713.04 164.89 711.54 165.72 709.77 167.62 708.89 169.64 707.69 171.97 706.92 175.09 707.07 175.79 707.07 175.8 706.35 176.26 705.16 176.87 704.39 177.21 703.81 178.28 703.35 180.18 702.92 182.87 703.08 183.98 702.92 184.47 698.99 198.73 698.73 199.67 698.31 201.08 697.5 201.97 695.5 203.25 693.08 204.72 691.09 205.82 689.17 206.65 688.21 207.08 686.71 207.94 685.48 208.92 684.36 210.02 683.4 211.58 679.99 212.9 677.37 213.94 675.65 214.8 671.96 216.94 669.81 218.53 665.04 222.58 663.28 224.02 660.21 225.85 651.64 229.83 637.05 236.82 618.81 244.38 617.78 245.39 611.67 248.97 594.35 257.42 583.18 261.4 579.36 263.06 557.53 272.52 549.22 275.78 524.63 285.44 494.48 301 469.37 314.35 458.78 321.03 455.44 323.7 452.02 325.94 444.84 330.38 438.7 336.6 420.37 352.05 409.48 362.92 404.37 367.63 402.57 369.1 400.07 371.34 395.43 375.78 392.78 378.39 390.43 380.04 387.63 382.03 385.52 383.29 382.14 385.28 380.72 386.2 380.15 386.72 379.22 387.73 378.03 389.27 375.73 392.11 373.81 395.49 371.97 396.96 361.18 403.64 354.54 408.48 349.97 410.96 347.9 412 346.63 412.4 344.64 412.73 342.06 413.01 328.86 414.66 325.94 415 322.45 415 306.98 412.73 302.57 411.93 267.03 406.29 262.46 405.49 222.97 399.05 222.12 398.95 220.39 399.17 200.36 403.43 187.66 406.22 186.16 406.46 185.31 406.55 184.54 406.43 183.89 406.19 182.32 404.28 182.31 404.28 181.36 404.04 180.25 404.16 179.67 404.81 178.6 406.21 177.45 407.19 174.68 408.33 171.46 409.46 168.46 410.32 166.89 410.44 165.89 410.2 151.73 400.24 150.34 399.38 145.78 397.11 140.87 394.87 134.8 392.48 132.38 391.69 131.04 391.01 129.81 390.21 126.66 388.65 124.59 388.15 124.05 388.04 122.52 387.33 121.48 386.94 120.52 386.6 118.99 386.01 117.87 385.56 116.76 384.91 115.46 384.08 113.04 382.77 111.16 381.69 108.97 380.59 106.63 379.4 103.9 378.11 99.87 376.58 96.45 375.29 92.46 373.85 88.7 372.65 84.44 371.24 80.68 369.86 77.84 368.88 75.61 368.3 72.88 367.54 69.24 366.37 67.47 365.85 63.48 364.41 58.84 362.78 53.96 360.86 52.39 360.36 51.05 360.18 50.24 359.9 48.82 359.2 45.09 357.85 40.14 355.71 36.65 354.23 34.96 353.56 33.73 353.35 32.77 353.22 31.08 352.77 28.8 352.07 18.95 349.55 15.65 348.51 14.5 347.47 13.12 344.95 10.59 337.96 10.44 336.98 12.74 333.61 12.82 332.2 12.28 331.16 11.52 330.24 4.3 328.89 2.23 328.33 1 327.72 1.46 326.99 1.85 325.21 2.54 323.8 4.38 322.21 7.15 320.31 10.53 318.71 12.89 317.94 18.36 316.14 21.74 315.29 27.65 314.43 33.18 313.15 38.71 310.64 41.4 309.84 50.69 308.31 52.84 306.97 55.38 304.94 59.49 300.19 61.37 298.02 62.83 296.92 63.67 296.92 64.44 297.96 64.29 299.37 64.2 304.09 64.97 304.34 66.74 303.48 68.89 302.13 69.73 301.03 69.81 300.29 69.51 297.41 69.05 295.39 69.13 294.68 69.2 294.1 69.82 293.3 72.27 292.39 75.27 291.53 80.19 289.33 82.18 289.14 83.18 289.69 83.41 290.25 83.72 291.78 83.87 293.25 82.18 297.78 82.48 299.38 82.94 300.36 84.55 300.55 90.47 300.36 92.16 300.73 92.77 301.53 92.69 304.59 94.38 307.41 97.06 312.01 97.6 313.42 98.52 314.53 99.44 315.26 100.74 315.51 101.51 314.9 101.43 314.22 100.82 312.57 98.75 309.62 96.83 307.84 95.6 305.88 95.46 302.33 96.23 297.98 95.84 295.65 95.69 292.95 92.78 287 92.71 281.06 94.94 276.4 95.24 275.66 96.09 274.38 96.3 274.23 97.17 273.64 98.32 273.7 98.55 274.2 98.7 275.73 99.47 276.1 101.31 275.48 102.23 275.79 104.23 276.77 108.45 279.78 109.98 280.7 112.59 280.45 114.51 279.84 115.59 279.84 119.81 283.77 120.81 285.91 121.03 287.75 121.57 288.98 122.41 289.78 123.79 290.94 124.56 291.19 126.01 290.36 128.35 290.03 131.34 289.45 134.11 288.4 136.91 286.44 139.14 285 140.1 283.04 141.94 281.51 145.24 278.01 146.85 275.35 148.66 272.28 149.92 270.23 151.54 267.87 152.73 266.92 153.99 266.25 154.3 266.28 155.18 266.4 156.45 268.21 160.21 272.9 161.78 274.52 164.36 277.31 165.97 279.03 168.62 280.22 171.84 281.51 174.41 281.33 177.72 280.99 180.06 279.98 183.47 277.16 190.96 272.04 194.38 269.99 198.33 267.69 200.69 266.12 205.51 262.91 210 260.86 215.88 258.99 220.37 257.37 224.63 256.17 231.58 253.29 236.3 251.05 240.25 249 243.13 246.79 245.59 244.68 248.35 242.44 252 239.9 257.65 236.41 266.86 229.88 268.89 228.2 270.7 226.94 272.04 226.02 272.43 226.2 274.23 227 275.23 227.37 276.11 227.61 276.84 227.89 277.61 228.29 278.11 228.66 278.69 228.99 279.41 229.24 281.33 229.79 285.25 230.8 291.97 232.3 297.11 233.41 299.88 233.47 305.44 232.64 308.01 232.31 314.62 229.76 318.15 227.96 320.3 226.95 323.18 226.09 324.03 225.96 324.21 225.93 325.52 225.94 326.98 226.03 328.44 226.21 329.21 226.4 330.74 227.22 330.76 227.24 331.55 227.99 331.85 228.73 332.35 229.43 333.16 230.04 334.31 230.41 336.42 231.21 340.61 232.22 342.72 232.31 345.64 231.89 350.09 231.55 353.97 231.21 358.34 231.03 363.45 231.64 367.1 232.75 369.25 233.7 373.93 234.37 378.11 234.47 380.68 233.95 383.03 232.57 384.64 231.46 386.75 230.18 388.07 229.63 388.59 229.41 390.17 229.35 394.47 230.12 397.35 230.18 399.69 229.69 402.03 228.5 404.49 226.35 406.33 224.57 409.94 221.85 411.36 220.56 412.78 219.88 414.24 219.18 415.93 219.28 420.31 219.18 422.81 218.51 424.29 218.33 427.72 217.93 433.17 216.83 437.86 215.54 440.12 214.44 441.75 213.87 442.58 213.58 444.5 213.31 447.8 213.68 452.6 213.49 456.44 213.68 459.35 213.15 461.04 212.05 461.7 211.53 462 211.29 464.27 211.1 468.42 209.66 471.3 208.28 473.25 206.51 475.6 203.35 477.4 200.72 480.51 197.9 484.12 194.99 485.96 192.85 486.6 192.01 486.9 191.62 486.93 191.59 488.61 190.64 490.23 190.21 495.26 185.86 497.95 183.22 500.41 180.93 501.67 179.3 502.21 178.02 503.06 177.01 506.48 174.85 513.43 170.45 517.5 167.97 519 167.02 523.06 166.1 527.44 164.14 530.13 163.01 541.12 154.83 542.96 153.48 544.22 152.96 546.45 152.44 554.17 151.52 556.82 151.19 560.7 150.15 566.15 147.7 569.45 146.07 569.9 145.71 570.84 144.94 571.79 144.45 573.29 144.27 574.91 144.61 576.83 145.13 578.09 145.47 579.82 145.56 582.58 145.47 583.54 145.31 584.73 145.04 594.14 141.21 598.1 139.16 602.28 136.86 606.24 134.57 608.35 133.8 609.43 133.56 609.96 133.46 618.53 131.08 620.76 130.13 621.63 129.65 622.6 129.12 624.1 128.44 625.06 128.5 627.82 129.64 628.89 130.13 630.51 130.9 633.04 130.81 636.15 129.89 640.42 127.84 644.06 125.36 646.64 122.69 648.79 119.9 649.31 118.25 649.33 118.18 650.29 116.5 653.48 114.11 657.74 111.72 660.66 109.09 664.39 105.26 667.38 102.59 670.26 99.53 671.88 97.48 673.68 96.22 674.31 95.8 676.37 94.42 679.25 92.3 681.71 90.5 685.36 87 687.28 84.95 688.13 83.33 692.51 78.06 696.35 73.86 701.81 67.64 707.07 62.04 711.68 57.41 714.03 55.12 714.94 54.26 715.41 53.83 718.6 52.82 721.4 51.71 723.02 50.86 726.2 48.71 729.97 46.36 730.93 45.07 732.43 43.44 732.72 43.21 733.27 42.77 736.69 41.73 743.34 39.44 744.35 38.78 745.33 38.15 749.41 35.7 753.48 32.36 755.28 30.92 756.59 30.5 758.7 30.07 763.54 28.63 768.34 26.58 772.41 24.44 776.99 21.46 780.83 17.75 780.94 17.63 784.4 14.05 788.25 8.32 789.32 7.07 791.55 5.93 793.35 4.59 794.66 3.48 795.2 2.44 795.35 1.96 795.51 1.43 795.93 1 796.47 1.43 797.39 2.26 798.58 4.04 799 6.06 797.5 10.23 795.58 13.66 793.34 17 791.7 20.31 790.65 23.16 789.31 26.01 789.25 26.39 788.88 28.73 789.04 31.13 789.61 33.73 790.65 35.75 791.1 37.16 791.41 38.48 791.41 39.18 790.76 40.36 790.49 40.84 789.6 43.23 788.87 45.59 788.72 47.73 788.1 50.83 787.52 53.28 787.37 54.84 787.46 55.96 787.52 56.74 787.67 57.57 786.48 59.59 785.44 60.91 784.98 62.69 784.25 64.96 783.33 66.24 782.14 67.56 780.67 69.83 779.18 72.31 777.37 74.91 777.1 76.35 777.21 78.47 777.36 80.6 777.37 80.73 776.48 82.88 774.56 84.99 771.87 87.26 768.87 90.35 766.64 93.54 764.41 96.76 763.07 99.02 762.49 101.02 762.18 103.28 761.3 104.82 759.95 106.5 758.92 108.03 758.15 110.05 758.14 111.71 757.87 112.78 756.37 116.09 755.91 118.36 755.34 120.13 754.14 122.62 753.26 124.52 751.57 127.42 751.45 127.61 Z"/>
</g>
</svg>