<?xml version="1.0"?>
<svg xmlns="http://www.w3.org/2000/svg" version="1.2" baseProfile="tiny" width="800" height="1665" viewBox="0 0 800 1665" stroke-linecap="round" stroke-linejoin="round">
<g id="lakepiru">
<path d="M 160.86 1487.44 160.86 1484.19 160.86 1479.63 160.86 1475.07 160.86 1471.82 160.86 1467.91 162.16 1462.71 162.81 1458.8 163.46 1454.9 165.42 1450.99 168.67 1449.04 170.62 1444.48 170.62 1443.56 170.62 1441.23 170.62 1436.67 170.62 1432.99 170.62 1428.78 170.62 1427.95 169.84 1423.65 168.67 1420.53 166.72 1418.19 166.44 1413.95 166.33 1412.33 167.11 1400.22 164.77 1397.49 163.98 1395.54 163.98 1393.58 165.27 1391.65 165.55 1391.24 154.5 1390.3 154.5 1386.34 159.3 1383.42 167.23 1379.66 172.45 1374.13 173.91 1369.03 178.93 1363.91 187.06 1354.93 193.32 1350.34 201.88 1348.77 211.48 1347 217.74 1343.87 224.41 1339.38 233.37 1338.39 231.55 1333.83 230.77 1331.88 229.2 1330.32 228.98 1330.23 224.91 1328.62 214.49 1325.37 204.08 1324.72 194.32 1320.81 189.11 1320.16 180.65 1320.16 168.28 1317.56 154.61 1312.51 148.1 1309.26 141.59 1306 137.04 1302.75 129.88 1297.54 125.32 1293.64 122.07 1287.78 115.56 1285.18 116.21 1282.57 114.26 1275.41 114.91 1268.9 115.56 1266.66 117.12 1263.14 116.21 1256.54 115.56 1255.23 117.51 1253.28 119.46 1246.77 118.81 1242.22 116.86 1238.96 113.61 1235.06 110.35 1232.45 109.77 1232.2 104.49 1229.85 98.63 1229.85 88.22 1227.9 82.36 1227.25 81.06 1226.38 80.41 1225.94 80.1 1224.53 79.11 1220.09 75.2 1220.09 73.76 1220.45 70.2 1221.34 70 1221.39 70 1221.48 70 1222.69 60.23 1227.25 53.07 1229.2 43.31 1234.41 36.8 1237.66 30.94 1238.31 25.03 1236.86 17.92 1233.1 15.97 1227.25 17.92 1224.64 18.57 1222.69 21.83 1219.44 25.73 1213.58 24.43 1209.02 22.48 1207.07 18.57 1206.42 16.62 1204.47 14.02 1203.81 10.76 1201.86 7.51 1201.86 4.25 1201.86 2.3 1201.21 1.37 1199.35 1 1198.61 3.6 1197.31 7.51 1197.31 10.76 1197.31 15.32 1199.26 16.03 1200.21 17.27 1201.86 19.88 1204.47 23.13 1205.12 27.04 1203.16 30.94 1203.81 31.59 1206.42 31.59 1210.97 31.59 1214.88 32.24 1218.13 35.5 1220.74 40.05 1219.44 42.01 1218.13 43.31 1214.88 43.31 1208.37 43.31 1203.81 41.62 1201.71 40.7 1200.56 40.7 1196.65 44.61 1192.75 48.52 1190.15 54.37 1187.54 58.28 1185.59 62.84 1183.64 69.34 1181.03 70 1178.43 66.74 1173.87 63.49 1173.87 62.18 1169.32 68.69 1168.67 73.9 1169.32 78.46 1169.32 83.66 1169.97 91.47 1169.97 98.63 1171.27 103.84 1172.57 107.98 1173.7 111 1174.52 117.15 1177.42 122.07 1179.73 126.62 1179.08 129.88 1173.22 129.88 1168.02 129.3 1165.9 127.93 1160.86 127.93 1158.54 127.93 1155.65 127.93 1151.74 130.53 1147.84 132.48 1146.54 136.39 1140.68 136.39 1134.82 137.04 1130.26 139.64 1126.36 140.29 1121.15 134.43 1111.39 130.71 1104.41 129.23 1101.62 125.32 1095.77 123.37 1093.81 110.56 1090.9 109.05 1090.56 105.79 1089.26 104.5 1087.1 103.84 1086 106.45 1084.7 109.05 1083.4 114.26 1081.45 122.07 1080.8 131.83 1080.14 134.43 1078.19 137.04 1075.59 137.04 1071.68 135.74 1069.73 133.78 1067.13 133.13 1063.87 134.43 1059.32 135.74 1056.06 138.34 1048.9 139.64 1043.69 140.29 1038.49 142.24 1031.98 143.24 1028.01 143.55 1026.77 145.5 1022.87 149.4 1020.26 155.26 1015.71 157.22 1011.8 161.12 1007.24 164.38 1003.34 170.23 1001.39 176.09 999.43 180 996.18 180 993.58 175.44 990.97 170.23 989.67 166.33 989.02 166.33 985.11 166.98 982.51 170.88 979.26 173.49 977.95 176.74 977.95 176.52 976.83 176.09 974.7 175.44 969.49 174.14 963.63 174.14 960.38 170.88 955.82 159.22 962.19 144.93 969.99 141.02 966.54 137.46 964.94 134.01 962.29 133.11 960.37 133.09 960.34 133.44 956.55 135.16 951.61 137.34 949.08 140.33 946.21 144.01 943.23 147.86 938.74 150.74 939.95 158.88 940.57 165.77 939.32 172.86 935.25 174.74 931.08 174.75 925.35 171.19 922.53 168.06 919.82 167.03 915.74 170.57 906.24 175.16 893.62 179.54 890.7 184.77 890.6 190.4 890.08 192.7 886.01 192.49 880.48 188.73 875.88 186.86 872.54 186.23 868.79 187.28 864.09 189.56 860.02 191.66 853.76 190.4 849.17 189.56 845.51 189.77 842.07 191.45 837.6 195.41 833.51 198.53 828.09 195.83 824.44 191.24 821.83 187.5 818.45 186.85 817.87 184.77 814.43 186.23 810.66 189.99 807.96 197.92 803.36 207.51 798.15 216.07 795.02 219 790.84 221.71 784.58 225.67 780.93 231.93 777.59 234.02 774.35 234.02 771.44 234.44 768.52 235.9 764.86 236.73 762.87 239.03 758.19 240.7 753.6 243.82 747.76 247.8 741.79 251.76 735.96 253.85 729.07 257.81 722.6 259.07 719.27 258.65 715.51 254.76 711.24 250.33 710.07 247.41 708.9 245.42 708.55 245.44 708.52 246.13 707.26 250.51 703.82 255.72 699.23 259.07 695.88 261.36 688.89 262.2 678.88 262.19 670.85 261.36 660.3 256.51 651.13 253.24 637.47 253.21 631.35 253.19 626.8 250.79 616.46 249.39 603.98 247.88 601.76 246.75 599.05 246.75 596.34 246.75 593.21 246.13 589.67 245.09 587.05 243.83 584.45 242.36 582.05 241.74 579.96 239.47 578.42 237.84 576.78 235.62 576.31 233.29 577.01 231.3 578.42 229.67 578.88 228.38 578.18 227.8 577.48 227.62 576.67 227.57 576.43 226.98 575.03 226.87 573.05 227.45 570.24 228.97 567.56 230.83 565.46 230.26 562.95 226.72 560.44 223.59 557.21 220.87 554.29 218.99 551.89 216.28 549.5 215.65 548.44 212.1 543.24 208.56 538.43 205.79 535.74 205.01 534.98 202.29 532.06 200.62 530.82 197.91 528.52 198.33 525.49 199.79 522.68 202.71 520.06 202.92 516.73 202.3 512.56 201.25 507.03 200.2 502.02 199.37 499.19 198.54 497.22 197.7 494.71 196.66 493.36 196.24 492.31 197.5 491.57 199.37 490.64 201.88 489.38 203.34 487.93 203.34 486.68 203.33 485.32 201.88 482.92 201.05 480.83 199.79 478.96 199.17 477.38 197.49 475.62 196.03 474.16 194.99 473.22 194.07 471.97 191.85 471.97 188.47 473.6 184.5 475.47 180.41 475.82 177.61 474.42 174.81 474.19 172.77 472.24 170.14 471.97 167.69 472.44 165.35 472.58 165.78 469.25 165.77 466.85 166.6 463.52 169.32 459.44 170.99 457.76 173.29 456.84 176.42 454.85 178.51 452.14 178.92 449.53 177.66 447.65 176.41 445.57 174.54 443.16 172.45 440.87 171.62 439.83 170.36 438.37 168.91 436.07 166.61 434.81 164.31 432.52 160.57 431.7 156.6 432.52 153.8 434.74 151.35 437.07 152.17 439.29 151.23 440.81 148.55 438.94 146.36 437.43 144.7 436.07 141.14 432.73 137.59 428.97 134.05 427.4 131.54 426.36 129.24 423.87 125.28 418.22 121.94 413.95 120.27 411.56 116.1 406.13 113.42 402.64 110.73 399.37 109.92 395.87 108.4 392.72 105.6 390.15 102.56 387.23 99.88 383.15 96.96 379.3 96.69 374.19 95.85 370.44 95.43 366.27 95.02 362.71 95.02 360.42 95.02 355.73 95.86 353.33 98.15 349.57 100.03 346.13 101.49 343.2 103.37 340.49 106.08 338.82 110.25 336.63 113.18 335.8 117.35 332.76 120.27 330.47 123.61 328.17 125.7 327.03 128 324.21 129.25 321.4 131.13 318.89 134.05 318.15 137.18 317.32 139.69 315.44 141.15 313.98 143.44 311.27 146.57 312.21 149.5 313.88 152.63 315.04 157.01 316.39 159.31 317.33 163.26 317.73 167.24 318.37 171.2 317.42 176 315.02 180.8 312.52 183.51 310.43 186.85 309.18 191.24 308.34 194.99 306.67 197.5 305.11 200.21 304.07 202.92 304.39 204.8 307.41 207.72 310.96 210.65 314.4 212.94 315.45 214.19 315.23 215.65 313.88 217.74 312.11 218.78 309.49 218.58 307.31 215.65 299.16 215.66 294.68 215.45 291.33 215.03 289.26 215.03 287.16 215.65 285.09 217.12 283.42 218.16 282.15 218.16 281.23 216.49 280.5 214.2 279.98 210.86 278.93 208.98 278.51 207.1 277.37 206.26 275.37 205.84 273.19 204.17 271.83 202.09 270.89 199.79 269.95 198.33 267.55 197.92 265.26 199.37 263.59 203.34 263.07 207.31 264.52 210.65 266.2 213.57 267.76 216.07 269.53 217.74 269.64 219.41 268.91 220.67 267.14 222.96 264.22 221.7 261.4 220.46 257.95 217.95 253.56 215.65 249.71 213.56 246.36 212.11 242.1 207.72 238.23 205.01 234.99 201.88 231.35 199.59 229.05 196.88 226.22 193.95 223.52 190.61 221.43 187.48 219.24 185.6 215.38 184.56 210.68 183.93 205.57 183.72 201.09 182.89 196.6 181.22 193.57 179.01 190.74 177.38 187.32 177.06 181.46 176.41 175.44 175.27 172.67 174.13 169.91 173.8 166.65 174.29 164.54 172.99 162.26 172.01 160.47 171.69 158.03 170.71 154.94 168.43 152.82 166.32 151.52 164.69 147.45 165.83 143.55 167.78 139.8 168.25 137.63 169.08 133.78 171.62 127.31 172.03 120.83 172.25 114.48 179.01 99.29 185.03 74.39 190.56 42.33 192.84 19.71 195.77 1.49 201.95 1 205.21 2.95 207.65 4.25 207 18.74 207.65 31.43 206.35 37.29 205.53 43.31 204.72 59.58 205.05 63.65 204.05 66.17 203.76 66.9 203.34 69.41 202.93 72.63 201.88 77.01 200.42 80.98 199.37 85.68 197.91 90.48 196.04 95.27 195.2 98.09 193.95 105.2 193.32 108.32 191.87 114.09 190.73 121.25 189.26 127.92 189.75 135.9 191.05 141.11 193.54 147.35 195.93 154.61 199.35 159.66 202.12 164.37 204.72 173.16 207.49 179.51 210.09 185.2 212.21 189.92 214.32 195.62 216.92 202.45 220.34 207.17 224.74 210.59 229.13 216.93 233.03 220.35 235.31 222.3 237.27 222.63 239.24 220.7 239.66 216.2 240.28 212.98 241.54 208.59 242.58 204.83 242.79 201.39 243.62 197.85 243.63 192.74 243.41 188.45 244.25 185.43 245.09 181.99 245.09 176.56 243.62 171.25 243.41 167.27 245.29 166.14 247.8 166.86 249.88 168.63 251.76 170.62 251.77 172.4 254.06 176.35 256.14 180.42 259.27 185.43 260.32 187.83 260.11 189.92 259.69 193.37 259.69 197.11 259.69 202.01 258.45 206.61 255.94 209.96 253.01 212.98 252.39 219.34 251.55 222.99 251.76 226.44 253.02 228.01 256.14 228.21 259.69 226.86 264.07 225.4 267.84 222.89 271.39 219.87 273.68 218.92 277.23 218.61 280.77 218.82 283.28 218.71 291.62 217.88 292.67 218.93 291.62 222.06 289.54 225.08 287.24 225.8 283.07 226.76 279.31 227.89 275.35 230.2 272.43 233.02 271.59 235 266.37 244.91 264.91 246.69 263.45 248.25 256.77 248.87 255.1 249.08 253.01 249.08 250.51 249.08 248.01 249.92 246.97 250.65 246.96 251.37 247.8 253.06 249.04 254.83 251.76 257.85 254.06 260.57 255.52 262.44 256.98 267.66 259.7 272.46 262.61 277.04 264.08 279.03 266.58 280.7 269.09 280.8 270.13 280.39 272.01 279.35 272.84 276 274.09 272.87 275.35 268.49 276.39 264.62 276.81 261.29 278.48 256.18 278.9 252.21 279.73 250.02 281.39 247.83 283.69 245.32 287.24 243.24 290.16 242.3 292.25 243.44 294.54 244.18 297.47 244.91 301.01 245.95 303.1 247.31 302.47 250.85 300.81 254.4 299.55 257.63 298.1 260.98 296.43 264.43 293.71 269.01 292.04 271.72 289.95 274.96 288.07 279.02 285.99 282.67 282.23 287.06 279.94 289.78 276.39 293.02 274.1 296.46 271.38 299.69 268.46 302.61 267.41 304.91 266.16 308.66 261.99 311.37 259.69 313.78 257.81 314.62 256.76 315.87 252.6 315.23 248.21 315.54 245.29 315.66 243.83 318.26 240.7 321.4 237.98 323.69 234.44 325.99 229.43 330.58 224.42 335.28 220.66 338.4 216.49 341.52 212.94 344.97 210.02 348.11 208.98 349.14 206.68 351.13 206.26 352.17 205.84 353.53 207.09 355.52 208.97 357.28 211.9 359.38 213.36 360.62 216.07 362.29 217.12 363.55 216.07 366.78 216.49 369.18 221.29 373.04 225.05 375.96 227.35 378.58 230.26 383.58 233.18 387.02 235.9 390.99 237.98 394.34 240.7 398.09 242.58 401.84 245.08 407.17 248.21 412.49 252.18 417.59 255.93 420.73 258.44 422.09 259.07 425.22 259.07 427.72 261.36 430.84 264.91 433.88 268.04 436.7 268.88 437.85 270.13 441.29 271.59 445.14 272.84 447.85 275.76 449.95 278.68 452.66 280.56 454.54 282.23 458.82 282.85 461.52 284.32 466.02 285.99 470.29 289.12 471.85 295.18 473.11 297.88 474.89 296.43 476.45 295.18 478.53 293.92 482.19 295.18 487 296.64 492.63 298.72 496.69 300.18 503.15 301.65 510.99 301.85 517.25 302.48 522.67 303.31 529.14 304.15 534.05 305.4 542.6 306.03 546.77 306.24 549.91 307.49 552.3 309.78 553.98 312.92 555.12 312.5 557.01 311.87 557.83 310.62 559.3 309.79 560.45 308.74 562.01 309.78 564.61 311.03 567.54 311.87 570.68 311.45 573.7 311.87 575.58 311.87 576.83 312.91 578.18 315.42 579.33 317.71 580.49 318.96 582.56 320.22 585.08 320.42 586.43 320.42 588.73 320.43 591.33 321.26 594.16 323.56 595.3 324.6 596.23 322.93 598.53 322.51 600.1 322.51 603.13 321.88 603.75 322.1 604.8 322.93 606.47 323.76 609.6 326.27 612.41 332.11 615.12 335.25 617.73 334 621.07 330.18 619.84 326.6 618.05 322.53 618.54 319.77 621.63 318.3 626.84 318.46 637.41 317.49 644.25 317.33 650.1 313.09 658.57 313.42 665.56 316.51 678.58 313.58 686.39 314.56 707.22 314.72 721.21 318.3 733.42 319.93 748.72 312.28 756.04 312.61 760.11 321.56 766.61 326.11 772.96 330.66 781.13 333.37 788.23 336.28 794.71 340.47 799.61 345.48 805.36 350.69 810.15 357.36 817.87 364.67 824.96 366.44 831.31 365.57 834.03 364.96 835.93 364.96 837.88 366.92 841 367.08 841.6 369.26 849.59 370.43 858.97 373.17 866.78 375.12 869.9 379.41 874.59 383.32 876.15 386.44 877.71 388.01 880.06 389.57 882.79 397.4 885.53 400.65 886.18 403.91 890.08 407.16 895.94 413.67 901.8 421.98 905.44 426.28 908.56 429.79 911.3 429.5 912.62 429.01 914.81 426.67 918.33 423.15 921.84 422.76 926.92 423.15 932.39 425.5 933.95 427.84 936.68 429.21 936.87 433.7 937.46 448.93 939.81 452.05 939.03 458.3 936.68 461.43 933.56 463.47 934.57 467.44 936.53 472.25 938.9 476.16 944.76 482.66 944.76 488.52 944.11 498.29 944.11 517.81 939.55 524.32 940.2 530.18 940.2 534.74 941.5 541.24 947.36 541.7 951.49 541.9 953.22 541.24 958.43 538.64 962.33 533.43 964.29 524.97 967.54 516.51 970.14 508.05 971.44 493.73 976 482.66 977.95 469 979.26 458.58 979.26 445.56 977.95 441.66 977.95 434.5 979.26 433.85 981.86 435.8 985.11 437.75 988.37 444.26 992.92 445.56 998.13 448.82 1003.99 453.37 1010.5 459.23 1011.8 463.14 1016.36 461.86 1020.82 461.84 1020.91 459.44 1024.27 458.58 1025.47 460.53 1029.37 465.74 1034.58 469.65 1037.19 472.9 1043.69 472.25 1048.25 470.95 1051.5 467.69 1056.06 469.65 1061.92 474.85 1063.22 482.01 1067.78 483.31 1071.68 486.57 1075.59 491.78 1078.19 499.59 1077.54 505.45 1075.59 511.3 1073.64 512.21 1073.64 513.91 1073.64 515.86 1076.89 513.91 1078.84 511.3 1082.75 504.14 1086 498.29 1087.3 488.52 1089.91 480.71 1091.86 476.81 1095.11 476.16 1100.97 476.16 1103.17 476.16 1104.22 476.16 1106.18 479.41 1112.04 484.62 1112.04 489.17 1111.39 493.73 1111.39 498.94 1112.69 509.35 1114.64 516.51 1117.25 523.67 1118.55 530.18 1119.2 536.69 1119.2 541.9 1118.55 547.1 1113.34 549.71 1111.39 556.22 1110.74 563.38 1110.09 565.98 1112.69 565.98 1115.85 565.98 1117.9 564.03 1120.5 554.91 1121.8 551.66 1125.06 547.1 1128.31 537.99 1132.22 531.48 1132.87 518.46 1136.12 512.61 1136.77 506.1 1136.77 501.54 1136.77 496.33 1137.42 490.47 1137.42 485.27 1138.07 478.11 1140.68 473.55 1141.33 469.65 1143.28 465.09 1147.84 465.09 1155 465.63 1163.92 459.88 1167.36 451.42 1173.87 446.86 1179.08 439.7 1180.38 435.8 1180.38 428.64 1179.08 424.73 1177.13 417.57 1177.78 414.32 1180.38 414.32 1183.64 415.62 1187.54 419.53 1190.15 425.39 1189.49 431.24 1189.49 436.45 1192.1 442.31 1193.4 446.86 1193.4 454.02 1197.31 461.18 1197.31 470.3 1201.21 480.06 1201.86 487.22 1200.56 488.52 1205.12 487.87 1209.67 492.43 1212.28 495.68 1212.28 500.24 1213.58 502.19 1218.78 506.75 1218.13 511.95 1215.53 513.91 1216.83 513.91 1220.74 512.61 1223.34 514.56 1226.6 521.07 1226.6 527.58 1222.04 523.02 1225.94 521.07 1230.5 519.77 1235.06 521.07 1238.96 524.32 1243.52 530.18 1246.12 530.18 1246.91 530.18 1249.38 527.58 1251.33 526.9 1251.33 524.32 1251.33 519.77 1251.33 517.16 1250.68 511.3 1248.73 507.4 1248.73 503.49 1250.68 498.94 1253.28 495.68 1256.54 492.43 1259.79 490.47 1263.7 489.17 1265.65 484.62 1266.95 481.36 1265.65 478.11 1266.3 474.85 1268.25 474.2 1270.86 475.5 1276.71 479.41 1279.97 480.71 1285.83 484.62 1296.89 485.92 1304.05 487.87 1308.61 489.82 1311.86 493.08 1315.12 492.43 1317.07 492.43 1319.67 494.38 1322.93 496.33 1324.88 498.29 1330.74 500.89 1333.99 503.49 1337.25 505.49 1345.26 506.1 1348.31 509.09 1355.3 510 1357.43 511.82 1358.64 515.86 1361.33 520.42 1360.68 521.72 1358.73 526.27 1352.22 531.48 1350.27 534.74 1353.52 537.34 1355.47 541.9 1354.17 543.12 1349.2 546.45 1348.26 546.45 1355.47 547.75 1361.98 550.36 1365.89 554.26 1364.59 558.17 1363.28 564.68 1362.63 567.28 1363.28 570.54 1363.28 576.39 1363.93 585.51 1365.24 592.01 1367.84 601.13 1373.05 608.94 1376.95 616.1 1378.25 620.65 1381.51 628.46 1386.72 635.62 1390.62 638.88 1389.97 642.13 1386.06 647.99 1376.95 649.71 1373.52 650.6 1371.75 653.2 1380.86 655.8 1386.72 658.41 1388.67 664.26 1388.67 672.73 1388.02 683.79 1385.41 690.95 1378.25 691.26 1378.76 694.21 1383.46 699.3 1389.28 703.32 1393.88 709.18 1394.53 712.43 1391.92 715.03 1386.06 717.64 1384.11 720.24 1378.25 721.54 1375.65 724.15 1372.4 731.96 1366.54 736.51 1361.98 741.72 1358.08 742.6 1358.08 744.32 1358.08 748.88 1359.38 752.14 1360.03 755.39 1358.73 757.34 1354.17 759.95 1352.87 763.2 1352.87 765.8 1354.17 767.11 1350.27 769.06 1344.41 776.87 1337.9 776.87 1349.61 777.52 1350.92 782.08 1345.71 788.59 1340.5 792.49 1337.25 793.79 1332.69 794.44 1326.83 797.7 1327.48 798.35 1331.39 798.96 1335.05 799 1335.29 797.7 1339.85 792.49 1341.15 788.59 1344.41 785.33 1348.31 784.03 1354.82 786.67 1356.94 787.28 1357.43 778.24 1365.56 777.59 1372.72 777.59 1378.58 774.98 1387.04 771.73 1390.3 764.57 1393.55 757.41 1396.15 750.25 1399.41 746.34 1403.31 743.74 1407.87 744.39 1411.78 743.09 1417.63 742.41 1418.65 740.48 1421.54 735.93 1427.4 726.16 1426.75 717.05 1423.49 707.94 1427.4 700.13 1427.4 699.48 1426.75 694.92 1426.75 689.71 1427.4 681.9 1430 677.35 1433.25 672.79 1435.21 671.67 1434.08 670.19 1432.6 666.28 1430.65 659.12 1430.65 653.92 1431.95 642.85 1432.6 620.72 1437.81 609 1439.76 597.29 1435.86 590.78 1435.86 586.22 1435.86 581.01 1435.86 577.76 1434.56 575.16 1433.25 570.6 1430.65 564.09 1428.05 560.19 1426.09 553.03 1426.09 547.82 1426.09 542.61 1426.09 536.1 1426.75 531.55 1428.05 525.69 1429.35 519.18 1429.35 515.27 1426.09 510.72 1424.14 506.81 1422.84 502.91 1422.19 500.95 1422.84 500.58 1423.31 498.35 1426.09 500.95 1433.25 502.26 1437.81 499.65 1440.41 495.1 1436.51 491.84 1433.91 485.33 1431.3 478.82 1429.35 476.22 1426.09 471.01 1423.49 466.46 1423.49 459.95 1426.09 454.74 1432.6 444.62 1441.32 435.76 1448.09 431.08 1452.78 427.43 1456.94 426.79 1457.58 424.31 1460.07 420.14 1463.71 419.01 1464.06 413.37 1465.79 410.77 1467.36 411.81 1470.48 417.64 1474.91 422.63 1477.41 422.85 1477.52 422.88 1477.72 423.5 1481.42 420.14 1480.9 414.93 1480.9 412.33 1483.5 410.77 1485.06 409.73 1487.66 409.73 1490.27 411.78 1494.4 414.38 1499.65 418.94 1503.55 417.64 1506.81 412.43 1506.15 409.18 1505.5 405.92 1506.15 405.92 1512.01 407.22 1519.17 409.83 1525.03 408.69 1527.24 405.56 1529.84 401.4 1534.01 398.79 1536.09 396.71 1538.69 393.59 1543.9 391.5 1548.07 389.42 1550.67 387.05 1556.27 383.79 1562.78 379.53 1571.5 380.05 1575.67 383.69 1577.75 386.82 1579.83 388.9 1582.96 394.32 1583.23 399.53 1582.71 407.88 1584.26 410.46 1584.53 415.15 1583.23 416.71 1583.75 418.83 1585.87 420.61 1587.66 421.66 1589.48 423.74 1591.04 423.82 1591.08 430.51 1594.43 437.95 1597.97 443.02 1599.23 444.98 1603.14 443.21 1605.78 442.37 1607.04 436.52 1608.35 431.96 1608.35 421.54 1608.35 415.04 1608.35 403.97 1609 398.11 1610.95 396.81 1614.2 396.81 1619.41 398.11 1625.92 401.37 1632.43 403.32 1638.94 401.37 1644.14 396.44 1645.82 374.7 1648.46 369.26 1650.02 364.67 1651.07 357.99 1653.05 352.36 1654.82 343.59 1656.6 337.96 1657.74 332.32 1658.58 327.73 1659.09 324.58 1659.39 323.34 1659.51 319.17 1660.36 314.78 1661.6 310.2 1662.97 305.82 1664 306.01 1656.67 304.71 1654.72 298.2 1654.07 296.25 1653.42 291.69 1652.12 288.44 1650.82 284.53 1647.56 281.28 1645.61 277.37 1644.31 274.12 1643.01 270.21 1641.05 267.61 1639.75 265 1636.5 265 1633.89 264.35 1629.34 259.8 1628.03 257 1627.48 256.54 1627.38 256.17 1626.06 255.24 1622.83 255.89 1619.57 257.19 1619.57 257.19 1615.02 254.59 1610.46 251.34 1610.46 248.73 1608.51 246.75 1606.1 248.08 1603.3 248.08 1600.05 248.08 1598.09 245.48 1595.49 244.18 1591.58 243.2 1588.19 242.87 1587.03 243.2 1586.37 244.83 1583.12 248.73 1581.82 251.34 1577.92 250.75 1577.8 248.08 1577.27 247.43 1574.66 255.24 1566.85 253.94 1562.95 250.68 1560.99 248.08 1559.69 245.48 1557.09 242.87 1554.48 239.62 1553.83 233.11 1553.83 230.51 1550.58 235.71 1549.28 238.32 1546.67 238.19 1542.65 236.31 1539.52 227.25 1535.61 217.32 1532.53 211.69 1530.13 204.47 1526.5 200.57 1523.24 197.96 1521.94 194.71 1519.99 190.15 1517.38 187.11 1516.47 183.64 1515.43 179.43 1514.02 163.76 1507.07 163.08 1506.77 152.84 1502.41 148.47 1500.55 147.78 1500.26 142.29 1498.61 141.27 1498.31 154.94 1490.5 160.86 1487.44 Z"/>
</g>
</svg>