<?xml version="1.0"?>
<svg xmlns="http://www.w3.org/2000/svg" version="1.2" baseProfile="tiny" width="800" height="632" viewBox="0 0 800 632" stroke-linecap="round" stroke-linejoin="round">
<g id="modestoreservoir">
<path d="M 198.75 5.1 204.25 6.99 216.34 4.74 223.34 2.99 230.01 1.66 232.77 4.21 228.96 5.72 227.09 8.83 229.13 10.79 229.49 13.9 237.56 18.99 240.5 21.36 242.55 24.2 245.21 26.16 243.61 27.4 246.23 28.22 246.72 29.53 243.52 29.36 243.7 30.69 242.72 31.13 241.66 29.8 239.78 27.87 234 29.21 232.51 31.79 233.56 34.09 234.53 35.63 236.45 37.34 239.76 38.62 243.49 38.19 243.17 41.17 245.73 43.84 249.24 43.41 253.1 43.87 256.07 46.83 258.03 47.4 260.44 48.11 263.76 50.09 254.88 49.64 250.44 50.53 253.54 52.75 250.31 53.22 247.96 52.16 245.73 53.22 242.85 54.18 246.88 56.31 248.22 58.08 243.77 58.97 241.14 60.15 241.55 62.08 238.44 68.75 233.36 74.34 229.74 81.48 230.45 94.52 230.01 95.4 230.45 106.07 230.45 115.84 230.89 123.84 230.89 130.5 227.34 137.17 223.42 140.71 222.64 143.63 220.94 144.98 217.57 146.05 212.18 146.61 207.49 150.16 204.43 150.73 201.59 152.22 197.47 154.71 196.83 157.06 197.19 158.48 192.57 162.53 187.37 164.27 182.74 165.91 180 168.5 178.62 170.17 178.44 171.16 179.04 174.15 177.6 175.82 172.68 178.26 172.71 180.71 169.68 184.71 170.89 189.47 171.46 193.74 170.96 196.86 173.66 201.2 178.93 202.92 180.13 205.11 182.34 210.91 181.36 216.07 178.61 219.8 175.23 223.35 171.38 223.36 167.77 223 167.41 226.2 168.57 229.04 169.28 231.17 170.61 232.77 172.48 232.77 175.31 232.32 176 231.3 177.28 230.83 178.61 231.46 179.68 232.48 181.33 232.9 182.66 233.06 184.1 233.97 186.18 237.7 187.94 241.59 189.27 243.89 191.93 245.7 193.05 247.73 193.91 247.62 195.13 248.9 196.68 250.28 198.03 250.9 199.56 252.04 199.93 252.95 199.72 254.5 198.81 255.03 198.17 256.2 198.17 257.75 198.22 259.13 199.82 260.73 203.36 262.01 204.99 263.27 204.06 264.69 205.04 266.73 206.5 267.58 208.55 268.29 210.14 268.73 210.63 268.33 210.99 267.27 211.3 266.51 212.68 266.24 217.43 264.87 220.14 264.78 223.2 264.47 227.64 264.24 230.22 265.27 230.45 266.45 231.32 269.26 229.17 271.67 228.16 272.7 228.05 272.82 227.93 273.1 226.79 275.65 226.5 278.76 226.85 281.49 227.26 282.32 227.83 283.45 229.12 284.97 232.56 286.55 235.45 287.36 235.62 287.37 237.79 287.49 238.57 287.54 242.02 287.45 248.74 287.23 253.14 287.01 258.74 285.71 261.77 284.17 264.47 281.62 265.73 278.88 266.57 275.94 265.41 269.87 265.31 267.58 265.29 265.28 264.58 262.37 263.23 258.67 262.59 255.54 264.01 253.55 265.25 252.41 267.17 251.13 268.41 249.49 269.07 248.64 270.34 246.48 271.39 246.01 271.53 243.88 270.68 243.16 269.98 241.57 269.09 234.91 269.53 231.35 270.82 227.74 269.4 224.61 267.48 222.27 263.08 214.66 260.34 208.02 259.44 204.29 259.33 201.14 258.42 198.74 258.05 196.08 256.21 193.59 252.01 187.12 250.23 185.38 252.1 181.74 251.03 180.32 250.01 179.96 248.72 179.03 248.72 177.43 249.66 175.52 249.97 174.41 248.81 173.3 247.57 171.75 250.19 172.99 251.21 173.79 253.39 173.34 256.63 171.97 258.81 171.66 259.92 172.06 259.96 173.3 259.07 174.32 256.81 176.01 255.3 176.85 255.25 177.61 255.79 177.7 256.76 177.74 257.78 178.05 260.89 177.46 263.76 178.04 267.82 177.43 268.89 178.5 272.64 178.48 277.97 178.48 280.19 181.59 279.81 185.3 276.2 188.26 274.22 190.62 274.86 191.9 277.63 194.6 279.84 194.24 282.11 193.6 286.52 193.82 294.26 192.97 299.95 189.55 306.56 190.05 310.75 189.34 316.58 189.34 321.05 188.13 323.47 188.13 321.94 190.04 320.16 191.37 314.39 194.92 310.96 197.51 307.05 197.09 304.18 195.37 300.02 197.73 299.88 201.64 301.87 203.7 304.99 205.69 305.92 206.61 305.51 208.7 303.71 212.58 304.64 215 308.12 216.42 309.68 218.91 313.73 220.76 316.08 222.75 317.78 225.81 318.53 227.38 318.62 228.85 319.51 231.16 321.37 231.96 323.01 233.33 323.9 234.84 324.79 236.13 325.86 237.46 327.23 239.29 328.3 239.77 329.63 240.31 330.7 241.86 331.9 242.44 333.01 243.53 333.5 244.57 333.5 245.28 332.7 249.19 333.01 250.17 334.38 251.28 336.39 251.87 338.07 251.86 339.99 251.66 342.4 250.39 342.69 250.32 345.64 248.97 348.5 246.93 352.21 244.76 355.23 244.14 357.8 244.94 360.47 246.72 363.22 249.12 367.36 250.19 370.41 251.31 372.09 251.56 374.25 251.17 375.69 250.9 380.62 250.41 388.8 248.99 393.77 248.99 392.35 250.76 389.15 254.32 387.31 256.01 385.39 258 385.18 261.13 385.6 264.62 386.85 267.45 387.02 267.82 387.48 268.05 389.85 269.24 389.86 269.25 389.87 269.25 401.23 272.09 404.22 273.57 404.36 272 405.49 269.96 408.34 268.89 412.25 269.25 416.86 270.67 419.71 271.38 423.97 271.02 431.43 269.96 437.83 268.89 442.09 269.96 443.87 268.89 447.42 265.69 449.55 262.14 451.68 259.29 452.75 257.52 454.36 253.29 455.78 250.18 455.95 248.49 458.62 247.25 460.57 245.79 463.05 245.08 465.9 242.59 466.25 239.03 466.25 235.48 465.9 232.28 465.19 230.15 466.25 227.66 467.67 225.53 467.32 223.75 467.32 221.26 467.32 218.77 469.09 217 470.16 215.93 471.23 213.44 472.32 213.36 475.84 213.09 477.62 215.22 479.75 216.64 482.95 215.93 485.79 215.58 490.77 215.22 496.45 215.93 500.72 217.35 503.1 221.75 502.53 224.09 499.76 226.3 498.58 227.66 500.05 228.71 503.96 228.15 507.11 228.02 512.09 226.95 515.28 224.82 517.26 223.94 518.48 223.4 519.87 223.4 520.97 223.4 524.52 223.4 528.07 224.46 533.76 223.04 540.15 218.77 543.35 216.64 547.62 215.93 553.66 214.51 556.66 213.12 561.03 213.44 561.95 213.47 563.19 212.91 564.93 211.88 567.16 210.96 568.2 211.38 570.71 210.6 571.78 212.73 572.59 213.28 574.97 214.87 576.91 215.47 574.26 218.42 573.55 220.55 572.32 222.4 572.64 223.04 573.6 223.96 575.06 224.71 577.46 224.46 580 223.61 583.27 223.11 585.09 222.37 586.34 222.68 589.9 224.46 590.45 225.32 589.45 228.94 589.24 230.43 589.38 232.49 589.95 233.49 591.22 235.61 591.32 235.84 593.45 237.61 594.78 238.54 594.52 240.81 594.87 244.01 595.58 246.85 595.58 248.63 596.84 250.41 599.19 250.98 600.91 249.7 602.69 248.28 603.4 245.08 603.4 242.23 603.4 240.46 602.33 238.68 600.27 237.88 599.77 237.24 601.05 236.17 603.82 236.03 606.95 236.9 609.08 236.55 612.42 234.61 613.7 232.28 615.12 230.86 617.04 228.5 622.08 228.73 622.23 228.73 623.51 228.92 624.79 228.78 626.99 228.21 628.84 226.22 628.98 222.33 627.2 220.55 627.08 220.11 625.19 219.31 626.49 218.06 627.54 216.39 629.53 215.33 633.95 215.58 637.86 216.64 640.86 219.63 644.63 221.33 646.75 221.62 651.01 219.84 650.56 217.89 650.14 215.4 649 212.56 656.69 212.02 658.47 213.8 661.67 214.15 665.93 214.51 668.11 214.76 669.75 212.06 671.97 209.53 674.73 208.71 675.52 208.47 673.72 211.74 673.16 212.77 673.25 213.23 673.44 214.19 676.14 216.54 679.79 217.35 681.69 219.49 686.88 220.38 687.94 221.76 690.07 222.44 691.35 222.26 691.28 221.73 689.75 220.77 689.61 219.31 690.89 218.03 692.93 216.64 693.91 217.43 695.94 217.78 698.25 217.67 699.33 217.71 703.24 216.64 705.02 216.29 706.67 215.61 708.09 215.58 708.9 216.47 708.41 217.46 707.13 218.17 704.71 218.56 702.4 217.85 700.59 218.1 699.95 218.85 700.41 219.63 701.66 220.09 703.11 219.31 704.32 220.02 704.46 220.59 704 221.23 703.36 221.8 703.43 222.37 707.15 221.62 709.63 221.62 710.83 221.91 712.47 222.75 713.54 223.86 713.63 224.58 713.18 225.2 713.41 225.73 714.03 226.4 715.23 226 716.47 225.55 719.05 223.95 720.24 223.38 723.71 222.22 726.33 220.98 727.08 221.95 726.06 222.84 724.46 223.73 722.02 224.49 720.11 225.55 717.76 227.02 716.29 227.95 714.47 228.31 712.52 228 711.98 227.46 711.32 226 710.87 224.44 709.99 223.69 708.8 223.65 708.41 224.18 706.84 224.61 703.65 225.35 702.88 227.31 701.82 229.79 701.82 231.57 699.33 233.35 698.26 234.41 697.2 236.9 701.46 237.26 700.4 239.39 701.46 242.23 707.5 243.65 708.9 245.58 706.08 245.43 700.4 246.85 697.2 248.99 694.71 250.76 690.86 252 687.37 253.68 682.59 253.69 679.79 252.54 678.38 252.83 677.26 252.3 676.63 252.41 675.99 253.26 676.04 254.11 676.24 255.38 675.52 258.23 674.39 260.08 674.65 261.63 675.67 262.16 678.06 263.76 680.94 263.87 680.5 266.4 679.43 269.25 678.37 270.67 677.66 271.73 673.39 272.44 670.55 274.22 667.35 274.93 664.51 277.06 662.02 278.49 657.4 280.62 655.98 282.4 655.27 283.82 651.36 284.53 650.65 287.37 648.52 290.93 646.75 292.35 644.61 293.06 642.48 296.97 642.13 298.75 643.19 301.94 643.9 306.21 643.9 309.05 642.13 311.19 639.64 312.96 635.2 313.15 631.11 308.7 625.07 307.28 621.87 305.5 617.36 304.87 613.81 305.15 611.61 304.8 611.39 303.37 613.42 301.55 617.57 298.97 619.03 296.26 624.01 294.84 622.58 291.64 617.61 291.28 614.06 291.28 609.83 292.12 608.67 291.24 606.24 291.28 605.92 293.1 603.04 295.19 600.91 298.75 598.78 301.23 596.65 304.08 594.16 305.85 591.32 307.28 589.54 309.05 588.08 310.62 590.61 314.03 592.74 315.1 595.58 315.1 598.78 314.38 602.33 312.61 603.75 309.41 605.17 305.85 607.77 304.87 607.66 306.57 608.02 309.05 609.08 311.9 609.08 315.45 611.57 318.65 615.48 319.36 616.58 321.07 615.87 323.78 616.15 325.84 618.68 327.18 621.16 328.6 624.4 330.24 622.94 331.8 620.49 334.58 617.61 335.21 615.95 333.77 614.41 333.58 612.43 335.12 611.22 336.07 610.5 338.91 610.15 341.04 609.08 342.82 607.66 345.31 604.82 347.08 603.36 348.09 602.3 349.08 597.68 349.65 597.45 349.7 594.87 348.86 590.25 347.08 585.59 345.08 580.62 342.59 576.35 339.39 570.67 337.26 564.63 336.19 561.43 338.33 560.36 342.24 561.07 346.86 560.38 350.28 560.3 350.34 558.62 350.35 556.62 350.68 555.9 351.13 555.44 352.84 555.62 354.87 556.44 357.15 557.33 360.04 557.26 364.52 553.49 368.98 547.28 372.63 541.53 374.22 537.62 375.65 535.29 378.16 532.24 380.44 529.04 381.29 527.47 382.14 526.2 378.02 524.99 377.45 519.52 377.66 518.02 379.37 518.66 381.29 519.86 382.75 524.28 383.56 523.74 384.84 521.88 385.75 519.37 387.08 515.54 389.05 513.24 389.69 510.24 388.81 509.57 388.95 510.62 391.28 510.95 393.53 510.31 394.87 509.03 396.04 506.71 396.62 505.62 396.89 501.89 398.92 501.68 400.25 499.71 402.81 497.15 404.3 495.76 406.11 494.28 407.63 493.44 407.97 485.39 411.19 483.08 411.98 481.27 409.31 479.71 406.57 476.58 404.04 473.06 402.76 471.46 401.53 471.89 398.75 470.66 395.72 472.31 394.97 473.54 394.92 475.8 393.06 472.96 392.71 470.47 392 466.92 391.64 462.19 391.83 461.12 391.51 460.22 390.28 460.64 387.99 457.5 384.63 455.31 382.66 453.42 380.98 449.86 381.33 447 382.02 442.05 379.91 438.85 380.62 438.49 381.69 441.67 382.12 445.83 382.87 449.13 383.62 450.04 384.84 449.93 386.76 446.95 386.66 445.61 388.57 447.38 389.86 451.29 392.71 454.73 394.39 456.22 394.71 457.87 395.67 456.26 398.75 455.47 399.08 454.78 399.61 455.63 401.74 456.42 405.69 456.51 406.64 454.94 407.34 452.75 407.87 451.16 408.09 449.98 406.33 448.21 404.52 446.15 403.45 444.8 403.45 443.16 404.87 442.31 406.72 442.24 408.64 444.23 411.48 447 412.83 448.92 413.05 449.84 414.4 449.55 416.71 449.4 417.6 451.89 419.05 452.78 420.31 453.02 420.8 453.07 420.89 453.44 421.64 454.36 424.5 454.96 425.67 457.84 427.88 466.44 432.14 471.41 434.17 474.79 436.09 475.71 437.97 477.7 437.61 479.48 437.86 483.31 439.04 486.83 440.32 493.39 442.31 497.12 442.04 499.94 441.3 501.86 440.82 505.96 440.23 510.97 438.74 513.96 438.1 516.41 438.47 521.31 440.12 527.55 444.03 527.41 445.94 528.13 446.76 529.58 447.51 530.87 448.02 536.22 448.69 537.58 449.06 540.62 450.28 541.58 450.71 543.23 451.19 545.04 451.35 545.84 451.3 547.18 451.46 549.31 451.67 551.07 451.3 552.67 450.18 554.58 449.7 556.18 450.18 557.04 451.25 556.34 452.69 555.12 454.34 553.68 455.14 552.29 455.94 550.59 458.61 550.16 459.46 549.41 460.68 547.03 464.66 546.47 465.39 546.16 466.72 546.5 468.69 550.05 471.97 553.19 474.05 555.44 474.48 560.33 474.84 564.02 475.45 577.95 475.19 583.47 474.78 586.44 474.47 588.57 474.38 591.06 473.76 593.63 472.51 596.39 471.36 598.43 469.31 601.72 467.36 607.67 463.54 610.95 462.56 613.8 461.85 614.86 460.07 613.97 457.85 615.93 455.18 620.46 454.74 624.28 454.38 625.34 456.16 624.19 458.12 623.74 462.03 623.57 463.89 622.59 465.4 619.62 469.19 614.78 474.36 612.95 475.62 611.92 476.34 608.42 479.15 606.42 481.57 604.69 483.95 605.27 486.11 608.47 487.44 611.13 488.86 612.82 488.45 615.56 488.27 616.1 488.24 620.1 487.97 627.49 487.23 628.77 487.29 630.94 487.53 632.54 489.31 631.56 491.97 631.48 494.76 631.21 494.99 628.85 497 626.36 498.74 619.39 499.43 617.26 500.23 615.84 500.86 613.44 502.37 612.08 505.16 612.1 506.81 612.44 509.35 611.82 511.41 612.35 512.68 612.21 515.03 611.82 516.24 610.63 517.64 609.28 518.28 605.5 518.87 601.16 520.15 598.12 521.17 596.92 521.43 594.06 523.54 587.62 528.66 586.65 529.9 585.64 531.21 584.85 533.18 585.35 534.95 586.25 536.98 587.22 537.93 590.43 539.81 594.29 541.57 596.23 542.24 598.79 543.13 604.57 544.82 606.97 545.21 607.22 545.25 608.45 545.15 611.53 545.57 613.55 545.3 615.89 545.03 619.78 544.76 622.29 543 624.53 542.2 629.86 539.38 632.2 537.19 633.47 535.46 634.42 535.01 635.78 534.69 637.22 534.68 638.75 534.99 639.37 535.39 640.03 535.81 642.7 536.42 644.06 536.73 645.9 536.79 648.38 536.39 649.87 535.7 652.54 534.47 654.46 532.39 658.24 529.03 660.39 528.02 662.52 526.58 663.91 525.25 665.61 523.12 665.72 521.68 666.25 519.7 668.22 518.96 670.84 519.44 672.49 519.76 674.25 519.12 677.12 516.88 681.71 511.45 685.12 507.4 685.97 505.37 685.65 503.03 683.95 499.62 684.57 496.9 686.77 498.22 690.36 500.36 693.58 501.93 696.38 502.11 700.46 501.9 705.34 501.36 707.52 500.91 709.15 500.57 710.38 500.32 714.77 498.71 719.16 496.72 721.21 496.13 725.05 493.71 727.6 491.65 730.52 489.3 734 486.03 735.49 483.26 740.96 477.72 742.38 476.22 747.29 475.16 753.33 474.3 761.07 471.96 769.89 470.11 774.65 469.33 780.47 467.55 783.02 471.67 785.5 472.82 792.89 472.68 796.58 474.24 799 475.8 798.56 477.46 797.64 480.9 794.74 484.62 793.46 488.17 789.54 492.53 787.86 495.91 785.49 499.35 784.79 501.01 783.99 502.3 783.15 502.92 782.79 503.55 781.86 503.86 779.55 504.26 777.64 503.77 773.64 503.41 770.11 503.74 766.7 504.88 763.93 506.64 759.38 509.01 758.69 509.92 757.01 512.14 755.9 513.22 754.78 513.35 753.33 512.92 749.96 512.43 748.07 512.57 746.44 512.7 742.05 513.87 738.54 515.79 735.68 518.47 735.22 520.95 735.57 525.14 734.44 527.34 734.15 529.34 734.65 531.11 733.87 532.75 731.88 534.31 729.46 535.88 724.84 537.15 722.47 538.28 720.39 538.74 717.45 540.6 713.78 542.46 708.2 545.15 704.61 547.71 702.54 549.06 701.12 551.41 699.93 553.01 698.1 553.59 695.54 553.98 688.88 554.62 686.31 552.13 679.27 551.6 663.5 552.56 652.84 551.6 645.06 554.9 630.45 550.75 629.03 551.06 628.52 551.39 625.84 552.13 625.32 552.46 625.11 552.87 619.54 554.34 618.51 554.34 617.38 554.91 607.11 551.07 605.51 551.28 604.13 551.6 603.17 552.45 602.53 553.41 602.43 553.78 600.87 556.6 596.48 557.28 595.92 557.28 594.89 557.53 589.64 558.89 587.26 558.02 586.02 558.76 580.36 566.38 582.54 568.21 582.61 568.35 583.54 569.17 583.78 569.26 592.08 576.23 594.43 587.53 595.49 599.58 601.67 606.62 598.05 611.52 600.08 613.55 612.12 611.74 619.9 614.4 627.9 620.05 631.31 622.83 632.56 626.37 627.08 629.9 622.52 631 620.28 630.95 597.13 623.25 592.6 621.92 591.31 620.63 588.78 618.54 583.19 616.95 580.92 615.48 578.3 614.95 576.9 614.74 575.05 614.05 572.99 611.82 570.65 608.68 569.21 607.61 567.61 606.76 565.1 606.7 563.4 603.56 563.56 599.51 563.13 598.71 563.18 597.27 563.72 596.25 564.94 596.09 567.5 596.04 570.17 595.51 573.36 594.55 574.86 592.2 575.34 587.88 577.63 582.34 579.33 576.58 579.44 573.17 578.97 571.92 578.62 571.02 577.81 569.62 576.68 568.99 576.14 568.88 572.66 568.48 567.86 568.76 562.02 569.17 560.45 569.78 559.22 570.27 556.63 570.77 554.18 571.68 553.48 572.64 554.71 573.7 555.19 575.75 555.02 576.38 553.64 581.53 552.79 583.83 548.55 585.88 545.52 587.16 544.01 589.01 542.83 591.18 539.88 592.53 538.61 593.61 538.52 594.48 540.59 596.89 539.68 597.8 537.66 597.11 535.68 593.06 533.13 589.11 534.14 585.49 536.11 584.85 537.87 583.41 538.51 581.54 538.62 579.25 538.03 577.91 537.6 577.17 536.54 576.9 535.42 577.91 533.98 579.09 532.75 580.63 532.33 582.34 532.54 583.78 530.35 584.05 528.01 584.37 527.1 584.05 528.06 582.39 527.53 581.33 526.2 580.26 523.59 579.67 521.77 577.75 520.97 576.05 522.47 573.76 522.36 572.26 521.45 572.08 519.69 572.19 517.34 571.65 517.13 571.07 518.09 569.68 519.1 568.03 518.94 567.18 518.62 566.42 518.18 565.94 517.24 564.9 516.06 563.55 511.85 562.16 507.16 560.88 505.14 559.92 506.74 555.87 507.38 553.63 511.48 553.9 514.87 553.24 518.78 552.53 521.38 551.8 523.56 551.06 526.17 550.68 528.04 550.58 529.8 551.38 530.48 552.44 531.08 554.1 531.77 555.16 532.67 556.12 534.17 556.07 535.34 555.54 537.04 554.31 537.42 552.44 536.72 550.31 535.02 548.44 534.65 547.11 535.45 546.31 537.52 544.82 539.12 542.74 540.46 540.87 541.47 536.88 541.27 532.13 541.28 527.19 540.7 524.21 540.06 520.64 536.91 518.94 535.21 518.41 533.23 518.41 530.89 518.41 529.45 517.87 532.97 516.86 534.74 516.5 537.62 515.78 538.54 515.44 538.55 515.42 540.73 514.18 543.95 511.58 545.87 506.52 545.97 502.73 543.73 499.43 541.02 497.56 536.6 491.13 533.4 487.98 531.98 486.73 530.69 485.67 528.64 485.81 527.49 485.67 526.78 484.69 526.42 483.76 526.96 481.89 527.76 479.58 528.69 477.62 528.46 474.51 528.29 472.25 528.51 469.67 528.24 467.4 527.71 464.03 526.82 462.96 525.27 461.98 520.29 461.05 516.21 460.25 513.64 459.37 511.78 458.18 511.11 457.8 509.16 457.47 506.84 456.91 504.47 456.49 502.39 456.38 500.15 456.49 499.65 456.62 497.76 456.92 495.51 456.87 494.31 456.62 492.99 454.12 493.14 453.42 492.32 450.95 491.71 449.42 491.58 449.11 490.37 448.06 490.05 447.78 488.36 446.97 488.18 446.93 486.4 445.83 484.43 444.98 481.61 444.28 479.16 443.48 476.76 442.28 475.78 441.45 463.92 436.48 462.57 434.63 457.73 431.93 456.03 431.64 450.6 427.69 447.78 424.98 447.05 423.65 446.7 423.01 445.91 421.56 445.34 421.49 444.94 421.44 443.11 420.66 443.11 420.68 443.05 420.64 443.01 420.62 443 420.6 441.8 419.66 440.56 420.09 440.38 421.08 440.16 423.68 439.64 424.4 438.6 425.42 437.93 423.72 438.02 422.87 437.65 421.7 436.74 420.82 435.46 420.02 433.04 419.97 431.56 420.08 430.4 420.76 429.94 421.9 428.02 422.71 424.83 423.68 422.83 427.9 422.12 430.26 422.29 431.46 424.74 433.28 428.33 433.59 429.53 433.9 430.07 434.79 430.66 436.81 431.62 438.97 433.35 441.41 434.46 444.09 434.77 446.13 434.23 448.93 434.5 450.35 435.17 450.75 436.85 450.04 438.45 449.11 440.19 448.84 440.85 448.75 441.83 447.95 441.38 446.88 439.43 443.06 439.47 442 440.36 440.84 442.18 440.89 442.72 442.34 442.74 444.3 443.31 445.82 445.99 448.2 446.4 448.89 446.17 450.1 446.18 451.82 446.35 453.02 447.82 454.61 449.24 455.12 450.84 455.37 452.67 455.99 454.4 455.5 455.82 454.44 456.26 452.75 456.66 451.42 457.2 449.55 458.22 447.15 461.1 444.88 462.21 443.63 462.55 444.56 460.99 447.12 459.68 450.17 459.37 451.67 459.32 454.42 459.33 454.43 458.86 455.02 458.61 455.33 454.03 459.35 449.23 458.72 447.79 458.98 445.66 459.51 443.48 460.15 439.8 458.87 439.35 460.47 438.68 463.19 439.16 464.74 440.17 467.45 439.83 469.14 438.49 470.8 438.11 473.22 439.02 477.21 440.81 479.8 441.18 481.1 439.64 481.69 437.68 480.53 437.45 477.96 436.92 475.56 435.8 473.32 434.9 472.41 435.16 473.69 435.22 474.43 435.64 475.18 436.07 476.04 435.8 477.1 435.59 477.74 436.81 479.34 436.44 480.41 434.63 480.09 432.5 480.3 431.7 478.65 431.64 477.26 430.74 476.62 427.33 475.56 425.46 475.2 423.69 473.73 422.71 474 421.55 473.11 421.34 472.35 421.33 471.73 422.44 471.29 423.51 472.22 423.6 473.02 424.22 472.97 424.84 472.44 425.73 472.4 427.19 473.46 428.08 472.44 426.71 470.17 426.66 469.51 427.49 469.11 431.54 470.97 433.88 470.12 434.21 467.86 434.3 466.53 434.3 464.93 433.32 462.31 431.59 460.93 430.7 459.38 429.37 458.62 429.99 456 429.1 454.31 426.88 452.09 425.37 450.58 425.28 449.78 425.86 449.29 425.86 448.54 424.93 447.56 424 447.43 423.07 448.16 422.11 447.78 420.58 447.6 419.07 448.69 418.47 450 418.48 450.71 418.96 451.57 418.95 453.79 419.12 455.46 419.5 456.54 417.15 463.35 415.82 466.01 414.04 466.44 411.89 464.52 410.82 463.46 409.12 461.54 408.19 459.76 406.92 458.41 404.64 457.77 401.94 456.84 399.53 455.71 398.25 457.13 394.41 458.91 392.14 458.05 388.3 454.64 385.21 453.47 383.47 451.98 381.33 449.88 380.48 447.18 381.4 444.26 382.47 443.2 382.71 440.69 382.08 440.39 381.62 440.53 380.62 440.85 380.02 440.5 378.21 440.71 377.64 440.14 377.35 439.22 375.96 438.2 374.4 440 373.23 440.5 371.06 442.74 366.94 445.9 362.46 449.57 363.53 452.77 367.43 453.48 370.63 454.19 375.61 457.04 378.62 457.7 380.43 459.46 380.27 462.39 377.18 466.31 375.27 467.91 372.76 469.16 372.99 472.18 373.45 473.96 373.74 475.73 374.31 476.55 375 478.76 375.63 480.73 376.06 481.69 376.65 483.08 376.49 484.35 375.58 485.58 374.78 485.9 371.32 482.06 369.13 480.73 366.41 479.5 364.98 479.29 363.38 479.5 359.97 478.7 357.67 477.64 355.76 474.71 356.24 473.48 356.77 472.67 357.35 471.77 356.82 470.97 355.38 470.44 353.52 470.55 352.02 471.24 349.79 473.75 348.99 475.23 347.23 475.56 344.88 475.98 342.7 477.42 341.05 477.96 337.58 476.84 335.88 474.12 335.56 472.15 336.62 471.08 337.85 469.96 340.43 468.77 342.21 467.35 342.86 466.44 343.5 464.15 344.56 462.55 345.01 461.29 343.98 456.21 342.7 455.14 337.69 456.79 334.92 456.95 332.97 455.26 330.13 453.84 328.35 452.06 326.22 453.48 325.15 456.33 324.8 458.46 324.8 460.95 322.31 462.01 319.82 463.79 316.63 465.57 314.49 464.86 312.01 463.79 309.52 464.5 309.52 466.99 309.52 470.19 311.78 475.68 312.37 476.86 314.45 480.37 318.02 478.83 320.58 479.15 321.97 479.15 323.03 479.41 325.95 478.2 327.73 477.3 329.21 475.47 331.34 474.46 333.32 474.45 334.11 477.97 333.69 479.57 330.45 483.48 328.46 484.8 326.81 488.37 326.76 490.4 329.16 494.34 331.61 499.46 332.62 500.31 333.26 501.01 333.85 500.15 335.93 499.89 337.31 499.46 339.39 498.45 341.02 497.87 345.18 495.14 346.1 494.55 346.8 493.17 347.12 492.64 347.92 492.05 348.77 491.78 349.83 492.94 350 493.38 348.4 495.25 342.88 499.83 338.43 503.67 337.42 505.54 335.66 505.91 333.42 505.96 332.19 505.32 330.38 504.05 327.02 502.13 324.57 501.49 323.03 501.27 322.02 503.62 320.68 504.79 317.86 504.69 315.46 502.34 311.57 497.54 310.77 493.97 308.96 492.37 307.25 490.08 304.8 488.16 303.31 485.49 301.1 482.75 299.96 481.04 298.17 479.01 297.19 478.21 295.77 477.9 294.66 477.42 293.37 476.17 292.17 474.88 290.66 473.19 289.51 472.04 287.07 471.55 285.78 471.24 283.82 471.06 282.27 470.4 281.38 469.68 280.63 469.73 279.07 469.42 278.5 470.71 277.61 470.71 274.9 470.35 272.63 470.71 270.79 471.15 268.79 471.42 267.7 472.08 266.48 472.83 265.77 474.1 265.74 474.5 265.63 476.01 266.6 477.59 269.85 481.95 271.06 483.47 270.83 484.68 270.2 485.95 263.42 489.1 260.86 489.62 256.47 490.98 253.13 493.66 249.71 496.16 248.11 496.74 246.51 496.68 245.07 496.25 244.1 495.55 243.68 493.97 244.91 489.85 245.55 488.89 245.85 487.49 245.68 486.29 245.03 485.46 243.95 484.37 243.04 476.86 242.79 474.93 244.1 474.88 245.73 474.42 247.15 473.74 247.94 470.76 248.24 469.38 246.93 468.28 245.05 468.3 243.92 467.73 242.99 467.12 242.81 466.31 241.22 463.78 241.3 462.67 240.82 461.08 240.65 459.75 240.45 458.72 239.7 457.84 238.81 457.27 238.31 456.96 236.75 456.87 235.49 456.92 234.53 457.17 232.07 457.47 231.04 456.85 230.24 455.99 229.42 456.39 229.11 457.13 229.39 457.34 230.52 458.08 230.52 458.48 230.76 460.83 230.7 461.82 230.5 463.7 230.33 464.92 229.74 465.69 228.37 466.51 226.07 467.31 224.87 467.48 223.11 467.51 222.48 467.79 222.33 469.66 222.28 470.76 222.48 473.23 223.19 473.91 224.11 474.27 225.2 474.88 228.64 475.56 233.97 475.06 234.93 474.74 236.67 475.06 238.04 474.83 239.48 474.77 241.4 474.36 241.91 485.73 237.47 486.03 232.45 485.54 231.61 486.16 232.58 487.23 232.94 487.94 234.32 488.39 235.29 489.67 236.13 490.84 236.7 492.29 236.17 495.09 235.3 496.94 225.86 502.53 217.92 505.1 216.71 504.53 216.05 502.5 214.6 501.5 213.48 501.12 212.38 500.19 210.25 499.23 207.58 498.48 204.99 498.33 202.2 499.87 199.96 502.69 199.29 505.87 202.66 508.27 203.9 509.87 204.79 510.88 204.81 512.47 204.18 513.36 184 529.3 173.51 527.25 170.23 526.27 167.52 525.78 166.88 525.91 165.51 527.93 165.46 531.99 161.34 531.34 157.97 530.45 155.47 528.43 154.15 526.9 151.99 525.17 151.1 524.92 143.05 527.7 141.53 527.77 139.54 529.18 138.42 529.18 133.63 524.76 132.19 524.77 114.77 532.28 113.17 532.22 94.56 528.9 82.05 526.62 80.92 525.74 79.55 524.79 79.06 523.61 76.93 522.06 74.28 521 71.82 519.82 69.42 519.13 67.74 519.27 66.22 520.42 63.71 523.02 63.55 523.56 63.23 524.04 60.57 524.52 57.8 524.73 53.69 519.34 46.98 511.93 42.66 507.29 38.93 502.98 35.95 499.7 33.92 497.2 32.36 493.27 30.39 488.01 27.84 480.22 26.52 476.1 21.41 462.9 20.58 459.35 20.63 455.8 20.2 453.26 20.2 450.14 19.53 445.56 19.44 442.27 20.71 441.92 21.32 442.77 21.43 443.54 22.08 443.71 22.45 443 23.05 442.46 22.77 441.34 24.5 439.96 26.1 439.39 27.88 440.1 31.48 440.9 36.67 443.21 40.85 443.52 43.56 442.05 46.09 441.43 49.1 439.84 49.27 439.74 51.93 438.57 53.64 438.57 56.46 439.48 61.05 436.44 62.9 436.39 67.07 435.74 68.56 433.81 69.68 432.05 69.98 431.58 71 429.42 71.06 429.21 71.93 425.86 71.91 423.26 71.25 421.61 69.96 420.66 69.11 419.48 67.82 418.94 57.87 415.48 56.36 414.46 57.07 411.08 59.43 407.97 61.56 408.15 63.74 407.62 68.16 406.33 71.05 404.24 71.65 403.31 73.22 400.95 74.2 398.11 73.31 397.13 73.22 395.26 73.58 393.27 73.36 391.27 72.82 389.71 70.47 386.65 67.09 383.09 65.4 379.95 64.33 373.47 63.85 371.64 63.22 369.33 62.33 367.94 60.39 365.86 57.97 364.47 55.16 363.47 52.07 363.88 49.11 363.58 47.58 363.02 43.72 361.83 41.88 361.53 38.92 361.61 36.6 361.94 31.89 363.55 25.01 365.24 21.97 365.7 17.12 367.33 15.13 367.98 12.86 367.87 10.55 366.76 9.96 364.91 10.19 363.51 12.27 362.74 15.13 361.07 16.9 358.89 17.49 357.35 19.34 356.85 20.9 355.34 21.57 353.65 21.92 351.92 22.01 351.58 21.92 349.8 21.73 349.34 21.26 348.16 19.32 346.48 16.98 345.22 13.12 343.22 11.41 340.24 9.28 334.29 8.38 332.2 7.32 331.19 2.87 326.07 1 322.65 2 319.52 2.07 318.75 4.31 316.92 5.5 315.71 5.97 313.92 7.32 312.71 9.01 311.35 9.95 307.49 9.95 304.2 9.95 301.05 9.5 299.09 9.9 297.71 12.35 295.67 15.23 293.05 16.18 292.05 18.47 291.54 20.65 289.36 22.54 286.28 23.96 284.62 26.45 282.07 27.64 280.98 28.51 280.02 34.76 276.15 38.21 274.94 39.95 274.94 43.11 276.26 45.21 276.65 47.13 277.31 48.98 278.44 50.34 278.82 51.94 278.75 53.94 278.04 56.89 277.61 57.47 275.85 58.56 275.6 60.03 276.28 61.74 276.6 63.6 276.33 64.35 275.21 64.24 273.77 64.24 272.39 65.2 270.63 65.26 269.19 65.15 267.91 66.32 266.52 67.65 264.71 70.32 262.74 71.65 261.67 71.39 260.5 69.05 256.49 67.49 253.78 68.08 248.24 69.28 246.46 71.33 243.53 72.92 242.5 74.68 242.05 76.53 242.16 77.58 242.36 79.9 242.78 81.58 242.71 82.45 241.75 82.52 240.48 82.43 239.72 82.17 237.31 83.03 235.91 83.72 234.1 84.95 232.82 86.07 232.45 87.83 231.7 88.57 230.21 88.68 229.14 89.64 227.86 91.29 226.85 92.36 226.31 94.33 225.84 98.11 224.08 102.54 221.94 103.18 219.81 103.87 218.1 106.59 216.82 108.99 215.39 110.37 214 113.14 211.92 117.09 207.84 120.12 207.92 123.86 210.47 129.49 206.77 133.68 204.82 133.05 202.69 131.37 202.69 126.97 203.36 122.12 202.77 119.86 200.7 120.31 194.48 121.64 189.59 122.03 187.31 120.32 186.14 119.27 183.4 119.9 179.31 122.38 180.2 125.31 180.46 127.27 179.04 128.3 175.37 128.74 170.49 130.08 164.27 135.28 161.38 137.34 158.68 140.4 156.83 142.39 146.95 143.17 143.46 141.18 141.16 141.62 133.61 144.29 127.39 148.73 123.39 151.84 118.95 152.73 115.4 155.06 108.53 156.12 102.58 156.34 101.24 157.36 100.75 158.83 99.82 160.16 98 161.01 95.96 161.5 93.73 162.13 88.96 162.76 86.14 162.69 84.18 163.19 81.48 162.61 78.9 161.77 77.53 161.59 76.73 162.03 76.28 163.94 76.42 164.79 76.11 165.54 75.31 166.25 73.75 167.1 72.77 168.65 70.77 169.54 69.04 169.81 67.09 170.29 65.13 170.93 62.81 171.73 58.99 177.33 46.46 182.48 36.77 183.46 34.2 183.19 28.24 181.2 25.08 178.44 21.04 177.79 19.14 176.4 16.7 174.07 13.67 174 11.2 178.95 6.62 183.73 2.2 187.63 1 191.3 2.01 192.3 2.36 194.05 3.32 196 4.48 198.75 5.1 Z M 120.42 221.57 120.77 222.73 122.73 222.64 123.97 222.02 124.33 221.48 124.06 220.68 122.11 219.88 121.13 220.77 120.42 221.57 Z M 138.54 236.94 140.32 238.28 141.56 237.66 142.27 236.77 141.74 235.43 141.92 234.28 142.18 232.77 142.71 231.7 143.25 230.19 143.07 229.39 142.18 229.12 141.12 229.66 141.12 230.19 141.47 230.99 140.85 232.5 140.32 233.75 140.05 234.63 140.05 235.7 138.54 236.94 Z M 151.51 240.59 149.38 240.77 147.69 240.68 146.62 241.12 146.18 242.1 146.45 242.81 147.69 243.88 148.93 243.79 150.09 242.99 151.69 242.72 153.37 242.63 154.53 241.65 154.62 240.94 154.26 239.25 153.2 240.05 151.51 240.59 Z M 166.7 251.78 167.67 252.58 167.85 252.05 167.32 250.27 166.34 250.54 166.7 251.78 Z M 168.82 266.17 170.95 269.37 173.44 267.6 175.21 264.75 176.28 262.62 174.15 259.07 170.24 259.42 168.82 261.91 168.82 266.17 Z M 172.79 278.63 171.69 279.59 170.45 280.69 169.92 282.04 170.17 282.65 171.05 284.14 171.69 284.96 172.05 285.99 172.76 287.66 173.54 288.32 173.5 288.41 176.34 291.04 178.47 292.1 178.97 292.74 179.18 294.8 177.69 296.87 174.56 299.28 170.09 301.56 167.53 301.77 164.61 301.13 162.48 300.35 160.56 299.14 159.14 299 157.22 300.56 152.04 305.04 145.92 309.16 141.73 312.43 138.53 315.13 135.27 320.96 135.69 322.24 135.8 322.15 135.65 323.04 135.65 324.11 136.37 326 137.2 326.57 139.98 327.89 141.02 328.05 145.66 330.76 146.17 330.76 146.48 330.92 149.78 330.92 153.39 330.35 154.94 329.53 155.25 329.53 156.8 328.05 157.01 327.31 157.83 326.25 158.66 323.79 159.69 321.98 160.93 321.16 162.78 320.92 166.91 320.92 171.24 321.33 171.55 321.57 171.76 321.57 173.62 323.05 175.16 324.69 175.88 325.27 177.74 326.33 180.32 326.5 182.07 325.68 182.59 325.27 183.62 324.04 184.14 322.64 187.23 318.79 187.75 317.72 188.58 314.85 188.89 314.03 189.09 313.87 190.13 309.35 189.92 309.11 189.92 307.88 189.58 305.67 189.77 305.96 189.56 300.28 189.2 297.08 188.49 294.73 186.93 291.82 184.58 289.62 183.23 288.62 182.73 287.42 182.78 287.38 182.81 286.35 182.92 284.14 182.49 282.29 181.75 280.91 181.07 280.16 180.04 279.41 179.01 279.13 177.73 278.95 177.13 278.49 176.35 277.82 175.64 277.57 174.82 277.92 172.79 278.63 Z M 289.99 305.93 290.51 306.59 291.23 307.16 293.09 308.06 298.24 308.89 302.89 309.13 304.64 309.54 305.47 310.12 307.01 312.41 308.04 314.88 309.28 316.68 310.83 318.16 312.37 319.14 314.13 319.8 315.47 320.21 315.98 320.21 316.19 320.37 317.84 320.21 319.59 319.39 321.45 319.39 324.55 319.8 327.33 320.62 329.4 321.44 329.91 321.44 330.43 321.85 331.46 322.1 332.49 322.67 334.04 323.17 334.76 323.17 335.07 323.33 339.19 322.76 340.95 322.35 341.26 322.1 343.32 321.94 343.53 322.19 344.87 321.77 345.9 321.12 348.17 320.14 350.85 319.72 352.61 318.91 353.64 318.66 356.49 317.13 357.77 316.44 359.11 316.2 361.17 316.45 362.41 317.51 362.41 318.5 362.92 319.97 364.16 321.37 366.22 322.44 368.29 323.01 370.66 323.26 372.52 322.68 373.44 321.86 374.23 318.65 372.45 316.87 369.25 315.1 368.54 312.25 368.19 309.05 365.35 307.28 361.08 307.63 357.53 307.28 356.82 306.21 355.04 302.66 352.91 298.75 349.36 295.55 345.45 293.77 342.25 293.41 337.63 291.99 333.72 289.86 330.17 286.66 328.04 284.88 323.42 282.4 319.87 282.75 317.38 285.59 315.55 287.69 314.89 288.44 310.98 290.93 306.37 292.7 297.53 294.69 295.67 295.35 293.61 297.4 292.57 298.14 291.33 299.61 290.82 300.68 289.99 301.42 289.48 303.06 289.48 304.54 289.99 305.93 Z M 362.84 283.22 363.04 283.47 364.9 283.47 367.48 283.06 369.03 282.65 370.88 281.83 371.92 280.77 372.87 279.49 372.33 277.09 369.99 273.62 369.99 273.38 367.06 270.9 365.03 270.1 362.25 269.12 360.24 268.61 356.88 265.73 354.65 264.36 351.87 263.87 350.53 264.11 346.43 266.32 345.05 268.88 344.35 270.32 345.61 272.72 348.4 275.35 353.04 279.12 354.38 279.7 358.5 281.99 360.77 282.82 362.84 283.22 Z M 438.14 288.92 437.78 292.83 438.49 294.25 440.27 294.96 441.34 293.54 441.34 291.41 441.34 288.92 439.92 286.43 438.14 288.92 Z M 407.94 291.77 406.52 291.05 405.1 292.48 403.32 296.03 404.03 297.81 406.52 299.58 407.58 297.45 407.58 295.67 407.58 294.25 407.94 291.77 Z M 459.46 307.05 458.88 309.04 458.79 310.86 457.68 313.57 456.44 315.53 456.57 316.51 457.68 318.2 458.92 318.11 459.28 316.95 459.23 315.84 459.54 312.64 459.81 310.55 461.1 309.18 462.65 308.07 465.1 308.42 466.61 307.13 467.36 306.24 467.85 305.4 468.34 303.84 467.98 300.65 465.5 300.3 462.65 303.14 459.46 307.05 Z M 544.05 323.17 542.8 325.2 543.12 325.98 544.68 326.76 545.3 328.33 545.3 330.51 547.02 332.23 548.42 333.79 550.14 335.82 551.7 337.43 552.64 339.1 553.26 340.35 555.92 340.04 557.32 338.16 556.54 336.13 557.48 333.79 559.19 333.17 561.38 332.85 559.82 330.98 557.95 329.42 556.85 327.86 554.04 325.36 552.79 323.02 552.33 321.14 549.05 320.05 547.17 320.05 545.61 321.45 544.05 323.17 Z M 272.03 340.13 271.51 336.85 270.79 336.28 269.97 335.87 269.45 335.87 268.73 335.62 268.21 335.21 267.39 334.23 266.67 331.93 266.36 331.76 266.36 331.35 265.64 330.7 264.29 330.53 262.03 330.53 261.2 330.7 260.48 331.27 260.48 332.34 261.51 333.32 266.67 337.26 267.7 338.74 267.7 339.56 267.9 339.72 267.9 340.13 268.93 341.2 270.27 342.18 271 342.02 271.82 341.2 272.03 340.13 Z M 349.31 334.06 349.67 336.19 352.29 337.2 356.42 337.97 359.97 336.55 360.33 333.71 358.48 331.21 357.13 329.08 355 327.31 351.8 327.66 350.73 329.08 349.31 331.57 349.31 334.06 Z M 207.04 327.56 207.75 326.5 208.29 325.07 206.87 323.65 204.38 324.19 204.2 325.79 205.09 327.56 207.04 327.56 Z M 22.11 309.08 20.69 308.37 16.07 308.9 16.25 310.5 18.55 311.21 22.11 309.08 Z M 508.53 356.87 508.53 358.81 508.89 361.3 507.82 363.08 504.23 364.27 498.18 366.4 493.57 368.89 488.03 370.22 484.01 369.48 482.67 369.39 480.19 369.56 478.85 369.8 478.54 370.05 478.44 370.38 478.75 371.2 479.68 372.18 481.33 373.49 482.56 373.91 490.09 373.99 498.76 373.01 502.17 372.76 502.68 372.85 504.33 374.16 505.05 374.08 505.57 374.16 506.81 375.39 508.04 375.88 512.69 376.95 515.37 377.04 517.33 376.79 519.18 376.13 520.24 374.22 520.88 372.35 521.74 371.29 522.48 370.33 523.01 369.41 522.7 367.77 521.36 364.73 519.76 363.66 518.01 361.69 516.94 360.2 516.46 359.34 516.67 358.01 517.63 356.84 519.55 356.25 521.04 354.33 520.99 353.64 520.24 352.15 519.5 350.33 517.42 349.93 514.57 351.7 513.69 352.73 512.14 353.59 510.31 354.55 508.53 356.68 508.53 356.87 Z M 191.92 370.9 191.39 369.62 185.52 371.01 186.8 372.29 188.19 373.14 191.81 371.75 191.92 370.9 Z M 470.82 359.92 471.62 359.33 473.27 359.71 474.71 359.55 475.46 359.23 474.87 357.95 473.75 357.41 472.42 357.15 471.46 357.68 469.86 357.73 469.01 357.41 468 357.68 467.09 358.43 467.04 359.07 468.37 359.65 469.7 359.76 470.82 359.92 Z M 198.05 387.12 199.39 388.11 202.48 389.58 204.75 389.83 205.06 389.99 206.82 389.99 208.67 389.58 211.46 388.19 215.59 384.5 215.89 383.68 215.38 383.1 213.32 381.63 210.43 380.15 210.22 380.15 207.13 377.52 206.41 377.53 206.1 377.28 205.06 377.28 200.42 377.93 198.05 378.51 196.5 379.33 194.96 380.56 194.44 381.13 194.44 382.61 195.78 384.82 198.05 387.12 Z M 390.19 384.52 389.24 385.85 387.16 385.64 386.31 387.98 384.49 389.15 382.71 392 379.87 395.19 377.38 398.04 374.95 400.85 375.41 402.17 376.35 402.36 376.59 403.13 378.86 403.41 381.38 404.34 381.88 405.05 381.81 405.83 382.38 406.11 382.84 406.57 382.95 407.5 382.24 408.6 381.53 409.84 379.82 411.05 377.08 411.76 374.85 411.76 373.53 410.88 370.99 410.12 369.3 410.98 368.5 412.25 368.5 414.03 371.7 416.88 373.83 417.59 378.45 417.94 379.01 416.31 381.29 415.1 381.94 414.18 380.66 413.91 380.23 413.32 381.46 412.68 382.63 412.26 383.54 411.99 383.75 412.58 383.81 413.1 382.74 413.64 382.74 414.34 383.8 416.2 384.49 417.59 384.92 418.44 387.21 419.4 388.81 418.82 389.56 417.96 389.67 414.07 390.2 412.79 391.32 411.72 392.6 411.25 393.18 410.77 393.34 409.59 392.76 408.58 393.08 407.51 395.53 407.41 399.74 408.47 401.07 408.85 402.19 409.81 404 414.23 400.11 417.91 401.5 419.03 404.11 419.14 406.08 418.28 406.93 416.68 407.95 415.51 410.02 414.6 410.93 413.48 410.98 412.04 410.13 410.23 409.81 409.59 409.92 408.53 410.45 407.89 411.3 407.67 412.58 407.78 413.33 408.1 414.29 408.63 416.03 408.92 418.24 409.96 420.16 410.28 423.05 410.37 424.31 409.98 425.18 409.52 425.89 409.17 426.87 407.12 427.49 405.84 428.69 404.64 431.39 402.82 430.64 400.73 429.58 398.82 427.36 397.48 424.29 396.43 421.79 397.33 418.95 398.39 415.04 398.04 415.4 394.84 417.53 393.77 419.31 391.28 420.79 388.68 422.92 388.33 424.99 386.66 423.57 384.53 419.66 384.53 413.27 385.95 409 388.44 405.83 389.23 404.74 389.51 404.98 391.85 404.26 392.83 404.16 393.32 404.97 394.84 406.31 396.02 407.33 396.68 407.46 397.64 406.88 399.18 406.34 400.09 404.37 400.83 402.61 401.15 401.55 401.15 399.68 402.01 398.34 402.66 397.39 403.02 395.15 401.95 392.66 401.59 388.75 402.3 384.65 405.47 385.4 403.02 385.18 401.26 384.81 400.09 389.29 396.04 392.66 394.48 394.44 391.64 394.83 390.44 395.58 389.8 397.12 390.23 398.3 390.17 399.73 388.25 397.82 387.51 396.22 386.92 393.55 385.53 390.19 384.52 Z M 432.93 414.02 434.35 415.05 435.15 414.65 438.5 417.01 439.44 418.32 440.86 417.3 440.21 414.56 438.41 413.14 437.11 412.69 435.57 412.66 435.12 412 434.35 411.89 433.95 412.03 433.79 412.25 433.38 412.83 432.93 414.02 Z M 362.18 411.53 359.46 409.72 358.29 408.28 356.96 406.36 354.88 405.72 353.34 405.61 351.31 406.89 349.92 407.74 348.75 408.49 347.74 409.24 347.53 411.21 349.37 412.26 350.61 412.26 350.92 412.42 352.67 411.68 354.01 410.37 354.84 410.37 356.8 412.09 360.41 414.15 360.92 413.9 361.23 413.9 361.95 413.32 361.96 412.67 362.18 411.53 Z M 86.95 388.16 86.24 387.45 83.93 388.16 85.53 389.23 86.95 388.16 Z M 294.62 424.07 295.04 425.06 295.76 424.85 296.11 423.92 295.9 421.79 294.69 421.43 294.62 423.28 294.62 424.07 Z M 304.81 424.58 303.57 425.65 302.75 426.63 301.69 429.9 301.17 430.97 299.74 433.41 299.23 434.47 299.23 435.21 300.26 436.11 303.05 435.71 303.87 436.12 306.96 438.58 308.45 441.04 309.52 443.89 311.65 446.73 314.49 448.86 318.05 449.93 317.69 445.31 316.27 442.82 313.79 441.46 311.34 439.78 310.27 437.59 309.54 435.05 309.34 434.89 309.34 434.31 308.51 431.77 308.82 430.54 309.03 430.37 309.03 429.96 308.9 428.27 308.37 425.96 307.52 425.52 306.1 424.18 305.38 424.18 304.81 424.58 Z M 277.21 443.33 277.07 441.77 276.36 442.05 275.79 442.83 277.21 443.33 Z M 262.5 433.09 263.42 432.81 264.99 433.02 267.12 433.02 267.97 432.17 267.76 430.68 265.55 430.89 264.56 431.67 263.78 431.96 262.85 431.81 260.79 432.1 261.15 433.02 262.5 433.09 Z M 285.36 455.97 289.62 456.33 293.18 458.1 292.11 455.26 292.11 452.42 290.69 449.93 285.71 449.93 283.23 453.48 285.36 455.97 Z M 215.71 461.91 214.64 463.9 214 464.61 213.79 465.18 216.92 464.68 216.49 463.97 216.99 462.91 217.34 462.69 217.2 461.84 216.77 461.27 216.42 461.13 215.71 461.91 Z M 157.44 464.11 156.94 462.55 156.59 464.04 155.66 464.75 155.95 465.32 157.08 465.54 157.44 465.04 157.44 464.11 Z M 141.39 481.94 142.94 483.42 143.97 483.33 144.28 483.58 145 483.58 146.34 483.17 150.99 479.89 153.26 479.07 164.19 475.87 166.25 474.64 166.77 473.98 166.98 472.18 166.46 470.29 165.43 469.06 165.22 468.49 165.22 467.26 164.71 466.85 164.19 466.85 163.99 466.6 163.68 466.85 159.86 466.85 159.24 467.42 159.04 469.88 157.69 472.75 154.08 476.04 152.84 476.44 151.81 477.02 147.17 478 144.59 479.48 142.74 480.13 141.7 480.87 141.39 481.94 Z M 198.09 475.56 199.51 475.7 200.22 475.49 200.29 474.28 200 473.28 198.94 473.07 198.01 473.64 196.66 474.56 196.88 475.13 198.09 475.56 Z M 158.1 483.5 156.35 484.32 155.32 485.14 154.6 485.96 154.49 486.45 154.39 487.6 154.49 488.67 155.62 491.21 155.62 493.18 155.73 493.75 156.24 494.74 158 497.04 158.1 497.53 158.51 497.94 159.44 499.99 161.71 501.96 164.18 503.76 165.94 504.66 167.79 505.32 170.78 505.98 172.13 506.06 174.19 505.73 174.71 505.49 176.15 505.49 176.77 505.32 178.01 504.75 179.04 504.01 179.35 503.6 179.55 503.11 179.66 502.04 179.76 497.12 179.55 496.05 178.94 494.5 177.29 492.12 175.64 490.39 173.68 488.92 171 487.27 165.84 484.65 163.47 483.75 160.79 483.17 158.1 483.5 Z M 75.81 503.64 73.89 503.14 72.11 503.93 71.05 504.71 70.98 506.2 71.69 507.34 72.61 507.91 74.17 508.26 75.03 507.98 75.59 507.12 76.66 506.7 77.44 505.7 76.94 504.71 75.81 503.64 Z M 271.31 460.89 272.23 461.1 272.87 460.96 272.8 460.25 272.23 459.54 270.67 458.97 270.24 459.25 270.6 459.89 270.74 460.53 271.31 460.89 Z M 389.72 452.55 390.88 453.48 392.66 452.06 393.06 449.45 394.08 447.8 397.28 446.73 398.34 443.53 396.33 444.19 391 445.54 388.44 446.01 387.37 447.64 387.69 449.22 387.59 451.27 388.23 451.98 389.72 452.55 Z M 489.05 391.54 488.23 393.43 487.92 394.83 487.92 395.48 488.74 396.06 490.5 395.65 490.8 395.89 494.42 396.3 495.96 396.71 496.17 396.96 496.99 396.96 497.2 397.13 499.76 397.9 501.68 397.53 504.18 396.15 504.5 395.29 504.5 393.91 503.76 392.31 502.05 390.33 500.93 388.89 500.83 387.3 501.66 384.86 502.32 383.56 502.85 382.66 500.29 382.82 498.8 383.3 497.15 384.84 494.96 385.75 493.63 387.62 489.78 390.56 489.05 391.54 Z M 665.91 259.18 665.01 258.91 663.35 259.07 660.37 259.82 658.08 261.26 659.89 264.29 661.12 264.56 661.7 265.09 661.97 265.41 662.34 265.68 662.82 265.52 663.89 265.36 664.53 265.04 665.06 264.83 665.97 264.29 665.49 262.75 665.97 261.04 665.91 259.18 Z M 633.29 229.69 631.87 229.62 629.39 230.26 627.68 231.25 628.18 233.38 630.45 235.87 633.08 236.01 634.79 234.59 635.07 232.67 635.02 231.31 634.29 230.33 633.29 229.69 Z M 320.65 259.26 322.2 258.69 322.72 258.71 323.87 257.56 324.4 255.42 324.14 253.2 322.09 251.25 321.37 249.61 320.37 243.39 316.11 241.05 312.86 240.19 310.94 242.7 309.82 245.37 310.08 248.67 310.6 250.15 311.47 253.47 312.64 255.92 313.44 257.79 314.14 259.01 315.47 259.44 316.73 259.67 320.65 259.26 Z" fill-rule="evenodd"/>
</g>
</svg>