<?xml version="1.0"?>
<svg xmlns="http://www.w3.org/2000/svg" version="1.2" baseProfile="tiny" width="800" height="683" viewBox="0 0 800 683" stroke-linecap="round" stroke-linejoin="round">
<g id="isabellalake">
<path d="M 281.84 454.62 283.39 456.8 284.42 457.6 284.73 457.69 285.97 458.06 287.23 458.13 288.4 457.9 290.56 457.67 291.78 457.41 293.51 456.41 295.48 455.04 299.56 451.44 300.54 451.02 302.13 450.52 304.95 449.57 306.96 448.27 309.59 445.59 310.01 444.63 310.52 444.4 310.76 444.02 312.12 442.87 313.76 440.46 314.55 439.58 315.87 438.59 318.4 434.42 318.16 433.81 317.55 433.46 317.41 433.12 318.49 431.09 318.54 430.14 318.21 428.87 318.82 427.99 319.24 427.69 320.46 427.65 322 427.84 323.88 428.38 325.24 429.07 325.85 430.06 326.97 431.51 328.52 432.85 329.69 433.58 331.1 434.08 332.46 434.04 333.96 433.39 334.89 432.47 335.6 431.44 336.06 429.79 336.16 428.11 338.83 425.05 342.3 422.3 344.59 420.04 346 418.93 347.17 418.43 348.3 418.32 352.47 418.82 353.45 418.59 353.73 418.36 354.72 417.78 357.62 416.79 363.58 415.91 366.76 415.11 370.23 414.04 371.17 413.96 373 414.11 391.04 412.16 392.49 411.55 393.38 411.59 395.07 411.13 397.6 410.86 403.37 410.71 404.54 410.71 405.34 411.09 407.35 411.63 410.07 412.13 411.66 412.28 412.41 412.09 414.05 411.82 416.63 411.82 423.05 411.63 425.54 411.86 428.91 412.78 434.96 416.76 435.75 417.06 436.55 417.14 438.38 417.06 442.74 418.21 444.24 418.59 445.74 419.05 449.25 418.63 450.28 418.63 454.73 419.55 456.24 419.66 458.72 419.47 459.7 419.7 462.52 421.35 464.76 423.34 467.72 425.59 470.62 427.28 471.89 428.46 473.81 429.46 474.51 430.38 475.96 431.49 476.95 432.06 479.01 432.71 480.04 433.28 481.49 434.2 483.74 436.23 486.13 437.53 488.33 438.52 490.02 439.56 491.8 440.44 492.41 440.36 493.63 439.56 495.74 437.34 496.73 436.04 497.52 434.55 499.96 432.25 500.34 431.57 502.12 430.15 504.09 428.77 505.63 427.17 506.48 426.59 507.6 426.21 508.54 426.14 510.18 426.48 513.13 427.71 515.62 428.2 516.65 428.74 518.33 429.31 519.69 429.43 520.82 429.28 523.16 428.43 523.72 428.59 526.11 429.2 528.41 429.32 528.61 429.31 529.91 429.28 530.71 429.2 532.58 428.63 533.8 428.82 536.24 429.66 540.88 429.36 543.69 429.39 545.09 429.89 549.36 432.8 550.81 434.14 551.65 435.4 552.4 436.17 553.48 437.81 554.79 439.11 555.96 439.92 557.98 440.79 559.48 441.14 561.35 441.22 564.73 441.06 566.27 441.29 568.34 441.72 571.38 441.98 572.69 442.29 574.05 443.06 575.27 443.55 577.15 444.01 577.99 444.32 578.46 444.78 580.05 447.34 582.11 451.17 583.19 452.5 584.69 453.23 586.89 454 589.84 454.73 591.01 454.84 596.12 452.81 597.72 452.62 599.73 451.97 601.56 452.05 605.85 453.33 606.2 453.43 606.95 453.74 609.76 454.65 614.96 455.46 615.38 455.46 618.34 455.61 620.96 455.61 624.29 455.16 628.13 454.58 630.99 454.74 631.93 454.47 634.41 454.2 637.5 455.43 638.82 455.58 639.52 455.39 640.32 454.7 640.88 454.44 641.82 454.28 642.85 454.47 645.28 455.39 646.74 456.24 648.33 457.58 648.84 458.42 649.36 459.83 649.45 461.29 649.36 463.12 649.73 464.88 649.36 466.79 649.21 470.58 646.96 474.63 645.83 477.73 645.93 478.8 647.61 477.73 649.54 475.86 651.88 473.6 652.4 473.41 656.01 472.23 657.04 471.54 660.56 467.18 662.2 465.5 665.34 463.2 668.1 460.83 670.5 458.23 671.15 457.93 672.56 457.58 681 453.57 682.36 452.73 689.53 446.42 690.33 445.24 691.22 442.75 691.64 442.22 693.61 440.76 695.53 439.77 697.32 438.51 697.79 437.86 698.25 436.64 698.58 435.72 699.8 434.95 701.26 433.5 702.24 432.89 704.54 432.51 707.91 431.67 714.47 430.56 715.55 430.6 715.27 429.8 717.24 429.76 717.76 429.45 717.99 429.15 718.27 428.31 718.79 428.27 719.12 428.5 719.16 429.26 719.4 429.72 719.3 430.64 716.21 431.71 717.61 431.98 719.21 431.67 720.29 431.75 722.35 432.82 724.69 433.55 728.11 435.2 731.2 436.84 733.45 438.49 734.67 438.99 736.68 439.64 737.95 440.21 740.57 442.2 740.7 442.24 740.7 442.28 740.68 442.38 747.84 446.88 754.18 449.82 760.79 452.49 767.22 456.8 772.83 460.84 775.21 464.79 774.39 468.83 770.71 468.56 767.77 469.57 767.87 472.33 769.98 475.17 770.14 475.29 769.99 475.38 769.95 475.84 770.46 477.03 770.84 478.67 770.91 478.72 771.49 479.17 772.24 479.51 776.6 480.12 778.98 480.32 780.17 483.35 780.91 487.57 780.45 490.88 779.32 493.01 774.48 493.54 770.62 492.72 768.22 492.52 767.66 492.21 768.42 490.7 767.5 490.33 766.76 489.04 765.39 489.04 765.02 491.89 764.11 493.84 762.88 494.31 762.74 494.36 763.18 495.47 762.81 497.03 760.61 499.79 759.69 500.89 760.24 502.64 761.71 503.74 761.71 507.69 761.71 513.93 762.26 515.86 762.91 517.33 764.1 518.16 769.7 516.23 771.5 516.54 773.01 516.97 774.02 516.69 774.02 515.46 774.94 515.06 776.5 515.5 779.35 515.22 782.28 513.84 785.22 512.1 788.44 511.27 790.55 512.01 790.46 512.92 788.99 513.66 787.89 514.58 786.88 516.97 784.88 517.37 782.21 517.52 780.01 517.98 777.39 518.93 776.19 519.36 774.81 519.86 773.59 521.05 772 522.19 769.84 524.38 766.86 526.06 765.2 526.33 765.2 528.08 765.75 530.1 765.94 533.5 769.34 534.51 775.47 533.9 779.35 536.35 782.01 538.37 781.18 539.93 780.72 541.95 781.18 544.25 781.83 546.03 782.01 546.54 782.84 546.82 783.66 547.28 783.7 547.34 783.94 547.74 783.48 548.84 782.01 550.31 781.02 551.68 779.94 552.44 778.49 554.13 777.46 555.16 776.68 559.49 774.66 562.89 773.65 568.31 773.19 571.34 774.05 572.83 774.19 573.36 774.8 574.01 775.18 574.89 775.69 575.16 776.07 575.16 777.15 574.66 777.89 574.51 781.64 574.43 787.83 573.82 788.48 574.05 789.47 574.89 790.36 575.88 791.2 576.38 792.23 576.68 793.5 576.68 794.91 578.33 795.56 578.71 798.45 580.25 799 581.72 797.35 583.19 796.55 583.74 794.78 584.94 792.94 587.51 789.91 588.61 785.87 589.35 782.28 588.43 778.34 588.34 772.83 588.34 767.41 588.89 766.49 590.26 767.68 590.91 771.17 590.08 772.73 590.17 772.94 592.37 772.52 592.99 766.58 593.94 763.27 595.13 761.05 598.55 760.14 598.94 759.11 599.74 750.62 603.64 749.31 603.98 745.23 605.89 744.2 606.47 739.84 607.38 735.44 608.6 727.89 612.43 725.36 614.18 724.71 615.02 724.05 616.06 723.58 616.55 722.22 617.32 720.44 618.01 718.24 619.23 717.11 620.22 715.66 622.4 714.63 623.39 712.33 625.08 710.22 626.57 709.56 627.68 708.77 627.94 708.11 628.02 705.44 629.43 703.61 629.93 703.1 630.43 702.82 631.08 702.39 631.42 701.6 631.34 700.8 631.8 700.33 632.3 700.14 632.99 700.61 633.64 700.7 634.17 700.47 634.82 699.91 635.4 698.6 635.86 697.52 635.59 697.14 635.13 696.58 633.9 696.35 632.38 694.85 629.09 693.49 627.25 693.4 626.79 693.68 625.64 693.26 624.38 693.54 623.58 693.36 622.97 692.84 622.39 690.92 620.78 690.5 620.36 690.22 618.26 689.47 616.39 687.51 612.83 684.84 609.42 682.12 607.17 681.37 606.44 680.72 605.52 678.99 603.57 674.63 599.93 673.18 599.17 668.77 597.71 667.93 597.41 665.64 596.03 664.61 595.03 663.81 593.81 660.11 588.49 658.43 586.85 657.58 586.24 656.51 585.7 653.88 584.86 652.76 584.63 652.06 584.74 651.07 585.01 645.91 589.71 645.02 590.09 642.49 590.32 640.85 591.2 639.77 592.23 638.79 593.69 637.62 595.79 637.1 597.55 636.82 601.53 637.24 605.92 638.03 609.21 640.75 614.42 641.54 615.53 643.23 617.36 643.37 617.78 642.95 620.69 642.99 621.53 643.55 623.33 643.6 624.13 643.04 627.84 642.94 633.46 643.64 635.53 643.4 637.9 643.5 640.04 645.23 648.38 645.74 649.83 649.3 656.07 650.23 657.37 650.37 657.9 651.59 659.93 651.92 660.66 651.73 662.27 652.62 665.94 653.74 668.31 654.91 669.04 655.29 669.49 655.85 671.33 655.94 672.71 655.57 675.04 655.7 676.57 656.08 677.76 656.08 678.48 655.84 678.9 654.81 679.71 654.34 680.28 653.69 681.66 653.17 682 652.98 681.54 651.58 681.54 651.25 681.2 650.92 680.47 649.75 679.21 649.57 678.14 647.98 675.88 647.65 675.61 646.01 675 645.63 674.62 645.54 672.78 645.26 672.17 643.11 670.64 642.17 669.34 641.23 668.65 640.86 667.65 640.25 667.31 638.8 667.46 637.81 667.23 637.58 666.93 637.58 666.35 636.41 664.44 635.15 663.18 634.72 662.07 629.24 659.16 623.77 655.37 622.6 654.07 621.99 653.8 620.96 653.53 620.07 653.19 617.3 652.58 615.99 652.19 615.43 652.19 614.82 651.81 614.16 651.66 613.13 650.78 611.77 650.55 610.6 650.28 607.37 648.33 606.95 647.68 606.29 647.72 603.95 647.14 602.64 645.92 602.17 645.69 601.8 645.61 599.69 646.15 597.86 645.76 596.27 645.07 595.61 644.61 593.88 644.27 593.08 643.81 592.57 643.28 591.73 643.39 589.01 642.36 587.6 642.74 586.48 642.05 584.37 641.59 583.39 641.28 581.79 641.21 579.69 640.71 578.23 640.33 576.03 639.37 575.52 639.14 574.77 639.1 573.55 639.37 572.57 639.29 569.94 638.49 569.29 638.11 568.87 637.53 568.4 637.3 567.23 637.11 566.34 637.15 563.62 636.27 562.31 636.69 561.14 636.76 559.45 636.04 558.23 636.15 557.2 635.81 556.31 635.73 555.47 635.46 554.34 635.39 552.52 634.96 551.81 634.66 551.35 634.62 550.5 634.85 549.1 634.96 548.53 634.58 548.07 634.5 545.96 634.96 544.27 635.12 539.63 635.34 538.41 635 533.12 635.53 530.92 635.3 530.03 635 529.51 634.65 527.92 634.42 527.4 634.77 526.61 634.35 524.83 633.96 523.94 633.58 523.05 633.43 522.58 633.2 520.28 632.85 519.86 632.97 518.97 633.62 517.94 633.66 517.33 634.31 517 634.5 513.58 634.92 512.04 634.65 510.35 634.08 506.37 635.34 504.54 636.22 502.76 636.71 500.46 636.6 499.06 636.79 497.28 636.86 492.73 636.52 490.02 637.13 488.94 637.32 487.07 637.09 486.13 637.28 485.19 637.32 484.35 637.59 482.38 637.44 481.44 637.89 480.88 637.67 478.96 637.66 477.84 637.59 476.76 636.98 476.34 636.63 475.63 635.22 474.28 629.33 474.14 627.68 474.18 626.76 475.07 624.7 475.54 623.82 475.59 623.05 474.75 619.54 474.84 618.2 475.78 614.87 476.01 612.92 475.87 611.89 475.12 610.09 474.09 609.02 473.34 608.41 472.41 608.1 469.92 607.83 466.69 608.02 465.43 607.95 464.3 608.14 463.18 608.56 461.63 609.44 460.51 609.59 459.1 609.74 457.46 609.25 454.09 608.71 451.75 608.67 449.5 608.82 448.18 609.02 444.15 610.54 436.19 612.65 432.21 614.33 431.22 614.37 430.19 615.17 429.3 615.59 428.13 615.97 427.57 615.93 426.35 615.36 425.27 614.56 423.87 613.95 421.52 613.26 412.11 611.19 409.67 610.2 408.27 609.51 406.58 608.09 405.36 606.56 404.61 604.92 403.86 603.96 402.93 601.82 402.04 600.52 399.65 598.07 398.52 596.73 398.24 595.16 397.91 592.37 393.74 584.88 392.9 583.08 391.64 577.27 391.73 573.02 391.45 570.65 391.12 569.81 387.51 567.05 386.39 565.91 385.12 564.3 384.23 563.42 383.39 562.96 381 562.43 379.13 561.74 377.63 561.66 377.25 561.47 376.36 560.21 375.61 559.56 374.68 559.37 373.79 559.37 373.13 559.67 372.19 560.4 370.27 562.35 366.52 563.27 365.02 563.42 364.41 563.31 363.38 562.66 362.35 562.46 356.35 558.6 349.61 555.81 343.28 552.63 342.44 552.1 341.31 551.72 339.49 551.33 337.28 551.14 334.8 551.14 331.05 551.6 329.93 551.98 328.48 552.06 328.34 552.52 327.96 552.98 326.41 553.51 325.66 553.86 322.76 554.43 321.03 554.93 320.23 555.31 319.48 556.04 319.06 556.8 318.35 557.38 317.37 557.8 316.62 557.87 315.78 557.68 314.93 557.64 313.2 558.22 310.44 559.71 308.14 560.36 307.11 560.9 306.5 561.39 303.74 563.5 301.25 564.38 300.5 564.8 299.94 565.52 299.38 565.87 299 566.98 298.44 567.17 297.04 566.9 296.52 567.17 296.15 567.97 295.63 568.35 294.97 568.16 294.55 568.24 294.65 568.81 294.55 569.35 294.13 569.69 293.57 569.81 293.05 570.57 291.74 571.22 290.1 571.18 286.17 571.61 286.02 572.71 285.46 572.14 284.57 572.29 284.15 572.79 284.01 573.17 284.2 573.52 282 572.87 281.57 573.14 281.06 573.06 280.54 573.21 277.26 572.1 276.7 572.52 276.14 572.52 275.81 573.06 275.3 572.91 274.83 572.41 274.36 572.45 274.3 572.43 273.94 572.33 272.9 572.53 272.16 571.91 271.41 572.03 270.28 571.8 268.97 571.8 263.44 570.96 262.13 570.42 261.75 570.5 261.66 570.84 259.93 570.84 259.46 570.65 258.76 570.92 257.35 570.42 256.22 570.19 253.51 570.46 252.94 570.35 252.71 570.92 252.1 571.07 252.2 571.57 252.9 571.65 253.23 572.14 254.73 572.49 255.1 572.91 255.15 573.64 254.82 574.29 254.3 574.52 253.27 574.63 252.48 575.28 252.1 575.36 251.26 575.05 250.27 574.86 249.67 575.05 249.15 575.89 247.56 575.47 246.29 575.32 245.36 575.62 244.23 576.43 243.34 576.93 243.29 577.42 243.62 579.07 244.51 581.32 244.51 581.97 244.09 583.27 243.67 583.7 241.23 584.27 240.81 584.61 240.44 585.15 239.31 585.76 238.61 585.99 238.24 585.91 236.74 585 235.61 585.07 233.64 584.77 231.49 585.46 230.41 585.99 230.27 586.34 229.89 586.64 228.68 587.14 227.97 587.22 226.15 586.57 224.88 586.64 225.02 587.03 224.98 587.67 224.6 588.02 224.09 588.13 223.34 588.59 222.31 588.82 221.74 589.21 221.13 589.43 220.57 590.58 220.06 591 219.4 591.04 218.09 590.7 216.21 589.97 212.84 589.32 211.53 588.98 209.37 588.9 206.98 589.63 206.19 589.44 199.49 590.47 197.19 591.31 196.07 591.89 194.29 593.19 192.88 594.76 191.48 595.67 190.93 596.32 190.87 596.4 190.54 599.42 190.12 600.49 188.11 602.06 187.36 602.75 187.12 603.13 187.03 604.32 187.08 604.93 186.8 605.62 186.61 606.65 186.23 607.68 185.44 608.64 184.55 609.25 183.09 609.83 182.11 609.98 180.14 609.83 180.14 610.21 180.85 611.74 180.66 612.16 180.14 612.01 180.19 612.62 179.67 612.77 179.21 612.77 178.6 612.31 178.93 613.27 179.44 614.15 182.21 616.52 182.44 616.86 182.25 617.17 179.54 617.82 178.51 618.62 178.46 619.12 181.04 620.57 182.21 621.6 183.89 623.63 183.85 624.36 183.29 625.54 183.15 627.15 182.54 628.95 182.4 629.87 182.44 631.28 182.3 632.35 181.13 635.6 181.32 636.21 180.99 636.83 181.09 637.17 180.71 637.71 179.82 638.13 179.31 637.97 178.84 637.29 178.27 637.1 177.9 636.98 174.86 637.1 173.64 637.36 170.5 638.74 165.77 640.65 163.05 641.8 162.44 642.41 161.83 643.87 161.18 645.09 159.82 645.63 158.65 646.01 156.12 646.24 155.18 646.55 154.29 647.58 154.25 647.88 154.9 648.42 155.14 647.77 155.75 647.2 156.17 647.58 156.03 649.57 154.2 651.9 153.73 652.24 152.89 652.55 152.37 653.01 151.2 654.77 151.06 655.92 151.06 657.41 150.6 659.05 150.03 659.78 149.57 660.05 148.21 660.32 146.66 660.47 146.33 661.04 146.52 661.77 146.15 663.07 145.77 663.41 145.35 663.6 144.74 663.49 143.71 662.92 141.42 663.72 141.23 664.18 141.51 664.94 141.51 665.56 141.23 666.21 140.34 667.01 140.2 667.51 139.03 668.69 135.66 668.77 134.34 669.04 133.88 669.54 132.8 672.06 132.66 673.13 131.44 673.9 130.04 675.12 129.99 675.58 130.27 676.27 129.24 676.11 114.67 671.49 92.13 664.04 91.62 663.43 92.55 661.86 93.26 659.6 94.19 658.57 94.61 657.8 96.16 656.05 96.35 655.47 97.09 654.52 100.42 648.13 101.12 645.79 101.96 644.53 103.09 643 103.37 642.5 104.82 638.11 105.29 637.65 105.99 636.42 106.69 634.66 108.66 632.48 109.45 631.37 110.76 630.46 111.32 629.19 112.5 627.47 114.23 623.3 115.91 620.7 116.43 619.48 116.19 617.64 116.33 617.07 117.18 615.39 117.46 614.54 117.78 614.31 120.45 611.14 121.62 609.07 122.04 607.09 122.14 606.21 122.61 605.06 125.28 600.62 126.96 598.4 127.76 597.03 129.54 595.84 130.57 594.46 130.8 593.74 130.61 590.83 131.08 590.18 132.49 589.03 133.19 588.15 133.14 586.2 133.75 583.87 135.01 580.92 135.76 577.9 135.81 576.03 135.67 575.64 135.39 575.22 134.31 574.73 133.93 574.34 133.04 572.59 131.59 571.44 129.11 570.71 128.68 570.71 127.8 571.4 128.08 572.4 128.03 573.2 127.52 574.38 126.77 575.07 124.89 576.11 124 576.72 123.86 577.41 124.19 578.71 125.27 580.58 125.6 581.19 125.55 581.96 124.61 582.76 124.05 585.13 124.01 586.51 123.77 586.97 122.41 587.58 121.38 588.19 120.73 589.11 120.31 590.26 120.31 591.37 120.49 592.4 119.56 594.62 119.14 596.03 116.47 598.37 116.09 599.32 116.19 600.13 116.8 601.35 117.97 602.92 117.69 603.95 117.12 604.3 114.45 604.49 113.24 604.95 112.67 605.48 112.35 606.51 111.18 607.85 110.94 608.31 111.04 610.68 110.57 610.87 110.15 610.84 108.65 609.69 107.33 608.2 105.23 606.36 104.85 606.21 104.19 606.21 103.26 606.55 102.65 607.17 102.18 607.51 100.82 607.97 99.18 609.04 98.43 609.77 98.11 610.34 97.36 610.99 96.7 611.95 96.09 613.75 95.67 614.21 93.94 614.25 92.25 615.28 91.74 615.28 91.13 615.51 90.14 616.77 89.02 617.5 89.11 617.76 90.19 618.49 90.85 619.06 91.55 620.59 91.64 621.28 92.11 622.12 93.75 622.96 94.08 623.96 94.18 626.22 93.24 626.94 93.05 627.82 93.05 628.4 93.38 628.93 93.94 629.39 95.35 629.89 96.01 630.42 96.19 630.84 95.82 631.49 95.68 632.72 95.4 633.1 94.37 633.71 93.01 634.13 92.12 634.13 91.79 633.71 92.21 632.68 92.07 632.03 91.74 631.42 90.99 630.84 89.68 630.5 90.2 630.04 89.82 629.85 89.07 629.96 88.09 630.62 87.95 630.96 88.28 631.27 87.62 631.99 86.78 633.6 84.58 634.79 83.69 635.09 83.36 635.28 82.8 636.05 81.95 636.51 80.83 637.65 80.64 638.23 81.58 638.65 82.52 639.87 83.17 640.14 84.91 640.33 85.84 640.67 86.31 641.02 86.88 642.09 87.2 642.36 88.53 642.77 88.94 642.89 89.2 643.05 89.69 643.35 90.53 644.38 90.72 645.11 89.45 647.37 88.61 648.4 87.21 649.55 86.41 649.81 85.94 649.43 86.03 647.75 85.14 646.87 83.6 646.79 82.66 645.23 80.41 644.81 79.85 645.15 79.1 645.46 77.37 646.8 76.15 648.21 75.54 648.48 74.65 648.25 74.32 647.91 74.6 645.38 74.37 644.96 73.62 644.58 72.96 644.46 72.07 644.58 71.14 645.5 70.48 645.35 69.45 644.66 69.45 645.54 70.11 646.26 69.64 646.26 68.93 645.54 68.61 644.89 67.67 643.78 67.25 643.47 66.64 643.47 64.95 643.05 64.53 643.01 64.25 643.55 62.56 643.7 60.64 642.59 59.7 642.71 58.58 642.29 57.92 641.87 56.99 642.06 56.56 641.64 55.77 641.87 55.06 641.75 54.03 641.3 52.96 641.11 51.41 641.18 50.47 640.99 49.07 641.18 47.43 641.64 46.91 642.14 46.3 643.25 46.16 644.01 45.65 645.16 44.85 646.39 44.76 646.73 44.2 647.15 44.13 647.19 43.51 647.54 43.12 647.76 40.73 648.41 39.09 649.33 35.77 648.88 27.94 647.46 11.54 644.64 10.56 644.37 9.86 643.84 10.23 643.19 10.75 641.69 10.98 641.35 12.06 640.7 12.34 640.32 12.48 639.28 12.9 638.25 14.68 636.99 14.68 636.57 14.12 635.61 13.65 635.08 12.33 634.73 13.08 633.39 15.89 632.63 16.31 632.17 16.74 631.94 17.16 631.37 17.77 629.8 18.19 629.07 18.19 628.77 17.58 627.92 17.39 627.35 16.78 627.66 16.27 627.5 16.08 627.2 16.03 626.62 14.06 626.55 12.28 625.13 11.16 625.21 9.52 624.14 9.94 620.62 9.23 619.48 8.67 619.4 7.97 619.02 8.06 618.71 10.78 617.33 11.43 616.61 11.57 615.8 11.95 615.19 11.76 614.88 11.95 614.43 11.95 613.78 12.65 612.05 12.61 611.64 12.6 611.59 11.71 611.06 8.85 610.22 8.06 610.26 3.84 612.06 1.12 613.01 1.31 611.98 2.29 610.49 3 608.04 2.85 607.32 2.9 606.9 3.42 606.05 4.16 605.14 3.57 603.6 3.46 603.3 3.51 602.54 3.93 601.5 5.01 600.55 5.89 600.13 6.36 599.86 6.6 598.98 5.99 598.56 5.8 596.76 6.22 596.57 7.02 596.57 7.44 596.11 9.31 595.96 10.25 595.57 11.09 594.69 11.51 593.54 12.08 593.47 12.03 592.28 12.26 591.78 13.01 591.1 13.99 589.57 14.56 588.95 14.79 588.53 14.6 587.69 13.57 586.89 13.66 585.59 13.38 585.21 13.01 583.68 11.13 582.38 10.9 582.11 10.76 581.61 9.73 580.92 9.42 580.16 9.3 579.85 9.02 577.87 9.07 577.37 10.94 576.14 12.02 573.62 11.78 573.2 11.13 573.01 10.19 573.2 9.53 572.97 8.69 572.4 8.03 572.51 6.77 572.44 6.48 572.36 5.83 572.21 4.99 571.63 3.77 571.1 2.55 570.98 3.02 569.61 2.69 568.88 1.94 568.04 1.42 566.74 1.09 563.53 1 562.95 1.66 563.45 2.97 565.59 6.16 569.49 7.1 569.99 8.36 570.14 9.2 569.87 9.72 569.99 10.94 569.99 11.59 569.79 12.06 569.49 12.3 569.07 12.25 568.49 12.53 567.92 13.05 567.73 14.22 567.81 14.78 568.91 14.55 569.37 14.55 570.6 14.92 571.44 15.06 572.2 15.67 573.01 15.67 573.77 16.38 574.31 16.94 575.03 18.39 575.76 19.38 576.56 21.39 577.82 21.86 577.94 24.34 578.05 25.42 577.82 26.54 577.78 28 578.47 28.28 578.93 28.51 580.38 29.03 581.38 28.89 582.03 29.4 582.37 29.69 581.99 30.16 581.8 33.76 581.15 34.89 580.84 35.73 580.95 36.43 580.8 36.81 580.46 37.7 580.3 39.34 579.69 39.9 580.34 41.49 582.75 41.68 583.36 41.54 583.78 41.92 584.55 42.67 585.04 43.98 585.12 44.35 585.35 45.15 585.54 46.41 585.39 46.88 586.11 46.42 586.99 46.6 587.37 47.73 588.25 47.87 588.71 47.73 589.36 47.96 589.9 48.71 590.78 48.76 591.24 48.62 591.7 47.64 593.38 47.68 593.76 48.2 594.14 49.65 593.95 51.01 593.45 52.37 592.84 53.07 592.27 53.17 591.58 52.98 590.43 52.27 589.78 52.32 589.36 53.02 588.63 53.58 587.49 53.35 586.49 53.21 584.89 52.83 584.62 51.66 584.35 50.21 584.31 49.27 584.05 48.43 583.13 48.57 582.78 49.51 582.21 49.97 581.67 49.83 581.06 50.07 580.68 51.47 580.3 51.85 579.99 51.05 579.23 50.35 578.19 49.27 577.66 49.08 577.09 49.69 577.2 50.02 577.39 51.14 577.43 52.22 578 53.49 578.46 54.28 578.31 55.83 577.5 56.25 576.97 56.25 576.66 55.97 576.39 54.23 575.59 53.25 574.94 52.97 574.41 52.88 573.87 53.11 573.34 53.62 572.99 54.84 572.88 55.73 573.34 56.25 573.14 56.9 573.26 57.84 573.22 57.89 572.3 57.51 571.69 55.83 570.62 55.64 569.93 56.06 569.28 56.62 568.94 57.98 568.82 58.4 568.21 60.18 567.1 60.65 566.37 60.41 565.84 61.96 565.61 64.12 564.69 66.83 564.88 67.77 565.22 68.47 565.68 68.52 565.99 67.63 567.1 67.44 567.9 67.63 568.78 67.87 569.05 68.29 569.12 68.9 568.7 69.36 567.94 69.55 567.02 69.36 566.22 70.11 563.92 69.88 563.39 68.38 562.28 68 561.67 68.05 561.32 68.47 560.9 69.22 560.44 71.23 558.41 71.84 558.3 71.75 558.84 71.47 559.33 71.47 560.67 71.85 561.02 72.74 561.36 74.19 560.75 75.64 560.71 77.7 561.17 78.17 561.51 78.26 562.05 79.01 563.31 79.58 563.8 80.09 563.69 80.23 563.27 80.05 562.62 80.09 561.13 80.98 560.55 82.01 560.48 85.71 561.16 86.51 561.05 86.98 560.67 87.12 560.32 87.17 559.48 87.4 558.98 87.35 558.6 86.84 558.03 84.45 556.5 82.9 556.46 83.18 555.96 83.18 555.66 82.85 555.51 82.24 555.81 81.07 555.62 79.76 554.17 78.82 553.36 77.93 553.14 78.07 550.92 78.77 550.42 78.68 549.88 77.93 549.85 78.35 549.39 79.1 549.35 79.71 549.5 79.95 550.3 80.23 550.61 80.74 550.73 81.82 550.61 82.29 550.88 83.04 552.25 83.84 552.48 84.54 551.83 84.68 550.88 84.26 549.77 84.91 549.35 86.22 549.04 86.79 547.7 87.53 547.05 88.14 546.82 89.46 546.74 90.91 547.81 90.68 549.69 91.19 550.03 92.88 550.42 93.39 550.76 93.3 551.07 92.36 552.1 92.33 552.29 92.27 552.6 92.36 553.44 92.58 553.54 92.93 553.7 94.61 553.86 95.04 553.7 95.46 553.05 97.75 552.82 99.53 551.75 100.75 550.57 101.5 550.3 101.78 549.69 100.42 549.19 100 549.15 97.52 549.73 97.05 549.69 96.25 549.34 95.45 548.27 94.8 546.82 94.8 546.36 95.59 544.49 96.34 543.84 96.25 543.22 96.62 542.08 97.19 541.16 97.14 540.78 96.53 539.97 96.39 539.29 96.62 538.63 97.61 538.29 97.98 537.83 98.03 537.3 98.31 536.3 99.2 535.46 99.48 534.43 100.09 533.93 100.98 533.47 101.91 533.39 102.1 533.09 101.77 532.25 102.24 531.86 103.04 531.67 107.26 532.78 107.58 532.32 107.91 530.72 108.29 530.45 108.9 530.22 110.35 529.45 111.14 528.8 111.24 528.15 110.58 527.08 109.08 525.86 108.24 525.9 107.39 525.63 107.35 525.02 108.28 524.44 110.39 522.72 111.89 521.8 112.64 521.08 112.87 520.5 113.34 520.27 113.77 520.54 113.67 521.27 112.13 523.33 112.22 523.71 113.67 525.74 114.56 525.93 116.72 525.7 118.97 525.97 119.95 525.32 120.33 524.78 120.28 524.25 119.95 523.75 119.11 522.95 118.4 522.07 118.78 521.19 119.15 520.69 120.42 519.16 120.56 517.82 121.26 516.94 121.21 516.56 119.9 515.64 118.49 515.76 117.7 515.41 116.62 515.57 116.48 515.15 117 514.38 117.74 514.11 118.73 514.11 119.34 513.92 123.09 511.66 123.79 510.82 123.93 510.33 124.63 509.64 125.66 509.14 127.26 508.76 127.91 508.34 128.14 507.92 128.14 506.73 128.71 506.16 130.11 505.32 130.49 504.51 130.35 504.13 129.83 503.86 128.42 503.67 127.3 503.14 126.46 503.44 125.52 503.52 122.24 502.98 119.85 502.41 119.61 501.99 121.72 500.99 123.83 500.61 124.53 499.73 124.96 499.5 126.27 499.5 128.33 499.85 128.61 499.23 129.88 498.74 131.23 498.39 131.35 498.16 131.47 497.93 131.28 497.36 131.56 496.98 133.25 496.44 133.76 496.48 134.47 496.82 135.12 496.9 135.64 495.48 135.45 494.68 134.98 493.92 135.03 493.38 135.26 493.08 136.34 492.54 137.46 492.16 137.79 491.74 137.89 491.2 137.79 490.51 137.93 489.94 138.31 489.4 139.06 488.83 139.15 488.37 138.82 486.88 139.52 485.16 139.52 483.82 138.45 482.14 138.3 481.6 138.68 480.11 138.26 478.04 138.21 477.09 138.44 475.94 139.15 475.21 139.29 474.56 139.66 474.26 140.36 473.99 140.83 473.49 141.35 472.65 141.3 472.27 139.94 472.04 139.19 472.23 135.82 473.69 135.91 473.38 139 471.39 140.97 470.51 141.39 470.13 141.67 469.06 143.55 467.91 144.3 467.18 144.48 466.42 145.19 465.54 145.14 464.62 145.61 463.2 146.36 461.67 146.31 460.91 146.08 460.45 145.18 459.42 145.28 459 146.73 459.57 147.39 459.49 147.9 459.19 148.28 458.58 148.7 459 148.93 459.91 148.61 460.76 147.58 461.94 147.58 462.82 147.01 464.39 146.41 467.72 146.83 468.48 146.92 469.82 147.11 470.28 148.05 471.04 148.42 471.73 150.72 471.85 151.56 471.39 152.17 470.85 152.97 471 153.16 471.42 152.45 472.69 151.89 473.38 150.3 474.68 149.78 475.71 149.27 477.62 148.14 478.39 147.54 479.27 147.44 480.07 147.86 481.14 148.19 481.41 150.16 481.94 151.38 482.75 151.89 482.55 152.27 482.25 152.74 481.1 153.63 480.83 154.8 480.26 157.85 480.72 158.83 480.56 159.49 480.18 159.72 479.76 159.44 479.07 159.58 478.38 160.42 476.66 160.09 476.2 159.95 475.51 160.75 473.6 160.89 472.61 160.61 471.69 159.2 469.4 159.15 468.59 159.62 467.22 159.67 465.42 159.29 463.85 159.71 463.66 161.26 463.35 161.78 463.39 162.62 464.35 163.09 464.39 164.17 464.12 164.68 463.77 165.24 463.08 165.62 462.05 166.7 460.9 167.45 458.76 168.19 457.58 169.18 456.7 170.77 455.74 172.65 454.9 173.07 454.52 173.49 453.83 173.82 452.83 174.19 452.45 174.57 452.45 176.54 452.49 177.24 452.79 177.99 453.79 178.83 453.94 180.28 453.44 180.43 452.26 180.85 450.8 180.8 449.96 180.52 449.16 180.66 447.82 180.19 446.6 180.61 444.23 180.7 442.54 180.52 441.66 179.58 439.29 179.48 438.61 179.67 438.07 181.12 436.31 181.03 433.86 180.56 433.36 179.53 432.68 179.53 431.57 179.86 430.76 181.17 429.12 181.12 428.78 180.61 428.28 179.62 427.51 177.09 426.14 176.25 424.95 175.96 424.36 175.68 423.77 173.48 422.01 170.67 420.86 169.68 420.29 169.54 419.71 170.71 419.71 172.78 420.52 173.9 420.29 175.63 420.25 176.57 420.33 177.56 420.75 178.92 420.97 180.51 420.63 180.84 420.97 181.21 421.59 181.21 421.61 181.17 421.93 180.37 421.97 180.28 422.35 181.45 422.77 183.13 422.85 184.17 422.66 184.96 422.35 186.37 421.36 187.68 421.05 188.62 420.97 189.37 421.93 190.82 423.23 191.43 423.53 191.81 423.53 192.6 423.73 197.48 422.96 198.74 422.58 199.12 422.27 199.82 420.97 200.76 420.09 203.1 418.87 204.69 417.99 205.86 417.14 206.43 416.38 207.97 412.36 208.91 411.71 209.19 411.25 209.71 409.65 209.75 407.39 209.89 405.9 210.41 403.34 211.77 398.44 211.95 397.22 211.44 392.78 211.01 385.29 210.78 382.46 210.07 378.63 209.84 374.12 209.51 373.12 209.18 371.33 209.23 368.12 208.8 365.94 208.15 364.75 206.98 363.76 205.43 363.18 205.19 362.84 206.98 362.11 209.08 360.77 209.74 360.01 210.87 359.2 211.75 358.02 212.18 356.6 212.97 352.74 212.97 351.67 212.22 350.18 211.71 349.49 210.82 349.03 210.07 348.07 208.89 346.97 208.24 345.17 207.63 343.94 205.94 341.84 205.42 341.46 203.74 341.08 201.63 340.89 197.83 340.39 195.2 339.24 193.8 339.01 192.34 339.05 191.45 338.94 190.94 338.63 191.92 338.52 192.95 338.1 193.09 337.56 192.63 334.65 192.72 333.47 192.25 332.78 191.4 332.13 190.98 331.4 190.84 330.03 190.94 329.07 191.36 328.11 191.83 327.62 193.84 326.51 194.12 326.13 195.25 324.21 195.2 323.33 194.82 322.64 194.45 322.22 192.53 321.34 191.26 321.23 188.78 321 187.14 320.66 184.89 320.47 182.68 320.58 181.56 321 180.34 321.08 180.9 320.39 181.09 319.01 181.74 318.4 182.87 317.79 184.04 317.64 185.26 317.71 191.78 318.44 193.23 318.4 194.31 318.21 194.59 317.94 194.49 317.48 193.7 316.76 193.46 316.37 193.6 316.03 195.43 314.77 196.09 313.81 196.37 312.47 196.37 309.03 197.16 307.61 197.59 306.05 197.73 304.78 197.54 303.29 198.19 303.25 199.18 301.34 200.96 299.51 202.22 298.89 204.01 298.21 204.24 297.98 204.24 297.55 203.86 296.71 201.94 294.42 201.52 292.74 203.07 293.31 203.91 293.88 204.1 294.23 204.33 295.45 204.71 295.49 205.13 294.42 205.79 293.69 206.25 293.5 206.4 293.92 206.25 294.69 206.63 295.3 209.3 295.49 209.86 295.18 209.86 293.92 210.47 292.51 210.71 289.79 209.39 288.49 209.58 287.61 209.96 287.72 210.71 288.11 212.02 289.14 212.91 289.52 213.29 289.37 213.52 289.06 214.36 288.3 214.83 288.3 214.93 288.76 215.96 288.41 217.04 287.53 217.41 287.38 220.27 287.26 220.74 286.96 221.68 285.73 223.32 284.93 228 282.98 228.61 282.18 228.97 281.07 229.27 280.15 231 278.96 231.14 278.62 230.53 278.05 230.25 277.32 229.69 276.75 229.64 275.94 229.17 275.06 229.36 274.72 229.92 274.34 231.8 274.11 233.53 273.19 234.24 273.3 235.97 274.11 236.3 274.56 236.39 276.44 236.91 276.67 237.75 276.78 238.97 276.74 243.75 275.86 244.97 275.37 246.89 273.8 247.64 273.68 249.85 273.76 250.65 273.61 253.79 272.04 254.77 271.96 256.88 270.55 257.91 270.16 258.66 269.36 259.36 269.02 260.68 268.83 264.66 266.57 265.55 266.26 266.26 265.84 266.68 265.73 267.61 265.73 268.36 265.5 268.93 265.04 268.69 264.43 269.11 263.05 269.3 260.72 268.27 259.91 267.33 259.65 267.24 259.07 268.22 258.65 268.55 258.35 268.79 257.7 269.3 257.24 269.63 256.2 269.72 254.79 270.1 255.74 270.24 256.93 270.94 258.12 271.41 259.84 271.65 260.14 272.4 260.45 274.08 261.79 275.3 263.24 276.1 264.73 278.35 270.51 279.29 274.22 280.32 275.4 280.93 275.71 281.96 275.52 283.74 272.53 285.99 270.12 287.4 267.79 287.73 266.95 287.96 265.08 288.43 264.92 289.37 264.81 290.12 264.88 291.15 265.19 291.99 265.76 292.6 266.03 292.88 266.3 293.4 266.45 293.82 266.22 294.43 264.88 294.9 261.56 295.98 257.77 295.93 256.97 295.46 255.24 293.91 253.41 293.87 252.99 294.38 252.84 295.18 252.99 296.63 252.84 297.62 252.49 299.3 251.61 300.52 250.31 301.13 248.86 301.23 244.42 301.65 240.71 301.55 240.06 301.09 238.65 300.94 237.65 301.41 236.2 301.6 235.82 301.46 235.28 301.69 234.56 302.49 233.45 302.02 232.68 301.83 232.07 301.93 231.53 302.44 231.69 303.48 231.65 305.68 232.22 306.43 231.88 308.3 229.81 311.07 227.17 312.05 225.87 313.23 224.65 313.65 223.85 314.12 222.43 314.07 222.01 314.35 221.55 315.66 220.33 319.09 215.05 319.23 213.86 319.51 213.33 320.26 212.6 320.82 212.33 322.13 211.87 323.4 210.88 323.87 210.08 324.1 208.66 324.67 207.86 325.56 206.98 327.34 205.87 327.81 205.37 328.13 204.11 328.04 202.77 327.24 201.47 327.1 199.94 326.82 199.29 326.26 198.26 325.46 195.39 325.37 193.71 324.99 192.94 324.34 192.18 322.09 190.42 321.27 190.01 320.87 189.81 320.59 189.46 321.48 188.85 322.04 188.24 322.27 187.63 322.27 186.48 323.63 184.72 324.15 183.11 324.01 182.66 323.68 182.46 323.59 182.04 324.06 181.05 324.01 180.36 324.48 180.17 325.23 179.64 325.51 179.21 325.6 178.14 326.96 176.5 327.76 175.96 330.06 174.24 331.23 173.78 331.7 173.21 333.48 172.9 333.85 172.56 334.51 171.53 335.4 170.69 337.14 169.65 338.64 168.93 342.95 165.79 344.73 165.14 347.5 163.84 348.34 163.65 349.33 163.84 349.98 163.5 351.06 162.35 352.84 160.13 354.34 157.07 354.63 156.08 354.67 155.27 354.11 153.7 354.49 153.02 357.3 150.41 357.96 148.85 358.19 147.47 358.33 145.98 358.75 145.41 359.74 144.79 359.78 144.37 359.6 144.07 359.08 144.45 358.99 143.87 359.13 142.31 358.94 141.81 358.52 140.97 357.91 140.47 355.47 139.32 355.24 138.79 355.14 137.91 355.47 136.61 356.08 134.89 356.92 134.24 357.25 133.89 357.86 133.05 358.99 130.99 360.16 130.07 362.08 127.97 363.3 125.79 364.15 123.26 364.76 122.57 367.71 118.63 368.93 117.26 369.68 116.72 372.21 115.61 373.24 115.38 376.53 115.23 378.03 114.85 380 113.85 383.37 111.29 384.08 110.34 387.03 105.06 388.3 102.15 388.16 100.47 388.53 99.51 389.61 98.06 392.19 95.15 392.8 94.08 395.19 91.21 395.19 90.37 394.53 89.22 394.58 88.31 394.86 87.2 395.33 86.24 397.35 83.6 399.13 81.81 400.54 80.62 402.41 79.4 404.52 77.45 404.81 77.22 405.18 76.64 406.21 74.96 410.2 73.09 414.94 70.72 420.19 68.65 421.64 68.31 423.47 68.34 424.55 67.73 425.63 66.82 426.94 65.13 429.66 59.51 430.04 57.33 429.57 56.8 429.2 56.64 431.35 55.34 432.39 53.85 433.09 52.47 434.4 48.92 433.65 47.66 433.65 47.23 434.03 46.55 434.07 45.71 434.5 45.09 435.62 43.49 437.97 40.85 443.74 33.31 445.1 30.33 445.76 27.54 448.1 22.64 448.38 22.38 448.57 22 449.84 20.39 450.59 19.2 451.48 18.09 453.4 14.96 454.76 13.24 458.66 9.11 459.17 8.19 459.97 5.55 462.36 1 464.05 1.39 465.32 1.69 467.15 2.49 467.33 2.57 469.12 3.41 467.94 4.9 467.24 6.09 467.29 6.66 467.66 6.74 468.46 6.36 468.79 6.58 468.6 7.92 467.66 9.22 465.97 10.98 465.55 11.59 465.6 12.28 465.5 13.12 464.71 14.2 463.96 14.69 463.02 14.88 462.27 15.19 461.47 16.18 460.95 17.03 460.72 18.52 456.26 25.06 455.42 27.43 454.81 28.42 454.34 28.61 453.73 28.54 452.98 28.23 452.37 28.15 449.74 29.3 448.76 30.45 447.02 33.81 445.26 36.66 445.04 37 444.91 37.22 443.74 39.7 441.81 44.41 440.12 51.17 439.47 52.25 437.82 55.99 437.12 56.83 436 58.59 435.85 59.7 434.96 60.62 433.84 62.65 433.09 63.34 432.15 63.79 431.82 64.25 432.57 64.9 432.77 65.2 432.81 65.25 433.04 65.94 432.99 67.47 432.62 69.84 432.15 71.9 431.26 74.39 429.9 76.68 428.77 78.06 426.99 79.9 423.38 83.07 422.44 83.68 421.92 84.22 420.94 85.59 420.8 86.21 420.84 87.24 420.7 87.7 419.76 88.92 417.09 91.52 416.29 92.52 415.59 92.9 415.07 92.94 412.87 95.23 410.34 97.64 408.6 99.44 407.24 101.58 405.55 105.17 404.29 107.58 401.15 111.87 400.11 113.47 399.22 114.35 393.27 116.72 391.86 117.49 390.69 118.41 388.91 119.06 387.45 119.4 386.75 119.63 385.86 120.32 385.34 120.62 384.26 120.78 382.57 121.27 379.71 121.24 378.68 121.5 378.17 122.23 378.21 122.8 377.6 123.45 374.74 124.68 373.71 125.25 373.15 125.79 372.35 127.24 369.91 129.34 369.54 129.99 369.49 130.64 369.82 131.64 370.33 132.25 370.99 132.29 371.98 131.75 373.24 131.79 374.13 131.41 374.51 131.45 373.95 132.21 373.57 132.98 373.81 133.4 374.18 133.82 370.29 134.7 370.33 135.04 371.18 135.54 371.65 135.96 371.88 136.46 371.84 137.34 371.04 139.48 370.85 140.32 370.57 140.55 369.21 140.55 368.74 140.62 368.46 141.27 368.93 141.66 370.94 141.58 371.79 141.92 371.88 142.27 370.62 142.61 369.35 143.61 369.49 144.14 369.91 144.37 371.93 143.8 372.73 143.84 373.62 144.18 374.74 145.48 375.4 145.52 376.01 145.18 376.9 144.14 377.93 142.77 378.35 142.5 378.54 143.65 378.4 145.21 375.4 149.15 375.73 149.38 377.46 148.01 378.26 148.08 377.79 148.85 378.31 149.08 379.48 148.89 381.12 148.92 382.1 148.77 383.56 148.2 383.93 148.47 384.07 149.84 383.32 152.48 383.28 152.98 383.7 153.36 384.59 152.82 385.11 152.75 384.73 153.51 384.12 154.32 384.26 155.12 384.87 155.96 384.92 156.38 384.59 157.34 385.15 157.49 386.14 157.11 386.93 157.64 387.45 157.8 387.87 158.1 388.43 158.14 389.37 157.61 390.31 157.87 391.06 157.61 390.68 154.39 391.25 152.29 391.86 152.25 392.19 153.7 392.51 153.86 392.94 153.71 393.69 152.83 394.34 153.55 394.91 154.47 396.17 158.29 396.22 160.28 396.97 163.61 397.3 165.87 397.53 167.17 398.89 169.69 400.25 170.46 400.72 170.42 401.19 170.11 402.69 168.01 404.24 165.83 410.43 149.96 410.52 148.77 412.82 143.84 413.76 140.47 414.46 139.67 414.88 138.1 417.7 133.51 418.07 132.02 418.07 129.42 418.35 128.01 419.53 125.25 420.09 124.79 420.42 125.02 420.51 125.79 420.14 127.43 420.42 129 420.28 130.45 419.53 132.63 419.57 133.28 419.2 134.89 419.38 136.99 418.16 141.2 417.98 141.7 417.18 142.58 416.62 143.07 416.24 143.8 415.02 148.54 412.72 151.83 412.3 153.06 412.11 154.62 412.16 157.64 411.22 161.74 411.18 165.45 411.55 167.47 412.21 168.93 412.72 169.77 413.38 170.19 414.04 170.38 414.46 170.34 415.3 169.81 416.24 169 416.71 168.51 417.22 167.02 417.65 161.43 417.98 159.37 418.26 159.02 418.63 159.25 418.96 160.02 419.52 160.74 419.99 160.78 421.12 159.18 421.54 158.18 422.48 154.28 423.74 150.8 425.29 145.68 425.95 140.63 426.37 139.48 426.75 139.21 426.75 140.97 427.17 142.62 427.92 143.5 428.2 144.18 428.05 145.09 426.88 152.1 425.1 157.23 423.18 161.81 422.66 164.57 422.62 165.56 421.26 169.46 420.13 171.45 419.29 173.44 417.74 177.72 417.46 178.49 417.08 178.91 415.96 179.6 415.72 179.87 415.63 180.82 415.39 182.47 415.67 183.65 415.35 185.95 415.58 186.79 416.57 187.48 417.36 187.67 418.02 188.05 417.27 188.85 417.13 189.2 417.13 189.5 417.83 190.04 418.63 190.23 419.47 190.04 419.8 190.38 419.61 190.8 418.86 191.61 418.44 192.14 418.25 193.18 418.35 194.74 417.78 196.77 412.72 201.82 410.75 204.84 409.2 206.45 408.87 207.48 408.87 207.86 408.73 208.14 408.64 208.32 407.56 208.97 407.04 210.35 406.06 211.23 405.78 214.48 406.15 215.36 406.62 216.24 407.89 217.42 408.17 218.15 408.03 218.99 405.92 222.66 405.07 225.07 403.95 226.22 403.71 227.98 403.29 228.93 405.87 232.68 406.53 233.98 407.7 238.69 408.31 241.67 407.98 242.28 406.48 243.2 405.82 243.24 404.28 242.78 403.57 243.04 403.53 243.58 403.81 244.04 404.23 244.42 404.84 244.69 404.32 244.84 402.77 244.19 401.84 244.38 392.13 248.97 388.57 250.43 387.96 250.62 387.44 250.92 385.38 251.57 384.86 251.54 383.93 251.11 383.55 251.15 382.99 251.69 381.91 253.14 380.65 255.51 379.89 257.16 378.54 262.97 377.55 265.34 377.69 266.3 378.11 267.25 379.52 268.94 380.22 270.35 380.5 271.35 380.46 272.45 379.61 273.98 377.6 278.92 376.89 282.36 376.75 284.62 376 286.22 375.44 286.95 373.89 288.48 373.14 288.86 371.31 289.13 370.66 289.32 369.72 289.93 369.35 290.85 369.3 291.54 368.83 292.19 364.61 293.64 363.44 293.91 361.66 294.48 361.28 295.09 361.24 296.09 361.8 297.62 361.8 298.08 360.2 298.96 360.06 299.26 359.88 299.87 359.31 299.84 359.03 299.65 356.59 297.39 356.22 297.05 355.85 297.05 355.38 297.39 354.63 298.42 353.78 300.37 353.03 300.87 353.13 299.57 351.25 297.89 350.45 297.92 349.33 298.54 348.25 298.69 346.75 299.03 345.81 299.42 343.47 300.83 342.77 301.4 341.59 302.78 339.86 303.66 336.67 305.31 335.08 306.76 333.53 307.68 331.37 309.32 330.25 309.82 326.59 312.11 323.55 313.87 320.73 314.98 318.95 316.05 317.45 317.12 314.22 319.27 311.92 320.37 310.42 321.37 310 322.17 309.3 324.31 308.59 327.64 308.08 328.25 307.47 329.32 306.2 329.82 307.84 331.31 308.31 332.54 308.5 333.91 308.45 334.6 308.03 335.56 307.38 336.32 307.28 337.2 306.81 338.01 306.53 339.8 305.64 341.56 305.27 342.86 304.89 343.36 303.67 344.55 302.74 347.95 301.94 348.98 301.61 349.75 301.52 350.93 302.03 353.92 302.69 355.83 302.78 356.98 302.08 357.59 301.47 357.7 301.1 358.01 300.81 359 301.05 360.23 302.17 361.22 305.08 362.9 306.35 363.9 307.94 364.13 308.31 364.47 306.07 364.89 303.77 365.92 302.69 366.54 301.85 367.38 301.57 367.88 301.52 368.98 301.75 369.48 302.6 370.55 303.02 371.39 304.19 372.81 304.38 373.69 304.1 376.1 303.63 377.24 302.41 378.77 301.75 380.08 302.65 381.95 302.88 384.74 303.35 385.89 304.14 386.96 305.13 387.69 305.6 389.14 306.35 390.63 307.29 391.74 307.75 392.62 307.99 394 307.71 394.57 305.93 395.6 305.55 396.1 305.65 396.71 307.1 398.01 307.61 399.66 307.57 400.57 307.05 402.26 307.29 403.1 306.96 404.25 307.05 405.12 308.18 407.04 308.08 407.96 307.43 408.72 307.19 409.22 306.82 409.33 306.44 409.71 306.58 411.01 306.02 411.32 305.51 411.32 304.71 411.09 303.35 410.14 302.46 410.21 301.01 411.28 300.44 412.01 300.16 412.7 299.08 413.84 298.8 414.53 298.71 416.14 298.34 417.82 298.62 419.28 298.2 420.23 298.2 420.88 298.34 421.72 298.2 422.07 296.84 423.1 296.7 423.56 296.79 424.71 296.42 425.4 293.51 428.15 293.56 428.68 293.32 429.11 292.2 430.02 290.65 431.71 289.95 432.32 289.81 432.66 289.9 433.35 289.53 433.85 289.06 434.77 286.29 438.09 284.04 438.94 282.59 439.78 282.26 440.2 281.51 442.76 280.81 446.43 280.62 446.74 280.11 447.08 279.59 447.12 279.69 447.62 280.2 448.08 280.34 448.5 280.01 449.3 281.19 453.35 281.82 454.58 281.84 454.62 Z M 186.59 528.9 168.36 559.88 167.97 560.56 186.59 528.9 Z M 645.27 479.45 644.38 479.72 642.46 481.09 640.91 481.97 640.58 482.58 640.58 483.88 641.19 484.92 641.14 485.34 641.57 485.68 643.21 486.18 643.77 486.49 644.75 487.56 646.11 487.29 646.44 486.95 645.41 484.69 645.41 483.39 645.74 481.63 645.6 479.68 645.27 479.45 Z M 408.46 94.12 410.24 91.75 414.14 87.7 415.87 86.24 418.31 84.02 420.23 83.26 421.83 82.11 425.16 79.86 425.67 79.32 428.16 70.87 428.35 69.42 428.16 69 427.18 68.92 421.13 69.72 419.81 70.18 417.23 71.37 413.44 73.24 409.45 75.3 407.67 76.91 405.84 79.01 402.32 83.18 401.8 84.22 400.02 86.24 399.04 87.73 398.62 88.73 396.88 91.44 395.43 93.97 395 94.92 393.6 97.07 392.56 99.17 391.72 103.45 391.49 106.09 390.73 108.73 390.55 109.99 391.02 110.41 391.44 110.45 391.95 110.26 392.84 109.61 394.86 108.88 395.85 108.16 397.25 106.55 399.04 105.56 399.79 104.06 401.38 102.99 402.83 101.66 404.52 100.89 405.04 100.32 405.51 98.82 408.46 94.12 Z M 451.06 25.93 451.85 25.74 452.46 25.82 452.93 25.74 453.54 25.44 454.53 24.29 456.59 21.04 458.28 17.33 459.45 15.69 462.83 11.79 463.53 10.64 464.38 8.34 465.41 6.89 465.97 5.86 466.16 4.79 465.97 3.83 465.36 2.57 464.85 2.22 464.47 2.26 463.68 2.53 462.83 2.99 462.13 3.72 461 6.43 459.88 10.18 458.19 12.93 455.89 15.65 453.35 20.05 451.76 23.53 449.32 27.12 450.02 26.89 450.49 26.32 451.06 25.93 Z M 343.98 185.72 343.28 185.87 342.9 188.05 342.15 189.96 341.26 191.53 341.4 192.37 342.11 192.52 343 192.29 343.89 191.68 344.12 191.15 344.64 187.21 344.55 186.4 343.98 185.72 Z M 438.15 50.26 437.36 50.6 436.84 51.4 436.04 54.69 435.34 55.84 433.93 56.57 434.07 57.14 434.07 57.79 433.42 58.25 433.42 59.13 434.26 59.32 435.01 58.86 436.6 56.22 437.5 53.16 438.15 50.26 Z M 42.81 594.79 41.03 595.6 39.35 596.14 38.31 596.33 37.1 595.94 37 596.4 37.43 596.82 38.32 597.01 39.3 597.66 40.33 597.93 41.36 597.89 43.09 596.36 43.42 595.83 43.42 595.33 42.81 594.79 Z M 399.93 84.48 398.1 84.94 396.97 85.67 395.99 86.93 395.61 87.92 395.71 88.73 395.89 89.15 396.27 89.49 396.74 89.45 397.07 89.22 397.44 88.84 398.19 87.39 398.71 85.9 399.79 84.94 399.93 84.48 Z M 411.14 94.89 414.7 90.99 415.22 90.26 415.36 89.57 415.08 89.15 414.47 89.34 413.06 90.45 412.17 91.41 410.48 94.62 410.53 94.96 411.14 94.89 Z M 372.87 116.65 371.79 116.99 370.38 117.64 370.05 117.95 369.77 119.44 370.05 119.86 371.55 119.17 372.31 118.63 374.37 117.68 375.07 117.1 374.88 116.65 374.27 116.53 372.87 116.65 Z M 135.9 570.41 135.95 571.29 136.37 571.63 136.74 571.4 137.68 570.4 138.1 569.45 138.2 568.19 137.31 568.45 136.37 569.22 135.9 570.41 Z M 436.33 50.64 435.62 51.02 435.1 51.86 434.68 53.09 434.35 54.35 434.59 55.23 435.06 55.04 435.67 53.77 436.28 51.56 436.33 50.64 Z M 16.85 590.67 16.34 590.94 15.59 592.05 15.78 592.4 16.62 592.97 17 593.05 17.56 592.32 17.93 592.13 17.79 591.78 18.26 591.36 18.49 590.75 16.85 590.67 Z M 451.52 26.7 450.96 27.04 450.4 27.54 450.3 28 450.63 28.23 453.12 27.16 452.56 26.74 451.52 26.7 Z M 231.75 277.47 231.66 276.44 230.77 276.4 230.82 277.09 231.71 278.58 232.22 278.85 232.36 278.58 231.75 277.47 Z M 138.94 560.96 139.36 560.5 139.18 560.08 138.71 559.58 138.29 559.54 137.91 559.74 137.72 560.35 137.93 560.59 138.1 560.81 138.94 560.96 Z M 172.7 465.49 172.23 465.84 172.13 466.49 172.65 466.75 173.12 466.68 173.59 466.3 173.63 465.8 173.16 465.53 172.7 465.49 Z M 436.61 47.92 435.71 48.84 435.67 49.38 436 49.53 436.37 49.26 436.79 48.69 436.84 48.23 436.61 47.92 Z M 135.87 498.7 136.3 498.85 136.67 498.51 136.72 498.09 136.39 497.89 135.87 498.12 135.87 498.7 Z M 20.06 627.69 20.53 627.27 20.15 627.04 19.69 627.5 20.06 627.69 Z M 15.31 590.41 14.89 590.83 15.45 590.75 15.31 590.41 Z" fill-rule="evenodd"/>
<path d="M 281.84 454.62 283.39 456.8 284.42 457.6 284.73 457.69 285.97 458.06 287.23 458.13 288.4 457.9 290.56 457.67 291.78 457.41 293.51 456.41 295.48 455.04 299.56 451.44 300.54 451.02 302.13 450.52 304.95 449.57 306.96 448.27 309.59 445.59 310.01 444.63 310.52 444.4 310.76 444.02 312.12 442.87 313.76 440.46 314.55 439.58 315.87 438.59 318.4 434.42 318.16 433.81 317.55 433.46 317.41 433.12 318.49 431.09 318.54 430.14 318.21 428.87 318.82 427.99 319.24 427.69 320.46 427.65 322 427.84 323.88 428.38 325.24 429.07 325.85 430.06 326.97 431.51 328.52 432.85 329.69 433.58 331.1 434.08 332.46 434.04 333.96 433.39 334.89 432.47 335.6 431.44 336.06 429.79 336.16 428.11 338.83 425.05 342.3 422.3 344.59 420.04 346 418.93 347.17 418.43 348.3 418.32 352.47 418.82 353.45 418.59 353.73 418.36 354.72 417.78 357.62 416.79 363.58 415.91 366.76 415.11 370.23 414.04 371.17 413.96 373 414.11 391.04 412.16 392.49 411.55 393.38 411.59 395.07 411.13 397.6 410.86 403.37 410.71 404.54 410.71 405.34 411.09 407.35 411.63 410.07 412.13 411.66 412.28 412.41 412.09 414.05 411.82 416.63 411.82 423.05 411.63 425.54 411.86 428.91 412.78 434.96 416.76 435.75 417.06 436.55 417.14 438.38 417.06 442.74 418.21 444.24 418.59 445.74 419.05 449.25 418.63 450.28 418.63 454.73 419.55 456.24 419.66 458.72 419.47 459.7 419.7 462.52 421.35 464.76 423.34 467.72 425.59 470.62 427.28 471.89 428.46 473.81 429.46 474.51 430.38 475.96 431.49 476.95 432.06 479.01 432.71 480.04 433.28 481.49 434.2 483.74 436.23 486.13 437.53 488.33 438.52 490.02 439.56 491.8 440.44 492.41 440.36 493.63 439.56 495.74 437.34 496.73 436.04 497.52 434.55 499.96 432.25 500.34 431.57 502.12 430.15 504.09 428.77 505.63 427.17 506.48 426.59 507.6 426.21 508.54 426.14 510.18 426.48 513.13 427.71 515.62 428.2 516.65 428.74 518.33 429.31 519.69 429.43 520.82 429.28 523.16 428.43 523.72 428.59 526.11 429.2 528.41 429.32 528.61 429.31 529.91 429.28 530.71 429.2 532.58 428.63 533.8 428.82 536.24 429.66 540.88 429.36 543.69 429.39 545.09 429.89 549.36 432.8 550.81 434.14 551.65 435.4 552.4 436.17 553.48 437.81 554.79 439.11 555.96 439.92 557.98 440.79 559.48 441.14 561.35 441.22 564.73 441.06 566.27 441.29 568.34 441.72 571.38 441.98 572.69 442.29 574.05 443.06 575.27 443.55 577.15 444.01 577.99 444.32 578.46 444.78 580.05 447.34 582.11 451.17 583.19 452.5 584.69 453.23 586.89 454 589.84 454.73 591.01 454.84 596.12 452.81 597.72 452.62 599.73 451.97 601.56 452.05 605.85 453.33 606.2 453.43 606.95 453.74 609.76 454.65 614.96 455.46 615.38 455.46 618.34 455.61 620.96 455.61 624.29 455.16 628.13 454.58 630.99 454.74 631.93 454.47 634.41 454.2 637.5 455.43 638.82 455.58 639.52 455.39 640.32 454.7 640.88 454.44 641.82 454.28 642.85 454.47 645.28 455.39 646.74 456.24 648.33 457.58 648.84 458.42 649.36 459.83 649.45 461.29 649.36 463.12 649.73 464.88 649.36 466.79 649.21 470.58 646.96 474.63 645.83 477.73 645.93 478.8 647.61 477.73 649.54 475.86 651.88 473.6 652.4 473.41 656.01 472.23 657.04 471.54 660.56 467.18 662.2 465.5 665.34 463.2 668.1 460.83 670.5 458.23 671.15 457.93 672.56 457.58 681 453.57 682.36 452.73 689.53 446.42 690.33 445.24 691.22 442.75 691.64 442.22 693.61 440.76 695.53 439.77 697.32 438.51 697.79 437.86 698.25 436.64 698.58 435.72 699.8 434.95 701.26 433.5 702.24 432.89 704.54 432.51 707.91 431.67 714.47 430.56 715.55 430.6 715.27 429.8 717.24 429.76 717.76 429.45 717.99 429.15 718.27 428.31 718.79 428.27 719.12 428.5 719.16 429.26 719.4 429.72 719.3 430.64 716.21 431.71 717.61 431.98 719.21 431.67 720.29 431.75 722.35 432.82 724.69 433.55 728.11 435.2 731.2 436.84 733.45 438.49 734.67 438.99 736.68 439.64 737.95 440.21 740.57 442.2 740.7 442.24 740.7 442.28 740.68 442.38 747.84 446.88 754.18 449.82 760.79 452.49 767.22 456.8 772.83 460.84 775.21 464.79 774.39 468.83 770.71 468.56 767.77 469.57 767.87 472.33 769.98 475.17 770.14 475.29 769.99 475.38 769.95 475.84 770.46 477.03 770.84 478.67 770.91 478.72 771.49 479.17 772.24 479.51 776.6 480.12 778.98 480.32 780.17 483.35 780.91 487.57 780.45 490.88 779.32 493.01 774.48 493.54 770.62 492.72 768.22 492.52 767.66 492.21 768.42 490.7 767.5 490.33 766.76 489.04 765.39 489.04 765.02 491.89 764.11 493.84 762.88 494.31 762.74 494.36 763.18 495.47 762.81 497.03 760.61 499.79 759.69 500.89 760.24 502.64 761.71 503.74 761.71 507.69 761.71 513.93 762.26 515.86 762.91 517.33 764.1 518.16 769.7 516.23 771.5 516.54 773.01 516.97 774.02 516.69 774.02 515.46 774.94 515.06 776.5 515.5 779.35 515.22 782.28 513.84 785.22 512.1 788.44 511.27 790.55 512.01 790.46 512.92 788.99 513.66 787.89 514.58 786.88 516.97 784.88 517.37 782.21 517.52 780.01 517.98 777.39 518.93 776.19 519.36 774.81 519.86 773.59 521.05 772 522.19 769.84 524.38 766.86 526.06 765.2 526.33 765.2 528.08 765.75 530.1 765.94 533.5 769.34 534.51 775.47 533.9 779.35 536.35 782.01 538.37 781.18 539.93 780.72 541.95 781.18 544.25 781.83 546.03 782.01 546.54 782.84 546.82 783.66 547.28 783.7 547.34 783.94 547.74 783.48 548.84 782.01 550.31 781.02 551.68 779.94 552.44 778.49 554.13 777.46 555.16 776.68 559.49 774.66 562.89 773.65 568.31 773.19 571.34 774.05 572.83 774.19 573.36 774.8 574.01 775.18 574.89 775.69 575.16 776.07 575.16 777.15 574.66 777.89 574.51 781.64 574.43 787.83 573.82 788.48 574.05 789.47 574.89 790.36 575.88 791.2 576.38 792.23 576.68 793.5 576.68 794.91 578.33 795.56 578.71 798.45 580.25 799 581.72 797.35 583.19 796.55 583.74 794.78 584.94 792.94 587.51 789.91 588.61 785.87 589.35 782.28 588.43 778.34 588.34 772.83 588.34 767.41 588.89 766.49 590.26 767.68 590.91 771.17 590.08 772.73 590.17 772.94 592.37 772.52 592.99 766.58 593.94 763.27 595.13 761.05 598.55 760.14 598.94 759.11 599.74 750.62 603.64 749.31 603.98 745.23 605.89 744.2 606.47 739.84 607.38 735.44 608.6 727.89 612.43 725.36 614.18 724.71 615.02 724.05 616.06 723.58 616.55 722.22 617.32 720.44 618.01 718.24 619.23 717.11 620.22 715.66 622.4 714.63 623.39 712.33 625.08 710.22 626.57 709.56 627.68 708.77 627.94 708.11 628.02 705.44 629.43 703.61 629.93 703.1 630.43 702.82 631.08 702.39 631.42 701.6 631.34 700.8 631.8 700.33 632.3 700.14 632.99 700.61 633.64 700.7 634.17 700.47 634.82 699.91 635.4 698.6 635.86 697.52 635.59 697.14 635.13 696.58 633.9 696.35 632.38 694.85 629.09 693.49 627.25 693.4 626.79 693.68 625.64 693.26 624.38 693.54 623.58 693.36 622.97 692.84 622.39 690.92 620.78 690.5 620.36 690.22 618.26 689.47 616.39 687.51 612.83 684.84 609.42 682.12 607.17 681.37 606.44 680.72 605.52 678.99 603.57 674.63 599.93 673.18 599.17 668.77 597.71 667.93 597.41 665.64 596.03 664.61 595.03 663.81 593.81 660.11 588.49 658.43 586.85 657.58 586.24 656.51 585.7 653.88 584.86 652.76 584.63 652.06 584.74 651.07 585.01 645.91 589.71 645.02 590.09 642.49 590.32 640.85 591.2 639.77 592.23 638.79 593.69 637.62 595.79 637.1 597.55 636.82 601.53 637.24 605.92 638.03 609.21 640.75 614.42 641.54 615.53 643.23 617.36 643.37 617.78 642.95 620.69 642.99 621.53 643.55 623.33 643.6 624.13 643.04 627.84 642.94 633.46 643.64 635.53 643.4 637.9 643.5 640.04 645.23 648.38 645.74 649.83 649.3 656.07 650.23 657.37 650.37 657.9 651.59 659.93 651.92 660.66 651.73 662.27 652.62 665.94 653.74 668.31 654.91 669.04 655.29 669.49 655.85 671.33 655.94 672.71 655.57 675.04 655.7 676.57 656.08 677.76 656.08 678.48 655.84 678.9 654.81 679.71 654.34 680.28 653.69 681.66 653.17 682 652.98 681.54 651.58 681.54 651.25 681.2 650.92 680.47 649.75 679.21 649.57 678.14 647.98 675.88 647.65 675.61 646.01 675 645.63 674.62 645.54 672.78 645.26 672.17 643.11 670.64 642.17 669.34 641.23 668.65 640.86 667.65 640.25 667.31 638.8 667.46 637.81 667.23 637.58 666.93 637.58 666.35 636.41 664.44 635.15 663.18 634.72 662.07 629.24 659.16 623.77 655.37 622.6 654.07 621.99 653.8 620.96 653.53 620.07 653.19 617.3 652.58 615.99 652.19 615.43 652.19 614.82 651.81 614.16 651.66 613.13 650.78 611.77 650.55 610.6 650.28 607.37 648.33 606.95 647.68 606.29 647.72 603.95 647.14 602.64 645.92 602.17 645.69 601.8 645.61 599.69 646.15 597.86 645.76 596.27 645.07 595.61 644.61 593.88 644.27 593.08 643.81 592.57 643.28 591.73 643.39 589.01 642.36 587.6 642.74 586.48 642.05 584.37 641.59 583.39 641.28 581.79 641.21 579.69 640.71 578.23 640.33 576.03 639.37 575.52 639.14 574.77 639.1 573.55 639.37 572.57 639.29 569.94 638.49 569.29 638.11 568.87 637.53 568.4 637.3 567.23 637.11 566.34 637.15 563.62 636.27 562.31 636.69 561.14 636.76 559.45 636.04 558.23 636.15 557.2 635.81 556.31 635.73 555.47 635.46 554.34 635.39 552.52 634.96 551.81 634.66 551.35 634.62 550.5 634.85 549.1 634.96 548.53 634.58 548.07 634.5 545.96 634.96 544.27 635.12 539.63 635.34 538.41 635 533.12 635.53 530.92 635.3 530.03 635 529.51 634.65 527.92 634.42 527.4 634.77 526.61 634.35 524.83 633.96 523.94 633.58 523.05 633.43 522.58 633.2 520.28 632.85 519.86 632.97 518.97 633.62 517.94 633.66 517.33 634.31 517 634.5 513.58 634.92 512.04 634.65 510.35 634.08 506.37 635.34 504.54 636.22 502.76 636.71 500.46 636.6 499.06 636.79 497.28 636.86 492.73 636.52 490.02 637.13 488.94 637.32 487.07 637.09 486.13 637.28 485.19 637.32 484.35 637.59 482.38 637.44 481.44 637.89 480.88 637.67 478.96 637.66 477.84 637.59 476.76 636.98 476.34 636.63 475.63 635.22 474.28 629.33 474.14 627.68 474.18 626.76 475.07 624.7 475.54 623.82 475.59 623.05 474.75 619.54 474.84 618.2 475.78 614.87 476.01 612.92 475.87 611.89 475.12 610.09 474.09 609.02 473.34 608.41 472.41 608.1 469.92 607.83 466.69 608.02 465.43 607.95 464.3 608.14 463.18 608.56 461.63 609.44 460.51 609.59 459.1 609.74 457.46 609.25 454.09 608.71 451.75 608.67 449.5 608.82 448.18 609.02 444.15 610.54 436.19 612.65 432.21 614.33 431.22 614.37 430.19 615.17 429.3 615.59 428.13 615.97 427.57 615.93 426.35 615.36 425.27 614.56 423.87 613.95 421.52 613.26 412.11 611.19 409.67 610.2 408.27 609.51 406.58 608.09 405.36 606.56 404.61 604.92 403.86 603.96 402.93 601.82 402.04 600.52 399.65 598.07 398.52 596.73 398.24 595.16 397.91 592.37 393.74 584.88 392.9 583.08 391.64 577.27 391.73 573.02 391.45 570.65 391.12 569.81 387.51 567.05 386.39 565.91 385.12 564.3 384.23 563.42 383.39 562.96 381 562.43 379.13 561.74 377.63 561.66 377.25 561.47 376.36 560.21 375.61 559.56 374.68 559.37 373.79 559.37 373.13 559.67 372.19 560.4 370.27 562.35 366.52 563.27 365.02 563.42 364.41 563.31 363.38 562.66 362.35 562.46 356.35 558.6 349.61 555.81 343.28 552.63 342.44 552.1 341.31 551.72 339.49 551.33 337.28 551.14 334.8 551.14 331.05 551.6 329.93 551.98 328.48 552.06 328.34 552.52 327.96 552.98 326.41 553.51 325.66 553.86 322.76 554.43 321.03 554.93 320.23 555.31 319.48 556.04 319.06 556.8 318.35 557.38 317.37 557.8 316.62 557.87 315.78 557.68 314.93 557.64 313.2 558.22 310.44 559.71 308.14 560.36 307.11 560.9 306.5 561.39 303.74 563.5 301.25 564.38 300.5 564.8 299.94 565.52 299.38 565.87 299 566.98 298.44 567.17 297.04 566.9 296.52 567.17 296.15 567.97 295.63 568.35 294.97 568.16 294.55 568.24 294.65 568.81 294.55 569.35 294.13 569.69 293.57 569.81 293.05 570.57 291.74 571.22 290.1 571.18 286.17 571.61 286.02 572.71 285.46 572.14 284.57 572.29 284.15 572.79 284.01 573.17 284.2 573.52 282 572.87 281.57 573.14 281.06 573.06 280.54 573.21 277.26 572.1 276.7 572.52 276.14 572.52 275.81 573.06 275.3 572.91 274.83 572.41 274.36 572.45 274.3 572.43 273.94 572.33 272.9 572.53 272.16 571.91 271.41 572.03 270.28 571.8 268.97 571.8 263.44 570.96 262.13 570.42 261.75 570.5 261.66 570.84 259.93 570.84 259.46 570.65 258.76 570.92 257.35 570.42 256.22 570.19 253.51 570.46 252.94 570.35 252.71 570.92 252.1 571.07 252.2 571.57 252.9 571.65 253.23 572.14 254.73 572.49 255.1 572.91 255.15 573.64 254.82 574.29 254.3 574.52 253.27 574.63 252.48 575.28 252.1 575.36 251.26 575.05 250.27 574.86 249.67 575.05 249.15 575.89 247.56 575.47 246.29 575.32 245.36 575.62 244.23 576.43 243.34 576.93 243.29 577.42 243.62 579.07 244.51 581.32 244.51 581.97 244.09 583.27 243.67 583.7 241.23 584.27 240.81 584.61 240.44 585.15 239.31 585.76 238.61 585.99 238.24 585.91 236.74 585 235.61 585.07 233.64 584.77 231.49 585.46 230.41 585.99 230.27 586.34 229.89 586.64 228.68 587.14 227.97 587.22 226.15 586.57 224.88 586.64 225.02 587.03 224.98 587.67 224.6 588.02 224.09 588.13 223.34 588.59 222.31 588.82 221.74 589.21 221.13 589.43 220.57 590.58 220.06 591 219.4 591.04 218.09 590.7 216.21 589.97 212.84 589.32 211.53 588.98 209.37 588.9 206.98 589.63 206.19 589.44 199.49 590.47 197.19 591.31 196.07 591.89 194.29 593.19 192.88 594.76 191.48 595.67 190.93 596.32 190.87 596.4 190.54 599.42 190.12 600.49 188.11 602.06 187.36 602.75 187.12 603.13 187.03 604.32 187.08 604.93 186.8 605.62 186.61 606.65 186.23 607.68 185.44 608.64 184.55 609.25 183.09 609.83 182.11 609.98 180.14 609.83 180.14 610.21 180.85 611.74 180.66 612.16 180.14 612.01 180.19 612.62 179.67 612.77 179.21 612.77 178.6 612.31 178.93 613.27 179.44 614.15 182.21 616.52 182.44 616.86 182.25 617.17 179.54 617.82 178.51 618.62 178.46 619.12 181.04 620.57 182.21 621.6 183.89 623.63 183.85 624.36 183.29 625.54 183.15 627.15 182.54 628.95 182.4 629.87 182.44 631.28 182.3 632.35 181.13 635.6 181.32 636.21 180.99 636.83 181.09 637.17 180.71 637.71 179.82 638.13 179.31 637.97 178.84 637.29 178.27 637.1 177.9 636.98 174.86 637.1 173.64 637.36 170.5 638.74 165.77 640.65 163.05 641.8 162.44 642.41 161.83 643.87 161.18 645.09 159.82 645.63 158.65 646.01 156.12 646.24 155.18 646.55 154.29 647.58 154.25 647.88 154.9 648.42 155.14 647.77 155.75 647.2 156.17 647.58 156.03 649.57 154.2 651.9 153.73 652.24 152.89 652.55 152.37 653.01 151.2 654.77 151.06 655.92 151.06 657.41 150.6 659.05 150.03 659.78 149.57 660.05 148.21 660.32 146.66 660.47 146.33 661.04 146.52 661.77 146.15 663.07 145.77 663.41 145.35 663.6 144.74 663.49 143.71 662.92 141.42 663.72 141.23 664.18 141.51 664.94 141.51 665.56 141.23 666.21 140.34 667.01 140.2 667.51 139.03 668.69 135.66 668.77 134.34 669.04 133.88 669.54 132.8 672.06 132.66 673.13 131.44 673.9 130.04 675.12 129.99 675.58 130.27 676.27 129.24 676.11 114.67 671.49 92.13 664.04 91.62 663.43 92.55 661.86 93.26 659.6 94.19 658.57 94.61 657.8 96.16 656.05 96.35 655.47 97.09 654.52 100.42 648.13 101.12 645.79 101.96 644.53 103.09 643 103.37 642.5 104.82 638.11 105.29 637.65 105.99 636.42 106.69 634.66 108.66 632.48 109.45 631.37 110.76 630.46 111.32 629.19 112.5 627.47 114.23 623.3 115.91 620.7 116.43 619.48 116.19 617.64 116.33 617.07 117.18 615.39 117.46 614.54 117.78 614.31 120.45 611.14 121.62 609.07 122.04 607.09 122.14 606.21 122.61 605.06 125.28 600.62 126.96 598.4 127.76 597.03 129.54 595.84 130.57 594.46 130.8 593.74 130.61 590.83 131.08 590.18 132.49 589.03 133.19 588.15 133.14 586.2 133.75 583.87 135.01 580.92 135.76 577.9 135.81 576.03 135.67 575.64 135.39 575.22 134.31 574.73 133.93 574.34 133.04 572.59 131.59 571.44 129.11 570.71 128.68 570.71 127.8 571.4 128.08 572.4 128.03 573.2 127.52 574.38 126.77 575.07 124.89 576.11 124 576.72 123.86 577.41 124.19 578.71 125.27 580.58 125.6 581.19 125.55 581.96 124.61 582.76 124.05 585.13 124.01 586.51 123.77 586.97 122.41 587.58 121.38 588.19 120.73 589.11 120.31 590.26 120.31 591.37 120.49 592.4 119.56 594.62 119.14 596.03 116.47 598.37 116.09 599.32 116.19 600.13 116.8 601.35 117.97 602.92 117.69 603.95 117.12 604.3 114.45 604.49 113.24 604.95 112.67 605.48 112.35 606.51 111.18 607.85 110.94 608.31 111.04 610.68 110.57 610.87 110.15 610.84 108.65 609.69 107.33 608.2 105.23 606.36 104.85 606.21 104.19 606.21 103.26 606.55 102.65 607.17 102.18 607.51 100.82 607.97 99.18 609.04 98.43 609.77 98.11 610.34 97.36 610.99 96.7 611.95 96.09 613.75 95.67 614.21 93.94 614.25 92.25 615.28 91.74 615.28 91.13 615.51 90.14 616.77 89.02 617.5 89.11 617.76 90.19 618.49 90.85 619.06 91.55 620.59 91.64 621.28 92.11 622.12 93.75 622.96 94.08 623.96 94.18 626.22 93.24 626.94 93.05 627.82 93.05 628.4 93.38 628.93 93.94 629.39 95.35 629.89 96.01 630.42 96.19 630.84 95.82 631.49 95.68 632.72 95.4 633.1 94.37 633.71 93.01 634.13 92.12 634.13 91.79 633.71 92.21 632.68 92.07 632.03 91.74 631.42 90.99 630.84 89.68 630.5 90.2 630.04 89.82 629.85 89.07 629.96 88.09 630.62 87.95 630.96 88.28 631.27 87.62 631.99 86.78 633.6 84.58 634.79 83.69 635.09 83.36 635.28 82.8 636.05 81.95 636.51 80.83 637.65 80.64 638.23 81.58 638.65 82.52 639.87 83.17 640.14 84.91 640.33 85.84 640.67 86.31 641.02 86.88 642.09 87.2 642.36 88.53 642.77 88.94 642.89 89.2 643.05 89.69 643.35 90.53 644.38 90.72 645.11 89.45 647.37 88.61 648.4 87.21 649.55 86.41 649.81 85.94 649.43 86.03 647.75 85.14 646.87 83.6 646.79 82.66 645.23 80.41 644.81 79.85 645.15 79.1 645.46 77.37 646.8 76.15 648.21 75.54 648.48 74.65 648.25 74.32 647.91 74.6 645.38 74.37 644.96 73.62 644.58 72.96 644.46 72.07 644.58 71.14 645.5 70.48 645.35 69.45 644.66 69.45 645.54 70.11 646.26 69.64 646.26 68.93 645.54 68.61 644.89 67.67 643.78 67.25 643.47 66.64 643.47 64.95 643.05 64.53 643.01 64.25 643.55 62.56 643.7 60.64 642.59 59.7 642.71 58.58 642.29 57.92 641.87 56.99 642.06 56.56 641.64 55.77 641.87 55.06 641.75 54.03 641.3 52.96 641.11 51.41 641.18 50.47 640.99 49.07 641.18 47.43 641.64 46.91 642.14 46.3 643.25 46.16 644.01 45.65 645.16 44.85 646.39 44.76 646.73 44.2 647.15 44.13 647.19 43.51 647.54 43.12 647.76 40.73 648.41 39.09 649.33 35.77 648.88 27.94 647.46 11.54 644.64 10.56 644.37 9.86 643.84 10.23 643.19 10.75 641.69 10.98 641.35 12.06 640.7 12.34 640.32 12.48 639.28 12.9 638.25 14.68 636.99 14.68 636.57 14.12 635.61 13.65 635.08 12.33 634.73 13.08 633.39 15.89 632.63 16.31 632.17 16.74 631.94 17.16 631.37 17.77 629.8 18.19 629.07 18.19 628.77 17.58 627.92 17.39 627.35 16.78 627.66 16.27 627.5 16.08 627.2 16.03 626.62 14.06 626.55 12.28 625.13 11.16 625.21 9.52 624.14 9.94 620.62 9.23 619.48 8.67 619.4 7.97 619.02 8.06 618.71 10.78 617.33 11.43 616.61 11.57 615.8 11.95 615.19 11.76 614.88 11.95 614.43 11.95 613.78 12.65 612.05 12.61 611.64 12.6 611.59 11.71 611.06 8.85 610.22 8.06 610.26 3.84 612.06 1.12 613.01 1.31 611.98 2.29 610.49 3 608.04 2.85 607.32 2.9 606.9 3.42 606.05 4.16 605.14 3.57 603.6 3.46 603.3 3.51 602.54 3.93 601.5 5.01 600.55 5.89 600.13 6.36 599.86 6.6 598.98 5.99 598.56 5.8 596.76 6.22 596.57 7.02 596.57 7.44 596.11 9.31 595.96 10.25 595.57 11.09 594.69 11.51 593.54 12.08 593.47 12.03 592.28 12.26 591.78 13.01 591.1 13.99 589.57 14.56 588.95 14.79 588.53 14.6 587.69 13.57 586.89 13.66 585.59 13.38 585.21 13.01 583.68 11.13 582.38 10.9 582.11 10.76 581.61 9.73 580.92 9.42 580.16 9.3 579.85 9.02 577.87 9.07 577.37 10.94 576.14 12.02 573.62 11.78 573.2 11.13 573.01 10.19 573.2 9.53 572.97 8.69 572.4 8.03 572.51 6.77 572.44 6.48 572.36 5.83 572.21 4.99 571.63 3.77 571.1 2.55 570.98 3.02 569.61 2.69 568.88 1.94 568.04 1.42 566.74 1.09 563.53 1 562.95 1.66 563.45 2.97 565.59 6.16 569.49 7.1 569.99 8.36 570.14 9.2 569.87 9.72 569.99 10.94 569.99 11.59 569.79 12.06 569.49 12.3 569.07 12.25 568.49 12.53 567.92 13.05 567.73 14.22 567.81 14.78 568.91 14.55 569.37 14.55 570.6 14.92 571.44 15.06 572.2 15.67 573.01 15.67 573.77 16.38 574.31 16.94 575.03 18.39 575.76 19.38 576.56 21.39 577.82 21.86 577.94 24.34 578.05 25.42 577.82 26.54 577.78 28 578.47 28.28 578.93 28.51 580.38 29.03 581.38 28.89 582.03 29.4 582.37 29.69 581.99 30.16 581.8 33.76 581.15 34.89 580.84 35.73 580.95 36.43 580.8 36.81 580.46 37.7 580.3 39.34 579.69 39.9 580.34 41.49 582.75 41.68 583.36 41.54 583.78 41.92 584.55 42.67 585.04 43.98 585.12 44.35 585.35 45.15 585.54 46.41 585.39 46.88 586.11 46.42 586.99 46.6 587.37 47.73 588.25 47.87 588.71 47.73 589.36 47.96 589.9 48.71 590.78 48.76 591.24 48.62 591.7 47.64 593.38 47.68 593.76 48.2 594.14 49.65 593.95 51.01 593.45 52.37 592.84 53.07 592.27 53.17 591.58 52.98 590.43 52.27 589.78 52.32 589.36 53.02 588.63 53.58 587.49 53.35 586.49 53.21 584.89 52.83 584.62 51.66 584.35 50.21 584.31 49.27 584.05 48.43 583.13 48.57 582.78 49.51 582.21 49.97 581.67 49.83 581.06 50.07 580.68 51.47 580.3 51.85 579.99 51.05 579.23 50.35 578.19 49.27 577.66 49.08 577.09 49.69 577.2 50.02 577.39 51.14 577.43 52.22 578 53.49 578.46 54.28 578.31 55.83 577.5 56.25 576.97 56.25 576.66 55.97 576.39 54.23 575.59 53.25 574.94 52.97 574.41 52.88 573.87 53.11 573.34 53.62 572.99 54.84 572.88 55.73 573.34 56.25 573.14 56.9 573.26 57.84 573.22 57.89 572.3 57.51 571.69 55.83 570.62 55.64 569.93 56.06 569.28 56.62 568.94 57.98 568.82 58.4 568.21 60.18 567.1 60.65 566.37 60.41 565.84 61.96 565.61 64.12 564.69 66.83 564.88 67.77 565.22 68.47 565.68 68.52 565.99 67.63 567.1 67.44 567.9 67.63 568.78 67.87 569.05 68.29 569.12 68.9 568.7 69.36 567.94 69.55 567.02 69.36 566.22 70.11 563.92 69.88 563.39 68.38 562.28 68 561.67 68.05 561.32 68.47 560.9 69.22 560.44 71.23 558.41 71.84 558.3 71.75 558.84 71.47 559.33 71.47 560.67 71.85 561.02 72.74 561.36 74.19 560.75 75.64 560.71 77.7 561.17 78.17 561.51 78.26 562.05 79.01 563.31 79.58 563.8 80.09 563.69 80.23 563.27 80.05 562.62 80.09 561.13 80.98 560.55 82.01 560.48 85.71 561.16 86.51 561.05 86.98 560.67 87.12 560.32 87.17 559.48 87.4 558.98 87.35 558.6 86.84 558.03 84.45 556.5 82.9 556.46 83.18 555.96 83.18 555.66 82.85 555.51 82.24 555.81 81.07 555.62 79.76 554.17 78.82 553.36 77.93 553.14 78.07 550.92 78.77 550.42 78.68 549.88 77.93 549.85 78.35 549.39 79.1 549.35 79.71 549.5 79.95 550.3 80.23 550.61 80.74 550.73 81.82 550.61 82.29 550.88 83.04 552.25 83.84 552.48 84.54 551.83 84.68 550.88 84.26 549.77 84.91 549.35 86.22 549.04 86.79 547.7 87.53 547.05 88.14 546.82 89.46 546.74 90.91 547.81 90.68 549.69 91.19 550.03 92.88 550.42 93.39 550.76 93.3 551.07 92.36 552.1 92.33 552.29 92.27 552.6 92.36 553.44 92.58 553.54 92.93 553.7 94.61 553.86 95.04 553.7 95.46 553.05 97.75 552.82 99.53 551.75 100.75 550.57 101.5 550.3 101.78 549.69 100.42 549.19 100 549.15 97.52 549.73 97.05 549.69 96.25 549.34 95.45 548.27 94.8 546.82 94.8 546.36 95.59 544.49 96.34 543.84 96.25 543.22 96.62 542.08 97.19 541.16 97.14 540.78 96.53 539.97 96.39 539.29 96.62 538.63 97.61 538.29 97.98 537.83 98.03 537.3 98.31 536.3 99.2 535.46 99.48 534.43 100.09 533.93 100.98 533.47 101.91 533.39 102.1 533.09 101.77 532.25 102.24 531.86 103.04 531.67 107.26 532.78 107.58 532.32 107.91 530.72 108.29 530.45 108.9 530.22 110.35 529.45 111.14 528.8 111.24 528.15 110.58 527.08 109.08 525.86 108.24 525.9 107.39 525.63 107.35 525.02 108.28 524.44 110.39 522.72 111.89 521.8 112.64 521.08 112.87 520.5 113.34 520.27 113.77 520.54 113.67 521.27 112.13 523.33 112.22 523.71 113.67 525.74 114.56 525.93 116.72 525.7 118.97 525.97 119.95 525.32 120.33 524.78 120.28 524.25 119.95 523.75 119.11 522.95 118.4 522.07 118.78 521.19 119.15 520.69 120.42 519.16 120.56 517.82 121.26 516.94 121.21 516.56 119.9 515.64 118.49 515.76 117.7 515.41 116.62 515.57 116.48 515.15 117 514.38 117.74 514.11 118.73 514.11 119.34 513.92 123.09 511.66 123.79 510.82 123.93 510.33 124.63 509.64 125.66 509.14 127.26 508.76 127.91 508.34 128.14 507.92 128.14 506.73 128.71 506.16 130.11 505.32 130.49 504.51 130.35 504.13 129.83 503.86 128.42 503.67 127.3 503.14 126.46 503.44 125.52 503.52 122.24 502.98 119.85 502.41 119.61 501.99 121.72 500.99 123.83 500.61 124.53 499.73 124.96 499.5 126.27 499.5 128.33 499.85 128.61 499.23 129.88 498.74 131.23 498.39 131.35 498.16 131.47 497.93 131.28 497.36 131.56 496.98 133.25 496.44 133.76 496.48 134.47 496.82 135.12 496.9 135.64 495.48 135.45 494.68 134.98 493.92 135.03 493.38 135.26 493.08 136.34 492.54 137.46 492.16 137.79 491.74 137.89 491.2 137.79 490.51 137.93 489.94 138.31 489.4 139.06 488.83 139.15 488.37 138.82 486.88 139.52 485.16 139.52 483.82 138.45 482.14 138.3 481.6 138.68 480.11 138.26 478.04 138.21 477.09 138.44 475.94 139.15 475.21 139.29 474.56 139.66 474.26 140.36 473.99 140.83 473.49 141.35 472.65 141.3 472.27 139.94 472.04 139.19 472.23 135.82 473.69 135.91 473.38 139 471.39 140.97 470.51 141.39 470.13 141.67 469.06 143.55 467.91 144.3 467.18 144.48 466.42 145.19 465.54 145.14 464.62 145.61 463.2 146.36 461.67 146.31 460.91 146.08 460.45 145.18 459.42 145.28 459 146.73 459.57 147.39 459.49 147.9 459.19 148.28 458.58 148.7 459 148.93 459.91 148.61 460.76 147.58 461.94 147.58 462.82 147.01 464.39 146.41 467.72 146.83 468.48 146.92 469.82 147.11 470.28 148.05 471.04 148.42 471.73 150.72 471.85 151.56 471.39 152.17 470.85 152.97 471 153.16 471.42 152.45 472.69 151.89 473.38 150.3 474.68 149.78 475.71 149.27 477.62 148.14 478.39 147.54 479.27 147.44 480.07 147.86 481.14 148.19 481.41 150.16 481.94 151.38 482.75 151.89 482.55 152.27 482.25 152.74 481.1 153.63 480.83 154.8 480.26 157.85 480.72 158.83 480.56 159.49 480.18 159.72 479.76 159.44 479.07 159.58 478.38 160.42 476.66 160.09 476.2 159.95 475.51 160.75 473.6 160.89 472.61 160.61 471.69 159.2 469.4 159.15 468.59 159.62 467.22 159.67 465.42 159.29 463.85 159.71 463.66 161.26 463.35 161.78 463.39 162.62 464.35 163.09 464.39 164.17 464.12 164.68 463.77 165.24 463.08 165.62 462.05 166.7 460.9 167.45 458.76 168.19 457.58 169.18 456.7 170.77 455.74 172.65 454.9 173.07 454.52 173.49 453.83 173.82 452.83 174.19 452.45 174.57 452.45 176.54 452.49 177.24 452.79 177.99 453.79 178.83 453.94 180.28 453.44 180.43 452.26 180.85 450.8 180.8 449.96 180.52 449.16 180.66 447.82 180.19 446.6 180.61 444.23 180.7 442.54 180.52 441.66 179.58 439.29 179.48 438.61 179.67 438.07 181.12 436.31 181.03 433.86 180.56 433.36 179.53 432.68 179.53 431.57 179.86 430.76 181.17 429.12 181.12 428.78 180.61 428.28 179.62 427.51 177.09 426.14 176.25 424.95 175.96 424.36 175.68 423.77 173.48 422.01 170.67 420.86 169.68 420.29 169.54 419.71 170.71 419.71 172.78 420.52 173.9 420.29 175.63 420.25 176.57 420.33 177.56 420.75 178.92 420.97 180.51 420.63 180.84 420.97 181.21 421.59 181.21 421.61 181.17 421.93 180.37 421.97 180.28 422.35 181.45 422.77 183.13 422.85 184.17 422.66 184.96 422.35 186.37 421.36 187.68 421.05 188.62 420.97 189.37 421.93 190.82 423.23 191.43 423.53 191.81 423.53 192.6 423.73 197.48 422.96 198.74 422.58 199.12 422.27 199.82 420.97 200.76 420.09 203.1 418.87 204.69 417.99 205.86 417.14 206.43 416.38 207.97 412.36 208.91 411.71 209.19 411.25 209.71 409.65 209.75 407.39 209.89 405.9 210.41 403.34 211.77 398.44 211.95 397.22 211.44 392.78 211.01 385.29 210.78 382.46 210.07 378.63 209.84 374.12 209.51 373.12 209.18 371.33 209.23 368.12 208.8 365.94 208.15 364.75 206.98 363.76 205.43 363.18 205.19 362.84 206.98 362.11 209.08 360.77 209.74 360.01 210.87 359.2 211.75 358.02 212.18 356.6 212.97 352.74 212.97 351.67 212.22 350.18 211.71 349.49 210.82 349.03 210.07 348.07 208.89 346.97 208.24 345.17 207.63 343.94 205.94 341.84 205.42 341.46 203.74 341.08 201.63 340.89 197.83 340.39 195.2 339.24 193.8 339.01 192.34 339.05 191.45 338.94 190.94 338.63 191.92 338.52 192.95 338.1 193.09 337.56 192.63 334.65 192.72 333.47 192.25 332.78 191.4 332.13 190.98 331.4 190.84 330.03 190.94 329.07 191.36 328.11 191.83 327.62 193.84 326.51 194.12 326.13 195.25 324.21 195.2 323.33 194.82 322.64 194.45 322.22 192.53 321.34 191.26 321.23 188.78 321 187.14 320.66 184.89 320.47 182.68 320.58 181.56 321 180.34 321.08 180.9 320.39 181.09 319.01 181.74 318.4 182.87 317.79 184.04 317.64 185.26 317.71 191.78 318.44 193.23 318.4 194.31 318.21 194.59 317.94 194.49 317.48 193.7 316.76 193.46 316.37 193.6 316.03 195.43 314.77 196.09 313.81 196.37 312.47 196.37 309.03 197.16 307.61 197.59 306.05 197.73 304.78 197.54 303.29 198.19 303.25 199.18 301.34 200.96 299.51 202.22 298.89 204.01 298.21 204.24 297.98 204.24 297.55 203.86 296.71 201.94 294.42 201.52 292.74 203.07 293.31 203.91 293.88 204.1 294.23 204.33 295.45 204.71 295.49 205.13 294.42 205.79 293.69 206.25 293.5 206.4 293.92 206.25 294.69 206.63 295.3 209.3 295.49 209.86 295.18 209.86 293.92 210.47 292.51 210.71 289.79 209.39 288.49 209.58 287.61 209.96 287.72 210.71 288.11 212.02 289.14 212.91 289.52 213.29 289.37 213.52 289.06 214.36 288.3 214.83 288.3 214.93 288.76 215.96 288.41 217.04 287.53 217.41 287.38 220.27 287.26 220.74 286.96 221.68 285.73 223.32 284.93 228 282.98 228.61 282.18 228.97 281.07 229.27 280.15 231 278.96 231.14 278.62 230.53 278.05 230.25 277.32 229.69 276.75 229.64 275.94 229.17 275.06 229.36 274.72 229.92 274.34 231.8 274.11 233.53 273.19 234.24 273.3 235.97 274.11 236.3 274.56 236.39 276.44 236.91 276.67 237.75 276.78 238.97 276.74 243.75 275.86 244.97 275.37 246.89 273.8 247.64 273.68 249.85 273.76 250.65 273.61 253.79 272.04 254.77 271.96 256.88 270.55 257.91 270.16 258.66 269.36 259.36 269.02 260.68 268.83 264.66 266.57 265.55 266.26 266.26 265.84 266.68 265.73 267.61 265.73 268.36 265.5 268.93 265.04 268.69 264.43 269.11 263.05 269.3 260.72 268.27 259.91 267.33 259.65 267.24 259.07 268.22 258.65 268.55 258.35 268.79 257.7 269.3 257.24 269.63 256.2 269.72 254.79 270.1 255.74 270.24 256.93 270.94 258.12 271.41 259.84 271.65 260.14 272.4 260.45 274.08 261.79 275.3 263.24 276.1 264.73 278.35 270.51 279.29 274.22 280.32 275.4 280.93 275.71 281.96 275.52 283.74 272.53 285.99 270.12 287.4 267.79 287.73 266.95 287.96 265.08 288.43 264.92 289.37 264.81 290.12 264.88 291.15 265.19 291.99 265.76 292.6 266.03 292.88 266.3 293.4 266.45 293.82 266.22 294.43 264.88 294.9 261.56 295.98 257.77 295.93 256.97 295.46 255.24 293.91 253.41 293.87 252.99 294.38 252.84 295.18 252.99 296.63 252.84 297.62 252.49 299.3 251.61 300.52 250.31 301.13 248.86 301.23 244.42 301.65 240.71 301.55 240.06 301.09 238.65 300.94 237.65 301.41 236.2 301.6 235.82 301.46 235.28 301.69 234.56 302.49 233.45 302.02 232.68 301.83 232.07 301.93 231.53 302.44 231.69 303.48 231.65 305.68 232.22 306.43 231.88 308.3 229.81 311.07 227.17 312.05 225.87 313.23 224.65 313.65 223.85 314.12 222.43 314.07 222.01 314.35 221.55 315.66 220.33 319.09 215.05 319.23 213.86 319.51 213.33 320.26 212.6 320.82 212.33 322.13 211.87 323.4 210.88 323.87 210.08 324.1 208.66 324.67 207.86 325.56 206.98 327.34 205.87 327.81 205.37 328.13 204.11 328.04 202.77 327.24 201.47 327.1 199.94 326.82 199.29 326.26 198.26 325.46 195.39 325.37 193.71 324.99 192.94 324.34 192.18 322.09 190.42 321.27 190.01 320.87 189.81 320.59 189.46 321.48 188.85 322.04 188.24 322.27 187.63 322.27 186.48 323.63 184.72 324.15 183.11 324.01 182.66 323.68 182.46 323.59 182.04 324.06 181.05 324.01 180.36 324.48 180.17 325.23 179.64 325.51 179.21 325.6 178.14 326.96 176.5 327.76 175.96 330.06 174.24 331.23 173.78 331.7 173.21 333.48 172.9 333.85 172.56 334.51 171.53 335.4 170.69 337.14 169.65 338.64 168.93 342.95 165.79 344.73 165.14 347.5 163.84 348.34 163.65 349.33 163.84 349.98 163.5 351.06 162.35 352.84 160.13 354.34 157.07 354.63 156.08 354.67 155.27 354.11 153.7 354.49 153.02 357.3 150.41 357.96 148.85 358.19 147.47 358.33 145.98 358.75 145.41 359.74 144.79 359.78 144.37 359.6 144.07 359.08 144.45 358.99 143.87 359.13 142.31 358.94 141.81 358.52 140.97 357.91 140.47 355.47 139.32 355.24 138.79 355.14 137.91 355.47 136.61 356.08 134.89 356.92 134.24 357.25 133.89 357.86 133.05 358.99 130.99 360.16 130.07 362.08 127.97 363.3 125.79 364.15 123.26 364.76 122.57 367.71 118.63 368.93 117.26 369.68 116.72 372.21 115.61 373.24 115.38 376.53 115.23 378.03 114.85 380 113.85 383.37 111.29 384.08 110.34 387.03 105.06 388.3 102.15 388.16 100.47 388.53 99.51 389.61 98.06 392.19 95.15 392.8 94.08 395.19 91.21 395.19 90.37 394.53 89.22 394.58 88.31 394.86 87.2 395.33 86.24 397.35 83.6 399.13 81.81 400.54 80.62 402.41 79.4 404.52 77.45 404.81 77.22 405.18 76.64 406.21 74.96 410.2 73.09 414.94 70.72 420.19 68.65 421.64 68.31 423.47 68.34 424.55 67.73 425.63 66.82 426.94 65.13 429.66 59.51 430.04 57.33 429.57 56.8 429.2 56.64 431.35 55.34 432.39 53.85 433.09 52.47 434.4 48.92 433.65 47.66 433.65 47.23 434.03 46.55 434.07 45.71 434.5 45.09 435.62 43.49 437.97 40.85 443.74 33.31 445.1 30.33 445.76 27.54 448.1 22.64 448.38 22.38 448.57 22 449.84 20.39 450.59 19.2 451.48 18.09 453.4 14.96 454.76 13.24 458.66 9.11 459.17 8.19 459.97 5.55 462.36 1 464.05 1.39 465.32 1.69 467.15 2.49 467.33 2.57 469.12 3.41 467.94 4.9 467.24 6.09 467.29 6.66 467.66 6.74 468.46 6.36 468.79 6.58 468.6 7.92 467.66 9.22 465.97 10.98 465.55 11.59 465.6 12.28 465.5 13.12 464.71 14.2 463.96 14.69 463.02 14.88 462.27 15.19 461.47 16.18 460.95 17.03 460.72 18.52 456.26 25.06 455.42 27.43 454.81 28.42 454.34 28.61 453.73 28.54 452.98 28.23 452.37 28.15 449.74 29.3 448.76 30.45 447.02 33.81 445.26 36.66 445.04 37 444.91 37.22 443.74 39.7 441.81 44.41 440.12 51.17 439.47 52.25 437.82 55.99 437.12 56.83 436 58.59 435.85 59.7 434.96 60.62 433.84 62.65 433.09 63.34 432.15 63.79 431.82 64.25 432.57 64.9 432.77 65.2 432.81 65.25 433.04 65.94 432.99 67.47 432.62 69.84 432.15 71.9 431.26 74.39 429.9 76.68 428.77 78.06 426.99 79.9 423.38 83.07 422.44 83.68 421.92 84.22 420.94 85.59 420.8 86.21 420.84 87.24 420.7 87.7 419.76 88.92 417.09 91.52 416.29 92.52 415.59 92.9 415.07 92.94 412.87 95.23 410.34 97.64 408.6 99.44 407.24 101.58 405.55 105.17 404.29 107.58 401.15 111.87 400.11 113.47 399.22 114.35 393.27 116.72 391.86 117.49 390.69 118.41 388.91 119.06 387.45 119.4 386.75 119.63 385.86 120.32 385.34 120.62 384.26 120.78 382.57 121.27 379.71 121.24 378.68 121.5 378.17 122.23 378.21 122.8 377.6 123.45 374.74 124.68 373.71 125.25 373.15 125.79 372.35 127.24 369.91 129.34 369.54 129.99 369.49 130.64 369.82 131.64 370.33 132.25 370.99 132.29 371.98 131.75 373.24 131.79 374.13 131.41 374.51 131.45 373.95 132.21 373.57 132.98 373.81 133.4 374.18 133.82 370.29 134.7 370.33 135.04 371.18 135.54 371.65 135.96 371.88 136.46 371.84 137.34 371.04 139.48 370.85 140.32 370.57 140.55 369.21 140.55 368.74 140.62 368.46 141.27 368.93 141.66 370.94 141.58 371.79 141.92 371.88 142.27 370.62 142.61 369.35 143.61 369.49 144.14 369.91 144.37 371.93 143.8 372.73 143.84 373.62 144.18 374.74 145.48 375.4 145.52 376.01 145.18 376.9 144.14 377.93 142.77 378.35 142.5 378.54 143.65 378.4 145.21 375.4 149.15 375.73 149.38 377.46 148.01 378.26 148.08 377.79 148.85 378.31 149.08 379.48 148.89 381.12 148.92 382.1 148.77 383.56 148.2 383.93 148.47 384.07 149.84 383.32 152.48 383.28 152.98 383.7 153.36 384.59 152.82 385.11 152.75 384.73 153.51 384.12 154.32 384.26 155.12 384.87 155.96 384.92 156.38 384.59 157.34 385.15 157.49 386.14 157.11 386.93 157.64 387.45 157.8 387.87 158.1 388.43 158.14 389.37 157.61 390.31 157.87 391.06 157.61 390.68 154.39 391.25 152.29 391.86 152.25 392.19 153.7 392.51 153.86 392.94 153.71 393.69 152.83 394.34 153.55 394.91 154.47 396.17 158.29 396.22 160.28 396.97 163.61 397.3 165.87 397.53 167.17 398.89 169.69 400.25 170.46 400.72 170.42 401.19 170.11 402.69 168.01 404.24 165.83 410.43 149.96 410.52 148.77 412.82 143.84 413.76 140.47 414.46 139.67 414.88 138.1 417.7 133.51 418.07 132.02 418.07 129.42 418.35 128.01 419.53 125.25 420.09 124.79 420.42 125.02 420.51 125.79 420.14 127.43 420.42 129 420.28 130.45 419.53 132.63 419.57 133.28 419.2 134.89 419.38 136.99 418.16 141.2 417.98 141.7 417.18 142.58 416.62 143.07 416.24 143.8 415.02 148.54 412.72 151.83 412.3 153.06 412.11 154.62 412.16 157.64 411.22 161.74 411.18 165.45 411.55 167.47 412.21 168.93 412.72 169.77 413.38 170.19 414.04 170.38 414.46 170.34 415.3 169.81 416.24 169 416.71 168.51 417.22 167.02 417.65 161.43 417.98 159.37 418.26 159.02 418.63 159.25 418.96 160.02 419.52 160.74 419.99 160.78 421.12 159.18 421.54 158.18 422.48 154.28 423.74 150.8 425.29 145.68 425.95 140.63 426.37 139.48 426.75 139.21 426.75 140.97 427.17 142.62 427.92 143.5 428.2 144.18 428.05 145.09 426.88 152.1 425.1 157.23 423.18 161.81 422.66 164.57 422.62 165.56 421.26 169.46 420.13 171.45 419.29 173.44 417.74 177.72 417.46 178.49 417.08 178.91 415.96 179.6 415.72 179.87 415.63 180.82 415.39 182.47 415.67 183.65 415.35 185.95 415.58 186.79 416.57 187.48 417.36 187.67 418.02 188.05 417.27 188.85 417.13 189.2 417.13 189.5 417.83 190.04 418.63 190.23 419.47 190.04 419.8 190.38 419.61 190.8 418.86 191.61 418.44 192.14 418.25 193.18 418.35 194.74 417.78 196.77 412.72 201.82 410.75 204.84 409.2 206.45 408.87 207.48 408.87 207.86 408.73 208.14 408.64 208.32 407.56 208.97 407.04 210.35 406.06 211.23 405.78 214.48 406.15 215.36 406.62 216.24 407.89 217.42 408.17 218.15 408.03 218.99 405.92 222.66 405.07 225.07 403.95 226.22 403.71 227.98 403.29 228.93 405.87 232.68 406.53 233.98 407.7 238.69 408.31 241.67 407.98 242.28 406.48 243.2 405.82 243.24 404.28 242.78 403.57 243.04 403.53 243.58 403.81 244.04 404.23 244.42 404.84 244.69 404.32 244.84 402.77 244.19 401.84 244.38 392.13 248.97 388.57 250.43 387.96 250.62 387.44 250.92 385.38 251.57 384.86 251.54 383.93 251.11 383.55 251.15 382.99 251.69 381.91 253.14 380.65 255.51 379.89 257.16 378.54 262.97 377.55 265.34 377.69 266.3 378.11 267.25 379.52 268.94 380.22 270.35 380.5 271.35 380.46 272.45 379.61 273.98 377.6 278.92 376.89 282.36 376.75 284.62 376 286.22 375.44 286.95 373.89 288.48 373.14 288.86 371.31 289.13 370.66 289.32 369.72 289.93 369.35 290.85 369.3 291.54 368.83 292.19 364.61 293.64 363.44 293.91 361.66 294.48 361.28 295.09 361.24 296.09 361.8 297.62 361.8 298.08 360.2 298.96 360.06 299.26 359.88 299.87 359.31 299.84 359.03 299.65 356.59 297.39 356.22 297.05 355.85 297.05 355.38 297.39 354.63 298.42 353.78 300.37 353.03 300.87 353.13 299.57 351.25 297.89 350.45 297.92 349.33 298.54 348.25 298.69 346.75 299.03 345.81 299.42 343.47 300.83 342.77 301.4 341.59 302.78 339.86 303.66 336.67 305.31 335.08 306.76 333.53 307.68 331.37 309.32 330.25 309.82 326.59 312.11 323.55 313.87 320.73 314.98 318.95 316.05 317.45 317.12 314.22 319.27 311.92 320.37 310.42 321.37 310 322.17 309.3 324.31 308.59 327.64 308.08 328.25 307.47 329.32 306.2 329.82 307.84 331.31 308.31 332.54 308.5 333.91 308.45 334.6 308.03 335.56 307.38 336.32 307.28 337.2 306.81 338.01 306.53 339.8 305.64 341.56 305.27 342.86 304.89 343.36 303.67 344.55 302.74 347.95 301.94 348.98 301.61 349.75 301.52 350.93 302.03 353.92 302.69 355.83 302.78 356.98 302.08 357.59 301.47 357.7 301.1 358.01 300.81 359 301.05 360.23 302.17 361.22 305.08 362.9 306.35 363.9 307.94 364.13 308.31 364.47 306.07 364.89 303.77 365.92 302.69 366.54 301.85 367.38 301.57 367.88 301.52 368.98 301.75 369.48 302.6 370.55 303.02 371.39 304.19 372.81 304.38 373.69 304.1 376.1 303.63 377.24 302.41 378.77 301.75 380.08 302.65 381.95 302.88 384.74 303.35 385.89 304.14 386.96 305.13 387.69 305.6 389.14 306.35 390.63 307.29 391.74 307.75 392.62 307.99 394 307.71 394.57 305.93 395.6 305.55 396.1 305.65 396.71 307.1 398.01 307.61 399.66 307.57 400.57 307.05 402.26 307.29 403.1 306.96 404.25 307.05 405.12 308.18 407.04 308.08 407.96 307.43 408.72 307.19 409.22 306.82 409.33 306.44 409.71 306.58 411.01 306.02 411.32 305.51 411.32 304.71 411.09 303.35 410.14 302.46 410.21 301.01 411.28 300.44 412.01 300.16 412.7 299.08 413.84 298.8 414.53 298.71 416.14 298.34 417.82 298.62 419.28 298.2 420.23 298.2 420.88 298.34 421.72 298.2 422.07 296.84 423.1 296.7 423.56 296.79 424.71 296.42 425.4 293.51 428.15 293.56 428.68 293.32 429.11 292.2 430.02 290.65 431.71 289.95 432.32 289.81 432.66 289.9 433.35 289.53 433.85 289.06 434.77 286.29 438.09 284.04 438.94 282.59 439.78 282.26 440.2 281.51 442.76 280.81 446.43 280.62 446.74 280.11 447.08 279.59 447.12 279.69 447.62 280.2 448.08 280.34 448.5 280.01 449.3 281.19 453.35 281.82 454.58 281.84 454.62 Z M 186.59 528.9 168.36 559.88 167.97 560.56 186.59 528.9 Z M 645.27 479.45 644.38 479.72 642.46 481.09 640.91 481.97 640.58 482.58 640.58 483.88 641.19 484.92 641.14 485.34 641.57 485.68 643.21 486.18 643.77 486.49 644.75 487.56 646.11 487.29 646.44 486.95 645.41 484.69 645.41 483.39 645.74 481.63 645.6 479.68 645.27 479.45 Z M 408.46 94.12 410.24 91.75 414.14 87.7 415.87 86.24 418.31 84.02 420.23 83.26 421.83 82.11 425.16 79.86 425.67 79.32 428.16 70.87 428.35 69.42 428.16 69 427.18 68.92 421.13 69.72 419.81 70.18 417.23 71.37 413.44 73.24 409.45 75.3 407.67 76.91 405.84 79.01 402.32 83.18 401.8 84.22 400.02 86.24 399.04 87.73 398.62 88.73 396.88 91.44 395.43 93.97 395 94.92 393.6 97.07 392.56 99.17 391.72 103.45 391.49 106.09 390.73 108.73 390.55 109.99 391.02 110.41 391.44 110.45 391.95 110.26 392.84 109.61 394.86 108.88 395.85 108.16 397.25 106.55 399.04 105.56 399.79 104.06 401.38 102.99 402.83 101.66 404.52 100.89 405.04 100.32 405.51 98.82 408.46 94.12 Z M 451.06 25.93 451.85 25.74 452.46 25.82 452.93 25.74 453.54 25.44 454.53 24.29 456.59 21.04 458.28 17.33 459.45 15.69 462.83 11.79 463.53 10.64 464.38 8.34 465.41 6.89 465.97 5.86 466.16 4.79 465.97 3.83 465.36 2.57 464.85 2.22 464.47 2.26 463.68 2.53 462.83 2.99 462.13 3.72 461 6.43 459.88 10.18 458.19 12.93 455.89 15.65 453.35 20.05 451.76 23.53 449.32 27.12 450.02 26.89 450.49 26.32 451.06 25.93 Z M 343.98 185.72 343.28 185.87 342.9 188.05 342.15 189.96 341.26 191.53 341.4 192.37 342.11 192.52 343 192.29 343.89 191.68 344.12 191.15 344.64 187.21 344.55 186.4 343.98 185.72 Z M 438.15 50.26 437.36 50.6 436.84 51.4 436.04 54.69 435.34 55.84 433.93 56.57 434.07 57.14 434.07 57.79 433.42 58.25 433.42 59.13 434.26 59.32 435.01 58.86 436.6 56.22 437.5 53.16 438.15 50.26 Z M 42.81 594.79 41.03 595.6 39.35 596.14 38.31 596.33 37.1 595.94 37 596.4 37.43 596.82 38.32 597.01 39.3 597.66 40.33 597.93 41.36 597.89 43.09 596.36 43.42 595.83 43.42 595.33 42.81 594.79 Z M 399.93 84.48 398.1 84.94 396.97 85.67 395.99 86.93 395.61 87.92 395.71 88.73 395.89 89.15 396.27 89.49 396.74 89.45 397.07 89.22 397.44 88.84 398.19 87.39 398.71 85.9 399.79 84.94 399.93 84.48 Z M 411.14 94.89 414.7 90.99 415.22 90.26 415.36 89.57 415.08 89.15 414.47 89.34 413.06 90.45 412.17 91.41 410.48 94.62 410.53 94.96 411.14 94.89 Z M 372.87 116.65 371.79 116.99 370.38 117.64 370.05 117.95 369.77 119.44 370.05 119.86 371.55 119.17 372.31 118.63 374.37 117.68 375.07 117.1 374.88 116.65 374.27 116.53 372.87 116.65 Z M 135.9 570.41 135.95 571.29 136.37 571.63 136.74 571.4 137.68 570.4 138.1 569.45 138.2 568.19 137.31 568.45 136.37 569.22 135.9 570.41 Z M 436.33 50.64 435.62 51.02 435.1 51.86 434.68 53.09 434.35 54.35 434.59 55.23 435.06 55.04 435.67 53.77 436.28 51.56 436.33 50.64 Z M 16.85 590.67 16.34 590.94 15.59 592.05 15.78 592.4 16.62 592.97 17 593.05 17.56 592.32 17.93 592.13 17.79 591.78 18.26 591.36 18.49 590.75 16.85 590.67 Z M 451.52 26.7 450.96 27.04 450.4 27.54 450.3 28 450.63 28.23 453.12 27.16 452.56 26.74 451.52 26.7 Z M 231.75 277.47 231.66 276.44 230.77 276.4 230.82 277.09 231.71 278.58 232.22 278.85 232.36 278.58 231.75 277.47 Z M 138.94 560.96 139.36 560.5 139.18 560.08 138.71 559.58 138.29 559.54 137.91 559.74 137.72 560.35 137.93 560.59 138.1 560.81 138.94 560.96 Z M 172.7 465.49 172.23 465.84 172.13 466.49 172.65 466.75 173.12 466.68 173.59 466.3 173.63 465.8 173.16 465.53 172.7 465.49 Z M 436.61 47.92 435.71 48.84 435.67 49.38 436 49.53 436.37 49.26 436.79 48.69 436.84 48.23 436.61 47.92 Z M 135.87 498.7 136.3 498.85 136.67 498.51 136.72 498.09 136.39 497.89 135.87 498.12 135.87 498.7 Z M 20.06 627.69 20.53 627.27 20.15 627.04 19.69 627.5 20.06 627.69 Z M 15.31 590.41 14.89 590.83 15.45 590.75 15.31 590.41 Z" fill-rule="evenodd"/>
</g>
</svg>