<?xml version="1.0"?>
<svg xmlns="http://www.w3.org/2000/svg" version="1.2" baseProfile="tiny" width="800" height="1550" viewBox="0 0 800 1550" stroke-linecap="round" stroke-linejoin="round">
<g id="upperlake">
<path d="M 222.28 542.36 229.02 526.67 253.69 486.95 302.95 425.13 346.41 369.12 377.32 309.23 387.95 264.81 393.74 229.07 390.84 168.22 390.09 119.46 385.72 108.26 390.94 67.3 395.27 55.52 396.73 26.07 403.3 16.89 405.42 11.87 405.62 3.37 408.81 1 415.08 2.59 418.95 6.07 423.39 7.42 427.25 11.09 434.59 19.59 439.81 28.29 446.18 34.47 447.73 40.65 451.4 42.39 465.89 43.93 477.48 38.33 487.91 33.31 495.45 34.85 501.69 34.97 576.45 80.61 635.29 128.35 731.68 207.9 786.76 298.16 789.87 339.06 799 429.73 774.89 538.97 748.51 650.04 693.45 795.35 629.7 909.32 564.02 1024.25 446.18 1221.28 343.8 1373.88 287.78 1440.53 230.79 1491.71 180.86 1549 158.06 1542.81 134.99 1533.72 118.46 1523.49 80.79 1500.79 49.88 1474.72 38.61 1458.68 24.76 1437.05 20.9 1415.8 17.36 1393.85 9.82 1370.69 11.73 1333.22 4.96 1299.9 1 1275.79 14.14 1249.19 36.34 1231.9 41.52 1210.82 56.73 1171.7 61.81 1133.31 63.09 1095.63 60.5 1059.99 62.53 1020.31 74.62 1000.53 91.98 959.1 109.62 854.43 171.76 703.43 181.33 653.78 214.08 557.47 222.28 542.36 Z"/>
</g>
</svg>