<?xml version="1.0"?>
<svg xmlns="http://www.w3.org/2000/svg" version="1.2" baseProfile="tiny" width="800" height="514" viewBox="0 0 800 514" stroke-linecap="round" stroke-linejoin="round">
<g id="colemanlake">
<path d="M 263.9 30.46 268.59 34.67 273.83 42.58 276.04 44.74 285.01 48.64 287.08 51 287.36 54.49 288.05 56.03 289.15 56.34 294.67 56.13 295.64 56.65 295.78 57.06 291.22 64.04 290.95 66.51 293.3 72.26 292.74 74.83 286.82 90.54 286.82 94.03 292.06 96.7 298.68 98.04 299.65 99.47 298.13 100.91 291.92 102.86 291.92 103.69 293.72 106.05 305.31 112.01 307.52 113.85 308.75 117.14 312.21 119.5 311.65 121.04 309.58 121.76 309.86 125.05 308.62 131.11 301.59 145.18 301.87 147.65 302.97 148.06 304.07 147.96 312.9 144.05 318.42 142.92 323.11 143.43 328.35 145.49 332.77 148.36 336.49 151.95 358.84 166.13 370.16 173.11 378.99 180.61 383.4 180.4 383.54 177.12 381.88 173.83 375.4 168.59 375.67 166.13 376.37 165.51 377.47 165.51 380.78 166.33 386.16 169.52 390.99 174.34 393.06 175.16 395.26 174.65 395.96 174.03 389.2 166.02 386.44 164.38 383.54 163.25 383.12 161.61 384.23 160.07 385.33 159.86 389.88 160.68 396.09 163.15 403.13 169 408.1 174.34 417.06 180.51 421.48 185.54 423.27 186.87 426.86 189.64 426.72 188.82 429.2 190.67 430.58 193.13 431.55 200.43 432.79 202.79 436.38 206.18 454.18 216.86 474.59 234.83 484.66 241.1 494.32 253.63 503.98 260.1 505.49 262.36 504.39 268.21 504.53 270.68 508.12 275 508.53 277.46 515.15 283.62 520.39 285.16 520.8 285.98 520.39 286.81 514.46 293.17 514.19 294.82 515.98 297.18 518.19 299.03 525.5 301.6 529.77 304.88 540.67 304.78 544.12 307.14 548.12 309.3 552.39 309.81 558.88 313.41 559.98 313.41 561.09 313.92 561.77 315.46 559.84 320.49 559.98 322.14 561.5 323.37 564.81 323.57 567.57 322.24 572.54 316.39 573.64 315.87 576.95 315.98 577.5 316.69 572.95 328.61 576.95 339.5 578.74 341.65 581.78 342.99 585.08 343.09 586.88 344.12 589.36 348.84 593.09 350.59 594.6 352.03 594.46 352.85 592.67 355.83 592.67 357.47 593.78 359.11 594.74 359.42 597.09 358.91 599.02 357.88 602.74 352.75 604.53 351.62 610.05 351.51 612.67 349.77 616.81 344.53 618.33 343.5 620.54 343.3 622.74 344.32 623.99 347.61 623.02 354.19 623.71 357.68 626.05 359.53 638.47 364.35 647.16 366.1 647.71 366.92 645.36 368.67 633.09 371.54 621.77 371.75 618.74 372.67 614.05 375.34 611.29 378.32 608.39 379.45 601.77 378.94 600.81 379.45 600.95 381.09 611.57 389.21 613.91 389 615.98 388.29 623.98 380.89 628.39 379.35 633.91 379.04 637.09 380.07 642.46 380.58 643.43 381.2 643.15 382.02 640.95 384.18 637.36 386.23 636.12 387.67 636.4 389.31 637.36 389.72 646.19 388.39 651.7 388.29 661.36 391.16 662.46 391.88 667.7 393.42 669.22 393.83 669.63 396.3 668.53 399.48 669.08 401.13 672.39 400.82 681.91 395.48 683.98 394.76 690.6 395.27 695.7 397.23 698.05 398.87 698.33 400.51 696.81 402.88 694.19 404.42 687.84 406.47 686.46 407.8 685.91 411.91 683.42 415.92 683.7 417.66 685.91 417.87 690.46 417.15 692.39 416.33 694.32 411.4 698.74 411.5 700.81 412.43 702.18 414.69 703.29 414.79 704.25 414.17 705.5 410.88 707.29 407.7 709.22 406.68 726.88 406.47 728.67 407.5 728.12 409.76 726.05 410.68 719.43 412.32 715.84 414.69 713.49 417.67 712.94 420.13 713.35 420.85 716.25 422.49 721.49 423.83 743.56 427.01 755.97 429.58 767.01 429.79 770.18 430.82 774.73 431.13 779.01 432.05 782.59 434.21 797.21 450.85 799 456.5 798.31 459.38 795.14 462.77 791.69 462.46 789.21 460.71 784.79 460.71 778.17 460.2 776.1 461.01 773.48 463.79 770.17 464 768.1 463.69 764.79 460.91 762.59 460.71 760.52 461.33 758.59 464.4 754.72 465.95 752.93 467.28 752.24 472.21 755.83 478.37 755.27 480.84 752.93 482.69 749.89 483.82 742.58 486.08 739.55 488.75 739 490.39 739.14 494.6 742.72 501.89 742.03 504.36 740.51 505.69 737.21 506.21 721.62 505.59 712.93 504.05 706.17 502.51 703.28 499.63 699.14 490.49 697.21 488.43 689.21 482.68 686.18 479.91 683.97 475.9 683.01 469.23 681.08 467.38 677.76 467.07 676.66 467.58 672.11 472 661.08 472.1 655.84 470.05 649.22 470.15 646.04 470.15 642.59 469.63 637.22 469.43 635.15 470.46 634.04 472 633.49 481.03 632.11 485.96 631.28 486.37 628.94 485.86 622.87 483.6 609.63 475.9 602.18 473.33 589.08 469.94 576.94 469.12 572.53 468.3 563.7 464.19 559.15 463.16 545.91 463.47 543.84 462.65 542.33 461.41 540.12 455.46 538.46 454.02 535.02 453.81 532.81 454.23 531.16 455.46 527.29 460.8 525.22 462.96 522.33 464.39 509.92 467.88 506.19 470.14 484.95 479.9 484.12 480.83 477.5 484.32 469.09 487.3 467.02 489.66 459.57 494.28 455.3 495.52 447.44 495.41 441.92 496.65 430.89 501.48 422.06 503.94 413.24 505.17 392 506.41 383.31 507.33 370.35 511.13 363.72 511.03 358.9 510.11 345.66 507.33 333.52 506.31 302.63 505.9 293.53 506.62 258.36 507.34 239.6 509.2 224.43 512.79 215.47 513 204.16 511.97 188.57 512.49 185.26 511.87 181.54 509.82 164.99 505.2 150.78 498.73 146.92 496.37 141.26 490.52 138.5 488.77 127.47 483.74 124.43 480.87 121.39 477.07 110.64 470.08 107.19 466.18 105.67 462.08 104.7 453.86 105.8 451.29 108.28 449.44 115.18 446.77 117.11 445.64 117.52 443.89 117.38 442.35 113.25 437.32 110.76 432.39 108.41 424.17 104.69 418.83 100.82 414.72 99.17 410.62 98.47 403.74 99.16 397.78 100.81 392.03 101.23 385.25 100.4 381.86 96.12 376.62 89.91 371.49 88.67 368.1 83 338.52 82.72 329.99 83.83 327.32 85.62 326.19 96.79 325.06 100.1 325.57 102.86 327.21 106.45 327.32 107.83 325.06 109.06 320.02 111.27 317.05 111.13 312.01 109.06 306.16 106.3 303.38 102.44 301.54 98.02 301.23 89.19 302.26 88.64 301.54 87.54 297.84 86.71 297.13 86.3 295.48 82.15 291.17 78.15 287.88 73.05 280.18 70.43 278.23 65.32 276.38 62.7 274.74 59.11 270.22 59.11 268.58 60.63 266.32 64.49 262.93 66.14 259.64 66.14 257.79 66.28 256.35 64.34 254.3 54.28 250.4 50 249.58 40.07 249.58 28.89 250.71 28.21 249.99 27.93 245.89 25.85 242.6 19.37 238.8 17.16 236.85 13.43 229.46 10.95 222.78 9.7 210.97 1.55 191.25 1 188.79 1.68 183.86 1.41 180.57 1.96 179.85 5.69 177.9 7.62 173.89 9.69 173.48 10.79 173.58 22.25 188.58 25.01 190.22 29.42 190.83 33.83 190.53 36.17 188.78 37.28 185.29 39.76 182.51 44.31 179.74 62.38 173.57 70.1 169.77 78.38 163.09 80.72 160.11 82.52 154.98 82.65 150.05 78.51 141.83 75.2 139.16 70.37 136.7 69.54 133.51 70.64 131.05 72.57 130.43 75.88 130.33 77.95 129.61 78.5 128.78 78.23 126.32 77.68 125.6 75.74 124.68 72.43 124.16 72.02 120.88 70.08 116.56 71.33 112.25 74.08 107.42 75.46 101.67 74.08 96.54 71.32 93.86 65.24 91.2 63.59 89.14 60.96 77.85 59.17 76.92 53.65 77.54 43.58 79.5 24.13 85.87 20.96 86.69 19.85 86.48 19.02 84.94 27.16 73.44 27.43 69.23 26.88 67.69 22.46 64.81 21.09 62.55 21.36 60.91 25.08 56.59 29.77 46.53 29.35 43.34 29.77 40.77 32.8 39.75 35.28 36.77 37.49 32.55 56.94 18.79 65.9 11.8 67.83 10.77 72.25 10.57 73.35 10.98 78.73 15.8 81.77 16.83 86.18 16.52 102.74 8.61 109.5 8.3 113.64 9.43 121.5 9.22 127.16 7.68 133.92 4.6 147.16 1.62 154.61 1 167.86 2.12 172 3.36 178.9 6.03 182.35 6.85 183.86 6.85 199.46 9.92 209.39 10.64 214.78 13.83 220.3 15.57 230.23 15.78 234.64 16.6 238.64 18.65 243.89 19.88 251.48 20.29 253.54 20.7 258.37 21.73 263.9 30.46 Z"/>
</g>
</svg>