<?xml version="1.0"?>
<svg xmlns="http://www.w3.org/2000/svg" version="1.2" baseProfile="tiny" width="800" height="1170" viewBox="0 0 800 1170" stroke-linecap="round" stroke-linejoin="round">
<g id="alkalilake">
<path d="M 492.75 690.04 493.6 691.87 496.79 694.66 507.42 699.2 511.14 701.58 521.02 716.55 523.36 722.92 524.21 728.66 526.65 734.63 535.9 741 540.25 744.74 551.62 756.68 556.4 762.89 560.44 769.82 562.57 776.19 569.58 785.74 575.1 796.73 577.55 798.88 583.18 807.48 584.77 812.02 588.71 818.23 589.24 821.02 596.78 830.97 604.43 843.71 604.96 846.89 608.25 851.67 607.94 855.41 608.79 856.05 616.22 862.58 622.28 865.6 623.66 867.36 628.76 870.54 630.56 872.69 633.22 873.73 633.75 878.11 642.56 884.47 652.12 892.6 658.82 900.96 662.32 903.98 666.04 905.73 669.97 912.34 676.66 917.52 677.4 921.5 688.34 932.97 690.25 935.99 702.79 947.54 707.03 950.08 709.37 952.87 714.15 956.06 718.72 961.47 724.56 965.06 727.21 969.99 731.99 972.78 732.31 975.96 734.22 979.55 736.03 981.38 742.72 992.53 747.29 997.46 751 1000.25 752.6 1003.44 755.99 1005.43 757.37 1012.35 764.28 1022.15 765.87 1026.93 771.5 1029.87 774.9 1033.69 782.44 1038.87 782.97 1040.06 781.9 1041.42 782.11 1042.45 789.87 1052.57 789.66 1054.8 791.99 1059.73 791.99 1061.72 796.56 1069.93 794.12 1075.5 794.43 1083.07 796.88 1087.44 799 1095.97 798.15 1098.59 793.69 1101.38 790.51 1101.78 781.48 1101.62 779.04 1103.21 778.29 1105.76 773.84 1111.17 763.43 1112.93 750.37 1107.99 745.91 1108.23 741.66 1109.58 740.28 1109.42 732.64 1106.4 716.61 1097.72 711.62 1096.29 706.31 1095.89 696.43 1098.12 691.65 1098.52 681.57 1101.54 673.92 1102.34 669.36 1102.1 661.08 1105.92 658.42 1106.56 652.58 1106.96 641.43 1106.16 634.53 1107.36 631.67 1109.51 613.83 1114.13 603.75 1117.71 588.35 1116.6 581.23 1117 573.49 1119.55 571.89 1120.98 571.68 1122.57 574.02 1128.15 575.08 1133.48 574.34 1139.14 575.93 1146.06 572.01 1160.4 569.89 1163.82 565.64 1167.17 557.89 1169 552.05 1168.6 548.12 1166.45 546.53 1164.22 544.09 1164.22 535.06 1158.25 532.62 1158.25 526.25 1153.48 524.12 1153.88 517.54 1149.73 512.23 1148.7 509.79 1148.94 505.01 1147.75 494.39 1146.95 482.93 1142.18 469.66 1142.66 460.84 1139.08 448.63 1138.68 445.45 1137.65 440.46 1138.92 436.42 1138.68 431.11 1140.27 427.93 1140.28 425.28 1142.51 422.62 1143.06 421.03 1144.26 407.55 1146.89 401.39 1148.72 396.93 1148.33 393.43 1146.73 383.02 1144.9 379.62 1142.52 373.78 1133.2 370.59 1131.45 368.36 1128.03 364.65 1124.84 360.92 1116.48 355.93 1112.74 354.02 1106.53 345.2 1098.97 342.33 1096.18 339.89 1095.39 337.02 1093 334.05 1091.64 330.02 1090.85 328.42 1088.46 325.55 1087.67 320.99 1084.48 314.62 1081.3 313.02 1081.14 304.74 1075.33 301.02 1071.19 286.68 1060.6 278.93 1057.42 274.46 1054.47 267.56 1053.28 265.44 1051.93 256.83 1042.54 257.36 1040.39 250.98 1030.04 251.51 1027.81 250.45 1025.42 249.39 1023.67 245.14 1020.25 241.95 1018.89 235.79 1019.05 232.08 1017.06 227.83 1016.11 219.65 1011.33 214.02 1010.54 210.83 1008.95 204.46 1000.59 195.31 983.47 194.57 979.49 194.24 968.35 195.09 965 192.65 963.17 193.39 961.02 192.86 957.99 191.79 955.45 189.99 953.46 189.45 951.23 191.04 949.63 190.19 945.89 191.57 939.84 193.16 937.05 192.31 932.51 194.64 925.9 195.7 917.54 199.41 907.03 202.8 901.22 204.17 889.83 210.75 881.7 214.25 875.33 214.67 864.34 212.86 860.36 210.21 857.18 196.82 844.44 195.54 841.65 195.75 838.07 194.47 835.52 193.4 825.73 187.24 819.76 185.11 812.44 182.13 807.66 176.5 801.45 175.23 798.5 174.9 795.32 176.49 784.73 176.28 781.38 177.87 778.2 175.95 771.59 175.63 766.81 178.07 760.6 179.34 750.25 178.8 745.87 175.29 737.91 176.34 723.02 177.72 717.44 178.67 716.01 192.79 704.62 195.45 701.67 196.19 699.04 198.31 697.05 198.84 694.1 197.56 684.55 195.11 679.77 188.42 674.2 182.89 672.21 179.39 670.62 172.48 669.59 170.14 667.84 168.44 662.82 164.72 659.08 160.47 652.31 157.28 649.13 147.39 631.62 137.82 620.87 128.99 612.75 123.47 606.54 121.87 603.6 121.86 598.58 126.85 587.27 127.06 584.24 121.74 578.51 115.69 573.9 112.18 569.52 110.05 564.58 108.66 553.04 104.19 549.86 102.28 543.64 100.67 529.15 104.92 524.69 104.04 497.06 103.51 493.64 97.56 487.11 95.96 484.09 99.67 477.16 102.33 473.97 102.65 471.74 101.47 459.4 109.42 445.86 111.01 440.28 108.35 434.31 110.47 427.55 110.47 425.31 108.34 420.78 109.08 414.8 110.14 412.81 108.75 401.67 110.87 397.28 111.4 393.7 114.06 391.63 115.44 386.85 121.81 382.07 124.14 377.53 128.18 374.11 131.36 367.18 135.5 363.12 136.88 360.17 137.94 353.96 141.86 345.99 141.11 336.84 143.13 329.91 143.97 323.93 142.37 307.77 142.79 302.75 143.85 301.4 146.82 300.21 148.1 298.21 148.62 293.2 149.47 292.64 149.47 288.42 150.53 286.27 162.75 277.66 165.08 277.03 165.61 276.07 172.31 271.69 173.58 269.86 175.38 263.09 175.17 259.34 172.72 257.75 165.81 254.57 154.65 251.79 131.48 247.26 104.38 245.28 96.94 245.52 93.75 245.12 88.44 242.74 87.37 242.74 85.78 244.09 84.18 242.9 82.27 238.52 78.01 226.58 76.73 219.65 69.17 209.86 66.3 204.13 66.51 197.36 69.69 189.56 69.15 185.18 67.77 183.19 62.77 180.24 59.79 174.27 57.67 173.08 54.26 172.44 51.07 170.46 50.54 168.7 42.04 165.52 40.12 163.53 37.99 159.39 38.2 158.36 36.39 155.81 36.6 154.22 35.01 152.79 33.41 147.21 30.01 143.87 29.15 138.06 27.77 136.7 27.23 133.52 31.48 127.46 31.27 126.11 29.35 125.08 29.88 123.33 35.19 119.9 35.51 118.94 34.45 115.52 26.15 112.18 23.17 108.76 23.7 104.38 28.8 93.86 29 87.25 27.93 82.72 23.89 73.96 21.23 70.38 15.69 64.81 5.27 57.8 2.82 54.62 1.76 51.28 3.67 44.51 1 36.55 8.32 21.41 13.42 14.8 21.92 10.82 30.63 8.58 38.6 7.62 48.17 7.78 51.36 4.75 60.92 1.96 67.08 1 77.4 1.16 91.53 1.55 109.29 4.48 126.41 9.65 138.32 15.78 167.14 36.47 178.31 42.44 186.6 50.8 190.54 58.76 200.75 68.31 206.81 64.64 211.27 57.71 217.43 51.9 228.59 50.94 236.56 51.49 256.23 57.22 265.58 54.83 262.39 57.06 256.23 58.81 252.83 58.81 250.38 58.42 239.43 54.28 231.46 52.93 225.93 52.93 219.24 54.13 217.43 55.08 213.71 58.67 212.65 61.46 208.19 67.67 204.69 70.85 204.16 73.64 205.54 76.67 210.86 83.04 218.31 94.5 232.99 112.41 243.09 122.36 243.94 127.93 245.22 130.96 249.48 135.1 250.86 141.31 253.84 146.64 257.03 149.83 259.9 151.66 269.05 163.76 268.52 169.33 271.4 174.11 272.78 180.32 282.67 197.2 284.27 201.02 283.95 202.77 288.53 212.96 290.13 219.89 290.99 242.58 287.28 253.97 282.29 262.17 279.96 268.94 276.78 283.04 279.44 295.22 284.55 309.31 290.93 322.29 292.53 329.85 294.98 336.22 302.95 347.93 305.08 354.54 311.25 366.48 321.67 381.21 325.4 390.76 331.78 399.12 333.38 413.21 342.74 419.82 346.78 425.79 351.56 430.33 353.9 433.35 354.22 437.73 358.26 441.87 359.32 445.69 363.79 451.03 364.32 455.4 370.49 468.14 369.75 472.36 370.28 477.14 374.54 488.05 380.7 493.06 385.7 498.4 401.43 521.33 403.03 524.91 403.13 527.86 401.23 532.47 401.23 535.26 403.67 539.8 410.05 544.98 414.83 547.76 418.55 552.38 421 558.75 421.53 562.49 431.1 575.47 434.82 583.19 434.82 593.78 444.17 600.87 447.15 605.25 456.19 622.2 460.22 625.95 462.56 632.56 467.67 640.68 468.2 645.06 470.33 649.04 481.48 657.63 486.58 665.36 490.84 675.55 490.31 677.54 486.91 677.7 486.91 679.93 492.75 690.04 Z"/>
</g>
</svg>