<?xml version="1.0"?>
<svg xmlns="http://www.w3.org/2000/svg" version="1.2" baseProfile="tiny" width="800" height="1026" viewBox="0 0 800 1026" stroke-linecap="round" stroke-linejoin="round">
<g id="antelopeplains">
<path d="M 487.55 795.51 488.73 792.66 487.95 788.12 486.39 783.86 485.71 774.37 486.64 770.63 487.56 766.39 488.87 763.64 492.67 760.67 498.49 755.45 500.71 752.16 501.61 750 501.73 746.84 501.21 742.88 500.17 739.02 499.41 736.9 500.04 735.07 502.44 733.52 504.68 733.2 508.9 732.65 513.98 731.66 519.15 729.4 524.13 726.49 528.48 722.68 528.84 721.11 533.75 714.59 535.95 709.53 533.89 700.08 532.3 697.49 531.07 695.9 531.1 694.42 532.05 692.75 533.23 689.21 533.36 685.95 532.96 683.19 531.75 680.51 531 678.33 532.54 676.96 536.13 675.07 537.68 672.62 540.17 670.03 544.81 667.56 551.78 664.22 560.06 661.15 569.79 657.2 577.77 652.3 586.84 645.49 591.24 638.77 592.82 635.23 592.66 633.16 591.51 631.27 590.81 629.88 590.98 628.1 592.53 626.24 594.8 624.34 596.74 622.29 597.66 618.54 598.3 615.94 598.04 612.38 597.54 611.24 596.51 610.14 595.46 609.74 593.23 609.12 590.94 608.85 589.12 607.94 588.71 605.27 587.82 599.78 585.46 595.91 583.23 591.88 579.96 587.51 577.58 584.28 575.99 581.59 575.1 579.9 574.3 577.03 573.07 568.87 571.12 557.3 569.67 553.34 568.61 546.86 567.59 541.52 567.17 535.59 566.66 531.43 564.56 527.32 558.78 519.9 555.5 515.91 550.11 508.46 546.14 502.79 542.08 498.65 537.09 494.89 531.34 492.51 526.7 490.94 523.56 490.16 521.21 489.1 516.95 487.06 512.61 484.57 506.94 481.7 501.03 477.98 496.69 473.99 495.28 471.95 489.63 468.29 480.29 461.28 470.55 454.56 467.53 450.73 467.52 447.67 467.52 443.92 465.67 440.94 462.38 437.6 458.55 434.79 455.17 432.83 454.27 431.54 454.49 430.16 455.82 429.28 458.29 427.38 459.37 425.81 460.93 423.26 462.94 421.51 463.58 418.5 463.03 416.47 460.3 410.82 458.56 405.77 457.16 399.09 458.73 389.38 459.01 381.08 455.95 375.47 450.15 369.24 448.21 367.3 444.39 364.2 438.62 359.59 433.51 355.15 431.27 351.38 429.43 347.55 427.57 345.37 424.38 343.6 418.76 341.72 414.17 340.73 409.44 340.34 405.49 340.74 402.28 339.82 396.77 339.32 390.32 339.45 384.84 340.43 378.89 341.9 375.25 343.49 371.78 346.02 369.84 347.93 365.87 349.12 362.04 350.07 359.06 351.07 355.22 352.86 350.1 355.42 347.58 356.58 346.53 356.53 345.48 356.31 343.65 355.81 342.22 354.95 339.81 353.93 338.37 353.33 336.3 351.28 333.91 349.09 331.18 347.04 326.81 345.26 324.85 344.26 323.82 343.36 322.72 342.21 321.84 339.93 321.03 337.75 318.26 334.37 311.83 326.1 305.5 319.87 303.96 317.88 302.09 315.93 299.61 314.72 296.68 313.46 294.19 312.64 290.76 313.05 287.91 314.16 285.78 315.62 284.62 317.68 283.38 321.07 278.55 333.12 276.55 338.72 275.94 343.26 275.8 347.21 276.94 349.69 278.8 352.37 280.66 354.91 281.06 357.97 280.39 358.95 278.13 360.17 275.49 360.63 264.06 363.23 257.99 364.2 253.19 364.8 247.13 364.68 242.52 365.28 238.54 367.36 237.38 369.13 232.37 373.77 226.29 382.64 222.08 389.75 220.55 390.58 218.7 391.05 216.72 391.43 213.69 391.74 205.8 391.66 202.66 390.94 200.96 390.28 197.89 389.36 192.65 387.78 189.2 386.11 185.29 383.65 178.73 379.39 171.58 375.07 163.32 369.61 160.4 367.06 156.63 365.09 152.96 364.16 149.88 363.79 145.66 364 140.07 364.28 132.41 365.89 130.03 366.65 127.66 366.57 125.96 366.26 124.65 365.76 123.48 365.1 122.12 363.61 119.79 361.61 115.96 359.15 111.79 356.89 106.75 355.3 101.26 353.32 97.96 350.77 95.17 348.57 92.95 347.31 89.29 346.34 86.15 345.61 80.18 344.37 74.66 344.17 73.2 344.94 72.06 346.31 71.38 347.59 70.09 349.4 68.89 350.68 68.1 350.67 66.93 349.67 66.23 348.38 65.99 347.09 65.34 343.28 65.31 341.5 65.86 340.18 67.19 339.01 69.12 337.84 72.18 336.05 73.05 334.57 73.48 332.9 73.2 330.63 72.44 328.64 69.02 321.45 65.18 315.64 61.5 311.75 57.82 308.3 51.41 302.61 43.39 295.07 37.97 288.85 34.26 282.94 31.79 277.83 31.38 275.16 30.24 272.77 28.09 271.18 25.61 270.51 22.72 270.08 17.98 270.28 15.23 269.71 14.19 269.01 11.65 267.75 8.25 266.34 4.55 263.78 2.29 261.14 1.67 259.25 1 252.54 1.68 251.26 2.48 250.68 3.48 250.04 5.34 249.07 7.34 247.61 8.22 246.44 9.04 244.42 11.52 241.88 12.72 241.1 15.11 239.99 16.24 239.02 17.59 237.45 17.95 235.58 19.04 233.07 19.45 232.58 20.71 232 23.35 231.29 31.29 228.95 38.51 226.45 43.13 225.37 49.38 224.89 57.43 223.98 65.49 221.94 73.91 218.28 82.05 215.1 85.3 213.85 88.89 211.96 91.63 209.18 94.01 205.15 93.38 200.31 93.35 194.68 95.61 189.57 96.22 185.03 95.74 178.61 95.82 177.62 96.75 177.09 98.86 176.72 101.24 176.4 107.55 176.71 114.65 176.83 121.49 176.7 126.23 176.5 130.84 176.4 139.92 176.35 145.43 177.29 150.45 179.66 156.23 184.01 167.15 190.94 171.2 192.61 176.1 194.78 179.8 197.33 182.78 199.44 191.1 205.35 199.22 210.87 202.66 213.17 204.11 213.43 204.76 213.44 205.96 212.76 206.64 211.88 207.11 210.79 207.94 208.98 209.5 202.87 210.44 197.65 211.46 192.13 211.49 187.2 211.32 182.16 210.71 175.83 209.65 172.76 209.5 169.9 209.88 167.43 210.42 162.7 211.37 157.68 210.59 153.32 208.87 150.54 205.43 144.34 202.83 138.83 201.22 133.18 200.94 130.51 201.1 128.94 200.68 123.5 199.13 118.15 196.5 114.42 196.12 113.43 196.2 112.74 196.73 112.45 198.19 111.97 199.51 111.74 203.06 111.68 210.45 110.47 217.67 108.03 222.31 105.95 228.47 103.65 233.83 101.58 237.42 99.84 241.63 96.57 244.27 91.91 245.07 88.26 244.25 85.98 244.39 85.1 246.34 83.14 250.96 78.89 258.32 71.56 262.66 64.65 264.01 62.69 265.15 61.81 266.21 61.23 268.33 60.31 271.38 59.36 273.3 58.54 275.04 57.17 279.79 52.73 286.33 47.71 289.65 42.46 292.83 37.51 299.23 32.99 302.79 28.93 304.41 26.37 307.43 23.29 308.96 22.43 313.31 21.83 319.38 20.95 325.54 18.89 330.86 15.74 335.46 12.38 339.24 10.59 341.88 10.27 344.11 10.59 345.56 10.65 351.61 10.57 360.94 11.06 374.54 8.63 386.37 5.84 398.73 2.61 404.88 1 407.04 1.31 408.61 1.82 411.35 3.38 416.5 5.96 420.2 8.81 421.73 10.9 424.8 12.36 441.88 24.34 447.29 27.7 453.75 30.53 460.81 32.63 466.99 32.79 473.04 32.71 476.2 32.83 477.51 32.9 478.55 34.09 480.27 36.98 480.93 43.7 480.67 47.45 480.54 51.1 482.27 57.09 485.69 60.78 489.12 63.92 491.7 66.27 493.98 67.77 495.28 68.38 496.99 68.64 499.21 69.26 500.65 69.92 502.14 71.22 503.3 72.61 508.01 73.89 516.57 76.94 520.81 78.81 523.41 80.62 525.15 82.46 526.68 85.44 527.86 88.81 528.41 91.38 528.28 94.84 529.75 100.92 532.24 105.19 534.31 110.5 535.89 113.87 537.61 116.65 539.95 118.31 544.04 120.97 549.57 124.93 552.09 127.03 556.05 129.98 556.67 135.51 558.24 146.63 566.93 153.49 581.04 166.22 589.17 174.31 595.48 178.67 599.19 180.73 601.27 181.99 602.3 182.89 603.07 183.98 605.57 187.46 607.94 191.28 609.02 193.27 609.39 194.56 609.64 195.16 609.81 196.83 608.99 198.8 607.31 200.46 603.24 203.24 598.99 205.71 598.25 206.49 597.44 207.27 596.9 208.15 596.49 208.84 596.54 209.92 596.66 210.92 598.36 211.43 600.2 211.25 609.3 210.16 619.95 210.27 624.82 210.08 632.41 212.22 639.78 215.66 643.89 217.68 645.58 218.93 646.86 220.62 648.6 222.51 651.88 226.65 655.71 229.6 658.22 232.29 659.63 234.53 662.14 237.12 664.23 238.18 667.9 239.2 671.37 239.88 673.42 239.31 677.27 237.33 693.7 223.87 693.32 226.64 693.09 228.51 693.86 229.8 696.07 231.01 698.42 231.97 703.69 234.84 709.12 240.08 714.49 248.67 720.37 257.67 723.84 265.95 726.82 271.66 730.88 279.51 732.49 285.4 733.03 291.42 733.54 296.07 736.93 304.55 740.91 313.43 742.19 318.77 743.67 324.12 744.03 325.9 744.46 327.58 744.55 333.41 743.24 340.01 742.3 344.34 741.26 347.49 740.89 349.76 741.38 351.64 742.98 353.83 745.19 355.73 747.2 356.88 751.54 357.37 755.74 357.37 759.44 357.01 763.91 356.71 767.57 358.28 769.52 359.14 772.14 360.06 775.36 360.14 780.96 359.07 785.21 357.09 788.59 355.74 790.44 355.51 791.22 355.91 792.26 356.52 792.45 357.31 791.77 358.09 789.92 362.42 789.81 364.19 790.55 367.07 792.68 369.36 794.93 371.8 796.48 373.89 798.46 376.92 798.95 378.41 799 379.69 797.93 380.62 794.01 382.35 791.5 383.37 788.59 384.17 787.01 383.96 781.65 382.08 770.47 378.6 764.51 377.31 761.35 377.42 756.74 377.92 752.18 378.91 745.7 381.06 741.24 383.73 739.64 384.94 737.43 387.09 736.47 389.06 735.6 389.94 734.15 390.37 731.64 390.73 729.39 391.35 727.15 391.72 725.71 391.31 723.88 390.75 720.62 389.48 717.54 388.46 714.4 387.98 709.93 387.5 706.51 387.56 703.74 388.37 701.94 389.34 700.33 390.95 698.78 393.2 697.73 396.46 697.42 399.02 696.68 403.55 696.88 407 698.86 409.9 701.76 413.03 704.8 415.83 707 417.58 708.48 419.47 708.75 422.54 708.63 425.69 707.66 428.54 707.41 431.31 708.08 434.08 708.7 436.16 709.91 438.05 710.95 439.1 711.51 440.48 710.68 442.55 709.65 445.05 708.62 447.61 708.03 450.76 708.57 453.63 709.01 458.38 709.92 462.14 712.27 466.95 714.5 470.92 716.59 475.04 718.03 478.71 718.69 482.57 718.47 487.06 719.54 493.39 720.82 498.88 720.71 504.51 720.92 507.57 723.34 511.94 724.88 514.03 725.93 521.2 725.81 527.72 726.33 530.98 726.75 533.55 728.01 536.33 729.19 540.49 729.62 542.08 730.01 545.68 730.65 550.13 731.7 553.49 733.91 558.66 734.99 564.15 735.39 567.21 736.28 572.55 736.41 576.4 737.48 582.34 737.58 587.18 736.29 589.93 733.95 592.13 732.58 594.78 731.8 597.53 732.22 599.71 732.71 601.69 731.53 605.04 730.36 608.08 729.72 610.45 730.88 615.39 731.67 618.96 732.05 623.21 734.59 628.12 734.13 631.38 732.46 636.44 730.34 640.76 729.52 642.33 729.01 645.59 729.15 648.15 727.73 650.66 726.67 654.3 725.76 657.25 723.34 660.24 720.36 664.95 717.19 669.11 715.71 670.87 714.93 674.22 714.14 677.57 712.72 679.97 710.32 681.63 705.61 683.8 701.09 686.17 697.82 688.65 696.27 691.11 695.89 693.87 694.97 697.31 694.29 698.59 691.55 700.98 687.47 704.64 683.51 708.8 681.54 712.23 680.22 715.87 679.78 718.63 679.92 721.79 677.99 726.46 674.83 733.93 671.94 744.42 672.02 753.89 672.57 760.12 674.15 766.9 675.29 768.98 674.93 770.76 673.46 772.18 671.12 774.33 668.22 778.39 666.86 780.55 666.11 782.41 664.77 787.14 664.01 792.61 664.24 798 664 800.32 663.35 803.37 662.29 807.31 662 811.85 662.53 815.4 663.48 817.59 665.26 820.72 666.18 824.38 667.66 829.63 668.57 833.59 669.89 836.81 671.61 839.69 676.62 842.75 680.39 845.02 682.38 847.7 682.78 850.77 682.4 853.92 682.11 858.86 682.61 863.7 683.92 867.71 685.77 870.5 688.02 873.13 689.16 875.42 689.57 878.09 688.53 881.04 687.71 882.71 687.25 886.61 687.48 888.28 687.62 891.4 689.69 896.45 691.27 900.22 691.71 904.96 690.2 911.76 688.62 915.4 686.65 918.69 684.58 924 683.76 929.22 683.35 937.41 683.28 941.16 684.13 944.43 687.34 948.66 691.68 952.36 695.71 954.72 697.99 955.88 700.46 957.39 701.22 958.98 702.19 963.18 703.37 967.24 707.01 972.86 713.45 979.89 719.79 985.73 724.13 989.18 729.76 993.93 733.43 997.67 739.6 1005.09 742.62 1009.42 744.73 1012.45 746.54 1014.05 749.84 1016.9 752.23 1018.7 753.4 1019.9 754.88 1021.74 755.24 1023.13 755.09 1024.11 753.77 1024.54 748.51 1024.83 738.78 1024.73 731.41 1024.9 727.07 1025 726.05 1023.91 726.2 1022.62 726.96 1020.46 727.66 1018.19 727.76 1016.22 726.09 1014.33 721.85 1012.26 711.18 1010.37 706.72 1009.68 703.05 1009.2 700.01 1009.51 694.62 1010 689.81 1010.49 684.93 1011.09 679.55 1010.68 673.99 1009.19 663.21 1005.72 658.63 1004.34 655.9 1003.08 654.55 1001.19 652.3 998.75 649.96 996.95 645.45 995.47 642.59 994.11 640.21 991.12 637.72 987.29 635.65 985.2 631.17 982.53 625.76 979.86 621.95 976.41 615.67 970.87 614.71 969.67 612.92 966.54 612.61 965.65 609.9 963.35 607.09 961.89 600.67 961.19 595.67 960.98 592.65 960.81 590.56 960.19 587.56 958.83 583.7 957.75 579.11 957.55 573.73 956.75 568.09 955.95 565.68 954.85 560.57 950.35 556.23 946.75 552.27 943.79 548.62 942.13 543.65 941.14 540.57 940.37 537.69 940.04 533.26 940.84 528.36 942.9 523.24 942.8 517.19 942.59 512.46 942.79 508.26 942.5 506.03 941.54 501.31 937.59 498.39 935.59 494.17 932.63 489.31 928.88 482.87 925.15 479.48 923.54 475.94 922.86 472.14 922.37 466.48 922.57 462 923.07 458.72 922.88 455.45 922.16 451.72 920.88 447.95 918.62 441.61 912.98 438.18 910.43 435.98 908.33 432.14 905.77 427.05 903.79 423.45 902.92 420.43 902.74 418.19 903.21 416.66 904.28 413.65 907.17 411.38 909.11 408.39 910.61 407.21 910.5 406.13 908.12 405.2 905 402.6 899.94 399.29 894.03 396.38 887.63 395.9 885.56 395.19 884.75 392.72 883.65 389.44 882.67 385.37 882.28 380.34 880.7 378.02 878.51 377.71 877.12 377.59 873.07 378.67 867.65 378.53 864.69 377.98 862.61 375.65 860.17 372.09 857.42 366.43 854.44 364.47 853.43 362.79 852.08 362.62 850.21 363.3 845.63 364.05 840.3 363.78 836.94 363.66 832.99 364.75 830.73 367.9 827.7 372.11 823.85 375.37 821.46 379.86 820.57 388.69 819.47 395.63 817.72 401 815.36 403.67 813.06 405.46 811.89 407.05 811.47 409.94 811.79 412.75 812.76 417.58 814.84 423.52 816.63 426.67 817.1 434.28 818.31 437.69 818.7 445.35 816.56 452.16 814.75 455.86 813.65 458.47 811.11 460.61 809.21 463.22 806.67 465.43 804.76 469.26 803.72 475.46 802.3 483.61 798.89 486.74 796.99 487.55 795.51 Z M 457.75 234.9 462.48 239.05 469.68 244.15 477.33 250.11 479.94 251.47 482.29 252.28 486.82 253.07 491.94 253.56 499.7 253.74 511.8 253.47 522.59 253.59 529.38 252.97 532.15 252.3 534.55 250.6 535.57 248.93 536.35 245.78 536.75 238.58 537.15 223.87 537.31 201.16 537.05 182.7 536.96 166.11 536.57 162.55 536 160.97 534.06 159.37 532.5 158.51 529.82 157.5 526.69 156.43 521.82 156.23 517.87 156.63 501.29 156.41 479.84 156.73 463.01 156.51 454.05 156.91 449.44 157.6 446.84 159.06 444.97 160.77 443.83 162.13 443.13 164.4 442.72 168.54 442.73 189.67 442.9 209.02 442.73 218.6 442.99 221.66 443.24 222.45 443.88 223.45 444.98 224.55 446.54 225.79 448.67 227.69 452.75 231.14 457.75 234.9 Z M 606.07 668.89 599.63 668.97 599.77 675.39 606.08 675.41 606.07 668.89 Z M 675.47 975.44 676.4 974.96 676.15 974.46 675.98 973.08 675.48 971.59 674.4 969.6 673.62 969 673.1 968.7 672.45 968.5 671.79 968.45 671 968.54 670.07 969.02 668.87 969.69 668.14 970.48 668.12 971.46 668.24 972.06 668.49 972.65 669.39 973.65 670.11 974.05 671.29 974.56 674.42 975.33 675.47 975.44 Z M 437.21 121.04 437.93 121.65 439.63 121.96 440.55 121.97 441.21 121.78 441.55 121.48 441.83 120.45 441.45 119.51 440.76 117.82 439.73 116.43 438.69 115.63 436.87 114.92 435.41 115.05 434.36 115.34 433.68 116.02 433.68 116.81 434.24 118 435.65 120.19 437.21 121.04 Z M 315.24 244.04 312.25 242.18 309.9 241.08 308.58 241.51 307.24 242.58 306.16 243.85 305.69 244.83 311.68 247.9 315.24 244.04 Z M 569.83 424.04 570.28 424.65 571.32 424.75 573.12 423.78 574.45 422.91 574.47 422.02 573.37 420.83 571.82 419.33 569.99 418.72 568.8 418.85 567.48 419.73 566.01 420.8 565.79 421.49 567.23 422.19 568.66 423.09 569.83 424.04 Z M 524.31 845.26 525.23 845.37 526.15 845.09 526.69 844.6 527.1 843.91 527.37 843.32 527.07 841.94 527.1 840.16 526.85 839.37 525.4 839.45 522.37 839.86 520.92 840.24 521.05 840.54 521.03 841.13 521.34 842.22 521.98 843.12 522.76 843.91 523.53 844.76 524.31 845.26 Z" fill-rule="evenodd"/>
</g>
</svg>