<?xml version="1.0"?>
<svg xmlns="http://www.w3.org/2000/svg" version="1.2" baseProfile="tiny" width="800" height="795" viewBox="0 0 800 795" stroke-linecap="round" stroke-linejoin="round">
<g id="newmeloneslake">
<path d="M 337.54 644.79 335.99 646.03 335.05 646.03 334.26 643.67 333.95 642.57 333 639.89 332.37 638.32 331.59 636.58 330.64 635.64 330.09 634.81 328.44 632.33 327.65 630.76 326.39 629.82 325.6 628.56 324.97 627.93 323.56 626.98 322.3 625.88 322.61 625.56 323.08 625.09 323.56 624.62 325.93 623.54 326.09 622.39 327.06 622.22 327.38 622.16 327.82 622.08 328.76 622.08 330.02 621.61 331.28 621.14 333.01 620.39 334 619.4 334 617.83 333.6 616.06 333.6 615.07 332.82 614.29 332.82 612.91 333.6 611.53 334.79 610.35 336.01 610.27 337.11 609.8 337.42 609.17 337.27 608.38 337.58 607.6 337.89 606.5 338.21 606.02 339.36 605.6 339.94 605.39 341.83 605.39 344.35 605.08 346.24 605.08 347.97 605.24 349.7 606.02 351.75 606.97 353.96 607.44 355.53 608.23 357.26 608.38 358.21 608.7 359.15 609.33 361.04 609.17 361.99 609.01 364.19 609.01 364.66 607.91 364.98 607.13 365.76 605.55 366.55 604.61 367.5 604.29 368.76 604.45 369.7 604.45 371.28 603.82 371.91 602.72 372.06 602.25 372.06 601.3 372.22 599.41 372.06 598.94 371.43 597.84 370.8 597.05 370.8 596.26 370.02 595.16 369.7 594.69 369.07 593.59 368.76 592.64 367.97 591.7 367.5 590.75 366.55 589.65 365.13 588.55 364.35 587.92 363.72 587.45 362.62 586.98 361.67 586.19 361.2 585.09 360.25 583.51 358.68 581.47 357.42 579.42 356 578.48 355.53 577.85 355.37 577.06 354.59 576.43 353.17 575.33 351.75 574.54 351.28 574.23 350.65 573.75 350.33 572.65 350.33 571.71 349.7 570.76 348.44 569.66 347.18 569.66 346.08 568.72 345.14 566.67 344.51 565.57 343.41 564.94 342.93 564.15 342.15 562.58 341.36 561.79 340.57 561.63 339.63 560.06 338.84 559.27 338.05 557.54 337.27 556.12 336.32 554.86 335.53 553.92 334.12 552.82 333.01 552.03 331.91 551.09 331.44 550.14 330.81 549.67 330.02 548.88 329.39 548.73 328.76 548.1 327.98 547.15 327.66 546.52 326.4 545.42 325.93 544.63 325.46 544.48 324.2 543.69 323.57 542.9 322.46 541.8 321.99 541.33 321.05 541.33 320.1 540.7 319.63 540.23 318.84 539.6 317.74 539.44 316.8 539.44 316.17 539.12 314.75 538.81 314.12 538.18 313.33 537.86 312.7 537.39 311.91 536.92 310.81 536.45 310.18 535.5 309.55 534.56 308.45 534.24 307.82 533.61 306.88 533.46 306.09 532.67 305.46 532.04 304.67 532.04 303.88 531.57 303.41 530.78 302.78 530.47 302.31 529.84 301.52 529.52 301.37 529.05 299.95 527.63 298.22 526.06 296.48 524.8 294.75 522.75 292.71 521.02 291.29 519.76 290.82 519.29 289.71 518.03 288.45 517.09 287.04 515.83 286.25 515.2 284.99 514.57 284.52 513.94 283.42 513.47 282.63 512.21 282.18 512.06 281.68 511.89 281.53 510.79 281.37 510 280.11 508.59 279.01 507.8 277.43 507.01 275.54 506.38 273.34 505.91 272.08 504.97 270.82 504.34 270.5 503.55 269.56 502.6 268.77 501.97 268.14 501.34 267.51 501.03 266.57 499.93 265.31 499.46 263.89 498.2 262.79 497.41 261.84 496.78 260.9 496.31 259.64 495.21 258.07 494.42 256.81 493.63 256.02 493.16 255.07 492.69 254.76 491.74 253.97 490.96 252.24 490.01 250.51 489.54 249.25 489.22 248.78 489.07 247.99 489.07 247.52 489.22 245.94 489.38 244.37 489.38 243.58 489.38 241.85 489.38 239.96 489.07 238.86 488.59 237.91 488.28 237.28 487.18 236.81 486.23 235.71 485.29 235.08 484.97 234.29 484.82 233.03 485.29 231.61 484.97 230.67 484.97 229.41 484.97 228.46 485.45 227.36 485.76 226.26 485.6 224.84 485.45 223.58 485.29 222.17 484.97 220.75 484.97 219.02 484.97 216.97 485.13 213.82 484.97 211.93 485.13 210.51 485.13 209.57 485.13 208.94 485.13 207.37 485.76 206.26 486.39 205 487.18 204.22 487.49 203.74 487.96 203.27 488.28 202.64 488.59 201.54 488.75 200.59 489.7 199.34 490.01 198.55 490.48 196.66 490.48 195.87 490.48 195.71 490.48 195.52 490.6 194.93 490.96 193.67 491.43 193.19 491.9 193.04 492.53 191.62 493 190.52 493.32 189.26 493.63 188.39 493.47 187.53 493.32 186.74 492.84 185.95 492.37 185.16 492.06 184.06 492.06 183.43 491.9 182.64 491.9 181.23 491.74 179.5 491.43 177.76 490.33 176.82 489.7 175.09 489.38 172.41 489.07 171.31 488.91 170.88 488.6 170.09 487.03 170.09 485.92 169.94 484.82 169.31 484.19 168.83 483.09 167.89 482.46 166.47 480.89 165.37 480.26 163.95 479.94 163.17 479.47 162.22 479.31 161.12 479.31 159.54 479.63 159.07 479.79 159.04 479.63 158.91 479 158.44 478.37 158.28 476.95 158.76 475.69 158.28 474.59 157.18 473.96 156.39 473.8 155.61 473.33 155.29 472.23 154.35 471.44 154.03 470.81 153.09 470.03 150.88 469.71 149.15 469.4 147.1 469.08 145.22 468.29 144.11 468.29 143.01 467.35 142.7 466.56 141.59 465.93 139.86 464.99 138.76 464.99 137.82 464.36 137.19 463.57 136.4 462.94 135.77 462.16 133.56 461.37 132.3 460.74 130.57 459.64 129.16 459.01 127.9 458.69 127.72 458.67 126.48 458.53 125.38 457.91 123.96 456.49 125.53 456.8 126.32 456.8 127.41 456.53 127.58 456.49 128.68 455.86 129.78 455.07 130.41 454.6 131.2 454.6 133.09 454.13 134.35 453.65 136.24 453.18 137.5 453.18 138.13 452.55 139.55 452.4 140.81 452.55 141.28 452.71 143.17 452.4 144.43 452.24 145.69 452.87 148.05 453.34 149.15 453.5 150.25 453.5 150.57 452.55 150.1 451.45 149.62 450.51 148.99 449.56 148.05 448.46 147.42 447.83 146.48 446.73 145.53 446.1 145.22 445.31 144.74 444.84 144.74 444.21 144.74 443.42 144.74 442.79 145.37 442.32 146.16 441.38 146.61 440.61 146.14 439.51 146.14 438.56 145.83 437.3 146.3 436.36 147.71 434.47 148.03 433.05 148.5 431.64 147.4 430.22 146.93 429.27 146.14 428.49 145.67 427.54 145.67 425.65 145.2 424.55 144.88 423.61 144.41 422.98 144.41 421.56 143.78 421.09 142.36 420.14 141.73 419.67 140.94 419.04 140 417.94 139.21 417.15 139.21 415.89 138.74 414.01 137.64 412.43 136.54 411.01 135.75 410.07 134.65 409.44 133.86 408.97 133.23 408.18 132.13 407.71 131.18 407.24 129.61 406.76 129.61 405.98 130.24 404.88 130.24 404.09 130.24 403.46 129.76 402.99 128.82 402.51 127.72 402.51 126.77 402.51 126.3 401.41 125.99 399.37 125.2 398.58 124.57 397.63 124.1 397.32 123.15 397.16 122.05 397.16 120.79 396.85 120.79 396.06 120.79 395.43 120 394.8 118.9 394.01 117.96 393.7 117.17 392.91 117.48 392.44 117.96 391.34 118.43 390.55 118.27 389.45 117.33 389.29 116.7 388.5 115.59 388.5 115.91 387.72 116.38 387.09 115.91 386.14 115.44 386.14 114.65 386.14 114.65 385.04 114.65 383.78 114.33 382.21 113.39 380.16 112.6 377.96 111.97 376.86 111.34 374.97 110.71 372.92 109.14 370.72 107.88 369.62 107.09 368.2 105.83 366.62 105.13 365.62 104.73 365.05 104.1 363.95 103.31 362.85 102.37 362.06 101.9 360.96 101.9 360.17 100.79 359.38 99.22 358.28 98.27 357.34 97.8 356.39 96.38 355.45 95.12 354.66 94.02 354.5 93.08 354.35 92.13 353.4 91.03 352.77 90.24 351.99 89.46 351.67 88.51 351.04 87.57 350.57 86.31 350.57 84.89 350.25 83.47 350.25 82.21 350.25 80.48 350.25 79.69 350.1 78.91 349.31 78.57 349.08 77.96 348.68 77.49 348.21 76.7 347.74 76.23 346.79 75.44 346.48 74.34 346.32 72.92 346.48 71.03 346.16 70.09 345.85 68.2 346 66.94 345.37 65.84 344.74 64.26 344.11 62.69 343.33 61.59 342.86 59.86 342.54 58.79 342.2 57.68 342.36 57.68 343.15 58.79 344.41 58.94 345.82 57.53 346.14 56.11 346.14 54.85 346.61 53.27 346.61 52.8 346.77 52.65 347.87 52.96 348.81 52.96 349.76 52.02 349.92 50.44 350.39 49.18 350.7 46.98 351.02 45.56 351.17 42.88 351.02 41.62 350.54 39.89 350.54 38.47 350.54 35.48 350.54 34.38 349.92 33.28 349.44 32.02 349.44 31.86 350.54 32.49 351.8 32.49 352.91 32 352.78 31.86 352.75 31.07 352.43 30.29 351.96 29.5 350.39 29.5 349.92 30.13 348.81 31.55 347.55 32.65 346.77 33.91 346.45 34.85 345.98 35.48 345.35 35.95 344.41 36.58 342.52 35.48 340.16 34.7 338.58 33.75 336.85 33.12 335.91 33.12 334.49 32.49 333.54 31.7 332.76 31.55 331.81 31.55 330.71 31.39 328.82 29.81 327.88 28.87 327.56 28.08 326.93 27.45 325.99 26.98 325.52 25.56 325.67 24.15 325.36 22.89 324.1 22.26 323.47 21.31 322.53 20.68 321.74 19.58 321.27 18.01 320.48 16.75 320.16 16.78 319.81 16.9 318.75 17.53 317.65 18.01 317.17 18.16 316.54 19.11 315.44 19.74 314.81 21.15 314.97 22.1 314.97 23.36 314.5 24.62 313.87 23.99 313.24 23.36 312.92 22.1 312.61 20.68 312.14 18.48 311.98 17.69 311.66 17.53 310.72 16.12 310.4 15.17 310.25 14.54 310.09 14.38 309.15 13.75 306.63 13.28 305.84 12.97 304.74 12.34 303.95 11.08 303.79 9.5 303.01 8.56 302.38 7.61 301.9 7.14 300.96 6.67 299.7 5.09 298.91 3.99 297.81 2.89 297.02 1 295.77 1.31 294.98 2.63 294.57 3.36 294.35 4.06 294.79 4.62 295.14 6.2 295.77 7.77 295.92 8.72 296.4 9.82 297.02 10.29 297.97 11.39 298.76 12.49 298.91 13.6 299.86 14.54 300.49 15.96 300.96 16.75 301.12 17.38 301.59 18.63 302.69 19.26 303.64 19.74 304.42 21 304.9 23.2 305.84 25.09 306.47 26.67 306.63 29.03 306.94 31.86 307.89 34.07 308.36 37.37 309.3 41.31 310.4 43.67 310.88 46.19 311.35 49.34 310.88 51.54 310.4 53.59 309.62 55.95 308.67 57.68 307.26 59.57 306.47 61.31 305.68 62.56 304.74 64.61 304.11 65.81 303.59 66.44 302.8 66.6 301.23 66.13 300.44 65.34 299.34 63.29 298.87 62.19 298.87 60.93 298.71 60.14 298.55 59.51 297.77 60.14 297.61 60.85 297.52 61.4 297.45 62.03 296.82 62.82 295.88 63.45 295.25 64.71 294.3 66.13 294.62 67.39 294.78 68.02 294.46 67.54 293.67 67.07 292.89 67.7 291.94 67.86 290.84 68.17 289.58 68.96 288.79 70.06 287.85 70.22 286.59 70.69 285.02 72.27 283.44 73.84 282.18 75.1 280.92 75.57 279.66 76.52 278.4 78.09 276.83 78.56 275.41 78.72 274 78.72 272.9 78.72 271.95 79.04 270.85 79.67 269.59 79.98 269.12 79.98 268.02 80.14 266.91 80.14 265.97 80.14 263.77 79.19 262.19 79.04 260.62 78.72 259.83 78.25 259.04 77.62 258.57 76.68 258.1 75.42 257.94 74.16 257.94 72.74 257.78 71.48 257.78 71.01 257.31 70.85 255.27 71.01 253.85 71.32 252.75 71.32 252.12 70.22 250.86 69.12 250.39 68.02 249.76 67.86 249.44 66.28 249.44 65.97 248.18 65.5 247.39 64.39 246.29 63.92 245.03 62.5 244.09 61.4 242.51 59.83 241.26 58.88 240.31 57.15 239.84 56.21 239.84 54.47 239.68 54 238.58 54.16 237.48 55.1 236.69 56.05 236.06 56.36 235.43 56.68 234.64 56.36 233.23 56.36 232.44 56.21 231.81 55.89 230.87 55.58 229.61 56.21 228.82 56.68 228.51 57.94 228.03 58.57 227.25 58.57 225.99 57.62 225.2 57.31 224.1 57.62 223 57.31 222.05 56.84 221.11 56.21 220.63 55.73 221.11 55.1 221.26 54.79 220.32 55.1 219.22 55.89 218.75 55.89 217.8 55.73 216.07 55.52 215.53 55.42 215.28 55.19 215.14 54.63 214.81 54.47 214.18 56.84 213.08 56.68 212.45 56.68 211.19 57.47 210.4 58.73 209.3 58.88 208.36 58.41 208.2 57.62 207.88 58.1 206.94 58.41 205.68 58.41 204.42 57.78 204.11 56.21 203.48 55.73 203.16 54.95 202.85 54 202.37 54.47 201.12 55.26 199.86 55.89 199.23 56.68 198.6 57.78 198.28 58.73 198.28 59.51 197.97 60.46 197.02 60.62 196.24 60.14 194.98 59.67 194.19 59.2 192.46 60.46 192.62 62.5 193.24 64.39 194.35 66.76 196.08 68.17 197.18 70.69 198.12 72.58 198.28 74.16 198.75 75.26 199.23 76.83 199.7 78.56 199.7 81.4 198.91 82.5 198.28 82.97 197.18 83.13 196.39 83.29 195.61 83.29 194.98 82.97 194.19 82.34 193.09 81.5 192.4 81.02 192.09 80.87 190.83 80.87 189.73 80.87 189.1 80.87 187.84 80.39 186.11 80.24 184.69 79.76 183.59 79.76 182.64 79.13 181.7 78.5 180.44 77.56 180.13 77.24 179.5 77.09 178.24 76.93 176.98 76.61 176.51 75.99 175.56 75.51 175.4 75.2 174.77 75.04 173.83 75.04 172.26 74.25 171.31 73.47 170.52 72.99 169.42 72.68 168.01 72.05 165.8 71.73 164.86 70.79 163.76 70.47 162.18 70.47 161.08 70.47 159.19 70.32 158.25 70.07 156.76 70 156.36 70 155.57 70.35 155.72 71.1 156.04 71.89 157.3 73.15 158.4 74.57 160.13 74.88 161.71 75.2 162.5 76.3 163.6 77.56 164.38 78.66 164.86 80.24 164.86 81.02 165.49 81.65 166.75 82.13 167.53 83.07 169.11 83.07 170.21 82.91 171 82.91 172.26 83.7 173.04 84.49 173.99 85.43 174.93 86.53 176.82 87.79 178.55 88.11 178.71 88.14 178.81 88.27 179.26 88.42 179.81 88.42 180.91 88.9 182.17 90.31 183.43 91.26 184.22 91.89 184.53 91.73 185.64 91.57 185.95 91.64 186.07 92.2 187.05 92.99 187.68 93.62 188.31 94.72 189.89 95.67 191.3 96.77 192.4 96.61 193.51 97.24 195.39 98.97 196.65 100.39 197.28 100.55 198.23 101.65 199.02 103.54 199.96 104.96 200.75 106.22 202.16 107 203.11 106.69 204.84 106.69 205.94 107.48 206.73 108.11 207.52 108.58 208.46 108.89 210.03 110 210.82 110.47 212.08 111.73 214.44 112.67 215.7 113.14 217.12 113.62 218.06 114.56 219.48 115.98 220.42 117.24 221.68 117.4 222.78 117.55 223.73 117.87 225.15 118.5 226.25 118.81 227.82 118.81 228.77 119.76 230.34 120.86 231.91 121.8 233.33 123.69 235.69 126.69 237.74 129.2 238.84 131.25 238.68 132.35 236.64 133.14 235.54 133.3 234.43 133.61 233.49 134.56 232.07 134.72 230.97 134.72 230.18 134.72 230.03 134.72 229.08 135.82 227.98 137.39 227.51 140.07 227.35 141.49 226.72 142.59 225.62 143.69 224.67 144.16 223.89 144.32 222.78 143.85 222.16 143.38 222 143.06 222 142.27 221.21 141.49 221.05 139.91 221.05 139.44 221.37 138.49 222.16 137.55 222.78 136.13 222.47 135.19 222.16 134.09 221.53 133.14 220.74 133.14 219.48 132.83 217.75 132.51 216.96 132.98 216.02 133.3 214.91 134.24 214.28 134.87 213.34 133.77 212.71 132.98 211.92 131.72 211.45 130.78 211.92 130.15 212.24 128.89 212.24 127.16 211.92 125.43 211.29 122.75 209.88 121.96 208.93 120.86 208.78 120.07 208.3 119.44 207.04 118.18 205.94 116.92 205.15 116.45 203.58 115.98 202.32 115.19 201.22 114.4 199.96 114.4 198.39 114.4 196.18 114.72 195.39 114.88 194.61 115.35 193.35 116.29 193.66 118.81 193.98 120.39 193.98 121.96 193.03 122.75 191.93 122.91 189.89 122.59 187.68 122.59 185.95 122.43 184.69 121.65 183.9 121.17 183.43 120.86 182.49 120.54 181.23 120.39 180.28 119.44 179.65 118.5 178.71 117.71 177.61 117.24 176.51 116.29 175.56 115.19 174.3 114.88 173.83 114.09 171.63 114.25 170.05 114.52 170.11 116.29 170.52 118.03 171.15 120.23 172.41 121.65 172.89 122.12 173.36 123.06 174.46 124.8 174.46 126.53 175.56 128.26 176.82 130.46 178.39 132.35 179.18 134.87 180.76 136.61 181.86 138.34 182.17 139.6 182.49 154.53 180.58 158.23 180.1 164.37 179.18 165.16 179.34 166.57 179.81 167.99 180.13 169.25 180.44 170.51 180.76 173.19 181.54 174.29 182.01 175.55 183.27 177.6 185.64 179.96 186.58 182 188 184.68 189.73 186.26 190.52 188.3 191.14 190.03 191.62 191.92 191.77 193.34 191.93 194.76 191.77 195.23 190.83 196.18 190.36 197.12 189.26 197.91 187.37 198.38 186.27 198.38 184.85 197.75 184.06 196.33 182.8 194.92 182.17 193.18 181.39 191.14 180.28 188.46 178.55 185.47 177.14 183.11 176.35 181.53 176.35 179.64 175.88 178.86 175.72 177.6 175.25 176.81 174.77 176.81 174.3 177.28 173.04 177.28 171.78 177.28 169.89 176.97 168.79 176.49 167.85 176.65 166.27 176.97 165.8 177.28 165.33 176.97 164.38 176.81 163.44 176.81 162.34 176.81 160.92 176.81 159.82 177.28 158.56 178.54 159.03 179.17 159.35 181.22 159.66 183.42 159.82 185.15 159.98 186.26 159.19 187.2 157.77 187.52 156.36 187.83 155.41 187.52 153.52 187.04 152.74 186.73 151.95 187.04 150.53 187.52 148.49 187.67 147.86 187.83 147.07 187.2 146.13 187.04 144.87 186.89 144.08 186.89 143.61 186.89 142.82 187.36 142.03 188.3 142.66 189.4 143.29 190.19 143.76 192.24 145.5 193.18 146.75 193.34 147.07 194.6 146.6 195.86 147.54 197.12 148.17 197.91 148.8 198.38 149.43 199.17 150.85 199.8 151.79 200.74 152.42 201.37 152.89 203.1 153.05 204.21 152.42 204.52 151.16 204.52 149.9 204.05 148.33 203.73 147.7 203.1 147.23 202.95 146.44 202.95 145.97 202.63 144.55 202.16 142.98 200.58 139.51 200.11 139.04 199.32 137.94 198.85 136.68 198.06 135.74 197.12 134.63 196.65 134 195.86 131.8 197.12 132.43 199.01 132.9 200.16 133.28 201.37 133.69 203.42 135.11 204.99 136.37 205.94 137.94 205.98 137.97 207.04 138.88 207.67 139.67 208.46 141.4 210.03 143.13 211.29 145.34 212.24 146.44 213.02 148.01 213.65 149.75 214.44 151 215.23 152.58 216.64 153.84 217.43 154.94 217.75 156.36 217.59 157.62 217.9 158.4 218.01 158.61 217.75 159.27 216.96 159.66 216.17 159.51 215.98 159.31 215.86 159.19 214.76 158.56 213.97 157.77 212.71 157.62 211.61 157.14 210.5 157.14 209.24 156.99 207.67 157.3 207.35 157.93 207.04 159.51 206.88 161.08 206.88 162.18 207.81 163.58 208.34 164.33 208.6 164.68 210.82 165.64 212.08 166.43 213.34 167.85 214.9 169.72 217.1 170.98 218.36 171.92 220.58 173.67 221.51 173.97 222.61 174.29 223.24 173.66 223.71 172.71 224.82 172.87 226.08 173.81 227.49 174.29 228.44 175.39 229.23 176.49 228.6 177.12 227.97 177.59 227.18 178.22 226.23 179.01 226.23 180.9 227.34 181.84 228.44 183.1 229.7 183.1 231.59 183.26 232.69 182.79 233.95 182.79 234.11 183.73 233.63 184.83 234.42 186.25 235.68 187.04 236 187.82 235.84 188.61 236.63 190.18 237.57 190.97 238.67 191.92 239.62 193.18 238.83 193.65 238.04 194.59 237.57 195.22 237.57 196.8 237.89 198.21 238.51 199.63 239.46 200.57 240.72 200.42 242.77 200.42 244.03 199.94 244.82 200.12 245.44 200.26 244.97 200.73 243.71 201.52 243.08 201.99 242.45 202.78 242.29 203.88 241.82 204.82 241.51 206.24 241.51 207.81 241.82 208.92 242.29 210.81 243.55 212.54 244.66 214.27 244.97 215.37 245.76 216.79 246.39 218.2 247.02 219.46 248.12 220.57 248.28 221.67 249.69 222.93 250.17 224.19 250.64 225.44 251.43 226.23 251.58 227.02 250.48 227.65 250.32 228.28 249.69 229.22 248.91 230.01 247.96 230.8 247.49 231.27 246.23 230.95 245.44 230.64 244.5 230.17 243.24 230.01 241.19 229.85 239.93 229.07 239.62 227.96 239.3 226.86 238.2 226.07 236.63 225.44 235.21 224.97 233.79 224.82 232.69 224.66 231.43 224.66 229.85 224.97 229.23 224.82 227.97 223.71 227.65 222.77 227.18 222.3 226.55 221.82 226.39 221.04 226.39 220.25 226.55 219.31 226.86 218.52 226.86 217.57 225.92 216.47 224.97 216.16 224.34 216 223.56 216 223.24 214.43 223.24 213.48 223.24 212.85 222.77 211.91 222.3 211.75 221.67 211.59 220.57 211.59 219.46 211.44 218.99 210.18 218.36 208.92 218.2 207.66 217.57 206.56 216.79 205.77 215.37 205.45 214.27 205.14 212.53 204.82 211.59 203.72 210.8 203.25 209.86 203.09 208.91 202.94 207.02 202.94 205.29 203.25 203.87 203.41 202.3 203.88 200.1 204.35 199.15 204.98 198.05 205.3 197.89 206.08 197.89 207.34 197.73 208.76 198.05 210.49 198.68 212.38 199.47 213.95 199.62 214.74 199.78 216.63 200.1 218.52 201.04 219.15 201.36 220.41 201.67 221.98 201.57 222.38 201.36 223.24 201.26 223.17 200.57 222.61 198.68 221.51 197.58 220.57 196.79 220.25 195.53 219.78 194.9 218.83 193.8 217.89 191.59 217.42 191.12 216.32 190.18 215.06 188.76 213.95 187.66 213.17 185.61 212.54 184.19 212.06 182.3 213.01 180.57 213.95 179.31 214.74 178.84 215.84 177.89 216.79 177.58 217.26 177.74 218.36 178.68 219.62 179.47 220.72 180.26 221.82 180.89 223.56 181.67 224.03 182.62 224.97 182.78 226.07 182.46 227.02 183.09 228.75 184.04 229.54 185.14 230.17 185.93 231.27 186.24 233.16 186.71 234.26 187.97 235.68 188.6 236.78 189.39 238.04 190.33 239.45 190.33 241.03 190.49 242.92 190.65 244.49 190.65 245.75 189.86 246.07 188.92 246.07 187.5 246.07 186.4 246.85 185.14 247.95 184.04 248.74 182.46 248.58 181.2 247.8 179.47 247.48 178.52 246.85 177.11 246.22 175.38 246.7 174.12 246.7 172.54 246.7 171.44 246.38 169.71 246.22 168.45 246.7 167.35 247.64 166.87 248.74 166.24 249.69 166.4 250.63 165.77 252.2 165.46 253.15 164.51 253.94 163.88 254.57 162.46 255.35 161.36 256.14 161.05 256.77 161.05 258.34 161.68 259.6 161.68 260.55 162.62 261.49 163.25 262.75 163.41 263.38 163.88 265.43 163.88 267 164.2 267.95 164.67 269.21 165.14 269.99 164.67 271.57 164.98 273.3 165.93 274.4 166.24 275.66 166.56 276.76 166.87 278.02 167.82 278.81 168.45 279.28 169.86 279.59 171.14 279.77 172.42 279.95 173.05 281.05 173.21 282.15 173.84 283.88 174.16 285.46 174.16 287.03 174.16 288.45 174.59 289.98 175.85 291.56 177.74 293.29 179.47 294.71 182.15 295.34 184.04 296.44 184.98 297.22 185.45 298.48 187.03 299.11 188.6 300.69 189.86 303.05 189.86 304.78 190.18 306.35 191.12 307.3 192.22 308.4 194.11 309.5 196.04 310.01 196.99 310.64 198.25 311.9 199.19 313.01 199.66 313.95 200.14 315.21 200.14 316 199.98 316.94 199.35 318.67 199.35 320.09 199.19 321.19 199.98 322.76 200.77 323.87 201.87 325.76 202.97 327.49 203.91 330.16 204.86 331.58 205.33 332.84 205.49 333.94 206.28 335.52 206.28 336.62 206.75 337.88 207.38 338.82 208.17 340.24 208.48 341.18 208.95 341.65 209.43 341.97 209.74 343.23 209.74 344.8 209.74 346.06 210.06 347.79 210.68 348.58 211.16 350.31 211.94 351.1 213.36 352.67 214.94 353.46 215.72 353.62 216.98 353.3 216.98 352.04 216.96 351.68 216.8 350.73 217.28 349.94 218.22 349.47 219.01 349 219.64 348.21 219.95 347.27 220.43 346.01 220.58 344.28 219.8 343.33 219.64 342.07 219.8 339.87 220.43 338.61 220.58 336.88 222.16 336.09 223.26 335.31 224.68 334.83 225.94 334.68 227.04 334.36 227.67 333.26 227.83 331.06 227.98 329.95 227.04 327.91 226.25 326.18 224.99 324.92 223.89 324.44 222.47 324.76 221.37 324.76 219.95 324.13 219.17 322.71 218.54 321.45 218.85 320.67 219.64 320.19 220.43 319.72 221.21 318.62 222.16 317.52 222.94 316.42 223.1 315.16 222.63 314.06 221.68 312.8 220.43 311.54 219.17 310.43 217.75 309.33 216.17 308.39 214.91 307.44 213.81 306.81 212.55 305.87 211.29 303.98 210.66 303.04 209.72 301.78 209.88 300.52 210.35 300.05 210.82 299.73 211.92 298.94 212.71 298.47 213.34 297.37 213.5 296.27 213.5 295.01 213.5 293.75 212.87 292.8 211.77 291.86 210.51 291.39 209.09 290.92 207.67 290.76 207.2 289.97 206.88 288.55 206.57 286.67 205.78 285.56 205.15 285.25 204.21 284.93 203.26 284.15 203.26 282.89 202.79 281.31 202.16 280.68 200.59 279.74 200.43 278.79 200.11 277.54 199.33 276.59 197.59 275.8 196.81 275.49 196.65 274.23 196.65 272.81 196.33 271.71 195.7 270.77 195.23 269.19 194.92 268.09 195.39 266.52 195.7 265.57 195.7 264.31 196.02 263.05 196.02 262.11 196.18 261.16 196.96 261.16 198.22 261.16 199.17 261.48 200.74 261.64 202.48 261.95 203.11 261.32 203.73 260.06 203.73 259.75 204.68 259.43 205.94 260.06 207.99 260.69 209.56 261.16 210.35 260.85 210.03 261.95 209.72 263.21 209.09 263.84 209.25 264.47 210.03 265.29 211.29 266.08 213.18 267.03 214.75 267.18 215.38 267.5 215.86 268.13 216.64 268.92 217.11 269.86 217.43 271.43 217.74 272.38 218.69 273.48 220.26 274.58 221.37 275.21 223.89 276.79 225.77 278.2 227.19 279.15 228.61 279.62 229.71 280.72 230.34 281.51 231.44 282.3 232.55 283.24 233.96 284.03 234.59 283.55 235.22 282.77 235.85 281.51 236.64 279.62 236.64 278.67 236.17 277.73 235.38 276.94 234.28 276 234.12 274.74 233.8 272.69 233.8 270.8 233.8 269.7 234.28 268.92 234.59 267.97 235.85 267.81 236.8 268.13 237.27 268.44 238.21 269.07 239.63 270.02 241.52 270.96 244.2 271.75 245.3 271.43 246.72 270.96 248.13 270.49 250.34 269.55 251.44 268.76 251.75 267.18 251.91 265.92 252.38 264.35 252.7 262.62 252.7 261.36 252.38 259.94 252.54 259.47 252.86 258.84 252.07 258.21 250.97 258.05 249.87 257.58 248.76 256.79 248.45 256.48 248.13 255.38 247.5 254.12 246.87 253.02 246.09 252.39 246.09 251.6 245.46 250.66 244.83 250.03 246.4 249.87 247.35 249.55 247.82 248.77 248.29 248.45 250.02 249.4 250.65 249.24 251.6 249.08 253.01 249.4 253.8 250.03 255.38 251.13 257.9 252.23 260.1 252.86 260.73 252.54 260.89 252.39 261.52 251.76 261.52 250.81 261.67 250.03 261.67 248.92 262.3 248.29 262.93 246.88 263.25 246.41 263.56 245.93 263.88 245.46 264.04 245.3 264.82 244.67 264.51 243.41 264.35 242.16 264.19 241.37 263.72 240.27 264.51 239.16 264.51 238.53 264.51 237.59 265.14 236.65 266.24 235.7 265.97 237.66 265.85 238.76 266.09 239.36 266.4 240.11 266.56 241.21 266.56 242.16 267.5 242.79 268.29 243.57 268.6 244.67 269.23 245.46 271.12 246.88 272.22 247.35 270.81 247.98 270.18 247.98 268.13 247.82 267.03 248.29 266.4 249.55 266.56 250.18 267.5 251.44 268.6 251.6 270.02 252.07 271.59 252.39 272.7 252.39 273.8 252.54 274.59 253.33 274.59 254.28 273.48 254.43 273.01 255.22 273.01 255.85 273.48 257.11 272.38 256.32 271.59 256.01 270.49 255.69 268.92 255.69 267.97 256.32 267.03 257.11 266.4 258.68 266.4 259.79 266.4 260.89 266.4 261.99 267.19 262.78 267.81 263.88 268.13 264.67 268.92 265.29 270.18 265.61 270.18 267.18 270.18 268.44 270.81 269.39 271.59 270.65 271.59 271.91 271.59 273.01 270.65 273.8 268.76 273.32 267.5 273.32 265.77 273.32 264.35 273.32 262.15 273.8 260.89 273.95 259.94 273.95 258.68 275.37 257.11 276.16 255.85 276.79 254.27 277.89 253.01 278.36 252.38 278.99 252.07 281.19 252.54 282.45 253.49 285.92 255.53 287.96 256.95 288.59 258.21 289.38 259.47 290.17 260.89 290.48 261.99 290.95 261.67 292.05 261.52 293.47 261.36 293.94 261.52 295.05 261.83 295.83 261.36 297.09 261.36 297.72 262.93 298.82 264.82 299.45 266.08 300.08 268.29 301.03 270.18 301.66 271.91 302.44 273.17 302.29 274.27 301.97 275.22 301.03 275.85 300.87 276.32 300.08 276.95 298.82 277.1 297.72 277.89 297.25 278.84 297.25 279.78 297.25 280.41 297.25 281.04 296.31 281.67 295.2 281.83 294.42 282.46 293.47 283.4 292.84 283.56 291.9 283.56 291.43 282.57 290.56 281.27 290.13 279.95 288.43 279.47 287.3 279 285.98 278.62 284.18 276.36 283.24 275.32 282.58 275.53 281.21 275.6 280.78 275.49 280.71 274.37 280.03 273.9 279.18 274.78 277.33 275.49 277.1 276.9 277.1 279.74 277.1 281.86 276.86 283.05 277.81 284.93 278.28 286.82 277.81 288.48 277.33 290.13 276.86 292.02 277.33 293.44 277.57 294.85 277.81 296.98 279.22 298.63 279.22 301.47 280.4 304.3 280.88 305.25 281.58 307.37 281.82 309.03 281.82 309.5 283 309.97 283.71 310.68 285.6 312.33 286.31 315.17 287.49 317.29 287.25 317.29 285.6 317.76 284.18 319.18 283.24 318.95 281.82 316.11 280.64 314.93 278.99 313.99 277.81 312.1 277.33 310.21 276.86 310.44 274.5 310.44 273.32 309.26 272.85 307.14 272.85 306.66 271.43 306.19 269.78 305.25 269.07 303.12 268.6 301.47 268.6 302.18 266.24 302.88 264.82 302.96 264.11 302.33 263.33 301.55 262.38 300.44 260.96 301.55 260.02 303.91 259.86 306.74 259.86 310.52 260.33 312.57 260.33 313.51 260.49 314.93 261.59 316.66 263.01 319.65 263.8 322.17 264.43 324.06 264.74 326.27 264.27 328 264.11 329.26 263.01 330.52 261.59 330.83 259.7 330.83 259.23 330.36 257.19 329.73 255.45 329.73 253.92 329.73 253.72 330.05 253.25 332.72 255.45 333.35 255.93 334.61 256.4 336.97 257.97 340.44 258.76 341.54 258.76 343.43 259.55 344.53 259.39 345 258.29 345 257.19 346.11 256.71 345.63 255.3 345.63 253.88 345.63 252.31 345.63 250.42 346.74 249.16 347.68 249.16 349.1 249.16 350.36 248.84 351.46 248.69 352.4 248.69 354.45 247.58 355.4 246.32 355.4 244.91 355.4 244.44 355.08 243.18 355.08 241.6 355.55 240.03 355.4 239.08 354.48 238.02 354.45 237.98 354.28 237.91 353.35 237.51 353.03 236.09 353.03 235.15 353.69 234.49 353.98 234.2 353.98 232.79 353.51 231.37 352.72 229.95 352.05 229.73 351.3 229.48 351.22 228.91 351.21 228.83 351.14 228.38 351.77 227.44 352.4 226.96 353.03 226.33 353.51 225.7 354.29 223.81 354.29 220.82 353.66 218.78 352.62 217.62 352.25 217.2 351.46 215.79 351.3 213.9 350.2 212.01 348.31 210.75 347.52 209.33 347.84 208.7 347.52 206.97 346.74 205.87 346.71 205.65 346.58 204.45 347.05 203.82 347.68 202.88 348.63 202.09 348.47 201.15 347.21 200.2 346.74 199.42 346.26 198.31 345.32 196.58 345.32 195.17 346.26 193.91 346.74 192.33 346.11 190.92 345.16 190.13 344.22 189.99 342.96 189.81 341.38 189.18 340.91 188.24 341.22 187.45 341.22 186.35 341.22 185.41 340.6 184.3 340.75 183.05 340.44 181.63 339.34 180.68 338.97 180.37 338.23 179.74 337.76 179.42 338.23 178.32 338.71 177.06 337.76 176.43 337.76 175.96 338.08 175.17 338.71 173.76 338.62 173.69 337.45 172.81 337.45 171.87 338.23 171.87 339.18 171.87 339.97 171.87 340.44 171.4 340.75 170.29 340.75 168.72 340.75 167.46 341.07 166.04 341.22 164.63 341.25 164.62 342.17 164.47 342.64 165.1 344.53 166.52 346.11 167.15 347.05 168.09 348.31 167.93 349.1 167.78 350.2 167.3 351.14 166.52 352.25 166.52 353.66 167.3 354.92 167.78 356.18 167.3 357.76 166.83 359.17 166.2 360.75 165.73 361.85 165.26 362.95 165.26 364.37 165.57 365.63 165.1 365.79 164.47 366.26 163.05 366.58 162.42 367.05 161.64 367.83 161.32 367.92 161.54 368.46 162.9 368.94 164 368.94 165.42 369.09 166.36 369.09 167.3 367.68 167.93 366.42 168.25 365 168.25 363.27 168.88 361.22 169.82 359.17 170.29 357.44 170.92 356.03 171.55 354.29 172.5 352.09 173.92 350.51 174.54 348.31 175.8 348.15 177.22 348.15 178.32 348.31 179.74 349.57 180.68 350.99 181.63 351.77 182.89 352.09 183.83 353.98 184.62 355.24 185.56 356.66 187.14 356.18 188.08 356.66 189.34 357.13 191.23 358.86 192.96 360.43 193.43 361.22 193.12 362.48 192.8 363.43 192.33 364.69 191.7 365.95 190.76 367.2 190.44 368.62 190.76 368.85 191.22 369.09 191.7 367.83 192.65 366.42 193.59 365.79 195.01 365.32 196.11 364.37 197.21 363.9 198.47 363.27 199.73 362.48 201.62 362.48 203.04 362.95 204.77 364.21 205.56 366.58 205.56 368.15 206.18 369.41 206.97 371.3 207.76 373.19 207.76 374.61 208.39 375.15 208.8 375.24 208.86 374.13 210.75 373.66 212.01 373.35 213.58 374.45 215.31 375.71 216.42 375.08 218.15 373.66 218.78 372.72 219.88 372.56 221.77 372.56 222.71 373.19 223.81 373.66 224.13 374.13 225.23 374.76 226.33 375.39 227.91 375.39 228.85 376.02 229.95 376.65 230.9 377.6 231.69 378.23 232.32 378.23 233.26 378.38 234.36 378.54 235.15 379.33 236.25 380.75 237.35 382.32 238.45 384.68 239.4 385.94 240.03 387.83 240.5 388.93 240.19 388.78 240.66 388.93 241.27 389.09 241.92 387.99 243.02 385.78 244.59 383.74 245.7 380.59 247.27 379.01 248.21 377.44 249.16 376.49 250.42 376.02 251.83 375.86 253.41 376.02 254.2 375.86 255.45 377.28 255.93 379.01 256.56 380.27 256.24 381.22 255.61 383.58 255.45 384.84 255.61 388.15 255.77 390.04 255.93 391.14 255.93 392.56 255.61 393.81 255.61 394.92 255.61 396.02 255.14 397.59 255.45 399.17 255.93 400.27 256.56 402 257.03 403.73 257.19 405.47 257.5 407.36 257.97 409.25 258.45 409.88 259.23 411.29 260.18 413.02 260.65 414.28 260.81 415.7 261.12 418.22 261.28 419.32 261.28 420.11 262.38 421.21 263.33 422.31 264.9 422.79 265.69 423.89 266 425.31 266.95 427.04 268.21 428.3 269.62 428.77 270.57 430.66 271.67 432.39 272.93 433.34 273.24 433.65 274.19 434.75 274.66 435.54 275.29 435.7 276.08 437.11 276.39 438.53 277.02 438.53 278.59 438.06 279.7 436.96 280.48 436.17 282.06 436.17 283 436.01 284.1 435.7 285.05 435.38 286.15 435.85 287.25 436.48 287.72 437.43 288.51 439.32 289.46 441.52 290.09 442.94 290.71 442 292.45 441.37 293.39 440.74 294.81 441.37 296.22 441.84 298.27 443.1 299.53 444.51 300.63 444.99 301.58 444.67 302.21 443.26 303.47 442 304.57 440.89 305.67 440.11 307.24 439.48 309.29 438.69 311.34 437.9 312.91 437.43 314.8 436.96 316.53 437.9 318.26 438.06 319.84 438.06 321.25 437.27 322.2 436.48 322.2 435.85 323.14 437.59 324.09 438.85 324.24 440.26 324.56 441.37 324.72 443.89 324.87 444.99 324.56 446.56 325.5 447.98 326.13 450.18 327.08 451.44 327.71 453.65 328.18 455.85 328.34 457.11 328.34 457.58 326.45 457.58 325.19 457.27 323.93 456.8 322.67 457.74 322.04 458.84 321.57 459.47 321.1 460.58 321.1 461.05 321.73 461.83 322.83 462.94 323.46 464.2 324.24 466.72 324.4 468.13 323.93 468.61 322.51 468.76 322.04 467.9 321.4 467.27 319.67 466.49 318.41 466.49 316.83 466.96 316.05 467.74 314.94 467.74 313.84 467.27 312.74 466.33 311.48 465.54 311.01 464.91 309.59 464.91 308.65 464.75 307.54 464.75 306.29 465.7 305.66 466.96 304.55 468.37 304.24 469.32 303.45 469.79 302.19 469.79 300.78 469.48 299.52 469.48 298.73 468.85 297.63 467.74 297.16 466.49 296.21 465.23 295.58 463.81 295.11 462.86 294.32 462.86 293.06 462.86 291.49 462.86 290.07 463.97 289.44 464.44 288.5 465.07 287.24 465.54 285.66 466.96 285.35 468.22 285.04 469.32 284.25 470.11 283.3 471.37 282.04 472.31 280.47 472.31 278.42 471.84 277.16 470.42 275.91 468.85 275.28 466.96 274.65 465.7 274.17 464.44 273.39 464.6 272.13 465.38 270.55 465.86 270.08 467.11 269.29 468.53 268.51 469.95 267.09 470.58 266.46 471.21 264.57 470.26 263.94 469.32 262.21 468.53 260.79 467.43 259.85 465.86 259.06 464.6 258.12 463.18 257.33 462.54 256.56 462.39 256.39 461.29 255.44 461.13 254.18 461.29 253.4 462.39 252.92 463.97 252.29 464.91 251.51 465.86 249.93 465.86 249.15 465.86 247.73 465.7 246.94 465.23 246.31 463.97 245.37 463.6 245.28 462.71 245.05 461.92 244.42 461.92 242.85 461.92 242.06 461.92 241.27 463.18 240.64 463.81 239.54 463.97 237.81 463.97 236.55 463.97 234.98 463.97 233.72 463.49 232.62 463.53 232.39 463.65 231.67 463.97 230.41 465.23 230.1 466.49 229.94 467.9 230.41 468.69 230.57 469.79 229.94 470.74 229.94 470.42 230.89 471.68 231.83 473.1 232.46 474.67 232.46 475.46 231.83 476.25 231.04 477.35 229.94 479.24 229.47 481.13 229.47 482.07 228.21 484.59 227.42 486.01 226.32 486.64 224.9 487.11 224.43 487.27 224.27 487.27 223.33 489.16 223.96 490.26 223.33 490.89 222.23 490.26 221.13 489.32 219.55 488.21 218.29 488.21 216.88 488.21 215.46 488.84 214.36 490.42 214.51 490.58 213.41 491.52 212.47 493.09 211.84 493.57 211.05 494.2 209.95 494.2 208.85 493.78 207.9 493.57 207.43 492.62 206.96 491.68 206.64 491.21 206.01 492.15 205.7 493.09 205.7 494.51 205.7 495.93 205.7 497.03 206.49 497.03 207.59 498.61 208.06 500.34 208.06 501.6 207.59 502.7 207.12 504.27 206.96 504.59 207.75 505.22 208.69 506.16 209.01 506.68 209.26 506.79 209.32 508.49 209.26 510.22 209.26 511.16 209.41 512.42 209.57 512.58 208.15 513.37 207.37 514.47 206.26 516.04 204.69 516.83 203.59 516.52 201.7 516.52 200.44 515.57 197.92 514.63 196.98 512.89 195.72 511.79 194.93 508.96 194.14 507.7 194.77 507.23 194.46 507.23 193.36 507.7 192.1 508.33 191.31 508.64 190.52 507.7 189.42 507.23 188.79 507.55 188.66 508.8 188.16 510.06 187.53 510.69 186.12 511.32 185.17 512.26 184.7 514.15 183.75 515.89 182.65 516.99 181.55 518.09 180.13 518.41 178.4 518.41 177.3 517.15 176.2 516.04 175.73 513.68 174.78 511.95 174.31 511.69 173.7 511.48 173.21 512.42 171 514.15 169.75 515.41 168.96 515.89 167.86 516.2 166.6 516.52 165.65 517 165.46 517.3 165.34 519.35 165.18 520.92 165.18 522.66 164.55 523.6 165.18 524.86 165.5 526.75 165.5 527.7 165.02 528.33 163.92 529.11 163.45 530.37 162.5 530.37 162.03 529.74 161.4 529.9 160.46 530.84 159.51 531.63 158.25 532.26 156.84 531.95 156.05 531.16 155.11 530.53 154.48 529.9 153.69 529.27 152.9 528.95 150.86 528.33 149.6 528.33 149.44 528.33 148.65 529.27 148.02 529.74 147.55 530.32 147.81 531.16 148.18 532.1 148.97 533.05 149.6 533.99 149.28 535.41 148.65 536.99 148.02 537.93 146.61 538.87 145.35 539.66 144.72 541.39 144.4 542.5 143.61 542.6 143.69 543.76 144.56 544.07 145.98 544.7 146.76 545.02 147.39 545.02 148.49 545.17 149.28 545.17 150.54 545.33 151.8 546.75 152.9 547.85 154.32 548.01 156.52 548.48 157.78 548.48 158.41 549.74 159.36 551 159.99 553.2 160.62 553.99 160.46 554.46 159.51 554.46 158.41 553.99 157.31 553.05 155.89 552.57 155.42 552.42 154.32 552.89 153.22 553.99 151.8 554.46 150.38 555.25 149.75 557.14 150.07 558.4 149.28 559.82 149.12 560.29 148.49 560.76 147.71 560.45 146.61 560.13 145.98 559.82 145.19 559.66 144.56 559.34 143.14 559.45 142.73 559.5 142.51 561.23 142.36 562.49 142.36 564.85 141.73 565.8 141.25 565.96 139.52 566.27 137.95 566.27 136.53 567.37 134.96 568 134.17 568.79 133.38 569.42 132.44 569.74 131.49 568.48 130.86 567.53 129.76 566.59 128.82 565.64 126.93 564.54 126.14 563.28 125.2 563.28 123.31 563.44 122.21 562.65 120.95 561.55 120.16 561.08 120 560.13 119.53 560.13 118.59 559.5 117.8 560.29 117.01 561.55 116.54 562.34 115.91 564.22 115.12 565.48 114.02 566.11 113.55 566.11 113.08 564.85 112.29 563.59 111.5 562.97 110.56 562.18 109.61 561.55 108.98 561.55 107.41 561.08 106.15 559.97 104.42 559.03 103.47 558.4 102.85 557.14 102.69 556.19 101.74 555.56 100.96 554.62 100.64 553.36 100.17 551.79 100.01 550.21 99.85 549.58 99.85 549.27 99.22 549.58 97.34 549.27 95.92 548.64 93.72 548.32 92.46 547.53 91.98 546.27 91.35 542.81 91.35 541.08 91.04 540.48 90.44 540.29 90.25 540.92 88.84 541.39 87.73 542.5 86.79 542.65 85.84 542.5 84.9 541.24 84.43 540.61 83.96 540.13 83.96 539.03 82.85 539.04 82.8 539.19 82.22 540.45 81.75 541.71 81.28 542.18 80.49 542.81 79.55 543.76 77.97 543.91 76.87 543.28 75.77 543.28 74.67 543.76 73.25 543.13 71.99 542.02 71.21 540.61 70.42 539.66 70.1 538.56 69.79 537.3 69.47 536.51 68.69 536.51 68.47 536.51 67.27 537.61 66.64 539.19 66.17 539.19 65.07 540.61 64.59 542.34 63.96 543.91 62.71 543.91 61.76 543.44 60.5 542.97 60.03 542.65 59.4 541.55 58.93 540.45 58.77 540.45 58.56 540.45 57.98 543.13 58.14 545.33 57.83 547.06 57.67 546.9 57.2 547.53 56.09 549.27 55.31 550.37 54.21 550.53 52.63 551.31 50.9 551.79 48.85 551.94 46.65 552.1 44.65 552.1 44.6 553.05 45.39 554.15 46.49 554.3 47.91 554.78 48.85 555.25 49.64 555.41 50.58 556.04 50.58 556.98 49.17 557.93 48.07 559.19 47.28 560.76 46.81 562.49 46.18 563.59 45.86 564.7 45.55 566.27 45.39 568 45.08 569.26 44.45 570.52 43.5 571.94 41.93 574.14 40.35 575.88 39.09 577.61 37.36 577.45 36.26 577.45 34.84 577.45 33.58 578.08 30.75 578.71 28.86 578.55 27.44 578.05 27.07 577.92 26.97 577.92 26.19 577.77 23.67 577.29 22.25 577.29 20.36 576.98 18.32 576.84 16.21 576.82 15.95 576.79 15.58 576.66 13.91 576.66 12.65 576.66 10.92 575.72 9.66 573.83 8.71 573.04 7.77 572.43 5.62 572.1 4.46 572.25 2.73 573.83 1 573.83 1.06 573.83 2.73 574.46 5.09 575.72 6.51 577.29 8.24 578.24 9.81 579.34 13.44 579.34 15.48 579.81 18.16 580.6 20.05 581.54 21.31 582.17 22.41 582.17 24.45 582.65 25.4 582.49 27.29 581.7 29.02 581.39 31.7 581.39 33.11 581.39 34.06 582.96 35 582.9 35.35 582.8 35.95 581.54 36.42 580.91 36.57 580.29 38.46 578.87 40.51 578.4 42.56 577.77 43.66 576.66 45.86 575.88 47.44 575.56 48.7 573.83 49.64 572.25 50.43 570.52 51.37 569.42 51.69 568 51.84 566.74 52.32 566.27 53.1 565.64 54.52 564.54 56.41 563.28 57.51 561.86 58.3 561.86 59.56 560.92 60.5 560.29 61.76 559.82 63.18 559.19 64.44 558.71 66.01 558.24 67.11 558.24 68.06 558.08 69.32 558.08 71.21 559.19 72.46 561.08 72.78 562.97 73.25 564.38 73.25 566.9 72.94 568.16 72.94 568.61 73.38 568.79 73.57 567.37 74.2 566.11 75.3 564.22 76.09 563.44 76.87 562.02 77.82 560.29 78.76 559.66 79.23 560.13 79.86 561.08 80.49 560.76 81.44 560.76 82.38 560.76 83.17 562.34 84.11 563.12 84.43 565.01 84.27 566.59 84.27 568.95 84.43 568.16 85.53 566.74 86.63 566.11 87.42 565.48 88.52 565.01 89.94 565.01 91.35 565.96 91.83 566.59 93.56 567.22 94.66 568 95.76 569.58 96.55 571 96.86 571.78 98.12 572.25 99.54 572.88 100.01 573.67 100.48 573.83 101.9 574.77 103.63 575.72 105.21 576.82 105.68 577.92 105.99 579.34 105.21 580.44 104.26 583.28 103.63 583.5 103.91 583.91 104.42 583.43 105.68 582.8 106.78 582.65 107.88 581.86 109.46 582.8 109.93 584.06 110.56 584.85 111.35 584.54 112.76 583.59 113.86 582.65 114.49 581.7 115.6 581.07 117.01 581.07 118.11 581.07 119.53 582.49 120.32 584.69 121.42 587.37 122.99 588.63 123.62 589.1 124.57 590.2 125.36 591.31 125.98 591.96 126.97 592.25 127.4 591.46 128.19 590.36 129.13 589.73 129.92 589.89 131.34 590.52 132.91 591.31 134.33 592.41 135.9 590.99 137.32 590.52 138.42 590.52 139.21 590.83 140.31 592.25 141.57 593.67 142.83 595.09 143.61 594.77 145.03 596.03 146.13 594.93 147.08 593.51 148.34 592.09 149.6 590.83 150.7 590.36 152.27 590.05 154.32 589.1 155.42 588.16 156.21 586.27 156.21 584.69 156.21 583.59 157.15 582.49 158.41 580.13 159.2 579.34 160.62 579.18 161.72 579.5 164.24 579.66 166.28 580.91 168.96 582.17 170.53 583.91 173.37 584.69 176.04 585.8 177.62 588 177.93 589.89 178.88 590.83 180.13 592.72 181.39 594.14 182.02 596.19 182.18 597.92 182.34 599.34 181.71 600.91 180.92 600.8 181.42 600.6 182.34 599.81 183.28 599.49 184.38 598.71 186.12 597.76 187.69 596.66 188.16 595.56 189.11 595.24 190.52 594.14 191.31 591.78 191.31 590.52 191.31 590.26 191.31 589.29 191.83 589.1 192.57 588.16 194.14 585.8 194.93 584.06 195.72 582.02 197.13 580.76 198.24 580.44 199.65 583.28 201.54 584.69 202.33 586.58 202.96 588.16 203.12 586.9 204.38 586.74 205.64 585.64 207.21 584.69 208.47 583.43 209.26 582.96 209.73 582.49 210.83 582.49 211.93 583.28 212.88 585.32 213.19 586.27 212.72 587.53 213.19 588.79 213.03 590.36 212.09 591.46 211.3 593.51 208.94 594.61 208.15 596.03 206.89 598.08 205.79 599.65 205.16 601.86 204.69 603.12 203.12 603.59 201.7 604.39 200.43 605.17 199.65 605.17 199.65 606.12 199.33 608 199.97 609.41 200.28 611.15 200.6 612.88 201.07 614.45 201.39 616.34 201.39 618.07 200.76 620.29 201.06 622.18 200.75 622.65 199.96 623.75 199.96 625.33 199.33 627.06 199.02 628.32 198.07 629.11 197.76 629.11 198.55 629.11 200.28 630.37 201.38 631.31 202.64 632.89 202.95 635.25 203.58 637.77 203.9 640.6 203.9 641.55 203.58 642.65 202.32 644.69 203.27 646.58 204.06 646.74 205.31 646.74 205.94 647.84 207.05 648.95 207.83 649.58 207.2 650.68 207.05 651.62 206.26 652.1 205.47 652.88 205.16 653.35 205.94 653.35 207.05 654.3 207.05 655.09 207.2 656.19 206.57 656.98 207.05 658.08 207.68 659.5 208.31 661.38 208.31 662.49 208.78 664.06 209.09 665.01 208.78 666.42 208.15 667.68 207.36 667.85 207.22 668.63 206.57 670.83 206.89 672.72 207.36 675.4 208.31 676.66 208.94 678.86 210.35 681.22 211.3 683.11 211.61 685.16 211.61 686.58 210.98 687.36 209.72 687.52 208.46 687.52 207.52 687.21 206.26 686.42 205.47 685.32 204.06 684.69 202.95 683.27 201.54 682.51 200.3 682.01 199.49 681.22 198.55 680.28 196.97 679.33 196.18 678.39 195.4 677.6 193.82 676.66 192.72 676.66 191.93 676.5 190.68 676.34 189.26 676.82 188 676.19 186.74 676.03 185.64 676.34 184.69 676.19 183.91 675.87 182.65 676.34 182.17 675.87 181.23 674.61 180.6 672.88 180.13 671.78 179.97 671.62 179.18 671.46 178.4 671.78 178.4 672.56 177.61 673.51 177.3 672.41 175.72 672.09 174.78 671.3 173.99 671.93 172.89 673.35 172.89 675.87 172.26 677.45 171.63 677.92 170.37 678.23 169.11 679.33 167.54 679.96 166.28 679.65 164.86 679.33 163.6 679.49 162.81 680.59 162.18 681.07 162.18 682.33 161.71 682.33 160.29 681.22 159.35 680.54 158.78 680.28 158.56 680.23 158.38 680.12 157.93 683.27 156.67 683.43 156.52 684.22 155.73 684.69 155.1 685.63 154.79 686.26 152.74 687.05 151.95 687.52 150.22 687.52 148.33 687.21 146.76 685.95 145.66 684.94 144.87 684.53 144.55 683.27 143.45 683.27 142.98 683.95 142.9 684.69 142.82 685.79 143.14 687.05 143.92 688.78 144.71 690.36 144.87 691.46 145.5 692.4 146.44 693.98 146.91 694.92 147.07 695.71 147.39 696.02 148.8 697.91 149.43 698.86 149.43 700.59 149.43 701.69 149.75 702.8 150.22 703.9 150.22 705.31 150.22 706.26 150.22 707.99 150.06 709.41 150.54 710.98 150.38 711.93 150.38 713.19 150.38 714.92 150.38 716.18 150.38 717.6 150.22 718.87 149.96 723.83 157.09 729.58 165.32 729.89 165.91 729.38 166.29 728.69 166.47 727.81 166.6 726.61 166.73 725.1 166.73 724.21 166.91 724.05 167.38 723.58 168.32 722.79 169.42 721.53 169.74 720.59 170.37 719.01 171.31 718.38 171.63 717.75 172.26 717.6 174.15 717.91 176.04 719.01 177.3 719.01 178.08 720.12 179.18 720.43 180.6 721.38 181.39 722.79 180.92 722.79 180.13 722.95 179.18 723.11 178.08 725.15 177.45 725.63 176.82 725.94 176.35 725.94 175.41 725.63 174.46 725.47 173.99 726.57 173.2 727.99 173.36 729.72 173.2 731.45 173.05 732.71 172.42 733.81 172.1 735.39 172.26 737.12 172.26 736.33 173.36 735.7 173.99 734.92 174.46 734.76 176.04 734.44 176.82 734.44 177.77 734.13 178.87 734.13 180.13 735.07 181.39 736.02 181.55 737.28 182.17 737.91 182.49 738.22 183.28 738.22 184.54 739.01 184.69 740.43 184.85 742.79 185.48 744.99 186.11 746.73 186.58 748.61 186.74 750.66 186.11 753.5 185.95 756.33 185.48 759.01 184.69 760.58 183.75 762 183.28 764.17 183.28 764.2 183.28 764.68 184.22 764.36 185.64 764.05 187.37 763.57 188.47 762.63 189.89 762 191.15 761.68 192.25 761.84 193.98 761.68 195.24 761.05 196.66 760.9 197.92 759.95 199.02 759.48 199.96 759.01 201.06 758.22 202.32 756.96 202.64 756.17 203.27 756.02 204.68 757.59 205.79 759.16 206.57 759.32 207.2 759.01 208.31 757.75 208.78 756.64 209.25 756.17 209.56 755.54 210.04 754.44 209.88 753.65 210.67 753.18 211.45 754.13 212.71 753.81 213.97 753.02 215.7 752.87 216.65 752.24 217.44 751.13 218.06 750.35 218.22 749.09 218.85 748.46 219.01 747.83 219.48 747.8 219.64 747.67 220.27 749.24 221.37 750.35 221.84 751.61 222.16 753.81 222.32 755.54 223.42 756.64 224.83 757.75 226.09 759.32 226.09 761.68 226.09 764.52 225.94 766.41 226.09 768.45 225.94 769.87 225.62 771.92 225.15 771.22 226.08 770.97 226.41 770.19 227.04 769.4 227.98 768.45 228.77 767.35 228.93 766.56 229.87 765.62 230.66 765.15 231.76 765.62 233.18 766.56 233.65 768.14 234.44 769.24 234.75 770.66 235.22 774.28 236.01 775.7 236.95 777.27 237.74 779.48 238.69 781.05 239.95 782.15 241.83 785.3 242.78 787.98 244.04 789.87 243.72 791.44 244.67 793.65 245.61 794.59 246.24 796.17 246.56 797.9 246.87 799 247.66 797.9 247.82 797.29 248.06 797.11 248.13 796.95 248.92 795.06 248.92 793.65 249.23 792.54 248.6 791.6 248.6 790.18 248.92 789.93 248.92 789.08 248.92 787.98 247.82 786.4 247.03 784.67 246.56 781.99 245.93 780.26 245.77 779.16 245.3 777.59 244.98 777.43 244.35 777.11 243.25 776.37 242.77 775.58 243.71 773.38 244.65 772.28 244.81 771.49 245.28 770.39 245.28 769.28 245.28 768.34 245.28 767.87 245.44 767.08 245.44 766.29 244.65 765.35 244.18 763.77 243.71 761.57 243.24 760.31 242.61 759.52 241.82 758.11 241.66 757 241.66 755.74 241.66 754.48 241.03 754.01 240.88 752.75 240.88 751.81 240.56 751.02 240.25 750.55 239.62 749.29 238.83 747.87 238.52 746.45 238.04 744.72 237.26 742.99 235.68 741.89 234.74 739.84 234.11 738.58 233.79 737.48 234.74 736.38 234.89 735.27 234.89 734.49 235.21 733.38 236.47 733.23 237.26 733.07 238.36 732.13 239.3 731.18 240.25 731.34 241.66 731.02 242.92 730.71 244.34 730.71 246.23 730.71 248.27 730.71 248.75 730.5 248.73 728.82 248.59 727.09 247.65 725.67 246.86 724.41 246.07 722.68 245.6 720.79 245.28 718.27 245.28 714.18 246.07 712.6 246.54 710.24 247.02 708.19 247.17 705.99 247.17 704.73 248.12 704.1 248.9 703.65 249.35 703.31 249.69 702.21 250.01 700.79 249.85 699.37 249.38 698.59 249.85 697.64 250.16 696.38 250.64 695.79 250.64 695.75 250.64 695.12 250.16 694.81 249.53 694.18 248.9 693.71 248.27 693.08 247.65 692.13 246.86 691.34 246.39 689.14 246.07 686.46 245.6 685.2 245.13 683.31 244.65 682.05 244.65 681.27 244.02 679.06 243.4 677.33 243.08 675.76 242.45 674.02 241.51 672.61 240.72 670.56 240.25 668.51 240.25 666.47 239.77 664.26 239.62 661.74 239.77 659.7 240.4 658.91 240.4 657.49 239.93 657 239.44 656.55 238.99 655.92 237.89 655.6 236.78 654.5 235.84 652.93 235.52 651.67 235.37 649.62 235.05 647.73 235.05 646.47 235.52 645.21 235.68 643.79 235.37 642.06 234.58 640.17 233.95 639.23 233.48 638.89 233.2 638.71 233.11 638.26 232.89 636.85 233.04 636.53 233.67 635.74 233.52 634.96 233.52 633.38 233.83 632.44 233.83 631.89 233.75 631.34 233.67 630.86 233.2 629.92 232.57 629.29 232.1 627.4 231.47 626.61 230.37 625.67 230.21 624.09 230.21 622.68 230.21 620.31 229.27 618.9 228.95 617.32 228.64 615.43 228.32 614.65 229.11 614.02 229.9 612.44 229.9 610.71 230.05 609.92 231 609.61 232.26 608.5 232.57 608.19 232.57 606.46 232.1 604.57 232.73 603.94 233.52 602.68 234.93 602.52 235.88 602.05 236.82 602.05 238.08 602.05 239.18 600.63 240.6 598.43 241.86 597.01 243.43 595.28 245.01 594.18 246.11 593.07 246.9 591.97 248.47 590.71 249.26 589.45 250.04 589.45 251.15 588.82 252.41 587.25 252.56 586.93 253.04 586.62 253.98 585.83 254.77 585.2 254.77 584.8 254.23 584.73 254.14 584.1 253.66 583.15 252.72 582.68 252.25 582.05 251.93 580.95 251.46 580.95 250.36 581.42 249.73 581.11 248.94 580.64 247.84 579.69 247.37 578.27 247.37 577.01 247.68 576.38 248 576.54 249.26 577.49 249.57 578.27 250.52 578.43 251.3 578.43 253.04 579.38 253.98 579.85 254.92 580.48 255.55 582.05 255.87 582.84 256.18 583.47 256.66 584.57 257.91 584.57 259.65 583.15 259.33 582.37 258.54 580.64 258.54 579.69 258.23 578.12 258.23 576.86 257.91 575.91 257.6 573.86 257.6 572.76 258.07 571.66 258.07 571.03 257.6 570.4 257.13 569.3 256.97 567.88 257.29 566.78 257.44 566.31 256.5 566.31 256.03 566.31 255.24 565.83 254.92 565.2 254.45 563.63 253.98 563.16 253.82 562.06 253.19 560.95 252.72 560.17 252.09 558.75 251.3 557.33 249.89 556.7 248.94 555.91 248.47 555.29 247.68 553.87 247.53 553.24 246.9 552.14 246.27 550.25 245.32 548.99 244.38 547.41 244.06 546 244.06 545.68 244.38 544.58 244.38 543.16 244.69 542.53 244.85 542.06 245.48 543.16 246.42 545.05 246.74 545.52 247.21 544.58 248.47 543.48 248.94 541.74 249.41 540.17 249.26 538.59 249.26 536.23 249.73 534.5 250.99 533.71 252.25 532.61 253.51 531.67 254.29 530.88 254.77 530.72 255.71 530.41 256.97 530.25 257.91 530.56 259.33 529.78 260.43 529.15 260.91 528.05 260.75 526.47 260.43 525.37 260.59 524.11 260.91 522.85 260.75 521.59 260.75 520.17 261.38 520.33 262.48 521.9 263.27 523.01 263.94 524.27 264.73 525.22 265.67 526.63 266.3 528.05 267.88 528.68 269.61 529.78 270.71 531.04 272.28 531.99 273.23 533.88 273.23 534.19 274.49 535.45 276.69 537.34 278.58 539.23 279.84 541.59 281.26 544.42 281.26 546.63 282.04 544.11 282.99 543.17 283.62 542.69 284.88 541.59 284.88 539.86 284.72 538.76 284.09 537.81 283.93 537.02 283.78 535.45 284.25 534.98 284.25 534.66 283.62 533.72 282.83 532.93 281.89 532.3 280.94 531.99 280.47 530.73 280.16 529.31 280.16 528.68 280.47 527.11 281.26 527.26 279.84 526.63 279.05 524.9 278.42 522.54 277.16 520.96 277.16 518.92 277.48 517.97 277.01 517.19 276.22 515.77 276.06 513.09 276.06 510.41 275.75 508.53 275.28 507.42 274.33 506.32 273.86 505.06 273.86 504.27 274.17 504.43 274.96 504.9 275.75 505.53 276.69 506.01 277.79 505.38 278.74 505.06 279.21 504.9 279.84 505.53 280.94 505.06 282.83 504.59 283.3 504.43 284.72 504.9 285.98 506.01 286.61 507.58 287.08 509.47 287.08 511.67 287.55 513.56 287.71 514.98 288.18 517.82 289.13 519.07 289.6 520.65 289.76 522.07 290.39 524.27 292.28 525.69 293.54 526.95 296.05 528.05 297.31 529.31 297.94 532.3 298.57 533.72 298.57 535.76 299.2 538.13 299.04 540.33 299.04 542.22 299.67 544.11 300.62 544.74 301.25 545.68 301.56 546.63 301.88 546.63 302.67 546.94 303.77 548.05 305.18 549.46 305.97 550.3 306.67 550.41 306.76 550.59 306.76 550.92 306.76 551.67 306.76 553.4 306.44 553.87 306.13 554.5 305.03 555.45 305.66 556.86 305.5 557.34 305.03 557.49 304.08 558.12 304.08 558.6 303.92 559.38 305.5 560.64 305.97 562.06 306.6 563.32 307.39 564.26 307.39 565.05 306.6 566.31 307.54 567.57 308.96 566.15 309.12 564.89 308.8 564.56 308.84 563.48 308.96 561.9 308.49 560.8 308.49 559.7 308.49 558.44 308.65 556.86 309.12 555.29 309.75 554.66 310.54 553.87 311.01 553.24 312.58 552.84 312.38 551.98 311.95 550.72 311.48 549.31 311.01 548.2 311.17 547.26 312.11 545.68 311.8 545.21 311.17 543.32 310.69 541.75 310.06 540.49 309.59 539.54 309.12 538.13 309.43 537.34 310.69 537.02 311.32 536.71 311.95 535.92 312.42 534.82 312.42 533.56 312.11 531.99 312.11 530.88 312.42 530.41 313.84 530.25 315.73 529.31 316.2 529.18 316.14 528.05 315.57 525.06 314 523.33 312.58 522.54 311.8 521.75 311.48 520.96 311.01 519.55 311.01 518.6 310.22 517.34 309.43 515.45 309.43 513.41 309.28 510.73 309.28 509.16 309.28 507.74 309.43 507.27 309.75 507.42 311.64 507.58 312.58 506.64 314.16 506.16 315.42 507.11 316.36 508.37 317.46 509.31 318.41 509.94 320.3 510.73 321.87 511.04 322.5 512.15 323.44 512.93 324.39 513.41 325.49 513.88 326.59 515.14 327.06 516.08 328.01 516.56 328.8 517.66 330.05 518.6 332.26 517.03 332.26 515.61 332.26 514.19 332.42 513.09 333.05 511.67 333.83 511.2 334.78 510.1 335.25 508.05 334.62 505.53 333.99 503.64 333.36 502.38 332.73 500.81 332.42 500.14 334.74 499.67 336.47 499.2 337.58 498.41 338.36 497.94 338.84 496.68 339.31 496.05 339.78 496.84 340.72 497.15 341.98 497.47 343.24 496.99 343.72 495.58 344.19 494.95 345.13 494.32 346.08 493.06 346.08 491.33 346.71 490.38 347.49 490.07 348.75 489.75 350.01 488.96 350.96 488.02 351.43 485.66 351.9 484.24 351.9 483.3 353.16 482.19 354.42 481.41 355.68 481.88 357.25 482.67 358.35 483.93 359.61 484.87 359.46 485.03 360.09 485.03 361.66 484.87 363.39 484.4 363.86 483.3 365.28 482.67 364.18 482.35 363.55 480.3 363.39 478.41 363.86 477.16 364.49 476.21 364.65 475.42 365.28 474.79 366.54 474.32 367.17 473.85 367.8 473.06 369.37 471.64 370.48 470.54 370.95 469.75 371.42 469.13 372.21 468.5 372.99 468.02 373.78 467.08 374.57 465.5 373.78 464.4 372.84 462.67 372.52 460.78 372.05 459.36 372.05 457 372.52 455.9 372.68 455.27 372.99 454.32 373.15 453.06 372.52 452.43 371.73 451.96 371.11 451.02 370.16 448.34 369.85 446.45 369.53 443.93 369.37 442.36 369.37 441.26 368.9 439.21 368.27 437.63 368.27 435.74 368.27 434.33 368.59 432.12 370 430.39 370.79 429.29 370.16 428.19 369.22 427.24 368.59 425.67 367.64 424.41 367.48 423.46 367.17 422.2 367.48 420.79 367.8 420.31 368.43 419.37 368.59 418.74 368.27 418.74 367.64 418.27 366.7 417.95 365.75 417.17 365.28 416.38 365.28 415.28 365.6 414.33 365.91 413.86 364.49 412.91 362.92 412.44 362.13 411.81 361.35 411.02 360.87 410.55 360.24 409.76 359.77 408.98 359.61 408.35 359.3 406.93 359.3 406.14 359.77 405.04 359.14 403.78 358.2 403.15 357.73 402.84 357.25 401.42 357.25 400.32 357.41 399.69 356.78 398.74 356.78 397.96 356.62 397.01 356.94 395.91 357.25 395.44 357.57 395.12 358.67 394.33 359.46 393.7 360.24 391.5 361.19 391.23 361.59 391.86 362.7 392.18 363.8 392.18 364.74 391.71 365.69 390.92 365.37 389.66 364.58 388.87 364.27 387.46 363.95 386.35 364.43 384.31 365.21 383.99 364.74 384.15 363.01 384.15 361.75 383.52 360.65 382.1 360.18 380.37 360.02 379.27 360.02 377.85 360.33 375.96 361.12 375.8 360.49 376.12 359.23 376.28 357.97 376.12 356.87 375.33 355.77 374.7 355.14 373.6 354.67 372.02 354.98 370.45 355.3 369.51 356.08 367.46 356.08 367.62 355.3 368.25 354.67 368.25 354.2 368.25 352.94 367.77 351.83 366.99 351.2 366.51 350.42 366.51 349.63 365.88 348.69 364.62 348.37 363.84 348.37 361.95 348.84 360.69 348.84 359.43 348.69 358.01 348.69 357.07 349 355.49 349.47 354.08 349.63 352.66 349.79 351.87 348.69 352.34 347.9 352.34 346.64 352.19 345.22 351.56 344.75 350.93 343.96 349.35 343.96 348.25 344.59 346.52 345.54 345.73 345.85 344 346.01 342.9 346.01 342.42 346.8 341.01 347.11 338.96 347.74 337.86 347.74 336.6 348.21 335.34 349.16 334.08 349.94 333.76 350.42 333.76 351.83 333.76 353.57 334.87 354.67 335.97 355.93 336.6 356.71 337.86 358.13 338.8 358.76 340.06 359.7 340.06 360.81 338.96 362.7 338.33 363.95 337.86 366 338.17 367.89 338.17 369.46 338.17 371.35 337.86 372.61 336.6 373.24 335.18 373.87 334.24 375.76 333.76 377.49 333.76 378.91 333.61 380.8 334.24 381.74 333.92 383.32 333.92 383.95 333.76 385.52 333.76 387.09 333.76 388.83 333.29 390.56 332.66 391.19 332.66 391.82 333.61 392.76 334.71 393.39 335.97 393.55 337.07 393.39 338.01 392.92 339.12 392.76 340.38 392.76 341.32 392.45 342.11 391.5 342.42 390.71 341.48 389.77 341.16 388.83 341.95 388.04 342.74 387.57 342.74 386.62 342.74 385.99 342.74 385.05 343.53 383.79 343.68 383.47 344.47 383 345.26 382.53 346.04 384.42 346.36 385.05 347.46 386.31 349.19 387.72 350.77 388.67 352.19 388.67 352.82 388.83 352.97 390.09 353.13 391.19 353.45 391.5 354.23 391.34 355.33 391.5 356.28 391.19 357.38 391.03 358.48 390.09 359.74 390.09 361.32 389.77 362.58 389.46 363.99 388.83 364.47 387.88 364.78 386.31 364.94 385.05 364.94 383.47 364.94 383.16 365.73 382.21 366.36 382.06 366.67 382.53 366.83 383.79 367.62 385.36 368.88 386.94 370.77 387.72 372.18 387.72 373.13 387.57 374.07 387.09 374.86 386.62 375.49 386.15 376.12 387.41 377.22 387.72 378.8 387.72 379.74 387.57 380.84 387.57 380.84 388.2 379.11 388.67 378.01 389.46 376.59 389.93 374.39 391.03 372.65 392.13 371.08 392.76 369.98 393.39 368.56 393.86 367.62 393.86 365.73 394.65 364.78 395.59 364.31 397.01 364.31 398.74 364.94 399.21 365.88 400.16 366.2 401.1 366.51 401.73 367.3 402.68 368.56 403.31 369.35 403.47 372.34 404.25 374.23 405.2 376.28 405.2 378.17 405.2 378.8 405.98 380.84 406.93 382.1 407.09 382.57 407.56 383.2 408.5 383.52 409.45 384.62 410.23 385.72 410.55 386.51 411.49 387.14 412.59 387.93 413.22 387.61 414.17 385.41 413.7 383.68 413.07 382.73 413.07 381 413.07 379.43 412.59 378.17 412.59 376.75 413.22 375.33 414.17 374.39 414.48 373.28 415.74 372.81 416.85 370.92 417.32 370.14 417.47 369.51 419.21 368.88 420.62 368.4 422.2 367.46 422.35 366.36 423.14 365.41 423.93 366.04 425.03 366.04 426.45 365.88 427.23 365.57 428.65 364.47 430.23 363.84 431.17 363.84 432.59 363.21 433.69 362.89 434.48 363.21 436.21 363.84 436.52 365.57 437.31 367.14 437.78 368.56 438.41 369.98 438.88 370.77 439.51 371.55 439.83 372.65 439.98 374.07 440.14 374.54 439.04 375.17 438.1 374.86 437.31 374.23 436.84 373.91 436.21 373.44 435.26 373.76 434.16 374.7 433.53 375.65 432.9 376.91 431.33 378.17 431.17 378.92 431.55 380.21 432.43 381.47 432.9 383.05 434.32 383.68 434.95 385.72 434.79 387.06 434.49 387.75 435.54 387.62 435.88 387.61 435.89 388.24 436.68 389.97 437.47 390.45 437.94 392.18 438.25 393.6 439.67 394.07 439.67 395.33 440.3 396.43 440.3 397.69 439.67 398.32 438.73 398.79 438.41 400.05 437.94 400.52 437.15 400.52 436.05 401.15 434.79 401.63 433.69 401.63 432.74 401.63 431.8 401.47 430.7 399.74 428.49 401.63 429.28 402.57 430.23 404.15 430.23 404.93 429.91 406.98 430.23 408.24 429.12 409.03 428.18 409.34 426.6 410.76 425.03 410.76 426.76 410.92 428.34 411.86 429.6 412.62 429.91 412.62 429.97 412.62 430.18 412.62 430.23 411.86 430.7 411.36 431.01 410.1 431.8 409.62 432.43 409.62 432.67 409.62 433.37 409.31 433.85 409 434.48 408.52 434.95 407.74 436.05 407.42 436.52 406.79 437.78 406.32 438.57 405.54 439.89 404.93 440.93 404.46 441.72 404.62 443.13 405.72 444.55 406.66 445.81 408.87 446.91 410.76 447.54 411.39 447.54 413.28 446.91 415.01 445.34 414.85 447.38 415.01 448.33 415.8 449.11 416.74 450.22 418 450.37 419.1 450.22 420.05 449.59 421.31 450.22 422.41 451.16 423.67 450.85 423.83 451.63 423.83 452.58 423.35 453.36 423.2 454.47 423.35 455.88 423.51 456.83 423.98 458.09 423.98 459.03 423.51 459.19 422.57 459.19 420.84 458.72 420.52 458.24 420.05 457.61 419.42 457.46 418.63 457.14 417.53 457.46 417.84 458.4 418.95 459.19 419.1 460.61 419.1 461.71 419.1 462.34 418.32 462.97 417.53 462.97 417.06 462.97 416.11 463.6 415.95 463.91 416.43 465.17 416.58 466.43 416.27 467.53 415.64 468.48 414.54 468.79 413.75 469.11 413.28 469.42 412.02 469.89 410.73 469.42 410.18 469.42 409.78 469.42 408.84 470.37 407.74 471.15 407.58 472.25 407.89 473.2 408.52 474.3 407.58 475.4 406.79 475.56 405.06 474.62 404.27 473.99 403.48 473.04 402.22 473.04 402.07 473.36 402.54 474.3 404.11 475.87 404.9 476.82 406.79 476.5 408.21 476.98 409.31 477.76 410.1 478.55 411.36 479.65 412.46 480.44 413.25 480.75 414.51 481.23 414.51 480.28 413.88 479.81 414.03 478.71 414.82 478.24 415.92 478.24 416.24 478.24 418.76 478.55 420.96 479.65 423.8 479.65 425.37 480.28 426.76 480.85 427.53 481.26 427.75 481.26 428.47 481.26 429.89 480.79 430.21 480 431.15 479.69 432.41 478.9 433.51 477.8 434.14 476.7 434.14 475.6 434.46 474.65 434.77 474.34 435.72 473.39 435.87 471.97 436.19 470.72 436.19 469.61 435.4 469.14 434.61 468.67 434.61 468.2 436.19 467.41 436.66 466.62 436.82 465.68 436.5 464.42 437.29 463.32 437.76 462.84 438.39 463.47 438.87 464.26 439.65 464.89 440.13 465.52 440.75 466.15 441.7 466.47 442.49 467.25 442.17 467.88 442.64 468.83 442.33 469.46 441.07 469.46 440.28 469.93 440.28 470.87 439.97 471.82 439.18 472.76 438.55 473.55 439.5 475.28 440.6 476.54 440.44 477.8 438.87 479.06 438.39 480.16 437.76 481.26 437.61 482.36 437.29 483.15 437.61 484.1 438.39 484.88 440.6 485.51 442.64 485.83 444.69 486.14 446.58 485.51 447.68 484.88 448.16 484.25 448.31 483.31 448.31 482.68 448.31 481.26 448.94 480.32 449.73 479.69 449.73 478.74 449.1 477.96 448.79 477.33 448.47 476.38 448.94 475.28 449.89 474.81 450.36 474.18 450.83 473.55 452.09 472.6 452.88 471.97 453.35 471.03 454.3 469.93 455.56 468.98 456.19 468.04 457.92 467.57 459.49 466.78 460.59 466.15 461.7 465.36 463.11 464.26 463.11 463.47 462.96 462.06 462.8 461.59 463.27 460.48 464.69 459.38 466.42 458.75 467.99 457.34 468.51 456.53 468.51 455.59 468.2 454.49 467.88 454.01 467.1 453.54 466.78 453.23 465.37 453.07 464.58 453.23 463.79 453.23 462.85 453.07 463.63 451.65 464.42 450.08 464.58 448.98 463.95 448.35 463.63 447.4 463.63 446.14 463.48 445.2 463.48 444.25 463.48 443.47 463.16 442.84 462.69 442.21 461.27 442.21 461.59 441.89 462.37 440.95 463.16 440.63 465.21 440.48 465.99 441.11 466.62 441.89 466.94 442.68 467.25 443.62 468.2 444.1 468.67 444.88 469.93 445.36 471.51 445.51 472.77 445.2 473.08 444.25 471.82 443.15 471.03 442.68 470.56 442.05 469.3 441.26 467.88 440.79 466.78 440 466.78 439.37 467.73 438.9 468.99 437.96 469.62 437.01 469.46 436.23 469.3 434.97 469.93 434.34 471.66 434.34 472.77 434.02 473.71 433.08 474.5 432.13 474.5 431.35 474.65 430.24 475.13 429.14 475.76 428.2 476.54 427.41 477.02 426.15 477.49 424.89 477.17 423.79 476.39 423 474.81 422.06 473.08 421.11 471.98 420.49 470.72 420.01 469.62 419.86 467.88 420.01 467.73 419.23 467.73 417.97 468.99 417.97 470.72 417.34 471.82 416.24 472.61 415.13 472.92 414.35 472.77 413.4 472.61 411.36 473.18 411.67 474.03 412.14 475.13 412.61 476.23 413.4 476.7 414.35 478.43 414.82 479.54 415.61 480.95 416.08 482.69 416.08 483.47 416.08 483.63 414.82 483.47 414.03 484.42 413.56 485.36 412.93 486.46 412.14 486.94 411.04 486.62 410.25 486.15 408.84 487.72 409.47 489.14 409.94 490.56 409.78 491.66 409.62 492.6 408.84 493.39 408.36 494.65 407.89 497.49 407.58 496.23 408.52 495.44 409.62 495.28 410.57 494.18 411.67 493.08 412.61 492.13 414.35 491.97 415.76 492.6 416.71 493.08 417.97 493.08 419.07 493.23 419.38 492.92 420.8 491.97 421.11 491.5 421.74 491.35 422.37 491.19 423.32 492.29 424.11 493.71 424.26 495.28 423.79 496.54 423.48 497.96 423.16 500.01 423.79 502.84 423.32 504.89 422.53 504.89 421.67 505.36 419.78 506.54 419.07 506.78 418.12 506.78 416.71 506.07 416 505.83 414.58 505.36 413.87 505.36 412.93 504.89 411.98 504.89 411.04 505.36 409.86 506.07 408.21 506.78 406.08 507.96 404.43 508.9 403.25 510.08 402.78 514.33 402.78 514.45 403.13 514.49 403.26 513.67 403.88 511.97 405.14 511.97 406.32 513.15 407.73 514.1 408.68 515.83 409.78 515.29 411.26 515.2 411.51 514.57 412.46 514.33 412.93 514.33 413.64 514.81 414.82 515.75 416 516.93 416.94 517.41 417.46 517.41 419.35 517.17 420.21 517.1 420.45 518.35 423.55 519.15 423.76 520.41 423.92 521.98 423.29 522.92 422.97 524.81 422.66 527.81 422.03 528.75 421.4 529.54 420.45 529.7 419.51 530.64 419.04 532.69 418.88 533.63 418.09 533.95 417.3 533.95 416.67 534.42 415.57 534.89 414.79 535.68 414.31 536.62 414.31 537.73 414.31 538.98 413.68 539.46 412.74 540.56 411.95 542.29 411.17 543.39 410.69 544.5 409.91 544.81 408.8 545.13 408.17 545.6 407.7 546.39 407.23 546.7 406.44 546.7 405.34 546.23 404.24 546.39 403.45 548.12 403.45 549.85 403.29 551.11 403.45 552.05 402.98 553.47 402.19 554.89 402.04 556.3 400.46 557.41 399.04 558.51 397.79 558.19 396.68 557.41 395.74 557.09 394.64 556.93 392.91 557.12 392.99 558.04 393.38 559.3 393.54 561.19 394.64 562.76 395.11 563.71 395.11 564.49 395.11 565.75 394.16 566.59 394.86 566.7 394.95 567.48 395.27 568.59 395.27 569.37 395.27 569.37 395.52 569.37 396.37 570.32 397.31 571.58 397.94 572.68 398.26 574.1 398.26 575.51 398.26 575.99 397.63 575.99 396.68 576.46 395.42 577.4 394.64 578.98 393.69 580.08 392.43 581.65 391.33 581.97 390.39 581.97 389.6 581.97 388.66 581.97 387.4 581.5 386.14 580.71 385.12 580.01 384.41 579.45 383.43 579.27 383.1 579.45 382.37 579.45 382.35 579.5 382.16 579.74 381.42 579.94 380.76 580.05 380.18 580.15 380.28 580.89 381.06 580.79 381.66 580.69 382.33 580.64 382.66 581.12 383.48 582.02 384.22 583.62 385.13 584.15 385.43 585.47 386.46 586.18 386.47 587.01 386.14 588.27 385.19 588.9 384.41 590 383.93 591.73 383.46 592.52 382.99 592.52 382.2 592.94 381.37 592.99 381.26 593.78 382.04 595.2 382.2 596.46 382.04 597.87 381.26 598.5 380.78 600.55 380.78 602.6 381.41 603.7 381.89 605.27 382.67 607.16 383.3 607.48 383.78 609.37 384.88 610.94 384.88 611.89 384.25 612.67 383.62 613.3 383.3 613.32 383.38 613.46 384.09 613.62 385.19 614.41 385.35 615.82 385.51 616.92 385.82 618.5 386.45 620.7 387.4 621.96 388.18 624.48 388.97 627.95 389.91 630.15 389.44 630.94 388.81 632.67 388.5 634.4 387.71 635.66 388.03 635.76 388.28 635.98 388.81 633.61 389.91 632.67 390.7 631.73 391.65 629.84 391.96 628.58 391.65 627.47 391.96 625.43 392.28 624.92 392.11 623.54 391.65 621.33 390.39 619.6 389.91 617.55 389.28 616.14 388.66 614.41 388.18 612.83 387.4 610.78 387.4 609.21 387.55 607.95 387.24 607.16 387.08 606.38 386.61 605.59 385.98 603.86 384.88 602.91 384.25 601.34 383.78 599.76 384.25 598.5 385.19 596.61 385.66 595.51 386.45 594.57 387.87 593.78 388.97 592.36 390.23 590.94 391.17 589.69 392.91 588.9 394.01 589.69 394.48 590.47 394.95 592.52 395.27 590.94 395.74 589.37 396.37 587.95 396.53 586.69 396.68 584.49 397.31 583.07 398.26 582.44 399.52 581.97 401.09 581.5 401.88 580.87 403.61 580.08 404.55 578.03 404.87 575.83 404.55 574.41 404.4 572.99 403.92 571.26 403.61 569.69 403.92 568.27 403.29 566.38 403.45 564.81 403.77 563.39 404.4 562.76 405.03 562.29 406.76 561.34 407.54 559.93 408.8 557.41 409.75 555.99 410.22 554.57 410.38 553.47 411.01 553.31 411.64 553.16 413.05 552.53 413.84 551.27 414.79 550.48 415.89 549.85 416.99 549.22 418.09 548.27 419.67 549.45 420.32 549.45 420.01 550.71 420.48 551.02 421.11 551.18 422.84 552.13 424.42 553.39 425.2 554.33 425.68 555.27 426.62 557.32 427.25 559.37 427.88 560.94 428.98 562.99 430.08 565.35 430.08 563.78 431.34 562.52 431.34 561.57 431.34 560.94 431.34 559.68 431.18 557.64 431.66 555.27 432.44 553.54 432.6 552.28 433.07 550.71 433.55 550.39 434.65 548.98 434.18 547.56 434.33 547.09 434.96 546.46 435.43 545.04 435.28 544.41 434.49 544.1 433.86 543.31 433.86 541.42 434.02 540.47 434.02 539.37 434.18 538.11 434.33 537.64 434.96 537.48 435.75 537.17 436.22 535.44 435.28 534.33 434.18 533.39 433.23 533.07 432.92 532.44 432.6 531.18 432.29 529.61 431.97 527.56 431.97 525.99 431.66 524.73 431.97 524.1 432.6 523.15 433.23 521.89 433.55 520.63 433.55 518.59 433.55 516.86 433.55 515.28 433.55 514.02 433.55 512.92 433.7 511.66 434.33 510.56 434.65 510.09 435.43 509.61 435.75 508.83 436.85 508.51 437.32 508.98 438.58 509.93 439.84 509.3 440.47 508.51 441.26 507.72 441.73 507.41 442.2 507.25 443.15 506.15 443.46 504.42 442.52 503.94 441.73 503.31 441.1 502.53 440.79 501.11 440.31 499.85 440.31 497.96 440.31 497.02 440.31 495.91 440.47 495.13 440.94 495.13 441.57 495.13 442.2 495.44 443.94 496.07 445.19 496.86 446.14 497.17 447.08 497.8 448.19 497.8 449.29 498.12 450.23 499.38 451.18 500.64 452.44 501.74 452.75 503 453.38 504.26 454.17 505.31 454.26 506.1 453.95 506.89 453.47 507.04 452.69 507.83 451.74 508.62 452.37 509.25 452.84 510.51 453.63 511.45 454.58 512.4 456.31 513.81 457.41 514.76 457.88 515.55 458.2 516.33 458.04 517.75 457.57 518.69 457.41 518.85 457.41 518.85 458.2 519.32 459.46 521.37 460.87 522.32 462.13 523.42 463.23 523.89 463.71 525.31 464.18 526.72 465.6 525.78 465.6 524.52 465.6 523.26 465.6 522.47 464.81 520.58 464.65 519.8 463.86 518.69 463.23 517.28 463.23 515.55 463.23 513.81 463.39 512.71 463.23 511.29 462.92 509.72 462.92 508.3 463.39 508.15 464.81 508.46 466.54 509.25 467.96 510.03 468.9 510.51 469.85 511.61 470.16 513.34 469.69 513.18 470.47 513.66 472.05 514.29 473.31 515.07 474.57 516.02 475.51 518.38 475.2 520.43 474.88 521.37 474.72 522.16 475.2 522 475.83 522 476.46 522.63 477.4 523.1 478.66 524.68 479.92 525.94 480.86 527.98 481.81 528.77 481.81 530.19 481.97 532.39 481.65 532.08 482.6 532.08 483.7 532.3 484.58 532.46 485.68 532.93 486.31 534.66 486.63 535.61 486.63 536.24 486.94 536.71 487.57 537.97 488.51 539.54 488.2 541.12 487.88 542.22 487.25 542.69 487.1 544.27 486.78 545.21 486.31 546.89 486.31 547.26 486.31 546.15 487.41 545.52 487.73 543.95 488.04 543.95 488.51 542.69 489.62 542.06 490.09 540.96 490.09 540.17 490.88 539.54 491.19 539.38 491.35 539.38 492.13 539.7 492.76 540.96 493.71 541.75 494.97 541.6 495.68 541.59 495.76 540.17 495.76 539.07 496.38 538.12 497.01 537.18 497.17 535.92 498.12 535.29 497.8 535.13 496.7 535.61 495.76 535.92 495.44 535.61 494.81 534.5 494.02 533.09 493.71 531.35 493.55 531.67 492.92 531.67 491.51 530.88 491.03 530.09 489.93 529.31 489.14 528.83 488.04 528.2 487.41 527.42 486.47 525.69 486 524.11 485.52 522.22 484.74 520.33 484.26 518.92 483.95 518.13 483.63 517.03 483.63 516.24 483.63 514.98 483.95 513.4 484.58 512.14 484.58 512.93 485.52 513.25 486.78 513.25 487.88 513.09 489.3 513.09 491.19 514.51 491.98 515.14 493.08 515.92 493.39 516.55 494.18 517.66 494.5 519.07 494.81 520.33 494.81 521.43 495.6 521.91 496.38 523.01 497.33 523.17 498.9 523.17 500.95 523.17 502.05 523.8 503 523.95 503 524.58 504.26 525.53 504.89 526.16 505.51 527.73 505.2 528.68 504.89 528.83 505.83 529.31 507.56 528.68 507.4 528.2 507.4 527.26 507.56 525.69 507.88 524.11 508.35 523.01 508.51 523.01 508.03 522.54 507.25 522.38 506.62 521.75 506.3 521.12 506.3 520.49 506.3 519.86 506.3 519.23 505.83 518.92 505.04 518.6 504.1 518.13 503.47 518.13 502.52 517.81 501.58 517.18 500.95 516.4 500.32 515.29 499.85 513.56 499.38 512.46 499.69 511.67 499.85 511.04 499.85 510.26 500.32 509.15 500.32 508.05 500.32 507.58 499.69 506.79 498.75 505.69 497.96 504.43 497.17 503.33 496.54 503.01 495.76 503.01 494.81 502.54 493.39 502.07 491.98 501.44 490.72 500.49 490.4 499.39 490.4 498.13 490.4 497.03 490.4 495.93 490.09 495.14 489.3 495.14 488.2 495.45 487.41 495.45 486.63 494.82 486.31 494.04 485.84 493.57 485.37 493.25 484.74 493.09 484.11 492.31 483.79 490.73 483.79 488.84 483.79 486.95 483.63 484.75 483.63 482.86 484.11 481.28 484.26 480.97 484.58 481.76 485.37 481.91 486.31 483.33 486.63 484.75 487.41 486.16 487.88 487.74 488.83 488.68 489.62 488.84 491.19 488.37 491.98 487.9 492.61 486.79 493.24 486.01 493.39 485.38 494.18 484.59 495.76 484.12 496.86 483.17 497.8 483.17 498.59 482.23 499.69 481.76 500.63 481.91 501.26 481.91 502.84 481.44 503.63 480.81 504.26 480.18 505.51 480.02 505.67 480.02 506.93 480.5 508.03 480.81 508.66 482.54 508.98 483.65 508.98 484.28 508.35 484.91 507.88 486.01 507.88 487.11 507.88 487.58 507.09 488.68 506.77 489.79 506.93 492.15 506.14 492.15 507.09 491.2 508.51 491.2 509.76 491.2 511.02 491.68 512.13 491.68 513.54 490.26 514.33 490.1 514.33 489.31 515.12 488.37 515.9 487.58 516.38 487.11 517.32 488.53 517.48 487.9 518.42 487.42 519.52 487.42 520.78 488.53 522.04 489.47 522.52 491.36 522.52 492.62 522.04 493.88 521.89 494.82 521.73 496.71 521.89 498.13 521.1 498.92 520.94 499.39 520.31 500.49 518.42 500.81 519.05 501.12 520.47 501.44 521.57 500.65 523.3 499.71 523.77 499.71 524.25 500.18 524.56 501.91 524.56 503.64 524.25 504.74 523.77 505.85 523.77 506.79 523.3 507.11 522.83 507.58 521.89 509.15 520.94 509.47 520.31 510.41 519.37 512.62 518.42 511 521.11 510.57 522.99 510.1 524.56 509.15 525.19 509 525.66 508.37 526.77 508.05 527.87 508.05 528.81 509.31 528.97 510.57 529.44 512.46 529.91 514.19 529.44 515.14 529.13 515.77 528.65 516.24 528.34 517.81 528.18 519.23 528.5 520.71 528.29 521.29 528.8 521.61 529.08 521.97 529.39 522.91 529.39 523 529.21 523.38 528.44 522.91 527.34 522.91 526.56 523.07 525.77 523.23 524.98 523.86 524.67 525.59 526.24 526.69 527.34 527.79 527.34 529.68 526.4 531.57 525.77 532.2 525.93 531.1 526.56 530.31 526.87 529.52 527.5 529.21 528.44 529.05 529.39 529.84 530.33 531.46 530.04 531.78 529.57 532.09 528.78 533.35 528.47 534.14 528 534.61 527.37 535.08 526.58 536.34 526.58 537.6 526.58 539.49 526.74 542.17 525.95 543.11 525.16 543.74 524.69 543.9 523.75 544.69 522.96 545.32 522.33 546.1 521.54 546.1 519.5 545.47 518.71 544.53 518.08 543.58 517.76 542.33 517.61 541.54 517.92 540.91 516.98 541.07 516.35 542.17 515.56 542.33 514.77 543.43 513.67 544.21 512.88 545.16 512.25 545.95 511.47 546.1 509.89 545.47 508.48 544.53 508 542.96 507.22 541.22 507.22 540.28 507.37 539.33 507.53 538.86 508 538.55 509.58 537.92 510.05 537.44 510.52 536.97 511.31 536.18 511.47 535.24 511.62 534.45 512.25 533.98 512.88 533.04 513.36 530.67 513.83 528.63 515.72 528 514.77 528.84 514.18 530.47 513.36 531.17 512.79 531.54 511.6 532.3 510.78 533.36 509.77 533.99 508.99 534.77 508.2 535.56 506.62 535.56 505.84 535.09 505.52 535.09 505.05 535.09 503.63 536.19 503.48 537.13 503.79 538.55 503.79 539.81 502.85 541.7 501.9 542.8 501.12 543.91 500.33 544.49 500.09 544.69 500.01 546.11 500.01 548.16 500.01 551.15 499.38 553.82 498.6 555.08 498.28 556.34 497.65 556.97 497.34 557.76 496.55 558.23 496.39 559.34 495.61 560.12 495.45 562.01 495.13 561.07 495.92 560.44 496.55 560.75 497.49 561.54 497.81 564.06 497.81 562.64 498.44 562.24 498.79 561.54 499.38 560.44 499.7 559.81 500.01 558.55 500.8 557.6 500.96 556.66 501.43 555.71 502.22 556.66 502.85 557.92 502.22 559.49 502.37 561.54 502.37 562.48 502.53 561.54 503.16 560.75 503.79 559.34 505.21 558.55 506.15 558.23 506.62 558.08 507.73 559.65 508.2 561.85 508.99 562.96 508.99 562.6 509.61 562.39 509.98 562.33 510.09 560.91 511.03 559.81 511.98 559.34 513.24 558.55 514.34 559.18 515.44 560.28 516.23 561.7 516.23 564.06 516.38 565.63 516.7 567.05 516.7 566.42 517.8 566.11 518.59 565.48 519.22 564.69 519.85 564.06 520.95 563.9 522.05 565 523 566.42 523 567.52 522.37 568.63 522.68 569.88 522.52 570.67 521.26 571.93 520.79 573.19 521.26 573.82 521.58 574.77 521.26 575.24 520.32 576.5 519.85 578.07 520.32 578.86 520 578.39 518.59 579.96 518.9 581.06 519.53 582.32 520.32 583.43 520.63 584.37 520.63 585 520.32 586.42 519.85 586.89 518.9 588.78 518.59 589.41 518.27 591.02 517.96 593.03 517.83 592.9 518.34 592.02 518.59 590.89 518.84 589.76 519.47 588.75 519.85 588.69 519.89 587.99 520.48 587.11 521.74 586.48 522.24 585.6 523 584.72 523.5 583.46 523.62 582.48 524.22 582.17 524.85 581.54 525.8 580.59 526.27 579.65 526.74 578.7 527.37 577.92 528.16 576.34 528.47 575.24 528.79 574.45 529.26 574.27 529.54 574.14 529.73 574.45 530.99 576.5 531.78 578.23 532.25 577.76 533.04 578.39 534.3 579.17 535.08 578.54 536.34 577.44 536.34 577.44 536.03 576.34 535.71 575.87 536.19 574.92 536.03 573.66 535.87 572.72 535.87 571.62 535.87 570.36 536.34 569.73 536.82 568.94 537.6 567.84 537.76 565.79 537.13 564.69 536.66 563.11 536.66 562.17 536.97 560.75 537.29 558.71 537.29 557.45 536.66 556.5 537.6 557.76 538.08 557.92 538.86 558.08 539.96 558.86 540.91 559.65 540.75 560.12 541.85 560.12 542.96 560.44 543.27 561.38 543.9 563.27 542.64 564.69 542.64 565.48 543.11 566.89 543.58 568.31 544.69 569.26 545.32 570.83 545.32 571.93 545.47 573.19 545.79 575.4 546.26 575.87 545.63 576.5 545.16 577.76 545.63 578.86 545.95 578.39 546.89 578.54 548.15 578.86 549.57 579.02 550.67 580.28 551.14 581.54 550.98 582.32 551.14 582.48 552.08 583.9 552.4 584.84 552.24 585.16 553.03 585.32 553.66 586.1 554.45 587.05 555.39 587.22 555.68 587.52 556.18 587.52 557.28 587.52 558.22 588.15 559.01 589.41 559.96 590.98 560.59 591.93 561.06 593.5 561.21 593.66 562 594.45 562.63 594.76 564.68 592.56 563.73 591.14 563.42 590.67 563.1 588.78 562.79 587.05 562.79 585.63 562.79 584.21 563.42 583.11 564.21 582.8 564.52 583.74 564.68 584.69 565.31 585.79 566.41 587.05 567.51 587.99 568.3 589.41 569.09 589.09 569.56 587.99 569.87 587.36 571.29 587.2 572.86 588.46 573.34 590.67 573.97 590.51 575.07 590.67 575.38 591.3 576.8 592.24 577.74 593.19 578.69 593.19 579.63 592.4 579.79 590.35 579.32 589.72 578.53 589.09 578.06 587.83 577.27 586.89 577.11 585.79 577.74 585 578.22 584.06 578.06 583.9 576.96 583.43 576.01 583.27 575.22 582.17 574.59 581.38 573.81 581.06 573.18 580.28 572.86 579.17 572.39 578.7 571.92 578.23 571.13 577.92 570.34 576.97 569.56 576.03 569.24 574.92 568.77 574.29 568.61 573.03 568.61 572.88 568.93 572.09 569.56 571.3 569.87 570.51 570.19 570.04 571.13 569.57 571.92 569.1 572.86 568.63 573.81 568 574.44 566.89 574.91 566.26 575.85 565.95 577.59 565.16 578.85 565.32 579.79 565.16 580.89 565.16 581.52 565.16 581.99 565.16 583.57 565.16 584.35 563.27 584.83 561.38 584.51 560.12 584.35 558.86 584.98 557.76 585.61 556.66 586.24 555.71 586.72 554.45 586.72 553.19 586.72 552.09 586.72 550.99 586.56 549.1 586.56 548.31 586.56 547.37 586.4 547.21 586.4 547.53 587.35 548.79 587.82 550.36 588.29 551.94 589.08 553.35 589.55 555.08 590.02 556.19 590.02 557.45 590.02 558.55 589.39 558.86 588.76 560.28 588.6 561.07 588.6 562.01 588.57 562.8 589.05 562.96 590.49 562.48 591.44 562.48 592.85 562.96 595.37 564.22 597.26 565.32 598.05 566.58 599.78 566.58 601.51 565.95 603.87 565.48 604.82 565.32 605.61 565.95 606.86 566.26 609.23 566.42 610.33 566.42 611.9 566.42 613.29 567.05 613.6 567.37 614.07 568.47 614.86 568.63 615.81 569.73 617.38 569.73 618.32 570.51 619.27 571.93 619.43 572.88 619.27 572.88 620.21 572.88 621.31 573.35 622.57 573.82 623.36 573.98 623.99 574.45 624.46 575.24 624.94 576.03 625.25 576.81 625.25 577.92 625.09 579.17 625.09 579.65 625.72 580.28 627.3 580.28 628.71 580.91 630.13 581.06 631.07 581.85 632.49 582.64 633.59 583.74 634.69 585.79 635.17 587.2 635.32 588.94 635.95 590.04 636.43 591.93 636.43 592.87 636.74 595.08 638 596.49 638.32 598.38 638.47 599.8 638.47 601.06 638.16 601.85 636.9 603.11 636.27 603.74 635.64 605.31 634.85 606.1 634.54 607.67 634.54 608.62 634.54 610.04 634.38 611.77 634.38 613.18 633.91 614.29 633.75 615.86 633.91 616.81 633.91 618.22 633.44 619.17 633.44 621.84 633.12 623.42 632.65 624.84 631.86 626.25 630.6 627.2 629.81 627.99 629.03 628.62 626.98 628.14 626.35 627.36 625.41 627.04 624.31 626.41 623.52 625.47 622.89 624.68 622.57 623.73 621.63 622.95 620.84 621.53 620.21 620.59 619.58 619.8 619.43 618.22 619.27 617.44 618.95 617.12 618.01 617.59 616.75 616.65 615.02 614.6 613.76 614.13 612.34 615.23 612.34 615.9 612.63 617.44 613.29 619.8 614.23 621.53 614.7 622.47 615.33 624.05 615.49 625.78 615.49 626.88 615.49 628.3 615.49 629.88 615.33 631.29 614.86 632.39 613.76 634.13 611.71 635.23 611.08 636.17 609.82 636.8 608.41 637.12 607.46 637.91 607.15 638.85 606.83 639.16 606.2 639.16 605.42 639.32 604.79 638.85 603.84 639.64 602.74 639.79 601.8 640.11 600.22 640.42 598.49 640.74 596.76 641.68 594.55 642 595.66 642.16 597.86 642.47 599.28 642.84 599.52 643.67 599.91 643.87 600 644.1 600.1 644.92 600.42 644.78 600.47 643.9 600.77 642.88 601.12 642.94 601.64 644.05 602.58 645.15 603.53 645.94 604.16 647.35 604.79 648.45 605.42 648.77 606.26 648.93 606.68 648.45 606.68 647.35 606.68 646.25 607.3 644.83 608.41 643.73 609.04 643.26 609.67 643.1 610.61 642.94 611.24 642.63 612.81 642.47 614.23 642.47 615.33 642.47 616.12 643.57 617.38 643.42 618.01 643.42 619.11 643.42 619.43 643.42 619.58 643.84 620.55 644.36 621.94 644.36 622.73 645.78 623.83 646.25 624.94 645.78 624.94 644.99 625.25 644.99 626.04 644.99 626.08 644.99 627.3 645.46 627.61 645.15 628.87 645.31 630.13 645.46 631.39 645.15 632.49 644.68 634.07 643.89 635.32 643.73 636.74 643.26 637.53 643.57 638.16 644.99 639.26 645.78 639.73 646.88 641.62 647.98 643.35 649.4 645.08 650.03 645.87 650.97 646.97 652.08 647.45 651.92 649.18 653.49 650.28 654.75 651.85 656.01 652.8 656.01 654.21 656.8 655.63 657.9 656.89 658.53 658.31 659.79 660.04 662.37 662.73 664.11 663.51 666.56 664.92 667.35 666.65 668.61 667.12 669.87 667.59 671.29 666.81 672.23 666.49 673.96 667.44 676.01 667.59 677.9 668.22 679.47 669.01 680.1 669.96 678.84 670.43 677.27 671.06 676.32 671.69 674.91 672.79 673.65 673.73 673.02 674.21 671.92 674.21 670.5 674.21 669.87 673.73 668.92 673.73 668.14 673.58 667.51 675.31 666.88 676.57 666.4 677.98 665.46 679.24 665.14 681.13 664.83 682.08 664.52 684.44 663.41 683.49 662.63 682.23 661.52 680.97 660.26 680.03 659 679.08 657.9 678.61 657.43 677.35 656.33 676.72 655.38 675.62 654.12 674.68 653.34 673.42 652.86 672.79 652.08 671.84 651.92 671.21 651.13 670.27 650.03 669.01 649.4 667.59 648.77 666.96 648.14 665.86 647.35 665.23 646.72 664.76 645.94 664.6 646.09 663.66 646.09 662.24 645.94 661.14 645.46 660.35 644.74 659.62 644.27 659.46 643.48 659.3 643.48 658.2 643.17 657.57 642.38 656.63 641.28 656.63 641.44 656 641.44 655.05 640.96 654.58 640.18 653.64 639.07 652.85 638.29 651.59 638.13 650.65 637.81 649.39 637.5 648.91 636.4 648.76 634.82 649.23 633.72 649.23 632.93 648.6 631.52 648.28 630.57 647.97 629.47 647.5 627.74 646.87 625.85 647.02 624.75 646.87 623.96 645.77 623.01 645.77 621.91 645.77 620.81 646.08 619.55 646.08 618.29 646.08 616.4 646.08 614.67 646.4 613.88 647.34 612.31 647.97 611.68 648.6 610.73 649.54 610.58 650.8 609.95 652.06 610.26 654.11 610.42 655.53 610.42 656.63 610.58 657.89 610.1 658.99 610.73 660.4 610.89 661.35 610.89 662.14 610.1 662.92 609.45 663.39 608.51 662.95 607.74 662.45 605.69 662.14 604.43 662.29 603.33 662.92 603.49 664.18 604.59 664.81 606.01 664.81 606.95 664.34 608.69 663.87 609.63 664.97 611.83 666.54 612.78 667.17 613.72 667.96 614.35 669.22 615.3 670.64 616.4 672.05 618.45 672.68 619.86 673.47 621.6 674.89 623.64 675.36 625.85 676.78 626.64 677.56 626.16 678.35 625.85 679.61 626.32 680.55 627.58 680.71 628.52 680.24 630.41 680.24 631.67 680.4 631.83 681.18 632.93 681.81 634.67 682.29 635.45 682.44 634.67 683.54 634.19 684.96 634.19 686.06 634.51 687.01 635.93 687.01 637.34 686.85 637.81 686.85 637.97 687.32 637.97 688.11 638.6 689.21 639.39 689.53 640.49 690.16 640.96 690.47 642.38 691.41 643.8 692.04 644.59 692.04 645.53 693.3 647.58 693.78 648.52 694.09 649.31 694.25 650.57 694.56 650.41 695.98 650.41 696.92 650.41 697.71 650.41 698.34 651.51 698.97 652.62 699.29 653.56 699.92 654.35 700.54 656.08 701.33 657.5 701.8 658.13 702.91 657.65 703.38 658.28 704.79 659.54 706.05 660.65 707 661.72 707.57 663.61 708.2 666.13 708.04 667.07 707.1 667.54 706.78 668.01 706.31 668.8 705.21 670.06 703.48 670.38 703 671.32 701.43 672.42 702.06 672.74 702.22 673.84 702.53 675.57 702.53 675.18 703.01 674.79 703.48 674.79 704.42 675.41 706.47 676.36 708.2 677.78 708.98 679.82 709.14 679.52 710.36 679.51 710.4 678.56 711.82 677.93 712.76 676.83 714.02 675.89 715.44 675.41 716.54 674.79 717.17 673.53 717.17 672.42 717.64 671.32 717.96 670.38 718.59 669.9 718.9 670.22 719.69 671.01 720 672.42 720.63 672.42 721.11 672.42 722.36 672.58 723.94 673.84 724.41 675.1 724.73 675.73 724.88 676.99 724.88 677.46 725.67 678.25 726.61 678.56 727.09 679.98 727.87 680.61 728.82 679.82 729.13 678.56 729.29 676.67 729.92 675.26 730.24 673.68 730.39 672.27 732.28 670.38 733.38 669.27 734.17 667.23 734.64 664.87 734.8 662.82 735.12 663.45 733.86 664.08 732.75 663.76 731.97 663.92 731.18 663.76 730.55 663.13 729.76 661.87 729.76 660.46 729.76 658.88 729.76 657.78 729.76 656.99 729.45 655.42 729.76 654.16 731.18 654.16 733.07 654.16 735.27 654.32 737 655.26 738.11 656.52 738.58 657.62 739.37 658.25 739.84 658.25 741.25 657.94 742.51 658.41 743.77 659.67 743.93 660.77 743.93 661.4 743.77 662.35 743.62 663.92 743.62 664.24 743.77 662.82 745.03 662.35 745.66 662.03 746.76 662.5 748.5 663.29 749.91 664.71 751.17 666.13 751.17 667.38 751.01 668.64 750.54 670.38 750.54 672.58 749.91 673.84 749.12 674.79 748.5 675.41 747.08 676.2 746.29 677.78 745.66 677.62 746.92 677.3 747.71 677.15 748.65 676.83 749.44 676.2 750.38 675.89 751.33 675.89 752.59 676.67 753.37 678.09 754 679.67 753.69 681.87 753.53 682.82 752.43 683.6 751.17 684.86 750.54 685.96 750.23 686.05 750.54 686.28 751.33 686.91 751.49 688.17 750.86 688.17 751.62 688.17 751.8 688.64 753.37 689.74 754.79 690.99 756.5 691 756.52 691 757.15 690.53 758.88 690.85 761.4 690.93 761.82 691 762.19 689.9 761.25 688.33 760.77 686.44 760.93 685.02 761.09 683.92 762.19 683.13 762.82 681.71 762.98 680.77 762.98 679.04 763.29 677.78 763.45 676.99 763.92 675.73 764.39 675.89 765.81 676.83 767.54 677.93 769.27 679.35 771.01 680.14 771.48 681.08 772.11 681.08 772.58 680.81 773.12 680.61 773.52 679.51 774.47 678.09 774.78 677.62 774.31 677.3 773.84 676.36 773.05 675.26 772.58 674 772.26 672.58 772.26 671.64 772.26 671.16 771.63 671.16 771.32 670.69 770.69 670.38 770.06 668.49 769.59 667.23 769.59 664.71 769.9 662.5 770.69 661.72 771.63 660.77 772.26 658.57 773.68 658.88 772.26 659.83 770.85 660.61 769.59 661.4 768.17 661.87 767.54 662.19 767.07 662.19 766.13 661.56 765.65 659.98 765.34 658.09 765.5 657.31 765.34 657.78 764.55 658.25 763.61 658.72 763.29 658.41 761.4 657.62 760.93 656.52 760.93 655.1 760.93 652.58 761.4 651.48 761.72 650.38 761.56 650.69 760.93 651.32 759.99 651.8 759.36 651.95 758.41 651.95 757.78 652.11 756.52 652.9 754.95 653.37 754 653.37 752.27 652.58 751.33 652.11 750.86 650.05 751 649.11 750.84 648.48 750.84 647.69 750.84 646.59 750.84 645.01 750.84 643.91 750.84 642.65 750.84 642.49 750.52 643.44 749.11 644.22 748 644.22 747.06 643.12 746.59 641.86 746.59 640.76 746.27 640.29 745.8 640.13 745.17 640.13 744.23 640.6 743.6 640.92 742.65 640.92 740.92 640.92 740.13 640.13 739.35 638.87 739.35 637.45 739.35 635.56 739.19 635.25 739.5 634.78 739.35 633.36 738.87 632.42 738.87 631.94 738.4 631.94 737.93 632.26 736.99 632.26 736.36 632.26 735.41 631.16 734.62 629.9 734.31 629.42 733.68 629.74 732.26 630.37 731.79 630.53 731 631.47 729.9 631.31 729.9 630.84 728.8 630.68 728.17 629.74 727.86 628.16 727.86 626.75 727.86 624.86 727.86 624.07 726.91 624.23 726.44 625.17 725.81 625.64 725.49 625.64 724.87 625.64 724.08 625.8 723.13 626.12 721.72 626.27 720.77 626.27 720.14 625.8 719.51 625.01 719.2 624.23 719.2 622.97 719.2 622.65 718.41 622.81 717.78 622.18 717.31 622.18 716.68 622.81 715.58 623.44 714.63 623.76 714.16 624.07 712.74 622.5 711.96 622.65 711.33 624.39 711.64 625.33 712.27 626.43 712.43 627.38 712.43 627.22 713.37 627.06 714.95 627.53 715.89 628.48 716.84 630.05 717.47 631.47 717.94 633.2 717.94 634.15 718.41 633.67 719.36 633.67 721.09 634.46 721.87 635.72 722.35 636.82 723.45 638.24 723.76 640.76 723.61 641.86 722.66 642.33 721.87 643.44 720.46 644.22 719.67 644.38 718.25 644.22 716.99 643.28 715.11 642.18 714.32 641.08 713.85 640.13 713.06 638.87 711.96 637.77 711.33 636.35 711.17 634.46 711.17 632.42 711.17 630.53 710.7 630.68 709.44 630.68 708.34 631.16 707.08 631 706.29 630.21 705.66 629.58 705.03 628.64 704.4 628.01 703.61 626.9 703.14 625.8 702.67 625.01 702.2 624.54 701.88 623.6 701.88 622.34 701.88 621.24 702.2 619.5 702.98 618.4 703.61 616.98 703.14 616.36 701.57 615.73 700.31 615.41 699.52 614.31 698.73 613.36 698.58 612.73 698.58 611.95 699.05 611.95 700.15 611.63 701.1 611.16 701.57 610.69 702.2 609.11 701.57 608.17 701.41 606.75 700.94 605.49 701.25 603.92 701.1 601.87 701.41 600.77 701.73 599.04 701.88 598.09 702.36 596.83 702.67 595.73 703.46 596.67 704.56 597.93 705.19 599.19 705.35 600.61 705.19 601.24 705.66 602.03 705.82 604.07 706.45 603.92 707.55 602.66 708.49 602.18 709.44 601.87 710.38 602.34 711.33 602.5 712.59 602.66 713.37 602.66 714.95 602.03 715.89 601.4 716.68 600.77 717.15 600.14 717.47 599.35 718.1 599.66 719.36 600.14 719.83 601.71 720.46 602.83 720.33 603.3 719.7 603.77 719.7 604.56 719.54 605.35 719.07 606.14 718.44 606.92 718.76 607.71 720.02 608.81 721.12 609.6 721.91 610.54 722.38 611.17 722.06 612.75 722.69 613.38 723.95 614.01 724.58 615.27 724.74 616.37 725.05 617.79 725.21 617.32 726.31 617 727.42 616.06 728.36 614.64 728.67 613.38 728.99 612.28 728.99 611.33 729.62 609.92 730.25 609.44 731.19 608.97 732.77 608.03 734.03 607.08 735.13 606.45 735.92 606.45 736.86 605.66 737.8 605.19 738.59 604.88 739.22 604.09 740.32 604.09 741.58 605.35 742.21 607.55 743.79 610.86 744.89 612.43 744.89 613.85 744.89 613.85 743.63 613.85 742.37 613.69 741.11 613.69 740.48 614.01 739.54 613.85 738.75 614.8 737.17 615.43 738.75 615.74 740.64 616.21 741.58 617.16 742.21 618.26 742.68 619.36 742.53 621.88 741.74 622.67 742.05 621.41 743.31 620.31 743.94 619.83 745.05 619.05 745.67 618.26 747.09 618.73 748.19 619.68 748.67 621.09 748.98 622.98 749.3 624.24 748.98 626.13 748.51 627.08 748.51 626.13 749.77 625.66 750.87 625.82 751.81 625.82 752.44 625.82 753.39 626.13 754.33 627.08 754.96 628.81 754.65 630.86 754.65 629.75 755.59 629.12 756.22 629.28 757.48 629.75 759.05 630.54 760.63 631.64 761.1 632.27 762.05 633.38 763.15 633.38 763.78 633.85 765.35 634.14 766.97 634.16 767.08 633.53 766.61 632.59 765.98 632.27 765.35 631.01 764.56 629.28 764.56 629.6 762.99 628.81 762.05 627.86 761.1 627.08 759.68 626.45 758.9 625.82 757.95 624.56 757.32 622.35 757.01 621.88 757.01 621.88 756.06 621.88 755.12 621.88 754.18 621.88 753.23 620.46 752.92 618.58 752.92 616.69 752.92 614.32 752.92 613.06 753.23 612.12 753.7 610.86 752.92 611.65 752.29 611.65 751.5 611.02 750.24 609.76 749.45 608.81 748.98 606.77 747.88 604.4 747.41 602.67 746.62 601.1 745.52 600.31 744.73 599.05 744.42 597.63 744.26 596.35 744.86 595.47 745.11 594.84 745.8 593.64 746.3 592.45 746.3 591.5 746.56 590.68 747.19 589.17 748.07 587.98 748.07 587.09 748.13 586.72 748.7 586.83 749.43 587.08 750.08 588.03 752.13 588.34 753.55 589.29 755.28 590.23 756.38 591.18 757.17 592.44 757.95 592.91 759.05 593.38 760.01 592.44 760.01 591.61 760.42 591.49 760.48 591.34 761.26 591.18 762.52 591.65 764.25 592.44 766.14 593.52 767.08 595.25 767.08 597.3 767.08 596.67 767.87 596.2 768.5 595.72 769.13 595.72 769.76 595.57 770.86 596.67 771.96 597.77 772.12 599.34 772.59 598.4 773.69 598.09 774.48 598.24 775.74 599.34 776.53 600.13 778.26 600.92 779.2 602.02 779.36 603.12 779.36 603.91 780.31 604.86 781.25 605.8 781.41 607.22 781.72 607.06 782.51 606.43 783.14 605.96 783.14 605.33 782.82 604.7 782.82 604.07 784.08 604.23 784.87 604.7 786.13 605.49 787.39 606.75 788.33 607.85 789.12 608.63 790.07 611 791.17 609.89 792.27 608.16 793.53 607.22 794 607.15 793.91 605.96 792.43 605.8 790.85 604.7 789.59 603.44 788.65 602.49 788.02 601.23 787.07 600.45 786.44 598.71 786.13 597.93 786.13 597.61 785.03 596.83 784.4 596.04 783.61 594.94 783.14 593.2 782.35 593.52 781.72 593.99 780.62 593.99 779.36 594.15 778.26 594.46 777.16 593.68 776.21 592.73 775.27 591.16 774.64 589.27 774.32 588.64 773.85 589.27 772.91 589.58 771.81 588.8 770.55 588.17 770.07 587.69 769.29 586.28 768.97 585.17 768.5 584.39 767.87 583.28 767.4 582.81 766.93 582.5 765.98 581.71 765.67 581.71 764.56 581.87 763.93 581.41 762.53 580.78 761.43 580.68 759.95 580.61 758.9 579.98 757.62 579.84 757.34 579.52 756.08 578.58 755.6 578.11 754.97 577.32 753.87 577.16 752.46 576.38 752.14 575.59 751.2 574.96 749.62 573.86 748.36 572.28 747.73 571.34 747.26 570.55 746.79 569.6 746.16 568.66 745.84 567.4 745.37 566.61 744.9 565.51 744.74 564.88 744.43 564.88 743.33 564.88 742.85 564.25 741.59 562.68 741.44 561.1 741.44 559.53 741.91 559.06 741.75 558.27 740.34 558.11 739.55 557.8 738.76 557.01 738.45 556.06 738.45 555.43 738.92 554.96 739.55 554.17 740.18 553.23 740.49 552.6 741.28 551.65 742.22 550.4 742.38 548.98 742.38 547.25 742.54 545.83 742.7 544.57 743.01 543.15 743.8 540.5 743.68 539.53 743.64 538.27 743.64 536.85 742.85 535.91 742.22 534.65 741.75 533.96 741 533.77 740.22 532.59 739.43 531.8 738.84 530.82 738.25 529.83 737.86 529.63 736.09 528.85 735.5 527.67 735.3 527.86 734.31 527.47 733.13 526.49 732.94 525.7 732.94 525.3 732.94 524.52 732.15 522.94 731.36 522.94 730.77 522.16 730.38 521.17 730.18 518.81 729.99 517.04 729.99 515.46 729.79 514.28 729.79 512.12 729.79 510.54 729.4 508.58 729.4 506.21 729.4 504.84 729 504.64 727.82 503.26 727.82 502.08 727.82 500.51 727.82 499.52 727.23 497.95 726.64 499.13 726.84 500.51 726.25 501.88 726.05 502.47 725.66 503.46 725.07 505.62 725.07 508.18 724.48 510.35 723.69 511.33 723.1 511.92 721.52 512.31 720.54 512.71 719.75 513.1 719.16 512.91 717.79 512.91 717 513.69 715.82 513.89 715.23 514.09 713.85 514.09 712.28 513.69 711.29 513.3 710.11 513.3 709.13 513.3 707.95 513.3 706.37 514.09 704.01 515.07 701.85 515.07 700.86 514.87 699.88 514.87 698.9 515.46 696.93 515.46 695.95 514.48 694.76 513.69 692.99 512.91 692.01 511.92 690.24 510.74 689.65 510.35 688.67 509.56 687.09 509.17 685.12 509.36 683.75 510.15 682.76 510.54 682.17 511.72 682.17 512.51 682.17 513.5 681.58 513.89 680.99 513.89 680.2 513.1 680.2 512.51 679.81 511.13 679.61 510.15 679.61 508.77 680.01 508.18 680.4 506.21 680.6 504.64 680.01 504.05 678.83 503.65 677.65 503.26 676.66 502.08 676.07 501.1 676.07 500.11 675.28 499.32 674.69 497.95 673.51 496.77 672.73 496.57 671.94 495.78 671.15 495.39 670.76 494.8 669.58 493.62 669.58 492.83 670.56 492.04 671.35 491.06 671.74 489.29 671.74 487.52 671.35 485.94 670.56 484.56 669.97 483.58 669.19 483.19 668.59 482.2 668.2 481.61 667.61 480.82 666.82 479.64 666.63 479.64 665.64 479.64 664.86 479.64 663.87 479.45 662.5 478.66 662.1 475.51 661.51 473.94 660.92 471.97 660.13 470 659.94 469.21 659.94 468.03 659.74 466.06 659.15 464.88 658.36 463.31 658.17 462.52 657.18 460.75 656.59 459.57 656 457.8 655.61 455.63 655.21 454.65 654.23 453.86 654.03 453.47 654.23 452.88 654.62 451.3 655.21 450.51 655.81 449.53 656 447.76 656.59 446.38 656.59 445.2 656.2 444.61 655.81 442.44 655.41 439.89 654.82 439.1 654.82 437.52 654.62 435.75 654.23 433.98 653.84 432.41 653.64 431.62 653.05 429.26 652.46 427.29 651.67 425.91 651.48 424.53 650.89 422.96 650.3 421.37 650.12 421.19 650.1 419.81 649.31 418.83 648.92 418.63 648.33 418.83 645.77 419.42 643.8 419.81 642.23 420.01 640.06 420.4 637.9 420.4 635.54 419.81 634.16 419.42 632.78 418.04 632.19 416.86 631.6 415.68 631.01 414.3 630.23 413.32 629.24 412.33 628.45 411.74 626.29 411.35 624.32 409.77 622.36 408.2 620.58 407.41 619.99 406.03 619.4 405.25 618.03 403.47 616.85 401.7 616.85 399.14 616.65 396.39 617.63 394.42 618.22 392.65 618.62 391.47 619.99 389.3 620.98 387.14 622.75 385.37 625.11 383.99 626.68 383.2 628.65 381.23 629.83 379.66 632.19 379.27 632.98 379.66 634.55 379.66 635.74 378.87 637.11 377.49 638.29 375.92 639.87 374.15 641.05 371.39 641.24 369.43 641.24 367.46 641.44 365.69 641.64 363.13 642.03 361.36 641.83 359.19 641.83 357.22 641.24 355.45 641.05 353.09 641.64 350.73 642.62 348.37 643.61 345.81 643.8 343.45 643.8 340.3 644.39 337.54 644.79 Z M 388.51 292.87 387.25 292.71 385.99 293.03 384.89 293.82 384.41 294.6 384.44 294.7 384.73 295.7 385.67 296.65 387.09 297.91 388.35 299.33 389.93 300.58 390.56 301.06 391.08 302.11 392.46 302.4 392.92 301.37 393.23 299.96 393.07 298.07 392.6 296.96 391.97 295.86 390.71 294.92 389.3 293.82 388.51 292.87 Z M 254.47 294.6 253.1 294.55 251.54 294.74 250.26 295.02 249.92 295.24 249.41 295.54 248.97 295.92 248.42 296.39 248 297.15 248.01 297.34 248.04 297.67 248.85 297.98 250.07 298.14 251.54 298.24 253.43 298.28 254.44 298.1 255.55 297.9 256.69 297.29 257.2 296.41 256.73 295.46 255.47 294.99 254.47 294.6 Z M 93.31 239 94.41 237.42 94.09 236.32 93.46 236.16 92.36 236.32 91.26 237.27 90 237.74 88.58 237.74 87.79 237.74 86.85 238.21 86.06 238.53 84.8 240.1 85.43 241.04 86.22 241.36 86.85 241.2 87.32 241.99 87.32 242.62 86.69 244.04 85.91 245.82 85.59 246.55 85.43 247.5 85.75 248.6 85.75 249.39 86.22 250.17 86.53 250.96 87.32 251.91 88.27 252.38 89.53 252.69 90.79 253.17 92.36 253.17 93.15 253.17 94.41 252.69 94.88 252.54 95.82 252.38 96.93 251.43 97.4 250.65 96.77 249.54 94.56 248.76 92.52 247.5 91.42 245.61 91.42 244.35 91.42 243.25 92.36 241.67 92.83 239.94 93.31 239 Z M 385.16 464.52 385.79 465.94 386.1 467.19 386.89 467.67 387.83 468.61 389.56 469.24 390.98 469.87 392.71 470.19 393.97 470.82 395.55 470.82 396.81 470.34 397.75 470.19 398.54 469.71 398.22 468.45 398.22 467.98 399.8 467.67 400.43 467.04 400.43 465.62 400.9 464.99 401.06 464.36 400.27 463.1 399.8 462.32 399.17 461.06 397.6 460.58 395.86 460.27 395.04 460.27 391.14 460.74 389.88 460.9 389.09 461.06 387.05 461.53 385.16 462.16 384.53 462.94 384.84 463.89 385.16 464.52 Z M 426.25 494.27 425.31 494.9 425.15 495.53 425.17 495.58 425.31 496 426.46 496.63 427.35 496.63 428.59 496.73 429.53 495.73 429.4 495.17 428.93 495.06 427.83 494.27 426.25 494.27 Z M 414.74 496.98 413.32 496.66 412.22 497.61 411.44 498.24 410.02 498.71 408.92 497.76 407.03 496.66 406.4 496.03 405.14 494.77 403.25 494.62 401.67 494.62 399.78 494.93 398.05 494.93 397.74 494.93 396.63 495.4 395.38 496.82 393.96 497.76 392.7 498.55 391.6 498.55 390.49 498.55 389.55 498.55 388.92 499.02 388.45 499.81 388.76 500.91 388.92 501.38 389.71 502.17 390.18 502.64 391.12 503.59 391.12 504.53 391.12 504.85 391.12 505.95 391.6 506.74 391.91 507.37 392.4 507.49 394.13 509.22 394.92 509.54 395.86 510.01 397.91 510.48 399.33 510.48 399.96 511.11 400.9 511.9 402.16 512.37 402.63 512.84 403.42 513.63 406.26 514.73 407.36 515.05 408.3 515.68 408.46 515.99 408.77 516.94 409.4 518.67 411.14 519.14 412.71 519.77 414.6 520.71 415.7 521.34 417.28 522.45 418.68 522.48 419.62 522.48 421.2 522.48 423.09 522.16 424.98 521.69 426.71 520.75 427.65 519.49 427.97 518.86 428.13 517.76 427.65 516.02 427.02 514.76 426.24 513.51 425.76 512.25 424.82 511.3 423.87 510.67 423.09 510.2 422.3 509.26 421.67 508.63 421.56 508.52 421.36 508.31 421.04 508 420.57 506.26 420.57 505.79 420.73 505.16 421.83 505.01 422.93 503.9 423.09 503.12 424.03 501.86 424.03 500.91 423.4 499.65 421.04 498.87 420.1 499.02 419.15 499.65 417.26 499.34 416.47 498.39 414.74 496.98 Z M 459.69 531.81 459.13 532.42 458.8 532.9 458.46 533.56 457.99 534.17 457.28 535.07 456.76 535.87 455.78 536.37 454.56 537.08 454.26 537.38 454.12 538.37 454.35 539.41 455.3 540.22 455.49 541.11 455.49 541.43 455.49 542.29 455.44 543.18 455.39 544.04 455.54 545.08 455.96 545.93 456.58 547.21 457.19 548.72 458.42 550.09 459.79 551.17 461.66 552 463.18 552.42 465.85 553.68 469.63 555.26 472.06 556.02 472.91 555.23 472.81 554.5 472.78 554.31 472.15 552.74 471.68 551.01 471.52 550.53 470.42 549.28 470.26 548.49 470.01 547.89 469.79 547.39 469.79 545.18 469.79 544.08 470.26 541.56 471.21 539.99 472.15 537.94 472.47 536.21 471.84 535.58 471.21 535.11 470.58 534.64 469.95 534.16 469.32 533.69 467.25 532.47 466.07 532.14 464.79 531.43 463.79 530.93 463.66 530.87 463.62 530.87 461.91 530.96 460.83 531.34 459.69 531.81 Z M 519.14 541.38 520.88 541.53 521.98 540.9 521.98 540.56 522.83 539.9 523.87 539.99 524.91 540.18 526.51 540.56 527.17 540.93 527.27 541.6 527.02 542.95 527.33 544.21 528.28 545.15 529.69 546.26 529.54 547.2 529.38 548.3 529.34 548.38 529 549.01 528.85 549.29 528.12 550.66 526.86 551.45 526.55 551.92 527.02 552.87 528.12 553.18 529.38 552.55 530.01 550.82 530.64 549.56 530.8 547.67 530.64 546.1 531.11 545.31 531.58 544.21 531.27 543.26 530.95 542.32 529.85 542.01 528.91 541.06 527.65 540.27 527.33 538.86 527.33 537.28 527.02 536.34 527.02 534.61 527.17 533.35 526.8 532.81 524.81 532.34 523.63 532.34 523.21 532.34 520.75 532.53 519.52 532.62 518.48 533.28 517.16 533.95 515.37 534.89 514.61 536.31 514.41 536.96 514.14 537.82 514.14 539.42 514.64 540.07 514.8 540.27 516 540.43 516.94 540.75 519.14 541.38 Z M 492.64 546.99 491.7 546.52 490.59 547.46 490.12 547.46 489.02 547.46 487.6 547.46 486.97 547.46 486.34 547.46 486.03 548.25 485.87 548.88 485.08 549.98 485.55 551.24 486.97 551.71 488.39 552.03 489.33 552.34 490.28 553.29 491.38 552.5 492.17 552.18 492.8 551.24 492.17 550.14 492.33 549.35 492.8 548.72 493.43 548.09 493.4 548.05 492.64 546.99 Z M 545.86 629.2 546.96 629.51 548.69 629.2 549.48 628.88 549.48 628.57 549.48 628.41 549.48 627.94 548.85 627.78 547.91 627.62 547.28 627.62 546.8 628.1 546.02 628.41 545.86 629.2 Z M 636.4 639.27 637.02 639.43 637.97 639.27 639.07 639.27 640.33 638.96 641.12 638.49 641.12 638.01 640.96 637.54 640.02 637.07 639.39 636.28 638.28 636.44 637.65 636.75 636.4 636.91 635.45 638.33 635.61 638.96 636.4 639.27 Z M 585.98 737.82 587.08 739.08 588.5 739.55 589.44 739.55 590.86 739.55 592.28 739.39 592.28 738.92 592.28 738.29 592.12 737.5 592.44 736.71 592.12 736.09 591.33 735.3 589.76 735.3 589.13 735.14 587.87 734.83 587.08 734.83 586.45 734.83 585.82 734.67 584.88 734.04 584.41 733.41 583.46 733.41 582.2 733.41 581.89 734.35 582.52 734.67 583.3 735.93 583.62 736.56 584.25 737.19 585.51 737.66 585.98 737.82 Z M 505.53 475.76 506.16 475.13 506.16 473.87 505.85 472.77 503.96 471.83 503.17 471.51 501.6 471.51 500.97 470.73 500.18 470.25 499.39 470.25 498.45 470.25 497.82 470.41 497.66 470.88 497.66 471.99 498.6 472.77 499.86 473.4 500.97 474.03 502.07 473.72 502.54 473.72 503.17 474.82 504.43 475.13 504.9 475.45 505.53 475.76 Z" fill-rule="evenodd"/>
</g>
</svg>