<?xml version="1.0"?>
<svg xmlns="http://www.w3.org/2000/svg" version="1.2" baseProfile="tiny" width="800" height="873" viewBox="0 0 800 873" stroke-linecap="round" stroke-linejoin="round">
<g id="blackbuttelake">
<path d="M 298.08 812.51 311.21 790.73 327.31 776.71 357.14 774.92 392.03 727.77 396.81 692.26 403.64 679.14 393.14 684.15 386.46 689.64 380.25 696.33 373.09 694.66 360.45 703.97 352.1 715.66 345.42 723.78 339.93 725.45 338.5 719.96 349.95 707.55 364.74 691.55 366.18 686.06 362.6 683.44 358.06 679.14 358.54 670.31 354.96 670.79 349.47 691.55 342.55 710.17 337.78 708.74 332.29 706.12 325.85 703.25 316.55 701.1 316.78 708.98 308.07 708.5 299.48 694.18 294.47 669.83 280.15 651.93 289.46 628.29 293.26 622.23 294.79 620.27 295.2 619.39 295.2 619.75 297.65 616.62 300.33 615.24 303.36 613.38 306.03 611.31 307.73 609.18 327.18 603.05 330.66 597.54 342.22 581.21 347.84 577.99 348.14 573.96 345.46 571.72 334.27 572.32 325.32 572.17 317.87 572.76 316.38 577.39 313.05 582.46 308.22 584.25 297.3 586.4 291.79 591.73 290.55 589.35 290.23 587.02 291.03 585.78 291.21 584.6 291.13 583.5 289.96 579.96 288.27 579.33 286.22 578.78 284.88 578.44 284.01 576.39 284.41 573.51 287.6 573.43 288.67 573.57 289.74 573.98 291.97 574.26 293.58 574.19 294.74 573.85 295.72 573.57 296.88 573.43 297.84 573.5 297.84 572.79 300.05 570.74 300.23 568.95 303.14 568.27 303.05 568.82 303.32 569.1 303.77 569.23 304.03 569.3 304.3 569.23 305.55 568.27 308.49 565.37 310.01 564.13 312.68 562.34 313.93 561.31 315.45 560.55 316.87 559.38 319.81 558.4 323.21 558.4 325.36 558.4 327.15 557.06 329.02 555.54 330.46 553.66 332.96 550.55 337.14 546.19 338.09 543.15 342.98 539.87 344.47 536.29 344.77 532.88 343.04 529.36 340.89 526.56 340.36 524.65 342.68 518.44 345.07 512.06 345.96 510.74 350.62 508.6 351.39 507.82 355.03 504.24 358.01 500.12 360.04 496.12 361.41 492.9 362.55 490.04 360.76 488.42 358.73 487.77 357.36 488.01 354.67 489.44 350.2 489.92 348.65 490.27 344 486.51 340.89 485.74 339.88 486.4 337.67 486.75 336.91 484.84 336.54 483.5 337.58 482.46 338.76 481.6 339.74 481.81 341.34 482.15 343.84 482.7 346.43 483.32 349.11 483.32 350.71 483.18 351.87 482.84 353.32 483.58 357.79 481.71 361.07 479.77 362.86 477.76 363.16 475.22 364.28 473.58 365.69 472.16 367.75 470.43 368.46 470.15 369 469.6 370.91 469.34 372.34 466.65 375.56 462.27 376.19 459.49 375.11 457.34 373.59 456.63 368.76 457.79 363.66 457.97 357.22 458.06 351.58 458.87 344.69 458.78 339.14 458.6 331.72 457.43 328.02 455.75 322.74 452.48 319.52 451 316.17 449.6 314.06 448.72 310.44 447.33 307.44 446.93 304 446.88 300.28 446.97 298.22 447.02 295.94 447.56 294.43 448.81 293.62 449.48 290.59 450.25 287.85 449.29 285.61 448.26 283.55 447.32 286.42 445.83 290.12 445.65 292.05 444.51 294.29 442.86 295.5 442.36 298 441.74 299.75 441.6 302.61 441.33 304.04 440.48 305.87 440.13 307.75 439.88 310.61 440.98 312.84 442.01 314 442.15 314.11 442.63 314.78 442.68 316.05 442.84 317.84 442.39 317.48 439.81 318.73 440.56 319.8 441.18 320.7 441.8 321.59 442.08 322.66 442.22 323.64 442.56 323.91 442.97 326.96 444.81 333.51 444.01 336.98 444.99 340.56 445.71 342.26 445.89 343.07 444.45 342.89 442.93 341.13 440.55 345.04 442.66 346.38 444.01 351.3 444.1 358.19 443.92 360.96 442.13 364.81 440.42 368.66 438.28 371.08 436.04 373.04 433.26 371.61 430.67 373.94 430.13 375.64 431.83 377.34 435.41 380.11 436.49 382.26 434.7 384.85 432.46 389.69 429.41 390.94 426.73 389.51 424.85 386.91 422.16 387.17 418.13 389.4 415.8 392.91 416.97 394.34 414.02 395.41 409.72 396.9 404.4 399.58 399.93 402.71 395.45 405.1 390.45 406.67 387.02 406.14 384.71 401.67 384.11 399.28 386.2 397.05 385.9 395.48 383.52 389.76 380.44 392.57 379.86 395.56 380.61 398.39 381.65 402.79 380.83 406.14 379.94 410.17 379.41 412.26 377.7 414.2 374.94 416.36 373 420.09 370.39 423.96 368.75 423.22 367.4 419.86 367.93 418.6 367.18 419.42 365.91 421.8 365.24 422.25 362.33 423.59 360.02 425.75 357.78 428.44 355.17 430.97 352.71 431.57 349.43 432.46 345.85 432.54 343.61 432.32 340.18 433.28 336.52 433.58 333.31 433.06 331.15 430 331.08 427.99 330.4 425.68 329.96 423.37 330.11 420.61 330.33 417.92 330.33 416.58 331.08 414.42 331.52 412.63 331.75 411.06 331.22 408.83 331.22 407.41 331.67 406.29 332.64 405.1 334.06 402.79 333.91 401.45 334.73 402.49 337.12 401.6 336.6 396.75 336.82 394.14 337.27 391.08 337.79 388.17 338.39 387.2 339.58 386.83 341.07 387.2 343.83 386.09 343.46 385.19 341.89 383.77 340.7 382.36 340.85 381.24 342.56 380.05 344.5 378.85 343.09 377.44 342.26 375.95 342.56 375.5 343.98 375.13 346.89 374.38 349.58 372.44 346.44 370.58 345.85 362 347.49 358.05 350.55 356.67 352.11 355.87 352.52 353.55 353.42 351.95 354.93 350.16 355.97 348.66 358.3 346.19 358.08 346.12 353.53 343.59 354.5 340.01 354.2 339.56 352.86 340.38 352.41 343.36 352.41 346.72 350.32 350.44 347.64 355.29 343.09 359.47 341.59 361.63 340.03 360.59 337.57 361.33 336.97 363.34 337.86 366.25 338.16 369.83 336 373.63 334.58 376.69 333.31 379.45 332.34 381.99 331.45 384.22 330.33 385.49 329.81 386.38 328.69 385.49 326.97 383.48 325.78 381.31 324.59 379.09 323.78 380.75 323.19 381.28 322.61 382.04 321 383.03 322.7 384.1 323.37 386.28 324.63 388.88 325.08 390.67 326.33 392.46 327.32 394.6 326.24 396.57 325.17 398.27 324.09 399.97 322.04 402.12 322.75 404.53 323.11 408.38 321.77 409.46 319.89 410.53 317.56 412.68 319.62 415.27 320.96 420.1 319.71 423.15 317.92 427.35 316.84 430.21 316.75 433.88 315.41 435.67 314.07 438.71 313.44 440.06 311.2 441.15 308.1 438.89 306.55 435.58 305.12 431.11 303.77 425.02 302.97 419.12 301.71 410.8 300.1 403.91 298.04 397.11 296.43 389.59 295.63 386.46 294.91 381.09 294.91 378.5 294.82 376.89 293.66 373.93 291.78 370.44 291.42 363.29 290.53 359.53 293.66 357.92 295.18 357.92 296.88 362.37 298.01 362.61 301.27 359.89 300.01 357.56 299.12 355.05 299.3 354.16 300.91 354.61 305.03 354.7 309.41 352.64 312.46 350.57 312.44 351.1 310.79 351.37 309.34 351.28 308.03 351.01 307.55 350.83 306.93 350.21 305.82 350.22 304.4 349.24 303.15 347.72 302.79 345.48 302.79 344.59 302.7 344.94 301.63 346.11 301.09 348.16 300.73 349.51 300.1 350.31 298.85 350.94 296.52 352.19 294.46 353.18 292.4 352.37 291.33 350.46 290.67 348.52 290.88 342.25 290.81 339.48 291.16 333.68 291.23 331.81 291.71 330.83 292.2 329.22 293.85 327.89 299.29 327.62 300.6 326.82 301.43 326.37 301.64 326.02 301.36 325.75 301.02 324.94 295.16 325.12 294.75 325.65 293.65 324.07 292.52 322.35 292.97 320.34 294.24 318.7 295.58 317.28 296.63 314.67 297.3 313.55 298.49 311.38 298.75 310.93 300.13 310.84 301.23 311.56 302.06 311.99 303.79 312.9 307.15 312.28 308.53 311.83 311.08 312.1 315.07 311.09 315.57 310.42 314.75 308.78 311.4 308.8 309.57 309.15 308.74 308.88 308.26 308.53 307.84 307.01 306.88 306.65 306.26 306.38 304.88 305.85 303.51 305.04 302.75 304.06 302.27 303.43 302.13 302.63 302.2 301.74 302.68 300.67 303.16 299.06 303.58 296.21 304.54 295.63 305.08 295.63 305.47 293.35 305.88 289.17 307.37 287.21 307.06 282.21 306.84 276.99 306.91 268.42 307.73 263.13 307.66 259.7 308.18 258.88 310.12 256.19 310.64 253.95 307.44 250.6 305.72 244.26 304.9 241.43 305.5 239.56 304.83 238.22 303.33 235.16 301.92 231.06 301.62 225.69 301.17 220.7 301.77 213.62 302.51 205.86 301.69 203.55 301.69 201.19 301.84 195.58 301.95 190.81 302.31 183.17 301.12 177.16 300.47 174.34 300.16 166.35 301.95 161.82 305.65 154.9 308.69 137.58 311.71 135.44 311.57 121.43 312.94 118.04 311.84 111.93 303.45 109.21 300.4 105.15 298.73 100.62 298.02 95.37 298.73 90.48 299.09 86.18 300.4 80.93 301.48 73.06 297.78 63.55 295.86 61.77 293.84 60.16 293.56 53.85 289.78 49.2 286.8 47.05 284.53 41.56 280.35 37.39 278.56 35.66 276.48 32.14 272.24 26.53 271.04 20.8 265.91 14.96 263.4 11.5 259.7 11.18 254.29 11.02 251.47 9.83 247.41 11.18 246.23 8.52 242.99 6.2 242.44 4.23 241.97 1 241.2 3.68 239.35 1 237.14 4.47 236.38 10.19 233.91 12.8 235.4 19.73 234.53 24.19 235.08 27.58 235.42 39.54 237.29 40.61 237.63 41.33 237.7 41.95 237.7 42.66 237.49 43.02 237.15 47.96 238.83 52.52 240.35 56.73 242.5 56.91 243.67 60.4 248.41 65.05 248.77 68.36 247.6 72.57 249.48 75.34 250.29 78.92 251.1 81.96 250.56 84.47 248.14 83.48 245.19 84.65 242.23 89.21 242.5 93.24 240.26 93.59 240.26 99.59 239.01 104.06 236.32 105.94 234.18 107.46 235.16 108.54 237.67 109.97 239.82 113.01 240.44 119.9 238.03 125 236.77 128.4 234.71 133.05 233.37 135.65 231.94 136.99 229.07 137.35 227.02 137.88 224.15 139.94 225.14 141.37 227.91 143.7 228.09 149.52 225.31 153.36 224.15 156.85 223.17 157.03 220.3 157.48 217.53 159 217.44 160.97 219.23 163.03 221.82 164.73 222.63 169.92 223.08 173.23 224.24 177.43 226.57 181.73 228.9 183.43 230.86 185.58 230.15 186.65 227.73 186.28 227.57 183.96 222.99 181.91 216.63 177.79 212.78 174.39 209.47 171.98 207.5 170.1 204.9 168.58 200.7 166.16 197.03 162.49 194.34 160.52 192.91 158.11 189.96 156.67 188.61 153.65 188.22 153.92 186.71 154.28 185.06 153.24 183.59 153.3 181.2 151.78 177.96 150.72 175.83 149.91 174.79 148.93 173.35 148.31 172.79 147.32 172.38 145.99 172.04 144.74 171.76 144.47 171.35 144.47 170.86 144.74 170.52 145.81 169.9 146.35 169.56 146.52 168.73 150.53 170.1 152.29 170.85 156.38 172.61 158.07 173.83 160.94 178.84 165.54 183.9 170.7 188.3 179.65 191.95 183.31 194.56 186.66 197.03 191.06 199.71 194.49 201.95 197.47 203.52 201.13 205.75 204.18 207.32 208.06 209.56 210.07 211.27 213.13 213.96 215.29 214.93 217.9 215 219.92 214.78 221.85 211.87 223.12 210.53 226.03 209.26 229.31 207.54 233.49 205.01 235.72 203.22 231.92 199.34 231.1 197.03 231.04 195.13 231.34 192.14 228.95 189.7 227.4 188.8 226.4 188.05 225.33 186.47 226.07 184.28 223.37 183.23 223.02 182.2 222.75 180.54 223.45 179.08 224.92 179.62 228.19 179.48 230.87 180.83 232.04 183.15 233.06 185.17 235.12 185.84 237.05 186.65 238.79 187.68 239.6 188.35 239.69 190 239.42 191.75 239.42 192.96 241.21 194.21 244.29 194.66 252.62 194.48 261.52 192.42 263.98 190.99 266.57 189.69 269.35 189.6 261.83 185.66 264.25 184.72 267.42 184.99 271.23 184.9 276.82 186.47 279.59 187.76 284.74 187.99 293.15 189.38 299.14 190.36 302.68 190.67 305.27 190.76 310.21 190.48 314.09 189.6 315.96 187.9 316.19 185.93 314.89 184.32 313.15 182.42 311.27 180.01 310.86 176.44 311.98 175.67 313.24 178.32 314.09 179.71 316.05 179.89 317.44 181.01 319.59 182.71 321.2 184.27 322.23 185.44 321.24 186.78 321.02 188.21 324.6 189.38 326.97 190.14 329.52 190.41 333.77 190.5 336.36 190.14 338.78 190.14 342.27 189.91 346.12 190.63 350.19 191.12 354.13 190.85 358.02 191.39 361.51 192.33 364.46 193.23 368.89 193.72 371.55 193.24 373.85 194.48 375.73 195.73 378.6 195.78 380.7 195.51 381.95 193.54 383.13 190.75 383.43 188.57 384.17 187.17 385.04 186.6 386.53 184.59 387.33 182.86 389.95 179.71 390.27 177.28 390.8 175.22 390.53 173.56 390.73 170.25 390.73 167.05 391.1 165.33 390.13 163.69 388.79 162.05 387.75 160.11 387.22 157.5 390.58 160.18 392.82 163.02 396.2 168.4 395.72 171 397.66 173.54 397.44 175.7 396.62 179.43 396.69 185.1 397.14 187.49 398.02 190.2 399.21 193.66 400.17 196.53 404.7 194.62 409.95 194.26 413.05 195.1 416.04 193.19 419.91 191.63 425.34 192.65 431.54 192.71 439.12 190.86 444.6 187.37 449.79 182.18 453.26 179.8 452.59 175.25 453.19 173.16 454.9 176.07 457.73 178.39 458.85 186.37 464.3 187.56 473.54 185.55 489.27 183.09 495.91 179.43 500.16 176.45 500.76 170.55 499.41 166.67 497.7 163.54 494.34 161.68 490.91 160.18 487.71 158.84 483.91 156.75 481.52 155.04 476.15 153.17 474.96 150.04 473.91 147.5 473.02 145.49 470.67 143.98 469.33 143.16 467.28 142.81 462.74 141.27 460.13 141.57 458.04 142.91 456.26 143.36 453.06 141.83 451.41 140.83 450.89 139.33 450.03 138.64 448.65 137.39 444.92 137.39 440.94 138.9 441.19 136.2 440 134.41 437.32 133.07 432.62 131.5 427.9 129.7 425.49 129.16 423.65 129.48 422.37 130.78 421.75 131.47 421.48 131.81 420.94 132.02 420.58 131.95 420.14 131.74 420.7 129.43 420.3 127.55 419.22 126.61 417.7 125.58 416 125.81 413.88 126.37 414.21 124.28 413.27 122.05 411.71 120.57 410.37 120.39 407.95 119.76 406.29 118.29 404.95 117.57 403.88 117.03 402.27 116.68 401.19 116.63 400.48 114.93 398.96 112.6 396.27 110.86 394.21 110.5 393.01 109.38 391.89 108.39 388.69 106.34 386.21 103.78 384.78 101.9 382.45 102.44 379.85 103.38 376.63 105.22 377.18 103.73 379.72 101.77 380.93 101.32 381.91 100.56 381.51 99.67 379.14 98.95 378.06 98.43 376.9 97.46 375.92 96.13 375.47 94.83 375.2 93.13 374.17 90.27 373.46 88.39 372.96 85.7 371.4 84.67 369.97 84.18 368.45 84.63 366.7 84.94 365.18 85.03 364.91 87.09 364.22 87.96 362.34 88.72 360.65 89.62 356.54 88.52 356.18 87.42 356.5 86.24 358.38 85.3 359.72 85.43 360.75 84.85 361.02 83.96 360.48 83.42 359.41 83.29 358.2 83.55 356.14 84.23 353.73 84.72 349.92 83.42 353.5 82.66 354.93 82.46 355.82 81.91 358.32 80.61 359.96 79.72 356.35 77.77 355.64 75.36 354.83 73.44 354.03 71.92 352.86 71.09 351.61 69.92 350.01 69.03 348.4 68.34 347.42 68 345.9 67.52 344.74 66.97 343.93 66.62 342.06 66.62 340.54 66.9 339.2 67.24 337.95 67.52 337.24 67.52 336.61 67.18 336.08 66.49 335.63 66.21 335.36 66.01 335.45 65.8 335.9 65.46 336.79 65.32 337.59 65.04 338.13 64.63 338.4 64.35 338.93 63.52 339.29 63.18 339.73 63.18 340.45 63.18 341.25 62.9 341.79 62.7 342.59 62.7 343.39 62.9 344.56 63.73 345.45 64.35 346.34 64.69 347.95 64.76 349.38 64.42 350.54 63.59 352.21 63.16 354.37 64.2 357.58 65.17 356.24 67.11 357.28 67.86 360.41 67.64 362.42 68.46 362.57 70.25 362.13 71.96 363.92 72.11 364.81 69.43 364.89 66.89 362.72 65.17 361.23 64.43 360.41 63.01 357.8 62.94 355.04 62.26 352.28 61.07 348.33 58.09 347.67 55.46 345.53 52.43 344.55 51.74 343.65 51.26 342.94 51.26 342.67 51.26 342.4 51.13 342.31 50.71 342.58 49.89 343.11 48.85 343.56 47.75 344 46.24 343.82 44.51 342.93 43.27 341.86 42.38 339.72 41.28 337.66 40.87 335.87 40.59 333.38 40.18 332.04 39.7 330.61 38.94 329.45 38.46 327.75 37.22 325.6 36.05 324.35 35.5 323.28 35.23 322.93 34.47 322.66 33.78 322.39 32.54 322.66 32.4 323.82 32.47 325.51 32.81 328.91 33.98 331.76 35.29 334.35 36.67 336.68 37.49 338.02 37.49 339.89 36.87 340.87 35.77 341.14 34.67 343.35 33.88 344.62 33.42 345.42 34.18 346.85 35.14 348.1 36.38 349.76 39.53 354.68 42.22 359.68 42.96 367.36 43.26 371.53 44.3 375.86 48.18 379.06 50.57 386.15 54.82 388.98 56.61 394.57 57.36 398.97 55.27 402.1 51.39 406.28 54.6 398.75 66.73 398.22 67.9 397.68 68.73 396.61 69.7 395.72 70.25 395.09 70.94 393.66 71.21 392.15 71.69 390.54 72.66 390.27 73.9 390.18 74.45 389.5 75.34 391.07 78.77 393.08 81.3 397.93 84.29 400.91 86.29 402.25 88.43 403.95 89.67 405.55 91.11 406.98 92.49 407.1 93.99 409.49 95.63 411.35 96.67 413.44 94.88 414.4 92.69 415.11 91.59 415.38 91.04 415.64 90.83 416.36 90.97 416.8 91.66 416.42 95.11 415.82 97.19 415.82 100.55 416.94 102.27 420.22 103.39 422.76 104.13 425.07 104.28 427.46 102.57 428.87 100.63 429.04 99.09 430.47 97.3 430.82 96.96 431.27 97.02 431.18 97.64 430.92 98.82 431.27 100.74 431.1 102.53 430.22 105.25 430.36 106.37 431.93 107.26 435.81 108.09 437.37 107.12 438.06 105.77 438.69 104.94 439.22 103.36 439.31 102.39 439.67 102.05 440.02 102.32 440.92 103.29 441.81 105.84 442 109.08 442.67 110.35 445.13 111.1 447.89 111.32 450.38 110.52 450.27 112.89 453.03 113.78 455.34 114.16 458.03 115.13 466.68 115.65 468.02 114.46 468.99 111.1 466.83 106.7 464.81 103.56 464.81 100.43 463.84 98.57 462.28 97.82 460.26 97.15 460.49 94.84 458.85 92.54 458.05 91.85 456.17 91.36 455.01 91.16 453.67 90.75 452.78 90.13 453.93 87.97 454.15 85.96 452.73 84.92 449.53 84.09 446.32 83.5 441.1 83.42 441.62 82.56 443.67 82 445.19 81.31 446.17 80.21 446.43 79.04 446.16 77.87 445.18 76.7 444.2 75.8 442.77 75.18 441.7 74.84 441.52 74.57 441.61 74.08 441.7 73.74 441.88 72.98 441.79 71.95 440.62 69.88 439.19 68.37 438.12 67.2 436.81 65.24 435.54 63 433.23 60.76 430.92 58.3 430.48 57.89 429.5 53.82 428.75 50.09 427.34 46.89 430.25 48.23 430.99 51.51 432.41 55.54 433.97 58.45 435.84 60.01 437.24 61.15 438.43 61.48 439.45 60.58 440.8 59.07 441.44 59.03 440.97 60.79 439.54 62.52 439.27 63.3 439.71 64.55 443.23 67.18 445.05 68.55 445.74 69.98 447.23 71.32 449.77 72.43 450.84 73.11 451.76 74.28 453.29 75.68 454.66 76.25 456.7 77.59 459.56 79.52 462.35 82.66 464.56 84.81 467.27 86.66 470.61 88.27 472.76 89.76 473.72 89.7 474.07 88.09 474.19 86.27 474.31 84.63 473.45 83.14 473.15 81.95 473.86 79.89 474.79 78.43 475.27 76.19 475.03 74.37 474.07 72.49 473.15 70.97 471.81 69.83 470.85 68.85 470.88 67.95 472.19 67.41 472.88 65.83 472.43 59.12 472.34 56.05 471.18 54.11 470.7 52.67 470.58 51.15 469.89 50.32 469.71 49.28 469 47.14 468.82 45.35 468.19 43.84 467.03 42.05 466.76 40.67 466.4 38.6 465.51 37.16 465.15 35.43 464.52 33.78 463.36 32.61 462.02 32.27 460.86 31.99 460.42 31.72 460.24 31.37 460.42 31.03 461.31 30.41 462.56 29.31 463.36 28.55 463.54 27.51 463.45 26.14 462.64 24.07 461.66 22.14 459.78 20.28 458.35 19.18 457.01 18.91 455.68 18.22 454.69 17.94 454.6 17.6 454.87 17.12 455.76 16.7 456.48 15.95 456.65 15.05 456.39 14.36 455.4 13.12 455.22 11.54 454.87 10.71 455.04 10.23 455.4 9.82 455.94 9.26 456.02 8.58 455.67 7.41 454.86 6.44 453.88 5.41 453.61 4.58 453.52 4.24 453.7 4.1 453.79 4.1 454.59 3.76 455.22 2.86 455.4 1.83 455.66 1.14 455.84 1 456.38 1 456.91 1.21 457 1.76 456.73 2.52 456.47 3.41 456.47 4.58 457.27 6.37 458.43 7.68 458.88 8.44 459.78 11.19 460.49 13.12 462.37 15.87 464.25 18.21 466.66 20.76 467.82 22.42 468.72 24.55 469.16 25.93 469.25 29.71 469.61 30.96 470.51 32.33 472.29 36.19 471.96 38.67 472.45 40.46 474.24 42.25 475.22 43.5 476.92 44.35 477.86 44.17 479.96 42.38 481.44 40.55 482.83 39.47 482.69 38.35 482.48 36.94 481.14 34.85 480.72 34.08 480.45 32.65 479.86 31.3 479.77 28.29 480.9 30.5 481.23 31.21 481.56 32.44 482.39 33.45 483.14 34.76 484.75 36.11 485.97 35.27 487.65 34.81 488.54 34.05 490.06 32.94 491.77 32.28 493.52 30.68 493.52 31.53 492.17 33.48 488.39 36.38 487.19 38.64 485.78 42.04 483.65 43.92 481.8 47.45 480.61 49.59 480.58 51.71 480.73 53.8 480.64 55.78 481.3 56.84 482.28 57.05 483.36 57.14 485.59 56.52 487.41 55.14 488.49 54.64 489.07 53.76 491.32 51.88 493.55 50.64 496 50.1 491.44 53.8 488.31 56.99 486.96 58.58 484.37 59.98 483.24 60.6 482.58 61.74 482.07 63.41 482.46 65.32 484.19 67.86 485.53 68.9 486.58 69.26 489.68 68.57 494.57 66.78 498.15 65.56 502.74 62.42 505.55 60.51 508.17 59.32 511.69 57.38 513.6 56.43 515.66 55.53 518.04 54.88 520.16 54.52 519.33 55.93 515.98 57.45 511.73 60.22 506.08 63.8 503.04 66.54 498.51 69.14 495.73 71.02 494.12 72.1 493.32 73.26 495.47 75.14 496.09 77.11 495.71 78.68 493.89 76.9 492.42 76.21 490.81 75.14 489.47 75.14 488.58 75.77 488.37 76.78 487.92 79.32 487.53 82.12 487.38 84.18 487.65 86.15 489.38 87.82 492.78 89.31 496.33 91.7 497.49 93.37 496.63 94.24 493.38 93.49 491.26 93.01 489.05 93.19 488.7 94.41 489.98 98.71 491.44 101.19 493.5 102.29 495.68 101.19 497.61 98.86 499.52 98.05 502.18 99.04 504.57 99.27 506.08 99.4 507.33 99.47 508.76 99.4 509.83 99.2 510.46 98.64 511.26 96.21 511.5 94.85 512 93.9 512.33 92.72 512.98 92.28 513.36 91.58 512.86 90.51 512.57 89.24 512.47 88.62 512.86 87.6 513.57 85.83 514.64 85.35 515.18 84.73 516.1 83.68 516.17 81.75 515.12 80.36 513.84 79.91 512.41 78.81 512.14 77.91 512.32 77.02 513.21 76.12 515.44 74.95 516.89 76.45 517.87 77.43 519.44 78.14 520.94 78.14 521.6 77.77 522.5 77.49 523.48 76.74 524.73 75.29 526.55 73.77 528.29 71.72 529.22 69.31 530.11 68.43 530.15 66.57 529.82 65.63 530.11 65.23 531.75 65.54 533.56 64.47 534.86 63.73 535.6 63.25 535.95 62.56 536.17 62.17 536.53 61.67 536.95 61.65 537.22 61.3 537.48 61.17 538.2 61.16 538.96 60.38 539.46 59.79 540.37 59.55 541.14 59.65 544.63 57.99 545.7 57.72 548.1 55.86 550.82 55.63 552.27 54.77 552.46 53.25 553.28 51.93 554.33 51.48 554.68 50.5 555.15 48.55 555.49 47.42 556.93 46.08 558.54 44.97 559.7 43.11 561.22 41.25 561.58 40.29 563.17 38.46 564.07 36.08 565.23 34.36 565.13 36.23 565.07 38.7 564 40.82 562.36 44.52 564 46.4 563.97 48.25 563.23 48.52 561.32 48.91 558.01 49.06 557.08 50.25 557.23 52.33 557.11 54.09 555.62 55.97 554.6 56.96 552.52 58.24 551.11 59.43 550.13 60.92 545.54 64.98 545.75 68.03 546.22 68.89 544.94 68.44 543.06 67.04 541.42 66.53 539.72 67.97 538.38 70.5 536.08 74.11 534.2 76.65 533.43 78.8 535.43 80.71 536.5 80.95 535.51 81.93 532.69 82.2 531.89 83.77 531.53 86.41 533.59 87.88 535.51 88.64 532.42 88.69 530.41 88.91 528.49 89.72 527.99 91.15 527.99 94.96 527.81 97.42 528.35 100.15 530.86 101.8 533.41 102.34 535.24 102.47 534.7 103.59 535.24 104.76 533.27 104.49 531.71 104.85 529.34 106.32 526.96 108.2 526.29 109.9 527.64 112.14 527.28 114.2 526.61 116.35 527.72 117.96 530.95 119.3 533.81 120.24 535.47 119.78 534.35 122.08 535.64 124.45 534.12 125.75 532.02 126.82 529.74 127.54 528.57 128.17 527.77 129.2 527.64 130.67 527.86 133.04 530.63 134.92 531.97 136 534.57 138.37 535.55 139.53 535.87 141.91 537.7 144.23 539.62 148.67 540.34 150.68 541.86 152.6 544.95 154.66 547.05 155.87 549.06 158.07 549.87 159.17 551.12 160.07 552.81 161.1 554.24 162.54 555.94 164.2 557.72 165.44 560.14 166.54 561.39 166.95 566.48 168.46 568.26 169.63 571.12 171.35 572.99 172.32 576.12 173.35 578.89 174.11 585.58 175.28 588.97 175.41 591.47 175.34 599.86 171.78 605.94 170.88 610.49 171.34 618.09 172.36 621.75 169.79 628.46 169.38 632.11 168.56 634.65 166.91 636.58 165.05 637.78 162.66 637.93 159.38 637.63 157.14 636.96 154.9 636.58 152.59 636.51 148.19 636.26 144.33 636.12 141.37 636.84 139.72 638.45 138.06 638.31 135.87 638.31 134.26 639.66 133.72 641.04 131.66 641.13 130.54 643.33 128.08 643.46 126.65 643.33 123.38 643.46 118.59 643.86 115.55 642.25 112.55 643.24 110.53 644.76 108.88 646.95 106.19 647.53 103.87 649.28 101.9 654.11 100.64 660.5 97.64 666.23 94.29 667.62 92.94 673.66 90.44 677.66 87.57 678.64 86.95 679.45 86.33 681.23 84.4 681.5 83.71 684.57 81.44 687.39 79.96 691.42 78.22 693.41 77.45 699.47 75.35 704.53 74.5 707.61 73.74 709.53 72.68 710.96 72.48 713.37 71.99 718.8 72.18 721.71 72.09 727.16 72.58 732.31 74.1 737.1 74.5 738.28 74.05 738.81 73.78 740.15 72.61 746.4 63.58 753 56.9 755.5 55.25 756.75 54.83 758.97 56.26 760.5 57.24 758.36 59.24 753.45 63.58 752.47 65.23 749.52 68.2 747.56 70.81 746.85 72.05 746.67 73.09 747.03 74.26 747.74 74.95 748.54 74.95 749.62 74.74 751.04 74.39 752.29 74.12 754.08 72.88 755.33 72.19 756.31 71.98 758.28 72.05 759.35 71.84 759.97 71.91 760.6 72.46 761.22 73.5 762.56 76.66 765.87 82.79 770.96 89.68 772.83 91.88 776.58 96.29 783.46 102.83 790.78 108.76 794.71 111.85 797.66 113.78 798.29 114.82 798.55 115.85 799 117.29 799 119.57 798.64 121.01 797.93 122.19 794.54 125.42 792.04 128.8 790.97 131.83 791.06 135.55 790.88 135.89 788.03 136.86 787.4 137 786.51 137.55 784.81 139.06 784.37 139.54 783.74 139.89 783.03 140.16 781.87 139.96 780.62 139.61 779.99 139.54 779.37 139.54 778.83 140.1 777.94 140.37 776.15 140.58 774.64 140.92 773.48 141.47 772.05 141.75 769.28 142.85 767.23 144.02 765.98 144.92 765.09 145.88 765 147.19 765.09 148.5 766.16 150.02 766.87 151.67 767.32 154.49 771.16 162.76 771.52 166.06 771.08 169.09 770.18 171.85 764.83 178.88 764.3 180.67 762.6 184.11 761.89 184.87 759.48 185.97 759.03 186.25 757.34 188.31 754.93 189.35 754.3 189.55 752.78 190.11 751.98 190.38 750.46 191.96 749.66 192.38 747.16 193.14 745.38 193.62 741.63 195.07 740.56 195.96 739.84 197.13 738.51 202.58 736.54 206.57 732.98 211.74 729.68 218.21 729.14 219.52 727.18 224.14 726.73 228.54 727.36 229.92 727.09 232.47 726.83 235.09 725.93 236.67 724.95 237.64 724.33 238.12 724.15 238.46 724.18 240.38 723.53 242.11 722.75 243.78 722.75 245.15 724.36 246.94 725.38 249.09 725.02 250.88 722.81 253.15 720.54 255.36 718.75 257.21 717.38 258.52 711.48 260.31 709.03 260.25 707.6 260.13 705.59 259.89 698.59 257.15 698.47 256.37 698.83 254.58 698.24 252.85 697.1 251.36 695.79 249.57 694.48 248.67 692.93 247.42 690.6 246.17 687.98 244.61 685.83 242.35 683.68 238.59 682.49 233.51 682.37 231.01 681.35 225.76 681.29 224.56 680.04 223.37 677.89 222.77 675.75 222.95 675.67 223.74 674.51 224.08 671.48 225.74 669.1 228 665.67 228.56 662.21 227.9 658.93 226.83 655.05 225.16 652.01 224.74 647.53 224.98 644.37 225.52 642.56 226.36 640.95 226.71 639.44 227.54 637.47 228.91 636.58 229.39 635.87 229.67 634.8 229.74 630.87 230.71 629.53 231.53 628.55 232.01 627.03 233.26 625.16 235.46 624.27 236.84 622.93 238.15 621.59 239.32 620.34 240.49 618.82 241.25 615.74 242.58 613.53 243.72 609.54 246.49 608.29 247.24 607.13 248.35 602.23 257.78 596.44 266.53 593.61 271.17 592 275.71 592.3 280.12 592.3 283.88 594.44 288.18 597.6 296.06 599.22 301.37 599.04 303.93 597.84 309.66 597.25 313.9 597.43 315.87 599.1 317.54 603.51 319.87 605.66 321.9 605.72 324.28 603.75 325.06 601.36 324.7 598.5 325.3 596.89 326.43 592.3 327.51 589.85 328.46 588.96 330.61 589.49 331.56 593.07 333.24 595.76 335.09 597.72 339.08 599.87 344.16 600.77 348.21 599.45 354.12 600.05 356.45 598.92 359.73 598.08 365.34 597.96 369.16 597.07 371.25 597.43 372.98 599.75 375.19 600.77 377.58 600.23 379.96 600.23 384.38 601.24 387.18 603.09 389.45 603.99 391.36 604.7 395.06 605.06 396.31 605.96 398.05 605.42 399.24 604.76 400.79 605.06 403.12 604.52 404.49 604.82 405.03 604.35 405.98 605.78 406.88 603.99 407.89 601 409.74 599.1 411.59 599.1 413.8 599.93 417.62 600.65 420.31 601.78 426.27 600.94 429.14 602.02 432 603.21 437.49 604.4 442.21 606.02 446.15 607.87 448.16 611.18 452.91 613.23 457.38 613.68 459.93 613.86 460.96 614.13 462.14 614.22 462.75 614.84 463.44 616.9 465.83 617.43 467.92 616.45 469.3 616.36 470.4 616.45 471.36 616.9 472.46 616.9 474.12 616.37 476.25 615.92 477.56 615.92 478.73 616.46 479.7 617.7 480.87 616.91 481.08 616.2 481.98 616.33 483.01 617.08 484.31 615.71 486.99 614.23 489.68 614.81 490.89 614.01 492.95 611.73 494.37 610.57 494.65 610.22 495.13 610.22 495.95 610.66 496.57 611.83 497.26 613.34 497.61 615.22 498.02 616.82 498.36 617.81 498.71 619.41 499.46 620.93 500.43 620.18 501.43 616.24 499.78 614.19 499.87 612.32 500.39 609.6 501.19 608.26 501.47 607.1 501.88 606.38 502.57 606.39 503.67 607.28 504.15 608.37 505.51 610.47 506.4 612.57 506.72 614.68 507.48 615.48 508.15 616.65 509.85 612.26 508.78 610.11 508.6 609.13 509.22 608.5 510.07 608.35 511.11 607.61 511.59 607.03 512.49 605.28 513.16 603.54 515.4 604.25 516.83 603.9 519.79 603.45 522.4 602.92 524.61 602.65 525.3 602.47 526.61 602.56 527.43 603.63 528.74 603.77 530.84 605.86 532.33 608.36 532.25 610.3 530.87 611.3 534.23 607.32 533.82 603.1 533.82 601.76 534.45 599.56 534.79 598.52 534.49 596.99 534.98 595.61 537.08 595.07 538.18 594 539.7 593.2 540.73 592.93 541.55 591.92 542.25 591.47 543.07 593.22 545.42 594.64 548.14 595.24 548.93 597.03 548.78 598.7 547.77 602.77 548.74 604.48 548.22 606.42 548.14 612.53 548.74 611.23 550.31 607.65 551.84 601.49 552.94 599.79 553.25 599.03 554.73 599.21 556.25 600.06 558.22 601.72 559.83 602.88 561 604.22 562.52 606.55 565.7 607.71 567.53 608.47 570.08 610.57 572.54 611.78 573.04 615.14 572.59 617.2 572.81 615.81 573.98 614.64 574.78 613.06 575.81 613.3 578.91 614.05 584.09 615.86 585.56 614.11 586.74 609.95 585.4 607.98 583.87 607.56 581.65 607.81 579.31 606.02 575.65 603.57 572.55 601.3 569.98 600.89 567.72 598.38 565.57 597.37 563.24 596.29 561.93 594.27 560.92 590 560.64 588.12 559.05 586.43 558.16 585 556.99 583.3 555.89 581.88 555.34 580.18 556.26 578.13 557.61 577.42 558.53 576.64 560.32 576.45 561.89 576.35 563.33 577.12 565.32 577.94 566.96 578.57 567.89 579.83 569.46 580.82 570.69 582.6 571.73 583.23 572.07 583.58 573.24 584.48 574.96 585.19 576 586.53 577.3 587.6 577.85 588.4 578.27 588.4 578.89 588.05 580.13 587.87 582.81 588.41 584.95 589.39 585.98 590.19 586.46 590.37 587.08 590.1 587.98 590.11 590.53 589.93 593.83 589.22 597.97 588.68 599.21 588.06 600.58 586.37 604.03 583.16 608.92 580.66 612.09 579.59 613.4 577.54 615.12 576.02 616.02 575.67 616.84 575.67 617.81 576.02 618.63 574.43 619.85 574.61 622.26 572.86 622.98 570.45 622.58 568.25 622.58 565.12 624.68 562.75 626.92 561.36 628.44 560.95 629.52 560.24 630.14 559.53 633.17 559.17 633.52 558.64 633.72 557.48 634 556.76 634.34 556.32 634.83 555.6 636.84 553.4 639.9 549.82 642.4 548.83 643.44 547.73 644.53 548.4 645.52 549.12 646.68 550.55 647.35 552.34 648.79 553.41 649.95 555.78 651.83 558.29 652.9 559.36 653.8 559.72 653.84 561.42 655.9 561.77 657.14 562.76 658.45 565.16 659.69 566.41 660.45 569.83 665.97 568.06 665.8 564.12 663.08 562 661.61 558.56 658.41 558.06 657.07 556.81 656.04 555.07 654.69 552.16 653.71 549.52 652.1 547.24 651.11 545.31 651.02 545.13 651.87 544.46 652.26 543.75 652.39 543.3 652.81 542.95 653.22 539.03 660.04 538.04 662.45 536.71 664.24 535.91 665.55 535.46 666.59 535.19 667.83 535.28 668.38 535.73 668.79 536.31 670.61 541.94 673.78 542.84 674.99 544.85 675.17 547.27 677.1 553.75 680.27 555.14 681.13 556.84 682.42 558.41 683.32 559.48 685.24 557.74 684.8 556.26 683.5 553.44 682.42 550.04 680.77 548.21 679.83 546.19 679.07 544.14 678.26 541.94 677.32 539.3 676.16 534.57 676.09 533.41 675.95 532.43 676.02 531.54 676.37 531.18 676.85 530.65 680.85 531.01 684.63 531.01 686.98 531.19 688.28 527.82 690.32 526.81 696.35 525.8 697.9 525.58 698.82 524.72 701.36 523.41 703.81 521.57 704.82 519.29 708.64 516.13 709.64 514.26 711.71 512.2 713.36 511.05 714.26 508.46 716.33 506.68 718.19 505.43 719.43 505.34 720.05 502.62 724 500.62 724.94 498.59 726.37 495.78 730.49 494.17 732.05 491.3 735.41 488.62 738.63 485.93 740.83 484.91 741.63 484.37 742.04 483.32 742.51 479.4 746.44 475.6 748.79 473.81 753.36 461.6 768.67 453.5 774.86 447.78 776.3 442.53 774.86 427.02 768.42 423.92 756.24 423.92 746.22 422.01 739.77 423.2 735.24 427.02 719.48 434.89 705.16 433.22 684.39 427.97 692.75 422.49 706.12 413.18 720.44 407.93 732.37 398.86 736.19 393.14 746.46 392.42 753.38 378.82 774.39 365.22 783.46 345.51 794.91 331.49 799.09 322.84 811.32 303.98 844.42 307.06 864.98 302.59 872 300.9 871.22 295.87 865.81 283.89 851.19 298.08 812.51 Z M 494.52 111.52 493.81 114.76 494.29 116.82 496.98 118.23 499.59 117.64 501.64 116.78 502.16 114.02 500.63 111.97 498.99 110.62 496.46 110.33 494.52 111.52 Z" fill-rule="evenodd"/>
</g>
</svg>