<?xml version="1.0"?>
<svg xmlns="http://www.w3.org/2000/svg" version="1.2" baseProfile="tiny" width="800" height="447" viewBox="0 0 800 447" stroke-linecap="round" stroke-linejoin="round">
<g id="moonlake">
<path d="M 753.1 312.74 753.43 313.1 759.65 315.59 767.37 318.08 772.35 320.07 776.34 323.06 779.33 327.54 781.07 330.52 783.81 337 785.55 340.48 786.8 345.21 788.89 350.86 789.29 351.93 791.03 354.91 793.52 357.9 798 363.62 798.75 365.86 799 373.08 797.01 378.06 793.52 382.04 788.29 386.27 776.84 393.49 772.11 394.48 767.32 395.17 766.88 395.23 762.14 398.22 761.15 400.21 760.15 402.2 755.92 403.19 752.93 403.94 748.95 404.19 744.71 406.68 736.25 412.9 731.02 418.38 722.05 424.6 714.08 429.33 705.87 435.3 691.17 442.27 680.96 445.25 675.24 446 669.26 445.75 655.06 440.03 648.84 435.3 644.11 434.8 638.63 431.07 635.14 427.58 631.9 426.34 628.92 424.85 626.18 420.37 624.19 418.87 621.45 420.12 620.41 419.18 618.71 417.63 618.21 414.39 611.73 411.66 610.24 407.92 607.25 404.44 604.51 401.2 603.02 397.97 600.28 392.99 597.79 382.04 598.04 377.31 586.83 360.89 582.1 355.66 577.37 349.69 573.63 349.19 567.66 348.19 561.43 347.95 553.96 347.95 540.02 347.2 533.04 346.95 508.77 342.02 502.8 343.02 498.56 342.52 490.84 341.78 484.37 341.78 479.89 342.02 475.9 341.03 472.17 339.54 467.44 338.54 458.97 336.55 443.28 333.07 438.55 330.83 433.07 329.58 426.6 328.09 420.62 326.35 415.39 325.35 409.16 324.11 401.94 323.86 396.71 323.11 388.74 320.62 383.02 320.37 375.05 319.13 370.93 317.34 367.58 315.89 363.09 312.91 351.64 302.21 344.42 298.97 338.69 297.97 332.46 294.74 328.73 292.5 322.5 287.27 315.03 285.28 306.81 284.04 297.35 284.54 292.62 286.77 288.64 291.5 281.66 293.49 273.69 298.47 265.73 301.46 250.04 299.97 242.82 295.49 230.86 291.75 222.89 292 211.76 287.96 202.42 285.78 196.82 282.98 191.53 282.98 184.68 282.98 177.83 281.74 172.23 280.8 168.49 281.42 161.33 283.29 154.17 284.22 150.18 285.09 141.95 281.15 136.47 279.65 129.65 285.01 122.85 288.35 114.31 297.82 109.08 307.72 103.2 315.11 98.9 317.51 92.54 323.25 86.17 327.93 79.94 332.66 73.22 337.14 56.03 336.4 44.58 338.64 34.12 340.13 22.42 338.89 10.21 331.17 3.49 327.44 1 323.21 2.49 320.72 3.99 318.23 6.73 314.5 8.47 312.26 8.47 306.53 11.21 303.3 14.2 298.07 14.7 294.34 23.16 296.83 32.13 291.85 36.14 286.63 37.11 284.13 34.37 279.16 30.14 272.19 28.89 264.47 29.39 260.99 35.86 257.5 44.58 258.25 53.05 255.26 55.54 250.78 59.02 243.82 75.86 240.87 83.2 244.09 94.1 240.36 99.39 234.45 103.75 228.85 109.04 225.43 114.02 222.32 121.18 221.7 128.03 221.7 147.01 220.14 151.68 217.65 156.04 217.34 159.15 217.96 167.87 222.94 174.1 222.94 180.01 222.63 183.43 220.76 181.88 215.78 177.21 206.76 167.87 201.79 162.89 200.23 151.99 199.61 144.21 198.36 137.05 193.7 137.05 186.85 131.76 179.08 128.65 170.68 131.76 164.14 147.01 152.94 148.19 151.61 151.68 147.66 160.09 148.28 169.11 144.23 177.21 140.19 178.64 140.13 184.68 139.88 193.71 136.77 212.07 131.79 221.1 128.68 227.95 127.44 231.99 124.64 232.93 119.66 236.35 114.06 243.82 111.26 249.42 111.26 255.65 108.46 259.12 101.33 266.13 99.77 268.46 93.94 273.13 85.38 278.97 80.72 289.47 79.94 295.31 77.22 297.64 74.88 296.98 72.56 295.31 66.72 293.75 62.44 298.03 50.77 298.81 46.5 302.7 40.27 308.15 34.05 309.32 29.78 311.65 22.78 318.65 17.33 322.12 13.49 322.16 13.44 326.05 7.22 332.27 1.39 340.83 1 354.06 2.55 361.04 2.73 369.63 2.94 389.08 8 418.26 18.89 465.73 43.39 513.59 68.27 529.38 76.93 545.5 85.77 575.46 102.49 587.91 110.66 610.48 134.77 624.47 145.54 631.47 152.54 636.92 155.26 645.09 160.71 655.21 170.82 666.49 180.93 671.94 187.93 677.78 198.82 683.61 202.7 685.94 204.07 690.23 206.59 701.67 219.99 704 224.35 706.03 228.55 707.11 230.26 711.01 234.15 713.96 238.66 715.21 242.08 715.05 246.13 715.83 250.01 719.41 254.37 723.3 259.19 724.7 265.72 724.7 273.03 723.15 275.68 722.83 278.63 722.83 282.52 722.06 285.94 720.81 291.54 720.97 293.72 720.97 297.61 721.43 299.79 723.3 302.43 725.32 304.92 727.5 307.1 733.73 307.72 737.78 310.37 740.27 311.76 745.71 311.45 749.29 311.92 753.1 312.74 Z"/>
</g>
</svg>