<?xml version="1.0"?>
<svg xmlns="http://www.w3.org/2000/svg" version="1.2" baseProfile="tiny" width="800" height="1370" viewBox="0 0 800 1370" stroke-linecap="round" stroke-linejoin="round">
<g id="bluejointlake">
<path d="M 36.99 761.8 38.79 762.39 40.19 763.27 41.79 764.75 43.59 767.26 44.88 769.84 45.78 773.6 46.18 774.48 47.18 775.81 48.58 776.55 49.98 776.26 51.18 775.44 54.58 772.28 56.18 770.43 58.38 764.9 58.88 762.18 59.19 758.71 58.69 754.73 56.99 747.57 56.6 743.3 55.1 737.03 54.1 730.54 55.31 723.02 59.81 711.6 59.91 710.64 60.81 707.76 61.52 704 61.02 697.36 60.52 694.34 59.63 691.61 58.03 683.94 57.43 673.03 56.74 669.93 55.74 667.94 54.74 666.62 54.14 666.1 53.14 665.66 51.24 665.14 47.44 664.99 46.94 665.07 44.74 665.51 39.54 667.42 37.84 667.5 36.14 666.98 34.34 665.5 33.34 664.18 32.44 662.33 30.85 657.91 29.75 654 28.45 650.83 27.75 647.51 27.75 644.86 28.56 641.17 30.56 637.04 31.56 634.31 33.06 630.92 33.36 630.7 34.76 627.68 36.16 625.17 37.76 623.11 38.16 621.93 38.76 621.34 39.36 620.31 39.97 619.72 40.97 618.09 41.97 617.06 42.37 616.32 45.67 612.86 47.37 610.8 53.77 604.24 54.58 603.57 57.57 600.18 61.38 594.58 64.78 591.49 67.98 587.14 70.18 584.63 71.39 582.27 74.59 577.11 75.19 575.64 77.79 570.77 78.79 569.89 79.89 568.49 80.8 567.67 81.2 566.79 82.4 564.95 84.9 559.12 86.2 555.51 86.8 554.55 89 548.14 90.61 544.01 91.31 541.58 92.21 540.03 92.41 538.85 92.81 538.26 93.91 534.72 95.22 528.3 97.12 522.63 98.22 521.38 99.22 519.02 99.82 518.28 100.22 517.25 101.23 515.63 103.83 513.56 105.63 512.82 106.23 512.38 111.23 511.06 113.43 510.32 115.03 510.17 123.63 508.04 124.63 507.6 128.63 506.56 132.43 505.39 132.64 505.17 137.63 503.47 143.84 502 144.64 501.56 147.04 501.12 147.84 500.67 149.44 500.38 151.64 499.05 152.04 498.02 145.34 490.87 145.04 490.79 143.45 488.88 142.85 488.43 141.85 487.25 139.65 485.19 138.65 483.93 138.25 483.2 137.65 482.75 135.25 480.1 135.11 478.69 136.05 479.21 137.05 479.51 139.05 481.43 146.05 489.02 147.75 491.09 150.24 493.15 152.44 495.73 153.84 496.84 155.34 496.77 156.24 496.4 160.44 494.04 161.84 493.01 165.65 491.1 166.65 490.65 168.85 490.06 176.25 487.04 182.55 483.36 185.26 481.3 187.66 480.12 191.56 478.79 198.66 476.73 199.86 476.58 203.16 475.77 204.86 475.55 215.27 473.2 221.07 471.72 225.27 470.25 226.47 469.96 228.47 469.07 233.27 467.45 234.67 466.86 235.47 466.72 237.07 466.05 239.27 465.47 249.28 461.78 254.88 459.87 255.08 459.65 258.68 458.54 259.28 458.1 260.08 457.95 263.29 456.62 270.89 454.27 280.49 451.62 284.29 450.15 285.09 450 287.89 448.82 290.6 447.86 292.6 446.76 294.5 445.28 296.6 442.41 297.1 439.53 297.81 438.13 299.61 436.5 300.21 436.06 304.21 434.59 306.81 433.41 307.61 433.27 310.41 432.09 313.81 430.1 315.42 428.55 316.62 426.86 316.42 424.72 314.42 423.54 312.32 423.32 309.02 423.24 306.02 423.68 303.62 424.41 300.12 425.08 299.12 425.59 294.72 426.62 291.91 427.65 289.71 428.24 288.91 428.68 282.01 430.38 279.51 430.45 278.51 430.3 277.91 429.86 278.31 427.94 279.31 426.17 281.11 424.48 283.52 422.64 287.92 420.43 288.92 420.13 289.72 419.69 294.12 418.07 296.92 417.18 297.12 416.96 300.93 415.64 309.13 412.41 312.43 411.01 316.63 409.03 322.24 406.68 324.44 405.95 329.04 403.91 334.64 400.55 335.45 400.26 338.85 398.22 339.65 398.07 349.35 392.61 352.86 390.28 356.26 387.36 360.27 383.41 362.07 381.43 365.87 377.76 370.98 372.02 372.25 370.99 374.21 370.17 376.81 367.01 379.11 362.91 380.3 358.01 383.79 347.42 385.68 337.39 387.47 330.04 389.07 324.22 390.45 308.29 390.34 301.06 389.44 296.35 387.93 292.14 385.93 290.15 382.83 289.49 380.43 289.49 372.47 295.47 372.51 294.47 372.26 294.68 371.25 295.49 370.25 298.15 369.44 299.62 368.04 301.69 367.64 302.57 366.04 304.2 364.74 305.23 362.84 307.07 358.83 310.47 352.22 315.48 343.82 321.08 339.11 323.73 336.81 324.47 336.01 324.91 332.01 325.2 329.41 324.6 323.31 322.68 319.61 321.65 317.01 321.35 313.81 320.75 309.41 320.31 304.8 320.16 299.8 319.72 298.91 319.49 289.6 319.12 276.9 319.19 251.59 319.85 246.69 319.4 245.39 319.03 242.69 318.66 241.89 318.37 226.88 317.03 224.88 316.59 223.48 316.15 221.68 315.26 220.48 314.82 219.28 313.94 218.28 312.9 217.48 311.43 216.39 308.85 216.08 307.59 211.69 300.07 210.39 299.04 204.89 293.5 203.49 291.59 202.6 289.74 202.1 287.6 202.9 281.71 204 278.83 204.5 276.84 207.71 268.58 209.51 264.53 211.12 261.58 213.32 258.04 217.23 253.77 219.43 252 231.94 240.87 234.94 237.63 235.34 236.89 237.55 234.38 237.75 233.79 240.55 229.67 242.46 225.02 242.56 223.33 242.26 221.19 241.76 219.05 240.96 217.87 239.96 217.13 238.76 215.73 230.97 210.42 229.17 208.35 228.46 207.1 227.97 204.22 228.57 202.31 229.77 200.39 231.97 198.25 234.18 196.56 238.18 194.64 240.78 194.2 242.78 194.2 248.79 193.76 251.19 193.47 252.19 193.03 253.99 192.59 258.39 189.78 261.39 188.75 262.99 188.46 267 187.21 268 186.77 274.2 185.29 279.01 183.67 280.41 182.94 283.51 181.68 285.71 180.58 286.61 180.28 290.62 178.15 293.32 176.08 295.82 173.21 296.23 172.18 297.22 170.85 297.42 170.26 298.03 169.52 298.23 168.94 299.63 167.17 300.93 164.29 301.64 158.84 301.94 155.08 301.54 149.32 301.05 145.64 299.85 142.54 297.45 138.56 296.85 137.3 296.05 136.57 295.85 135.97 294.65 134.87 293.25 133.1 290.85 131.18 289.05 130.15 288.25 129.85 286.55 128.89 282.45 127.34 280.85 126.61 275.05 124.54 274.05 124.39 273.25 123.95 271.65 123.5 269.85 122.77 267.25 121.44 259.95 116.12 259.65 116.05 252.95 109.19 252.55 108.31 250.95 106.39 249.15 104.62 245.55 97.61 243.16 89.35 241.76 86.7 241.46 86.55 240.36 84.49 238.76 82.42 236.86 81.09 235.56 79.91 235.16 79.18 232.96 76.67 232.37 75.49 231.16 73.86 230.77 71.87 230.97 67.01 229.57 61.85 229.08 54.7 227.59 44.3 226.99 35.38 227.5 29.4 228.8 24.76 231 20.48 232.01 19.38 233.41 18.2 236.41 17.09 243.41 16.14 244.62 15.7 249.62 14.96 254.62 15.26 256.02 15.7 259.42 17.47 260.62 17.62 262.43 18.5 267.83 20.06 271.73 20.87 281.84 21.98 284.84 22.13 296.95 21.84 302.45 21.32 305.45 20.73 309.26 19.7 310.06 19.4 310.26 19.18 313.66 18.37 317.47 16.9 318.67 16.6 320.87 15.72 321.67 15.57 324.87 14.25 325.67 13.66 326.47 13.51 329.08 11.59 330.78 10.71 332.08 9.83 333.88 8.94 337.48 7.47 339.59 7.1 348.79 6.29 349.59 6 351.4 5.71 355.8 4.23 356.6 3.79 358 3.35 359.81 2.32 363.11 1.29 366.11 1 368.01 1.24 371.81 3.54 372.27 3.54 379.32 7.39 398.64 17.7 404.45 20.79 411.06 24.92 421.07 30.44 424.27 32.8 433.39 37.74 441 42.3 445.1 45.18 458.02 52.69 472.03 60.5 473.04 61.46 473.94 61.75 482.55 68.09 484.85 69.19 485.85 70.22 488.76 71.77 493.06 75.09 493.86 75.31 494.36 75.82 511.98 86.14 517.09 88.64 528.2 96.3 538.82 103.23 539.82 104.26 548.43 108.98 553.43 112.66 554.23 112.81 560.54 117.75 567.45 121.87 579.66 130.27 599.09 145.52 621.81 162.25 640.13 176.48 651.94 186.35 658.15 190.18 660.45 192.25 675.07 201.82 678.07 204.99 686.48 210.96 686.88 211.55 689.78 213.91 696.69 218.48 709.1 227.47 722.92 237.93 732.13 245.97 736.53 249.21 755.85 265.57 772.66 280.83 778.47 286.88 785.47 293.14 791.18 300.81 794.99 308.7 797.59 317.1 799 326.76 798.31 343.28 793.02 363.26 788.84 396.51 791.26 437.66 791.87 454.47 791.58 460.37 791.68 467.74 790.29 484.63 789.29 490.75 787.3 496.94 783.5 510.66 782.61 515.67 779.71 521.57 761.03 553.95 743.24 582.27 732.46 603.51 725.87 618.92 722.67 624.01 719.17 630.5 711.39 643.04 710.09 646.13 705.79 651.22 695.3 662.06 690.5 666.57 680.41 674.53 674.91 679.33 671.81 681.54 666.72 685.89 660.22 690.02 648.93 695.71 632.14 704.94 611.95 714.53 600.66 722.87 592.16 729.51 574.28 744.49 570.08 748.54 562.69 757.54 547.71 781.14 540.82 791.32 532.03 802.61 521.95 812.93 514.36 821.49 506.47 831.89 498.58 840.74 481.7 856.9 473.51 864.43 443.54 887.15 435.95 893.86 424.87 904.41 418.37 911.64 408.89 924.47 405.4 930.22 395.82 942.51 387.03 952.45 385.33 955.33 382.04 959.53 376.84 962.99 372.25 965.72 368.52 968.45 367.42 969.92 365.52 974.71 364.82 976.11 363.11 983.69 362.51 987.08 362.01 988.4 360.9 992.6 359.9 997.3 359.6 999.73 358.2 1002.46 355.59 1005.77 353.79 1008.57 351.29 1014.09 350.89 1016.08 350.38 1017.48 349.79 1018.22 344.78 1030.75 344.47 1032.01 342.57 1036.06 339.97 1039.01 339.97 1039.3 335.07 1044.69 332.97 1046.68 329.77 1050.44 329.57 1051.02 328.77 1051.91 328.57 1052.5 327.76 1053.38 327.36 1054.12 327.06 1054.27 325.96 1057.07 325.56 1059.57 325.46 1061.57 326.05 1067.02 327.35 1071 327.35 1073.51 326.34 1076.02 324.54 1078.38 318.74 1084.42 315.14 1089.28 311.94 1095.7 311.63 1096.95 310.33 1100.27 309.93 1100.86 308.73 1102.33 304.53 1105.28 301.93 1107.79 296.82 1117.96 293.22 1121.86 292.82 1122.6 287.22 1127.02 283.22 1130.71 281.92 1132.33 281.72 1132.92 280.92 1133.8 280.82 1134.39 279.82 1135.72 278.62 1138.23 278.22 1139.99 278.71 1146.41 278.41 1147 276.81 1148.18 239.84 1148.24 222.85 1147.05 216.85 1146.75 211.66 1147.48 206.46 1147.92 205.56 1148.14 202.26 1148.36 199.06 1148.8 196.57 1149.54 195.27 1150.35 193.57 1151.67 190.27 1155.06 188.77 1156.24 187.97 1157.42 185.17 1160.37 183.37 1163.1 181.96 1164.72 179.16 1169.29 178.56 1169.88 176.76 1172.68 176.56 1173.27 174.76 1175.78 174.56 1176.37 173.26 1178.43 172.56 1179.17 169.56 1183.89 168.76 1184.77 168.56 1185.36 167.76 1186.39 167.56 1186.98 166.76 1187.87 163.56 1193.47 161.96 1196.65 160.75 1198.12 157.76 1202.69 157.46 1202.77 155.15 1206.52 151.35 1212.13 149.75 1214.04 149.35 1215 148.35 1216.11 145.55 1220.01 145.35 1220.6 141.55 1225.62 141.35 1226.21 140.55 1227.09 139.95 1228.27 138.55 1230.34 137.95 1230.92 136.95 1232.55 136.35 1233.14 136.15 1233.73 135.55 1234.32 133.55 1237.78 132.35 1239.33 130.75 1242.65 127.95 1247.51 127.15 1249.28 126.54 1250.02 125.75 1251.57 125.15 1252.38 123.34 1256.28 122.34 1257.83 121.54 1259.6 120.74 1260.63 119.74 1262.92 116.94 1267.93 114.34 1273.09 109.94 1280.76 108.14 1284.44 107.54 1285.03 105.54 1289.16 102.74 1293.81 101.34 1297.05 99.14 1300 96.93 1304.13 95.54 1308.26 94.43 1309.58 93.23 1311.57 93.13 1312.02 88.13 1320.71 84.73 1326.17 78.33 1337.08 77.93 1338.11 77.13 1339.14 76.53 1340.47 73.13 1346 72.93 1346.59 71.93 1347.92 70.93 1349.83 68.03 1354.55 66.73 1357.06 65.93 1358.24 64.93 1360.37 63.13 1363.1 62.93 1363.69 61.53 1365.61 60.93 1367.08 59.43 1369 55.93 1367.45 54.33 1366.49 46.54 1362.95 37.36 1356.9 36.36 1356.46 34.56 1355.13 33.16 1354.54 30.77 1353.07 29.57 1352.62 28.17 1351.88 26.77 1351.44 24.77 1350.41 19.78 1347.31 16.98 1345.83 15.38 1344.8 8.59 1342.29 5.59 1340.82 2.4 1339.64 1 1338.6 1 1337.87 5 1336.91 13.99 1335.73 18.19 1334.85 19.39 1334.41 20.99 1334.26 24.58 1332.93 25.98 1332.64 31.58 1330.72 33.98 1329.47 36.57 1328.36 37.97 1327.63 39.37 1326.6 41.17 1324.68 42.27 1322.25 42.67 1320.33 42.77 1317.46 42.18 1312.51 40.68 1308.31 40.38 1306.03 40.78 1302.34 43.18 1299.61 45.18 1298.06 47.78 1295.11 49.18 1292.46 49.28 1290.91 48.59 1289.07 45.59 1286.05 40.99 1284.13 36.8 1282.8 33.2 1281.47 30.01 1279.99 25.21 1276.75 23.61 1274.54 22.21 1273.21 21.22 1272.03 20.42 1270.26 18.72 1265.32 18.53 1261.26 19.33 1258.31 19.23 1258.09 19.93 1256.4 21.73 1253.38 22.93 1252.2 26.43 1250.06 27.53 1249.54 30.42 1248.36 35.82 1246.89 36.62 1246.45 37.42 1246.3 38.82 1245.56 41.62 1244.53 43.22 1243.5 46.01 1242.17 48.61 1241.58 52.41 1241.15 55.51 1241.07 63.7 1242.99 66 1243.36 66.6 1243.8 73.89 1245.5 79.49 1245.95 80.99 1245.87 83.98 1245.43 88.58 1244.25 89.98 1243.66 90.78 1243.52 91.98 1243 92.18 1242.78 96.28 1240.64 97.98 1239.24 105.47 1235.04 107.97 1233.49 109.17 1232.54 110.87 1231.65 114.87 1228.85 119.37 1224.87 120.17 1223.99 120.77 1222.95 121.37 1222.37 122.77 1220.45 125.57 1215.58 127.77 1209.76 127.97 1208.73 127.97 1207.25 127.57 1205.63 127.77 1204.01 127.38 1199.29 127.08 1198.63 126.48 1193.46 125.79 1189.41 125.59 1187.05 122.7 1175.84 121.21 1165.74 121.61 1159.32 122.51 1154.38 123.42 1150.92 125.32 1146.2 125.62 1145.83 125.92 1144.87 126.62 1143.62 127.92 1140.01 128.32 1137.65 128.52 1133.08 128.12 1131.6 125.83 1128.73 122.93 1125.55 116.34 1120.02 114.14 1117.66 112.25 1115.01 111.55 1114.42 109.35 1110.73 107.06 1106.08 106.36 1103.06 105.96 1099.22 106.46 1095.1 107.17 1091.48 109.37 1086.03 111.07 1082.42 112.07 1079.32 112.47 1075.48 112.37 1074.08 111.57 1070.55 109.98 1067.23 108.78 1065.31 108.38 1064.28 106.98 1062.65 105.98 1061.03 105.18 1060.59 103.99 1059.41 103.79 1058.82 100.79 1056.9 99.19 1056.46 98.19 1056.31 96.19 1056.31 93.19 1056.9 86.9 1058.44 80.6 1059.4 74 1060.58 72.81 1060.87 69.01 1062.2 65.31 1063.3 60.61 1063.82 58.61 1063.37 52.32 1060.87 51.59 1060.44 47.52 1058.06 40.83 1053.19 34.53 1048.03 32.93 1046.26 31.94 1044.64 31.44 1042.8 29.95 1029.23 30.15 1023.33 29.65 1022.07 29.15 1019.64 27.16 1014.04 25.06 1009.69 24.56 1007.4 24.36 1004.6 25.07 996.93 24.97 995.24 26.37 984.77 26.37 983.29 25.08 977.61 23.48 965.01 22.79 961.1 20.59 956.97 18.59 953.87 17.19 946.94 16.3 939.93 16.4 934.99 15.81 924.97 15.31 922.38 14.22 905.87 11.83 891.56 10.43 884.41 9.14 875.64 8.64 870.84 4.95 853.59 4.65 850.27 4.06 847.76 3.06 842.01 3.96 837.96 5.26 834.94 5.56 833.68 7.16 830.07 7.66 829.33 8.76 828.3 9.36 827.27 9.96 826.68 11.96 823.14 15.97 814.14 19.67 806.62 19.97 805.37 21.07 803.09 22.57 795.94 23.68 786.57 24.78 778.9 25.48 777.06 25.88 775.44 27.69 766.66 29.69 763.72 30.69 762.83 32.49 761.8 34.59 761.36 36.99 761.8 Z"/>
</g>
</svg>