<?xml version="1.0"?>
<svg xmlns="http://www.w3.org/2000/svg" version="1.2" baseProfile="tiny" width="800" height="1185" viewBox="0 0 800 1185" stroke-linecap="round" stroke-linejoin="round">
<g id="courtrightreservoir">
<path d="M 715.25 328.19 714.04 331.32 710.21 336.88 703.44 343.92 700.14 347.74 699.09 350.96 697.88 355.65 698.57 359.91 701.52 368.95 704.13 375.46 705.17 379.12 705.17 383.11 705.52 386.5 703.79 391.19 701.53 396.41 699.27 404.4 697.53 410.83 694.57 424.13 694.57 429.08 694.58 434.3 695.28 437.25 696.49 441.25 697.31 444.61 697.71 446.2 698.23 449.07 698.23 454.28 698.92 461.32 701.18 466.97 702.22 470.54 705.52 474.79 715.78 482.88 720.46 486.09 722.03 488.35 724.28 491.74 727.93 499.65 734.37 507.9 740.27 513.55 745.31 518.51 746.7 520.33 748.44 522.59 750.7 527.8 753.47 534.76 757.82 541.71 764.6 547.36 771.54 552.57 777.8 555.96 788.74 560.39 790.66 561.09 792.05 562.48 793.09 566.3 795.87 585.25 797.44 593.51 799 606.63 798.65 610.45 797.61 612.97 795.87 616.1 792.75 619.66 788.4 624.44 786.15 627.83 776.94 641.13 770.33 652.34 766.86 659.55 762.86 667.72 759.21 676.41 756.09 688.66 756.08 692.49 756.6 700.57 755.74 705.26 753.66 715.43 751.05 725.07 750.01 728.2 748.97 730.03 743.93 732.72 730.2 743.15 719.95 750.53 715.43 755.06 711.44 760.88 709.18 767.22 705.71 771.57 703.62 772.7 699.1 773.13 689.02 777.56 682.6 782.95 680.34 786.6 679.12 789.99 678.42 794.07 675.99 795.38 673.04 796.77 663.83 796.94 659.66 796.94 658.1 797.37 654.63 799.2 648.37 807.71 640.55 821.27 639.33 825.79 638.12 832.92 638.82 846.3 639.33 853.25 642.29 860.2 650.81 875.85 652.54 877.41 656.01 880.54 661.57 886.1 662.27 887.67 662.27 894.01 665.75 899.92 665.5 903.06 665.39 904.44 664.01 907.39 660.88 914.26 659.14 918.08 658.97 925.12 658.27 938.5 657.93 943.54 656.71 951.89 656.19 954.84 653.93 957.8 640.55 969.96 631.52 979.61 630.99 981.43 633.08 983.69 636.73 987.78 638.12 991.77 639.16 996.99 638.82 1003.51 639.17 1018.19 639.34 1030.27 640.11 1040.78 640.38 1044.35 641.07 1047.91 643.51 1055.04 644.38 1060.08 646.63 1066.34 647.68 1069.29 651.33 1077.63 655.15 1085.72 659.84 1095.19 662.62 1101.97 662.27 1106.49 662.8 1108.22 660.88 1108.65 657.92 1109.3 654.27 1110.11 650.98 1110.83 647.33 1111.61 644.03 1112.39 641.06 1113.04 637.42 1113.85 633.78 1114.66 630.82 1115.32 627.52 1116.04 624.23 1116.74 620.92 1117.51 617.27 1118.3 613.96 1119.06 610.67 1119.78 607.54 1120.48 604.42 1121.17 601.11 1121.69 598.86 1123.34 597.46 1124.73 596.6 1126.91 596.6 1128.21 597.82 1130.3 599.56 1134.47 599.72 1135.25 599.72 1136.29 598.69 1138.29 595.38 1137.33 587.89 1142.54 582 1146.63 584.09 1149.15 580.27 1148.89 573.67 1148.54 564.98 1149.15 561.16 1150.19 556.47 1152.37 552.73 1154.53 546.91 1159.23 544.65 1162.1 543.61 1166.36 542.57 1171.05 543.61 1176.53 542.91 1177.83 535.09 1182.26 531.62 1183.65 530.41 1184 527.97 1183.48 524.67 1179.83 521.37 1172.18 517.55 1164.45 514.76 1159.84 512.51 1155.5 511.29 1151.24 508.86 1149.15 505.9 1146.98 501.91 1145.41 496.18 1144.98 487.49 1145.85 483.84 1146.11 480.54 1145.85 474.46 1144.28 469.77 1142.28 464.91 1140.29 460.39 1137.59 456.57 1134.55 453.08 1131.77 435.88 1121.95 424.38 1113.46 421.98 1111.69 412.78 1104.39 409.83 1101.35 406.88 1096.75 405.14 1093.1 404.79 1089.27 405.83 1087.36 407.57 1084.93 414.35 1078.06 415.73 1075.54 414.69 1074.41 412.78 1072.59 409.48 1071.8 402.18 1069.2 398.53 1066.76 393.84 1062.42 390.54 1055.38 390.02 1051.21 390.89 1045.91 393.32 1040.69 394.19 1036.78 394.53 1033.83 394.36 1031.65 391.23 1029.31 382.37 1023.32 380.12 1021.75 378.38 1018.97 378.2 1014.36 378.38 1007.06 379.42 1005.84 380.64 1004.02 381.48 1003.31 383.94 1001.24 390.89 996.89 394.88 993.16 397.49 988.29 399.58 979.51 400.79 975 401.14 969.78 400.44 967.69 398.71 965.09 396.28 962.57 388.97 954.57 380.29 946.84 375.08 943.54 370.91 940.84 367.08 937.54 360.83 930.76 357.87 929.02 354.22 926.68 349.36 924.42 347.63 923.29 345.71 921.2 343.63 917.9 343.28 915.38 343.28 913.89 343.28 912.43 345.72 907.99 345.02 900.08 345.2 896.35 346.93 893.91 351.1 890.87 355.97 885.4 359.96 879.49 360.13 877.75 360.48 874.27 360.89 870.49 361.87 861.32 363.26 854.72 364.82 844.64 369.34 832.65 370.38 828.3 370.39 825.09 369.51 822.31 368.13 820.22 366.56 818.22 363.43 815.18 362.56 812.84 362.57 810.49 363.26 807.53 363.27 807.5 364.12 804.32 365 802.84 369.34 800.41 373.68 794.93 374.04 793.11 374.03 791.8 371.08 788.24 363.49 777.27 363.44 777.2 361.52 772.34 361.87 770.77 362.04 769.12 372.81 764.69 375.08 763.91 377.33 761.82 378.73 759.22 378.72 757.22 378.2 755.39 375.77 751.74 373.68 748.96 373.16 745.92 373.68 736.8 374.03 724.72 375.13 719.8 375.42 718.46 376.81 714.2 378.03 710.9 378.72 703.51 379.76 695.78 380.32 692.74 380.46 691.95 381.33 687.7 382.72 683.87 382.71 679.61 382.54 677.01 381.67 668.92 381.33 666.92 381.33 664.76 381.33 664.67 382.55 662.06 392.54 635.86 393.31 633.82 395.92 626.95 397.6 622.75 398.18 621.3 400.26 617.83 402.52 615.22 404.4 613.56 404.65 613.33 404.78 613.22 406 613.22 408.25 613.4 410.34 613.39 411.91 614 416.07 617.31 418.68 617.48 422.85 616.87 428.06 614.87 435.88 611.05 443.17 606.36 449.78 600.36 452.74 596.28 454.47 593.84 455.34 591.24 455.34 589.59 455.34 586.2 453.6 574.64 452.73 571.42 450.48 561.34 449.09 558.48 449.08 557.08 449.26 555.08 450.47 552.22 452.9 546.91 455.16 540.14 455.86 535.45 457.6 525.36 458.99 520.76 460.73 516.5 463.33 511.46 468.89 501.73 470.28 497.55 470.98 494.86 471.14 492.69 469.94 486 466.98 476.52 466.28 473.22 464.19 470.61 461.94 468.62 449.78 462.19 444.14 460.11 443.17 459.75 441.27 458.28 438.48 455.32 435.88 451.06 432.4 447.41 425.28 442.54 423.37 440.81 421.63 438.72 417.11 431.42 407.21 417.34 399.92 409.43 389.66 402.74 386.36 401.18 381.32 400.13 370.2 400.74 366.9 401 361.87 399.18 358.91 397.35 355.26 391.79 352.31 388.4 349.53 385.36 343.79 381.97 330.07 376.15 317.56 372.24 312 370.24 309.04 368.76 303.14 365.37 300.01 364.94 296.19 365.37 290.11 365.98 281.59 365.81 262.83 366.41 259.35 365.81 256.06 363.98 251.89 361.72 245.28 355.9 232.95 347.55 218.52 340.86 211.75 336.87 197.68 327.83 188.3 322.35 183.78 320.53 181.52 320.53 176.83 320.44 171.97 320.53 169.88 320.35 167.62 319.83 157.37 313.31 148.5 307.23 145.38 305.93 142.25 304.97 132.18 303.41 125.4 302.1 119.32 300.54 116.02 299.15 111.5 295.5 107.68 290.63 104.73 284.98 101.77 282.37 99.86 280.72 98.47 279.51 96.21 278.72 88.05 277.51 78.67 276.12 77.45 275.75 73.8 274.64 71.19 273.51 71.19 271.86 71.2 269.86 76.23 256.04 78.15 248.48 78.14 238.92 77.1 236.31 75.02 234.84 72.41 234.58 69.11 235.1 63.9 238.31 60.6 240.57 55.9 241.96 50 242.83 46.87 242.31 43.92 241.53 41.31 240.57 39.05 238.75 34.71 235.88 32.97 234.84 26.37 231.88 20.98 229.45 12.3 224.15 4.3 217.89 2.05 215.28 1.01 212.85 1 210.85 1.69 207.98 3.61 204.25 5.17 202.77 8.3 200.86 11.25 200.86 17.85 200.86 23.24 201.99 28.11 203.03 44.44 206.24 50 206.42 55.21 207.99 69.46 216.24 72.06 216.76 76.76 213.55 79.88 210.68 84.23 198.43 85.27 193.99 88.91 190.87 96.04 188.78 102.82 188.35 109.15 188.26 109.41 188.26 117.15 189.57 121.75 190.35 134.78 193.47 144.16 197.47 153.38 200.17 167.97 203.04 191.42 205.9 206.66 208.94 210.18 209.64 230.17 211.2 235.73 211.73 243.37 210.95 251.54 208.86 275.45 202.38 282.63 200.43 296.01 197.21 300.01 196.95 303.14 196.95 309.92 197.22 313.22 196.95 316.69 195.65 330.59 187.22 332.85 186.18 336.67 185.66 339.8 185.92 350.92 189.83 354.91 190.44 357.51 190.44 361.51 189.57 372.81 181.75 376.63 177.23 379.41 173.49 380.28 168.8 379.58 157.68 380.27 153.77 385.49 148.47 395.74 136.91 408.77 125.78 413.12 121.35 417.98 115.27 423.37 113.62 425.62 115.62 426.32 118.4 424.58 123.87 422.32 127.52 419.89 130.39 412.42 137.6 408.77 142.12 407.21 145.6 405.82 149.25 406.51 172.97 405.82 182.88 407.21 208.08 409.64 217.38 417.98 234.33 423.37 240.32 428.23 244.15 440.22 249.71 457.42 261.7 464.89 268.74 468.37 272.65 473.23 280.13 475.49 284.73 477.75 290.21 480.53 311.67 485.04 322.19 489.04 326.45 496.17 329.66 499.12 329.58 502.25 328.45 505.89 325.75 507.63 323.75 515.8 307.85 517.18 304.81 522.4 290.64 536.47 263.53 538.73 259.18 546.2 245.45 549.5 239.54 549.68 237.28 549.85 234.77 549.68 230.42 549.16 225.64 548.11 219.21 546.03 208.69 544.64 197.92 544.63 194.79 547.59 190.36 549.5 187.84 549.85 184.8 549.5 175.15 547.24 156.73 545.16 130.83 544.29 127.61 543.59 125.44 539.95 122.23 536.99 119.1 535.95 116.58 535.95 113.36 536.47 108.84 540.29 101.28 541.68 100.15 544.28 99.29 550.89 99.28 554.71 98.68 558.18 96.59 559.4 95.37 561.14 92.33 564.27 84.42 568.44 77.96 571.39 73.39 574.69 70.78 578.17 68.87 581.64 67.74 587.02 67.48 596.63 67.17 600.4 67.04 615.87 66 628.55 63.57 642.63 59.4 654.27 55.49 659.82 51.4 663.47 47.75 667.12 42.54 669.73 38.8 672.34 33.76 673.38 31.62 674.77 28.81 674.94 25.68 675.98 22.81 676.68 22.72 680.67 21.25 684.32 20.21 687.62 17.6 689.88 14.99 691.1 10.65 692.31 6.48 693.53 3.17 695.27 1 696.48 1.26 698.39 3.78 701.17 6.48 704.82 9 706.73 10.04 707.96 11.08 707.95 11.49 707.95 12.56 705.69 14.65 699.79 20.82 694.57 26.64 691.79 31.07 691.75 31.61 691.62 33.42 692.32 35.85 693.18 38.54 696.31 42.11 697.7 44.54 697.53 46.37 697 48.8 695.27 52.71 694.57 56.01 693.35 62.27 692.84 67.92 693.19 73.39 693.53 79.04 695.62 85.99 696.13 87.99 695.62 90.25 692.32 98.85 688.84 107.63 685.71 116.84 685.19 119.79 686.58 124.75 691.1 132.4 694.57 135.96 696.03 137.85 697.52 139.79 699.78 143.17 703.43 147.43 713.68 154.21 716.98 156.73 720.28 160.12 721.85 163.94 723.59 169.77 724.28 174.55 723.99 180.57 723.59 188.71 722.9 201.05 721.85 221.37 721.85 221.38 721.68 228.6 721.68 233.29 722.37 242.77 722.38 247.55 722.36 247.63 721.85 251.11 719.94 258.32 719.94 261.88 720.64 266.4 721.33 270.31 721.15 274.31 720.46 277 719.24 281.52 718.73 284.22 718.03 288.3 718.03 290.73 716.64 294.82 715.25 300.9 714.73 305.6 714.73 309.42 715.08 317.33 715.78 323.67 715.38 327.06 715.25 328.19 Z M 601.98 1037.31 606.32 1038.44 609.98 1037.05 611.72 1035.49 609.28 1031.92 605.28 1029.14 603.72 1025.14 600.76 1023.75 598.51 1025.32 597.98 1029.84 598.51 1032.79 599.73 1034.79 601.98 1037.31 Z" fill-rule="evenodd"/>
</g>
</svg>