<?xml version="1.0"?>
<svg xmlns="http://www.w3.org/2000/svg" version="1.2" baseProfile="tiny" width="800" height="450" viewBox="0 0 800 450" stroke-linecap="round" stroke-linejoin="round">
<g id="millertonlake">
<path d="M 140.38 427.8 138.03 428.2 136.32 428.85 135.18 430.15 135.02 431.86 135.34 433.32 136.08 434.7 137.38 436.33 137.62 437.87 136.89 439.25 137.13 441.45 137.86 442.91 137.95 444.94 137.37 445.66 136.97 446.16 135.67 445.91 134.45 444.45 132.82 442.83 132.17 441.53 130.95 441.53 130.79 443.23 130.46 445.18 129.41 446.16 128.76 446 128.51 444.45 128.03 442.91 125.91 442.26 124.77 442.01 124.53 442.01 123.31 443.4 121.85 443.8 121.11 443.31 120.55 441.93 120.46 440.71 120.71 439.09 122.74 437.79 124.04 436.08 123.8 434.78 122.98 433.65 121.68 432.75 120.46 432.59 119.81 433.08 119.41 433.97 119.16 435.19 118.43 436.49 117.94 437.55 117.78 438.77 117.7 439.98 117.21 440.8 116.64 441.61 116.72 442.83 117.7 443.56 119.24 443.56 120.14 444.13 119.65 445.43 120.55 447.21 120.3 449 119.89 448.43 117.7 446.65 115.42 445.26 113.55 444.45 111.19 444.78 108.92 446.32 107.86 447.7 107.45 448.51 106.64 448.59 105.91 448.35 105.58 448.03 104.69 447.13 103.96 446.56 103.23 446.16 102.41 446 100.3 446.73 99.65 446.89 98.27 446.73 96.23 445.67 94.2 446.65 92.9 446.48 93.22 445.91 93.31 444.61 90.62 444.29 89.04 444.01 87.82 444.01 87.15 444.01 86.2 443.87 85.11 443.6 86.33 443.2 87.28 443.06 88.64 442.79 89.72 442.38 90.79 442.83 92.41 443.4 93.88 443.56 95.91 443.88 98.35 444.29 100.71 443.88 102.74 443.31 105.58 442.75 105.75 441.61 104.61 440.39 103.71 439.17 102.82 437.87 103.57 437.21 103.97 436.48 103.89 435.83 102.92 434.45 102.02 434.28 101.45 434.45 100.89 435.42 100.48 436.31 99.83 436.88 98.28 437.13 97.47 437.61 97.14 438.26 97.14 439.32 96.4 440.23 94.77 439.98 94.2 439.17 96.58 437.45 96.98 436.31 97.14 435.1 96.74 434.53 95.93 433.88 95.84 432.66 95.44 431.52 94.62 430.71 93.49 429.81 92.67 429.41 91.45 429.25 90.64 429.25 89.99 429 88.93 428.68 87.71 428.76 86.74 429 85.92 429.57 85.66 430.55 85.6 430.79 84.77 431.29 83.87 431.29 82.57 430.89 82.51 429.65 81.37 428.92 80.31 428.43 79.66 428.35 78.18 429.34 77.63 428.51 77.06 427.22 76.33 425.92 75.03 425.35 74.04 424.95 73.06 423.98 72 422.19 72.49 420.41 72.49 418.54 71.76 416.99 69.97 415.86 68.52 414.54 68.36 415.52 68.28 416.57 67.79 417.63 66.98 418.93 65.84 420.15 65.68 421.2 65.84 421.93 66.25 423.07 67.22 424.62 68.04 425.18 69.56 425.93 69.81 427.15 70.21 428.29 70.78 428.94 70.46 430.07 68.91 431.13 68.51 432.27 68.75 433.65 69.56 434.3 69.16 436.65 67.77 436.33 66.31 435.6 65.42 434.87 64.93 433.89 65.58 432.59 65.09 430.72 64.03 428.53 62.08 426.25 60.54 424.31 59.89 424.71 59.48 426.82 58.51 427.47 57.12 427.55 56.47 426.9 55.5 426.66 53.14 427.07 51.19 429.34 51.02 430.4 51.76 431.05 52.16 432.27 52.49 433.65 52.24 433.97 51.68 433.16 50.46 432.35 49.15 432.02 47.85 431.62 47.2 431.13 47.12 430.07 47.12 429.18 46.15 428.2 45.33 428.45 43.71 428.61 42.89 427.88 42.84 427.65 42.49 426.25 43.3 424.79 44.28 424.47 46.31 422.17 46.72 420.27 46.44 420 44.55 421.9 42.92 422.57 41.7 422.57 40.21 421.76 39.26 419.59 37.77 419.05 36.8 421.31 36.96 422.44 36.69 424.2 36.96 425.01 35.33 426.09 33.06 426.28 31.72 426.95 30.64 426.14 29.69 425.19 28.87 424.65 27.2 424.21 25.81 422.4 17.71 411.91 17.6 411.82 15.61 408.94 15.06 408.26 14.44 407.6 14.12 407.26 13.81 406.51 5.21 395.96 1 390.8 2.42 391.88 3.43 392.08 4.04 391 3.77 389.99 3.37 389.11 3.16 387.62 3.1 386.46 3.62 385.34 3.3 383.42 3.16 381.79 4.11 380.91 6.28 380.91 7.91 380.71 9.12 382 10.07 382.74 10.8 382.09 10.62 380.1 11.09 379.22 11.7 378.95 11.93 378.13 12.04 377.73 12.69 376.65 12.71 376.63 13.94 376.65 15.09 377.46 17.19 378.14 17.93 377.46 17.73 375.43 17.12 373.2 17.66 372.05 18.14 370.08 18.15 368.53 19.36 366.63 19.29 365.55 18.81 364.46 17.8 363.65 17.93 362.64 18.2 361.21 18.27 360.06 19.02 358.3 19.29 357.15 19.38 356.78 19.56 356.07 20.71 356.54 21.32 357.15 21.32 357.51 21.32 357.76 21.12 358.91 21.39 359.73 22.07 361.01 23.49 361.82 24.57 362.97 25.32 363.11 26.27 363.38 27.49 363.92 28.3 364.53 29.18 364.53 29.45 364.67 28.98 365.41 28.44 365.95 27.96 366.77 27.69 367.24 28.3 367.51 28.98 367.38 29.99 365.95 30.94 365.62 31.69 365.75 33.11 366.16 35.01 366.16 36.23 365.82 37.11 364.33 37.23 363.22 38.4 362.7 38.87 362.37 39.55 361.49 40.09 360.67 40.43 359.93 40.43 359.39 40.56 358.44 40.84 357.83 41.17 357.29 41.45 355.93 41.38 354.65 41.45 353.5 42.06 352.75 42.67 352.55 43.95 352.35 44.43 351.47 44.56 350.32 45.24 349.5 45.58 349.03 46.46 347.88 47.75 347.68 48.83 347.27 48.83 346.52 48.02 345.92 47.48 345.64 46.46 345.44 45.38 345.24 44.43 344.76 44.29 344.16 44.97 343.55 45.78 343 46.19 342.19 47 342.12 47.68 342.53 48.42 342.8 50.05 342.87 52.02 342.73 52.9 343 53.85 343.68 54.79 343.68 55.54 343.55 56.08 343.68 56.35 343.75 57.37 344.16 58.18 344.16 58.66 343.88 59.67 342.46 59.74 341.31 58.52 340.09 58.32 338.67 58.52 336.71 58.25 335.63 57.64 334.41 56.83 333.66 55.88 332.99 54.86 331.97 54.18 331.16 54.39 330.28 54.45 330.11 54.93 328.72 54.79 327.57 54.46 326.62 54.39 325.34 54.46 323.58 54.86 322.22 54.18 321.41 53.3 319.92 53.98 319.31 54.52 320.12 54.52 318.57 54.79 316.74 55.27 315.32 54.79 314.44 54.12 313.26 54.24 312.7 54.6 312.29 55.35 311.9 55.46 311.84 55.86 311.8 56.27 311.68 56.88 311.36 57.65 311.03 57.82 311.11 57.53 311.6 57.04 312.09 56.31 312.53 55.82 312.92 55.74 312.98 55.86 313.47 56.15 313.65 56.43 313.83 57.25 314.32 57.69 314.4 58.14 314.65 58.39 315.09 58.59 315.58 59 315.9 58.95 316.39 58.71 316.72 58.34 317.37 58.11 317.9 58.1 317.94 58.06 318.55 58.3 319.28 58.75 319.64 59.22 319.74 59.32 319.76 59.73 320.09 59.75 320.45 59.77 320.74 59.65 321.88 59.93 322.69 60.46 323.09 60.82 323.18 61.6 323.09 61.6 323.34 61.39 323.66 60.7 324.15 60.26 324.64 60.26 325.17 60.26 325.45 60.7 326.14 61.48 326.26 62.04 326.1 62.74 325.73 63.3 325.49 63.41 325.37 63.75 325 63.94 324.66 64.2 324.19 64.3 324.18 65.05 324.11 65.95 323.91 66.11 323.26 65.83 322.77 65.7 321.55 65.72 321.32 65.74 320.82 65.78 320.21 65.95 319.8 66.39 318.99 66.48 318.67 66.58 317.35 67.34 316.7 67.21 317.61 67.25 318.71 66.92 319.56 66.39 320.66 66.72 321.1 66.6 321.79 66.88 322.32 67.33 322.93 68.1 323.09 68.59 322.77 69.2 322.57 69.85 322.4 70.18 321.63 70.62 321.27 71.52 321.06 71.72 321.43 70.91 321.96 70.26 322.53 69.69 323.22 69.57 323.79 69.08 324.31 67.82 324.68 67.17 325 66.39 325.29 66.15 326.14 66.19 326.67 66.11 327.24 65.7 327.89 65.7 328.6 65.7 328.62 65.78 328.69 66.15 329.07 66.92 329.39 67.74 329.51 68.22 329.23 68.83 328.98 69.48 328.7 70.83 328.13 71.23 327.48 71.39 326.71 71.27 326.26 71.19 325.73 71.56 325.29 72.09 325.08 72.61 324.96 73.06 325.13 73.75 325.29 74.97 325.41 76.15 325.49 76.8 324.8 77.57 324.23 78.18 323.62 78.47 323.18 78.71 322.65 78.96 321.79 79.57 321.79 80.58 321.79 81.68 321.75 82.49 321.84 83.18 322.04 84 322.49 84.61 322.49 85.5 322.49 86.27 322.49 87.05 321.92 88.14 321.19 88.97 320.83 89.49 320.62 90.42 319.93 90.91 319.52 91.23 319.68 91.48 319.89 91.44 320.17 91.32 320.58 90.71 321.14 89.81 321.71 89.69 322.08 89.81 322.44 90.14 322.65 90.75 322.61 91.36 322.32 92.29 322.49 92.86 322.57 93.43 322.97 93.76 323.34 93.59 323.79 93.15 324.15 92.45 324.8 92.13 325.41 92.05 325.98 92.33 326.43 93.1 326.95 94.08 327.24 94.93 327.24 96.8 327.2 97.94 327.16 98.84 327.08 99.32 326.51 100.22 325.94 101.64 325.49 102.82 324.88 102.78 324.19 102.58 323.87 101.52 323.87 100.95 324.07 100.06 324.03 99.24 323.46 98.47 322.97 97.86 322.65 97.86 322.08 98.23 321.88 98.55 321.23 98.8 320.82 99.37 320.62 99.69 320.62 101.11 320.66 102.01 320.66 102.82 320.54 103.2 319.89 103.31 319.85 103.67 319.76 104.65 319.56 105.34 319.24 106.2 318.99 107.13 318.75 107.94 318.75 109.24 317.94 110.34 317.41 110.79 316.51 111.85 315.13 112.7 314.48 113.47 314.2 113.96 313.79 114.61 313.31 114.77 312.9 114.86 312.25 115.14 311.84 115.79 311.81 115.87 311.8 116.32 312.33 116.48 313.31 116.93 314 117.62 314.44 117.9 315.05 117.74 315.3 117.58 315.42 117.13 315.66 117.17 315.99 117.7 316.6 118.68 317 119.57 317.2 119.9 317 119.81 316.39 120.67 315.09 122.05 314.32 123.15 313.83 124.17 313.55 125.55 313.02 126.08 312.7 126.36 312.09 126.2 311.52 126.77 310.75 127.38 310.34 128.15 310.3 128.52 310.46 129.61 310.54 130.34 310.67 131.4 310.99 132.91 310.99 134.65 310.99 135.55 310.91 137.05 310.5 138.03 309.97 139.29 309.12 140.14 308.11 140.67 307.46 140.63 306.24 140.67 305.75 141.04 304.98 141.36 304.29 141.69 303.6 142.5 303.03 142.74 302.46 143.38 301.63 143.96 301.4 145.06 301.4 146.36 301.16 148.11 301 149.37 300.84 150.79 300.39 151.69 299.7 152.75 298.8 152.18 297.95 151.24 297.34 150.71 297.38 149.7 297.83 148.19 297.79 147.05 297.87 145.63 298.15 144.61 298.4 143.76 298.76 143.48 298.52 144.13 297.87 144.29 297.14 144.94 296.98 146.04 296.73 147.3 296.41 148.11 295.68 148.4 295.03 149.17 294.54 149.66 294.3 150.14 294.21 150.43 293.44 150.51 292.83 150.47 292.27 150.96 291.86 151.4 292.02 152.14 292.14 153.27 292.43 154.01 292.22 155.35 291.86 157.05 291.49 158.32 291.05 159.01 290.68 159.25 289.67 159.09 288.77 159.58 288.36 159.62 288.33 160.59 288.24 161.41 288.28 162.02 288.46 162.42 288.45 162.99 288.12 163.76 288 164.45 288.08 165.02 288.16 165.19 288.45 165.19 289.1 165.39 289.63 165.84 289.63 166.24 289.1 166.2 288.57 165.67 288.16 165.92 287.35 166.36 286.42 166.77 286.05 167.54 285.89 168.52 285.2 169.17 284.34 169.86 283.37 170.31 282.52 170.39 283.53 170.59 284.71 170.92 285.4 171.57 286.54 172.34 286.98 173.03 287.07 174.01 286.94 174.41 286.21 174.7 284.95 174.7 284.14 174.38 283.58 174.13 283.13 173.44 282.07 172.5 281.54 171.69 280.32 171.85 279.8 172.75 280.16 174.05 280.85 175.39 281.3 175.67 281.87 176 282.56 176.65 283.04 177.42 283.49 178.15 284.26 178.64 285.44 179.13 286.5 179.98 286.7 180.84 286.46 181.2 285.81 181.33 285.04 181.49 283.98 182.38 282.23 182.79 280.93 183.2 280 184.01 278.98 184.98 278.01 185.41 276.63 185.55 276.18 185.55 275.33 185.27 274.68 185.39 274.23 185.59 274.23 186.16 273.95 186.81 273.78 188.44 274.11 189.5 274.47 189.99 274.96 189.66 275.25 188.24 275.21 187.55 275.45 187.59 276.02 187.83 276.46 188.48 276.95 188.6 277.81 188.4 278.46 188.34 278.7 188.2 279.31 187.71 279.63 186.94 280.49 186.73 281.26 186.69 282.72 186.69 282.93 186.66 283.85 186.65 284.02 186.37 285.16 186.41 285.69 186.86 285.64 187.83 285.08 188.48 284.47 189.05 283.61 189.37 283.31 189.86 282.84 190.76 282.64 191.37 282.91 191.57 283 191.41 283.74 190.72 284.39 189.9 285.4 189.09 285.89 188.52 286.7 187.51 287.92 186.69 288.73 186.29 289.5 185.96 290.23 185.59 290.52 184.42 290.84 183.48 291.17 183.24 292.14 183.32 293.04 183.16 294.01 182.75 294.95 182.34 294.95 181.85 294.74 180.8 294.3 180.68 293.69 180.23 293.08 179.54 292.63 179.36 292.55 178.81 292.31 178.11 292.18 177.1 292.06 176.33 291.7 175.8 291.82 175.63 292.31 175.67 293.24 176.04 294.09 176.37 294.86 175.63 294.54 175.07 294.17 174.25 293.73 173.36 294.05 172.38 294.3 172.02 294.82 171.61 295.68 171.08 296.45 171.12 296.9 171.37 297.42 171.89 298.24 172.5 298.68 173.32 299.25 173.36 299.82 172.99 300.06 172.18 300.31 171.28 300.75 170.92 301.4 170.59 302.34 170.72 302.95 170.39 304.04 169.78 304.29 169.58 304.98 169.72 305.21 169.94 305.59 170.43 306.28 170.06 306.86 169.78 307.01 168.72 307.01 168.63 306.64 168.52 306.2 168.19 305.87 167.58 305.87 167.38 305.91 166.81 306.4 166.41 306.73 165.88 306.89 165.27 307.01 165.15 307.5 165.02 308.55 165.35 309.37 166.24 309.73 166.27 309.74 167.1 310.02 167.95 310.14 168.68 310.14 169.17 310.38 169.29 311.32 168.97 312.41 168.32 313.26 167.91 313.75 168.28 314.44 168.89 314.81 170.23 314.93 170.8 315.01 171.65 315.26 172.18 315.82 173.52 316.47 174.9 316.64 176.08 316.55 177.5 316.03 178.6 315.26 179.5 314.04 180.31 312.94 180.92 312.13 181.94 311.72 182.95 311.68 183.77 311.92 184.62 312.49 185.27 313.55 186.04 314.89 186.16 315.78 186.86 316.51 187.71 317.04 188.64 316.96 189.25 316.64 189.86 316.55 191.08 316.51 191.69 316.27 192.02 315.86 191.94 315.46 191.73 314.93 191.37 314.12 191.33 313.35 191.29 312.9 191.86 312.37 192.51 312.01 193.08 311.64 193.2 310.95 192.91 310.22 192.51 309.65 192.79 309.08 193.48 308.88 194.54 308.84 196.12 309.16 198.2 309.57 199.46 310.3 200.11 310.38 200.68 310.14 201.29 309.53 202.43 309.28 203.08 309.37 205.03 310.26 206.04 311.64 206.9 313.55 206.9 315.17 207.47 318.18 207.87 320.21 208.4 320.98 208.97 321.59 210.96 322.77 213.08 323.42 214.46 323.91 215.84 324.03 217.75 323.95 219.3 323.42 221.45 322.69 224.1 322.32 225.84 322.4 227.1 322.69 228.2 322.12 228.24 320.86 228.4 319.32 229.42 318.95 230.72 318.63 231.62 318.79 233.08 319.68 234.14 320.58 235.6 320.98 236.05 320.74 235.8 319.6 235.4 318.75 234.91 317.73 234.95 316.47 235.93 315.5 237.39 315.09 238.81 314.73 240.07 315.17 241.5 315.9 243.41 316.55 244.75 316.43 245.4 315.21 245.36 313.96 244.91 312.37 244.59 311.44 244.14 310.62 243 309.77 242.84 308.59 243.41 308.03 244.06 308.19 244.54 308.51 244.83 308.92 246.9 309.41 248.45 309.81 250.32 309.81 251.94 309.49 254.18 309.04 255.32 308.88 256.78 309.12 258 309.16 258.94 308.68 260.32 307.9 262.11 306.64 263.86 305.22 264.91 303.44 265.24 301.4 265.24 300.19 265.03 299.17 265.28 298.07 265.44 296.98 265.36 296.49 265.52 295.23 266.21 293.89 266.74 293.52 267.31 293.36 268.69 293.36 269.59 293.4 270.73 293.12 271.78 292.63 273.08 291.53 274.22 290.27 274.59 289.06 274.47 288.73 273.86 287.43 273.61 286.46 273.73 285.2 274.26 283.78 274.02 283.09 273.86 282.6 273.45 281.42 273.61 280.16 273.65 279.15 273.25 277.72 273.25 276.75 273.25 275.98 272.76 275.33 272.64 274.43 272.72 273.46 273.29 272.12 273.94 270.41 274.22 269.07 274.02 267.81 273.33 266.64 272.6 265.7 271.7 265.05 270.93 264.56 269.99 263.75 269.79 262.86 269.71 261.48 269.18 260.5 268.66 259.88 268.57 259.47 268.38 259.06 268.53 258.31 268.53 257.33 268.53 257.09 268.17 256.6 267.64 256.2 267.27 255.51 267.11 254.41 266.62 253.72 266.09 253.44 265.88 253.06 265.81 252.75 266.3 252.05 266.42 251.28 266.17 250.47 266.01 249.45 265.48 248.68 264.67 248.15 264.1 247.63 264.02 246.77 263.98 246 264.47 245.15 264.71 244.25 264.67 243.04 264.22 242.22 263.45 241.78 262.47 241.13 262.07 240.64 261.62 240.11 260.68 240.03 259.95 239.75 259.55 239.46 258.9 239.01 258.44 238.73 258.16 238.57 257.55 238.24 257.19 237.59 257.07 236.25 256.9 235.72 256.54 235.24 256.54 234.75 256.9 234.47 257.39 234.71 258.65 235.12 259.71 235.16 259.88 235.13 260.56 235.03 261.25 234.87 261.94 234.59 262.8 234.26 263.21 234.47 264.22 234.75 264.87 234.71 265.32 234.34 265.44 233.9 265.56 233.13 265.33 231.59 264.99 230.28 264.75 229.75 264.47 228.9 264.06 227.89 263.57 226.5 263.73 224.88 264.18 223.82 264.63 223.09 264.59 222.36 264.3 221.47 264.06 220.45 264.18 219.56 264.26 218.62 263.77 217.37 263.69 216.35 263.41 215.13 263.08 214.12 262.43 213.06 261.78 212.17 261.09 211.35 261.54 210.66 262.15 210.38 262.55 210.01 262.64 209.32 263.16 208.75 263.73 207.86 263.73 207.25 263.69 206.4 263.61 205.38 263.49 204.53 263.41 203.51 263.29 202.34 262.72 201.4 262.15 201 261.34 200.43 260.73 199.82 260.59 199.32 260.52 199.09 260.68 198.52 261.29 197.99 261.9 196.81 261.99 196.04 261.82 195.15 261.21 194.9 260.73 194.25 260.73 193.16 260.48 192.22 260.56 191.21 261.09 190.56 262.07 190.27 262.96 189.79 263.77 189.14 264.14 188.4 264.1 187.55 263.57 186.86 263 186.29 262.23 185.8 261.34 185.68 260.4 185.52 259.83 185.11 259.83 184.72 259.83 184.5 260.4 183.73 260.12 182.96 260.32 182.35 260.44 182.31 261.13 182.15 261.9 182.15 262.68 182.35 262.88 182.23 263.41 181.82 264.75 181.13 264.99 180.65 265.52 179.39 265.97 178.78 266.66 178.74 267.56 178.49 267.96 177.92 268.33 177.19 268.33 176.62 268.29 176.02 268.34 175.97 268.53 175.81 268.9 175.61 269.3 175.69 269.95 175.69 270.81 175.65 271.54 175.45 272.07 175.2 272.96 174.51 273.21 174.03 274.06 173.54 275.44 173.09 276.01 172.81 276.66 172.44 278.17 172.16 279.1 171.99 280.04 172.56 280.89 172.69 281.62 172.52 282.44 172.2 283 171.75 283.45 171.14 283.78 170.33 284.47 169.8 285.36 169.52 286.42 169.39 287.19 169.11 287.56 168.46 287.92 167.89 287.89 167.27 287.88 167.16 287.48 166.15 286.91 165.29 286.46 164.56 285.89 163.91 285.28 163.51 284.31 163.14 283.86 162.65 283.25 162.17 283.09 162.04 282.19 161.27 281.95 161.15 281.93 161.09 281.79 160.67 281.62 160.13 282.31 160.66 283.86 160.95 285.08 161.23 286.58 161.23 287.6 161.23 289.43 161.03 290.2 161.11 290.44 161.6 290.77 162.33 291.26 162.53 292.11 162.61 292.88 162.45 293.37 162.21 294.06 161.68 295.4 160.78 296.26 159.97 296.66 159.4 297.48 158.71 298.09 157.86 298.78 157.01 299.27 156.23 299.43 155.54 299.35 155.06 299.1 154 298.74 153.27 298.45 152.62 298.45 151.73 298.98 151.08 299.03 151.07 299.51 150.95 299.75 150.67 299.88 149.86 299.81 148.73 300.25 149.27 300.79 150.03 300.79 150.46 300.68 151 300.04 151.81 300.08 152.38 300.4 152.62 300.93 152.99 301.71 153.31 302.07 154 302.84 154.69 303.21 155.1 303.49 155.75 303.62 156.56 303.62 157.41 303.45 159.12 303.33 160.01 302.97 160.54 303.05 161.31 303.21 161.76 303.7 162.29 304.27 162.69 304.59 163.02 305.12 163.18 305.24 163.18 305.89 162.69 306.71 162.25 307.52 162.08 308.29 162 308.98 162.21 309.63 162.41 310.24 162.45 311.46 162.12 312.11 162.08 313.29 161.76 314.15 161.27 315.2 160.5 316.06 159.61 316.46 158.71 316.71 157.98 317.72 157.29 318.29 156.76 318.66 156.07 318.66 155.46 318.41 154.81 317.97 153.64 317.72 152.7 318.05 151.89 318.13 151.24 317.76 150.75 317.36 150.18 317.03 149.74 317.03 149.17 317.2 148.52 317.07 147.99 316.63 147.62 316.22 147.14 316.26 146.65 316.38 146.08 316.43 146 317.16 144.94 316.83 145.76 316.67 146.4 316.68 146.59 316.71 147.01 316.93 147.18 317.03 147.26 317.4 147.62 317.64 148.48 318.21 149.05 318.7 149.37 319.27 149.65 319.88 150.3 320.49 150.63 321.26 150.83 321.87 151.24 322.4 152.09 323.25 152.62 324.15 152.9 325 153.07 325.81 153.07 326.22 153.11 326.51 154 326.38 154.77 326.26 155.54 326.51 156.97 327.11 157.33 327.85 157.41 328.54 157.37 329.64 156.93 330.94 156.52 331.95 155.87 332.73 155.22 333.58 154 334.03 153.31 334.47 152.62 334.76 151.97 334.82 151.9 335.16 151.48 335.33 150.79 335.33 149.74 335.37 149.09 335.77 148.68 336.79 148.4 337.48 148.35 338.42 148.11 339.11 148.03 339.92 147.7 341.06 147.58 342.12 148.52 342.6 148.84 343.3 148.84 343.99 148.48 344.52 147.7 344.92 147.26 345.17 145.84 345.47 145.2 345.73 144.62 345.78 143.76 346.47 143.72 346.75 143.89 347.08 144.33 347.4 144.9 347.89 145.55 348.38 145.84 348.99 145.71 349.68 145.67 350.21 145.43 350.65 145.11 350.86 144.7 351.47 144.21 352.04 144.17 352.44 144.29 353.01 144.62 353.54 145.02 354.03 144.82 354.64 144.54 355.53 143.93 356.79 143.44 357.28 143.44 357.85 143.48 358.22 143.6 358.38 144.05 358.18 144.46 357.89 144.82 357.85 145.15 357.85 145.43 357.97 145.76 358.46 146.12 358.91 146 359.52 145.76 360.25 145.67 361.1 145.84 361.67 146.08 362.16 146.49 362.57 146.85 363.18 146.57 363.75 146.2 364.64 145.55 365.66 145.19 366.88 144.98 368.46 144.62 370.05 144.5 370.9 144.5 371.59 144.25 372.53 144.01 373.18 143.81 374.11 143.72 374.93 143.28 375.82 142.87 376.55 143.11 376.92 143.6 376.67 144.62 376.47 145.23 376.71 145.51 377.16 145.59 377.49 146.12 377.97 146.49 378.38 146.49 378.71 145.96 378.75 145.47 378.99 144.17 379.84 143.2 380.58 142.34 380.58 141.73 380.58 141.53 380.74 140.64 381.02 139.87 381.1 139.3 380.49 138.61 379.48 137.67 378.7 136.95 378.47 136.4 378.22 135.72 378.14 134.59 377.91 133.79 378.1 132.88 378.3 132.15 378.54 131.05 378.42 130.2 378.3 129.3 378.26 128.53 378.5 127.23 378.71 126.46 378.5 125.69 377.97 124.59 377 123.98 376.98 123.96 376.45 123.38 377.12 123.29 377.81 122.77 377.61 121.79 377.28 120.04 376.88 118.87 376.59 117.2 375.74 115.62 375.09 114.24 374.56 113.22 373.99 112.16 373.54 111.23 372.65 109.85 371.71 109.2 370.82 108.83 370.33 107.94 369.97 107.13 369.36 106.76 368.14 105.95 367 105.34 366.1 104.73 365.17 104.32 363.79 103.8 363.33 103.55 362.32 103.02 360.66 102.17 359.11 101.44 357.77 100.83 356.06 100.38 354.52 100.02 353.05 99.57 352.37 99.31 351.67 99.04 350.33 98.19 348.66 96.89 347.69 96.04 346.71 95.43 345.65 94.58 344.96 94.01 344.23 93.15 344.07 92.33 343.99 91.94 343.58 91 342.98 89.75 342.81 89.38 342.32 88.73 341.38 88.36 340.08 88 339.45 87.88 338.74 87.75 337.64 87.75 337.15 87.66 336.79 87.59 336.22 87.35 335.73 87.18 334.6 87.39 334.03 87.1 333.66 87.1 333.21 86.66 333.21 86.61 333.21 85.92 333.54 85.84 333.83 86.26 333.99 86.49 334.55 86.74 335.16 86.78 335.57 86.57 336.02 86.17 336.22 86.16 336.67 86.13 338.21 86.37 340.33 86.53 341.18 86.66 342.16 87.06 343.42 87.67 344.52 88.48 344.87 89 345.29 89.62 345.94 91.16 346.44 92.2 346.47 92.26 347.04 92.91 347.61 93.48 348.38 94.21 349.35 94.78 349.43 94.82 350.65 95.51 351.39 95.79 352.48 96.28 353.5 96.73 354.88 97.14 355.94 97.42 357.32 97.83 357.65 97.97 358.34 98.27 359.44 98.72 360.45 99.13 361.14 99.37 362.2 99.69 362.97 100.06 363.66 100.26 364.31 100.79 364.58 100.97 364.84 101.16 365.29 101.24 366.43 101.6 367.57 102.05 368.54 102.5 369.19 102.78 369.8 103.02 370.25 103.51 370.78 103.84 371.55 104.41 372.4 104.61 373.06 104.73 373.09 104.78 373.54 105.46 373.79 105.66 374.32 106.27 374.72 106.84 375.29 107.13 375.9 107.49 376.43 107.86 377.41 108.71 377.61 109.12 378.14 110.25 378.71 111.11 379.32 112.25 380.21 112.89 380.66 113.63 380.94 114.64 381.09 114.98 381.47 115.86 382.12 117.12 382.93 118.26 383.5 119.11 383.87 120.53 384.24 120.94 384.36 121.63 384.32 122.4 384.28 123.29 384.36 123.98 384.89 124.43 385.5 124.47 386.11 124.43 386.96 124.67 387.53 124.55 387.81 124.27 388.3 123.66 388.87 123.5 389.56 123.37 389.67 123.97 389.68 124.02 389.48 125.12 389.4 126.22 389.24 126.99 388.54 127.44 387.69 127.8 387.16 128.21 387.02 128.49 386.8 128.94 386.33 129.88 385.35 130.21 384.37 131.18 383.91 131.42 383.54 132.31 384.07 133.33 385.21 134.67 386.06 135.93 387 137.23 387.65 138.2 388.5 140.03 388.71 141.29 388.95 143.72 389.28 145.96 389.88 147.45 389.72 148.92 389.43 149.57 388.63 150.51 388.46 151.16 388.87 151.69 389.44 151.85 389.86 152.24 389.97 152.34 390.5 152.62 391.23 152.66 391.75 152.49 391.91 153.38 392.07 155.33 392.56 156.63 393.05 157.93 394.27 158.66 395.24 158.74 395.9 158.83 396.63 159.07 397.68 159.88 398.5 160.53 399.55 161.67 400.45 162.4 402.4 163.29 404.03 163.94 404.85 164.66 405.04 164.82 405.53 164.85 405.85 165.04 406.45 165.36 407.05 165.18 407.7 165.2 408.18 165.85 408.29 166.39 407.83 166.01 407.21 165.83 406.67 165.93 406.3 166.06 406.06 166.71 405.66 167.25 405.16 167.92 404.51 168.82 404.76 170.2 405.73 171.58 406.92 172.34 407.6 173.45 408.5 174.34 409.8 175.07 410.77 175.48 412.56 176.45 413.62 176.7 414.35 176.78 415.65 176.94 416.39 177.1 417.36 178 417.77 179.7 418.5 181.25 419.36 182.15 419.88 182.71 422.16 184.42 423.7 185.88 424.43 187.75 425.17 189.37 425.74 189.86 426.55 190.35 427.61 190.91 428.74 191.32 430.31 191.9 431.36 192.22 432.08 192.6 432.16 194.65 433.22 195.63 434.68 196.06 435.98 196.6 436.85 196.93 437.82 197.25 438.58 197.79 439.66 198.12 440.53 198.34 441.84 199.93 442.89 200.5 444.93 201.64 445.98 202.53 446.48 203.35 447.12 204.4 447.93 206.02 448.99 206.59 450.29 207.73 451.35 209.03 451.42 209.47 451.59 210.57 452.46 212.77 452.46 213.83 452.46 215.23 453 217.83 453 218.03 453 219.67 452.89 221.19 452.57 222.38 451.81 224.44 451.27 225.96 449.96 228.23 448.12 229.75 446.6 231.81 445.41 233.32 444.65 235.27 443.89 237.33 443.38 239.16 443.31 239.47 443.11 239.62 443.11 239.81 443.03 239.87 442.72 240.56 442.45 242.16 441.08 243.09 438.58 244.69 437.2 246.16 436.31 247.62 435.25 250.05 433.05 250.87 430.37 252.33 426.96 253.39 425.09 254.12 422.97 255.25 420.94 257.45 419.8 258.99 418.42 261.18 416.4 263.81 415.82 264.27 414.43 267.03 414.68 268.74 414.76 270.77 414.84 273.45 415.73 275.4 416.14 278.49 416.55 280.92 417.93 284.26 418.99 285.88 419.96 288.32 421.67 289.37 424.52 289.78 425.9 289.94 427.36 289.45 429.96 288.32 433.62 286.29 434.76 284.5 435.98 283.77 436.88 282.14 437.61 280.68 438.83 279.95 439.88 279.14 441.75 278.16 442.81 277.19 443.38 276.38 443.54 275.08 444.52 274.83 446.31 274.59 447.85 273.45 449.88 271.99 451.19 270.61 452.97 269.96 454.11 269.39 454.76 268.09 455.82 267.76 457.12 268.01 458.83 267.6 459.8 266.71 460.86 265.73 461.92 265.9 464.03 265.65 467.77 264.51 470.38 263.62 471.76 262.32 472 260.93 473.87 261.83 475.25 261.51 476.15 260.78 476.94 260.42 477.04 260.37 477.94 260.78 480.46 260.94 484.93 260.7 489.65 259.48 493.06 257.2 494.04 255.25 495.17 252.9 496.96 250.87 497.7 249.89 498.43 247.78 499.16 245.75 500.22 243.8 501.19 241.36 501.48 238.22 501.76 237.46 501.92 236 501.76 234.62 501.76 233.97 502.41 232.51 502.57 230.8 502.82 228.93 502.88 228.85 503.47 228.12 504.53 227.47 505.74 226.5 507.37 224.38 509 222.92 511.52 221.78 514.04 220.73 515.42 219.51 516.48 217.64 517.7 216.42 518.67 213.82 519.08 209.84 519 206.51 519 205.13 518.75 203.91 519.97 202.94 520.3 201.48 519.97 200.89 519.65 200.34 518.75 199.28 517.86 199.04 517.29 198.47 517.53 197.41 518.51 196.68 519.73 195.3 519.97 193.84 520.14 192.54 520.67 192.07 521.6 191.24 522.58 190.02 521.76 189.94 520.95 190.35 519.73 191.16 518.59 191.16 518.2 191.21 517.45 191.32 516.14 191.37 514.78 190.96 513.83 190.96 514.11 190.55 514.53 189.94 515.63 189.47 515.66 189.45 517.53 188.8 518.27 187.75 519.32 187.58 520.46 186.69 521.76 185.96 523.63 185.47 524.96 184.81 525.1 184.74 526.71 183.51 528.64 181.82 529.09 181.31 529.44 180.88 529.63 180.5 529.75 180.4 530.1 180.25 530.48 180.03 530.85 179.85 531.11 179.73 531.13 179.69 531.3 179.5 531.53 179.22 532.34 177.91 533.88 176.21 535.18 175.07 535.83 174.02 536.56 172.64 537.7 171.09 539.08 169.63 539.78 168.87 540.06 168.57 541.28 168.17 542.25 167.52 542.83 166.05 543.78 164.96 544.07 164.47 544.57 164.19 545.18 163.62 545.51 162.36 545.79 161.18 546.07 160.82 546.85 160.21 547.17 159.72 547.42 158.74 548.47 157.97 548.96 157.08 549.25 156.1 549.54 154.7 549.48 153.56 548.62 151.88 547.53 150.69 546.23 149.82 545.64 149.39 544.39 147.82 544.39 146.47 543.52 145.11 542.6 144.46 541.3 143.54 540.49 142.84 540 141.92 539.62 140.56 539.08 139.43 538.32 138.4 537.4 137.42 536.69 136.61 535.82 135.8 535.07 134.34 534.25 132.44 534.14 131.19 533.71 128.92 533.17 127.08 532.37 126.23 532.03 125.24 531.22 124.05 529.97 121.99 528.94 119.98 527.75 118.2 526.93 117.55 526.51 116.26 526.39 115.92 526.55 114.03 526.55 112.29 526.34 110.83 525.63 109.8 524.82 109.37 524.33 108.34 524.01 107.2 523.63 106.09 523.57 105.9 523.95 104.33 523.63 103.74 523.95 102.82 524.44 102.82 525.09 102.98 525.9 103.57 526.83 105.2 527.75 105.96 529.43 106.23 530.84 106.01 530.87 105.97 531.92 104.49 533.66 102.44 534.58 101.57 534.85 100.38 535.39 98.97 535.88 98.21 536.04 97.4 536.47 96.32 536.58 95.18 536.75 93.77 538.43 92.96 538.91 92.9 539.29 92.15 538.7 91.77 538.48 90.96 538.64 90.03 539.24 88.84 539.89 88.03 541.24 87.16 542.38 86.73 543.41 86.08 544.88 85.21 545.53 84.13 547.26 82.94 548.35 81.15 549.16 78.44 549.59 76.87 550.03 75.2 549.7 73.68 549.43 72.43 549 70.27 548.94 68.53 548.45 66.85 548.45 65.23 548.73 63.01 549.16 60.68 549.38 58.95 549.35 58.77 549.21 57.92 549.54 57 550.89 55.86 551.65 53.8 552.41 50.34 552.57 48.71 553.5 47.9 553.89 46.96 554.04 46.6 553.87 44.38 553.87 43.95 553.87 42.92 553.93 42.38 554.36 42.32 555.5 42.16 556.48 42 556.96 41.24 557.4 40.16 558.59 37.99 559.3 36.53 559.19 35.5 559.13 34.47 559.57 33.01 560.27 32.36 561.19 30.52 562.28 28.35 562.76 27.27 562.71 26.29 563.2 24.99 563.79 24.5 564.55 23.47 564.61 22.82 564.82 21.58 565.58 20.66 567.05 20.23 569 19.36 569.51 18.6 569.65 18.38 570.14 17.25 571 17.41 571.65 16.54 573.12 14.92 573.74 13.64 574.42 12.97 574.91 11.99 574.74 11.67 575.18 10.96 577.94 9.66 579.73 8.64 581.68 7.55 582.66 7.28 583.74 7.17 584.66 6.85 585.59 6.41 587.16 5.93 588.89 5.01 590.19 4.3 591.22 3.87 592.52 3.92 593.83 3.87 595.02 3.22 595.45 2.79 596.59 2.14 597.19 1.43 597.56 1.51 597.73 1.54 598.05 2.08 597.89 3.11 598.11 3.54 598.87 3.44 600.38 3.44 602.44 3.11 603.64 2.79 604.99 2.57 606.08 2.79 607.43 2.84 608.57 2.84 610.41 2.62 612.31 2.35 614.21 2.19 616.1 2.03 617.24 2.03 618.65 2.14 619.84 1.92 620.82 1.49 622.39 1.05 622.77 1 623.15 1.04 623.31 1.05 624.24 1.22 625.75 1.49 627.49 1.92 628.41 2.62 629.76 3.11 631.44 3.92 631.8 4.06 632.47 4.3 633.61 5.28 634.64 6.2 635.73 6.96 636.87 7.93 637.57 8.47 638.76 8.96 639.9 9.72 639.98 9.75 640.91 10.32 641.2 10.63 641.51 10.96 642.43 11.47 643.34 11.91 643.88 12.28 644.41 12.5 644.96 12.73 645.45 13.06 645.8 13.36 646.28 13.44 646.57 13.78 648.03 14.7 649.44 15.3 651.07 16.38 652.1 17.3 653.13 17.79 654.27 18.44 656.11 18.98 658.55 19.52 660.12 19.63 660.93 19.95 662.07 20.23 663.26 20.6 664.19 21.15 665.49 22.12 666.35 22.93 666.98 23.26 667.17 23.37 668.31 23.8 669.44 24.12 670.15 24.61 670.58 24.94 670.64 26.18 670.8 27.05 671.61 27.21 672.26 27.54 673.4 27.86 674.97 28.35 676.6 29.49 677.68 30.57 678.44 31.54 679.42 32.25 679.96 33.22 681.04 33.71 682.13 34.09 683.05 34.63 684.08 35.34 685.06 35.66 686.09 36.15 686.68 36.15 687.28 36.15 687.92 36.3 688.42 36.42 689.23 36.47 689.77 36.47 690.96 36.69 691.89 37.23 692.86 37.77 693.78 37.93 694.43 37.72 694.76 37.07 694.97 36.8 695.57 36.69 696.49 36.74 697.41 37.12 698.37 37.96 698.72 38.26 700.18 38.75 701.53 38.58 701.83 38.51 703.16 38.21 704.04 37.93 704.89 37.66 705.92 37.01 707.06 36.47 707.98 35.71 708.91 35.5 710.1 35.06 711.35 34.58 712.54 34.31 713.3 34.25 714.33 34.63 715.14 34.96 715.41 34.41 716.01 34.2 717.04 34.52 717.85 34.69 717.96 34.09 717.69 33.6 716.71 32.63 717.09 31.98 717.47 32.03 718.39 32.52 719.18 32.87 719.86 33.17 720.94 32.95 722.24 32.9 723.49 32.36 724.08 32.36 724.63 32.52 725.22 32.52 725.76 32.74 726.63 33.17 727.44 33.71 728.69 34.52 729.5 34.74 730.37 34.2 731.4 33.71 732 32.84 733.14 32.74 734.17 32.74 734.87 33.01 736.06 33.93 736.44 35.34 736.55 35.52 736.88 36.09 737.4 36.47 737.64 36.63 737.85 37.18 738.5 37.99 739.53 38.26 740.13 38.53 741.43 38.96 742.51 39.29 743.98 39.4 744.74 39.72 745.6 40.21 746.77 40.55 746.91 40.59 748.42 40.53 749.4 40.48 750.92 40.86 752.22 40.91 753.6 41.17 755.5 41.31 757.13 41.04 760.11 41.44 761.6 41.72 764.71 42.39 767.15 43.07 769.32 43.75 771.49 44.69 771.56 44.72 774.74 45.78 777.95 47.17 778.81 47.54 780.71 47.81 781.92 48.21 782.74 48.08 783.55 47.67 784.5 47.81 785.58 48.21 786.53 48.49 787.89 48.49 789.24 48.35 790.6 48.08 791.82 48.08 793.58 47.81 794.8 47.94 797.1 47.27 798.24 47.27 799 47.27 798.05 48.08 796.56 48.49 795.34 48.76 793.99 49.03 792.77 49.84 791.68 50.65 790.46 49.97 789.24 49.43 788.16 49.57 786.13 49.84 783.82 50.11 781.92 50.25 780.03 50.25 778.94 49.97 777.99 49.3 776.37 48.49 774.74 47.67 773.39 47.13 771.49 46.45 769.59 46.18 768.35 45.8 767.42 45.51 765.53 44.69 763.22 44.02 761.06 43.48 757.67 43.07 754.28 42.66 750.76 42.39 749.54 42.26 748.18 42.12 746.69 41.72 745.87 41.97 744.14 41.4 743 40.97 741.81 40.59 740.62 40.59 739.37 40.64 738.45 40.37 737.31 40.05 736.38 40.09 736.06 40.1 735.25 39.61 734.65 39.83 733.57 39.45 732.05 38.53 731.78 37.93 731.73 37.83 731.24 36.69 730.05 36.8 728.47 36.47 726.52 35.82 724.9 35.17 723.11 35.44 721.35 35.7 721.27 35.71 720.29 35.82 719.04 35.88 717.74 35.88 717.04 36.09 716.06 36.58 715.03 37.07 712.81 37.83 711.72 38.1 710.38 38.28 710.15 38.31 708.74 38.42 707.06 39.18 705.65 39.61 704.35 40.32 703.32 41.13 702.68 41.17 701.75 41.24 700.61 41.35 699.58 41.62 698.34 41.67 697.25 41.51 696.06 41.02 695.4 40.56 695.14 40.37 694 39.88 692.64 39.78 691.72 39.99 691.02 40.1 690.31 39.78 689.5 39.18 688.52 39.07 687.6 39.07 686.03 38.69 685.11 38.8 684.19 39.02 683.05 38.86 681.8 38.31 681.04 37.99 679.85 37.99 678.93 37.72 678.01 37.39 677.36 37.18 676.6 36.63 676 36.26 675.3 35.99 674.7 35.12 674.76 34.36 675.3 33.93 675.59 33.69 675.84 33.49 675.41 32.79 674.76 31.98 674.32 32.36 673.94 32.84 673.86 32.63 673.51 31.71 672.7 30.62 671.72 30.19 670.74 30.08 669.82 29.92 669.39 30.3 669.39 30.7 669.39 31.33 669.77 32.14 670.64 32.57 671.56 32.84 672.15 33.44 672.37 34.58 671.94 34.69 670.42 34.25 669.55 34.04 669.39 34.14 668.2 33.93 665.92 33.33 664.29 32.19 663.59 30.79 663.37 29.59 663.16 29 662.56 29.43 662.07 29.59 661.8 29.05 661.69 27.81 661.26 26.94 660.88 26.13 660.72 25.1 660.07 24.77 659.2 24.77 658.11 24.4 656.54 24.5 654.48 24.5 651.97 24.46 651.07 24.45 649.6 23.99 649.33 23.91 647.92 22.77 646.89 21.58 645.76 20.5 645.15 19.77 644.94 19.52 644.29 18.55 643.53 17.68 642.5 16.76 641.96 15.57 641.31 14.9 641.26 14.77 640.54 14.13 639.9 13.55 637.6 12.2 636.63 11.69 636.16 10.91 635.35 10.26 634.21 9.83 633.13 9.45 632.42 8.96 631.5 8.64 630.85 8.47 630.14 8.36 629.6 7.99 628.79 7.66 627.6 7.34 626.18 7.25 625.4 6.92 624.33 6.73 623.37 6.2 622.18 6.09 621.74 6.09 620.12 6.09 618.9 6.51 617.13 6.63 615.78 6.79 614.21 6.96 611.71 7.55 609.44 8.47 607.92 8.69 607.11 8.8 606.4 9.29 605.1 9.5 603.53 9.72 600.71 9.56 599.3 9.66 598 9.88 596.05 10.31 594.42 10.48 592.42 10.59 591.06 10.59 589.33 10.64 587.92 10.86 586.89 11.02 585.75 11.45 584.56 11.72 583.63 12.1 583.15 12.64 582.31 13.55 581.74 14.16 581.47 14.76 581.36 15.35 581.25 15.89 580.6 16.54 580.17 17.3 579.79 18 579.79 19.03 580.11 19.74 581.14 20.33 581.79 21.04 582.5 21.58 582.98 22.45 582.87 22.9 582.66 23.2 582.06 24.23 580.76 25.05 580.17 25.7 579.68 26.78 579.57 27.54 579.68 28.35 580 29.05 580.71 29.7 580.9 29.84 581.24 30.07 581.14 30.84 580.27 31.54 578.38 32.46 577.18 32.95 575.88 33.49 574.85 34.09 574.09 35.01 574.09 35.66 574.2 36.2 574.53 37.07 574.31 37.5 573.17 38.64 572.03 39.72 569.92 40.59 568.78 40.81 567.75 41.4 567.1 42.27 566.45 43.19 565.31 43.84 564.66 44.38 564.23 44.92 562.81 46.69 561.46 47.5 559.7 49.26 558.21 52.24 556.99 54.13 555.77 56.84 554.68 59.68 554.68 61.44 554.82 63.47 555.36 64.42 556.17 65.23 557.26 66.32 558.21 67.54 558.57 68.08 558.7 69.67 559.02 70.38 559.62 71.03 560.49 71.57 560.72 71.78 561.08 72.11 561.23 72.62 560.24 73.22 559.7 74.17 559.43 75.25 559.95 77.04 560.38 78.66 560.81 79.53 561.41 80.56 562.11 81.1 563.09 81.37 563.33 81.61 563.47 81.75 562.55 82.07 561.68 82.78 561.25 83.54 561.14 84.4 561.19 85.14 560.92 86.9 559.7 88.25 559.06 88.88 558.48 89.11 557.18 89.66 556.37 90.03 555.07 90.85 554.47 91.39 553.93 92.63 553.71 93.72 553.39 94.85 552.9 95.99 552.47 97.35 552.25 98.43 552.19 99.35 552.74 99.73 553.87 99.78 554.63 100 554.8 100.6 555.34 101.25 556.26 101.3 556.86 101.25 557.34 101.08 557.72 101.14 557.72 101.89 557.89 102.44 558.75 102.71 559.43 102.47 561.05 103.82 559.02 103.19 558.27 103.19 557.56 102.92 556.75 102.49 556.15 102.65 555.28 103.19 554.36 103.74 553.71 104.6 553.61 104.9 553.39 105.52 553.39 106.77 552.36 107.91 550.89 108.56 550.7 108.62 549.16 109.15 548.73 109.8 548.62 111.16 548.78 112.46 549.21 113.76 548.94 114.46 547.91 114.95 547.97 115.81 548.24 116.79 548.83 117.28 549.43 117.27 548.29 117.71 547.8 117.87 546.83 117.93 546.34 118.2 546.67 118.58 547.32 119.23 547.59 120.15 547.97 121.39 548.56 122.26 549.14 122.53 549.38 122.64 550.24 122.37 551 122.2 551.54 121.93 551.66 121.65 551.76 121.39 551.71 120.74 551.7 119.8 552.11 119.26 552.47 120.42 553.17 120.8 553.82 121.07 554.89 121.47 553.93 121.99 553.5 121.99 552.52 122.2 551.92 122.69 551.16 123.61 550.41 124.7 550.41 125.35 551 125.78 551.82 126.59 551.82 126.97 551.44 127.4 550.68 128.27 549.92 129.19 549.54 130.33 549.38 131.41 549.86 131.9 550.51 132.66 550.41 133.63 550.19 134.39 550.24 134.82 550.46 135.58 550.48 135.59 550.89 135.91 551.52 135.57 551.6 135.53 552.41 135.42 553.12 135.47 553.57 135.52 553.6 135.53 553.93 135.96 553.22 136.39 552.74 136.93 552.41 137.91 551.98 138.83 551.6 139.81 551.65 140.56 552.63 140.73 553.44 141.38 552.47 141.92 551.98 142.35 551.98 142.51 552.25 143.05 552.57 143.87 553.06 144.68 553.5 145.38 553.82 145.76 554.9 146.36 555.99 146.85 557.13 147.17 557.62 147.28 557.89 147.66 557.99 148.25 558.48 148.58 559.13 148.85 559.84 149.28 560.11 149.82 559.57 149.93 558.65 149.72 557.95 150.13 557.83 150.2 557.78 150.69 557.72 151.5 557.29 152.21 556.75 152.64 556.31 153.34 556.42 153.99 556.86 154.48 557.4 154.86 557.62 155.73 558.16 156.32 558.43 156.76 558.48 157.68 559.19 158.22 560 158.87 560.46 159.88 560.22 160.39 560 160.71 559.57 161.36 559.73 161.69 560.22 162.01 560.05 162.44 559.35 163.09 559 163.24 557.94 163.69 557.24 164.61 556.53 165.53 555.12 167.21 554.63 167.75 554.47 168.24 554.53 168.68 554.58 169.05 554.15 169.43 553.55 169.54 552.52 170.03 551.82 170.89 551.33 172.08 550.62 173.65 550.08 174.57 548.78 175.98 548.02 177.5 547.15 178.47 546.39 179.12 546.23 180.21 546.45 181.51 546.45 182.37 546.07 183.13 546.34 183.56 546.94 183.62 547.1 183.89 547.21 185.08 547.32 185.68 546.99 186.65 546.5 187.14 546.12 187.9 546.45 188.22 547.1 188.66 548.24 189.25 549.05 189.63 549.21 190.12 548.94 190.98 548.96 191.06 549.1 191.8 548.89 192.45 548.4 192.93 547.91 193.75 547.37 194.61 546.77 195.21 545.31 195.43 544.17 195.37 543.2 195.48 541.84 195.8 541.14 196.62 541.14 197.16 541.46 197.86 542.38 198.24 543.14 198.78 543.9 199.32 544.39 199.97 544.5 200.52 544.5 201.27 543.9 202.03 542.65 202.3 542.11 201.87 541.68 201.22 540.92 201.27 540.11 201.33 539.67 201.6 539.76 202.13 539.78 202.25 540.21 202.74 540.87 203.44 540.87 204.04 540.43 204.79 540.38 205.28 540.17 205.57 539.18 205.66 538.1 205.5 537.23 205.66 536.85 206.37 536.75 206.96 536.75 207.77 537.34 208.26 537.72 208.75 537.99 209.07 538.05 209.94 537.88 211.29 537.13 211.56 536.2 211.4 535.66 211.73 535.39 212.38 535.07 213.03 534.74 213.62 534.6 213.7 533.98 214.06 533.6 214.38 533.93 214.98 534.2 215.14 534.79 215.25 535.07 215.03 535.44 214.98 535.55 215.36 535.44 215.68 535.09 216.41 533.98 216.49 533.33 216.76 532.79 217.09 532.35 217.63 532.35 218.44 532.19 219.04 531.65 219.96 531 221.26 530.13 222.88 529.27 223.59 528.24 224.02 527.64 224.24 527.15 224.78 526.84 225.27 526.77 225.37 526.39 225.86 525.47 225.86 524.17 226.02 523.09 225.92 521.57 226.46 520.86 226.84 519.67 227.38 519.56 227.49 518.75 228.03 517.77 228.41 517.29 228.57 516.58 228.68 515.77 228.73 515.23 228.84 514.85 229.11 514.52 229.54 514.14 229.82 513.98 230.36 513.98 230.79 514.14 231.22 514.14 231.66 513.76 232.31 513.38 232.25 513.11 232.04 512.73 231.87 512.19 231.6 511.7 231.66 511.43 231.82 511.27 232.52 511.27 233.5 511.38 234.47 511.86 235.29 512.35 235.72 512.24 236.21 511.65 236.42 511.21 236.75 511.11 237.07 511.45 237.67 511.45 238.13 511.45 239.22 511.18 241.25 511.18 242.19 510.67 242.87 510.89 243.73 511.38 243.9 512.08 243.84 513.06 243.79 513.92 243.79 514.58 243.67 515.11 243.48 515.46 243.47 515.79 243.52 516.01 243.63 516.01 244.02 515.84 244.35 515.92 244.7 516.14 244.89 516.54 245.33 517.17 245.68 517.4 245.89 517.63 246.25 517.76 246.85 517.74 247.14 517.52 247.03 516.95 246.74 516.57 246.39 515.95 246.36 515.12 246.21 514.89 246.17 514.16 246.14 513.67 246.3 512.64 246.66 511.61 246.98 510.75 247.44 509.72 247.74 508.88 248.28 508.39 248.85 508.22 249.44 507.36 250.28 507.07 251.22 506.15 252.14 505.33 252.58 504.41 254.11 503.73 254.79 502.62 256.15 502.52 257.07 502.3 257.99 501.81 259.4 500.89 260.54 499.64 262.16 498.61 263.25 497.31 264 496.12 264.87 495.24 265.25 494.98 265.36 494.11 266.01 493.3 266.93 492.81 267.8 492.11 268.17 490.64 268.82 489.84 268.96 489.67 268.99 489.29 268.61 488.91 268.61 487.55 268.61 486.04 268.99 484.14 269.37 483.33 269.47 482.73 270.12 481.48 270.83 480.67 271.59 479.86 272.24 479.26 273.27 478.78 273.72 478.45 274.02 477.53 274.57 477.2 274.13 476.77 273.21 475.85 272.62 474.87 272.4 474 272.29 473.24 272.29 472.7 272.45 471.35 272.78 470.21 273.16 469.18 273.54 467.44 273.75 465.38 274.46 462.4 275.76 461.37 276.19 460.29 276.89 458.93 277.76 458.01 278.68 457.58 279.82 457.69 280.52 458.01 281.5 458.05 281.56 458.23 281.88 458.77 282.42 459.15 282.59 459.66 282.81 459.42 282.83 458.39 282.91 457.74 282.91 456.98 282.91 456.22 282.74 455.36 282.47 454.43 282.74 453.93 282.95 453.61 283.09 453.4 283.18 453.39 283.19 452.59 283.99 451.99 284.91 451.89 285.78 451.94 286.59 452.03 287.13 451.45 287.51 450.48 287.51 449.56 287.56 448.58 287.67 447.71 288.05 447.01 288.48 446.25 289.08 445.6 289.57 444.73 290.38 443.92 291.19 443.32 291.9 442.89 293.14 443.16 294.01 443.54 294.6 443.43 295.25 443.38 296.55 443.48 297.31 443.81 297.69 443.81 298.12 443 298.12 442.87 298.11 442.45 298.07 441.97 297.96 441.53 297.58 440.83 297.04 440.01 296.77 438.93 296.39 438.5 296.5 437.52 296.82 436.92 297.37 436.22 298.39 435.73 299.21 435.3 300.34 434.97 301.26 434.58 301.46 434.54 301.48 433.84 301.21 433.4 300.67 432.91 299.91 432.26 299.64 431.07 299.42 429.17 299.8 428.03 300.07 426.73 300.34 425.43 300.67 424.62 300.94 423.92 301.54 423.54 302.19 422.94 303.16 422.23 303.65 421.31 303.21 420.83 301.99 420.83 301.97 420.07 301.59 419.52 301.26 418.71 300.72 417.63 300.29 415.62 299.69 414.21 299.21 412.53 298.77 411.61 298.12 410.74 297.31 410.04 296.44 409.17 295.52 409.15 295.52 408.36 295.2 407.72 294.43 407.6 294.28 407 293.52 406.24 292.65 405.65 291.73 404.89 291.3 404.13 290.92 403.48 290.65 402.8 290.55 402.72 290.54 402.34 290.16 402.29 289.57 401.93 289.37 401.69 289.24 401.22 288.77 402.3 287.9 403.06 287.14 403.06 286.49 402.73 285.08 402.63 283.67 402.08 281.83 401.76 280.42 401.54 277.93 399.58 277.02 399.21 276.6 398.91 276.02 398.3 275.75 397.99 275.14 398.12 275.03 398.43 274.74 399.04 274.57 400.06 274.16 400.8 273.66 401.14 273.01 401.62 272.03 401.96 270.47 402.13 269.12 401.92 268.44 401.38 267.93 400.53 267.66 399.69 267.36 399.64 267.28 399.38 266.85 399.41 266.34 400.02 265.77 401.14 265.13 401.41 264.55 401.11 264.08 400.6 263.4 399.72 262.99 398.84 262.11 398.61 261.76 398.47 261.54 398.67 261.37 399.31 261.27 399.85 261.1 402.28 260.61 404.4 259.31 405.29 257.69 405.78 256.23 406 255.26 406.19 254.44 407.24 253.95 407.98 253.38 408.46 252.49 408.46 251.19 409.36 250.54 410.5 250.22 410.42 249.24 410.56 248.45 410.58 248.35 411.63 248.02 412.45 247.37 412.59 246.42 413.75 245.67 414.48 244.53 415.78 243.23 416.19 242.34 415.7 241.28 415.13 240.14 415.19 239.72 415.3 238.98 416.76 239.82 418.3 240.06 420.09 239.9 421.23 240.22 422.53 240.14 423.18 239.98 423.91 239.17 425.05 238.6 426.35 237.95 427.33 237.14 428.55 235.51 430.01 234.46 431.31 234.13 433.26 233.32 434.89 232.42 436.11 231.45 436.52 229.91 436.68 228.44 437.82 227.47 438.96 225.68 438.77 224.28 440.01 222.92 440.74 220.4 441.15 218.53 441.8 216.34 442.13 214.39 441.8 213.09 441.07 211.95 439.97 211.1 439.69 210.27 438.33 208.92 435.76 207.29 435.08 206.93 434.48 205.86 433.18 205.13 432.29 204.64 430.91 204.07 429.44 202.77 428.03 201.88 426.6 200.34 425.7 199.85 424.32 198.95 423.1 198.39 422.61 197.33 421.31 196.27 419.5 195.11 418.41 193.76 416.38 192.27 414.48 190.91 413.3 190.05 412.2 188.96 411.07 188.48 409.76 187.74 408.95 187.42 407.98 186.85 407.65 186.04 406.92 185.39 406.27 184.82 405.21 183.93 404.48 182.79 403.91 181.9 402.93 181.16 402.12 180.84 401.31 180.51 401.06 180.27 400.5 179.3 399.6 177.91 397.41 176.7 396.35 175.31 395.37 174.58 394.56 173.93 393.34 173.45 391.96 172.96 390.77 172.5 388.14 171.66 386.35 171.5 384.15 171.9 383.01 172.07 381.39 172.39 379.68 172.63 379.16 172.76 377.97 173.04 376.92 173.85 374.72 174.67 372.93 174.91 371.79 174.99 370.25 175.07 369.68 175.8 369.03 176.37 368.13 177.1 367.16 176.78 366.67 176.78 365.69 177.18 365.04 177.67 363.5 178.73 361.95 179.78 360.41 180.19 358.3 180.11 356.02 179.95 354.8 179.86 353.58 179.62 352.69 179.54 351.79 180.19 351.79 180.84 352.36 181.25 353.09 181.73 352.85 182.63 351.95 183.13 351.56 183.34 351.38 183.44 350.82 183.76 350.25 183.44 347.97 182.06 347.16 180.68 346.83 179.46 346.34 178 345.53 177.51 344.31 177.51 343.58 178.48 343.17 179.62 343.74 180.35 344.23 181.41 343.66 182.38 341.95 182.63 340.57 182.63 338.86 182.63 338.37 182.55 338.21 183.28 339.19 183.84 339.84 184.25 339.68 184.74 338.78 184.98 336.75 185.55 336.33 185.67 335.28 185.96 334.31 186.53 333.5 187.09 332.28 186.93 331.22 186.2 330.41 184.74 329.27 183.11 328.29 182.06 326.58 181.41 325.69 181.16 324.23 181.33 322.84 181.9 322.28 182.79 320.41 183.11 319.35 183.36 318.05 183.52 316.91 184.17 315.61 184.66 314.79 185.39 313.9 186.36 312.52 187.58 311.54 188.23 310 188.23 309.18 187.99 308.05 187.42 306.75 186.85 305.85 186.69 304.58 186.85 303.22 187.26 302 187.93 300.38 188.2 299.29 188.2 297.8 188.47 296.58 188.64 295.12 188.8 293.57 189.13 292.92 189.94 292.35 190.91 292.52 191.56 293.25 192.05 293.65 192.94 293.25 193.76 292.43 194.49 291.62 195.46 291.21 197.01 291.3 197.98 291.78 199.28 292.35 200.66 292.6 201.47 293.08 202.61 293.57 203.1 294.39 203.02 295.2 203.02 296.42 203.26 297.72 203.67 300.4 202.94 301.62 202.45 303.33 202.12 304.39 201.39 304.47 200.42 304.96 199.93 305.36 200.34 305.69 201.23 307.07 201.31 308.21 200.66 308.86 200.17 311.08 199.44 311.76 199.85 311.08 200.66 310.24 200.9 308.62 201.72 306.77 202.28 306.75 202.29 306.4 202.46 305.61 202.85 305.22 203.03 304.55 203.34 304.53 203.37 303.57 204.64 302.92 205.7 302.11 206.35 301.46 207.24 301.22 207.89 301.13 208.78 301.7 209.6 302.35 209.68 303.15 209.84 303.17 209.84 302.52 210.57 301.38 211.14 300.48 211.3 299.43 211.3 298.37 210.98 297.56 209.84 296.91 209.43 296.42 210.25 296.83 210.98 297.15 211.22 298.21 211.79 298.71 212.29 298.78 212.36 298.94 213.41 298.53 214.23 298.37 215.85 298.53 216.5 299.18 218.05 300.08 218.7 300.81 219.51 301.05 220.08 300.48 220.56 300.46 220.58 299.26 221.54 298.53 222.84 298.53 224.22 297.56 225.6 296.5 226.49 295.69 227.79 294.96 229.26 294.47 231.94 293.9 234.05 294.06 234.7 295.2 235.59 296.74 236.16 298.04 236.73 299.18 237.14 299.91 238.11 299.83 238.92 298.86 239.65 297.31 240.79 296.01 241.69 294.63 242.42 293.74 243.15 293.25 244.37 292.84 246.15 293.98 246.97 295.12 247.45 295.93 248.27 296.58 248.59 298.21 248.59 298.86 248.67 299.35 249.97 300 250.38 300.57 251.11 301.13 252.16 301.62 252.57 303.82 252.81 304.79 253.38 304.14 254.11 302.52 254.93 301.7 255.26 301.13 255.5 300.08 256.63 298.21 257.93 296.66 259.07 295.2 260.29 294.63 261.43 294.22 262.64 294.3 263.94 294.71 265.08 294.96 266.46 295.28 268.74 295.69 271.42 296.99 273.37 298.21 274.59 299.51 276.05 300.24 276.86 301.22 277.59 301.7 278.08 301.38 278.89 300.4 279.38 299.02 280.11 298.7 280.92 298.7 281.9 298.94 282.38 299.51 283.12 300.16 284.01 300.89 284.74 302.52 284.98 303.82 284.98 304.87 285.47 305.69 286.37 306.09 287.1 306.1 287.14 306.11 287.47 305.61 287.75 304.39 287.83 303.57 288.23 303.17 289.05 303.17 289.94 304.06 290.91 304.55 292.05 305.04 292.78 306.34 293.19 306.66 293.84 306.5 295.22 306.26 296.84 306.26 297.98 306.42 299.28 307.15 300.58 308.86 301.72 310.16 302.78 311.62 303.43 313.25 303.51 314.79 303.34 316.66 303.26 317.4 303.18 318.29 303.02 319.59 303.18 319.6 303.19 320.49 303.67 321.11 304.52 321.14 304.56 322.03 305.21 322.84 305.7 323.82 305.86 324.63 306.59 325.28 307.24 325.61 308.14 325.71 308.96 325.73 309.15 325.77 309.52 326.5 310.33 327.56 310.41 328.45 310.33 328.94 310.74 328.21 311.47 327.72 312.2 327.48 313.09 326.58 313.24 326.5 313.25 326.36 313.17 325.37 312.6 324.55 312.52 324.47 312.57 323.58 313.09 322.68 313.34 322.6 314.47 322.6 315.45 322.93 316.34 323.33 317.64 323.33 317.98 323.33 319.35 322.76 320.32 322.68 321.22 322.11 322.35 321.3 323.33 321.22 324.06 321.95 324.87 322.19 325.36 322.52 326.41 322.6 327.63 321.95 328.53 321.38 329.42 321.87 329.66 323.17 330.15 323.33 330.72 323.82 331.7 324.39 332.18 325.45 332.35 326.1 332.26 325.53 333.32 323.82 333.89 321.71 334.21 320.08 333.97 319.02 333.89 317.64 333.24 317.23 332.83 315.85 332.83 314.96 333.32 313.9 333.56 313.33 333.32 313.01 333.89 313.58 334.54 314.96 334.62 316.5 335.19 316.75 336.33 316.91 337.38 316.1 338.03 314.71 338.36 314.14 338.76 314.28 338.86 314.47 339.01 315.45 339.25 316.1 339.82 316.5 341.36 315.45 342.17 314.71 342.66 313.98 344.04 313.9 344.69 314.07 345.08 314.23 345.42 314.71 346.48 314.06 347.62 312.19 347.94 311.46 347.78 310.73 347.78 310.49 348.59 310.73 349.4 311.54 349.73 312.11 350.62 312.44 352.33 311.95 354.52 311.14 356.31 309.67 358.02 307.96 359.48 306.18 360.78 304.22 362.08 301.38 363.22 299.35 363.78 297.56 365 296.83 366.14 296.01 368.5 294.87 369.23 294.14 370.12 294.87 371.26 295.36 372.31 296.01 373.53 295.77 375.48 295.36 376.46 295.52 377.51 296.5 379.22 296.66 380.84 297.67 382.9 298.28 385.62 298.4 385.72 298.48 386.03 298.79 386.72 297.74 387.59 297.54 387.43 297.35 387.43 297.23 387.34 297.04 387.34 296.84 387.18 296.09 386.61 295.2 386.21 294.14 385.31 293.41 384.34 292.03 383.44 290.97 382.87 290.24 382.06 289.51 380.68 289.02 380.03 287.8 379.14 286.66 378.41 285.2 377.68 283.98 376.78 281.7 375.48 279.75 374.1 278.77 373.04 277.47 372.39 276.01 371.26 274.79 370.12 273.57 369.55 271.94 369.39 269.91 369.71 268.37 369.88 267.07 370.2 265.28 370.85 263.81 371.66 262.51 372.23 261.37 373.04 261.29 373.94 261.86 375.16 262.35 376.13 262.67 377.59 262.35 378.24 261.94 379.54 262.02 380.68 262.35 381.17 263.08 381.98 263.73 383.12 264.79 384.01 265.93 384.42 267.47 384.42 269.02 384.74 270.24 385.72 270.48 386.37 270.48 387.67 271.54 388.15 272.59 388.4 273.33 389.13 273.08 390.67 273.25 392.54 273.33 393.35 274.22 394.41 275.28 395.55 275.85 396.44 276.17 397.17 276.25 398.23 276.17 399.85 275.52 401.07 274.46 401.64 274.55 402.61 275.6 402.86 276.58 402.45 277.55 401.64 277.72 400.99 278.61 399.77 280.32 400.26 282.51 401.15 284.55 402.37 286.74 403.43 288.04 404.97 289.59 407.57 290.56 408.71 291.62 409.6 293.25 410.74 294.87 412.44 295.44 413.58 296.26 414.07 296.99 414.64 298.13 414.8 299.18 415.21 299.75 415.94 300.97 416.99 302.6 417.89 304.96 418.54 306.01 419.27 307.72 420.24 309.67 421.22 311.38 422.03 312.11 423.01 313.17 423.49 315.04 423.49 316.1 423.33 317.32 423.82 317.33 423.87 317.64 425.52 317.64 426.66 316.42 427.88 314.31 428.29 311.46 428.04 308.13 427.8 307.15 427.8 306.01 427.8 304.71 428.2 302.68 428.53 300.48 428.53 298.7 428.29 296.83 428.45 295.44 428.45 294.39 427.8 293.49 427.55 291.46 426.9 290.81 426.01 290.08 425.12 289.34 423.98 288.69 422.68 287.8 421.95 286.91 421.46 286.01 421.22 285.04 421.14 283.82 421.3 282.68 421.22 282.19 420.49 281.21 419.27 279.75 418.37 278.29 417.97 276.74 418.13 275.28 418.46 273.65 418.94 272.84 419.92 272.68 421.14 272.76 422.84 272.11 424.79 271.3 427.18 270.4 428.69 268.69 429.75 267.55 430.24 266.74 429.67 266.72 429.55 266.42 428.04 265.44 426.99 264.22 426.34 262.67 425.28 260.89 423.98 259.83 422.52 258.69 421.06 256.98 419.02 254.3 417.4 252.51 416.43 251.54 416.02 250.64 415.69 249.83 415.13 250.72 413.66 251.21 412.2 251.45 410.66 251.45 409.28 250.89 408.55 249.99 407.9 248.12 407.33 246.41 406.84 245.68 406.19 245.19 405.05 244.22 403.75 242.43 402.45 240.64 401.4 238.44 401.07 236.25 401.48 235.03 401.48 232.48 401.4 231.53 401.32 230.15 400.99 228.36 400.67 226.9 400.34 225.11 400.02 223.48 399.45 222.43 398.39 221.69 397.01 220.56 395.47 219.42 394.33 218.36 393.52 217.63 393.11 216.65 392.14 215.6 391.49 214.95 390.59 214.21 389.62 213.48 388.8 213.08 387.1 212.83 385.56 212.67 384.34 212.83 382.87 213.08 380.92 213.24 379.54 212.43 378.57 210.26 378.16 207.55 377.62 206.41 377.19 205.43 377.51 204.54 378.16 203.56 379.71 201.69 381.49 199.9 382.31 198.2 382.87 197.22 383.2 196.81 384.17 196.65 385.56 196.33 387.75 195.76 389.45 194.29 391.97 192.42 393.11 190.8 393.11 189.01 394 188.03 395.06 186.57 397.17 183.24 399.45 180.71 400.1 177.57 400.27 175.75 399.93 173.64 399.2 170.06 399.2 166.65 399.04 164.94 398.96 163.72 398.96 162.26 399.53 161.53 400.18 160.55 401.48 160.06 403.35 159.33 404.89 158.35 406.92 156.89 407.9 155.43 408.63 155.02 409.6 155.35 410.66 155.51 411.55 156.48 413.42 157.62 415.29 158.68 417.16 158.03 419.11 156.57 419.84 154.53 420.73 151.93 422.03 151.04 423.25 150.4 424.35 150.14 424.79 148.27 426.34 146.89 426.42 146.56 426.42 144.69 426.34 143.72 425.52 143.31 423.66 141.54 423.64 141.54 425.1 141.78 426 141.44 427.07 140.38 427.8 Z M 114.52 322.86 113.95 322.63 113.71 323.1 113.41 323.58 112.83 323.81 112.12 323.98 111.41 324.08 110.8 324.39 109.85 324.86 109.34 324.9 108.52 324.68 108.42 324.66 107.98 324.59 107.51 324.93 106.8 325.23 105.82 325.1 105.14 324.9 104.66 324.79 104.19 325.27 104.36 325.91 104.87 326.11 105.82 326.15 106.6 326.25 107.1 326.89 107.22 326.98 107.61 327.3 108.53 327.1 109.27 326.66 109.92 325.94 110.29 325.5 111.24 325.23 112.08 324.96 113.17 324.59 114.39 324.22 115.34 324.08 115.98 323.98 115.74 323.44 115.3 323.03 114.52 322.86 Z M 89.25 327.64 88.77 326.59 87.59 327.37 86.67 328.31 86.44 329.3 86.13 330.24 85.83 330.72 85.29 330.89 85.45 331.26 86.06 331.33 86.54 330.85 87.62 330.62 88.64 330.31 89.59 329.43 89.69 328.48 89.25 327.64 Z M 73.46 328.69 72.95 328.21 72.78 328.38 72.82 329.26 72.65 329.8 72.75 330.11 73.26 330.07 73.53 329.67 73.73 329.13 73.46 328.69 Z M 157.93 322.64 157.95 322.65 159.01 322.44 160.23 321.43 160.51 320.21 160.8 319.4 161.81 318.5 162.75 317.94 164.62 317.37 167.02 317.53 168.32 316.47 167.54 316.03 165.43 316.84 163.07 316.88 162.1 316.6 161.14 316.46 160.35 316.35 158.36 316.51 156.97 317.65 156.45 318.38 155.96 318.55 155.71 318.87 155.47 319.56 155.06 320.33 155.63 321.35 156.77 322.16 157.93 322.64 Z M 103.38 322.56 103.78 322.49 104.87 322.56 105.55 322.39 105.88 322.19 105.95 321.71 105.65 321.21 105.14 320.9 103.99 320.7 103.34 320.83 103.07 321.27 103.17 321.85 103.48 322.26 103.38 322.56 Z M 65.09 400.91 65.66 401.15 66.56 401.15 66.73 401.16 68.02 401.23 68.99 401.07 69.06 400.97 69.26 400.69 70.78 398.36 70.78 396.44 70.38 394.73 69.48 393.6 69.42 393.57 68.4 393.14 67.64 392.84 66.88 393.11 66.39 393.19 65.5 393.52 64.93 393.92 65.19 397.1 66.07 397.5 66.39 398.39 66.39 399.04 65.74 399.93 65.61 400.04 65.25 400.34 65.09 400.91 Z M 40.54 413.01 41.27 413.09 42.02 412.82 42.41 412.04 42 411.39 41.76 410.33 41.27 409.44 40.05 408.46 38.99 408.52 38.18 408.38 37.45 409.2 37.12 410.01 38.75 412.04 39.44 412.55 40.54 413.01 Z M 137.78 412.17 137.13 413.26 137.13 414.56 138.76 418.16 139.73 419.13 140.71 419.67 141.9 419.89 145.41 418.98 146.97 418.37 147.85 418.04 148.19 417.16 147.99 416.41 148.11 415.21 146.97 413.42 144.04 411.31 142.85 411.09 138.76 411.85 137.78 412.17 Z M 112.55 440.3 113.11 440.54 113.73 440.73 113.91 440.73 114.16 440.73 114.75 440.61 115.61 440.36 116.25 439.81 116.68 438.24 116.36 436.99 116.33 436.96 115.94 436.55 115.58 436.17 114.7 435.48 114.65 435.47 114.04 435.35 113.85 435.31 113.34 435.58 113.14 436.23 113.14 436.85 113.18 437.29 112.83 438.52 112.68 438.87 112.46 439.41 112.39 440.02 112.4 440.03 112.54 440.29 112.55 440.3 Z M 252.51 389.62 253.32 390.16 254.14 390.02 256.93 390.32 258.2 389.13 258.62 388.52 258.93 388.07 258.77 386.61 258.26 385.26 258.04 384.66 257.23 382.79 255.84 381.98 254.63 381.41 253.41 381.25 252.67 381.33 251.87 381.72 251.59 381.86 250.48 383.28 250.63 385.6 251.29 388.13 251.97 388.94 252.51 389.62 Z" fill-rule="evenodd"/>
</g>
</svg>