<?xml version="1.0"?>
<svg xmlns="http://www.w3.org/2000/svg" version="1.2" baseProfile="tiny" width="800" height="1006" viewBox="0 0 800 1006" stroke-linecap="round" stroke-linejoin="round">
<g id="laketalawa">
<path d="M 345.3 267.35 347.06 268.06 348.93 267.55 351.2 268.3 355.01 268.94 359.45 268.51 362.31 268.2 365.06 268.09 368.55 269.57 371.29 271.47 374.08 271.66 376.3 274.3 378.36 275.62 375.61 275.99 372.81 276.73 371.12 276.52 369.75 275.94 368.32 275.57 369.01 276.78 371.33 277.68 372.65 278.11 373.85 277.22 375.79 277.57 378.44 278.1 381.87 277.84 383.99 277.48 384.87 276.87 384.97 278.39 387.02 278.52 388.08 277.64 389.84 277.46 390.72 278.17 391.6 279.14 393.45 280.28 392.13 281.25 391.25 282.31 390.9 283.63 392.84 284.95 394.51 284.51 396.01 284.51 397.68 285.3 396.71 284.07 396.27 282.84 398.48 283.54 400.68 283.54 401.91 284.25 403.5 285.3 404.91 284.07 407.2 283.9 407.99 285.22 408.88 286.89 412.4 288.21 413.99 289.8 413.9 291.82 412.49 291.21 409.49 290.15 409.49 291.21 410.55 293.15 411.43 294.29 413.11 294.56 414.07 294.64 416.37 294.82 418.66 295.26 420.07 296.85 419.01 297.46 419.54 298.7 423.06 299.22 426.06 299.14 428.97 299.93 432.67 300.81 433.11 299.58 432.67 297.55 431.52 294.91 430.55 293.32 432.14 294.47 433.99 296.58 434.87 298.52 436.1 299.75 439.1 301.43 440.69 303.36 441.04 304.51 442.54 305.48 443.15 306.01 445 306.27 446.86 306.54 448.18 306.54 448.44 307.07 449.59 308.3 451 307.07 452.14 306.98 454.17 308.3 455.05 310.5 456.55 311.03 458.31 312.35 459.9 312.88 460.69 312.17 459.63 311.03 459.28 310.24 460.87 309.8 462.98 309.62 464.83 309.27 466.42 309.18 469.15 309.18 472.32 309.18 474.61 309.97 475.14 310.94 476.64 312.09 477.26 311.47 476.82 310.41 478.14 309.44 479.55 309.44 482.54 309.88 486.07 309.88 488.8 310.77 489.68 311.91 490.83 313.06 491.71 314.02 493.29 315.52 494.62 315.52 496.91 314.2 498.58 314.47 500.87 314.64 503.96 315.52 507.57 316.23 509.77 316.76 509.42 318.43 510.3 319.75 511.98 319.84 513.21 319.13 513.21 318.78 513.21 317.9 514.44 318.34 516.03 319.93 518.14 321.6 521.85 322.66 524.14 323.63 526.25 323.72 527.66 322.83 529.34 322.83 531.63 323.45 534.01 324.16 535.86 324.33 537.09 324.68 538.77 325.74 540.7 326.36 542.38 326.62 543.35 325.57 543.08 323.63 543.96 322.57 543.61 321.34 543.61 319.31 542.55 318.43 540.88 318.17 540 316.67 538.85 317.2 537.97 316.49 537 314.73 537.36 312.62 538.24 311.91 538.68 313.58 538.32 315.17 538.77 315.79 539.82 314.82 541.59 314.38 542.82 314.82 544.58 316.14 544.76 315.35 544.4 314.11 545.02 314.38 546.17 315.35 546.96 315.79 548.72 315.35 550.13 314.11 549.08 313.76 547.75 311.82 546.61 311.65 545.2 308.74 543.79 306.01 545.2 307.15 547.05 308.83 548.63 307.68 549.34 306.71 548.63 304.69 548.99 302.92 550.93 302.13 551.1 300.28 550.31 297.29 550.49 295.61 552.6 294.29 551.72 291.38 550.66 288.3 549.96 285.39 550.66 282.13 550.31 280.2 549.6 276.94 550.75 273.59 549.78 271.56 548.55 269.98 547.4 267.77 547.14 265.48 546.26 263.19 545.9 261.78 545.46 259.76 545.46 257.99 545.37 255.35 544.58 253.77 543.44 252.8 542.55 251.3 543.3 248.8 543.19 247.91 542.54 246.53 542.21 245.55 541.88 244.09 541.77 243.6 541.88 241.4 543.61 241.43 544.32 242.75 545.37 243.02 545.37 241.17 544.93 238.26 545.37 236.32 545.37 234.21 545.29 231.57 544.58 229.45 543.08 227.95 541.76 227.25 539.27 226.04 538.51 224.33 537.64 222.79 536.55 221.24 537.09 218.81 537 217.14 536.83 215.82 536.39 213.97 536.21 213.18 536.21 211.59 535.03 210.1 536.12 207.74 536.22 205.55 537.53 202.78 536.91 200.84 536.39 199.52 535.68 198.37 534.59 196.2 532.68 194.15 532.07 195.03 530.92 195.03 528.98 194.06 528.01 193.35 526.78 192.3 525.19 190.01 524.84 188.51 525.81 187.45 527.49 187.98 528.54 187.36 530.57 186.31 530.31 185.51 530.31 184.1 530.31 182.78 529.87 181.55 528.81 179.87 527.05 178.64 526.52 178.64 524.4 178.82 523.34 177.58 522.46 176.26 521.67 174.85 521.67 173.71 521.67 171.95 520.96 171.42 519.82 171.33 519.38 170.36 518.27 168.64 517.51 167.99 516.64 166.28 516.42 164.57 516.21 163.27 515.77 161.48 515.22 159.86 514.68 158.07 514.46 157.34 513.31 156.03 512.88 154.7 511.51 153.81 510.93 153.17 511.09 152.22 510.72 150.95 509.66 150.79 508.44 151.37 507.81 151.69 506.65 151.11 505.85 151.43 506.28 152.54 506.86 153.91 507.28 154.97 507.12 156.03 506.01 155.34 504.95 154.33 503.47 151.85 503.1 150.69 504 150.32 504 149.63 503.74 148.57 503.84 147.04 504.42 145.88 504.58 144.66 504.9 143.45 505.64 143.18 507.12 143.13 507.12 142.39 505.48 141.49 504.79 140.33 503.26 139.16 503.84 137.74 504.32 136.63 503.79 135.25 504.27 134.94 505.32 134.57 506.75 135.31 506.96 135.83 508.48 136.28 510.17 139.53 509.87 141.54 510.72 142.81 511.88 143.66 512.83 144 513.15 143.45 513.25 142.12 512.78 140.8 512.14 139.53 511.35 138.69 510.4 137.68 509.98 136.94 509.71 136.1 509.39 135.36 508.92 134.14 508.44 133.56 508.18 132.77 508.44 132.13 508.02 131.29 506.91 130.13 506.7 129.17 506.59 128.38 506.12 127.8 504.67 126.93 503.47 123.59 502.82 121.89 502.17 120.91 501.08 119.86 500.1 118.8 499.56 118.15 499.34 117.34 499.23 114.81 499.34 113.19 498.92 110.33 496.9 109.98 496.05 108.61 496.37 106.6 498.14 105.06 496.68 105.33 497.05 103.51 496.07 101.97 494.04 101.84 492.45 101.21 491.62 96.68 491.4 92.94 490.76 89.79 492.03 80.7 492.56 72.24 492.77 67.91 497.27 64.08 500.28 66.43 513.01 73.94 515.08 73.5 516.05 73.02 516.71 73.33 517.82 73.72 519.71 73.64 521.12 73.59 522 74.87 523.02 75.62 524.65 75.13 525.92 75.31 527.55 75.88 529.01 75.84 531.69 75.53 532.97 74.78 533.19 73.02 533.02 71.92 532.53 71.43 531.43 71.13 530.15 70.82 529.84 70.02 530.37 69.01 531.92 69.19 532.75 69.01 532.75 68.35 531.83 67.29 532.71 66.85 533.94 66.9 534.87 66.81 535.47 67.19 535.48 68 535.88 68.57 536.67 68.92 537.78 68.79 537.95 67.65 537.86 66.98 536.94 66.41 536.89 65.75 538.44 65.53 539.58 65.27 539.98 64.3 541.21 63.33 541.48 62.01 541.65 61.08 540.64 59.98 539.63 59.63 539.71 60.6 539.76 62.01 538.68 62.46 537.29 61.79 535.62 61.43 536.15 60.42 536.85 59.06 536.15 58.35 535 58.4 533.91 58.6 531.27 57.35 531.11 56.45 530.9 55.44 530.37 55.02 529.37 54.7 528.4 54.75 527.78 55.66 527.68 56.71 527.04 57.29 526.3 57.08 525.88 55.97 525.56 55.13 524.5 54.39 523.24 54.39 522.13 54.23 521.01 53.54 521.86 52.96 524.29 52.96 524.35 51.2 521.04 49.44 522.18 47.34 526.06 47.52 530.11 47.16 533.46 47.52 540.15 48.57 539.98 51.22 535.92 54.74 538.92 54.03 543.68 56.15 545.62 56.5 549.32 57.38 550.55 53.68 549.85 51.39 548.09 49.81 547.38 48.04 549.5 47.16 555.14 46.46 552.67 45.58 548.61 43.82 546.32 41.7 542.97 40.64 541.92 38.71 544.56 38.88 548.26 37.47 547.2 36.06 543.86 34.83 540.86 33.95 539.8 32.01 538.74 31.66 535.22 31.48 534.69 29.37 535.22 27.25 538.57 26.2 539.63 22.85 539.27 19.68 537.33 18.27 534.69 17.03 535.4 15.1 534.34 13.69 530.81 13.86 529.76 14.92 526.23 14.21 523.76 14.21 521.3 15.1 518.65 14.74 515.83 12.98 513.89 10.87 514.42 10.34 516.54 9.81 519.36 9.46 521.3 9.28 524.82 8.22 528.88 6.46 530.81 3.11 533.28 1.18 536.81 1 539.63 2.06 542.09 3.82 543.33 6.81 543.33 9.99 541.74 11.4 541.04 9.46 537.86 9.63 538.22 12.63 541.21 12.63 541.56 14.57 541.92 16.33 542.62 17.39 549.14 18.62 549.67 17.56 546.15 2.76 548.61 5.4 550.02 6.64 551.61 9.46 552.67 11.04 554.25 11.75 559.36 11.4 564.12 13.16 567.47 14.39 570.12 16.68 571.35 21.09 571.35 25.31 570.47 28.49 566.77 29.9 555.31 29.54 552.67 28.49 550.91 29.37 549.64 31.06 549.32 31.48 549.86 31.57 552.67 32.01 556.02 31.13 558.13 31.13 561.48 31.31 565.53 31.83 570.47 33.07 577.24 33.63 580.51 36.06 580.62 39.55 585.48 42.19 585.59 45.26 586.12 48.11 586.54 50.23 587.39 53.51 591.3 54.46 593.31 54.56 597.01 55.41 599.76 56.04 603.99 56.04 606.42 56.47 609.59 57.1 612.77 56.15 614.48 56.15 616.15 55.3 620.7 54.67 622.49 54.88 623.02 56.57 620.8 58.16 619.43 59.95 619.22 61.75 618.48 64.08 617.74 66.3 617.46 68.05 617.31 68.94 616.15 71.16 613.4 72.22 611.5 73.7 612.45 74.65 614.67 75.18 614.78 76.66 611.07 80.36 612.87 82.37 612.55 85.22 613.4 86.7 619.21 85.91 620.49 86.38 622.07 88.6 622.07 90.82 622.12 92.6 625.88 92.83 627.99 95.16 628.2 97.72 625.96 99.71 622.44 102.84 621.12 105.94 623.87 106.89 627.68 107.84 630 109.32 632.22 110.38 634.23 111.86 634.97 114.82 635.4 116.94 637.09 118.73 638.67 120.11 642.9 121.59 645.86 122.86 646.6 126.56 647.77 127.93 651.05 129.83 654.32 129.73 656.86 130.36 657.81 132.79 657.71 134.7 655.87 138.42 653.3 141.18 648.19 148.02 649.17 149.34 654.28 143.18 657.5 141.89 659.51 144.21 660.35 146.75 661.2 148.86 662.89 150.66 665.11 151.72 666.62 154.1 665.43 156.05 663.73 156.79 662.47 158.38 663.95 159.96 665.18 162.08 665.85 163.91 666.34 164.79 668.74 165.99 669.13 167.12 668.95 168.63 669.97 170.36 669.97 171.98 670.5 172.75 671.63 172.37 673.08 171.31 673.92 170.25 675.05 169.94 676.42 170.15 677.76 170.32 679.14 169.65 679.53 168.74 679.14 167.96 678.05 167.47 676.95 167.08 676.25 166.76 676.14 165.63 675.9 164.93 675.4 164.12 674.84 163.66 673.71 163.63 672.83 163.7 671.91 163.91 671.21 163.91 669.9 163.03 669.16 162.22 668.35 161.09 667.86 160.84 667.5 159.21 668.22 158.02 668.68 157.24 668.47 154.36 669.98 153.45 670.9 154.68 671.21 156.58 672.06 157.32 673.12 157.85 673.22 156.79 674.6 157.32 675.97 158.27 678.09 158.59 680.1 158.17 681.05 157 684.43 156.26 686.97 157.11 689.19 158.69 691.41 160.49 693.32 162.39 694.8 164.4 697.44 166.41 698.81 167.15 702.62 170.85 703.78 172.65 707.91 173.18 710.55 172.23 710.97 170.96 711.19 169.27 711.19 167.05 712.14 165.46 713.76 165.01 714.13 166.22 715.84 166.41 718.8 166.31 721.55 167.15 724.83 167.89 726.2 169.9 727.89 172.54 728.85 173.18 732.34 176.56 732.34 178.78 732.65 180.37 733.6 181.74 734.45 183.75 734.98 184.7 736.46 187.24 738.47 189.03 740.48 190.83 740.69 192.74 741.85 194.32 740.84 195.8 742.04 197.14 743.52 197.14 744.93 197.42 746.48 198.41 747.04 199.11 747.96 199.82 749.09 200.38 750.08 201.51 750.99 202.43 752.47 202.36 754.52 202.85 756.49 203.06 758.46 202.71 760.09 203.13 762.69 203.34 764.25 204.26 764.32 205.32 765.58 207.5 764.17 208.35 762.06 208.84 760.58 209.54 760.44 212.15 759.8 213.77 761.28 215.68 762.48 215.11 763.19 214.27 763.96 214.27 765.73 214.62 767.21 214.62 767.63 215.82 767.77 217.16 768.97 218.21 769.81 218.21 771.08 219.34 770.73 221.31 771.65 222.44 771.79 223.43 771.72 225.47 771.44 226.6 769.88 226.6 768.69 226.6 767.49 227.16 767.7 228.57 769.18 228.86 770.59 229.91 771.08 231.32 771.65 233.08 774.47 234.49 775.31 236.33 775.38 237.95 775.81 238.37 777.57 239.92 778.17 241.46 779.47 242.95 781.66 243.37 783.7 243.09 784.41 243.66 785.54 244.5 786.24 245.85 787.16 246.97 787.93 247.74 788.99 247.95 789.34 247.04 791.95 245.85 792.37 245.85 792.37 247.67 792.23 248.87 791.17 249.79 790.19 250.63 790.96 252.47 789.27 253.03 788.78 254.3 789.84 255.43 789.62 256.06 790.47 256.91 791.46 257.61 791.81 258.53 791.6 260.36 791.32 261.84 790.75 262.75 790.4 264.23 788.78 265.5 786.24 265.86 785.54 266.77 785.04 267.48 782.93 268.46 781.66 269.59 781.45 271.14 782.01 272.2 782.57 272.83 782.43 274.1 782.36 275.44 782.93 276.85 784.69 278.12 786.73 278.96 788.36 279.32 790.76 279.42 792.3 278.61 793.01 277.77 795.19 277.56 796.18 278.4 797.03 279.25 798.08 279.88 799 281.15 797.87 282.98 796.04 282.84 794.84 282.7 793.92 283.69 792.47 284.08 790.82 284.25 788.85 284.67 787.09 284.74 785.82 284.74 783.91 285.17 783.63 286.22 784.97 287.07 786.66 287.85 787.86 289.18 788.99 289.83 789.84 292.14 789.77 293.55 788.07 295.1 787.44 295.81 786.52 296.94 785.54 298.7 784.76 299.83 784.83 300.95 785.11 302.08 784.97 303.35 784.97 304.2 785.11 305.39 785.04 306.45 784.76 308.35 783.82 308.82 782.22 309.76 781.38 311.24 781.59 312.65 782.26 313.82 782.64 314.98 782.57 316.6 782.22 317.94 782.01 319.35 780.81 320.41 779.78 321.54 780.2 322.69 781.31 323.51 781.8 324.07 782.22 325.34 781.57 326.42 781.8 327.04 781.16 328.58 781.16 329.36 781.02 330.27 781.31 332.32 781.16 333.3 780.53 334.57 780.18 336.12 780.46 337.25 780.88 338.38 781.31 339.51 781.87 340.99 782.5 342.11 782.5 343.73 782.43 345.14 782.93 346.69 783.56 347.4 784.2 348.88 784.27 351.06 784.2 352.61 783.84 355.01 783.77 356.63 783.91 358.46 783.56 359.73 783.14 361 783.14 362.13 783.42 363.89 784.05 365.58 784.05 367.06 783.35 368.61 782.72 370.8 782.72 372.35 783.14 373.9 783.84 374.81 784.97 376.58 785.04 378.2 783.7 379.11 781.73 379.82 779.47 380.52 777.78 381.58 776.58 382.99 775.1 383.98 774.68 384.96 774.26 386.3 773.06 388.21 772.63 389.26 772.49 390.39 772.63 391.52 772.91 392.8 767.84 398.29 763.27 398.82 761.57 399.83 760.16 400.19 759.31 400.82 758.89 402.23 758.46 403.36 758.04 404.06 756.84 404.77 756.07 405.26 755.93 406.25 755.79 407.31 755.57 408.15 755.64 408.86 756.21 409.28 756.98 409.35 757.69 410.62 758.54 411.96 759.52 413.65 760.37 414.63 760.37 415.9 760.93 417.03 762.55 417.31 764.59 417.8 766.5 418.58 767.63 419.29 769.67 420.48 772.07 421.26 772.63 422.18 773.76 423.09 775.52 423.37 777.5 423.66 779.4 424.01 781.23 425.9 781.52 427.6 782.72 429.08 782.29 430.21 781.38 431.06 781.02 432.18 781.59 433.24 783.28 433.73 785.89 434.02 788 434.16 788.78 435.43 787.3 436.91 785.75 438.03 784.2 440.5 785.61 440.5 786.31 442.26 786.45 443.53 786.73 444.94 786.52 446.42 784.97 446.84 783.84 448.39 783.84 449.66 784.69 451.35 785.54 452.62 785.75 453.96 785.18 455.72 784.62 457.06 784.69 459.39 784.41 460.45 784.32 462.55 783.98 464.04 783.56 466.79 782.29 467.78 781.31 468.69 779.83 470.1 778.63 471.23 777.15 472.36 776.93 473.84 776.51 474.75 774.47 476.44 773.41 477.36 772.63 479.19 773.2 480.81 774.26 481.8 775.03 483.63 775.52 485.54 776.3 486.8 777.43 487.72 778.13 488.78 778.49 489.98 777.6 490.42 776.44 490.96 776.14 492.36 776.14 494.69 775.71 497.43 774.23 501.87 773.39 505.26 773.17 506.95 772.96 509.7 772.96 513.29 772.22 515.25 771.54 516.41 770 517.73 769.42 519.48 769.37 521.38 770 523.23 769.47 524.39 767.46 527.56 766.67 528.83 765.93 530.15 766.3 532.59 766.62 533.85 766.09 535.28 765.56 537.71 764.56 540.04 761.54 542.89 759.8 544.11 758.11 546.86 756.36 548.65 754.3 551.56 752.82 552.94 751.34 554.47 750.02 555.79 748.48 557.11 747.37 559.12 746.16 561.97 744.57 563.72 743.35 565.36 742.14 567.42 741.4 569.53 741.13 570.91 739.65 572.86 738.75 573.13 736.6 573.54 735.19 574.42 733.87 576.36 732.46 578.39 731.27 579.4 730.48 581.07 730.39 582.7 731.05 584.29 730.44 586.18 729.47 588.08 728.37 588.74 727.53 589.53 726.82 591.07 726.56 592.62 726.87 594.47 727.44 596.14 728.06 597.68 728.15 599.66 727.92 602.7 727.7 605.04 727.42 607.01 726.96 609.13 726.91 611.12 727.21 613.29 727.56 615.14 730.11 620.25 729.5 622.01 729.23 623.69 731.17 624.57 731.44 626.07 733.81 628.44 736.55 630.91 735.49 633.47 738.31 635.84 738.57 638.49 738.04 640.34 739.54 641.39 740.42 643.42 741.13 646.5 742.8 648.71 744.48 651.88 745.27 654.08 746.06 657.87 746.24 660.69 747.56 664.04 748.65 666.54 749.44 666.96 750.24 667.39 759.8 663.6 766.28 665.29 769.95 666.13 772.49 669.52 773.9 673.18 773.61 678.82 773.33 681.36 772.2 684.74 769.38 688.12 765.72 690.38 762.05 691.79 760.64 691.79 756.98 694.32 753.31 695.73 749.08 697.99 743.44 697.14 737.8 694.61 735.54 693.48 733.01 692.63 730.19 695.17 726.52 698.27 724.55 699.96 721.45 701.94 716.55 703.26 714.37 703.47 709.79 703.54 707.67 703.82 705.2 704.32 702.45 704.95 700.2 705.73 698.37 706.43 696.6 707.49 694.49 707.35 691.32 705.73 689.55 704.39 688.21 704.04 686.87 704.18 684.27 704.72 680.84 705.48 679.78 705.79 677.35 705.9 675.02 706.64 673.44 707.38 671.74 708.22 669.42 711.29 667.62 712.98 665.61 714.04 663.92 715.2 660.53 715.52 658.42 717 654.61 718.69 652.92 719.11 651.23 719.43 648.59 720.06 646.05 721.33 643.83 722.07 640.97 722.6 638.43 723.34 636.43 724.19 633.36 726.73 630.71 727.99 628.92 728.63 626.91 728.95 625.43 729.9 624.16 731.27 622.89 732.54 620.99 733.81 619.51 735.18 618.03 736.66 616.55 737.72 615.59 738.99 613.8 739.09 611.68 738.67 609.67 738.25 607.77 739.2 607.24 740.89 605.23 742.16 603.75 742.9 601.95 744.91 600.58 746.49 600.05 747.02 597.09 748.5 594.97 749.24 592.54 750.19 591.17 752.63 590.64 754.63 590.32 755.27 589.58 754.85 589.58 753.89 589.05 752.63 587.36 751.89 585.77 751.78 584.29 752.31 583.55 753.15 583.55 754.63 584.4 755.69 585.56 756.22 587.25 756.75 588.95 757.07 589.47 757.38 589.16 758.86 588.52 760.03 586.83 761.19 585.24 761.93 583.24 762.46 581.44 762.46 578.58 762.88 575.41 763.2 573.4 764.04 571.18 764.04 568.33 764.78 566.53 766.79 566.21 768.38 565.47 769.01 563.88 769.12 562.51 768.27 561.13 767 559.23 767.11 557.54 769.96 556.91 771.76 555.21 773.03 554.05 774.19 551.72 773.66 548.97 773.03 547.18 773.35 547.92 775.35 546.75 775.67 545.06 774.61 543.48 774.3 542.52 775.14 540.2 775.57 538.08 775.57 535.54 775.57 533.75 776.2 532.58 777.57 531.84 779.16 531.84 780.11 533.75 779.9 537.24 779.27 539.56 779.27 541.47 779.48 543.37 780.43 544.53 781.59 545.06 783.18 543.48 784.66 542.52 784.45 540.73 784.34 539.77 785.72 540.94 787.94 541.78 789.31 540.51 789.52 538.61 788.57 537.45 787.51 535.97 787.3 533.64 787.83 530.79 787.09 529.41 786.67 527.93 786.24 526.66 785.4 523.91 784.66 521.9 785.19 520 784.76 517.47 784.76 515.67 785.29 514.93 786.14 515.36 788.04 516.2 791.21 514.72 791.11 512.4 790.68 510.7 791.74 509.86 793.54 510.07 794.91 512.18 795.55 515.04 795.44 517.26 795.34 519.8 796.08 521.81 797.03 524.03 798.93 525.3 800.2 525.4 802.21 524.56 805.27 523.39 807.39 522.23 807.81 520.64 807.7 518.63 806.44 516.1 804.53 514.3 802.52 511.66 800.41 508.91 799.46 506.37 798.82 503.51 798.61 500.55 798.93 497.7 799.88 496.64 802.42 495.37 804.11 493.36 805.27 491.25 806.33 489.66 808.34 488.18 810.35 486.49 810.03 484.48 807.7 481.62 806.54 481.52 808.44 482.89 810.35 482.05 816.58 478.98 817.22 476.55 817.22 472.95 817.85 470.84 819.02 468.72 819.65 466.82 820.71 465.87 823.56 463.22 824.62 460.16 828.53 458.68 830.22 456.35 832.86 454.24 836.57 452.02 838.47 449.16 838.79 444.93 838.89 442.29 839.42 439.96 839.53 438.16 838.79 435.52 837.31 431.74 836.04 429.6 835.08 427.59 834.03 424.42 833.6 421.88 833.5 418.92 832.97 414.37 831.7 411.94 831.28 408.55 830.54 406.33 830.54 404.01 830.12 403.06 831.17 402.63 833.29 403.8 834.98 405.49 835.51 406.97 834.77 408.06 833.85 408.06 833.01 409.86 833.32 411.66 833.96 413.56 834.49 414.93 835.23 416.94 836.28 420.33 837.55 422.12 839.03 425.4 841.04 426.25 842.84 426.14 846.54 425.72 848.23 426.35 850.34 428.05 851.61 429.32 853.83 428.68 855.21 427.31 856.69 425.93 857.11 424.66 856.05 423.29 854.89 422.23 853.83 420.54 850.66 418.53 849.39 415.89 849.07 413.77 849.6 413.24 850.98 412.4 852.88 411.13 853.41 409.54 854.26 408.48 855.42 406.79 855.84 404.57 856.58 404.15 858.27 402.24 859.01 400.34 859.22 398.33 859.22 396.43 859.54 394.63 860.92 393.79 861.55 393.79 863.35 394.31 865.36 394.31 866.73 393.89 867.89 392.09 869.37 377.97 874.19 363.26 879.73 358.47 882.27 356.49 885.93 355.36 888.47 357.34 891.85 360.44 897.49 363.26 901.16 367.91 904.4 369.89 904.4 373.55 903.77 376.44 903.7 380.67 904.26 383.7 905.53 385.68 907.22 387.93 908.7 389.7 909.33 391.46 910.32 392.09 912.58 390.89 913.84 389.97 914.98 390.54 917.37 389.06 918.21 388.07 919.06 387.16 919.69 386.17 920.4 384.55 921.46 383.92 922.51 383.63 923.71 383.42 925.19 383.42 926.6 383.85 927.66 383.99 929.07 383.92 931.32 383.44 933.96 379.21 931.7 374.41 927.47 369.9 924.09 366.24 923.25 362.01 923.81 356.65 926.06 355.24 926.63 353.55 927.47 352.7 930.86 352.14 933.68 351.01 935.93 349.6 937.62 351.01 940.72 349.03 941.85 344.52 940.72 339.45 935.93 337.47 934.24 335.78 933.11 331.83 930.86 325.91 931.14 323.09 933.39 322.53 938.75 325.63 942.98 330.99 944.95 334.09 951.72 338.32 955.95 340.86 959.61 344.24 966.94 346.78 971.45 346.78 976.25 347.34 981.88 349.6 988.37 349.6 993.44 346.78 996.54 342.52 998.92 338.32 999.64 335.78 1004.72 330.42 1005 326.47 1001.34 325.63 992.6 322.81 987.24 318.02 982.73 313.79 978.5 310.97 975.96 305.89 972.86 301.66 972.02 296.58 971.45 289.53 967.79 282.49 964.41 278.26 961.87 271.49 958.2 269.23 953.41 266.41 949.75 263.03 948.34 251.47 940.16 251.18 937.62 255.7 941.01 264.16 946.36 268.67 946.36 272.62 946.08 277.69 944.67 281.08 939.6 280.51 935.37 277.97 932.83 270.08 931.99 266.98 928.32 266.41 924.94 264.44 920.14 270.08 917.33 267.82 914.51 264.44 913.66 256.31 913.09 251.18 909.71 249.49 905.49 250.06 901.54 248.08 899.28 248.36 896.18 254 895.05 261.62 896.75 262.75 893.93 262.75 890.26 260.21 887.44 256.54 882.37 263.31 875.6 266.98 873.63 270.64 871.66 275.44 868.27 281.92 864.89 287.84 861.23 293.76 861.51 294.89 862.35 294.61 864.33 293.2 865.74 296.87 868.27 301.1 866.58 302.22 862.92 303.63 860.94 308.15 857 308.27 852.78 306.33 850.31 303.69 846.26 301.75 843.61 300.52 839.91 299.11 834.63 297.7 830.22 296.99 826.35 296.11 821.94 296.11 817.18 298.23 816.66 302.46 816.83 306.33 815.07 308.98 813.66 309.68 809.61 307.04 807.85 307.74 805.38 309.33 801.5 309.86 798.68 309.33 794.46 307.57 789.87 304.57 788.29 305.45 785.12 308.27 782.83 311.62 781.59 316.03 780.36 319.38 777.89 323.96 778.42 326.95 779.3 328.54 778.25 341.58 786.17 346.34 789.87 347.05 787.06 344.75 783.88 341.23 778.77 336.65 775.07 332.06 771.2 328.01 767.5 323.96 762.92 321.67 759.57 315.32 756.4 312.68 751.64 311.8 748.47 309.68 743.54 310.39 738.07 308.98 729.97 308.27 726.97 306.69 720.63 306.86 716.4 307.57 714.11 307.04 707.24 306.51 701.6 307.21 696.67 309.68 689.8 313.03 684.16 317.79 677.99 323.43 675.88 326.78 677.64 329.95 679.05 334.53 676.23 337.35 673.76 337 668.65 340.7 666.36 346.69 666.89 352.51 666.19 356.21 663.37 352.51 660.9 350.39 655.61 350.57 652.62 354.62 652.09 355.5 649.62 354.98 645.57 353.39 640.64 351.45 636.41 349.69 632.88 347.05 629.36 346.34 622.67 344.58 617.73 342.64 618.08 338.76 620.2 333.65 621.08 331.18 618.97 329.6 615.09 329.07 607.51 326.43 601.52 323.61 595.88 322.2 592.01 318.67 587.6 314.62 584.25 313.21 578.44 310.03 574.21 310.21 571.04 313.91 573.68 318.85 573.68 323.08 571.39 326.25 568.75 325.19 563.82 322.37 555.36 319.2 550.43 317.61 545.67 319.2 541.26 324.13 540.38 330.13 536.86 335.24 533.33 343.87 528.75 348.81 525.76 354.27 522.06 358.5 521.53 363.61 520.65 369.82 519.7 374.79 517.9 385.58 514.73 387.8 513.04 392.56 509.87 395.52 507.54 394.67 505.43 395.1 501.41 397.42 499.08 401.02 496.33 403.87 493.27 407.15 490.73 410.43 489.25 414.24 488.3 421.96 486.4 425.87 485.34 427.88 483.96 427.56 481.53 425.23 481.22 421.64 481.32 417.83 482.17 413.5 481.85 408.95 481 405.14 480.16 402.39 478.36 398.9 472.76 396.15 468 394.36 462.5 392.45 461.45 390.34 458.38 387.91 455.32 386.85 451.93 386 447.6 382.94 446.22 381.14 443.37 377.97 441.26 375.22 439.35 371.62 437.13 368.77 434.81 370.04 432.59 374.05 426.45 378.5 422.65 379.66 425.93 381.67 430.58 383.57 434.28 384.73 437.34 387.38 438.3 389.92 439.35 391.4 440.62 392.45 443.16 393.3 445.06 395.41 447.49 399.01 448.23 401.02 448.87 401.65 450.45 404.19 449.82 405.04 447.28 404.19 445.59 403.03 441.47 401.02 438.61 398.38 435.76 397 433.33 395.52 429.52 394.46 425.61 392.56 422.65 392.14 418.95 392.35 415.57 392.56 412.5 394.78 409.75 396.58 406.26 398.9 401.61 400.7 399.71 403.03 394.63 403.98 390.09 404.61 386.07 404.72 383.96 402.29 382.37 399.54 379.62 396.47 375.92 392.98 372.33 391.18 368.2 388.12 364.61 385.26 360.49 380.02 355.54 377.91 353.25 376.59 349.11 375.44 345.32 374.91 342.06 374.21 338.18 372.44 334.48 369.8 330.96 366.27 325.94 365.31 323.91 362.22 321.09 360.72 318.54 361.08 314.66 360.81 311.4 359.58 306.91 357.55 302.48 357 301.75 355.37 300.04 354.72 298.98 353.09 297.11 351.06 296.4 348.84 294.13 346.46 292.7 343.77 291.81 340.38 291.7 337.53 292.13 334.57 292.34 331.18 292.66 328.64 292.76 326.21 293.4 322.72 293.82 320.71 293.82 317.96 294.45 314.27 297.06 310.92 299.09 308.63 301.03 307.49 303.49 305.81 306.31 304.58 309.92 304.05 312.74 304.05 315.12 304.84 318.12 303.96 319.26 304.93 319.7 306.07 320.75 306.08 320.76 306.78 323.23 307.22 325.08 307.66 327.28 308.72 329.92 308.9 333 310.36 337.18 310.22 341.41 310.5 345.22 310.08 349.3 309.51 354.8 309.94 359.45 311.49 363.26 311.91 366.78 311.35 370.02 307.82 373.55 307.12 376.08 303.45 377.35 298.66 379.04 295.98 380.31 295.27 381.86 293.44 384.82 290.9 388.49 289.35 392.72 287.8 394.41 284.7 396.95 283.43 398.78 282.87 401.6 282.02 403.57 277.65 405.12 271.59 408.79 270.74 410.05 268.34 410.62 267.07 410.05 261.86 411.04 255.94 411.61 249.73 409.63 248.18 407.66 245.36 405.97 243.25 403.85 240.99 400.75 237.04 392.72 235.85 392.99 235.15 396.16 234.35 397.92 233.91 399.69 233.74 403.47 232.68 407.44 232.24 410.96 232.33 413.52 232.5 415.81 231.27 418.01 229.07 417.48 227.83 416.16 224.92 416.87 222.63 418.54 224.13 420.83 225.98 421.89 225.89 424.09 226.51 425.76 227.13 428.23 228.45 429.55 228.71 431.93 228.36 435.28 228.27 437.74 225.28 438.36 226.25 441.27 226.69 444.7 226.95 447.35 228.62 449.29 230.56 450.34 232.59 450.78 235.32 450.96 236.56 453.07 240.34 457.92 243.96 463.2 244.57 465.94 245.72 468.49 245.81 471.13 245.28 474.75 245.46 476.95 247.66 477.83 249.42 479.94 251.54 483.2 252.33 487.26 250.39 491.84 249.95 494.83 249.69 496.68 248.1 499.59 245.01 503.82 244.84 507.08 245.9 511.04 246.78 515.18 247.66 519.32 247.75 521.26 248.45 523.64 250.13 528.57 249.77 530.42 246.69 532.98 245.46 534.56 246.37 537.61 247.11 541.31 246.79 545.22 245.53 547.34 245.84 550.4 244.68 554.42 243.62 558.65 243.2 562.98 242.57 565.2 238.55 570.17 233.47 572.92 229.14 573.77 225.33 573.98 222.37 572.82 219.3 569.64 216.87 566.26 215.6 563.3 213.27 559.07 212.22 557.38 210.52 553.89 208.62 552.31 207.25 549.98 205.66 547.13 202.81 545.22 203.33 542.58 206.61 541.73 211.37 542.47 214.65 543.21 219.2 543.64 222.47 542.79 224.69 540.89 226.49 537.61 227.55 537.08 230.72 538.03 232.52 537.82 233.47 535.39 233.05 531.16 230.51 528.41 227.02 526.3 223.21 525.24 219.62 524.61 217.5 525.98 219.3 528.1 223.32 529.68 220.46 530 217.19 531.37 213.59 534.02 212.11 535.29 208.73 534.86 207.03 532.85 204.39 529.79 203.23 524.29 206.4 524.29 206.61 522.49 207.56 520.38 204.92 517.1 202.7 514.14 204.92 514.14 207.25 511.82 206.08 507.17 203.65 504.1 198.15 501.14 189.8 496.8 185.25 496.17 180.39 494.27 177.32 493.95 172.14 495.85 168.86 497.12 165.79 498.18 162.83 499.13 159.87 499.87 158.5 500.5 158.6 501.67 159.56 505.16 159.34 507.69 157.02 507.69 154.16 509.6 149.93 511.5 148.24 513.3 145.7 515.31 141.9 517.63 139.36 520.27 137.77 522.92 131 524.82 130.37 526.09 128.47 526.09 125.51 526.51 122.33 528.1 119.9 529.79 118 532.11 119.48 533.7 116.73 535.39 112.5 537.29 109.43 539.2 108.27 541.21 106.26 543.11 103.41 544.48 100.34 546.28 97.17 547.97 93.68 549.24 90.5 550.61 86.38 552.31 78.24 553.68 74.11 555.16 69.25 556.01 64.91 556.43 64.7 553.57 62.86 551.67 60.22 551.85 56.69 552.02 51.76 551.67 47.53 551.67 42.77 550.26 42.06 553.96 44.71 556.25 42.77 559.95 39.77 556.78 35.37 554.49 36.07 552.38 39.07 550.79 39.6 547.97 36.6 546.39 33.08 546.74 30.78 547.62 31.67 551.5 33.08 555.37 32.19 556.43 30.61 558.01 27.79 556.08 26.56 558.19 25.15 560.31 22.5 560.31 17.92 561.89 14.57 562.6 10.87 562.42 6.46 562.24 4.88 564.18 1 563.83 1.18 560.48 1.18 558.54 4 557.13 2.94 553.79 4.17 553.61 5.41 550.97 5.41 548.68 4.35 546.39 5.58 544.8 7.7 543.39 7.52 541.1 8.23 538.28 11.4 536.52 12.98 537.75 16.69 534.23 14.39 534.4 11.57 534.76 12.81 530.18 14.92 522.95 14.57 517.31 14.75 513.26 19.15 510.97 19.68 504.45 22.85 498.28 26.73 491.94 27.26 486.3 29.37 478.73 31.15 471.54 33.79 464.67 38.02 457.27 37.13 451.05 39.95 447.87 40.26 447.34 42.24 444 45.75 444.03 49.82 443.12 53.89 443 55.81 437.83 55.81 429.73 58.98 428.85 61.1 434.13 62.51 441.18 65.21 439.47 65.86 439.06 65.68 433.6 70.08 424.44 71.14 419.68 74.14 421.09 75.55 423.56 78.19 422.68 76.61 419.15 73.26 415.28 75.2 408.05 81.19 406.12 85.77 405.59 78.9 403.47 79.43 400.65 79.6 398.19 82.07 394.66 83.13 391.14 85.95 387.26 86.65 380.57 89.82 376.52 90.18 369.47 91.23 367.53 94.76 364.01 93.7 360.31 100.75 360.48 101.1 358.9 95.82 357.84 94.58 354.49 97.23 351.67 97.4 347.44 97.93 344.27 100.05 341.28 101.98 337.58 102.69 334.76 104.63 333.88 105.51 332.29 106.21 329.47 106.74 326.3 107.1 321.72 110.62 319.96 112.38 320.13 113.48 320.33 114.11 321.17 113.42 321.91 112.05 323.08 112.37 324.24 114.53 324.82 115.33 323.45 115.01 322.12 112.42 315.09 113.9 315.46 115.06 314.99 115.06 313.46 113.53 312.98 113.37 310.65 115.91 310.44 117.65 307.69 118.13 305.58 120.19 304.89 121.46 304.47 121.17 303.27 121.04 302.73 119.98 301.19 120.24 299.45 120.35 297.81 117.34 295.06 116.91 292.63 117.28 290.51 118.76 288.14 120.24 288.24 121.88 289.56 122.89 289.19 122.94 287.18 122.94 285.92 121.46 285.02 119.71 283.91 121.14 280.63 122.36 279.36 125.79 277.62 128.76 276.51 130.71 276.3 132.19 275.61 132.19 274.82 133.2 274.29 138.17 274.87 140.97 275.19 143.08 273.68 142.47 272.27 140.88 271.56 140.26 270.6 140.62 268.83 138.06 268.75 137.44 268.22 137 266.37 135.86 264.96 134.62 262.05 133.92 259.76 132.6 257.38 131.72 255.18 133.13 252.71 134.98 251.39 137.18 251.83 138.5 253.15 139.91 253.68 141.76 254.56 144.49 255 145.82 254.65 143.35 253.06 143.44 251.65 144.14 250.69 144.58 248.48 144.49 246.72 144.41 245.58 145.55 242.85 143.88 240.91 142.03 238.7 141.15 235.97 140.97 233.77 141.5 232.19 143.79 231.57 145.38 230.95 147.58 231.39 150.49 232.45 151.98 234.12 154.36 235.62 156.83 237.21 157.27 236.24 153.13 231.3 151.37 226.81 154.19 227.16 155.42 228.31 156.65 230.25 158.51 231.83 160.71 232.1 161.85 230.07 163.35 227.87 164.59 226.55 167.23 225.93 170.75 225.23 174.98 225.31 175.86 220.2 177.58 219.65 182.23 219.58 183.93 217.96 184.84 216.27 185.55 214.51 185.2 212.89 183.5 212.82 182.23 212.04 181.25 210.21 182.66 209.72 183.64 208.66 188.01 209.72 190.06 211.34 196.69 213.94 199.65 216.55 199.29 218.1 199.29 220.57 202.18 222.05 206.32 223.93 209.76 225.87 208.35 227.55 206.85 229.13 207.29 231.33 210.29 234.07 212.49 235.92 215.57 238.03 220.16 238.65 226.76 239.7 231.39 239.96 236.22 240.68 239.3 241.3 246.6 242.8 248.73 243.24 254.99 245.27 256.73 247.19 258.93 247.72 260.69 248.43 262.37 249.83 263.33 251.16 267.39 254.24 271 258.12 272.59 260.76 274 262.34 275.32 264.72 276.91 265.78 278.84 267.37 277.43 268.6 277.08 270.19 278.32 272.39 280.69 274.85 283.78 276.62 287.57 277.32 291.71 275.65 295.67 274.41 299.2 274.15 302.48 273.25 305.21 271.58 308.2 269.2 310.14 268.32 313.14 268.23 315.34 267.53 317.37 266.56 320.19 266.56 323.18 266.47 324.95 266.56 326.71 267.53 328.38 267.09 330.23 266.47 332.26 266.65 334.99 266.82 336.84 267.09 339.57 267.09 342.39 266.82 345.3 267.35 Z M 271.44 356.53 270.6 357.66 268.34 358.22 265.72 357.39 261.79 358.76 259.6 360.59 257.27 362.99 257.34 364.99 259.18 365.83 261.43 366.12 263.12 365.69 264.53 364 265.24 361.89 267.64 360.9 270.32 360.62 272.71 361.46 275.53 362.03 277.79 361.46 278.63 359.91 279.9 356.95 278.49 355.4 273.84 354.98 271.44 356.53 Z M 66.18 448.45 65.74 445.63 64.17 445.73 63.1 452.68 62.66 461.05 63.71 463.16 67.33 466.16 69.97 467.13 70.5 465.98 68.82 465.19 69.79 463.34 71.64 461.75 73.14 460.96 73.58 458.05 71.2 457.52 68.82 457.7 66.27 459.28 65.56 457.08 65.92 452.32 66.18 448.45 Z M 69.04 442.29 67.41 444.29 68.16 445.95 69.26 448.06 69.79 450.57 69.66 453.66 70.54 456.08 71.77 456.12 72.61 454.1 73.84 452.69 77.28 451.9 78.82 451.59 79.48 450.27 77.68 448.02 75.56 447.84 70.8 444.63 70.45 443.53 69.04 442.29 Z M 225.05 394.79 226.21 395.82 228.18 394.06 229.24 390.53 229.52 386.8 230.23 383.7 229.45 382.64 227.9 383.55 227.76 385.46 227.62 387.85 226.28 391.24 225.05 394.79 Z M 549.28 339.54 549.72 339.7 550.16 339.54 550.7 339.21 551.03 338.56 551.13 337.91 551.13 337.34 551.03 336.61 550.81 336.29 550.7 336.04 550.26 336.04 549.83 336.12 549.39 336.45 548.74 337.02 548.63 337.75 548.63 338.48 548.85 338.97 549.28 339.54 Z" fill-rule="evenodd"/>
</g>
</svg>