<?xml version="1.0"?>
<svg xmlns="http://www.w3.org/2000/svg" version="1.2" baseProfile="tiny" width="800" height="783" viewBox="0 0 800 783" stroke-linecap="round" stroke-linejoin="round">
<g id="sodalake">
<path d="M 374.16 319.44 374.33 320.47 374.45 321.03 375.06 321.34 375.06 321.34 376.91 321.03 378.61 320.41 379.69 319.8 380.77 319.18 381.7 319.18 382.01 319.18 383.09 319.18 383.24 320.26 383.09 321.65 382.57 321.89 381.49 322.39 380.77 322.73 380 322.8 379.23 322.88 379.06 323.05 378.46 323.65 379.23 324.12 380 324.42 381.08 324.73 381.54 325.2 380.93 326.43 380.92 326.43 380.92 326.61 380.43 326.85 379.19 326.81 378.37 326.85 377.79 327.56 378.12 328.67 378.69 330.73 380.77 331.52 383.09 332.14 384.63 331.37 385.56 330.9 386.33 329.51 387.25 328.59 388.02 327.05 389.72 325.66 391.26 324.27 392.19 323.19 392.81 322.11 393.73 320.72 394.81 319.95 395.12 321.03 395.12 321.8 393.89 323.34 393.73 324.42 394.04 325.81 395.74 327.2 394.66 328.28 393.73 328.59 392.65 328.43 390.8 327.82 389.88 328.28 389.1 330.13 388.33 331.06 387.25 332.3 388.8 332.29 391.26 332.91 393.43 333.22 394.97 334.76 393.43 335.38 388.95 335.53 387.41 335.69 384.01 335.84 384.01 336.46 383.51 336.96 383.3 337.17 383.09 337.38 380.46 335.84 377.53 334.61 376.14 333.37 376.61 332.45 376.71 331.1 376.06 328.92 374.82 326.11 372.1 325.25 371.07 323.96 370.04 320.63 369.05 320.34 367.73 320.01 379.55 360.21 381.87 367.67 384.96 377.39 385.95 377.14 386.45 377.63 386.53 378.13 387.19 378.46 388.26 378.42 389.08 378.05 389.82 377.8 389.99 378.13 389.83 378.66 389.99 379.08 391.23 379.45 393.12 379.94 393.45 380.35 392.88 380.93 391.97 381.06 391.56 381.34 391.31 381.88 391.64 382.37 392.05 382.91 391.97 383.32 391.39 383.2 389.99 382.29 388.26 381.34 389.33 388.49 390.61 393.12 391.9 399.81 397.3 411.63 401.93 418.06 409.78 424.13 413.66 424 416.95 424.17 417.37 424.54 416.21 425.08 413.66 425.03 411.35 425.28 410.03 425.73 409.45 426.77 411.02 427.71 415.21 431.44 421.57 437.11 423.55 436.12 425.03 435.54 425.94 435.42 426.52 436.08 425.94 436.94 424.62 437.36 424.04 437.73 424.37 438.35 425.45 438.63 425.69 439.13 424.79 439.75 423.71 439.46 422.81 438.84 421.49 438.92 420.25 439.25 420 439.54 419.67 440.08 420.42 441.4 421.57 443 422.81 443.87 424.54 443.99 427.18 444.08 429.07 443.62 429.98 442.63 430.89 442.06 431.38 442.1 431.55 442.51 431.14 443.38 430.48 443.95 429.57 444.86 428.75 445.4 427.34 445.44 426.27 445.19 425.12 445.39 424.7 446.01 425.45 447.45 427.34 448.82 430.15 451.54 433.44 453.64 434.68 454.3 435.75 454.3 437.49 453.14 438.89 451.17 439.38 450.18 439.71 449.35 439.55 449.11 438.56 449.15 437.57 449.48 437.49 449.19 438.15 448.49 438.48 447.87 437.9 447.17 436.91 446.76 436.25 446.51 436.25 446.05 437.07 445.68 438.23 445.97 438.8 445.64 439.71 444.2 440.21 444.08 440.21 444.86 440.54 446.63 441.03 447.83 441.44 448.12 442.76 447.7 443.34 446.26 444.17 445.23 444.82 444.32 445.15 443.66 444.82 442.59 443.92 441.19 443.34 439.75 442.52 439.34 440.95 439.25 439.71 439.17 438.56 438.51 438.23 437.89 438.8 437.61 439.96 437.73 440.7 438.14 441.28 438.02 440.62 436.74 440.21 435.26 440.54 434.31 441.03 434.1 441.61 435.38 441.77 436.37 442.85 438.02 444.08 438.27 445.15 438.31 445.4 439.42 445.57 440.94 445.9 441.85 447.3 442.8 448.78 442.76 449.28 442.14 448.54 440.82 447.88 438.88 447.71 437.32 447.88 435.59 448.21 434.35 448.21 433.44 447.71 433.03 447.3 432.82 446.64 432.66 446.64 432.21 447.05 431.96 447.38 431.67 447.63 430.27 447.88 428.41 448.21 427.59 447.71 426.89 447.05 426.06 446.89 424.91 447.63 423.72 449.11 423.39 449.94 423.18 450.68 422.23 451.34 421.65 451.92 421.65 451.75 423.01 451.42 424 450.68 424.58 449.44 425.03 448.95 425.32 448.78 425.86 449.11 426.68 450.27 427.18 451.09 427.05 451.5 427.3 451.09 428 450.02 428.54 449.77 429.94 449.94 431.75 450.27 432.74 451.5 433.11 452.58 432.78 453.57 432.58 454.31 432.91 453.81 433.77 452.82 434.18 451.5 434.84 450.52 436.16 449.94 437.36 449.94 439.46 451.01 440.53 453.98 441.23 454.47 441.65 453.98 441.93 452.74 441.69 452.25 441.64 452.08 442.18 451.83 443.33 451.5 443.87 451.34 444.94 451.67 445.64 451.17 446.01 449.94 445.27 449.28 444.45 448.54 444.45 447.63 444.94 447.05 446.63 445.9 448.07 444.74 449.43 444.08 450.14 444.25 450.79 446.47 451.08 448.29 451.17 448.78 451.66 447.71 452.36 446.31 452.53 443.92 452.48 442.84 452.32 441.69 452.4 440.29 452.98 438.64 454.59 438.15 455.66 438.31 456.32 439.3 457.02 441.11 457.84 443.34 457.55 445.48 456.73 447.55 455.66 447.71 454.92 449.28 453.64 451.42 452.94 452.74 452.86 453.4 453.31 453.65 453.84 453.4 454.38 451.92 454.83 450.43 455.53 449.77 456.03 449.94 456.56 451.09 456.77 452.91 456.73 454.31 456.69 455.21 456.69 455.71 457.14 455.21 457.64 454.14 458.17 453.15 458.42 452.41 458.87 452.74 459.74 453.65 460.32 454.22 460.73 454.47 461.18 453.98 461.35 453.07 461.43 451.75 461.14 451.17 460.4 450.76 459.45 450.51 458.71 449.94 458.3 448.21 458.21 447.22 458.63 446.8 459.41 446.8 460.15 446.8 460.93 446.64 461.55 451.09 466.21 451.92 468.27 459.02 474.88 462.11 476.42 470.3 478.2 468.74 476.64 467.75 475.57 467.34 474.91 467.34 474.12 467.34 473.26 466.68 472.31 466.43 471.61 466.76 470.87 468.16 470.58 469.4 471.57 469.97 472.27 470.47 473.63 470.55 474.62 471.05 475.69 471.87 476.43 472.53 476.68 473.27 476.56 474.18 477.01 474.18 477.59 474.51 479.07 475.91 481.09 477.4 482.04 478.63 482.41 479.29 482.57 479.7 482.94 484.22 484.65 500.17 485.68 509.17 485.16 511.73 485.54 513.93 484.02 511.86 483.48 509.64 483.03 507.82 482.61 505.27 482.24 503.04 482.12 500.9 482.04 498.34 482.41 497.02 482.99 494.96 483.77 493.31 484.14 491.74 484.06 490.18 484.18 488.94 484.14 487.87 484.02 487.54 483.77 487.95 483.36 490.09 483.07 492.9 482.66 496.44 481.95 497.76 481.34 497.76 480.55 497.1 479.81 496.2 478.95 495.37 478.53 493.97 478.82 492.4 479.36 491.08 479.48 489.68 479.48 488.77 479.23 488.53 478.95 489.1 478.45 491.41 477.54 492.9 477.05 493.31 476.64 493.15 475.9 492.73 474.95 492.24 474.33 491 474.33 490.01 475.15 489.27 475.77 488.28 476.14 487.37 476.35 486.47 476.27 485.31 476.51 483.91 476.93 482.67 477.46 481.68 477.71 480.36 477.59 479.62 477.42 479.04 477.05 479.62 476.72 480.78 476.68 482.01 476.8 482.84 476.39 482.67 475.98 481.35 475.81 479.95 475.57 478.8 475.07 478.8 474.78 478.96 474.37 480.53 474.08 482.84 473.79 485.89 473.63 488.2 473.01 489.6 472.56 490.34 472.1 491 471.49 491.17 470.29 490.67 469.84 489.02 469.59 487.29 469.51 485.81 469.38 484.49 469.14 484.24 468.93 484.74 468.48 485.81 468.27 487.95 468.11 490.18 467.86 491.41 467.74 492.16 467.24 493.06 466.13 493.31 465.06 493.23 464.77 491.91 464.68 489.93 465.47 487.37 466.25 485.48 466.79 483.17 467.16 481.6 467.2 480.2 466.95 478.47 466.25 481.77 466.09 483.66 465.72 484.24 465.55 484.74 464.97 484.9 464.64 484.82 464.11 485.15 463.7 486.55 463.86 487.29 464.36 487.87 464.07 487.37 463.24 487.37 462.87 488.78 462.71 490.67 462.87 492.73 462.83 493.97 462.38 495.87 461.1 497.43 459.82 499.91 458.09 500.57 457.35 500.48 456.52 500.82 456.24 501.23 456.65 502.79 457.35 503.7 456.9 503.54 455.08 502.63 453.56 500.16 452.9 497.27 452.77 494.8 452.77 492.73 453.14 491.66 453.47 490.34 454.3 489.93 455.33 489.93 456.32 489.6 457.18 488.03 457.68 487.04 457.84 485.64 458.58 484.16 459.16 483 459.53 482.01 460.07 480.94 460.32 480.2 460.15 480.53 458.75 482.43 458.09 484.49 457.55 486.22 455.91 487.37 454.75 487.87 453.14 488.28 452.65 489.6 451.99 490.18 451.41 490.09 450.75 488.36 450.42 486.8 451.12 485.06 452.53 483.17 454.01 480.69 455.91 479.04 456.98 477.89 457.64 477.07 457.93 475.91 458.13 475.33 457.97 474.76 457.68 475.42 456.89 476.9 455.95 481.77 452.73 483.91 451 484.49 450.14 483.66 450.22 481.6 451.29 479.04 452.24 476.24 453.31 475.33 453.89 474.1 454.55 473.11 454.71 472.53 454.3 473.11 453.06 474.51 451.95 478.47 450.47 480.94 449.35 481.6 449.11 481.6 448.69 480.61 448.32 478.8 448.12 477.4 448.03 475.66 448.57 474.51 449.31 474.18 449.93 473.6 450.01 473.03 449.68 472.7 449.19 471.71 448.69 469.97 448.36 468.57 448.32 467.75 448.2 468.16 447.74 469.89 447.66 474.43 446.88 474.84 446.18 473.77 444.94 471.71 443.62 471.29 442.8 470.55 442.55 468.74 443.05 466.51 443.99 464.62 443.99 464.2 443.25 465.61 442.67 467.5 441.81 468.74 441.36 468.9 440.82 468.41 440.41 466.76 440.37 464.62 440.53 463.05 441.07 461.56 441.32 461.07 440.95 461.4 440.37 461.98 439.87 461.98 438.97 461.65 438.31 461.81 437.77 462.47 437.81 463.54 438.64 465.6 439.17 467.67 439.25 469.65 439.71 471.38 439.87 471.95 439.67 473.03 438.55 473.11 438.27 474.1 437.52 474.84 436.95 474.76 436.37 473.6 436.08 471.71 435.55 471.21 435.05 471.29 434.76 472.53 434.76 475.01 435.17 478.14 436.37 480.2 437.4 481.36 438.06 483.5 438.59 484.57 438.43 484.9 438.1 485.15 437.15 484.74 436.08 483.83 434.68 482.76 433.48 481.77 432.7 480.94 432.41 480.28 432.21 480.04 432.04 480.53 431.67 480.94 431.71 481.44 431.75 481.68 431.22 481.77 430.43 482.18 429.44 483.66 428.13 486.63 427.26 487.87 426.89 488.28 426.48 487.87 425.98 485.31 426.23 482.67 426.6 480.78 426.64 479.62 427.01 478.88 427.38 478.47 427.34 478.47 427.1 478.88 426.31 479.05 425.82 478.8 425.28 477.4 424.05 476.16 422.35 475.67 421.82 474.51 421.53 473.77 421.33 474.35 420.83 474.84 420.75 475.83 420.54 476.24 419.92 476.08 419.39 475.42 418.93 474.68 418.73 474.43 418.15 475.01 418.03 476.41 418.07 477.48 417.74 478.47 417.12 479.21 416.54 480.78 416.05 482.01 415.88 483.91 415.43 484.24 415.22 484.41 414.65 483.75 413.95 482.84 413.37 482.18 412.55 481.11 412.05 479.54 411.85 478.22 411.39 477.64 410.49 477.56 409.83 477.89 409.29 478.14 408.84 478.55 408.63 478.8 409.25 479.21 410.4 480.78 410.98 482.51 411.39 484.24 411.72 485.15 412.22 485.97 413.2 486.88 414.11 487.54 414.52 487.87 415.06 487.29 415.72 486.22 416.13 483.75 416.54 481.6 417.16 479.87 417.78 478.55 418.85 477.97 420.21 477.81 421.9 478.88 423.55 480.2 424.75 481.93 425.04 483.91 424.87 486.47 424.42 488.53 424.13 489.93 423.84 491.5 423.84 492.9 423.34 493.56 422.6 494.47 422.03 495.37 422.07 495.62 422.23 495.37 422.6 494.47 423.76 494.3 424.54 495.04 424.87 496.77 424.62 498.18 424.83 498.51 425.12 498.18 425.41 496.94 425.69 495.95 426.23 495.29 426.89 494.14 427.18 492.16 427.26 490.18 427.59 488.53 428.5 487.87 429.44 487.21 430.1 486.3 430.27 485.64 430.43 485.31 430.8 485.23 431.09 486.47 432.7 487.21 433.61 488.53 433.9 489.35 433.48 490.67 432.66 491.91 432.04 492.49 432.41 492.73 433.11 493.56 433.24 495.37 432.7 497.02 432.29 499 432.29 500.24 432.49 501.56 432.66 502.22 432.37 502.55 431.84 503.37 431.42 504.77 431.46 506.18 431.71 506.51 432.04 506.17 432.7 506.01 433.03 506.34 433.44 508.07 433.32 510.79 432.99 512.28 432.37 512.94 431.38 513.1 430.35 513.1 429.24 512.77 428.46 513.02 427.8 513.93 427.84 514.67 428.87 515.33 429.86 516.48 430.64 518.13 431.09 519.04 431.96 520.44 432.87 522.42 433.73 524.73 434.64 528.6 434.1 529.92 433.32 531.82 433.03 534.46 432.5 536.19 431.13 536.77 430.52 537.92 430.64 538 431.79 536.77 433.07 535.86 433.73 535.04 434.27 534.95 434.97 536.03 435.63 537.59 436 538.5 436 539.32 436.49 538.99 437.11 538.17 437.65 536.77 439.26 536.77 440.9 537.26 442.63 537.92 444.12 538.17 445.44 538.17 447.33 537.92 448.69 538.09 449.6 538.33 450.26 538.17 450.96 537.59 451.25 536.19 450.96 534.46 451.13 532.73 452.03 531.32 452.57 529.43 453.14 527.04 454.75 525.63 455.82 524.48 456.48 523.49 457.35 523.16 458.01 522.42 458.75 521.76 458.67 521.92 457.1 523.33 455.21 523.9 453.43 523.82 452.36 524.23 451.45 525.8 450.3 528.27 449.06 529.43 446.8 529.68 444.24 529.26 442.26 527.7 440.9 525.63 440 524.23 439.91 523 440.86 522.17 441.6 521.35 441.97 521.02 441.4 521.93 440.2 521.76 438.43 521.02 437.4 519.37 437.15 517.55 437.4 516.73 437.32 517.14 436.16 517.55 434.93 516.23 434.14 514.09 433.77 512.36 434.8 511.29 435.59 509.14 435.63 507.16 435.38 504.44 435.75 502.13 435.59 500.16 434.8 497.6 434.72 494.22 435.21 491.83 435.42 490.43 435.75 490.18 435.83 490.09 436.33 490.75 437.11 491 437.44 490.84 438.43 489.6 440.08 488.53 440.98 485.97 442.39 484.24 442.39 482.67 441.73 481.11 440.98 478.96 440.28 476.82 439.87 475.5 440.12 474.84 440.99 475.83 442.92 477.89 444.45 482.1 446.84 486.88 447.13 490.1 447.79 492.9 448.9 495.95 450.22 499.08 450.51 501.64 450.38 503.87 450.3 505.43 450.92 506.34 452.36 507 453.89 507.16 455.58 507.74 456.36 508.81 456.57 509.31 457.18 508.57 458.01 507.91 458.38 508.15 459.04 509.06 459.74 509.22 460.19 508.15 460.52 506.17 459.9 505.6 460.36 505.76 461.47 504.61 462.46 503.95 462.13 504.77 461.64 504.28 460.6 503.04 460.56 502.13 461.18 501.97 462.25 501.47 462.87 500.9 462.09 500.73 461.14 499.5 461.39 496.77 463.66 495.54 466.29 494.46 468.48 493.97 471.49 494.79 472.93 495.62 473.51 496.44 473.63 498.09 472.97 500.48 471.86 501.8 471.65 502.22 472.19 502.22 473.05 500.9 474.49 499.91 476.1 499.83 477.34 501.47 478.37 502.79 479.69 503.04 480.22 503.62 480.39 504.19 479.94 504.19 478.66 504.61 478.2 505.68 478.95 507.66 480.31 510.46 480.76 515 481.05 517.31 480.6 518.87 479.32 518.96 478.08 518.3 476.89 517.14 476.19 515.16 475.65 513.6 474.25 512.19 471.49 512.19 469.96 513.02 469.18 513.68 469.3 514.42 470.54 515 471.77 516.73 472.89 518.46 472.97 520.27 472.48 521.35 472.56 522.01 473.34 523 473.63 525.06 472.43 527.94 469.84 528.36 469.26 528.03 468.52 526.21 468.56 523.16 469.01 519.37 469.01 516.73 468.44 515.08 468.07 514.5 467.45 514.5 466.79 515.9 466.87 517.47 466.99 518.13 466.66 518.46 465.8 517.64 464.48 517.31 463.74 517.64 463 518.96 462.83 520.77 463.45 523 464.44 523.9 464.48 524.48 463.78 524.81 463.32 525.31 463.24 526.21 464.23 526.71 465.22 528.44 466.42 530.17 466.33 531.74 465.8 533.06 464.89 533.14 464.15 532.23 463.61 530.17 463.45 529.26 462.63 529.26 462.01 530.5 461.51 533.22 461.27 535.04 461.51 536.19 462.38 537.59 464.03 538.5 464.69 540.07 465.39 541.86 465.33 542 465.27 544.53 463.19 547.78 461.41 553.28 459.51 554 458.74 552.7 457.85 548.72 457.97 548.22 457.38 550.02 456.37 551.83 456.07 553.28 456.07 556.75 457.25 560.88 457.72 563.05 456.83 563.41 458.2 561.82 459.39 560.37 459.5 560.16 460.1 562.33 460.69 564.71 462.95 569.2 464.72 568.99 465.79 565.73 466.09 564.28 467.28 564.65 469.35 564.07 469.77 560.66 463.84 557.26 462.06 554.73 461.7 553.28 462.18 551.77 463.37 551.26 464.85 551.26 465.56 553.21 466.93 553.58 469.3 552.86 469.72 550.47 467.94 548.15 467.05 549.81 464.26 548.44 463.84 546.49 465.68 544.32 465.57 543.59 467.05 544.17 468.65 546.64 470.91 547 472.27 546.49 474.17 545.05 474.94 545.05 472.27 544.32 471.2 542.15 470.14 541.88 470.14 540.72 469.67 540.56 468.89 539.82 468.02 538.75 467.41 536.27 467.57 533.22 469.43 530.99 471.2 528.19 473.67 525.22 476.18 523.32 478.04 521.59 479.98 520.6 482.24 520.36 483.07 525.63 484.65 532.57 490.05 534.13 493.54 534.95 491.93 535.04 491.56 535.86 491.56 537.59 491.85 539.4 491.93 540.56 492.34 540.56 492.75 540.06 493.37 538.5 493.7 537.1 494.36 536.19 495.06 534.87 495.47 538.49 497.76 542.34 498.79 546.51 500.04 547.38 499.45 548.69 500.93 551.44 501.11 552.52 499.45 555.05 501.23 555.05 501.82 554.11 502.71 550.28 503.01 548.83 504.38 545.94 503.01 545.29 503.07 543.33 503.67 541.88 504.67 540.39 503.76 539.07 503.55 537.67 503.8 536.19 503.92 535.36 503.63 534.21 504.01 534.46 505 534.7 506.48 535.53 507.43 537.1 507.68 538.99 507.88 540.23 508.66 541.88 509.57 544.64 510.43 545.73 510.55 547.75 509.83 550.07 507.64 552.81 506.57 555.35 506.27 558.24 506.74 560.27 507.81 559.9 508.4 557.01 508.23 554.26 508.53 551.73 509.83 551.15 511.2 552.46 512.5 556.22 511.97 557.16 512.26 556.44 513.15 553.47 515.23 553.69 518.02 555.14 518.61 555.86 519.68 554.56 520.1 552.39 519.39 551.31 520.57 549.28 520.81 547.83 521.7 548.05 520.4 549.86 518.62 550.8 516.66 550.43 514.88 548.41 513.57 546.82 515.06 545.51 515.06 544.21 516.07 542.77 514.88 542.98 512.92 541.88 512.45 540.79 512.14 539.9 511.63 539.16 510.72 538.5 510.11 537.26 509.45 536.68 509.28 535.94 509.45 535.36 510.52 535.61 511.76 535.94 513.28 536.19 514.85 536.02 516.41 536.19 517.28 537.92 517.98 539.4 518.35 539.57 519.17 539.4 519.83 538.74 520.37 538.5 521.03 537.92 521.32 537.59 520.66 536.93 520.29 535.86 520.49 535.28 521.61 534.87 523.17 535.28 523.87 536.44 524.24 537.34 523.87 538.33 523.63 538.99 524 538.99 524.29 539.57 524.45 540.39 524.37 540.56 524.82 540.81 527.09 540.81 527.33 540.23 527.5 539.16 527.21 538.17 526.84 537.67 527.01 536.76 527.42 536.35 527.01 535.86 526.35 535.36 525.93 535.03 526.18 534.87 527.75 535.03 529.11 536.35 530.43 538.66 531.29 539.9 531.83 540.48 532.32 540.81 532.82 540.81 533.19 540.48 533.27 539.32 532.78 538.17 532.45 537.01 532.49 536.43 532.98 535.86 532.9 535.28 532.2 534.87 531.95 533.96 532.36 533.47 534.26 533.22 536.11 534.7 536.24 536.02 535.66 536.43 535.7 537.67 536.53 538.83 536.69 539.16 537.35 538.99 537.76 537.26 537.64 535.94 537.89 535.61 538.22 535.36 538.42 534.54 538.88 535.36 539.7 537.59 540.15 538.17 540.65 538.17 540.94 536.77 540.85 534.62 540.48 533.3 540.44 532.39 541.14 531.82 542.67 530.99 544.56 531.9 545.06 532.48 545.31 531.9 545.63 531.16 545.97 531.82 546.79 532.07 547.2 530.99 547.49 530.09 548.31 530 550.54 530.33 555.49 530.99 557.63 531.9 558.78 532.06 560.14 531.73 562.2 531.57 563.89 532.39 564.51 533.3 564.6 533.96 564.18 534.87 564.1 535.53 564.72 536.93 564.88 537.67 564.1 538.33 562.74 538.99 561.87 539.57 561.67 539.73 562.58 539.4 564.43 538.74 565.79 537.75 566.66 536.19 567.4 535.36 568.34 535.61 569.21 535.28 569.99 534.7 570.98 534.87 572.84 534.95 575.48 534.45 577.04 534.46 578.61 533.55 579.68 535.94 581.82 536.27 581.41 536.76 581.37 536.35 582.36 536.6 583.31 537.09 583.97 538.17 583.76 538.17 582.77 538.41 582.28 538.99 582.65 539.48 583.06 544.04 579.91 547.74 576.18 551.86 573.86 560.35 571.81 567.55 570.24 565.16 569.47 562.05 569.47 556.27 570.95 553.01 568.82 550.83 565.26 548.16 563.9 546.13 563.31 547.14 562.18 548.59 562.24 549.97 561.7 551.05 559.33 553.22 563.06 555.25 564.66 555.75 564.25 554.88 562.17 555.03 561.28 559.08 558.43 558.57 555.35 557.26 554.28 556.04 554.16 553.79 554.4 555.67 552.2 556.18 552.38 556.9 552.38 558.2 550.72 559.07 551.01 560.52 552.5 561.61 556.71 562.55 557.3 563.42 556.53 562.69 552.97 563.99 550.6 561.46 549.11 560.01 548.22 559.86 547.63 560.59 546.86 561.67 546.56 563.12 546.86 563.7 546.44 563.48 543.47 564.42 542.58 565.5 544.24 566.44 542.17 566.95 541.99 567.68 544.84 568.61 543.35 576.06 536.23 576.78 535.93 577.15 536.7 576.21 538.31 574.62 541.27 572.38 543.35 567.46 550.77 565.8 557 566.67 558.6 569.06 559.55 568.12 565.19 570.63 566.41 574.75 566.92 578.6 566.92 582.09 564.06 581.72 563.76 583.17 562.39 582.66 561.98 578.47 562.69 579.33 561.33 578.46 560.14 579.84 559.49 580.56 558.89 580.92 558.3 579.91 557.95 579.4 557.47 579.76 556.46 578.89 551.71 577.44 550.17 577.08 548.87 578.38 547.8 579.61 548.57 579.98 550.65 581.57 551.54 582.87 550.05 587.43 549.51 582.87 552.6 582.29 553.49 582.51 554.38 584.32 555.45 583.02 558.06 583.53 559.31 584.47 559.9 585.92 559.9 588.66 556.04 592.13 555.33 592.06 556.22 590.47 557.05 589.53 558.24 591.34 559.01 590.26 561.26 590.76 561.68 593.37 561.85 599.52 560.84 614.99 554.66 616.94 553.18 616.22 552.11 611.88 552.53 607.54 552.05 607.74 551.54 608.18 550.47 610.24 548.93 611.01 550.04 613.9 550.33 618.61 549.74 621.71 548.43 623.38 547.83 623.38 546.94 621.71 547.36 621.35 547.06 618.98 546.1 615.89 545.07 614.61 544.3 616.41 544.3 619.24 544.04 621.81 542.76 622.58 540.7 622.58 538.9 624.38 539.41 625.67 540.96 627.21 540.96 630.81 540.44 629.88 541.78 627.93 543.08 626.99 543.38 624.46 544.69 624.46 545.46 624.9 545.52 626.05 545.64 633.64 541.21 645.21 534.01 658.58 525.53 668.35 518.56 665.97 518.85 664.3 519.74 659.24 521.05 646.73 526.82 644.7 527.11 646 525.45 645.42 524.15 646 523.67 651.07 523.13 658.73 519.57 659.96 518.26 666.18 516.95 666.54 516.95 667.77 516.36 670.16 516.18 673.2 519.21 675.01 519.03 675.95 518.43 677.97 517.54 679.78 516.35 680.14 515.76 679.64 515.35 676.31 516.65 675.95 516.95 674.72 516.83 676.16 513.69 675.29 512.97 673.78 513.09 672.91 512.5 669.8 512.92 668.71 513.81 665.31 513.81 669.87 510.72 670.37 510.25 673.12 510.42 675.44 509.24 676.16 511.01 677.46 512.08 679.78 512.68 690.92 509.29 693.81 506.5 693.81 505.01 692.22 504.54 685.27 505.26 681.08 507.16 677.32 507.34 676.95 506.45 671.67 505.5 672.61 504.91 676.95 504.31 685.49 502.29 690.77 502.29 693.81 503.06 697.42 502.76 699.67 501.75 701.98 499.37 695.32 497.59 688.81 493.39 686.28 492.32 682.23 494.99 681.5 496.77 679.19 497.07 677.67 498.26 677.17 499.56 675.86 499.15 674.63 500.16 672.03 500.75 668.2 504.31 667.69 503.84 668.05 503.42 671.52 499.27 673.69 498.08 675.72 497.19 679.33 495.29 680.63 493.63 680.27 493.03 676.8 493.21 673.18 494.4 671.38 495.23 669.93 496 668.63 496.72 667.76 496.42 669.93 493.16 671.37 492.74 671.95 491.55 674.99 491.85 680.13 490.54 680.49 490.36 684.32 489.05 686.85 488.76 688.44 489.05 694.23 492.49 696.77 492.97 702.63 491.48 702.99 490.47 702.26 489.88 700.24 490.59 699.51 489.88 695.39 488.04 695.53 487.63 700.09 487.8 701.18 487.62 701.75 486.91 700.31 485.55 698.64 484.36 698.13 483.17 698.13 481.99 698.64 481.81 700.67 483.47 702.48 484.24 704.65 483.94 713.54 479.67 718.24 478.48 719.26 477.94 720.27 476.4 721.21 476.87 721.21 479.07 718.82 482.21 718.25 482.04 718.1 480.73 715.93 481.15 714.85 482.22 713.33 482.63 714.41 485.78 714.05 486.19 713.18 485.9 711.52 483.94 709.57 483.64 707.18 485.01 706.46 486.02 707.18 489.16 710.73 491.95 711.09 492.84 710.22 493.43 706.97 493.02 704.58 493.32 702.92 494.92 703.5 496.4 704.94 497.47 709.07 498.18 717.82 500.91 720.86 502.87 723.04 506.13 728.53 507.22 733.74 506.3 735.4 500.07 733.59 499.95 731.42 498.59 726 498.71 720.86 496.93 716.73 494.68 717.46 494.08 719.12 493.96 722.38 496.16 724.91 496.34 725.63 495.74 725.05 493.49 722.23 490.11 721.65 487.73 722.23 486.25 723.31 485.48 723.67 485.77 723.68 488.62 727.08 491.47 727.3 492.78 729.47 495.15 730.7 495.15 731.64 494.14 739.96 498.76 741.91 499.65 744.08 499.83 746.98 499.12 749.58 497.63 751.53 495.85 754.13 491.1 753.63 490.33 752.11 490.03 749.11 488.76 746.28 485.68 743.97 484.14 740.88 480.54 740.88 480.02 743.19 481.31 744.74 482.34 746.02 482.59 748.08 484.14 749.65 485.59 752.32 487.07 753.32 486.47 750.13 477.57 749.63 476.17 753.11 475.32 756.44 473.71 759.91 469.44 760.05 468.07 758.97 467.66 754.05 468.67 747.57 471.28 746.28 468.71 748.85 468.97 752.97 467.68 754.51 466.4 751.42 465.11 748.85 464.08 750.91 462.54 754 464.34 755.71 466.41 759.55 465.88 760.85 464.51 761.93 464.22 762.8 465.11 764.61 464.81 765.31 461.25 765.97 460.49 766.36 460.03 771.48 454.05 773.79 451.33 769.67 451.39 767.79 452.23 763.23 456.5 760.84 456.62 757.95 457.99 756.14 461.07 750.14 460.6 747.57 461.51 745.51 458.68 747.05 456.37 749.11 456.63 750.91 457.14 754.25 456.63 757.22 456.62 759.03 455.31 763.44 453.24 761.78 451.28 760.19 451.87 759.46 451.58 759.03 450.03 757.44 450.27 757.44 449.2 756.71 448.61 754.54 448.91 754.47 447.48 752.73 446.36 753.31 445.65 758.16 447.42 759.61 448.61 761.05 448.79 762.72 447.9 765.83 449.67 771.04 449.55 773.43 448.07 776.18 448.54 779.43 448.24 782.32 446.64 783.77 443.79 783.48 441 781.45 439.46 780.22 439.17 777.11 440.53 774.94 442.43 773.42 446.17 770.53 445.22 768 445.4 766.7 446.11 763.08 445.94 759.82 444.63 764.02 443.56 765.32 442.85 767.85 443.15 771.61 442.85 772.05 441.96 770.38 440.77 772.77 439.46 771.68 438.1 768.21 437.21 768.21 436.62 774.43 435.73 776.39 436.79 780.22 436.97 781.52 435.6 780.43 433.23 780.94 426.64 777.9 425.52 775.37 425.22 770.81 426.35 769.22 427.54 766.83 428.43 763.72 430.09 763 432.17 760.83 434.48 759.67 436.56 757.14 438.64 756.64 438.94 756.27 438.52 757 437.45 757.36 434.19 755.55 432.88 753.23 432.23 750.14 431.43 745.77 431.43 743.45 432.71 741.39 432.71 742.42 431.17 740.88 429.89 743.45 429.89 745.77 429.89 748.08 429.89 750.14 429.89 751.42 429.89 753.74 430.93 755.55 431.22 759.74 431.1 761.55 428.25 758.37 427.32 757.6 425.77 759.14 426.54 761.71 426.8 763.77 426.54 766.83 425.94 768.64 425.52 769.36 424.27 768.35 423.09 766.39 422.91 763.57 423.09 761.04 423.98 760.68 423.39 757.08 421.4 753.48 422.17 750.91 423.46 749.88 422.69 747.05 422.17 750.39 420.12 746.02 418.57 749.62 418.57 753.22 419.86 758.62 420.37 763.77 419.86 767.63 419.86 770.97 421.15 772.33 422.08 779.42 422.55 780.14 421.84 779.92 421.18 777.82 416.32 776.52 414.84 775.29 414.24 772.39 414.07 766.53 414.9 765.66 414.6 765.67 414.01 760.94 413.43 759.4 414.46 759.14 413.17 757.6 413.17 755.02 414.2 755.02 412.4 749.88 409.83 753.74 410.35 758.11 411.89 761.97 411.89 766.6 411.89 770.16 412.36 770.45 412.4 776.15 411.99 777.09 411.1 776.01 407.66 774.2 406.65 772.39 403.68 770.94 402.44 770.65 399.05 767.97 393.24 767.89 391.7 768.47 390.27 770.28 392.53 771.37 396.8 772.24 397.57 773.03 396.97 773.03 394.9 774.12 395.49 774.99 402.2 776.08 404.09 776.95 403.38 776.94 400.71 777.67 400.42 778.25 401.01 779.48 404.87 779.84 408.6 783.57 405.98 785.37 404.18 788.2 403.15 787.68 404.69 787.43 405.72 788.46 405.98 791.03 405.46 791.03 406.49 790.26 407.26 787.68 407.52 785.63 407.78 784.08 407.78 782.54 409.32 780.71 410.38 780.21 411.69 785.11 412.4 786.91 411.89 788.71 412.15 790 412.15 791.8 409.58 792.57 410.6 793.6 412.66 792.83 414.2 789.23 415.23 790.51 415.23 794.89 415.23 794.89 417.03 792.06 417.03 788.2 416.52 785.11 415.23 781.58 416.14 782.16 416.5 786.66 419.6 790.26 420.63 792.66 419.34 794.37 418.32 795.66 420.12 795.66 421.92 794.37 422.69 792.06 424.74 792.83 426.29 796.17 425 796.43 426.54 795.14 428.09 790.42 428.24 790.05 428.54 783.9 425.4 783.32 425.81 783.33 428.66 784.99 429.25 786.44 429.25 786.94 429.73 786.95 431.21 788.39 432.51 790.78 432.4 791.29 432.87 791.65 436.25 794.69 440.29 795.06 443.67 796.94 449.17 799 458.94 798.49 467.68 796.69 473.34 793.34 477.96 789.48 483.88 787.68 488.51 782.91 494.46 780.19 506.05 779.1 507.65 774.99 519.99 758.88 570.01 755.54 577.72 752.71 594.18 751.17 616.8 748.34 646.88 748.59 663.85 750.14 697.27 752.2 710.9 754.98 724.31 759.99 734 762.16 740.4 766.43 749.48 766.8 750.49 766.07 751.26 768.03 752.15 768.97 753.52 769.33 755.12 767.88 756.19 766 756.01 763.69 753.75 762.89 753.99 762.24 754.65 762.75 756.9 764.2 759.27 771.94 765.38 772.88 764.67 772.52 762.3 773.24 761.23 774.18 762 777.08 767.04 776.64 768.82 773.54 773.99 772.45 775.06 771.37 774.46 770.5 774.58 769.92 777.43 771.37 781.11 770.94 781.88 770.43 782 767.68 780.7 765.51 778.86 763.34 777.97 764.13 773.69 760.88 769.78 758.71 768 757.84 766.4 755.81 762.78 751.83 759.22 748.28 754.59 745.54 753.7 741.92 749.08 740.11 748.07 738.66 747.89 733.31 743.44 728.54 744.84 724.93 739.7 727.36 739.03 726.94 736.98 724.41 735.2 721.33 737.64 717.99 737.9 716.96 736.1 714.13 735.07 713.36 732.75 711.82 729.67 710.53 726.84 709.5 725.3 708.22 723.24 707.96 721.44 707.19 720.67 705.65 719.13 703.64 717.04 702.77 716.99 701.68 715.98 699.73 715.27 696.65 714.5 695.1 713.99 692.53 713.21 693.05 711.42 693.3 710.64 693.3 709.87 692.27 709.36 690.22 708.07 688.42 706.79 686.36 706.79 685.07 705.5 682.76 705.76 679.67 705.5 680.19 703.19 680.44 701.39 679.67 698.82 681.22 697.02 683.02 694.96 679.42 694.7 676.07 696.5 675.04 697.79 673.76 700.36 672.22 702.42 668.87 703.7 666.04 703.45 669.13 701.39 670.67 699.59 672.99 697.27 672.73 694.96 671.7 692.65 670.67 690.85 669.13 689.3 667.33 689.56 663.21 692.65 665.01 689.56 666.81 687.5 668.36 686.48 671.44 685.96 674.02 687.25 676.07 687.25 676.33 686.22 675.3 685.19 674.27 684.42 673.24 683.91 670.93 682.88 669.9 682.36 668.36 682.36 666.81 682.62 664.76 683.39 662.44 683.65 658.58 683.39 656.78 683.39 654.47 682.11 653.96 682.11 650.36 683.91 648.81 685.7 646.24 686.22 648.56 684.42 649.07 682.88 649.84 680.82 649.33 679.53 646.24 678.51 645.73 677.48 645.21 675.93 644.44 675.16 642.9 675.42 641.61 676.19 639.3 676.19 639.3 675.68 640.07 674.91 640.07 673.62 638.78 673.11 637.5 673.36 635.18 673.11 635.7 672.34 636.47 670.79 638.27 669.51 640.58 669.76 643.41 670.02 646.76 670.79 649.07 670.28 650.87 668.99 653.18 667.45 652.16 665.65 648.81 661.54 646.24 660.25 646 657 639.44 651.86 637.49 651.86 634.02 654.83 632.86 656.19 630.78 658.24 629.78 659.22 628.24 659.22 628.24 656.4 626.7 655.62 625.67 653.82 626.95 653.82 629.52 653.82 631.07 653.82 633.29 652.27 634.23 650.97 634.23 649.78 627.72 646.37 625.67 645.34 622.84 643.03 620.52 642 619.76 639.05 613.39 636.2 607.46 634.96 603.98 635.26 602.54 636.33 601.49 640.45 599.18 642.25 592.49 642 591.46 639.94 590.18 639.17 588.38 639.94 586.83 641.74 586.58 637.37 586.58 636.6 588.38 636.08 591.98 635.83 594.81 636.86 597.12 637.63 598.15 636.08 599.43 634.07 595.32 632.74 587.61 631.2 580.96 630.02 571.36 629.81 563.55 630.95 562.4 635.31 561.37 638.4 560.09 643.28 557.52 638.4 555.97 636.34 553.66 634.8 548.52 634.28 545.17 634.8 541.32 636.34 540.54 634.8 540.8 633.26 538.27 631.55 535.91 632.74 532.57 632.74 528.46 633.26 526.4 633.77 526.4 631.46 522.28 629.91 518.68 629.66 513.28 628.88 509.43 628.88 504.54 628.11 502.48 628.37 498.62 627.34 496.57 628.88 498.37 632.23 496.57 631.97 494.51 631.2 493.48 632.74 489.62 633.26 489.88 632.23 490.4 630.43 488.6 629.14 486.02 629.14 489.62 627.34 492.71 626.06 493.48 624.51 491.9 622.34 490.53 621.85 490.01 621.85 488.34 621.85 486.93 621.47 485.51 621.47 483.97 621.21 482.04 620.69 480.5 620.31 479.47 619.92 478.18 619.41 476.9 619.02 475.87 618.77 474.58 618.25 473.3 617.99 472.14 617.87 470.73 617.99 469.95 618.12 468.28 619.41 467.77 619.54 467.25 619.79 466.74 620.31 466.1 620.69 465.2 620.95 465.07 621.72 465.32 622.37 466.1 622.88 466.22 623.39 465.84 624.04 464.81 624.04 463.78 623.78 463.52 623.39 462.88 622.62 462.37 621.98 461.72 622.11 460.95 622.37 460.44 622.24 459.92 622.24 459.67 621.47 460.31 620.95 461.08 620.69 461.98 620.05 462.88 619.79 464.17 619.15 464.94 618.64 465.88 618.29 465.97 618.25 467 617.61 467.07 617.45 467.12 617.35 467.12 616.84 467.12 616.07 467.38 615.81 467.77 615.17 468.03 614.65 467.51 614.39 466.48 614.14 465.58 613.62 464.3 613.11 462.88 612.98 461.34 612.98 460.05 612.98 458.64 612.98 457.1 612.98 455.04 613.49 454.01 613.75 452.98 613.75 451.57 614.01 450.67 614.14 449.38 614.52 448.48 614.52 447.45 614.65 446.17 614.65 444.88 614.52 443.59 614.52 442.95 615.29 441.92 616.32 441.15 616.71 440.99 616.8 440.51 617.09 439.61 617.22 438.84 617.22 438.36 616.84 438.19 616.71 438.19 616.69 438.19 616.07 438.71 616.07 439.35 615.68 440.51 615.29 440.64 615.04 439.74 614.78 438.19 614.27 436.52 613.75 433.18 613.11 431.12 613.11 429.96 612.85 426.75 612.34 424.82 612.21 422.25 611.7 420.32 611.05 418.52 611.05 416.59 610.28 414.53 609.9 412.73 609.64 411.06 609.51 409.9 609.51 408.36 609.9 405.92 610.41 404.12 610.92 402.32 611.18 401.16 611.95 400.26 613.37 400.26 614.52 400.39 615.68 400.39 615.86 400.39 616.71 400.39 617.35 400.26 617.99 399.23 617.48 398.97 616.19 398.46 615.55 398.07 614.27 398.07 613.37 397.82 612.47 396.66 612.47 394.73 613.11 392.8 613.62 390.62 614.01 388.43 614.65 386.63 615.17 384.96 616.32 384.32 617.22 383.29 618.12 382.13 618.64 381.62 618.64 381.23 617.87 381.23 617.09 380.33 616.58 378.4 616.58 376.99 616.58 375.57 616.71 373.64 616.58 371.97 616.19 370.04 616.07 368.89 615.81 367.47 615.81 365.67 616.07 364.39 616.84 363.1 617.35 362.71 617.22 362.71 616.58 362.84 616.07 363.23 615.42 362.84 614.91 361.81 614.78 360.66 614.52 358.86 614.14 357.18 613.88 355.64 613.62 353.97 613.11 352.94 613.11 351.78 613.11 351.01 613.11 350.63 612.72 350.63 611.95 350.76 611.31 349.47 610.67 348.57 610.02 347.15 609.51 345.61 609 343.81 608.61 342.27 608.1 340.47 608.1 339.31 608.22 337.38 608.74 336.87 609 335.71 609 333.78 608.74 333.14 608.48 332.88 607.84 332.62 607.45 332.24 607.45 331.85 607.84 331.98 608.35 331.98 608.87 332.37 609.51 332.75 610.02 333.27 611.05 333.78 611.57 334.68 611.82 336.35 612.47 337.64 613.11 338.28 614.14 338.8 615.29 339.31 616.58 339.57 617.87 340.85 618.77 341.75 619.79 342.14 620.57 342.19 620.89 342.4 622.11 342.4 623.39 342.65 624.81 342.53 625.96 342.53 626.48 342.27 626.74 341.88 626.74 341.75 626.09 341.75 625.32 341.75 624.42 341.63 623.14 341.63 622.75 341.11 621.85 341.11 621.08 340.7 620.56 340.6 620.44 339.83 619.67 339.44 619.54 338.41 619.54 338.33 620.05 338.28 620.31 338.03 620.44 337.93 619.96 337.9 619.79 337.9 619.02 338.03 618.12 337.51 616.71 337.13 615.42 336.61 614.65 335.58 614.14 334.94 614.39 335.45 615.04 335.71 616.19 336.23 616.58 336.61 617.35 337 617.87 336.74 618.77 336.1 618.89 335.84 618.12 335.58 617.61 335.07 617.87 334.94 618.51 334.55 618.77 333.84 619.07 333.65 619.15 333.01 619.41 333.01 619.92 332.88 620.57 332.75 621.34 332.88 622.11 333.27 623.26 333.01 624.81 332.37 626.09 332.24 627.51 331.72 628.41 331.47 627.76 331.47 626.48 331.72 625.84 332.24 624.55 332.5 623.91 332.5 623.01 331.98 622.11 331.08 621.47 330.57 621.21 330.44 620.69 330.57 619.54 330.82 618.89 331.27 618.51 331.72 618.12 332.62 617.61 333.14 616.97 333.4 615.94 333.27 615.04 332.5 615.04 331.6 614.91 331.08 614.39 330.57 613.88 330.05 613.88 329.02 612.85 327.61 612.85 326.71 612.85 325.81 611.95 325.42 610.8 324.91 609.9 324.52 609.12 324.27 608.1 325.17 607.71 326.07 608.1 326.45 608.1 326.58 607.32 325.68 607.07 324.78 606.17 324.14 605.27 322.98 604.5 322.08 604.11 319.99 603.99 319.89 603.98 319.51 602.95 318.87 602.18 318.22 601.15 317.19 600.77 316.55 600 316.04 599.23 315.14 599.23 314.01 599.79 313.59 600 312.44 600.38 311.28 600.38 309.65 599.63 309.61 599.61 308.96 598.84 308.96 598.2 309.74 598.71 311.02 598.97 312.57 598.97 313.2 598.71 315.39 597.55 316.81 596.14 316.68 595.24 315.39 594.47 314.49 594.08 313.08 594.08 311.28 594.21 310.38 594.34 309.92 594.34 308.84 594.34 308.19 594.34 308.19 593.44 309.79 593.17 310.51 593.06 312.69 592.8 314.62 592.28 316.29 592.41 318.61 592.67 319.51 591.51 319.38 590.1 318.48 588.17 317.32 586.63 315.91 584.7 315.01 583.67 314.62 582.26 313.85 580.97 313.59 578.53 313.59 576.86 313.59 574.42 313.34 572.49 312.82 571.46 312.69 570.56 310.77 570.17 309.95 570.1 309.35 570.04 307.16 570.3 305.75 570.82 304.85 570.82 304.59 569.79 305.49 569.02 308.45 568.12 309.56 567.7 310.51 567.34 311.92 566.57 312.31 565.67 312.05 564 311.54 562.33 311.15 561.3 310.51 560.02 309.99 558.6 308.96 556.42 307.55 554.1 306.39 551.92 302.92 548.96 299.84 546.01 297.78 544.08 296.24 542.02 294.43 540.48 292.76 539.32 291.73 537.65 291.22 534.95 289.68 531.99 288.91 530.32 287.49 528.39 286.21 526.21 285.31 524.15 285.05 521.84 284.66 520.81 284.28 518.88 283.38 517.21 282.99 515.28 282.61 512.32 281.19 509.5 280.55 506.54 280.29 505.13 280.16 502.81 279.52 500.75 279.26 499.47 278.75 498.96 277.72 499.73 277.01 500 275.02 500.75 272.83 499.98 270 499.47 267.82 499.47 266.02 499.21 264.73 498.44 265.5 497.41 268.72 496.9 272.19 495.74 274.25 494.58 274.51 494.44 275.15 494.07 276.56 493.43 276.82 491.11 276.69 489.7 275.02 487.26 274.38 487.26 272.45 487.9 271.63 488.05 271.03 488.16 269.49 488.8 268.85 487.77 269.49 485.97 269.62 484.94 269.75 483.91 269.36 482.11 268.98 480.7 267.82 479.54 267.17 478.39 265.25 478.39 264.9 478.15 262.42 476.46 261.26 475.3 261 473.5 261.65 471.32 262.29 469.13 263.96 468.23 265.37 468.77 265.63 468.87 266.53 469.26 267.82 468.49 268.72 467.2 269.75 464.89 270.65 462.96 271.29 461.03 271.29 459.62 271.29 458.08 273.35 454.73 273.99 452.55 274.25 450.23 274.76 447.53 275.28 445.22 275.53 443.29 276.18 441.24 276.3 439.95 276.3 438.28 276.69 435.45 277.59 433.91 278.36 432.11 277.59 430.05 277.13 429.92 274.76 429.28 273.48 427.99 275.15 427.48 277.08 427.35 278.49 426.77 279.9 426.19 280.93 424.65 281.96 422.72 282.35 420.8 282.35 418.74 281.96 416.94 281.83 415.65 282.22 411.67 282.61 408.07 282.99 404.86 281.96 400.36 282.22 397.14 281.58 395.21 279.52 394.06 278.62 395.09 278.23 396.76 277.85 398.17 277.08 399.58 276.18 399.46 275.28 398.04 273.22 396.24 273.73 394.06 274.12 392.13 274.25 390.33 272.96 387.76 271.55 385.7 269.23 384.29 267.05 382.87 261.9 380.94 259.59 378.89 258.05 377.6 255.99 376.32 255.35 377.22 255.35 377.99 255.22 379.27 254.32 379.53 253.29 378.63 252.64 377.73 250.97 377.35 248.79 376.57 247.76 375.67 246.73 374.52 245.96 373.49 246.73 372.97 247.89 372.85 249.56 373.1 250.72 373.23 252.39 372.07 253.42 370.4 254.44 367.96 254.96 365.39 255.35 362.56 255.35 360.12 255.22 356.91 254.7 354.85 253.8 354.08 252.64 353.82 251.1 354.21 250.33 355.23 249.3 356.39 249.19 356.54 248.79 357.03 248.52 357.03 247.37 357.03 247.12 356.39 247.12 355.11 247.89 353.82 249.04 352.53 250.72 352.02 251.54 351.38 252.9 348.04 253.16 346.49 252.39 344.82 251.23 343.41 248.92 342.12 245.83 341.09 244.42 339.94 242.62 338.65 240.81 337.11 239.79 337.37 239.66 339.04 239.27 340.32 238.24 340.19 238.11 338.91 237.73 337.49 235.8 336.21 233.49 336.72 232.07 337.49 230.27 336.85 230.01 335.44 230.14 334.15 232.71 332.09 233.87 330.42 233.87 328.75 232.71 327.72 230.91 327.34 229.24 326.18 228.34 324.64 228.86 323.87 230.79 323.74 231.56 321.68 231.56 319.88 231.56 317.95 231.17 316.28 230.14 314.87 228.34 313.84 226.93 313.84 224.87 313.2 224.74 311.53 224.74 310.11 225.51 308.57 225.9 307.03 226.67 305.1 226.41 303.17 225.38 302.27 223.33 301.5 222.17 300.21 219.34 299.31 218.83 297.64 219.08 296.1 219.08 294.94 219.08 294.93 218.7 293.4 217.28 291.86 216.84 291.07 216.64 290.7 216.38 289.93 216 288.39 216.79 287.7 216.9 287.62 218.31 288 219.47 288.9 220.5 290.19 221.19 290.5 222.17 290.96 222.32 290.96 223.46 290.96 224.61 290.96 224.72 289.77 224.74 289.54 224.4 288.86 224.23 288.52 223.86 287.6 223.71 287.23 223.2 286.07 222.44 284.52 220.7 281.14 218.64 278.01 216.66 276.28 214.45 271.36 213.16 269.82 210.34 265.96 207.51 262.36 206.48 259.79 205.96 257.99 203.65 256.7 201.54 258.09 198.45 258.3 197.43 258.91 194.96 259.74 191.87 259.94 189.2 259.94 188.58 258.09 186.52 258.5 184.88 259.12 184.81 258.54 184.67 257.27 184.36 254.28 186.68 253.51 191.05 254.8 193.36 254.8 197.01 255.21 197.54 255.21 198.62 255.21 199.28 255.21 200.92 254.39 201.95 252.33 199.48 247.6 198.25 245.55 194.55 241.43 190.23 237.94 186.52 235.26 183.44 232.38 181.17 229.5 178.5 227.65 177.06 226.42 175 226.42 174.38 227.45 173.77 228.68 172.53 230.94 170.68 232.99 168.42 236.8 164.82 237.06 162.5 236.29 165.33 235 166.7 233.76 168.88 230.91 169.86 227.65 169.86 225.39 168.83 222.92 165.33 220.45 161.22 217.78 158.34 215.72 154.63 213.66 151.75 212.02 145.99 210.79 142.7 209.76 136.94 210.17 132.41 210.58 130.15 210.79 129.74 212.22 129.53 214.49 127.48 214.28 126.86 212.84 126.45 211.2 125.21 211.2 124.8 212.64 124.61 214.13 124.6 214.28 122.54 213.87 122.95 212.84 122.13 210.99 121.51 210.37 119.04 208.52 118.01 206.67 116.78 204.82 116.16 203.59 115.54 202.15 114.93 200.3 114.72 199.27 114.51 197.62 114.72 196.8 116.16 196.8 118.63 198.03 120.48 198.86 122.13 199.88 122.74 200.5 124.6 200.71 126.04 199.68 127.27 198.03 127.89 195.98 127.89 193.92 128.09 192.27 127.89 190.83 127.27 188.98 126.45 187.54 125.83 186.72 124.18 186.72 122.95 187.75 121.72 189.39 121.1 190.63 119.86 192.27 116.98 193.51 114.31 193.51 111.22 193.1 108.96 192.48 106.7 191.66 103.61 190.83 100.11 191.04 98.48 191.43 98.42 191.46 97.25 192.14 95.74 192.94 95.3 193.17 94.27 194.3 94.27 195.44 94.47 196.67 94.88 197.49 96.02 198.52 96.63 199.04 97.66 199.65 98.59 200.37 99.2 200.17 99.2 199.86 99.2 199.58 99.2 199.55 99.62 199.04 100.23 199.04 100.34 199.55 100.65 199.98 100.85 200.27 101.47 200.68 102.6 200.89 103.83 200.99 104.67 201.27 104.76 201.3 104.96 201.81 104.86 202.02 104.82 202.02 103.22 202.12 101.98 202.22 101.57 202.84 101.99 203.4 102.19 203.66 102.5 204.69 104.02 205.44 104.5 206.47 104.86 207.37 104.76 208.6 104.45 209.22 103.63 209.73 102.91 209.32 102.19 208.19 101.78 207.26 101.26 206.23 100.44 205 99.62 204.18 98.07 203.35 96.84 202.43 95.58 201.46 95.5 201.4 93.59 200.45 93.24 199.45 92.52 198.83 92.21 198.11 91.9 196.98 91.49 195.95 90.77 195.54 89.95 195.54 89.23 196.16 88.97 196.37 88.18 197 87.17 197.9 86.14 198.11 84.6 198.01 83.26 198.01 81.82 198.32 80.58 198.62 79.76 199.65 79.56 200.58 79.18 203.38 77.12 206.21 75.32 208.26 75.32 205.95 77.12 202.09 77.12 199.01 77.48 196.39 76.45 194.54 73.98 193.3 72.75 194.12 71.52 194.95 68.84 194.95 67.93 193.35 67.42 192.45 66.77 191.43 66 191.3 64.59 190.65 63.95 189.88 63.53 189.65 61.23 188.37 58.97 187.13 59.17 184.66 57.32 182.2 55.67 181.37 54.65 181.37 53.82 181.99 52.59 183.02 51.41 184.35 48.83 186.15 48.83 184.1 49.54 183.07 49.93 181.66 50.83 180.11 51.73 179.21 52.5 178.06 51.86 176.51 50.96 174.97 50.32 174.2 49.54 173.04 48.52 172.66 47.86 172.32 47.03 170.68 45.18 170.06 45.39 169.24 44.77 168.41 43.95 167.39 42.1 166.77 41.07 166.56 39.42 167.59 38.19 168.62 37.16 169.85 36.75 170.88 37.57 172.12 36.75 172.94 35.51 172.32 35.1 170.06 34.48 168.83 33.45 168 32.22 166.97 31.19 166.77 29.75 165.95 28.72 164.92 27.9 163.89 28.93 162.66 30.16 163.07 31.4 164.09 32.84 165.12 34.48 165.33 37.71 165.71 39.26 165.2 41.06 164.56 41.44 163.4 40.8 162.24 40.03 161.34 39.13 160.32 37.97 159.8 36.69 159.54 35.14 159.54 32.43 159.57 29.96 159.57 27.9 158.54 25.43 156.9 23.83 155.94 21.9 155.94 19.97 155.94 18.17 156.59 16.11 156.59 14.44 157.1 13.41 157.62 12.38 157.74 11.48 158.26 10.41 159.12 8.46 158.9 10.26 156.59 13.03 155.94 14.57 155.56 16.76 155.17 19.07 154.53 20.36 154.27 19.97 153.5 18.3 152.73 16.5 151.96 14.96 151.57 12 150.55 8.53 149.26 6.6 148.23 4.67 147.59 2.01 147.02 1 145.79 2.8 145.53 5.95 146.43 8.27 146.69 10.45 147.46 12.13 148.23 13.54 148.87 14.7 149.39 16.11 149.9 17.66 150.16 18.68 150.55 19.58 150.93 20.61 151.32 21.38 151.7 22.67 152.47 23.31 153.12 23.96 153.76 24.34 154.27 24.86 154.4 25.76 154.92 26.4 155.3 27.3 155.82 27.69 156.59 28.84 156.97 30.26 157.62 31.41 157.74 33.34 157.36 34.37 157.87 35.79 157.87 37.33 158.13 38.87 158.26 40.29 158.9 41.19 159.54 42.22 159.67 42.99 160.57 43.12 161.34 43.89 162.63 44.14 163.4 44.53 164.43 44.92 165.33 45.94 165.84 47.23 165.71 48.39 165.33 49.16 165.07 49.42 165.46 48.64 166.1 48.64 166.87 49.03 167.77 50.32 168.8 50.83 169.96 52.12 170.6 53.53 171.89 54.69 173.43 56.81 175.61 60.41 179.79 65.15 181.85 65.87 183.2 66.52 183.71 67.55 184.23 68.19 184.35 68.83 184.61 68.96 185.25 69.22 185.64 69.99 186.15 71.53 187.31 72.95 188.21 73.98 188.6 74.75 189.37 76.16 189.37 77.83 189.37 78.86 188.85 79.63 187.83 80.02 186.8 80.66 185.64 80.66 184.35 80.66 183.2 80.02 181.4 79.5 179.6 78.73 177.93 77.58 176.26 76.29 175.61 74.75 175.61 73.85 176.77 72.85 178.21 72.69 177.28 72.82 176.77 73.59 175.74 73.98 174.71 74.49 174.46 75.13 174.07 75.13 173.04 74.75 172.01 74.23 170.6 73.46 169.57 72.43 168.93 71.66 168.8 69.99 168.16 68.96 168.29 68.19 168.54 67.29 169.06 66.32 170.21 65.62 169.44 65.91 168.77 66 168.54 66.65 168.16 67.68 167.51 68.82 167.06 68.96 167 69.28 166.79 69.73 166.49 70.12 165.2 69.86 164.04 69.86 162.89 69.35 162.24 68.45 161.73 67.55 161.77 66.65 160.83 66.13 159.93 64.72 159.16 63.82 157.87 63.17 157.49 62.92 156.33 62.92 155.43 62.92 154.66 62.92 153.89 62.53 153.12 62.15 152.73 61.73 152.63 61.43 152.4 61.19 152.24 60.73 152.32 60.25 152.32 60.19 152.32 59.96 152.09 59.94 151.96 59.88 151.7 60.02 151.37 60.04 151.32 60.04 150.93 60.04 150.31 59.81 149.54 59.27 149.08 59.03 148.77 58.8 147.97 58.55 146.95 58.16 146.17 57.52 144.63 56.49 144.25 55.2 143.48 53.79 142.83 52.89 142.45 51.86 142.06 50.96 141.29 50.32 140.65 48.64 140.13 46.72 140.13 44.14 140 41.32 139.88 39.21 139.44 38.05 139.21 36.2 139.05 34.27 138.05 33.42 137.66 31.11 136.12 29.64 134.97 29.18 134.27 29.64 133.73 30.64 133.73 31.41 134.12 31.95 134.19 32.34 134.5 32.88 134.97 33.5 135.43 33.96 135.89 34.65 136.35 35.5 136.82 36.58 137.28 38.2 137.66 39.28 137.2 40.98 136.58 42.99 135.51 44.76 134.19 45.92 133.19 46.38 132.19 46.92 131.34 47.62 130.49 48.31 130.11 48.85 130.41 48.46 131.42 48 131.96 47.54 132.57 46.84 133.42 46.46 133.73 46.38 134.97 46.84 135.81 47.62 136.58 48.54 137.05 49.78 137.66 52.4 138.51 53.71 138.98 55.56 139.67 56.87 140.29 58.03 140.75 58.65 141.21 59.19 142.29 59.19 143.3 59.27 144.07 59.65 144.92 59.88 145.53 59.88 146.53 60.11 147.31 60.42 148.46 60.81 148.93 62.04 150.31 63.74 153.01 64.97 155.17 65.98 157.1 66.44 158.03 67.29 158.64 68.14 158.8 68.76 158.8 68.99 158.57 69.37 158.26 69.41 158.26 69.68 158.26 69.84 158.41 69.99 159.11 70.38 159.96 70.99 160.5 71.22 161.04 71.46 161.58 71.92 161.81 72.46 161.96 72.77 162.12 72.77 162.5 72.61 162.89 72.61 163.74 72.92 164.35 73.31 165.74 74.08 166.67 74.62 167.44 76.34 168.76 76.91 170.24 78.87 172.2 81.56 174.15 83.57 175 86.19 175.07 88.12 174.22 90.28 173.68 92.44 172.45 94.29 170.75 94.83 169.52 95.22 167.9 94.83 165.66 93.98 163.35 93.13 161.19 92.59 160.26 92.13 159.57 91.9 158.64 91.13 157.49 90.74 156.33 90.05 155.4 89.51 154.86 88.51 153.4 88.04 152.24 87.35 151.32 86.42 150.7 85.42 151.16 83.95 151.55 83.41 151.7 82.64 152.09 82.1 152.47 81.56 152.78 80.94 152.78 80.64 152.47 80.87 151.93 81.25 151.55 82.1 151.09 83.11 150.7 84.03 150.24 84.65 150.01 85.19 149.62 85.42 149.31 85.27 148.62 85.03 148 84.73 147.15 84.34 146.61 83.88 145.99 83.26 145.45 82.87 144.76 82.49 144.3 82.03 144.07 81.64 143.99 81.49 143.68 81.49 143.37 81.49 143.36 81.72 142.99 82.13 142.71 83.58 142.17 84.57 141.75 84.74 141.73 85.27 141.68 85.73 141.98 86.04 142.52 86.35 143.22 87.19 144.45 88.04 145.92 89.05 146.77 89.59 147.69 90.43 148.77 91.21 148.54 91.36 148.08 91.28 147.46 91.9 146.92 92.36 147.07 92.59 147.54 92.52 148.54 92.21 149.39 91.75 150.16 91.75 150.47 92.13 151.09 92.75 151.86 93.75 153.09 94.91 154.63 95.91 156.48 97.66 158.93 97.97 160.06 98.38 160.98 98.9 162.53 98.9 163.97 99.2 165.92 99.2 167.77 99.2 169.73 99.2 171.58 99.41 173.74 100.34 176.2 100.75 178.16 101.73 180.75 103.83 182.99 104.96 183.81 105.99 184.43 107.23 184.53 108.57 184.23 110.01 183.71 110.62 183.09 111.45 182.27 111.86 181.55 111.34 180.63 110.62 179.7 109.59 179.08 108.26 178.47 107.74 178.16 106.61 177.23 105.68 176.31 104.76 175.59 103.73 175.59 103.22 175.18 103.22 174.46 104.45 174.04 105.79 174.35 107.13 174.35 108.46 174.25 109.7 173.74 110.31 173.74 111.24 174.25 112.58 174.56 114.22 175.18 115.66 175.59 116.79 176.1 117.31 176.62 117.51 177.34 117.93 177.75 118.54 178.57 119.78 179.08 120.91 179.5 122.35 179.8 124.61 179.6 127.49 178.98 131.81 178.26 137.37 176.51 141.48 174.35 144.98 172.5 149.57 169.07 152.59 166.64 155.47 162.84 157.32 159.75 157.53 157.08 157.94 154.4 157.74 152.04 156.5 149.57 155.99 148.44 155.27 148.03 155.12 148.12 153.93 148.85 152.39 150.19 150.84 151.52 149.35 152.55 149.2 152.65 147.82 153.41 146.94 153.89 146.61 154 143.13 155.22 142.9 155.27 140.92 155.69 139.73 155.94 137.88 156.36 135.83 157.08 134.94 157.61 133.9 158.23 130.9 161.11 129.96 160.94 129.96 160.04 130.69 158.86 131.61 157.49 131.81 156.25 131.4 155.02 131.27 154.41 131.2 154.09 131.5 153.07 131.81 152.76 132.43 153.79 133.36 154.2 134.8 154.4 135.72 153.48 136.03 153.04 136.44 152.45 137.16 150.29 137.47 148.03 137.57 144.02 137.16 140.11 136.55 137.74 136.13 134.66 136.03 132.91 135.41 129.62 134.59 126.94 133.67 125.09 132.74 123.76 132.02 122.93 130.78 123.24 130.47 123.42 129.86 123.76 127.9 125.2 127.15 126.04 124.83 126.81 121 129.36 120.26 129.02 119.78 128.79 118.65 128.07 118.03 127.46 117.51 126.84 117.41 126.33 117.72 126.12 118.44 126.53 119.37 126.94 120.29 127.46 120.58 127.5 120.91 127.56 122.04 127.35 123.07 126.33 123.79 125.71 124.3 125.3 125.13 124.68 126.67 124.06 127.9 123.45 129.14 122.21 129.34 121.39 129.14 120.05 129.04 118.92 129.24 117.58 129.45 116.56 129.45 115.12 129.76 113.57 130.06 111.93 129.76 110.49 129.76 109.05 129.24 107.3 128.62 105.86 127.9 103.91 127.7 102.78 127.39 101.54 127.29 100.31 127.18 99.28 127.18 98.04 126.88 97.12 126.26 96.19 125.02 95.58 123.48 94.75 121.32 94.34 119.78 94.03 117.93 93.83 115.87 93.93 114.84 94.55 113.61 95.78 113.51 95.94 113.3 96.3 112.68 97.74 112.17 99.18 112.06 100.41 111.86 101.64 111.75 103.19 111.09 104.85 110.36 106.93 108.75 108.48 106.75 109.1 103.51 109.41 101.5 108.63 100.14 107.98 97.46 106.27 96.22 105.04 94.87 103.85 92.4 102.16 88.7 99.53 86.07 97.53 84.47 95.82 86.47 95.16 86.77 94.95 87.02 95.07 87.67 95.46 88.95 96.1 90.5 97.39 92.55 98.8 94.22 99.96 96.54 102.02 98.34 103.56 99.44 104.42 101.68 106.75 103.7 107.64 104.57 107.64 105.88 107.34 106.92 106.99 108.15 106.38 108.87 104.42 109.18 102.78 109.39 101.44 109.7 99.69 109.8 97.74 110.21 95.68 110.52 94.45 110.52 93.52 110.21 92.59 109.49 91.46 108.77 90.23 107.84 89.38 107.64 89.2 106.92 87.35 106.82 86.53 106.82 85.29 107.23 84.06 107.24 84.03 107.74 82.31 108.26 79.84 108.15 77.79 107.74 75.73 107.43 74.08 107.23 72.54 106.61 71.31 105.89 70.48 105.17 70.17 104.14 70.38 102.8 71.41 102.12 73.1 100.75 74.6 99.82 74.91 99.72 73.47 99.78 73.12 99.92 72.23 100.85 71.2 101.57 69.87 101.98 68.74 102.35 68.65 103.32 68.43 103.94 68.02 104.16 67.28 104.24 66.99 104.86 66.06 106.2 65.86 108.15 66.88 109.29 68.12 110.21 70.38 110.73 71.72 111.03 73.05 111.81 73.93 111.86 73.98 112.69 74.41 114.33 74.39 115.46 73.57 115.46 72.13 115.25 70.79 114.84 69.97 114.53 68.53 113.91 67.19 113.3 66.06 112.47 64.83 111.55 64.11 110.31 63.59 107.33 63.8 104.55 63.9 101.16 63.9 98.28 64.52 94.27 64.11 91.8 63.8 90.56 63.28 88.92 63.28 87.99 64.21 86.65 65.24 85.73 66.06 84.72 66.66 84.7 66.68 83.88 66.99 83.77 66.06 84.29 65.24 85.36 64.33 85.63 64.11 87.37 62.98 87.89 61.84 87.27 60.82 86.14 59.38 84.7 58.14 83.57 57.53 82.44 57.53 81.51 58.14 80.07 58.25 79.04 58.55 77.6 59.17 75.34 59.38 74.02 59.18 72.56 58.97 71.12 58.86 69.68 59.07 68.34 58.76 68.65 57.63 68.65 56.91 69.99 57.22 71.12 57.94 72.46 57.94 74.62 58.14 74.7 58.12 77.4 57.53 79.04 57.01 80.58 55.47 80.89 53 80.58 51.05 80.89 49.5 82.03 48.78 83.22 48.42 83.36 48.37 84.08 47.45 83.88 46.74 83.88 46.73 83.98 45.6 84.8 45.29 85.63 44.88 85.73 43.44 85.93 42.2 87.34 41.8 88.09 39.28 92.57 35.3 96.2 29.96 97.28 27.23 96.92 21.3 96.56 20.58 94.17 19.1 96.2 17.32 95.76 15.36 93.23 13.58 91.42 13.34 85.12 14.94 84.54 14.23 86.35 12.16 86.14 8 87.22 8 88.16 8.71 88.89 10.79 90.55 11.56 92.15 10.67 91.57 8.42 91.93 5.45 91.21 4.26 89.76 3.55 90.76 2.29 91.79 1 92.51 1.59 93.59 2.19 94.32 3.67 97.07 6.46 96.85 11.09 99.6 14.77 98.73 17.32 99.96 20.11 100.54 23.37 102.71 27.23 102.56 28 98 31.26 95.33 35.89 91.71 39.87 87.36 49.13 87.43 54.58 88.66 56.84 91.41 58.92 96.08 60.92 97.66 61.54 99.1 61.54 99.67 61.54 100.13 61.54 100.95 60.82 100.75 60.3 100.1 59.93 100.03 59.89 98.9 59.38 97.87 59.07 97.56 58.25 97.97 57.53 99 57.11 100.23 57.11 101.36 57.11 102.8 57.73 104.14 58.76 105.77 59.51 107.55 59.75 108.42 58.98 109.87 58.86 110.5 60.16 111.65 60.51 112.68 60.82 114.63 61.74 116.79 62.77 118.03 63.9 119.16 64.93 119.88 66.47 119.98 68.43 119.67 70.48 118.85 72.44 117.62 74.8 115.8 77.13 114.35 80.05 113.48 81.83 113.26 82.24 112.54 84.5 112.54 85.69 113.77 86.69 114.86 86.69 116.67 85.21 118.33 85.21 118.33 87.05 117.46 87.88 116.52 88.36 113.48 89.6 112.32 90.14 111.96 90.61 112.68 90.91 113.99 90.37 116.88 89.13 118.18 88.95 119.92 89.01 121.95 89.25 124.12 91.62 125.74 92.9 126.32 93.13 127.18 91.98 128.42 91.98 129.65 92.08 130.27 90.85 131.09 90.23 132.43 90.95 132.74 92.18 133.56 92.8 133.97 93.01 133.97 94.03 135 94.75 135.58 94.95 136.85 95.37 137.77 95.71 138.5 95.99 139.84 97.43 141.48 98.76 142.51 100.72 143.13 102.57 144.67 105.86 145.29 107.92 145.91 109.67 146.83 111 147.86 112.55 150.84 117.07 152.7 119.13 155.06 120.98 159.79 123.04 165.04 123.96 171.31 123.76 172.96 123.96 174.5 124.78 176.15 123.86 177.49 123.45 181.09 122.62 183.97 122.11 186.64 121.49 189.11 120.36 192.2 119.44 194.46 117.48 196.31 115.63 197.21 113.95 198.37 112.77 199.24 112.59 200.32 112.59 202.35 113.01 204.01 113.36 205.1 114.07 205.24 115.44 204.37 117.22 203.29 122.38 203.65 125.64 204.23 126.12 205.31 126.12 205.67 126.42 205.09 127.31 203.78 127.73 203.39 128.37 203.78 129.53 204.15 130.63 204.16 130.68 204.42 131.84 204.42 133 204.42 133.77 204.16 134.54 204.16 134.54 203.78 135.31 201.21 135.44 198.25 135.44 190.79 135.31 187.71 135.44 185.13 135.44 183.93 134.48 183.85 134.41 180.38 132.61 178.83 131.97 176.52 131.45 175.36 131.45 174.98 131.45 173.82 131.33 173.22 132.05 173.18 132.1 173.15 132.17 172.53 133.9 172.66 134.54 173.43 135.05 174.85 135.05 176.26 134.93 177.93 134.67 179.35 134.8 180.51 135.18 181.41 135.83 181.41 136.85 180.38 137.24 178.96 138.14 177.16 138.01 176 137.63 175.59 137.56 175.52 137.55 174.33 137.37 173.18 137.37 172.66 137.75 172.66 138.91 173.05 139.81 173.43 140.19 173.69 140.45 174.72 140.71 177.55 139.94 179.09 139.3 180.38 138.91 182.29 138.28 184.25 137.39 185.91 137.09 189.17 136.97 203.14 137.39 204.44 138.05 204.51 139.17 205.09 140.78 204.94 142.9 204.16 144.7 204.16 146.2 204.16 146.75 204.42 148.42 205.19 149.97 205.71 151.89 206.22 153.44 207.12 155.11 208.15 156.78 210.08 158.96 212.91 160.89 214.58 162.05 217.02 162.95 220.37 164.49 223.2 165.39 227.05 166.42 231.3 166.94 234.49 167.02 237.33 167.09 245.46 166.96 252.55 166.01 255.07 165.9 264.5 164.17 267.17 164.36 270.13 163.85 271.93 163.85 274.24 163.85 275.14 163.72 276.56 163.08 277.46 162.31 277.07 161.66 275.79 161.54 274.5 161.28 274.63 160.51 275.66 159.86 277.07 158.96 278.23 158.45 278.62 157.29 278.53 156.95 278.36 156.27 277.33 155.88 276.3 155.75 275.02 155.49 274.37 154.72 274.19 153.8 274.12 153.44 274.12 152.67 274.47 152.31 274.76 152.02 275.92 152.41 276.56 153.18 277.2 153.82 277.97 153.82 279.17 153.82 279.52 153.82 280.19 154.12 280.67 154.34 281.06 154.98 281.06 155.49 281.7 156.14 281.92 156.67 281.96 156.78 281.96 157.01 281.96 157.68 281.7 158.19 281.7 159.22 282.47 159.99 283.24 160.38 284.27 160.38 285.05 160.76 285.17 161.41 284.66 161.92 284.17 162.05 283.24 162.31 283.22 162.32 282.22 162.95 281.83 163.72 280.93 165.01 280.9 165.08 280.54 165.78 280.03 167.06 279.95 167.83 279.9 168.22 278.49 170.98 278.31 173.38 279.25 175.28 281.42 178.72 285.76 182.7 292.85 186.67 294.82 188.79 296.1 190.2 296.92 192.66 297.6 194.7 298.37 198.04 301.98 202.93 310.2 207.3 318.32 210 318.69 210.13 319.22 210.19 327.95 211.16 337.46 212.7 345.44 214.76 352.12 219.38 355.21 224.27 357.78 231.47 360.1 240.98 361.3 249.14 362.1 251.78 362.41 253.63 362.54 254.9 362.56 255.17 362.26 256.41 362.85 256.74 363.64 257.18 364.57 256.37 364.88 256.1 366.42 255.48 370.43 255.64 373.21 255.94 374.23 255.94 374.91 255.94 376.76 255.79 377.38 255.33 378.61 255.02 379.08 255.94 379.69 256.56 381.08 257.02 381.44 257.02 382.47 257.02 382.5 257.02 384.01 257.02 384.18 256.86 384.63 256.41 385.68 256.11 385.71 256.1 386.09 256.73 386.17 256.87 385.86 257.8 385.69 257.87 385.21 258.66 387.27 259.43 388.56 259.17 389.84 256.86 391.13 258.4 393.19 256.86 392.41 259.17 390.87 260.46 389.72 260.73 389.41 260.73 389.35 260.89 389.25 261.13 389.1 261.5 389.1 262.42 389.72 262.42 391.11 262.73 393.12 262.42 395.5 261.74 395.89 260.57 396.36 259.8 396.82 259.34 397.28 259.34 397.75 259.34 398.05 260.26 398.05 260.69 398.05 260.88 398.05 261.5 398.67 261.81 399.07 261.9 399.91 262.11 400.52 261.81 401.14 260.88 401.14 259.96 401.14 259.34 401.14 258.41 401.45 257.33 401.45 256.72 401.29 255.64 400.99 254.09 400.68 252.7 400.21 251.32 400.06 250.08 399.75 249 398.36 248.08 397.04 247.09 394.99 244.77 393.44 242.97 394.47 243.23 396.27 243.74 397.3 245.03 400.39 246.57 402.7 248.63 402.7 251.46 403.21 254.54 404.24 257.37 406.04 259.94 405.27 262.51 400.64 264.83 397.81 263.28 396.05 263.66 394.35 263.97 393.96 264.06 393.12 264.27 392.65 264.58 392.81 265.2 393.12 265.66 393.58 266.13 394.7 266.27 394.81 266.28 395.4 266.87 395.43 266.9 396.51 267.51 397.13 268.44 397.13 269.06 396.37 269.38 396.05 269.52 395.87 269.41 395.28 269.06 394.04 268.44 392.81 268.44 392.04 267.82 391.11 267.21 390.18 266.74 389.1 265.97 387.25 264.74 386.94 263.5 386.48 263.04 386.02 262.42 384.63 262.11 383.55 261.81 382.61 261.6 382.16 261.5 381.55 261.25 381.39 261.19 380.16 260.73 378.77 259.96 377.84 260.11 377.33 260.42 377.07 260.57 375.83 260.88 374.75 259.8 374.14 258.72 373.54 258 373.37 257.8 372.59 257.49 371.21 257.02 369.2 257.02 367.81 257.49 367.55 257.56 366.54 257.85 364.57 258.41 364.52 258.46 363.64 259.34 362.87 260.42 362.87 261.81 362.69 264.42 362.84 267.4 364.38 276.14 365.92 281.28 365.75 285.47 368.39 285.76 369.62 285.39 370.45 285.18 371.44 285.31 371.69 285.93 370.61 286.92 368.72 287.86 367.15 288.15 365.58 288.15 364.76 288.44 364.27 289.31 364.43 290.38 364.84 291.41 365.91 292.11 368.22 292.07 377.62 291.53 379.69 291.53 380.59 291.57 381.17 291.94 381.09 292.48 379.68 292.69 376.88 292.98 374.33 293.1 373.25 293.26 372.84 293.68 372.84 294.13 373.5 294.66 373.5 295.08 372.76 295.41 371.03 294.91 369.13 294.21 367.73 294.09 366.82 294.29 366 294.95 365.58 296.68 365.75 298.83 367.21 300.82 367.98 301.33 365.75 303.57 370.81 305.19 372.61 303.91 374.15 305.45 374.19 305.53 374.98 307.19 375.89 307.65 377.95 308.1 380.01 308.14 384.18 307.76 389.07 309.05 387.45 309.86 387.01 310.08 382.65 310.82 379.44 310.41 377.13 309.87 371.44 308.64 368.88 307.98 367.73 307.9 366.49 308.06 367.98 311.62 367.98 315.48 369.53 315.99 371.11 315.64 370.61 315.15 370.86 314.61 371.69 314.57 372.18 314.86 372.92 314.41 373.31 314.34 378.78 313.42 385.98 313.42 385.21 314.96 383.16 314.96 381.5 315.4 379.68 315.93 378.45 316.3 376.72 316.96 375.64 317.42 374.9 317.83 374.24 318.49 374.16 319.44 Z M 759.06 756.96 757.11 757.02 754.94 755.36 752.98 752.69 753.56 750.79 756.31 748.71 758.48 746.04 758.84 741.71 757.97 739.93 755.65 737.85 752.54 736.67 751.6 737.26 751.6 738.15 754.86 744.2 755.22 745.57 754.28 746.58 753.78 746.58 751.39 744.09 747.99 744.21 745.24 743.32 741.62 739.17 740.75 738.99 740.03 739.58 739.82 741.96 741.41 744.21 748.5 749.25 751.32 755.07 756.6 761.29 757.11 761.18 757.47 759.81 759.14 758.98 759.86 757.91 759.78 757.38 759.06 756.96 Z M 737.64 730.44 737.85 730.21 736.62 727.95 736.84 727.24 737.35 727.24 740.6 730.38 745.88 731.57 747.47 730.68 746.6 728.01 739.59 721.72 737.42 721.3 732.28 721.72 730.11 722.91 727.73 725.7 727.37 726.18 724.84 729.56 724.62 730.45 725.2 730.92 727.51 731.81 728.82 733.59 729.54 734.19 729.9 733.89 730.84 729.14 731.63 728.31 732.43 728.25 733.15 730.03 734.24 730.92 735.25 730.92 736.7 730.86 737.35 730.74 737.64 730.44 Z M 88.13 180.16 87.17 181.55 85.73 183.81 84.91 185.67 83.98 186.8 84.08 187.62 84.49 187.93 85.52 187.93 86.9 188.34 88.92 188.05 91.46 186.68 92.9 184.9 93.91 182.76 94.47 181.76 94.88 180.73 94.58 179.91 94.27 179.19 93.9 178.54 93.86 178.47 93.33 178.17 93.13 178.06 92.79 178.06 92 178.06 90.16 178.55 88.13 180.16 Z M 561.75 559.08 560.16 560.98 557.78 562.29 556.48 564.25 556.84 565.85 558.29 567.21 561.91 567.81 562.85 567.21 562.99 566.5 561.9 564.42 564.14 562.35 563.78 560.09 561.75 559.08 Z M 80.58 193.58 80.69 194.61 81 195.13 81.19 195.27 81.82 195.74 83.05 196.26 83.88 196.57 84.39 196.57 85.01 196.46 85.52 195.85 85.73 195.44 86.04 194.82 85.73 194.41 85.32 193.79 84.63 193.45 84.29 193.28 82.82 192.49 82.75 192.45 82.13 192.14 81.51 192.14 81.31 192.04 80.17 192.25 79.97 192.76 80.07 193.28 80.58 193.58 Z M 736.19 732.64 736.77 734.06 735.11 736.44 735.83 737.51 736.92 737.51 738.36 736.02 738.44 733.17 737.71 732.28 737.71 732.1 737.49 732.04 736.92 732.05 736.19 732.64 Z" fill-rule="evenodd"/>
</g>
</svg>