<?xml version="1.0"?>
<svg xmlns="http://www.w3.org/2000/svg" version="1.2" baseProfile="tiny" width="800" height="409" viewBox="0 0 800 409" stroke-linecap="round" stroke-linejoin="round">
<g id="stampedereservoir">
<path d="M 769.61 19.86 766.13 21.83 762.76 23.03 759.31 24.23 757.34 25.72 754.52 27.84 753.03 29.06 753.02 29.14 752.71 29.42 752.12 29.7 750.9 30.63 749.81 31.66 749.47 32.21 748.25 33.12 745.51 36.37 743.79 38.78 743.28 40.75 743.93 42.93 744.99 45.75 746.7 48.15 747.78 51.89 748.19 54.16 748.97 55.44 749 55.58 749.14 55.77 750.22 55.99 752.93 56.49 753.34 56.58 754 56.23 754.7 56.06 754.88 56.01 757.57 54.1 759.88 52.43 761.72 51.37 764.64 50.04 765.22 49.43 769.4 47.51 774.47 44.99 779.74 42.33 783.44 40.02 785.92 37.09 788.72 34.08 790.91 32.16 793.17 30.25 794.75 29.47 796.53 29.99 797.49 31.81 797.59 31.75 797.65 33.05 798.08 34.36 798.31 35.04 798.19 36.49 795.28 40.6 794.35 42.25 796.09 43.66 797.46 44.99 798.97 45.94 799 46.81 797.85 47.14 797.82 47.17 797.67 47.36 795.35 48.02 792.72 48.39 790.02 49.23 787.61 50.23 785.7 51.44 784.16 52.51 783.9 52.89 783.08 53.15 779.42 53.11 777.68 53.07 775.5 53.06 774 53.06 773.45 53.06 769.96 54.9 766.52 57.07 763.52 59.48 763.37 59.59 759.82 62.83 759.68 64.51 758.72 65.16 756.84 65.52 755.99 65.28 752.61 65.83 749.28 66.71 745.83 68.88 742.71 72.42 741.07 74.3 738.73 76.94 738.14 79.04 738.95 82 739.47 82.93 739.43 83.89 740.08 86.36 740.54 88.69 739.12 91.44 739.34 95.16 739.92 97.53 740.53 99.33 740.48 99.53 739.86 102.05 738.44 106.35 738.81 106.59 736.9 108.91 736.29 110.1 731.65 113.39 731.56 113.45 728.14 115.05 723.43 117.68 720.66 120.02 718.13 122.7 716.96 125.51 717.37 127.49 716.47 127.91 716.17 128.04 714.41 128.53 712.34 130.55 712.77 130.82 711.73 131.78 709.62 133.13 709.6 135.2 710.3 137.28 710.31 137.33 710.22 138.05 709.02 138.65 707.7 138.86 706.08 139.11 705.14 140.86 705.58 142.03 703.97 143.58 701.13 146.16 699.06 148.13 698.59 150.48 699.62 152.48 700.8 155.44 700.63 158.18 700.54 160.2 701.1 160.27 701.56 162.78 701.5 165.72 701.89 168.13 701.8 170.25 701.04 172.16 700.72 173.93 700.74 176.53 699.46 178.96 698.67 180.39 697.44 182.61 695.95 183.83 694.23 185.23 691.87 188.11 690.76 190.97 689.56 192.87 688.53 195.39 688.31 197.6 687.38 203.6 687.39 207.84 687.88 211.03 687.86 214.54 688.6 216.15 690.43 218.31 692 219.51 693.38 219.27 694.43 219.37 695.6 218.91 696.16 218.9 696.35 218.9 697.32 218.53 699.86 218.6 701.34 218.97 701.38 219.13 701.74 219.16 700.87 222.71 697.95 233.2 696.49 238.45 694.79 244.9 693.9 246.9 692.52 248.75 690.2 250.81 690.09 250.89 689.14 250.97 687.66 250.65 686.81 250.61 685.68 250.55 683.94 250.65 680.51 250.95 677.25 251.59 673.29 254.29 670.05 256.08 666.13 257.67 663.79 258.72 661.83 259.49 659.2 260.15 657.73 262.52 657.79 264.25 657.92 265.41 659.21 265.83 659.94 266.02 653.38 268.72 637.53 274.92 628.91 278.49 628.44 278.6 626.24 279.12 624.69 279.27 623.57 279.15 622.73 278.41 622.02 277.67 621.48 277.07 619.51 276.69 618.29 276.32 616.67 276.28 614.68 276.38 613.98 276.14 612.48 275.65 610.18 274.1 609.24 272.82 608.17 271.59 606.69 269.97 604.91 267.95 603.78 266.67 602.83 265.73 601.92 265.22 601.62 265.11 601.39 264.34 601.5 263.14 600.74 260.67 600.63 258.79 601.99 257.52 604.38 256.62 606.28 255.85 607.86 255.12 609.33 254.09 609.5 252.94 608.36 252.14 606.9 251.24 604.51 250.46 602.16 250.4 599.6 250.53 596.65 251.42 593.86 254.24 592.37 255.74 592.29 255.79 588.55 256.51 584.62 255.41 579.4 255.42 577.13 256.42 572.03 256.59 567.52 257.58 562.62 260.3 560.01 263.32 559.59 266.1 560.37 269.78 561.5 272.41 563 273.74 564.02 274.05 565.22 275.58 566.34 277.15 567.01 278.95 566.66 279.9 565.29 279.96 564.14 279.12 562.7 277.93 560.88 276.87 559.12 275.91 557.3 275.48 557.09 275.43 555.14 276.01 553.79 277.18 551.82 278.23 550.55 278.97 550 277.27 550.28 274.92 550.55 272.91 550.29 271.79 547.72 272.16 545.71 272.88 542.2 273.66 538.34 275.3 537.41 276.87 536.67 278.24 535.29 278.64 533.07 278.16 529.88 278.8 527.63 280.57 527.01 282.15 526.07 283.81 525.01 285.47 524.9 286.62 525.7 288.13 527.09 289.08 527.81 289.82 527.17 290.34 525.4 290.97 523.62 291.93 523.88 293.19 523.97 294.01 522.67 293.98 521.51 293.37 519.85 293.04 518.28 293.44 515.61 294.91 514.31 296.47 512.27 299.12 511.88 301.13 512.54 303.26 513.42 304.46 513.08 305.11 512.52 305.29 511.16 304.96 509.78 305.31 509.45 305.58 509.3 305.57 509.28 305.57 507.49 306.65 505.48 308.68 505.01 311.22 504.58 313.9 502.87 314.73 500.95 314.82 498.76 315.01 498.41 314.98 497.79 314.5 497.58 313.68 497.58 312.22 497.75 311.76 499.07 309.33 500.57 306.68 501.45 304.93 502.03 303.28 502.5 301.46 502.72 299.57 503.35 296.06 503.69 294.82 503.77 293.9 503.67 293.11 503.39 292.37 503.11 291.94 502.41 291.38 500.39 290.98 496.72 289.99 494.28 289.63 491.97 289.32 490 289.19 488.75 289.08 487.69 288.6 486.7 287.94 485.57 287.6 484.21 287.3 482.31 287.13 479.27 286.85 478.21 286.51 477.38 286.36 476.42 286.57 475.16 286.97 473.15 287.21 471.72 287.24 470.95 287.13 470.18 286.93 469.53 286.55 469.08 285.72 468.79 285.2 468.27 284.59 467.86 284.45 467.09 284.3 466.44 284.06 466.09 283.86 465.8 283.44 465.23 282.42 464.02 280.8 463.27 279.91 462.27 279.2 461.04 278.54 459.45 277.91 456.08 276.52 453.96 275.74 452.9 275.22 451.78 274.55 450.43 273.93 448.83 273.58 446.63 273.18 443.9 272.85 440.93 272.48 439.39 272.14 438.38 271.8 437.2 271.27 436.02 270.88 434.9 270.58 433.17 270.42 431.21 270.34 429.17 270.49 426.37 270.45 424.34 270.69 423.44 270.89 422.66 271.2 421.56 272.08 420.71 272.81 418.62 275.23 417.83 275.81 416.92 276.17 416.03 276.23 415.13 276.26 413.88 276.24 412.51 275.98 411.09 275.82 410.07 275.9 409.26 276.21 406.59 277.97 404.87 279.84 403.09 281.75 401.85 283.49 401.16 284.96 400.77 286.06 400.63 286.85 400.48 287.91 400.39 289.11 400.48 290.4 400.57 291.28 401.13 292.89 401.28 293.91 401.5 294.74 401.83 295.63 402.41 296.37 403.04 297.03 403.75 297.46 404.69 297.75 406.06 298.05 408.96 298.88 414.31 300.54 415.49 300.88 416.38 301.08 418.23 301.2 419.89 301.28 421.44 301.53 422.68 301.78 424.27 302.5 427.7 303.67 430.7 305.15 435.05 307.55 442.11 311.18 445.1 313.07 445.92 313.55 446.1 313.74 446.15 313.88 446.09 314.01 445.01 314.13 444.6 314.09 444.06 314.03 443.29 313.74 442.35 313.21 441.17 312.83 439.63 312.66 438.28 312.49 437.4 312.15 433.41 311.08 429.4 310.6 426.4 310.12 425.19 310.26 423.7 310.22 422.48 309.89 421.72 309.98 421.24 310.14 420.15 310.52 418.25 311.34 416.24 311.77 415.9 311.81 415.26 312.11 413.08 313.28 407.59 316.98 406.5 317.57 405.6 317.78 404.76 317.96 403.45 317.98 402.25 318.24 400.8 318.82 398.74 320.13 396.08 321.61 394.93 322.28 394.5 322.51 394.26 322.55 393.91 322.41 393.79 322.27 393.8 321.94 394.12 321.07 394.69 319.83 395.57 318.04 396.43 317.08 398.81 315.04 400.26 314.28 402.87 312.56 404.58 311.3 405.19 310.7 405.56 310.16 405.75 309.56 405.82 309.37 405.77 309.14 405.65 308.86 405.36 308.58 405.01 308.53 404.71 308.48 404.29 308.52 403.39 308.78 402.25 309.22 401.23 309.49 400.57 309.43 400.28 309.33 399.81 309 399.46 308.63 399.24 307.88 399.03 306.82 398.4 305.7 397.48 304.71 396.48 304.05 394.47 303.32 393.3 302.73 392.3 302.11 390.95 301.21 389.71 300.73 388.64 300.52 387.93 300.56 386.97 300.68 385.89 301.04 384.08 301.75 382.5 302.74 381.46 303.74 380.3 305.06 379.81 305.52 379.33 305.6 378.31 305.68 377.3 305.62 376.28 305.78 374.43 306.03 372.68 306.65 370.51 307.82 366.94 309.75 364.22 310.86 361.94 311.57 359.18 312.26 357.74 312.47 356.79 312.48 356.02 312.42 356 312.42 355.6 312.23 355.37 312.04 354.97 311.53 354.46 310.5 354.2 308.93 353.82 307.67 353.37 306.6 352.79 305.9 350.72 304.02 348.74 302.14 348.17 301.43 347.41 300.59 346.42 299.69 343.21 297.29 343.1 297.21 343.11 296.21 341.83 295.03 338.42 293.5 335.17 292.87 330.87 292.73 327.15 292.51 322.9 292.19 320.83 292.75 320.65 292.8 319.47 293.13 317.92 293.88 317.74 293.95 316.16 294.48 313.88 294.95 310.15 295.86 310.05 295.89 307.33 296.6 304.74 297.63 302.27 298.65 299.62 299.81 297.62 300.91 296.41 301.77 294.98 302.81 293.46 303.99 291.43 306.41 289.09 308.96 287.42 311.29 286.3 313.22 285.72 314.69 285.27 316.16 283.8 319.65 283.23 320.93 282.66 322.5 282.33 323.56 282.08 324.01 281.71 324.42 280.26 325.33 275.97 329.7 275.11 330.4 274.63 330.79 270.8 333.5 268.02 335.21 265.7 337.02 263.62 339.26 262.2 340.85 261.16 342.09 260.24 342.86 259.46 343.4 259.37 343.43 258.67 343.66 257.29 343.97 255.02 344.49 253.39 345.06 252.3 345.88 251.5 346.65 250.89 347.06 250.17 347.23 248.62 347.48 247.24 347.74 246.4 348 245.37 348.68 244.52 349.31 242.03 350.98 238.91 353.94 234.85 357.71 233.31 359.52 231.47 361.66 228.12 364.38 226.66 365.28 224.91 366.04 222.33 366.83 222.24 366.85 220.05 367.26 219.69 367.3 218.26 367.37 216.83 367.53 214.73 367.73 213 367.94 210.41 368.82 207.76 369.93 204.14 371.63 202.14 372.99 200.25 374.53 198.35 376.49 197.12 377.9 196.01 379.55 194.71 381.24 192.69 383.43 191.09 385.07 190.48 385.75 189.99 386.02 189.27 386.2 188.44 386.32 187.18 386.39 186.29 386.38 185.28 386.13 184.39 386.03 183.5 386.06 182.11 386.45 180.41 386.66 177.37 386.66 175.52 386.58 174.27 386.65 173.07 386.91 172.59 387.18 172.22 387.55 171.98 387.77 171.38 387.9 171.06 387.87 170.78 387.85 169.72 387.41 168.42 386.84 167.53 386.78 166.75 386.86 165.62 387.07 162.62 387.81 161.17 388.34 159.17 389.52 157.12 390.59 155.98 390.9 154.83 391.48 154.1 392.16 153.6 392.9 153.41 393.4 153.34 393.95 153.5 394.6 153.67 394.88 153.72 395.26 153.4 396.08 152.41 397.41 149.36 400.27 146.31 402.63 145.1 403.3 144.21 403.52 144.13 403.52 143.31 403.55 142.06 403.3 141 402.82 139.83 402.07 138.42 401.44 137.29 401.15 136.22 401.13 135.15 401.16 134.18 401.52 133.16 402.05 131.95 402.5 130.81 402.76 130.8 402.76 130.1 402.65 129.27 402.59 127.26 401.87 125.4 401.19 124.75 401.04 123.97 401.22 121.5 402.1 120.24 402.41 119.17 402.48 117.98 402.33 116.91 401.99 115.33 400.99 111.28 398.38 109.1 397.38 108.16 397.13 106.85 397.16 106.13 397.24 104.7 397.08 102.98 396.82 100.84 396.46 99.17 396.39 97.92 396.37 96.85 396.49 96.01 396.67 94.62 397.25 92.69 398.28 88.57 400.62 87.36 401.53 85.54 402.84 84.44 403.56 83.84 403.97 81.17 405.77 78.87 407.08 77.36 407.8 76.58 407.92 75.6 408 74.53 407.84 73.52 407.74 73.04 407.59 70.97 406.96 69.49 406.66 68.54 406.41 67.84 406.03 67.43 405.56 66.8 404.77 66.22 404.25 65.76 403.98 65.39 403.77 64.53 403.38 63.32 402.01 63.06 400.18 64.57 398.26 64.8 396.7 64.61 395.13 66 393.46 71.7 390.21 74.2 388.17 77.06 386.09 79.07 384.27 80.47 383.27 81.71 382.69 83.39 382.02 83.73 381.93 84.89 381.63 86.4 380.96 88.04 379.97 93.46 377.79 95.56 377.08 98.02 376.61 100.29 376.18 101.68 375.74 103.61 374.89 106.16 374.4 109.25 372.74 111.84 371.24 113.35 370.73 114.09 370.48 116.32 369.78 117.22 369.6 118.11 369.48 120.91 369.52 122.28 369.64 125.2 369.64 127.82 369.72 127.94 369.72 128.49 369.84 132.16 369.16 136.04 367.49 138.41 366.1 141.19 363.95 141.46 363.6 142.64 362.74 143.98 361.65 144.83 361.11 145.73 360.8 146.63 360.63 147.23 360.55 148.73 360.02 151.46 358.44 152.98 357.26 154.87 355.44 158.14 353.6 158.64 353.34 160.19 352.52 160.93 351.89 161.48 351.16 161.81 350.14 161.99 349.92 162.19 349.22 162.63 348.35 164.15 347.04 166.3 344.57 166.97 343.98 167.94 343.49 169.38 343 170.83 342.56 173.28 342.19 176.46 341.47 178.74 341 179.99 340.83 181.49 340.72 182.33 340.5 183.68 339.97 185.5 338.7 189.03 335.94 191.05 333.98 191.92 332.61 192.93 330.59 193.63 328.7 194.23 326.59 194.68 325.32 195.23 324.55 195.72 324.04 196.39 323.64 197.05 323.37 197.89 323.2 198.79 322.96 200.59 322.53 202.74 322.24 203.73 322.07 204.45 321.87 205.3 321.51 207.5 320.46 209.25 319.61 210.31 319.14 211.19 318.39 212.97 316.62 214.8 314.89 216.07 314.08 216.8 313.76 217.58 313.59 218.18 313.32 218.97 312.83 221.27 311.48 223.56 310.31 226.42 308.41 229.51 306.52 231.15 305.11 232.14 303.79 232.7 303.06 233.08 302.28 233.16 301.74 234.04 300.79 234.48 299.04 235.43 296.76 236.16 296.18 238.46 294.59 240.77 292.87 244.06 290.38 247.32 287.75 250.85 284.76 251.9 283.52 252.09 282.93 252.17 282.28 252.19 281.59 252.14 281.03 251.81 279.92 250.96 278.52 250.38 277.86 249.79 277.44 249.02 277.24 248.25 277.09 247.15 277.21 245.95 277.42 244.15 277.9 241.63 278.37 239.59 278.85 236.75 280.24 234.7 281.08 231.32 282.83 228.28 284.86 226.05 285.87 224.11 287.13 222.17 288.31 220.12 289.06 218.92 289.55 216.33 290.62 213.61 291.87 211.32 292.71 208.93 293.18 204.55 294.13 202.57 294.52 199.99 295.26 199.09 295.34 198.02 295.28 196.66 295.07 194.17 294.2 191.39 293.46 189.85 293.16 188.54 293.14 187.22 293.35 186.5 293.39 185.88 293.38 185.43 293.37 184.45 293.22 183.22 292.6 181.74 291.93 180.5 291.58 179.49 291.47 178.66 291.18 177.78 290.8 175.79 289.43 174.37 288.43 170.75 285.88 169.05 284.61 166.67 282.17 164.11 279.95 162.18 278.35 160.54 277.22 158.37 275.86 156.96 274.96 155.37 274.15 153.26 273.06 150.31 271.76 147.77 270.98 146.02 270.59 145.24 270.71 144.4 271.02 143.37 271.56 141.66 273.06 137.11 278.07 136.15 279.79 133.97 282.65 132.51 284.96 130.26 287.22 127.54 289.08 125.56 290.8 123.49 293.99 122.55 294.6 122.4 294.93 122.13 295.45 121.62 297.09 119.95 299.58 118.06 302.23 115.53 304.52 112.64 306.31 110.01 306.85 109.17 306.8 108.88 306.92 108.46 307.33 108.14 308.16 107.76 309.16 107.62 309.54 105.68 313.39 104.18 315.96 103.18 317.65 101.65 319.38 99.38 321.8 97.66 323.53 96.2 324.71 93.29 326.79 90.02 328.73 88.39 329.35 88.07 329.5 86.04 330.47 84.56 330.95 82.94 331.44 80.16 332.83 77.49 334.34 76.11 335.12 74.42 335.97 72.43 336.73 70.56 337.53 69.47 338.35 68.32 338.84 66.94 339.14 65.87 339.31 65.03 339.34 64.08 339.14 63.13 338.99 61.82 339.11 59.48 339.72 57.97 340.2 56.66 340.37 54.63 340.24 52.44 339.93 51.19 339.87 50.41 340.04 49.8 340.31 48.15 340.41 46.41 340.93 44.27 341.48 41.48 342.39 40.16 343.58 39.12 344.92 38.93 345.04 37.96 345.66 36.41 345.87 35.59 346.17 34.21 346.8 32.7 347.25 31.3 347.22 30.91 346.89 29.79 345.64 27.56 345.9 25.54 346.73 23.58 347.38 22.33 347 22.08 346.4 22.09 346.08 21.12 345.57 19.12 345.84 17.31 345.93 16.39 345.46 16.27 344.96 16.57 344.2 15.89 343.24 15.08 342.92 13.98 342.49 11.68 342.23 11 341.19 10.09 340.3 8.28 339.41 7.55 338.38 5.24 336.26 3.5 334.53 3.33 334.36 2.1 333.52 1.04 331.78 1.15 330.17 1 328.44 1 328.38 1.54 326.26 3.02 324.2 5.28 323.06 8.76 321.78 11.36 321.18 15.71 319.64 17.55 319.13 18.84 319.12 20.64 318.82 24.96 317.69 28.08 316.76 30.25 315.83 31.53 315.06 32.61 314.75 33.32 314.72 34.47 314.56 35.18 314.47 38.11 314.14 39.55 313.57 40.64 313.21 41.48 312.95 42.26 312.82 42.91 312.79 43.62 312.89 44.87 312.95 46.28 312.93 48.13 312.64 50.9 311.85 53.37 310.68 55.91 309.24 58.38 308.17 59.35 307.86 61.04 307.06 61.46 306.72 61.83 306.35 62.13 306.08 62.5 305.58 62.82 304.98 63.08 304.06 63.78 302.41 64.28 301.54 64.41 301.12 64.54 300.52 64.62 299.97 64.64 299.23 64.48 298.26 63.86 296.77 62.96 294.81 61.88 292.67 58.87 289.15 57.94 288.45 56.88 287.88 56.12 287.35 55.71 286.98 55.43 286.28 55.33 285.63 55 284.33 54.43 283.35 54.03 282.7 53.86 282.28 53.64 281.91 53.61 281.76 53.58 281.63 53.66 280.89 53.86 280.15 54.35 279.17 54.36 279.14 54.56 278.32 54.47 277.25 54.48 276.93 54.26 276.05 54.34 275.5 54.34 275.49 54.61 275.4 55 275.41 55.82 275.79 56.48 276.16 56.94 276.41 57.82 276.75 58.41 277.13 59.4 278.02 60.9 280.08 62.53 281.51 63.88 282.46 65.34 283.31 66.85 284.03 68.41 284.54 69.99 284.87 71.38 285.03 72.78 285.05 73.95 284.93 74.97 284.69 76.83 284.16 78.04 283.63 78.88 283.27 80.08 283.06 80.86 282.98 83.55 282.65 84.21 282.52 85.17 282.07 88.25 280.69 94.48 278.15 97.02 277.08 99.67 275.92 102.87 274.21 105.9 272.69 107.22 272.2 107.65 271.84 108.08 271.29 109.18 270.1 110.91 267.82 113.33 264.07 115.07 261.5 117.06 258.25 117.86 257.29 118.72 256.38 119.21 255.79 119.47 255.15 119.72 254.59 120 254.41 120.14 254.32 120.63 254.1 121.59 253.88 122.54 253.9 123.5 253.87 125.95 253.4 126.29 253.36 127.09 253.03 130.43 251.86 133.69 251.08 137.45 250.3 142.72 249.13 145.49 248.54 147.02 247.95 149.59 246.79 152.01 245.44 153.82 244.35 155.89 242.91 157.59 241.5 159.06 240.28 159.74 239.36 160.05 238.72 160.12 238.21 160.25 237.84 160.32 237.57 160.4 236.88 160.29 236.37 159.9 235.39 158.77 233.15 157.56 231.38 156.45 230.34 155.46 229.54 154.75 229.3 154.16 229.01 153.93 228.73 153.94 228.46 153.94 228.45 154.12 228.32 154.84 228.1 157.48 227.49 159.89 226.7 161.46 226.03 162.97 225.03 163.89 224.17 164.63 223.3 165.24 222.76 165.6 222.58 165.84 222.63 166.07 222.91 166.47 223.66 167.09 224.77 167.72 225.94 168 226.68 168.63 227.76 169.31 228.83 170.3 229.73 171.65 230.49 173.54 231.21 176.62 232.14 181.49 232.91 183.63 233.22 185.71 233.57 188.09 233.7 188.85 233.76 190.85 233.69 195.69 233.76 201.12 233.27 205.32 232.36 206.26 232.17 208.63 231.25 211.78 229.54 213.71 228.26 214.68 228.11 216.77 227 217.75 226 218.38 225.65 221.41 223.82 224.2 222.09 225.93 220.93 226.35 220.61 228.39 219.01 228.94 218.42 229.31 218.19 229.61 218.1 230.2 218.2 230.91 218.45 231.62 218.64 232.52 218.61 233.54 218.26 234.75 217.77 235.65 217.27 236.51 216.45 236.88 215.91 237.33 214.53 237.74 212.82 237.69 212.17 237.88 211.81 238.67 211.18 238.67 211.17 238.98 210.85 239.28 210.72 239.58 210.82 239.87 211.05 240.45 211.75 241.68 212.61 245.37 215.21 246.65 216.2 248.13 216.64 249.97 216.94 252.47 217.08 254.38 217.2 255.83 217.45 257.13 217.93 258.38 218.09 259.69 218.02 260.24 217.71 261.21 216.94 263.2 214.01 264.63 211.72 265.68 210.3 267.52 208.39 269.23 206.66 271.73 204.66 273.31 203.67 276.93 202.06 278.2 201.39 278.8 200.98 279.18 200.39 279.32 199.42 279.71 198.13 280.15 197.31 280.65 196.53 280.73 195.74 280.77 194.31 280.9 193.29 280.92 193.2 281.33 193.21 281.62 193.49 281.85 193.82 282.73 194.44 284.09 195.06 285.34 195.17 287.18 195.31 288.79 195.52 290.45 195.78 291.58 195.75 293.79 195.56 295.36 195.03 298.13 194.05 300.75 192.8 304.14 190.87 306.44 189.79 308.62 188.35 311.36 186.45 313.73 184.5 314.03 184.46 314.63 184.47 315.34 184.76 317.18 184.92 317.9 184.7 318.45 184.34 319.41 183.89 320.8 183.36 321.58 183.14 322.07 182.69 322.21 181.86 322.47 180.98 322.66 180.8 322.71 180.79 322.84 180.76 323.79 180.77 325.1 180.89 325.87 181.04 326.41 181 326.89 180.73 327.32 180.41 327.8 180.24 328.4 180.2 329.35 180.31 330.36 180.51 331.67 180.48 332.63 180.22 334.8 179.42 337.09 178.3 338.67 177.5 339.75 177.1 341.13 176.89 341.97 176.58 343.12 175.99 344.93 174.96 346.2 174.42 349.36 173.36 352 172.67 354.33 172.43 355.17 172.3 356.8 171.68 359.22 170.38 361.77 168.57 363.17 167.62 364.87 166.44 365.78 165.77 366.52 164.9 366.95 164.21 367.47 162.56 367.86 161.68 367.93 160.99 367.89 160.48 366.5 158.61 366.28 158.05 366.35 157.78 366.47 157.6 366.47 157.59 366.78 157.41 368.21 157.39 370.17 157.61 371.12 157.67 372.07 157.91 372.53 158.02 372.72 158.06 373.18 158.81 373.86 160.21 374.71 161.75 375.66 163.01 377.1 165.2 378.6 167.1 381.27 169.82 382.67 171 384.36 172.32 385.42 172.9 386.13 173.09 387.02 173.24 387.97 173.35 389.22 173.46 392.32 173.61 395.42 173.47 396.85 173.49 397.81 173.32 398.9 172.97 400.71 172.03 401.8 171.35 402.46 171.18 403.42 170.96 404.14 170.88 405.04 170.71 407.48 170.75 408.73 170.86 409.51 170.69 411.19 170.16 411.86 169.8 412.23 169.39 413.05 168.62 414.16 167.43 415.43 166.9 416.21 166.54 416.87 166.32 417.53 166.29 418.66 166.26 419.91 166.32 420.87 166.29 422.49 166.04 424.71 165.43 427.18 164.31 430.15 162.74 430.82 162.2 431.43 161.56 431.86 160.97 432.06 160.46 432.12 160.09 432.14 159.4 432.22 158.71 432.17 158.52 432.29 158.38 432.78 157.97 432.81 157.96 433.62 157.48 435.19 156.86 436.61 156.14 437.47 155.28 438.28 154.13 438.72 153.12 439.1 152.3 439.53 151.84 439.86 151.6 439.95 151.52 440.68 151.26 441.22 151.04 441.58 150.9 442.18 150.82 442.89 150.88 443.55 151.03 444.38 151.09 444.86 150.95 445.64 150.64 446.62 149.97 448.15 148.51 451.86 145.61 454.11 144.12 455.02 143.4 455.75 142.81 456.12 142.35 456.31 141.8 456.51 141.34 456.52 140.97 456.29 140.36 456.12 139.95 456.13 139.67 456.39 138.98 456.57 138.63 456.89 138.02 457.52 136.64 457.73 135.76 457.82 134.56 457.99 133.73 457.95 132.9 457.46 131.28 456.77 130.15 456.49 129.36 456.35 128.25 456.55 127.24 456.53 125.94 456.39 124.14 455.97 122.24 455.37 120.22 454.75 118.5 454.78 117.62 454.63 116.37 454.07 115.2 453.39 113.76 453.12 112.78 453.09 111.67 453.16 111.44 453.28 111.03 453.71 110.62 454.21 109.61 454.66 108.69 455.26 106.3 455.73 104.27 456.05 103.35 456.19 102.71 456.04 101.55 455.55 99.88 455.04 98.71 454.46 98.19 453.52 97.72 452.82 97.15 452.48 96.41 452.44 95.39 452.53 94.33 452.67 93.68 452.8 93.31 452.63 92.85 452.05 92.1 451.6 91.4 451.31 91.02 451.31 90.75 451.32 90.75 451.63 90.2 451.71 89.39 451.55 88.51 451.17 87.12 451.17 85.04 451.07 84.29 450.85 83.55 450.1 82.66 449.76 81.82 449.56 80.48 449.65 79.14 449.56 78.07 449.34 77.42 448.94 76.72 448.73 75.8 448.75 74.87 448.53 74.45 448.68 72.98 449.52 70.54 450.29 68.66 450.67 67.74 450.93 67 450.94 66.63 450.83 66.17 450.72 65.75 450.8 65.33 450.98 65.01 452.65 62.87 454.07 60.95 454.44 60.54 454.34 59.98 454.07 58.96 453.45 57.56 452.77 56.07 452.56 55.05 452.27 54.54 452.29 53.94 452.49 53.27 452.87 52.31 453.57 50.65 453.84 49.5 453.87 48.25 453.83 47.75 453.55 46.86 453.27 46.21 453.05 45.65 453 45.14 453.14 44.27 453.58 43.44 454.32 42.62 455.31 41.11 455.88 39.96 456.39 38.68 456.79 37.02 457.27 34.99 457.86 32.78 458.13 31.63 458.41 30.06 458.27 28.63 458.17 27.84 457.89 27.19 457.6 26.91 457.25 26.58 456.67 26.06 456.5 25.6 456.45 25.36 457.47 24.06 457.92 22.68 457.94 21.76 458.32 21.21 458.63 20.61 458.82 20.06 458.85 19.23 458.82 18.12 458.65 17.61 458.31 17.1 458.31 17.1 458.31 16.82 458.44 16.63 458.57 16.27 459.8 14.76 461.22 13.12 461.7 12.76 462.42 12.58 463.38 12.51 464.28 12.29 465.12 12.03 465.61 11.62 466.19 11.12 466.68 10.8 467.82 10.24 468.61 9.89 469.39 9.67 473.42 8.57 474.56 8.22 475.47 7.78 476.67 7.29 477.75 6.98 480.7 6.1 481.42 5.74 482.21 5.34 482.94 4.8 484.09 4.12 484.94 3.77 486.13 3.6 486.74 3.56 487.75 3.49 488.34 3.59 488.76 3.69 489.05 3.88 489.87 4.54 490.16 4.91 491.57 7.66 491.8 7.99 492.08 8.64 492.89 9.58 493.47 10.47 494.22 11.17 494.63 11.46 495.22 11.7 496.47 12.04 496.88 12.14 497.42 12.19 498.56 12.21 500.91 12.97 506.56 13.02 507.96 13.58 510.9 16.25 511.77 19.31 513.98 21.29 520.07 22.88 525.98 22.69 530.33 21.16 531.21 19.45 531.93 18.06 532.1 17.9 532.83 17.29 533.86 16.84 535.78 16.51 537.21 16.34 538.02 16.25 538.36 16.31 541.11 15.7 542.6 14.29 543.31 13.68 543.73 13.98 544.29 15.49 545.51 17.64 544.86 21.28 543.2 23.94 543.35 27.79 545.61 30.26 548.98 31.45 552.25 31.96 555.65 30.89 555.96 30.51 556.34 30.36 556.73 28.85 558.06 25.22 558.83 21.58 559.97 19.54 562.22 17.72 565.87 16.6 567.98 15.16 569.58 14.35 569.69 14.16 570.07 13.38 570.32 13.01 570.5 12.83 570.93 12.56 571.23 12.38 571.71 12.34 572.01 12.41 572.12 12.44 572.47 12.77 572.7 13.24 572.74 13.98 572.84 14.63 573.01 15.18 573.41 15.84 573.75 16.21 574.22 16.45 574.52 16.59 574.63 16.74 574.81 16.92 574.73 17.52 574.35 18.39 573.77 19.87 573.63 20.88 573.54 22.03 573.63 23.05 573.9 23.94 574.25 24.36 574.87 25.57 575.04 27.28 575.47 28.91 576.37 30.86 577.16 32.61 577.84 34.19 578.76 35.32 580.1 36.49 581.42 37.46 582.03 37.77 584.31 38.43 584.51 38.54 584.7 38.9 582.57 40.85 578.81 43.07 577.99 46.57 577.82 49.11 576.63 52.36 571.73 55.13 567.57 58.01 567.25 59.88 571.38 62.05 572.99 63.68 574.87 66.37 575.85 66.91 575.57 68.44 575.16 70.41 575.11 71.58 574.65 72.53 573.99 74.75 575.4 76.07 578.09 76.4 579.06 76.93 579.22 78.81 578.87 79.58 577.55 82.44 576.34 84.36 576.05 85.68 577.34 87.62 580.11 90.48 583.42 91.88 585.78 92.24 589.56 92.48 589.58 92.5 591.12 92.89 592.19 93.18 592.4 93.21 593.63 93.68 596.66 93.76 601.08 93.57 602.83 93.58 603.35 93.48 604.84 94.11 605.3 95.33 605.59 95.67 607.49 97.65 607.6 98.51 608.06 100.1 608.04 101.75 607.9 102.85 608.48 103.53 610.16 104.12 613.26 104.86 616.63 105.9 619.93 106.36 620.52 106.54 623.37 106.77 624.51 106.74 626.27 106.75 627.81 106.86 628.41 106.99 629.52 107.35 631.37 107.03 636.17 105.5 638.57 103.61 639.67 101.03 640.74 98.08 641.14 96.51 641.26 96.32 641.25 96.19 641.65 95.61 641.91 95.17 642.49 94.97 642.95 95.09 643.17 95.57 643.2 96.01 643 96.46 643.61 98.71 644.79 101.12 646.09 103 646.31 103.33 647.12 106.69 648.29 109.33 649.47 110.54 649.6 110.79 649.27 114.17 647.31 115.73 645.43 118.74 644.85 120.19 642.76 122.78 640.5 125.67 637.93 128.25 636.63 130.05 635.73 131.31 634.25 132.38 634.23 133.93 634.37 134.07 634.65 134.46 636.09 135.03 637.25 136.61 639.64 137.4 642.02 137.05 642.6 137.05 643.54 136.91 643.79 136.87 645.9 137.3 648.99 138.11 651.47 139.93 653.07 142.66 654.71 146.48 655.76 149.63 656.42 152.18 657.07 154.84 657.09 157.67 657.75 158.97 660.99 160.28 663.35 159.92 666.34 158.56 668.44 154.87 668.55 149.8 668.53 146.79 668.73 146.29 668.63 145.69 669.15 144.56 669.61 143.66 671.35 141.75 673.99 139.69 676.89 138.33 679.36 135.96 682.38 133.91 683.53 131.48 683.67 128.03 683.69 127.62 683.48 126.92 683.73 125.57 684.68 124.16 687.04 122.2 689.56 120.79 692.06 118.76 693.86 117.66 695.95 115.4 696.25 114.5 696.53 113.91 696.41 113.28 695.31 112.48 693.7 111.82 693.16 111.81 692.55 111.68 691.71 111.4 691.31 110.66 691.25 109.77 691.28 109.72 691.2 107.5 691.43 107 691.51 106.92 692.85 106.45 693 106.4 695 106.3 696.25 106.3 697.36 106.67 697.73 106.75 699.2 106.67 702.42 106.67 706.35 105.78 710.69 103.98 714.38 101.83 716.19 99.34 716.87 97.7 716.73 95.46 717.31 93.78 717.14 93.45 717.22 92.64 717.55 91.73 718.25 89.55 718.47 87.6 718.12 85.98 717.89 83.51 717.86 81.86 718.22 80.1 718.86 78.39 718.76 76.11 719.49 73.52 720.16 73.19 720.15 73.18 722.77 71.41 724.78 69.27 724.94 68.72 725.59 67.92 726.23 67.56 726.59 67.35 727.38 66.61 729.3 65.31 730.15 62.88 730.17 60.86 729.98 59.5 729.71 58.44 730.04 56.52 730.86 54.81 730.81 52.88 730.27 51.09 729.08 49.61 728.17 47.66 727.98 47.22 727.48 46.58 727.41 46.03 727.13 45.76 726.31 43.14 725.83 41.3 725.76 39.99 726.29 39.13 726.82 38.29 729.02 36.32 731.99 33.6 735.3 31.52 738.19 29.23 741.24 26.18 741.55 25.04 740.85 24.08 740.51 23.89 739.38 23.03 739.27 22.62 739.09 21.99 741.06 21.69 742.01 21.55 743.05 21.73 744.22 21.72 745.62 21.04 746.53 20.1 747.43 19.3 747.48 19.28 747.59 18.99 749.23 17.42 751.72 15.37 754.7 13.58 757.64 12.49 761.49 11.82 764.73 9.59 766.15 7.37 768.09 6.46 769.61 5.98 771.57 3.68 771.57 3.55 771.65 2.67 771.91 2.07 772.28 1.57 772.94 1.26 773.6 1.08 774.14 1 774.34 1 774.62 1.01 775.1 1.06 775.57 1.21 775.86 1.58 776.19 2.65 776.22 3.72 776.22 3.72 776.71 4.68 777.01 6.41 777.31 8.17 776.57 11.87 774.95 15.05 772.93 17.82 772.16 18.93 769.61 19.86 Z M 499.08 184.67 497.84 185.51 497.56 186.3 498.49 187.84 500.2 188.58 502.98 189.33 506.8 190.1 510.94 190.2 514.71 190.19 516.92 189.67 518.68 188.33 519.48 186.94 519.18 186.07 518.27 185.08 516.2 184.07 513.88 183.24 510.45 182.9 506.2 182.66 503.36 183.2 501.1 183.79 499.08 184.67 Z M 542.72 194.82 542.97 195.46 543.75 195.44 544.13 195.73 544.14 196.26 544.84 196.98 545.13 198.04 547.6 200.94 548.99 201.72 549.77 201.77 551.87 200.83 553.62 200.06 554.78 199.06 554.47 197.62 553.56 196.4 551.56 195.84 549.26 194.45 546.55 193.4 543.49 192.99 543.17 193.36 542.72 194.82 Z M 626.96 127.59 625.45 127.21 624.31 127.38 623.49 128.22 622.66 129.05 621.66 130.04 620.83 130.84 620.56 131.4 620.3 132.06 620.12 132.34 619.97 132.76 621.99 134.14 624.4 134.59 626.51 134.79 628.01 134.52 630.15 133.92 632.37 132.82 631.04 131.42 630.1 130.93 629.27 129.97 628.12 129.62 626.96 127.59 Z" fill-rule="evenodd"/>
</g>
</svg>