<?xml version="1.0"?>
<svg xmlns="http://www.w3.org/2000/svg" version="1.2" baseProfile="tiny" width="800" height="444" viewBox="0 0 800 444" stroke-linecap="round" stroke-linejoin="round">
<g id="monolake">
<path d="M 79.57 197.92 80.21 197.41 80.32 197.3 81.19 197.06 81.76 196.39 82.08 196.38 82.41 194.62 81.89 192.94 84.21 193.72 86.02 194.36 87.31 195 89.12 194.88 91.05 194.75 92.6 193.97 93.03 192.1 94.89 190.71 97.15 189.17 102.59 188.97 103.57 190.1 104.6 191.65 105.89 191.01 107.58 190.39 108.6 191.39 109.5 191.26 110.92 190.36 113.11 189.59 114.92 189.46 117.5 188.81 120.21 188.68 123.82 189.72 127.82 191.26 132.07 193.2 135.82 195 140.33 197.33 145.36 198.87 152.03 201.51 156.17 202.79 162.55 202.15 167.65 201.51 176.26 199.92 191.24 191.95 196.98 187.49 202.08 183.02 208.46 178.88 213.88 173.46 220.58 166.13 224.72 164.53 226.95 161.03 231.42 156.88 231.74 154.01 236.52 151.46 236.84 148.27 238.75 147 246.08 140.3 252.46 132.97 254.37 128.19 254.47 123.23 260.11 121.17 266.17 117.67 271.27 113.52 274.14 107.15 273.19 94.39 273.82 85.79 277.33 84.83 278.29 82.28 274.47 73.71 274.94 71.38 276.2 67.65 279.34 64.93 283.2 62.53 287.49 60.23 292.08 58.14 295.74 56.89 300.02 55.43 303.37 54.38 307.23 53.23 313.6 52.08 318.51 51.14 321.86 50.52 327.5 49.58 331.36 49.16 335.75 48.01 343.59 46.23 348.19 45.29 353.93 44.77 357.9 43.2 360.62 42.79 363.02 42.58 367.93 41.22 369.08 41.01 370.33 40.59 371.48 40.59 372.53 39.65 373.68 39.34 375.04 39.86 377.02 39.86 377.86 38.61 378.48 37.67 379.11 36.94 380.47 36.83 381.83 36.1 382.77 36.1 382.87 35.27 384.33 34.64 385.9 33.91 386.84 33.7 387.57 34.64 388.1 34.12 388.62 33.91 389.45 34.64 390.92 35.89 391.54 35.27 390.92 34.01 390.6 32.55 391.23 30.88 391.61 28.54 392.8 27.12 393.74 25.76 394.47 23.46 396.14 22.62 397.39 21.68 398.86 20.95 400.11 20.54 400.53 18.65 400.32 16.25 400.32 13.74 400.53 12.28 402.1 10.61 404.08 9.57 405.96 8.73 409.2 7.79 412.13 7.37 415.99 6.33 420.07 5.7 423.93 5.39 425.71 4.97 429.78 4.13 433.02 4.13 435.11 3.82 438.35 3.3 439.92 3.09 442.84 2.67 446.5 2.57 451.63 2.56 453.81 2.46 455.17 2.46 456.63 2.67 458.41 2.36 462.48 1.63 467.39 1.73 477.21 1 489.54 1.42 491.18 1.4 491.21 1.52 495.39 1.94 502.6 2.36 509.6 3.3 519.53 4.45 532.38 6.22 546.17 8.63 557.35 11.13 567.9 13.54 574.79 15.52 582.11 17.61 587.85 19.28 593.91 21.27 601.12 23.56 608.96 26.39 616.79 29.21 623.38 31.92 631.63 35.16 641.24 39.23 647.93 42.26 655.24 45.5 662.66 48.95 668.4 51.98 677.08 56.79 684.08 61.17 691.29 65.87 696.4 69.63 696.61 70.47 697.66 71.2 702.05 73.71 705.81 75.9 707.69 78.2 709.26 80.08 712.18 81.44 716.67 84.05 722.63 88.33 725.76 89.59 734.02 94.81 741.43 100.35 747.39 104.84 754.7 111 760.76 116.75 764.31 121.97 766.4 126.26 770.9 131.58 775.81 137.33 779.57 143.49 784.69 154.25 788.87 163.55 793.57 172.53 795.24 178.39 796.18 181.21 796.81 187.06 797.43 193.53 798.58 200.01 799 205.65 797.96 211.29 796.81 217.14 794.82 219.23 788.87 224.66 785.31 229.26 783.43 230.93 779.67 236.57 775.18 241.17 772.6 245.18 766.75 252.03 761.06 257.55 755.63 262.31 750.87 266.49 748.44 269.33 746.61 271.42 742.01 275.69 740 278.28 736.24 282.04 731.9 285.71 730.31 288.22 728.89 289.64 727.97 289.89 726.8 289.22 725.12 289.22 723.2 290.14 720.19 291.15 718.27 291.82 716.43 293.9 716.18 296.58 716.18 300.01 717.1 301.09 715.68 304.44 715.51 305.61 715.1 306.27 715.6 307.28 715.01 308.53 713.51 311.29 712.09 313.04 711 315.38 709.91 316.97 708.66 318.31 707.41 319.06 705.65 320.4 704.65 321.15 703.14 321.99 701.64 322.99 700.97 323.41 699.47 324.24 697.04 324.99 695.2 326 693.2 327 692.03 327.42 690.27 328.5 687.51 329.51 685.93 330.51 684.59 331.1 682.5 331.76 681.25 333.02 679.99 334.1 678.24 334.69 676.56 335.61 674.89 335.69 673.3 336.61 672.3 337.45 670.96 337.78 670.3 338.37 669.46 338.95 668.54 339.54 667.29 340.29 665.2 340.79 663.19 341.37 661.27 341.88 660.1 341.88 658.01 342.38 656.67 343.05 655.59 343.46 653.91 343.71 651.82 344.22 650.91 344.22 650.15 344.22 649.23 344.38 648.56 345.22 646.98 345.8 645.72 346.47 644.72 346.47 643.22 346.47 641.54 347.31 640.79 347.73 639.45 348.48 638.03 349.31 637.45 349.9 635.53 351.65 633.52 353.41 632.18 354.08 631.93 354.66 631.35 355.25 630.18 355.67 629.26 356.42 627.5 357.34 626.33 358.42 625.08 359.01 623.49 360.26 622.32 360.68 621.48 361.6 620.57 362.35 619.65 362.77 618.56 363.35 617.97 364.27 616.14 365.95 614.46 366.7 612.54 368.03 611.29 369.29 610.28 369.96 608.53 371.46 607.19 371.88 606.86 372.38 605.52 373.3 604.6 374.22 603.1 375.39 601.34 376.39 599.92 377.39 598.83 377.81 597.5 378.73 596.16 379.57 594.32 380.49 592.65 381.57 590.31 382.58 589.22 382.91 588.64 382.99 586.72 383.83 585.04 384.83 583.79 385.59 580.61 387.09 578.69 387.84 577.1 388.26 576.35 388.26 575.6 388.43 574.09 388.84 572.09 388.93 570.83 388.93 569.83 389.85 568.49 391.02 567.16 392.1 565.07 394.53 563.15 396.28 561.39 397.79 558.3 399.21 557.21 399.21 556.04 399.88 552.7 401.88 550.11 403.55 545.26 405.73 540.33 407.98 538.15 408.73 536.9 408.99 536.15 408.57 535.15 409.15 532.55 409.82 530.47 411.49 524.2 415.25 519.85 417.59 515.25 419.93 510.41 422.11 505.81 423.11 503.8 423.11 501.96 423.19 500.38 422.36 499.79 421.77 499.37 420.85 500.04 419.68 499.62 419.6 498.96 420.35 498.12 420.94 497.62 421.44 496.11 422.19 493.86 422.94 491.1 424.53 487.76 425.95 482.57 428.29 478.06 430.21 472.79 432.22 467.36 434.31 462.43 436.06 457.42 437.65 452.73 438.74 448.56 439.32 445.88 439.66 444.21 439.32 442.37 439.16 440.62 438.49 437.69 438.91 436.19 438.57 434.93 438.74 433.76 438.74 433.26 438.99 433.01 439.99 432.17 440.91 430.75 441.5 428.75 442.42 426.07 442.83 424.82 442.5 423.06 443 419.72 442.42 418.13 442 415.88 441.58 412.78 442.08 408.52 441.25 405.51 440.41 404.26 439.41 403.92 437.65 402.67 436.56 401.75 435.65 401.33 434.73 401.25 433.72 400.5 433.22 399.83 433.97 399.83 434.89 398.24 435.48 397.15 436.23 396.99 437.57 395.98 438.4 394.81 439.16 393.31 439.16 392.97 439.66 391.72 440.49 390.55 441.58 387.12 441.58 385.12 441.33 384.2 441.33 381.52 440.66 380.69 439.41 379.35 439.32 376.84 438.74 374.75 438.49 372.33 437.82 369.82 437.48 366.98 436.56 364.56 435.23 361.55 432.89 360.55 431.88 360.38 430.8 359.79 429.29 358.04 427.46 355.95 425.53 354.95 423.86 354.78 421.86 355.36 420.44 352.94 418.18 350.35 416.09 347.84 414.08 344.5 411.58 342.07 409.15 339.57 407.15 338.98 405.81 338.73 404.81 338.31 402.8 337.98 402.13 337.39 401.21 335.14 399.21 332.55 397.54 328.87 395.36 325.94 393.78 324.52 393.27 322.85 392.86 321.18 392.02 320.68 391.27 319.92 391.27 318.65 391.23 317.38 391.18 315.75 391.35 314.24 391.6 310.23 391.44 306.8 392.02 303.04 392.1 300.28 392.02 296.94 392.1 292.59 392.44 289.17 392.94 285.16 394.03 282.9 394.78 280.81 395.7 279.39 395.45 277.05 396.87 277.05 397.7 276.04 398.71 274.46 399.88 273.12 401.63 271.36 403.47 269.61 406.23 267.52 408.73 265.51 410.07 263.67 411.41 260.75 412.83 257.82 414 253.81 414.84 250.05 415.34 246.88 415.67 242.86 415.59 238.35 415 233.75 414.08 228.15 412.75 222.89 410.99 219.29 409.74 213.78 406.65 211.27 405.39 207.84 402.22 205.08 399.37 204.08 397.29 204 396.03 204.67 394.44 204.42 393.78 204.58 392.69 204.5 391.69 204.42 390.1 203.5 388.84 203.33 387.17 202.91 385.25 201.74 384 200.65 382.16 199.74 380.07 199.57 378.73 198.57 377.39 197.23 376.39 195.89 374.22 195.81 372.8 195.56 371.88 194.89 370.46 195.14 369.46 194.55 369.46 193.55 368.95 192.21 367.95 190.37 365.69 189.12 363.1 187.78 361.35 187.78 359.59 187.11 358.51 186.7 357.09 188.38 356.46 188.66 355.9 188.79 355.79 189.21 355.35 189.03 354.92 187.45 355 187.37 354.41 186.45 353.07 186.19 352.12 184.94 352.57 183.86 353.33 182.35 353.16 182.02 352.41 184.02 350.23 182.85 348.39 180.43 346.89 180.26 347.56 181.43 348.48 180.26 349.15 179.09 348.81 178.42 347.06 176.5 345.72 175.5 345.97 173.32 345.47 172.24 344.13 171.57 344.05 169.98 344.22 167.89 343.88 166.05 343.3 164.72 341.79 163.46 340.46 162.12 338.78 160.54 337.11 159.37 335.61 158.11 333.6 156.61 332.18 156.02 331.26 154.6 328.92 153.93 327.58 153.52 325.75 153.52 324.41 153.1 323.16 152.68 322.57 151.01 321.4 150.17 320.73 149.5 319.39 149.84 318.64 150.34 317.56 149.84 317.05 148.33 316.55 146.33 316.05 144.24 315.05 143.65 314.38 141.98 313.63 138.89 312.63 136.46 312.21 133.29 311.71 130.28 311.71 127.27 311.96 124.76 312.29 120 312.21 116.15 312.46 113.13 313.06 112.34 313.26 109.79 312.86 108.61 313.85 107.04 314.83 105.67 315.42 103.7 316.79 101.15 316.99 95.85 317.58 90.15 318.95 86.82 319.54 84.66 320.52 83.08 322.68 80.53 323.66 77.59 321.9 75.82 322.29 74.44 322.49 72.09 321.9 69.34 320.91 66.59 320.52 63.84 320.72 61.88 321.9 59.72 321.9 56.38 321.5 54.41 321.11 52.25 319.34 49.9 318.75 47.15 317.77 45.58 316.99 44.4 315.81 43.02 313.65 40.47 311.69 38.31 308.94 37.33 306.19 35.56 302.65 35.56 298.92 35.37 294.8 34.38 292.84 33.79 289.69 32.42 285.77 32.81 283.02 32.7 281.32 33.07 280.41 32.81 279.49 32.54 278.95 32.51 278.51 32.06 278.27 31.83 277.52 31.56 275.82 31.22 275.26 31.13 274.75 31.18 273.71 31.46 273.23 31.26 272.96 31.08 272.96 30.74 273.11 30.5 273.29 30.14 273.34 29.49 273.14 28.62 273.02 25.15 271.83 22.99 271.04 21.42 269.27 20.24 267.11 19.66 265.15 18.67 261.22 17.5 259.26 15.34 256.31 14.16 254.15 12.98 250.03 11.6 248.46 9.84 244.73 8.85 243.35 8.27 240.8 6.69 238.84 6.5 236.48 6.11 234.32 6.3 231.18 6.3 229.02 6.5 227.65 6.5 226.07 6.11 224.7 4.14 224.11 2.77 222.34 1.39 219.4 1 217.44 1.59 216.06 2.37 212.92 3.16 211.15 4.73 209.19 5.71 207.22 8.66 204.67 10.43 203.69 11.8 202.71 13.57 201.33 14.55 200.16 16.51 199.17 19.26 198.58 21.23 198.58 23.98 199.17 26.53 200.55 27.71 201.92 28.89 203.3 29.87 204.48 32.22 205.06 33.99 205.06 36.94 205.06 39.69 204.67 42.24 204.28 43.81 204.28 45.58 204.28 46.95 204.28 48.13 204.87 49.9 204.87 52.06 204.87 54.02 204.48 56.97 203.69 61.09 203.49 65.7 201.68 66.45 201.12 66.98 200.94 67.42 200.83 69.86 200.56 70.25 200.15 70.94 199.91 72.17 199.64 73.27 199.21 74.71 198.29 74.94 198.25 76.16 198.28 76.53 198.37 77.47 198.51 78.11 198.48 78.7 198.31 79.57 197.92 Z M 103.15 208.21 103.43 208.21 103.5 208.01 103.15 208.21 Z M 185.59 208.84 185.89 209.02 185.88 208.8 185.59 208.84 Z M 161.83 216.91 162.04 217.02 162.11 216.86 161.92 216.78 161.83 216.91 Z M 118.11 212.71 118.36 212.84 118.43 212.69 118.27 212.6 118.11 212.71 Z M 166.55 220.06 166.48 220.27 166.73 220.24 166.73 220.07 166.55 220.06 Z M 110.82 210.54 111.09 210.6 111.16 210.45 110.95 210.35 110.82 210.54 Z M 168.94 216.51 169.2 216.53 169.2 216.37 168.94 216.27 168.94 216.51 Z M 111.59 210.92 111.85 211.07 111.96 210.96 111.82 210.78 111.59 210.92 Z M 167.73 219.15 168.1 219.19 168.15 218.99 167.83 219.02 167.73 219.15 Z M 161.31 217.16 161.35 217.34 161.6 217.38 161.6 217.22 161.49 217.05 161.31 217.16 Z M 312.91 254.4 312.93 254.66 313.21 254.66 313.14 254.37 312.91 254.4 Z M 103.57 207.94 103.95 207.91 103.93 207.67 103.84 207.63 103.63 207.82 103.57 207.94 Z M 161.81 214.59 162.06 214.78 162.27 214.72 162.04 214.45 161.81 214.59 Z M 158.9 213.28 159.06 213.49 159.34 213.38 159.2 213.18 158.9 213.28 Z M 382.15 152.59 382.49 152.79 382.61 152.58 382.4 152.47 382.15 152.59 Z M 301.16 248.43 301.11 248.7 301.34 248.76 301.43 248.61 301.34 248.44 301.23 248.44 301.16 248.43 Z M 136.95 212.2 137.14 212.25 137.34 212.23 137.39 212.05 137.04 212.02 136.95 212.2 Z M 381.46 152.85 381.58 153.08 381.81 153.08 381.85 152.9 381.6 152.74 381.46 152.85 Z M 163.8 217 163.62 217.18 163.94 217.24 164.14 217.16 164.12 216.98 163.8 217 Z M 160.14 216.78 160.21 217.02 160.48 217.07 160.6 216.98 160.58 216.84 160.14 216.78 Z M 132.17 207.82 132.56 207.77 132.56 207.5 132.31 207.48 132.19 207.57 132.17 207.82 Z M 123.58 211.97 123.76 212.08 123.96 212.06 124.1 211.91 123.94 211.77 123.62 211.82 123.58 211.97 Z M 290.62 184.49 290.78 184.67 291.03 184.53 290.98 184.26 290.71 184.27 290.62 184.49 Z M 161.35 215.5 161.63 215.46 161.86 215.25 161.42 215.03 161.35 215.5 Z M 210.14 202.41 210.53 202.5 210.72 202.28 210.46 202.14 210.24 202.14 210.14 202.41 Z M 195.56 212.56 195.65 212.78 195.99 212.76 196.08 212.6 195.88 212.4 195.7 212.41 195.56 212.56 Z M 312.34 255.96 312.34 256.19 312.54 256.43 312.68 256.12 312.68 255.94 312.54 255.79 312.34 255.96 Z M 204.29 205.59 203.88 205.56 203.88 205.94 204.18 205.94 204.34 205.77 204.29 205.59 Z M 306.26 254.84 306.42 255 306.78 255 306.85 254.8 306.55 254.67 306.37 254.66 306.26 254.84 Z M 377.49 148.32 377.33 148.38 377.21 148.61 377.51 148.81 377.72 148.79 377.69 148.59 377.49 148.32 Z M 165.24 217.43 165.54 217.54 165.7 217.23 165.67 217.02 165.49 216.98 165.31 217.25 165.24 217.43 Z M 434.46 40.29 434.48 40.49 434.73 40.69 434.99 40.72 434.92 40.34 434.74 40.29 434.46 40.29 Z M 428.58 40.43 428.33 40.38 428.33 40.67 428.51 40.92 428.81 40.88 428.58 40.43 Z M 189.91 209.11 190 209.25 190.21 209.25 190.39 209 190.3 208.82 190.09 208.82 189.91 208.91 189.91 209.11 Z M 358.53 146.58 358.27 146.82 358.48 147.07 358.69 147.11 358.82 146.98 358.71 146.73 358.53 146.58 Z M 221.51 189.76 221.57 189.91 221.87 189.92 222.06 189.76 222.08 189.56 221.64 189.53 221.51 189.76 Z M 418.44 46.11 418.65 46.33 419.01 46.18 418.94 45.96 418.78 45.84 418.51 45.87 418.44 46.11 Z M 299.58 248.88 299.72 249.12 300.04 249.1 300.04 248.72 300.02 248.54 299.72 248.69 299.58 248.88 Z M 415.21 47.03 415.24 47.25 415.42 47.45 415.62 47.55 415.76 47.41 415.58 47.07 415.44 46.98 415.21 47.03 Z M 306.12 249.14 306.17 249.32 306.49 249.46 306.53 248.98 306.37 248.87 306.12 248.81 306.12 249.14 Z M 231.25 181.17 231.8 181.17 232 181.08 232.02 180.9 231.77 180.84 231.31 180.91 231.25 181.17 Z M 192.84 211.11 192.97 211.42 193.25 211.47 193.39 211.26 193.32 211.04 193.04 210.91 192.84 211.11 Z M 163.46 217.61 163.71 217.8 164.39 217.74 164.44 217.6 163.89 217.47 163.46 217.61 Z M 409.26 52.49 409.26 52.69 409.42 52.87 409.65 52.84 409.81 52.4 409.47 52.33 409.26 52.49 Z M 383.55 152.43 383.52 152.77 383.84 152.67 384.12 152.49 384.05 152.27 383.75 152.21 383.55 152.43 Z M 97.05 310.75 97.18 310.82 97.41 310.77 97.66 310.55 97.66 310.37 97.48 310.3 97.09 310.48 97.05 310.75 Z M 344.32 149.85 344.5 150 344.94 149.94 345.03 149.71 344.92 149.55 344.53 149.6 344.32 149.85 Z M 247.21 182.21 247.44 182.68 247.78 182.78 247.83 182.56 247.64 182.27 247.44 182.14 247.21 182.21 Z M 228.8 182.14 228.98 182.29 229.26 182.31 229.55 182.13 229.37 181.91 229.03 181.84 228.8 182.14 Z M 343.84 150.72 343.84 151.05 344.02 151.21 344.32 151.27 344.55 151.17 344.48 151.05 344.25 150.85 343.84 150.72 Z M 165.95 216.84 165.9 217.38 166.11 217.43 166.25 217.34 166.36 217.09 166.36 216.85 166.25 216.76 165.95 216.84 Z M 203.97 205.41 204.15 205.5 204.41 205.48 204.68 205.14 204.73 204.94 204.45 204.91 203.97 205.41 Z M 169.54 215.86 169.65 215.59 169.08 215.52 169.1 215.71 169.36 216.06 169.68 216.09 169.84 215.95 169.54 215.86 Z M 343.61 149.55 343.79 149.69 344.12 149.71 344.3 149.58 344.41 149.42 344.12 149.22 343.82 149.33 343.61 149.55 Z M 432.74 38.97 433.09 39.26 433.48 39.19 433.41 38.71 433.16 38.77 432.74 38.97 Z M 281.43 263.7 281.64 263.92 282.05 263.75 282.23 263.5 281.93 263.43 281.54 263.45 281.43 263.7 Z M 392.42 58.93 392.62 59.13 393.22 58.96 393.35 58.85 393.17 58.66 392.48 58.75 392.42 58.93 Z M 309.96 256.61 309.69 256.36 309.44 256.5 309.25 256.93 309.85 256.95 309.98 256.79 309.96 256.61 Z M 291.58 115.46 291.69 115.73 291.97 115.97 292.17 115.79 292.17 115.59 292.01 115.24 291.76 115.21 291.58 115.46 Z M 392.6 59.94 392.94 60.21 393.24 60.3 393.38 60.05 393.29 59.87 392.92 59.6 392.71 59.78 392.6 59.94 Z M 221.32 188.97 221.09 188.86 220.77 188.87 220.66 189.13 220.71 189.29 220.98 189.4 221.25 189.33 221.48 189.2 221.32 188.97 Z M 300.84 248.6 300.57 248.52 300.34 248.67 300.57 249.1 300.89 249.19 301.14 249.12 300.84 248.6 Z M 313.45 102.09 313.54 102.37 313.88 102.56 314.11 102.47 314.25 102.35 314.07 101.99 313.81 101.97 313.45 102.09 Z M 434.09 41.19 434.12 41.48 434.23 41.72 434.41 41.83 434.73 41.86 434.8 41.61 434.67 41.37 434.39 41.25 434.09 41.19 Z M 335.38 162.57 335.6 162.81 335.81 162.84 335.99 162.77 336.13 162.59 335.65 162.17 335.42 162.21 335.38 162.43 335.38 162.57 Z M 167 217.72 166.73 217.85 166.38 218.08 166.61 218.37 166.96 218.34 167.18 218.03 167.18 217.83 167 217.72 Z M 300.08 254.2 300.22 254.46 300.4 254.56 300.56 254.42 300.75 254.11 300.5 253.88 300.2 253.77 300.08 253.88 300.08 254.2 Z M 405.74 52.8 405.3 52.6 405.1 52.83 405.35 53.14 405.55 53.23 405.92 53.25 406.03 53.09 405.74 52.8 Z M 379.83 66.74 379.87 66.94 380.29 67.14 380.58 67.14 380.72 66.9 380.31 66.56 380.03 66.54 379.83 66.74 Z M 224.04 184.35 223.75 184.28 223.59 184.41 223.47 184.73 223.72 185.04 224.11 184.88 224.2 184.66 224.04 184.35 Z M 411.53 45.89 411.55 46.21 411.76 46.41 412.01 46.43 412.21 46.38 412.28 46.23 412.17 45.98 412.03 45.78 411.69 45.71 411.53 45.89 Z M 301.64 249.5 301.41 249.41 301.21 249.43 301.36 249.81 301.55 250.01 301.8 250.15 302.05 250.21 302.21 249.99 302.12 249.86 301.64 249.5 Z M 367.95 69.45 368.18 69.81 368.55 70.21 368.8 70.14 368.98 69.9 368.73 69.63 368.32 69.45 367.95 69.45 Z M 392.48 76.2 392.57 76.56 392.59 76.94 393.05 77.18 393.28 76.98 393.03 76.55 392.68 76.2 392.48 76.2 Z M 299.41 248.04 299.67 248.1 300.1 248.02 300.28 247.91 300.31 247.64 300.12 247.55 299.69 247.59 299.42 247.7 299.21 247.81 299.41 248.04 Z M 334.18 85.34 334.27 85.72 334.45 85.8 335 85.74 335.14 85.62 335.05 85.42 334.89 85.29 334.38 85.18 334.18 85.34 Z M 351.3 146.09 351.5 146.35 351.71 146.2 351.82 145.97 351.78 145.37 351.44 145.28 351.3 145.71 351.3 146.09 Z M 160.19 213.51 160.3 213.06 160.09 212.99 159.89 213 159.71 213.2 159.48 213.37 159.82 213.76 160.25 213.8 160.19 213.51 Z M 305.36 239.43 305.25 239.21 304.79 239.38 304.7 239.56 304.7 239.92 304.83 240.03 305.15 239.97 305.41 239.87 305.36 239.43 Z M 346.01 79.67 346.05 79.92 346.44 80.15 346.63 80.23 347.04 80.06 346.99 79.79 346.58 79.61 346.33 79.58 346.01 79.67 Z M 417.8 43.87 418.01 44.34 418.03 44.55 418.12 44.7 418.42 44.82 418.6 44.81 418.51 44.57 418.26 44.34 418.42 44.06 418.3 43.85 418.14 43.7 417.87 43.7 417.8 43.87 Z M 306.14 258.33 306.26 258.54 306.44 258.63 306.69 258.69 306.9 258.65 307.01 258.54 306.94 258.33 306.6 258 306.37 257.89 306.14 258.09 306.14 258.33 Z M 330.06 215.08 329.76 215.17 329.58 215.48 329.78 215.59 330.42 215.59 330.79 215.43 330.9 215.23 330.06 215.08 Z M 346.08 149.24 346.13 149.53 346.26 149.67 346.63 149.85 346.86 149.73 347.07 149.49 347.04 149.29 346.56 149.06 346.29 149.09 346.08 149.24 Z M 303.42 240.26 303.46 240.46 303.71 240.91 304.15 240.79 304.42 240.82 304.33 240.5 304.06 240.1 303.81 240.1 303.42 240.26 Z M 201.55 209.03 201.18 208.99 200.95 209.14 200.77 209.54 201.66 209.77 201.91 209.61 201.55 209.03 Z M 211.38 214.76 211.5 214.98 211.63 215.09 211.82 215.16 212.05 215.12 212.25 215 212.37 214.73 212.32 214.47 212 214.38 211.45 214.55 211.38 214.76 Z M 366.12 144.3 367.08 144.83 367.22 144.7 367.13 144.41 366.67 143.8 366.44 143.8 366.21 143.91 366.12 144.3 Z M 324.91 226.68 324.73 226.66 324.5 226.88 324.34 227.1 324.34 227.29 325.46 227.37 325.69 227.22 325.51 226.93 324.91 226.68 Z M 301.14 252.7 300.75 252.85 300.82 253.35 301.07 253.93 301.27 254.08 301.41 253.61 301.5 253.37 301.5 253.1 301.14 252.7 Z M 330.8 157.38 330.55 157.07 330.18 157.12 329.54 157.67 329.29 157.79 329.54 157.87 330.07 157.85 330.37 157.79 330.82 157.54 330.8 157.38 Z M 306.78 255.69 307.86 256.08 308.09 256.07 308.34 255.9 308.32 255.76 307.38 255.34 306.78 255.4 306.78 255.69 Z M 188.36 212.33 188.7 212.33 189.06 212.18 189.27 211.98 189.27 211.62 189.38 211.24 189.2 211.06 188.54 211.58 188.7 211.73 188.74 211.95 188.15 212.14 188.36 212.33 Z M 286.84 185.9 286.2 185.52 286 185.72 286.09 186.19 286.34 186.5 286.59 186.64 286.8 186.66 287.02 186.55 287.07 186.37 287.05 186.17 286.84 185.9 Z M 160.78 219.86 161.01 220.08 161.42 220.37 161.86 220.56 162.18 220.58 162.31 220.09 162.16 219.93 161.77 219.8 161.45 219.55 161.24 219.61 161.4 219.93 160.78 219.86 Z M 160.99 216.66 161.31 216.71 161.63 216.42 162.4 216.64 162.56 216.49 161.76 216.13 161.74 215.79 161.01 215.81 160.9 215.92 160.96 216.2 161.12 216.44 160.99 216.66 Z M 198.44 210.75 198.58 210.97 198.94 211.24 199.19 211.31 199.45 211.2 199.56 211.09 199.63 210.79 199.61 210.59 199.33 210.37 198.92 210.35 198.55 210.53 198.44 210.75 Z M 290.99 248.34 290.68 248.3 290.31 248.37 290.12 248.44 289.87 248.92 289.93 249.37 290.05 249.55 290.25 249.43 290.44 249.07 291.1 248.65 291.18 248.44 290.99 248.34 Z M 328.56 146.32 328.86 146.6 329.18 146.6 329.68 146.05 329.73 145.6 329.68 145.37 329.39 145.46 328.56 146.07 328.56 146.32 Z M 92.96 310.54 93.3 310.72 94.85 310.52 95.04 310.43 95.26 310.17 95.08 310.06 94.83 310.05 94.26 310.19 93.32 310.26 93.12 310.34 92.96 310.54 Z M 312.68 240.82 312.86 241.11 313.02 241.2 313.27 241.19 313.52 240.97 313.52 240.39 313.34 240.06 313.11 239.97 312.63 239.92 312.52 240.05 312.75 240.57 312.68 240.82 Z M 302.99 253.77 302.6 254.24 301.98 254.64 301.89 254.82 301.94 254.98 302.17 255.02 303.15 254.62 303.33 254.4 303.45 254 303.26 253.71 302.99 253.77 Z M 360.01 156.59 360.08 156.75 360.4 156.93 361.98 157.06 362 156.86 361.75 156.51 361.52 156.35 361.11 156.32 360.38 156.44 360.01 156.59 Z M 317.48 236.45 316.93 236.37 316.36 236.46 316.2 236.7 316.4 237.26 316.56 237.48 317 237.21 317.41 237.1 317.62 236.86 317.48 236.45 Z M 314 240.86 313.68 241.51 313.68 241.82 313.98 241.89 314.35 241.78 314.71 241.51 314.87 241.19 314.87 240.77 314.67 240.52 314.44 240.46 314.21 240.59 314 240.86 Z M 294.39 189.5 294.78 189.39 295.26 188.74 295.85 188.22 295.9 187.98 295.55 187.91 295.12 188.09 294.43 188.8 294.25 188.89 294.11 189.09 294.09 189.3 294.39 189.5 Z M 358.5 142.84 358.85 143.65 359.03 143.78 359.33 143.63 359.51 143.27 359.62 142.51 359.47 142.2 359.12 142.22 358.78 142.39 358.55 142.67 358.5 142.84 Z M 349.72 146.11 349.79 146.49 350.04 146.8 350.25 147.54 350.45 147.59 350.73 147.45 351.05 147.02 351 146.76 350.52 146.2 350.27 146.02 350.02 146 349.72 146.11 Z M 166.91 216.08 167 216.24 167.48 216.46 167.78 216.51 168.08 216.42 168.4 216.13 168.21 215.86 168.35 215.5 168.17 215.37 167.05 215.39 166.86 215.57 166.98 215.88 166.91 216.08 Z M 351.85 144.74 352.12 144.9 353.11 144.48 353.45 144.18 353.47 143.85 353.43 143.7 353.22 143.54 352.74 143.54 352.19 143.74 352.05 144.28 351.85 144.74 Z M 314.01 249.43 313.35 249.77 313.32 250.04 314.15 250.28 314.65 250.31 315.08 250.1 315.04 249.52 314.74 249.23 314.37 249.03 314.17 249.14 314.01 249.43 Z M 211.43 203.08 211.59 203.33 211.86 203.42 212.16 203.38 212.48 203.19 212.55 202.01 212.29 201.81 212.04 201.77 211.75 201.83 211.56 202.05 211.58 202.41 211.47 202.66 211.43 203.08 Z M 346.65 147.29 346.81 147.52 347.23 147.76 347.59 147.86 348.05 147.74 348.19 147.58 348.1 147.34 347.43 146.69 347.3 146.29 347.11 146.27 346.65 146.58 346.59 146.74 346.65 147.29 Z M 396.83 57.16 396.19 57.34 396.03 57.32 395.78 57.46 395.73 57.61 395.85 57.9 396.6 58.4 396.67 58.02 397.08 58.2 397.59 58.55 397.63 58.39 397.5 58.19 397.5 57.99 397.34 57.68 397.47 57.43 397.31 57.23 396.83 57.16 Z M 304.82 254.8 304.43 254.44 304.15 254.46 304.02 254.62 303.72 255.13 303.74 255.47 303.93 255.81 304.15 256.01 304.47 255.98 304.66 255.6 305.02 255.45 305.32 255.42 305.23 255.22 305.23 254.85 304.82 254.8 Z M 331.32 214.32 331.18 214.61 331.36 214.83 332.39 215.07 332.64 215.01 333.01 214.76 333.24 214.4 333.21 214.22 332.39 213.87 332.12 213.87 331.91 214.05 331.32 214.32 Z M 305.09 257.31 304.45 256.83 304.2 256.46 303.61 255.99 303.45 256.17 303.45 256.34 303.63 256.68 303.61 257.26 303.7 257.6 304.02 257.84 304.27 257.84 304.47 257.75 304.93 257.75 305.11 257.57 305.09 257.31 Z M 304.93 256.61 305.14 256.81 305.82 256.93 306.76 256.93 307.13 256.74 307.17 256.54 306.92 256.36 306.37 256.1 305.91 255.99 305.43 255.98 305.07 256.03 304.93 256.25 304.93 256.61 Z M 388.38 433.45 387.95 433.61 387.86 433.94 387.95 434.44 388.22 434.66 389.11 434.5 390.03 434.43 390.3 434.41 390.1 434.12 388.57 433.54 388.38 433.45 Z M 385.6 433.52 384.8 433.48 384.29 433.59 383.95 433.79 384.22 434.03 384.89 434.33 385.64 434.62 386.08 434.64 386.33 434.48 386.44 434.06 386.21 433.81 385.89 433.56 385.6 433.52 Z M 314.23 238.09 314.41 238.55 314.16 239.11 314.51 239.59 314.67 239.72 315.12 239.78 315.56 239.65 315.65 239.47 315.42 239.25 315.6 239.16 315.65 238.93 315.47 238.51 315.21 238.22 314.78 238.04 314.51 237.97 314.23 238.09 Z M 245.81 186.05 245.61 185.31 245.65 184.95 246.36 184.2 246.29 184.06 245.91 183.91 245.33 183.88 245.08 183.95 244.85 184.24 245.01 184.42 245.08 184.75 244.92 184.93 244.83 185.29 244.88 185.6 245.4 185.96 245.49 186.3 245.84 186.34 245.81 186.05 Z M 281.52 251.24 281.82 251.44 282.14 251.45 283.19 251.11 283.49 251.04 283.67 251.07 284.22 250.66 284.68 250.5 284.88 250.37 285 250.12 284.77 249.92 284.51 249.86 284.04 250.19 283.69 250.3 283.17 250.35 282.05 250.66 281.79 250.84 281.59 251.04 281.52 251.24 Z M 244.69 183.48 244.95 183.57 245.2 183.53 245.72 183.26 245.84 183.05 245.75 182.56 245.45 182.18 245.08 182.05 244.26 182.09 243.98 182.21 243.32 182.9 243.25 183.12 243.37 183.25 243.55 183.28 243.89 182.94 244.1 182.9 244.4 183.08 244.69 183.48 Z M 301.06 240.59 302.14 240.82 302.53 240.82 302.57 240.62 302.41 240.24 302.55 239.96 302.64 239.59 301.93 239.01 301.02 238.87 300.81 238.98 300.63 239.36 300.56 239.58 300.7 239.83 301.06 240.1 301.06 240.59 Z M 187.01 214.41 187.21 214.48 188.2 214.55 188.56 214.32 188.84 214.01 188.88 213.79 188.84 213.5 187.94 212.85 187.99 212.56 187.72 212.42 187.33 212.89 186.87 213.18 186.76 213.43 186.8 213.63 187.01 213.94 187.01 214.41 Z M 275.34 196.99 275.82 196.79 275.82 196.38 276.16 195.82 276.23 195.51 276.12 195.02 275.57 195.09 275.29 195.02 274.86 194.75 274.68 194.71 274.63 195 274.72 195.33 274.77 195.82 274.33 196.23 274.42 196.68 274.63 196.99 275.11 197.39 275.34 196.99 Z M 159.25 218.94 159.36 219.08 159.68 219.08 159.73 218.83 159.71 218.61 159.87 218.38 160.39 218.25 161.1 218.7 161.26 218.45 161.24 218.21 161.88 218.14 162.34 218.38 163.05 218.45 164.37 218.45 164.49 218.3 164.19 218.12 163.91 218.09 163.62 218.14 163.11 217.89 162.86 217.69 162.61 217.85 161.33 217.92 161.06 217.69 159.82 217.69 159.23 217.78 158.77 218.32 159.18 218.58 159.3 218.77 159.25 218.94 Z M 297.88 240.5 298.07 240.9 298.07 241.13 297.77 241.37 297.27 241.37 296.47 241.6 295.99 241.58 295.46 241.8 295.39 241.93 295.46 242.09 295.71 242.2 296.76 242.49 297.56 242.8 297.93 242.7 298.02 242.47 297.56 242.04 298.41 241.85 298.59 241.55 298.66 241.22 298.8 241.11 298.68 240.55 298.57 240.28 298.2 239.97 297.93 239.92 297.88 240.5 Z M 342.56 157.22 342.88 157.47 343.13 157.54 344.09 157.27 344.27 157.13 344.57 156.67 345.1 156.64 344.73 156.1 344.59 155.79 344.37 155.52 343.34 154.83 342.9 155.46 343.08 156.62 342.63 156.96 342.56 157.22 Z M 346.72 150.83 346.24 150.42 345.94 150.56 345.81 150.89 345.78 151.27 346.04 151.59 346.33 151.68 346.08 151.99 346.08 152.24 346.45 152.91 346.58 153.74 346.72 153.94 347.04 154.21 347.41 154.41 347.68 154.41 347.89 154.32 347.89 154.03 347.59 153.64 347.52 153.44 347.75 152.8 347.75 152.62 347.59 152.33 347.16 152.01 346.84 151.63 346.95 151.19 346.72 150.83 Z M 318.26 225.95 318.81 226.26 319.01 226.35 319.42 226.33 319.77 226.17 319.84 225.88 320.38 225.92 320.77 225.72 320.98 225.21 321.21 224.89 321.3 224.6 320.5 223.66 319.93 223.78 319.15 224.35 319.29 224.6 319.04 224.71 319.04 224.91 318.51 225.03 318.21 225.27 318.05 225.5 318.03 225.74 318.26 225.95 Z M 293.45 188.6 293.7 188.58 294.37 188.38 294.66 188.16 294.87 187.93 294.87 187.71 294.53 187.4 294.85 187.1 295.07 187.06 295.35 187.39 295.53 187.42 295.92 187.35 296.15 187.17 296.06 187.02 295.37 186.72 295.51 186.5 295.72 186.34 295.44 185.81 295.71 186.01 295.94 186.07 295.97 185.87 295.81 185.61 295.49 185.47 294.96 185.41 294.71 185.74 294.48 185.87 294.09 185.25 293.82 185.03 293.5 184.98 293.36 185.11 293.43 185.81 293.79 186.19 293.73 186.52 293.5 186.72 293.45 187.22 293.24 187.49 293.2 187.68 293.45 188.6 Z M 355.55 154.32 354.66 154.58 353.51 154.7 353.29 155.03 353.22 155.79 352.92 156.19 353.17 156.26 353.45 156.24 354.29 156.78 354.79 156.93 355.21 156.98 355.6 156.95 356.9 156.5 357.7 156.31 358.89 156.21 359.32 156.08 360.12 156.01 360.35 155.88 360.22 155.68 359.71 155.45 359.55 155.25 359.51 154.87 359.39 154.67 358.93 154.54 358.13 154.4 356.51 154.23 355.55 154.32 Z M 338.37 156.53 338.56 156.71 338.74 156.78 339.13 156.82 339.42 156.78 339.79 156.53 340.11 156.11 340.45 155.93 340.61 156.28 340.91 156.37 341.32 156.69 341.51 156.58 341.48 156.38 341.35 156.11 340.77 155.7 340.73 155.5 340.91 154.94 340.89 154.16 341.19 153.22 341.23 152.73 341.21 152.37 341.1 151.86 340.89 151.48 340.45 151.12 340.16 151.01 339.93 151.03 339.68 151.14 339.43 151.41 338.83 151.86 339.22 152.33 339.17 152.59 338.72 152.91 338.19 153.22 338.1 153.44 338.81 153.49 338.53 153.82 337.73 154.14 337.6 154.27 337.66 154.43 338.12 155.06 338.14 155.97 338.37 156.53 Z M 288.67 244.69 288.67 244.46 289.36 244.35 289.26 244.15 288.94 243.83 288.9 243.32 288.42 243.23 288.4 243.01 288.58 242.69 288.78 242.52 288.92 242.05 289.26 241.89 289.45 241.96 289.45 242.13 289.24 242.23 289.22 242.38 289.54 242.63 290.66 243.25 291.02 243.37 291.6 243.36 292.12 243.3 291.99 243.17 291.69 242.94 290.7 241.78 290.34 241.53 290 241.6 289.72 241.71 289.72 241.37 289.56 241.15 289.26 241.13 288.76 241.2 288.24 241.11 287.39 240.93 287 241 286.57 241.15 285.99 241.26 285.19 241.28 283.25 241.18 283.07 241.28 283.18 241.4 284.14 241.53 284.39 241.69 284.44 241.84 284.55 241.98 284.83 242.2 285.19 242.22 286.57 242.69 286.86 242.99 287.21 243.45 287.73 243.97 287.75 244.3 287.32 244.35 287.14 244.55 287.12 245.11 286.57 245.04 286.22 245.15 286.36 245.36 286.61 245.47 287.07 245.6 287.43 245.56 288.21 245.26 288.6 245.2 288.78 245.06 288.67 244.69 Z M 290.09 258.44 289.89 258.38 289.39 258.38 289.09 258.29 288.61 258.06 288.22 258.02 287.17 258.18 285.57 258.22 284.4 258.38 283.85 258.58 283.72 258.94 283.76 259.3 284.15 259.74 284.79 260.1 286.12 260.93 286.6 261.1 288.38 261.22 290.05 260.3 290.39 259.94 290.48 259.58 290.32 258.64 290.09 258.44 Z M 306.3 239.54 306.64 239.45 306.82 239.12 306.8 238.89 306.6 238.91 306.28 239.14 306.07 239.12 305.89 239.56 306 239.99 305.66 240.17 305.45 240.19 305.11 241.02 304.83 241.48 304.47 241.19 304.08 241.22 303.92 241.31 304.31 241.91 304.22 242.25 304.01 242.45 303.62 242.42 303.42 242.45 302.5 243.27 302.34 243.57 302.32 243.95 302.41 244.37 302.59 244.64 303.07 244.89 303.37 245.15 303.37 245.4 302.8 245.64 302.89 245.93 303.07 246.14 303.83 246.7 304.44 247.08 304.77 247.12 305.54 247.05 305.75 247.1 306.11 246.81 306.11 246.47 305.95 246.11 305.25 245.4 305.18 245.22 305.31 244.8 305.31 244.48 304.93 243.94 304.86 243.57 305.09 243.41 305.47 243.27 305.82 243.36 306.69 244.21 306.94 244.28 307.14 244.26 307.35 244.06 307.53 244.12 307.81 244.37 307.83 244.6 307.58 244.86 307.74 245.02 308.31 245.38 308.56 245.49 308.74 245.27 308.68 244.26 308.9 244.03 308.97 243.88 308.49 243.68 307.76 242.98 307.35 242.83 307.17 243.09 307.19 243.28 307.37 243.5 307.37 243.83 307.05 243.86 306.8 243.75 306.66 243.37 306.73 242.61 306.48 242.33 306.27 242.11 306.59 241.98 306.62 241.44 306.78 240.99 306.8 240.75 306.3 239.54 Z M 315.1 241.39 314.8 241.93 314.71 242.56 314.57 242.83 314.41 243.01 314.16 243.09 313.87 243.01 313.66 242.8 313.93 242.51 313.84 242.29 313.71 242.18 313.18 242.02 312.86 241.84 312.54 241.78 312.29 241.89 312.24 242.15 312.4 242.34 312.91 242.27 313.13 242.38 313.34 242.9 313.11 243.14 312.54 243.25 312.65 243.52 313.11 243.76 313.09 244.01 313.25 244.17 313.77 244.26 313.71 244.48 312.9 245 312.74 245.18 312.58 245.67 313.34 246.98 313.41 247.34 313.34 248.08 313.52 248.22 314.28 247.92 314.92 248.08 315.35 248.01 315.58 247.84 315.74 247.54 315.69 247.14 315.6 246.94 316.04 246.5 315.63 246.4 315.49 245.73 315.74 245.4 316.72 244.68 316.91 244.44 317.11 243.99 317.13 242.92 317.27 242.49 317.23 242.16 317.09 241.77 317.32 241.53 317.16 241.33 316.7 241.22 316.22 240.68 315.85 240.75 315.1 241.39 Z M 377.31 143.37 376.92 143.71 376.5 143.84 376.25 143.84 376.09 143.56 375.93 143.47 375.57 143.42 375.29 143.44 375 143.62 374.88 143.96 374.95 144.29 375.29 145.12 375.13 145.26 374.74 145.08 374.56 144.74 374.45 144.27 374.13 143.87 373.67 143.58 373.44 143.58 373.23 143.67 373.05 143.96 372.98 144.29 372.68 144.56 372.55 144.79 372.62 144.99 372.96 145.3 373.1 145.54 372.96 145.79 372.89 146.08 373.07 146.55 373.39 147.02 373.76 147.4 374.24 147.71 376.91 148.34 377.12 148.3 377.28 148.14 377.28 147.98 377.53 147.85 378.13 147.89 378.42 147.76 378.52 147.56 378.49 147.09 378.17 146.41 377.63 145.5 377.81 145.1 378.08 145.03 378.91 145.23 379.09 145.19 378.56 144.51 378.17 143.84 377.51 143.29 377.31 143.37 Z M 329.36 153.78 328.61 153.71 327.62 153.72 326.89 153.67 326.25 153.52 325.75 153.32 325.47 153.09 325.36 152.64 325.43 151.99 325.68 151.26 326.48 150.27 327.12 149.73 327.44 149.22 327.76 148.55 327.81 148.24 328.26 147.59 328.29 147.12 328.15 146.63 328.08 146.14 327.92 146 327.69 146.04 327.1 146.51 326.73 147.16 326.18 147.68 325.09 148.53 324.54 148.8 324.4 148.93 323.05 149.4 322.23 149.74 322.11 149.89 321.63 150.16 321.38 150.23 320.78 150.57 320.49 150.88 320.14 151.39 319.98 153.13 320.19 153.94 320.1 155.19 320.14 155.39 320.42 155.71 321.42 155.5 322.11 155.28 322.55 155.28 323.35 155.37 323.67 155.35 324.54 155.06 325.72 154.99 326.89 155.64 327.17 155.75 328.15 156.45 328.67 156.65 329.06 156.64 329.66 156.36 330.14 156.69 330.28 156.55 330.18 156.27 330.21 156.09 330.46 155.82 330.53 155.51 330.51 155.26 330.12 154.3 329.77 153.96 329.36 153.78 Z M 365.94 148.48 365.84 148.16 365.5 147.83 365.2 147.71 364.86 147.67 364.63 147.74 363.88 148.19 363.37 148.36 362.85 148.32 362.44 148.14 362.35 147.89 362.46 147.51 362.71 147.27 363.69 146.87 363.92 146.6 364.02 145.32 363.88 145.06 363.44 144.88 362.32 145.28 361.84 145.59 360.95 145.43 360.45 145.1 359.97 144.97 358.82 145.06 358.85 145.32 359.35 145.66 359.76 146.69 359.55 147.05 359.3 147.23 359.01 147.32 358.89 147.45 358.43 148.57 358.18 148.84 357.98 148.86 357.52 148.59 356.95 148.68 356.51 148.64 356.17 148.5 355.71 148.14 355.32 147.68 354.96 147.11 354.61 146.76 354.34 146.64 354 146.65 353.7 146.78 353.27 146.62 353.06 146.91 353.1 147.18 353.77 147.9 353.95 148.44 354.16 148.75 354.64 149.17 354.75 149.35 354.73 149.51 354.57 149.6 354.29 149.53 353.97 149.49 353.7 149.96 353.45 150.58 353.35 152.37 353.49 152.86 353.79 153.29 354.04 153.33 355.62 152.97 358.52 151.52 360.33 150.76 360.9 150.71 363.49 150.74 364.65 150.51 365.07 150.26 365.68 149.7 365.89 149.35 365.98 148.9 365.94 148.48 Z M 331.06 145.29 330.71 146.14 330.67 146.81 330.92 147.61 331.9 148.33 332.52 148.98 332.91 149.55 333.5 149.83 334.53 150.07 335.4 150.09 336.27 149.98 337.14 150.12 338.33 148.24 339.24 147.68 339.66 147.3 340.39 146.96 340.59 146.76 341.51 144.68 341.97 144.28 342.01 143.81 341.72 143.16 341.3 142.67 340.75 142.36 340.21 142.17 338.17 141.53 334.67 140.55 334.01 140.54 333.41 140.68 333.18 140.81 333.25 140.97 333.62 141.12 333.96 141.39 334.1 141.68 334.03 142 332.66 143.3 331.81 144.28 331.06 145.29 Z M 298.6 259.5 298.85 259.16 299.33 258.69 299.67 258.24 299.65 258.04 299.26 257.59 299.15 256.81 298.96 256.68 298.26 256.45 298.12 256.3 298.05 255.79 297.75 255.38 297.75 254.93 298 254.24 298.26 253.39 298.46 253.05 298.92 252.79 299.1 252.74 299.47 252.77 299.86 252.1 299.83 251.45 300.27 250.55 300.2 250.3 299.97 250.04 299.26 249.43 298.8 249.19 298.46 249.14 298.26 249.17 297.48 249.77 296.95 249.92 296.43 249.86 295.7 249.68 295.56 249.39 296.08 249.01 296.08 248.74 296.34 248.49 296.43 248.47 296.54 248.43 296.72 248.43 296.84 248.49 296.98 248.43 297.08 248.37 297.27 247.7 297.43 247.57 298.02 247.3 298.25 247.06 298.27 246.85 298.71 245.38 298.59 245.09 297.79 244.37 297.22 244.39 296.03 244.57 295.6 244.78 295.37 245.11 295.32 245.49 295 245.89 294.36 246.3 294.43 246.54 294.64 246.85 294.71 247.15 294.5 247.77 294.48 248 294.77 248.28 295.28 248.44 295.4 248.65 295.31 248.88 294.6 249.64 294.39 250.19 294 250.51 292.04 251.54 291.83 251.53 291.21 251.63 290.87 251.8 290.78 252 290.89 252.3 290.8 252.48 290.28 252.39 289.93 252.54 289.82 252.81 289.96 253.05 289.89 253.68 290.3 254.26 290.89 254.55 291.28 254.84 291.99 254.75 292.45 254.76 293.41 255.38 293 256.03 293.43 256.5 293.98 256.9 294.28 257.33 294.3 257.84 294.28 258.24 294.03 258.82 294.07 259.01 294.3 259.14 294.58 259.16 294.76 259.43 294.6 259.96 294.58 260.25 294.78 260.39 295.22 260.52 295.4 260.64 295.76 261.4 295.97 261.6 296.29 261.62 296.7 261.46 297.18 261.38 297.46 261.4 298.9 261.69 299.12 261.48 298.42 260.81 298.32 260.64 298.28 260.3 298.49 260.19 298.62 260.01 298.6 259.5 Z M 336.56 163.85 336.52 163.69 335.97 163.57 335.99 163.78 336.13 163.98 336.4 164.13 336.56 163.85 Z M 336.56 163.85 335.63 165.74 334.82 164.16 327.96 166.53 325.79 162.62 321.33 161.34 318.46 159.11 314.63 157.2 311.76 160.07 309.21 163.9 307.62 168.36 307.94 171.55 309.53 173.78 309.85 176.01 312.53 180.16 314.32 184.62 314 189.08 316.23 190.36 317.5 192.27 316.23 193.86 313.36 195.14 314.32 198.33 318.14 198.33 322.29 196.73 324.84 199.28 327.07 200.88 329.94 199.92 330.89 196.73 332.81 191.95 333.13 189.4 331.85 188.12 329.94 187.17 332.16 184.51 334.4 182.07 337.27 182.07 337.91 184.94 342.05 185.26 347.79 183.98 350.98 181.75 353.53 178.56 353.53 176.65 351.94 174.42 349.71 171.87 347.16 169.31 344.29 168.36 340.46 165.17 336.56 163.85 Z M 245.77 169.95 248.63 171.23 251.82 168.68 255.65 165.17 256.29 166.76 259.48 165.81 262.34 164.53 263.94 162.62 266.49 162.62 268.72 163.58 271.59 163.26 272.55 165.49 274.46 166.13 276.69 164.21 281.16 163.26 284.98 161.03 291.04 161.98 297.1 150.19 304.11 136.16 294.55 130.74 292 129.14 286.26 131.38 281.79 131.38 274.46 131.38 270.63 131.38 267.45 133.93 264.9 138.07 262.03 141.58 261.39 146.04 259.79 150.51 256.29 153.69 252.14 157.84 251.5 159.75 249.59 165.49 246.72 167.08 245.77 169.95 Z M 376.58 196.31 377.12 196.89 377.22 197.07 377.03 197.35 376.76 197.45 376.39 197.53 375.39 197.24 374.54 197.2 374.27 197.24 374.04 197.35 373.85 197.62 373.76 198.11 373.92 198.23 374.33 198.76 374.2 200.29 373.01 201.6 371.52 202.21 369.99 202.52 368.62 203.1 367.79 203.37 366.67 203.31 365.39 203.73 364.2 203.89 362.67 204.22 360.57 204.33 360.13 204.67 359.9 205.41 359.63 205.72 359.12 205.93 358.37 206.01 357.8 206.21 357.07 206.55 355.53 207.02 354.69 207.73 353.84 208.68 353.2 209.12 351.94 209.77 351.07 210.47 348.58 211.65 347.55 211.9 345.84 212.17 345.22 212.39 344.05 212.95 342.75 213.33 342.2 214.04 341.81 214.27 341.17 214.54 340.69 214.52 340.46 214.36 339.96 214.2 338.88 214.43 338.61 214.61 338.86 215.37 338.7 216.8 338.47 217.26 337.15 218.5 336.8 218.74 336.32 219.63 335.84 220.24 335.55 220.4 334.33 220.75 333.76 221.02 333.46 221.25 333.3 221.52 333.01 221.8 332.66 221.9 332.14 221.81 332.25 222.27 332.25 222.77 332.09 223.13 331.06 224.26 330.1 224.65 329.39 225.09 329.19 225.52 329.12 225.83 329.14 226.05 329 226.21 328.8 226.14 328.5 225.79 327.82 225.7 327.22 225.74 327.04 225.85 327.2 225.99 327.68 226.06 328.11 226.25 328.2 226.44 327.4 226.5 326.88 226.61 326.05 227.17 325.96 227.44 326.03 227.73 326.15 227.86 326.56 228.05 326.85 228.34 327.01 228.87 327.4 229.23 327.38 229.43 327.13 229.7 327.36 229.83 327.52 230.01 327.22 230.19 326.51 230.32 326.58 230.51 327.22 230.64 327.47 230.8 327.65 231.04 327.79 231.44 327.91 232.23 327.88 232.65 327.59 234.28 327.43 234.66 327.06 235.04 326.51 235.42 325.76 236.59 324.89 237.42 323.72 238.18 323.56 238.44 323.54 238.94 323.61 239.16 323.4 239.52 323.06 239.56 322.23 239.27 321.96 239.27 321.78 239.45 322.01 239.72 322.65 239.74 322.85 239.94 322.9 240.14 322.85 240.79 322.67 241.19 322.07 241.42 321.78 241.62 321.64 241.8 320.84 242.16 320.56 243.05 320.45 243.68 319.35 246.41 318.76 247.48 318.53 247.75 318.46 248.1 318.51 248.44 318.4 248.96 318.06 249.41 317.99 249.75 317.83 250.08 317.6 250.31 317.05 250.28 316.75 250.33 315.68 250.97 315.65 251.22 316.13 251.63 316.11 251.91 315.91 252.16 315.91 252.68 315.61 252.77 315.43 252.92 315.31 253.26 315.01 253.24 314.81 253.43 314.72 253.77 314.47 254.11 314.15 254.13 313.69 253.95 313.46 253.91 313.48 254.17 313.69 254.71 313.94 254.84 314.37 254.53 314.65 254.62 314.83 254.85 314.81 255.23 314.9 255.42 315.45 255.69 315.2 255.92 314.97 256.1 314.6 256.18 314.19 256.16 313.85 256.32 313.67 256.5 313.62 256.7 313.87 257.48 313.62 257.66 313.25 257.77 312.87 257.71 312.39 257.31 312.18 257.31 311.93 257.4 311.79 257.53 311.93 257.86 311.93 258.16 311.7 258.22 311.29 258.16 310.69 258.29 310.1 258.24 309.41 258.82 309.21 258.82 308.77 258.16 308.54 258 308 258.09 307.7 258.29 307.17 259 307.04 259.16 306.83 259.25 306.6 259.47 306.56 259.65 306.35 260.24 305.85 260.64 305.73 260.81 306.03 262.52 305.89 263.05 305.96 263.21 306.23 263.59 306.53 263.77 306.92 263.9 308.89 263.99 308.77 264.12 308.36 264.22 308.22 264.33 308.34 264.55 309.02 264.37 310.69 264.57 311.22 264.5 311.79 264.5 312.16 264.59 312.89 264.97 313.62 265.11 314.44 265.36 315.45 266.36 315.54 266.72 315.49 267.48 315.33 267.88 315.08 268.13 315.26 268.39 315.49 268.48 316.2 268.73 316.89 269.11 317.09 269.42 317.28 270.14 317.35 270.45 317.62 270.72 317.78 270.95 317.83 271.55 317.82 271.9 317.55 272.18 317.23 272.29 316.84 272.27 316.52 272.46 315.84 273.52 315.97 274.14 316.25 274.41 316.84 274.75 317.3 275.64 319.27 276.53 319.56 277 319.49 277.99 319.47 278.84 319.36 278.99 318.14 279.87 316.77 279.85 316.38 280.33 316.34 280.51 316.54 280.69 316.96 280.85 317.41 281.25 317.66 281.3 318.58 281.23 320.16 281.14 320.64 281.14 321.12 281.34 321.46 281.66 322.17 282.79 322.42 283.09 323.27 283.74 323.56 284.21 323.54 284.65 323.7 284.96 324.43 285.44 325.25 286.2 325.76 286.49 326.78 286.87 327.61 287.31 328.11 287.8 328.45 288.23 328.61 288.79 328.57 289.99 328.18 290.96 328.18 292.07 328.13 293.6 327.81 294.51 327.93 294.96 327.81 295.18 326.85 296.35 325.94 296.95 325.78 297.15 325.8 297.42 325.89 297.76 325.82 298.38 326.6 299.23 326.67 299.41 326.65 299.99 326.88 300.24 328.91 300.84 329.48 301.29 330.6 301.33 330.6 301.71 330.85 301.74 331.36 301.44 331.81 301.44 332.06 301.53 332.66 301.83 333.21 302.21 333.34 302.49 333.5 303.14 333.64 303.41 333.89 303.63 334.72 304.06 335.29 304.17 335.56 304.13 336.48 303.7 337.96 303.37 338.53 302.99 339.04 302.78 339.56 302.63 339.95 302.67 340.27 302.87 340.57 303.3 340.52 303.63 340.18 303.95 340.04 304.26 339.77 304.64 340.13 305.25 340.38 305.24 340.61 305.04 340.79 305.11 340.84 305.33 340.73 305.82 340.57 306.18 339.45 307.28 339.35 307.53 339.29 307.99 339.49 308.2 339.72 308.26 342.53 308.66 343.9 309.38 344.36 309.36 344.95 309.09 345.5 308.98 346.01 309 346.67 308.96 347.08 308.55 347.19 308.44 347.51 308.19 347.72 308.17 347.95 308.33 348.2 309.05 348.38 309.2 348.75 309.2 349.14 308.84 349.41 308.51 349.53 308.22 349.59 307.91 349.89 306.92 350.26 306.56 350.99 306.12 352.38 305.71 353.48 304.93 353.87 304.86 354.42 304.91 355.22 305.13 355.72 305.42 356 305.73 356.06 306.36 356.57 307.25 356.61 308.06 357.11 308.95 357.14 309.67 357.5 310.36 357.53 310.63 357.41 310.99 357.75 311.24 358.33 311.48 358.74 311.55 360.09 311.59 361.53 311.48 361.85 311.59 362.05 311.77 362.65 312.31 362.85 312.37 363.61 312.35 363.86 312.44 364.2 312.67 364.18 313.04 363.88 313.76 363.92 314.52 364.2 314.56 364.36 314.48 365.5 313.8 366.05 313.63 366.94 313 367.65 312.73 368.04 312.53 368.7 311.79 369.82 311.28 370.35 310.88 370.74 310.67 371.17 310.27 371.51 309.73 372.27 308.84 373.62 307.92 374.19 307.56 374.67 307.43 375.52 307.32 376.38 307.32 376.93 307.49 378.12 308.15 378.4 308.1 379.15 307.81 379.45 307.79 379.77 307.68 380.16 307.36 380.22 307.18 380.5 306.69 380.66 306.55 381.02 306.45 381.85 306.56 382.46 306.55 382.92 306.62 383.2 306.58 383.86 306.26 384.16 306.27 384.52 306.47 384.93 306.93 385.16 306.85 385.34 306.73 385.57 306.42 386.01 305.99 385.94 305.77 386.01 305.39 386.21 305.1 386.47 304.97 386.99 304.81 387.15 304.63 387.24 304.32 387.45 304.05 387.72 303.87 387.95 303.42 388.13 303.2 388.39 303.2 389.28 303.29 389.73 303.24 390.28 302.98 391.34 302.12 391.61 302.06 392.94 301.97 394.1 302.06 394.65 301.88 396.04 300.98 397.16 299.82 397.85 299.55 399.11 298.52 399.57 298.35 401.05 298.07 401.23 297.9 401.51 297.52 401.69 297.41 402.19 297.23 402.4 296.94 402.49 296.56 403.06 295.79 403.13 295.48 403.09 295.17 403.18 294.3 403.09 293.6 403.22 293.34 404.32 292.5 404.46 292.3 404.41 292.06 404.55 291.83 405.19 291.19 405.4 290.85 405.4 290.49 405.63 289.71 405.28 287.61 405.35 286.94 405.26 286.49 405.26 286.02 405.54 284.41 405.56 284.07 405.45 282.47 405.33 281.61 405.04 280.79 404.42 279.47 403.6 278.42 403.57 278.02 403.89 277.14 404.54 276.54 404.58 276.03 405.18 275.35 405.2 274.88 405.13 273.81 405.45 272.38 405.93 271.67 406.69 270.77 408.59 269.02 409.61 268.42 410.53 268.15 410.96 268.24 411.44 268.46 412.13 269.43 412.31 270.54 412.49 270.68 412.79 270.79 413.36 270.83 413.75 270.74 413.96 270.55 414.16 270.32 414.41 269.51 414.64 269.34 415.1 269.32 415.37 269.22 415.26 269.04 415.49 268.75 415.67 268.64 415.97 268.57 416.75 268.53 418.53 267.97 418.9 267.82 419.01 267.68 419.54 267.55 420.13 267.54 420.7 267.41 421.85 267.01 422.3 266.96 423.38 266.72 423.88 266.65 424.34 266.81 424.89 266.85 425.16 266.76 425.78 266.36 426.83 265.58 427.06 265.29 427.17 264.86 427.33 263.77 427.49 263.49 427.93 263.07 428.02 262.87 428.36 262.56 428.07 261.82 427.77 259.83 427.31 258 426.95 257.57 426.33 257.1 426.13 256.81 426.15 256.48 426.4 254.91 426.38 254.06 425.62 252.99 425.4 252.5 425.47 251.6 425.24 250.84 425.12 250.44 425.03 249.57 424.8 249.39 424.3 249.1 424 248.85 423.75 248.43 423.15 247.38 422.4 246.71 421.71 245.24 421.87 243.96 421.78 243.45 421.6 242.93 420.91 241.84 420.82 241.03 420.71 240.67 420.5 240.47 420.23 240.3 419.68 239.29 419.04 238.51 418.77 237.9 418.65 237.03 418.52 236.22 418.61 235.37 418.86 234.26 418.72 233.61 418.63 233.32 418.54 232.51 418.68 231.98 418.93 231.64 419.41 231.46 419.32 231.3 418.79 231.17 418.59 230.99 418.5 230.81 418.59 230.19 418.54 230.03 418.38 229.92 417.86 229.9 417.45 229.74 417.08 229.38 416.46 228.51 416.21 228.04 416.08 227.5 416.08 226.75 416.17 226.34 416.76 225.22 418.02 224.17 418.43 223.59 418.94 222.76 419.03 222.16 419.01 221.8 418.82 221.33 418.87 220.97 419.14 220.51 419.78 220.15 420.56 219.99 421.75 219.41 422.32 219.21 422.51 219.03 422.51 218.27 422.46 217.86 422.16 217.1 422.14 216.7 422.28 215.76 422.21 214.94 422.3 214.24 422.58 213.57 423.65 212.07 423.84 211.56 424.2 209.55 424.32 208.02 424.2 207.6 424.04 207.38 423.63 207.06 422.47 206.77 422.03 206.57 421.51 206.48 421.35 206.51 420.61 206.51 419.36 206.22 416.7 205.32 415.97 204.9 415.49 204.47 415.2 203.81 415.01 203.62 414.6 203.42 414.17 203.63 413.57 204.27 413.18 204.57 412.75 204.66 407.01 204.37 406 204.41 405.04 204.34 404.33 204.34 403.99 204.46 403.21 205.06 402.8 205.24 401.77 205.4 401.06 205.48 397.66 204.99 394.55 203.97 394.11 203.79 393.4 203.32 393.06 202.96 392.67 202.34 392.56 201.73 392.65 201.26 393.2 200.62 394.71 199.54 394.96 199.21 395.03 198.96 395.01 198.16 394.87 197.69 394.23 196.92 393.73 196.45 392.97 195.94 392.58 195.72 392.04 195.56 391.35 195.79 391.07 195.78 390.39 195.49 390.14 195.47 389.45 195.99 388.88 196.34 388.35 196.48 387.83 196.34 387.03 196.34 386.8 196.39 386.32 196.68 385.88 196.68 384.49 196.52 383.05 196.26 382.38 195.99 381.22 195.77 380.42 195.43 378.13 195.39 377.35 195.48 376.99 195.7 376.64 196.08 376.58 196.31 Z" fill-rule="evenodd"/>
</g>
</svg>