<?xml version="1.0"?>
<svg xmlns="http://www.w3.org/2000/svg" version="1.2" baseProfile="tiny" width="800" height="755" viewBox="0 0 800 755" stroke-linecap="round" stroke-linejoin="round">
<g id="cliftoncourtforebay">
<path d="M 749.63 568.45 748.28 568.43 746.77 569.55 743.53 572.45 742.73 573.64 742.85 574.63 742.72 575.74 742.03 576.27 741 576.25 740.03 576.36 739.64 577.22 740.07 577.83 740.54 578.49 736.92 583.61 734.6 585.9 731.7 588.63 728.38 591.08 725.6 593.15 722.39 595.34 716.81 598.21 712.75 600.12 710.13 601.05 706.62 602.27 702.91 603.37 685.62 606.93 666.03 610.61 641.63 615.37 624.9 618.52 601.7 623.05 589.16 625.38 574.69 627.77 570.36 628.1 526.75 627.9 523.18 627.87 496.78 627.6 449.97 627.12 441.79 627.08 437.25 626.95 432.9 627.06 424.72 627 424.06 625.88 423.27 625.54 422.52 625.95 422.05 626.98 404.57 626.66 385.71 626.54 378.25 626.65 374.02 627.14 370.83 627.83 367.58 628.71 364.68 629.99 361.1 632.06 356.11 635.93 344.24 647.45 333.01 658.63 314.21 677.14 308.35 682.76 301.22 688.95 274.23 712.62 264.34 721.16 256.26 727.97 250.99 731.56 247.95 733.44 244.38 735.21 241.5 736.52 238.79 737.7 234.46 739.48 230.29 741.12 224.8 743.27 220.63 744.88 217.76 745.99 215.52 746.87 213.28 747.77 211.99 748.27 209.29 749.24 205.31 750.67 202.73 751.47 199.82 752.18 196.63 752.93 194.85 753.04 192.59 753.36 189.93 753.63 186.87 753.8 185.56 753.63 185.04 753.04 184.19 752.78 183.17 752.85 182.47 753.53 181.2 754 175.6 753.99 169.73 753.71 163.07 752.95 155.11 751.77 149.32 750.37 144.48 748.99 140.13 747.67 136.36 745.93 134.44 745.04 131.95 743.89 129.16 742.21 127 740.8 122 737.48 111.89 730.46 90.36 713.87 73.08 700.55 52.35 684.56 27.86 666.01 14.63 655.55 12.36 652.98 10.78 650.71 9.79 648.54 8.71 645.88 8.41 642.22 8.71 638.93 9.2 636.1 10.19 631.56 10.68 627.91 10.78 626.04 10.58 622.78 10.14 620.93 9.56 620.05 9.04 618.6 8.41 617.59 7.62 616.33 5.75 613.73 4.82 612.56 4.12 611.04 4.22 609.68 4.6 607.59 5.8 600.98 6.33 597.95 6.51 594.92 6.5 591.12 6.36 587.38 6.2 584.96 5.97 583.9 5.47 581.91 5.49 576.69 5.75 571.94 5.73 565.83 5.51 558.37 5.4 551.84 4.97 545.67 5.06 543.94 5.42 541.96 5.94 540.6 6.61 539.6 7.01 538.9 7.55 537.94 8.3 536.59 8.46 535.7 8.46 534.85 8.43 534.34 8.18 533.26 6.47 531.96 5.35 531.22 3.49 530.58 2.38 530.42 1 530.55 1.26 514.43 1.75 497.42 2.94 497.41 4.26 497.1 5.37 496.84 7.38 495.55 8.44 494.26 8.83 491.82 8.18 490.14 7.83 489.31 6.8 487.61 5.79 485.77 5.85 483.85 5.99 479.16 6.2 472.44 5.84 453.58 6.13 433.46 6.14 430.38 5.75 421.79 6.31 420.49 6.98 419.49 8.52 417.92 9.9 416.93 10.84 416.72 16.58 416.69 22.1 416.68 27.53 416.82 32.95 416.42 36.8 415.7 41.15 414.19 45.07 411.78 48.32 408.99 51.55 405.36 53.21 402.09 53.95 399.64 53.84 394.52 52.92 390.23 50.15 382.36 45.13 368.06 43.53 362.19 42.9 359.08 42.29 354.94 42.24 349.42 42.92 343.31 43.86 338.59 45.39 332.57 48.54 324.84 53.14 313.43 57.17 301.33 59.45 295.05 62.49 286.81 65.44 277.9 66.21 274.89 66.93 271.19 67.48 267.69 67.22 258.35 66.19 249.55 64.06 232.07 63.93 229.39 64.22 226.97 65.41 223.08 67 220.42 68.54 218.41 70.71 216.39 72.89 214.82 75.86 213.07 79.63 211.52 82.47 210.8 85.54 210.31 89.29 210.24 93.23 210.55 97.1 211.33 99.35 212.2 103.28 213.96 106.09 215.35 109.8 216.78 113.72 218.01 117.16 218.82 120.37 219.34 126.04 219.9 138.87 219.54 153.66 218.99 156.75 218.96 160.35 218.58 167.95 218.19 174.27 217.79 179.9 216.81 184.93 215.52 188.59 214.44 192.64 212.86 199.05 209.4 206.75 204.57 215.84 197.56 222.85 192.43 224.71 190.37 228.45 185.58 229.88 183.08 230.46 181.94 231.03 180.79 231.32 179.66 231.54 178.41 231.83 175.85 231.89 171.68 231.03 166.67 230.45 165.07 229.88 163.71 229.31 162.57 228.44 161.2 226.3 158.38 223.44 155.12 218.21 151.47 213.2 148.44 209.46 146.62 206.88 145.03 202.85 141.84 199.25 138.74 196.39 135.48 194.71 132.82 189.77 124.53 185.13 117.22 183.55 113.87 182.27 110.32 181.58 107.45 181.58 103.9 182.27 101.14 183.06 98.97 184.59 96.27 186.6 94.11 190.14 91.84 197.09 87.32 202.89 83.85 206.83 80.51 210.04 77.21 212.75 73.25 215.42 65.85 216.33 60.71 216.7 56.85 217.55 48.25 218.32 43.73 219.4 37.22 220.53 27.83 221.77 17.73 222.95 12.99 226.35 9.01 228.45 6.28 233.24 3.63 237.35 2.13 241.37 1.18 245.22 1.03 248.55 1 256.46 1.81 269.31 2.99 282.44 4.28 283.24 4.74 284.21 5.48 285.1 5.57 286.49 4.78 287.72 4.68 299.01 6.1 312.51 7.35 328.9 9.05 343.33 10.41 351.93 11.21 371.4 13 387.78 14.51 403.5 16.21 411.13 17.03 421.99 18.09 429.17 18.76 439.1 19.74 454.19 21.27 465.52 22.25 472.93 23.01 479.72 23.45 494.03 25.01 504.17 25.95 508.78 26.3 512.86 26.85 516.04 27.45 519.83 28.65 524.35 30.71 527.54 32.31 530 33.52 531.74 34.83 534.63 37.33 536.07 38.85 537.14 40.37 538.78 42.35 542.71 49.63 547.78 60.53 551.59 69.62 553.82 73.94 555.77 78.45 558.11 84.01 561.3 90.38 562.64 92.81 563.37 94.52 564.47 96.39 566.41 98.88 569.21 102.6 573.63 107.27 578.12 111.67 580.85 114.22 586.19 117.78 592.63 121.74 599.98 126.4 610.21 133 616.42 137.38 621.7 140.87 627.19 144.47 631.04 147.78 633.63 150.32 638.8 155.7 643.53 161.16 645.92 164.53 649.57 171.21 655.03 183.42 659.39 194.27 666.38 212.38 668.68 218.17 674.14 232.05 682.13 251.65 686.89 263.76 692.28 277.63 698.11 292.63 707.29 315.14 717.26 339.41 727.74 366.7 739.97 398.23 749.4 422.53 757.03 441.42 764.43 460.09 765.24 462.17 765.82 462.63 765.82 463.54 766.39 464 766.39 464.91 766.96 465.36 766.96 466.05 768.11 469.01 768.4 469.24 768.4 470.15 768.98 470.6 768.97 471.51 769.55 471.97 769.55 472.88 770.13 473.34 770.41 475.16 770.99 475.62 770.99 476.76 771.56 477.21 771.56 478.12 772.14 478.58 772.42 480.63 773 481.08 773 481.99 773.58 482.45 773.57 483.13 774.15 483.59 774.15 484.27 774.72 485.41 774.72 486.1 775.01 486.32 775.01 487.24 775.58 487.69 775.58 488.38 776.16 488.83 776.16 489.97 776.73 490.43 776.73 491.11 777.31 491.56 777.31 492.7 777.6 492.93 777.6 493.62 778.17 494.07 778.17 494.98 778.75 495.44 778.75 496.12 779.32 497.26 779.32 497.72 779.61 497.95 779.61 498.85 780.18 499.31 780.18 500.22 780.75 500.68 780.76 501.59 781.33 502.05 781.33 503.18 781.9 503.64 782.19 505.46 782.77 505.92 782.77 506.83 783.34 507.29 783.34 507.97 783.92 509.11 783.92 509.8 784.49 510.25 785.06 512.3 785.35 512.53 785.35 513.44 785.93 513.89 785.93 514.81 786.5 515.26 786.79 517.08 787.37 517.77 787.36 518.68 787.94 519.14 787.94 520.05 788.66 520.5 788.66 521.19 789.09 522.78 789.52 523.01 789.52 523.69 789.95 524.15 790.67 526.43 791.24 526.88 791.24 527.57 791.82 528.7 791.82 529.16 792.11 529.39 792.1 530.3 792.68 530.75 792.68 531.67 793.26 532.12 793.25 533.03 793.83 533.49 793.83 534.63 794.12 534.86 794.11 535.54 794.69 536 794.69 536.91 795.26 537.36 795.27 538.27 795.84 538.73 796.7 541.92 797.28 542.38 797.28 543.52 797.85 543.97 797.85 544.66 798.43 545.11 798.42 546.02 798.71 547.16 799 547.39 798.71 547.62 799 547.85 798.42 549.21 797.27 550.35 796.41 550.81 794.4 551.26 794.11 551.49 788.94 552.17 788.65 552.4 786.35 552.63 785.21 552.86 784.92 553.08 782.62 553.31 782.33 553.54 780.03 553.77 779.75 554 777.44 554.22 777.16 554.45 774.86 554.68 774.57 554.91 768.25 555.82 765.78 555.46 761.96 556.04 759.23 556.91 757.87 557.66 753.22 562.62 753.03 563.48 751.68 565.77 749.63 568.45 Z"/>
</g>
</svg>