<?xml version="1.0"?>
<svg xmlns="http://www.w3.org/2000/svg" version="1.2" baseProfile="tiny" width="800" height="490" viewBox="0 0 800 490" stroke-linecap="round" stroke-linejoin="round">
<g id="unionvalleyreservoir">
<path d="M 78.42 291.82 85.49 294.65 93.86 298.04 98.44 299.81 101.79 300.41 109.58 298.6 120.91 297.98 133.47 299.51 145.59 300.19 150.47 298.9 153.16 296.75 155.38 292.73 157.56 288.78 158.79 281.95 157.74 279.66 153.6 276.99 143.5 271.57 135.65 267.78 134.13 267.05 126.04 263.49 112.4 261.8 109.87 261.29 103.02 257.96 94.16 254.12 85.35 248.08 83.12 246.82 77.7 246.72 75.3 247.2 72.68 249.14 70.92 249.37 69.43 248.85 67.41 245.69 65.66 244.63 56.42 243.22 53.46 242.83 49.78 243.11 42.75 244.71 40.91 244.86 39.36 244.19 38.27 242.83 37.44 241.02 39.23 235.66 41.2 230.7 41.29 228.56 39.4 226.52 35.86 224.61 35.59 223.02 36.67 221.14 37.52 220.48 42.94 217.61 47.99 212.86 52.46 208.01 57.17 205.2 57.87 203.49 57.87 198.47 56.65 190.96 54.48 185.71 50.88 180.97 50.61 178.34 51.53 175.33 53.03 173.01 57.72 170.81 58.67 170.3 66.39 169 73.46 167.48 80.82 164.82 88.54 162.85 96.91 161.66 104.78 160.36 110.02 160.55 111.77 161.83 113.15 165.33 118.49 169.96 123.68 173.63 128.24 174.16 130.9 173.92 136.6 170.25 139.6 170.18 141.22 171.49 142.95 176.85 142.37 181.48 140.5 185.77 140.71 191.3 143.09 196.66 146.99 199.94 146.39 202.21 144.1 203.83 138.18 202.76 132.65 204 130.25 205.07 128.68 206.94 127.72 210.15 127.06 212.47 127.07 215.29 129.36 216.34 133.35 218.11 137.17 220.5 140.06 220.88 142.48 220.13 143.81 218.51 143.74 214.33 146.04 209.42 148.79 204.46 152.55 199.88 153.85 192.77 157.24 187.97 158.9 182.84 162.65 180.13 165.25 177.7 166.26 173.86 168.22 173.04 170.52 173.63 175.35 176.57 178 178.68 180.33 179.51 187.11 180.13 192.74 180.81 198.8 183.07 204.57 187.86 211.21 192.66 220.01 196.84 227.01 198.37 231.12 197.23 233.07 196 234.08 190.52 234.09 183.86 235.57 181.23 237.77 176.65 237.48 174.26 234.23 168.56 229.69 164.78 223.19 162.13 218.07 156.82 213.89 153.94 211.98 151.86 210.43 150.38 211.07 148.81 212.45 147.39 216.92 147.28 219.31 147.22 219.95 147.45 226.23 149.37 232.94 152.19 235.61 154.9 239.74 155.98 243.62 156.43 247.93 154.88 249.83 155.24 251.49 155.64 254.74 156.48 255.75 158.4 254.73 160.83 251.85 164.27 249.39 167.72 250.85 170.09 253.29 172.97 256.9 177.37 265.33 181.21 272.26 183.19 279.83 187.71 287.99 191.71 289.52 193.42 289.29 196.91 288.92 202.72 289.14 208.2 287.92 209.8 283.65 212.77 278.53 219.15 274.26 222.37 273.71 225.1 274.26 227.67 275.96 230.57 279.17 232.19 287.47 233.49 292.15 233.32 295.98 232.7 303.56 228.86 310.05 225.65 316.33 224.35 322.76 222.83 323.96 221.28 324.2 217.8 322.76 210.91 320.89 203.24 318.72 198.21 317.36 194.26 317.68 192.45 317.86 191.61 319.8 190.11 323.28 190.03 328.11 187.6 331.65 183.48 336.56 177.84 339.09 174.17 339.23 174.12 341.9 173.49 350.77 175.13 359.79 176.66 363.98 176.6 368.53 175.25 372.06 175.93 375.31 178.69 379.13 181.86 382.95 184.74 385.4 188.24 387.28 191.91 389.44 196.7 391.03 200.54 391.45 203.01 392.54 204.39 395.86 206.59 399.25 209.64 402.5 213.08 406.32 216.02 408.69 216.31 411.15 216.36 415.26 214.1 418.95 209.53 421.98 205.01 424.87 200.55 425.37 196.21 424.51 191.02 423.36 185.59 419.68 181.75 419.97 177.69 421.64 173.06 423.59 168.66 425.9 164.26 427.13 159.07 431.82 155.68 438.68 152.8 444.09 152.35 446.65 153.08 448.49 155.23 456.28 159.53 463.71 161.51 470.06 164.39 475.62 167.21 479.3 169.69 479.84 170.56 478.14 172.43 478.13 173.76 480.16 177.37 482.32 181.83 486 184.99 488.68 184.78 490.9 184.32 492.06 181.39 491.77 178.34 491.06 173.14 492.14 169.14 493.08 165.52 491.42 162.59 488.76 159.31 486.81 153.89 488.69 143.22 488.69 138.99 489.43 136.73 490.22 134.36 491.77 133.69 494.18 134.14 498.73 135.61 503.27 136.79 507.45 140.69 512.43 144.81 517.84 148.82 521.95 149.82 524.7 150.01 529.39 146.85 531.84 142.62 536.04 137.71 537.05 134.77 536.76 127.72 538.86 119.93 541.82 116.49 550.26 113.72 554.75 110.45 556.77 105.99 554.82 103.4 553.17 99.67 553.6 99.16 554.32 98.2 555.19 98.95 557.06 100.57 559.95 103.23 562.25 106.45 564.88 107.11 567.09 107.18 571.56 104.64 575.68 102.84 581.81 100.98 583.91 99.41 583.98 96.92 585.45 96.1 586.87 96.29 590.98 97.54 594.01 95.97 596.55 93.64 597.41 91.79 596.9 87.55 598.43 80.21 602.25 73.44 602.23 71.77 600.89 68.98 599.23 66.78 598.85 64.2 599.82 61.19 601.76 56.73 603.72 50.02 605.02 46.86 607.98 43.36 610.51 38.22 614.99 32.01 616.08 31.22 618.03 29.87 624.89 28.63 630.59 27.22 632.9 26.72 636.8 24.97 638.46 23.18 638.46 20.62 639.48 17.62 640.7 17.29 641.63 17.46 649 18.71 656.07 20.41 658.34 20.12 661.92 18.38 665.38 17.64 668.63 18.04 670.36 18.55 672.88 18.21 674.55 16.58 674.05 12.29 674.63 11.5 674.55 11.22 674.13 7.32 675.16 5.99 677.6 4.44 677.89 1.34 678.89 1 680.34 1.68 680.48 2.41 682.43 6.87 683.22 9.98 683.94 11.05 686.25 12.91 686.69 14.06 685.88 15 683.21 17.32 680.61 20.76 676.64 24.03 673.67 26.97 673.02 29 672.52 31.14 671.97 31.74 669.34 31.93 665.95 34.75 662.48 39.66 659.15 42.93 658.43 46.43 655.93 52.42 655.18 54.84 655.68 59.92 655.89 64.83 657.25 66.31 659.71 67.82 663.75 70.99 665.31 74.3 664.76 78.12 664.24 81.09 662.44 85.66 660.99 89.84 657.59 93.56 656.15 96.25 656.15 97.74 656.94 99.18 659.32 100.85 664.87 105.03 668.63 108.81 670.28 114.23 673.31 118.52 675.45 119.48 678.28 119.88 681.38 119.45 683.34 118.7 687.02 115.93 689.11 114.35 689.11 114.76 692.71 113.07 693 113.18 694.91 113.74 696.61 114.88 700.87 118.49 705.06 121.87 708.89 124.97 710.84 125.61 716.18 126.27 720.65 128.24 722.97 131.63 725.27 133.42 727.73 134.05 730.41 133.68 732.28 132.3 735.88 129.87 741.37 128.85 750.74 128.45 758.61 128.79 764.53 128.67 767.13 129.12 768.57 129.35 769.8 131.04 769.28 131.96 767.49 132.45 763.09 133.3 761.63 134.81 760.28 138.5 757.83 144.14 757.76 146.91 757.69 150.29 756.03 154.81 754.95 157.69 751.85 162.94 749.83 165.93 746.88 168.19 746.74 170.05 748.98 171.92 750.78 174.8 751 177.45 751.43 180.84 752.09 183.32 754.32 185.52 758 187.1 761.11 188.91 764.87 190.03 768.69 190.82 772.22 190.88 773.72 191.2 774.39 192.28 775.26 194.09 776.92 195.33 781.18 197.59 783.56 198.72 786.38 199.39 791.57 200.07 794.96 199.84 796.19 199.84 797.78 199.78 799 200.23 798.57 201.42 795.61 201.87 792.37 202.1 787.96 202.1 783.92 201.93 780.39 202.05 777.29 202.05 774.18 200.92 767.83 198.44 766.03 197.31 763.93 196.35 761.55 195.23 760.54 194.32 757.36 192.69 754.33 191.17 749.64 189.81 745.38 188.18 741.19 186.6 736.14 185.59 730.73 185.02 724.02 185.7 719.4 187.74 714.86 189.38 704.98 194.97 696.9 198.98 691.7 200.96 689.11 202.02 680.16 203.88 675.03 203.3 670.49 202.12 667.18 195.16 664.65 193.14 653.76 189.36 639.34 186.02 627.5 182.68 614.15 182.68 600.15 185.1 588.46 187.63 586.12 189.19 583.41 192.88 581.81 200.67 579.72 204.9 578.38 205.75 574.67 206.79 573.08 208.34 573.33 210.1 576.1 214.22 582.23 224.21 589.8 229.46 597.15 231.67 598.77 232.99 598.81 235.64 598.87 235.64 601.76 238.58 602.09 240.46 600.46 244.05 597.2 247.89 592.3 251.78 590.87 252.09 588.89 251.72 587.25 250.82 585.81 245.06 584.88 239.75 581.27 235.67 580.93 235.67 576.52 234.08 572.77 232.05 568.44 226.8 565.91 223.49 564.12 221.83 562.12 221.49 556.91 219.23 555.52 217.99 553.81 214.77 552.58 213.64 543.05 209.63 537.86 207.37 534.68 208.28 533.24 210.81 534.1 216.23 535.01 221.84 535.91 223.63 543.48 226.23 547.6 228.33 548.81 230.69 549.1 235.65 548.51 235.65 547.51 238.35 547.21 240.13 551.47 246.57 556.58 255.32 560.04 258.82 559.6 259.38 558.89 260.93 558.16 261.41 556.89 261.33 554.65 260.5 553.04 260.51 552.35 261.34 551.38 263.67 553.54 268.13 550.21 274.9 549.19 278.4 548.19 280.1 541.98 281.39 534.19 282.8 525.6 286.46 520.97 288.24 519.25 289.73 517.22 296.34 512.97 300.68 510.38 302.08 506.69 302.37 503.82 301.42 499.76 298.48 494 293.06 489.09 287.13 483.9 281.76 481.02 275.1 478.43 268.38 474.03 262.85 471.08 260.69 466.67 259.06 459.03 258.49 452.1 257.14 445.89 258.21 442.19 258.67 439.33 260.01 434.56 263.96 431.4 265.82 428.07 266.05 423.24 264.13 417.54 265.65 412.91 267.46 409.16 270.27 406.64 275.64 404.11 284.72 401.67 286.78 397.54 288.22 391.26 291.72 387.38 293.84 384.11 296.63 382.89 301.37 380.42 304.16 376.31 306.11 370.25 308.14 361.53 308.59 352.22 310.22 343.92 312.03 340.16 313.39 337.57 315.69 336.23 318.8 336.05 321.96 340.23 326.65 344.41 332.97 349.32 339.35 355.3 344.49 363.23 346.92 368.34 346.81 372.54 345.51 379.83 342.07 389.5 340.04 399.53 340.27 404.83 338.69 409.77 336.55 417.2 330.9 421.32 324.7 424.5 322.65 429.4 321.26 436.77 316.8 443.34 313.92 449.83 312.23 454.74 312.18 456.88 313.07 458.19 315.85 462.95 319.63 469.88 320.37 476.81 320.14 483.73 321.28 489.57 323.42 496.5 324.78 501.12 324.11 503.19 324.75 503.72 327.27 504.96 330.11 506.03 330.82 507.68 331.17 510.65 330.41 512.58 330.88 516.04 334.61 520.51 340.54 525.14 342.23 529.67 342.92 534.97 343.48 538.69 342.75 542.73 338.01 545.7 333.83 550.07 332.32 553.49 332.37 560.63 333.39 568.57 335.37 575.78 335.94 581.34 337.86 586.02 340.12 586.88 340.57 590.35 340.77 592.59 339.95 593.16 339.5 596.85 336.8 599.17 336.59 600.88 337.53 601.24 337.76 599.01 340.69 592.94 345.77 585.58 349.04 580.09 351.12 578.25 353.55 578.65 355.92 582.11 359.42 587.66 363.38 589.33 365.73 590.47 369.31 590.97 377.55 590.46 384.21 591.1 391.15 591.46 394.99 591.45 402.05 593.1 407.92 594.08 409.6 598.08 412.1 600.46 416.79 601.03 422.37 604.12 429.15 605.71 436.04 608.74 437.48 612.55 438.18 620.27 438.13 626.98 438.48 632.83 440.4 634.87 439.7 638.09 437.97 639.77 437.58 640.9 438.03 641.18 444.3 639.89 450.05 640.74 455.93 639.01 461.57 637.78 465.74 637.63 470.37 634.81 476.98 634.59 483.58 634.87 487.25 633.51 486.24 633.25 485.84 632.64 485.56 632.38 486.48 632.74 488.38 632.06 489 631.45 488.68 630.91 488.11 629.2 487.97 628.23 487.7 628.25 486.95 629.16 485.19 628.95 483.41 628.46 482.22 628.46 481.94 628.53 480.36 628.61 477.82 630.13 471.39 630.05 470.6 629.84 466.14 627.68 461.28 623.72 456.59 614.56 451 607.43 448.06 599.42 448.23 598.48 448.17 595.09 447.94 594.57 447.12 594.66 444.72 593.41 442.98 589.18 440.38 581.61 435.57 574.91 430.38 573.32 428.28 572.96 425.52 578.09 420.56 580.04 418.82 580.54 416.21 577.23 408.87 574.86 403.17 572.7 399.33 572.91 393.46 571.39 391.16 567.8 388.6 564.71 387.92 560.87 388.26 555.82 391.98 553.57 392.82 550.41 392.88 542.26 390.28 534.04 389.66 523.58 385.98 513.63 384.4 508.48 384.09 504.83 384.96 502.69 386.36 499.48 390.71 495.44 395.46 492.66 396.61 483.75 398.22 478.1 398.86 475.17 400.08 469.25 404.87 465.56 405.96 459.65 406.85 448.54 407.23 442.05 409.72 432.16 411.07 422.35 412.64 413.55 414.05 402.95 416.08 399.77 416.7 395.16 417.72 393.2 417.05 389.6 413.76 384.59 412.74 379.36 412.69 371.42 414.66 366.74 415.96 364.47 417.27 362.84 417.48 359.88 414.83 356.27 414.15 354.48 414.47 353.39 416.24 353.53 418.89 352.96 420.1 351.44 420.07 346.53 418.94 342.93 419.11 340.83 420.86 340.47 423.46 339.64 424.27 338.16 423.8 336.93 421.37 334.7 420.29 332.03 422.89 330.87 424.25 329.43 423.62 328.5 419.33 328.29 418.54 326.15 415.22 324.1 414.03 319.2 413.52 317.47 412.67 314.22 408.6 311.04 404.88 305.57 400.08 300.23 396.8 298.13 395.37 294.39 395.05 287.1 396.69 280.1 399.96 273.97 404.2 273.25 404.7 270.94 399.05 264.95 394.31 262.72 392.18 259.91 390.53 251.25 389.11 244.65 388.35 240.72 388.89 237.25 392.05 234.8 393.45 233.07 393.57 232.64 390.92 228.96 386.8 223.12 383.52 215.33 378.89 207.9 377.53 202.48 377.29 197.29 378.66 190.73 381.77 186.4 388.71 184.38 393.51 183.08 394.75 181.2 396.67 179.88 395.84 178.47 394.35 178.68 390.85 178.39 385.04 177.53 381.89 173.42 381.03 170.34 380.53 167.5 380.91 164.35 382.28 161.8 382.44 156.17 380.91 149.32 377.53 143.26 373.74 140.36 372.66 138.39 372.44 136.33 372.78 132.36 376.34 129.18 378.25 126.3 379.44 122.48 378.71 121.49 378.76 117.8 381.47 115.24 381.72 113.18 380.57 114.12 375.94 113.32 369.28 112.96 365.05 110.86 363.26 104.53 362.45 96.3 362.62 92.94 361.31 88.22 358.44 82.96 350.76 79.57 348.66 73.86 346.75 66.14 345.57 60.8 342.63 57.56 341.22 54.03 340.77 50.49 340.88 44.94 341.45 42.48 337.72 40.97 335.18 38.45 332.24 35.27 328.52 31.37 324.51 30.94 324.11 30.02 323.31 27.98 321.52 21.35 317.28 16.22 314.29 9.23 310.9 5.91 309.72 3.67 309.15 1 308.36 2.44 305.71 7.86 300.4 14.13 295.66 22.28 291.43 30.87 288.38 43.78 288.04 55.33 288.95 67.09 290.36 78.42 291.82 Z M 717.86 159.8 717.28 159.51 715.2 158.9 714.54 158.33 714.26 157.88 714.18 157.37 713.46 157.2 712.67 157.37 710.5 158.22 709.28 159.58 708.34 161.27 707.91 161.33 707.19 161.61 706.54 162.4 706.61 163.25 707.4 163.98 707.84 164.94 707.77 165.5 707.33 166.3 706.32 168.33 706.04 170.19 706.97 170.76 707.98 170.87 710.29 170.47 711.74 169.57 715.13 168.04 716.71 166.8 717.94 165.05 720.03 162.33 719.81 161.32 719.53 160.93 718.95 160.36 717.86 159.8 Z M 534.79 258.81 533.92 257.34 533.2 256.91 531.97 257.34 531.03 258.08 531.03 258.64 531.75 259.88 532.98 260.9 533.62 260.92 534.78 260.79 535.72 259.94 534.79 258.81 Z" fill-rule="evenodd"/>
</g>
</svg>