<?xml version="1.0"?>
<svg xmlns="http://www.w3.org/2000/svg" version="1.2" baseProfile="tiny" width="800" height="586" viewBox="0 0 800 586" stroke-linecap="round" stroke-linejoin="round">
<g id="tulelake">
<path d="M 502.19 458.49 502.88 458.26 534.67 458.87 537.8 458.93 559.54 458.79 568.48 458.86 578.37 458.72 583.3 458.73 586.28 458.75 601.78 458.87 606.33 458.93 630.47 458.69 650.06 458.65 654.08 458.54 669.33 458.76 675.22 458.79 675.43 459.05 675.87 460.04 676.61 461.67 677.85 464.81 684.84 482.19 686.49 485.77 687.7 487.95 688.15 489.16 688.11 489.61 687.97 489.71 687.89 489.83 687.86 490.08 688.16 490.24 688.5 490.38 689.08 490.48 689.68 490.31 703.36 490.39 739.5 490.36 781.26 490.39 782.96 494.14 783.71 494.99 784.26 495.82 784.83 497.33 785.57 498.83 786.53 501.05 786.47 502.04 786.34 502.45 786.46 502.61 787.19 502.84 787.62 503.34 787.86 503.86 788.39 504.7 788.84 505.36 789.1 506.22 790.07 510.17 790.44 510.96 791.1 511.42 791.63 511.78 791.79 512.38 791.86 513.28 792.34 514.02 792.87 514.76 793.15 515.24 793.15 515.6 793.03 515.91 792.65 515.73 792.85 516.17 793.39 517.33 794.23 519.31 794.7 520.28 794.77 520.58 795.37 521.87 795.84 523.13 796.03 524.2 796.14 525.58 796.22 527.67 796.51 528.22 796.9 529.68 797.34 531.41 797.46 532.21 798.14 536.04 798.42 538.67 798.59 539.88 799 541.31 799 543.04 798.52 545.1 798.37 545.82 797.63 548.52 797.08 550.03 796.38 552.15 795.46 554.65 795.17 555.67 794.55 557.65 794.39 558.97 794.81 559.88 794.9 561.48 794.62 562.44 794.24 563.89 793.61 565.62 792.88 567.88 792.29 569.62 791.48 571.43 791.37 572.09 791.34 573.33 791.57 574.73 791.81 576.05 791.85 577.46 792.25 578.26 792.58 580.33 792.82 581.57 793.67 581.67 793.75 581.74 793.81 581.91 793.8 582.06 793.68 582.1 793.4 582.18 793.07 582.35 792.73 582.71 791.95 582.96 791.59 583.04 791.14 583.12 780.19 583.17 766.35 583.28 762.08 583.2 745.99 583.55 737.81 583.85 726.13 583.96 706.84 584.36 695.92 584.53 687.39 584.56 680.05 584.74 667.64 584.85 658.98 584.75 656.68 584.61 656.42 584.54 656.17 584.54 655.57 584.53 655.38 584.8 655.02 585 654.72 584.87 654.63 584.55 654.63 584.25 654.64 583.96 655.14 583.91 655.7 583.84 656.2 583.73 657.31 583.5 658.07 583.62 658.85 583.21 659.13 582.8 659.18 580.87 659.06 579.69 658.14 578.2 657.42 576.78 656.93 575.26 656.3 573.86 655.76 572.97 655.09 571.68 654.94 571.27 654.62 570.21 654.46 569.65 654.18 568.5 653.88 567.34 653.48 566.35 653.18 565.19 652.89 564.31 652.47 563.51 652.04 562.75 650.62 561.59 649.61 560.95 648.51 560.3 647.49 559.72 646.19 559.2 645.05 558.92 643.26 558.71 641.75 558.34 640.36 557.66 638.73 556.91 637.34 556.37 635.91 556.2 633.7 556.01 630.5 556.09 628.7 556.07 627.27 556.01 625.14 555.87 622.79 555.41 620.43 554.69 618.6 553.64 616.97 552.49 615.73 551.41 613.82 549.38 613.24 548.64 612.45 547.73 611.47 547.27 610.18 546.93 608.04 546.22 606.79 545.69 604.52 544.57 603.04 544 601.76 543.66 600.07 543.61 598.7 543.85 597.38 544.19 595.85 544.79 593.6 545.5 591.79 545.98 590.58 546.05 590.18 545.97 589.26 545.77 587.68 545.17 586.4 544.56 584.48 543.91 582.61 543.53 579.3 543.42 578.08 543.63 577.02 543.8 576.43 544.1 575.6 544.59 573.97 546.06 573.06 546.58 571.63 546.81 570.08 546.82 568.65 546.61 566.47 546.16 564.26 546.19 562.61 545.79 560.85 545.59 558.72 545.29 556.44 544.88 552.88 544.3 551.07 543.78 549.16 543.08 546.67 542.12 544.05 541.24 542.73 540.67 542 540.34 540.85 539.7 539.38 538.64 538.03 537.81 536.88 536.96 535.89 536.24 534.78 535.4 533.5 534.21 532.57 532.97 531.81 531.49 531.29 530.61 530.86 529.12 530.84 526.92 530.63 526.21 529.83 525.43 528.78 524.46 528.07 523.82 527.21 523.1 526.02 522.56 525.22 521.86 523.23 520.27 522.25 519.28 521.3 518.61 520.75 518.36 520.22 517.9 519.72 517.62 519.27 517.64 518.82 517.82 518.02 517.76 517.17 517.69 516.21 517.54 515.04 517.32 513.32 517 511.26 516.56 509.9 516.28 507.5 515.59 504.86 514.49 504.33 513.9 503.54 513.59 502.97 513.47 502.25 513.28 501.28 513.11 500.7 513.18 500.32 513.51 499.97 513.81 499.54 513.78 498.99 513.94 498.6 514.36 496.96 514.97 496.04 515.27 493.75 515.9 491.52 516.68 490.55 516.69 489.72 517.14 489.05 517.5 488.45 518.36 487.51 519.67 486.93 520.55 485.93 522.26 484.53 524.35 483.32 526.2 481.93 528.14 481.18 528.42 480.02 529.4 479.01 530.38 477.99 531.04 476.99 531.81 475.92 531.88 475.2 532.09 475.13 532.47 474.79 533.01 472.78 533.95 471.44 534.12 470.79 534.43 470.22 534.93 468.56 535.58 467.91 535.41 467.15 535.79 466.91 536.05 466.48 536.27 465.86 536.79 465.41 537.22 464.81 537.77 464.55 538.39 463.25 539.35 462.97 539.68 462.78 539.99 462.02 540.61 460.71 541.73 459.97 542.25 459.04 543.11 457.57 544.54 455.87 545.26 455.09 545.9 453.96 546.47 452.53 547.12 450.82 548.12 449.63 548.76 448.32 549.1 447.32 549.26 445.86 549.17 444.93 548.98 444.62 548.69 444.48 548.45 444.65 548.13 444.29 548.25 443.57 548.74 443.05 549.24 442.26 549.72 441.45 550.15 440.86 550.29 440.24 550.58 439.69 550.86 439.04 551.29 437.78 552.22 437.04 552.79 436.28 553.2 435.76 553.06 435.04 552.98 434.04 552.77 433.66 552.48 433.13 552.29 432.7 552.08 432.18 551.91 431.7 551.77 431.06 551.67 430.39 551.39 429.75 550.93 429.15 550.41 428.8 550.15 428.27 549.79 427.47 549.31 422.62 548.52 421.85 548.3 418.86 547.42 416.26 546.81 414.45 546.79 412.5 546.95 410.41 547.37 408.01 548 405.82 548.28 404.54 548.11 400.78 547.25 398.25 546.46 396.63 546.36 393.32 546.44 390.27 546.85 388.8 546.87 383.43 547.01 381.66 547.38 380.26 548 378.8 548.95 378.28 549.74 377.3 551.26 376.2 552.5 375.24 553.48 374.92 554.55 374.5 555.93 374.29 557.76 373.99 558.11 373.62 557.92 373.41 557.29 373.29 556.38 373 554.81 373.07 553.32 372.86 552.44 372.77 551.37 370.98 469.85 370.92 468.86 370.87 467.96 371.13 460.28 371.04 459.76 371.36 459.18 371.9 458.91 372.31 458.64 373.33 458.64 445.91 458.43 447.61 458.57 448.13 458.5 448.84 458.38 449.56 458.41 450.04 458.21 451.51 458.07 461 458.07 466.36 458.14 470.61 458.12 480.31 458.16 485.29 458.16 490.27 458.21 498.94 458.24 499.49 458.43 500.41 458.45 502.19 458.49 Z"/>
<path d="M 224.62 22.1 228.6 21.87 230.57 21.87 233.52 24.92 234.38 28.36 235.62 37.9 235.52 40.85 234.48 43.14 233.81 46 235.05 47.72 234.38 51.63 236.48 51.25 240.1 54.4 242.96 58.22 245.44 58.98 251.83 58.79 255.45 57.36 257.64 54.97 258.52 54.67 259.52 54.48 261.09 54.57 262.85 55.14 264.33 55.76 265 56.24 265.24 57.34 265.48 58.67 266.53 58.89 267.98 59.19 269.68 58.58 269.56 56.78 272.01 54.73 273.92 53.09 275.89 51.58 277.79 50.29 278.28 49.85 278.67 48.95 278.82 47.46 279.38 44.45 279.56 44.27 279.77 43.05 280.5 40.17 280.9 35.89 281.6 32.15 282.11 30.81 282.62 29.55 282.87 29.33 283.23 29.33 283.47 29.42 283.58 29.88 282.46 31.35 282.37 32.57 284.15 34.08 285.46 34.82 285.77 34.64 285.42 33.87 285.5 33.24 285.86 33.11 286.29 33.07 286.71 33.17 288.07 34.18 289.25 35.37 290.74 36.51 291.28 36.48 292.33 35.81 293.16 36.05 295.2 36.89 296.04 36.94 296.47 36.86 297.04 35.65 297.67 34.39 298.54 33.64 299.09 33.46 299.99 33.43 301.32 33.54 301.74 33.86 301.88 35.21 301.44 36.11 301.3 37.19 301.74 38.91 302.92 39.88 303.59 39.98 303.26 38.57 302.76 36.4 302.76 33.87 302.72 33.06 302.97 32.88 303.52 32.57 304.31 32.18 304.39 31.59 307.93 31.82 309.5 31.93 311.46 32.05 311.49 32.63 312.01 33.81 312.82 35.22 312.8 36.12 312.67 36.35 311.7 36.7 309.94 36.9 308.79 37.02 306.42 37.58 305.68 38.38 305.11 39.45 305.39 40.45 306.21 41.55 305.94 42.67 304.93 44.55 305.13 46.09 304.93 49.65 305.09 50.38 305.49 51.51 306.09 51.7 307.12 51.67 309.91 51.03 313.3 50.89 315.72 50.7 317.72 50.45 319.48 50.02 321.31 49.46 322.71 48.94 324.61 47.88 326.33 46.64 327.03 45.02 327.38 43.04 328.14 41.29 328.55 40.89 328.68 40.76 328.68 41.19 328.68 41.87 329.51 42.11 329.3 43.01 329.02 43.99 328.68 44.29 328.55 44.41 327.74 45.66 327.78 46.61 327.83 47.11 327.99 47.83 328.55 48.1 328.68 48.22 329.42 48.91 330.94 50.46 332.85 52.4 334.52 53.5 335.21 53.96 336.21 54.2 337.21 54.06 339.32 53.79 340.22 53.91 341.5 54.98 342.23 55.66 342.59 57.57 343.39 59.64 344.16 60.26 344.47 60.51 346.26 61.06 347.16 61.07 348.52 60.75 351.76 59.23 352.57 58.69 352.53 73.07 351.31 73.5 349.45 73.87 346.95 74.44 344.58 74.45 342.79 74.43 341.18 73.89 339.81 73.09 338.5 72.26 336.96 71.24 335.59 70.36 334.1 69.82 331.68 69.18 328.47 69.03 326.11 69.03 324.11 69.2 320.66 69.49 317.38 69.99 317.44 70.26 319.61 73.53 321.75 75.54 324.11 79.69 323.54 81.12 322.32 82.26 322.39 84.05 323.68 86.98 325.76 89.56 327.76 91.42 328.76 93.21 329.04 95.28 328.62 98 328.04 100.01 325.18 102.8 324.08 105.22 324.04 105.3 323.93 105.34 320.89 106.52 319.46 107.3 318.25 109.59 317.82 111.24 319.18 112.24 321.54 112.38 323.75 112.96 326 112.3 326.3 112.35 327.48 113.45 328.17 114.95 328.55 115.31 328.68 115.33 329.13 115.4 329.63 115.82 329.66 116.62 329.8 116.96 329.89 117.26 330.3 117.32 330.67 117.13 330.74 116.52 330.7 116.13 331.09 116.12 331.19 116.36 331.5 116.44 331.79 116.2 331.65 115.8 331.82 114.73 332.14 114.69 332.58 114.83 332.66 115.49 332.84 116.02 333.29 116.22 333.74 116.3 334.18 116.27 334.49 116.28 334.86 116.45 334.88 116.72 334.8 117.1 334.61 117.32 334.63 117.61 334.87 117.86 335.07 118.08 335.64 118.4 335.96 118.34 336.31 118.25 337.09 117.98 337.49 117.6 337.69 117.17 337.55 116.72 337.66 115.98 337.57 115.52 337.37 114.92 336.98 114.4 336.88 114.18 337.16 113.74 337.83 113.65 338.22 113.74 338.88 114 339.33 114.37 339.32 114.73 338.91 116.36 338.81 117.07 338.9 117.79 340.16 117.87 341.06 118.14 341.1 118.56 340.79 119.09 339.67 119.3 338.7 119.43 338.32 119.9 338.71 120.36 339.38 120.27 339.8 120.68 340.35 121.98 340.01 122.8 339.63 123.24 339.56 123.79 339.82 124.24 340.4 124.52 341.19 124.89 341.87 125.62 342.06 126.66 342.04 127.58 341.49 128.21 341.31 128.88 340.6 129.51 339.79 130.18 339.46 130.61 338.85 131.24 338.84 131.76 338.89 132.16 339.78 132.57 339.77 133.25 339.17 133.8 338.62 134.23 338.94 134.63 339.68 134.88 339.82 135.52 339.8 136.24 340 137 340.14 137.76 340.34 138.32 340.97 138.69 342.03 139.22 342.61 139.67 343.08 139.95 343.97 140.6 344.18 140.92 344.32 141.68 344.31 142.28 344.61 143.08 344.91 143.69 345.64 144.49 346.7 144.99 347.79 145.96 348.21 146.28 349 146.77 349.75 146.98 352.33 148.86 352.32 153.19 349.86 149.87 349.15 149.37 348.25 148.64 347.18 147.84 346.14 147.47 345.19 147.17 344.39 147.71 344.25 148.3 344.06 148.78 343.66 149.01 341.87 149.05 340.65 149.19 339.65 149.02 338.55 149.1 338.23 149.54 338.13 150.56 339.25 151.17 339.71 152.02 340.91 152.66 341.31 152.37 341.75 152.21 342.23 152.57 343.04 153.11 343.98 153.84 344.09 154.88 343.67 156.41 342.95 156.82 342.21 157.14 340.81 157.09 340.11 156.98 338.77 156.67 337.16 156.29 335.65 156.2 334.69 155.85 333.47 155.93 332.89 155.37 332.21 154.92 331.29 155.19 330.81 155.38 330.41 156.45 330.39 157.49 330.68 158.69 329.91 159.6 328.68 159.53 328.55 159.45 327.8 159 326.32 157.99 324.76 157.6 322.77 157.4 320.74 156.51 319.24 155.82 319.13 155.5 321.02 154.53 321.92 154.99 322.69 155.64 323.76 156.1 325.21 156.12 326.54 156.14 328.55 155.56 328.68 155.49 329.4 154.98 330.17 154.23 331.4 154.17 332.15 154.18 332.84 154.23 333.53 154.4 334.28 154.41 334.86 154.3 335.4 154.14 336.11 153.71 336.38 153.28 336.72 152.65 336.89 151.97 336.42 151.68 335.84 151.28 335.86 150.52 336.56 150.49 336.78 149.89 336.43 149.13 336.28 148.69 335.16 148.55 334.36 148.7 333.66 148.93 332.91 149.04 332.11 148.71 332.23 148.12 332.94 147.73 333.48 147.34 333.04 146.83 332.92 146.05 333.52 145.91 333.94 146.1 334.73 146.43 335.14 147 335.94 147.29 336.69 147.06 337.23 147.03 337.81 147.15 338.18 147.44 338.65 147.72 339.13 147.93 339.66 147.74 340.15 147.62 341.11 147.6 341.6 147.28 342.73 146.62 343.34 146.4 343.55 145.99 343.31 145.75 342.74 145.24 342.24 144.86 340.74 143.39 338.3 141.11 336.66 140.25 336.56 139.61 335.95 138.65 335.65 138.09 334.74 138 334.18 138.01 333.5 138.42 332.95 138.03 332.69 136.81 331.88 136.02 330.83 134.89 329.68 134.2 328.68 133.77 328.55 133.72 326.5 134.88 325.1 135.31 324.68 134.95 325.74 133.47 326.62 131.99 327.2 130.56 326.93 129.11 326.18 127.74 327.4 126.48 327.19 124.83 325.97 123.47 325.18 120.75 323.32 119.25 322.68 117.96 321.18 114.96 320.11 113.46 316.82 112.24 315.39 112.38 313.39 113.03 310.24 112.88 306.23 112.96 303.45 114.17 301.37 116.03 300.37 118.11 298.23 118.61 295.72 118.25 293.15 117.46 291.86 117.54 289 118.97 288.72 120.33 287.21 120.47 285.78 119.5 284.29 118.89 282.66 118.83 281.77 118.27 281.04 118.17 278.61 118.73 276.42 119.56 274.04 120.75 272.82 121.09 269.59 122.18 267.27 123.37 266.85 123.5 266.43 123.4 265.6 122.67 264.53 121.71 263.51 121.51 261.08 122.25 255.83 124.53 251.62 126.32 251.63 128.54 251.48 129.66 249.87 131.31 249.92 131.99 250.79 133.67 250.54 134.03 248.06 133.95 247.45 134.17 245.92 135.01 244.26 136.43 243.34 137.05 240.91 137.78 239.31 138.76 238.47 138.66 237.89 137.66 237.24 137.15 237.14 136.29 238.43 135.04 240.95 133.18 243.34 131.81 246.27 130.27 247.62 129.52 248.62 128.04 250.2 125.13 252.22 124.07 255.13 123.43 256.6 122.73 258.92 121.36 261.19 119.95 262.85 118.62 263.9 117.91 265.22 118.06 266.46 119.16 267.37 119.3 268.45 119.32 269.08 118.56 268.31 117.87 266.74 117.58 266.81 117.18 267.72 116.92 269.29 116.94 271.46 117.24 272.26 116.75 272.39 116.26 272.77 115.36 273.58 114.24 274.15 113.39 274.48 112.18 275.35 110.92 274.65 109.79 272.88 108 270.31 106.93 268.52 105.91 267.81 105.41 267.71 104.37 268.82 100.91 269.05 98.79 269.13 97.8 268.62 96.71 267.31 95.56 265.06 94 263.63 93.03 263.16 92.17 262.18 90.35 262.14 89.45 262.71 88.33 263.64 87.08 265.2 85.29 266.56 83.82 267.06 83.06 267.45 81.8 267.67 80.36 266.63 78.04 266.37 76.5 266.14 73.79 266.48 71.98 267.24 69.07 268.29 64.87 268.77 61.44 268.53 60.39 267.62 59.87 262.19 60.15 261.57 59.1 262.71 58.67 263.47 58.15 263.67 57.29 262.71 56.38 261.71 55.95 259.85 55.57 258.56 55.76 257.52 56.48 256.04 58.24 253.85 59.34 248.94 59.48 244.89 59.61 242.6 59.44 239.62 56.88 238.96 55.16 237.15 53.25 233.25 52.76 231.77 52.97 230.34 53.69 227.96 55.6 227.25 60.61 230.94 63.71 229.14 64.7 227.13 67.18 221.13 68.71 217.31 70.81 217.41 73 217.98 76.15 215.24 82.1 212.83 91.7 209.4 97.42 209.5 101.05 210.74 104.1 213.88 105.15 209.13 107.96 205.85 107.37 199.3 107.37 197.66 109.75 195.87 115.42 195.72 121.98 193.49 130.62 189.17 134.05 187.53 136.88 189.32 138.22 194.83 135.69 198.7 130.62 205.1 127.03 202.87 131.51 203.77 135.39 196.91 141.73 196.9 142.18 197.49 142.69 198.82 142.79 199.23 143.07 199.22 143.57 198.6 144.06 197.31 145.17 196.81 145.93 195.7 147.18 193.94 150.13 193.47 151.89 193.01 153.73 193.04 154.86 193.85 156.41 193.59 157.49 192.46 159.01 192.14 160.04 192.41 161.22 193 161.99 194 163.13 193.98 163.81 193.23 164.88 192.3 166.36 191.94 168.61 192.02 170.42 192.96 171.61 193.9 172.66 194.26 175.37 194.71 177.04 196.17 179.09 197.23 180.19 199.93 183.57 202.81 187.08 207.65 194.59 209.18 196.52 211.99 200.06 213.48 201.03 216.24 201.74 219.06 202.5 222.07 202.67 222.8 202.55 224.65 200.95 226.19 199.57 228.45 198.42 231.13 197.64 231.79 197.7 232.48 199.24 231.55 200.18 231.09 201.8 230.07 204.08 230.84 204.68 233.4 203.81 235.72 202.85 236.38 203.08 236.6 203.94 236.47 204.35 234.79 206.58 234.84 206.99 235.26 207.13 240.52 206.79 241.91 206.67 242.4 206.5 240.22 204.12 239.52 203.08 238.71 201.4 238.5 200 237.49 199.13 237.51 198.31 239.27 197.84 240.48 197.81 241.42 196.65 242.87 196.35 243.89 196.59 244.72 197.37 244.96 197.69 245.79 198.01 246.88 197.8 248.71 197.06 249.57 196.66 252.25 195.52 253.4 195.27 254.79 195.47 255.7 195.34 257.19 196.04 258.38 196.73 259.65 196.66 260.75 196 260.58 195.59 257.94 194.79 257.23 194.28 257.18 193.92 258.77 193.04 259.95 191.83 262.08 190.91 263.92 189.63 268.01 187.65 268.67 187.79 270.33 189.26 270.32 189.57 269.77 190.06 265.96 190.06 265.03 191.13 264.7 192.39 265.03 193.7 266.71 194.18 266.83 194.45 265.54 195.24 262.96 197.06 262.04 197.77 262.49 199.18 260.82 201.05 260.86 202 261.21 202.37 262.71 202.97 263.1 204.15 263.86 205.11 264.59 205.12 265.32 204.72 266.16 202.65 265.25 200.12 265.45 199.35 266.65 199.46 267.74 199.25 269.76 198.37 271.24 197.03 273.01 196.33 274.88 196.18 276.41 195.25 277.32 195.04 278.35 195.05 279.42 195.74 280.48 196.88 280.82 197.97 281.17 198.25 282.44 198.13 283.31 197.42 284.27 197.34 285.35 197.94 286.68 197.91 287.48 197.29 289.29 194.6 290.78 192.77 292.57 191.17 293.15 189.69 294.62 188.76 298.63 187.87 301.2 188.82 302.96 188.51 303.93 188.3 304.65 186.23 301.01 184.87 296.93 183.58 297.29 180.36 298 178.43 298.43 182.87 299.86 183.58 303.65 183.01 305.94 183.51 311.53 186.18 313.88 187.8 315.24 187.52 315.66 186.23 314.95 184.58 316.39 181.01 315.97 180.47 313.66 180.72 314.36 179.4 314.36 178.44 313.45 177.28 316.95 174.57 319.17 169.99 319.1 166.55 318.39 162.76 318.25 162.03 320.45 163.12 321.74 169.27 319.88 173.92 320.67 174.71 321.95 174.45 322.3 174.63 320.74 177.93 316.67 182.29 316.16 184.37 316.81 185.66 319.45 187.89 321.85 196.36 321.85 198.68 320.49 201.75 320.63 202.9 322.99 204.69 326.43 205.62 329.14 203.76 325.07 202.83 325.21 199.89 325.93 197.79 327.87 194.75 330.04 193.64 331.55 194.17 330.25 200.07 331.28 205.69 331.74 206.36 333.11 206.33 333.23 205.76 334.45 204.98 336.31 204.61 336.89 205.99 338.14 206.11 339.09 205.27 338.54 203.31 340.4 205.79 339.47 206.93 336.04 206.93 335.33 207.72 334.18 209.86 335.68 212.23 336.9 211.87 338.11 212.66 338.26 213.87 338.83 214.94 340.97 214.01 344.62 213.37 347.41 214.01 348.91 215.16 350.38 214.76 351.03 214.58 351.73 213.95 352.17 212.83 353.16 218.16 353.71 223.24 354.26 228.7 354.08 233.54 354.47 234.97 354.46 235.91 354.56 236.42 354.2 237.22 354.01 281.76 354.26 331.95 353.86 362.41 353.89 373.65 353.55 420.82 353.78 459.84 354.57 460.72 355.25 461.29 356.66 461.7 359.59 462.33 369.98 464.74 370.1 465.49 370.14 466.31 370.33 467.26 370.32 468 370.51 468.83 370.52 468.87 370.41 469.48 370.37 469.82 369.89 470.09 370.17 470.3 370.26 470.54 370.1 470.86 370.26 471.41 369.94 471.65 370.17 472 370.28 472.5 369.95 472.82 369.67 473.08 369.38 473.29 352.65 468.9 347.4 467.38 343.64 466.38 342.83 465.66 342.45 464.37 342.4 457.84 342.45 444.91 342.11 424.69 341.97 406.52 342.06 379.8 342.92 379.37 342.4 378.8 339.87 378.7 336.68 378.03 316.11 375.15 256.64 366.75 251.56 367 180.52 366.82 142.01 367 140.54 367.24 137.41 367.98 135.21 368.16 112.79 368.59 111.69 368.1 111.39 367.31 111.58 343.26 104.52 343.12 72.05 342.89 56.48 342.83 47 342.8 46.53 342.66 45.7 341.75 44.66 339.8 43.01 337.88 40.95 335.6 40.73 332.07 40.06 329.58 39.66 328.54 38.89 327.76 38.15 325.86 37.47 323.82 37.01 322.73 35.96 321.32 35.5 320.14 34.3 317.37 33.37 315.64 32.51 313.55 31.53 311.74 30.43 309.6 28.92 306.88 28.23 305.47 28.55 304.39 28.63 303.44 28.4 303.03 26.86 302.02 26.2 301.56 25.39 300.15 25.11 299.02 24.32 296.71 24.05 295.39 24.61 294.63 26.14 293.34 26.7 292.58 26.72 291.91 26.45 290.37 25.99 289.6 24.44 288.77 22.48 287.16 20.77 285.11 18.95 282.87 17.55 281.1 16.68 279.37 15.94 277.24 15.3 276.1 14.02 274.24 13.7 272.29 13.63 269.85 13.23 269.13 12.99 266.14 13.31 262.58 13.75 259.25 14.1 256.86 14.62 255.29 15.42 251.87 16.14 246.96 16.36 245.15 16.52 243.21 16.91 242.27 17.11 241.06 17.15 239.34 16.7 238.07 16.92 236.31 16.97 236.04 16.98 235.95 17.27 234.33 17.35 230.59 17.16 225.57 17.04 222.86 17.47 219.89 17.61 213.71 17.62 210.23 17.91 208.48 17.75 207.48 17.23 206.53 16.94 205.58 16.54 204.67 16.08 203.94 17.07 202.64 17.95 201.35 18.01 200.99 10.88 201.21 8.41 201.18 8.68 199.79 17.44 199.67 19.55 199.61 19.78 198.63 19.3 197.57 17.9 198.05 16.8 198.35 15.18 198.29 14.11 197.51 13.59 196.33 13.59 193.66 13.35 191.83 13.06 190.42 13.02 188.56 13.53 186.93 13.2 183.15 13.09 182.17 12.73 181.11 12.84 179.4 13.06 176.75 13.89 175.01 13.93 173.84 14.33 171.88 14.76 170.39 16.25 167.59 16.18 166.9 16.62 165.59 17.67 165.12 20.7 164.55 15.75 164.62 12.43 164.54 12.28 164.01 11.83 163.36 12.32 160.23 12.44 153.61 12.34 150.37 12.29 140.92 12.28 137.18 12.21 124.92 12.23 122.1 12.19 120.18 12.14 118.72 11.85 117.93 11.18 116.58 10.62 115.74 9.88 115.05 9.01 114.28 7.47 113.39 6 112.86 4.23 112.42 2.53 112.29 1 112.1 1.02 111.7 1.04 111.32 3.18 111.37 4.75 111.49 6.23 111.79 8.98 112.87 10.33 113.71 12 115.1 12.76 116.04 13.38 117.68 13.68 118.76 14.01 126.96 14.3 133.58 14.21 150 14.33 153.9 14.21 159.36 14.14 162.47 14.39 162.7 15.64 162.75 23.21 162.86 31.88 162.7 60.98 162.79 62.93 162.64 63.01 162.04 62.71 145.97 62.93 145.15 63.76 144.62 65.11 144.4 74.56 144.62 74.71 144.32 74.79 128.33 75.16 126.98 75.84 126.45 77.86 126.3 107.42 126.3 110.73 125.78 111.25 124.13 111.25 65.34 110.95 4 110.88 1.6 112.83 1.23 150.79 1 159.34 1.3 164.6 2.2 216.67 13.69 217.12 14.21 216.67 14.97 216.14 15.87 216.82 16.09 217.79 16.84 217.57 17.74 218.39 19.32 221.47 21.27 224.62 22.1 Z M 302.98 68.36 301.13 69.96 299.65 71.47 298.1 72.94 296.03 74 294.14 74.56 291.41 74.89 286.51 75.28 282.4 75.36 282.91 76.12 282.02 77.11 282.72 78.61 284.27 79.53 285.44 78.99 286.2 79.59 288.42 81.81 290.02 82.78 290.13 85.28 289.24 86.11 288.77 88.39 288.45 90.51 287.57 90.37 286.74 90.26 286.45 89 286.66 87.79 286.52 86.89 285.16 86.14 285.91 85.28 286.84 83.85 286.74 82.49 285.34 81.63 283.34 80.75 282.43 79.51 281.55 77.91 279.87 75.66 281.64 75.93 281.78 75.31 278.36 74.99 275.65 74.68 270.11 73.89 267.8 74.85 268.81 80.51 268.7 82.63 267.38 87.71 267.48 90.92 269.98 92.14 268.91 93.5 270.7 94.78 271.27 96 270.2 98.58 270.7 103.15 271.27 105.87 274.65 107.44 278.49 109.67 279.06 110.81 278.63 112.17 282.21 115.32 284.28 117.11 286.36 116.53 287.29 114.6 288.5 113.74 292.22 111.1 296.8 110.31 298.3 110.81 300.94 111.1 302.37 110.38 305.31 107.73 305.66 105.94 306.38 104.51 308.74 103.87 309.67 104.16 311.6 104.51 317.25 103.66 319.22 102.56 324.29 97.66 325.16 96.68 325.67 95.19 325.76 94.07 324.51 90.76 322.73 86.72 320.75 82.98 320.96 80.47 320.18 78.54 316.69 76.48 313.53 72.82 311.38 72.32 307.8 71.72 306.36 70.97 306.17 69.83 304.74 69.02 303.74 68.44 302.98 68.36 Z M 270.67 60.36 270.37 62.74 269.94 65.76 269.41 67.65 269 69.81 268.4 72.2 268.45 72.87 268.98 73.33 270.67 73.35 272.84 73.29 275.38 73.37 277.3 74.03 281.33 74.67 283.21 74.6 285.87 74.32 288.53 74.26 291.49 74.08 293.32 73.6 295.33 72.68 296.74 71.66 297.86 70.41 300.02 68.32 301.88 66.54 302.98 66.1 303.2 64.3 303.6 62.59 303.31 59.52 303.77 57.81 303.78 54.96 303.39 53.33 302.99 52.65 300.2 53.11 296.8 53.83 293.82 54.47 291.82 54.76 289.29 54.73 287.66 54.35 286.83 53.79 286.25 52.88 286.09 51.75 286.31 50.09 286.52 46.61 286.54 40.48 286.29 38.04 286.14 36.86 285.37 36.08 283.1 34.93 282.14 34.82 282.47 38.75 282.26 40.02 282.01 42.72 280.98 45.5 280.33 47.62 280.46 49.88 279.41 52.07 278.78 53.19 276.93 54.7 275.23 56.58 272.48 57.76 271 59.14 270.67 60.36 Z M 314.42 51.94 310.01 51.89 307.16 52.3 305.65 52.46 304.97 53.04 304.76 56.87 304.58 62.19 304.95 64.41 305.29 65.36 305.76 65.91 307.08 66.38 308.28 66.44 309.92 66.28 311.75 65.58 316.13 64.02 317.28 64.17 319.31 64.96 321.28 66.07 323.43 67.18 324.68 67.78 326.43 67.94 327.34 67.82 327.96 67.24 328.2 64.72 328.33 64.36 328.55 64.03 328.68 63.84 330.89 60.53 332.18 59.34 333.7 58.54 334.77 57.77 336.19 56.93 337.21 56.23 337.98 55.6 338.39 55.12 338.43 54.7 336.64 54.95 334.1 54.43 332.33 53.06 331.25 52.04 330.37 51.24 329.63 50.56 328.68 49.63 328.55 49.51 326.89 48.54 325.5 48.57 323.85 49.13 320.86 50.4 318.49 51.18 316.18 51.69 314.42 51.94 Z M 292.94 53.42 295.19 52.91 297.86 52.45 301.69 51.19 302.98 50.57 303.8 49.01 303.71 47.52 303.49 46.47 303.23 44.89 303.06 41.95 302.29 41.31 300.67 40.57 299.72 39.79 298.74 37.97 297.84 37.6 295.11 38.02 293.36 37.99 292.27 38.34 290.68 39.18 289.77 39.07 288.58 38.47 287.59 36.61 287.23 36.56 287.22 37.15 288.05 40.45 288.06 42.53 287.44 48.39 287.3 51.86 288.06 52.82 289.38 53.33 292.94 53.42 Z M 316.49 203.81 316.08 203.26 314.76 203.02 313.92 202.87 313.03 201.86 311.58 199.63 310.81 198.68 309.85 198.39 309.56 197.85 309.74 195.46 310.8 193.94 310.89 192.94 310.6 192.31 311.11 191.19 310.89 190.01 310.78 189.69 310.54 189.65 310.11 189.78 308.87 191.43 307.62 193.31 307.1 194.84 306.69 197 306.48 197.85 305.74 198.52 303.98 199.26 303.42 199.8 303.28 200.47 304.18 200.85 305.91 201.59 307.04 202.51 308.33 204.29 309.5 205.75 310.16 205.75 311.8 205.59 312.56 206.46 313.88 206.75 314.87 205.82 316.49 203.81 Z M 177.99 147.69 176.27 151.43 173.09 153.33 172.33 156.04 175.31 158.42 177.99 157.23 183.05 147.09 180.67 146.5 177.99 147.69 Z M 212.63 79.21 213.89 79.17 214.45 78.74 215.19 77.89 216.24 77.19 216.98 76.22 217.07 75.54 216.6 74.76 215.48 71.11 213.1 70.27 207.91 72.37 207.91 74.76 208.8 75.04 209.01 75.74 210.14 77.86 211.17 78.72 212.63 79.21 Z M 321.1 208.24 319.55 209.67 318.21 210.28 317.22 211.4 316.58 212.79 316.49 214.23 315.92 215.13 314.33 215.92 313.05 216.49 313.16 217.03 315.07 217.82 315.86 217.74 317.2 217.17 318.13 216.28 319.08 214.22 320.68 213.07 322.69 212.37 323.43 211.79 323.99 210.85 324.22 208.78 323.46 207.87 322.92 207.64 322.38 207.63 321.1 208.24 Z M 316.65 65.29 315.38 65.31 313 66.14 310.93 66.79 309.78 67.09 308.21 67.12 306.22 66.73 306.1 66.95 306.69 67.41 308.66 68.48 309.85 69.08 310.81 69.32 313.77 69.31 316.37 69.3 319.28 69.11 321.21 68.87 323.45 68.76 323.46 68.54 321.97 67.66 319.29 66.09 317.85 65.62 316.65 65.29 Z M 177.77 130.16 174.97 129.6 173.85 131.71 173.99 136.62 173.71 138.16 176.23 138.16 178.19 136.19 178.89 133.81 177.77 130.16 Z M 180.4 160.82 183.42 161.99 185.45 163.01 187.12 159.43 187.12 157.04 182.83 155.37 181.16 157.76 180.4 160.82 Z M 182.96 133.39 183.24 135.49 185.2 135.35 186.74 133.39 188.7 132.41 189.27 131.43 186.88 129.46 184.36 129.18 183.8 130.72 182.96 133.39 Z M 159.83 146.29 161.65 146.57 163.89 144.75 166 141.81 164.45 140.96 163.19 141.38 161.23 142.79 158.71 144.61 159.83 146.29 Z M 175.11 146.15 173 146.29 171.18 148.54 171.18 151.06 173.14 151.62 174.97 150.64 175.95 148.68 176.37 147.14 175.11 146.15 Z M 202.02 105.19 203.84 103.51 205.25 100.85 204.97 99.3 202.44 99.44 201.32 101.13 200.06 103.09 200.06 104.77 202.02 105.19 Z M 193.75 115.57 195.57 113.47 194.03 111.93 190.11 110.1 189.97 111.93 190.53 114.73 193.75 115.57 Z M 296.47 192.26 295.73 192.84 295.84 193.34 296.3 194.43 297.06 195.34 298.48 196.67 299.84 197.77 300.85 198.64 301.1 198.37 301.22 198.1 300.52 197.37 300.53 196.87 301.39 196.12 301.35 195.48 300.82 194.8 299.4 193.52 298.63 193.01 297.61 192.37 296.47 192.26 Z M 339.97 218.09 340.37 219.59 339.48 221.91 340.91 222.51 342.76 221.97 343.95 218.28 343.23 216.85 341.45 217.2 339.97 218.09 Z M 179.73 130.6 180.76 131.43 181.74 131.39 182.29 130.93 182.85 130.93 183.53 130.62 184.06 129.6 184.07 129.01 183.75 128.72 182.96 128.34 180.85 127.36 178.75 127.78 179.09 129.28 179.73 130.6 Z M 317.49 207.7 318.63 207.62 319.79 207.32 321.26 206.26 321.28 205.72 320.98 205.26 319.85 204.71 316.87 205.71 316.26 205.92 316.25 206.33 316.41 207.19 317.49 207.7 Z M 175.8 146.26 176.41 146.57 176.86 146.54 178.33 145.87 179.17 143.63 177.63 142.93 175.95 143.21 175.91 144.19 175.53 145.18 175.22 145.71 175.8 146.26 Z M 305.22 34.72 304.68 34.75 304.62 36.87 305.47 36.93 307.17 36.46 307.85 36.06 307.85 35.74 306.24 35.14 305.7 34.99 305.22 34.72 Z" fill-rule="evenodd"/>
</g>
</svg>