<?xml version="1.0"?>
<svg xmlns="http://www.w3.org/2000/svg" version="1.2" baseProfile="tiny" width="800" height="1413" viewBox="0 0 800 1413" stroke-linecap="round" stroke-linejoin="round">
<g id="middlealkalilake">
<path d="M 183.41 357.2 187.08 354.61 193 353.48 194.96 354.9 201.78 363.3 207.5 374.06 221.66 395.07 228.84 404.47 231.8 415.01 240.22 421.7 248.5 427.3 259 428.17 273.29 431.54 287.52 429.17 298.87 424.12 311.75 423.45 323.9 429.02 334.47 435.63 344.59 432.61 354.25 429.68 361.88 429.3 372.68 434.77 378.16 448.67 379.83 460.54 384.62 471.58 390.06 480.89 395.03 481.78 397.88 489.06 399.94 496.71 399.97 505.68 401.55 510.21 406.25 512.98 408.79 513.27 441.78 498.86 444.14 497.83 489.83 477.89 505.15 483.87 526.45 486.12 538.94 490.11 551.57 494.54 566.95 497.98 567.91 498.53 577.72 504.13 585.75 511.25 594.66 519.12 597.63 525.85 588.93 538 584.86 549.27 585.68 558.69 582.01 567.59 583.27 576.47 585.22 580.04 586.66 582.66 589.05 589.5 587.76 595.73 586.98 599.47 590.58 611.55 595.95 626.93 604.28 634.92 613.09 633.69 621.4 639.85 627.54 641.25 630.1 641.83 634.14 641.06 640.94 647.36 643.32 658.18 646.03 662.33 647.48 665.04 650.49 670.06 656.58 668.71 658.88 668.08 666.03 667.18 668.27 671.14 671.83 677.75 674.91 681.17 677.12 684.95 682.34 691.24 688.53 693.79 700.04 696.44 704.07 702.21 706.55 707.15 706.71 708.37 707.45 714.07 707.21 718.61 709.31 722.31 711.07 733.27 720.95 752.02 733.38 761.71 749.86 768.07 771.4 776.64 784.58 787.86 788.71 799.72 789.07 800.74 793.06 814.24 791.5 826.16 791.53 827.07 792.02 844.02 791.35 860.53 794.84 874.66 793.37 891.38 788.84 910.67 788.17 927.18 787.71 948.4 787.06 955.37 786.51 961.31 789.78 970.72 785.36 980.55 781.15 995.09 781.48 1010.35 782.7 1032.3 790.44 1041.16 794.56 1045.89 798.53 1057.28 798.73 1062.99 799 1070.92 790.74 1082.01 783.62 1106.62 778.79 1125.51 782.24 1151.79 786.77 1168.89 771.81 1179.14 761.68 1186.89 753.74 1213.24 736.07 1236.17 718.55 1257.49 710.56 1257.45 710.24 1262.25 696.42 1269.65 679.55 1272.35 679.29 1279.79 674.57 1289.59 668.4 1290.72 663.22 1295.02 653.4 1299.55 643.22 1303.62 638.59 1311.27 634.84 1317.76 624.14 1322.15 615.05 1325.45 602.91 1329.26 594.56 1330.19 585.21 1333.6 579.09 1334.78 575.3 1337.3 575.41 1339.34 571.52 1340.38 566.66 1341.45 558.7 1343.26 548.02 1345.86 540.96 1349.7 532.12 1351.67 525.22 1354.38 517.41 1357.68 513.75 1360.04 510.18 1362.11 506.73 1364.02 503.47 1366.45 499.05 1367.71 497.6 1370.14 494.55 1373.01 491.93 1374.06 487.3 1375.23 483.12 1374.51 480.2 1375.76 474.63 1380.15 468.82 1381.68 462.58 1380.94 455.22 1381.24 452.1 1380.32 448.73 1377.64 447.48 1375.11 443.16 1373.45 439.87 1373.66 438.31 1375.07 438.26 1378.13 435.62 1381.82 431.06 1385.88 428.33 1388.76 421.89 1392.76 415.07 1395.18 410.67 1397.55 404.03 1399.93 399.42 1402.76 396.54 1404.14 394.97 1405.55 392.87 1405.4 388.13 1405.2 384.27 1405.41 381.2 1404.49 376.51 1403.71 373.13 1402.94 368.1 1402.57 364.49 1403.18 361.87 1404.92 357.22 1408.03 353.79 1410.19 351.32 1412 349.32 1411.41 347.12 1410.24 344.74 1408.21 343.56 1406.22 341.13 1404.74 338.96 1403.65 337.79 1402.36 337.29 1400.24 336.58 1397.92 336.51 1397.83 336 1397.37 335.36 1397 334.21 1396.46 333.03 1395.92 331.82 1395.25 330.64 1394.57 329.51 1393.92 328.33 1393.4 327.67 1393.18 326.7 1393.06 325.74 1393 323.92 1393.13 322.74 1393.33 321.8 1393.51 320.54 1393.62 319.26 1393.51 318.44 1393.4 317.58 1393.19 316.73 1393.16 316.06 1393.18 315 1393.22 313.51 1393.48 312.94 1393.6 311.68 1393.98 310.59 1394.28 309.45 1394.66 308.27 1394.77 307.81 1394.66 307.38 1394.45 306.9 1394.07 306.41 1393.68 305.5 1393.15 304.96 1392.89 304.48 1392.75 303.74 1392.62 300.53 1392.1 298.93 1391.95 297.49 1391.83 296.01 1391.51 294.79 1391.21 293.78 1390.84 292.68 1390.48 291.67 1390.24 288.02 1389.86 283.95 1389.28 282.71 1389.07 281.54 1388.99 280.64 1388.99 279.38 1389.07 278.37 1389.1 277.59 1389.04 277.08 1388.99 276.21 1388.64 275.2 1388.31 274.02 1387.95 273.4 1387.69 272.87 1387.3 272.55 1386.81 272.27 1386.24 271.97 1385.26 271.61 1384.09 271.01 1382.6 270.39 1381.05 270 1380.18 269.49 1379.08 269.09 1378.53 268.64 1377.96 268.17 1377.38 267.69 1377.17 267.3 1377.03 266.09 1376.87 264.92 1376.68 264.32 1376.46 264.05 1376.27 263.07 1373.82 262.72 1373.02 262.41 1372.42 262.03 1372.02 261.72 1371.93 261.13 1371.87 260.65 1371.8 260.1 1371.57 259.25 1370.81 258.5 1370.11 258.1 1369.8 257.45 1369.43 256.63 1369.19 256.19 1369.11 252.37 1369.28 251.08 1369.34 249.36 1369.19 248.23 1369.2 247.58 1369.07 246.42 1368.17 246.14 1367.66 245.64 1365.25 245.59 1364.37 245.71 1363.38 245.83 1362.91 246.19 1362.42 247.47 1361.7 248.57 1361.24 249.54 1360.85 250.71 1360.39 251.34 1360.09 251.76 1359.77 253.52 1357.71 253.91 1357.14 254.35 1356.23 254.62 1355.62 254.71 1354.66 254.66 1353.48 254.43 1352.73 254.23 1352.37 253.89 1352.01 252.86 1351.49 252.13 1351.31 251.43 1351.16 248.76 1351.31 245.51 1352.41 244.23 1352.46 243.48 1352.64 242.79 1353.11 241.06 1354.62 240.52 1355.05 239.97 1355.23 239.73 1355.26 239.5 1355.06 238.99 1352.7 238.87 1351.93 238.71 1351.26 238.51 1350.76 238.2 1350.16 238 1349.51 237.96 1349.01 238 1348.32 238 1348.28 238.08 1347.63 238.16 1346.83 238.43 1346.13 239.37 1344.66 239.92 1343.86 240.5 1343.01 240.87 1342.44 241.04 1341.68 241.21 1340.8 241.37 1339.98 241.52 1339.42 241.72 1339.11 243.05 1337.94 243.74 1337.59 244.3 1337.23 244.48 1336.97 244.65 1336.5 244.53 1336.2 244.34 1335.84 243.9 1335.32 242.93 1334.55 242.07 1333.85 241.52 1333.2 241.28 1332.67 241.05 1332.05 240.89 1331.34 240.85 1330.78 240.96 1330.25 241.13 1329.78 241.44 1329.28 241.98 1328.78 242.38 1328.52 243.07 1328.34 244.48 1328.33 245.3 1328.3 245.85 1328.22 246.29 1328.07 246.67 1327.72 247.07 1327.37 247.46 1326.69 248.79 1323.95 249.44 1322.36 250.58 1319.59 251.52 1316.09 252.03 1314.67 252.58 1313.35 253.24 1311.96 253.7 1311.07 254.02 1310.19 254.18 1309.37 254.75 1307.8 255.62 1306.92 255.86 1306.8 256.21 1306.81 256.94 1307.22 257.68 1308.54 258 1309.04 258.32 1309.48 258.68 1309.99 258.98 1310.36 259.77 1310.89 260.63 1311.3 261.95 1311.72 262.71 1312.01 263.71 1312.31 264.38 1312.4 264.92 1312.37 265.28 1312.34 265.75 1312.14 266.81 1311.39 267.59 1310.75 268.56 1309.83 269.5 1308.88 270.29 1308.16 270.88 1307.33 271.22 1306.42 271.41 1305.91 271.96 1305.1 273.14 1303.64 273.91 1302.68 274.58 1301.71 275.13 1301.02 275.6 1300.35 276.15 1299.64 276.5 1298.97 276.77 1298.37 277.09 1297.55 277.39 1296.73 277.79 1295.66 278.17 1294.52 278.29 1293.75 278.33 1293.16 278.61 1291.74 278.73 1290.89 278.84 1289.68 278.92 1288.89 279 1288.12 279.26 1287.27 279.5 1286.58 279.65 1285.97 279.98 1284.85 280.45 1283.49 280.76 1281.49 280.87 1280.37 281.06 1279.32 281.22 1278.44 281.42 1277.78 281.76 1276.75 282.08 1275.75 282.36 1274.83 282.42 1274.07 282.5 1272.65 282.55 1271.06 282.63 1269.71 282.63 1268.23 282.47 1267.11 282.19 1266.03 281.96 1265.14 281.79 1264.11 281.73 1262.9 281.34 1261.47 281.09 1260.64 280.91 1260.28 280.66 1259.94 280.05 1259.46 279.07 1258.95 278.43 1258.46 278.08 1257.97 277.9 1257.46 277.81 1256.9 277.89 1256.46 278.05 1256.11 278.48 1255.6 279.06 1254.95 279.33 1254.45 279.52 1253.92 279.52 1253.28 279.45 1252.45 278.98 1251.28 278.16 1249.92 277.46 1248.88 276.67 1247.76 276.32 1246.98 275.76 1246.05 275.23 1245.5 274.75 1245.18 273.5 1244.5 270.72 1243.17 269.99 1242.91 269.44 1242.77 268.96 1242.64 268.3 1242.5 267.32 1242.41 266.31 1242.38 265.45 1242.32 264.94 1242.18 264.54 1241.82 264.4 1241.37 264.36 1240.7 264.38 1239.99 264.48 1239.34 264.66 1238.52 265.37 1236.99 265.98 1235.26 266.38 1234.39 266.97 1233.58 267.54 1232.66 268.06 1231.83 268.57 1230.95 269.04 1229.53 269.36 1228.74 269.55 1228.1 269.63 1227.51 269.51 1227.01 269.08 1226.35 268.61 1225.53 268.18 1224.79 267.87 1224.06 267.83 1223.47 267.94 1223.09 268.18 1222.82 268.65 1222.12 269.19 1221.64 269.85 1221.19 270.83 1220.69 272.09 1220.11 272.35 1219.91 272.63 1219.51 275.31 1216.62 276.6 1215.09 277.46 1213.47 277.58 1213.23 279.81 1210.58 280.59 1206.08 282.27 1199.39 284.14 1195.48 291.57 1188.2 293.25 1187.32 296.06 1186.35 299.58 1184.43 305.09 1180.99 307.71 1178.98 313.69 1173.47 316.43 1171.41 331.6 1162.64 335.31 1159.54 338.09 1156.54 343.76 1147.32 346.1 1144 349.04 1137.02 350.01 1132.6 350.01 1129.42 345.9 1121.68 344.26 1120.15 341.41 1118.59 338.67 1117.64 335.23 1117.06 330.06 1113.08 324 1109.52 320.56 1106.58 318.13 1103.19 315.55 1100.69 315.16 1100.54 314.89 1100.19 313.4 1099.75 312.23 1098.92 304.6 1092.65 302.84 1091.56 301.39 1091.03 300.8 1090.53 300.8 1089.8 301.19 1089.41 302.64 1089.35 306.36 1090 307.33 1089.71 308.23 1088.91 309.29 1086.41 312.34 1081.99 312.46 1080.96 312.06 1079.4 310.77 1077.28 307.06 1072.48 305.37 1071.45 301.97 1070.19 298.72 1069.98 297.16 1069.6 294.23 1068.13 293.05 1066.6 293.17 1065.18 296.38 1063.65 299.03 1061.35 300.99 1060.41 307.05 1054.82 311.08 1050.25 312.45 1049.07 320.46 1044.95 322.22 1043.62 327.43 1040.97 331.34 1038.47 334.39 1036.91 336.42 1036.47 339.08 1036.41 342.8 1035.88 346.44 1034.7 348.86 1032.93 350.93 1029.4 350.66 1027.19 349.76 1025.81 345.14 1021.07 344.75 1019.89 344.99 1016.3 344.79 1014.59 344.28 1013.41 339.98 1009.29 339.27 1008.2 339.27 1007.61 339.47 1006.73 340.76 1004.58 342.83 1002.96 344.59 1003.11 347.21 1004.28 349.76 1004.87 352.22 1004.52 353.79 1003.4 354.88 1001.72 356.64 996.63 358.09 989.41 359.18 986.97 359.46 983.88 359.26 979.76 357.5 977.11 356.64 974.6 355.93 973.72 354.29 972.4 350.18 970.1 345.37 968.33 343.8 968.13 337.93 966.36 337.15 966.42 335.98 966.95 332.85 966.8 331.17 967.75 328.62 967.6 325.41 965.48 323.42 964.8 319.9 964.13 319.7 963.68 320.21 962.45 320.21 961.42 318.45 957.8 317.86 953.76 318.06 952.14 319.54 948.61 319.23 945.43 318.95 944.63 316.8 941.81 313.36 939.54 311.4 939.01 308.86 937.04 306.9 936.36 303.46 933.95 297.39 931 294.46 929.8 292.89 929.44 292.19 928.86 291.79 927.88 291.4 923.56 290.34 921.41 288.27 919.43 286.24 917.96 280.25 915.9 278.68 914.14 278.29 912.87 278.48 910.96 281.81 902.27 282.63 898.79 284.19 894.67 284.86 890.64 284.66 887.9 284.39 887.4 280.94 884.43 273.11 878.92 271.04 876.27 270.57 873.09 269.86 871.47 269 870.38 267.83 869.62 266.14 869.18 261.05 868.74 259.61 868.24 259.02 867.35 259.02 864.17 258.12 862.11 256.55 860.64 254.4 859.61 251.07 856.61 251.19 854.69 253.73 851.37 253.73 846.42 253.14 845.09 252.55 844.59 251.46 843.92 248.44 842.98 247.66 842.39 247.54 841.5 248.64 839.74 249.03 838.12 248.83 834.35 248.44 832.88 246.56 828.75 242.95 825.07 240.68 823.46 234.93 820.37 233.35 819.89 231.68 819.39 228.16 818.81 209.53 818.72 206 818.96 203.85 819.85 201.62 820.29 200.45 820.29 199.47 819.85 198.37 817.93 197.31 817.49 185.92 816.67 178.09 816.88 168.31 818.15 166.04 818.89 163.3 820.57 161.42 822.77 158.88 827.34 157.71 828.08 157.04 828.16 155.87 827.72 155.36 827.19 153.59 821.75 152.93 821.01 151.56 820.22 151.24 819.69 150.18 815.57 149.6 814.48 145.37 811 144.58 809 143.52 808.35 141.76 807.91 139.61 808.06 138 807.38 135.97 808.06 134.8 807.92 131.94 807.68 131.47 807.18 132.05 806.65 132.72 805.91 132.84 804.68 131.93 804.24 129.94 803.97 128.61 803.8 128.22 803.41 129.51 802.38 129.9 801 128.33 798.64 129.11 798.55 133.73 799.73 136.75 799.96 137.26 799.58 137.25 797.67 137.53 797.46 141.76 797.96 143.52 797.31 147.62 793.84 150.09 792.16 152.63 789.65 155.76 784.5 155.76 781.55 157.05 774.4 157.24 769.75 158.6 765.56 159.39 764.15 161.54 763.27 162.71 761.44 163.1 759.23 162.63 757.38 163.1 756.44 163.1 755.4 162.83 754.23 160.87 752.61 160.55 749.58 159.18 747.43 157.73 746.69 156.56 744.87 155.58 743.98 153.38 742.81 150.37 740.51 148.1 739.27 146.06 737.21 145.16 735.57 143.32 733.8 141.94 733.01 137.44 731.39 131.96 730.42 130.47 729.92 129.02 729.83 123.89 730.27 119.7 731.4 117.63 731.25 115.79 730.51 113.83 728.9 112.26 726.22 109.99 724.6 105.6 720.63 105.29 720.13 105.29 718.8 104.62 717.33 102.27 716.15 101.29 715.18 99.1 712.38 97.06 710.38 93.33 705.61 89.49 701.85 88.24 699.73 87.14 699.05 85.5 698.9 85.22 698.82 84.01 698.46 82.64 697.52 81.38 695.96 80.68 695.76 80.28 693.88 79.82 693.35 79.43 692.62 79.07 692.03 78.26 690.94 77.66 689.94 76.92 689.05 75.82 687.73 75.04 686.36 74.59 685.05 74.47 684.34 74.51 683.57 74.7 683.04 74.97 682.46 75.4 681.8 75.83 681.28 76.39 680.74 76.74 680.25 77.18 679.45 77.6 678.45 77.79 677.72 77.92 676.69 78.03 675.59 77.81 674.56 77.61 673.27 77.49 672.44 77.49 672 77.64 671.38 77.93 670.3 78.16 669.52 78.63 668.2 78.87 667.38 79.14 666.22 79.23 665.13 79.26 663.87 79.18 662.6 78.8 661.01 78.59 659.92 78.4 658.3 78.38 656.53 78.37 655.41 78.57 654.44 78.76 653.53 78.72 652.06 78.64 650.61 78.68 648.55 78.66 646.72 78.66 645.28 78.62 643.89 78.38 642.64 77.98 641.42 77.63 640.74 77.6 639.83 77.67 639.24 77.96 638.27 78.43 637.39 78.82 636.89 79.76 636.03 80.27 635.68 81.56 634.6 81.76 633.36 80.3 631.49 79.68 631.44 79.21 631.47 78.55 631.65 77.72 631.93 76.71 632.34 75.65 632.68 74.81 632.93 73.91 632.9 73.18 632.64 72.64 632.38 71.74 631.67 71.03 630.94 70.66 630.08 70.4 628.96 70.29 628.04 70.2 626.36 70.09 624.87 70.12 622.99 70.26 621.65 70.64 620.12 70.93 618.83 71.34 618 71.89 617.24 72.76 616.44 73.55 615.97 74.4 615.73 75.58 615.56 76.57 615.27 77.43 614.86 77.97 614.32 78.18 613.82 78.21 613.41 78.17 612.67 77.93 611.5 77.6 610.26 77.24 608.52 77.27 607.9 77.59 607.08 78.17 605.93 78.72 605.11 79.47 604.19 79.94 603.79 80.28 603.33 81.85 602.8 83.81 602.65 86.08 601.62 88.9 598.14 92.33 587.54 92.52 581.21 93.31 578.41 93.62 575.32 93.39 572.9 93.22 571.11 92.52 569.58 87.81 564.11 87.81 563.66 90.35 561.01 91.06 559.69 90.74 557.42 88.51 554.83 87.02 554.04 80.36 551.3 80.28 551.27 79.49 550.59 78.93 550.14 77.8 549.41 77 548.75 72.11 548.09 69.49 547.31 68.6 546.33 68.13 545.38 67.93 543.73 68.06 541.93 68.61 540.38 69.19 538.55 69.73 536.76 69.23 535.22 68.33 533.69 67.04 532.79 65.05 531.31 63.24 529.96 61.41 528.3 59.21 526.24 57.32 524.56 55.18 521.96 54.12 520.51 53.65 519.34 52.66 517.4 51.7 515.27 51.26 513.78 51.12 512.42 50.99 510.62 50.95 508.62 50.85 506.08 50.84 504.85 50.49 503.49 50.44 502.38 50.11 501.08 50.07 498.96 50.02 497.22 49.91 496.3 49.86 495.18 50.03 494.21 50.69 493 51.56 492.13 52.69 491.56 53.79 491.44 54.61 491.65 55.67 492.24 56.8 493.1 57.91 493.43 58.46 493.42 58.99 493.22 59.47 492.39 59.71 490.77 59.99 488.54 60.54 486.44 61.29 484.88 62.33 483.29 62.82 482.06 63.16 480.9 63.25 479.4 63.2 478.25 63.16 476.82 63.09 475.26 63.14 473.61 63.17 471.81 63.1 469.51 63.11 466.45 63.07 464.44 63.18 463.3 63.58 462.14 64.43 460.43 65.1 459.09 65.82 457.17 66.45 455.04 67.14 453.35 67.74 452.4 68.45 451.45 69.16 450.78 70.18 450.14 73.31 448.01 76.32 446.27 77.97 444.89 78.85 443.75 79.09 442.92 79.04 441.91 78.45 440.95 77.76 440.01 77.08 438.91 76.53 437.5 76.27 435.9 76.37 434.93 76.14 434.1 75.55 433.31 74.42 432.63 73.13 431.87 71.69 430.72 70.63 429.45 70.39 428.25 70.55 427.31 71.14 426.01 72.47 424.01 73.37 422.69 73.29 422.01 72.64 420.88 71.68 419.91 71.26 419 70.99 418.11 70.6 417.41 69.97 416.7 69.19 415.99 68.48 415.2 68.13 414.37 68 412.81 67.93 412.01 67.63 411.52 66.65 410.81 64.3 408.56 62.69 406.62 62.01 405.59 61.83 404.41 61.76 402.82 61.76 401.44 61.83 400.35 61.72 399.31 61.24 398.41 60.55 397.14 59.71 396.19 59.52 395.2 59.6 394.46 59.96 393.69 60.54 393.11 62.12 392.16 63.91 391.31 65.72 390.22 66.59 389.39 71.33 388.07 77.09 386.33 80.28 385.34 145.15 365.82 178.7 355.73 179.84 355.41 180.7 355.44 181.29 355.44 180.7 356.32 182.07 356.91 183.41 357.2 Z"/>
<path d="M 24.22 8.02 27.32 7.82 29.93 8.23 32.05 9.25 33.58 9.09 35.98 9.93 36.35 9.47 35.91 7.73 35.44 5.87 35.25 4.34 35.02 2.18 36.3 2.32 37.77 3.99 38.32 5.06 39.36 5.51 40.03 6.42 40.09 7.58 39.64 8.32 39.57 9.11 40.69 9.81 42.75 9.15 46.69 10.35 47.86 11.16 51.76 12.76 55.82 13.8 58.31 14.88 61.88 16.02 67.6 17.78 75.31 19.69 77.85 20.89 80.55 22.58 84.47 22.22 91.43 23.49 95.01 25.67 97.1 27.61 99.63 28.81 103.57 29.49 106.65 31.24 108.23 32.24 113.29 33.61 116.69 35.3 119.71 35.37 121.99 35.84 124.16 38.03 127.4 39.23 130.28 41.41 131.25 43.17 133.12 47.5 132.73 49.91 129.9 51.37 127.16 53.59 126.96 54.53 128.13 55.87 130.08 56.41 132.39 55.96 134.02 57.08 135.13 57.26 137.12 57.4 140.14 57.99 143.02 60.17 145.26 61.04 145.94 62.99 147.48 63.87 149.39 64.28 150.27 65.29 150.78 66.75 154.55 67.46 156.79 68.33 158.17 69.76 159.43 71.34 161.21 71.9 163.06 71.16 163.93 71.64 163.57 72.62 165.49 73.56 166.98 74.31 169.8 74.81 173.76 74.57 174.6 75.45 174.9 76.31 173 76.41 169.59 78.23 167.09 79.62 164.99 80.16 163.86 81.41 165.87 81.68 168.3 81.08 172.21 79.68 174.85 79.18 176.88 77.4 178.96 77.87 180.01 78.84 182.09 80.26 184.09 81.44 187.99 83.55 190.03 84.85 193.22 85.41 196.79 86.55 198.38 88.07 202.91 90.97 204.9 91.63 206.27 92.02 209.95 92.35 211.72 92.2 216.82 92.9 220.74 93.93 225.37 96.14 228.43 99.05 230.59 100.82 231.96 104 231.96 105.68 232.61 106.6 233.09 107.35 233.76 108.44 234.01 109.18 234 109.76 234.77 110.51 234.93 111.37 236.46 112.08 236.92 112.99 237.74 114.73 237.89 115.75 237.55 116.82 237.7 118.26 237.87 118.97 236.51 119.75 236.52 120.8 236.24 122.02 237 122.56 239.38 122.05 241.2 121.96 241.73 123.07 241.62 125.2 240.64 126.65 254.09 125.61 255.01 127.87 256.82 128.88 256.12 129.9 256.45 131.58 257.99 134.5 259.01 137.03 259.83 138.63 260.91 140.95 262.87 144.67 264.15 148.32 265.49 152.15 266.06 155.25 267.12 159.04 268.27 162.33 269.1 164.7 270.32 167.62 272.54 169.26 274.34 171.11 274.71 173.11 273.61 174.66 270.2 173.85 267.29 173.07 266.06 173.79 266.97 174.95 268.71 175.23 271.38 175.81 275 177.68 274.89 178.79 274.29 179.88 270.84 179.45 269.92 179.62 272.48 180.84 274.61 181.28 275.9 182.13 276.68 182.95 276.5 183.84 277.09 185.06 278.67 187.68 280.64 191.44 282.99 193.91 285.17 195.44 286.22 196.09 287.33 198.32 286.11 199.52 283.23 201.17 281.31 202.27 277.92 202.92 277.34 203.15 277.17 205.01 277.5 206.89 277.55 208.46 276.68 209.73 276.42 210.39 276.27 210.61 275.13 212.34 272.27 212.64 269.82 211.29 267.81 211.67 264.58 212.29 261.76 212.71 261.38 213.02 262.94 214.19 265.62 215.26 266.64 217.25 263.79 218.04 262.47 220.85 263.35 223.36 263.17 224.73 263.86 227.64 265.74 229.23 269.98 228.17 272.8 228.24 276.08 227.73 282.37 233.95 289.35 239.8 289.61 241.48 289.35 243.08 288.89 244.38 289.48 245.81 290.74 246.79 292.21 246.84 294.22 246.59 295.44 246.96 296.77 248.4 297.48 249.4 297.73 250.1 298.54 250.35 298.72 250.85 297.57 251.48 296.68 252.05 295.73 253.51 295.14 255.45 293.8 256.31 292.44 255.83 291.83 254.06 291.57 252.02 290.82 250.68 290.26 250.38 288.79 250.33 286.6 251.35 286 251.47 284.21 250.53 282.48 250.8 280.97 251.15 278.43 253.07 277.66 255.32 277.82 257.82 277.01 260.4 277.27 262.77 277.93 265.06 279.5 267.5 280.56 269.3 281.35 271.57 282.43 272.62 284.65 273.25 287.58 272.69 290.15 271.88 292.54 271 295.37 269.72 295.69 268.61 296.71 267.47 297.37 266.5 298.62 264.78 300.55 263.78 301.03 264.74 298.79 267.7 297.61 269.61 296.49 270.88 295.9 272.05 296.01 273.18 297.46 274.06 298.05 275.74 296.22 276.62 292.81 277.06 293.14 279.21 293.19 280.57 293.57 282.07 294.58 282.93 295.38 283.78 296.32 284.16 296.31 284.82 297.69 285.53 298.23 285.88 299.48 285.96 301.63 286.17 301.7 286.48 301.74 286.64 301.1 286.93 300.33 287.15 299.92 287.61 300.63 288.17 300.26 288.97 299.05 289.83 298.69 290.53 299.23 291.95 298.78 293.08 298.27 294.05 297.27 294.42 295.58 294.15 295.02 293.49 294.25 292.77 293.71 292.04 292.1 291.34 290.88 291.33 289.9 292.04 288.55 292.75 288.66 293.6 288.74 294.1 288.05 294.79 287.74 295.65 287.28 296.5 286.37 296.85 285.22 296.38 283.84 295.81 282.89 295.64 282.25 295.97 281.96 296.62 281.1 296.85 280.12 297.01 279.05 297.56 278.68 296.52 277.99 296.68 277.25 297.14 276.78 296.99 275.91 297.46 275.77 298.54 275.22 299.13 274.14 300.48 273.87 300.82 273.53 302.48 271.13 303.5 265.52 303.67 260.3 302.74 258.34 301.08 255.63 299.45 254.93 298.34 252.4 297.24 251.23 295.65 249.66 293.8 251.09 292.62 251.5 291.18 251.9 288.38 251.47 285.41 251.06 283.79 250.57 282.41 249.68 279.86 248.93 277.29 249.49 274.09 249.17 269.79 246.6 265.39 245.56 261.96 244.3 262.32 242.33 264.8 242.28 264.86 241.56 265.48 240.75 266.17 239.42 268.92 240.27 271.36 241.05 273.59 239.23 274.5 236.97 275.05 237.27 275.9 238.74 275.73 239.65 277.03 238.5 279.85 238.76 283.65 237.67 285.79 235.91 286.01 232.97 286.8 230.95 288.89 228.64 291.48 225.61 293.76 225.78 296 224.55 298.16 221.22 299.14 217.42 300.54 217.88 302.72 217.48 305.52 216.1 307.25 215.23 309.57 214.8 313.17 215.05 315.61 213.96 318.2 211.53 322.63 209.58 324.93 208.5 326.45 205.32 327.59 204.03 327.58 204.1 326.56 206.13 325.8 208.35 324.58 209.51 323.4 210.22 320.94 211.96 317.32 212.61 312.22 212.58 309.89 213.04 307.74 213.52 306.64 213.09 306.04 211.5 305.18 209.05 305.75 205.82 307.75 204.02 309.79 202.5 312.99 201.42 315.42 200.84 317.86 200.39 319.86 200.16 321.22 201.34 323.38 201.92 325.44 201.42 327.28 200.92 328.49 197.88 329.34 198.05 331.61 197.66 332.49 196.88 333.32 194.64 334.79 193.35 335.97 192.88 337.68 193.32 346.86 193 347.6 191.56 349.75 190.38 349.99 190.69 350.52 190.65 350.78 144.98 364.5 80.27 383.95 76.4 385.16 70.7 386.83 67.32 387.69 67.33 386.87 67.14 385.95 66.75 385.18 66.54 384.12 66.28 382.92 66.19 381.36 66.08 379.91 66.07 378.53 66.28 376.29 66.71 374.28 67.14 372.78 67.28 371.52 67.26 370.05 66.95 368.57 66.56 367.54 66.13 366.42 66.32 365.66 66.22 363.8 65.97 362.2 65.62 360.71 65.39 359.09 65.2 357.61 64.77 356.32 64.18 354.81 63.87 353.49 63.59 352.02 63.24 350.48 62.9 348.31 62.79 346.63 62.34 344.91 61.77 343.21 61.25 341.5 60.51 339.61 60.13 338 59.89 335.93 59.93 333.4 60.16 329.95 60.32 327.69 59.98 325.88 59.46 325.1 58.87 324.23 57.55 323.21 56.13 322.17 54.88 321.09 54.66 320.17 54.54 318.81 54.3 317.37 53.67 316.02 53.05 314.52 52.37 313.48 51.99 312.34 51.47 311.44 50.74 309.62 49.64 307.03 48.42 304.3 47.61 301.82 47.09 300.49 46.5 299.34 45.64 298.58 44.55 297.46 43.57 296.31 42.7 295.04 42.2 293.85 41.84 292.8 41.73 291.8 41.85 290.51 41.9 288.83 42.14 287.27 42.49 285.91 43.27 284.43 44.01 283.41 44.18 282.35 43.9 281.79 43.39 280.99 43.16 280.17 43.23 279.2 42.96 277.72 42.6 276.95 41.87 276.04 41.63 275.42 41.67 274.68 41.36 273.93 40.6 273.41 40.23 273.01 40.06 272.48 39.63 271.95 39.19 271.33 39.23 270.62 39.24 270.36 39.04 269.91 38.73 269.55 38.58 268.77 38.58 268.15 38.27 266.64 38.03 266.08 37.52 265.32 36.62 264.73 35.36 264.05 34.62 263.29 34.19 262.54 33.79 261.43 33.61 260.22 33.45 258.83 33.41 257.98 33.52 257.04 33.95 255.84 34.66 254.36 35.38 253.15 36.03 252.13 36.42 250.82 36.7 249.86 36.78 248.03 36.59 246.94 36.23 246.4 35.42 245.19 34.94 244.41 34.51 243.66 33.73 242.16 33.22 241.29 32.68 240.31 32.43 239.28 32.37 238.22 32.08 237.19 31.54 236.07 31.42 235.51 31.34 234.33 31 233.09 30.37 231.77 29.63 230.3 29.11 229.26 28.57 228.03 28.4 227.14 28.68 226.29 29.32 225.37 29.94 224.31 30.45 222.93 30.65 221.31 30.49 219.99 30.19 219.51 29.35 218.69 28.96 218.02 28.84 217.31 28.94 216.01 28.81 215.45 28.53 215.01 27.88 213.89 27.63 212.86 27.49 212.35 27.13 211.8 27.29 210.49 27.43 209.41 27.13 208.53 26.22 207.35 26.16 206.73 26.46 205.87 26.7 204.72 26.62 203.52 26.86 202.1 26.94 201.4 27.41 200.6 28.01 199.55 28.43 198.59 28.78 197.39 28.94 196.33 28.9 194.98 28.82 193.77 28.68 192.56 28.56 191.32 28.63 188.61 28.96 187.56 29.11 186.44 29.27 184.97 29.19 183.61 28.99 182.87 29.19 182.11 28.91 180.96 28.88 180.07 29.4 178.93 29.97 178.04 30.73 176.98 31.32 175.46 31.48 174.13 31.51 173.07 31.66 172.44 32.01 171.74 32.31 171.13 32.61 170.17 32.5 169.18 32.42 167.89 32.23 166.88 32.03 165.61 31.95 164.43 32.07 163.52 32.5 162.29 32.67 161.2 32.66 159.97 32.58 158.73 32.19 157.34 31.77 156.17 31.25 154.95 30.81 153.84 30.6 152.57 30.74 151.54 30.86 150.1 30.82 148.89 30.51 148.15 30 146.56 29.53 145.23 29.62 144.05 29.77 142.96 30.05 142.09 29.93 141.29 29.62 140.72 29.42 139.98 29.42 139.34 29.18 138.88 28.94 138.19 29.22 137.52 29.69 136.78 29.7 136.42 29.38 136.04 28.52 135.71 28.13 135.07 27.97 134.3 27.62 133.65 27.14 133.13 26.53 132.56 26.45 131.95 26.53 131.14 26.37 130.71 26.09 130.18 25.9 129.38 26.06 128.59 26.52 127.51 26.8 126.7 26.77 126.26 26.53 125.83 25.78 125.14 25.08 124.4 24.92 123.81 25.35 122.91 26.06 122.17 26.49 121.55 26.33 120.93 25.95 120.46 25.5 119.7 25.56 119.17 25.87 118.69 25.82 118.24 25.48 117.78 25.04 117.48 24.72 116.87 24.72 116.08 24.96 115.3 24.61 114.42 24.34 113.71 23.79 112.89 23.25 111.91 22.81 110.74 22.5 109.38 22.46 107.85 22.63 106.29 23.18 104.25 23.49 102.67 23.72 100.96 23.81 99.9 23.37 98.63 22.97 97.52 22.78 96.57 22.86 95.81 23.49 95.15 25.17 94.06 26 93.31 26.43 92.56 26.63 91.65 26.43 90.47 26.13 89.83 25.65 89.53 24.44 89.26 22.72 89.09 20.59 88.88 18.63 88.61 16.66 88.33 14.99 87.64 13.49 86.64 12.46 85.4 11.3 83.4 10.55 82.16 10.25 81.18 9.9 79.78 9.38 78.53 8.95 77.07 8.6 75.65 8.23 74.01 7.97 71.62 7.54 69.52 7.34 67.38 7.24 65.58 7.07 64.46 6.57 63.35 6.33 62.25 6.3 61.19 6.21 60.22 6.13 58.86 5.87 57.68 5.42 56.86 5.31 56.03 5.32 55 5.43 53.77 5.88 52.64 6.77 50.8 7.56 49.35 7.86 48.34 7.9 47.55 7.43 46.2 7 45.34 6.85 44.53 6.97 43.1 6.9 41.43 6.86 40.11 6.93 38.84 6.9 37.93 6.91 36.34 7.22 34.26 7.33 32.32 7.72 31.12 8.12 30.29 8.9 29.74 9.97 29.18 10.95 28.55 12.04 27.49 12.75 26.65 13.42 25.97 14.16 25.52 13.94 25.11 13.54 24.64 12.9 24.1 12.04 23.43 11.43 22.78 10.71 21.96 9.78 20.72 8.87 19.69 7.96 19.08 7.22 18.37 6.53 17.74 5.74 17.18 1 14.56 3.09 13.51 5.77 12.6 7.78 11.31 9.24 8.95 8.35 7.42 6.5 5.18 5.49 3.29 4.32 1.95 5.43 1.61 7.28 1.38 8.48 1.28 9.97 1 10.22 1.73 10.69 2.55 12.69 3.73 14.05 4.12 14.6 5.18 17.64 6.81 20.63 7.8 22.78 7.91 24.22 8.02 Z"/>
</g>
</svg>