<?xml version="1.0"?>
<svg xmlns="http://www.w3.org/2000/svg" version="1.2" baseProfile="tiny" width="800" height="365" viewBox="0 0 800 365" stroke-linecap="round" stroke-linejoin="round">
<g id="frenchmeadowsreservoir">
<path d="M 28.55 318.2 27.54 318.04 26.07 314.52 23.5 290.61 21.51 281.12 16.84 266.19 15.41 261.66 7.66 243.93 5.3 239.72 3.42 235.72 2.79 232.85 2.81 232.5 2.94 230.27 1.01 229.47 1 228.13 3.01 228.51 7.62 229.66 7.87 229.8 10.95 231.56 11.48 231.86 12.5 231.96 13.02 231.85 13.1 231.88 18 231.4 18.33 231.37 23.99 231.65 25.71 231.61 27.74 231.58 31.47 231.74 33.72 231.08 34.73 231.18 35.1 232.05 36.23 231.84 36.66 230.98 36.49 230.03 35.81 229.31 36.67 227.91 39.46 229.23 42.49 229.38 44.21 229.26 45.7 230.08 47.13 229.63 46.97 228.45 49.17 229.28 51.46 230.28 53.57 230.56 56.01 230.38 58.71 231.23 63.21 232.51 65.91 233.36 68.22 233.88 69.64 233.99 71.06 233.78 72.47 233.89 73.71 233.29 74.65 232.44 76.47 232.32 77.99 232.36 79.63 231.76 80.11 231.3 80.99 230.45 81.56 231.41 83.45 232.55 85.62 233.86 87.01 234.76 88.94 234.57 90.21 235.86 91.62 235.89 93.36 235.45 95.1 234.86 96.64 234.1 97.08 235.41 97.28 236.01 98.77 236.75 100.78 237.35 104.01 237.34 106.76 236.93 109.69 237.15 113.73 237.23 115.33 237.82 119.98 237.77 123.63 237.53 128.69 237.48 130.51 237.52 130.74 236.82 132.86 236.94 135.29 237 136.61 236.79 138.34 236.51 139.66 236.38 140.34 237.18 141.47 236.58 143.61 236.31 145.83 236.28 147.36 236 147.84 236.8 149.07 236.35 149.7 235.73 151.23 235.21 152.85 235.25 154.28 234.73 156.28 234.61 159.27 233.29 161.01 232.52 163.06 231.61 165.29 229.37 166.26 229.39 166.97 228.4 169.49 226.55 171.22 226.01 172.31 224.65 172.86 224.62 173.13 225.33 173.31 225.82 173.25 227.44 173.45 228.83 175.11 230.2 178.82 232.72 181.57 234.45 182.26 234.56 182.74 234.64 184.31 234.9 185.41 235.8 187.62 236.24 189.63 236.6 189.69 236.53 191.09 236.99 193.46 237.48 195.72 237.62 195.56 237.33 196 236.74 197.11 236.69 199.5 237.92 200.99 238.51 202.6 238.7 206.34 238.94 208.78 238.52 212.03 238.12 215 237.32 215.02 236.61 216.12 237.03 216.91 237.59 217.9 238.17 218.81 238.19 220 238.69 221.53 238.48 223.05 238.28 224.08 237.99 225.4 237.86 226.51 237.8 227.72 237.83 228.95 237.46 229.96 237.49 231.08 237.35 232.1 237.06 233.23 236.69 234.55 236.4 235.58 235.87 236.81 235.59 238.13 235.38 239.56 234.94 240.9 234.41 241.91 234.28 243.25 233.68 244.58 233.23 246.21 233.03 247.63 232.98 249.25 232.94 250.46 232.89 252.81 232.47 254.44 232.11 255.78 231.43 257.21 230.91 258.74 230.62 260.17 230.26 261.6 229.9 263.24 229.38 264.78 228.55 266 228.34 267.94 227.99 269.19 226.91 270.18 227.48 272.02 227.05 273.86 226.62 276 225.96 277.86 225.13 280.42 224.16 282.98 223.43 285.64 222.62 288 221.57 289.83 221.45 290.78 220.13 293.01 220.1 295.05 219.67 296.39 218.91 299.36 217.95 301.1 217.52 303.44 217.17 305.49 216.43 307.94 215.62 309.7 214.55 311.45 213.64 313.08 213.52 313.85 211.8 315.17 211.7 316.8 210.33 317.16 210.02 317.77 209.76 320.18 210.05 321.19 210.31 321.81 209.69 324.35 209.59 325.99 209.07 327.22 208.63 329.05 208.19 330.29 207.59 330.42 206.65 331.51 206.41 331.64 205.6 330.91 204.37 330.85 203.11 331.15 202.28 331.3 201.86 331.27 200.92 333.78 202.23 335.41 202.79 335.72 202.84 336.27 202.71 336.27 201.48 336.69 201.11 337.84 200.11 338.95 200.37 339.66 200.23 339.89 199.36 341.42 199.16 343.05 198.72 344.27 199.37 345.67 198.68 345.48 198.62 346.64 197.3 348.36 194.58 350.18 194.62 350.12 193.52 352.85 193.92 353.24 193.98 356.53 192.4 358.8 191.34 361.56 190.61 363.82 189.64 364.13 189.65 367.42 188.32 367.8 188.16 368.09 188.05 370.76 187.97 370.91 187.97 371.29 187.32 371.3 187.31 372.9 186.85 373.46 186.69 374.22 186.7 374.57 186.71 375.76 186.65 375.85 186.64 375.85 186.6 375.77 185.5 377.21 185.06 377.38 185.01 377.91 184.46 378.49 183.97 380.63 183.46 382.79 182.56 384.76 181.35 387.04 179.66 388.8 178.94 390.46 177.65 392.03 176.94 393.84 175.55 395.27 174.73 397.27 174.25 399.66 173.16 400.95 172.1 403.17 171.64 403.75 169.7 404.97 168.53 407.36 167.55 409.88 166.74 412.26 165.94 413.9 165.4 414.15 165.45 415.69 164.78 415.69 164.64 416.53 163.86 417.37 163.01 419.94 162.96 422.28 163.18 422.89 162.79 424.61 163.8 426.16 163.78 427.28 163.12 427.46 162.38 428.41 162.28 429.63 163.11 431.41 162.75 432.24 162.03 433.02 161.01 434.22 160.18 435.75 160.44 437.02 160.07 437.72 158.94 438.57 157.81 439.61 157.49 440.6 156.43 442.09 155.94 442.71 154.94 443.1 154.31 443.79 153.69 444.81 153.77 445.52 154.42 445.35 155.1 445.32 156.13 445.95 157 446.57 157.87 447.06 158.74 448.66 159.24 450.34 159.45 452.25 159.55 454.09 159.41 455.85 159.45 457.98 159.5 459.82 159.25 460.57 158.98 461.87 159.53 462.77 159.03 467.48 158.85 468.46 158.07 469.88 157.36 472.65 156.16 472.87 156.16 473.61 155.29 473.88 154.97 475.43 154.27 476.79 153.21 477.94 151.92 479.4 150.35 480.86 150.39 482.31 149.16 483.69 149.59 485.13 148.25 485.91 146.95 487.27 146.06 488.75 145.63 490.31 145.27 492 145.19 493.4 145.53 495.09 145.2 496.44 145.58 497.44 145.25 498.95 145.72 499.3 145.87 501.24 145.62 501.4 145.34 502.75 144.68 503.86 144.42 504.15 144.57 504.86 144.41 505.12 144.1 506.61 143.62 507.79 143.31 508.49 142.46 509.53 141.91 510.51 141.36 513.32 140.74 515.44 141.18 516.64 141.09 517.2 140.37 519.07 139.5 519.7 139.38 521.67 137.43 522.59 137.6 523.38 137.07 524.01 136.46 524.43 135.13 525.5 134.39 525.99 132.73 524.9 132.18 526.11 131.07 527.45 130.72 527.6 130 527.64 128.91 527.99 127.37 529.34 126.6 529.81 126.32 531.3 124.79 534.34 124.85 534.91 124.87 538.16 124.51 541.3 124.24 545.62 123.19 547.58 123.5 547.75 123.53 547.57 124.42 547.53 124.62 549.03 126.84 549.83 128.68 551.71 129.38 553.64 130.76 555.47 131.42 557.21 131.05 559.16 130.52 561.92 130.3 564.39 130.57 566.97 130.41 569.11 130.98 571.19 130.58 572.07 131.67 574.46 131.65 575.93 132.19 577.55 132.36 579.23 131.54 581.34 131.87 583.05 130.27 585.71 130.4 588.3 129.81 590.81 128.86 592.39 128.47 594.85 129.45 596.01 129.91 597.76 129.66 599.03 130.12 599.89 131.85 600.85 133.16 602.64 134.49 605.21 134.48 608.41 134.98 610.89 134.96 613.47 134.73 615.21 134.84 616.83 135.74 618.3 135.84 619.47 136.37 620.35 137.32 621.66 136.7 623.43 135.95 625.12 135.2 627.34 134.68 630.41 133.53 631.69 133.16 634.04 132.32 634.33 132.09 635.31 130.43 635.36 130.24 637.45 128.85 637.26 128 638.23 127.39 640.04 126.38 640.99 125.54 642.28 122.77 643.39 120.15 645.25 117.11 646.13 115.56 644.73 113.67 646 112.95 648.07 112.86 651.05 111.69 652.24 111.09 652.63 110.37 654.06 109.79 656.3 108.77 658.04 108.55 660.1 108.29 660.3 107.35 659.96 106.49 660.74 105.36 662.13 105.1 663.12 103.05 663.88 101.55 664.29 101.29 664.68 100.63 664.34 99.86 664.9 98.11 664.4 96.81 665.12 95.49 665.56 94.97 665.64 93.89 665.66 93.87 666.9 92.54 666.68 91.1 666.99 90.11 668.12 89.35 668.81 87.93 669.51 86.51 670 85.35 670.01 85.31 669.23 84.07 668.07 83.12 666.43 82.8 668.14 81.33 669.29 79.85 670.2 77.51 670.3 74.94 671.3 75.02 672.21 74.72 673.37 73.86 673.68 72.86 673.94 70.87 674.37 69.16 677.07 68.22 678.97 68.83 681.75 68.25 683.63 66.93 684.06 65.29 685.03 63.95 685.36 62.46 687.03 61.99 687.13 61.81 687.42 61.29 688.37 60.59 690.51 59.45 691.77 57.5 693.23 56.43 696 55.97 697.02 52.74 698.34 51.32 698.51 49.7 698.1 47.52 698.05 47.26 698.02 46.35 697.96 44.54 695.63 41.48 694.03 39.87 694.9 37.93 696.85 34.68 695.8 33.42 693.37 31.22 695.2 26.39 693.58 25.45 695.71 22.49 696.69 21.48 699.33 18.75 699.46 18.69 699.59 18.18 700.81 17.46 700.85 16.35 701.61 15.34 701.99 14.7 702.34 14.67 703.55 14.55 705.9 13.4 707.59 11.66 709.94 9.48 713.21 7.98 715.53 6.63 718.32 5.49 720.63 4.24 723.28 3.64 726.85 3.72 729.38 3.22 730.85 2.23 732.64 2.08 734.32 1.75 736.7 2.17 738.62 1.85 740.38 2.63 742.23 4.25 744.19 5.97 745.47 7.11 747.04 6.59 748.95 6.35 750.38 6.48 751.4 7.99 753.21 7.38 755.39 6.59 757.93 5.53 760.11 4.74 761.71 3.57 761.16 2.16 762.14 1.44 763.35 1 765.26 1.14 766.29 2.27 767.84 2.31 768.71 1.4 769.91 1.05 771.08 1.73 770.76 3.95 772.05 4.63 771.65 5.83 772.81 6.79 772.84 7.35 772.85 8.93 772.21 9.94 771.81 11.23 773.69 12.02 775.28 10.94 777.07 10.79 778.42 9.98 779.88 9.18 780.72 8.92 781.74 10.52 782.52 11.84 785.5 12.09 788.26 11.78 792.41 12.74 796.3 13.64 797.85 13.86 797.9 13.88 798 13.91 798.16 13.97 798.19 13.98 798.67 14.15 799 14.91 798.6 15.92 798.06 16.55 797.73 16.92 796.05 17.26 794.16 16.66 792.49 16.62 791.05 16.96 788.54 17 786.38 17.32 784.34 17.55 782.31 17.79 780.27 18.11 778.22 18.53 776.42 18.96 774.36 19.75 773.02 20.56 771.41 22.19 769.92 23.65 767.85 24.72 765.32 25.41 763.38 26.2 761.44 27.18 759.17 27.32 756.64 27.72 755.21 27.69 755.64 29 755.2 31.23 753.62 32.03 752.15 33.2 751.26 34.67 750.13 36.13 749.12 37.79 748.57 39.73 748.13 41.95 748.54 43.72 747.53 45.19 746.98 47.13 747.58 50.49 747.59 52.47 746.96 53.38 745.01 53.81 744.29 54.81 744.79 55.66 746.27 56.16 747.88 56.77 748.74 57.72 748.27 58.53 747.65 59.09 746.44 59.71 747.13 60.94 746.94 62.22 745.13 62.64 744.83 63.69 746.72 64.07 748.01 65.5 748.43 67.24 750.15 68.1 750.11 69.38 752.01 70.35 751.83 71.28 752.9 74.67 752.97 76.76 752.34 77.68 752.43 79.19 752.09 81.26 752.51 82.27 752.54 82.37 752.84 83.43 752.5 85.06 750.61 86.6 748.65 87.41 748.14 88.76 747.86 89.51 746.89 89.77 745.09 90.44 744.08 91.33 743.72 92.61 745.49 94.7 747.38 98.22 749.67 102.57 751.68 105.01 751.81 105.26 752.19 106.03 753.07 107.12 752.06 109.68 752.56 111.05 751.47 113.24 750.19 115.58 749 117.98 747.8 120.75 746.34 122.86 745.36 124.7 743.72 126.74 742.04 129.93 741.61 131.7 740.04 134.53 738.84 137.01 736.46 139.54 735.36 141.8 733.63 143.91 732.37 145.89 730.35 148.2 728.07 150.23 726.74 151.63 725.6 152.54 725.34 154.75 723.08 156.13 720.06 158.43 719.15 160.77 720.09 162.51 718.86 163.62 719.18 164.92 718.8 165.13 717.59 164.48 717.54 164.45 716.16 164.64 714.76 165.25 713.27 165.86 711.7 165.97 710.95 166.31 710.02 166.86 709.53 167.57 709.51 170.57 709.27 172.14 707.85 173.26 707.7 174.9 707.01 176.17 705.6 177.07 704.57 177.76 702.6 178.79 700.61 180.4 699.38 181.44 696.78 182.32 693.27 182.74 690.22 183.39 686.51 184.31 680.97 185.19 677.27 185.96 673.92 187.03 670.13 187.81 667.16 188.67 664.67 188.83 662.35 189.43 659.95 189.87 657.25 190.82 656.02 191.79 655.16 192.85 654.2 193.83 653.7 195.1 653.83 196.54 654.41 198.2 655.47 199.29 656.71 200.61 657.39 202.06 658.17 203.36 658.58 204.73 658.63 205.88 659.13 207.18 658.71 208.74 657.4 209.29 656.08 209.1 655.03 208.95 653.14 207.83 651.43 207.01 650.27 206.12 648.46 205.22 645.36 204.65 642.43 204.37 638.66 204.58 636.45 204.6 634.77 205.35 633.91 206.4 631.85 207.36 630.07 208.32 628.18 209.93 626.66 211.18 624.78 212.36 623.07 214.04 621.73 215.58 621.12 217.07 621.41 219.23 620.32 218.84 617.84 218.86 615.64 218.88 612.18 220.38 609.37 222.11 607.19 223.92 604.17 226.22 599.54 229.76 596.24 231.98 593.32 233.99 589.68 235.63 587.23 237.36 582.56 239.55 579.57 241.06 579.15 242.34 579.02 243.55 579.96 245.22 580.11 246.3 581.81 247.62 583.48 249.52 583.53 250.67 581.48 251.48 579.69 252.66 577.51 254.69 575.45 255.71 574.02 257.11 573.24 258.46 572.9 260.1 571.23 260.63 568.29 260.78 565.59 261.58 563.33 263.32 561.44 264.78 560.8 267.06 559.85 268.11 556.33 268.89 553.35 270.11 550.64 271.2 547.85 272.14 546.09 272.67 543.76 273.62 542.25 274.66 540 276.12 538.12 277.08 535.9 277.6 534.85 278.65 533.47 281.27 532.03 283.03 530.7 284.29 530.29 285.42 528.6 286.39 526.6 286.41 526.31 286.41 521.88 286.96 519.91 288.13 518.55 290.03 517.57 291.94 517.03 293.93 515.51 295.55 513.85 298.23 511.29 300.54 510.07 301.22 508.1 302.33 506.3 303.72 503.76 305.45 501.32 306.9 499.24 308.43 496.41 308.15 493.64 308.52 491.98 308.63 490.68 309.03 489.17 310.21 487.66 311.47 486.78 312.81 486.17 314.37 484.97 316.56 484.31 317.76 482.36 318.22 479.33 318.37 476.49 318.16 472.7 318.65 468.5 318.2 464.11 317.6 459.83 316.65 456.81 316.44 453.42 316.15 449.96 315.43 446.55 315.64 443.89 315.51 440.95 315.52 438.58 315.04 436.54 315.71 432.84 316.34 430.19 316.21 426.97 316.21 423.28 316.78 420.23 317.35 416.69 318.56 414.02 318.79 410.28 319.57 408.48 320.16 406.51 320.68 404.95 321.47 402.64 322.49 401.49 323.22 399.02 324.3 396.25 324.87 394.09 326.34 392.6 327.32 390.01 329.59 387.68 331.18 385.67 333.09 384.62 334.46 381.42 336.36 378.96 337.17 376.89 338.47 373.44 340.9 373.25 341.31 372.58 342.73 369.42 342.78 366.43 342.35 364.83 343.05 362.49 345.17 353.16 348.59 348.9 350.71 342.67 352.54 337.73 353.79 333.6 354.44 329.64 354.48 326.34 353.91 323.63 354.59 321.07 355.52 317.72 356.31 315.35 356.5 313.4 357.94 312.07 359.76 311.36 359.16 309.41 357.52 306.97 356.44 304.13 356.38 301.45 356.58 300.32 356.67 296.88 355.73 295.51 354.34 290.81 353.25 286.56 352.55 282.17 351.71 278.51 352.25 275.04 352.29 269.38 351.31 263.74 349.83 259.84 348.51 256.09 347.32 252.01 346.37 248.26 345.18 244.54 343.12 242.81 342.96 239.86 341.42 237.22 340.38 234.71 339.58 230.49 338.51 227.22 336.96 224.4 336.4 221.06 336.94 218.84 337.02 216.92 337.84 215.93 339.05 214.79 339.89 212.39 340.7 210.81 340.66 209.34 341.86 204.29 341.75 202.56 341.47 199.07 341.88 195.41 342.42 190.95 343.43 187.77 344.1 183.49 344.38 179.36 345.03 169.22 345.67 160.66 346.34 156.72 345.89 152.3 345.79 148.33 346.44 143.88 347.09 140.04 348.36 138.09 349.79 136.62 351.24 136.39 353.21 136.8 354.94 137.21 356.67 138.55 359.04 140.68 361.31 141.52 363.13 141.71 363.55 139.79 364 136.21 362.69 136.1 362.66 133.07 361.88 130.76 360.35 127.78 359.55 125.1 359.49 122.21 360.66 120.43 361.85 118.34 362.92 116.26 363.49 114.07 362.95 113.9 362.89 111.88 362.28 110.83 360.78 111.2 359.19 109.67 357.92 107 357.49 103.53 357.05 101.14 357.61 99.18 358.22 98.91 358.3 97.64 358.4 95.48 356.87 95.92 353.31 95.43 351.7 94.55 349.83 93.36 347.59 91.99 346.08 91.08 345.36 90.37 344.84 87.85 343.5 84.72 341.81 80.35 339.23 77.29 338.05 76.47 338.23 73.5 337.18 71.19 335.1 68.25 333.86 64.2 332.17 61.23 331.24 57.81 329.69 55.79 328.66 53.91 328.12 53.06 328.05 51.81 327.44 47.99 325.85 44.89 323.99 41.17 321.93 38.55 320.03 34.33 318.83 28.66 318.33 28.55 318.2 Z"/>
</g>
</svg>