<?xml version="1.0"?>
<svg xmlns="http://www.w3.org/2000/svg" version="1.2" baseProfile="tiny" width="800" height="630" viewBox="0 0 800 630" stroke-linecap="round" stroke-linejoin="round">
<g id="pineflatlake">
<path d="M 175.68 629 135.46 605.46 135.73 605.18 136.84 603.97 138.6 601.68 139.55 600.16 140.1 598.84 139.71 597.68 139.21 596.38 138.38 594.67 137.45 593.21 136.34 591.83 134.19 589.32 134.57 588.07 134.96 586.78 134.46 586.06 133.03 585.31 131.92 584.76 130.76 584.07 129.33 582.83 127.89 581.62 127.12 580.84 126.89 579.9 125.9 578.99 125.46 578.47 125.57 577.76 125.57 577.75 125.79 577.37 126.73 576.43 127.34 575.16 127.45 574.25 127.67 572.95 128.28 571.98 129.44 570.88 129.99 569.75 130.15 568.09 130.04 566.74 130.04 565.11 129.38 563.15 128.44 561.39 127.34 560.06 125.96 558.99 124.79 558.27 124.08 557.44 123.98 556.65 123.97 556.58 124.08 554.9 124.08 552.66 123.75 550.79 122.92 548.86 122.42 547.7 121.26 546.62 119.99 545.68 118.66 544.61 117.5 543.45 117.17 542.01 116.73 540.47 116.51 539.2 116.23 537.98 115.79 536.96 115.24 536.16 114.41 535.61 113.36 535.22 112.75 535.06 111.82 534.75 111.36 534.12 111.26 533.98 111.26 533.51 110.93 532.3 110.43 531.61 109.71 530.64 109.49 529.29 109.71 528.21 109.38 527.22 109.11 526.36 108.94 525.51 108.94 524.32 108.83 523.3 108.22 522.14 107.23 520.84 105.9 519.63 104.19 518.66 102.53 517.67 100.93 516.57 100.32 515.71 100.16 515.16 99.61 514.44 98.67 513.72 97.07 512.9 94.8 512.12 93.25 511.46 92.15 511.05 90.44 510.91 88.78 510.74 87.12 510.41 86.07 510.11 84.19 509.91 82.76 509.42 81.54 509 80.05 508.29 78.61 507.68 76.4 507.29 74.8 507.15 74.14 506.93 73.04 505.69 71.76 504.73 70.33 504.01 68.5 503.87 67.45 504.12 66.24 504.67 65.08 505.06 63.59 505.28 62.04 505.69 60.94 506.3 60.38 506.77 59.17 507.04 57.9 507.1 56.35 507.48 55.41 507.95 54.42 508.31 53.48 508.15 52.21 507.95 50.77 508.09 48.29 508.12 48.29 507.21 48.12 506.68 48.23 505.72 48.45 504.53 48.73 503.26 48.73 502.1 48.51 501.17 47.84 500.09 47.57 498.82 47.51 497.3 47.18 496.06 46.63 495.04 45.41 494.02 43.31 492.86 41.32 492.14 39.5 491.62 38.23 491.06 37.57 490.48 37.44 490.02 37.4 489.88 37.02 489.13 36.08 488.5 34.81 487.86 33.87 487.17 33.65 486.5 33.65 486.48 33.15 485.02 31.94 483.36 30.28 482.32 28.62 481.74 27.46 481.63 26.52 481.51 25.97 481.13 25.75 480.6 25.64 479.75 24.75 478.48 23.87 477.68 23.32 476.85 22.88 475.58 22.1 474.7 20.94 474.04 19.4 473.12 18.23 472.24 17.35 471.11 16.13 469.9 13.98 468.52 11.77 467.44 9.89 466.86 8.73 466.28 7.3 465.31 6.03 464.29 4.92 463.19 3.82 461.92 3.38 460.9 3.54 460.18 3.95 459.58 4.04 459.46 4.42 458.5 4.15 457.34 3.37 456.59 2.1 455.3 1.28 454.47 1.05 454.22 1 453.94 1.28 453.64 1.66 453.59 2.16 453.59 2.66 453.59 3.37 453.5 4.15 453.34 4.87 452.7 5.47 452.07 6.03 451.62 6.63 451.4 7.35 451.32 8.51 451.1 9.18 450.47 9.29 449.86 9.07 449.39 8.73 448.59 8.73 447.98 9.56 447.6 10.83 447.27 12.43 446.88 14.2 446.35 15.58 445.36 16.58 444.45 17.46 443.7 18.84 442.44 20.11 441.11 21.05 439.84 21.33 438.82 21.33 437.63 20.94 436.28 20.61 435.29 20.83 434.38 21.16 433.33 21 432.17 20.72 431.26 20.61 430.62 20.94 430.07 21.49 428.91 22.21 427.31 22.71 425.54 22.82 423.83 22.65 422.65 22.16 420.94 21.88 419.61 22.21 418.31 22.87 417.15 23.76 416.96 24.42 416.82 25.14 416.52 25.53 415.67 26.13 414.48 26.41 413.18 26.69 412.44 27.02 411.64 27.24 410.48 27.24 408.32 27.29 406.56 27.02 404.62 26.69 403.85 25.86 403.3 25.14 403.11 24.59 402.94 24.31 402.53 24.2 401.81 24.42 401.29 24.59 401.12 25.36 400.49 25.75 400.1 26.52 399.99 26.91 400.07 27.73 400.02 28.18 399.38 28.29 398.44 28.01 397.39 27.29 396.21 25.47 394.52 24.59 393.94 24.2 393.31 24.42 392.81 24.75 392.59 25.19 392.18 25.36 391.63 25.14 390.8 24.59 389.47 23.43 388.12 21.55 386.35 19.67 384.67 17.35 383.04 15.25 381.66 14.09 380.95 13.59 380.06 13.54 379.32 13.7 378.49 13.71 377.3 13.37 376.17 13.37 375.4 13.37 374.51 13.1 373.55 12.43 372.56 12.54 372.09 13.04 371.89 13.81 372.17 14.31 372.67 14.64 373.55 14.64 374.07 14.92 374.9 15.47 375.89 16.19 376.81 16.85 377.55 17.52 378.1 18.51 378.52 20 378.85 21.16 378.85 22.49 378.71 23.59 378.6 24.75 378.41 25.69 378.02 26.63 377.5 27.02 376.97 27.24 376.5 27.29 375.81 27.29 375.32 27.24 374.68 26.91 373.99 26.41 373.41 25.64 372.39 25.36 371.95 25.19 371.67 25.14 371.42 25.36 371.31 25.64 371.15 25.97 370.98 26.3 370.65 26.91 370.65 28.01 371.04 29.34 371.81 30.17 372.56 31.44 373.41 32.38 374.1 33.42 374.65 34.14 374.96 34.92 375.15 35.3 375.23 35.08 375.78 34.92 376.37 34.92 377.08 34.97 378.3 34.81 379.29 34.48 379.95 33.98 380.64 33.31 381.58 33.2 382.35 33.98 383.13 34.7 383.62 35.47 384.62 36.13 385.31 37.02 385.53 37.85 385.75 38.51 386.38 39 387.32 39.39 388.31 39.72 389.09 40.28 389.47 40.61 390.22 40.88 390.99 41.71 391.96 42.6 392.59 43.64 393.12 44.47 393.94 45.08 394.33 46.02 394.58 46.57 394.94 46.79 395.57 46.85 396.35 47.18 397.23 47.35 397.78 47.07 398.86 46.96 400.04 46.85 400.96 46.96 402.36 47.29 403.16 47.84 403.99 48.67 404.85 49.22 405.23 49.39 405.76 48.95 406.34 48.51 407.11 48.12 408.27 48.23 409.32 48.29 410.05 48.34 410.61 48.51 411.61 48.23 412.22 47.57 412.68 46.63 413.54 46.24 414.29 46.35 415.47 46.46 417.18 46.63 418.15 46.9 418.84 47.07 420.25 47.35 421.71 47.84 422.73 48.78 423.59 49.67 423.72 50.55 424 50.77 424.91 50.77 425.85 51.32 426.84 52.32 427.81 53.09 428.11 53.86 428.31 54.53 428.5 54.97 429.35 55.08 430.29 54.97 430.9 54.53 431.34 54.36 432.25 54.58 433.33 54.58 434.74 54.64 435.73 55.08 436.58 55.8 437.3 56.9 437.63 58.28 437.5 59.67 437.3 60.44 437.25 60.94 437.97 61.38 438.88 62.32 439.7 63.03 440.2 63.59 440.2 64.58 439.21 64.75 438.93 64.97 438.65 65.08 438.21 65.35 437.94 65.74 437.74 66.46 437.74 67.12 438.24 67.9 438.6 68.95 439.04 70.44 440.34 71.76 441.75 73.14 442.88 73.92 443.21 74.69 443.26 75.74 442.85 76.46 442.19 76.79 441.47 77.01 440.42 76.73 439.4 76.29 438.13 75.46 436.94 74.69 436.12 74.36 435.62 74.52 435.26 74.91 435.12 75.68 435.15 76.68 435.18 77.78 434.93 78.72 434.57 79.88 434.07 80.65 433.91 81.65 434.32 82.04 434.68 83.2 434.98 84.86 435.26 85.96 435.09 86.79 434.79 87.23 434.43 88.06 434.35 88.83 434.76 89.94 434.79 91.32 434.24 92.26 433.71 92.81 433.47 93.64 433.74 94.96 434.35 96.12 434.68 97.28 434.87 98.44 434.96 99.38 434.98 100.27 434.93 101.1 434.65 101.87 434.1 102.26 433.41 102.31 432.89 102.42 431.92 102.64 431.64 102.97 431.62 103.53 431.78 104.52 431.62 105.29 430.98 105.9 430.29 106.84 429.58 107.17 429.02 107.23 428.31 107.5 427.51 108.17 427.04 109.33 425.79 109.82 425.13 110.49 423.7 110.93 422.62 111.37 421.9 112.09 421.41 113.14 420.63 113.36 420.44 114.3 420.36 115.24 420.19 116.29 419.58 116.84 418.76 117.06 417.38 116.62 416.55 115.79 415.61 115.18 415.06 115.07 414.67 115.84 414.34 117.17 413.76 118.72 412.74 119.77 411.66 120.26 411.17 121.15 410.06 121.98 409.15 123.3 408.38 124.46 407.39 125.13 406.59 125.62 405.59 125.62 404.63 125.57 403.19 125.34 401.73 125.35 401.12 125.4 400.29 125.57 399.63 125.79 399.13 125.95 398.69 126.56 398.66 127.33 398.94 128.16 399.38 129.21 399.8 129.76 399.85 130.54 399.49 131.03 399.22 131.53 399.13 131.61 399.18 132.09 399.49 133.02 400.13 133.85 400.38 135.4 400.24 136.61 399.96 137.55 399.96 138.77 400.49 139.54 401.04 140.15 401.4 141.42 401.67 142.8 401.73 143.85 402.03 144.79 402.47 146.11 402.78 147.39 402.86 148.55 402.39 149.87 401.59 150.26 401.4 150.65 401.2 151.2 400.87 151.59 400.74 151.97 400.96 152.41 401.67 152.74 402.12 153.41 402.56 154.24 402.61 155.4 402.39 157.05 402.17 158.27 401.87 159.15 401.37 159.81 400.93 160.31 400.65 161.14 400.76 162.52 401.43 163.46 401.89 164.95 402.31 166.17 402.67 167.05 403 167.38 403.38 167.44 404.27 167.55 405.48 167.44 406.17 167.05 407.88 166.83 408.99 166.72 410.26 166.72 411.31 167.05 412.13 167.27 413.04 167.27 414.48 167.27 415.69 167.44 416.74 167.82 417.6 168.6 418.4 169.98 419.12 171.25 419.61 171.86 419.83 172.8 419.97 173.68 420 174.9 419.83 176.28 419.39 177.44 418.76 178.32 418.07 179.15 417.1 179.65 416.19 179.7 414.73 179.32 413.32 178.82 412.02 178.49 411.47 178.04 410.53 177.66 409.57 177.66 409.01 177.77 408.74 178.05 408.57 179.15 408.27 179.87 407.97 180.25 407.91 181.64 408.52 182.19 408.96 182.58 409.32 183.73 409.54 184.62 409.43 185.45 409.54 186.5 409.95 187.22 410.53 187.71 411.06 188.54 411.66 189.92 412.08 191.96 412.24 193.84 412.33 197.32 412.96 198.76 412.99 199.75 412.91 200.75 412.69 201.69 412.33 202.68 411.69 203.07 410.78 203.29 409.82 203.01 408.82 201.91 408.27 199.59 407.44 198.04 406.64 196.22 405.79 194.78 405.1 193.51 404.54 192.46 404.49 190.47 404.76 187.88 405.21 185.94 405.54 184.07 405.95 182.58 406.2 181.25 406.01 179.43 405.26 177.99 403.96 176.88 403.11 175.5 402.14 174.56 401.2 173.57 399.93 172.63 399.3 171.47 398.86 169.98 398.97 168.93 399.6 168.1 400.21 166.72 400.51 164.62 400.29 163.46 399.85 162.74 399.08 162.69 398.2 162.74 397.34 162.52 396.62 162.52 395.82 163.24 394.88 163.85 394.52 164.73 394 166.39 393.26 168.1 393.26 169.37 393.2 169.92 392.95 170.2 392.46 170.2 391.77 170.14 391.3 170.31 390.94 170.59 390.86 171.08 391.1 171.23 391.13 172.08 391.27 173.24 391.16 174.18 391.02 174.79 390.86 175.12 390.55 175.12 390.08 175.06 389.36 175.28 388.95 175.81 388.85 175.89 388.84 176.66 388.87 177.33 389.23 178.38 389.36 179.15 389.53 180.25 389.89 181.3 390.03 182.46 390.08 183.68 390.11 184.67 389.94 185.06 389.67 185.45 389.2 185.94 388.65 186.34 388.47 186.38 388.45 187.44 388.81 188.6 388.81 189.87 388.51 190.03 388.58 190.25 388.67 191.36 389.23 192.24 389.34 193.95 389.28 195.83 389.01 196.82 388.93 196.88 388.92 197.82 389.2 199.92 389.42 204.84 390 205.72 390.14 207.05 390.22 208.43 389.89 209.75 389.25 211.08 388.4 212.24 387.74 213.45 386.94 214.5 386.14 214.72 385.31 214.67 383.71 214.61 383.27 214.34 382.41 213.73 381.33 213.07 380.01 212.29 378.85 212.02 378.21 212.02 377.8 212.07 377.44 212.35 377.3 212.79 377.5 213.34 378.02 213.95 378.38 214.39 378.57 215.66 379.18 217.15 379.54 218.31 379.82 219.53 380.26 221.58 381.11 222.57 381.55 224 382.13 225.17 382.52 226.16 382.8 227.15 382.91 227.87 382.91 228.2 382.82 228.7 382.69 229.03 382.44 229.36 381.91 229.64 381.33 229.75 380.64 229.75 380.09 229.75 379.26 229.8 378.38 229.97 377.5 230.08 376.48 229.97 375.32 229.86 374.74 229.42 374.02 229.09 373.61 228.59 373.16 228.48 372.83 228.48 372.59 228.59 372.39 228.87 372.31 229.36 372.45 230.03 372.61 230.41 372.67 230.8 372.5 231.24 372.14 231.46 371.56 231.46 371.04 231.52 370.6 231.52 370.38 231.52 370.13 231.74 369.85 232.07 369.85 232.68 370.29 233.73 371.29 234.39 371.92 235.44 372.75 236.76 373.52 237.87 374.16 239.58 375.21 241.24 375.46 242.07 375.62 243.12 375.87 244.44 376.12 245.11 376.15 245.82 376.12 246.43 375.84 246.82 375.46 246.99 374.71 246.87 374.21 246.65 373.41 246.16 372.45 245.93 371.95 245.82 371.4 245.86 371.3 245.94 371.1 246.27 370.82 247.04 370.49 247.48 370.1 248.03 369.33 248.37 368.78 248.59 368.34 248.64 368.09 248.75 367.87 248.97 367.59 249.8 367.62 250.74 368.22 251.62 368.86 252.34 369.27 253.28 369.96 254.72 371.21 256.1 372.28 257.37 373.19 258.48 373.58 259.69 373.83 260.74 373.8 261.57 373.52 262.45 372.64 263.06 371.48 263.28 370.79 263.5 370.05 263.67 369.6 264 369.05 264.22 368.72 264.44 368.58 264.71 368.54 264.94 368.5 265.21 368.58 265.71 369.27 266.21 369.99 266.65 370.35 267.53 370.79 268.86 371.34 270.57 371.67 272.28 371.7 274.16 371.59 275.16 371.26 276.1 371.18 276.23 371.2 276.93 371.34 277.81 371.76 278.69 372.48 279.36 373.14 279.96 373.72 280.85 374.3 281.51 374.57 282.28 374.54 283.22 373.97 283.77 373.3 284.16 372.39 284.49 371.67 284.88 370.82 285.65 369.85 286.15 369.14 286.7 368.42 287.64 367.67 288.03 367.15 288.14 366.79 288.14 366.24 288.36 365.91 288.58 365.81 289.02 365.6 290.07 365.38 291.07 365.16 291.73 364.91 292.01 364.86 292.17 364.94 292.17 365.47 292.17 366.54 292.23 368.09 292.56 369.05 293.17 370.54 293.83 371.45 294.55 371.81 296.59 372.28 297.81 372.39 299.52 372.53 300.57 372.72 300.64 372.79 301.12 373.25 301.18 373.99 301.18 374.99 301.4 375.87 302 377.08 303.05 378.44 304.05 379.32 305.54 380.18 308.08 380.92 311.06 381.69 311.51 381.72 312.28 381.69 313 381.42 313.71 381.25 314.6 380.92 315.1 380.07 315.15 379.15 314.93 378.46 314.71 377.88 314.92 377.11 314.93 377.08 315.7 376.73 316.92 376.17 317.97 375.26 318.63 374.43 319.07 373.72 319.9 372.83 320.4 372.31 320.84 371.59 320.84 370.71 320.95 369.88 321.23 369.33 321.29 369.34 322.61 369.49 324.71 370.21 325.57 370.62 325.87 370.76 326.59 371.57 326.81 372.92 326.97 374.27 327.41 375.43 328.35 377.11 329.02 377.88 329.57 378.46 330.45 379.02 331 379.29 331.78 379.57 332.55 379.62 334.27 379.71 335.87 379.79 337.03 379.82 338.13 379.76 339.07 379.65 340.34 379.6 340.73 379.67 341.22 379.76 342.27 380.34 342.88 380.89 344.04 382.22 344.93 383.96 345.7 385.34 346.36 386.19 347.08 387.02 348.46 388.23 350.01 389.09 351.28 389.72 352.33 390.11 353.38 390.47 354.32 390.61 354.93 390.42 355.59 389.78 356.08 388.51 356.25 387.19 356.25 386.28 356.08 385.47 355.92 384.9 355.92 384.04 356.03 383.1 355.7 382.05 355.42 381.42 355.15 381.03 354.76 380.31 354.54 379.51 354.54 378.49 354.26 377.5 353.77 376.51 353.38 375.79 353.27 374.82 353.38 374.32 353.71 374.08 354.25 373.91 354.87 373.72 356.42 373.28 357.47 373.19 358.21 373.42 358.63 373.55 359.51 374.02 360.84 374.27 362.16 374.27 363.32 374.33 363.82 374.4 364.09 374.44 365.58 374.88 367.13 375.15 368.02 375.1 368.87 374.83 369.07 374.77 370.83 374.35 372.33 374.02 373.24 373.64 373.32 373.61 374.04 373.17 374.54 373.08 374.81 373.3 374.78 373.45 374.76 373.58 374.42 374.35 373.98 375.51 373.65 376.89 373.43 378.33 373.54 380.4 373.76 382.49 373.98 384.18 374.59 385.45 375.47 386.58 376.52 387.54 378.95 389.23 380.17 389.89 380.21 389.92 381.77 390.99 383.59 392.1 384.92 392.87 386.08 393.28 387.79 393.67 389.34 393.92 389.48 393.93 390.67 394.06 391.94 394.25 392.76 394.36 393.27 394.59 393.54 394.72 394.03 395.22 394.14 395.82 393.98 396.36 393.81 396.93 393.32 398 392.71 398.61 391.83 399.52 391.22 400.21 390.67 401.21 390.66 402.09 391.22 402.92 391.82 403.39 392.99 403.94 393.81 404.38 393.86 404.44 394.31 404.93 394.59 405.87 395.08 406.92 395.42 407.83 395.86 408.55 396.58 409.02 398.07 409.38 399.17 409.65 400.29 409.9 400.39 409.93 400.99 410.2 401.38 411.06 401.6 412.52 401.6 413.71 401.71 415.03 402.16 415.89 402.32 416.33 402.98 416.58 403.65 416.36 404.59 416.05 405.19 415.81 405.58 415.56 406.02 415.06 406.41 414.07 406.52 413.43 406.74 412.77 407.13 412.08 407.52 411.34 407.79 410.73 407.9 410.34 408.23 410.18 408.67 410.18 409.13 410.46 409.39 410.62 410.33 411.09 411.27 411.36 413.59 412.08 414.36 412.41 415.36 412.96 416.24 413.96 417.18 415.06 418.06 415.75 419.5 416.3 420.72 416.63 421.65 416.77 422.81 416.77 423.7 416.66 424.58 416.39 425.47 415.94 425.96 415.48 426.19 414.98 425.97 414.18 424.53 412.69 423.92 412.16 423.15 411.09 422.43 410.42 421.82 409.82 420.72 408.91 420.44 408.41 420 407.86 419.89 407.38 419.89 407.36 419.89 406.56 420.33 405.79 420.7 405.52 421.1 405.24 421.88 404.99 422.76 404.21 423.59 403.5 423.97 402.86 424.12 402.78 424.64 402.5 425.47 401.87 425.86 401.34 426.19 401.31 426.63 401.26 427.57 401.18 429.22 400.96 430.38 400.57 432.26 399.97 433.48 399.61 434.08 399.25 434.69 398.34 435.3 397.56 435.58 397.34 436.23 397.34 436.29 397.34 437.18 397.4 438.34 396.85 439 396.63 439.42 396.69 439.5 396.71 440.77 397.15 442.09 397.37 443.64 397.34 444.8 397.2 446.24 396.68 447.01 396.32 447.51 396.07 447.7 396.09 447.89 396.1 449.06 396.52 450.33 397.01 451.48 397.37 453.81 397.78 455.13 398.12 457.23 398.31 458.39 398.06 459.72 397.37 460.88 396.6 462.03 395.77 463.07 395.34 463.31 395.25 464.63 395.08 466.29 394.61 468.11 394.03 469.6 393.4 470.82 392.35 471.98 391.3 472.53 390.47 472.7 389.59 472.7 388.48 472.53 387.96 472.7 386.61 472.7 385.97 472.7 385.2 472.88 384.79 473.08 384.34 473.86 383.68 474.69 382.83 475.68 381.83 476.12 380.43 475.96 379.43 475.46 378.63 474.02 377.31 472.92 376.59 472.09 375.98 471.92 375.49 471.98 375.02 472.07 374.91 472.31 374.63 472.59 374.38 473.47 374.13 474.07 374.14 474.39 374.15 474.85 374.16 478.66 374.46 484.08 374.6 485.95 374.8 486.67 375.29 487.72 375.76 489.55 376.37 490.71 376.87 491.87 377.22 493.74 377.36 495.24 377.44 497.06 377.91 498.99 378.22 500.54 378.3 502.36 378.36 503.41 378.49 504.24 378.6 504.68 378.69 505.51 379.05 506.56 379.46 507.33 379.85 508.49 380.29 509.49 380.48 510.76 380.51 512.03 380.62 513.63 380.54 515.23 380.45 515.9 380.4 516.83 380.09 517.66 379.65 517.88 379.32 518.1 378.69 517.77 377.67 517.55 376.95 517.5 375.68 517.66 374.6 517.77 373.91 517.77 372.64 517.33 371.26 516.67 370.21 515.79 369.36 514.4 368.09 513.8 367.09 513.41 365.91 513.19 364.78 512.14 363.89 511.25 363.62 510.21 363.37 509.21 363.32 508.49 363.18 507.5 362.51 506.78 361.85 505.9 361.13 504.68 360.31 503.36 360.03 502.14 360.03 501.2 360.17 500.26 360.53 499.6 360.83 498.88 361.44 498.16 362.13 497.79 362.24 497.11 362.43 496.4 362.38 495.51 362.29 494.68 362.24 493.52 361.91 492.69 361.63 491.53 361.63 490.26 361.33 489.33 360.75 488.17 360.28 487.61 360.11 487.28 360.03 486.56 359.92 485.73 359.89 484.41 360.09 482.81 360.17 481.7 360.14 480.76 359.64 479.16 358.68 478 358.02 477.23 357.02 476.4 356 475.96 355.2 474.85 353.66 473.25 352.74 471.65 352.27 469.27 351.94 467.56 351.86 466.23 352.03 464.96 352.25 463.75 352.19 462.53 352.08 461.93 352.41 461.26 352.96 460.96 353.16 460.71 353.32 460.05 353.41 458.94 353.46 458.22 353.99 457.78 354.51 457.4 355.23 457.35 355.25 456.51 355.7 455.68 356.14 454.52 356.97 453.99 357.15 453.97 357.16 453.25 356.77 452.37 356.03 451.1 355.28 450.32 354.84 449.27 353.82 447.84 352.91 446.35 352.33 445.35 352.05 444.91 351.53 444.58 351.09 443.92 350.65 443.03 350.67 442.15 350.87 440.88 351.28 439.72 351.53 438.67 351.45 436.9 351.36 435.41 351.58 434.42 351.75 433.47 351.75 433.42 351.75 433.42 351.72 433.42 351.59 433.42 351.45 433.53 350.95 433.97 350.56 434.19 350.25 434.64 349.6 435.41 348.58 436.24 347.58 437.34 346.31 438.17 345.32 438.67 344.02 438.89 342.89 438.89 341.43 438.67 340.19 438.56 338.92 438.17 338.01 437.23 337.29 436.4 337.01 435.24 336.74 434.36 336.13 433.03 335.96 432.37 336.27 431.43 336.99 430.71 337.76 429.67 339 428.84 339.99 426.63 342.12 425.14 343.36 424.19 344 424.18 344 423.59 344.05 422.54 343.77 420.72 343.17 419.06 342.45 417.4 341.9 416.52 341.9 416.02 342.23 415.74 342.7 415.14 343.5 414.81 343.88 414.2 344.66 413.42 345.51 412.87 345.79 412.42 345.67 412.21 345.62 411.65 345.3 411.27 345.07 410.11 344.55 409.06 344.55 408.34 344.68 407.07 344.41 406.13 344.11 404.86 343.53 403.7 343.17 402.65 342.92 401.82 342.84 400.88 342.89 400.05 342.81 399.83 342.57 399.61 342.34 399.39 341.62 399.45 341.15 399.6 340.65 399.67 340.43 400.06 339.52 400.22 338.53 400.55 337.51 400.77 336.76 400.77 335.77 400.22 334.78 399.45 334.14 398.67 333.65 397.57 333.37 396.69 333.29 395.75 333.31 394.97 333.26 393.81 332.95 392.76 332.6 391.77 332.27 390.39 332.07 389.12 332.18 388.57 332.38 387.96 332.38 387.63 331.99 387.68 331.59 387.74 331.08 387.96 330.25 388.01 329.28 387.96 328.18 387.63 327.38 387.3 327.02 387.08 324.95 386.69 323.08 386.13 321.75 385.53 320.89 384.31 319.82 382.6 318.47 381.94 317.83 381.88 316.48 381.66 314.93 380.89 313.83 380.28 313.47 379.4 313.28 377.24 313.86 376.08 314.44 374.7 315.37 372.73 317 372.6 317.11 372.1 317.28 371.44 317.03 371.06 316.26 370.61 314.74 370.22 312.75 369.62 311.24 368.84 309.61 368.02 308.36 367.35 307.98 366.08 307.54 365.82 307.39 365.47 307.21 365.25 306.74 365.58 305.3 365.97 304.31 366.74 302.57 367.02 301.6 366.41 301.05 365.64 300.55 364.42 300.14 362.93 299.78 361 299.59 360.95 299.56 359.89 299.04 359.4 298.18 359.12 297.08 358.95 295.78 358.46 294.45 357.57 293.74 356.25 293.68 355.09 293.19 354.32 292.41 353.54 291.94 352.44 291.81 351.82 291.73 351.17 291.64 351.61 290.84 352.38 289.65 353.15 288.3 353.54 287.42 353.6 285.46 353.16 284.71 352.22 283.99 351.5 283.5 351.72 282.53 351.5 282.15 350.6 281.33 350.56 281.29 350.12 280.9 350.12 280.43 350.67 279.47 350.67 278.39 350.23 276.82 349.62 274.91 348.96 273.67 348.24 272.57 347.41 271.74 346.31 271.41 344.76 271.24 343.11 271.01 342.83 270.97 342.49 270.61 342.55 269.95 342.99 268.37 343.05 267.08 342.66 265.67 341.94 264.18 340.89 262.22 339.95 260.54 339.62 259.6 339.4 257.91 339.95 257.06 340.78 256.7 341.33 256.31 341.5 255.27 341.33 254.52 340.34 253.64 338.9 252.86 337.3 251.7 337.14 251.01 336.97 249.77 336.36 249.3 335.75 248.78 333.88 247.37 332.88 246.07 332.38 244.83 331.45 243.98 330.01 243.09 328.79 242.16 327.36 241.77 326.47 241.6 325.53 241.77 324.59 242.02 323.32 242.98 322.94 241.99 322.49 241.37 322.28 241.08 321.23 240.25 320.73 239.51 322.11 239.59 323.33 239.04 324.82 238.29 326.03 237.44 326.03 236.17 325.42 234.9 324.71 233.43 324.32 232.11 323.55 231.06 322.94 230.45 322.46 230.35 321.89 230.23 321.45 229.82 321.78 229.13 321.89 228.08 321.45 226.92 320.4 225.84 319.68 224.57 319.07 223.36 318.52 221.93 318.13 221.24 317.36 220.46 316.97 220.11 316.42 219.61 316.31 219.14 316.64 218.5 316.53 217.95 316.25 217.07 316.2 216.6 316.64 216.41 317.91 216.63 318.48 217.14 318.52 217.18 319.46 218.25 320.07 219.33 320.92 220.12 321.12 220.3 321.56 221.15 322.22 222.2 322.99 223.06 324.71 224.11 325.87 224.55 327.74 226.04 329.84 227.83 334.26 231.47 335.97 232.5 337.25 233.16 338.68 233.65 339.84 234.29 341 235.39 341.53 235.81 343.82 237.63 345.92 239.28 347.63 240.25 349.4 241.05 351.66 241.99 353.49 242.6 355.2 242.4 356.41 242.07 357.08 241.63 357.24 241.05 356.97 239.37 356.14 236.88 355.31 235.5 354.48 234.57 354.25 234.16 353.76 233.32 353.16 231.86 352.6 230.37 352.11 229.24 351.61 228.77 350.73 227.69 350.34 226.98 349.73 226.37 348.17 225.34 348.02 225.24 347.91 224.74 348.35 224.16 348.79 223.08 349.18 222.12 349.29 220.21 349.12 219.03 348.46 218.03 347.63 216.9 346.69 216.19 345.64 215.55 344.59 215.16 343.78 214.98 343.49 214.92 343.21 214.56 343.54 214 344.15 213.43 344.76 212.62 344.98 211.85 345.31 210.5 345.14 209.87 344.65 208.87 343.82 207.55 343.21 206.28 342.92 205.43 342.88 205.31 342.88 204.48 343.43 203.49 343.99 202.28 344.26 201.59 344.21 200.7 343.71 199.87 343.04 199.16 342.11 198.66 340.89 198.27 339.51 198.16 338.24 198 337.47 198.27 336.08 198.66 335.21 198.55 335.2 198.55 334.7 198.19 334.48 197.56 334.87 196.34 335.09 195.21 335.09 194.46 334.7 193.66 333.88 192.84 333.83 192.71 333.71 192.39 334.43 191.71 335.81 190.57 336.36 189.86 336.36 188.34 336.14 187.59 335.03 186.68 334.37 186.1 334.3 185.73 334.21 185.25 335.03 184.39 336.25 183.37 336.73 183.15 337.02 183.01 338.4 182.74 338.85 182.24 340.17 180.64 340.89 179.67 342.05 179.09 342.82 178.4 343.1 177.88 343.21 176.69 342.49 175.86 341.66 175.23 340.01 174.32 338.07 173.38 337.85 172.88 336.8 172.19 335.64 171.48 333.65 170.65 332.55 170.32 330.29 170.29 328.55 170.82 328.3 170.9 327.74 170.98 327.63 170.76 327.91 168.33 327.52 167.83 326.81 167.09 325.76 166.29 326.2 165.85 327.13 165.46 328.13 165.4 329.23 165.54 331.44 165.35 333.54 165.18 335.2 164.74 337.91 163.78 338.68 163.28 338.68 161.87 338.24 161.15 337.63 160.44 336.69 159.39 335.59 158.48 334.26 157.62 334.05 157.31 333.99 157.21 334.26 156.71 335.03 156.24 336.36 155.91 337.41 155.55 337.85 155.28 337.85 154.56 337.74 153.84 337.19 152.21 336.91 151.22 335.97 149.76 335.03 148.6 334.37 147.63 334.47 147.09 334.48 147.05 335.14 146.77 336.69 146.17 338.9 145.53 340.23 145.09 341.39 144.37 342.33 143.44 342.49 142.44 342.38 141.61 341.33 140.45 339.95 139.07 338.46 138.11 337.74 137.34 337.43 136.77 337.3 136.54 337.13 135.32 337.3 134.63 338.07 133.42 338.63 132.48 338.62 131.07 337.91 130.3 336.97 129.64 335.75 128.67 335.64 128.09 335.68 128 335.97 127.32 336.58 126.32 336.69 125.47 336.58 124.25 336.14 122.43 335.31 121.52 334.43 120.86 332.77 120.42 331.77 120.42 330.67 120.75 329.45 121.85 328.49 122.67 328.35 122.79 327.13 122.74 324.82 121.22 323.32 120.36 322 120.06 320.06 120.17 318.79 120.78 318.41 120.94 318.17 120.79 317.47 120.33 316.64 119.51 316.42 118.49 316.09 117.69 317.8 117.46 320.17 116.97 322.22 116.44 323.49 115.62 324.32 115.26 324.38 115.28 326.25 115.97 329.01 116.91 331.61 117.71 334.15 117.8 336.69 116.55 338.41 116.2 339.78 115.37 340.95 114.21 341.61 113.93 342.82 114.07 343.6 114.73 344.15 115.81 344.15 116.61 343.76 117.82 343.6 118.87 343.82 120.09 344.76 120.86 345.7 121.03 347.24 120.83 348.9 120.17 349.73 119.53 350.01 118.79 350 117.99 349.56 117.05 348.62 115.97 347.24 114.87 346.69 114.32 346.14 113.05 346.08 112 346.17 111.99 348.9 111.53 352.33 110.79 354.53 110.34 355.8 109.9 357.02 109.32 358.18 108.16 359.28 107.39 360.22 107.09 361.05 106.73 361.77 106.15 362.6 105.02 363.82 105.96 365.14 106.84 366.96 107.34 368.9 107.72 370.22 108.36 371.22 109.19 371.94 109.93 372.93 110.65 374.75 111.45 376.91 112.53 378.4 112.53 381.33 111.95 381.36 111.97 381.77 112.3 382.26 113.57 382.87 114.07 383.87 114.4 386.24 114.68 387.4 114.82 387.42 114.82 388.56 115.26 389.05 115.77 389.34 116.06 389.94 117.08 391.21 117.27 392.26 117.58 393.31 118.21 394.36 119.4 394.97 119.95 396.63 120.5 398.12 121.33 399.06 122.32 399.6 122.99 400.11 123.62 400.77 123.84 402.04 123.98 402.98 124.12 404.03 124.64 405.91 125.55 406.74 125.8 408.56 125.99 410.33 126.54 410.85 126.82 411.98 127.43 413.25 128.01 414.36 128.73 415.35 130.05 415.61 130.33 416.51 131.32 418.56 132.92 420.93 134.85 421.41 135.26 422.59 136.29 424.52 138.03 425.35 138.98 425.96 139.68 427.01 140.43 428.28 140.9 429.44 141.09 430.27 141.01 431.37 140.84 432.37 140.81 433.47 141.03 433.86 141.17 435.96 141.89 438.33 142.11 438.88 142.26 439.33 142.39 440.6 143.24 442.09 144.1 444.41 145.23 446.46 146.11 446.66 146.18 449.05 146.91 451.09 147.63 453.75 148.6 453.83 148.62 455.57 149.15 458.44 149.73 459.77 149.98 460.21 150.08 462.81 150.67 464.96 150.97 466.15 151.12 467.17 151.25 467.49 151.37 468.5 151.74 470.6 152.85 472.64 153.4 473.8 153.48 475.02 153.04 476.62 152.27 477.67 151.61 478.27 150.39 478.66 149.04 478.93 148.85 479.43 148.51 480.48 148.16 482.58 147.6 483.96 147.13 485.12 146.17 485.95 145.37 486.49 145.05 486.56 145.01 487.11 145.01 487.78 145.42 488.71 145.34 489.65 144.71 490.48 143.69 490.87 142.53 490.87 141.37 490.48 140.81 489.38 140.21 489.43 140.11 489.87 139.3 490.54 138.03 490.76 136.45 490.76 135.21 490.48 134 490.26 133.64 490.12 133.41 490.09 133.36 490.32 132.98 491.48 132.15 492.19 130.96 492.42 130.13 492.47 129.03 492.84 128.86 493.19 128.7 494.13 128.45 494.74 127.62 495.29 126.85 495.52 126.73 495.62 126.68 496.34 126.63 497.28 126.96 498.16 127.21 498.88 127.26 499.48 127.07 500.04 126.6 500.37 125.66 500.65 124.75 501.05 124.74 501.75 124.72 502.69 125 503.57 125 504.46 124.59 505.4 123.4 505.95 122.08 506.17 120.59 506.56 120.36 507.11 120.5 507.42 120.83 507.77 121.19 508.99 122.21 510.42 122.88 512.41 123.51 513.85 124.09 514.62 124.53 515.89 125.75 517.49 127.24 518.99 127.9 519.87 128.06 520.31 127.9 520.53 127.48 520.53 126.99 520.42 126.35 520.42 125.19 520.7 124.72 521.47 124.37 523.18 123.84 526.17 123.1 528.21 122.77 529.87 122.52 531.03 121.94 531.8 121.36 531.97 120.5 531.86 119.84 531.3 118.76 530.36 117.38 528.93 115.7 527.6 114.15 526.17 112.44 525.12 111.01 524.4 109.82 524.39 109.67 524.34 108.66 524.78 108.03 525.72 107.28 527.6 105.77 528.82 104.77 529.7 103.86 529.87 102.76 529.76 101.51 529.48 100.63 528.93 99.94 527.6 98.92 526.72 98.37 525.34 97.93 522.96 97.62 520.59 97.24 519.59 96.55 519.59 96.11 519.64 96.03 519.98 95.5 521.14 95 522.63 94.39 524.29 93.54 524.73 93.01 525.06 92.21 525.28 90.94 525.5 90.2 525.89 89.78 526.17 88.76 526.06 87.08 525.5 86.34 524.73 85.78 523.62 85.15 521.75 84.35 519.92 83.63 517.49 83.19 516.44 83.11 514.57 83 512.91 82.5 511.14 81.67 509.21 80.57 507.83 79.85 506.83 79.49 505.78 79.68 504.46 80.04 503.81 79.98 503.63 79.96 502.91 79.44 501.81 79.21 501.03 78.75 500.09 77.61 499.15 76.87 498.05 76.21 497.22 76.07 496.3 75.96 496.02 75.92 495.84 75.9 495.29 75.52 495.4 74.99 496.34 74.16 497.06 72.81 497.55 71.65 497.61 68.92 497.33 68.2 496.78 67.24 496.17 66.52 494.9 65.31 493.63 64.04 492.58 63.32 491.53 62.96 490.53 62.79 490.52 62.79 490.37 62.77 490.26 62.3 490.48 61.72 490.48 60.59 489.87 59.67 489.53 59.14 488.99 58.32 488.49 57.83 488.1 57.51 488.05 57.47 488.05 56.31 488.05 56.25 488.77 55.62 490.04 54.9 490.81 54.29 491.03 53.85 490.87 53.13 490.76 52.67 490.87 51.75 491.31 50.95 491.97 50.48 492.03 49.71 491.09 48.94 489.82 48.47 487.83 48.39 487.11 48.06 486.28 47.17 484.9 46.15 484.07 45.63 483.3 45.54 482.19 45.38 481.03 44.94 479.54 44.11 478.16 43.86 475.9 43.47 474.41 43.49 473.47 43.5 471.37 43.5 470.98 42.95 471.37 42.32 471.75 41.85 472.42 41.57 473.47 40.8 473.85 40.41 473.85 39.89 473.58 38.87 473.02 38.01 471.97 36.88 470.98 35.44 470.21 34.28 469.82 33.7 468.66 32.85 467.17 32.41 466.28 32.05 465.07 31.69 463.13 31.41 461.81 31.22 460.1 31.17 458.66 30.75 458 30.14 457.39 28.96 457.01 27.77 456.12 27 455.29 26.5 453.91 26.39 452.64 26.53 451.92 26.89 451.38 26.94 451.09 26.97 450.32 26.78 449.77 25.98 449.05 24.54 448.33 23.71 446.95 22.8 446.34 22.33 446.12 21.56 446.45 20.57 447.01 20.73 447.94 21.12 448.77 21.17 450.49 20.51 451.63 20.51 451.7 20.51 452.97 20.46 454.46 20.07 455.57 19.74 456.78 18.58 457.5 17.89 458.44 17.78 459.38 17.59 459.82 16.76 459.71 16.12 458.38 15.08 458.55 14.5 458.94 13.92 459.76 12.98 460.1 12.4 459.99 10.83 459.49 8.67 458.44 7.04 457.45 5.94 456.23 5.28 454.35 4.81 452.86 4.67 449.49 4.7 448.22 4.86 446.45 4.75 444.02 4.42 442.48 3.87 440.43 2.88 439.93 2.32 439.93 1.5 440.27 1 440.76 1 443.3 3.04 444.96 3.04 446.89 2.52 447.61 2.6 448.88 3.12 450.54 3.24 451.7 3.12 454.85 2.74 455.66 2.75 456.45 2.77 458.38 2.99 458.88 3.04 460.7 3.57 461.48 4.27 461.59 4.37 461.7 6.13 462.03 7.82 462.75 10.25 462.78 10.33 463.58 12.43 463.52 14.75 463.52 14.77 463.74 17.2 464.13 18.8 464.52 21.81 464.68 22.86 465.07 25.34 465.35 26.42 466.01 27.44 467.33 28.27 471.48 28.29 473.08 27.8 475.34 26.64 476.39 26.67 476.5 27.11 476.52 27.19 476.72 28.02 477.28 28.68 479.1 29.98 479.98 31.14 481.48 32.41 483.02 33.1 485.12 33.73 486.67 33.93 487.33 34.39 488.05 34.89 490.7 35.8 493.74 35.89 494.9 35.55 496.44 34.7 497.22 34.48 498.56 34.3 499.1 34.23 501.58 34.23 502.36 34.09 503.57 34.2 504.58 34.43 504.68 34.45 505.62 35.25 505.78 35.86 505.01 36.08 503.68 36.8 502.74 37.68 501.97 38.51 501.47 39.33 501.47 40.58 502.41 41.68 503.3 42.51 503.52 43.45 503.41 45.16 503.85 46.21 505.4 47.75 507.05 49.32 508.54 49.46 510.2 49.35 511.8 49.41 512.85 49.63 513.68 50.21 513.94 50.55 514.23 50.95 514.79 52.14 515.17 53.27 516.11 53.77 517.05 54.04 518.43 54.02 519.07 54.29 519.26 54.38 520.31 55.09 521.69 55.43 524.07 55.45 524.73 55.34 526.44 55.31 527.44 55.59 527.46 55.61 528.6 56.78 530.09 57.58 531.03 57.96 532.41 57.99 533.24 57.52 534.56 56.61 535.67 55.29 536.5 53.6 536.99 54.07 537.32 54.9 537.66 55.73 538.15 56.23 539.86 56.86 542.35 57.61 543.9 58.3 545.5 59.43 546.77 60.83 547.02 61.25 547.21 61.58 547.32 62.32 547.71 63.54 547.71 64.14 547.71 64.45 547.16 65.44 546.99 66.52 547.16 67.18 548.59 68.37 549.42 69.91 550.47 71.46 550.88 71.95 551.41 72.59 552.13 74.19 553.18 76.21 553.25 76.28 554.56 77.61 556.66 78.72 557.96 79.37 558.15 79.46 558.65 80.07 558.71 80.25 558.81 80.57 558.59 81.12 558.59 81.73 558.98 82.72 558.98 83.33 558.75 83.65 558.43 84.1 557.49 85.26 557.05 85.78 556.88 86.39 557.05 87.58 556.81 88.48 556.71 88.85 555.72 90.12 554.95 91.28 554.84 91.94 554.67 93.87 554.39 94.63 554.34 94.78 553.79 95.42 553.01 95.97 551.69 96.49 550.75 97.1 549.59 98.01 548.81 99.31 548.65 100.99 549.59 101.43 551.13 101.43 553.62 101.13 557.38 100.71 559.81 100.47 562.24 99.97 563.56 99.47 564.34 99.67 565.5 100.66 564.45 101.24 562.96 102.73 561.69 104.36 561.19 104.99 560.53 107.37 560.3 107.89 560.31 108.88 560.86 109.41 562.29 110.32 563.79 110.98 564.94 111.97 565.2 112.42 565.88 113.6 566.27 114.4 566.24 114.52 565.88 115.92 565.83 117.33 566.05 118.96 566.82 121.05 567.65 121.88 568.54 123.07 568.37 123.59 568.54 124.31 567.49 124.78 566.99 125.58 566.83 126.76 566.82 126.77 565.88 127.51 564.94 128.04 564.69 128.39 564.17 129.11 562.96 129.94 562.13 130.74 561.58 131.93 561 132.44 560.86 132.56 559.14 133.25 558.04 133.72 557.05 134.3 556.21 135.43 556.11 135.57 555.33 135.99 553.29 136.43 552.29 136.87 551.63 137.17 550.92 138.08 550.58 139.02 550.43 140.16 550.42 140.26 549.09 140.54 548.26 140.7 547.43 141.51 545.33 144.84 544.65 145.48 544.56 145.56 543.73 145.84 542.3 145.92 540.8 146.39 539.92 147 539.09 148.18 539.09 149.21 538.9 149.68 538.76 150.01 538.15 150.42 536.94 150.7 536.39 151.63 536.07 152.4 536.06 152.43 535.12 152.9 533.96 153.07 532.79 153.46 532.02 154.17 530.2 156.05 529.95 156.21 529.54 156.46 528.38 156.63 527.44 157.46 526.94 158.23 526.51 158.59 526.28 158.78 525.06 159.25 523.79 160.47 523.38 160.72 522.96 160.99 521.69 161.27 520.59 162.07 518.54 163.83 518.2 164.04 516.5 165.1 515.18 165.76 513.35 166.56 511.58 167.28 510.37 167.72 508.93 168.52 507.77 169.19 506.94 170.12 506.89 170.62 506.56 171.12 506.56 172.22 507.72 172.75 509.37 173.08 510.04 173.35 510.3 173.6 510.81 174.07 511.36 175.26 512.85 176.33 514.07 177.3 515.51 178.02 516.83 178.54 517.21 178.81 517.61 179.09 517.27 180.12 517.16 181 517.27 181.52 517.88 181.99 518.82 181.94 519.92 181.66 521.08 181.22 521.69 181.25 522.91 181.76 523.4 181.96 525.28 182.27 527.05 182.1 527.77 181.74 528.6 181.22 529.65 181.3 529.78 181.36 530.27 181.58 531.03 181.91 533.35 182.41 535.83 182.6 537.55 182.57 539.09 182.3 540.81 181.41 541.64 181.25 542.38 181.12 544.4 180.78 547.16 180.36 547.91 180.42 549.2 180.53 550.25 180.81 550.28 180.83 550.97 181.33 551.08 181.83 551.02 182.39 550.92 183.26 551.36 183.76 552.74 184.01 554.01 184.2 554.95 184.64 555.83 185.28 556.71 185.58 558.15 185.39 559.7 184.53 561.19 183.59 561.3 183.55 562.96 182.88 563.95 181.96 564.36 183.15 564.39 183.37 565.06 183.76 566.33 184.04 567.6 184.26 567.75 184.81 567.76 184.84 567.65 186.9 568.09 188.09 568.21 188.34 568.81 189.42 569.48 190.33 569.86 191.16 570.42 192.95 571.24 194.77 572.18 196.59 572.74 197.39 573.79 198.11 575.33 198.11 576.33 197.75 578.31 196.48 580.25 194.94 580.8 194.8 581.05 194.87 581.74 195.07 583.34 196.07 584.23 196.7 585.22 196.56 586.99 195.32 587.87 195.1 588.42 195.18 589.17 195.89 589.31 196.01 590.14 196.45 592.07 196.65 593.34 196.9 593.71 197.28 593.78 197.36 593.95 198.06 594.06 199.52 594.39 200.1 595.38 200.37 596.66 200.43 598.48 199.85 599.36 199.88 600.52 200.12 602.18 200.18 603.73 200.1 604.94 199.49 605.71 198.61 606.38 197.14 606.82 197.14 607.54 197.31 608.64 198.08 610.3 198.5 611.19 199.08 611.68 199.41 612.51 199.82 613.78 199.77 615.77 199.49 617.76 200.07 619.86 199.96 621.29 199.9 622.23 200.01 623.01 200.21 625.66 200.87 627.04 201.23 627.92 202.14 628.03 202.25 628.8 204.24 629.74 205.64 630.9 206.25 632.45 206.42 633.66 206.44 634.94 206.17 636.04 206.42 637.2 207.33 637.59 207.47 637.81 207.33 638.03 207.22 638.36 207.19 638.8 207 639.19 206.8 640.13 206.31 640.63 206.09 641.24 205.92 641.62 205.76 642.39 205.53 643.22 205.23 643.72 205.12 645.04 204.68 645.71 204.62 646.59 204.6 647.31 204.73 647.43 204.75 648.08 204.84 648.69 205.01 648.97 205.15 649.74 204.96 650.24 204.76 651.07 204.57 651.56 204.43 652.12 204.29 652.78 204.13 653.17 204.07 654.22 204.13 654.99 204.13 655.71 203.96 656.7 203.96 657.09 204.1 657.16 204.14 658.36 204.87 658.58 205.09 658.97 205.42 659.3 205.73 659.9 206.42 660.02 206.83 660.02 207.69 660.18 208.38 660.51 209.04 660.73 209.12 661.34 209.23 661.78 209.29 662.34 209.23 663.39 209.21 664.1 208.98 664.93 208.71 665.76 208.43 666.48 208.16 667.03 207.85 667.92 207.08 668.3 206.64 668.74 206.31 669.74 205.01 670.46 204.07 670.73 203.49 671.23 202.5 671.45 202.03 671.67 201.53 671.89 200.82 672 200.1 672.11 199.02 672.22 198.36 672.5 197.67 672.94 196.68 673.16 196.01 673.44 194.88 673.66 193.61 673.55 192.81 673.66 191.49 673.77 190.38 673.49 189.47 673.77 188.65 673.77 187.68 673.88 186.79 673.77 185.61 673.66 183.87 673.33 182.96 673.22 182.05 673.16 181.83 672.72 180.92 672.85 180.89 673.33 180.78 674.16 180.83 674.71 180.81 675.48 180.72 676.2 180.75 677.14 180.67 677.64 180.7 678.19 180.56 678.8 180.25 679.24 179.98 680.29 179.01 680.9 178.57 681.01 178.38 681.01 177.66 680.9 176.94 680.79 176.25 680.95 175.87 681 175.84 681.39 175.67 682.11 175.4 682.55 175.26 683.05 175.09 683.66 174.87 684.6 174.54 685.2 174.16 685.76 173.8 686.25 173.25 686.47 172.53 686.58 172.06 686.75 171.31 686.75 170.71 686.69 169.74 686.14 168.83 685.76 168.19 685.43 167.59 685.09 166.92 684.49 166.1 683.49 165.21 683.27 164.74 683.31 164.53 683.33 164.47 683.44 163.94 683.66 163.17 683.77 162.15 683.93 160.88 683.93 160.25 683.93 159.36 684.04 158.73 683.77 156.22 683.88 155.31 683.88 154.48 683.88 153.79 683.77 152.68 683.66 152.08 683.66 151.22 683.66 150.31 683.66 150.25 683.88 149.23 683.88 148.76 683.93 147.91 684.38 146.75 684.82 145.84 684.87 145.29 685.2 144.63 685.09 143.99 684.82 143.22 684.49 142.36 684.31 141.87 684.26 141.73 684.15 141.34 684.21 140.65 684.38 140.15 684.71 139.49 685.04 139.02 685.43 138.3 685.76 137.92 686.14 137.01 686.53 136.46 686.81 136.01 686.97 135.21 687.19 134.03 687.3 133.37 687.85 132.84 688.13 132.34 688.3 131.9 688.19 131.52 688.19 130.99 688.08 130.6 687.91 129.94 687.69 129.33 687.64 129.01 687.63 128.98 687.69 128.31 688.08 127.85 688.46 127.27 688.46 126.82 688.41 126.38 688.3 125.83 688.3 125.14 688.08 124.23 687.91 122.49 687.85 121.66 687.85 121.06 687.3 120.12 687.01 119.58 686.58 118.77 686.36 117.63 685.98 116.72 684.93 115.09 683.88 114.29 682.99 113.69 682.33 113.11 681.94 112.56 680.89 111.48 679.46 109.8 678.91 109.3 678.3 108.64 677.97 108.11 677.86 107.2 678.08 105.85 678.3 104.77 678.34 104.08 678.35 103.83 678.91 102.51 680.07 100.47 680.4 100 680.95 99.06 681.39 98.34 681.94 97.6 682.33 97.21 682.72 96.82 683.71 95.58 684.49 94.73 685.2 93.9 686.03 92.88 686.92 92.02 687.51 91.33 687.85 90.92 689.23 89.65 690.17 87.83 690.4 87.28 690.73 86.31 690.89 84.79 691.11 83.99 691.39 83.22 691.61 82.33 692.38 81.12 692.66 80.51 692.88 79.82 692.66 79.16 692.66 78.97 692.5 78.42 692.27 77.5 691.94 76.79 691.5 75.71 690.89 74.61 690.73 74.25 690.06 72.59 691.33 73.48 691.94 74.69 692.88 76.02 693.32 76.76 693.6 77.28 694.04 77.7 694.59 78.25 695.2 79.11 695.53 79.69 695.63 79.95 695.87 80.6 695.92 81.15 696.14 81.7 696.25 81.89 696.14 82.91 695.75 83.71 695.37 84.29 694.87 85.15 694.26 86.06 693.93 86.61 693.6 86.92 693.49 87.14 693.27 87.55 692.27 89.4 692.28 90.12 692.16 90.75 692.11 91.44 691.94 92.41 691.89 93.15 691.72 94.06 691.5 94.62 691.17 95.31 690.78 95.64 690.4 96.11 689.73 96.44 689.02 96.93 688.57 97.32 688.08 98.07 687.85 98.45 687.69 98.81 687.63 99.47 687.91 100.38 688.41 101.68 688.85 102.73 689.24 103.56 689.95 104.83 690.45 106.07 690.89 107.09 692.83 110.65 693.45 112.23 693.49 112.33 694.15 113.66 694.93 114.98 695.42 116 695.64 116.45 696.14 117.5 696.47 118.96 697.08 120.53 697.41 122.16 698.02 124.51 698.02 125.53 698.24 126.35 698.24 127.26 698.24 127.54 698.02 128.2 697.69 128.84 697.52 129.39 697.41 129.83 697.63 131.05 698.02 133.53 698.9 134.52 699.4 135.1 699.95 135.85 700.51 136.46 698.41 137.39 697.85 138.22 697.63 138.99 697.25 139.55 696.75 140.24 696.58 141.34 696.69 142.31 697.41 145.54 697.74 146.67 697.91 147.36 698.18 148.27 698.57 148.79 699.18 149.26 699.73 149.48 700.45 149.87 700.67 150.06 700.78 150.2 700.89 150.34 700.12 150.75 699.84 150.83 699.51 151.05 699.18 151.33 699.4 152.1 699.73 152.46 700.34 153.04 701.17 153.46 701.94 153.71 702.6 153.93 703.38 154.45 703.6 154.78 703.55 154.82 702.77 155.42 702.11 155.64 701.17 155.94 700.45 156.24 699.62 157.07 699.18 158.09 699.12 159.22 699.07 160.74 698.96 161.82 699.12 163.01 700.06 164.74 700.89 165.6 701.61 166.24 702.55 166.7 703.38 167.23 703.58 167.53 703.71 167.72 703.32 168.31 702.83 168.66 702.61 168.86 702.22 169.16 701.72 169.74 701.39 170.26 701.22 171.12 701.17 171.89 701.11 172.58 701.44 173.44 701.83 174.05 702.05 174.76 702.44 175.56 702.61 176.14 702.77 176.5 702.74 176.7 702.66 177.14 701.72 177.44 701 177.52 700.45 177.66 699.57 177.83 699.18 177.96 698.63 178.38 698.02 179.26 697.69 180.06 697.3 180.67 696.97 181.36 696.58 182.6 696.03 184.01 695.54 185 694.98 185.64 694.49 186.16 693.44 187.84 691.34 189.14 690.95 189.47 690.51 189.94 690.78 190.8 691.22 191.07 691.67 191.4 692.16 191.87 692.38 192.09 692.55 192.48 692.5 192.95 692.5 193 691.95 193.64 691.45 194.25 690.78 194.91 690.45 195.41 690.45 195.85 690.78 196.84 691.01 197.45 691.12 198.3 691.23 199.02 691.23 199.57 691.23 200.57 691.12 201.15 690.9 202 690.9 202.53 691.01 203.08 691.34 203.66 691.5 204.35 691.5 204.69 691.5 204.98 691.34 205.62 691.12 206.14 690.9 206.67 690.78 207.11 691.12 208.13 691.23 208.68 691.5 209.32 691.72 209.67 692.06 210.59 692.11 210.78 692.14 210.92 692.16 211.08 691.61 211.5 690.95 211.83 690.29 212.21 689.57 212.44 688.8 212.96 687.03 214.26 685.98 215 685.04 215.66 684.97 215.72 683.71 216.74 682.17 218.2 680.68 219.53 678.58 220.77 677.83 221.35 674.56 223.9 674.43 224 672.78 224.58 671.45 225.19 669.68 225.46 666.26 226.15 665.1 226.54 663.99 226.81 662.45 227.01 660.62 227.36 659.02 227.48 656.87 227.45 654.99 227.39 653.28 227.39 652.28 227.48 650.46 227.42 648.14 227.31 646.98 227.56 645.98 227.75 644.88 227.83 644.11 228.11 643.5 228.61 643.22 228.94 643 229.38 643 230.13 643.5 230.76 644.83 231.95 645.43 232.53 646.21 233.35 646.87 233.8 647.53 234.21 648.86 234.9 650.02 235.26 651.51 235.15 653.28 235.18 655.04 235.26 656.32 235.34 657.7 235.42 658.58 235.42 659.02 235.51 659.68 235.59 659.68 235.59 659.52 236.8 659.3 237.25 659.33 237.72 659.41 238.74 659.46 239.01 659.57 240.53 659.57 242.63 659.68 243.76 659.57 244.37 659.41 245.36 659.15 246 659.08 246.19 658.58 246.85 658.08 247.37 657.59 248.06 657.09 248.67 656.7 249.64 656.48 250.47 656.31 251.29 656.43 252.2 657.09 253.36 659.19 253.11 660.13 253.11 661.18 252.95 662.34 252.87 663.39 252.56 664.66 252.37 667.36 251.54 668.41 251.21 669.24 250.93 670.46 250.85 672.06 250.63 673.77 249.97 675.65 249.47 676.48 249.17 677.36 249 678.91 248.75 679.68 248.31 680.62 247.73 681.45 247.29 682.37 246.6 684.27 245.19 685.32 244.53 686.53 243.9 687.91 243.29 688.52 242.97 688.85 242.79 690.45 242.19 691.39 241.85 692.66 241.69 694.65 241.88 694.82 241.87 697.63 241.58 699.12 241.61 701.23 241.61 703.99 241.61 706.64 241.63 708.9 241.83 710.12 241.94 712.33 241.91 713.98 241.63 714.87 241.44 716.97 240.86 718.18 240.5 719.4 240.09 720.72 239.7 721.53 239.28 722.22 238.93 723.27 238.71 724.21 238.68 724.81 238.6 725.92 238.1 726.53 237.66 728.46 236.45 728.94 236.19 729.23 236.03 730.12 235.59 731.11 235.31 731.29 235.27 732.27 235.01 733.04 234.93 734.7 235.12 735.53 235.15 736.47 234.9 737.96 234.65 738.73 234.54 739.51 234.76 741.45 235.17 742.38 235.37 743.37 236.09 743.93 236.8 744.31 237.38 744.97 238.35 745.64 239.04 746.36 239.56 746.96 239.73 747.96 239.57 748.79 239.29 749.5 238.93 749.84 238.65 749.84 238.46 749.5 237.6 749.12 236.69 749.12 236.23 749.12 235.73 749.5 235.45 750.61 235.31 751.6 235.29 752.32 235.18 753.81 234.9 754.48 234.49 755.42 233.85 755.8 233.63 756.19 233.52 756.47 233.63 757.15 234.36 757.18 234.4 757.29 234.57 757.52 235.15 757.68 235.7 758.01 236.42 758.34 236.83 758.51 237.3 758.45 237.99 758.45 238.43 758.67 238.82 759.23 239.21 759.53 239.29 759.61 239.32 759.94 239.56 760.77 240.28 761.33 240.25 762.04 240.12 762.76 240.06 763.48 240.17 764.03 240.39 764.42 241.03 765.52 241.39 766.13 241.52 767.17 242.02 767.24 242.05 767.79 242.38 768.4 243.1 768.4 243.48 768.4 244.12 768.62 244.84 769.67 245.75 770.39 246.24 771.38 247.02 772.43 248.23 773.26 249.2 774.09 250.66 774.75 252.04 775.25 252.51 775.69 253.12 776.07 254.14 776.63 254.85 776.85 255.49 777.12 256.1 777.01 256.4 777.18 256.84 777.4 257.09 778.17 257.53 778.95 257.83 780.27 258.17 781.6 258.5 783.04 258.86 784.47 258.91 784.69 258.99 785.14 259.13 785.63 259.19 786.41 259.02 787.95 258.66 788.89 258.44 789.78 258.25 790.49 258.19 791.54 258.17 792.32 258.17 792.87 258.14 793.86 258 795.08 257.78 796.13 257.61 796.57 257.31 796.96 257.06 797.4 256.7 797.73 256.29 798.23 255.99 798.67 256.07 799 256.12 798.76 256.86 798.67 257.12 798.45 257.83 797.01 258.55 796.13 259.05 794.47 259.24 793.64 259.71 792.87 259.99 792.59 260.13 792.48 260.48 792.48 261.01 792.81 261.23 793.31 261.48 793.75 261.62 794.03 261.75 794.37 262.03 794.47 262.11 794.14 262.75 793.53 262.94 792.76 263.05 792.37 263.13 791.76 263.27 790.94 263.55 790.49 263.71 790.38 264.84 789.83 265.62 789.11 266.25 788.56 266.72 787.12 267.33 786.3 267.83 785.8 268.13 785.58 268.24 785.36 268.76 785.36 269.29 785.52 269.78 785.63 270.39 785.63 270.83 785.6 271.15 785.58 271.39 785.13 271.8 784.64 271.97 784.26 272.08 784.09 272.13 782.93 272.57 782.26 272.85 781.99 273.04 781.44 273.51 781.1 274.09 780.88 274.89 780.5 275.77 780.05 276.68 779.72 277.76 779.33 278.26 779.28 278.7 779.22 279.61 779.23 280.5 779.23 280.6 779.12 281.27 778.73 282.04 778.28 282.73 777.84 283.25 777.46 283.89 777.4 284.5 777.84 285.3 778.18 285.99 778.19 286.06 778.4 286.92 778.29 287.42 777.95 287.86 777.62 288.28 777.24 288.72 776.85 289.13 776.63 289.71 776.3 290.35 776.07 290.62 775.69 291.37 775.64 291.43 775.25 291.92 774.67 292.44 774.2 292.86 774.19 292.86 773.26 293.27 771.99 293.71 770.11 294.49 768.01 294.65 766.52 294.93 765.58 295.26 764.75 295.89 763.37 296.75 762.1 297.6 760.55 298.79 760.52 298.82 758.84 300.03 757.29 301.19 757.18 301.25 756.19 301.83 755.25 302.49 754.59 303.01 753.93 303.59 753.48 304.7 752.93 305.83 752.32 306.77 751.99 308.64 751.94 309.2 751.27 310.3 750.83 310.6 750.39 310.93 749.67 311.9 749.28 312.76 749.28 313.5 749.12 314.6 748.95 315.79 748.79 316.9 748.95 317.61 749.29 318.22 749.84 319.49 750.22 320.7 750.61 321.62 750.78 322.39 751.27 323.02 751.99 324.43 752.32 325.29 752.93 326.06 753.32 327.02 741.97 327.02 727.08 327.02 726.36 326.28 726.2 325.62 726.08 324.73 725.92 323.55 725.36 321.95 725.2 320.95 724.43 319.52 724.1 318.5 723.54 317.45 723.16 316.43 723.05 316.1 722.49 315.49 722.33 315.16 721.66 314.66 721.39 314.16 721.39 313.28 721.78 312.12 721 311.02 720.23 310.11 719.9 309.69 720.4 308.84 720.95 308.23 721.39 307.71 721.55 306.79 721.78 306.05 721.72 305.52 722.11 305.08 722.38 304.7 723.27 303.81 723.87 303.29 724.32 302.93 724.59 302.54 724.54 302.1 725.26 301.55 725.59 301.19 725.92 300.78 725.92 300.42 726.31 300.12 726.64 299.78 727.24 299.78 727.85 299.73 728.07 299.54 728.96 298.71 729.57 298.18 729.67 297.82 729.79 297.41 729.78 296.83 729.84 296.5 730.17 296.14 730.06 295.84 729.95 295.4 730.28 295.06 730.72 294.71 731.66 294.32 732.16 294.04 732.16 293.68 732.27 293.35 732.6 293.16 732.6 292.69 732.71 292.17 733.15 291.53 733.38 291.28 734.92 289.99 736.41 288.94 737.08 288 737.41 287.42 738.24 287.14 738.51 287.28 738.79 287.03 739.23 286.7 739.34 286.23 739.84 285.57 739.95 284.99 740.28 284.44 740.5 283.61 740.61 283.06 741.05 282.78 741.22 282.37 741.44 282.01 741.5 281.54 741.94 281.38 742.05 280.8 742.43 280.55 742.66 280.44 742.99 280.22 744.26 279.08 744.59 278.73 744.75 278.28 744.98 277.87 745.86 277.37 746.25 276.74 746.91 276.13 747.08 275.36 747.41 274.78 747.96 273.65 748.29 272.41 748.57 270.97 748.9 269.7 748.73 268.76 748.29 267.52 748.07 266.36 748.01 265.2 747.79 264.46 747.52 263.85 746.58 263 746.02 261.89 745.42 261.45 744.97 260.82 744.53 260.76 743.65 260.51 742.38 260.35 741.28 260.24 739.84 259.68 738.95 259.33 738.4 259.16 737.85 259.02 737.3 259.13 736.69 259.3 735.86 259.49 734.81 259.52 733.98 259.55 733.21 259.49 732.49 259.41 731.72 259.41 730.94 259.57 729.9 259.41 728.62 259.16 728.24 259.02 727.13 259.38 726.58 259.52 725.59 259.74 725.26 259.77 724.48 259.9 722.71 260.04 721.99 260.21 721.22 260.35 720.39 260.59 719.4 260.51 719.07 260.21 718.68 259.79 718.02 259.68 717.02 259.52 716.2 259.6 714.87 259.9 712.33 260.26 711.22 260.35 709.68 260.65 708.96 260.43 707.58 260.32 707.08 260.46 706.8 260.4 706.14 260.59 705.37 260.54 704.32 260.04 703.77 259.82 702.99 259.46 702.44 259.41 701.45 259.38 700.28 259.44 699.18 259.55 698.24 259.49 697.19 259.6 695.81 259.85 694.37 260.02 693.6 260.21 692.88 260.54 692.39 260.84 691.94 261.28 691.67 261.92 691.17 262.42 690.67 262.55 690.23 263.13 689.96 264.6 689.74 265.26 689.57 265.84 689.07 266.11 688.36 266.42 687.47 266.86 686.48 267.02 685.87 267 685.04 267.41 684.65 268.13 683.88 269.04 683 269.78 682.11 271.11 681.39 271.83 680.01 272.71 679.07 273.43 678.3 273.87 677.75 274.26 676.92 274.31 676.42 274.37 675.87 274.5 675.48 274.7 675.04 275.08 674.49 275.58 674.1 275.77 673.49 275.83 672.56 275.75 671.45 275.94 670.68 275.99 669.57 276.27 669.02 276.49 668.41 276.85 667.64 277.4 667.2 277.93 666.09 278.7 663.61 280 662.28 280.08 660.95 280.24 660.13 280.46 659.41 280.91 658.58 281.21 657.81 281.29 657.36 281.18 656.76 281.32 656.15 281.49 655.49 281.93 654.83 282.09 653.06 282.29 651.79 282.29 650.13 282.37 648.69 282.59 647.53 282.67 646.26 282.95 645.49 283.25 644.27 283.83 643.33 284.33 642.01 284.91 641.07 285.43 640.35 285.93 639.63 286.32 639.14 286.51 638.92 286.29 638.69 286.07 638.58 285.65 637.59 280.8 636.65 278.31 635.93 277.21 635.05 275.91 633.56 274.26 632.51 273.43 631.01 272.57 629.91 272.27 628.58 272.27 626.82 272.76 625.55 272.63 625.49 271.36 625.66 270.5 625.88 269.2 626.21 268.07 626.49 266.89 626.71 265.59 626.71 263.6 626.49 262.47 625.93 261.7 624.61 260.76 624 260.57 622.95 260.51 622.29 260.65 621.68 260.54 621.29 259.82 620.58 259.35 619.58 259.13 618.48 259.32 617.87 258.77 617.81 257.97 617.76 256.95 617.15 255.24 616.54 254.14 615.99 253.78 615.16 253.5 614.06 253.42 613.34 253.22 612.89 252.31 612.51 251.38 611.73 250.85 610.63 250.88 610.24 250.52 609.69 249.55 609.36 248.81 608.48 248.45 607.37 248.2 606.98 247.93 606.76 247.29 606.38 246.55 605.82 246.16 604.5 245.94 603.78 245.77 603.62 244.97 603.51 243.18 603.17 242.71 601.4 241.27 600.69 240.81 599.8 240.5 598.92 239.67 597.59 238.63 596.65 238.4 595.22 238.21 594.44 237.58 593.56 237.11 592.35 236.91 590.8 236.11 588.59 235.07 587.27 234.65 586.16 234.57 585 234.82 583.23 235.73 581.74 235.67 581.19 234.62 580.58 234.04 579.81 233.44 578.48 232.97 576.71 232.83 575.11 232.77 573.34 233.16 571.58 233.6 569.14 234.24 568.1 234.48 567.05 234.24 565.67 233.8 564.95 233.68 564.45 233.74 563.18 233.93 561.14 233.05 560.2 233.05 559.7 233.24 558.15 233.24 556.66 232.88 554.84 232.33 553.29 232.25 552.52 232.41 550.42 232.39 548.76 232.17 548.65 230.48 548.1 229.85 547.1 229.19 546.17 228.85 544.67 228.66 543.24 228.58 541.75 228.61 540.03 229.02 539.43 229.1 537.93 228.72 536.72 228.66 535.67 229.02 534.62 229.05 533.41 228.47 532.58 228.27 531.53 228.27 530.09 228.63 529.21 228.63 527.22 227.78 526.06 227.47 524.51 227.56 523.63 226.98 523.46 226.2 523.57 225.4 523.96 224.88 524.12 224.25 524.51 223.33 525.29 222.42 525.72 221.84 525.67 221.1 524.73 220.52 523.4 220.24 520.53 220.22 518.99 220.49 516.83 221.07 515.45 221.73 514.62 222.51 514.02 223.53 513.24 224.82 512.69 226.01 512.85 227 513.19 228.52 513.85 229.68 514.51 230.54 514.73 231.17 515.23 232.19 515.56 233.21 515.56 234.15 514.95 234.79 514.02 235.18 512.3 235.73 511.31 235.73 510.98 235.37 510.65 234.57 510.09 233.57 509.26 232.75 507.72 232.3 506.39 232.28 504.68 232.47 503.52 232.97 501.48 234.57 500.59 235.04 498.49 234.95 497.77 235.23 497.39 235.64 497.11 236.47 497.5 237.63 498.27 238.9 499.32 239.81 499.49 240.39 498.33 241.3 497.22 242.68 496.06 243.7 495.4 244.03 494.51 243.59 493.8 243.34 492.58 244.23 491.7 244.42 491.26 244.2 491.09 243.32 490.81 242.65 489.93 242.07 488.94 241.96 487.5 241.99 485.73 242.24 485.12 242.05 485.12 241.16 485.34 240.17 485.35 236.55 484.96 234.65 484.41 233.66 483.03 232.69 482.36 232.41 480.32 232.33 480.15 231.42 479.38 230.59 479.1 229.19 478.44 228.44 477.67 228.08 476.84 227.69 476.84 226.81 477.28 226.23 478.05 225.54 478.94 224.85 479.66 224.02 480.1 223.2 480.37 222.04 480.15 221.07 479.44 220.68 478 220.33 475.57 219.88 472.09 219.8 470.43 220.1 468.11 220.55 466.12 221.13 465.35 221.15 465.18 220.71 465.9 219.5 466.34 218.34 466.84 217.18 467.72 216.66 468.33 215.99 468.5 215.41 467.01 213.67 466.29 212.93 464.96 211.83 464.13 211.27 462.97 211 461.7 210.92 461.04 211.05 459.88 211.66 458.66 211.49 457.95 210.69 457.23 210.23 456.23 209.92 454.69 209.76 452.26 209.89 449.83 209.98 449.22 209.62 448.78 209.07 448.78 208.57 448.83 207.35 448.83 206.53 448.61 205.78 447.45 205.15 446.35 204.82 446.12 204.32 446.34 203.9 446.51 203.35 446.01 202.77 444.8 201.86 443.03 201.17 442.15 200.32 442.15 199.82 442.97 199.1 443.69 197.97 444.58 196.18 444.36 195.6 443.31 194.69 442.7 194.33 440.93 193.67 439.22 193.25 438.5 192.89 439.05 191.6 439.05 190.44 438.34 189.77 436.79 188.73 435.52 187.68 433.86 187.21 433.14 186.77 433.86 186.24 434.25 185.91 435.79 185.22 436.18 184.59 436.18 183.67 435.63 182.71 434.19 181.6 432.7 180.72 431.6 180.25 430.82 179.81 430.44 178.82 429.88 177.8 427.4 175.75 425.8 174.48 424.64 173.99 423.58 173.66 422.2 173.79 421.15 173.79 420.49 173.41 420.6 172.22 420.49 171.45 420 170.87 418.73 170.07 416.85 169.08 414.97 168.25 413.86 167.97 411.6 167.97 410.83 168.08 410.11 168.61 409.44 168.5 409.06 167.94 407.9 166.78 406.9 166.29 405.96 166.18 404.09 166.15 402.04 166.43 400.99 166.87 400.33 166.95 398.51 166.31 396.57 166.26 395.86 166.45 394.8 167.06 393.87 167.61 393.31 167.61 392.37 166.87 391.49 166.59 390.11 166.89 389.45 166.73 388.73 165.93 388.18 165.71 385.75 165.74 384.14 166.29 383.09 166.95 381.66 168 381.11 168.72 380.5 169.88 379.89 170.59 377.51 172.5 376.13 173.63 375.58 174.51 375.58 175.45 375.69 176.25 376.52 177.66 377.35 178.73 378.4 179.92 378.79 180.72 378.4 181.63 377.57 182.35 375.97 183.48 374.7 184.47 373.76 185.39 373.76 186.24 374.59 187.68 374.92 188.53 374.92 189.88 374.97 190.44 375.69 191.68 376.91 192.92 378.23 193.61 379.56 193.97 381.33 194 383.04 193.72 383.98 193.58 384.25 193.97 384.25 194.41 383.59 195.21 382.87 196.26 381.88 197.69 380.55 200.18 380.28 201.06 380.17 202.55 380.33 203.24 381.49 204.04 382.82 204.37 384.59 204.7 385.64 204.37 389.17 204.37 390.5 204.65 391.33 205.12 391.05 206 390.39 206.86 389.34 208.21 388.95 209.73 388.95 211.96 389.23 214.14 389.5 215.17 390.33 216.32 391.44 217.21 392.6 217.73 394.36 218.06 394.97 218.45 394.75 219.36 394.69 220.46 395.25 221.43 396.35 223.14 397.29 224.38 398.12 225.18 399.67 225.38 401.16 225.6 403.31 225.96 404.25 226.48 404.53 226.95 404.09 227.34 403.09 227.8 402.54 228.38 403.31 229.76 404.25 231.36 404.25 231.78 403.87 232.39 403.09 232.83 401.93 233.02 399.94 233.38 398.95 233.93 398.34 234.54 398.12 235.17 398.95 236.31 400.17 237.66 400.83 238.57 400.88 239.23 400.22 240.03 399.28 240.97 399.28 241.74 399.5 242.24 400.44 243.92 401.05 245.25 400.99 246.07 400.61 246.46 399.28 246.96 398.67 247.76 398.23 248.64 398.12 251.07 397.84 252.26 397.96 256.07 397.73 256.87 397.73 258.74 397.62 259.74 398.34 260.45 398.89 261.59 399.06 262.66 398.89 263.38 397.07 264.43 396.02 265.45 395.41 266.69 395.19 268.43 395.41 269.56 396.13 270.25 397.51 270.77 398.67 270.91 400.55 272.57 401.49 273.07 402.87 272.93 404.31 272.54 406.19 271.52 406.9 271.6 408.01 272.49 408.51 272.46 409.61 272.16 411.16 270.91 412.32 270.11 413.26 270.11 415.03 271.71 415.74 272.16 418.61 272.13 419.55 271.22 420 270.28 419.94 267.49 420.6 267.16 421.27 267.08 422.2 267.38 423.59 268.62 424.69 269.23 426.18 269.59 427.45 269.59 429.33 269.48 430.82 269.18 433.14 268.32 434.14 267.82 434.69 267.96 435.35 269.26 435.96 269.67 439.55 269.7 440.49 269.75 441.15 270.09 441.6 271.08 441.6 271.99 441.82 272.79 442.48 274.14 442.98 275.05 444.41 276.82 445.63 277.68 446.24 277.68 448.06 276.21 449.5 276.21 451.59 276.43 454.47 276.41 456.46 276.3 458.44 276.13 460.76 275.66 461.81 275.11 463.03 274.12 464.3 272.68 465.24 272.1 465.9 272.07 466.01 272.43 466.01 273.01 465.46 273.62 464.47 274.28 464.24 275.33 463.91 275.96 462.59 277.01 462.14 277.59 461.15 279.11 460.32 280.46 460.05 281.57 459.88 283.31 460.21 284.27 460.87 285.35 462.2 286.48 464.13 287.5 466.23 288.77 467.67 289.87 468.33 290.73 468.39 291.31 467.78 292.41 467.95 292.86 470.04 294.65 470.6 295.92 471.15 298.04 471.65 299.04 472.53 299.62 473.08 299.64 473.69 299.15 474.63 298.21 475.24 298.07 475.9 298.15 476.51 298.9 477.12 300.94 478.05 301.52 479.6 302.51 481.26 303.78 482.2 305.11 482.92 306.49 484.02 308.56 484.9 309.17 485.51 309.25 486.34 308.45 486.51 307.73 486.56 306.27 486.67 305.8 487.28 305.41 489.16 304.47 489.32 304.01 489.43 301.49 489.32 300.72 489.32 299.31 489.32 298.9 489.6 298.15 490.7 297.24 491.31 296.08 491.92 294.68 492.25 293.68 492.25 292.55 492.14 291.42 491.86 290.4 491.09 289.57 491.09 288.66 492.36 288.63 493.63 288.83 495.29 288.96 496.45 288.6 497.39 287.78 498.16 287.06 498.94 286.23 499.16 285.21 499.15 284.02 499.38 283.58 500.76 283.33 501.31 283.42 501.75 283.86 501.81 285.49 501.7 287.12 501.81 288.38 502.14 290.21 502.42 290.81 503.13 291.12 503.91 291.28 504.57 291.06 505.23 290.56 505.79 291.83 505.68 294.62 505.18 295.73 504.85 296.5 504.85 298.71 503.91 300.39 503.85 301.82 504.46 302.93 505.23 304.39 506.56 306.32 507.94 308.42 508.93 310.35 509.82 311.48 510.81 312.4 512.75 314.05 514.13 315.35 515.01 316.53 516.11 318.05 516.94 319.79 517.55 320.9 518.77 322.5 519.59 323.13 520.54 323.54 521.75 323.9 523.02 323.85 524.07 323.46 524.84 323.16 527.11 323.08 528.05 323.32 530.15 323.3 531.53 323.02 532.3 323.13 533.52 323.68 534.29 324.21 533.52 324.68 533.02 325.28 532.58 326.31 532.91 327.02 532.91 327.63 533.02 328.82 533.41 329.64 533.85 330.47 534.57 331.08 535.34 331.52 536.17 331.88 537 332.21 538.16 332.4 538.87 332.57 539.65 332.54 540.59 332.43 541.19 332.07 541.42 331.77 541.97 331.47 542.13 331.33 542.69 331.16 543.29 331.14 543.68 331.33 544.56 332.13 545.23 333.01 546.17 333.7 546.55 334.34 546.94 335.14 547.49 336.05 547.88 336.49 548.38 337.21 549.04 337.87 549.59 338.48 550.37 338.86 550.64 339.19 551.14 340.05 551.42 340.79 551.64 341.32 552.13 341.98 552.74 342.4 553.02 342.7 553.29 343.42 553.73 344.52 554.18 344.96 555.06 345.51 556.88 346.04 557.93 346.26 558.76 346.53 559.31 346.76 559.92 347.28 560.14 347.58 560.42 347.94 560.53 348.22 560.69 348.49 560.48 348.74 560.25 348.85 559.92 349.1 559.31 349.21 558.98 349.38 558.82 349.63 558.6 349.93 558.38 350.21 558.32 350.67 558.21 351.2 558.04 352.58 557.88 354.29 557.82 355.64 558.1 356.64 558.43 357.46 558.76 358.21 559.31 359.45 559.98 360.39 560.53 361.36 561.08 362.27 561.14 363.4 561.19 364.75 561.47 365.99 561.86 366.99 562.13 368.26 562.02 369.33 562.24 370.32 562.96 371.13 563.4 372.04 563.79 372.89 564.51 373.42 564.73 373.66 564.67 374.6 564.34 375.32 564.34 376.23 564.51 377.14 564.89 377.58 565.39 377.94 565.5 378.58 565.28 379.35 564.73 380.07 564.51 380.43 563.9 381.17 563.68 381.92 563.73 382.63 564.01 383.41 564.51 384.51 564.51 386.08 564.67 388.93 565.17 391.27 565.39 392.4 565.5 393.65 564.73 394.28 563.4 395.05 562.08 395.52 561.08 395.8 560.14 396.41 559.76 397.04 560.2 398.12 560.86 398.56 561.91 398.89 562.96 399.03 563.79 398.97 564.62 398.86 565.61 398.61 566.11 398.42 566.44 398.14 566.55 397.48 566.49 396.74 566.44 396.16 566.22 395.5 566.22 395.22 566.22 395.03 566.49 394.75 567.16 394.45 568.1 394.45 568.93 394.58 569.53 394.58 570.53 394.56 571.69 394.61 572.63 394.69 573.35 394.53 573.9 394.22 574.45 393.98 574.84 394.03 575.61 394.86 578.1 396.3 579.64 397.12 580.91 397.51 581.63 397.68 582.13 397.95 582.79 398.56 583.51 399.03 584.5 399.47 585.22 399.55 585.44 399.47 585.77 399.39 586.16 399.5 586.55 400.55 587.21 401.93 587.87 403.28 588.59 404 589.2 404.6 589.97 405.93 591.41 408.38 591.96 409.16 592.35 409.87 592.07 410.73 592.24 411.94 592.62 412.63 592.79 413.21 592.84 414.18 593.56 414.98 593.79 415.2 594.23 415.75 594.06 416.47 593.95 416.99 593.73 417.44 593.56 418.01 593.62 418.54 593.73 419.15 593.95 419.42 594.17 419.59 594.39 420 594.56 420.31 594.67 420.5 594.56 420.89 594.45 421.35 594.39 421.85 594.39 422.27 594.45 422.93 594.72 423.51 595.11 424.11 595.39 424.67 595.44 424.92 595.5 425.5 595.5 425.74 595.33 426.02 595.17 426.21 594.67 426.65 594.39 427.12 593.84 427.62 593.51 427.98 593.23 428.34 593.07 428.75 593.01 429.17 593.01 429.61 593.07 430.02 593.23 430.35 593.51 430.74 593.95 431.1 594.39 431.37 594.78 431.57 595.5 431.79 596.49 431.93 597.43 432.04 598.04 432.12 598.98 432.31 599.81 432.59 600.52 432.81 601.24 433.17 602.02 433.69 602.85 434.33 603.95 435.04 604.67 435.49 605.17 435.9 605.66 436.26 605.94 436.56 606.05 437.09 605.94 437.67 605.94 438.47 606.05 439.07 606.38 439.65 606.55 440.07 606.6 440.92 606.43 441.25 606.21 442.05 606.1 442.44 605.88 443.13 605.83 443.68 605.88 444.23 606.05 444.7 606.1 445.34 606.43 445.84 606.82 446.69 607.15 447.33 607.27 447.66 607.54 448.15 606.21 447.57 604.78 447.05 603.29 446.72 601.68 445.78 600.69 444.54 599.36 442.52 598.59 441.72 597.21 441.72 596.49 441.94 594.45 442.72 592.46 443.82 591.3 444.7 591.02 445.81 591.13 447.24 590.97 447.52 589.37 448.01 587.54 448.68 585.22 449.84 583.73 450.55 583.34 450.11 583.01 449.42 582.3 448.07 581.14 446.83 579.31 446.11 576.5 444.98 573.9 444.32 572.57 444.23 571.47 443.96 571.03 443.32 569.31 442.22 567.71 441.58 566.55 441.53 565.39 440.89 563.79 439.76 561.47 438.88 559.37 438.41 557.27 438.19 554.9 437.97 552.69 437.69 550.26 437.36 549.26 437.39 548.27 436.73 546.77 435.65 545.39 435.1 543.68 434.82 541.58 434.68 540.42 434.71 539.65 434.66 538.76 434.57 537.88 434.46 537.44 434.22 537.55 433.86 538.49 432.95 539.48 432.04 540.26 431.51 540.81 431.15 541.09 430.79 541.64 430.3 542.36 429.5 542.91 428.81 542.74 428.09 542.3 427.59 541.36 427.01 540.15 426.79 539.76 426.79 538.82 426.76 537.55 426.9 535.34 427.15 534.4 427.29 532.52 427.73 531.14 428.17 530.2 428.78 529.32 429.8 528.82 430.57 528.21 430.49 527.88 430.05 527.77 429.41 527.77 428.28 527.22 427.45 526.61 426.98 525.78 426.38 524.79 426.27 523.24 426.24 520.15 426.38 519.05 426.54 518 427.21 517.39 427.81 516.67 428.5 514.96 429.05 513.08 429.44 511.09 429.55 510.04 429.16 508.33 428.53 506.45 428.36 502.14 427.98 499.66 428.45 498.22 429.44 497.78 430.27 497.61 431.26 498.22 433.11 498.72 434.41 498.77 435.73 498.16 436.84 497.39 437.75 496.89 438.41 496.17 439.82 495.84 441.23 495.73 442.63 495.9 444.1 496.23 445.25 496.56 446.36 496.78 447.55 496.89 448.81 497 451.02 497 452.71 497.23 454.64 497.94 456.07 498.55 457.15 499.32 458.25 500.04 459.41 500.87 460.32 501.98 461.07 503.69 462.95 502.97 462.95 501.7 462.48 500.26 462.12 498.77 461.51 497 460.35 495.29 458.81 493.74 457.07 490.87 453.7 489.16 451.66 487.45 449.7 486.18 448.59 485.18 447.88 484.02 447.35 483.52 446.66 483.52 446 483.41 445.45 483.3 444.9 482.81 443.87 482.09 442.47 481.15 440.95 480.15 439.49 479.22 438.05 478.5 437.2 477.78 437.06 477.12 437.61 476.95 438.24 476.4 438.77 475.79 439.13 475.02 439.18 474.03 438.93 472.53 438.8 470.43 438.85 468.83 438.96 467.78 439.32 467.34 439.76 466.95 440.4 466.51 441.34 466.4 442.58 467.06 444.45 467.51 445.45 468.39 447.21 468.11 447.99 467.28 448.81 466.4 449.89 465.85 451.08 464.74 452.21 464.03 453.15 463.58 454.31 463.47 455.74 463.97 457.01 464.52 458.09 465.63 459.14 466.95 460.19 468.61 461.54 470.21 462.86 471.04 463.88 472.09 466.48 471.48 467.14 470.32 467.14 468.39 467.14 466.4 467.25 464.41 468.11 463.09 469.57 462.87 470.76 462.98 471.53 463.58 473.51 463.91 475.42 463.47 476.36 462.76 477.6 462.2 478.87 462.09 480.42 462.42 481.55 463.14 482.68 463.91 483.12 466.13 484.86 465.46 485.22 463.97 485.49 462.04 485.91 460.66 486.65 459.61 487.84 459.05 488.47 458.23 488.56 456.96 488.17 456.13 488.09 454.97 488.36 453.42 489.16 450 490.98 448.23 492.34 446.57 493.8 445.19 495.15 444.25 496.67 443.75 498.22 443.64 499.51 443.64 501.22 443.42 501.86 443.03 502.19 442.32 502.3 441.87 502.27 441.43 502.36 440.99 502.44 440.38 502.88 439.78 503.29 439.22 503.35 438.62 502.96 438.34 502.33 437.95 501.09 437.62 500.2 436.9 499.49 435.96 498.85 434.81 498.6 433.75 498.66 432.7 498.85 432.04 499.04 430.28 499.62 428.95 500.31 428.12 501.11 427.57 502.19 427.01 503.02 425.86 503.38 424.09 504.09 419.78 506 418.62 506.74 418.12 507.16 417.24 507.46 416.63 507.96 415.69 508.12 414.36 507.88 412.76 507.65 411.82 507.85 411.33 508.26 410.78 508.73 410.33 509.09 409.23 510 408.29 510.8 407.68 510.97 407.13 510.74 406.52 510.28 405.58 509.28 404.86 508.26 403.7 506.99 402.43 505.75 401.16 504.09 399.51 502.3 398.01 501.17 395.75 499.76 393.71 498.77 392.05 498.38 390.06 498.44 388.79 498.63 388.18 498.49 387.57 497.91 387.02 496.86 386.08 495.62 385.75 494.71 385.53 493.03 385.64 491.21 385.53 489.36 385.03 487.42 384.48 484.66 384.15 482.15 383.98 480.36 383.82 479.17 382.93 478.48 381.88 478.1 380.72 478.01 379.67 477.82 378.18 478.01 377.02 478.1 375.25 477.93 372.71 477.6 370.23 477.13 367.58 476.58 365.64 476.11 363.88 474.67 363.16 474.2 362 473.32 361.61 472.8 361.17 472.33 361.39 471.78 361.66 471.09 361.78 470.15 361.39 469.59 360.34 469.29 359.07 469.26 357.8 468.93 356.53 468.52 355.09 467.88 354.04 467.06 352.99 466.42 351.72 465.84 350.56 465.51 349.18 465.46 348.19 465.87 347.97 466.31 347.8 466.95 347.91 467.94 348.24 468.74 348.79 470.06 349.18 471.42 349.35 472.41 349.18 473.96 349.13 475.03 349.18 476.38 349.73 477.65 350.89 478.76 352.44 479.78 353.6 480.17 356.31 480.47 358.74 481.1 360.23 481.68 360.62 482.37 360.73 483.59 360.73 484.94 360.23 485.71 359.51 486.07 358.46 486.98 358.13 488.14 358.35 489.58 358.52 490.68 358.9 491.78 359.62 492.75 360.34 493.61 361.78 495.1 362.44 496.53 363.05 497.69 363.49 498.49 363.49 499.18 362.94 499.87 362.66 500.31 361.94 501.2 361.5 501.75 360.84 501.28 359.68 500.45 358.13 499.87 357.41 499.7 357.25 499.18 357.19 498.74 356.8 497.99 355.92 497 354.76 496.15 353.93 495.59 353.32 494.46 352.55 493.11 351 492.12 348.91 491.07 346.36 490.13 344.43 489.27 343.33 488.36 342.27 487.31 340.79 486.79 339.24 486.71 337.25 487.15 335.32 487.78 332.88 488.67 330.51 488.36 327.69 488.25 325.04 488.53 322.61 489.11 319.9 489.49 318.36 489.08 316.48 489.05 315.04 489.47 313.49 490.43 312.33 491.26 311.34 491.51 310.46 491.04 309.24 490.21 307.86 489.44 305.93 489.08 303.88 489.36 302.34 489.93 299.96 490.82 297.53 491.98 295.43 493.19 294.05 493.91 292.78 494.02 291.84 493.77 290.07 493.33 288.14 493.22 286.87 493.41 286.48 494.1 286.59 494.68 286.98 495.37 287.75 496.01 288.92 496.86 290.13 498.05 290.68 498.93 290.24 499.37 289.69 499.48 288.14 499.65 286.98 499.79 285.93 500.17 285.05 500.95 284.77 501.64 284.71 502.16 284.5 502.91 283.94 503.15 283.39 503.1 282.07 502.66 280.08 501.91 277.64 501.36 275.88 501.25 274.11 501.44 272.4 502.11 270.85 502.85 269.25 503.38 268.03 503.9 266.32 504.73 265.05 505.61 264.44 506.58 263.84 507.46 262.95 508.48 262.18 509.01 261.35 509.14 260.24 509.25 256.98 509.47 255.66 510.38 255.6 511.38 256.05 512.37 256.76 513.45 256.98 514.28 256.21 514.8 255.6 515.08 254.94 515.19 253.29 515.66 250.69 516.93 248.98 518.22 247.93 519.02 246.43 519.6 244.67 520.15 242.9 520.68 241.08 521.07 238.98 521.78 238.43 522.36 238.48 522.94 238.81 523.49 239.58 524.07 240.75 524.49 241.96 524.9 243.95 525.51 245.11 526.14 246.05 526.92 246.55 528.05 246.88 529.29 247.43 530.31 247.71 531.14 247.59 531.97 247.32 532.49 246.82 533.37 246.6 535.25 246.82 536.44 247.21 537.38 247.59 538.18 248.26 538.92 248.98 539.75 250.14 541.21 250.85 542.34 251.19 543.2 250.85 543.83 250.52 544.17 250.08 544.5 249.53 544.88 248.75 545.41 248.64 546.04 248.7 546.62 249.31 547.84 250.69 549.58 252.23 550.43 253.89 551.12 254.89 551.45 255.82 552.11 256.32 552.94 256.82 553.94 256.77 554.65 256.21 555.26 255.6 555.92 255.27 556.92 255.44 558.08 255.88 558.99 256.76 559.43 258.26 559.9 259.69 560.42 261.07 561.25 261.9 562.08 262.01 562.85 262.35 564.12 262.23 565.11 261.79 566.05 261.74 566.93 261.96 567.65 262.73 568.34 263.62 568.81 263.78 569.45 263.5 570.5 263.39 571.27 264 572.4 264.5 572.7 264.5 573.45 264 574.14 263.67 574.86 263.56 576.13 263.67 577.31 263.89 578.08 264.72 580.43 265.05 581.48 265.05 582.56 264.83 583.44 264.83 584.32 265.38 585.62 266.38 586.7 267.32 587.41 268.2 588.07 268.75 588.82 269.58 589.34 270.57 590.2 271.29 590.95 271.52 591.36 271.51 591.75 270.85 591.64 269.64 591.25 267.98 590.67 266.93 590.31 265.77 589.79 264.83 589.48 263.39 588.93 262.18 588.46 261.3 587.96 260.63 587.25 259.86 586.14 258.7 585.26 257.37 584.51 255.94 583.82 255.16 583.49 254.67 582.97 254.55 582.31 254.5 581.7 254.72 580.82 254.67 579.85 254.22 579.05 252.95 578.03 251.96 577.56 250.74 576.87 250.3 576.24 250.08 575.41 250.14 574.77 250.03 573.09 249.31 572.04 248.48 571.54 247.76 571.27 246.66 570.91 245.11 570.52 243.4 570 241.52 569.25 240.69 568.54 239.2 567.32 237.32 566.19 235.55 565.42 234.23 564.56 232.51 564.23 231.41 564.31 230.47 564.62 229.86 564.59 228.7 564.31 227.65 564.2 227.04 564.06 226.77 563.51 226.6 562.24 226.55 561.58 225.89 559.84 224.84 558.49 224.06 557.99 223.12 558.08 221.41 558.71 220.64 559.32 219.75 559.98 218.82 560.23 217.99 559.98 217.21 559.48 216.61 558.76 215.66 557.55 214.73 557.08 213.29 556.72 212.57 556.64 212.52 556.2 212.74 555.56 212.96 555.29 213.23 554.76 213.51 553.94 213.57 552.69 213.57 551.84 212.3 549.05 211.41 548.11 210.75 547.75 209.37 547.64 208.43 547.7 207.27 547.81 206.33 547.95 205.39 547.72 204.62 547.26 204.12 546.59 202.74 544.72 201.91 543.89 200.64 543.2 198.87 542.9 196.33 542.62 193.29 542.4 192.02 542.37 190.97 542.21 190.25 541.93 189.43 541.18 187.38 539.67 186.06 538.89 185.23 538.76 184.57 538.78 183.74 538.87 183.35 538.92 182.58 538.95 180.7 538.73 178.76 538.37 176.61 538.15 174.12 538.31 170.92 538.84 168.54 539.47 166.72 540.44 165.95 541.38 165.78 542.7 166.17 543.97 166.83 545.46 167.16 546.68 168.43 549.52 169.21 551.04 170.15 552.42 171.25 553.44 172.41 554.35 173.35 554.98 175.29 556.45 177.38 558.07 177.99 558.99 178.38 559.9 178.16 560.78 177.6 561.41 176.61 562.35 175.12 563.48 174.07 564.34 174.12 564.95 174.57 565.5 176.28 566.22 178.16 566.88 180.37 567.27 182.25 567.29 183.41 567.54 184.51 568.15 185.84 569.42 187.33 570.11 188.16 570.96 188.38 571.9 188.49 573.14 188.82 574.58 189.1 575.96 189.26 576.95 189.76 578.39 190.59 579.74 191.58 581.37 192.96 584.29 192.96 585.09 192.58 585.48 191.53 586 190.48 586.61 190.15 587.22 190.03 588.07 190.48 588.49 191.53 588.87 193.07 589.81 194.45 590.59 195.34 592.1 195.95 593.62 196.55 595.19 197.38 596.91 198.26 598.09 199.43 599.17 200.64 599.8 201.8 600.41 203.29 600.69 205.17 600.69 206 600.47 206.5 600.6 206.5 600.99 206.33 601.74 206.11 602.78 205.89 603.45 205.89 604.85 206.05 605.65 206.11 605.93 205.17 606.29 204.12 606.48 203.02 606.84 202.02 607.26 201.3 607.61 200.53 607.84 199.26 607.7 197.82 607.59 196.33 607.5 195.01 607.53 193.85 607.75 192.74 608.3 192.13 608.83 191.97 609.55 192.08 610.84 192.35 612.09 192.58 613.44 192.69 614.24 192.58 616.58 191.8 617.16 191.2 617.33 190.25 617.44 188.99 617.6 187.33 618.49 186.5 619.48 185.78 620.89 185.23 621.5 184.18 621.39 183.46 621.3 181.36 621.28 179.98 621.22 178.6 621.58 178.16 622.38 177.88 623.15 177.77 624.45 177.83 625.17 177.44 627.15 176.94 628.56 175.68 629 Z M 329.29 456.6 327.69 456.4 326.81 456.49 326.25 456.82 326.2 457.15 326.2 457.62 326.31 458.06 326.48 458.47 327.14 459.08 327.75 459.33 328.13 459.47 329.24 459.82 330.4 460.07 331.67 460.24 333.11 460.18 334.21 459.99 334.87 459.71 334.87 459.25 334.43 458.8 333.66 458.36 332.33 457.78 331.17 457.31 329.29 456.6 Z M 388.07 316.06 386.91 316.01 385.97 316.09 384.81 317.06 384.81 317.72 384.81 318.33 385.42 319.05 386.47 319.6 387.85 319.74 389.12 319.29 389.72 318.66 389.89 317.39 389.17 316.29 388.07 316.06 Z" fill-rule="evenodd"/>
</g>
</svg>