<?xml version="1.0"?>
<svg xmlns="http://www.w3.org/2000/svg" version="1.2" baseProfile="tiny" width="800" height="607" viewBox="0 0 800 607" stroke-linecap="round" stroke-linejoin="round">
<g id="whitehorseflatreservoir">
<path d="M 505.44 167.94 510.93 166.71 512.54 165.4 516.89 167.91 526.66 168.4 533.98 158.14 533.98 149.84 535.93 138.61 543.74 135.19 572.05 140.56 596.94 159.61 647.7 199.66 680.4 230.43 708.71 260.22 724.32 272.92 731.65 288.06 742.87 308.57 758.49 350.57 760.44 356.92 761.42 370.11 761.91 395.5 761.91 419.43 768.25 440.92 780.94 455.09 796.56 467.78 799 486.34 798.02 504.9 791.68 520.04 781.92 523.95 773.13 545.44 755.07 558.14 727.25 564.49 698.95 567.42 675.52 574.25 653.07 573.77 641.84 567.42 631.59 567.42 628.66 570.84 623.78 580.11 622.32 585.49 621.34 592.81 613.53 598.67 603.28 602.58 583.76 606 565.21 606 544.23 606 532.02 603.07 485.66 592.81 458.81 590.37 442.22 589.39 405.61 585 368.03 571.81 305.56 524.93 260.65 496.11 206.48 459.48 173.78 450.2 156.21 439.95 139.61 431.64 122.04 411.62 112.15 404.46 99.1 395.01 71.77 369.62 20.03 325.17 1.98 304.17 1 294.89 9.79 273.89 18.57 240.68 20.03 220.66 20.03 209.91 18.81 197.04 25.45 195.48 35.99 194.31 44.97 193.14 52.78 190.01 59.81 186.49 67.62 179.85 79.25 169.5 85.6 164.12 60.22 154.36 48.86 141.66 22.26 133.3 17.27 126.03 26.05 125.54 53.38 124.56 73.39 114.8 80.71 105.52 87.55 93.8 86.08 86.47 78.76 76.7 73.88 71.33 72.91 64.98 72.91 59.12 74.37 53.26 81.2 48.37 88.04 44.47 91.45 38.12 91.94 30.79 91.94 24.93 89.01 14.19 89.01 5.88 92.92 2.95 99.75 1 114.39 1 122.2 1.49 133.43 7.35 158.81 36.65 176.87 68.89 192 93.8 210.05 102.1 234.95 113.82 246.66 144.1 267.16 178.29 286.68 217.36 292.05 233.96 313.04 240.31 337.93 250.08 357.45 244.71 368.68 240.8 380.39 233.47 385.27 228.59 394.55 213.94 398.94 200.75 400.89 191.47 406.26 180.24 422.37 165.59 431.15 164.12 439.45 160.7 452.63 160.7 457.51 169.01 468.73 173.4 489.72 174.87 500.46 174.87 505.34 169.01 505.44 167.94 Z M 90.69 165.62 88.3 165.44 86.05 165.98 85.16 166.65 84.7 167 83.94 168.35 85.04 171.17 85.48 172.18 87.56 172.75 89.36 171.81 90.03 170.76 90.65 169.78 90.97 167.42 90.69 165.62 Z" fill-rule="evenodd"/>
</g>
</svg>