<?xml version="1.0"?>
<svg xmlns="http://www.w3.org/2000/svg" version="1.2" baseProfile="tiny" width="800" height="2540" viewBox="0 0 800 2540" stroke-linecap="round" stroke-linejoin="round">
<g id="newyearlake">
<path d="M 369.16 1766.57 359.64 1773.15 358.14 1782.91 359.9 1807.13 353.89 1819.71 351.89 1830.98 348.88 1835.29 338.86 1840.55 337.6 1842.8 342.12 1863.46 344.39 1891.24 351.15 1896.31 353.16 1899.5 352.41 1905.32 340.13 1928.23 317.84 1978.17 316.09 1985.68 314.09 1988.12 298.05 1995.07 293.54 2000.7 280.01 2039.76 263.49 2073.74 263.99 2076.93 269 2080.69 283.54 2081.99 286.8 2089.51 262.5 2143.77 264.01 2148.46 278.55 2162.91 279.06 2174.55 270.54 2198.59 258.02 2216.99 236.47 2243.27 204.67 2302.61 183.63 2323.45 164.33 2330.96 155.57 2336.6 150.56 2342.79 141.3 2369.08 145.81 2376.21 144.56 2383.72 152.08 2400.99 157.34 2407.56 164.86 2410.76 172.88 2420.14 167.37 2425.4 168.63 2431.03 174.39 2435.72 186.42 2437.6 193.94 2452.43 193.95 2462.75 190.19 2472.33 185.43 2477.96 170.9 2484.54 155.37 2485.48 145.85 2492.24 135.83 2492.62 131.57 2496.94 127.81 2509.52 126.81 2525.1 123.56 2530.36 118.55 2534.11 110.54 2537.3 68.44 2539 61.68 2536.56 50.9 2527.18 28.09 2503.34 23.57 2493.02 24.32 2482.31 27.32 2473.3 41.59 2446.07 47.1 2426.36 73.65 2382.42 93.43 2353.88 112.71 2317.64 128.23 2275.21 141.26 2256.43 189.1 2214.93 197.12 2204.61 201.38 2189.4 199.62 2183.77 185.84 2176.45 183.83 2177.76 185.08 2191.84 180.83 2193.72 124.68 2148.49 110.14 2129.71 103.86 2117.89 98.59 2094.99 94.83 2087.48 97.57 2042.41 108.31 1947.04 123.09 1930.52 137.63 1928.07 142.64 1923.94 148.14 1904.04 155.41 1887.7 167.93 1868.36 168.43 1849.97 173.94 1836.82 175.19 1828.38 184.46 1811.48 179.94 1795.89 181.69 1785.57 169.15 1772.61 141.32 1729.44 122.75 1687.2 118.24 1668.43 107.95 1650.22 106.69 1636.52 99.66 1616.43 87.13 1604.6 81.36 1592.59 65.56 1572.88 41.98 1528.39 39.96 1503.05 33.44 1482.77 40.19 1462.12 41.44 1442.78 46.45 1434.33 46.18 1417.38 49.18 1398.04 42.66 1386.4 40.4 1380.2 42.15 1364.25 40.64 1348.1 35.63 1336.65 26.35 1322.38 23.34 1314.87 18.06 1294.22 7.28 1271.32 1 1242.6 1.25 1236.78 3.5 1229.26 28.82 1190.02 36.08 1182.14 38.84 1176.88 40.09 1169.37 45.1 1162.05 48.61 1149.66 60.89 1136.32 62.14 1132.95 62.64 1109.1 61.38 1104.41 55.86 1095.77 48.33 1076.25 47.58 1072.87 49.08 1067.24 54.59 1060.1 58.36 1052.21 72.64 1040.57 76.15 1033.06 90.19 1020.11 97.45 1007.9 109.73 983.87 123.77 959.84 138.05 927.17 142.81 918.72 145.57 907.08 156.34 893.18 158.6 885.49 181.41 840.8 188.93 832.16 191.93 824.84 198.96 814.71 205.72 801.18 208.23 789.92 210.73 783.91 213.24 781.47 213.99 773.59 215.74 769.64 223.77 760.07 225.77 753.31 231.54 748.8 237.05 738.85 254.34 677.84 255.84 666.01 255.84 651.36 256.84 645.73 261.35 635.97 267.87 628.08 293.19 606.3 313.76 592.4 326.04 582.64 350.61 555.41 365.41 534.57 372.93 525.94 377.94 517.11 390.23 501.16 396.24 488.01 401.01 483.13 401.76 473.93 404.52 464.92 409.53 456.28 410.28 453.28 409.78 448.77 412.79 443.51 414.29 436.76 423.07 426.62 427.84 413.66 440.87 390.76 444.88 385.69 449.15 382.69 457.92 380.62 459.43 376.3 466.2 374.61 475.98 373.67 479.24 374.42 484.51 377.99 492.78 376.67 495.29 374.23 498.8 366.91 505.07 363.16 508.58 358.65 508.83 345.32 506.32 341.57 502.06 338.94 490.52 339.69 486.01 337.44 482.49 337.06 472.71 338 455.41 335.56 450.64 336.69 448.39 334.25 447.38 327.12 451.89 290.32 449.88 267.03 451.38 235.12 455.89 207.33 459.16 203.39 465.67 200.01 465.92 197.57 446.1 146.51 440.33 139.56 431.8 131.87 431.05 128.3 433.56 129.05 449.11 145 486.75 241.31 489.26 243.76 492.26 243 491.51 234.93 486.75 216.34 499.04 203.76 503.8 195.88 506.06 189.68 507.31 181.23 507.31 169.78 508.81 165.28 514.58 157.95 527.12 146.5 528.87 131.11 546.43 113.08 549.94 105.95 551.7 96 550.69 90.55 546.68 84.35 545.92 80.98 542.66 78.16 537.15 77.6 524.6 79.48 511.06 86.42 518.58 59.77 519.83 50 528.11 31.6 533.12 24.47 538.39 22.59 543.16 9.08 547.67 1 549.43 1 551.18 3.25 551.44 15.65 557.46 17.9 557.21 27.1 560.47 30.85 576.52 37.05 590.82 40.61 595.33 43.62 596.34 45.12 594.59 48.12 584.55 57.13 584.3 58.82 585.81 59.57 590.32 58.64 594.59 55.44 603.11 44.18 619.67 42.11 622.18 42.3 625.69 45.68 639.24 61.64 641.24 69.33 641.49 78.16 648.77 80.97 659.81 92.24 663.32 102.38 663.82 114.77 662.82 117.21 659.31 117.4 641.49 108.2 634.97 106.51 627.7 106.51 623.43 107.44 610.65 114.95 600.11 118.34 590.33 120.03 588.82 121.15 586.57 126.97 587.82 129.04 589.32 129.98 601.11 131.85 602.87 133.54 603.37 140.86 601.87 144.05 590.83 148 585.56 149.12 579.04 147.81 570.27 149.88 563.99 150.25 550.95 148.19 542.92 148.75 536.9 151.57 518.34 164.52 514.08 169.78 512.33 180.3 513.07 184.99 519.1 200.95 521.36 215.78 521.11 222.16 519.6 233.24 514.09 255.96 508.57 264.03 509.32 269.66 508.07 274.54 505.31 273.23 503.06 269.1 497.29 255.4 494.02 256.52 498.04 271.16 503.81 283.93 505.06 294.07 511.59 306.46 515.35 316.97 542.69 343.82 543.94 345.7 544.2 358.84 545.7 362.78 553.73 359.4 557.49 356.4 575.79 332.55 580.31 323.72 581.31 322.79 582.32 323.54 583.82 327.11 582.82 329.92 572.03 347.2 567.27 358.65 563.26 362.03 550.47 367.66 544.45 373.67 541.44 391.5 540.94 401.45 542.95 406.33 545.71 409.52 558.5 412.53 562.51 415.54 567.02 426.05 582.58 441.25 585.09 442.19 588.34 439.19 591.86 439.75 607.16 446.51 610.91 451.2 611.67 456.27 608.91 475.98 609.67 488.75 619.7 530.05 627.98 543.94 631.24 547.51 635.25 549.01 651.05 547.89 654.31 548.64 671.62 557.09 678.39 562.15 683.65 567.98 689.92 584.68 690.42 598.96 684.91 617.54 679.89 661.28 674.88 678.74 669.61 689.44 667.35 699.21 666.85 705.22 668.61 712.54 680.9 738.44 694.44 757.97 697.2 761.17 715.5 775.43 727.29 787.26 745.09 802.28 760.39 818.42 770.67 835.13 773.17 842.46 788.22 869.87 792.48 880.38 798.75 904.6 799 911.73 797.75 923.56 794.74 933.7 787.97 945.71 759.63 973.5 754.87 977.63 742.84 983.82 736.82 993.59 725.53 998.1 716 1005.04 714.5 1006.92 715.75 1007.48 726.28 1005.6 729.54 1007.11 730.04 1008.8 729.04 1010.11 714.25 1012.17 701.46 1021.75 693.19 1036.02 692.44 1042.97 687.92 1047.29 678.14 1054.04 676.39 1058.36 677.39 1069.25 675.39 1073.94 665.36 1090.09 649.82 1106.98 649.56 1122.38 644.8 1134.77 634.52 1128.2 612.96 1122.94 606.19 1118.06 602.18 1111.12 597.66 1098.72 599.42 1079.76 598.16 1074.69 599.92 1064.93 605.19 1055.92 619.73 1050.29 619.97 1046.34 618.22 1043.9 610.7 1038.46 606.44 1036.39 592.64 1037.15 587.13 1036.77 579.36 1038.27 569.33 1041.84 558.8 1042.78 553.53 1041.28 543.5 1035.27 540.75 1034.89 537.24 1035.27 529.21 1040.15 521.19 1066.25 517.44 1088.96 515.93 1117.88 518.44 1130.83 518.19 1136.84 512.67 1145.48 503.4 1174.39 499.39 1178.33 488.86 1185.09 482.59 1193.73 474.32 1212.13 469.06 1228.27 461.54 1243.29 454.27 1273.34 450.77 1283.09 446.76 1289.1 443.5 1301.87 437.48 1317.64 431.72 1326.28 431.47 1332.85 428.96 1341.67 418.69 1365.14 409.16 1379.03 408.16 1383.35 411.42 1395.74 408.92 1403.25 406.67 1417.33 399.41 1437.64 388.88 1455.11 386.38 1465.06 382.12 1470.13 379.62 1480.64 369.84 1493.22 363.08 1521.39 363.84 1532.27 358.07 1544.48 362.09 1558.56 355.82 1565.13 354.07 1571.7 357.34 1591.04 361.6 1602.67 372.38 1619.57 395.96 1669.7 398.72 1696.54 396.47 1719.07 390.71 1732.78 370.17 1755.31 369.16 1766.57 Z M 611.46 1071.5 606.19 1073.94 605.69 1076.19 609.45 1079.95 612.96 1080.89 617.47 1080.89 621.23 1078.82 621.73 1075.63 620.73 1073.19 615.96 1071.69 611.46 1071.5 Z" fill-rule="evenodd"/>
</g>
</svg>