<?xml version="1.0"?>
<svg xmlns="http://www.w3.org/2000/svg" version="1.2" baseProfile="tiny" width="800" height="396" viewBox="0 0 800 396" stroke-linecap="round" stroke-linejoin="round">
<g id="mountainmeadowsreservoir">
<path d="M 356.07 1.41 356.89 4.26 359.74 5.61 361.91 5.34 362.76 4.4 363.13 3.98 364.14 4.81 364.63 5.21 368.3 6.97 370.33 6.83 371.15 7.92 370.61 10.09 369.52 12.26 370.88 13.21 373.59 14.57 376.72 14.57 379.03 14.7 379.44 12.13 381.61 10.9 382.7 12.26 383.92 12.13 385 10.36 385.96 11.72 387.45 14.16 389.22 14.43 392.2 14.98 393.56 14.3 394.24 12.13 398.45 10.36 400.76 12.53 401.58 13.89 401.58 16.2 402.39 17.28 401.03 20.95 403.48 22.71 406.06 26.51 405.11 29.22 404.02 33.16 401.85 33.97 401.85 37.36 403.89 40.49 404.97 42.79 407.83 43.2 411.09 44.96 417.33 46.59 422.23 50.39 423.99 52.43 425.72 52.73 427.12 52.97 431.59 54.68 433.64 57.45 433.91 62.06 435.81 62.6 441.38 62.74 445.59 63.15 448.31 66 450.75 66.54 452.92 68.17 455.24 64.92 457.79 62.88 459.49 58.73 464.16 58.56 465.56 57.55 465.62 54.09 464.13 52.6 461.55 52.19 460.05 50.49 458.83 47.85 457.88 45.07 458.22 42.69 458.56 40.99 459.17 39.98 460.19 39.1 462.36 39.98 465.01 38.96 466.85 40.04 468.61 39.23 469.56 40.32 471.87 38.08 473.3 36.38 473.5 40.38 476.49 41.2 480.29 40.66 483.28 38.48 486.07 34.48 488.41 30.77 492.15 25.47 494.04 22.6 495.27 20.25 497.78 17.74 502.54 14.96 504.24 13.94 504.64 11.7 505.19 10.62 506.88 9.12 508.92 8.17 510.22 7.64 510.89 7.36 508.85 10.21 508.18 10.82 505.93 11.97 505.53 13.26 505.25 14.35 503.49 16.59 500.91 17.13 498.94 18.49 496.29 21.34 493.78 25.41 493.16 27.44 491.47 28.87 489.19 32.99 487.9 35.23 487.56 39.1 483.96 40.45 483.15 43.03 484.18 43.79 484.95 41.86 486.93 41.4 487.9 41.05 488.67 39.98 490.24 40.23 491.31 41.5 491.09 43.03 491.03 45.68 490.48 47.71 489.53 49.54 488.78 53.34 491.16 54.36 494.01 54.77 494.42 55.92 494.42 57.35 493.67 58.43 494.09 60.59 498.71 61.95 502.02 61.95 504.99 59.49 506.46 59.56 508.73 59.66 511.02 58.39 512.38 58.47 514.59 57.45 513.57 60.08 513.82 62.46 514.67 64.83 515.86 65.42 517.73 66.27 522.74 68.99 526.81 70.51 531.06 72.29 532.59 71.87 534.11 71.28 536.58 73.91 538.36 74.75 542.01 74.92 543.62 72.04 543.71 75.52 544.67 75.67 545.32 75.77 547.19 75.09 547.7 74.58 548.29 72.97 548.46 74.5 548.72 75.43 549.06 77.3 552.45 79.16 553.56 80.86 554.92 80.86 558.06 81.79 562.97 84.09 563.9 85.37 565.94 85.71 575.2 86.13 579.69 82.65 583.85 82.48 593.87 77.99 596.94 78.18 603.33 77.5 603.32 79.75 599.12 83.47 598.28 86.38 599.81 89.6 604.57 91.64 611.19 89.6 612.63 86.8 615.69 87.74 619.08 89.52 618.66 86.8 620.1 85.19 619.51 86.97 620.61 88.92 621.88 89.86 623.92 89.94 625.37 92.57 627.15 93.59 629.95 93.08 632.41 92.74 633.86 91.72 635.98 91.89 638.36 91.72 639.65 92.43 641.33 93.33 645.91 96.64 647.95 98 648.74 99.84 651.26 100.63 652.28 99.61 654.49 100.63 655 102.49 652.19 104.44 652.19 107.16 652.96 110.21 654.57 112.08 657.53 113.18 660.38 113.35 662.71 113.94 662.97 118.01 662.88 119.67 664.88 120.73 667.42 121.23 670.18 121.15 670.35 121.87 671.46 122.46 671.84 124.03 672.6 123.82 672.64 124.41 672.3 125.43 672.86 126.66 671.92 128.78 672.94 129.33 671.29 129.63 672.22 130.94 671.75 132.05 670.27 134.25 675.32 134.8 675.62 135.48 675.23 136.8 672.98 137.39 671.12 137.26 669.25 137.6 667.8 138.03 668.02 138.75 669.33 140.02 665.64 141.08 665 141.8 664.96 143.45 666.7 142.78 669.62 143.72 669.07 145.08 666.22 145.75 665.69 148.37 664.18 149.15 664.78 149.52 669.42 150.92 672.33 154.3 677.36 155.66 675.32 157.02 670.43 155.39 668.87 155.81 666.9 156.34 673.58 159.8 679.95 161.07 682.59 161.83 685.81 162.77 686.49 164.21 688.36 165.9 689.71 168.11 687.08 171.76 685.3 177.01 684.03 180.75 685.55 181.34 687.51 184.22 688.02 186 687.83 186.44 686.83 188.89 689.88 194.91 692.15 197.03 693.34 199.66 695.89 201.27 693.6 202.8 695.55 203.73 700.39 203.9 697.08 205.25 700.48 213.23 699.2 215.52 702.77 217.55 707.52 222.98 707.86 225.18 709.98 223.91 711.17 227.47 716.95 229.24 713.97 232.22 713.63 234.51 716.05 234.15 717.03 234 709.05 245.18 708.88 253.15 710.71 257.76 715.25 261.86 720.43 268.14 721.95 278.16 724.76 282.05 731.04 285.86 737.83 288.75 743.43 295.11 748.78 305.54 757.04 309.92 761.25 313.45 762.61 316.3 762.34 323.49 763.84 331.36 764.97 332.9 767.42 335 769.12 336.7 769.86 337.24 774.21 338.73 781.07 340.63 783.17 343.14 784.87 343.21 786.98 345.11 786.23 346.54 781 348.84 782.84 350.4 784.6 351.22 789.02 351.56 790.71 354.14 793.7 356.37 795.67 356.51 799 358.07 793.97 357.39 791.8 356.51 791.05 355.49 789.22 353.59 787.11 352.71 785.55 353.05 783.11 354.68 789.83 356.65 795.2 359.02 796.15 361.26 795.94 362.34 793.16 359.97 791.94 359.43 786.5 358.21 779.3 358.55 775.65 359.31 773.37 361.15 770.49 365.83 769.81 368 766.14 370.44 763.97 373.02 762.88 375.6 760.85 376.55 761.39 378.58 759.62 376.55 758.13 377.48 758.81 378.72 759.08 380.48 756.91 379.4 754.73 379.26 749.84 380.75 747.94 381.97 749.16 384.01 746.58 382.52 738.8 387.97 738.71 389.57 736.53 389.98 731.37 395 724.85 390.25 717.9 389.26 717.24 389.17 717.06 389.01 714.53 386.86 707.19 384.69 704.61 382.92 698.24 383.5 691.43 381.57 687.11 381.63 675.13 382.11 672.42 380.08 667.12 380.62 662.23 379.67 654.35 375.87 651.36 372.61 646.74 363.66 645.25 359.86 641.57 355.08 632.21 351.04 622.63 348.78 620.82 347.56 612.36 347.45 608.39 346.44 604.88 344.24 601.64 340.35 600.85 337.18 598.1 333.41 594.53 330.66 590.76 327.81 581.49 323.74 578.94 321.81 576.91 320.38 576.54 319.29 575.58 316.42 579.05 309.39 578.94 303.29 577.56 295.7 577.52 294.49 577.3 288.58 577.29 288.37 577.2 288.1 575.66 283.76 574.51 281.59 573.01 278.94 571.11 276.09 569.27 273.38 564.76 270.58 563.38 270.65 562.7 270.68 560.12 269.31 558.7 266.59 558.55 266.38 556.14 263.02 553.43 261.41 551.03 258.96 548.53 258.02 547.12 257.98 546.66 256.96 544.02 256.67 542.84 256.54 541.75 255.67 540.5 255.86 539.41 254.8 538.46 253.66 536.64 253.9 534.9 253.23 534.86 253.24 530.23 253.95 529.96 254.01 529.04 254.21 525.81 253.49 524.52 253.22 523.76 253.64 522.8 254.16 521.14 254.66 519.83 255.06 517.11 254.21 510.16 253.98 500.68 256.43 494.36 259.79 490.59 263.25 488.86 265.59 487.13 266.71 483.24 268.61 482.34 269.05 478.37 270.07 475.31 269.15 468.59 268.34 461.26 267.29 457.61 266.44 454.55 265.51 451.75 266.44 447.33 266.11 437.58 262.97 432.38 260.93 430.55 259.3 427.39 258.18 421.99 253.3 417.92 246.89 416.08 245.36 415.73 245.3 412.31 244.75 410.38 243.73 407.32 241.49 405.87 241.83 403.35 242.41 402.53 240.07 403.4 239.12 403.55 238.95 403 238.21 402.65 237.74 400.29 234.57 401.98 234.77 404.67 235.08 405.49 231.83 405.59 230.2 404.2 229.54 403.86 229.38 404.69 228.61 404.97 228.35 405.18 228.16 404.47 225.31 405.69 223.79 405.79 219.92 404.57 217.07 404.26 214.02 405.08 210.25 401.61 208.37 400.9 206.84 398.76 204.91 397.47 202.34 396.62 200.63 396.72 199.31 396.93 197.28 396.32 193.51 396.52 191.37 394.99 190.56 394.69 189.64 394.79 187.91 393.36 186.59 392.14 184.56 387.96 181.6 386.33 178.65 381.75 175.9 381.54 174.79 376.74 173.43 375.43 173.06 368.91 167.86 360.76 163.18 355.77 161.56 353.43 160.44 349.15 160.64 342.63 157.99 335.39 154.13 330.6 152.8 319.39 151.4 312.01 153.06 308.56 152.64 306.7 152.42 300.15 155.07 294.53 156.15 284.8 155.29 271.17 151.62 262.52 147.08 252.36 139.09 246.43 134.4 242.61 130.16 239.63 126.56 235.39 121.25 225.84 112.56 217.56 108.53 206.52 106.63 202.4 104.34 200.79 103.45 190.82 101.11 179.78 101.75 164.28 103.45 155.93 106.48 148.57 109.07 144.25 111.88 140.46 114.96 138.47 119.55 134.48 121.02 129.79 121.73 129.33 121.72 121.65 122.3 120.37 122.27 119.3 122.34 117.61 122.42 114.54 122.14 111.53 121.61 110.82 121.41 110.31 121.17 110.01 121.01 109.27 120.53 106.89 118.89 106.41 118.59 106 118.31 105.5 118.03 104.89 117.71 104.43 117.46 103.85 116.94 103.65 116.71 103.3 116.23 103 115.84 102.64 115.44 102.11 114.97 101.81 114.79 100.89 114.45 100.34 114.31 92.86 112.7 91.59 112.36 90.47 112.07 89.4 111.69 87.85 110.87 87.7 110.83 84.62 109.62 83.3 108.84 82.95 108.68 82.44 108.28 81.2 107.53 77.73 106.64 77.02 106.36 75.64 105.94 75.21 105.74 70.46 103.6 69.8 103.34 68.99 102.94 68.33 102.53 67.8 102.05 67.35 101.58 67.09 101.38 66.11 100.14 64.91 98.72 62.34 95.55 61.94 95 61.32 94.07 60.77 93.25 60.04 92.22 59.63 91.87 58.98 91.27 58.6 91.05 58.09 90.78 51.97 87.81 50.67 87.33 50.37 87.25 46.24 86.08 45.52 86.03 44.86 86.2 43.41 86.89 43.1 87.16 40.76 88.53 39.88 88.9 34.77 90.38 29.61 92.96 28.23 93.46 27.2 93.62 16.81 95.57 15.18 95.5 14.31 95.47 13.08 95.22 12.11 95.1 10.79 94.87 5.86 94.24 5.04 93.88 3.32 92.79 1.53 90.96 1.31 90.31 1.12 89.16 1 85.26 1.11 84.67 1.64 83.68 2.6 82.81 3.17 82.46 6.27 81.69 7.09 81.46 7.66 81.36 8.94 80.91 9.61 80.58 10.82 79.92 12.11 79.17 12.27 79.07 12.73 78.82 12.84 78.55 12.89 78.28 12.77 77.96 12.77 77.73 12.78 77.6 12.78 77.41 14.63 75.39 16.52 73.34 16.63 73.2 16.78 73.1 16.94 73.09 17.12 73.14 17.55 73.27 17.9 73.43 18.41 73.74 20.57 74.84 21.18 75 21.79 75.26 22.8 75.88 25.87 79.91 26.34 80.5 27.15 81.45 27.76 81.77 28.34 81.93 28.73 81.83 29.19 81.7 29.45 81.61 29.81 81.26 31.3 79.02 31.72 78.4 32.06 77.85 32.12 77.54 31.09 76.38 30.83 76.08 30.38 75.37 30.24 74.65 30.22 74.18 31.4 72.43 31.71 72.06 32.13 71.67 34.16 70.59 34.57 70.46 35.09 70.09 35.56 69.76 36.12 69.31 36.69 69.26 37.46 69.21 38.1 68.92 38.46 68.61 38.72 68.4 38.78 68.03 38.63 67.71 38.32 67.51 37.77 67.33 35.31 67.37 34.64 67.33 34.11 67.2 31.1 66.3 30.44 66 29.68 65.46 26.65 61.05 26.35 60.5 25.95 59.99 25.22 58.99 25.03 58.22 24.77 57.15 23.75 54.61 23.68 54.12 23.33 53.55 23.08 53.2 22.78 52.88 22.63 52.61 22.41 52.25 21.96 51.11 21.84 50.52 21.9 50.02 21.96 49.6 22.05 48.77 22.1 48.49 22.74 47.21 22.97 46.62 23.14 45.74 23.33 44.71 23.12 41.57 22.99 38.71 23.2 38.11 24.2 37.92 35.98 35.46 36.49 35.82 36.69 36.01 36.97 36.21 38.65 36.87 41.25 38.67 41.96 39.42 42.63 40.56 42.73 40.76 42.9 41.72 42.88 42.8 42.54 43.54 42.28 43.81 36.96 47.21 36.44 47.46 35.72 48.02 35.3 52.16 35.24 52.44 35.06 52.81 34.44 53.43 34.02 53.9 33.93 54.5 36.28 57.03 37.05 58.76 38.66 61.8 39.04 62.24 40.2 63.38 41.9 64.32 42.16 64.38 42.67 64.42 44.41 64.28 45.03 64.05 47.88 62.86 48.09 62.67 48.4 62.55 49.12 62.21 50.79 61.81 51.36 61.54 52.18 61.16 52.6 60.79 53.5 60.01 53.71 59.78 54.95 59.22 55.46 59.05 55.92 58.84 57.1 58.52 57.55 58.17 57.96 57.86 58.12 57.43 58.39 56.41 58.63 55.36 59.05 54.78 59.31 54.62 60.37 53.52 60.59 52.97 60.52 52.62 60.21 52.46 57.05 51.92 56.74 51.84 54.5 50.98 53.56 50.78 52.13 50.71 50.54 50.57 50.29 50.49 49.88 50.26 49.63 50.12 49.43 49.92 48.88 49.13 48.51 48.03 48.76 46.74 49.7 45.54 49.93 45.15 50.1 44.46 49.99 44.16 48.82 40.87 48.07 40.01 47.59 39 47.5 38.38 47.58 37.99 47.9 37.42 48.47 36.88 51.28 35.16 52.06 34.54 52.66 33.84 53.33 33.08 55.33 31.01 55.78 30.54 59.17 27.59 59.53 27.32 59.82 26.9 59.94 25.92 60.05 25.41 60.13 25.06 60.85 24.6 72.46 19.35 87.92 12.01 89.09 11.46 89.41 12.82 103.64 3.08 104.05 4.73 107.29 17.62 115.95 21.86 111.4 39.06 117.24 40.15 130.96 38.52 136.39 32.28 143.2 29.71 144.28 29.21 148.1 27.46 158.64 10.03 159.83 9.9 160.23 9.85 161.04 9.76 163.97 9.77 164.55 9.77 164.81 9.77 165.65 11.79 167.42 12.47 167.32 13.68 167.15 15.86 166.18 18.71 161.84 27.05 158.98 32.55 161.5 33.54 162.07 33.47 173.9 31.96 177.29 30.91 177.42 30.68 177.68 30.33 181.49 30.24 182.1 30.24 182.61 30.35 182.84 30.58 182.99 30.74 183.29 31.13 183.49 31.37 183.84 31.69 185.02 31.99 186.32 31.75 187.93 32.21 188.71 32.79 189.26 33.69 189.43 34.48 188.9 36.09 188.74 36.6 188.55 37.19 188.29 37.54 188.34 37.73 188.54 37.85 188.8 38.09 188.74 38.32 188.43 38.36 188.35 38.59 188.19 38.94 187.98 39.37 187.57 39.74 185.59 40.56 184.35 41.06 182.07 41.59 181.09 41.8 180.45 41.75 178.26 41.32 176.88 40.88 172.3 41.16 168.7 41.38 157.4 42.08 157.76 43.04 155.3 52.79 152.31 58.26 153.42 60.18 153.89 60.98 155.32 63.45 155.87 63.89 156.33 64.09 159.93 64.35 160.29 64.36 160.8 64.52 161.05 64.68 161.25 64.99 161.35 65.31 161.45 65.7 160.64 66.51 160.35 66.9 160.37 67.41 160.57 67.69 160.95 68.04 161.41 68.28 163.25 67.96 163.97 67.93 164.43 67.97 166.34 68.71 167.13 69.02 168.05 69.18 169.07 69.35 171.57 69.74 172.31 69.73 173 69.69 173.62 69.58 174.26 69.29 174.85 68.95 179.92 63.59 180.44 63.12 181.01 62.89 181.42 62.84 181.93 62.92 184.35 62.89 184.98 62.52 185.7 62.41 186.57 62.35 187.23 62.56 188.22 63.13 189.34 63.46 190.05 63.68 191.15 63.73 193.33 63.69 194.25 63.56 195.68 63.22 197.23 62.82 198.58 62.58 200.07 62.24 201.31 61.64 202.19 61.14 203.3 60.31 203.77 59.8 204.31 59.34 204.98 58.97 205.8 58.86 206.83 58.73 208 58.86 208.97 59.2 209.86 59.72 210.66 60.55 211.8 61.95 212.93 62.98 214.15 63.63 215.06 64.35 216.3 65.2 217.67 65.89 218.78 66.77 219.84 67.89 220.29 68.52 220.71 69.42 221.22 71.39 221.13 72.52 220.7 74.08 220.46 74.55 220.35 75.06 220.44 75.68 220.66 76.47 221.06 76.82 221.52 76.93 221.98 77.09 222.8 77.1 223.72 76.77 224.5 76.54 225.11 76.43 226.24 76.34 227.36 76.31 228.59 76.5 232.74 77.91 233.29 78.22 233.65 78.3 234.22 78.17 234.88 77.94 236.38 77.04 237.47 76.11 238.25 75.1 239.17 73.6 239.58 73.25 240.6 72.22 241.79 71.41 242.8 70.54 243.3 69.33 243.78 68.24 244.31 67.14 244.8 66.68 245.91 65.81 246.69 64.92 247.24 64.32 247.36 63.02 247.3 62.28 247.46 61.38 247.66 60.52 248.08 59.74 249.03 59.22 249.96 58.84 250.78 58.61 251.4 58.21 251.79 57.66 251.98 56.76 252.35 56.18 252.46 55.75 252.62 55.32 252.98 55.13 253.6 54.96 254.26 55.04 254.82 55.09 255.38 55.4 255.89 55.7 256.4 55.9 257.09 55.99 257.98 55.9 259.42 55.52 260.53 54.73 261.16 53.91 261.65 53.37 262.33 52.88 263.15 52.69 263.92 52.64 264.73 52.77 265.96 53.11 265.36 55.59 264.84 57.31 264.85 58.25 264.95 59.03 265.04 59.81 265.05 60.4 265.25 60.95 265.6 61.38 266.03 61.52 266.65 61.61 267.87 61.62 269.24 61.1 270.52 60.66 271.29 60.36 272.02 59.9 272.66 59.53 273.06 58.95 273.45 58.28 273.94 57.82 274.46 57.45 275.13 57.1 276.26 56.88 277.34 56.83 278.18 56.45 278.8 56.2 278.81 55.73 278.92 55.38 278.77 55.06 278.24 54.76 277.22 54.48 275.74 54.14 274.97 53.85 274.06 53.55 273.63 53.04 273.33 52.49 273.31 52.18 273.44 51.82 273.94 51.4 276.14 49.79 278.6 47.49 279.33 46.97 280.04 46.7 281.1 46.65 282.53 46.76 284.09 46.85 285.62 47.24 286.73 47.83 287.64 48.33 288.58 48.77 289.45 48.87 291.45 48.68 293.04 48.61 294.83 48.72 295.95 48.91 297.28 49.28 298.24 49.54 300.04 50.51 301.72 51.7 302.8 52.83 303.48 53.54 304.23 54.27 305.15 54.83 305.88 55.11 307.26 55.22 308.98 55.02 311.4 54.39 314.35 53.34 315.69 52.71 316.47 51.97 317.12 51.37 317.74 50.94 318.2 49.54 318.58 48.36 316 46.05 315.19 45.8 309.89 44.15 309.64 43.95 306.63 41.57 306.06 39.95 305.27 37.64 305.62 36.79 306.63 34.38 309.61 34.38 312.47 34.51 313.82 32.62 317.22 29.63 320.07 28.54 323.06 25.83 323.51 24.13 323.88 22.71 326.59 21.08 329.97 21.31 330.67 21.35 330.77 21.31 334.2 19.72 334.31 19.72 338.41 19.45 341.31 20.77 341.4 20.81 341.52 21.12 342.35 23.39 345.88 25.29 349.28 25.02 353.08 21.76 356.21 20.27 356.59 20.06 358.79 18.91 359.2 16.33 359.12 15.75 358.79 13.35 355.94 10.63 353.7 9.68 353.08 9.41 350.64 8.19 347.65 6.29 346.29 4.53 347.11 2.22 349.28 1 350.61 1.26 352.81 1.68 354.17 1 356.07 1.41 Z M 90.8 66.63 92.81 67.63 94.79 68.64 96.37 69.26 96.93 69.31 98.26 69.14 100.16 68.55 104.12 65.91 107.18 64.54 108.47 64.18 114.65 63.08 116.04 62.39 116.17 61.8 116.28 61.57 116.23 61.22 116.04 60.78 111.01 58.24 108.71 57.77 104.87 57.93 104.62 57.93 103.86 57.57 103.36 56.9 102.31 56.5 102.11 55.97 102.43 55.46 103.55 54.36 103.86 53.85 104.17 53.62 104.47 52.52 104.16 49.08 104.02 48.49 101.48 44.9 87.52 44.56 86.62 46.48 85.9 46.98 85.35 47.53 80.69 50.13 80.17 50.44 79.6 50.71 77.94 51.06 77.42 51.29 76.96 51.68 76.9 51.99 77.2 52.11 77.81 52.31 78.38 52.44 78.68 52.77 79.25 55.79 79.04 57.55 78.95 58.37 79.15 58.68 79.4 59.12 80.89 60.89 81.65 61.43 90.8 66.63 Z M 85.27 70.1 83.96 68.11 82.97 67.26 81.89 68.18 79.59 68.87 77.6 68.34 77.52 67.03 78.67 65.96 78.98 64.89 77.52 63.59 74.69 63.59 73.69 64.28 74.46 65.65 75.91 66.5 73.46 68.49 68.86 69.41 60.27 70.71 56.13 71.02 53.6 71.09 51.91 71.32 50.22 70.94 48.61 70.63 47.39 70.94 47 72.4 48.77 73.08 50.84 73.54 52.89 73.71 56.28 73.62 59.12 74 63.8 75.23 67.78 75.61 71.85 75.84 77.45 76.23 78.75 75.92 82.42 73.45 84.35 71.17 85.27 70.1 Z M 158.07 79.8 159.01 76.45 158.64 73.81 157.35 72.08 155.42 70.77 153.11 69.58 151.83 68.9 148.36 67.48 147.12 67.51 144.84 68.77 143.3 70.81 143.21 72.34 143 73.82 143.51 75.01 144.49 76.79 146.91 77.59 150.09 77.85 152.94 77.81 152.85 78.57 151.41 79.97 149.16 79.97 147.16 81.41 147.67 82.85 148.35 83.83 152.77 83.83 155.01 83.11 156.63 82.17 158.07 79.8 Z M 79.36 45.09 80.74 44.36 80.74 41.76 78.14 39.61 74.61 39.38 72.61 39.46 70.47 41.3 67.32 43.29 67.25 44.82 65.94 45.82 65.55 48.34 65.41 50.41 66.17 51.87 68.93 52.86 71.54 53.48 75.53 54.32 75.73 51.64 77.83 49.34 79.36 46.96 79.36 45.09 Z M 397.08 46.96 397.95 47 399.07 46.99 399.9 46.8 400.56 46.54 401.19 46.09 401.78 45.51 402 44.81 401.93 44.42 401.56 43.71 401.2 43.35 400.39 42.74 399.15 41.95 397.73 41.09 396.29 40.39 394.91 40.09 393.58 40.19 392.88 40.34 392.21 41.02 391.74 41.45 391.42 42.15 391.72 42.82 392.2 43.57 394.84 46.13 395.2 46.37 396.03 46.77 397.08 46.96 Z M 359.82 31.2 360.53 31.44 361.76 31.39 362.37 31.52 364.77 31.56 365.85 31.43 366.62 31.09 366.94 30.42 366.81 29.01 366.06 28.11 365.12 27.73 364.05 27.48 362.79 27.61 361.3 28.02 360.06 28.58 359.39 29.24 359.1 29.83 359.19 30.22 359.29 30.65 359.44 30.94 359.82 31.2 Z" fill-rule="evenodd"/>
</g>
</svg>