<?xml version="1.0"?>
<svg xmlns="http://www.w3.org/2000/svg" version="1.2" baseProfile="tiny" width="800" height="725" viewBox="0 0 800 725" stroke-linecap="round" stroke-linejoin="round">
<g id="elderberryforebay">
<path d="M 197.48 142.87 201.37 140.56 206.3 137.62 218.68 148.43 223.7 163.08 228.61 171.27 230.25 178.63 236.8 184.36 245.8 185.17 248.25 185.17 251.53 185.99 257.25 190.08 261.35 195.81 263.8 202.36 267.07 212.99 268.71 221.18 276.89 224.45 289.17 226.9 295.72 231.81 303.9 244.09 312.08 253.09 316.99 260.45 320.27 266.18 323.54 277.63 335 280.09 341.18 280.09 349.73 280.09 364.46 281.72 376.73 283.36 390.64 286.63 400.46 289.09 413.56 291.54 428.29 289.09 437.29 284.18 448.75 285 455.29 289.09 465.11 296.45 477.39 301.36 487.21 303 489.97 305.2 491.3 306.27 492.12 312 499.48 317.72 508.49 325.09 521.17 329.75 526.84 330.92 529.15 332.7 532.3 335.84 536.28 338.77 541.96 339.1 549.3 338.79 552.24 339.73 578.83 351.27 596.5 357.82 614.18 366.33 627.93 366.33 639.71 359.78 656.73 346.69 672.45 342.77 675.72 353.24 673.76 363.71 671.83 365.63 659.35 378.11 656.79 386.75 649.24 388.91 645.97 394.64 650.06 404.46 654.15 411 669.83 414.11 666.43 429.82 663.15 434.73 659.88 445.37 660.7 457.64 665.61 463.37 671.34 476.46 677.07 483.82 681.98 491.19 691.8 503.46 703.25 507.55 710.42 504.44 722.2 501.17 724.82 492.66 727.25 483.28 729.44 470.73 730.51 469.44 733.53 465.82 743.74 466.06 744.46 469.1 746.16 479.85 746.63 486.28 750.72 488.73 754.81 487.91 765.28 476.72 782.86 469.89 790 470.73 795.73 474 797.42 476.96 799 479.73 797.21 486.42 792.18 492.19 789.86 494.61 784.2 498.81 777.48 505.52 770.77 512.55 770.35 515.18 770.97 517.81 772.66 520.11 774.34 523.16 774.33 525.56 771.81 528.29 770.34 532.08 771.4 533.76 772.23 534.8 773.08 536.89 771.6 538.99 766.56 542.04 762.37 545.19 757.96 548.75 754.39 552.32 744.99 564.01 740.08 571.37 740.08 577.1 747.44 583.64 754.39 586.85 758.6 590 764.26 592.51 768.87 595.13 760.54 598.37 765.45 602.46 772.81 606.55 776.9 610.64 783.45 612.28 792.74 613.35 798.89 627.88 797.85 628.93 796.17 630.92 794.91 633.34 794.91 635.65 794.9 637.32 793.65 638.36 791.34 638.8 779.58 656.62 780.22 659.36 779.79 661.66 779.58 664.18 777.9 665.76 775.8 669.01 772.45 674.15 769.5 680.98 768.24 684.54 768.88 687.79 768.88 692.63 770.34 694.1 770.97 694.41 772.24 694.72 773.28 695.45 691.32 709.49 606.61 724 605.98 723.68 606.61 720.94 606.61 715.82 604.93 711.93 600.87 712.23 586.68 713.25 576.86 713.91 571.14 707.21 570.72 705.21 573.24 702.48 576.17 699.76 583.1 693.99 590.24 689.06 591.07 685.7 589.19 683.91 587.09 681.49 584.99 678.03 584.15 674.98 585.41 673.31 587.08 669.65 586.25 667.12 584.57 664.71 582.05 661.56 577.43 659.25 571.76 656.73 571.56 654.96 572.18 651.69 572.6 647.19 572.39 641.1 569.46 637.64 566.1 636.58 563.15 636.06 558.96 635.22 557.28 634.28 556.44 632.91 555.81 631.76 556.23 629.13 560.04 627.01 566.59 622.1 567.41 618.01 560.86 613.92 555.13 609.01 547.41 607.73 545.52 604.05 543.43 600.49 540.27 596.92 539.86 595.87 539.64 593.14 515.98 574.48 504.17 554.21 503.32 551.28 502.07 546.77 501.44 542.56 499.97 540.67 497.87 538.79 496.19 537.73 496.4 536.16 497.67 534.27 500.6 532.39 502.07 530.92 502.27 528.92 502.28 525.77 501.44 522 499.55 519.9 495.56 519.28 493.46 517.6 494.09 516.12 497.03 515.6 500.39 514.87 505.64 514.86 511.31 513.81 514.03 512.35 515.5 510.25 515.09 507.31 513.82 498.91 506.92 489 504.4 473.18 501.12 465 494.57 454.37 488.85 446.18 478.21 442.09 469.21 438 457.75 431.46 454.48 427.37 446.29 423.27 439.75 424.91 435.65 420 433.2 410.18 424.19 400.06 413.06 393.03 401.31 386.63 390.61 381.07 378.64 375.4 371.92 372.89 363.95 370.79 361 370.79 360.37 371.11 357.86 372.15 355.97 372.58 355.12 372.57 352.4 372.36 350.09 371.63 348.41 370.68 344.63 369.95 339.18 370.48 334.76 371.42 332.45 371.73 331.62 370.16 331.62 367.63 329.94 365.02 328.05 363.65 324.48 361.56 317.56 358.3 309.37 354.11 294.88 348.75 281.65 346.45 273.26 345.92 268.85 346.02 266.54 343.2 265.91 340.99 263.61 337.42 260.03 333.86 254.58 331.02 250.59 328.5 249.12 325.99 249.12 323.77 248.27 320.2 247.65 317.9 242.98 308.07 240.42 303.46 236.43 296.29 236.37 296.22 212.86 266.84 209.88 265.18 201.08 260.29 191.91 241.31 189.33 224.45 187.69 217.08 182.78 210.54 178.69 206.45 175.42 199.9 173.78 191.72 171.33 186.81 165.6 182.72 155.91 175.2 148.67 165.55 141.87 145.9 131.23 133.63 119.86 119.83 119.77 119.72 116.55 115.54 110.36 107.51 108.89 104.15 105.53 100.79 101.55 97.12 95.87 92.72 89.16 84.22 82.02 76.97 76.15 70.37 71.74 64.38 57.67 51.36 44.25 36.46 33.12 27.34 27.02 25.13 22.4 25.66 19.89 27.86 19.47 29.32 15.06 30.91 8.13 32.05 7.13 27.82 7 27.26 6.34 24.48 5.39 20.8 4.58 16.99 3.61 12.91 2.68 8.94 1 1.84 9.18 1 11.08 1.43 13.38 2.05 16.11 4.57 19.47 6.66 23.03 7.82 28.28 7.3 34.16 7.83 38.36 9.07 42.56 10.86 47.8 15.48 54.94 21.36 61.66 27.54 68.17 31.64 94.08 57 124.85 88.42 151.03 111.33 172.64 135.55 184.42 144.71 196.86 159.77 204.82 172.26 207.55 170.16 209.02 167.21 202.42 162.26 199.97 154.9 201.05 150.75 197.48 142.87 Z"/>
</g>
</svg>