<?xml version="1.0"?>
<svg xmlns="http://www.w3.org/2000/svg" version="1.2" baseProfile="tiny" width="800" height="612" viewBox="0 0 800 612" stroke-linecap="round" stroke-linejoin="round">
<g id="lakedavis">
<path d="M 528.55 461.27 527.43 461.24 526.98 460.83 527.88 460.01 528.18 459.53 528.18 459.09 527.43 458.32 527.35 457.52 527.13 455.4 527.88 454.57 529.53 453.77 532.75 452.99 535.91 452.05 539.95 451.2 541.98 450.98 545.43 450.83 547.91 450.62 551.35 450.12 554.95 449 556.75 448.78 560.66 448.77 562.98 448.34 566.5 448.41 568.15 447.87 569.73 446.31 569.5 444.32 569.65 443.44 570.93 442.49 573.33 442.1 574.9 441.03 575.2 438.78 574.08 437.34 572.65 435.89 571.82 434.1 570.78 433.68 569.43 434.05 567.1 435.59 563.66 437.02 561.7 438 559.68 437.69 556.68 437.58 554.13 438.28 550.83 439.45 547.9 440.31 547.23 440.03 546.4 439.71 545.65 439.33 544.83 438.65 545.05 437.99 545.73 437.08 546.55 436.43 547.9 435.93 551.28 433.75 551.35 432.82 550.68 431.97 547.9 431.33 546.41 431.03 544.45 430.24 542.13 429.08 540.25 428.86 538.38 429.31 535.98 430.32 532.68 432.11 530.2 432.67 527.13 433.27 524.8 433.97 522.33 434.85 519.03 436.64 516.93 437.61 515.73 437.45 515.21 436.78 514.97 435.62 514.9 434.42 513.63 432.94 513.48 432.31 514.15 430.65 514.45 428.88 516.48 427.34 518.2 426.49 519.78 425.37 522.25 423.7 524.8 421.81 528.21 419.71 531.55 417.44 534.1 415.64 535.23 415.13 536.42 415.02 537.4 414.51 539.42 412.56 542.12 410.63 543.78 409.16 546.4 407.54 547.38 406.89 547.38 406.14 546.86 405.82 546.55 405.73 545.58 405.93 544.38 406.61 543.1 407.11 541.3 407.87 538.82 408.35 537.1 408.53 535.15 409.07 533.13 410.26 532.3 411.75 531.03 412.47 528.7 413.44 525.55 414.52 523.6 414.7 522.93 414.25 522.48 413.04 522.48 410.25 522.48 408.04 522.33 405.65 522.85 403.76 522.18 402.68 521.43 402.53 520.75 402.74 519.78 403.29 518.88 404.6 518.27 406.31 518.5 408.31 518.43 411.8 517.83 413.69 517 414.56 514.3 416.54 511.75 418.96 510.85 421.02 510.25 423.75 509.88 424.85 507.48 425.28 505.3 425.77 503.27 426.79 501.48 428.07 499.08 430.5 495.48 434.1 492.32 437.26 490.75 438.99 489.11 442.41 487.67 445.21 486.33 445.76 484.23 446.29 483.25 446.31 483.25 445.83 483.7 444.46 484.08 443.67 484.23 442.22 482.35 439.61 481.98 438.63 482.95 437.15 484.9 434.89 486.63 433.11 488.35 431.64 488.73 430.68 488.35 430.05 487.53 429.1 487.75 427.96 487.9 426.85 485.06 426.71 483.7 427.03 481.16 427.64 479.05 427.73 477.26 426.98 475.23 427.02 473.8 427.35 472 428.68 470.81 430.47 469.98 432.71 469.38 434.73 469.37 436.46 468.92 438.17 467.81 439.48 466.01 440.59 463.52 442.04 461.65 444.08 459.85 445.41 454.9 447.96 453.92 447.81 452.28 447.02 448.98 445.75 450.55 444.77 452.95 443.67 455.43 442.4 457.53 440.89 459.32 439.12 460.9 437.25 461.88 435.14 462.1 433.56 461.8 432 460.83 430.92 459.85 430.15 457.53 429.08 455.96 428.42 455.5 427.88 456.7 426.85 458.35 425.42 459.4 424.21 461.13 422.34 461.95 421.21 464.36 419.49 465.26 418.63 466.08 417.54 466.68 416.13 467.43 414.82 467.5 413.85 466.82 413.26 466.01 413.2 465.25 413.94 464.05 414.4 462.25 414.67 460.38 415.03 458.8 415.88 457.3 417.21 455.43 419.03 454.45 420.56 453.55 422.18 452.43 422.77 451 422.79 449.28 421.73 447.85 420.99 447.25 420.05 447.4 418.68 447.85 416.53 448.6 414.6 450.25 411.8 452.88 407.78 456.7 402.11 459.33 398.54 460.38 397.15 460.15 396.08 455.5 396.03 454.68 396.23 452.43 398.31 450.4 399.37 448.67 399.73 446.95 399.65 445.98 398.92 444.78 397.79 443.58 397.28 442.83 397.53 441.03 399.34 438.7 401.99 435.48 404.27 431.58 406.05 430.23 406.1 430.23 405.22 430.23 404.02 430.9 402.71 432.33 399.69 433.98 396.85 435.55 394.23 436.53 391.95 437.2 388.95 438.03 386.36 438.33 383.67 437.73 382.86 437.28 381.52 438.85 378.94 440.28 376.32 440.43 374.2 440.43 371.86 440.28 370.17 440.42 368.8 441.03 365.67 442.9 362.62 444.85 359.25 446.58 357.08 447.03 355.27 446.95 353.59 446.13 352.99 444.85 353.45 443.2 354.57 442.45 355.53 439.3 359.84 436.82 362.44 434.35 364.42 432.85 364.92 431.73 364.37 430.3 363.98 428.43 363.99 425.12 366.04 420.7 368.47 418.15 368.41 415.91 369.38 414.78 369.76 412.75 370.77 412.08 371.34 410.8 371.4 410.05 371.2 409.98 368.99 410.28 368.16 410.8 367.06 411.47 365.93 411.55 365.22 411.62 363.19 412.15 361.87 412.9 360.82 413.73 360.44 414.92 359.94 415.75 359.38 415.37 359.02 415.22 358.4 415.23 357.55 415.91 357.26 416.95 357.59 418.6 357.58 419.65 356.9 419.5 356.01 418.75 354.44 417.32 351.05 416.65 350.2 416.5 347.27 417.55 345.79 418.45 344.7 419.13 343.61 419.36 341.76 418.82 340.15 418.07 339.25 416.73 339.36 415.75 339.65 414.33 340.68 412.08 342.66 410.87 344.14 408.78 345.91 407.65 346.02 406.83 345.83 406.6 345.47 406.45 344.31 405.56 343.98 404.8 343.84 403.75 344.17 402.48 345.25 400.23 346.61 398.5 347.64 396.78 348.09 395.2 348.1 395.05 347.17 395.06 346.19 394.68 345.04 394.15 344.05 394.98 343.58 395.81 343.16 398.05 342.01 399.55 340.98 400.68 339.72 401.73 338.15 402.92 335.88 403.68 334.48 404.8 333.39 406.61 331.84 407.95 330.45 408.7 329.36 408.48 328.56 408.33 327.59 408.78 327.2 410.8 325.96 411.33 325.26 411.85 323.94 411.47 323.05 409.98 322.53 408.02 322.84 406.75 322.51 404.95 322.2 402.93 322.03 401.43 322.88 399.62 323.99 399.1 323.89 399.48 322.75 399.93 321.17 400.53 319.1 401.2 316.68 400.83 314.99 399.85 312.85 399.25 311.15 398.57 310.7 397.82 310.94 396.48 312.24 395.5 313.28 394.45 315.08 393.17 317.53 391.07 319.38 389.5 320.15 386.5 322.25 386.2 323 385.38 323.82 383.51 325.15 381.7 326.04 379.83 326.09 379 326.51 377.13 327.01 377.13 326.08 377.28 324.49 376.82 322.13 374.95 320.23 374.12 319.07 374.13 317.56 374.43 316.06 374.73 314.3 375.7 311.75 376.23 310.22 376.08 309.24 375.25 309.49 374.42 309.78 373.3 311.04 371.43 312.77 370 314.42 367.45 316.22 365.65 317.34 364.3 318.81 363.25 320.78 362.28 321.95 360.4 323.42 359.05 323.83 357.41 323.93 356.28 323.86 354.93 324.45 353.42 324.91 351.7 325.71 350.2 325.94 348.63 325.73 347.2 325.52 345.62 325.36 345.32 324.34 344.88 323.88 344.05 323.91 343.23 324.38 341.73 324.83 340.08 325.24 338.72 325.17 336.63 324.9 334.9 325.62 333.18 325.89 331.6 325.37 330.55 325.3 328.75 325.62 327.7 325.51 326.95 324.65 326.35 324.28 325.38 324.17 324.63 323.67 324.63 323.05 325.38 321.61 325.75 320.51 325.53 319.22 323.65 319.36 317.58 320.6 313.45 321.04 311.8 321.63 309.4 323.26 308.21 323.9 307.53 323.53 307.46 322.77 307.83 321.54 308.51 319.96 309.4 318.3 310.3 316.73 310.9 315.59 311.95 314.33 311.65 313.35 310.6 312.75 308.5 312.75 304.83 313.29 302.72 313.43 302.05 312.62 302.05 311.51 302.8 309.09 303.93 307.43 304 304.56 303.7 303.05 302.35 301.56 302.43 300.77 304.82 299.49 305.57 298.97 306.25 297.22 306.62 296.61 308.13 295.8 309.03 295.15 310.08 293.89 311.05 292.72 311.35 291.62 310.83 290.86 309.77 290.79 308.42 291.29 307.67 291.36 306.62 291.21 305.65 291.06 304.6 291.43 303.1 292.42 301.15 294.37 298.38 296.39 295.15 298.49 293.43 299.91 291.33 302.17 288.25 305.6 286.15 308.03 285.63 309.3 284.28 311.97 283.53 313.81 282.78 315.79 280.9 318.31 279.62 319.53 278.12 320.47 276.26 321.84 275.73 321.83 276.03 320.78 276.78 319.69 278.13 318.57 278.65 317.43 279.1 315.89 280.01 313.52 280.82 311.15 281.28 309.56 281.43 308.46 280.15 307.86 277.45 307.84 274.61 308.4 271.97 309.05 268.75 309.38 268.22 308.58 268 307.6 268.22 306.59 269.27 305.94 270.78 305.53 272.13 304.99 273.7 304.31 275.27 303.37 276.77 302.65 278.57 302.16 280.46 301.63 282.25 300.47 283 299.78 283.75 298.82 285.55 296.16 287.5 292.93 290.06 288.69 290.65 287.15 291.62 285.23 292.38 284.05 293.5 282.79 295 281.36 294.7 280.73 293.81 280.54 291.93 281.52 289.37 283.28 287.12 284.42 285.1 285.31 283.68 285.5 282.17 286.4 279.55 288.29 276.18 290.25 268.75 294.16 267.25 295.24 264.63 297.7 260.35 301.51 258.18 303.32 257.35 303.26 257.13 303.03 257.35 302.24 257.88 300.66 258.33 299.38 258.33 298.06 257.73 297.07 255.48 296.98 253.9 296.77 251.43 296.18 249.78 295.97 248.5 295.59 246.18 295.54 244.6 294.8 243.55 294.47 242.35 294.44 241.45 295.13 240.1 295.72 239.43 295.53 239.5 294.65 240.17 293.73 241.45 292.12 242.65 290.64 243.33 288.84 243.33 287.47 242.8 287.24 241 287.78 239.95 287.44 237.85 287.4 237.1 287.92 235.75 289.13 234.62 290.03 233.42 290.4 232.9 289.91 233.2 288.98 234.48 287.86 235.37 287.13 235.67 285.76 236.5 284.94 237.33 284.2 239.43 282.92 242.05 281.87 243.78 280.71 244.23 279.79 244.53 278.56 244.76 277.28 245.35 276.72 246.02 277 246.92 278.17 248.58 279.53 250.75 280.15 252.71 280.24 254.28 279.92 254.73 279.31 254.35 278.59 253.45 277.2 252.93 275.73 252.93 274.67 251.88 273.5 251.2 272.86 251.35 271.94 251.88 271.28 252.93 270.69 254.35 270.05 255.78 269.77 256.45 268.95 256.6 268.07 255.32 267.99 252.7 268.03 253.15 266.71 254.73 264.75 256.75 263.38 258.63 261.91 259 260.99 258.4 260.58 256.6 260.59 255.78 260.79 254.65 261.48 252.4 263.42 250.3 265.23 248.73 267.15 247 268.44 246.93 269.32 244.9 269.81 243.78 270.67 242.8 271.89 242.58 273.12 241.22 273.75 240.48 274.36 240.48 275.73 239.73 276.02 237.32 276.68 235.75 278.33 234.62 279.01 232.53 278.57 231.85 279.66 231.25 280.09 230.05 280.86 227.5 281.56 225.77 281.83 223.82 281.17 222.03 280.16 221.95 279.63 221.73 279.27 221.96 278.35 223.08 277.53 224.58 276.54 225.48 275.72 225.4 274.75 225.63 274.13 226.07 273.12 225.92 271.93 227.2 271.47 227.95 270.95 229 269.82 229.98 267.68 231.1 265.4 231.55 265.05 233.05 264.2 234.77 263.49 235.37 262.97 235.07 262.3 232.68 262.29 231.55 262.18 230.05 261.39 229.37 261.29 228.63 261.5 227.36 261.47 226.23 261.71 225.18 262.04 223.9 262.24 222.25 263.26 221.73 264.14 220.75 264.47 218.13 265.04 216.63 265.18 216.63 264.6 217.53 263.78 219.17 262.93 220.82 262.22 221.43 261.39 222.32 260.65 222.4 259.99 221.95 259.59 219.41 259.49 218.65 259.82 217.9 259.72 217.68 258.74 217.08 257.84 216.26 257.12 214.97 256.78 213.55 257.11 212.5 257.7 212.43 256.9 211.83 256.36 210.85 256.43 206.5 256.47 204.85 256.79 203.65 257.16 203.43 257.69 202.37 258.99 201.25 259.5 200.57 259.26 200.5 258.78 201.4 257.91 202.08 257.3 202 256.33 202.83 255.99 204.55 255.72 204.62 255.23 204.55 254.83 202.3 254.83 200.8 255.02 197.43 256.85 195.78 257.35 194.73 257.37 193.98 256.38 193.22 256.01 190.3 256.08 188.12 256.79 186.4 256.8 187.15 256.1 188.5 255.25 189.55 254.83 191.95 254.74 194.58 254.93 196.83 254.76 198.63 254.09 200.87 252.94 202.3 251.69 202.52 250.41 202.3 248.99 203.8 247.7 205.9 246.68 206.96 245.51 207.7 244.19 207.77 242.12 208 241.1 208.67 240.9 209.8 241.01 211.38 241.66 212.65 242.26 214.38 242.39 215.12 242.23 215.5 241.79 216.02 240.34 216.55 239.65 217.9 238.44 218.2 237.78 217.68 236.93 218.13 236.27 218.8 236.16 219.1 235.45 218.2 234.68 218.12 233.89 218.88 231.38 219.55 230.29 219.78 229.05 220.75 227.22 220.98 226.73 220.98 226.07 220.23 225.97 219.47 226.17 218.65 227.17 218.13 227.47 216.4 227.88 215.27 228.38 214.45 229.16 214.15 229.77 214.23 230.97 213.85 231.58 212.95 232.18 211.9 232.56 211.08 233.03 209.73 232.11 209.13 231.26 208.75 230.01 208.22 229.6 207.25 229.72 206.12 230.67 205.15 231.18 204.03 231.82 202.53 232.62 201.7 233.14 201.17 233.79 200.88 235.02 200.2 235.63 198.63 236.44 197.27 237.07 196.75 237.68 195.02 239.28 193.45 240.88 192.62 241.04 191.95 240.63 191.43 240.18 190.75 239.81 190.6 239.45 190.82 238.39 189.85 237.71 189.02 237.03 189.4 235.8 190 235.23 190.3 234.75 190.68 234.1 190.3 233.29 189.7 232.53 189.55 231.91 190.3 231.61 191.87 231.34 192.32 230.81 192.32 229.44 192.03 228.11 192.18 227.23 192.62 226.62 193.98 225.36 194.27 223.73 194.8 223.04 196 223.59 197.05 223.92 198.32 224.08 199.98 224.07 200.72 223.69 201.25 222.69 201.48 221.85 201.55 220.75 202.53 220.63 203.73 220.31 204.63 219.66 205.6 218.49 205.68 217.65 205.6 216.19 206.57 216.47 207.77 216.72 208.97 216.66 210.25 216.15 212.5 214.83 214.23 213.71 215.12 212.98 216.32 212.56 217.9 211.71 218.27 210.92 218.58 210.09 219.1 209.57 219.4 209.31 219.18 208.78 218.5 208.41 217.38 208.07 217.38 206.44 216.1 206.23 214.37 205.71 212.27 205.66 210.85 205.9 209.73 206.32 208 207.21 206.5 206.96 204.85 206.61 203.8 205.57 202.52 204.93 200.42 204.17 198.1 203.81 196.3 203.69 194.8 204.1 192.4 204.84 190.6 205.38 188.42 206.26 184.9 207.74 182.2 207.73 181.82 207.32 182.13 206.31 182.5 205.74 182.27 204.85 182.06 203.87 182.05 203.47 183.47 201.25 183.48 200.27 182.8 199.69 182.2 199.45 182.5 199.02 183.55 198.9 185.28 198.63 185.42 198.19 185.42 197.31 185.05 196.68 185.12 196.24 186.17 194.67 186.02 194.22 185.05 194.03 182.2 193.92 179.42 193.51 178.08 193.35 177.33 193.37 176.58 193.54 175.6 193.56 175.75 193.03 176.5 191.99 177.33 190.54 177.4 189.66 178.38 189.15 179.05 188.59 179.95 187.28 180.47 187.07 182.05 187.02 182.57 186.41 183.1 185.49 183.55 183.91 183.7 182.18 184.68 181.32 185.35 181.24 186.25 181.04 186.4 180.69 186.25 179.36 186.4 178.61 185.87 178.34 184.9 178.36 183.55 179.26 181 181.02 179.28 182.35 177.85 183.3 175.6 184.8 173.72 185.69 172 186.58 170.5 187.48 169.3 188.03 168.48 188.85 167.65 190.12 167.2 190.86 166.38 191.02 165.92 190.7 165.63 189.76 165.63 188.52 166.37 187.74 170.2 184.82 173.2 182.49 174.18 181.67 174.78 179.87 175.23 178.42 175.82 176.84 176.28 175.96 176.27 174.86 176.05 174.59 175.9 174.1 176.27 173.93 177.32 173.11 178.3 171.8 179.13 170.45 180.47 168.84 181.15 168.32 181.75 168.12 182.8 167.87 183.02 167.43 183.02 165.4 185.05 163.58 185.72 162.98 186.55 161.05 188.43 160.12 190.15 159.97 191.28 159.42 191.43 158.81 191.35 158.5 187.75 158.42 186.4 158.3 185.72 158.29 185.58 159.04 185.12 159.43 184 159.36 183.85 159.89 184 160.6 182.43 160.79 182.28 161.45 182.57 163.13 182.2 164.41 180.85 165.66 178.75 167.52 177.03 169.3 176.05 170.43 174.18 171.85 173.43 173.29 172.45 174.16 170.8 176.02 169.6 176.84 168.55 177.3 166.45 177.83 165.17 178.12 163.9 179.11 161.72 180.79 159.4 182.42 157.22 183.57 154.9 184.36 153.18 184.85 150.85 184.67 149.51 184.69 148.08 184.83 145.75 184.92 144.33 185.11 142.67 185.56 141.25 185.88 140.05 186.21 138.93 186.41 138.48 186.4 138.62 185.92 139.23 185.53 139.75 185.19 140.5 184.94 141.78 184.88 142.9 184.28 143.35 184.03 143.8 183.5 144.55 182.81 144.62 180.87 144.1 179.79 143.35 179.16 142.6 178.88 141.48 178.81 140.05 179.09 138.92 179.33 138.17 179.36 137.8 179 137.8 178.42 138.4 177.95 138.93 177.34 139.97 176.65 140.5 176.22 142.9 174.72 144.62 173.88 146.43 172.94 146.65 171.97 146.5 170.73 145.38 170.71 143.65 170.94 142.08 171.12 141.33 171.15 140.5 170.74 139.68 170.28 138.63 170.3 137.8 170.55 137.35 171.42 135.63 171.38 132.71 171.28 130.07 171.05 127.38 171.08 122.58 171.11 119.8 171.01 118.37 171.15 117.4 171.31 116.58 171.78 116.05 172.61 115 173.03 113.95 172.7 113.13 172.37 112.23 172.22 111.85 172.48 110.65 173.07 110.12 173.15 109.07 172.77 108.55 172.58 107.12 172.46 106.22 171.87 105.33 171.19 104.12 170.5 102.77 169.81 101.43 169.29 100.22 168.96 98.72 168.88 98.35 169.14 97.97 169.62 97.98 170.5 98.13 171.17 98.42 171.7 99.4 172.83 99.55 173.36 98.88 173.84 98.73 174.23 98.42 175.29 97.75 175.85 96.7 176.4 94.45 178.3 93.85 179.04 93.62 179.7 92.73 180.08 92.2 180.29 90.18 180.33 88.9 180.31 87.03 180.18 85.9 179.93 84.33 179.99 83.57 180.15 83.2 180.45 82.83 180.93 82.45 182.38 82 183.57 81.78 183.87 80.95 183.72 80.5 183.49 79.75 182.81 79.15 182.01 78.92 181.07 78.62 180.22 78.1 179.95 77.35 179.89 76.53 179.56 76.08 179.11 75.48 178.34 75.02 177.76 74.35 177.97 74.2 178.98 74.05 180.08 73.68 181.09 73.75 181.67 73.75 182.69 73.3 183.21 72.03 184.16 70.6 184.97 68.65 186.61 67.91 186.9 66.4 187.13 66.1 187.39 64.9 188.47 64.38 188.46 63.48 188.44 62.8 188.25 62.05 188.15 61.38 187.91 61 187.46 61.38 187.12 62.05 187.04 63.1 186.98 64.15 186.95 64.67 186.21 65.2 185.91 66.4 185.76 67.75 184.99 68.8 184.4 69.93 183.8 70.9 183.29 72.03 182.56 72.62 181.96 72.7 181.12 72.48 180.23 72.48 179.21 72.62 177.8 71.88 177.47 71.05 177.14 70.38 177.04 69.86 177.38 69.33 177.86 68.87 177.63 68.5 177.31 67.9 177.21 67.6 177.51 67.08 178.12 66.48 179.52 64.9 181.22 63.85 181.99 62.8 182.46 61.3 182.65 60.26 182.93 59.65 183.36 58.82 183.74 58.15 184.39 57.55 184.87 56.88 184.85 56.2 184.48 55.53 184.03 54.78 183.97 54.48 184.32 54.25 185.24 54.1 185.81 53.5 186.11 52.68 186.14 52.68 185.78 52.23 185.33 52.38 184.67 52.68 184.54 52.97 184.15 53.5 183.45 53.95 182.93 54.63 182.68 56.05 182.71 57.17 182.65 57.55 181.86 58.15 181.65 60.25 181.74 61.68 181.55 62.8 181.35 63.48 180.83 63.85 180.09 64.08 179.08 64.23 178.02 64.37 177.45 64.9 177.15 66.4 176.47 67.52 175.83 68.5 175.23 69.33 174.59 69.25 174.18 68.88 173.96 68.05 173.67 67.38 173.48 65.95 172.96 64.82 172.54 64.45 172.14 64.67 171.88 65.65 171.9 66.92 172.54 68.35 172.93 69.33 173.21 71.13 173.12 71.87 173.36 71.87 173.98 71.73 174.9 71.88 175.35 72.63 175.67 73.3 175.51 74.35 175.4 74.8 175.01 75.33 173.87 75.32 172.81 75.85 171.62 77.35 170.95 80.5 169.56 82.83 168.41 84.93 167.13 87.93 165.29 91.15 162.74 93.48 160.85 94.9 159.77 95.42 159.12 95.88 158.29 96.4 158.03 96.77 158.09 97.9 158.73 98.43 158.96 99.4 158.63 100.6 157.59 101.72 156.42 102.55 155.11 103.3 153.71 104.13 153.68 105.32 154.37 107.2 154.55 109.75 153.54 112.6 152.49 116.28 150.67 118.97 149.26 119.73 148.62 119.73 147.02 119.13 145.11 118.15 142.83 116.95 140.64 115.75 138.93 115.45 137.55 114.4 136.78 112.98 136.57 111.03 136.57 108.55 137.63 106.97 138.04 103.3 138.27 101.5 138.45 99.7 139.21 97.38 140.27 95.2 140.27 94 139.89 90.1 139.94 88 140.25 86.73 140.35 85.38 140.68 82.6 141.02 80.35 141.06 79.45 140.86 79 140.59 78.7 139.96 79.15 139.66 80.2 139.55 81.55 139.4 83.2 138.91 84.63 138.49 85.6 137.81 86.28 136.98 86.57 135.75 87.47 135.15 90.7 135.04 93.03 134.2 95.12 133.1 97.37 131.51 99.62 131.29 100.45 131.04 101.88 130.36 102.85 130.07 104.57 129.89 105.7 129.38 106.82 128.74 108.1 127.8 108.85 127.59 111.7 127.47 112.97 127.01 114.48 126.03 115.15 125.6 117.4 125.56 118.37 125.23 119.5 123.92 120.25 123.27 121.52 122.15 123.62 120.07 124.98 118.42 125.95 117.11 126.25 116.45 126.4 115.22 126.17 114.37 126.17 113.75 127.75 113.03 128.13 112.16 128.5 111.63 129.55 111.39 130.08 111.36 130.9 110.93 132.1 109.81 133.22 108.81 134.42 108.44 135.7 108.2 136.82 107.83 137.8 107.23 138.55 106.8 139.22 106.29 139.38 105.76 139.23 104.96 138.47 104.37 137.57 104.13 136 103.83 133.68 103.74 130.23 103.71 127.98 103.7 125.58 104.1 122.58 104.74 121.45 105.29 119.87 105.97 118.15 107.08 117.1 107.23 115.83 107.52 114.17 108.1 113.12 108.61 112.6 108.42 111.62 108.14 110.12 107.79 108.55 107.72 107.2 108.13 106.45 108.42 104.95 109.23 103.98 109.26 104.05 108.51 104.42 107.98 105.25 107.25 106.45 106.43 108.1 105.36 110.05 104.3 113.12 102.95 116.57 101.6 120.7 100.23 123.25 99.18 124.67 98.41 125.88 97.55 126.55 96.9 127.45 95.73 127.97 95.21 129.93 95.25 132.55 94.11 134.12 93.66 135.1 93.85 136.6 94.68 137.88 94.75 139.98 94.8 140.95 94.2 141.92 93.73 143.05 93.14 144.1 92.23 144.63 91.89 145.75 91.38 146.95 91.98 148.98 91.67 149.95 90.76 151.45 90.75 152.2 91.25 152.95 91.36 157.15 91.53 159.17 91.4 160.75 90.28 161.5 90.17 161.72 90.3 162.48 91.29 164.05 92.48 164.04 93.67 164.88 94.53 164.65 96.83 164.8 100.5 163.08 101.7 162.78 102.85 162.77 103.33 162.77 104.09 161.65 104.68 161.5 105.12 161.87 106.37 161.87 107.61 161.5 108.4 160.6 108.55 158.42 109.35 157.45 110.08 157.07 111.04 156.48 111.47 154.98 112.24 153.62 113.14 153.62 113.67 154.9 114.8 155.65 115.75 156.55 116.17 157.83 116.55 158.2 116.16 158.5 115.54 159.03 114.71 159.7 114.24 161.2 114.18 162.77 114.66 163.75 114.86 166.6 113.95 168.32 113.72 175.75 113.61 178.67 113.98 179.72 114.36 181.6 115.59 182.57 115.66 183.4 115.19 183.55 114.48 184.45 113.79 185.72 112.98 187.6 112 187.97 111.48 187.97 108.87 189.03 108.94 190.08 109.31 191.72 110.1 193.68 110.58 196.53 110.64 198.02 110.45 200.27 109.57 200.88 109.63 202.82 110.51 205.67 110.84 208.45 110.68 209.72 110.39 210.85 109.53 211.6 108.4 216.25 108.27 221.35 107.72 225.25 108.91 227.35 109.17 229.52 109.44 230.05 109.05 229.83 108.47 228.03 107.55 226.45 106.9 225.1 106.29 223.83 105.6 222.55 104.65 221.95 103.66 220.98 102.49 219.7 102.15 217.37 102.32 215.8 101.23 214.53 101.07 212.8 101.17 210.85 101.74 208.97 102.59 207.7 102.56 206.8 102.32 205.38 101.67 204.1 101.42 203.12 101.53 202 102 201.25 102.78 199.9 104.7 198.85 104.76 197.57 105 196.14 105.28 194.73 105.34 193.15 104.91 191.12 104.91 189.7 104.75 189.55 104.3 190.3 103.7 191.13 103.05 191.87 102.14 192.55 101.09 193.52 99.83 194.28 99.22 195.25 98.76 195.55 97.79 195.55 96.86 195.55 95.09 194.8 94.19 193.68 94.12 191.87 94.31 190.15 94.84 188.27 95.65 187.15 96.11 185.72 96.74 184.3 97.73 183.33 98.11 182.57 98.58 180.18 100.34 179.27 100.68 177.62 101.79 176.12 102.29 175.15 102.14 174.77 101.69 174.32 100.97 173.73 100.38 172.15 100.44 171.17 100.64 169.9 100.79 169.3 100.46 169.15 100.02 169.52 99.63 169.82 99.32 170.87 98.51 171.63 97.77 172.67 95.84 173.35 94.31 173.43 93.29 173.57 92.77 174.47 92.39 174.85 91.91 175 91.51 175 90.28 176.12 89.64 176.2 89.15 176.27 88.05 177.7 87.37 178.6 87.39 179.42 87.32 179.65 86.92 179.65 86.44 179.35 85.9 178.75 84.87 178.68 83.63 178.15 83.22 177.1 83.46 174.18 85.21 172.15 86.32 171.1 86.57 170.05 86.1 169.23 85.51 168.33 83.94 167.65 83 166.15 81.24 164.65 79.83 163.9 78.76 162.47 78.15 160.45 78.11 159.03 78.08 158.8 77.37 158.65 76.3 158.65 73.34 158.8 71.83 159.78 70.75 160.45 70.28 161.5 70.12 163.07 70.11 164.65 69.92 165.17 69.27 165.77 68.31 166.67 67.09 167.72 66.05 168.55 65.27 169.3 64.14 169.6 63.22 169.3 62.46 168.17 62.12 167.35 62.19 166 62.65 164.8 63.16 163.23 63.17 161.73 62.87 160.9 62.32 159.92 61.5 158.87 60.51 157.45 60.44 156.02 60.58 155.05 61.18 153.18 62.73 151.6 63.81 150.85 63.97 149.8 64.61 148.97 64.77 148.3 65.24 146.95 65.74 146.05 65.99 144.85 66.76 144.32 67.81 144.18 69.14 143.58 69.17 141.47 70.14 139.45 71.6 137.8 72.23 133.98 74.54 132.48 74.82 130.82 75.98 129.25 77.01 127.23 77.72 125.95 77.95 124.08 79.15 121.82 79.28 119.95 79.51 117.62 80.26 113.95 81.19 112.3 81.87 111.02 81.89 110.42 81.74 108.77 81.79 107.28 82.07 105.32 82.61 104.87 82.55 104.88 82.29 105.54 81.64 107.72 79.6 108.02 79.39 110.72 79.36 112.83 78.69 115.82 77.39 119.13 76 121.67 75.16 125.42 73.47 127.97 72.24 130.9 70.01 132.25 68 132.85 66.51 133.15 65.23 132.92 64.61 131.88 63.88 130.22 63.66 127.07 63.69 123.62 63.7 121.75 63.71 118.68 64.22 115.45 65.08 113.27 66.05 111.85 66.86 110.57 67.72 110.12 68.42 109.37 69.28 107.87 69.7 106.67 70.02 105.55 70.75 104.42 71.04 103.37 71.64 102.85 71.62 102.77 71.27 102.55 70.56 102.03 70.32 101.2 70.31 100.45 70.73 99.32 71.51 98.43 72.28 98.28 72.99 98.42 73.35 99.17 73.49 99.92 73.6 100.15 74.09 99.55 74.56 98.42 74.72 97.6 74.92 96.4 75.2 95.72 75.46 95.05 75.57 94.75 75.35 94.75 74.86 95.27 74.21 96.4 73.39 96.85 72.69 96.77 72.16 95.27 71.55 94.3 71.31 93.47 71.16 91.98 71.26 90.48 71.76 89.27 72.09 88.52 72.52 87.85 73.12 87.02 73.63 86.42 73.75 85.45 73.51 84.32 73.4 83.35 73.38 82 73.75 80.5 74.56 78.92 75.59 77.2 76.92 76.07 77.69 73.9 78.67 73.45 79.28 72.7 80.15 72.1 80.27 71.35 80.52 70.45 80.67 69.63 81.06 69.03 81.35 68.5 81.69 67.98 81.95 67.23 81.8 66.17 81.51 65.65 81.5 64.53 82.36 63.85 81.99 62.8 81.88 62.2 82.36 61.52 82.39 59.65 82.13 59.65 81.51 60.4 81.04 61.97 79.96 62.5 79.67 64.37 79.26 65.65 78.98 65.8 77.61 66.33 76.69 68.5 75.85 70.83 74.22 72.1 72.79 72.62 71.87 72.92 69.84 72.17 69.16 70.82 69.18 66.03 69.56 62.8 69.94 60.78 70.38 57.92 71.21 55.98 71.56 54.25 72.01 52.67 73.4 51.17 74.56 49.82 74.97 47.8 74.97 45.4 75.1 44.95 75.84 44.95 78.01 44.65 79.16 43.6 79.8 42.1 80.08 40.52 81.19 39.47 81.97 38.65 82.17 37.6 82.95 36.1 83.14 34.75 83.19 33.55 84.23 33.7 85.43 33.4 86.17 31.67 86.58 31.22 85.86 31.68 84.68 31.68 82.86 32.42 82.22 33.48 81.8 35.8 81.76 36.7 81.47 40.53 79.2 42.7 78.01 42.85 77.44 42.1 76.54 41.27 76.43 39.18 76.56 36.33 77.03 32.95 77.18 30.33 77.3 28.53 77.05 27.1 76.35 25.67 76.19 23.95 76.51 22.75 77.1 20.27 78.91 19.3 79.15 17.87 79.52 16.37 79.14 15.85 79.3 15.55 80.36 14.57 81 12.55 81.18 11.57 81.51 11.12 81.99 10.9 82.83 9.32 83.15 7.3 83.46 5.58 84.13 4.9 84.6 4.6 85.66 3.85 86.08 3.63 87.01 2.35 87.38 1.45 87.23 1 86.64 1.23 85.76 2.42 85.04 2.8 84.91 2.8 82.88 4.6 82.69 6.7 82.65 7.9 82.05 8.87 80.92 9.77 80.59 10.68 80.39 11.87 80.28 13.75 79.12 14.72 78.57 15.32 77.52 15.85 77.18 17.58 77.21 18.7 77.24 19.9 76.11 20.72 75.64 21.77 75.53 23.95 75.49 25 74.49 25.82 74.33 26.95 74.71 28.07 75.13 29.12 75.42 30.03 75.48 33.78 75.39 37.08 75.15 39.55 74.93 40.15 74.72 40.22 73.66 39.4 72.1 39.7 71.71 40.37 71.19 40.37 70.22 39.47 69.4 39.7 69.05 41.35 67.63 42.85 66.46 42.7 66.02 40.75 65.98 38.95 66.12 38.13 66.45 37.3 66.39 37.07 65.81 37.52 65.25 38.88 63.77 40.52 62.52 42.55 61.46 44.12 60.83 45.93 60.25 47.13 59.61 49.3 58.37 50.13 57.81 51.18 57.79 51.4 59.61 51.77 60.55 52.23 61 53.05 61.37 54.7 62.11 58.15 61.7 61.97 60.32 63.62 60.53 64.82 60.95 66.77 60.77 68.87 60.24 71.35 57.95 72.47 55.94 73.45 52.95 74.35 52.13 77.2 50.69 77.35 49.8 75.54 48.22 74.95 47.32 75.32 46.57 77.35 45.25 77.43 42.46 77.8 41.8 79.3 42.41 81.47 42.85 84.02 42.82 88.3 43.31 89.87 43.12 91.6 42.1 94.15 39.45 96.4 37.91 98.95 36.99 101.72 36.16 106.67 35.82 109 35.6 110.87 35.64 115.15 34.41 116.8 34.22 119.43 33.3 120.48 33.1 123.02 33.11 125.42 32.72 127.75 31.75 130.38 30.31 131.65 29.27 132.47 28.8 134.12 28.66 135.92 28.39 138.1 26.8 138.62 26.81 140.2 27.28 141.7 27.05 145.23 26.15 146.95 25.83 148.22 24.75 149.05 24.11 149.95 23.82 150.92 23.13 151.9 22.75 153.02 22.51 153.78 22.13 154.3 21.65 155.35 21.63 156.25 21.43 156.92 20.43 157.9 20.14 158.87 19.67 159.92 19.21 160.37 19.57 160.67 19.71 161.72 19.29 162.85 18.91 163.75 18.8 164.65 19.31 165.7 19.46 166.75 19.39 168.02 19.07 169.6 18.57 170.88 17.84 172.07 17.12 172.97 16.61 173.65 16.53 175 17.53 176.04 17.47 177.62 16.66 179.12 15.5 180.17 14.81 180.92 14.65 182.27 15.17 183.55 15.37 185.42 15.37 187.52 14.57 188.42 14.59 189.85 15.11 191.88 15.06 194.27 14.76 195.85 15.23 197.87 15.23 200.42 14.36 202.53 13.25 203.57 13.1 204.7 13.34 209.34 13.4 211.83 12.96 213.47 12.11 213.78 11.5 214.45 10.89 215.13 10.42 216.33 10.62 217.6 10.78 218.27 10.58 220.45 8.94 221.42 8.21 221.95 8.22 222.62 8.72 224.04 9.9 225.55 9.85 228.02 8.71 229.83 7.86 230.65 7.74 232.67 8.85 234.17 8.7 235.9 8.34 237.48 7.89 238.9 6.99 239.72 6.39 240.93 6.1 242.87 6.99 244.45 7.33 246.17 7.63 247.75 7.31 249.25 6.41 250.59 5.78 251.57 5.05 253.6 3.32 255.02 1.89 256 1.34 256.82 1 257.42 1.81 257.34 2.82 257.5 3.58 258.17 4.35 260.05 4.87 261.99 4.87 266.64 3.51 269.42 2.42 271.6 1.53 271.68 3.79 271.97 4.55 274.74 5.41 276.17 5.75 277.97 6.49 280.45 7.74 283.52 9.89 286.22 11.62 287.57 12.98 287.79 14.36 288.85 17.3 289.97 20.33 290.8 22.78 291.25 25.32 291.85 29.58 291.85 31.39 291.4 33.11 291.25 35.09 290.65 36.9 289.44 38.42 289 39.43 288.85 42.83 289.22 44.87 289.82 46.13 291.32 47.22 293.42 47.93 295.22 47.88 296.05 49 296.27 50.24 296.72 50.87 298.3 51.04 299.27 50.66 299.65 49.96 299.65 48.81 299.35 47.7 298.82 45.74 298.07 43.82 298.07 40.95 298.82 38.84 299.35 36.9 300.48 34.98 301.08 33.71 301.45 33.63 301.83 33.86 303.25 35.04 304.53 35.33 305.57 35.84 305.94 37.44 306.77 38.96 307.98 40.32 309.32 41.67 309.77 43.32 310.52 43.91 312.17 44.52 312.93 45.02 314.2 46.47 315.4 47.56 316.53 47.49 317.27 46.98 318.17 46.07 319.37 43.61 320.05 41.33 320.5 40.81 321.4 40.69 322.52 40.32 322.75 39.7 323.05 39.09 323.95 39.11 325.59 39.63 327.48 39.67 328.97 39.22 330.02 38.84 330.85 38.86 331.07 39.44 330.77 39.96 330.25 40.79 329.87 41.18 329.5 42.28 329.2 45.5 328.9 46.91 328.38 48.63 328.37 49.51 328.97 49.84 330.25 50.39 330.78 51.07 331.75 51.13 332.2 51.76 333.18 52.89 334.44 53.18 334.9 53.59 335.35 54.26 336.03 54.81 337.15 55.14 338.42 55.17 340.3 54.24 341.28 53.9 342.92 54.29 345.62 54.39 346.97 54.07 348.17 53.48 348.84 52.78 349.45 52 349.9 51.21 350.13 50.2 350.57 49.9 351.85 50.94 353.27 52.43 354.62 53.48 354.7 55.47 355 56.28 354.33 57.1 354.17 57.76 354.55 58.7 354.62 59.59 353.12 61.19 351.85 62.67 351.4 63.72 351.55 65.1 352.9 67.56 352.97 68.53 353.28 70.05 353.72 71.56 354.33 72.59 355.9 73.91 357.17 74.64 359.05 74.81 359.12 74.06 358.45 72.46 358.08 70.72 357.7 69.12 357.47 68.14 357.55 67.17 358 66.52 358.82 65.34 359.12 64.77 359.13 63.53 359.72 63.15 361 62.6 361.9 62.04 362.57 61.31 363.55 60.4 364.6 59.49 365.13 59.46 365.57 60.17 365.58 60.93 364.82 62.46 365.12 64.5 365.64 66.95 366.4 69.26 367.6 71.59 369.4 73.27 370.75 74.4 372.25 74.7 372.92 74.49 373.22 73.39 373.82 72.52 374.72 71.57 375.4 70.74 375.7 69.46 375.47 68.39 373.67 66.06 373.15 65.07 373.23 64.1 375.47 62.38 375.55 61.72 375.55 59.77 375.77 58.84 377.72 58.8 378.55 58.59 379 58.07 379 55.99 380.5 55.01 381.77 54.59 382.98 53.91 384.25 52.79 385.6 51.84 386.57 51.29 387.25 51.48 387.55 52.46 387.1 53.16 387.1 54.09 387.7 55.12 388.37 56.24 389.05 56.56 390.1 56.36 391.52 55.77 392.8 54.92 393.77 53.92 394.53 53.63 395.42 53.65 395.8 54.32 396.25 55.21 397 55.14 398.88 55 399.92 55.11 399.85 55.82 398.88 56.6 397.97 57.37 396.78 58.63 395.05 60.05 394.37 60.84 392.87 62.26 392.5 63.23 392.12 65.03 390.55 65.75 389.8 66.4 389.5 67.63 389.72 68.52 390.54 70.09 390.55 71.46 388.98 72.05 388.37 72.65 388.15 73.89 387.4 75.15 386.8 77.09 385.68 78.04 384.85 78.33 382.83 79.35 381.4 80.38 380.65 81.29 380.28 82.08 380.5 82.66 381.4 82.73 382.23 82.39 384.1 82.12 385.37 81.53 388.67 80.09 390.77 79.12 391.9 78.97 392.95 79.08 393.93 79.14 395.35 78.69 395.49 78.12 395.95 77.33 396.47 76.72 397.07 76.42 397.59 75.9 398.27 75.08 398.8 74.47 399.1 74.39 399.62 74.75 400.9 74.96 401.05 76.38 401.2 76.91 401.95 77.59 402.25 78.26 401.95 79.09 401.72 79.93 402.47 80.61 403.75 80.68 404.05 80.47 404.8 80.53 405.55 79.97 406.23 79.54 406.45 79.81 406.75 80.66 407.35 80.76 408.02 80.37 408.7 80.3 408.92 80.75 409 81.24 408.32 82.02 408.18 83.08 408.47 83.44 409.3 83.81 410.5 83.88 411.47 83.41 412.45 82.37 413.12 81.37 413.72 80.23 413.88 79.13 414.4 77.72 414.99 77.25 415.68 77.26 417.18 77.78 418.07 77.45 418.82 77.11 419.42 76.68 419.65 75.58 419.35 74.78 419.12 74.06 419.8 73.72 420.78 73.61 421.38 73.76 423.18 73.89 424.23 73.86 425.87 72.44 426.93 72.02 427.98 71.95 428.87 71.97 429.33 71.41 430.45 70.55 431.2 70.16 431.88 70.31 433.75 70.39 435.03 70.47 436.22 70.32 436.82 70.64 436.53 71.52 436.3 72.26 436.9 73.03 437.28 74.05 437.05 74.45 435.7 75.13 434.87 77.81 433.98 80.62 433.9 81.86 434.65 82.85 435.7 83.71 435.47 84.37 434.35 84.52 433 84.63 431.57 84.6 430.6 84.97 430.22 85.45 430.15 85.98 431.27 86.54 432.85 86.88 433.97 87.04 435.03 87.5 434.73 88.07 433.45 88.75 432.62 89.62 431.58 90.88 430.22 92.27 428.42 94 427.75 94.29 427.15 94.9 426.18 96.25 424.75 96.62 421.37 96.68 419.87 96.95 419.05 97.34 418.9 97.82 419.65 97.97 421.67 97.92 423.33 98.36 424.75 98.87 424.53 99.31 423.47 100.35 423.32 101.19 423.55 102.52 422.95 104.46 422.88 106.36 423.02 108.62 423.47 109.95 424.15 110.19 425.12 109.85 426.32 109.22 427.15 107.82 427.9 107.04 428.28 106.12 429.02 104.98 430.15 103.46 430.75 102.45 431.04 101.75 431.8 101.72 432.77 101.48 433.3 100.78 433.75 100.13 434.12 100.14 435.03 100.6 436.3 101.29 437.27 101.35 438.1 101.11 439.07 100.6 439.97 100 440.42 99.25 440.87 98.73 440.95 96.21 441.7 95.7 442.97 95.24 444.03 94.64 444.55 94.03 446.05 92.83 447.25 91.3 448.22 90.31 449.43 90.29 450.4 90.13 451.37 89.49 452.43 88.23 453.1 87.36 453.55 86.84 454.15 86.63 454.45 86.99 454.45 87.48 454.6 88.81 454.9 89.39 455.72 89.54 457.07 89.39 458.35 89.55 458.95 89.92 459.4 90.94 459.85 91.4 459.85 92.5 460.15 93 460.98 92.75 462.25 92.2 463.53 91.79 464.28 91.76 464.27 92.2 463.97 92.72 463.15 93.1 461.65 93.87 460.68 94.47 459.62 95.46 459.1 96.25 458.57 97.61 458.27 100.26 457.82 100.95 456.47 101.54 454.67 102.74 452.57 104.56 452.57 105.27 452.88 106.16 453.62 107.63 454.15 109.06 454.45 110.13 455.72 111.09 457.75 111.66 459.85 111.84 460.37 111.36 463.53 111.39 464.43 111.76 466.37 111.62 468.92 111.1 470.8 110.3 473.65 109.44 476.12 108.43 478.52 107.42 480.39 106.35 481.67 105.49 483.48 104.25 484.37 103.65 485.05 103.58 485.05 106.14 484.9 107.47 484 108.69 482.42 109.93 480.4 111.57 478.52 113.52 476.35 115.69 474.7 117.56 472.37 119.76 471.25 121.02 470.28 122.68 469.37 123.81 468.55 124.02 467.57 123.95 466.53 124.99 465.55 125.68 463.52 125.54 462.78 125.93 461.65 126.88 461.12 128.72 459.02 129.34 457.07 129.61 454.67 129.78 453.1 130.23 452.57 130.93 452.65 131.59 453.85 131.93 454.67 132.3 454.97 133.15 455.12 135.01 455.42 135.59 456.77 136.59 457.3 137.4 456.7 138.1 453.55 138.07 451.3 138.69 449.5 138.3 447.7 137.59 445.98 137.47 444.7 137.84 444.47 138.63 444.47 139.69 444.55 141.33 443.72 142.47 444.1 143.23 444.55 144.07 444.55 144.52 441.7 145.61 440.13 146.33 439.3 147.33 439 148.69 439.45 149.76 439.75 150.61 438.85 151.56 438.17 152.57 436.22 152.66 434.72 153.25 432.85 154.53 430.82 156.13 428.65 157.72 427.97 159.43 428.35 160.32 429.78 160 430.9 159.49 432.1 159.16 433.45 158.97 435.03 158.34 437.27 157.46 439 156.79 439.38 156.88 439.98 158.18 440.42 158.59 441.7 158.92 441.7 159.28 441.4 160.07 440.88 161.12 440.57 162.4 440.88 163.11 441.7 163.92 442.45 164.07 444.1 163.36 447.32 161.97 450.4 160.66 451.75 160.34 454.97 160.32 455.95 159.19 457.07 158.33 457.75 157.59 457.75 156.39 457.45 155.81 457.3 155.19 458.58 155.13 459.7 154.84 460.3 154.37 460.68 153.54 460.97 152.08 462.7 151.85 463.98 150.33 464.72 149.95 465.55 149.35 466.08 148.52 466.97 148.18 468.1 148.21 468.7 148.44 469.52 148.37 470.8 147.96 472.08 147.59 473.35 146.95 475.07 146.1 476.05 145.19 476.2 145.15 476.8 145.52 476.65 147.29 477.03 147.47 477.78 147.62 478.38 148.07 478.53 148.7 478.07 149.57 478.07 151.17 478.23 151.66 478.82 152.38 479.27 152.74 480.4 153.34 480.47 155.86 480.1 156.21 479.35 156.24 478.38 156.66 478.3 157.1 478.07 158.64 478.3 159.18 479.35 159.91 479.34 160.62 479.05 161.81 478.82 162.69 479.28 163.14 480.62 163.3 482.2 162.23 484.07 160.5 485.8 158.94 487.67 157.7 489.02 155.6 489.32 154.33 489.7 152.26 490.3 151.12 491.58 151.01 493.6 150.53 495.93 149.43 498.02 148.36 499.75 147.3 500.64 146.56 501.1 146.53 501.17 147.02 501.48 148 502 148.32 502.67 148.69 502.23 149.12 501.93 149.69 501.62 150.57 501.92 151.37 501.63 152.38 500.8 153.07 500.72 153.78 501.18 155.25 501.1 155.86 500.2 157.48 500.35 158.41 501.18 159.45 500.87 159.84 498.55 161.21 498.02 161.9 497.57 164.46 495.4 165.74 494.42 166.43 494.35 167 494.43 167.93 495.32 168.62 495.92 169.34 496.75 169.35 498.62 169.39 499.53 168.79 500.65 168.51 502.3 168.15 503.95 167.61 504.77 167.45 504.92 167.85 504.78 168.38 503.65 169.55 502.75 170.37 502.45 171.78 502.67 173.64 502.6 175.98 502.22 177.3 501.4 178.39 500.65 179.35 500.35 180.62 499.08 182.06 499.08 183.03 499.38 184.06 499.22 185.25 498.77 187.23 498.92 188.2 499.53 188.62 500.35 188.55 501.17 187.99 502 187.25 502.75 185.9 503.65 185.3 504.92 184.31 505.3 183.56 505.83 182.42 506.35 181.06 506.87 179.7 507.7 179.06 508.9 177.8 510.92 175.72 512.35 175.09 513.7 174.32 514.9 173.02 516.32 170.88 516.93 169.88 517.6 167.99 517.83 166.14 518.2 165.83 520.3 166.37 521.35 166.12 523.23 164.92 525.02 163.33 526.97 161.47 528.4 159.64 529.53 157.89 530.12 156.75 531.85 156.52 533.05 156.06 535.98 154.09 537.25 153.01 538.3 152.11 538.82 152.07 539.57 152.62 541.3 152.66 543.7 152.05 544.82 151.41 545.65 150.1 546.1 149.84 546.62 149.9 547 150.44 547.38 150.58 547.9 150.54 548.8 149.72 548.57 148.48 548.43 148.12 548.95 147.16 549.85 147.4 550.22 147.94 550.44 149.01 550.97 149.33 550.75 150.96 551.05 151.45 552.09 152.45 551.65 153.41 550.45 154.8 550.52 155.56 551.73 156.82 554.12 158.11 554.12 165.85 555.1 166.45 555.77 166.2 557.8 165.14 558.55 165.55 559.08 166.45 559.67 167.96 561.47 169.15 563.2 170.21 565.07 170.56 566.35 170.5 569.2 169.28 569.65 169.33 569.95 172.7 570.62 174.09 571.68 174.73 573.47 174.9 573.55 176.14 574.07 176.42 575.19 176.62 575.2 176.88 574.9 177.23 572.35 177.71 571.52 178.8 570.7 180.15 571.23 181.53 571.82 182.78 570.25 184.74 570.32 185.85 571.38 185.92 572.2 186.02 573.1 187.24 573.63 187.34 576.7 186.43 578.35 186.33 579.93 186.59 580.9 186.3 584.19 183.89 584.8 184.26 584.95 185.46 585.32 186.26 586.75 186.78 588.18 186.5 589 186.78 590.27 187.34 591.62 187.59 591.48 187.85 589.38 189.05 587.35 190.55 586.6 191.6 586.9 193.02 588.63 194.21 590.27 194.82 592.3 194.82 593.72 194.27 594.48 193.45 594.7 191.6 594.77 189.74 595.15 189.57 595.45 189.58 596.57 191.19 597.17 192.53 598.3 192.74 598.9 192.17 599.5 189.84 600.7 188.36 602.65 185.53 603.33 185.54 603.69 185.91 602.72 188.98 602.65 190.48 604.3 192.03 604.15 192.51 602.2 194.24 600.85 195.84 601.15 197.53 601.9 198.43 603.62 198.56 603.55 199.18 602.42 200.3 599.35 203.11 598 205.12 598.3 205.79 598.82 206.15 599.8 206.26 601.3 205.59 601.9 206.26 602.05 208.13 602.87 209.47 604.53 210.44 605.58 210.77 606.55 210.61 608.05 210.07 609.32 210.19 610.97 210.84 612.03 210.91 612.7 210.61 613.3 210.09 613.67 206.39 615.02 203.23 615.7 202.98 616.15 203.08 616.75 205.48 617.58 207.89 618.77 209.64 620.35 210.51 622.53 210.21 622.68 210.61 622.98 212.43 623.95 213.29 625.3 213.5 626.05 213.2 626.88 213.31 626.57 214.67 626.57 215.87 628.38 216.48 628.83 218.08 629.73 219.52 631.75 221.25 634 222.44 636.1 222.49 637.53 222.17 639.1 222.86 640.37 222.98 642.47 222.18 642.78 222.55 642.1 224.43 640.23 226.43 639.85 227.7 639.93 228.32 640.53 229.36 640.83 230.25 641.2 230.74 642.18 230.41 643.45 229.42 643.75 229.65 643.53 232.25 644.28 233.33 644.95 233.43 646.07 232.57 646.9 232.72 647.87 233.54 648.62 233.87 648.62 235.02 649.22 235.69 648.93 237.1 649.98 238.14 649.22 239.41 650.2 240.36 652.53 239.97 653.35 241.45 654.47 242.66 655.9 243.36 654.63 245.23 654.93 246.83 653.95 248.05 654.1 248.98 656.13 249.78 657.62 249.99 660.32 249.56 660.32 250.4 660.32 251.51 661.68 252.64 664.75 254.79 666.93 255.15 666.55 256.78 667.08 258.34 668.05 259.37 670.07 260.26 668.65 263.19 668.87 264.57 668.5 264.74 667.15 264 665.57 264.45 665.05 264.88 663.1 264.18 661.15 264.09 659.88 264.51 656.95 264.22 655.75 264.77 655.67 265.57 656.35 266.24 657.48 266.27 657.47 269.81 656.12 271.86 656.13 273.14 657.25 273.48 658.38 273.94 662.12 273.27 662.72 273.37 663.17 275.2 664.23 276.33 666.55 277.35 668.65 278.59 669.93 278.66 671.2 278.25 671.35 279 668.42 281.68 668.5 282.92 668.88 283.59 668.35 284.2 665.8 283.57 664.23 284.42 664 285.26 664.6 285.85 663.93 287.03 664 288.22 665.35 289.98 667.6 291.8 669.18 292.94 672.25 292.56 674.65 293.23 676.75 294.03 679.9 294.76 679.3 296.34 679.83 297.55 681.48 298.29 682.45 298.84 683.2 299.66 683.65 300.02 684.55 299.55 685.3 299.79 686.87 301.51 688.45 301.81 689.72 301.52 690.7 301.06 691 302.08 690.25 302.64 688.15 303.79 688 305.11 688.15 306.31 688.98 306.82 691.6 306.92 691.53 307.62 690.7 308.93 690.7 309.77 693.32 310.01 694 310.42 694.08 311 693.1 311.6 690.18 311.58 689.2 312.22 686.8 313.45 685.9 314.8 686.28 315.43 688 316.13 688.45 317.29 688.68 319.33 685.75 318.52 683.72 318.38 681.32 318.95 680.73 319.56 680.57 320.57 680.88 322.13 681.93 323.88 683.43 325.1 687.85 326.57 689.35 327.49 691.23 328.72 693.03 329.29 694.6 330.39 695.95 331.52 695.95 333.03 695.26 333.15 693.7 333.38 691.3 333.46 690.63 333.93 690.93 334.69 691.83 335.33 693.7 335.46 693.85 335.82 694.31 336.97 695.95 338.12 697.6 338.77 699.4 339.03 702.18 339.09 706 338.38 709.45 337.3 709.15 337.92 708.03 339.66 708.1 341.61 709 341.9 710.43 341.57 712.15 341.17 712.75 341.4 712.98 342.82 714.33 343.69 718 344.92 719.35 345.66 719.28 346.23 715.15 346.28 713.8 346.82 712.53 348.21 712 349.66 710.58 350.11 708.1 350.68 707.13 351.19 706.15 352.36 706.08 355.55 705.25 356.86 705.85 357.62 707.28 357.34 710.95 355.39 711.55 355.98 712.3 358.29 713.42 359.87 715.38 361.24 716.88 361.49 718.97 361.36 720.25 360.81 726.62 355.99 727.08 356.58 726.85 358.43 727.08 360.03 728.28 360.85 729.85 361.55 732.25 362.04 734.35 362.14 734.65 362.49 733.52 363.58 728.65 366.57 728.35 367.89 728.95 369.72 729.77 370.8 730.53 371.26 732.4 371.21 737.43 370.56 739.08 370.29 739.53 370.7 738.7 372.18 738.62 373.24 739.53 374.72 741.25 376.18 743.2 377.68 744.92 377.98 745 379.27 745.9 380.31 745.75 380.92 744.25 381.82 741.63 382.65 737.05 383.34 734.28 383.99 732.78 385.11 733.53 386.41 735.62 387.25 737.2 387.9 739.83 390 741.55 390.34 743.65 389.33 744.7 389.53 746.8 390.77 750.4 392.08 750.32 392.83 749.95 393.84 750.02 394.91 752.27 396.28 754.45 397.57 754.53 399.48 755.65 400.43 756.93 400.81 757.9 403.31 759.02 405.01 758.35 405.44 756.4 404.52 754.37 403.85 751.75 403.49 750.18 403.63 749.35 404.72 749.95 406.68 749.73 407.33 749.2 407.23 747.32 405.07 746.27 404.87 744.25 404.69 742.37 403.81 740.5 403.64 738.02 404.12 736.23 405.09 735.18 406.31 735.1 407.42 733.23 408.3 732.25 409.74 732.55 411.08 733.6 412.56 735.85 413.8 738.62 414.79 741.93 415.39 744.1 415.13 746.05 415.66 745.22 416.66 741.63 417.16 740.35 417.79 740.58 418.99 741.93 420.7 742.08 421.5 741.17 422.24 742.38 423.77 743.8 425.21 745.23 428.48 743.73 430.92 741.85 430.92 737.8 430.35 733.68 430.3 732.56 431.21 732.77 432.67 734.87 434.18 735.63 436.14 738.48 438.59 744.78 443.51 744.4 443.9 741.55 444.06 740.87 444.75 741.63 445.74 740.8 446.7 740.65 447.93 741.25 448.74 741.63 450.25 742.67 450.32 744.48 449.39 745.53 449.54 748.9 451.96 749.05 453.2 751.22 455.64 749.8 455.48 747.1 454.27 744.78 453.95 742.67 454.26 741.1 455.77 739.07 455.42 735.85 454.42 733.68 454.33 732.55 454.7 731.13 456.35 730.53 458.38 730.45 459.97 731.43 460.74 733.53 461.1 736.83 463.42 738.47 466.29 739.53 468.48 741.32 471.53 740.05 472.74 740.06 474.38 740.35 475.31 739.6 476.89 739.6 477.55 742.9 478.56 743.2 479.71 742.45 480.63 741.1 481.88 741.33 482.77 742.45 483.5 744.4 483.63 746.8 482.98 747.33 483.3 746.96 484.66 746.05 485.97 746.28 486.95 748.08 486.76 750.18 485.39 751.53 485.2 754.08 485.39 756.4 486.02 758.05 486.5 756.93 487 755.36 487.59 754.46 489.2 753.93 489.94 751 491.08 749.2 492.01 748.75 493.24 749.5 494.5 751.23 496.74 753.77 499.72 756.48 501.5 757.98 501.45 759.33 500.77 760.6 498.67 761.5 499 762.93 499.7 763.45 499.8 764.2 500.7 764.73 501.02 764.5 501.77 762.18 503.62 761.42 505.86 761.36 507.14 762.32 507.74 764.58 507.79 764.57 508.36 762.93 509.79 761.88 511.93 762.03 514.54 759.93 514.76 758.5 515.62 758.21 516.28 758.05 517.47 759.03 518.15 761.66 517.77 761.88 519.19 763.97 520.21 764.36 521.36 763 523.55 763.15 524.79 764.36 525.08 765.85 524.58 766.6 524.91 769.3 527.14 770.73 526.41 770.95 524.25 772.22 522.47 773.88 521.31 776.13 520.69 777.93 519.31 780.18 516.22 780.85 516.68 781.6 517.8 782.13 518.3 785.2 518.32 785.73 518.6 785.58 519.61 783.71 520.28 781.98 521.79 780.48 523.22 779.8 524.93 780.03 526.57 778.76 527.52 778.46 528.31 778.16 529.98 779.8 531.26 779.8 531.97 779.27 532.79 779.28 533.55 779.87 534.05 781.37 534.48 783.55 533.86 785.88 532.58 788.88 533.05 790.45 533.08 792.4 532.73 794.88 531.81 795.4 531.95 796 533.03 797.12 533.85 797.13 534.29 794.13 535.15 792.03 535.82 791.5 536.07 790.68 536.89 790.97 537.56 791.58 537.84 793.98 537.63 793.75 538.38 793.53 539.7 794.13 541.04 794.58 542.77 794.58 544.5 794.88 545.35 795.71 545.5 798.1 544.66 799 544.82 798.7 547.07 798.55 548.43 794.73 551.63 793.75 551.69 792.1 550.82 791.43 550.67 790.82 552.43 791.2 553.89 791.73 555.06 789.18 555.93 787.19 556.78 787.01 556.86 784.98 558.01 783.17 559.25 781.98 560.64 781.75 562.63 781.9 564.58 781.16 570 780.7 573.36 779.5 574.92 777.93 576.66 777.63 578.33 776.05 579.36 774.63 578.71 773.73 578.87 772.53 578.13 770.73 579.2 766.75 582.39 764.51 584.82 763.08 585.32 762.92 584.83 762.48 583.09 761.65 582.45 761.5 581.92 764.2 579.24 765.78 577.68 767.05 575.01 769.68 571.74 770.88 570 771.93 567.72 773.43 567 774.86 566.1 775.9 564.54 775.6 564.09 774.85 564.07 773.88 564.76 773.06 564.83 772.6 564.6 774.7 560.53 775.38 557.93 775.15 555.98 776.95 554.78 777.93 553.56 777.7 550.42 776.72 548.62 776.13 548.3 775.08 548.41 774.33 550.17 773.28 550.41 772.23 550.03 771.63 550.06 770.73 550.4 769.3 552.05 767.88 552.06 767.2 551.69 766.3 549.99 765.33 549.44 763.9 549.41 762.4 550.48 762.1 552.07 762.33 553.75 761.65 554.45 759.85 554.94 759.25 555.77 759.03 556.6 760.75 556.55 761.87 556.88 764.58 558.05 765.18 558.95 763.91 560.65 763.08 562 763 563.02 763.76 563.56 765.25 563.68 765.63 564.84 765.78 565.51 765.33 566.07 763.38 566.43 762.48 566.81 762.63 568.18 761.43 568.47 761.13 569.39 761.43 570.19 762.33 571.05 762.1 571.85 759.03 573.55 755.2 576.39 752.58 579.2 751.23 581.61 750.78 583.15 750.18 583.66 749.2 583.87 746.65 583.72 743.21 584.84 739.53 586.31 734.96 587.8 731.21 589.23 727.83 591.1 725.35 592.95 722.96 595.37 720.55 596.61 719.43 598 719.05 598.56 716.95 599.98 714.86 601.17 713.58 602.03 713.73 603.32 713.65 604.2 713.05 604.5 711.48 604.82 710.43 605.68 708.93 605.33 707.73 605.4 704.13 606.43 700.31 608.11 698.73 609.1 698.13 608.86 697.98 608.37 697.75 605.31 697 604.59 696.56 604.62 694.38 605.55 692.05 606.92 690.55 608.3 689.28 610.13 688.6 611 685 610.79 683.28 610.71 681.63 610.67 681.33 609.96 680.73 609.59 677.05 610.84 676.46 610.74 676.15 610.38 676.16 606.35 675.48 605.45 674.13 605.02 671.66 605.24 668.73 605.31 667.53 605.77 665.66 607.23 665.28 607.18 664.9 606.95 666.18 604.67 666.03 603.92 665.65 603.56 659.35 605.01 655.38 606.12 651.48 607.72 649.53 607.99 647.58 609.8 646.83 609.74 646.9 608.9 649.83 605.12 652.08 602.82 654.48 600.62 656.05 598.75 656.96 598.41 659.2 598.06 661.23 597.4 662.2 596.4 663.18 595.01 663.93 595.25 664.98 595.22 665.81 593.91 666.63 593.58 668.13 593.39 668.5 592.82 669.18 591.07 671.36 588.81 671.88 587.98 671.88 587.28 670.68 587.29 668.65 587.91 666.33 588.53 665.58 588.56 665.28 588.11 665.58 587.1 666.55 584.9 666.48 580.74 665.5 578.64 667.08 576.86 667.53 574.48 670.01 571.13 672.25 568.39 674.88 565 677.5 563.15 679.6 562.09 681.4 561.25 682.31 560.34 682.45 559.1 681.78 558.42 679.3 558.9 677.88 559.84 676.75 561.5 674.65 562.38 671.58 563.78 669.18 565.45 666.03 567.68 663.48 569.04 662.43 570.39 659.95 571.66 658.31 573.09 655.68 575.11 654.1 576.58 652.08 576.72 651.48 577.68 651.03 578.11 648.93 578.24 647.28 579.22 646.23 580.26 643.98 581.5 641.13 583.51 637.98 585.75 636.48 587.13 635.43 587.15 634.38 586.55 633.33 586.8 632.43 587.93 631.38 588.88 629.96 589.64 629.28 589.76 628.6 589.17 628.68 586.96 628.98 586.3 630.1 585.58 632.73 584.97 633.63 584.1 635.43 581.58 638.28 579.34 639.93 577.65 641.88 575.34 642.4 573.94 642.18 573.1 640.61 573.19 639.55 573.7 638.51 573.68 638.51 573.41 639.55 572.33 641.28 571.75 643.75 571.49 645.4 570.86 646.91 569.48 647.35 568.03 647.21 566.79 646.3 565.49 649.46 562.01 649.98 560.96 650.21 558.8 650.95 558.06 653.58 557.72 655.38 557.5 657.25 556.87 658.38 555.92 659.36 554.53 660.1 551.27 661.08 547.8 661.16 545.76 660.25 545.26 659.28 545.28 658.53 545.75 657.47 547.41 655.68 548.17 654.77 548.94 654.48 550.71 652.83 551.87 651.26 553.69 649.98 554.41 647.35 555.69 646.3 556.77 645.78 558.75 644.35 559.74 641.66 561.18 639.33 563.03 637.15 564.14 633.85 566.94 631.98 569.64 630.85 570.2 629.73 570.57 629.28 571.22 629.13 572.9 627.63 573.75 627.25 575.29 625.75 577.12 625.3 578.92 624.7 579.49 622.98 579.85 621.11 580.91 619.83 582.57 619.61 584.24 618.26 584.21 616.83 584.27 614.88 586.04 613.68 586.9 611.28 587.16 610.01 588.28 609.03 589.28 606.56 589.67 605.06 590.83 603.63 591.77 602.43 591.39 602.35 590.38 602.73 587.68 602.2 586.52 599.43 586.33 596.96 587.21 596.43 586.53 596.2 585.77 595.45 585.31 594.18 585.2 591.78 586.03 588.92 588.18 585.33 590.45 583.6 591.25 582.4 591.49 580.38 590.3 578.5 590.26 577.3 590.54 576.03 590.91 575.35 590.59 575.66 589.58 578.58 586.5 580.75 583.98 582.11 583.08 585.03 582.57 585.86 581.92 587.2 580.05 588.93 577.34 591.33 575.36 594.63 572.6 594.93 571.32 595.46 570.8 597.86 571.34 598.6 570.83 598.75 570.25 599.36 569.82 600.78 570.12 602.05 568.95 602.2 569.13 601.76 572.18 602.43 573.47 605.28 573.62 607 573.88 608.05 572.49 609.93 573.28 610.53 572.37 610.45 570.9 611.58 570.09 613.45 569.6 614.13 568.55 613.98 566.51 615.03 564.59 617.13 562.51 618.48 559.35 620.58 556.35 620.43 554.79 619.6 554.64 617.28 555.43 613.83 557.93 611.58 558.58 610.46 559.36 609.18 560.43 608.28 560.28 608.73 558.7 608.43 557.37 608.95 556.67 608.73 555.51 611.2 552.96 612.85 549.81 612.86 548.35 612.85 546.84 616.46 543.73 616.6 542.28 617.73 541.73 619.16 541.01 619.75 539.65 620.13 538.02 621.25 536.94 622.83 536.22 623.73 534.87 624.4 533.73 624.25 532.31 622.68 531.97 620.13 532.53 618.03 534.03 616.3 536.12 614.43 536.92 612.56 538.78 610.75 539.05 609.63 539.52 608.88 540.74 608.06 541.83 606.48 542.9 604.53 543.57 603.18 544.11 601.61 545.32 600.17 547.14 598.6 549.68 596.88 553.93 596.2 554.71 593.73 555.1 592.15 555.95 591.03 555.13 589.91 554.36 587.36 554.52 583.75 555.2 580.23 556.32 578.95 556.29 579.63 554.4 581.06 552.53 584.2 550.21 586.53 548.09 588.48 545.03 590.65 543.27 592.23 541.31 593.5 539.65 594.7 536.81 596.88 534.51 598.6 531.89 600.1 529.4 601.15 526.68 602.36 524.98 604.23 522.72 606.55 520.6 614.58 514.71 616.98 513.04 618.56 512.01 621.03 510.91 622.9 509.23 624.25 507.49 624.18 506.96 623.73 506.64 622.15 506.73 620.28 507.58 617.13 509.19 613.3 511.41 606.7 515.07 603.85 516.87 599.58 520.54 595.9 524.27 592.3 527.2 591.25 527.22 591.33 525.8 593.05 522.52 595.98 518.91 600.78 513.84 604.23 510.24 607.9 505.63 616.23 499.75 622.83 494.58 627.33 491.94 630.26 489.03 634.68 484.84 635.2 483.79 635.13 482.72 634.15 482.7 631.46 483.35 629.73 483.67 628 483.28 626.58 483.64 625.08 483.7 622 482.57 619.08 482.47 617.13 483.57 614.58 484.89 611.58 486.11 607.15 487.78 604.53 488.7 601.37 490.98 600.02 492.36 598.45 494.41 596.28 496.22 592.6 498.62 586.3 504.1 582.18 507.69 577.23 511.39 574.38 513.58 573.11 513.55 573.25 512.58 575.65 509.09 577.23 506.43 580.53 501.63 582.33 499.33 585.55 496.39 587.51 494.17 590.2 490.38 593.13 486.6 595 484.2 597.63 482.09 598.3 481.04 598.6 480.08 597.85 479.75 595.38 481.42 592.3 483.66 588.18 486.22 586.3 487.29 583.45 487.94 578.8 488.37 575.35 489.53 570.26 493.53 564.25 498.76 562.45 500.05 561.1 500.06 560.8 497.05 559 495.77 555.7 495.65 555.85 494.86 556.98 493.56 558.78 493.07 561.4 492.81 563.36 492.28 565.6 490.74 567.25 488.78 569.51 486.53 571.6 484.94 574.9 481.38 577.53 479.75 582.63 476.81 585.93 474.23 588.03 473.61 590.88 473.18 591.93 472.72 591.92 471.48 590.73 470.75 587.73 470.37 584.5 470.35 581.65 471.08 578.58 472.83 577.6 472.41 577.53 471.79 578.05 470.03 578.2 468.31 577.23 466.7 575.43 465.55 573.17 464.71 567.4 463.96 562.53 463.33 556.98 462.23 553.83 461.86 550.75 462.01 547.9 462.79 546.63 463.07 545.28 463.84 542.95 465.47 542.43 465.37 541.98 463.72 541.38 462.47 540.4 460.46 539.13 458.88 538.08 458.68 535.98 458.77 533.65 459.61 528.55 461.27 Z M 219.25 29.31 217 29.75 213.17 30.95 211.08 31.4 208.82 31.53 205.22 31.01 202.67 30.95 199.52 30.98 197.95 31.16 191.95 31.3 187.22 31.2 182.05 31.09 179.35 31.21 178.37 31.59 177.03 31.6 175.3 31.04 173.65 30.82 171.7 30.96 169.45 31.22 168.32 31.73 166.98 32.36 166 33.58 164.5 34.97 162.18 36.69 159.63 37.43 156.03 38.37 151.53 39.34 147.77 40.23 146.05 40.95 144.63 41.49 143.27 42.17 142.38 43.13 141.63 43.99 141.25 44.47 140.2 45.56 139.37 46.91 138.25 47.46 135.78 48.52 133.83 49.36 131.35 49.93 128.8 50.89 127.97 51.62 126.77 52.75 125.95 54.06 125.42 55.2 124.37 56.19 123.7 56.98 123.55 58.3 124.22 59.02 125.5 59.32 129.4 59.22 132.7 58.72 136.53 57.69 138.17 57.11 140.05 56.31 141.4 54.96 142 54.31 143.35 53.59 144.1 53.21 145.75 52.75 148.52 51.93 150.32 51.13 151.9 49.96 152.65 49.05 152.95 48.17 153.17 47.2 156.47 47.23 157.75 46.9 160.45 45.63 163.52 44.64 166.08 43.85 168.33 43.45 170.35 43.23 171.33 42.81 172.45 42.13 173.72 41.31 175 40.72 177.84 40.82 179.27 40.9 180.63 40.71 181.75 40.29 183.4 39.75 185.87 38.69 189.85 36.79 192.55 35.69 195.25 34.69 197.27 33.94 198.4 33.74 202.97 32.86 205.3 32.73 206.2 32.84 207.25 34.15 208.82 35.33 210.55 35.99 212.43 36.12 214.38 35.85 215.5 35.61 216.77 34.79 218.13 34.51 220.08 35.48 221.65 36.13 223.3 37.72 225.1 39.08 225.78 40.12 226.53 41.28 228.7 42.88 231.1 44.7 232.37 44.9 232.9 44.56 232.75 42.96 232.52 41.28 232.37 39.77 231.77 38.34 231.62 37.45 232.08 37.06 233.13 36.47 233.65 35.95 232.9 35.49 231.92 35.51 230.95 35.31 230.05 35.12 229.52 34.31 228.77 32.84 227.73 31.44 226.15 30.08 224.5 29.34 222.55 28.99 220.97 28.91 219.25 29.31 Z M 617.8 369.92 619.83 369.92 621.55 368.98 622.68 367.68 623.8 365.01 624.85 364.37 626.43 363.78 627.25 362.78 627.1 361.71 626.35 360.41 624.48 359.27 622.23 358.38 620.13 358.02 617.72 358.46 615.4 357.79 613.3 357.79 611.5 357.04 608.88 355.97 606.85 354.68 604.83 353.62 602.42 351.62 600.78 350.61 597.85 349.45 595.3 348.95 593.35 349.08 592.08 349.81 589.97 351.13 587.43 353.11 586.45 353.85 586.45 355.08 587.35 356.08 589.76 358.3 593.05 360.76 595.45 361.56 597.78 363.6 600.4 364.37 602.43 365.43 603.7 366.3 606.18 366.48 608.42 367.02 611.58 367.88 614.05 368.38 617.8 369.92 Z M 706.98 601.22 708.93 600.29 712 598.32 715.23 596.49 718.68 594.66 721.23 593.04 723.56 591.14 726.33 588.1 729.11 584.58 730.68 581.78 730.98 579.8 732.56 578.81 733.68 577.82 734.28 576.11 736.38 574.65 736.98 573.6 736.67 571.12 735.11 571.21 733.53 572.15 732.26 573.85 730.83 576.03 729.18 576.88 727.9 578.45 727.08 580.38 727 581.04 725.05 581.62 722.88 582.5 721.67 583.67 720.85 585.33 719.58 586.89 716.5 588.91 713.73 591.32 711.4 593.62 710.13 595.14 708.33 595.99 706.46 597.1 704.5 598.69 703.68 599.73 703.68 600.8 704.58 601.17 706.98 601.22 Z M 688.75 581.85 690.93 581.85 692.8 581.54 695.58 580.53 696.63 579.67 697.46 578.41 698.12 576.83 697.98 575.85 697.53 575.44 696.33 575.55 695.43 576.15 693.33 577.17 690.85 578.22 689.2 579.2 688.38 580.38 688.3 581.57 688.75 581.85 Z M 443.73 116.18 444.47 115.84 445.07 115.33 445.6 114.32 446.35 113.54 446.88 113.37 447.85 112.64 448.15 111.99 447.93 111.05 446.72 110.94 445.6 111.53 444.55 112.17 443.72 113.48 442.97 114.26 442.75 115.59 443.12 116.17 443.73 116.18 Z M 245.12 112.69 246.32 112.67 246.92 112.47 248.05 112.36 249.02 112.02 249.32 111.5 247.22 111.06 245.13 110.84 241.98 110.86 240.17 110.82 239.95 111.17 240.02 111.74 241.07 112.34 243.85 112.45 245.12 112.69 Z M 678.48 556.4 679.15 556.33 680.35 555.43 680.51 554.68 681.63 553.6 681.63 552.84 680.73 552.74 678.48 553.97 677.65 554.75 677.73 555.95 678.48 556.4 Z M 185.87 155.72 186.92 155.7 187.6 155.19 187.97 154.88 187.98 154.04 187.45 153.55 185.72 153.51 185.27 153.81 184.9 154.6 185.28 155.31 185.87 155.72 Z M 625.83 551.95 627.63 551.23 628 550.84 628.15 549.7 627.4 549.32 625.83 550.04 625 550.78 625.08 551.84 625.83 551.95 Z M 682.46 585.34 683.2 585.27 683.73 584.92 684.18 584.18 684.03 583.29 683.2 583.01 681.78 583.6 681.4 584.08 681.48 584.7 682.46 585.34 Z" fill-rule="evenodd"/>
</g>
</svg>