<?xml version="1.0"?>
<svg xmlns="http://www.w3.org/2000/svg" version="1.2" baseProfile="tiny" width="800" height="1106" viewBox="0 0 800 1106" stroke-linecap="round" stroke-linejoin="round">
<g id="frenchmanlake">
<path d="M 466.91 756.93 470.9 757.28 473.62 756.59 474.76 755.77 474.75 755.27 476.17 754.21 477.18 752.72 478.32 750.64 478.46 748.12 477.89 745.58 478.03 743.65 478.47 743.24 479.31 742.59 482.03 741.98 483.87 741.35 484.17 740.43 484.16 740.01 485.3 739.45 491 738.07 494 736.8 495.84 734.74 497.55 732 498.98 731.53 500.55 731.49 503.68 733.84 512.39 740.7 514.66 741.59 515.09 741.6 515.94 741.12 516.23 740.96 516.95 739.96 517.23 739.8 518.79 735.97 520.64 732.82 521.93 728.05 522.64 725.46 524.64 722.82 525.21 721.4 524.64 719.87 522.93 717.64 520.78 715.65 520.5 713.88 521.36 713.31 521.64 713.32 522.22 713.33 522.64 713.34 524.93 713.82 525.63 713.67 526.07 713 525.93 711.74 525.63 711.39 525.2 709.87 525.21 709.53 525.93 707.78 527.63 705.8 527.77 705.47 529.62 703.33 531.48 700.51 531.91 700.18 533.05 697.27 533.33 695.09 533.33 693.66 533.19 693.06 531.48 689.91 531.48 688.31 533.04 685.4 535.46 681.67 536.47 678.75 536.74 678 537.03 674.05 537.61 671.96 537.32 669.93 536.05 667.04 533.33 662.77 531.62 658.69 530.05 653.43 528.92 651.3 525.63 646.59 522.22 641.88 521.64 638.58 521.65 635.72 522.21 634.39 524.21 633.17 527.34 632.75 531.9 633.19 538.04 634.44 545.3 636.72 548.16 638.05 551.42 640.32 554.71 643.17 557.28 645.85 560.84 649.8 563.69 652.14 564.98 652.93 565.25 653.95 564.98 656.64 565.55 657.74 567.67 659.48 569.81 661.97 572.53 667.34 575.24 670.26 577.94 672.35 578.94 672.8 580.93 672.59 583.22 671.47 585.35 670.68 587.77 670.23 591.76 669.91 592.34 669.25 592.33 667.73 592.34 667.4 589.63 664.72 589.34 663.29 589.34 662.11 592.33 659.99 593.33 658.84 593.19 657.66 592.76 655.96 593.91 654.9 596.19 654.2 598.6 652.65 599.46 651.08 600.18 648.82 600.75 644.63 601.31 641.53 600.18 639.23 598.31 637.67 596.89 636.96 591.77 636.08 588.06 635.48 587.77 634.97 587.78 634.05 589.2 632.4 592.75 631.3 595.89 630.79 601.18 630.5 605.88 630.36 612.57 630.61 615.42 630.76 618.7 632.1 624.54 633.59 626.82 633.65 628.24 633.18 630.24 631.04 631.66 630.4 632.53 630.67 633.53 631.2 635.51 631.84 638.36 631.91 640.65 630.7 642.78 628.4 646.06 627.64 649.92 627.22 655.19 627.27 657.03 626.89 657.47 626.9 660.88 626.99 662.45 627.28 663.31 628.39 663.88 630.51 663.88 632.11 665.31 635.17 666.3 636.71 667.45 637.67 667.73 637.84 667.73 638.68 666.88 640.6 666.17 641.67 665.88 642.26 666.02 644.2 667.73 645.25 668.02 645.84 668.44 647.03 667.45 650.04 666.16 654.21 667.44 656.94 668.31 660.07 669.72 667.85 670.3 670.05 672 671.86 672.29 672.29 674 674.6 674.71 676.39 675 679.93 676.71 685.95 676.43 687.2 675.57 688.53 671.44 691.29 669.86 693.02 669.58 693.68 669.72 694.19 670.72 695.81 675.29 700.64 677.57 702.97 678.13 703.57 678.84 705.27 678.57 705.94 678.13 706.35 676.29 707.31 672.86 707.9 671.29 708.62 670.43 708.85 669.73 709.59 669.72 709.84 669.86 710.77 670.73 711.64 671.72 712 673.15 711.86 673.3 711.61 675.13 710.73 677.71 710.29 684.55 709.03 689.68 708.31 695.52 707.27 699.37 707.12 700.8 706.65 703.22 705.36 708.63 701.62 713.2 699.29 716.18 698.27 716.76 698.87 715.61 701.11 714.04 704.69 713.77 707.47 714.62 708.75 715.62 710.2 720.03 712.58 720.6 713.02 721.03 713.87 721.46 715.4 723.02 717.54 726.45 719.31 728.45 720.78 729.3 722.65 729.3 723.58 727.87 724.14 724.31 725.9 717.61 726.91 713.05 727.98 711.2 729.37 710.21 731.03 708.91 733.6 706.92 737.51 707.21 740.13 708.35 741.75 712.19 743.11 715.34 744.45 720.18 747.18 722.75 748.58 722.74 749.34 720.6 750.3 715.62 750.6 711.35 751.42 705.92 753.14 703.5 754.6 703.51 755.52 703.79 756.2 706.21 758.2 706.93 758.63 708.06 760.01 708.92 761.71 711.63 763.13 716.04 764.24 718.9 765.57 721.03 767.14 728.44 773.8 735.15 779.77 738.28 780.69 743.69 782.59 747.4 784.2 748.26 784.47 750.39 785.87 750.82 786.21 750.83 787.73 749.82 789.3 747.26 790.59 743.84 792.02 743.27 793.52 744.27 795.23 747.69 798 749.26 799.31 750.67 803.46 751.68 803.91 756.81 804.03 760.08 804.53 762.37 805.77 764.5 808.68 765.07 811.64 764.51 813.39 763.08 815.38 764.51 817.18 767.49 820.28 769.35 822.43 769.92 825.39 769.06 828.99 767.07 829.78 763.08 830.19 761.66 831.34 761.09 832.58 763.08 835.66 763.08 836.92 762.07 841.44 762.93 843.48 765.5 845.65 769.06 848.09 772.34 851.37 778.48 859.35 782.17 862.39 785.02 865.9 786.17 868.12 785.32 870.29 781.74 874.24 779.33 876.2 778.32 878.37 778.33 880.81 778.76 884.44 779.76 887.91 779.76 891.28 778.75 894.28 776.9 899.45 773.92 904.52 772.48 907.6 772.49 911.97 772.91 917.37 774.33 920.26 776.34 922.75 779.89 924.86 784.32 926.15 786.74 926.54 789.87 925.95 794.01 924.95 796 925.09 797.57 926.13 795.43 927.01 791.73 928.85 787.46 930.6 782.75 931.75 779.19 932.5 775.48 934.68 769.92 936.9 765.08 938.55 763.08 940.27 760.66 943.33 759.37 946.58 759.52 948.52 760.65 950.14 760.95 952 759.94 952.82 757.09 953.51 755.24 954.05 752.25 957.35 748.26 962.63 747.68 964.47 747.69 966.91 748.26 968.61 749.83 969.99 753.67 971.27 755.24 971.22 757.67 971.03 763.51 970.08 767.21 969.66 770.5 969.82 772.62 970.21 775.9 970.88 781.75 972.79 784.31 973.95 784.32 977.4 785.31 979.95 788.16 984.65 792.3 988.79 795.29 989.62 797.57 989.92 799 990.97 797.57 991.78 794 992.95 790.16 993.11 787.59 992.79 785.03 992.65 783.18 992.86 781.04 994.07 778.33 994 776.05 993.27 774.34 991.97 772.92 991.93 769.5 993.53 764.64 996.61 763.09 997 759.08 995.38 756.8 995.07 754.95 995.62 753.39 997.1 750.96 998.05 746.7 998.19 743.7 998.04 741.41 997.14 740.85 996.96 739.56 996 739.28 995.74 739.42 994.65 739.28 993.3 737.71 992.42 733.58 991.65 728.02 991.68 723.18 991.23 717.19 989.82 712.21 988.52 711.34 988.58 703.37 986.62 698.37 984.23 696.96 983.77 695.09 983.64 693.66 984.45 692.11 987.1 690.83 987.75 687.82 987 679.28 983.59 675.57 981.57 673.14 979.74 670.72 975.31 667.44 972.53 663.31 969.82 654.48 965.82 649.48 963.01 646.21 959.22 642.22 952.73 639.51 950.22 636.81 949.4 634.24 949.25 634.09 949.5 628.96 950.64 626.55 950.58 624.84 949.03 624.4 947.25 623.98 940.25 623.26 938.47 621.13 936.82 618.99 936.18 616.42 935.1 615.43 933.06 615.14 932.63 614.57 931.78 609.58 929.38 609.16 929.04 607.88 926.31 607.02 925.28 605.59 925.58 603.17 928.55 601.6 930.2 598.89 930.13 597.47 929.17 596.18 925.52 594.75 925.4 592.34 924.93 591.76 924.07 591.77 922.98 593.76 921 593.91 918.99 593.19 911.82 591.34 907.73 585.35 899.51 577.8 888.8 569.53 880.02 565.54 875.72 559.55 871.53 553.28 868.26 545.88 865.73 536.47 863.4 531.05 862.59 524.92 862.7 521.08 862.77 511.1 861.77 506.4 861.49 500.98 861.36 496.57 863.1 492.28 864.68 487.73 866.5 484.74 869.55 483.17 873.13 482.17 878.49 481.46 882.6 481.59 886.64 483.17 891.89 483.73 893.84 483.17 897.28 483.73 901.08 484.73 904.47 484.16 906.14 479.88 912.86 478.32 917.36 477.31 924.57 475.89 931.19 475.32 934.88 475.47 938.67 477.18 941.57 479.03 945.74 479.32 949.87 479.32 955.01 480.17 959.4 480.17 961.34 478.32 964.41 478.03 965.91 479.89 973.45 482.03 977.96 482.88 981.18 482.88 983.87 482.32 986.98 485.16 994.54 488.58 1001.77 490.58 1008.72 492.86 1018.62 494.71 1022.79 495.99 1023.33 498.28 1023.72 503.41 1025.44 509.38 1028.62 516.51 1033.25 525.21 1040.53 526.78 1042.34 515.65 1053.46 502.69 1066.41 493.71 1061.82 489.3 1060.78 483.16 1060.89 482.03 1060.52 479.32 1061.3 476.04 1061.81 474.33 1061.52 469.49 1059.71 464.93 1058.68 453.8 1057.65 447.81 1057.17 442.27 1055.94 436.99 1053.37 435.71 1053 432.14 1053.17 427.02 1054.56 415.61 1058.49 412.9 1059.27 405.2 1059.93 397.79 1060.42 394.51 1061.52 392.94 1063.16 388.96 1068.71 385.4 1076.11 381.69 1085.28 380.55 1090.55 379.83 1094.07 378.84 1094.72 375.28 1095.56 372.14 1095.99 369.29 1097.6 365.58 1101.13 362.02 1105 361.31 1104.98 360.02 1103.77 359.03 1098.62 357.74 1094.71 356.89 1092.84 356.32 1092.41 354.19 1090.76 345.77 1087.27 333.81 1082.6 325.82 1080.31 317.56 1078 310 1075.13 306.57 1074.79 302.16 1075.19 291.62 1076.96 288.49 1078.14 285.92 1079.76 281.78 1082.11 277.08 1083.93 274.66 1085.47 273.37 1086.45 272.24 1088.86 270.38 1090.58 268.52 1090.96 266.96 1089.15 267.67 1086.48 268.68 1084.82 271.23 1082.36 276.08 1079.61 279.35 1077.08 280.2 1075.59 281.5 1073.68 282.63 1071.69 289.19 1068.82 293.9 1066.49 299.46 1064.19 304.87 1062.55 309.44 1061.82 312.71 1061.81 314.41 1062.02 321.83 1065.73 336.23 1070.8 343.35 1072.06 348.48 1072.1 352.9 1071.12 356.89 1069.11 360.17 1066.75 364.31 1062.22 366.87 1056.39 368.72 1050.46 369.58 1046.86 370.72 1045.96 375.28 1043.55 382.11 1039.76 385.54 1036.56 386.54 1034.98 386.53 1033.55 382.83 1030.94 377.12 1026.85 375.85 1025.05 376.28 1023.12 379.13 1021.51 386.54 1018.66 390.66 1016.23 391.24 1014.65 390.8 1011.1 390.53 1007.9 390.52 1006.3 391.38 1004.38 393.09 999.96 393.37 997.61 391.52 992.86 390.53 987.45 388.39 980.49 386.97 975.24 383.4 970.95 376.99 963.81 374.7 961.06 373.71 957.83 371.99 955.02 368.01 951.64 363.73 950.11 362.87 949.66 361.87 948.71 362.3 947.88 364.72 946.51 367.3 944.97 367.87 944.06 367.15 941.86 364.44 938.34 364.3 936.48 364.87 934.56 365.02 933.56 364.16 930.5 363.16 925.26 361.46 922.78 360.03 920.22 357.89 914.03 356.47 910.46 353.62 906.68 350.33 902.82 344.07 897.79 343.06 896.42 342.5 892.36 341.92 888.22 340.36 885.24 337.64 881.47 334.94 878.46 332.66 876.81 330.24 875.49 328.66 875.28 325.39 874.86 322.4 874.2 320.83 873.16 314.56 867.95 311.99 866.63 311.56 866.45 308.57 866.38 307 867.01 304.59 867.96 302.58 868.17 299.59 867.85 296.46 867.68 293.46 867.95 288.33 869.34 282.92 869.88 272.95 870.74 270.67 871.69 267.09 872.19 264.1 873.64 262.25 874.18 257.97 873.82 253.85 873.56 245.29 874.44 238.6 873.78 227.19 872.58 219.35 870.96 217.49 870.58 213.94 871 212.66 871.05 209.09 869.7 204.95 867.08 198.97 863.73 194.56 861.78 191.14 860.85 188.57 860.45 184.58 861.03 176.74 862.44 175.31 862.91 173.75 864.14 172.33 864.44 170.32 863.97 169.46 862.94 169.03 862.76 166.33 862.78 163.34 862.96 159.49 862.28 154.65 861.99 149.09 861.61 143.24 862.73 140.82 862.84 138.26 862.36 134.83 861.35 134.56 861.34 133.27 861.48 131.84 861.95 128 864.13 126 864.92 124.86 864.64 124.58 863.54 124.57 861.35 124.57 857.31 127 857.04 130.42 855.94 133.56 855.01 138.39 853.02 140.67 852.23 143.24 852.63 148.66 853.35 152.51 853.78 159.77 853.45 162.34 853.43 171.18 852.38 177.45 851.35 182.58 850.71 185.28 849.35 188.01 846.89 188.57 844.88 189.43 840.78 190.14 839.45 191.56 839.4 192.42 839.42 194.98 842.51 198.96 849.09 203.96 855.27 209.24 860.02 214.5 862.85 218.07 863.77 222.5 864.13 233.04 863.88 239.3 863.61 242.86 863.28 249.86 863.95 256.12 862.59 265.82 860.21 279.5 857.18 288.76 855.21 297.73 852.48 300.73 850.45 308.01 846.67 313.28 843.6 317.27 842.01 323.4 839.55 326.52 837.95 328.66 835.05 329.24 832.79 329.24 828.67 328.8 822.94 327.52 817.77 325.39 810.48 321.83 802.99 317.84 794.82 313.84 788.24 312.98 786.2 313.99 784.88 315.55 783.82 317.99 782.78 318.41 782.2 317.83 781.18 315.41 778.6 313.85 776.62 313.85 775.36 314.28 773.27 316.13 770.12 316.12 769.19 315.98 767.33 313.42 764.75 313.13 763.23 312.7 759.18 312.71 757.07 310.56 754.49 310 753.47 311.56 751.07 315.99 747.64 316.69 745.81 316.27 743.19 315.42 739.13 314.41 735.99 314.99 733.98 316.27 728.54 316.27 726.02 315.98 723.99 313.99 722.26 309.14 718.19 305.58 716.84 302.58 716.43 299.16 716.52 297.75 716.4 294.6 715.14 290.76 712.27 288.76 709.95 283.91 709.58 283.2 710.24 282.34 711.9 279.06 713.34 275.51 714.18 271.66 716.02 264.97 721.08 259.69 725.92 257.12 728.97 256.55 731.98 257.11 736.88 256.56 739.47 254.85 742.29 252.99 744.6 252.56 748.04 253.27 751.51 252.84 755.29 251.99 755.52 250.28 754.89 248.14 750.04 245.86 745.36 244.87 740.88 244.58 735.14 244.59 728.92 245.44 721.78 246.44 715.67 247.29 712.57 249 709.16 250.86 707.44 251.28 707.11 252.99 705.05 252.99 703.2 252.27 702.26 250.85 700.96 245.16 697.79 244.43 697.78 240.59 700.54 237.6 702.58 230.61 707.29 226.48 711.06 220.64 718.58 218.63 719.96 217.64 719.6 217.21 718.58 215.79 713.75 215.36 709.36 215.79 703.9 216.35 700.46 218.64 696.98 219.92 695 223.06 692.63 224.83 691.24 226.19 690.18 226.2 689.51 225.62 688.91 223.19 688.59 222.63 688.58 214.37 689.14 212.08 689.42 210.81 690.15 205.68 695.66 203.96 696.63 203.11 696.36 201.83 694.56 200.53 693.86 199.11 694.58 198.26 694.64 196.41 693.59 194.97 693.22 192.98 693.92 187.57 696.24 186.71 696.22 187.58 695.14 191.14 692.79 192.12 692.14 191.71 691.54 189.42 691.4 182.3 693.92 181.01 693.64 180.16 692.77 179.58 690.4 179.59 688.72 180.72 687.65 184.15 683.61 188.14 678.49 190.14 675.68 190.71 674.09 191.28 671.58 192.12 668.91 194.27 667.45 197.97 664.08 202.96 660.42 203.39 659 203.4 656.64 202.96 655.37 200.97 654.9 197.82 655.33 192.55 657.64 188.57 661 187.71 663.33 186.85 665.16 185.15 665.71 183.29 665.41 181.59 664.7 179.3 665.15 173.17 667.78 167.48 671.51 159.34 678.39 157.65 679.52 153.07 682.78 142.68 689.26 137.83 694.36 134.83 696.73 132.98 697.36 132.24 697.34 130.85 697.31 130.42 696.04 130.98 694.03 137.84 684.68 140.82 680.55 144.39 677.35 145.95 675.96 150.37 672.62 156.21 665.35 157.5 662.94 158.49 660.94 158.78 658.6 157.06 656.79 155.22 656.15 153.08 656.02 150.37 656.12 148.23 656.49 147.1 656.71 138.97 661.91 133.27 665.98 130.56 667.01 129.99 667.33 128.42 667.29 124.57 667.62 122.15 667.98 118.59 668.9 114.6 670.75 112.46 671.7 110.46 673.09 108.75 675.15 106.48 679.3 105.62 680.54 102.91 681.82 100.78 681.02 98.49 678.69 98.35 676.67 99.35 673.91 102.62 669.61 106.76 664.67 112.46 661.18 119.44 655.97 124.58 651.63 128.42 647.51 129.7 645.19 132.13 639.44 134.13 637.05 142.67 630.6 152.5 621.83 159.07 617.2 159.5 615.69 159.78 615.61 159.49 614.09 157.63 611.86 157.63 611.52 157.49 610.59 157.64 607.4 158.49 604.39 157.64 602.68 149.79 596.35 143.53 592.16 142.25 590.11 140.54 586.87 138.4 586.74 136.26 586.94 131.7 587.92 130.41 587.64 130.56 586.8 130.56 586.3 131.42 584.72 137.27 577.62 137.26 576.02 135.4 571.68 131.84 566.55 126.86 561.13 120.3 557.43 119.44 557.5 115.46 557.32 112.32 557.83 108.18 559.5 93.64 570.76 87.94 575 87.52 575.25 86.37 575.3 82.38 573.27 80.38 572.38 78.12 572.07 74.98 572.59 68.71 574.71 67.28 574.59 66.57 573.65 65.29 571.18 63.15 570.03 61.15 568.97 60.29 567.35 60.58 566.6 60.3 566.09 62.01 561 62.57 557.64 62.87 553.02 63.29 551.77 65.71 549.3 68.28 547.6 69.7 547.13 73.12 546.28 75.12 545.24 75.83 543.82 74.68 542.54 71.13 542.53 67.28 543.62 63.56 547.23 58.16 551.56 54.88 553.5 47.04 556.26 44.91 556.29 44.33 555.35 44.9 553.94 47.61 550.72 49.76 549.26 54.59 545.25 56.3 543.02 59.01 539.63 60.87 537.24 63.71 535.12 64.14 534.12 64.14 532.94 62.87 530.13 62.3 529.7 61.16 529.5 60.58 529.57 59.29 530.38 54.16 533.96 51.88 534.58 49.9 534.36 49.46 533.85 49.47 533.43 49.47 530.06 50.6 527.48 50.6 526.81 50.32 526.55 46.47 526.2 43.61 527.56 42.77 527.63 34.93 531.9 26.81 537.51 22.81 538.76 20.53 538.46 18.82 536.4 17.25 532.91 7.99 525.78 4.57 521.66 3.01 518.76 1 513.66 1 512.32 1.15 511.9 1.58 511.16 8.41 508.04 29.79 499.97 30.22 499.81 40.62 496.94 44.62 495.27 46.03 494.13 46.18 492.28 45.47 490.58 40.2 487.51 35.92 486.39 30.08 486 24.66 487.3 21.39 487.81 11.55 487.83 4.99 487.34 2.57 486.35 1.86 485.24 1.72 483.8 3.43 481.57 7.7 477.47 7.99 475.62 7.28 473.67 4.57 471.42 4 470.06 5 469.32 7.84 469.14 12.11 469.24 21.81 469.9 26.38 469.92 26.94 469.85 27.51 469.61 28.23 468.37 28.23 463.57 28.66 462.15 28.79 461.82 29.93 460.75 32.93 459.22 35.21 458.27 37.06 456.38 37.64 455.63 37.78 454.88 37.63 452.77 33.21 447.28 30.64 444.52 30.8 443.52 31.79 440.93 33.22 439.03 35.21 438.49 36.21 439.02 40.06 440.71 50.31 446.18 60.58 451.47 62.86 453.04 65 452.93 67.7 451.64 72.69 446.55 74.69 443.82 75.12 441.64 75.55 439.8 75.69 439.04 78.1 436.32 79.53 435.18 82.82 433.91 85.38 432.38 85.95 431.55 86.1 431.3 86.1 428.6 86.09 426.75 86.09 426 84.24 423.76 84.81 422.09 88.23 419.32 93.08 414.8 94.21 411.72 94.79 403.82 94.93 403.07 96.2 396.95 94.78 383.79 92.51 373.21 86.94 365.93 79.25 360.36 75.26 359 67.42 358.64 61.15 359.58 56.01 361.98 51.6 365.75 47.33 371.96 46.9 372.71 44.62 374.42 43.05 374.13 39.77 369.25 39.06 367.97 38.92 367.04 39.63 365.46 40.91 363.39 42.19 361.32 42.48 359.39 40.91 357.33 41.05 355.9 41.62 354.74 43.76 351.76 44.62 349.09 44.33 346.22 43.05 345.09 40.2 344.6 38.49 344.56 37.06 343.94 37.06 342.59 37.77 341.43 40.06 340.65 44.05 340.24 55.31 340.26 57.87 339.64 59.86 338.76 61.72 337.46 62.58 337.15 65.42 336.46 69.56 335.38 74.4 333.9 77.12 332.36 80.11 331.34 84.52 329.43 84.95 327.84 84.95 325.74 83.95 322.51 79.54 317.19 76.11 314.75 72.84 313.58 68.27 313.3 58.44 313.32 52.45 314.01 46.47 316.65 41.34 318.2 39.48 317.82 39.21 316.89 41.62 313.92 44.62 311.81 46.19 310.16 47.04 308.33 47.03 306.48 45.75 301.65 46.18 298.54 47.04 292.09 47.61 290.92 47.89 290.76 48.61 290.52 51.18 291.85 54.17 294.95 57.01 296.28 61.72 297.24 68.41 297.99 74.11 297.95 80.54 296.26 84.23 295.76 88.8 295.19 92.93 295.71 96.35 296.13 96.93 296.32 98.77 296.02 99.78 295.12 100.77 293.88 100.35 292.19 97.35 289.34 88.37 283.57 85.24 280.72 78.68 275.26 78.25 274.74 76.39 274.11 72.26 273.17 68.7 273 62.58 273.86 59.01 274.28 54.74 273.67 51.74 272.67 51.03 271.31 51.74 268.47 53.03 265.05 55.44 263.84 65 262.98 70.27 261 71.98 261.04 73.69 261.92 75.68 262.98 76.4 262.83 76.39 261.32 71.69 258.59 70.13 256.37 66.27 252.83 65.99 251.3 68.7 249.85 71.97 249.34 73.41 249.63 78.12 252.86 79.53 253.06 80.53 252.24 84.8 246.71 87.94 243.08 90.08 239.76 89.93 237.66 88.94 235.11 89.37 234.11 90.65 232.88 94.36 231.62 96.35 230.66 97.78 229.18 98.34 227.76 99.34 224.33 99.62 220.81 99.21 217.6 97.78 213.02 98.35 211.52 98.49 211.1 98.77 210.94 101.06 210.4 104.77 209.23 107.61 208.12 109.18 205.89 109.89 205.4 110.17 205.32 111.6 205.36 112.17 205.45 116.59 206.07 120.58 206.08 122.01 205.52 124 203.89 125.42 202.15 126.99 200.68 129.98 198.56 131.13 197.33 131.4 195.14 130.98 192.78 130.42 190.49 131.55 190.01 131.84 190.11 135.12 190.27 135.4 190.27 136.83 189.72 138.39 189.34 140.68 189.14 143.24 188.7 144.66 187.97 147.23 185.43 149.65 183.21 150.65 180.8 151.07 177.78 150.93 173.56 150.09 169.84 147.09 160.26 144.09 152.28 142.53 149.8 140.11 146.04 140.24 144.1 140.24 141.16 140.25 139.98 137.54 135.96 136.54 133.33 136.82 128.71 135.97 126.24 131.84 119.92 128.42 114.7 126.42 111.12 126.42 109.94 129.42 107.82 131.41 107.03 133.27 106.99 136.54 108.08 143.25 111.27 146.24 111.93 147.94 111.64 148.51 111.48 152.22 109.05 153.36 106.8 154.64 101.53 154.5 97.57 154.36 94.79 155.07 92.62 157.06 87.37 157.35 81.99 158.07 76.7 157.07 72.05 157.06 62.54 156.5 58.82 156.07 53.17 154.92 46.16 155.5 44.83 156.35 44.34 157.07 44.45 158.07 45.23 159.77 46.36 161.77 46.16 163.91 45.37 166.9 43 168.46 40.93 170.04 39.45 172.89 38.52 174.16 37.45 175.74 34.37 176.3 30.85 178.29 28.55 178.02 23.57 178.73 20.22 180.15 16.64 182.72 12.83 183.29 11.16 183.15 10.06 181.29 7.24 179.15 3.4 178.72 1.88 179.3 1.13 180.73 1 181.72 1.7 184.57 3.96 186.71 5.1 188.14 6.23 188.84 7.76 189.42 9.79 192.13 11.63 196.69 15.02 197.97 16.57 198.54 17.67 197.97 19.85 199.4 22.49 198.96 23.74 198.96 25.43 199.4 27.45 200.83 29.26 203.38 30.25 211.36 30.61 215.21 31.03 216.92 32.34 218.35 34.81 218.77 36.17 218.92 40.72 218.63 44.67 216.78 50.93 213.93 58.61 211.8 65.54 212.08 69.67 211.8 71.6 210.94 73.26 209.08 75.58 206.95 77.8 206.38 80.9 206.09 83.83 205.39 86.43 203.96 89.67 203.25 92.69 202.96 94.78 203.24 96.47 205.95 100.24 206.66 102.53 207.52 108.61 208.51 118.4 208.8 120 209.95 124.15 210.8 127.04 210.51 129.81 210.22 133.5 208.37 141.12 206.66 149.24 206.09 153.77 206.23 157.65 207.37 161.88 209.09 165.96 211.8 169.98 212.65 172.61 213.22 177.42 214.07 183 215.93 190.87 217.21 197.46 218.64 200.61 219.21 202.06 219.2 204.58 219.21 208.71 220.21 211.09 222.62 213.16 225.2 214.4 230.6 215.12 232.46 215.25 232.74 216.27 231.88 216.92 229.18 217.95 226.48 218.81 224.34 219.6 223.2 220.58 223.06 221.93 224.34 226.08 226.19 229.16 227.33 230.11 229.61 230.75 233.6 230.85 236.88 230.17 242.29 229.04 242.73 229.47 242.86 229.89 243 231.08 243 234.78 243.86 235.73 243.57 235.89 243.28 236.22 239.72 237.14 236.03 238.32 233.75 239.61 232.45 241.85 231.6 243.68 231.6 249.4 230.88 253.85 231.04 257.13 231.61 258.32 233.88 259.89 237.02 260.89 244.58 262.51 251.42 263.68 255.7 264.54 257.11 265.34 258.26 266.54 261.53 270.91 264.67 275.11 267.37 277.11 270.37 278.28 274.22 279.3 280.77 280.63 281.91 281 282.07 282.35 281.92 283.94 281.5 286.29 278.49 286.89 271.22 286.88 268.24 287.06 263.24 288.04 260.68 288.82 257.83 290.35 249.85 294.78 244 297.76 237.59 299.62 229.04 302.53 223.05 306 219.21 310.12 218.35 311.7 218.63 314.57 219.77 318.21 219.2 325.18 219.49 329.48 219.49 335.12 220.21 337.66 225.19 341.49 224.91 342.24 223.63 342.88 220.06 344.31 218.21 344.85 217.22 346.34 214.51 352.25 214.37 354.69 216.21 357.34 219.78 361.39 221.2 363.69 221.63 365.3 221.06 367.81 218.64 372.89 217.64 374.88 218.21 375.99 219.35 376.52 221.78 376.67 226.19 375.85 230.03 374.17 234.32 371.92 239.44 367.33 244.01 362.81 248.43 359.97 250.85 359.1 251.99 359.38 252.84 360.16 251.85 362.07 249.85 365.06 248.28 369.23 246.57 372.8 243 377.68 237.87 383.28 237.45 384.95 238.17 387.08 241.86 392.3 242.3 392.31 242.16 393.82 241.44 394.98 237.87 396.41 233.6 397.99 227.91 401.89 227.05 403.22 227.05 405.49 227.33 406.51 227.62 406.6 230.04 407.25 233.89 406.66 252.28 404.25 262.68 402.73 270.52 401.57 278.92 398.83 292.6 392.6 300.59 388.67 303.16 388.05 305.43 388.45 308.42 389.19 311.56 390.7 315.69 391.89 319.4 394 321.11 394.04 326.24 393.75 332.94 393.66 334.94 393.87 336.5 395.76 336.65 397.62 335.51 399.02 333.79 400.49 331.23 400.77 325.25 400.12 318.98 399.63 309.99 399.33 307.15 399.68 303.15 400.51 298.88 402.43 291.75 405.87 287.77 408.98 286.34 410.54 286.63 416.94 285.33 418.09 281.35 418.08 279.07 418.53 277.22 419.16 273.66 423.03 272.38 425.02 271.65 427.69 271.66 430.97 272.52 432.93 274.93 434.67 277.79 435.33 280.92 435.99 286.9 435.97 289.04 436.36 289.61 437.21 288.76 437.61 286.33 439.15 284.2 441.21 282.34 444.27 281.5 447.29 282.06 453.27 282.06 456.81 282.07 457.06 280.64 458.62 278.36 459.16 276.93 458.79 275.22 458.07 272.09 455.22 269.37 453.13 263.96 451.15 258.97 450.02 255.7 449.44 252.56 449.7 251.41 450.43 248.42 454.73 247.86 456.91 247.86 458.85 248.42 460.37 249.42 462.42 249.42 463.77 247.85 464.65 244.58 465.84 243.58 466.65 242.3 470.49 241.72 472.25 238.45 475.45 234.31 479.47 231.46 483.11 228.33 487.24 226.61 489.47 225.62 491.97 226.62 496.71 228.48 502.06 230.61 506.82 232.46 507.88 233.75 507.82 239.45 501.73 243.87 498.47 248.71 495.98 250.7 496.03 251.71 496.81 251.41 505.3 251.28 507.32 250.56 510.33 246.86 520.34 246 523.01 245.44 526.37 245.43 526.96 246.28 529.33 247.28 530.11 247.71 529.96 249.28 529.49 253.84 523.29 258.96 516.85 262.82 512.31 265.81 509.86 272.08 505.46 273.08 505.24 273.65 505.08 274.23 505.69 273.93 510.56 271.51 520.43 270.37 525.79 270.52 530.76 271.22 531.2 274.65 528.84 281.21 524.12 284.49 522.01 287.9 520.07 291.32 518.3 293.18 516.92 295.17 514.86 298.6 512.67 301.72 510.98 303.45 510.01 304.58 508.61 307.14 504.04 308.57 502.81 309.99 502.26 312.71 501.9 316.83 500.32 322.4 497.76 323.82 497.46 324.53 497.64 326.53 498.62 329.24 499.19 332.37 499.68 335.66 499.59 337.07 500.81 338.36 504.29 338.49 506.65 337.21 506.95 331.09 506.72 329.24 506.93 323.81 508.31 320.54 509.58 317.98 511.29 317.55 512.88 317.84 516.16 314.98 517.86 312.13 520.07 311.56 521.31 311.42 522.74 312.7 523.95 316.41 525.14 320.4 525.23 323.96 524.9 325.1 525.68 324.82 526.94 321.11 531.39 317.83 534.09 316.41 535.15 312.7 535.65 309.43 535.82 303.15 536.93 298.3 538.33 294.17 541.18 293.75 541.76 293.46 543.1 292.32 549.63 292.31 550.22 292.6 551.49 293.32 552.35 295.17 552.39 301.02 551.86 305.15 550.78 306.15 550.81 307.72 551.27 316.26 554.76 317.26 555.87 315.98 558.28 312.98 562.84 311.43 564.23 307 566.31 304.3 567.51 301.72 569.38 301.15 570.63 301.31 571.9 302.58 573.53 305.43 573.68 307.29 574.31 307.58 574.49 308 575.59 307.58 576.93 306.44 579.68 305.44 582.1 305.58 583.78 306.72 584.65 308 584.68 308.43 584.69 311.85 584.27 318.97 583.52 322.25 583.77 324.68 584.92 325.81 586.29 326.38 588.75 325.95 593.28 325.81 593.7 325.39 597.05 325.82 597.91 326.24 598.17 328.1 598.89 328.38 598.98 330.67 599.12 333.09 599.01 335.22 597.63 338.22 593.58 338.65 591.99 340.07 590.93 344.48 589.35 346.77 588.15 348.76 586.51 350.04 583.68 350.47 580.41 349.48 573.31 349.47 572.89 350.05 571.39 350.33 571.23 351.47 570.75 354.88 571.34 355.46 571.78 361.44 574.02 367.14 575.26 369.29 575.14 371.29 574.43 371.57 574.27 372.13 572.85 371.71 567.79 370.42 562.54 370.43 562.29 370.99 561.55 372.28 561.16 374.55 561.64 375.56 561.74 378.69 561.65 382.11 561.48 382.4 561.49 383.68 562.19 384.11 562.45 390.09 566.39 393.23 567.98 396.37 570.91 398.65 571.39 399.65 571.25 399.93 571.09 402.34 567.44 406.19 558.78 406.19 558.44 406.48 556.43 405.34 549.33 405.91 548.09 406.2 547.84 407.19 547.78 407.62 547.88 410.76 550.64 414.61 554.02 415.33 554.63 418.59 556.22 423.3 557.43 427.3 557.44 429.14 557.15 429.43 555.05 430.43 546.32 431.85 544.59 433.84 544.72 436.41 545.96 439.26 549.15 442.82 552.18 445.39 553.5 450.1 553.95 451.38 554.07 453.95 553.46 461.21 550.1 469.04 544.31 469.48 542.05 470.34 535.67 471.9 535.29 474.46 535.61 477.18 536.77 480.17 537.51 480.88 538.79 482.02 541.34 482.31 544.21 479.04 545.82 477.46 546.87 476.04 548.69 475.04 551.44 473.61 559.24 472.47 564.17 472.04 565.26 470.05 565.55 467.48 565.82 466.05 566.29 465.35 567.79 464.78 571.48 464.92 574.6 465.77 578.24 466.06 579.84 465.49 581.26 464.92 582.08 462.49 583.71 462.07 584.63 461.78 584.87 461.22 586.79 461.78 588.07 465.2 592.53 467.63 595.7 470.19 598.79 473.91 601.83 473.9 603.26 473.89 603.51 473.75 604.01 461.5 603.97 453.8 604.71 449.82 604.69 446.25 604.1 445.97 603.93 442.4 603.59 441.98 603.75 440.26 603.79 439.97 604.04 438.41 604.33 438.12 604.41 436.56 605.3 435.99 607.22 435.27 607.96 434.57 607.86 430 607.75 426.02 607.9 415.18 609.41 409.48 610.79 406.91 611.23 403.78 612.58 399.35 615 396.37 616.19 395.94 616.27 393.23 616.45 389.37 617.54 387.95 617.59 382.97 616.2 380.12 615.97 379.11 616.28 377.7 618.18 376.98 621.7 376.13 626.47 375.27 628.39 374.7 629.39 373.13 630.69 369.29 631.44 365.29 632.02 359.59 632.55 355.46 633.88 353.47 635.18 352.04 637.84 350.05 640.49 346.77 645.37 344.49 646.67 343.34 646.81 340.93 645.32 335.66 645.02 331.66 645.26 329.38 646.8 326.25 650.26 323.4 653.98 321.39 656.88 319.4 658.43 317.83 659.4 317.27 660.57 318.12 662.69 319.98 664.76 322.25 664.98 323.82 665.27 324.39 666.55 325.82 667.25 326.52 667.69 325.96 669.02 326.24 670.29 327.67 673.19 328.81 675.99 328.96 677.43 328.81 678.18 328.81 680.29 329.81 684.6 329.38 686.7 327.24 690.94 327.1 691.35 327.52 693.13 328.95 694.34 331.67 695.67 333.51 696.05 334.37 696.66 336.22 697.89 337.07 699.84 338.5 702.65 342.78 706.88 346.06 708.81 346.05 709.32 346.48 710.93 347.05 712.54 348.63 714.51 349.06 716.38 351.04 718.61 351.47 718.88 351.61 719.97 350.47 720.28 349.33 721.01 348.2 723.09 346.49 728.52 347.06 729.2 350.05 731.55 350.9 732.41 351.18 732.59 350.89 733.59 349.05 734.55 346.06 736.92 343.92 739.31 343.21 741.57 343.64 743.17 343.63 743.6 344.92 745.56 345.63 746.93 344.63 748.17 343.77 750.16 344.48 754.22 344.07 758.08 344.64 760.45 344.63 760.71 344.35 761.88 343.92 762.29 343.64 763.54 343.64 763.79 343.77 765.31 344.06 766.58 343.2 767.91 343.07 768.16 343.06 770.26 343.78 771.12 344.06 771.38 346.48 773.12 347.34 774.66 347.48 776.85 346.35 779.85 344.63 780.99 343.34 782.13 343.64 783.32 343.78 784.5 343.64 784.75 342.49 785.73 342.21 786.48 343.06 787.01 347.05 787.02 350.91 786.86 353.61 787.01 357.17 787.77 358.88 787.98 361.45 787.54 365.72 787.72 366.29 787.74 369.15 788.06 372.13 789.14 373.99 788.93 374.41 788.86 375.84 788.22 378.27 786.6 383.11 784.95 384.54 784.98 387.25 785.72 389.09 785.51 390.53 784.37 390.95 782.19 390.96 776.97 391.24 775.47 392.09 774.9 394.52 774.79 403.2 775.08 403.92 774.59 404.77 772.09 404.77 771.67 405.35 771.01 405.78 770.85 406.92 770.71 408.9 771.18 413.47 773.14 415.33 774.11 417.6 774.25 417.88 774.09 421.02 772.82 426.01 770.67 428.72 770.06 431.86 769.97 437.7 769.94 438.27 769.87 439.26 769.56 439.26 768.55 437.13 764.46 436.85 764.2 437.13 762.86 437.55 762.62 437.84 762.62 439.27 762.66 442.4 764.33 445.96 765.35 448.25 765.49 450.1 764.94 450.96 762.77 451.95 758.25 451.66 757.24 453.1 755.84 454.1 755.44 454.66 755.29 456.08 754.99 456.8 755.09 460.36 755.6 466.91 756.93 Z M 218.22 685.19 223.19 685.06 229.18 684.95 230.19 684.3 230.62 683.22 230.33 682.29 226.76 679.67 224.06 678.6 222.49 678.22 220.06 678.17 218.35 678.55 216.78 679.18 216.22 681.95 215.37 683.44 215.65 684.46 218.22 685.19 Z M 93.93 330.41 95.93 330.29 97.2 329.56 97.78 328.57 97.78 324.78 96.63 323.49 93.93 323.34 90.93 323.61 90.08 324.6 89.94 328.04 91.51 329.51 93.93 330.41 Z M 646.36 729.39 647.5 729.33 648.77 728.78 649.06 727.18 650.05 725.52 651.2 723.03 651.06 722.35 649.77 722.07 646.64 722.24 643.93 722.68 643.37 722.75 642.21 723.57 642.51 725.42 643.36 727.55 645.08 729.02 646.36 729.39 Z M 492.14 1028.28 494 1028.16 494.71 1027.25 494.28 1026.23 491.57 1024.48 490.15 1023.94 489.16 1024.09 488.72 1024.83 489.15 1025.94 490.44 1027.23 492.14 1028.28 Z" fill-rule="evenodd"/>
</g>
</svg>