<?xml version="1.0"?>
<svg xmlns="http://www.w3.org/2000/svg" version="1.2" baseProfile="tiny" width="800" height="784" viewBox="0 0 800 784" stroke-linecap="round" stroke-linejoin="round">
<g id="newhoganlake">
<path d="M 12.47 494.29 12.95 494.2 13.93 492.56 14.85 490.38 13.86 490.6 11.65 491.15 9.2 491.8 5.41 492.74 7.08 491.64 9.78 489.75 11.18 488.44 11.18 486.89 10.28 485.21 9.11 483.01 8.33 481.32 8.08 480.03 7.95 478.35 6.91 476.28 9.14 475.3 10.37 468.68 10.57 467.37 11.15 463.31 11.47 458.77 11.34 453.79 10.8 446.82 9.72 446.39 9.82 445.52 7.24 441.45 5.19 438.1 6.82 438.3 7.9 437.05 8.24 435.45 7.86 432.69 7.73 430.92 8.03 429.93 9.84 428.81 11.14 428.46 11.14 427.51 11.31 426.73 11.65 426.04 12.26 424.66 12 421.38 11.57 419.31 10.96 417.41 9.84 415.69 9.06 414.91 8.46 413.36 7.94 411.81 7.42 410.86 6.47 409.99 5.7 408.44 4.86 406.96 4.45 406.99 2.73 406.23 1.76 404.4 1.22 403 1 401.49 1.11 400.41 1.22 399.33 1 398.14 2.08 397.17 3.37 396.74 4.24 395.88 5.75 394.91 7.15 393.93 7.37 392.86 7.37 391.24 7.58 389.62 6.61 388.33 6.61 387.46 7.26 387.25 8.45 387.25 9.2 386.71 9.96 384.87 10.1 384.13 10.39 382.61 10.6 381.85 13.73 384.55 13.84 385.2 13.52 387.14 14.06 388.86 15.57 390.38 17.83 390.27 17.72 391.45 17.18 393.29 16.75 394.8 17.62 396.42 19.99 397.06 19.99 398.14 20.1 399.87 20.64 401.7 21.82 402.24 23.77 402.03 26.79 401.27 27.76 401.59 28.41 402.56 30.46 403.32 32.29 403.21 33.37 402.24 34.02 400.73 34.34 399.22 35.64 398.03 36.5 396.09 36.82 394.37 38.55 393.29 38.87 391.99 39.2 392.42 39.74 394.15 40.17 395.55 40.71 396.85 42.33 398.79 44.05 399 45.24 397.71 46.64 395.34 47.61 393.93 49.12 393.5 51.06 393.61 52.36 394.04 53.98 394.8 54.95 395.45 56.89 394.91 55.6 392.86 53.87 392.32 53.65 391.13 53.98 390.05 54.3 388.33 53.22 387.79 51.17 387.57 49.55 387.14 48.48 385.95 47.4 384.23 47.18 382.72 47.94 380.77 46.75 380.02 45.45 379.8 41.89 380.24 40.17 381.21 39.52 382.61 39.3 384.01 37.15 384.23 34.56 384.12 29.81 384.01 27 384.01 26.98 383.99 26.36 383.36 27.65 382.28 30.67 380.77 32.61 378.94 34.34 378.08 36.61 374.95 37.9 373.98 41.79 372.9 43.4 371.93 42.43 370.31 39.41 369.23 36.71 369.23 35.53 370.31 34.34 371.82 33.69 373.44 31.21 373.87 27.97 374.41 26.03 374.09 28.08 372.68 29.81 371.82 31 370.53 31 368.48 29.81 367.29 28.41 366.54 25.82 365.57 24.2 364.81 23.23 364.27 21.82 363.95 20.96 364.05 18.59 364.38 17.62 364.7 17.94 363.73 19.02 362.44 18.37 361.68 17.4 360.5 16.43 360.39 17.29 359.52 17.4 358.34 16.54 356.29 14.16 352.84 13.41 352.4 12.65 351.87 12.67 351.13 13.36 351.2 14.83 351.35 17.64 354.58 20.87 357.82 22.6 358.9 24.11 358.04 25.62 360.19 29.29 361.7 32.74 362.78 35.55 361.06 36.2 361.7 40.73 362.78 44.4 362.35 47.63 359.11 51.09 357.82 53.03 355.45 51.73 354.8 47.85 356.09 46.34 355.66 45.26 353.51 43.53 352.21 41.16 350.7 41.59 348.76 43.1 346.17 41.59 344.23 38.35 343.58 34.47 342.5 31.45 342.93 29.51 344.01 27.56 345.95 27.35 342.72 28.86 340.99 30.15 339.05 27.78 337.76 26.27 336.46 23.25 334.95 20.66 334.74 17.85 335.6 18.72 333.66 18.93 330.85 17.96 328.52 16.77 325.67 18.29 326.97 21.31 329.77 23.46 332.79 26.27 332.79 29.29 332.79 31.88 332.36 33.39 332.36 36.63 333.44 39.22 333.23 39.43 331.72 38.57 328.69 39.43 326.32 40.73 323.52 39.86 320.71 38.14 318.77 36.63 317.26 33.39 315.32 33.39 313.59 34.69 310.79 33.61 309.93 32.96 307.12 31.45 304.96 29.29 304.1 28.64 302.16 29.29 300.22 27.35 298.92 26.05 298.06 26.92 295.69 26.05 292.67 24.54 290.72 24.54 289.86 26.49 289.43 28.86 289.86 30.59 289.86 31.88 290.72 32.1 292.23 33.18 293.1 35.12 294.82 37.28 292.88 39.65 292.88 41.59 295.47 43.53 301.08 47.63 305.61 50.22 304.96 51.95 301.51 50.65 298.71 49.14 294.39 46.34 289.65 43.54 287.43 39.43 287.27 37.28 286.63 35.98 283.82 34.04 280.58 30.8 279.07 27.78 277.13 26.49 275.62 26.05 273.68 24.54 271.74 23.68 268.72 20.44 268.5 17.64 269.8 15.26 271.96 15.15 271.48 14.62 269.37 15.48 267.42 16.34 265.05 16.13 263.11 13.32 262.68 10.52 262.46 8.87 261.71 8.14 261.38 10.09 260.95 14.19 260.31 16.13 257.72 15.48 254.7 15.48 252.75 14.19 250.6 14.17 250.52 13.75 247.79 15.91 249.52 16.99 251.89 18.93 254.48 18.93 258.15 19.36 260.74 22.17 260.74 26.27 260.31 27.35 256.85 25.19 254.26 22.39 251.89 21.95 249.73 22.17 246.93 23.68 245.2 24.11 246.71 25.19 248.66 27.35 249.09 32.31 251.68 34.25 251.03 34.25 249.3 32.96 246.07 32.1 244.34 33.82 242.4 36.63 242.18 37.06 239.16 35.55 238.3 40.92 236.19 41.59 235.93 43.53 238.08 43.75 240.24 43.97 243.26 45.69 246.71 48.5 247.36 50.65 248.01 49.14 250.38 48.07 251.68 48.28 254.05 50.22 256.42 51.3 256.42 53.89 256.21 55.62 256.42 56.48 257.93 57.56 260.74 55.4 261.82 54.54 263.54 55.83 266.99 57.78 269.58 59.5 269.15 59.72 266.13 61.44 265.05 65.11 266.13 67.06 267.86 70.51 272.39 72.45 275.62 75.9 277.13 81.51 276.7 84.32 277.35 84.75 279.72 84.97 286.63 82.16 289 81.73 291.8 81.95 295.47 86.48 301.51 89.5 305.39 91.87 310.36 92.52 316.61 96.19 323.09 98.56 329.13 101.58 334.3 105.25 338.83 107.19 341.21 115.61 345.74 118.41 345.74 117.85 346.93 116.47 349.84 116.47 353.07 117.12 357.17 118.63 359.55 121.87 362.35 125.32 360.84 127.69 355.23 127.69 353.51 129.42 353.29 135.89 356.53 144.31 359.55 149.06 360.84 151.65 359.98 153.81 357.6 154.24 352.64 154.67 350.92 157.69 348.97 161.36 348.11 163.95 346.17 166.54 341.86 165.46 338.83 162.44 336.03 159.63 334.09 157.47 332.58 156.18 330.85 157.91 328.26 158.98 325.24 157.69 320.71 156.83 318.77 155.96 315.97 155.75 312.95 155.75 310.36 157.47 308.63 158.98 306.04 159.85 304.1 160.71 301.94 159.24 298.33 159.03 295.74 160.97 292.72 162.48 290.13 166.8 289.7 166.8 287.98 164.85 280.86 164.42 275.46 162.7 275.03 162.91 268.13 162.26 265.32 162.05 262.3 160.75 259.07 159.29 256.94 158.38 255.62 156.22 253.67 154.5 250.87 152.77 248.93 149.1 248.93 147.59 247.85 151.26 245.48 152.12 243.75 152.12 240.51 152.77 237.06 152.55 233.83 153.8 232.41 154.06 232.1 157.52 233.18 158.38 231.45 159.89 234.04 161.62 236.42 163.56 239 165.29 242.24 167.44 246.99 176.72 261.44 180.61 265.97 182.77 267.7 184.71 269.86 186.22 272.23 187.51 273.74 190.1 272.44 192.91 272.23 195.07 270.72 196.58 270.72 198.52 271.8 199.81 271.8 201.97 270.93 203.91 270.72 204.99 270.07 205.86 267.91 205.86 265.11 204.99 264.03 202.83 263.17 202.4 261.23 202.83 258.42 201.76 253.89 202.19 250.22 200.24 247.2 201.76 245.69 203.48 243.53 203.48 240.73 202.62 238.36 204.13 236.85 206.07 235.77 206.07 232.96 206.72 229.94 207.58 228.43 209.31 225.41 209.31 221.96 207.58 220.02 202.62 218.94 200.03 217 198.09 214.41 195.28 211.82 196.79 210.74 199.17 210.74 202.83 211.39 204.34 210.1 202.83 207.51 201.54 203.62 201.11 201.68 197.87 197.8 195.71 194.13 195.71 192.19 195.93 190.03 197.44 191.33 199.81 193.27 201.97 194.78 202.46 194.92 204.99 195.64 209.31 194.56 211.47 194.78 212.55 197.58 213.41 200.17 216 202.76 221.82 206.86 225.71 209.66 228.08 210.74 228.73 213.98 229.81 216.14 231.32 218.08 233.48 222.39 235.64 227.79 236.93 231.45 241.46 234.69 246.21 236.2 251.82 237.06 253.11 238.36 255.49 239.44 260.24 240.51 265.2 240.3 267.79 238.79 268.87 237.93 269.95 235.12 268 232.53 266.49 229.08 264.34 227.57 262.83 226.28 262.52 225.22 261.96 223.26 263.69 224.77 265.85 225.63 268.87 226.06 271.67 227.79 275.56 228.43 280.31 229.3 283.97 228.86 289.37 226.49 292.61 225.41 294.76 223.69 297.35 221.96 299.3 221.75 302.75 220.45 307.71 217.43 308.96 215.41 309.29 214.23 308.75 213.15 309.18 212.28 310.26 212.18 311.12 212.07 313.5 213.9 318.03 215.84 322.34 216.71 327.74 216.49 329.68 215.95 330.54 214.55 330.54 212.5 329.79 209.8 328.17 207.75 325.69 205.6 323.32 203.98 323.36 203.96 323.96 203.76 325.9 203.66 327.2 203.66 330.76 203.76 332.49 203.55 334.64 203.66 335.62 203.98 337.23 205.38 339.72 207.86 342.09 210.34 345.76 212.93 348.02 213.69 349.75 213.58 351.04 211.53 352.34 208.08 351.91 206.35 350.94 203.76 350.07 201.82 348.13 198.05 346.94 195.89 346.08 194.59 344.79 191.68 343.71 189.74 342.95 188.45 341.33 187.15 339.61 186.29 336.48 186.07 334 185.43 332.05 184.78 331.3 184.02 331.52 183.48 331.59 183.47 332.92 183.16 334.43 182.94 336.15 182.51 337.67 181.22 339.07 179.38 339.61 177.55 339.61 175.18 339.07 173.02 339.07 171.4 341.73 174.49 341.77 174.53 342.63 175.61 343.28 177.01 344.36 179.82 344.89 181.22 345.97 182.3 348.13 183.38 350.18 183.16 352.34 182.51 354.17 181.87 355.25 181.76 355.9 182.08 356.33 183.38 356.22 184.13 354.93 185.75 354.07 186.72 353.09 188.23 354.17 190.39 355.15 191.68 358.81 195.13 361.19 196.97 362.16 198.15 364.21 199.12 366.15 198.69 367.34 197.4 367.88 195.13 367.77 193.3 368.42 191.47 368.2 188.77 369.06 188.34 371.33 187.8 373.81 186.4 377.37 184.56 378.24 182.9 379.1 178.47 378.33 175.97 377.2 173.38 376.43 171.14 375.39 169.5 375.39 169.16 375.39 168.38 375.47 167.05 379.52 167.91 380.65 168.13 382.54 167.86 384.37 167.75 385.13 168.18 385.94 168.83 387.18 169.26 388.37 169.8 390.26 169.58 394.46 168.24 396.35 166.29 397.38 163.17 397.92 161.49 397.32 160.85 396.62 159.71 396.19 158.1 395.97 156.32 395.54 154.86 394.41 153.19 393.92 152.11 393.87 150.76 394.46 149.36 394.52 147.15 394.52 146.18 395.65 144.34 396.03 142.56 396.62 140.41 396.14 138.19 395.54 137.39 394.79 136.95 394.03 135.88 393.11 134.47 392.22 133.49 391.96 130.25 392.61 127.92 392.61 125.98 393.13 124.43 393.25 121.97 393.13 120.42 392.35 119.64 391.57 116.92 391.7 115.63 392.35 113.56 392.61 111.61 393.13 109.16 392.35 107.34 392.11 106.14 392.09 106.05 392.19 106.15 392.48 106.44 393.77 107.34 394.94 108.64 395.71 110.19 397.14 112.65 397.4 114.46 398.3 117.05 399.34 118.99 399.34 120.81 399.6 123.14 399.73 126.63 399.6 128.7 401.02 130.64 401.54 132.58 402.71 134.4 404.39 136.6 405.81 138.67 407.63 141.13 407.89 145.4 407.76 147.08 408.53 147.34 409.44 148.89 409.44 150.19 408.92 151.48 408.66 152.65 408.32 153.86 408.32 156.32 407.8 158.65 407.71 160.07 408.66 161.36 410.48 162.14 413.76 162.49 415.22 161.71 416.34 159.68 419.06 158.91 421.39 158.78 424.63 158.52 426.7 158.13 429.68 157.09 431.36 156.58 432.66 156.83 432.66 156.87 432.79 158 433.18 159.03 432.01 159.03 430.98 159.94 430.85 161.49 430.33 162.53 429.81 165.12 429.42 168.1 429.81 171.2 430.98 173.92 432.27 174.31 435.25 175.09 436.28 176.51 440.17 178.58 442.63 179.1 447.29 178.45 452.6 177.67 455.07 177.5 455.39 175.13 454.64 172.11 454.1 170.17 453.02 167.9 453.45 166.18 454.31 165.64 455.29 165.53 456.69 166.5 458.95 166.5 460.36 166.5 462.19 167.69 463.49 168.01 467.05 168.01 467.8 169.2 469.64 171.14 471.9 174.37 473.09 175.99 475.35 177.29 479.02 177.72 481.4 177.72 482.69 179.01 485.39 180.52 489.92 182.03 495.21 182.36 502.22 181.6 509.02 181.92 514.74 181.92 521.86 180.31 528.01 177.39 531.68 174.7 532.86 172.43 533.4 169.95 533.84 166.39 535.02 162.29 535.99 159.38 536.96 154.96 537.18 150.97 536.32 148.16 534.59 146.54 533.94 144.49 533.4 141.9 531.25 139.32 529.76 136.99 529.32 136.38 528.72 135.35 528.63 133.97 528.29 132.93 527.77 132.33 526.56 132.15 525.7 131.29 525.1 130.43 524.06 129.65 523.11 129.13 522.59 128.79 522.42 128.36 521.73 127.23 521.21 126.72 520 126.46 519.23 126.03 518.97 125.59 518.62 124.3 517.24 122.92 516.38 122.49 516.64 120.76 516.29 119.47 515.51 118.26 514.82 116.79 513.18 114.72 511.72 112.91 510.08 110.15 508.26 107.9 506.36 106.87 505.47 106.31 504.72 105.83 503.43 105.23 502.22 105.23 502.22 104.63 502.13 103.42 502.05 102.55 502.74 101.78 503.08 100.66 503.15 99.85 503.17 99.62 502.83 98.76 503.77 97.89 505.67 97.29 506.62 97.72 507.57 98.33 508.95 98.33 511.8 97.12 512.41 96 513.27 94.96 513.53 93.58 513.18 91.94 513.1 90.39 513.44 89.09 512.92 87.97 512.45 86.63 513.03 85.91 514.46 85.2 516.01 83.97 516.98 82.68 516.27 80.41 516.66 78.79 517.37 77.63 519.64 76.72 521.25 76.92 522.61 77.43 524.17 78.6 527.79 80.74 529.73 82.09 531.68 82.81 534.4 83.78 536.27 83.91 540.42 82.55 542.68 81.51 543.46 80.28 545.27 79.25 547.6 78.92 550 77.76 551.29 76.33 551.42 74.46 551.75 72.39 551.36 71.42 549.61 70.9 546.63 71.03 545.34 70.64 543.39 69.8 542.42 68.63 542.29 66.82 542.55 66.37 543.01 65.4 543.33 63.91 543.14 62.81 542.49 61.71 541.97 61.19 541.91 60.54 542.42 58.92 542.68 57.95 542.62 57.18 542.16 56.14 541.78 54.98 541.45 53.49 540.68 52.19 540.22 50.77 540.55 49.22 541.06 48.12 540.61 47.99 539.9 47.08 539.32 45.46 538.47 43.65 538.02 42.55 536.73 41.58 535.56 41.06 533.42 40.48 532.2 40.15 530.64 39.25 529.85 38.85 528.96 38.41 527.47 38.41 525.2 38.28 526.11 37.57 527.34 36.98 528.57 36.34 529.8 36.08 530.64 35.69 530.77 33.68 531.29 33.23 532.07 32.97 532.58 32.84 532.97 31.81 533.04 30.96 533.68 30.51 534.72 30.06 535.5 30.06 536.86 29.67 537.5 29.09 537.63 28.31 538.41 27.6 539.06 27.34 540.22 27.34 541.39 27.21 541.65 26.69 541.13 26.24 540.22 25.14 538.8 24.36 537.57 23.84 536.73 22.87 535.5 22.03 534.46 21.32 533.62 20.41 532.78 19.64 531.78 19.26 531.22 19.06 530.58 18.41 529.98 18.35 529.93 18.34 528.89 18.93 527.92 18.73 527.12 18.73 526.95 18.73 525.92 18.34 525.46 18.34 525.01 18.6 524.1 18.41 523.84 18.15 523.46 17.5 522.94 16.85 522.05 16.03 522.59 15.6 523.02 15.87 523.78 16.36 524.86 17.33 526.37 17.33 527.77 17.54 528.96 17.54 529.09 17.21 529.17 17.01 531.12 16.9 532.41 16.9 534.57 17.44 536.08 17.54 537.05 18.84 537.7 19.92 538.67 19.92 540.93 19.59 542.12 19.27 543.52 19.27 544.17 18.62 545.25 17.22 547.19 15.39 549.03 14.09 549.67 13.12 549.64 13.02 549.24 11.72 550.97 12.48 553.34 12.04 555.61 10.75 556.25 10.49 557.77 9.89 560.03 9.45 561.44 9.67 559.92 9.89 557.66 11.18 555.29 13.66 554.21 14.96 552.59 17.01 552.05 21 551.83 24.56 552.16 26.93 551.51 27.68 550.75 29.95 550.75 32.22 550.75 34.26 552.26 36.1 553.24 37.72 555.29 39.01 556.69 39.33 557.98 39.12 559.28 39.23 558.59 40.91 558.46 43.76 560.14 45.7 562.34 49.19 564.02 50.75 565.84 51.91 567.26 52.56 568.17 52.95 569.07 54.89 569.59 55.8 570.89 56.7 573.87 57.61 577.62 57.61 578.79 57.74 580.6 57.74 581.12 58.51 581.5 59.55 582.15 60.59 583.96 60.46 584.35 59.03 585.26 58.38 585.78 58.38 587.33 58.64 587.98 58.64 589.66 57.87 590.18 57.09 590.18 55.8 590.57 54.76 591.6 54.24 593.29 53.98 595.1 54.5 598.72 56.31 600.54 56.57 603 56.7 605.2 56.05 606.6 56.65 607.01 56.83 606.8 56.52 607.53 56.05 610.9 55.41 613.36 54.63 614.78 54.63 616.33 54.37 618.79 53.85 620.22 53.85 624.75 51.91 627.34 49.84 629.93 46.61 629.93 43.89 629.02 40.52 627.73 37.03 627.73 35.78 627.73 34.83 631.22 39.23 635.37 41.69 637.96 41.56 640.29 39.49 643.65 37.41 644.44 36.04 644.96 34.48 644.96 32.24 643.57 29.13 642.74 28.48 639.26 27.92 638.39 26.2 639.26 23.61 640.64 21.37 640.98 18.95 639.95 16.19 639.09 14.98 639.43 13.25 638.57 11.87 637.53 10.84 636.67 9.97 637.01 8.25 638.74 6.35 638.39 5.31 637.88 4.28 637.37 3.84 636.67 3.24 636.67 2.56 636.67 2.38 637.01 1 638.22 1.86 639.78 2.55 641.16 2.73 641.67 6.18 641.5 7.04 641.85 8.59 641.93 9.52 642.1 10.27 643.7 11.66 645.47 13.94 648.06 16.71 649.1 17.22 651.69 17.74 655.49 17.4 657.9 16.88 658.69 16.62 657.94 19.21 657.74 20 658.59 20.85 657.9 22.06 657.9 23.61 657.56 26.03 657.56 27.92 658.94 30 663.08 30.69 665.84 30.51 666.23 30.59 667.76 30.1 669.59 30.75 670.33 31.72 672.06 34.14 672.92 35.69 674.13 35.69 676.55 35 679.66 33.96 682.42 33.45 683.63 32.58 683.97 31.38 684.83 30.69 687.25 29.48 689.32 28.96 690.36 29.65 691.05 30.51 693.12 31.38 694.5 31.38 697.09 31.03 701.93 29.3 706.93 28.1 710.04 27.92 714.53 26.89 718.33 26.03 721.61 26.03 723.85 26.03 725.92 25.68 727.65 25.68 729.2 25.68 730.93 25.16 732.83 24.3 734.21 24.3 735.59 24.64 736.31 25.32 736.87 25.58 737.92 26.08 739.87 27.59 741.48 29.75 743.21 31.47 745.15 32.87 747.53 34.71 748.5 36.22 750.75 37.27 753.73 40.12 757.83 41.5 760.67 42.41 764.17 43.57 768.7 43.06 775.69 42.15 779.84 40.47 784.63 39.04 790.71 36.58 792.79 35.16 793.56 33.87 796.54 33.22 799 33.48 797.88 35.37 797.71 35.68 794.73 37.36 790.33 38.91 785.79 40.99 781.13 42.93 778.07 43.88 774.31 45.04 769.13 46.34 766.16 47.11 763.75 46.97 759.81 46.72 753.08 46.08 749.97 45.56 745.96 43.75 743.76 42.06 741.81 41.16 740.73 39.64 738.45 39.09 735.6 37.02 733.14 36.11 727.57 35.33 724.08 35.46 720.84 36.63 718.64 37.79 715.01 39.09 711.9 40.25 709.19 41.16 707.11 43.1 706.47 44.39 705.43 45.3 703.44 46.76 701.54 48.83 700.68 51.07 699.3 51.42 697.4 51.07 695.15 50.73 692.22 51.76 689.8 52.63 687.04 53.83 685.31 54.87 683.24 55.56 681.52 55.73 679.27 55.73 676.51 57.11 674.78 58.49 673.57 59.88 672.71 61.6 672.02 63.85 670.99 65.57 671.5 67.99 673.4 68.85 674.78 68.68 676.34 69.54 676.16 71.09 675.65 72.3 676.16 73.86 677.2 74.55 678.58 75.75 678.58 76.62 677.55 78.86 677.03 80.59 676.16 80.07 675.65 78 675.3 76.62 674.27 75.75 673.94 75.75 672.54 75.75 670.29 75.75 668.74 75.41 666.67 74.37 666.5 72.3 664.94 70.75 662.53 70.23 659.59 70.4 657.52 69.54 654.41 67.3 650.61 65.23 648.2 65.23 646.13 65.74 645.26 67.81 646.3 69.2 648.72 70.4 649.92 72.65 651.13 73.86 653.2 74.55 654.76 76.44 657.17 79.03 660.45 80.41 663.22 81.1 665.81 82.14 667.53 81.79 672.37 83 676.34 85.94 676.86 88.53 676.35 88.43 674.27 88.01 673.95 87.53 673.23 86.45 669.43 85.59 668.72 85.59 666.84 85.59 664.08 86.63 659.94 86.28 657.35 85.25 652.17 83.87 645.95 83.18 641.46 81.97 639.05 80.76 635.94 80.07 631.8 79.03 627.48 78.34 620.92 77.65 615.74 79.55 611.94 81.79 609.53 85.59 607.11 87.84 604.87 86.8 603.83 85.59 600.2 85.59 596.58 86.8 593.3 89.22 592.61 93.01 590.88 98.19 589.33 100.61 590.71 103.37 589.85 106.65 588.64 104.58 586.57 103.37 583.8 101.99 580.87 102.68 578.8 103.89 577.24 103.2 575.86 101.47 575.34 103.02 576.21 105.61 577.24 107.68 576.21 110.44 575.17 111.48 573.75 111.22 572.45 111.22 570.94 111.65 570.94 114.03 571.81 115.97 574.83 115.97 576.12 114.67 577.2 112.73 578.28 112.95 581.08 113.59 583.24 112.95 583.46 114.89 583.67 117.05 586.48 117.69 589.5 117.91 591.87 117.91 594.03 118.77 592.74 118.99 590.15 119.64 588.42 120.93 586.7 121.36 585.4 122.66 583.89 124.17 583.89 125.89 585.62 128.05 584.32 128.91 582.16 129.13 580.65 129.13 579.14 129.34 578.5 130.42 578.5 133.01 579.14 135.38 581.08 137.11 581.52 139.05 581.08 140.78 580.87 143.58 581.73 145.52 584.32 148.11 587.77 148.54 591.23 147.25 593.39 146.17 594.9 145.52 596.41 145.74 597.49 145.31 598.35 143.37 599.43 142.29 600.51 142.29 602.02 143.15 602.23 144.45 603.96 145.96 606.12 146.82 608.28 146.82 610.43 147.03 612.81 148.11 614.63 149.94 614.75 150.05 613.81 150.12 611.73 150.27 610.65 150.27 609.14 150.7 609.19 151.14 609.35 152.43 610.65 153.08 611.73 155.23 613.67 157.17 614.96 158.68 615.23 160.83 615.4 162.14 616.04 165.8 613.02 165.16 612.81 163.43 610.86 161.92 607.41 160.41 604.82 160.19 601.15 159.76 596.19 160.41 594.68 161.27 591.87 161.7 589.07 162.14 587.34 162.35 585.4 164.29 583.67 167.96 582.6 169.47 581.95 171.41 582.38 174.22 584.54 175.94 586.26 178.75 587.13 182.42 587.77 184.36 588.64 185 590.8 187.38 594.03 190.61 595.33 194.71 599.21 197.95 604.17 201.83 610.22 205.07 612.81 204.85 615.83 205.07 616.69 206.58 618.85 208.09 621.01 209.6 627.27 214.13 630.07 215.64 631.74 216.64 632.23 216.93 624.89 218.01 622.09 218.01 617.99 217.15 616.26 218.66 616.23 218.62 614.53 216.5 611.94 216.29 605.9 216.29 599 218.01 597.92 219.31 595.76 217.8 592.09 215.42 587.99 214.35 584.32 212.84 581.52 211.97 578.93 208.95 574.83 206.58 571.16 202.48 567.49 200.97 561.88 199.89 558.64 196.44 554.97 194.07 550.44 191.26 543.54 190.18 537.49 191.26 529.51 193.63 521.31 195.79 517.42 197.09 509.01 198.17 502.97 200.32 500.81 204.21 498.57 207.38 498.22 207.87 493.47 204.64 489.8 203.56 485.06 203.99 481.6 205.5 480.31 205.28 479.88 203.99 474.91 202.26 471.24 201.19 468.65 198.38 462.4 195.58 459.59 195.14 457.65 195.14 455.15 196.09 450.57 199.67 446.26 203.55 442.37 206.79 440.21 210.02 438.27 213.26 437.84 216.93 436.33 218.44 435.03 222.11 433.95 225.99 431.8 228.79 431.37 231.38 431.37 236.56 430.93 240.23 431.15 242.82 432.23 246.05 430.07 248.86 427.7 251.45 427.27 255.33 424.89 257.7 425.97 264.17 425.75 268.06 422.73 271.94 422.34 273.44 421.44 276.9 419.98 276.17 418.85 275.61 416.91 272.16 416.69 269.35 417.12 265.47 415.18 263.53 414.96 260.72 411.08 255.11 407.41 253.39 400.07 253.39 392.31 254.9 387.36 254.73 378.52 254.95 367.51 253.01 355.21 249.12 344.84 248.04 345.05 249.07 345.26 251.23 346.13 254.47 349.36 257.06 352.38 257.7 356.92 258.78 357.78 262.88 358.86 264.61 363.17 266.55 367.27 268.49 370.94 270.43 369.44 271.31 367.27 272.59 364.9 274.1 361.23 275.39 359.29 277.98 358.86 280.57 356.7 282.51 356.48 284.24 356.37 284.17 354.33 282.94 351.95 283.16 349.36 283.81 347.85 284.02 347.25 285.82 346.77 287.26 346.77 290.28 344.18 288.98 340.3 289.2 337.49 289.63 334.69 290.93 331.24 293.3 328 296.97 326.49 299.77 325.63 295.89 324.76 293.73 326.92 291.14 331.24 287.91 335.55 283.59 338.57 280.57 339 276.47 338.14 272.59 335.98 268.06 332.75 264.82 324.55 260.72 317.86 260.08 310.52 260.08 307.5 260.94 305.77 265.25 305.56 271.51 307.93 277.33 307.71 281.65 307.49 281.74 305.99 282.3 303.61 281.43 300.16 280.57 297.14 281.22 295.85 282.08 293.69 282.51 290.02 282.51 285.7 283.38 283.11 285.32 280.96 288.34 278.37 288.12 276.64 283.81 277.29 280.79 277.29 277.98 279.66 274.1 283.54 273.02 286.35 269.57 290.45 267.63 291.1 264.39 290.02 260.94 288.72 260.29 285.49 261.15 282.68 261.59 277.5 263.96 274.48 267.19 272.54 270.86 272.54 274.96 266.93 277.55 263.91 279.49 263.04 282.08 263.91 284.89 265.63 287.47 266.07 290.93 269.95 292.87 272.11 293.3 272.97 294.81 272.11 296.1 270.38 298.91 271.24 302.14 277.29 303.87 280.96 304.52 294.55 301.93 306.64 299.56 302.97 302.36 299.73 304.95 293.9 307.11 291.99 308.68 287.86 312.07 283.6 314.5 283.33 316.38 284.46 317.88 286.71 319.78 286.02 320.99 285.84 323.06 286.53 325.65 286.57 325.86 286.88 327.72 283.77 327.55 280.84 327.55 277.04 328.24 275.14 329.45 273.59 331.69 272.55 335.31 272.55 337.56 274.79 341.01 274.79 341.35 274.79 344.29 274.97 346.88 277.38 349.64 281.01 351.19 282.24 352.32 283.08 353.09 284.81 356.03 284.98 358.44 286.36 360 288.09 362.76 289.99 365.86 291.71 368.11 295.34 367.76 298.79 366.9 302.07 365.17 305.01 364.83 310.7 361.03 314.5 356.37 318.3 353.61 319.45 353.39 321.06 353.09 318.82 356.2 317.26 359.31 315.54 363.79 314.67 367.76 312.08 372.77 308.8 375.7 307.25 378.29 306.56 380.53 307.6 382.95 305.01 383.99 302.76 386.06 298.62 390.54 298.27 395.2 299.31 400.21 299.65 404.87 297.93 407.8 295.86 409.87 295.68 411.54 295.51 413.15 294.13 409.7 293.44 408.49 294.13 407.29 293.44 406.42 291.54 406.42 289.47 406.77 285.15 406.6 279.28 406.6 277.73 408.15 276.52 410.22 275.48 411.6 266.68 410.91 263.75 409.87 261.33 408.15 259.08 408.32 256.84 410.22 254.94 411.6 253.73 414.36 251.66 417.12 248.04 420.75 244.41 423.16 243.72 424.72 246.48 428.34 248.9 429.72 253.39 431.28 255.63 431.28 256.84 433.87 255.11 436.45 252.87 441.11 253.39 446.98 253.91 452.16 252.01 453.89 250.63 453.2 248.9 453.71 249.24 455.96 250.8 457.86 250.28 458.2 247.86 460.44 247 464.07 246.83 468.38 243.03 467.35 239.92 464.76 235.95 460.44 232.5 456.3 228.36 452.85 223.69 448.54 222.49 446.98 220.41 445.08 219.03 442.84 217.13 441.11 215.06 439.39 212.3 439.22 211.26 436.97 210.75 433.87 210.06 433 207.81 431.97 205.57 431.1 204.19 429.55 204.19 427.31 203.01 425.65 201.63 424.79 198.52 423.58 193 422.89 189.54 423.41 184.88 424.44 182.98 425.65 180.74 426.86 179.19 427.72 177.29 427.55 175.91 426.51 173.14 424.79 171.93 423.41 170.04 422.37 168.83 423.41 168.83 424.27 168.65 426.17 170.04 429.1 171.07 430.31 172.8 430.83 174.18 431.35 176.42 431 179.53 430.66 181.95 430.66 183.5 431.17 184.88 433.94 185.23 437.56 185.23 439.63 185.4 441.01 185.4 444.12 184.54 445.67 183.85 447.05 182.64 447.57 182.64 448.61 182.98 449.12 184.54 449.3 186.44 449.3 188.85 449.64 189.02 449.75 190.41 450.68 191.96 452.75 194.55 455.85 197.83 456.89 200.59 457.58 204.22 456.72 205.6 455.68 206.63 455.68 207.77 456.1 208.53 456.37 208.88 458.44 208.36 461.21 207.84 462.59 207.67 467.25 207.5 469.32 206.12 474.49 206.81 477.95 208.02 480.36 210.43 481.23 213.71 482.09 215.78 482.95 216.39 484.46 216.48 484.68 215.96 486.23 214.92 487.27 214.58 490.03 214.23 491.75 215.27 494.52 217.34 494.52 218.72 494.69 221.65 495.55 224.42 496.24 227.52 497.62 228.56 498.27 228.91 498.49 229.42 500.56 229.6 502.28 229.08 504.01 228.73 505.73 230.11 508.32 231.49 509.19 233.91 510.05 235.47 511.43 235.81 512.35 235.98 512.81 236.33 515.23 236.33 516.61 237.54 518.16 237.54 519.37 237.5 519.45 237.02 520.4 236.5 522.3 236.5 523.68 237.36 524.2 241.34 524.2 243.92 523.51 245.31 522.48 248.07 520.23 247.95 520.55 247.55 521.61 247.72 523.51 246.69 525.41 246.69 526.62 245.82 527.83 243.58 527.83 242.89 528.34 240.13 528.86 238.92 529.03 238.75 529.72 239.09 530.93 240.47 531.97 242.03 531.28 244.96 530.76 246.51 530.76 247.72 532.14 249.28 532.83 251.18 532.66 254.11 531.8 256.35 531.62 258.94 531.97 256.18 532.49 255.66 533 254.66 533.43 254.46 533.52 253.94 534.21 254.63 536.8 252.9 536.11 251.35 535.77 248.41 536.97 247.38 536.97 247.03 539.22 246.51 541.81 246 543.7 244.27 544.22 243.92 543.7 241.68 541.29 241.16 538.87 240.13 537.66 238.4 538.87 236.67 540.94 234.77 542.84 232.7 543.88 230.63 542.5 228.04 541.98 223.73 540.77 221.03 538.93 219.09 537.96 217.25 536.78 215.09 535.59 213.15 535.05 210.47 534.83 208.4 535.59 207.22 537.21 208.94 539.26 212.29 540.55 216.82 539.69 217.9 539.58 219.28 540.89 221.65 541.12 223.38 542.15 226.32 544.39 229.42 546.64 231.67 548.88 232.7 550.26 234.26 550.95 235.64 550.09 238.4 550.95 240.47 551.13 241.68 551.13 243.75 553.71 244.27 555.44 243.41 556.13 241.85 556.82 241.68 558.55 242.2 562.34 243.75 565.28 245.65 566.83 247.38 568.73 247.87 569.59 248.07 569.94 247.03 569.59 245.65 568.56 243.41 568.39 241.68 567.69 240.82 566.14 239.95 563.55 238.05 562.52 235.81 561.65 233.22 561.31 231.32 560.1 229.42 559.58 227.87 559.76 226.83 560.62 225.77 562.42 224.73 563.8 223.18 565.18 220.59 566.39 220.42 567.59 221.8 570.36 224.56 572.08 227.84 571.56 230.43 571.56 232.33 573.46 233.02 575.71 232.67 578.47 233.19 580.54 237.34 580.88 242.34 582.09 244.93 583.13 246.66 585.2 246.83 587.61 247.35 589.34 249.25 589.86 250.8 591.41 252.01 593.83 252.7 595.55 255.29 596.93 258.05 597.11 263.23 596.42 263.06 596.93 261.44 597.28 256.67 598.32 252.7 598.14 251.32 596.07 251.14 595.66 249.42 591.58 248.04 590.89 246.31 589.86 246.14 589.86 245.62 589.86 241.48 590.72 238.37 590.72 237.34 592.79 238.72 597.8 239.41 599.7 240.79 603.67 241.31 607.29 241.31 611.78 242.51 615.57 241.31 617.82 239.82 618.21 238.72 618.51 237.16 614.71 234.57 612.3 231.98 610.91 228.53 608.84 225.25 606.08 221.45 604.7 218.52 605.22 217.65 606.08 216.45 608.84 215.07 612.12 214.37 613.5 214.37 614.88 214.55 616.27 214.55 619.03 214.03 621.96 213.51 625.76 212.48 627.83 212.82 630.59 214.03 635.25 215.24 637.84 216.45 639.74 217.65 641.29 217.65 644.05 219.55 645.61 221.28 648.54 221.45 652.16 222.32 653.89 224.73 656.48 227.15 659.76 229.05 662 231.29 662.52 230.84 663.43 230.26 664.59 229.74 667.53 230.43 669.94 231.29 674.6 231.98 677.19 232.16 679.78 232.33 681.85 233.19 682.99 235.78 686.96 237.16 688.34 239.41 690.07 239.41 690.33 239.41 693.87 240.1 696.97 243.03 699.56 244.76 702.84 249.42 705.43 251.32 705.78 251.04 706.5 250.46 708.02 251.49 712.16 252.87 714.92 254.08 718.89 256.67 725.62 257.71 726.49 260.81 727.52 264.61 728.56 264.42 729.01 264.09 729.77 263.92 732.53 265.13 735.12 267.2 736.84 270.14 738.57 271.86 740.98 272.73 742.88 274.45 744.09 276.52 746.34 276.52 749.1 276.52 750.82 275.66 752.2 271.35 754.1 267.72 756.17 266.34 757.9 264.27 759.8 260.99 761.35 260.12 763.25 260.3 766.01 261.68 767.56 263.44 768.74 263.75 768.94 259.26 768.6 256.84 765.32 255.29 763.77 255.38 763.66 256.33 762.56 257.19 761.01 258.05 758.76 259.09 756.69 260.99 754.62 262.37 753.07 264.96 753.07 266.68 752.55 268.24 751.34 267.37 748.92 264.78 745.47 265.13 744.09 263.75 742.54 262.54 740.29 259.95 739.09 257.36 738.22 253.91 738.74 252.53 738.57 252.36 737.02 250.8 735.29 246.83 733.39 245.45 733.22 245.45 731.84 243.21 727.52 240.62 724.24 239.75 724.24 237.85 724.24 235.78 724.76 233.8 724.43 233.71 724.42 231.98 724.42 229.91 724.76 231.81 723.9 234.4 723.21 236.82 722 237.68 722 238.54 721.31 239.58 719.58 240.96 718.2 239.93 716.65 238.89 715.96 236.99 715.1 235.44 714.75 236.13 713.37 236.3 711.82 235.09 710.61 234.57 707.85 233.36 706.12 231.29 704.91 229.39 704.91 226.46 705.6 223.01 705.6 221.4 705.49 220.59 705.43 222.49 704.05 224.39 702.32 225.25 700.94 226.8 699.22 225.77 698.7 224.58 696.96 222.34 696.45 220.44 696.45 216.99 696.45 215.09 696.27 216.12 695.06 216.64 693.51 216.64 692.48 216.47 691.09 215.6 690.4 214.57 689.54 213.19 689.37 212.15 688.51 211.98 687.3 212.5 685.92 212.32 683.16 211.46 680.57 209.56 680.57 207.84 679.7 208.7 677.63 209.74 675.73 208.18 674.01 205.76 673.32 204.51 673.32 204.38 673.32 204.56 671.59 204.73 669.18 201.62 667.1 200.07 666.24 199.55 665.03 200.24 664 200.93 662.27 200.24 661.24 198.34 660.37 196.79 658.65 195.58 657.78 194.2 657.09 191.78 657.96 191.09 658.82 190.57 660.2 189.71 662.44 189.71 667.62 189.88 669.35 192.13 672.8 194.37 674.35 195.41 676.08 195.1 678.25 195.06 678.5 193.16 679.88 191.61 681.26 189.88 682.47 189.29 682.89 188.67 683.33 187.94 682.28 187.47 681.6 187.98 681.6 189.36 680.22 191.26 678.5 191.44 676.6 189.88 674.53 187.29 670.73 186.43 669 184.01 668.83 183.15 667.79 182.29 666.07 181.77 664.69 181.77 664.17 183.84 663.65 183.84 662.79 183.49 661.24 184.88 659.68 185.57 658.65 186.08 655.54 186.6 653.3 184.7 652.26 181.94 650.88 180.39 650.36 179.35 649.67 180.21 647.95 181.42 646.74 180.39 645.7 180.39 644.49 178.49 643.11 176.42 642.42 173.65 641.91 171.76 641.91 169.34 642.42 169.34 641.39 169.86 639.66 171.06 638.8 172.96 638.8 173.83 637.76 176.24 637.07 176.93 635.35 176.07 633.45 174.52 631.55 172.1 631.55 170.55 630.86 169.34 630.69 168.82 629.82 170.37 628.27 172.79 627.93 174.34 627.58 175.9 627.06 177.62 625.34 177.97 623.61 178.14 621.37 176.59 620.5 173.31 620.5 172.27 619.3 171.93 617.92 172.45 616.36 171.58 614.98 171.93 613.95 174 611.7 174.34 608.6 172.96 606.87 169.51 605.32 166.06 604.45 164.85 605.32 163.3 605.83 162.26 607.04 161.05 607.04 159.33 606.52 157.6 605.83 157.77 604.45 157.94 602.73 157.77 601.86 157.6 601.35 158.46 599.79 157.43 598.07 155.87 597.2 155.01 596 155.7 595.31 157.25 594.96 158.46 594.1 159.67 593.75 160.36 592.72 159.33 591.51 157.77 590.82 156.05 590.82 154.84 590.13 154.15 588.75 152.76 587.54 151.73 586.68 148.45 586.5 148.1 585.81 147.76 584.26 146.72 583.74 145.69 583.57 144.13 583.57 142.92 584.09 141.54 585.12 140.51 585.99 139.99 587.54 141.03 588.23 142.06 589.61 142.41 590.65 141.89 591.85 142.06 592.72 143.1 593.58 144.82 593.75 146.55 593.93 147.24 593.93 148.1 595.31 148.97 596.34 149.83 596.34 151.21 597.2 151.56 598.07 151.04 599.62 151.38 600.66 152.59 601.17 153.63 601.86 154.66 603.25 153.8 604.45 152.07 604.97 150.87 605.49 150.52 606.7 150.35 607.39 151.9 608.6 153.46 609.11 155.01 610.15 154.66 612.05 156.05 613.43 156.91 614.46 157.08 616.19 157.43 618.09 158.63 618.61 160.36 618.61 163.47 618.61 164.33 620.5 163.3 622.4 162.26 623.61 162.09 626.55 161.57 628.96 162.95 629.82 162.95 632.07 160.53 632.24 158.29 632.07 154.15 632.76 150.52 633.79 148.62 636.21 149.14 638.63 149.66 640.7 146.03 639.66 142.92 638.63 140.16 637.59 137.23 637.76 137.23 640.35 138.95 643.29 141.89 645.88 142.41 647.77 142.92 649.5 142.92 651.4 144.48 653.12 144.65 654.85 143.96 657.78 143.44 660.03 143.62 661.41 144.31 662.44 146.03 661.75 147.41 662.1 149.48 662.62 150.87 662.44 152.59 662.79 154.66 662.44 155.35 661.58 156.39 663.48 157.08 664.17 154.66 664.69 152.59 665.55 151.04 666.24 149.31 667.28 148.1 667.79 146.55 667.79 143.79 669 142.41 670.21 141.72 671.25 142.41 673.84 143.62 675.39 145.17 676.6 146.2 679.19 145.17 680.91 143.96 681.43 142.92 681.95 141.54 682.81 138.95 684.88 137.4 686.43 135.33 687.3 133.6 687.99 132.91 689.2 134.47 690.06 137.06 690.23 137.92 692.3 137.57 693.51 138.26 694.72 139.3 696.1 142.92 696.96 146.9 698 147.07 699.38 147.76 700.93 149.66 701.8 151.04 703 151.04 704.38 152.07 705.94 153.28 707.32 154.84 711.46 155.72 713.62 156.24 715.34 157.62 716.03 159.39 716.14 160.56 716.21 157.62 717.76 155.72 718.45 153.3 718.97 151.23 718.97 149.51 719.14 149.85 721.38 150.54 726.39 153.3 729.15 157.1 730.36 160.56 730.88 160.68 731.26 161.07 732.43 157.45 732.78 154.86 732.43 151.92 731.4 149.51 730.53 148.47 730.53 147.61 732.6 148.13 735.19 148.99 736.4 150.2 737.95 153.13 741.58 154 742.44 154.69 744.51 155.06 745.77 155.2 746.24 156.76 746.58 155.55 748.31 154.17 749 151.92 750.73 148.99 752.28 146.74 753.66 144.5 755.56 142.43 757.28 142.77 757.8 143.29 759.01 143.12 760.39 143.12 761.43 143.46 761.77 145.19 760.39 146.23 760.39 147.78 760.91 149.16 761.6 151.75 762.98 153.3 763.84 154.69 764.19 154.86 765.4 154.69 766.26 154.69 767.47 154.9 767.64 156.58 769.02 158.66 769.37 160.73 769.37 162.99 770.78 163.49 771.09 160.56 770.75 158.48 770.92 157.1 771.09 156.58 772.47 155.2 774.03 153.65 774.89 151.06 776.44 149.16 777.48 148.3 779.2 149.33 780.24 150.89 780.07 152.27 779.72 155.72 778.69 158.31 778.69 161.25 777.82 164.7 778.69 162.63 779.89 161.54 779.98 160.56 780.07 156.41 781.45 151.75 782.14 146.92 783 145.02 782.48 143.98 780.24 144.15 779.38 145.36 778 145.71 776.96 146.74 775.41 149.68 773.34 150.54 772.13 152.1 770.57 151.75 769.54 149.33 767.29 146.57 765.91 144.15 766.43 140.18 767.64 137.08 768.68 134.66 769.19 134.49 768.88 133.62 767.29 132.24 766.6 130.52 766.43 127.58 767.64 125.82 768.36 123.78 769.19 121.88 769.19 120.16 769.02 120.18 769.01 122.75 767.81 125.2 767.32 125.77 767.21 125.84 767.16 127.1 766.26 127.28 766.13 129.22 764.19 129.87 764.19 131.6 763.97 132.03 762.25 136.13 759.44 136.77 758.15 136.34 754.26 135.26 752.54 131.16 752.32 128.57 752.11 129.44 750.38 131.38 750.38 132.46 749.95 132.46 746.71 134.19 748.01 136.77 749.52 138.72 749.3 143.25 748.44 144.33 744.99 142.82 743.26 140.23 741.97 138.29 740.24 137.21 738.3 134.62 736.79 137.21 735.71 138.93 733.12 140.01 730.96 138.72 728.81 135.26 727.51 130.3 726 127.5 725.35 129.65 724.06 129.65 721.9 129.64 721.89 128.57 720.39 129.01 716.72 130.52 713.92 134.62 710.25 137.42 708.31 136.77 706.59 134.4 705.51 132.67 704.86 128.57 703.35 126.43 699.42 124.26 696.66 122.1 695.15 119.73 691.7 119.3 688.46 119.13 685.5 117.62 683.12 114.82 681.18 112.23 678.38 111.15 676.65 111.58 674.71 115.25 674.93 116.76 675.14 119.56 676 124.53 675.57 127.55 673.85 129.06 670.83 128.63 666.73 128.2 663.28 127.55 657.23 126.9 654.21 126.47 652.7 123.66 650.76 121.29 648.82 121.29 647.31 120.21 644.51 119.13 641.49 118.92 639.54 118.7 637.6 118.7 634.37 117.19 631.78 116.54 628.11 116.11 623.36 116.76 619.7 118.7 617.54 120.43 615.6 121.72 613.44 119.78 611.5 118.05 611.07 114.39 610.2 113.09 609.56 112.66 606.97 113.09 604.16 112.66 602.22 113.74 600.49 113.09 599.2 111.36 598.55 109.85 597.91 107.48 595.53 104.24 595.32 101.44 595.32 94.96 596.61 92.16 597.47 91.51 598.12 91.08 599.85 91.08 603.08 90.86 605.46 92.37 608.26 94.32 609.56 95.61 612.58 95.61 614.3 94.32 616.03 93.89 617.32 93.89 620.13 95.4 620.99 96.26 624.01 95.83 625.09 96.91 627.68 96.91 630.48 96.04 632.21 95.83 635.44 95.4 639.11 94.96 641.92 93.02 643.43 90.86 644.94 89.35 646.23 89.35 647.74 88.92 651.41 88.06 652.27 86.33 653.14 83.1 654.43 81.8 655.72 81.8 656.31 81.8 656.59 81.78 656.76 81.58 658.31 80.51 659.61 78.13 661.33 78 661.37 77.05 661.66 75.97 661.98 72.95 662.63 74.25 661.76 76.19 660.69 79.86 657.88 80.07 656.37 79.64 654.86 80.94 653.57 83.53 652.06 85.68 650.33 86.12 647.96 85.48 645.62 85.47 645.58 85.04 644.29 88.06 643.21 88.49 642.13 88.49 640.84 88.27 639.11 89.57 636.95 90 635.44 89.78 632.64 89.57 631.56 89.57 630.62 89.57 628.97 88.49 628.33 88.06 627.25 90.65 626.6 92.37 626.38 91.51 623.79 89.35 621.42 88.49 619.7 88.92 617.11 90.65 614.95 91.08 613.01 89.57 611.71 87.84 610.63 84.82 610.2 81.8 609.56 76.84 608.91 73.38 608.91 72.21 608.2 71.23 607.61 73.38 607.61 76.84 607.18 81.58 607.18 83.31 605.89 83.53 603.3 83.53 601.57 82.23 599.2 81.58 598.12 83.74 595.53 84.82 592.51 85.47 591 86.55 591 88.92 590.79 90.22 590.35 91.3 589.92 94.32 590.35 97.34 589.49 97.55 587.33 97.34 584.75 96.26 583.24 92.16 581.73 89.57 580.21 86.33 580 83.74 579.14 82.23 578.06 80.51 577.19 79.21 576.33 78.35 576.33 77.27 575.9 76.31 574.55 76.19 574.39 76.84 573.1 77.88 574.97 77.92 575.04 78.12 575.04 78.78 575.04 81.37 575.47 88.71 575.25 93.24 573.53 93.67 570.72 94.32 567.05 92.81 564.03 92.59 561.01 92.37 559.07 92.81 555.84 91.2 555.18 89.39 553.62 87.84 551.88 87.19 549.29 86.67 547.99 85.51 547.15 83.82 546.44 83.53 545.05 83.53 542.68 83.39 540.42 83.39 537.83 82.18 536.62 80.76 534.18 79.65 533.59 79.3 532.04 79.3 528.07 79.13 526.86 78.09 525.65 76.71 525.31 75.51 524.96 74.71 524.21 74.37 523.7 73.51 522.83 72.64 521.97 71.43 521.62 69.88 520.42 69.36 519.9 68.33 518.86 67.29 517.83 66.08 517.14 65.05 516.45 64.01 515.24 62.46 514.03 61.94 513.86 57.97 512.82 55.03 510.58 54.34 509.37 53.31 508.51 51.06 506.78 48.82 505.75 46.57 505.06 43.98 505.23 41.74 505.57 40.7 504.88 41.74 503.16 42.43 501.95 43.12 500.05 42.43 496.94 42.43 496.08 42.6 494.53 44.16 492.46 46.23 490.21 45.37 486.89 43.42 484.56 42.13 483.78 41.22 482.88 40.7 481.58 40.19 480.55 39.41 477.83 39.28 475.24 39.28 472.26 39.28 470.19 39.15 465.66 37.47 463.46 36.17 462.42 34.75 462.17 31.64 462.42 30.86 462.42 29.7 462.55 28.53 464.11 26.07 466.05 26.07 468.64 26.07 469.8 27.24 471.62 28.4 472.91 29.96 475.63 30.86 477.57 31.12 479.12 30.99 481.58 31.12 483.01 30.86 484.3 30.48 485.08 30.09 487.67 29.96 488.7 30.73 490 31.64 491.81 32.81 492.71 33.84 495.82 33.06 498.54 32.03 501 31.25 501.65 31.12 504.11 29.83 504.11 28.4 504.62 26.2 505.01 25.17 505.27 24.39 503.85 24 502.94 23.61 501.91 23.61 500.87 25.04 500.35 25.17 500.09 25.17 498.8 24.13 497.63 23.1 497.63 22.45 498.54 21.8 499.06 19.73 499.19 18.3 499.83 16.36 501.13 14.94 503.46 14.29 501.78 13.13 499.58 13 498.02 13 496.34 11.78 495.9 10.27 495.79 12.47 494.29 Z M 400.23 197.95 399.97 199.59 400.58 203.39 401.7 205.63 402.39 206.15 402.82 206.41 405.41 206.66 407.39 207.27 408.43 207.75 409.73 207.1 411.8 204.33 412.57 202.61 413.52 198.81 414.3 195.19 414.39 192.94 413.26 191.82 410.33 190.87 407.14 191.56 403.51 193.2 401.35 195.1 400.23 197.95 Z M 391.16 218.17 391.89 217.82 392.8 216.61 393.36 214.63 393.24 212.96 392.29 212.53 390.91 212.45 389.43 213.25 388.05 214.63 387.15 216.01 386.54 217.13 386.44 217.44 386.67 218.17 387.45 218.64 388.87 218.81 390.47 218.81 391.16 218.17 Z M 208.19 331.01 210.13 332.09 212.5 331.87 216.07 333.01 218.33 331.66 221.35 331.44 222.64 329.5 223.29 327.13 226.53 325.62 231.06 323.46 234.08 321.52 236.67 320.65 239.91 319.58 245.3 316.12 245.95 313.75 246.81 311.16 245.3 306.85 241.85 302.53 237.53 300.16 233.87 297.36 230.84 294.77 227.18 291.75 225.88 288.73 222.86 290.24 221.13 293.04 218.76 294.98 217.47 297.36 217.68 300.81 217.03 303.4 215.09 304.91 212.5 304.91 210.34 307.06 209.05 307.71 206.46 308.57 204.95 310.52 205.81 312.24 206.46 315.05 205.38 318.07 205.81 320.22 206.24 324.75 206.89 326.7 207.54 329.28 208.19 331.01 Z M 87.9 518.14 88.59 519.73 88.29 519.56 89.07 520.85 90.1 522.28 91.53 522.8 93.34 522.28 96.09 521.62 96.32 520.85 97.1 519.56 98 518.22 97.1 515.93 97.1 513.82 94.77 512.31 92.05 512.83 88.94 513.61 86.74 514.38 86.09 515.81 86.87 517.36 87.9 518.14 Z M 96.71 526.81 95.8 527.2 94.77 527.2 93.34 526.81 92.31 526.94 91.27 528.49 91.18 529.01 91.37 529.77 91.79 529.74 95.28 530.26 96.83 530.16 97.33 529.6 97.82 528.04 98.48 526.15 97.74 526.29 96.71 526.81 Z M 103.12 538.8 105.19 539.9 108.43 539.77 109.98 539.19 110.63 536.86 110.17 535.57 108.43 534.86 104.35 534.6 103.76 534.34 102.27 534.92 99.36 536.41 99.3 537.31 100.01 538.54 101.82 538.67 103.12 538.8 Z" fill-rule="evenodd"/>
</g>
</svg>