<?xml version="1.0"?>
<svg xmlns="http://www.w3.org/2000/svg" version="1.2" baseProfile="tiny" width="800" height="1011" viewBox="0 0 800 1011" stroke-linecap="round" stroke-linejoin="round">
<g id="murshareservoir">
<path d="M 748.65 307.21 746.85 311.16 746.62 311.8 745.72 313.82 744.82 314.92 743.91 316.39 743.12 317.86 741.88 320.8 732.97 335.77 730.37 342.29 729.44 344.03 728.76 346.05 728.42 348.16 727.29 350.73 726.17 353.58 724.7 356.15 724.7 357.07 723.12 360.74 721.99 364.05 720.18 366.8 718.83 369.56 717.59 373.78 716.01 376.35 715.33 379.47 714.66 382.04 713.3 385.72 711.72 388.84 710.93 390.77 709.35 393.89 706.87 398.66 706.87 400.04 704.61 402.88 701.79 407.66 700.66 409.86 699.08 413.17 697.5 416.75 695.7 419.5 694.12 422.26 692.2 424.74 692.65 424.74 691.07 426.66 688.82 429.23 688.14 431.62 687.46 434.28 686.78 437.5 685.65 440.62 682.84 444.29 679.45 447.41 678.77 448.97 677.19 450.9 675.62 452.46 673.58 454.66 671.89 456.23 670.09 457.97 668.06 459.99 666.7 461.64 665.12 462.93 663.77 464.76 662.41 466.97 661.06 468.62 658.58 471.38 656.21 473.76 653.5 477.16 650.8 480.74 649.22 483.4 647.41 485.97 645.83 487.72 643.46 490.84 640.98 494.6 639.18 497.72 637.6 500.48 636.47 501.95 634.66 504.24 632.07 506.17 630.72 507.73 628.69 510.03 627.33 512.05 625.98 513.98 624.63 516.18 623.5 518.29 622.37 520.77 620.9 523.34 619.1 525.91 617.07 528.67 615.04 530.96 613.23 532.89 611.88 535.83 609.06 539.32 605.45 543.82 602.97 547.31 599.81 551.16 597.22 555.2 593.15 559.88 591.12 561.99 589.09 564.57 586.38 568.05 584.47 571.18 581.76 574.02 579.5 576.59 577.7 578.98 575.44 581.37 572.06 585.96 569.8 588.62 567.89 591.38 565.63 594.5 564.5 596.33 563.15 598.35 561.79 600.74 560.22 603.13 559.09 604.41 557.17 606.98 555.82 609.19 554.24 611.57 552.89 613.04 551.08 614.97 549.95 616.72 547.92 618.92 545.44 621.21 543.07 624.15 537.66 627.83 532.92 630.76 531.12 632.23 528.86 633.52 527.28 634.99 524.57 637.19 522.21 639.3 519.73 641.51 518.15 643.53 515.89 646.1 513.41 648.12 510.02 650.51 507.77 652.43 505.97 654.64 503.37 657.48 501.34 659.96 500.22 662.53 499.54 664.55 498.41 667.12 496.83 669.33 494.35 671.9 491.98 674.47 489.73 676.49 487.02 679.79 484.54 682.46 482.28 684.66 479.35 687.42 476.53 689.44 473.6 692.37 471.12 694.76 469.31 696.96 467.29 699.26 465.48 700.82 463.11 703.21 460.4 705.41 457.25 708.26 454.54 710.28 450.71 713.22 448.45 715.97 446.2 719.46 443.15 722.95 440.44 726.99 438.19 729.65 436.61 732.41 435.03 734.61 432.78 738.1 430.63 740.49 429.06 741.96 426.35 744.53 423.19 747.92 420.03 751.23 417.1 754.08 415.41 755.55 414.06 757.11 412.93 759.49 412.48 761.7 411.35 764.09 410.22 765.92 408.65 767.76 407.07 769.59 405.49 771.25 404.02 773.08 402.22 774.83 399.96 777.12 397.71 779.23 396.35 781.81 395.68 782.63 394.77 784.65 394.21 786.58 393.09 788.78 392.18 790.44 391.28 792.46 389.93 794.66 388.35 797.23 386.77 799.25 384.74 801.82 381.24 804.3 378.54 805.86 376.73 806.78 375.38 807.43 373.58 808.62 372 810 370.42 811.47 369.97 812.57 369.52 813.67 369.07 814.4 368.61 815.5 367.26 818.63 366.02 821.38 364.89 823.4 363.99 824.69 363.54 825.97 362.19 828.18 360.84 830.2 358.58 832.77 356.89 835.8 354.64 838.64 352.83 841.03 351.93 842.96 350.35 844.98 348.55 847 346.97 849.02 345.62 851.23 344.26 853.24 342.8 855.27 340.77 857.65 339.64 860.04 338.06 862.15 337.61 862.52 336.03 864.63 334.68 866.38 332.65 868.03 330.85 869.68 329.16 871.52 326.23 874.09 325.55 874.64 324.2 876.11 323.52 877.03 322.62 878.4 322.17 879.42 321.94 880.89 321.49 882.72 321.04 883.82 320.59 884.92 319.69 886.49 318.22 887.96 316.42 889.42 314.61 890.16 312.13 891.44 310.55 893.19 310.1 895.48 309.43 897.69 307.85 899.34 307.17 900.08 305.82 901.18 304.46 902.46 303 904.12 301.42 905.77 300.52 907.79 299.62 909.72 299.17 910.73 297.59 912.47 294.88 914.03 293.76 914.68 292.18 915.32 290.6 915.96 289.47 916.33 287.67 917.25 285.86 918.17 285.3 919.64 285.3 920.74 286.2 921.65 287.1 922.02 287.78 923.13 287.1 924.04 284.85 924.59 283.27 924.78 281.69 925.33 279.66 926.43 278.08 927.9 276.96 929 276.28 929.92 274.25 932.12 272.67 934.79 271.21 937.63 270.53 938.92 269.63 941.67 268.73 944.7 268.28 945.99 267.37 947.27 265.57 949.11 263.99 950.4 263.09 951.68 262.41 952.23 260.95 955.17 259.37 957.1 257.12 958.57 256.21 959.03 255.54 961.05 255.54 962.7 255.54 964.35 254.86 965.64 253.96 966.65 253.06 967.48 251.82 969.22 250.92 970.51 250.01 971.61 248.89 973.08 247.76 974.36 246.63 974.73 245.28 974.91 243.48 975.47 241.22 977.49 241.22 978.77 241.22 980.79 241 982.44 240.32 984.28 239.87 986.49 239.08 987.86 238.41 989.24 237.96 990.34 237.05 991.99 236.38 993.46 235.47 995.02 234.35 996.68 232.77 997.78 231.42 998.05 229.16 999.06 226.23 999.98 221.27 1001.45 219.24 1002.19 217.66 1002.37 215.52 1002.37 212.59 1002.1 210.78 1002.28 208.87 1002.65 207.52 1002.83 205.82 1003.57 204.24 1004.49 203.12 1005.59 201.76 1006.14 200.86 1005.96 199.96 1005.59 199.28 1005.22 198.38 1004.58 197.48 1003.75 195.34 1003.39 192.74 1003.57 189.58 1004.58 187.78 1006.05 184.85 1007.34 181.92 1008.44 179.44 1008.8 174.25 1009.54 167.49 1010 162.53 1009.91 158.92 1009.27 156.21 1008.53 153.96 1008.35 150.35 1008.53 138.17 1007.89 134.79 1006.61 131.86 1005.14 129.49 1003.86 126.33 1002.75 122.83 1003.03 120.47 1003.03 117.31 1002.85 114.15 1002.48 110.77 1001.65 107.84 1000.55 104.23 999.27 100.85 997.8 97.91 996.33 94.98 995.05 94.76 994.87 92.73 993.95 91.38 993.12 89.34 992.29 86.41 991.56 84.61 991.1 83.26 990.28 81.23 989.45 78.75 988.16 76.38 986.15 74.34 983.94 72.54 981.93 70.06 979.72 68.71 978.62 67.35 977.52 65.77 975.96 64.42 974.76 62.39 973.94 60.59 973.02 58.56 971.92 55.96 970.64 53.48 969.17 51.23 968.06 49.19 966.96 46.49 965.49 44.23 963.66 42.65 962.47 40.62 960.63 39.49 959.16 38.14 957.42 36.45 955.86 34.87 953.65 33.29 951.82 31.71 949.43 30.13 947.78 29.9 946.49 29 944.66 28.33 942.82 28.21 940.62 28.44 938.6 28.89 937.31 29.56 934.74 29.79 932.72 29.34 930.15 29.11 927.95 28.88 925.56 29.11 923.9 28.09 920.42 27.19 918.03 26.06 915.27 24.93 913.07 22.68 910.69 22.23 910.32 20.65 908.85 19.07 906.92 17.6 905.09 16.7 903.34 15.57 901.78 14.44 899.39 13.76 897.01 12.86 894.07 12.52 892.05 13.08 889.57 12.29 887.27 11.62 884.43 11.16 881.76 10.26 879.38 7.78 875.34 7.21 874.24 6.53 872.22 6.08 871.12 5.63 869.65 5.4 867.99 5.18 865.97 5.18 863.95 4.95 862.49 4.28 860.83 3.26 858.08 2.36 856.33 1.9 854.59 1.45 853.3 1 850.27 1.23 847.61 2.13 843.02 2.69 839.71 2.91 838.43 3.37 837.14 4.04 834.94 4.94 832.92 5.84 831.63 6.74 829.8 8.55 826.49 9.56 824.65 11.14 823 12.27 821.53 13.62 820.43 16.55 819.05 16.78 819.05 18.81 818.87 20.84 818.59 22.19 818.32 23.54 818.68 25.8 817.76 26.93 815.74 26.7 813.54 26.25 811.52 26.92 809.68 28.61 808.03 29.97 807.66 32.22 807.57 34.14 807.48 36.73 807.11 38.31 806.47 39.89 805.91 41.47 806.1 43.27 806.56 44.63 806.47 47.56 806.1 51.39 803.34 52.29 802.24 53.42 800.77 54.55 799.21 56.35 797.46 57.48 796 59.28 793.88 60.86 792.41 63.23 791.68 65.6 791.68 67.63 791.86 69.77 791.31 71.12 791.31 73.15 789.66 74.73 788.09 76.98 786.26 79.24 784.79 81.72 783.32 83.52 783.04 84.88 782.95 87.58 782.4 91.42 781.48 95.03 780.38 96.15 779.83 98.64 779.46 100.89 778.45 102.92 776.89 104.38 775.14 105.96 773.31 108.22 771.83 110.92 770.73 112.95 770.18 115.43 769.45 118.37 768.71 121.3 768.53 125.13 768.16 128.74 767.52 129.87 766.78 132.12 765.31 134.38 763.84 137.31 761.82 139.79 759.25 142.84 756.95 144.86 755.39 147.12 754.02 150.5 752.18 153.66 750.71 155.91 749.97 158.62 749.42 162.23 748.14 163.13 747.77 164.94 746.76 166.97 745.47 167.87 744.19 168.54 743.09 169.33 741.71 170.12 740.15 171.36 738.86 173.39 737.02 174.97 735 176.1 733.9 177.9 732.62 180.38 731.51 183.99 730.05 186.92 728.85 188.28 727.75 188.95 726.65 189.86 725.36 190.19 724.44 191.09 722.88 191.77 721.69 192.9 719.85 193.8 718.38 194.93 716.91 197.86 713.79 199.21 712.14 200.11 711.22 201.69 709.75 203.27 708.1 204.51 706.54 205.87 705.07 207.22 703.41 209.47 701.76 211.5 699.74 213.08 698.27 214.89 697.08 217.37 696.07 219.17 694.6 220.75 692.94 222.66 691.29 223.34 690.92 225.15 689.82 226.72 688.35 228.08 687.44 230.11 686.43 231.24 685.32 233.26 683.49 235.52 681.01 238.23 679.63 240.48 678.53 242.96 676.14 245.22 674.49 245.67 674.03 246.68 672.37 247.59 671.27 248.71 669.89 249.61 668.15 250.52 666.5 251.64 664.66 252.32 662.82 253.22 661.72 254.12 659.89 254.91 657.87 256.04 656.4 257.39 654.38 258.52 652.54 259.65 650.7 261 648.32 262.81 646.2 264.38 645.56 265.96 643.36 267.31 641.61 269.01 639.78 271.71 637.48 272.39 636.84 273.74 635.37 274.65 633.72 275.55 632.06 276.45 630.59 277.13 629.67 278.03 628.57 279.15 627.84 280.28 626.37 281.64 624.53 282.65 623.25 284 621.59 285.13 620.49 286.71 619.21 288.74 617.19 290.55 615.35 292.57 613.42 294.6 611.86 295.96 609.56 298.55 606.26 301.93 603.69 303.97 602.4 305.09 600.57 306.67 598.73 307.8 596.89 308.7 595.42 309.83 593.96 311.18 591.84 311.97 590.83 313.1 588.72 314 587.44 315.13 585.6 316.71 583.49 318.06 582.11 320.32 580.09 322.57 578.8 323.25 578.25 324.83 577.15 326.18 576.23 327.87 574.76 329.22 573.29 330.8 571.64 331.93 569.9 333.06 568.15 333.51 566.59 333.51 564.85 333.74 563.29 334.19 561.91 334.64 560.44 335.2 558.79 335.88 557.78 337.01 556.86 338.81 555.21 339.49 554.2 340.16 553.18 340.84 551.81 341.29 551.17 341.97 549.88 342.42 548.41 343.09 546.94 343.32 545.1 343.77 543.45 345.24 541.98 346.59 540.7 347.94 539.78 349.97 538.67 352.23 537.3 354.26 535.83 356.74 533.9 359.22 531.79 361.93 529.77 363.51 527.01 364.18 525.73 363.73 524.81 364.07 522.79 363.85 521.14 363.84 519.85 363.85 518.75 364.3 517.83 365.42 515.81 367 513.42 368.36 511.59 369.15 509.94 370.16 508.65 370.95 507.27 371.85 506.08 372.75 504.43 373.66 502.5 375.24 501.3 377.04 499.93 378.62 498.37 379.75 497.17 381.1 495.52 382.23 493.68 383.02 491.48 383.92 489.83 385.05 488.18 386.17 486.71 387.08 485.42 388.2 483.58 389.56 481.56 391.14 478.81 392.49 476.97 393.96 474.95 395.54 472.66 396.66 471.19 398.47 468.06 399.82 466.41 400.05 466.05 400.5 465.31 401.4 464.39 402.08 463.66 402.75 462.56 403.88 461.27 404.67 459.99 405.69 458.7 406.7 457.23 407.83 456.13 408.51 455.03 409.63 453.37 410.76 452.09 411.67 450.62 413.02 448.97 414.15 446.86 414.82 445.57 415.27 443.82 415.16 440.98 415.16 438.96 415.84 436.48 416.06 433.54 416.06 430.14 416.51 427.39 416.4 425.19 416.85 423.07 417.08 420.78 417.75 418.57 418.21 416.1 418.88 414.08 419.56 412.06 420.35 410.13 421.25 408.47 422.38 406.92 423.06 404.62 423.73 402.41 424.63 400.58 425.31 398.56 425.76 396.72 426.89 394.7 427.91 392.87 428.58 391.58 429.71 389.93 431.06 388.28 432.19 386.62 433.77 384.79 434.67 382.4 435.13 381.66 435.8 380.75 436.48 379 437.38 377.26 437.49 375.97 437.94 374.04 438.17 372.67 438.4 371.47 438.39 370.37 438.4 369.45 438.4 368.35 438.17 367.06 437.94 365.78 437.49 361.28 437.61 359.26 437.83 358.07 438.06 356.41 438.28 355.04 438.73 353.66 439.41 352.28 439.63 351.27 439.97 350.35 439.97 348.79 439.97 347.51 439.97 346.13 440.31 344.94 441.66 343.38 443.13 342.28 445.98 334.39 450.72 322.64 452.63 316.94 454.32 311.8 453.76 305.74 453.2 303.54 455.23 297.11 457.03 291.88 459.97 285.91 463.46 278.93 464.81 272.05 464.59 262.13 462.44 259.65 460.3 256.99 459.62 253.96 462.67 251.66 466.39 250.74 470.68 249 474.17 246.52 476.77 241.28 480.04 237.15 483.43 233.11 485.57 229.72 487.15 226.41 488.28 223.93 489.07 221.82 490.19 219.62 490.98 217.41 492 215.49 492.34 213.92 493.24 211.35 493.69 209.42 494.14 207.77 494.82 206.03 496.39 204.28 497.41 201.89 498.09 200.52 498.76 198.5 499.22 196.48 499.21 194.18 499.67 191.98 500.12 190.33 500.23 188.86 500.68 187.94 500.91 184.54 501.47 177.47 501.7 171.32 504.52 168.2 507.22 165.53 511.4 164.53 514.56 163.15 518.96 161.04 523.13 159.29 523.92 157.82 525.27 157.09 527.08 155.99 527.98 155.16 529.79 153.41 530.92 152.59 532.95 151.03 534.41 150.29 536.45 149.28 538.25 148.46 539.83 147.17 541.41 145.61 543.89 143.96 545.47 142.85 548.4 140.28 552.01 137.81 554.38 135.88 556.19 134.04 557.77 132.39 561.38 130.28 563.64 128.81 565.44 127.52 567.25 126.6 571.08 124.49 573.9 122.75 576.16 121.28 578.42 119.9 581.35 117.7 583.16 116.23 584.73 114.02 586.54 111.73 587.22 110.17 587.78 107.32 587.55 105.58 587.56 103.92 589.59 102.55 591.39 102.55 593.87 102.18 595 101.81 599.51 99.61 602.11 97.31 604.82 94.01 606.85 91.44 609.56 88.5 611.36 86.85 613.39 84.46 615.76 82.26 619.15 80.51 621.4 78.22 622.53 75.92 623.66 72.98 624.34 71.7 625.01 70.41 625.81 68.21 626.03 66.37 626.71 64.72 628.51 63.25 629.87 61.87 631.9 60.04 633.14 58.29 634.04 56.55 634.94 54.34 635.85 52.23 637.09 48.1 638.44 44.43 641.04 40.85 645.21 38.09 649.84 35.25 652.89 32.4 655.93 28.64 658.08 24.23 659.66 19.82 661.8 15.6 666.88 9.91 671.85 6.88 676.36 4.58 681.32 2.74 682.23 2.1 691.25 1 697.35 1.46 711.11 5.78 712.58 7.15 717.99 8.62 724.31 11.84 734.69 15.79 736.16 16.25 743.95 19.09 751.17 21.11 759.18 24.05 762.45 26.53 768.43 29.01 770.12 30.48 772.04 31.49 774.3 33.24 775.87 35.07 777 37.18 777.91 39.2 778.58 41.41 779.82 43.24 780.73 44.35 782.53 46 784.11 48.39 785.69 50.22 786.82 52.52 787.94 54.26 789.41 56.1 790.99 58.58 791.78 59.5 793.7 62.53 794.26 65.47 794.94 69.6 797.42 75.84 799 77.95 749.55 305.56 748.65 307.21 Z"/>
</g>
</svg>