<?xml version="1.0"?>
<svg xmlns="http://www.w3.org/2000/svg" version="1.2" baseProfile="tiny" width="800" height="329" viewBox="0 0 800 329" stroke-linecap="round" stroke-linejoin="round">
<g id="lakemathews">
<path d="M 147.04 274.97 145.64 275.01 145.15 274.03 145.94 273.08 146.29 272.67 146.38 272.56 146.9 272.54 147.78 272.51 147.04 271.04 145.81 271.04 144.09 270.8 143.35 270.06 143.35 269.08 144.58 268.34 145.07 266.87 146.06 265.64 147.04 264.41 148.51 262.94 149.99 261.96 150.23 260.98 150.23 259.75 149.03 259.02 149.03 257.06 148.04 255.34 146.32 253.62 146.06 251.89 145.81 250.66 145.81 249.44 145.81 248.95 146.06 247.72 147.53 247.47 148.51 248.95 149.5 249.93 150.48 250.66 151.71 251.65 152.45 252.63 153.43 253.86 154.17 254.59 155.89 254.59 157.11 253.61 158.83 252.63 159.82 252.87 159.82 254.1 160.55 254.84 161.05 255.57 161.54 256.56 162.52 256.8 163.5 257.05 166.53 256.11 167.93 253.61 168.66 252.14 169.97 249.97 171.19 248.5 172.18 247.27 173.16 245.55 173.3 245.05 173.65 243.83 173.77 243.55 174.39 242.11 174.41 241.96 174.63 240.64 174.88 238.92 175.3 238 175.79 236.92 177.02 236.18 178.49 235.2 179.72 234.95 180.7 234.95 182.18 234.21 182.92 232.99 183.41 231.76 182.92 231.51 181.44 230.78 180.46 230.78 178.98 230.78 177.02 230.53 175.79 230.29 174.81 229.8 174.56 228.57 174.32 227.09 173.82 225.87 172.35 225.13 172.59 223.9 172.84 222.68 172.84 221.94 172.1 220.71 171.86 219.73 170.87 218.99 169.89 218.01 168.17 217.77 166.62 217.93 165.73 218.02 164.75 217.78 164.26 216.55 163.77 215.32 162.79 214.34 162.05 213.11 160.82 212.13 159.35 211.15 157.87 210.66 156.42 210.24 156.15 210.16 155.73 210.16 154.43 210.16 153.94 209.18 153.45 207.95 152.96 206.97 151.73 206.73 150.99 205.75 150.25 204.52 150.5 203.54 150.89 202.93 151.46 202.05 151.22 200.09 150.48 198.86 149.25 196.41 148.27 195.42 146.79 194.69 145.32 194.44 143.35 194.44 142.37 194.93 141.63 195.42 140.9 196.65 140.4 198.37 140.4 200.58 139.91 202.3 139.44 203.54 138.46 204.76 136 205.25 135.77 205.12 134.26 204.26 133.28 203.28 131.8 203.03 131.07 203.77 131.07 204.75 130.82 206.72 130.33 207.7 131.31 208.93 132.3 210.4 132.54 212.61 133.03 214.08 133.77 214.57 134.02 215.8 134.26 217.77 135.74 218.75 135.98 220.47 135.98 222.43 135.98 223.17 136.47 224.39 137.46 225.38 137.7 225.87 139.42 226.36 138.19 227.34 137.21 228.32 136.47 229.3 135.98 230.29 134.51 231.02 133.52 231.76 133.03 232.5 132.05 233.72 131.31 235.2 131.07 232.99 130.82 231.76 130.82 230.78 131.56 230.04 132.3 229.3 132.54 228.81 132.3 227.34 131.31 226.11 130.58 225.13 130.58 223.9 128.36 222.68 127.14 222.18 125.42 222.18 124.19 222.18 121.73 221.94 120.5 220.96 119.27 220.22 116.57 219.73 115.59 219.48 114.85 218.5 113.13 217.52 110.92 217.77 109.69 217.03 107.97 216.29 107.23 216.54 106.25 217.27 106 218.75 104.77 220.71 103.05 222.43 101.33 224.39 99.86 223.9 97.89 223.9 96.91 223.9 96.2 224.5 95.44 225.13 94.21 226.6 93.23 228.08 92.24 230.04 92.4 231.13 92.41 231.18 92.49 231.76 93 232.07 93.25 232.22 93.72 232.5 95.44 232.5 98.14 231.27 100.11 230.53 101.83 230.53 101.09 232.25 100.52 233.57 100.35 233.97 98.88 235.44 98.06 236.86 97.89 237.16 97.65 238.88 95.93 240.6 95.44 243.05 94.95 244.53 94.45 246.74 93.96 248.45 94.21 250.91 94.52 253.2 93.81 257.57 91.76 259.5 90.98 262.57 86.56 265.17 84.91 269.18 79.24 273.67 66.1 273.86 51.38 272.07 42.04 268.88 39.83 267.16 36.63 263.48 32.03 263.39 23.53 254.07 21.01 250.49 19.2 244.43 18.88 241.04 19.2 237.14 21.64 225.93 21.32 221.48 18.67 214.39 14.02 202.84 11.57 197.93 11.08 194.49 12.66 189.72 17.07 181.06 18.25 177.56 19.04 176.45 22.19 175.03 24.47 174.34 26.19 173.61 27.91 172.87 27.91 170.91 28.64 168.45 29.14 166.24 27.42 166 25.83 165.32 25.7 165.26 23.98 164.52 24.47 163.54 27.66 163.79 29.14 163.79 30.86 162.31 31.1 160.6 29.38 160.84 26.68 161.09 25.7 162.31 24.96 162.31 23.98 162.31 22.5 162.56 20.78 162.56 20.54 160.43 19.04 156.61 16.2 152.52 13.3 150.03 10.35 148.55 7.89 147.57 10.35 146.83 12.56 146.83 15.51 146.83 17.48 146.83 17.48 144.87 17.72 143.4 20.18 143.15 20.92 141.43 21.16 139.47 22.62 137.89 22.51 137.67 22.13 136.9 20.88 136.28 20.66 136.17 19.18 136.17 18.59 136.17 17.22 136.17 15.5 135.68 14.02 134.94 13.53 134.2 13.78 133.71 14.27 133.09 14.76 132.48 14.28 131.68 14.02 131.26 13.54 130.14 11.91 128.98 7.65 128.18 5.42 127.57 3.21 126.59 1 125.61 1.56 125.5 1.96 125.42 3.46 125.12 6.17 124.98 7.4 124.49 8.88 123.26 10.84 123.02 12.56 123.02 14.53 123.76 15.76 124 16.74 124.74 17.23 125.97 18.7 126.46 19.93 125.47 20.67 124 22.64 123.02 24.85 123.02 26.32 122.28 27.06 120.81 26.57 119.34 25.83 118.11 24.36 117.62 22.88 117.86 20.67 117.62 19.93 116.64 20.92 115.41 21.16 113.94 22.39 112.22 23.37 111.23 24.11 109.76 24.11 108.29 24.11 107.31 22.64 105.83 21.65 104.11 20.67 103.13 19.69 101.66 17.77 101.9 19.51 99.12 20.39 99.56 20.97 99.85 20.93 100.25 24 102.62 27.39 107.57 28.62 111.85 30.77 114 33.23 116.15 32.62 117.68 35.38 118.6 36.92 119.22 38.15 119.53 39.68 122.29 43.98 123.51 43.52 122.28 43.73 121.76 44.01 121.06 44.05 120.89 44.26 119.83 45.49 118.35 46.47 117.13 48.19 117.86 49.67 118.11 50.89 118.11 52.12 118.11 54.43 116.46 56.27 110.63 56.55 109.76 57.53 108.53 59 108.53 59.21 108.57 59.62 108.65 61.71 109.03 63.43 108.78 64.66 108.78 66.13 108.78 67.6 108.04 68.59 106.82 70.06 106.82 71.13 107.18 73.08 106.72 74.08 105.72 72.52 103.87 72.03 102.64 70.8 101.91 71.01 100.8 67.63 98.66 64.87 98.04 63.03 96.2 61.49 94.67 57.8 96.82 54.43 97.12 53.5 99.58 53.35 100.68 52.12 101.41 50.4 101.41 48.44 103.38 47.7 103.62 46.23 104.36 45.49 105.59 43.77 106.57 42.29 107.31 40.82 107.31 39.35 108.29 37.63 109.03 36.4 109.03 34.63 108.48 33.68 108.18 32.7 106.95 31.96 105.48 31.72 103.51 32.02 102.29 32.21 101.55 32.7 100.08 32.72 99.85 32.96 97.49 32.96 95.28 33.45 93.07 34.43 92.33 36.15 90.61 37.87 89.14 40.33 88.89 42.79 86.93 44.75 85.21 45.24 83.98 45.73 81.53 46.23 79.07 45.73 78.09 44.75 76.13 43.52 74.9 42.54 73.92 39.84 72.93 38.12 72.2 37.13 70.97 36.89 69.74 37.87 68.27 39.59 68.02 39.59 67.04 39.1 66.55 37.87 65.32 36.4 64.59 35.1 63.1 38.83 57.18 40.49 56.59 40.57 56.73 41.8 56.98 42.79 58.94 44.75 59.92 46.47 59.92 46.72 58.94 47.45 57.22 47.01 57.27 50.32 54.16 51.89 49.83 53.55 48.22 58.33 46.98 60.09 46.52 60.46 46.71 58.84 49.47 58.01 49.5 56.53 50.73 55.55 51.71 54.32 52.69 53.09 54.17 52.85 55.88 51.62 57.11 51.31 57.74 51.13 58.09 51.13 59.57 52.36 61.53 53.34 62.51 54.08 63.25 55.28 64.55 57.41 66.76 58.43 67.19 63.95 67.31 65.52 69 67.73 69.71 72.27 70.97 73.5 71.71 74.98 71.71 76.2 70.97 79.6 67.88 86.17 64.28 86.41 63.14 84.56 59.68 84.31 57.22 84.56 55.5 86.03 53.29 87.02 54.28 88.74 52.56 88 51.33 88 49.37 88.49 47.89 89.23 46.42 90.95 46.17 108.64 41.75 135.92 34.88 200.79 16.71 257.3 1.74 261.48 1.49 267.38 1 270.82 1.49 273.77 1.74 276.23 2.47 278.68 3.7 299.08 12.29 301.54 13.52 305.71 15.73 324.14 32.67 324.88 36.84 324.88 39.3 325.62 41.02 326.6 42.25 327.39 42.81 328.32 43.47 330.29 45.19 331.44 46.09 332.5 46.91 335.45 48.38 339.62 48.63 341.1 48.63 343.06 48.87 344.05 50.59 345.03 50.1 346.01 49.12 347.49 48.38 350.07 48.11 356.1 48.73 357.81 50.59 359.04 52.31 359.28 55.01 358.05 56.24 357.81 57.96 358.3 59.19 359.04 60.9 360.02 61.89 361.25 62.62 362.48 63.11 362.72 63.11 364.44 63.11 365.92 62.62 366.9 61.15 368.62 59.68 370.58 57.47 372.3 55.26 372.06 52.8 371.57 51.08 370.58 49.61 369.85 47.4 370.83 46.42 373.23 46.19 375.99 45.93 376.38 48.09 376.48 48.63 376.59 48.71 377.46 49.37 379.43 50.59 380.41 51.82 381.15 53.54 381.4 56.24 380.66 57.71 380.41 59.43 383.36 59.43 383.85 55.75 384.59 53.54 385.82 51.82 385.57 51.08 385.82 49.86 387.29 49.12 388.52 49.12 389.75 49.61 391.23 50.35 392.45 52.07 394.42 51.57 396.39 51.57 398.11 51.57 399.09 52.56 400.07 54.03 399.58 54.77 398.35 56.24 397.12 56.24 396.14 56.98 397.86 58.69 400.32 60.9 400.32 63.11 399.33 64.59 401.3 65.08 402.28 66.06 403.76 67.29 405.72 68.52 406.46 69.74 407.69 71.71 408.67 73.18 409.41 74.9 409.41 77.84 409.9 79.32 412.36 78.58 415.31 77.6 418.01 76.86 418.01 75.39 418.75 74.41 419.98 73.18 420.22 72.2 420.96 69.5 420.96 67.78 421.94 66.8 423.42 66.8 425.38 66.8 427.1 67.29 429.56 67.78 430.3 67.29 431.52 66.06 432.38 65.4 434.23 67.53 434.23 69.5 432.75 70.48 431.52 71.95 430.79 74.16 430.54 76.13 432.02 77.6 433 79.32 433.24 81.04 433.74 83.98 433.24 85.21 431.77 86.68 429.56 86.93 428.08 87.91 428.58 89.63 429.07 92.33 427.84 93.8 426.61 93.31 424.89 93.56 423.66 93.56 421.94 93.8 419.98 95.03 417.52 96.75 416.29 98.22 414.57 100.68 413.34 102.15 411.87 103.87 409.9 105.1 409.16 105.34 407.93 107.06 407.44 109.27 407.2 111.23 407.2 112.46 407.2 113.94 407.44 115.41 408.67 115.9 410.15 116.64 411.87 116.88 413.21 116.18 415.18 115.2 417.39 113.48 418.13 111.03 418.62 109.56 421.08 108.82 422.55 108.57 424.27 108.08 425.74 109.07 427.96 108.82 429.43 107.84 431.15 107.59 432.13 108.33 430.9 109.8 429.18 111.77 428.69 112.5 426.48 114.47 425.01 115.45 423.53 117.9 423.53 120.11 423.78 121.59 424.52 124.04 425.25 126.01 426.48 128.46 427.96 130.67 429.92 133.13 432.13 135.58 435.33 139.26 438.52 141.72 442.21 143.93 444.91 145.89 448.1 146.87 449.58 148.1 451.3 149.33 451.55 152.03 452.04 153.75 453.76 153.5 455.97 153.26 457.44 152.03 459.41 151.54 460.64 150.07 461.13 148.59 460.88 146.63 461.62 144.91 463.34 143.19 463.34 143.26 463.34 146.63 463.34 148.59 464.08 149.33 465.93 149.29 466.96 149.17 468.14 149.04 469.61 148.8 470.56 148.35 473.66 146.87 477.1 144.91 475.87 147.12 474.4 149.33 471.94 151.29 470.47 153.01 469.73 154.24 469.24 155.47 469.48 156.94 469.61 159.6 471.09 159.6 473.05 159.6 474.77 159.11 475.11 159.05 476.1 158.89 476.25 158.86 477.72 157.88 480.3 156.2 482.51 154.98 483.74 154.24 485.46 153.01 486.68 151.78 487.42 150.31 488.9 149.33 489.14 150.07 489.14 152.28 489.14 153.99 488.16 155.47 485.95 156.94 484.23 158.9 482.75 159.89 481.52 162.1 481.52 164.8 481.28 166.76 481.28 168.48 481.52 170.69 482.02 172.65 482.02 174.86 482.02 175.84 483.74 176.34 485.7 177.07 487.42 178.3 488.4 179.28 488.9 181.25 488.9 182.47 488.4 183.95 489.88 184.19 490.86 184.44 492.09 184.44 492.58 183.21 492.58 181.74 493.07 180.75 494.06 179.77 494.06 178.79 494.06 176.83 495.28 176.09 496.76 175.84 497.99 174.86 499.46 173.88 500.69 173.64 501.67 173.14 500.44 175.11 499.22 176.58 498.97 178.3 499.71 179.77 500.69 181.25 500.89 181.65 501.04 181.94 501.67 183.21 503.39 185.05 503.88 187.02 505.36 188.24 505.6 189.72 505.6 190.94 507.32 190.21 508.8 189.72 510.27 189.23 511.75 189.47 512.98 189.59 512.98 190.82 512.98 192.05 512.24 193.77 511.5 194.63 511.99 195.36 512.49 196.59 513.47 197.33 514.94 198.31 516.42 198.31 518.14 198.8 518.87 200.52 519.37 201.99 521.09 202.48 523.3 202.48 523.3 203.46 522.81 205.43 523.3 206.66 524.77 207.39 526.74 208.38 529.44 209.36 532.63 209.85 534.11 210.58 534.35 211.81 532.39 212.79 532.14 213.53 532.14 215.5 533.62 216.72 534.85 217.95 536.57 217.95 536.81 216.97 536.81 215.74 537.55 214.51 538.78 213.53 540.25 213.53 541.73 214.02 543.69 214.02 543.94 212.79 543.94 211.81 543.94 209.6 544.68 208.38 545.66 207.39 546.64 207.88 547.87 208.87 549.1 209.85 550.33 210.34 550.33 211.57 550.08 212.79 550.08 214.27 551.8 214.76 553.28 214.02 554.5 214.51 555.24 215.99 556.47 216.72 557.94 216.97 558.68 216.23 559.17 215 559.91 214.76 560.4 213.78 561.38 212.55 561.63 211.32 561.38 210.58 563.35 210.83 563.6 212.06 564.58 212.55 565.56 212.06 566.05 210.83 566.79 209.6 568.27 208.87 568.27 209.85 568.51 211.08 569.25 212.55 570.23 213.53 571.21 214.27 571.71 215.99 571.21 216.72 570.97 217.46 571.71 218.2 572.93 218.44 573.92 218.69 574.65 217.95 575.39 217.21 576.87 216.72 579.08 216.72 580.06 216.72 580.8 217.46 581.78 217.7 582.76 217.95 584.24 218.2 585.71 218.2 586.45 217.95 586.94 217.46 587.68 216.23 587.68 215 587.19 213.78 587.19 213.04 588.41 212.79 588.91 211.81 588.91 210.83 589.15 209.6 589.15 208.62 589.89 206.9 591.12 206.9 591.36 208.13 591.36 209.11 592.84 209.36 593.82 209.36 592.84 210.58 592.84 211.81 593.33 212.79 593.33 214.27 593.82 214.76 594.07 216.48 595.79 216.97 597.26 217.46 598.49 218.93 599.23 219.91 600.7 220.41 602.42 220.9 603.65 220.9 604.88 221.88 605.12 220.9 604.39 219.67 604.39 218.2 603.9 215.99 604.88 215.99 606.35 216.48 608.07 216.97 608.81 217.7 610.53 217.21 611.76 217.46 613.48 216.72 614.22 215.74 615.2 214.76 615.94 213.53 616.43 212.55 616.18 210.83 617.16 210.34 618.39 209.6 619.38 208.13 619.38 206.66 619.38 206.17 620.6 205.18 621.34 204.94 622.32 203.96 623.31 203.46 624.29 204.2 626.01 204.45 627.24 203.22 628.22 202.97 629.7 203.22 630.93 203.96 631.17 203.96 632.65 203.96 632.89 202.48 633.63 201.01 633.14 200.03 633.14 199.05 634.37 198.31 636.58 198.8 637.56 197.57 637.81 195.85 639.28 196.35 641 196.59 642.23 195.85 644.19 195.85 645.91 195.12 646.9 194.63 646.9 193.4 646.9 191.68 646.91 191.68 648.62 191.68 649.35 192.42 650.09 193.64 650.58 195.12 652.79 195.12 653.53 196.84 654.27 198.31 655.99 199.05 658.2 199.05 659.92 199.78 661.64 199.29 662.87 199.05 664.84 199.78 666.31 198.8 667.54 197.82 668.52 197.82 669.5 198.06 670.98 198.8 673.16 200.22 675.65 200.64 676.24 200.31 677.86 199.41 679.82 198.68 681.54 196.96 682.28 195.49 683.51 194.26 685.23 193.03 685.91 192.45 686.95 191.56 687.32 190.7 687.69 189.84 688.18 188.86 689.65 188.37 693.89 188.1 695.3 186.28 697.52 186.03 699.48 187.75 701.94 188.24 703.66 189.22 705.38 190.45 707.34 190.94 709.56 190.7 711.77 190.21 713.49 188 714.72 186.03 715.21 183.58 715.7 182.35 717.17 181.37 719.14 181.12 721.35 180.39 723.81 178.91 725.53 178.18 727.99 176.21 730.44 174.98 732.65 174.25 734.87 173.51 737.81 173.27 739.78 172.04 741.5 170.81 745.19 170.32 748.38 170.81 749.49 171.11 751.08 171.55 753.05 173.02 755.02 173.76 756.49 175.23 757.96 176.7 759.93 178.42 761.4 179.65 763.37 181.12 765.58 180.88 767.55 179.89 770 178.91 770.99 177.44 772.46 175.48 774.18 172.77 775.66 170.57 777.87 168.85 780.32 168.11 783.52 168.11 785.73 168.11 787.45 168.85 790.15 169.83 793.1 171.3 794.33 173.27 797.03 174.49 799 175.72 798.69 175.87 797.03 176.7 795.2 176.89 794.58 176.95 792.37 174.98 790.65 173.27 789.17 171.79 786.47 171.06 783.27 170.57 781.31 170.07 779.83 170.81 779.34 171.79 778.36 174.25 777.87 175.97 776.39 177.44 775.16 178.91 773.69 180.63 771.72 182.6 769.51 183.33 767.79 183.58 766.07 184.56 763.12 184.56 761.16 183.82 759.68 183.09 758.21 181.86 756.74 180.88 754.77 179.16 752.31 177.93 751.08 177.19 748.63 175.97 745.92 177.69 743.47 177.69 741.25 177.69 739.29 178.67 737.57 180.14 735.85 181.86 734.13 182.6 732.9 183.09 731.18 183.58 730.44 183.58 728.72 184.31 726.51 185.54 724.79 186.52 723.56 187.51 723.07 188.24 722.96 188.39 721.84 189.96 721.1 191.43 719.88 192.17 718.89 193.15 716.93 195.36 714.96 196.1 713 196.84 713.24 197.82 714.47 199.29 714.22 200.52 712.75 201.5 712.29 201.44 710.78 201.25 709.06 201.01 707.34 201.01 706.12 201.99 703.9 201.5 702.43 200.52 702.28 200.43 701.28 199.83 701.2 199.78 699.48 198.55 697.27 198.31 695.3 198.06 693.58 198.31 692.6 199.29 691.62 200.52 691.13 201.5 689.41 202.73 689.16 204.69 690.39 206.41 689.65 206.9 686.95 206.41 685.23 205.92 681.79 208.37 680.56 209.6 678.59 210.83 676.63 212.55 675.4 214.27 673.19 216.48 671.96 217.7 670.24 219.42 668.27 221.14 667.05 221.88 665.33 221.88 662.38 221.39 661.39 221.39 659.43 221.63 657.95 221.63 656.48 221.14 655.5 222.86 655 224.82 655.25 226.3 655.5 228.26 652.79 228.75 651.81 227.52 650.58 226.05 648.37 224.33 647.63 223.35 646.16 222.12 643.21 220.9 641.24 220.65 639.77 221.39 638.54 222.37 637.56 223.84 637.56 226.05 636.58 226.79 636.33 227.28 635.1 228.02 634.13 229.72 634.12 229.73 633.87 230.96 633.87 232.43 633.38 234.15 632.4 235.63 631.91 236.61 632.4 237.84 633.38 239.31 634.36 240.78 635.35 242.26 635.59 243.24 633.87 244.46 633.63 243.48 631.66 242.26 629.94 241.52 627.73 240.05 625.52 238.82 623.8 238.33 622.57 238.82 621.09 238.82 620.36 238.08 619.13 238.82 619.13 240.78 619.13 242.26 619.37 244.96 619.87 245.69 620.11 247.41 620.6 249.38 620.36 250.85 619.13 252.08 617.65 252.81 616.43 251.83 615.69 250.36 614.71 249.87 612.74 249.13 611.02 249.38 609.79 249.87 609.05 249.87 608.07 250.11 607.09 250.85 606.6 251.83 606.35 253.06 605.86 255.27 604.38 253.3 602.91 252.32 601.19 251.09 598.98 250.85 597.75 250.6 596.28 250.36 594.56 249.87 593.08 249.87 591.61 249.38 590.13 250.6 590.13 252.32 589.64 254.04 589.15 256.25 591.36 256.99 589.89 258.21 588.41 258.46 588.66 259.93 588.41 261.16 587.68 262.14 586.94 263.61 586.94 264.84 587.18 266.07 588.41 267.3 590.38 268.03 591.85 268.53 593.08 267.79 594.31 268.03 595.54 268.77 595.54 270 593.82 269.51 591.85 269.51 590.62 269.51 588.9 270 587.68 270.49 587.18 272.21 587.18 274.42 585.96 271.96 585.22 270.49 584.24 268.77 583.25 268.77 581.29 268.77 580.8 267.54 581.04 266.07 581.04 265.09 581.04 264.11 581.78 263.37 582.03 261.9 582.03 260.42 581.53 259.69 580.06 258.46 579.57 257.97 580.06 256.99 580.55 255.76 580.3 254.78 579.81 253.55 578.58 254.04 577.36 255.27 575.63 255.27 573.91 255.27 571.95 255.76 570.23 255.51 568.75 254.78 567.03 253.79 565.07 252.32 564.58 253.06 563.59 254.78 562.61 255.02 561.14 255.02 560.15 254.53 559.17 253.55 559.17 252.57 557.94 251.34 556.71 252.08 555.73 252.32 554.86 251.6 555.45 256.39 556.42 257.78 558.38 258.77 559.37 259.99 562.07 261.71 562.32 263.43 561.09 265.15 560.11 266.87 558.38 267.6 556.17 267.11 555.19 266.13 553.47 265.39 552.24 265.89 550.28 266.38 549.05 265.39 548.31 263.92 547.08 262.45 545.61 261.22 545.12 259.75 543.89 259.01 542.66 259.75 541.43 260.98 540.69 262.69 539.96 263.92 539.71 265.39 539.71 266.87 539.71 267.6 540.45 269.32 540.94 271.04 541.92 272.27 543.15 273.74 541.92 274.72 540.2 273.25 539.22 271.78 538.48 270.55 536.27 270.06 535.53 268.83 535.04 267.11 535.04 264.41 534.3 263.43 533.32 262.45 532.58 261.22 531.6 259.99 531.36 257.78 529.64 258.03 529.64 259.75 528.65 260.48 526.93 260.48 525.7 261.47 526.19 263.19 527.18 264.9 527.91 266.62 528.65 268.34 527.91 269.57 526.93 271.53 526.44 272.76 526.19 273.74 527.18 275.46 528.65 277.18 527.67 278.41 525.46 278.16 524.97 277.18 524.47 275.46 523 273.25 522.02 271.78 521.03 270.55 519.56 269.57 519.31 268.1 518.58 266.87 517.84 265.64 517.1 266.62 516.37 267.85 515.38 269.08 514.4 267.6 514.15 266.13 513.91 264.41 513.42 262.69 511.21 263.19 510.47 263.68 508.26 264.66 506.78 265.15 504.57 265.39 503.34 265.15 501.87 264.66 500.39 262.69 500.15 263.92 500.39 265.89 499.41 266.62 499.16 268.1 498.92 268.83 497.69 269.81 497.69 271.04 497.94 272.51 499.41 273.25 500.39 274.48 499.9 275.71 497.94 274.97 496.71 274.48 495.48 275.46 495.48 276.93 494.8 278.75 494.74 278.9 493.27 276.44 492.78 275.71 492.78 274.97 493.51 273.99 494 271.78 494 270.55 493.02 269.32 491.3 268.59 490.32 267.6 489.58 266.13 488.84 265.39 487.37 264.9 486.39 264.41 484.18 264.17 483.44 263.43 481.23 262.94 479.51 263.43 478.52 263.68 476.8 263.43 475.08 262.94 473.86 261.96 471.4 260.48 469.73 259.44 468.9 258.41 468.75 258.21 468.01 256.5 468.2 255.08 466.73 253.86 465.5 253.36 464.52 254.35 464.03 255.33 462.8 256.56 461.08 257.78 461.32 259.01 462.06 260.48 463.04 260.98 465.01 261.71 466.73 261.96 467.22 261.96 469.43 263.19 471.4 264.66 472.38 265.64 473.12 266.87 474.1 268.59 474.84 269.81 476.31 270.55 478.03 270.8 479.02 271.78 477.79 273.5 477.05 274.48 475.82 275.95 475.33 277.43 474.1 277.67 472.87 277.18 472.14 276.2 471.89 274.23 469.97 273.19 467.76 272.45 465.8 272.45 463.83 271.96 462.6 270.98 461.13 271.47 460.15 271.96 458.62 271.04 457.88 270.31 455.92 269.57 454.44 269.81 452.48 270.55 451.25 271.29 451 272.76 452.23 274.48 452.48 275.71 451.74 276.93 451.74 278.65 452.48 279.63 452.72 280.86 453.71 282.34 454.93 283.56 455.18 285.04 454.44 286.26 453.21 287.74 452.48 287.98 451.25 287.98 450.51 287.49 449.77 286.02 448.79 284.79 447.32 283.81 446.58 283.07 445.84 281.84 444.61 281.35 443.88 281.35 443.63 281.84 443.88 283.56 444.86 284.05 445.6 285.28 444.61 286.75 443.96 287.57 443.63 287.98 443.39 289.46 443.63 291.17 443.63 292.65 442.89 294.12 441.91 294.61 440.19 295.59 438.96 294.86 438.47 293.63 438.22 292.16 438.22 291.17 438.22 289.95 437.98 288.23 436.8 286.69 434.34 284.98 433.06 283.32 430.61 282.34 429.62 281.11 428.15 280.62 426.92 279.88 426.18 278.9 424.96 277.67 423.24 276.69 421.76 275.71 419.3 275.71 417.58 275.95 416.36 276.2 415.65 276.69 413.9 277.92 413.16 280.13 412.42 281.6 412.18 282.83 412.18 283.81 413.65 285.04 414.88 286.02 416.6 286.75 417.83 287.98 418.32 289.46 419.06 290.93 419.06 291.91 420.04 292.65 421.27 292.65 421.76 292.16 423.48 292.16 424.46 292.65 425.94 293.87 427.17 294.86 428.15 296.82 426.92 298.05 425.2 298.05 422.99 297.07 420.04 297.07 418.08 296.58 416.11 296.58 414.14 296.33 412.42 295.59 409.66 296.19 407.18 295.75 406.77 294.12 406.53 292.16 406.28 290.93 405.3 290.68 403.58 290.44 402.84 289.7 402.84 287.49 403.09 283.81 402.35 281.6 401.37 282.09 400.87 283.81 400.87 286.02 400.87 288.72 401.37 290.93 401.55 291.61 402.1 293.63 401.37 295.35 399.94 296.02 399.18 294.65 398.71 293.81 397.93 292.65 397.43 291.17 396.21 288.47 395.22 287.98 394.98 286.51 394.98 285.04 394.49 283.81 393.5 282.83 392.52 282.58 391.54 282.58 389.57 282.34 388.1 282.09 385.89 282.09 384.9 283.07 383.92 285.04 383.18 285.53 382.45 286.26 380.97 287.25 379.99 287.98 379.99 289.46 379.25 290.19 377.53 291.17 376.3 292.16 375.81 293.14 375.56 295.59 375.07 297.8 375.07 298.78 376.06 299.77 377.53 300.99 377.28 301.73 377.28 303.2 377.28 305.17 377.53 306.15 378.02 306.89 378.76 308.11 379.25 309.1 378.02 310.57 377.78 312.04 376.79 313.02 375.07 313.02 373.11 313.02 372.62 312.78 371.63 312.04 371.14 310.57 370.16 308.61 368.44 309.83 368.44 311.31 367.95 313.02 367.7 314.74 367.21 316.22 366.72 317.93 366.23 319.16 365.24 320.14 364.26 321.13 363.77 322.85 363.52 324.32 364.75 325.55 364.51 326.04 364.02 326.53 362.05 326.53 360.08 325.55 359.35 326.77 357.38 328 357.14 326.28 357.14 324.56 357.87 322.6 358.61 320.64 359.59 317.93 361.07 314.25 361.31 311.31 361.07 309.1 360.82 306.4 359.59 306.64 358.36 308.11 357.14 309.83 354.19 311.8 353.25 312.96 351.78 313.21 350.31 313.21 351.29 311.49 353.2 308.61 353.94 307.62 354.92 305.66 353.99 303.39 354.89 302.04 354.97 301.92 355.47 299.71 355.47 297.74 355.33 297.29 354.73 295.29 353.25 293.81 351.29 292.34 349.81 290.62 349.27 289.7 348.83 288.9 349.08 287.92 349.81 287.19 350.05 287.15 350.51 287.09 351.53 286.94 353.2 288.23 354.92 289.21 356.4 291.17 358.12 292.4 361.07 293.38 361.8 292.4 363.28 291.91 365 291.66 365.98 289.21 366.47 285.53 365.05 283.5 363.97 281.89 363.59 281.62 363.16 281.31 362.25 280.66 361.26 279.92 359.05 279.43 356.59 278.45 354.38 278.45 352.42 277.47 351.68 276.98 350.21 276.49 348.24 276 346.52 276.49 344.55 276.73 341.36 276.98 338.9 276.24 335.46 275.75 333.25 274.77 330.06 274.28 328.09 273.05 327.6 271.58 326.12 270.59 324.9 269.61 323.18 267.89 321.7 266.91 321.65 266.78 320.72 264.21 319.74 262 316.66 260.26 316.09 259.93 314.43 259.2 310.5 258.21 309.02 257.97 306.57 257.72 304.11 257.48 302 256.31 301.9 256.25 301.7 256.22 300.42 256 299.87 255.82 298.78 255.46 298.21 255.27 297.47 254.29 297.42 254.1 296.93 252.38 295.7 252.63 294.23 253.36 292.76 254.1 290.79 254.1 288.59 254.73 281.97 254.7 280.47 254.35 278.99 255.57 277.77 256.56 275.8 257.05 274.08 257.05 271.87 257.05 269.41 256.8 267.69 256.56 266.71 257.29 265.23 258.03 263.76 259.01 264.25 260.73 264.25 262.2 264.25 263.92 264.74 265.15 265.23 266.87 265.73 268.34 265.97 270.55 265.97 272.76 265.23 274.72 263.27 276.93 260.56 277.67 258.6 277.67 255.9 277.43 254.67 276.93 252.46 275.22 250.32 274.52 249 272.64 248.6 272.07 248.28 272.02 246.88 271.82 245.89 269.37 244.67 268.63 244.42 267.16 244.1 265.15 242.21 264.7 240.49 264.46 238.28 264.7 234.76 264.17 233.78 263.19 232.06 263.43 231.57 264.41 231.08 265.39 231.08 266.38 231.32 267.6 232.31 268.59 232.31 270.31 233.04 271.29 233.54 272.76 234.27 273.99 234.76 275.22 233.04 276.44 231.57 276.93 229.36 277.18 228.37 276.93 227.39 276.2 226.65 274.97 226.65 273.5 226.65 272.51 226.65 270.8 225.67 269.57 224.44 268.83 223.21 268.59 222.97 267.6 222.97 265.39 222.72 263.68 221.74 262.69 219.36 261.76 217.88 260.77 216.65 259.55 216.9 258.32 217.07 257.54 217.32 256.07 217.22 256.07 215.9 256.54 215.6 257.29 215.11 258.03 214.61 259.26 214.37 260.24 214.61 261.71 214.61 262.69 212.89 262.69 212.16 262.94 210.68 262.94 210.19 263.68 209.7 265.39 209.7 266.62 209.45 267.6 208.47 267.85 207.24 267.85 206.01 267.11 204.79 265.64 200.41 262.88 199.31 262.09 198.69 261.65 197.17 263.19 197.04 263.58 196.92 263.92 196.18 264.9 195.71 264.9 194.71 264.9 193.73 265.15 193.32 265.56 192.5 266.38 191.27 267.36 190.29 268.59 190.04 269.08 189.8 270.55 189.55 271.53 189.3 272.51 188.32 272.76 187.58 273.74 187.58 274.97 187.83 276.69 188.81 277.92 189.55 279.14 190.29 280.62 190.29 281.35 187.83 281.11 185.86 280.86 183.41 280.86 182.92 279.14 181.44 278.65 178.98 278.41 175.79 278.41 172.35 278.65 168.66 278.65 163.99 277.92 160.55 276.69 156.62 275.95 153.43 275.22 152.2 274.48 150.97 275.22 149.25 275.22 147.04 274.97 Z M 384.59 70.72 383.97 74.43 384.79 77.3 384.15 80.1 382.63 81.77 381.15 83.74 380.17 86.44 380.17 89.38 380.66 90.61 381.64 92.38 381.89 92.82 381.93 93.04 382.38 95.28 384.35 97.73 386.31 99.45 388.03 100.68 389.51 102.15 391.23 103.38 394.91 104.11 398.84 104.11 401.05 105.1 403.27 105.1 405.72 104.36 406.95 103.38 406.46 100.43 405.48 98.71 404.25 97.24 403.76 94.79 403.02 91.84 403.02 90.37 402.04 88.4 402.04 86.93 401.05 84.23 400.56 82.51 396.88 80.3 395.61 79.6 394.67 79.07 393.19 78.42 392.45 78.09 391.47 76.62 390.98 74.41 391.47 72.93 392.45 70.23 392.45 68.52 391.23 67.53 389.51 67.04 387.29 67.78 385.33 69.25 384.59 70.72 Z M 44.75 127.93 44.26 126.95 42.29 126.95 40.08 128.42 39.92 129.81 37.5 132.23 36.4 133.33 35.41 134.31 34.43 135.05 35.17 136.52 35.41 137.01 35.41 137.53 35.41 138.98 35.41 139.96 35.91 141.19 38.12 142.17 39.84 142.41 41.56 141.68 43.52 141.43 42.79 139.22 42.29 137.26 41.02 135.08 43.03 132.84 44.26 131.37 44.26 129.89 44.75 127.93 Z M 154.56 141.97 155.5 143.04 155.49 144.22 158.44 143.19 160.94 141.42 161.32 140.09 158.86 135.79 156.37 133.76 154.01 133.61 153.69 135.75 154.79 139.29 154.56 141.97 Z M 39.83 166.26 38.03 166.57 35.65 166.5 34.05 167.22 33.19 168.51 33.08 168.69 37.62 170.88 38.89 170.86 39.87 171.01 42.6 170.57 42.77 168.47 43.27 167.73 40.81 166.5 39.83 166.26 Z M 412.6 87.66 415.67 87.71 419.11 86.97 417.14 85.5 415.18 84.51 412.76 83.36 410.39 82.93 409.21 83.99 409.29 86.63 412.6 87.66 Z M 66.86 241.41 67.25 241.62 67.25 243.1 67.74 244.82 68.52 245.69 70.73 244.7 72.26 241.87 71.77 239.42 69.8 238.19 67.89 239.15 67.31 239.52 66.86 241.41 Z M 464.01 250.17 464.99 252.87 465.97 252.13 465.73 250.17 465.23 248.94 464.01 246.98 462.78 245.99 461.55 245.75 459.34 246.49 460.07 247.96 462.78 249.43 464.01 250.17 Z M 241.25 242.11 241.91 242.57 244.55 241.76 245.1 241.34 245.6 240.12 246.33 238.89 246.33 237.17 245.35 237.91 243.88 238.64 241.91 239.87 241.17 241.59 241.25 242.11 Z M 207.26 256.57 206.28 257.55 206.03 258.53 206.03 260 207.26 260.25 207.75 262.21 209.23 261.23 209.47 260 209.23 258.53 208.98 257.79 208.74 256.81 207.75 255.58 207.26 256.57 Z M 536 252.38 536 253.36 536.99 254.83 537.97 256.8 538.71 255.32 538.46 254.34 537.97 252.87 537.72 251.15 537.48 250.17 536.25 250.17 536 252.38 Z M 50.26 159.01 51.25 159.99 52.48 159.5 52.72 158.27 53.7 156.8 53.95 155.57 52.97 155.32 51.98 156.06 50.76 156.8 50.26 159.01 Z M 454.91 257.53 456.88 258.02 458.6 258.02 457.37 256.31 455.9 255.81 454.42 255.32 453.44 256.06 454.91 257.53 Z M 142.2 126.38 142.27 126.74 144.15 127.4 144.29 127.34 145.24 126.73 145.31 126.65 145.52 124.79 145.5 124.77 143.92 124.77 142.2 126.38 Z M 498.16 253.85 497.92 252.87 496.44 253.36 495.7 254.34 496.2 255.08 497.42 256.31 498.41 254.83 498.16 253.85 Z" fill-rule="evenodd"/>
</g>
</svg>