<?xml version="1.0"?>
<svg xmlns="http://www.w3.org/2000/svg" version="1.2" baseProfile="tiny" width="800" height="723" viewBox="0 0 800 723" stroke-linecap="round" stroke-linejoin="round">
<g id="lakesonoma">
<path d="M 422.36 545.38 423.02 545.76 424.19 546.12 425.46 546.39 425.82 546.34 426.19 546.29 426.09 545.86 425.93 545.02 426.06 544.25 426.93 544.35 427.86 544.75 428.1 545.16 428.83 545.66 430 545.52 430.5 545.09 430.9 546.49 430.36 546.96 430.2 547.83 430.63 548.29 431.37 548.99 431.93 549.8 432.13 549.8 432.33 549.7 432.47 549.36 432.57 548.63 432.63 547.76 433.33 548.06 433.83 548.66 434.27 549.43 434.13 550.16 433.5 550.83 433.8 551.8 434.54 552.3 435.64 552.87 436.1 553.03 436.17 553.43 436.07 554.24 436.8 555.1 437.91 555.47 438.44 555.64 438.14 556.44 437.5 556.81 436.94 557.84 436.67 558.71 436.64 560.18 437.47 562.05 437.57 562.85 438.01 564.65 438.77 566.36 439.87 567.69 440.61 568.19 441.14 568.69 441.94 568.86 442.34 569.36 442.94 569.56 444.01 569.63 445.48 570.13 446.28 570.53 446.75 570.43 448.02 570.56 449.02 571 449.95 571.03 450.25 570.8 450.65 570.5 451.12 570.86 451.52 571.2 452.89 571.2 453.62 570.8 453.92 570.63 454.29 570.96 454.99 570.9 455.69 570.63 456.79 570.63 457.83 570.73 458.93 570.7 459.03 570.93 459.93 571 460.39 570.66 460.83 570.4 461.73 570.5 462.33 570.3 462.93 570.46 463.03 571.1 463.06 571.63 463.6 571.83 464.3 571.73 464.77 571.13 465.13 571.86 465.47 572.57 466.17 574 466.7 574.77 468.17 575.54 469.54 576.2 470.2 577.11 470.91 577.91 472.31 579.01 474.04 579.98 475.01 580.14 475.81 580.51 476.91 580.71 477.61 580.75 478.31 580.78 478.71 581.11 478.41 581.98 478.71 582.98 479.41 583.88 480.01 584.45 480.72 584.95 480.65 585.35 480.41 585.99 480.31 586.89 480.11 587.62 479.75 588.06 479.15 588.39 478.55 588.89 478.31 589.66 478.25 590.63 479.05 592.06 480.38 592.93 481.48 593.1 482.62 593.1 483.99 593.63 485.02 594.03 486.12 594.67 487.42 595.34 488.56 595.94 489.36 596.44 490.16 596.57 492.53 597.24 494.16 597.24 495.43 597.44 497.37 597.81 498.23 598.34 499.47 599.51 500.34 600.44 500.8 601.38 501.9 601.98 503.37 602.28 504.61 602.11 505.47 601.45 506.51 601.48 507.58 601.41 509.44 601.35 510.78 601.31 511.41 600.61 511.81 600.11 512.85 600.38 513.35 601.24 514.05 601.91 514.62 602.58 515.82 602.98 517.52 603.28 518.59 603.58 519.55 603.65 520.36 603.31 520.56 602.55 520.22 601.48 520.02 600.71 519.89 599.78 520.36 599.61 521.32 599.61 522.62 599.78 523.96 600.44 524.43 601.65 525.29 604.58 526.13 606.85 526.66 607.02 527.83 606.79 529 606.32 529.6 605.79 530 605.79 530.87 605.72 531.4 605.45 532.63 604.85 533.64 604.32 533.5 604.95 533.74 605.92 534.47 607.45 535.2 608.42 535.97 608.66 536.57 610.09 537.17 610.69 537.07 610.96 536.61 610.76 535.67 610.33 534.9 610.13 533.67 609.86 532.93 609.76 532.3 610.06 531.97 610.93 532.07 611.49 533.4 612.8 534.77 613.56 535.84 614.47 536.27 614.93 536.81 615.9 537.21 617.27 537.91 617.97 538.64 618.67 539.21 619.11 539.88 619.07 540.48 619.21 540.64 619.47 540.61 619.77 540.61 620.28 540.68 621.04 541.08 621.58 541.64 621.71 542.58 621.84 543.08 622.08 543.45 622.68 543.65 623.28 543.51 623.75 543.51 624.35 543.71 624.55 544.25 624.45 544.91 624.11 545.91 623.95 546.58 624.32 547.75 624.98 547.92 625.38 548.32 625.72 549.35 626.22 550.15 626.52 550.55 626.95 551.12 627.72 551.55 628.09 552.02 628.29 553.12 628.59 554.16 628.56 554.92 628.32 556.26 628.62 556.73 628.82 558.29 629.56 558.86 629.76 559.03 630.19 559.03 630.56 559.36 631.29 560.2 631.49 560.63 631.29 561.4 631.29 562.5 631.53 564.8 632.6 564.73 632.9 564.53 633.4 564.87 634.46 565.6 635 566.6 635.73 567.67 636.1 568.9 636.03 569.64 636.37 570.71 636.6 571.47 636.6 571.94 636.33 572.51 636.03 573.04 635.77 574.1 635.55 575.22 636.74 576.08 637.87 576.51 638.3 576.85 638.47 577.65 638.64 578.31 638.64 579.11 638.94 579.95 638.97 581.02 638.91 581.88 638.7 582.42 638.14 582.72 637.54 583.25 637.44 583.92 637.7 584.52 637.97 585.02 638.2 585.89 638 586.39 637.54 586.82 636.57 586.99 635.57 587.52 635.03 589.39 633.6 590.46 633.16 591.16 632.63 591.86 631.89 592.8 631.59 593.93 631.23 594.7 630.89 595.46 630.96 595.73 631.39 596.3 631.73 596.97 632.09 599 632.8 600.7 632.73 602.14 632.73 602.94 632.56 604.27 631.66 605.07 630.69 605.24 629.76 605.44 629.12 606.18 628.59 606.81 628.29 607.18 627.89 607.28 627.35 607.08 626.55 606.94 626.18 606.54 625.58 606.14 625.12 605.34 624.92 604.54 624.78 603.74 624.58 602.61 624.25 601.57 623.61 601.04 623.58 600.17 623.58 599.57 623.21 598.83 622.91 598.73 622.38 599.07 622.25 599.47 622.08 599.87 621.71 600.4 621.28 601.94 620.61 603.14 620.24 603.54 619.67 604.21 618.74 604.14 617.2 603.77 615.83 602.71 614.73 600.9 613.63 600.6 613.13 600.24 612.73 599.7 612.4 599.17 612.06 598.13 611.16 597.77 610.36 597.17 609.69 596.77 608.56 596.27 608.09 595.26 607.66 594.86 607.42 594.53 606.49 594.13 606.15 593.53 605.89 591.79 603.88 590.53 603.82 589.99 603.68 589.36 603.35 587.72 602.31 586.79 602.11 586.09 602.18 584.62 603.01 584.01 604.16 583.69 604.29 583.18 604.57 582.99 604.12 583.05 603.58 583.09 602.88 583.42 601.55 583.75 600.84 583.65 600.34 582.48 598.94 582.05 598.77 581.52 598.71 580.75 598.87 580.12 598.74 579.55 598.51 579.11 598.37 578.78 598.47 578.38 598.27 577.75 598.14 576.91 598.14 576.88 597.67 576.55 597.21 575.71 596.64 575.71 595.64 576.07 595.62 576.55 595.6 576.65 595.34 576.55 594.47 575.91 593.73 575.68 593.07 575.98 593 576.11 593.23 576.48 593.7 577.25 594.3 577.35 594.77 577.68 595.1 578.45 595.8 578.75 595.67 579.48 595.6 580.88 595.8 581.68 595.7 582.32 595.37 582.65 594.63 583.52 593.67 584.32 592.26 585.09 590.76 585.49 589.56 585.25 588.62 584.55 588.02 585.15 587.82 585.82 587.82 586.32 588.09 586.79 588.49 587.32 588.36 587.86 588.42 588.12 588.72 587.92 589.16 587.62 589.39 587.66 591.73 587.32 592.13 586.66 592.86 586.72 593.57 587.02 594.17 587.89 594.8 588.82 595.5 590.19 596.07 590.53 596 591.16 595.67 591.63 595.67 592.29 595.84 593.06 596.1 593.16 596.64 593.5 597.27 594.06 598.11 594.33 599.04 595.33 599.91 595.73 599.91 596.57 599.94 596.5 600.41 597.13 601.28 597.5 601.41 597.63 601.81 597.57 602.38 598.2 602.71 598.83 602.71 600.2 603.05 603.14 605.92 603.57 606.05 604.07 606.05 604.44 606.15 604.44 606.49 604.77 606.82 605.88 607.15 606.64 607.49 607.08 608.16 606.88 608.69 607.14 609.09 607.71 609.09 608.41 609.19 608.98 609.66 609.71 610.23 610.28 610.39 611.18 610.56 612.38 610.76 613.38 610.79 614.15 610.73 614.42 611.03 614.38 611.29 614.58 611.49 615.49 611.59 616.42 611.53 616.59 611.33 617.05 610.89 617.29 610.89 617.69 610.93 617.89 610.79 617.8 611.51 617.69 612.4 618.15 612.6 618.29 613.66 617.7 614.59 617.53 614.92 616.79 615.2 616.35 615.47 616.02 615.93 616.02 616.54 616.25 617.1 616.02 617.64 615.52 618.17 615.42 619.01 615.62 619.47 616.12 619.97 616.32 620.68 616.92 621.34 617.65 622.04 618.15 622.81 618.99 622.78 619.66 623.25 619.99 623.65 620.22 624.35 620.79 624.95 621.76 624.95 622.53 624.75 623.03 624.55 623.29 624.72 623.49 625.02 623.83 625.28 624.36 625.25 625.53 625.22 626.4 625.05 626.93 625.15 627.06 625.55 626.8 626.08 626.4 627.05 626.03 628.19 626.96 628.82 629.3 629.32 629.67 629.76 631.5 630.83 632.47 630.79 633.74 630.69 634.57 630.69 634.9 630.93 635.27 631.56 636.04 631.59 637.04 631.73 638.71 632.16 639.24 632.46 639.68 633.26 640.78 634.43 641.21 635.27 643.08 636.27 643.68 636.94 643.88 637.64 644.05 637.97 644.41 638.5 644.95 638.87 645.45 638.87 646.12 638.6 646.95 638.34 647.62 638.27 648.15 638.5 648.62 639.04 648.72 639.61 649.05 640.01 649.55 640.21 650.12 640.11 651.02 640.04 651.76 639.91 652.19 640.14 652.49 641.28 652.59 641.88 652.79 642.51 653.56 642.94 654.49 642.91 655.63 642.61 656.36 642.04 657.33 641.68 658.23 641.68 659.26 641.91 660.13 642.21 662.03 642.41 663.53 642.41 665.04 642.14 665.6 641.68 666.44 641.31 667.14 641.51 667.87 641.44 668.51 641.21 669.01 640.71 669.74 640.67 670.51 641.04 671.24 641.28 671.68 641.11 672.24 640.81 673.18 640.14 674.04 639.44 674.64 638.74 675.31 638.1 676.81 637.97 677.78 637.54 678.78 637.1 679.68 637.07 681.18 637.2 682.45 637.6 684.29 637.6 685.92 637.37 687.66 636.67 689.23 636.1 690.33 635.43 691.53 634.2 693.13 632.33 693.13 631.43 693.26 630.69 692.86 630.16 692.43 629.42 692 628.25 691.73 627.12 691.6 625.98 691.3 625.62 690.86 625.18 690.83 624.75 691.46 624.01 692.06 624.15 692.9 624.48 693.8 624.92 694.26 625.28 694.9 625.55 695.4 625.45 695.83 624.92 696.17 624.32 696.5 623.28 696.67 622.41 697.07 622.25 697.53 622.04 698.17 621.88 698.37 621.28 698.6 620.31 699.1 620.18 699.47 620.18 700 620.01 700.07 619.64 700.24 619.11 700.4 618.77 700.8 618.47 701.37 618.47 702.14 618.77 703.11 619.04 704.38 619.41 704.91 619.27 705.98 619.01 706.54 618.77 707.14 618.71 707.68 618.77 708.51 618.97 709.28 618.94 710.41 618.71 712.88 618.64 714.02 618.41 715.62 618.14 716.09 617.77 716.32 617.07 716.09 616.47 715.39 615.5 714.85 614.23 714.12 613.06 713.72 612.53 713.08 611.8 712.98 611.39 713.05 610.83 713.35 610.03 713.82 609.16 714.12 608.69 713.85 608.06 713.92 607.62 714.42 607.52 715.05 607.62 715.65 607.59 715.82 607.19 716.02 605.85 716.09 605.35 716.15 604.55 715.99 603.95 716.15 603.72 716.85 603.18 717.45 602.78 718.12 601.95 718.46 601.08 719.09 600.18 719.12 599.44 718.09 598.11 717.92 597.27 718.19 596.64 719.19 595.74 720.52 594.93 721.26 594.27 721.69 593.4 721.53 591 720.83 589.86 719.82 588.59 718.96 586.32 718.79 585.95 718.56 585.39 717.72 584.58 717.49 583.98 717.45 583.45 717.29 582.82 716.55 581.61 715.79 579.64 715.62 578.98 715.32 578.37 714.92 578.01 714.72 577.61 715.09 577.37 715.69 577.27 716.15 577.07 716.29 576.54 716.15 575.77 715.75 575.3 715.12 574.8 714.32 574.5 713.32 574.23 712.45 574.1 711.62 574.1 710.91 574.34 710.41 574.37 709.55 574.27 708.91 574.4 708.35 574.54 708.05 574.27 708.18 573.8 708.25 572.97 708.21 572.43 707.95 572.33 707.24 572.3 706.64 571.76 705.34 571.2 703.84 570.6 703.51 570.13 702.84 569.89 702.04 569.83 700.37 569.33 698.09 567.59 697.85 567.01 698.2 566.86 698.64 566.82 699.1 566.89 699.67 567.02 700.3 566.96 700.77 566.76 701.57 566.46 702.14 566.06 702.17 565.32 702.11 565.25 701.81 565.19 701.31 565.02 700.8 564.92 700.04 564.62 699.3 564.02 698.64 563.18 698.27 563.18 697.84 562.82 697.27 562.48 696.7 562.38 696.2 562.08 696 561.85 695.7 561.31 695.43 561.15 695.1 561.08 694.53 561.15 693.81 560.92 693.7 560.88 693.73 560.45 694 559.95 694.1 559.34 694.13 558.81 694.43 558.48 694.77 557.94 695.27 557.27 695.67 556.31 696.23 555.14 696.23 553.64 695.93 552.57 695.63 552.13 695.27 551.67 695.29 551.28 695.3 551.16 695.6 550.73 696.07 550.7 696.47 550.4 697 549.83 697.13 549.19 696.97 548.89 697.23 548.69 697.3 548.33 697.03 548.16 696.7 547.99 696.47 547.69 697.08 547.73 697.6 547.76 697.87 548.13 698.4 548.63 699.17 549.29 700.07 549.53 702.01 549.76 703.64 549.7 704.61 549.29 705.48 549.06 706.14 548.49 706.51 547.89 706.98 547.29 707.01 546.89 706.94 546.39 707.48 546.02 708.05 545.86 708.61 545.82 709.41 545.32 709.85 544.85 710.35 544.29 710.65 543.72 711.02 543.49 711.45 543.49 711.88 543.32 712.38 542.98 712.75 542.92 712.98 542.22 713.02 541.75 713.28 541.32 713.62 541.12 713.52 540.81 713.18 540.61 712.78 540.61 712.25 540.41 712.35 540.05 712.78 539.68 712.72 539.11 712.45 538.68 712.15 538.24 712.18 537.24 712.15 536.98 711.88 536.71 712.02 536.51 712.38 536.41 712.98 536.24 713.55 535.97 713.95 535.64 714.12 534.97 714.32 534.54 713.95 534.47 714.32 534.17 715.29 533.87 715.99 533.87 717.02 533.64 717.72 533.07 718.69 532.87 719.62 532.7 720.56 532.1 721.19 531.5 722.16 531.27 723.06 531.27 724.16 531.2 724.93 531.13 725.73 531.23 726.5 531.6 728.6 532.64 729.83 533.37 730.6 533.6 731.64 533.74 732.64 533.24 733.6 533.07 734.54 532.97 735.24 532.97 736.14 532.94 737.17 532.5 738.04 531.9 739.08 531.23 739.71 531.07 739.98 530.53 740.18 529.7 740.01 528.86 740.34 528.36 740.85 527.76 741.01 527.03 741.48 525.39 742.78 523.22 743.81 522.02 744.02 520.78 744.78 519.75 745.68 519.18 747.42 518.65 747.62 518.21 747.49 517.34 747.39 515.74 747.19 514.35 747.43 514 747.54 513.71 747.38 513.42 747.15 513.29 747.13 512.94 747.44 512.64 747.9 512.37 748.05 512.36 748.3 512.35 749.05 512.37 749.51 512.14 749.32 511.39 749.11 510.74 748.91 510.49 748.72 510.24 749.07 509.97 749.21 509.96 749.65 509.91 750.34 509.89 751.07 509.74 751.26 509.33 751.7 508.37 752.01 507.91 751.59 507.24 751.27 506.78 751.09 506.53 751.2 506.36 751.7 506.24 752.07 505.88 752.59 505.32 753.07 504.61 754.03 504.18 755.11 503.35 754.64 502.92 753.89 502.87 753.09 502.62 753.04 501.92 753.09 500.87 753.64 500.72 754.39 500.52 755.29 500.27 757.09 499.77 759.5 498.92 761.2 498.42 761.21 498.41 762 497.92 761.5 497.77 760.35 497.62 756.71 497.98 756.02 497.72 755.45 497.56 754.68 497.59 753.95 497.89 752.78 498.29 751.45 498.86 749.51 499.33 748.48 499.39 747.84 499.33 746.67 499.29 746.14 499.03 744.91 498.43 744.24 497.69 743.4 497.49 742.27 497.26 742.14 496.62 742.1 495.89 741.64 495.49 740.4 495.05 739.33 494.82 738.33 494.52 736 493.69 735.23 493.69 734.46 493.69 733.79 493.92 732.96 494.35 731.86 495.15 731.09 495.62 729.69 496.59 728.69 496.59 727.59 496.59 726.85 496.86 726.19 497.42 725.39 498.89 725.02 498.96 724.25 498.93 723.38 498.76 722.35 498.63 721.11 498.49 720.35 498.13 718.98 497.96 718.11 498.33 716.64 498.86 714.21 499.19 712.27 499.59 710.94 499.79 710.76 499.79 710.17 499.76 710.37 499.33 711.07 498.83 711.57 498.49 712.17 498.09 712.51 497.76 712.84 497.46 713.54 497.16 714.24 496.92 714.84 496.49 715.18 495.76 715.48 494.92 715.58 493.22 715.34 492.65 715.31 491.21 715.31 490.51 715.61 489.48 715.54 488.84 715.11 488.54 714.54 488.21 713.61 488.08 711.91 487.88 710.8 487.81 709.9 487.58 708.94 486.97 707.7 485.97 707.03 485.91 706.33 486.01 704.3 485.97 703.16 486.04 701.83 486.31 699.86 486.47 699.09 486.67 696.69 487.17 695.96 487.01 694.85 486.64 693.92 486.44 692.72 486.24 691.95 486.37 691.15 487.01 690.38 487.51 689.72 487.58 689.02 487.88 688.35 488.48 687.95 488.81 687.51 489.08 687.18 489.01 686.58 488.51 686.25 488.14 685.78 487.48 685.11 486.91 684.48 486.81 684.08 486.91 683.54 487.21 683.04 487.27 681.98 487.14 681.24 487.31 679.87 487.94 679.41 488.54 678.61 488.68 677.54 488.28 676 487.94 675.57 488.31 675.34 487.71 675.44 486.84 675.44 486.8 675.5 485.61 675.74 484.8 675.7 484.44 675.37 483.8 675.17 483.07 675.2 482.63 675.37 481.73 675.7 480.83 675.67 479.63 675.3 478.83 674.27 478.29 672 478.13 671.2 478.19 670.46 478.36 669.93 478.19 669.83 477.69 669.73 477.13 668.7 476.86 667.43 476.02 666.29 475.16 665.29 474.82 665.19 474.42 664.52 473.59 663.79 473.22 662.69 472.99 661.43 473.31 660.62 472.78 658.58 472.52 657.25 472.18 656.35 471.75 655.41 471.32 654.91 471.12 654.45 471.38 654.08 471.82 653.58 472.02 653.35 470.95 653.25 470.01 652.88 469.51 651.84 468.48 651.21 468.21 650.18 468.28 649.74 468.48 649.11 468.44 648.54 468.24 647.77 467.88 646.74 467.44 646.07 467.48 644.67 467.71 643.84 467.94 642.97 467.61 642.03 467.08 641.73 466.68 641.1 466.11 639.97 465.47 639.3 465.64 638.4 465.64 637.13 465.44 636.46 465.34 636.53 466.44 636.8 466.91 636.34 467.79 635.5 468.55 634.63 468.58 634.16 468.71 633.26 469.05 632.29 469.98 631.56 470.48 630.76 470.82 628.49 471.25 627.02 471.58 625.78 472.42 624.48 472.95 623.92 473.09 622.82 473.45 621.61 473.75 620.11 474.69 619.14 474.69 618.14 475.49 616.98 475.56 616.91 475.23 616.88 475.09 617.94 474.22 618.11 473.95 618.34 473.45 619.38 472.38 619.98 471.92 620.58 471.62 621.11 471.25 621.41 470.72 621.81 470.28 622.21 470.18 622.41 470.01 622.58 469.41 622.85 468.98 623.22 468.58 623.75 468.24 624.08 467.88 624.88 466.14 624.92 465.51 624.65 464.97 624.55 464.47 624.85 464.57 625.42 464.74 625.68 464.34 626.02 463.64 626.19 463.1 626.72 462.9 627.35 462.13 627.55 461.57 627.45 460.93 627.52 460.26 627.69 459.63 627.89 458.83 627.69 457.66 627.29 456.69 626.89 456.23 625.99 455.62 625.25 454.79 624.42 454.12 624.45 452.29 624.32 451.52 623.65 450.98 622.68 450.25 621.68 449.21 620.55 448.81 619.68 448.48 617.51 446.61 617.41 445.84 617.34 445.01 616.84 444.24 616.28 443.37 616.38 442.64 616.61 442 615.67 441.67 615.01 441.74 613.97 441.67 613.21 441.97 612.04 442 610.9 441.8 609.33 440.63 607.9 439.5 606.93 439.1 605.8 439.1 602.49 439.13 601.19 439.03 601.04 438.73 600.73 438.13 600.03 437.6 599.66 437.13 599.02 435.29 598.16 434.92 597.29 434.22 596.52 433.15 595.52 431.55 593.69 430.12 593.12 429.88 592.75 430.05 592.08 430.15 590.68 429.85 589.58 429.82 589.05 430.28 588.38 431.08 587.55 430.88 586.01 429.62 585.34 429.42 584.38 429.55 583.48 429.52 582.34 429.28 581.34 428.75 580.44 428.61 579.6 428.68 578.44 428.58 577.14 428.31 576.17 428.18 575.67 428.41 574.7 428.61 573.03 428.25 571.96 427.61 569.63 426.68 568.46 426.64 567.36 426.24 565.99 425.91 564.86 425.64 564.62 425.38 565.06 425.21 565.69 425.04 567.53 425.04 568.83 424.67 569.66 424.22 571.16 424.22 572.56 424.87 573.17 424.84 574.23 424.74 575.33 424.67 576.74 425.14 577.27 425.18 578 424.77 578.54 424.44 579.14 424.31 580.11 424.24 581.21 423.77 582.37 423.67 583.58 423.61 583.94 423.44 584.18 423.14 584.11 422.47 584.14 421.87 583.71 421.6 582.84 421.44 581.77 421.1 579.7 420.4 578.27 420 577.6 420 576.03 419.83 572.7 419.03 572.1 418.83 570.96 418.06 569.83 417.4 568.63 417.56 567.93 417.56 567.26 416.83 566.63 415.96 565.59 416.03 564.86 416.36 563 416.4 559.41 414.66 558.2 414.19 557.92 413.52 557.92 412.87 557.84 411.87 557.62 411.27 557.17 410.99 556.54 410.89 556.09 410.49 555.89 409.54 555.41 408.84 554.64 408.49 553.61 408.19 552.64 408.06 551.71 408.01 550.71 407.79 549.86 407.41 549.13 407.41 548.23 407.51 547.46 407.21 546.3 407.01 545.48 407.56 544.43 407.69 543.58 407.36 543 407.01 541.75 406.94 540.7 406.91 539.9 407.01 539.32 406.81 538.67 406.29 537.57 405.31 537.05 405.26 536.22 405.24 535.67 404.68 534.34 403.56 532.52 402.58 530.99 402.18 528.51 401.73 527.91 401.4 526.56 400.53 525.01 399.9 523.46 399.63 522.1 399.55 521.1 399.13 519.68 398.9 517.68 398.95 516.4 399.05 515.6 398.85 515.17 398.25 514.65 397.52 514.17 396.85 513.5 396.25 512.4 396.25 511.69 396.15 510.97 395.75 510.37 394.89 510.37 394.04 510.12 393.44 509.04 393.04 507.94 392.51 507.39 392.54 506.94 392.74 506.64 393.47 506.86 394.32 507.14 395.09 507.11 396.12 506.66 396.57 505.96 396.95 505.21 396.92 504.94 397.07 504.91 397.47 504.66 397.57 504.29 397.35 503.94 397.35 503.69 397.22 503.06 396.52 502.76 395.85 502.31 395.64 501.43 395.49 500.76 395.27 500.03 394.77 499.36 394.04 498.86 393.24 498.26 392.21 497.83 391.81 497.03 391.29 495.48 390.24 494.33 389.43 493.05 388.56 492.35 388.36 491.42 388.31 490.6 388.21 490.17 387.88 489.9 387.33 489.57 386.51 488.62 386 487.02 385.6 485.84 385.15 485.09 385.1 484.27 384.85 483.67 384.13 482.82 383.68 481.86 383.48 480.81 383.28 480.41 382.7 479.41 382.12 478.79 381.42 477.43 381.07 476.68 381.37 475.78 381.87 475.11 382.02 473.86 381.82 472.83 381.35 472.08 381.27 471.43 381.42 469.58 380.6 468.4 379.94 467.83 379.99 467.17 380.12 465.64 381 464.6 380.35 463.85 379.32 463.05 378.69 461.64 378.19 460.84 378.19 460.27 377.99 459.89 377.19 460.27 376.44 460.99 376.14 461.24 375.66 460.19 375.19 459.67 374.59 459.04 373.86 457.99 373.68 456.81 373.46 455.29 373.26 453.16 372.88 452.18 372.93 451.88 373.36 451.38 374.19 450.53 375.09 449.46 375.54 448.03 375.49 446.63 375.11 446 374.69 445.45 374.16 444.88 373.96 444.4 374.01 443.7 374.61 443.13 375.09 443.11 374.14 443.1 373.81 442.15 373.53 441.57 373.21 440.95 372.96 440.6 372.33 440.55 371.28 440.75 369.85 440.92 368.53 440.37 366.75 439.87 366.65 438.85 366.17 437.82 365.52 436.47 365.32 435.32 365.15 433.44 365.37 432.89 365.72 432.44 365.55 432.69 365.07 432.34 364.75 431.91 364.37 431.14 363.69 430.76 363.17 429.51 362.39 428.26 362.22 427.58 361.87 426.58 360.84 425.93 359.79 425.66 359.09 425.41 359.26 424.78 359.69 423.98 359.96 423.2 360.09 422.15 360.29 420.63 360.36 419.28 360.76 418.45 360.64 416.35 360.41 415.47 360.16 414.95 360.06 414.72 359.79 414.65 359.29 414.35 358.66 414 358.06 414 357.73 413.97 357.06 413.97 356.48 413.52 356.11 412.64 355.78 411.37 355.28 410.77 354.85 410.32 354.13 410.14 354.13 409.62 354.23 409.09 354.33 408.01 354.4 407.26 354.4 406.49 354.3 405.69 354.33 404.94 354.33 404.16 354.28 403.53 354 403.11 353.45 402.43 352.88 401.78 352.65 401.11 352.58 400.58 352.98 400.16 353.63 399.48 354.1 398.71 354.5 398.23 354.48 397.65 354.45 397.2 354.6 396.65 354.93 395.85 355.21 395.18 354.98 394.65 354.6 394.08 354.33 393.83 354.1 393.73 353.68 393.39 353.42 392.65 353.25 391.57 353.35 391.27 353.88 390.97 353.58 390.7 353.1 390.72 352.65 390.77 352 390.32 351.6 389.72 351 389.12 350.47 388.27 349.95 387.62 349.6 386.64 349.47 385.67 349.47 384.72 349.25 384.04 349.07 383.04 349.07 381.64 349.4 380.41 349.47 379.69 349.35 379.36 349.5 378.83 349.85 378.61 350.22 378.08 350.5 377.26 350.85 376.18 351.12 374.83 351.07 373.7 350.72 373.15 350.52 372.58 350.57 371.98 350.95 370.55 351.72 370.38 352.13 370.2 352.68 370.48 353.1 370.73 353.38 370.55 353.98 370.18 354.25 369.68 354.26 368.92 354.15 368.42 354.23 367.7 354 366.85 353.28 366.27 352.28 365.97 351.55 366.1 350.62 366.42 349.82 366.6 349.4 366.1 349.27 365.45 349.2 364.82 349.05 364.32 348.77 363.64 348.34 363.02 348.09 362.39 347.89 362.14 348.19 361.82 348.64 361.49 349.12 360.87 349.4 360.04 349.37 359 349.36 358.16 349 357.56 348.84 356.86 348.84 356.41 348.95 355.76 349.32 355.64 349.12 355.39 348.69 355.44 348.39 355.51 348.02 355.81 347.72 355.96 347.49 356.19 347.17 356.64 346.94 357.44 346.89 357.74 347.02 357.91 347.39 358.36 347.47 358.96 347.47 359.49 347.44 360.04 347.44 359.77 346.82 359.62 346.27 358.84 346.02 357.96 345.61 356.79 344.54 355.89 344.26 354.84 343.94 354.51 343.49 354.08 343.36 353.33 343.61 352.83 343.51 352.51 343.31 352.08 343.24 351.56 343.36 351.16 343.24 350.38 342.96 349.63 342.94 348.98 342.86 348.48 342.51 347.88 342.13 347.5 341.63 347 341.13 346.63 340.63 346.1 340.31 345.5 340.18 344.73 340.03 343.92 339.58 343.3 339.18 343.02 338.6 343.02 338 343.32 337.53 343.67 337.28 343.77 336.98 343.27 336.85 342.55 336.6 342.15 336.25 341.8 336.32 341.17 336.58 340.15 336.48 338.54 336.25 337.09 336.25 336.62 336.05 335.52 335.65 334.49 335.27 333.31 334.8 332.31 334.87 331.44 335.15 330.31 335.42 329.36 335.42 328.08 335.6 326.66 336.02 325.71 336.45 325.61 335.78 325.06 335.4 325.11 335.1 325.51 334.27 325.86 333.95 325.93 333.62 325.96 332.89 326.18 332.44 326.58 332.27 326.73 331.97 326.51 331.64 326.03 331.57 325.28 331.59 324.78 331.79 324.08 331.77 323.05 331.62 322.28 331.42 321.35 331.14 320.65 330.82 320.23 330.79 319.78 331.02 319.5 331.24 319.05 331.32 318.57 331.04 318.15 330.64 317.25 330.42 316.7 330.17 316.42 329.54 315.95 329.46 315.12 329.44 314.14 329.51 312.94 329.51 312.79 330.01 312.57 330.62 312.19 330.64 311.92 330.19 311.79 329.76 311.14 328.86 310.49 328.14 309.59 328.06 308.61 328.19 307.74 328.14 306.61 328.14 305.46 328.09 304.51 327.86 303.48 327.31 302.73 326.86 302.01 326.33 301.58 325.73 300.91 325.03 300.18 324.66 299.18 324.31 298.15 324.08 297.18 324.26 296.4 324.58 295.83 325.33 295.65 325.91 295.18 325.86 294.1 325.86 292.9 325.66 291.67 325.26 290.52 324.86 289.32 324.68 288.32 324.73 287.44 324.71 286.27 324.21 285.32 324.03 284.46 323.7 283.69 323.25 283.06 322.88 281.99 322.78 281.14 322.75 280.01 322.68 279.21 322.8 278.41 322.88 277.46 322.75 277.11 322.25 276.26 321.6 275.71 321.25 275.41 321.28 274.83 322.13 274.28 322.53 273.58 323.05 273.23 323.65 272.53 324.13 272.08 324.78 270.9 325.23 270.55 325.04 270.52 324.53 270.25 323.96 269.79 323.72 269.24 323.45 268.82 323.01 268.45 322.47 267.82 322.18 266.92 322.22 266.1 322.43 265.49 322.09 264.91 322.33 264.27 322.3 263.62 322.53 263.06 322.9 262.56 322.96 262.22 322.83 262.34 322.39 262.27 321.97 262.07 321.67 261.74 321.38 261.28 321.13 260.86 320.89 260.32 320.51 259.95 320.5 259.35 320.7 258.59 320.87 257.8 320.91 256.35 320.9 255.8 320.68 254.76 320.23 253.85 319.79 253.06 319.34 252.63 319.11 252.17 319.07 251.43 319.19 250.62 319.14 249.78 318.83 248.75 318.53 247.52 318.28 246.67 318.24 245.61 318.31 244.77 317.89 244.13 317.48 243.59 316.56 243.15 315.58 243.24 315.14 243.44 314.6 243.57 314.05 243.43 313.58 243.05 313.11 242.24 312.71 241.74 312.16 241.22 312 240.97 312.15 239.79 311.19 238.07 310.3 236 309.69 234.52 309.69 234.37 309.26 234.47 308.83 234.27 308.54 233.97 308.11 233.22 307.32 232.6 306.92 231.55 306.42 230.05 305.95 229.21 306.04 228.73 305.17 228.31 304.92 227.42 304.71 227.21 304.52 227.53 304.2 227.78 304.29 228.36 304.61 228.95 304.74 229.46 304.77 230.26 304.41 230.65 304 231.37 303.57 231.78 303.15 232.48 302.65 233.45 302.1 233.62 301.73 233.54 301.2 233.39 300.36 233.24 299.41 233.2 298.81 232.83 298.29 232.53 297.99 232.03 297.67 231.65 297.19 231.43 296.59 231.07 296.19 230.35 295.96 229.65 295.84 228.61 295.45 228.26 294.9 227.61 293.79 227.18 293.5 226.75 293.53 226.21 293.62 224.96 293.72 223.51 293.57 222.49 293.02 221.31 292.9 220.11 292.48 219.52 292.03 218.34 291.85 217.8 291.58 216.95 291.3 216.45 291.28 216.23 291.58 215.92 291.63 215.25 291.67 215.02 291.58 214.35 291.35 213.62 291.11 213.08 291.08 212.68 291.05 211.98 291.25 211.5 291.65 211.35 291.43 211.43 291.08 211.78 290.75 212.18 290.43 212.33 290.11 212.46 289.34 213.08 288.94 213.1 288.38 212.98 287.61 212.63 286.82 212.71 286.14 212.88 285.4 212.88 284.25 212.65 283.77 212.05 283.3 211.95 282.95 211.95 282.35 212.03 281.42 212.15 280.95 212.33 280.76 212.55 280.5 212.65 280.35 212.91 279.93 213.3 279.68 213.92 279.68 214.43 279.56 214.75 279.26 214.77 278.64 214.7 277.81 215.27 277.23 215.75 276.86 215.95 276.52 216.13 275.97 216.12 275.29 215.97 274.6 215.4 273.9 214.88 273.32 213.98 272.78 212.8 272.53 211.83 272.48 211.16 272.27 210.05 271.72 209.54 271.7 208.68 271.93 207.99 271.95 206.88 271.55 205.64 271.05 204.57 270.46 203.4 270.11 202.44 270.05 201.14 270 199.7 270.05 198.88 269.68 198.37 269.26 197.75 268.83 197.48 268.85 196.51 268.91 194.98 268.98 194.1 268.78 193.63 268.76 192.78 268.83 191.96 268.9 191.39 269.15 191.08 269.63 190.58 270 189.94 270.05 189.14 270.18 188.47 270.56 187.92 271.05 187.11 271.78 186.67 271.82 185.17 272.2 184.35 272.87 184.25 273.25 184.59 273.75 184.35 274.77 183.72 275.44 182.83 276.26 181.97 276.26 181.18 275.72 180.9 275.16 180.5 275.01 179.45 275.53 179.21 275.66 178.75 275.61 177.83 275.57 176.81 276.19 176.18 276.17 175.39 276.24 174.87 276.07 174.42 275.9 173.11 275.79 172.61 275.96 172.04 276.03 171.36 275.86 170.73 275.48 170.34 275.16 170.2 275.27 169.82 275.46 169.36 275.59 168.78 275.59 167.76 275.28 166.83 274.75 166.27 274.61 165.66 274.45 165.13 274.16 165.35 273.87 165.11 273.51 164.37 273.11 163.79 272.61 164.82 272.72 165.19 272.56 165.29 272.06 165.09 271.78 164.67 271.68 163.95 271.57 163.31 271.52 162.71 271.13 162.3 270.88 161.58 270.97 160.92 270.96 160.23 270.88 159.93 270.46 160.01 269.83 160.29 269.57 161.06 269.19 162.1 268.78 162.3 268.98 162.6 269.14 163.02 269.19 163.36 269.1 163.87 268.93 164.23 268.86 164.77 269.03 164.99 269.37 165.57 269.37 166.61 269.35 167.37 269.55 167.68 269.34 168.74 268.97 169.44 268.99 170.04 268.87 170.65 268.5 171.25 267.95 171.75 267.63 172.32 267.63 172.55 267.63 172.85 267.43 173.25 267.43 173.37 267.51 173.41 267.7 173.77 267.64 174.06 267.48 174.39 267.52 174.48 267.71 174.88 267.75 175.76 267.68 176.55 267.04 177.51 266.13 178.29 265.39 178.83 264.96 180.1 264.26 181.37 263.46 183.26 262.72 185.13 262.14 186.53 261.93 187.44 261.87 187.66 261.57 187.39 261.13 187.27 260.83 187.6 260.79 188.54 260.86 189.34 260.94 190.5 260.78 191.69 260.58 191.97 260.16 192.41 259.68 193.09 259.4 193.61 258.9 193.85 258.35 194.1 257.56 194.53 257.2 195.04 257.11 195.72 257.35 196.46 257.19 197.09 256.8 198.11 256.06 199.31 255.42 200.47 255.02 201.47 254.78 202.12 254.44 202.38 254.01 202.3 253.57 201.94 253.25 201.98 252.69 202.53 252.47 202.5 252.16 202.78 251.8 203.04 251.27 203.54 250.54 204.03 250 204.03 249.51 203.94 249.12 203.5 248.57 203.2 248.13 202.88 247.88 202.66 247.56 202.88 247.33 203.2 247.02 203.61 246.78 204.1 246.45 204.35 246.14 204.55 245.86 204.59 245.54 204.63 244.97 204.67 244.15 204.69 243.78 205.03 243.3 204.99 242.96 204.9 242.3 204.73 241.66 204.95 241.23 205.45 240.4 205.85 239.46 206.13 239.12 206.69 238.45 207.26 238.1 207.9 237.88 208.32 237.64 208.72 236.89 208.8 236.39 208.56 235.81 208.22 235.43 207.56 234.9 206.58 233.87 206.45 233.46 206.51 232.69 206.82 231.85 206.89 231.56 206.55 231.05 206.61 230.02 206.92 229.62 207.28 228.83 207.94 227.85 208.85 226.91 209.06 226.08 209.36 225.07 209.98 223.24 210.19 222.28 210.33 221.6 210.56 221.02 210.83 220.46 210.57 220.15 210.35 219.69 210.43 219.27 210.61 218.97 211.01 218.7 211.11 218.38 211.23 217.59 211.28 216.71 211.48 216.45 211.88 216.05 212.37 215.52 212.65 214.65 212.64 213.86 212.41 213.52 211.72 213.24 210.95 213 210.25 212.65 209.88 212.13 209.56 211.34 209.45 210.36 209.01 209.82 209.04 208.99 209.12 208.94 209.57 208.84 209.98 208.68 210.39 208.42 210.83 208.03 211.09 207.63 211.16 207.24 211.13 206.87 211.03 206.44 210.88 206.06 210.84 204.94 210.64 204.26 210.23 203.91 209.88 203.73 209.98 203.38 210.53 203.11 211.03 203.06 211.48 203.02 211.75 202.78 212.12 202.37 212.12 201.9 212.19 201.27 212.23 200.62 212.29 200.43 212.67 200.27 213.13 200.06 213.48 199.72 213.6 199.37 213.72 198.85 213.58 198.52 213.15 198.11 212.65 198.01 212.03 197.95 211.4 197.85 211 197.61 211.03 197.16 211.05 196.73 211.32 196.37 211.31 196.14 211.11 195.66 210.72 195.42 209.85 195.5 209.1 195.67 208.3 195.81 206.67 195.92 205.86 195.92 205.43 196.18 204.41 196.41 203.87 196.4 203.46 196.21 203.28 195.81 203.06 195.18 202.67 195.06 201.92 194.79 201.04 194.22 200.12 193.51 199.4 193.07 198.41 192.88 197.83 192.51 197.88 192.06 196.62 191.29 196.17 190.99 195.53 190.75 194.9 190.53 194.4 190.25 193.9 189.84 193.38 189.41 192.9 189.01 192.39 188.96 191.82 188.92 191.22 189 190.53 189.08 189.78 189.2 189.06 188.96 188.48 188.65 187.76 188 187.04 187.05 186.8 186.83 186.49 186.74 186.11 186.77 185.6 186.82 185.15 186.79 184.81 186.5 184.65 186.14 184.69 185.55 184.4 185.27 183.79 184.94 182.76 184.31 180.49 182.25 180.13 181.91 179.63 181.77 179.25 181.48 179.15 181.12 178.75 180.25 178.62 179.42 178.77 179.17 178.81 178.97 178.25 178.69 177.75 178.43 177.5 178.05 177.49 177.67 177.45 175.91 177.47 172.9 177.04 172.52 177 172.13 176.88 171 176.74 169.98 176.46 169.47 176.26 169.07 176.78 168.6 177.03 167.68 176.8 167.52 176.35 167.42 174.95 167.43 174.78 167.02 174.91 166.51 174.59 165.57 174.06 164.5 173.07 163.72 172.2 163.09 171.71 163.05 171.67 162.78 171.56 162.35 170.49 161.77 170.46 161.5 170.51 160.57 170.42 160.26 169.94 160.04 169.62 159.78 170.02 159.1 170.02 158.71 169.01 157.45 168.46 156.88 168.32 156.56 168.44 155.9 168 155.12 166.75 153.91 166.79 153.13 166.65 152.22 166.05 151.15 165.31 150.31 163.72 149.67 162.71 149.67 161.46 148.86 161.44 148.56 161.38 148.21 161.06 148.19 160.92 148 160.92 147.61 160.72 147.34 160.37 147.34 160.28 147.17 160.35 146.45 160.57 146.09 160.88 145.39 160.78 144.65 160.2 144.34 159.63 144.09 158.47 143.87 157.39 143.35 157.39 142.76 157.88 142.64 158.53 142.44 159.09 142.16 159.52 141.75 159.51 140.99 159.65 140.65 159.96 140.05 160.56 139.56 160.76 138.32 160.49 137.64 159.84 137.1 159.56 136.61 159.17 135.78 157.89 134.48 157.25 134.23 157.02 133.66 156.12 133.2 154.42 132.01 153.79 131.91 153.34 131.48 152.81 130.57 152.02 130.12 150.7 129.01 149.51 128.86 148.63 128.99 147.63 128.41 147.56 128.09 147.51 127.3 147.04 126.68 145.69 125.63 144.13 124.99 143.33 124.57 142.84 124.08 142.53 123.19 141.16 122.52 139.87 122.14 139.09 122.24 137.73 122.97 136.86 123.67 135.3 123.76 134.88 123.57 135.79 123.33 136.67 122.56 137.08 122 137.26 121.17 136.99 120.25 136.19 119.45 135.18 118.94 134.78 118.35 134.55 117.51 134.52 116.74 134.24 115.95 133.89 115.64 133.57 115.61 133.19 115.81 132.93 116.23 132.73 116.68 132.51 116.28 131.24 115.41 130.84 114.84 130.7 114.18 130.58 113.09 130.81 111.91 130.57 111.21 129.92 110.34 129.05 109.72 128.21 108.55 127.13 107.56 126.11 106.64 125.49 106.48 125.11 106.84 124.91 107.25 124.9 107.91 124.93 108.56 124.46 109.19 123.2 109.47 122.56 109.42 120.47 109.44 119.1 109.54 118.89 109.55 118.74 109.68 118.28 110.09 117.89 110.03 117.72 109.37 118.55 108.82 119.08 108.01 119.35 107.81 119.81 107.61 120.28 107.48 120.75 107.35 121.35 107.21 121.62 106.88 121.82 106.21 122.02 105.28 122.42 104.81 122.42 104.34 122.02 103.81 121.48 103.07 120.81 102.21 119.81 101.4 118.88 101.14 118.21 100.74 116.88 100 115.21 99.07 113.61 98.6 112.27 98.73 110.2 98.73 107.67 98.27 106.27 97.8 104.13 97.53 101.66 97.4 99.13 97.53 98.06 97.53 97.66 97.8 96.19 98.27 94.52 98.53 92.99 99.07 91.72 98.73 90.65 98.53 89.52 98.6 88.78 98.87 87.78 99.87 87.4 99.84 86.98 99.8 86.31 99.6 85.75 98.74 86.35 97.98 86.79 97.3 87.09 97.1 87.29 96.4 86.99 95.45 86.39 94.15 84.73 91.9 83.98 90.84 82.48 88.44 80.93 86.39 81.03 85.94 80.73 84.53 80.73 83.73 80.38 82.83 79.58 82.08 78.88 81.83 78.23 81.33 77.53 80.68 76.73 79.98 76.23 79.53 75.98 80.23 75.53 79.88 74.77 79.43 74.12 79.28 73.82 78.98 74.12 78.42 74.67 78.22 74.87 77.92 74.37 77.52 73.37 76.87 72.32 76.12 70.77 75.07 69.67 73.72 69.47 73.12 69.77 72.16 69.42 71.76 68.62 71.51 67.42 71.21 67.12 70.21 66.32 69.86 64.76 69.56 63.01 68.96 61.76 68.21 60.31 66.41 59.61 66.76 58.31 65.7 58.11 64.95 57.16 64 49.8 64.65 49.2 65.05 48.3 64.95 47.55 64.9 45.34 64.8 44.34 64.55 43.24 64.3 42.14 64.15 41.24 63.95 40.39 63.6 39.69 63.25 38.84 62.75 38.34 63.15 37.49 63.2 36.69 63 35.94 62.6 35.53 61.95 34.88 61.45 34.08 60.85 32.98 60.2 31.73 59.69 30.48 59.44 29.08 58.94 28.18 58.29 26.58 58.64 25.62 58.84 23.07 59.74 20.42 59.09 18.02 57.54 15.26 56.04 12.51 54.99 9.66 54.79 7.74 53.91 5.3 52.78 2.95 51.56 2.6 51.38 1 49.98 1.3 49.98 2.4 49.98 3.6 49.93 4.44 49.9 4.85 49.88 6.11 49.53 7.46 49.23 9.06 49.03 9.96 48.58 11.51 48.78 12.96 48.78 15.46 49.18 16.27 49.23 18.02 49.48 18.92 49.93 19.47 50.63 20.47 51.33 21.52 52.08 22.47 52.08 23.27 52.13 24.17 51.73 24.87 51.08 24.62 50.63 24.07 50.38 23.67 49.93 24.07 49.28 24.92 48.83 26.13 48.83 26.93 48.83 27.58 48.43 28.63 47.48 29.48 47.32 30.28 47.42 31.28 47.42 32.68 47.42 34.03 47.22 35.33 46.87 37.19 46.87 39.09 46.77 40.99 47.17 42.99 47.83 43.59 47.93 44.49 47.83 44.79 47.42 45.04 46.87 45.6 46.97 45.8 47.42 46.2 47.58 46.75 47.63 47.15 47.63 47.85 48.78 49.2 49.03 50.1 49.23 51.4 49.43 52.7 49.43 53.85 49.33 55.31 49.18 56.86 49.23 59.21 48.93 59.96 48.98 60.21 48.63 60.26 47.63 60.21 47.02 60.06 46.52 59.81 45.87 60.21 45.82 60.61 45.92 61.26 45.97 61.76 45.77 62.22 45.77 62.51 45.77 62.56 46.37 62.81 47.58 63.41 48.68 64.41 50.38 64.81 51.38 65.57 52.13 66.92 52.63 68.82 53.48 69.57 53.84 70.37 54.69 70.42 55.14 70.92 56.49 72.07 58.29 73.62 60.6 75.28 61.7 76.73 62.65 77.88 63.8 78.18 64.95 78.93 66.66 79.88 68.21 81.38 69.16 82.28 69.56 83.38 69.66 83.93 69.31 84.43 69.81 85.19 70.81 85.99 71.76 87.14 72.77 89.09 73.17 90.59 73.87 92.24 74.87 94.85 76.97 96.15 78.37 97.25 80.08 97.75 79.88 98.85 80.53 99.05 81.08 99.15 81.83 99.8 82.73 101.65 83.83 106.56 85.99 107.51 85.74 108.31 85.44 108.51 85.89 108.56 86.14 108.51 86.69 109.26 86.99 110.11 86.89 110.81 86.59 111.26 87.29 111.36 87.89 112.11 89.19 113.56 90.49 115.47 92.05 117.72 93.05 121.82 94.65 123.02 95.05 124.73 95.15 126.58 95.3 128.58 95.5 130.48 95.85 131.03 96.35 132.23 97 134.79 98.16 138.69 100.46 140.54 101.81 143.74 104.27 147.35 107.87 151.75 110.93 152.25 111.33 152.3 111.98 152.65 112.18 153.55 112.28 154.66 112.28 155.71 112.13 156.36 112.68 155.91 112.93 155.36 113.18 155.66 113.63 156.51 114.08 157.31 114.08 158.96 113.93 159.46 114.08 159.81 114.53 160.16 115.43 160.31 115.93 161.11 116.84 161.81 117.64 162.81 118.09 164.07 118.34 165.62 118.24 166.87 117.69 167.47 117.14 168.07 117.14 168.22 117.44 168.22 117.84 168.27 118.29 170.62 118.84 172.02 119.24 173.83 119.89 176.18 119.64 178.03 119.34 179.88 119.39 181.23 119.49 182.13 120.39 184.04 121.89 185.49 123.3 186.44 125.15 187.34 127.1 187.94 128.15 191.54 130.96 191.79 131.71 192.19 132.41 193.34 132.76 194.95 133.26 196.3 133.56 196.6 134.11 197.05 134.76 198.1 134.71 199.05 134.71 199.8 134.97 201.45 135.87 202.75 136.12 204.21 136.22 205.61 135.72 206.76 135.17 207.31 134.01 207.11 133.41 207.46 133.16 207.36 132.56 206.76 132.16 207.01 131.41 207.76 131.36 208.01 131.06 208.01 130.41 207.71 129.31 207.21 128.25 207.31 127.5 207.76 126.2 207.21 125.25 206.16 124.25 204.82 123.96 203.7 122.94 203.66 122.24 203.4 121.74 203.15 121.14 203.1 120.04 202.85 119.19 202.4 118.19 201.65 118.29 201 118.29 200.1 118.14 199.25 118.04 198.1 117.79 197.1 117.64 196.6 117.04 195.75 116.44 195.3 116.49 194.6 115.83 194.55 114.68 194.25 114.08 193.7 113.73 192.84 113.63 192.79 112.58 192.94 111.43 192.59 110.18 192.24 109.72 191.99 109.17 192.14 108.87 192.59 108.37 192.99 107.67 193.49 107.07 194.05 106.17 194.05 105.52 193.8 104.87 193.44 104.27 193.7 103.97 194.15 103.51 194.6 103.21 194.65 102.61 194.7 102.11 195.3 101.81 195.5 101.36 195.5 100.86 195.05 100.21 194.8 99.71 194.6 98.76 193.7 98.32 193.18 98.11 192.81 97.91 192.28 97.64 191.64 97.28 191.01 97.04 190.51 96.74 190.64 96.31 191.18 96.27 192.71 96.41 193.51 96.37 194.56 96.65 195.25 96.75 195.55 96.75 196.55 96.5 197.05 95.7 196.9 94.85 196.95 92.85 196.95 92 197.25 91.65 197.05 91.2 196.75 90.79 196.45 90.19 197.1 90.09 197.95 90.04 198.6 89.69 198.95 89.24 198.8 88.39 199.45 88.19 200.65 87.99 201.85 87.44 202.2 86.59 202.1 85.74 202.1 85.04 202.4 83.93 203.2 82.73 203.81 81.73 204.61 80.68 205.66 79.63 206.96 79.03 208.01 78.57 208.46 78.22 208.71 77.82 208.31 76.97 208.26 76.22 208.36 75.57 208.21 75.12 207.86 75.17 207.01 75.47 205.71 75.87 204.87 75.69 203.72 76.41 202.69 76.51 201.09 76.54 202.05 76.24 202.14 76.21 202.85 75.94 203.69 75.51 204.46 74.84 205.33 74.55 206.01 74.37 206.36 74.17 206.91 73.77 207.56 73.42 207.86 73.12 207.71 72.57 207.31 71.91 206.61 71.01 205.91 70.41 205.86 69.91 205.56 69.06 205.16 68.26 204.56 67.81 204.06 67.46 203 67.31 203.46 66.71 203.96 66.21 203.35 65.6 202.1 63.55 202.25 63.05 201.05 62.25 200.15 61.2 199.05 59.64 198.9 58.64 198 57.99 197.15 57.19 196.1 55.99 196.05 55.44 196.3 54.49 196.15 54.29 195.35 53.48 194.65 52.73 193.9 51.38 192.84 49.43 192.39 48.18 191.79 46.77 191.84 45.97 191.04 45.12 188.54 43.82 186.94 42.62 186.29 41.72 186.38 41.45 186.44 41.27 186.99 41.16 187.79 41.27 188.54 41.27 189.49 41.27 190.04 41.32 191.49 42.17 191.94 43.02 192.74 43.37 193.29 43.47 194.15 43.47 194.9 44.02 195.3 45.82 195.2 46.97 195.4 48.28 195.9 49.73 197.2 50.98 198.45 51.98 199.35 52.58 199.7 53.18 200.2 54.89 200.6 56.04 201.25 57.24 202.25 58.54 203.25 59.39 204.66 60.65 204.81 61.5 205.26 62.3 206.01 62.5 207.31 62.45 207.96 62.35 208.41 61.95 208.66 62 208.71 62.7 208.96 63.75 209.41 64.55 210.61 65.4 210.96 66.46 211.51 68.26 212.06 68.76 212.86 68.81 215.17 69.21 215.57 68.86 216.22 68.31 216.17 68.71 215.62 69.86 216.27 70.71 217.92 70.71 219.12 70.06 220.02 69.51 221.57 69.46 223.02 69.36 223.68 69.71 225.08 69.71 227.53 69.11 228.78 68.31 228.98 67.16 229.63 66.91 231.28 65.7 233.54 64.15 234.79 62.35 235.74 60.1 236.27 60.82 237.19 62.05 235.34 64.05 233.74 66.41 232.58 67.96 232.23 70.51 232.33 71.81 233.09 73.12 234.04 74.77 234.69 76.67 234.99 78.02 235.14 79.38 235.84 80.03 236.99 80.18 237.94 80.08 240.19 80.13 241.64 80.13 242.34 79.98 242.74 80.43 243.65 80.63 245.1 80.98 247.2 81.08 249.45 81.03 251.1 80.83 252.05 80.33 252.3 79.68 252.6 78.62 253.06 77.42 253.56 77.17 254.41 76.82 255.01 76.27 255.71 75.62 256.06 75.12 256.41 74.07 256.71 72.16 256.61 70.91 257.71 66.56 258.46 65.55 259.21 65 259.61 63.7 259.96 62.85 260.76 62.15 261.21 61.7 261.46 61.05 261.61 60.35 261.81 59.94 262.01 59.34 262.61 58.84 263.82 57.79 263.82 57.39 264.22 55.14 264.82 54.49 265.92 53.68 266.57 53.33 266.92 52.38 267.57 51.98 268.27 51.63 268.52 50.88 269.12 48.18 269.22 47.02 268.92 46.42 268.37 45.42 267.72 44.07 267.17 42.12 267.22 41.01 267.52 39.91 267.52 39.41 267.07 38.31 267.72 37.56 268.57 36.26 268.57 35.71 267.82 34 266.92 32.45 266.47 31.25 265.42 26.24 265.22 25.09 264.82 23.49 264.67 21.98 264.72 21.33 265.17 20.33 265.92 19.13 266.22 18.28 266.97 17.28 267.72 16.07 267.12 15.17 266.27 14.12 265.82 12.72 265.77 10.77 266.07 8.51 266.87 7.71 268.22 6.01 269.42 4.16 271.82 3.05 272.68 2.25 273.43 1 274.73 1.08 275.18 1.1 277.08 1.45 277.53 2.15 277.38 3.55 273.83 7.67 273.25 9.12 273.33 10.8 273.58 12.42 274.25 14.3 275.28 16.31 275.28 17.28 274.83 18.66 273.85 20.09 273.2 20.41 272.35 20.64 271.17 21.61 270.55 22.21 269.92 23.49 269.85 23.87 270.15 25.12 270.37 25.9 270.75 26.67 271.52 27.25 272.22 27.8 273.05 28.37 273.63 28.95 274.15 29.68 274.98 30.4 275.65 30.88 276.83 31.63 277.63 31.93 278.43 31.88 278.88 31.55 279.33 31.15 279.88 31.18 280.36 31.3 280.61 31.48 280.83 31.78 281.16 31.78 281.43 31.75 281.68 31.6 281.73 31.48 281.63 31.33 281.23 31.08 280.71 30.83 280.28 30.5 280.33 30.15 280.63 30.03 281.06 29.88 281.26 30.2 281.48 30.33 281.86 30.33 282.18 29.68 282.96 29.87 283.29 29.95 283.01 30.7 282.64 31.33 282.69 31.5 282.84 32.26 282.21 32.53 281.18 32.98 280.48 33.03 279.73 33.13 279.21 33.23 278.91 34.16 278.78 34.81 279.28 36.04 279.31 37.16 279.18 37.86 278.76 38.27 277.76 38.97 277.05 39.47 276.73 40.02 276.4 40.62 275.45 41.04 274.45 41.32 273.85 41.55 273.75 41.8 273.85 42.65 274.1 43 274.83 43.62 275.78 44.5 276.63 44.95 276.83 45.4 276.95 45.83 278.93 48.21 279.31 48.73 279.93 49.08 280.81 49.13 280.98 49.36 281.16 49.73 281.58 50.01 282.26 50.08 282.94 50.13 283.26 50.36 283.96 50.43 285.14 50.46 285.49 50.33 286.01 50.01 286.46 50.03 286.61 50.44 286.61 50.46 287.14 50.61 287.79 50.64 288.19 50.36 288.62 50.21 289.14 50.26 289.72 50.36 289.37 50.56 288.92 50.61 288.37 50.94 287.31 51.19 286.96 51.04 286.61 51.01 285.61 51.11 284.76 51.29 283.54 51.56 282.43 51.66 282.06 51.79 281.33 52.71 281.18 52.94 281.18 53.54 281.11 54.32 280.71 55.17 280.08 55.97 279.38 57.22 278.73 57.92 278.06 58.4 277.45 58.75 277.81 59.15 278.73 59.2 279.16 59.1 280.06 58.62 280.68 58.35 281.36 57.97 281.81 57.35 282.08 57.3 282.21 57.55 281.91 58.32 281.13 59.27 280.26 59.72 279.31 60.13 278.03 60.3 275.85 60.38 275.1 60.45 274.68 60.68 274.48 61.28 274.7 61.98 275.2 62.6 275.55 63.11 275.5 63.43 275.18 63.58 274.6 63.36 273.63 63.13 273.15 62.85 272.7 62.8 272.45 63.11 272.32 63.78 272.37 64.83 271.45 66.61 270.62 67.91 270.32 68.56 270.35 68.84 270.7 69.01 271.2 69.04 271.85 68.81 273.45 68.24 273.9 68.09 274.68 68.16 275.2 68.29 275.43 68.51 276.13 68.84 276.93 68.86 277.91 69.01 278.98 68.94 279.33 68.74 279.71 68.34 280.23 68.06 280.88 67.81 281.36 67.81 281.76 68.01 282.38 68.29 282.86 68.29 283.61 68.34 283.76 68.06 284.36 67.99 284.56 68.26 285.14 68.49 285.74 68.4 286.73 68.88 286.39 69.09 286.04 69.31 286.04 69.99 285.79 70.34 285.46 70.42 285.09 69.99 284.74 69.67 284.11 69.67 283.29 69.54 282.59 69.38 282.41 69.34 281.41 69.19 280.9 69.51 280.41 69.82 279.38 70.37 278.41 70.74 277.56 70.99 277.05 71.19 276.78 71.47 276.3 71.47 275.85 71.32 275.5 70.89 275.03 70.84 274.43 70.87 274.03 71.09 273.35 71.17 272.37 71.22 271.85 71.47 271.07 72.09 270.1 72.5 269.3 72.62 268.45 72.8 268.4 73 268.42 73.5 268.77 73.57 269.32 73.77 269.57 74.1 269.45 74.37 268.47 74.72 267.59 74.77 267.12 75.07 266.97 75.93 267.02 76.48 266.77 77 265.39 77.75 264.72 78.18 264.48 78.51 264.38 78.98 264.62 79.41 264.22 79.65 263.12 79.95 263.32 80.72 263.35 81.52 262.82 81.72 262.11 81.95 261.18 82.29 260.15 82.72 258.44 83.45 258.01 84.19 257.64 85.09 256.84 85.62 255.91 86.19 253.34 87.69 251.74 88.16 249.54 88.2 246.8 87.79 246.3 87.29 245.3 86.39 244.26 86.29 242.09 86.29 240.43 86.59 239.06 87.19 235.65 87.36 235.62 87.16 235.32 86.53 234.79 86.16 233.99 85.76 233.42 85.59 232.82 85.62 232.15 85.82 231.38 85.52 230.65 85.39 230.02 85.09 229.75 84.56 229.08 84.32 228.71 84.02 228.35 83.35 227.95 82.22 227.68 81.12 227.41 80.92 226.75 80.72 226.21 80.72 225.58 80.65 225.11 80.35 224.44 79.61 223.78 79.28 222.57 79.01 221.81 78.95 220.41 79.78 219.14 80.35 218.27 80.28 216.84 80.25 215.47 80.48 214.7 80.72 213.26 81.38 212.33 82.19 209.86 84.16 208.13 85.62 206.59 87.39 205.72 87.66 204.89 88.16 204.26 89.36 204.19 90.87 204.84 91.68 205.39 91.93 205.86 92.17 204.62 92.7 204.15 92.98 203.71 93.42 203.75 93.94 203.71 94.78 203.42 95.32 202.98 95.95 203.13 96.61 203.76 96.84 203.82 98.2 203.47 98.35 203.07 98.57 202.77 99.22 202.77 99.97 203.02 100.42 202.92 100.84 202.24 101.2 201.85 101.9 201.85 103.11 202.02 104.26 202.57 105.81 203.05 107.1 204.01 108.33 204.84 109.13 205.96 109.15 207.71 109.58 212.81 110.6 213.78 110.82 214.55 111.2 215.58 111.54 216.84 112.05 217.57 112.12 218.35 111.74 218.77 111.29 219.19 111.2 219.99 111.04 220.76 110.77 221.42 110.37 222.21 109.23 222.71 108.87 223.48 108.98 224.14 109 225.38 108.95 225.88 108.83 225.88 109.1 225.49 109.85 225.14 109.98 224.26 110.17 223.44 110.47 222.94 111.42 222.11 112.25 221.11 113.24 220.44 113.72 220.46 114.29 220.14 114.81 219.07 115.21 218.89 116.16 218.92 117.06 219.04 117.75 219.24 118.43 218.9 119.17 218.65 119.83 218.7 120.75 218.35 122.34 218.52 123.06 219.25 123.07 219.96 123.02 221.99 123.71 222.09 123.99 221.64 124.26 220.91 124.31 220.02 124.47 219.24 124.76 218.54 125.02 218.25 125.74 218.07 126.51 217.95 127.61 218.29 128.2 219.19 129.63 220.11 130.45 219.94 130.57 219.57 130.57 219.07 130.68 218.4 130.92 217.49 131.49 216.97 132.19 216.75 133.15 216.6 134.82 216.77 137.26 217.25 139.18 217.89 139.33 218.35 139.51 218.34 139.87 217.97 140.57 217.27 140.92 216.15 141.03 215.45 141.05 215 141.68 215.08 142.75 214.47 144.16 213.55 146.36 212.78 148.4 212.85 150.43 213.67 150.78 214.35 151.07 214.63 151.42 214.38 151.78 214.13 151.88 213.53 152.02 212.86 152.15 212.33 152.45 211.35 153.02 210.66 154.02 209.96 155.21 209.84 156.09 210.2 157.78 211.7 160.87 212.15 161.67 212.43 162.33 212.35 163.05 212.13 163.77 212.03 164.66 212.51 165.66 213.08 166.01 214 166.46 214.42 166.83 214.92 168.48 215.12 169.36 216.69 170.68 217.39 171.45 217.6 172.27 217.72 173.34 217.82 174.59 218.25 175.39 218.7 176.02 220.01 176.71 221.21 177.24 222.29 177.36 223.23 177.18 224.11 176.44 224.61 176.51 224.53 176.96 224.36 177.53 224.63 177.86 225.71 177.96 226.7 178.41 227.76 178.34 228.36 178.11 228.68 178.21 229.05 178.64 228.98 179.26 229.71 179.63 234.67 181.48 236.07 182.22 237.09 182.22 238.32 182.1 240.53 182.48 242.16 183.34 243 184.2 243.28 184.75 243.43 184.97 244.13 185.14 245.25 185.07 245.63 184.72 246.23 184.2 247.35 184.24 248.33 184.12 248.98 183.77 249.8 182.93 250.15 182.38 250.44 182.52 250.49 182.33 250.49 182.27 250.44 181.6 250.22 181.21 249.64 181.35 249.95 180.9 250.22 180.31 250.54 180.21 251.1 180.08 251.74 179.3 251.99 178.51 251.99 177.64 251.77 176.44 251.89 175.76 252.19 175.64 252.55 175.72 253.19 176.16 253.66 176.42 254.71 177.51 255.22 177.71 255.89 177.43 256.68 176.91 257.18 177.18 257.71 177.58 258.51 178.33 259.34 178.81 260.71 178.58 261.55 177.46 261.8 176.62 262.98 176.07 263.88 175.21 265.42 174.77 265.93 174.49 266.67 174.17 266.67 173.79 266.47 173.3 265.1 172.37 264.53 172.25 263.92 172.12 263.88 171.93 264.2 171.57 264.67 171.27 265.15 171.23 265.93 171.23 266.54 171.37 267.34 171.37 267.77 171.27 268 170.97 268.27 170.41 268.32 169.77 268.32 169.02 268.61 168.85 268.82 168.9 269.41 168.9 269.78 168.56 270.07 167.81 269.91 167.27 268.82 166.56 268.34 166.13 268.53 165.39 268.95 165.35 269.59 165.47 270.59 165.22 270.94 164.71 271.1 163.9 271.1 162.93 270.95 162.18 270.62 161.83 270.5 161.43 270.62 160.91 271.04 160.36 272.29 160.09 273.17 159.72 273.74 159.09 274.11 158.72 274.22 157.4 274.26 156.9 274.16 156.2 273.71 155.8 272.74 155.28 271.7 154.68 271 154.42 270.62 153.83 270.27 153.65 270.12 153.35 270.35 152.75 270.95 152.56 271.15 151.89 271.77 151.51 272.27 151.81 274.26 151.89 274.04 152.5 274.31 152.9 274.71 153.3 275.21 153.41 275.66 153.28 275.96 153.06 276.43 152.28 276.96 151.26 277.29 150.56 277.18 149.42 275.84 147.65 276.03 146.3 275.68 146.04 275.91 145.93 276.34 146 276.71 146.14 277.08 146.44 277.39 146.74 278.18 146.7 279.08 146.42 279.4 145.93 279.38 145.32 278.95 144.35 277.96 143.81 277.78 142.86 277.23 142.4 277.56 142.45 278.23 142.65 278.56 142.85 279.06 142.55 279.56 143.06 280.18 143.73 281.1 144.67 282.13 145.32 283.18 145.6 284 145.45 284.6 145.07 285.42 144.27 286.09 143.31 286.09 142.43 285.97 141.23 285.85 140.86 285.47 140.04 284.98 139.09 285.17 138.32 285.5 137.59 285.99 137.2 286.3 136.62 286.37 136.02 286.22 135.7 285.47 135.52 284.2 135.53 282.82 135.32 281.66 135.37 280.58 135.6 280.15 135.95 279.61 136.3 279.15 136.69 278.7 136.89 278.53 136.65 278.44 136.17 278.19 135.94 277.76 135.58 277.44 135.13 277.59 134.77 278.18 134.75 278.81 134.78 279.15 134.67 279.25 134.42 279.46 134.4 279.78 134.53 279.81 134.3 280.13 133.9 279.95 133.62 280.15 133.58 280.58 133.68 281.03 133.72 281.7 133.68 281.92 133.38 282.53 133.25 283.1 133.15 283.53 133.15 283.75 133.33 284.1 133.41 284.42 133.26 284.45 133.03 284.38 132.66 284.53 132.65 285.2 132.65 286.14 132.65 287.05 132.88 287.64 132.83 287.94 132.41 288.39 132.38 288.57 132.56 288.61 133.23 288.86 133.31 288.92 133.53 289.31 134.03 289.62 134.57 289.91 134.93 290.14 135.27 290.61 135.3 291.01 135.32 291.42 134.82 292.13 134.27 292.21 133.63 292.19 133.03 292.41 132.66 293.14 132.25 293.68 131.36 294.44 129.66 294.54 128.51 294.34 127.27 293.59 126.19 293.31 125.3 293.33 124.27 292.26 123.48 292.84 123.33 289.64 121.15 289.32 120.29 288.3 119.98 287.65 118.84 287.19 117.34 288.47 117.41 289.59 118.91 290.44 120.31 290.92 120.61 291.54 120.93 292.53 121.4 294.13 122.03 294.96 122.2 295.26 121.96 295.44 122.03 295.36 122.64 295.56 123.72 296.21 124.54 296.64 125.47 296.99 125.87 297.81 126.09 298.26 125.99 298.49 125.97 298.74 126.07 298.69 126.32 298.31 126.8 298.16 127.15 298.14 127.5 298.67 127.7 298.99 127.7 298.77 128.57 298.94 129.6 299.12 130.33 299.77 130.93 300.34 130.9 301.09 130.65 301.62 130.38 302.14 130.13 302.34 129.83 302.62 129.53 304.87 128.57 305.65 128.52 306.57 128.6 307.15 128.47 307.57 128.27 307.82 127.95 307.85 127.87 308.45 127.92 308.83 127.9 309.13 127.67 309.5 127.45 309.8 127.4 310.23 127.4 310.45 127.32 311.35 126.72 311.83 126.55 312.05 126.17 312.05 125.59 312.35 125.57 312.65 125.64 313.13 125.67 313.48 125.57 313.86 125.37 314.23 125.27 314.61 125.22 315.13 125.29 315.56 125.24 315.73 125.14 315.93 124.92 316.48 124.97 316.76 125.04 317.38 125.14 317.86 124.89 318.14 124.72 318.06 124.47 318.03 124.24 317.96 123.99 318.03 123.89 318.21 123.99 318.64 123.99 318.99 123.92 319.36 123.82 319.71 123.62 319.89 123.44 320.59 123.52 321.04 123.49 321.34 123.49 321.66 123.49 321.89 123.39 321.99 123.29 322.06 123.22 322.14 122.96 322.21 122.49 322.96 121.34 323.49 120.71 323.62 120.31 323.92 120.16 324.72 120.24 325.57 120.31 326.09 120.11 326.69 119.73 326.92 119.31 326.87 118.88 327.39 118.68 327.69 118.41 328.07 118.31 328.4 118.16 328.55 117.83 328.45 117.03 328.32 116.33 328.32 115.63 328.55 115.2 328.82 114.9 329.15 114.73 329.6 114.45 329.75 114 330.27 113.52 330.82 113.07 331.05 112.9 331.47 112.87 331.97 112.7 332.15 112.57 332.12 112.22 332.07 111.85 332.37 111.57 332.74 111.32 332.56 111.82 332.96 112.36 333.43 112.89 334.26 113.16 335.43 113.43 335.86 113.36 335.86 113.06 335.96 112.59 336.57 112.39 337.03 112.22 337.5 112.06 337.37 111.46 337.37 110.76 337.87 110.45 338.53 110.35 339.1 110.45 339.57 110.42 339.67 110.15 339.57 109.45 340.24 108.92 341.1 108.38 341.97 108.69 342.24 109.05 343.14 109.49 343.61 109.29 344.27 108.35 344.88 108.7 344.91 108.72 345.64 109.49 345.41 110.02 345.91 110.92 347.64 113.23 348.28 114.36 348.54 115.46 347.94 115.83 347.11 116.36 346.28 116.7 344.54 116.63 340.3 116.76 339.27 116.76 338.2 116.63 337.23 116.76 336.77 117.23 336.23 117.57 334.43 118.9 333.33 119.67 332.73 120.1 331.79 120.74 331.16 121.17 331.13 121.71 330.73 122.24 330.16 122.91 330.29 123.28 329.99 123.61 329.19 123.64 328.32 123.88 327.46 124.01 326.76 124.38 326.25 125.04 325.85 125.91 325.22 125.95 324.62 125.88 324.29 125.98 323.95 126.35 323.99 127.05 324.25 127.15 325.19 127.35 324.39 127.85 323.95 128.25 323.52 129.22 322.78 129.79 321.35 130.42 320.68 131.02 320.75 131.42 320.85 131.76 320.38 131.89 319.41 131.72 318.38 131.39 317.45 130.85 316.41 130.22 315.44 130.22 314.84 130.49 314.28 130.85 313.51 131.79 312.34 131.86 311.01 132.19 309.2 132.46 308.37 132.82 307.77 132.86 307.4 132.99 307.1 133.99 307 135.09 306.53 136.13 306.27 137.2 306.43 137.83 307.4 138.5 308.5 138.87 309.54 139 310.37 139.13 311.27 139.33 312.47 139.07 313.28 138.67 313.74 138.77 313.74 139.03 313.01 139.7 312.61 140.07 312.81 140.47 312.77 140.67 312.14 140.64 311.27 140.5 310.01 140.4 308.47 140.24 307.7 139.97 307.14 140.2 306.07 140.67 305.27 140.67 303.8 140.74 303.63 141.34 303.26 141.27 302.56 141.37 301.76 142.17 301.13 142.64 300.1 143.17 299.86 144.01 299.86 145.04 300.13 145.48 300.73 145.68 300.8 146.11 300.13 146.11 299.23 145.81 298.66 145.54 297.33 145.18 296.46 145.14 295.99 145.24 295.52 145.54 295.16 146.11 294.72 146.95 294.12 147.61 293.19 148.42 291.89 149.22 291.05 149.58 289.92 150.15 288.85 150.65 288.02 150.89 287.42 151.15 286.21 152.39 285.45 153.12 284.25 154.76 282.88 155.56 282.38 156.63 282.64 157.8 283.38 159.6 283.65 160.87 284.38 161.8 285.11 162.14 284.91 162.64 283.98 163.04 283.31 163.24 280.98 165.34 279.14 167.35 278.34 169.15 277.97 171.42 278.61 172.12 278.47 172.82 277.74 173.09 276.7 173.72 275.9 174.12 275.2 175.93 274.4 177.06 273.6 177.93 272.97 178.8 272.43 180.53 271.53 182.34 271.57 182.94 271.6 183.54 272.7 183.61 273.74 183.61 274.67 183.91 275.07 184.17 275.77 184.67 276.47 184.74 277.31 184.41 278.07 183.77 278.37 184.11 278.54 184.44 278.54 184.67 278.57 185.11 278.71 185.81 279.17 185.81 279.64 185.94 279.67 186.38 279.77 187.04 279.91 187.68 280.48 188.01 281.64 188.11 283.44 188.15 284.08 188.05 284.35 187.71 284.71 187.85 284.95 188.08 285.68 188.28 286.65 188.41 287.38 188.28 287.72 187.91 287.82 187.04 288.02 186.28 288.35 185.64 288.75 185.74 288.95 185.98 289.25 186.68 289.68 187.34 289.98 187.71 290.42 188.41 290.19 188.98 289.75 189.38 289.42 189.88 289.48 190.18 290.25 190.25 291.29 190.28 292.05 190.38 292.79 190.45 293.59 190.68 295.09 190.72 296.06 190.58 296.83 190.58 297.19 190.22 297.79 189.41 298.46 188.58 299.19 188.01 299.93 187.54 300.33 187.54 300.43 188.08 300.3 188.61 299.69 189.08 299.09 189.61 298.59 190.25 298.03 191.85 298.16 192.79 299.13 193.72 299.63 194.36 301.1 195.52 301.36 195.82 301.36 196.76 301.83 197.29 302.4 197.53 302.7 197.63 302.86 197.99 303.03 198.5 303.47 198.76 304.1 198.7 304.8 198.36 305.53 198.2 306.3 198.3 307.7 198.5 308.77 198.66 309.67 198.76 310.31 199.06 310.77 199.46 311.31 199.86 312.31 200.16 313.31 200.16 313.78 200.06 314.01 200.53 314.21 201.7 313.91 201.97 314.31 202.54 315.28 203.1 316.11 203.6 316.85 203.9 317.48 204.04 318.01 204.14 317.95 204.61 317.35 205.11 317.2 205.19 316.85 205.41 315.38 205.17 314.51 204.91 313.54 204.81 313.07 204.51 312.67 203.6 312.47 202.87 311.91 202.7 311.61 202.44 311.47 201.9 310.87 201.4 310.04 201.13 309.2 200.87 308.27 200.83 307.4 200.7 306.74 200.5 306.33 200.57 306.13 200.87 305.83 201.47 304.93 201.7 303.93 201.67 303.13 201.37 301.96 200.8 300.83 199.86 299.83 199.1 299.19 198.26 299.16 197.59 298.33 197.36 297.59 197.59 296.66 197.63 295.82 197.39 294.92 197.16 294.22 196.79 293.59 196.39 293.15 195.66 292.95 194.89 293.15 194.22 293.69 193.85 293.72 193.72 293.05 193.45 292.52 193.39 291.72 193.45 291.12 193.92 290.55 194.56 289.88 194.92 289.22 194.72 288.65 194.82 288.15 194.86 287.48 194.56 286.68 194.09 285.88 194.09 284.78 193.82 284.01 193.45 283.51 193.39 283.31 193.92 282.24 194.22 281.81 193.75 281.31 193.5 279.97 193.09 279.06 192.67 278.06 192.59 276.89 192.59 275.72 192.34 275.22 192.75 274.72 191.92 274.22 191.17 273.8 190.75 272.47 190.42 270.63 190.5 268.96 190.17 267.71 189.75 267.04 189.75 264.46 189.83 262.79 189.41 260.29 189.5 258.45 190.83 255.7 192.42 251.45 195.92 247.27 198.76 244.86 201.18 242.27 205.27 238.68 209.03 229.17 219.88 227.84 222.3 226.92 225.89 225.67 228.73 223.5 232.4 222.08 234.07 220.16 236.41 218.91 238.49 218.08 241.58 217.16 243.92 216.66 246.34 216.41 247.34 215.83 251.93 215.49 254.44 215.24 257.19 214.07 258.86 210.55 260.19 209.96 260.94 209.34 261.19 208.54 261.48 208.21 261.86 209.67 262.23 210.67 262.23 211.34 262.56 213.38 262.73 214.43 262.86 215.51 263.07 216.8 263.19 218.18 263.57 219.47 263.61 222.14 263.65 222.73 263.4 224.73 263.4 225.64 263.48 226.1 263.65 227.06 264.36 228.23 264.86 229.65 265.69 230.15 265.82 231.15 265.95 232.07 265.65 233.32 265.32 235.15 264.4 235.65 264.15 236.28 263.23 236.95 262.36 237.87 262.11 239.16 261.61 239.66 261.35 240.28 260.1 240.95 260.1 241.45 259.52 242.12 258.39 243.16 256.56 244.37 255.09 245.16 254.3 245.27 253.4 248.42 251.82 248.34 253 247.12 256.1 246.54 258.02 245.79 259.35 244.5 260.48 244.41 261.19 244.87 261.9 245 262.48 244.21 263.02 242.62 263.9 241.99 264.65 241.37 265.44 241.04 266.57 240.37 267.7 239.2 267.95 237.95 268.49 236.28 269.03 234.65 269.83 234.53 271.12 235.03 272.91 235.2 274.42 234.7 276 231.86 277.13 231.15 277.88 230.73 279.43 229.52 279.8 228.23 280.39 226.35 281.97 226.94 282.47 228.52 283.06 229.86 283.06 231.19 284.1 233.11 284.35 235.36 285.73 235.74 286.73 235.95 287.27 236.16 288.23 236.86 288.4 237.95 287.81 238.91 287.23 239.91 286.77 240.49 286.69 241.2 286.9 242.75 287.73 243.62 288.4 244.62 288.19 246.25 288.65 246.96 288.9 248 290.36 249.21 292.78 250.8 295.95 251.67 297.66 251.25 300.04 250.59 301 248.21 302.04 247.12 302.38 246.29 302.71 246.5 303.71 246.62 304.38 247.21 305.01 247.58 305.72 248.04 306.34 248.92 306.39 250.21 306.39 251.88 306.13 253.26 305.88 254.01 306.18 254.34 306.68 255.97 306.22 257.43 306.22 258.72 306.26 259.22 306.55 259.85 306.97 259.93 307.64 259.64 308.3 259.3 309.14 259.8 309.97 260.56 310.31 262.52 310.39 263.56 310.31 264.39 310.02 265.69 309.68 267.1 309.01 268.81 308.43 270.15 308.01 271.32 308.1 272.44 308.22 273.57 308.35 274.28 308.35 274.65 308.1 274.74 307.47 274.74 306.68 274.61 305.93 274.86 305.51 275.03 305.38 275.4 305.3 275.78 305.34 276.45 305.8 277.86 306.3 279.28 306.76 281.16 307.34 282.2 307.6 282.54 307.85 282.95 307.85 283.54 307.18 284.37 305.88 285.16 304.72 285.39 304.72 285.96 304.72 286.5 305.3 286.62 305.97 287.04 306.89 287.96 307.3 289.13 307.8 289.33 308.97 289.38 310.14 290.13 311.31 290.88 311.98 291.8 312.9 292.96 313.31 294.46 313.1 296.3 312.23 297.55 312.1 298.22 311.94 299.64 312.23 301.05 312.02 302.22 311.89 304.31 312.35 306.98 312.65 308.23 312.81 309.35 312.52 309.85 312.02 311.02 311.6 311.57 311.65 311.94 311.69 312.52 312.1 313.15 313.02 313.86 313.73 315.36 314.02 317.03 314.27 317.99 314.77 319.53 315.73 320.7 316.15 320.99 316.86 320.82 318.03 321.58 317.74 322.74 316.9 324.33 316.36 327.37 315.9 328.96 315.82 330.33 316.11 332.34 316.36 334.38 316.73 335.38 316.86 336.55 317.36 337.59 318.28 338.76 319.32 339.34 319.36 341.05 319.03 342.51 319.11 344.64 319.99 345.32 320.64 345.43 320.74 345.64 321.7 345.64 322.58 345.77 323.04 347.56 323.66 349.56 323.91 350.94 324.71 352.02 325.79 353.36 327.17 354.32 328.25 355.4 328.92 356.9 330.13 358.65 332.01 360.07 332.89 363.49 334.47 364.87 334.97 366.16 334.26 367.45 333.55 368.83 333.85 370.12 333.55 372.33 332.84 374.5 332.18 374.92 331.84 375.3 330.55 375.38 329.21 375.38 328.3 375.8 327.96 376.34 327.5 377.06 327.23 377.55 327.04 378.34 327.21 379.22 328.04 380.05 329.21 380.97 330.26 381.68 330.67 383.18 331.17 384.6 331.22 385.97 331.26 387.18 331.51 389.1 331.8 390.81 332.09 391.31 331.88 392.86 331.09 393.9 329.46 394.98 329.05 395.21 329.27 395.82 329.84 396.36 331.8 396.86 333.68 397.19 334.51 397.94 334.89 399.78 335.43 403.41 336.18 404.91 336.39 405.7 337.06 406.2 337.35 406.83 337.35 407.7 337.18 408.96 337.02 410.62 336.81 411.58 336.98 412.92 337.27 414.54 337.69 416.34 338.19 417.01 338.23 417.55 338.02 417.63 337.73 417.55 336.77 417.71 335.89 418.21 335.35 419.09 334.47 420.01 334.6 420.26 335.22 420.38 335.34 421.05 335.97 421.68 336.22 422.76 336.56 423.39 337.06 423.85 338.64 424.43 339.4 425.39 339.65 427.43 339.69 429.23 339.81 430.98 340.65 431.77 341.27 433.86 341.86 436.11 342.32 438.15 342.11 439.07 342.23 439.74 342.73 440.78 343.03 441.36 343.11 442.16 343.15 442.49 343.74 443.37 344.2 443.95 344.2 444.82 344.2 445.62 344.4 446.33 344.74 447.66 345.2 448.41 345.36 449.7 345.2 450.75 344.95 452.17 344.2 452.41 343.35 453.1 342.93 453.83 342.77 454.52 342.85 454.61 342.95 456.48 345.21 456.17 345.82 456.29 347.16 456.5 348.62 456.71 349.62 457.34 349.45 458.13 349.45 458.84 349.45 459.63 349.45 460.72 349.75 462.26 350.08 463.62 350 467.16 350.98 467.9 351.41 468.39 352.18 468.31 353.34 468.39 354.09 468.72 354.42 469.02 354.92 469.22 355.42 469.52 356.09 469.77 356.21 470.56 356.38 471.64 356.17 472.87 355.57 473.95 355.42 475.42 354.8 475.96 354.3 476.46 354.07 477.05 354.11 477.69 355.61 477.57 356.34 477.32 357.22 477.15 357.8 477.32 358.26 477.69 358.59 478.15 358.72 478.73 358.76 479.57 358.93 480.65 359.18 482.03 359.64 483.28 359.8 484.66 360.1 485.53 360.1 486.16 360.51 486.45 361.01 486.62 361.35 486.99 361.89 487.28 362.43 487.95 362.56 488.7 362.56 489.7 362.52 490.83 362.14 491.46 362.1 492.12 362.43 493.08 362.6 493.67 362.39 494.54 362.22 496.09 362.93 496.88 363.31 497.55 363.43 498.92 363.69 499.59 364.14 500.26 364.98 500.71 365.4 501.01 365.65 501.59 365.73 502.01 365.48 502.51 365.15 503.05 364.98 503.47 365.23 503.8 365.48 503.88 365.77 503.76 366.44 503.51 367.07 503.51 367.98 503.87 368.35 504.47 368.94 505.55 369.9 505.97 370.2 506.51 370.07 507.14 370.07 507.89 369.95 508.64 369.69 509.43 369.19 509.81 368.99 510.1 368.99 510.73 368.99 511.52 368.99 512.43 368.99 513.31 369.07 513.77 369.19 513.98 369.49 514.73 369.78 515.15 369.82 515.52 369.74 516.02 369.53 516.73 369.15 517.27 368.9 517.65 368.9 518.23 369.03 518.57 369.15 518.77 369.36 519.07 369.69 519.07 369.95 519.36 370.4 519.48 370.57 520.23 370.86 520.82 370.86 521.49 370.57 522.24 370.36 523.15 369.86 524.2 369.49 524.99 369.36 525.74 369.53 525.87 369.69 525.82 370.03 525.62 370.32 525.78 370.95 526.24 372.03 526.62 372.41 527.2 372.32 528.7 372.16 529.7 372.16 531.25 372.37 533.33 372.2 536.29 372.07 537.84 371.95 538 371.78 538.5 371.36 539.13 371.2 539.67 371.24 540 371.53 540.55 371.74 541.17 371.82 541.51 371.7 541.92 371.57 542.38 371.49 543.05 371.49 543.3 371.45 543.05 372.16 542.8 372.66 542.59 373.33 542.01 373.95 541.38 374.2 541.71 374.62 542.13 374.99 543.17 375.5 544.63 376.16 545.22 376.46 545.64 377.25 546.05 377.67 546.8 377.96 548.1 378.5 549.47 378.75 550.31 378.96 551.18 379.59 551.39 380.13 551.64 381.09 552.73 382.05 553.89 382.55 555.53 382.76 556.36 383.68 556.6 384.47 556.86 385.01 557.23 385.8 557.77 386.51 558.23 387.14 559.86 387.97 560.53 388.1 561.15 388.39 561.65 388.68 562.11 389.35 562.74 389.35 563.15 389.1 563.61 388.73 564.11 388.68 564.95 388.68 565.74 388.85 565.99 389.1 566.87 389.56 567.66 389.81 568.91 390.23 569.74 390.23 570.99 390.31 572.37 390.27 572.75 389.98 573.5 389.64 574.08 389.52 574.71 389.73 575.33 389.85 575.67 389.35 576.71 388.47 577 387.35 577.54 386.22 578.17 385.34 579.67 383.68 580.5 383.09 580.92 383.26 581.92 384.01 583.05 384.34 584.22 385.14 585.47 385.51 586.26 385.72 586.84 385.64 587.09 385.85 588.05 386.18 588.85 385.89 589.97 385.14 591.31 384.3 593.56 383.22 594.56 383.05 594.94 383.3 595.23 383.38 595.6 383.76 596.1 384.38 596.48 384.84 597.06 385.14 598.4 385.76 599.94 386.68 600.82 387.01 601.82 386.93 602.69 386.89 603.15 387.14 603.78 387.64 604.4 387.64 605.03 387.64 605.28 387.89 605.9 388.68 606.7 389.14 608.41 389.73 609.49 390.6 610.16 391.23 610.45 390.91 612.37 391.37 613.24 391.87 614.49 391.79 615.66 391.66 616.41 391.7 617.41 392.79 618.04 393.21 619.23 393.38 620 393.5 620.83 393.62 622.21 393.83 622.5 393.83 622.5 393.29 622.54 393.16 623 393.08 623.71 393.29 624.21 393.66 624.92 394 625.3 394.75 625.71 395.17 627.01 395.58 627.43 395.66 628.51 395.83 630.38 395.88 631.89 396.13 633.55 396.54 634.8 396.92 635.29 397.68 636.52 398.96 639.56 400.43 642.23 400.59 643.44 399.63 645.36 398.92 645.78 398.26 646.57 397.84 647.9 397.84 649.31 397.48 651.47 397.38 651.57 398 651.37 400.12 651.62 401.43 651.49 401.97 651.16 402.35 651.2 403.01 651.53 403.35 651.41 404.39 651.41 404.72 651.41 405.6 651.82 406.27 653.03 407.06 653.74 407.14 655.24 407.4 655.79 408.56 655.66 409.19 656.29 410.27 656.87 410.48 657.62 410.82 658.04 411.28 658.75 411.94 660.16 412.65 661.37 413.15 662.13 413.15 662.88 413.03 664.63 412.9 665.17 413.28 665.04 414.11 664.88 415.03 665.38 415.53 667.77 416.6 668.21 417 670.36 417.7 671.66 418.15 673.01 418.85 673.76 420.1 673.86 421.75 673.66 423.36 674.23 424.41 674.95 425.15 675.39 425.76 675.68 425.84 676.31 426.01 677.31 425.97 677.97 425.63 678.56 425.38 679.1 425.55 679.48 426.55 679.64 427.93 679.48 428.97 679.1 429.89 679.06 430.97 678.77 431.81 678.64 432.81 678.85 433.44 679.39 434.06 680.56 434.27 682.23 434.69 682.94 435.27 684.61 435.65 685.65 435.82 685.99 435.44 686.8 435.66 687.82 435.74 687.98 436.06 688.48 436.33 689.18 436.46 690.41 436.66 691.55 436.49 692.58 436.33 693.78 436.69 695.22 437.36 696.12 437.63 697.05 437.83 698.05 437.76 699.22 437.83 700.12 438.1 701.22 438.9 701.96 439.23 703.16 439.1 704.59 439.1 706.26 439.26 706.9 439 707.73 438.8 708.63 438.63 709.57 438.76 710.77 439.1 711.77 439.26 712.07 438.86 711.8 437.96 711.7 436.73 712.74 435.53 714.07 434.36 715.44 433.62 716.64 433.05 718.04 432.82 718.77 432.79 719.51 432.65 720.01 431.85 721.18 430.72 721.58 429.75 722.35 429.82 722.65 429.62 722.71 429.58 722.91 429.35 722.75 428.48 725.31 427.35 726.65 427.21 726.82 427.28 726.12 428.71 726.25 429.55 726.62 430.25 727.92 431.52 730.59 433.82 731.12 434.06 732.12 433.99 733.96 433.64 735.39 433.68 736.91 433.25 737.99 433.29 738.73 433.95 740.3 434.53 741.58 434.72 743.89 434.95 745.61 434.91 747.19 434.8 749.69 435.11 753.28 435.11 754.04 434.97 754.81 435.36 755.35 435.49 755.81 435.56 756.61 435.46 757.51 434.99 758.72 434.19 759.65 433.66 760.75 433.09 761.12 433.05 763 433.12 764.96 433.19 765.29 433.89 765.29 434.49 765.09 435.02 764.85 435.69 765.12 436.33 765.39 436.69 765.32 437.8 765.36 439.26 765.66 439.73 766.29 440.6 766.02 441.67 766.29 442.14 766.72 442.3 767.76 442.5 768.63 442.54 769.03 442.8 769.43 443.17 769.79 443.91 770.29 444.44 770.86 444.61 771.93 444.51 772.63 444.24 773.4 444.24 774.6 444.21 775.87 444.04 776.37 443.6 777.03 443.54 777.47 444.14 777.73 444.71 777.8 445.54 777.53 446.41 777.6 447.31 777.93 447.61 778.6 447.71 779.87 447.24 780.77 446.91 780.94 446.58 781.84 445.74 783.01 445.34 783.94 445.27 784.78 444.97 785.68 444.44 786.28 444.44 786.51 444.07 786.51 443.74 787.18 443.5 787.31 442.9 787.61 442.6 788.48 442.8 790.08 443.54 791.85 444.67 793.65 445.04 793.92 446.91 792.78 448.11 790.65 449.15 789.35 450.22 788.25 451.58 787.48 453.35 786.28 454.02 785.84 455.42 784.94 456.93 783.17 457.59 781.94 458.46 781.27 460.2 781.81 461.83 782.82 462.72 783.55 463.57 784.78 464.49 786.16 465.07 787.88 465.46 790.58 465.34 793.04 464.65 794.72 463.94 795.8 464.1 796.6 464.23 797.43 464.35 798.14 464.19 798.64 463.98 799 464.21 798.45 467.41 797.7 473.47 796.85 480.88 796.6 485.99 796.35 491.6 796.58 495.76 797.03 504.42 797.81 512.79 797.31 513.22 795.64 513.25 794.14 512.89 791.87 512.79 789.97 513.19 788.6 513.95 787.99 514.52 787.23 515.22 785.97 515.62 784.56 515.42 783.7 515.12 782.33 515.29 781.43 515.76 780.49 515.77 779.95 515.7 778.62 515.6 776.88 515.7 775.65 516.2 773.81 517.54 772.68 518.44 771.74 519.98 772.14 521.41 773.01 522.65 773.35 525.2 773.23 525.53 772.5 526.46 770.82 527.62 769.4 528.35 768.51 528.69 767.37 528.46 766.7 528.29 765.8 527.89 764.97 527.79 764.17 527.76 762.97 527.62 762.5 527.79 762.37 528.29 762.3 529.22 762.03 529.42 762.07 530.16 762.57 531.19 762.83 531.93 763.57 534.07 764.74 536.1 764.6 537.14 764.14 538.44 763.43 539.11 762.5 540.58 762.63 541.41 763.17 541.98 763.7 543.48 763.84 544.18 763.57 544.72 763.6 545.58 763.94 546.69 763.9 547.29 764.08 547.8 764.24 548.25 764.84 548.19 765.29 548.25 765.77 548.32 765.8 548.44 765.97 549.09 765.2 549.16 764.17 549.12 763.27 549.39 762.3 549.76 761.23 549.79 759.8 549.66 758.36 549.39 757.3 548.89 756.03 548.25 755.53 547.72 754.96 547.49 754.09 547.52 753.29 547.79 751.82 548.15 750.89 548.29 749.99 548.32 749.72 548.72 749.69 549.26 750.02 549.89 749.85 550.73 749.82 551.66 750.29 552.23 748.95 553.23 748.72 554.2 748.55 555.5 748.75 556.2 748.75 556.84 747.79 557.27 746.75 557.14 745.48 556.9 744.82 557.37 744.55 558.27 743.18 559.04 742.08 558.94 740.04 558.84 738.91 558.37 737.74 557.34 736.54 555.73 735.51 555.6 734.91 555.9 734.57 556.37 734.01 557.17 732.74 557.8 731.47 558.34 730.47 558.27 729.17 557.97 727.67 557.2 726.16 556.67 725.33 556.47 724.56 556.9 724.4 557.77 724.86 559.37 725.53 559.77 726.13 559.77 727.26 560.07 728.07 560.41 728.97 560.87 729.43 561.68 729.3 562.34 729.07 562.74 729.47 563.35 731 564.61 731.87 565.65 732.74 569.29 732.8 570.59 733 571.83 733.1 573.6 731.8 574.76 730.97 574.6 730.23 574.43 729.33 574.46 728.67 574.86 727.5 575.63 727.2 576.17 727.13 576.93 727.37 578.04 728.2 579.27 729.6 580.47 730.4 581.47 730.9 582.84 731.37 583.21 732.07 583.51 733.17 583.71 733.67 583.98 733.67 584.21 733.7 585.08 734.04 585.35 734.51 585.98 734.11 587.22 734.27 587.95 734.94 589.22 734.91 589.55 734.87 590.32 734.97 591.06 733.97 591.76 733.14 592.96 733.14 594.26 733.2 595.96 734.17 596.1 735.21 596.33 735.67 596.83 736.74 597.5 737.11 598.2 736.97 598.6 736.01 599.3 734.64 599.94 733.3 600.61 732.7 601.37 732.64 602.51 731.97 603.24 731.94 603.81 732.47 604.61 733.37 605.08 735.37 606.05 737.91 607.55 738.68 608.22 739.9 609.27 735.69 609.56 733.87 609.42 732.27 609.45 729.27 609.32 728.3 609.69 727.1 611.69 726.56 613.43 726.83 614.49 727.4 614.76 728.7 615.83 729.77 616.8 729.9 618.1 730.6 618.73 731.2 619.34 733.07 619.97 734.37 620.24 734.61 620.47 735.37 621.34 735.87 622.01 736.97 622.21 737.14 622.64 737.84 623.68 738.58 623.98 739.81 624.38 740.58 624.31 740.85 624.64 741.15 625.11 741.25 625.41 740.81 625.58 739.68 625.51 738.71 625.88 737.74 626.48 735.97 627.65 735.3 628 734.71 628.32 734.54 629.22 734.54 629.79 734.11 629.72 733.47 629.32 732.8 628.55 732.24 627.62 731.94 626.75 732.24 625.85 732.24 625.48 731.4 625.01 730.87 624.94 730.3 625.18 729.33 625.75 728.3 626.38 726.36 627.28 724.33 628.72 723.56 629.05 721.26 628.98 720.29 629.02 718.86 630.19 717.86 630.45 717.56 631.52 717.15 631.62 715.92 631.52 714.85 631.72 713.55 631.49 712.42 630.92 708.15 630.99 707.14 631.35 705.38 632.86 704.61 633.86 704.44 634.49 704.24 636 703.64 636.36 700.94 638.8 700.34 639.77 699.07 640.24 697.47 641.97 696.6 642.31 695.93 643.11 695.73 644.71 695.57 647.78 694.53 648.92 694.16 652.09 694.47 653.36 694.77 654.52 695.2 655.26 696.37 655.63 696.77 656.36 696.83 657.26 696.53 657.76 695.97 658.43 695.37 659.37 695.13 660.27 695.43 661.07 696.33 661.74 697.94 662.57 699 662.87 699.84 663.11 700.97 663.81 701.64 664.51 702.37 664.67 703.17 664.67 703.81 664.27 704.44 664.14 705.31 664.17 705.98 664.01 706.44 664.34 706.71 664.91 706.01 665.38 704.98 666.34 704.14 667.35 703.74 668.28 703.77 669.32 704.34 669.98 705.31 670.45 706.21 670.85 707.38 671.25 708.01 671.62 708.58 672.22 709.05 672.92 709.65 673.52 710.18 673.79 710.71 673.92 711.15 673.82 711.72 673.69 712.88 672.92 713.52 672.45 713.92 673.12 714.05 674.02 713.88 674.56 713.88 675.29 714.08 676.26 714.52 677.16 715.09 677.56 715.85 677.76 716.69 677.9 717.12 678.06 718.19 678.5 718.96 678.6 719.89 678.6 720.99 678.53 722.03 678.23 723.43 678.1 724.26 677.93 724.73 678.1 725.03 678.36 725.2 678.73 724.96 679.03 724.43 679.23 724.06 679.5 723.33 680.17 723.06 680.97 723.29 682 723.83 682.97 724.83 684.61 725.33 685.24 725.5 686.54 726.3 686.81 727 687.44 727.77 688.21 728.03 688.95 728.07 689.55 728.17 689.91 728.4 690.01 728.77 689.98 729.43 689.95 729.9 689.68 730.37 689.41 730.97 689.11 731.27 689.18 731.4 689.45 731.3 689.78 731.14 690.25 731.24 690.75 731.6 691.35 733.54 693.19 734.37 693.75 734.81 693.75 735.84 693.75 736.57 693.82 737.31 693.79 737.84 693.62 738.44 693.32 738.44 693.65 738.31 694.09 738.18 694.52 737.98 694.99 737.41 695.99 736.97 696.36 736.31 696.26 734.64 695.92 733.24 695.49 732.67 695.86 731.94 695.89 730.87 695.69 730.1 695.39 729 695.02 727.97 695.06 727 695.42 725.76 696.29 724.9 697.03 723.89 697.43 722.99 697.43 722.66 697.06 722.63 696.19 722.63 694.89 722.66 693.72 722.33 693.12 721.63 692.49 720.42 691.18 719.36 690.38 718.09 689.81 716.85 689.58 715.82 689.51 714.59 689.65 713.85 690.12 713.05 690.88 712.58 692.02 712.25 693.42 712.28 694.99 712.32 695.99 712.65 696.66 713.15 697.13 714.25 697.63 715.39 697.76 716.42 698.19 718.66 698.26 720.06 698.56 720.56 699.26 720.49 699.46 720.22 699.8 720.09 700.16 720.06 700.67 720.32 700.83 720.86 701.13 721.56 701.57 722.23 702.07 722.66 702.77 722.96 703.9 723.43 704.71 724.56 705.21 725.93 705.91 726.5 706.14 728 707.24 728.67 707.48 731.47 708.28 731.4 708.74 731.17 709.85 730.7 710.95 730.72 711.63 730.74 712.05 730.9 712.42 729.93 712.58 729.13 712.55 727.53 712.45 726.06 712.02 725 711.75 724.4 711.88 723.39 712.18 722.53 712.18 721.83 712.38 720.26 713.02 717.82 713.89 716.85 714.55 715.95 714.82 715.35 715.52 715.39 716.02 715.89 716.99 715.82 717.79 715.29 718.76 714.79 719.46 714.29 720.46 713.52 721.3 712.68 721.37 712.68 720.8 712.41 720.78 711.82 720.73 711.38 721.16 710.58 722 710.58 720.66 711.38 720.26 711.78 719.83 711.65 719.13 712.42 718.59 712.65 717.66 712.48 716.79 712.18 716.06 712.28 715.46 712.78 714.62 713.42 714.02 713.58 713.35 714.49 711.78 715.59 710.58 715.82 709.71 715.62 708.98 715.19 707.94 714.65 706.78 713.55 705.61 712.45 705.34 710.98 704.74 709.81 704.07 709.01 703.67 708.11 703.67 707.58 703.87 707.08 704.84 703.54 706.07 702.84 706.37 702.34 707.31 701.64 707.38 701.27 707.18 701.37 706.74 701.37 706.21 701.47 705.54 701.74 705.11 701.81 704.24 701.75 704.2 701.41 704 701.44 703.54 701.71 703.2 701.81 702.9 701.97 702 702.01 701.17 702.47 700.6 703.24 699.86 703.51 699.53 703.21 698.83 702.91 697.83 702.97 697.29 703.24 695.06 702.77 694.56 701.87 693.49 701.41 691.65 700.6 690.92 698.47 689.75 697.5 689.01 697.2 688.41 696.6 687.68 695.83 686.81 695.1 686.61 693.83 686.31 692.5 685.61 691.23 684.91 690.13 684.54 690.16 684.21 690.76 683.97 690.79 683.54 690.63 682.5 690.33 681.87 689.39 681.3 687.32 680.87 685.59 680.7 684.56 680.4 683.19 679.26 681.52 677.86 680.68 677.93 679.98 677.66 678.72 675.93 678.02 674.99 676.78 675.32 675.18 675.16 674.58 674.99 674.24 674.56 674.08 673.82 674.61 673.02 674.31 672.59 672.94 671.99 672.04 671.25 670.44 669.78 670.51 669.05 670.27 668.68 669.31 668.35 667.94 667.45 666.7 667.08 665.47 666.51 664.07 665.64 663.3 665.48 662.53 665.68 661.2 666.24 660.6 665.91 658.8 665.31 657.96 665.48 656.53 665.81 655.33 665.88 654.09 665.64 653.39 664.61 652.32 664.37 651.22 664.61 649.12 664.64 647.32 663.77 645.78 663.51 643.75 663.04 642.45 662.67 641.21 662.94 640.81 663.41 639.48 664.67 639.61 665.38 639.24 665.51 638.21 664.21 637.91 662.57 637.81 660.9 637.41 660.9 636.97 661.74 635.74 662.54 633.97 663.77 632.44 664.07 631.43 665.01 630.77 664.74 630.63 663.77 631.05 662.08 631.2 661.47 631.73 659.43 632.24 658.16 632.47 656.83 632.54 655.19 631.73 653.72 630.57 652.79 629.1 652.39 627.83 652.49 627.9 651.82 628.36 650.89 627.86 650.18 625.86 649.48 625.23 648.78 623.83 644.71 623.23 643.24 622.33 642.61 620.96 642.34 619.02 642.54 617.72 643.14 616.55 643.31 615.35 643.11 613.08 643.01 611.48 642.34 610.55 642.07 610.01 642.21 608.95 643.41 603.34 643.54 601 643.19 598.42 643.27 597.08 643.44 596.33 643.77 595.92 645.44 596.65 646.84 596.11 647.88 596.05 647.93 595.94 648.03 595.53 647.91 594.93 648.05 594.33 648.25 593.93 648.78 593.4 649.58 592.8 650.12 592.66 651.12 591.99 651.19 591.19 651.12 590.59 651.19 590.26 651.32 590.26 652.12 589.53 652.92 587.59 653.66 586.86 654.19 586.79 654.93 587.26 656.26 587.59 657.46 588.19 658.4 587.92 658.93 587.19 658.8 586.39 658.46 584.59 658.06 582.99 657.66 582.12 657.73 581.05 659.2 579.32 661.14 578.31 661.54 577.31 661.2 576.05 661.27 575.44 661.47 574.91 662.47 574.18 662.8 573.24 662.94 572.78 664.07 572.51 665.41 571.91 666.74 573.44 667.55 573.98 669.88 575.75 671.51 576.19 672.2 576.34 672.66 576.34 673.24 575.21 674.24 573.1 676.9 572.9 677.67 572.16 679.02 572.11 680.25 571.92 681.68 571.52 682.37 570.88 682.8 569.46 683.38 569.64 681.97 569.64 681.85 569.64 680.97 569.77 680.1 570.31 679.23 570.71 678.56 570.71 677.76 570.71 676.56 570.91 675.56 571.24 674.69 570.91 673.29 570.51 672.49 570.37 672.09 570.51 671.02 570.11 670.22 569.3 669.95 568.09 668.96 567.35 667.88 566.51 667.3 566.5 666.21 566.84 665.81 566.84 665.01 566.24 664.67 565.5 664.61 565.23 664.01 565.77 663.07 566.44 661.87 566.7 660.87 566.5 660.07 566.97 658.73 567.44 658 567.97 657.86 568.44 657.33 569.04 655.86 570.04 654.59 569.24 653.66 567.84 652.12 565.77 650.12 564.97 649.92 563.43 649.78 562.3 649.38 561.03 648.78 560.1 647.91 558.69 647.45 557.89 647.31 556.83 646.78 556.16 646.24 555.02 645.58 554.29 645.44 553.49 646.11 552.36 647.18 549.17 647.95 546.81 649.03 543.76 650.15 541.7 650.77 541.08 650.12 540.28 649.78 539.14 649.05 538.74 648.38 537.94 648.11 537.47 648.25 537.01 648.31 536.47 648.05 536.47 647.85 536.56 647.53 536.61 647.38 536.94 646.85 537.67 646.38 538.47 646.31 539.14 646.45 539.81 646.71 540.08 647.05 540.74 647.18 541.08 646.85 541.21 646.65 541.88 646.18 542.48 645.78 543.55 645.31 543.95 645.24 544.28 645.04 544.68 644.78 545.15 644.38 545.41 644.11 545.68 644.04 546.15 643.91 546.48 643.77 547.02 643.44 547.35 642.97 547.48 642.51 547.82 642.17 548.35 641.9 549.75 641.57 550.35 641.44 550.35 641.04 549.62 640.17 548.75 639.23 547.15 637.76 545.81 636.83 544.48 636.03 543.01 635.36 542.61 634.89 541.68 634.36 540.61 634.36 539.74 634.96 538.28 635.53 535.61 634.92 535.27 634.56 534.07 633.82 533.14 633.82 532 633.09 530.93 631.89 530.4 631.02 529.73 630.15 528.93 629.35 527.26 628.68 525.35 628.41 525.39 628.15 525.39 627.35 525.39 626.61 524.93 626.01 524.33 625.34 524.13 624.14 522.86 622.47 521.99 621.61 520.86 621.14 520.06 620.34 519.45 619.4 519.19 618.53 518.59 618.2 517.25 618.73 515.85 618.93 514.98 619 514.98 618.33 514.98 617.33 514.65 616.26 513.98 615.26 512.78 614.86 510.91 614.59 509.31 614.13 508.11 613.39 506.64 613.13 504.04 612.92 503.04 612.72 502.5 613.06 501.17 613.46 500.44 612.92 499.57 612.26 497.77 611.79 494.36 611.46 492.16 611.39 490.36 611.66 489.56 611.86 489.36 611.59 488.49 610.85 487.62 610.52 487.16 610.92 487.09 611.32 486.69 611.39 485.69 611.39 484.89 611.86 483.68 611.99 482.88 611.86 481.95 611.52 481.02 611.12 480.35 611.26 479.01 611.59 477.75 611.46 476.88 611.26 475.28 610.92 473.94 610.72 473.01 610.85 471.81 611.06 470.74 611.12 469.94 611.32 469.63 611.01 469.6 610.99 469.4 610.45 469.6 609.85 469.15 608.79 470.43 608.28 478.4 606.86 480.51 606.44 482.08 605.97 482.92 605.51 483.68 604.78 483.35 604.04 482.55 603.24 482.15 602.78 481.48 602.31 480.82 601.97 479.95 601.84 479.41 601.71 478.28 601.31 477.81 600.97 477.15 600.84 476.61 600.97 475.94 600.97 475.94 600.57 475.88 599.44 475.61 598.9 474.88 598.3 474.34 597.63 473.41 597.57 472.74 597.7 472.07 598.17 471.61 599.1 470.4 599.3 469.67 599.3 468.6 598.77 468.34 597.9 468.16 596.94 467.94 595.36 467.13 594.76 465.91 594.6 468.76 592.06 469.65 591.06 469.84 590.63 470.67 589.35 470.47 588.55 470.07 587.88 469.34 586.75 468.14 585.48 467.67 584.68 467.13 584.41 466.2 584.28 465.4 583.95 464.8 583.48 464.07 583.28 463.33 582.94 462.06 582.41 461 581.94 459.46 581.27 458.33 581.07 457.39 580.14 455.72 579.47 453.92 578.4 451.32 577.33 449.78 577.47 447.58 576.87 445.31 576.53 441.84 576.4 439.04 576.47 438.57 576 437.64 575.2 436.24 574.73 436.04 574.13 435.77 573.46 435.17 573.06 434.5 573.13 434.5 572.46 434.84 571.93 434.77 570.92 433.97 569.59 432.5 568.05 432.37 567.39 432.17 566.72 431.83 565.98 431.17 564.91 430.5 563.04 429.9 562.51 429.96 561.71 429.36 559.84 428.76 558.24 428.83 557.1 428.63 556.57 427.9 556.03 427.16 555.43 426.29 554.5 425.16 552.63 424.22 552.29 423.09 552.76 421.52 553.44 419.46 553.32 418.35 552.83 417.95 552.03 416.75 551.49 415.55 551.09 414.28 550.83 413.68 551.03 412.81 552.03 411.88 552.43 410.08 552.23 407.14 551.63 405.21 551.16 403.47 550.63 402.8 550.89 401.13 552.16 399.47 553.83 398.27 556.43 397.13 560.11 396.06 560.57 394.93 560.57 393.39 562.18 392.39 563.45 389.79 564.11 387.59 563.65 386.72 561.58 385.05 559.71 382.85 557.57 381.75 556.39 381.85 555.48 381.87 555.28 381.88 555.19 383.92 555.1 385.39 555.77 386.19 557.24 387.39 558.7 388.86 559.77 390.26 560.24 392.13 560.11 392.86 559.44 393.33 558.17 394.26 557.1 394.93 556.43 394.86 555.5 394.66 554.77 394.66 553.7 395 552.36 395.26 551.56 396 550.49 396.33 549.76 396.53 548.62 397.2 548.29 398.06 548.02 399 547.82 399.93 547.09 400.07 546.42 400.27 545.48 400.27 544.55 400.13 543.88 400.33 542.81 401.54 542.48 402.07 542.21 402.6 542.01 403.67 542.41 404.74 542.21 405.34 541.74 407.47 541.41 409.54 540.94 410.25 540.98 410.88 541.01 412.08 541.61 412.61 542.41 413.21 543.01 414.15 543.41 415.15 543.95 416.02 544.88 416.95 546.02 417.68 546.82 418.29 547.29 418.75 546.89 419.55 546.08 420.78 545.5 422.36 545.38 Z"/>
</g>
</svg>