<?xml version="1.0"?>
<svg xmlns="http://www.w3.org/2000/svg" version="1.2" baseProfile="tiny" width="800" height="906" viewBox="0 0 800 906" stroke-linecap="round" stroke-linejoin="round">
<g id="folsomlake">
<path d="M 129.49 863.54 163.81 819.65 273.5 679.47 275.32 679.59 276.02 679.62 276.48 679.07 276.53 678.54 277.52 678.87 278.84 678.39 279.92 676.71 281.59 675.03 280.42 672.41 281.59 670.48 283.51 670.12 284.11 668.8 284.1 666.94 284.99 666.66 285.27 666.16 285.31 666.16 286.87 665.32 287.35 663.64 290.35 662.92 290.82 661.13 291.66 662.12 292.72 663.09 293.58 664.12 295.38 663.4 297.06 662.08 296.34 660.88 293.94 659.32 293.1 657.52 292.86 655.73 292.87 655.68 294.8 656.72 295.93 656.94 297.52 656.61 298.51 656.53 300.03 656.47 300.56 656.06 301.09 655.56 302.43 655.59 303.53 655.85 303.77 654.29 303.05 652.37 301.49 651.17 301.73 649.85 301.13 649.01 300.17 648.89 299.46 647.69 302.09 647.93 302.64 646.98 303.88 648.36 306.19 648.65 306.65 649.37 309.52 647.93 309.52 646.37 307.61 642.89 305.09 639.18 304.01 638.58 304.13 636.54 302.56 635.27 303.27 634.72 305.49 634.44 306.55 635.08 306.62 635.91 307.05 637.37 308.11 638.26 309.34 638.56 310.58 639.86 310.83 640.83 311.64 641.61 312.99 641.61 314.93 640.94 315.89 640.66 314.92 643.73 314.2 645.05 315.71 645.51 316.77 645.42 317.72 645.78 318.01 646.34 317.37 648.13 317.02 648.69 316.98 649.66 317.87 650.07 320.09 649.82 322.03 649.74 322.82 650.08 322.71 650.21 319.11 652.85 319.23 654.29 320.67 656.32 321.19 659.45 321.86 661.81 322.93 663.83 324.69 664.79 325.16 665.01 324.75 667 325.4 667.28 325.47 668.53 326.96 670.22 327.42 671.19 328.02 672.29 329.96 672.57 332.26 673.54 333.42 674.53 333.85 676.11 333.39 677.3 333.92 679.1 335.41 683.06 335.65 685.77 335.73 688.95 335.72 689.46 334.22 691.22 335.16 692.97 336.22 693.8 339.3 694.29 343.82 694.32 345.16 693.49 346.5 691.97 347.52 690.62 346.44 687.86 346.34 687.79 346.36 687.73 346.11 686.54 344.41 685.16 343.53 683.69 343.11 682.31 343.1 680.92 344.09 679.9 344.83 679.07 345.26 677.55 345.25 677.51 345.97 673.23 345.29 672.01 346.56 670.54 346.58 670.32 347.76 671.19 348 673.35 348.93 674.52 348.72 675.03 348.36 677.43 349.67 679.37 351.65 679.79 353.07 680.48 354.48 681.31 355.54 681.72 356.63 682.47 357.71 681.15 358.13 680.36 359.07 680.14 360.06 680.23 362.53 681.61 364.19 682.47 363.83 684.27 363.83 685.58 364.8 686.34 365.79 686.9 367.73 687.03 368.61 686.89 369.32 686.29 370.91 685.95 373.41 685.45 376.88 684.84 377.83 684.1 378.29 683.46 378.43 682.67 378.69 681.15 377.81 680.73 377.69 679.95 377.86 679.03 377.88 679 378.45 678.75 378.81 677.07 377.47 674.88 378.28 672.58 378.64 672.39 379.41 672.8 379.94 673.72 380.48 675.02 383.13 677.26 384.54 678.86 385.92 681.41 387.68 682.96 389.27 683.24 389.98 683.1 391.15 680.88 391.71 677.56 392.1 675.49 392.52 674.85 393.23 674.66 394.29 675.21 395.28 675.76 396.34 675.62 396.79 674.79 396.33 673.27 395.03 670.5 394.18 668.01 393.47 667.1 392.53 666.62 392.36 665.92 390.8 665.56 388.16 665.56 386.36 665.32 385.51 665.85 385.42 665.83 385.01 665.83 381.33 664.6 378.33 664.84 376.03 665.35 376.09 664.97 377.19 664.2 378.49 663.59 380.65 663.17 382.7 662.34 383.23 661.65 383.23 660.9 383.05 660.07 381.92 659.16 381.37 658.8 381.81 657.88 380.01 656.68 379.77 656.3 380.27 656.29 381.14 656.25 381.85 655.28 382.83 655.28 384.42 655.84 385.66 656.25 387.07 657.53 388.38 658.27 389.62 658.35 391.38 658.3 392.48 657.39 393.26 656.56 394 655.95 396.4 654.15 398.17 653.26 398.98 652.76 399.15 650.41 399.86 650.08 400.78 649.19 401.13 648.08 401.03 647.03 399.79 645.41 398.47 645.17 395.23 646.13 393.08 646.65 392.72 645.96 393.08 645.21 395.12 643.96 396.29 643.27 396.92 642.02 396.64 640.92 395.58 640.14 394.17 640.14 392.93 640.09 392.58 639.65 392.93 639.04 394.45 638.9 395.33 638.7 396.5 637.87 397.38 637.24 398.19 636.43 398.09 635.16 396.89 633.78 393.43 633.06 390.44 633.42 388.37 634.66 387.74 633.56 387.84 632.78 388.55 632.23 389.78 632.03 391.3 631.9 393.71 630.51 394.87 629.35 395.4 627.27 394.09 626.36 393.39 625.53 392.75 625 392.69 625 392.23 624.64 391.6 624.23 391.17 623.87 391 623.23 391 623.06 392.05 622.1 392.3 620.93 391.81 619.19 390.39 616.56 389 614.35 387.92 613.63 387.76 613.65 387.63 613.3 386.15 612.11 387.28 611.77 388.98 612.38 390.89 612.46 391.68 612.53 392.26 612.32 392.76 611.46 393.12 610.74 393.05 609.15 392.54 608 391.46 606.13 391.39 604.98 391.1 603.18 391.03 602.17 390.89 600.95 390.67 600.3 390.43 599.71 390.03 598.72 389.31 597.71 388.16 595.77 389.02 596.2 389.81 596.71 390.74 598 391.25 599.08 391.82 600.09 392.4 600.45 393.26 601.17 394.27 599.66 394.7 598.65 394.84 600.09 394.99 601.53 395.49 602.39 395.92 602.82 396.43 604.12 395.85 605.2 396.5 606.49 397.51 607.14 398.51 607.35 399.52 607.57 400.31 608 400.31 608.58 399.61 609.86 398.09 612.13 397.21 614.98 397.5 615.53 398.58 616.56 399.52 617.21 400.89 617.57 401.96 617.5 402.44 618.25 402.93 618.67 402.41 620.46 403.19 621.53 404.19 622.32 404.99 622.39 406.21 622.61 406.87 623.43 407.46 623.5 408.1 624.69 408.17 625 408.37 625 408.44 626.69 410.03 627.88 411.51 630.23 412.47 633.55 413.17 636.26 413.53 636.88 414.32 636.99 415.04 637.17 415.52 637.35 415.92 637.96 416.42 638.1 417.37 637.89 417.97 637.53 418.69 637.05 419.23 636.93 419.65 636.69 419.83 635.97 419.65 635.31 419.62 634.32 419.39 634.08 419.22 633.29 418.45 631.9 418.69 631.24 418.99 631.18 419.57 631.09 420.13 631.24 420.55 631.3 420.85 631.54 421.39 632.2 422.23 632.67 423.13 633.03 423.9 633 424.88 632.95 424.75 632.26 424.63 631.3 424.09 630.28 423.73 629.26 423.49 628.54 423.23 628.14 422.95 627.7 422.17 627.52 421.69 627.58 421.15 627.76 420.19 628.36 419.77 629.36 419.14 629.34 417.73 628.74 417.2 627.63 417.48 625.33 417.52 624.99 417.35 624.99 417.25 624.88 417.03 624.66 416.89 624.47 416.75 624.3 416.72 624.19 416.96 623.17 417.67 622.01 416.71 620.12 414.66 618.96 414.72 618.54 414.38 617.63 414.38 616.61 414.38 615.23 414.8 615.59 415.4 616.31 416.06 616.73 416.48 617.61 417.95 618.46 420.07 620.07 421.15 619.06 421.48 617.08 421.45 616.61 422.75 617.3 424.95 619.1 426.71 619.79 428.34 619.87 430.28 621.39 431.83 621.44 432.15 622.51 433.35 623.71 433.53 623.68 433.64 624.19 434.66 625 435.25 625 435.85 625.52 437.62 625.88 438.68 627.21 439.35 628.23 440.69 628.68 444.58 629.17 446.45 629.73 447.76 630.64 450.59 632.38 452.46 633.21 454.47 634.27 455.92 634.32 456.51 634.33 456.8 633.76 457.38 632.52 457.95 632.52 458.96 632.56 460.83 632.61 462.14 632 465.71 628.95 466.66 627.71 467.01 626.28 467.21 625.23 467.11 623.64 467.31 622.26 466.97 620.89 466.34 620.33 465.72 619.85 466.01 619.28 467.01 619.18 468.07 618.56 468.55 617.45 468.76 616.39 468.46 615.73 467.95 615.16 467.95 614.44 467.86 613.75 468.19 613.28 468.4 613.28 468.85 613.54 469.57 614.08 470.55 614.14 471.9 614.88 474.55 616.99 476.21 617.12 476.81 617.04 477.58 616.44 479.31 615.27 480.15 614.19 481.32 612.87 482.13 611.58 482.85 610.24 483.33 609.6 483.87 607.63 484.33 606.94 485.46 605.14 486.2 603.62 486.34 603.56 486.27 603.04 485.91 602.47 486.81 602.05 487.5 602.29 488.63 603.04 489.17 603.94 490.25 604.6 491.18 604.51 492.06 603.63 492.6 601.21 492.49 597.94 491.61 597.06 489.31 595.59 488.61 594.84 488.7 594.17 488.72 594.07 488.72 594.06 488.87 593.41 488.87 592.31 488.15 591.23 487.67 589.69 487.58 588 487.44 586.04 487.4 585.96 487.58 583.88 487.16 581.73 487.15 580.62 486.55 577.44 485.92 576.11 486.07 574.98 486.09 574.81 485.85 573.62 485.85 572.15 485.85 571.96 487.01 570.99 488.07 569.47 488.35 566.97 487.72 563.71 487.72 562.82 488 562.74 488.34 561.6 488.85 560.76 489.37 560.4 489.63 560.22 490.44 559.41 489.9 560.46 490.17 562.62 490.74 563.87 490.86 565.67 490.98 567.65 491 569.84 491.08 570.65 491.32 574.2 492.03 577.3 493.09 579.32 493.44 581.67 494.15 583.75 495.21 583.88 496.55 583.69 497.79 583 498.6 581.2 499.13 580.09 501.61 578.79 501.89 577.96 502.42 576.63 503.94 576.3 505.53 575.25 508.99 572.98 510.05 569.3 510.97 567.86 511.75 567.72 513.16 568.69 514.04 568.88 516.45 568.63 518.49 568.63 519.2 569.1 519.63 570.43 520.61 571.82 523.09 572.65 525.22 572.82 527.05 572.01 528.76 571.95 530.68 571.5 531.87 571.14 533.24 570.97 533.77 571.41 533.84 571.94 534.63 572.43 536.38 573.41 538.03 573.77 538.44 573.91 538.35 575.33 538.35 576.43 538.61 577.61 538.87 578.83 539.02 579.96 539.06 580.87 538.85 582.19 538.49 582.62 538.92 583.41 540.26 584.6 542.13 585.38 542.49 585.38 543.88 584.92 546.61 584.06 547.52 582.86 547.81 582.23 548.19 581.28 549.43 580.08 549.2 578.21 548.72 577.34 547.81 576.53 547.19 575.76 546.95 574.7 546.76 573.53 546.95 572.07 546.72 570.82 546.96 570.32 546.99 569.95 547.38 569.33 548.1 568.55 548.1 567.6 548.97 566.98 549.82 567.22 550.93 566.93 551.65 565.97 551.98 565.42 552 565.38 552.22 565.01 552.84 564.34 553.8 563.48 554.73 562.37 554.54 560.99 554.89 560.25 556.02 558.86 556.48 557.48 556.13 556.29 556.3 555.32 558.17 554.3 558.88 553.47 560.51 550.61 562.27 547.51 562.63 545.08 563.62 543.83 565.14 542.12 565.49 540.6 565.42 539.27 563.9 538.22 563.37 537.47 563.14 537.36 563.43 536.96 563.9 536.42 564.97 535.81 565.12 534.37 565.08 532.82 564.9 532.18 565.37 532.07 566.31 531.85 567.85 531.28 569.36 530.59 570.26 529.44 570.37 528.9 570.51 527.5 570.91 526.49 571.38 526.49 571.95 526.85 572.99 526.81 575.01 526.85 576.02 527.21 577.27 526.49 578.5 526.24 579.9 525.74 580.58 523.9 580.62 523.29 580.29 521.99 579.21 520.82 578.86 520.78 578.11 520.45 577.33 520.12 576.76 520.06 577.48 519.37 578.08 518.35 578.59 517.93 578.62 517.22 579.28 517.28 580.86 517.1 581.46 517.22 582.03 517.99 582.03 518.41 581.99 518.67 581.94 518.92 582.39 519.22 583.02 519.52 583.5 519.73 583.83 520.15 584.34 520.27 584.61 520.51 585.39 520.81 586.74 521.68 587.97 522.31 589.25 522.64 590.12 522.41 591.01 521.64 591.71 520.39 591.82 516.46 591.04 508.22 591.22 506.06 591.93 505.37 592.67 505.5 592.97 506.61 593.21 507.68 593.63 508.58 594.39 510.07 594.89 511.34 594.75 512.45 594.83 513.5 595.44 514.02 596.33 515.18 597.23 516.08 598.29 516.69 598.57 516.55 599.44 516.46 600.05 515.94 600.93 514.51 602.39 513 604.52 511.85 605.51 511.01 606.5 510.56 607.73 509.54 608.93 509.15 610.01 508.79 611.21 508.28 612.89 507.74 613.81 507.02 614.2 507.05 614.95 507.14 616.39 507.05 617.41 506.84 618.09 506.64 618.64 505.98 619.35 504.18 620.34 500.17 621.51 497.26 621.71 496.15 623.54 494.75 624.86 494.03 625.99 494.02 625.37 496.48 625.5 498.64 625.82 501.83 627.23 504.32 628.82 507.25 629.88 508.22 632.39 508.55 634.51 509 639.04 508.36 640.23 508.19 641.97 507.63 642.58 507.12 643.52 506.69 644.49 506.4 644.75 506.28 645.03 506.15 646.22 505.9 647.83 505.58 649.31 505.11 650.6 504.93 651.79 504.68 652.76 504.71 655.28 504.75 657.65 504.46 661.08 504.37 664.23 503.99 669.04 503.99 670.95 504.26 672.65 504.49 673.96 504.81 675.6 504.91 676.42 504.91 677.52 505.19 678.62 505.19 679.68 505.19 681.12 505.29 681.36 505.56 683.18 506.15 684.76 506.68 686.01 507.45 687.54 507.74 688.87 507.33 689.93 507.19 690.8 507.11 691.35 507.78 691.76 507.61 692.31 507.39 692.91 506.78 693.88 506.51 694.35 505.77 695.31 505.24 697.28 504.38 696.8 504.72 696.12 505.49 696 505.63 695.49 507.22 695.14 508.31 694.98 509.31 695.32 509.69 696.34 510.14 697.46 510.29 698.18 510.36 698.72 510.47 700.47 511.02 702.01 511.14 706 511.64 708.37 511.81 711.46 511.53 713.05 511.35 714 511.31 714.38 511.13 715.46 510.99 715.96 510.37 716.86 509.69 717.61 509.3 718.58 509.04 719.35 509.24 720 509.18 720.81 509.19 721.77 509.6 722.14 509.67 723.6 510.36 725.4 510.93 726.48 510.97 727.47 510.63 728.02 510.59 728.74 510.54 730.89 510.36 731.93 510.38 733.76 510.08 734.69 509.78 735.23 509.37 736.4 508.71 737.39 508.05 738.05 507.45 738.84 506.97 738.97 506.82 740.68 504.98 741.67 502.99 742.37 502.35 745.06 501.14 747.43 499.81 750.47 497.82 753.47 495.88 755.35 495.33 759.8 494.58 766.37 493.89 770.26 493.7 773.02 494.06 776.73 494.81 779.03 495.17 783.2 495.59 786.06 495.89 789.3 497.31 791.09 498.98 792.45 500.75 792.78 501.5 793.32 502.59 793.81 504.89 794.04 505.95 794.04 508.95 795.96 515.78 795.96 517.22 795.72 521.9 796.2 527.53 797.52 532.33 799 535.78 798.86 535.89 798.29 536.39 797.8 536.39 797.59 536.39 797.48 536.2 797.52 534.97 796.56 532.93 795.36 529.33 795 525.73 794.8 521.3 794.42 520.21 794.33 519.32 794.63 517.98 794.36 517.25 794.15 516.17 794.27 515.51 794.43 514.81 794 513.5 793.08 509.19 792.81 509.02 792.67 508.34 792.72 507.51 792.13 506.54 791.84 505.53 791.77 504.73 791.52 504.15 790.79 502.84 786.2 500.35 785.41 499.44 784.55 499.55 781.22 498.03 777.14 497.19 774.51 496.21 774.26 496.11 773.8 496.1 769.95 496 762.34 497.21 757.11 498.04 752.33 500.19 748.34 503.01 747.41 503.67 746.44 504.43 739.14 510.15 733.87 512.42 731.47 512.78 726.55 513.14 724.24 513.89 723.82 514.03 722.84 513.5 720.08 513.74 715.29 513.38 706.66 514.34 693.59 514.34 689.16 513.51 687.84 513.26 684.96 512.18 683.28 511.1 681 510.27 677.77 509.31 671.17 509.55 664.46 510.51 662.18 511.7 659.07 512.3 655.23 510.98 651.99 511.22 649.6 512.3 649.72 514.34 649 515.54 648.04 516.86 646.84 519.74 645.76 520.34 643.12 518.9 640.61 519.86 638.89 519.87 637.94 518.27 637.85 518.21 637.25 517.1 635.45 515.3 632.1 514.46 627.54 514.94 625.14 514.94 621.19 515.06 618.67 515.9 616.27 515.42 613.88 516.5 613.88 517.7 612.08 518.18 606.68 522.62 606.68 524.18 606.59 524.21 604.05 525.14 598.77 528.01 595.54 529.45 593.38 531.13 592.3 534.13 590.26 536.29 590.26 538.21 588.34 538.69 586.19 540.72 585.35 542.28 586.94 543.81 586.23 544.78 584.89 545.74 584.54 546.52 584.62 547.5 585.62 548.94 586.37 549.6 588 549.84 588.71 550.12 588.88 550.67 588.07 551.78 588 552.75 588.53 553.16 586.03 554.69 584.15 556.43 583.67 558.23 584.51 559.91 584.99 559.86 585.03 559.94 586.09 560.72 587.65 560.99 586.8 562.1 585.84 562.38 584.85 563.49 584.15 565.56 584.39 566.89 585.1 567.95 584.03 568.9 583.99 570.16 583.58 570.63 583.51 570.7 583.41 571.22 583.06 572.28 583.47 572.69 583.41 573.43 584.15 576.1 584.29 576.24 584.82 577.35 583.83 579.43 583.37 582.19 584 583.25 583.9 584.91 583.54 585.46 582.31 585.93 581.39 585.21 580.79 585.93 581.03 587.49 581.78 587.75 581.85 588.37 582.98 588.92 584.85 590.11 585.31 590.8 587.08 591.27 588.56 591.36 589.09 591.96 589.37 594.12 589.63 594.37 591.12 595.15 592.51 594.38 594.67 593.3 597.37 593.44 598.49 593.24 600.11 593.24 603.29 594.93 605.13 596.86 606.76 597.07 608.72 598.4 609.85 598.24 610.4 598.16 611.12 600.32 612.08 601.28 613.11 601.65 615.69 602.57 618.75 602.78 617.57 604.12 616.99 604.76 617.95 608.72 617.6 610.32 617.35 611.48 615.55 611 614.83 608.72 614 607.16 612.2 606.56 609.68 606.56 608.48 606.67 606.54 605.67 603.36 604.34 601.84 602.59 599.55 601.35 598.96 601.28 598.05 600.44 592.18 601.52 590.5 603.08 587.62 602.72 583.07 604.52 580.31 604.28 578.63 604.52 577 609.57 574.85 610.17 573.15 611.73 570.82 612.24 570.26 611 569.55 610.23 566.51 608.98 566.09 608.43 566.62 608.02 567.15 607.66 567.94 605.05 568.54 602.66 568.66 601.34 567.82 600.02 566.9 598.11 564.07 596.7 562.03 596.28 561.12 596.73 559.1 596.73 557.06 597.69 554.3 597.92 551.18 598.52 547.95 599.72 546.39 601.04 544.23 603.32 543.51 604.4 541.47 604.4 538.24 605 534.64 606.08 531.29 607.52 529.01 607.88 528.21 606.74 528.85 605.36 527.51 603.78 525.67 602.73 521.96 600.85 518.5 597.72 516.98 595.23 515.58 592.64 513.76 592.64 512.2 592.16 510.76 592.28 510.4 593.6 510.18 595.05 510.75 596.43 511.24 596.72 512.08 598.4 512.54 600.23 513.44 600.9 514.33 602.51 514.05 603.53 510.41 603.62 508.46 604.09 506.84 605.39 504.79 610.31 501.96 612.8 499.46 613.55 497.69 614.33 497.6 614.41 495.8 614.83 492.33 618.67 491.37 621.16 491.3 623.79 491.78 624.99 492.1 624.99 492.38 625.38 493.37 626.01 495.49 625.82 496.83 625.96 496.83 626.65 495.66 627.68 495.13 628.78 495.21 630.3 495.81 631.08 496.06 631.23 497.5 631.18 499.52 631.57 500.33 632.21 500.86 632.41 501.46 632.91 501.92 634.62 502.34 636.37 502.7 637.83 505.17 638.19 506.13 637.9 508.98 635.84 510.54 632.91 511.49 631.69 511.95 631.13 512.66 630.86 514.18 631.08 515.06 631.63 514.95 632.24 514.42 633.21 514.14 634.18 514.57 634.95 515.63 635.87 518.73 637.25 520.15 637.67 522.2 637.61 521.22 639.18 517.62 639.06 516.4 641.48 515.34 642.79 514.95 643.89 515.13 644.67 516.19 645.55 514.02 646.97 513.9 648.77 514.27 648.76 514.21 648.88 514.32 649.43 515.1 650.54 516.61 650.9 517.74 651.45 519.26 651.67 520.68 651.48 521.74 651.53 522.62 651.89 523.79 651.97 525.2 652.17 525.98 652.39 525.98 652.94 524.74 653.64 524.39 654.6 524.46 656.04 524.77 656.93 524.53 657.32 523.93 657.79 522.51 657.84 522.3 657.79 521.17 657.29 519.54 655.97 517.62 655.85 514.98 657.16 514.98 658.6 515.59 658.8 515.73 660.19 518.03 662.19 520.5 664.07 521.49 664.35 522.2 664.98 519.54 665.56 519.66 667.24 520.74 668.92 522.47 668.6 522.87 668.97 523.04 669.13 524.63 670.46 525.23 672.07 526.4 672.76 525.53 673.83 521.94 674.79 518.34 675.15 515.46 676.83 515.46 678.63 516.78 680.19 519.54 680.17 517.5 681.99 517.38 683.07 517.62 684.51 517.02 685.94 517.62 686.9 517.98 688.34 516.9 689.66 517.38 691.82 518.94 692.9 520.87 693.13 520.98 693.14 520.96 693.16 520.14 694.22 518.46 694.46 518.22 695.66 518.34 696.74 518.22 698.9 516.78 699.38 515.94 701.05 516.18 702.85 517.14 704.29 518.94 705.37 515.58 705.25 514.74 706.45 514.5 707.89 514.86 712.57 516.9 714.49 517.86 714.84 519.52 715.57 516.18 715.2 514.02 715.56 513.3 717.6 513.42 720.12 514.86 722.64 515.52 722.98 514.94 726.32 511.39 723.12 508.51 720.12 507.43 719.64 506.35 718.32 506.11 716.16 506.59 711.85 507.07 708.97 506.76 707.33 507.71 706.58 508.53 705.11 508.74 701.6 509.62 698.89 509.66 697.92 508.42 696.53 508.6 695.98 509.06 695.43 509.48 694.73 509.52 690.78 508.92 688.51 508.18 686.38 508.27 686.18 506.71 683.91 505.51 683.31 501.67 684.58 502.13 683.61 502.66 681.95 505.88 680.18 506.48 679.4 505.98 677.33 505.7 675.89 505.98 673.09 505.83 672.62 506.23 672.27 505.75 670.95 502.56 670.88 504.78 670.05 506.3 668.61 506.9 668.11 506.76 666.67 506.58 665.48 505.17 663.46 503.33 661.38 500.26 658.04 498.56 656.24 497.6 654.77 494.84 655.13 493.35 655.7 493.33 655.52 493.02 653.72 492.66 652.83 490.37 651.23 490.23 651.13 490.17 650.69 488.49 648.77 481.66 645.53 480.7 645.41 479.5 645.77 478.18 648.17 477.97 648.48 477.9 648.46 475.14 647.02 471.61 645.2 469.31 643.73 468.35 643.13 466.44 643.61 465 645.53 464.71 647.54 464.58 647.74 464.23 648.02 463.8 648.07 462.92 647.66 461.64 647.09 459.96 646.85 455.77 648.17 454.81 649.73 455.25 650.95 455.25 652.18 454.33 653.81 453.37 654.89 453.81 657.18 453.1 658.09 452.57 659.06 452.78 661.89 453.77 663.63 454.73 665.43 454.76 665.91 454.21 668.08 453.13 667.36 451.33 665.8 449.17 665.08 446.66 665.08 447.63 667.15 447.1 669.17 446.9 669.99 445.46 668.8 443.66 668.92 442.1 669.4 440.9 667.12 439.82 666.4 437.67 666.88 434.41 669.44 434.31 668.2 433.64 666.4 433.71 665.65 434.34 664.74 434.45 662.94 434.27 661.83 433.21 660.37 431.8 660.09 429.63 659.92 426.04 661.24 424.72 663.04 425.2 664.84 424.12 667.24 423.52 668.44 424 670.83 423.52 673.23 424.74 673.88 424.98 674.57 425.58 675.06 425.44 675.39 424 676.23 424 677.43 425.06 677.71 425.06 677.75 425.94 678.44 427 679.27 427.04 679.38 426.04 680.43 424.48 679.35 422.8 679.23 420.52 679.47 418.73 679.47 418.49 680.55 421.31 681.26 421.1 681.87 421.98 683.06 422.11 683.83 421.84 683.79 419.81 684.99 418.97 686.18 419.41 687.63 419.65 688.74 420.79 689.43 422.23 689.65 423.65 689.73 424.35 690.07 424.88 690.48 425.02 692.14 425.48 693 426.79 693.83 428.13 694.02 429.55 694.11 430.78 693.83 432.94 692.31 434.53 690.67 435.05 690.04 436.22 690.04 437.46 690.04 438.27 689.51 439.33 688.18 439.68 687.43 440.21 687.07 440.92 687.21 441.73 688.46 442.44 689.87 443.11 691.67 442.69 693.05 442.4 694.44 440.78 694.58 440.06 695.78 439.58 697.34 440.07 698.78 439.34 699.5 438.27 699.26 436.83 698.78 435.87 699.02 433.59 699.62 432.87 701.17 432.63 702.49 433.19 705.34 432.83 705.98 432.66 707.14 432.2 707.78 429.4 703.33 425.8 700.93 423.88 699.14 421.96 698.54 419.57 699.02 418.31 698.38 418.37 696.62 415.97 696.62 413.81 697.22 412.37 697.46 412.4 698 412.24 698.01 411.78 699.03 410.46 699.97 408.42 698.9 407.1 699.02 404.82 697.94 403.74 698.54 400.75 698.54 397.99 698.18 397.84 698.84 396.63 698.84 395.99 699.4 395.74 700.59 395.89 701.07 391.64 702.13 390.56 703.09 390.73 704.52 390.2 708.13 389.84 711.85 390.7 713.51 390.32 717.48 390.98 719.77 388.64 720 386.81 718.23 386.6 715.44 384.84 713.07 383.6 709.81 382.41 707.29 380.61 706.09 379.05 704.89 374.85 705.13 372.22 705.49 370.3 708.01 370.33 708.29 369.36 709.7 367.9 710.53 366.94 711.73 365.6 711.3 365.5 711.13 365.02 709.21 363.11 708.37 360.95 708.25 358.33 710.47 355.67 711.25 352.13 712.64 351.07 713.25 350.26 714.91 349.98 718.17 348.99 719.75 347.47 720.86 347.19 722.11 347.54 723.99 348.78 726.53 349.56 728 349.27 728.91 349.21 730.21 350.05 731.6 350.58 732.37 350.58 732.79 348.12 731.75 346.32 731.63 344.29 730.31 342.97 729.23 341.41 729.47 340.23 730.55 339.35 731.71 339.42 733.1 339.49 735.25 340.2 736.36 341.16 737.69 341.33 738.8 340.98 740.59 341.23 742.03 342.89 743.36 342.49 744.94 341.17 745.54 339.84 748.88 339.5 749.73 340.56 750.84 342.15 752.36 344.52 754.38 345.12 755.62 345.47 757.45 347.49 758 348.19 758.64 347.66 759.39 345.97 760.27 345.02 761.46 344.81 762.62 345.34 764.56 346.57 766.58 347.53 767.63 348.87 767.72 351.62 767.71 352.75 768.27 353.81 769.18 355.12 770.29 356.99 770.98 360.53 771.89 361.69 772.8 361.69 773.5 361.06 774.41 359.79 775.3 358.83 776.27 358.71 776.46 358.55 776.48 356.75 776.96 354.96 777.32 352.68 780.08 352.34 780.66 352.33 780.67 350.04 784.64 351.36 786.44 351.37 786.43 351.39 786.76 352.55 787.34 353.15 787.2 353.96 786.42 354.71 785.04 355.31 784.62 355.94 784.71 357.18 785.54 357.92 785.94 359.66 786.91 360.76 787.03 363.69 788.11 366.75 789.37 368.97 790.27 371.66 792.25 373.96 794.33 375.55 795.58 377.13 796.77 378.04 797.86 378.87 798.84 379.33 799.86 378.98 800.82 377.84 801.6 376.82 802.44 376.1 803.04 375.92 803.64 376.82 804.96 378.68 806.7 379.34 807.36 382.69 806.1 384.59 805.32 386.62 804.96 387.27 805.1 386.11 806.2 385.11 806.83 384.03 807.26 382.88 808.92 384.03 810.57 384.54 811.87 385.11 813.31 385.4 814.31 385.9 815.68 386.34 816.76 386.34 817.55 388.76 820.05 390.3 821.17 390.08 822.2 389.79 823.56 388.28 821.01 386.94 820.33 384.51 820.36 382.83 819.99 379.37 819.71 378.31 819.35 378.13 817.77 378.24 817.08 378.21 815.1 376.05 813.46 374.7 812.49 374 811.8 373.86 810.19 372.87 809.22 372.7 807.54 370.9 806.46 369.34 805.14 367.9 804.06 365.62 803.7 364.19 804.42 364.67 806.1 364.57 807.54 363.71 809.94 362.51 809.58 360.95 809.22 360.11 810.06 358.67 809.1 357.59 807.78 355.91 806.34 354.72 805.14 351.6 804.9 349.56 805.02 346.89 806.39 346.2 806.35 345.84 806.28 345.97 804.66 345.61 802.62 344.29 801.43 342.01 801.67 341.27 802.13 340.48 802.31 338.79 802.26 337.37 801.95 335.79 801.4 334.02 801.4 332.15 802.57 330.45 803.81 329.75 805.2 329.64 806.66 330.81 807.77 331.59 808.32 331.43 808.87 330.5 808.26 328.7 807.66 326.55 807.54 325.11 809.22 325 810.03 324.56 810.46 323.5 811.34 322.16 812.09 321 813 320.4 813.75 319.51 814.31 317.64 815 316.3 815.69 315.24 816.71 314.96 817.77 315.31 818.87 317.08 820.34 318.74 821.45 319.62 822.36 319.34 823.19 318.53 824.85 318.64 825.74 319.42 826.37 321.53 826.45 323.33 826.45 324.64 825.9 326.27 825.71 328.45 825.79 329.27 826.06 329.27 826.48 328.63 826.67 327.29 826.87 325.98 827.56 324.82 828.89 323.55 830.97 322.67 833.24 320.59 835.87 318.08 839.46 316.49 842.7 315.4 844.36 313.64 845.33 311.76 846.3 309.9 848.3 308.91 850.45 308.34 853.22 308.59 855.02 308.59 856.35 307.96 857.65 308.07 859.12 308.14 861.11 308.28 862.02 308.1 862.77 306.69 863.85 305.88 864.43 301.01 866.43 297.2 868.09 291.48 870.92 285.73 873.02 281.1 875.37 278 877.09 271.93 879.64 269.1 880.94 266.07 882.05 262.18 883.13 255.97 884.71 253.93 885.27 250.82 886.1 247.96 887.6 247.89 887.68 245.56 889.67 241.47 893.47 240.23 894.1 238.08 894.22 237.02 894.71 236.14 895.13 234.63 895 232.54 894.21 233.55 893.35 233.69 891.87 233.36 891.34 232.4 890.98 231.89 890.54 230.74 889.96 230.39 889.17 230.67 887.95 231.13 887.11 230.96 886.66 230.22 886.44 229.38 886.44 228.95 886.15 228.44 885.22 228.66 883.99 229.68 883.54 229.88 882.7 230.82 882.05 231.73 882.13 232.16 881.86 233 881.26 233.12 880.42 232.52 879.7 231.44 879.58 230.24 879.82 228.8 879.82 227.94 879.76 226.68 879.01 225.42 878.5 224.01 878.74 222.31 879.07 221.08 879.22 220.32 879.24 220.41 880.06 221.25 881.02 221.72 881.65 222.69 882.27 222.18 883.41 222.19 884.06 221.59 884.42 221.47 884.76 220.82 884.64 220.1 885.36 219.21 885.22 218.25 884.74 216.93 884.02 215.85 883.9 214.66 884.02 213.46 884.14 211.18 884.38 209.02 884.74 207.58 885.22 207.34 886.42 208.06 887.26 210.1 887.95 210.82 888.45 211.08 889.69 212.19 890.4 213.56 890.68 215.21 891.4 216.29 891.62 217.01 892.41 216.94 893.27 215.14 893.62 213.7 893.86 211.78 894.45 210.82 895.41 211.3 896.61 211.3 897.57 211.78 898.89 211.54 899.61 210.34 899.97 208.78 900.09 207.34 900.21 206.27 900.81 204.95 902.13 204.35 903.45 203.63 904.17 202.07 904.65 200.37 905 198.64 904.57 198.16 903.8 198.64 903.15 198.71 902.73 199.76 901.8 199.79 901.77 199.67 901.05 198.83 900.21 197.99 899.61 197.28 898.89 196.92 898.17 196.56 897.45 196.32 896.73 196.2 895.89 195.72 895.17 194.88 895.17 194.28 895.77 193.32 896.97 192.12 897.09 191.97 897.47 191.11 897.13 189.82 896.27 188.95 894.97 188 894.11 187.76 893.15 187.76 892.19 187.28 891.09 186.97 890.7 185.65 890.26 184.45 890.02 183.85 890.74 183.37 891.7 182.29 892.18 181.09 891.94 180.25 891.34 178.7 890.74 176.18 890.5 173.78 890.5 172.58 890.62 171.38 889.9 170.9 889.06 169.7 889.18 168.51 890.02 165.87 890.14 162.15 890.38 158.68 890.26 156.04 889.06 154.6 886.3 151.6 884.38 147.65 880.9 143.33 876.71 140.82 874.67 137.34 872.87 132.66 869.99 130.79 868.08 129.31 867.95 126.79 867.23 123.55 865.31 121.64 864.48 120.71 863.99 121.27 862.31 121.65 861.25 122.17 861.3 122.8 860.97 123.52 860.49 123.95 859.86 124.33 859.86 124.51 859.68 125.47 859.68 126.67 859.68 128.19 859 129.49 863.54 Z"/>
<path d="M 273.5 679.47 164.28 819.04 163.81 819.65 163.21 820.41 129.49 863.54 126.63 853.55 125.57 853.14 123.45 853.77 121.4 853.91 119.04 855.46 90.62 842.41 89.14 842.41 79.78 837.98 78.44 837.36 77.31 836.85 69.4 833.11 69.23 832.72 61.25 828.82 17.11 822.27 14.29 821.72 13.55 821.39 11.96 819.95 11.08 817.46 9.36 775.03 11.36 774.89 12.38 775.37 14.59 775.55 17.11 776.33 19.63 776.86 22.51 776.68 24.36 775.43 25.92 773.75 26.94 772.19 27.3 770.51 27.36 768.95 27.72 767.11 28.02 766.01 28.2 765.35 28.14 764.15 27.72 763.67 26.94 763.49 26.34 763.97 25.56 765.53 23.35 766.67 20.77 767.33 19.03 767.39 16.75 767.75 15.13 767.99 13.52 768.41 12.02 768.47 11.18 767.93 10.82 767.21 9.08 766.31 7.7 764.37 3.75 753.24 3.54 751.45 4.6 748.93 4.32 748.46 2.73 747.35 1.28 743.2 1 740.84 12.91 720.53 13.19 720.39 14.78 720.64 17.5 720.42 21.24 719.37 23.08 718.6 25.31 718.18 28.98 716.11 30.5 714.92 31.56 712.7 32.51 712.12 33.64 711.02 37.28 709.41 38.52 709.41 39.12 708.58 42.41 707.03 44.17 706.89 47.6 705.62 48.66 704.79 49.9 704.6 50.18 703.82 50 703.41 48.48 702.24 48.48 700.86 49.51 699.75 51.03 699.45 52.02 699.53 52.44 698.2 53.22 697.65 53.93 697.65 55.44 698.68 57.67 698.59 58.38 697.85 58.45 696.93 59.26 696.38 62.79 696.21 66.93 694.89 67.46 694.61 68.62 692.9 69.15 692.54 69.68 692.45 71.1 692.81 71.98 691.9 72.69 691.54 76.11 690.71 80.07 687.86 81.87 687.5 83.96 686.31 85.83 686.37 87.07 684.65 89.11 684.49 90.25 683.74 92.19 683.44 95.47 682.11 97.03 680.31 98.9 680.31 99.5 678.79 100.74 677.24 100.92 675.99 101.34 675.3 100.71 673.86 101.24 672.81 102.76 673.64 103.11 673.7 103.82 673.37 104.8 673.92 106.39 674.03 106.92 674.31 106.32 675.5 106.39 676.47 105.79 677.52 105.97 677.93 107.13 678.74 107.49 680.48 107.94 680.81 111.37 680.73 113.14 679.82 113.95 679.9 115.72 678.66 116.07 678.16 116.07 677.61 114.55 675.67 115.08 674.23 117.73 675.31 118.26 675.31 119.15 674.4 119.75 674.4 120.84 675.59 121.02 677.52 121.55 678 122.61 677.86 123.49 677.36 123.84 676.61 123.14 674.87 124.73 673.62 126.03 674.79 127.91 674.04 129.07 674.15 129.25 674.43 128.72 676.03 129.35 676.5 130.24 676.59 131.44 675.34 132.89 675.04 134.9 672.69 135.43 671.58 134.52 669.45 135.65 668.45 135.3 667.01 135.9 665.68 136.18 665.49 137.77 665.6 138.3 665.05 138.55 664.16 140.42 663.03 140.6 662.28 138.9 661.4 138.02 661.26 136.08 662.5 134.03 662.36 133.25 662.17 132.61 661.62 132.69 660.37 132.26 659.9 130.11 660.59 128.16 659.01 125.69 658.6 125.31 654.86 119.37 654.88 118.13 653.92 117.68 651.29 116.34 648.38 117.08 641.46 120.76 637.14 122.99 636.04 127.4 634.99 129.7 634.71 130.48 634.08 131.71 633.99 132.07 633.72 132.28 625 132.48 625 132.48 624.29 130.6 623.37 130.25 621.99 130.5 621.38 131.38 620.88 131.28 620.27 129.33 618.94 129.23 617.78 127.39 616.87 126.58 616.18 126.58 615.57 127 615.07 130.29 614.99 131.35 614.24 131.53 612.16 130.82 611.67 128 611.75 127.36 611.14 126.3 608.43 124.43 607.18 124.25 606.57 124.68 606.29 128.49 606.96 131.25 608.48 131.95 608.43 132.66 607.79 132.84 607.24 128.49 603.58 126.16 601.15 125.81 600.45 122.7 600.07 122.46 599.79 122.46 599.37 124.29 598.13 124.65 597.08 125.53 591.96 124.19 590.77 124.19 590.49 126.31 589.47 127.02 588.55 128.86 588.19 129.39 587.37 129.21 586.34 128.61 585.84 127.73 585.7 126.03 586.2 125.04 586.01 124.51 585.37 124.69 584.26 126.03 583.38 128.58 583.02 129.81 582.94 130.52 582.52 130.52 582.19 130.1 581.91 128.58 581.69 126.28 581.36 126 581.08 127.59 578.45 127.87 578.23 129 578.18 129.29 577.9 128.65 577.26 127.31 576.93 125.9 575.6 126.5 573.61 126.07 572.5 125.09 571.31 124.98 570.56 126.15 568.13 126.57 566.05 127.88 563.42 129.47 560.3 130.89 558.64 132.66 555.37 134.78 555.87 135.06 556.15 134.95 559.25 135.16 560.44 135.59 560.77 136.05 560.71 136.58 560.08 137.07 557.39 137.96 556.15 138.77 555.79 140.18 555.65 141.07 555.93 141.53 556.4 141.77 558.06 142.51 559.39 142.34 560.77 142.58 561.6 142.33 562.71 142.79 563.54 142.44 564.51 142.51 565.12 143.68 566.45 143.25 567.89 144.24 569.91 144.94 573.7 147.17 577.3 148.08 580.98 149.32 582.22 152.14 583.89 152.78 583.75 155.61 581.04 156.21 580.12 156.92 579.71 157.73 579.57 162.71 581.09 164.55 581.29 169.35 582.54 170.77 582.54 172.25 581.54 173.14 580.52 174.55 579.83 175.08 578.5 176.42 577.34 176.6 576.42 177.2 575.51 176.92 574.07 177.45 572.47 177.28 571.72 176.57 570.67 176.57 570.2 179.65 567.71 180.18 567.49 181.8 567.63 183.92 568.32 184.45 567.9 184.7 566.24 185.16 565.55 188.16 565.11 189.22 564.42 191.45 564.92 192.51 564.78 193.75 564.14 198.17 562.9 199.58 562.13 200.92 561.99 202.06 557.14 202.56 547.79 203.06 545.63 203.41 545.3 203.87 545.3 204.12 545.58 203.87 546.74 203.87 549.23 204.68 550.28 205.91 551.17 207.18 554.77 208.88 556.57 209.93 561.36 211.1 563.71 210.85 567.72 211.94 569.94 209.64 572.29 209.36 572.98 209.71 574.36 211.51 576.16 211.86 577.13 211.23 577.69 209.92 578.24 209.57 579.35 210.55 580.04 212.74 580.59 214.44 582.12 216.21 582.45 217.48 583.09 217.73 582.59 217.27 579.32 219.14 578.63 219.85 576.83 220.45 576.5 221.69 576.28 222.57 575.64 222.57 574.54 221.76 572.54 220.77 571.1 219.54 570.13 217.42 569.3 216.96 568.89 216.96 568.39 218.48 566.45 218.48 565.9 216.68 565.29 215.8 564.6 215.27 562.8 214.1 561.33 214.1 561 215.09 559.67 214.88 558.37 219.69 557.93 220.47 557.32 220.58 556.21 223.23 555.22 224 554.53 224.11 554.11 223.83 553.42 222.24 551.9 221.08 549.21 219.73 548.05 218.67 547.41 217.79 547.22 216.98 546.44 216.1 543.2 215.18 541.73 211.9 539.33 212.25 538.69 216.24 537.72 217.38 536.48 217.66 534.87 217.2 533.85 216.14 533.16 215.08 533.02 213.31 533.38 212.96 533.1 212.86 531.49 213.21 530.25 212.33 529 212.75 527.76 212.4 527.15 210.88 525.76 209.47 523.69 208.76 523.19 206.36 522.25 205.72 523.55 204.49 523.49 203.53 523.82 202.47 526.95 202.58 527.97 202.22 529.72 201.16 531.79 200.88 532.01 200.52 531.79 199.92 530.27 199.11 529.16 199.36 527.09 198.48 526.53 198.3 526.06 197.39 517.68 198.34 516.65 198.52 515.52 197.99 513.99 197 512.42 197.18 512.28 198.24 512.47 199.51 513.11 200.47 513.86 202.44 516.43 203.04 516.85 203.4 516.71 202.69 515.6 203.04 515.05 205.52 515.8 206.68 515.94 208.56 515.11 208.98 515.11 209.79 515.72 211.99 515.58 214.32 516.83 215.09 516.88 216.08 516.33 217.04 514.53 219.62 512.73 221.11 512.04 222.8 510.3 223.33 510.24 223.58 510.44 223.93 511.96 225.2 513.62 225.38 516.17 225.91 516.58 226.26 516.58 226.79 516.17 226.44 514.17 227.32 513.26 227.04 512.38 227.33 511.96 228.56 511.82 228.99 511.46 228.99 511.05 226.41 510.08 225.88 509.66 227.29 509.11 228.64 508.92 230.4 508.01 232.19 507.68 232.19 507.63 232.72 507.3 233.61 506.41 233.36 505.64 232.14 505.32 232.13 504.99 230.83 504.27 226.84 502.88 225.14 501.78 225.67 501.17 229.42 500.59 229.67 500.31 226.67 498.37 227.09 496.99 226.21 495.74 225.57 494.03 224.23 492.86 224.34 492.45 225.05 491.87 226.71 491.59 227.41 491.12 227.7 490.71 227.52 489.93 226.25 487.99 225.09 486.83 219.33 483.92 217.81 482.48 217.74 481.98 218.34 481.43 222.16 481.15 223.15 480.52 223.29 479.36 223.04 478.8 221.7 477.61 221.77 476.45 221.07 473.18 221.32 472.99 222.66 473.13 224.53 472.85 225.59 472.22 227.08 471.8 227.79 471.17 228.25 468.62 229.03 467.65 229.84 467.71 230.62 468.81 231.96 469.84 231.78 471.72 232.2 473.02 232.2 473.51 233.44 474.34 234.92 475.22 235.91 476.88 236.41 478.98 237.22 479.18 238.64 478.29 241.21 476.13 241.21 474.97 240.43 473.92 240.61 473.31 241.71 472.87 243.58 471.59 244.21 470.15 244.32 467.58 244.42 467.47 244.71 466.78 245.41 466.66 246.76 466.39 247.46 465.34 248.45 464.03 249.76 463.34 250.14 461.96 251.56 459.8 252.4 459.44 253.08 461.13 254.28 465.41 257.04 467.99 260.33 469.84 261.85 470.31 264.96 470.31 265.31 470.25 268 469.92 269.24 469.64 272.77 469.09 273.23 468.81 274.29 468.67 275 468.53 275.88 467.98 276.41 467.56 276.76 466.65 276.76 465.54 276.34 463.96 275.7 463.55 275.35 463 275.81 462.72 275.98 462.5 277.33 462.36 281.92 461.47 283.33 461.55 284.15 460.86 284.15 460.31 284.5 460.03 285.91 460.03 286.9 460.08 287.01 460.08 287.43 460.17 290.97 461 293.2 460.8 294.18 460.17 294.54 459.47 294.71 459.2 295.07 458.03 294.82 457.48 294.71 456.23 295.7 455.13 296.23 453.33 297.11 451.94 297.39 450.28 297.68 450.06 298.1 448.35 297.75 447.71 297.92 447.29 298.03 447.02 299.62 446.82 301.14 446.68 302.66 445.77 303.01 445.35 305.38 445.08 305.84 444.8 307.43 443.28 308.95 442.53 310.54 441.01 310.36 439.76 310.57 438.99 310.92 438.71 311.35 438.24 312.34 436.77 313.04 436.58 314.03 436.02 314.63 435.47 314.99 434.97 315.27 434.56 315.98 434.36 316.26 434.17 316.97 433.61 317.04 434.22 317.5 435.97 318.03 436.52 318.98 437.21 320.15 437.27 321.03 437.16 322.38 436.24 322.73 435.69 322.55 434.53 321.84 433.67 321.21 432.78 320.68 431.87 320.15 431.4 319.61 430.71 319.08 430.15 319.08 429.43 319.9 429.1 321.49 429.18 323.36 429.1 324.88 428.68 325.23 428.49 325.59 428.27 326.12 427.72 326.01 426.55 325.76 426.28 325.23 425.64 324.6 424.62 324.06 423.43 323.64 422.65 322.86 421.9 322.58 421.82 322.12 421.68 320.46 421.35 319.93 421.21 319.29 420.8 319.29 420.52 319.22 419.94 318.94 419.61 318.16 418.28 317.87 417.45 318.05 417.26 318.09 416.48 317.98 416.21 317.56 415.18 316.92 414.13 317.02 412.61 317.02 412.19 317.55 411.36 317.3 410.12 317.13 409.62 317.48 409.29 318.01 408.93 318.44 408.79 318.72 408.51 320.13 408.23 321.02 407.96 321.47 407.68 322.43 406.93 322.78 406.93 325.29 405.55 327.34 403.89 327.16 403.42 326.7 403 325.57 402.59 325.11 402.42 323.7 402.5 323.17 402.56 322.81 402.64 321.75 402.78 320.94 402.37 321.12 401.81 322.18 400.9 322.74 400.35 323.27 399.87 323.7 399.18 324.4 398.68 324.93 398.27 325.92 397.52 326.45 397.16 326.74 396.88 327.62 396.75 328.25 396.14 328.33 395.5 327.97 394.75 326.91 394.06 326.2 393.7 325.39 393.2 325.32 392.04 325.67 391.68 325.85 391.54 326.2 391.13 327.37 389.88 327.9 389 328.53 386.28 329.77 385.45 330.4 385.12 330.94 384.98 331.82 384.35 332.1 384.07 332.1 382.91 331.61 382.46 328.49 380.5 328.1 379.56 328.03 379.28 328.21 377.98 327.93 376.79 327.57 376.46 327.93 375.77 328.46 375.21 328.91 374.71 329.97 373.55 329.97 371.75 329.19 370.15 329.02 369.93 329.3 369.68 329.48 369.1 330.36 368.98 333.12 368.35 333.9 367.79 334.07 366.82 333.54 365.99 333.36 365.8 332.94 365.44 332.76 365.3 332.23 364.89 331.7 364.33 330.53 363.56 329.83 362.73 328.87 360.93 328.16 360.02 328.16 359.47 329.58 358.58 330.57 358.44 331.1 358.38 331.27 358.11 335.34 357.83 335.8 357.69 336.33 357.61 337.39 357.14 338.45 355.81 338.66 354.29 338.13 352.57 338.91 351.24 339.54 349.25 341.84 348.69 342.76 348.14 343.01 347.92 343.11 346.89 342.58 345.79 341.77 345.43 341.41 344.87 341.94 344.54 342.83 344.46 343.82 344.32 344.35 343.99 344.81 343.43 345.16 343.07 345.69 342.38 345.87 342.11 346.15 341 346.15 340.17 345.26 338.37 344.8 337.95 344.38 337.46 343.74 337.04 342.86 336.49 341.8 335.88 341.62 335.38 341.97 335.19 342.33 334.08 341.72 332.2 341.55 331.92 341.62 331.23 342.43 329.62 342.18 327.91 341.3 327 341.01 326.8 340.66 326.44 339.78 325.81 339.25 325.34 338.71 324.84 336.59 323.04 334.58 322.54 334.12 322.4 333.59 322.35 332.95 321.99 332.17 320.97 331.11 319.69 331.11 317.89 330.93 317.01 330.51 316.46 329.87 315.96 329.45 315.76 328.99 314.93 329.52 314.57 330.05 314.1 330.51 313.41 330.61 312.22 330.26 310.34 329.8 309.65 327.07 307.3 326.54 306.88 325.55 306.33 325.3 305.91 324.67 305.41 323.78 304.67 323.25 304.31 322.19 303.67 320.78 303.48 319.78 303.76 319.18 304.72 319.54 305.55 319.79 305.75 320.25 306.02 319.96 306.58 319.26 306.99 318.44 307.55 317.84 307.69 316.25 306.39 315.79 305.97 315.44 305.61 315.61 302.98 314.94 301.51 314.59 300.91 314.23 300.63 313.88 296.4 313.24 295.98 311.05 295.29 310.69 294.93 310.58 292.99 309.7 292.08 309.63 290.83 309.8 290.5 311.68 290.17 312.1 289.95 314.08 289.39 314.68 288.98 315.67 288.23 315.96 286.63 315.78 285.05 316.31 284.55 316.84 283.3 316.31 281.37 319.14 280.95 320.23 280.48 320.58 279.1 320.05 277.96 319.59 277.41 318.99 276.99 318.64 276.25 318.99 275.75 318.99 275.06 318.46 274.31 317.75 273.67 319.27 272.65 322.81 272.29 323.16 272.15 323.51 271.73 323.62 271.32 323.09 270.21 322.45 268.77 322.38 267.58 322.49 266.61 322.84 266.47 323.19 267.3 324.26 268.22 325.14 268.63 327.26 268.63 327.69 268.22 327.97 267.94 327.79 266.28 327.37 265.86 327.08 265.59 326.83 265.17 327.19 265.03 328.43 264.89 329.77 264.26 330.19 263.79 330.83 262.18 331.01 261.49 331.47 261.16 331.71 260.94 332 261.07 332.7 261.21 334.29 261.65 335.25 261.85 336.31 262.12 336.95 262.4 337.2 262.48 338.54 262.68 339.88 262.98 342.08 262.98 342.61 262.9 343.53 262.7 347.95 262.56 348.41 262.37 349.11 262.15 349.47 262.01 349.89 261.82 351.06 261.4 351.41 261.04 352.12 260.9 352.58 260.71 353.71 260.35 354.17 260.15 355.23 259.66 356.47 258.49 357.46 257.3 358.16 256.78 358.24 256.75 359.05 256.8 359.33 256.97 360.29 259.13 360.82 259.6 360.92 259.68 361.81 260.1 366.76 260.59 368.17 260.32 368.53 260.23 368.99 260.59 369.52 262.39 369.59 262.75 370.47 263.36 372.07 263.77 372.6 263.86 373.66 264.13 373.94 264.49 374.19 265.1 373.76 265.6 373.41 265.74 372.6 265.52 372.07 265.43 371.82 265.57 371.82 266.13 372.35 266.71 372.95 267.18 374.19 268.23 374.47 269.2 374.54 269.75 374.65 269.95 375.18 270.5 377.2 270.58 377.83 270.44 378.61 269.89 379.07 269.56 379.42 269.2 380.24 269 382.08 269 382.82 268.37 382.71 267.06 382.29 266.37 381.83 266.01 381.3 265.6 380.87 264.99 381.47 264.85 382 264.77 383.06 264.49 383.52 264.21 385.12 264.02 385.47 264.3 385.93 264.49 386.99 264.77 389.57 264.85 390 264.71 391.52 263.96 391.59 263.82 392.47 262.99 393.64 262.3 394.52 262.22 395.05 262.58 395.51 263.74 395.94 263.96 396.29 263.82 397 263.91 397.28 264.18 397 264.32 396.57 264.46 396.11 264.74 395.05 265.29 394.42 265.62 394.17 265.76 392.83 266.79 392.47 267.75 392.54 268.89 393.07 270.05 393.78 270.88 394.31 271.52 395.66 273.68 396.01 275.89 396.54 276.36 397.5 277.47 397.15 278.02 396.44 278.3 395.91 278.38 394.39 278.3 394.03 278.57 394.03 279.07 394.39 279.4 395.09 279.82 395.09 279.9 395.62 280.37 396.16 280.87 396.79 281.43 397.75 282.12 397.92 282.26 398.28 282.53 398.92 283.08 399.52 283.58 399.69 286.49 400.05 287.04 401.39 287.04 401.82 286.9 402.52 286.63 402.98 286.49 404.15 286.29 404.93 286.02 405.74 285.33 405.46 283.03 404.93 282.61 404.57 282.14 404.5 281.31 405.03 281.09 405.85 281.31 406.38 281.64 406.91 282.47 407.86 282.89 408.92 283.11 410.34 282.97 410.8 282.92 412.85 282 413.91 281.73 414.97 281.53 415.32 281.81 415.61 281.95 415.32 282.64 415.32 282.69 415.32 283.05 415.32 283.8 415.85 284.24 417.73 283.88 418.51 283.69 420.2 283.83 420.63 284.1 421.09 284.16 421.62 284.16 422.15 284.16 423.67 284.1 424.2 283.97 424.91 284.05 425.16 284.46 424.45 285.43 423.92 285.85 422.86 286.73 422.33 287.09 421.87 287.29 420.81 287.7 419.99 287.84 419.29 288.26 418.68 288.73 417.98 288.95 417.52 289 417.09 289.09 414.94 289.36 413.35 289.56 412.82 289.78 412.18 290.33 412.28 290.61 411.83 291.58 411.65 293.16 412.11 293.65 413.35 293.52 414.3 293.1 414.76 292.88 415.4 292.41 415.93 292.05 416.46 291.72 417.06 291.44 417.52 291.38 417.94 291.16 418.86 290.69 419.11 290.47 420.1 289.64 420.7 289.22 421.16 288.89 421.69 288.62 422.15 288.39 423.74 287.7 425.44 287.42 425.97 287.37 426.5 287.23 427.03 286.87 426.85 285.76 426.5 285.15 426.85 284.6 427.38 283.96 428.27 283.36 428.9 282.44 428.37 281.97 427.84 281.83 427.21 281.56 426.5 281.14 425.79 280.51 425.61 280.28 425.08 279.73 424.66 279.04 424.73 278.76 425.19 278.62 426.14 278.57 426.67 278.49 427.06 278.29 427.59 277.93 427.77 277.32 428.65 276.85 430.6 277.18 431.06 277.4 431.84 277.96 432.65 278.93 433 279.48 433.43 280.03 434.07 280.39 436.79 280.39 437.67 279.89 438.66 278.79 438.94 278.46 438.77 275.69 437.99 273.67 437.88 273.03 438.17 272.89 438.52 272.15 438.59 270.68 438.16 269.85 438.16 268.74 438.45 268.27 439.05 267.36 439.22 265.83 438.87 265.14 438.34 264.73 437.92 264.53 437.28 264.31 436.39 264.23 435.97 264.31 434.56 264.73 433.57 264.51 432.75 263.62 432.68 262.85 433.03 262.51 434.02 261.27 434.02 260.3 433.56 259.8 433.39 259.66 432.15 258.75 431.73 258.28 432.15 257.73 432.71 256.95 432.68 256.73 432.29 255.73 430.7 254.57 429.28 252.83 427.51 251.31 427.27 249.92 426.2 248.95 424.51 247.9 421.08 246.11 417.5 245.47 416.44 244.42 414.5 242.95 414.43 242.12 413.89 239.71 412.2 238.25 410.85 237.53 409.3 236.45 408.06 234.93 406.54 233.1 406.11 231.16 405.58 229.23 404.09 226.24 402.75 224.38 403.1 224.02 404.62 224.38 406.92 224.99 408.34 224.8 409.33 223.83 409.61 222.11 409.86 220.42 410.24 218.07 410.84 216.55 409.89 214.42 408.83 212.45 410.24 211.62 411.76 210.54 412.04 209.27 412.08 209.1 411.9 208.38 410.1 206.03 408.75 203.79 406.74 201.44 404.51 199.64 402.39 198.12 401.68 197.15 400.62 196.01 400.19 195.77 399.38 195.27 398.73 194.93 397.08 194.08 395.56 193.06 394.92 192.53 394.39 192.03 394.21 191.75 393.75 191.06 393.5 190.09 393.75 189.13 394.25 188.79 394.56 188.79 395.17 189.13 395.63 190.18 396.16 190.65 396.69 191.15 397.04 191.42 397.64 191.75 397.96 191.89 400.9 192.78 401.43 193.05 401.99 193.33 402.67 193.66 403.9 194.3 405.07 194.71 406.91 194.71 409.49 195.43 411.02 196.12 411.62 196.54 411.72 197.09 409.21 198.26 409.32 198.67 410.38 198.62 411.44 198.34 413 197.12 414.06 196.51 414.87 196.37 415.22 196.29 415.4 196.57 414.94 197.76 414.52 198.31 414.31 199.56 415.12 200.39 415.47 200.66 416.53 200.88 417.95 200.52 418.59 200.25 419.29 200.25 418.83 200.94 418.66 201.85 418.83 202.27 419.47 202.6 420.71 202.18 421.13 201.77 421.77 201.21 422.65 200.47 423.29 200.05 424.35 199.44 425.94 197.56 426.93 196.81 427.29 196.45 427.92 196.04 428.81 195.29 429.34 194.79 429.94 194.24 430.86 193.77 431.28 193.91 431.92 194.18 432.34 194.32 433.51 194.65 435 194.68 437.05 194.32 437.86 193.63 438.21 192.74 438.14 190.8 438.67 190.17 439.03 190.17 440.16 190.53 440.87 190.8 441.33 190.94 442.39 191.36 443.34 191.55 444.97 191.44 445.5 191.44 445.85 191.3 446.56 191.08 447.34 190.75 448.33 189.7 448.97 189.14 450.03 188.45 450.56 188.31 451.8 188.12 452.26 187.98 453.67 187.43 454.27 187.01 454.73 186.73 455.26 186.32 455.37 186.32 456.43 185.43 457.31 184.6 457.84 184.1 458.37 183.5 458.66 182.17 458.9 182.03 460.78 181.14 461.49 180.64 462.02 179.68 462.12 176.71 462.76 176.3 464.53 176.22 464.95 176.08 466.47 175.66 467.11 175.52 468.07 174.97 468.7 174.5 472.1 171.04 472.7 170.49 473.76 169.52 474.11 168.83 474.75 167.64 475.1 167.22 475.28 167.3 475.81 167.22 476.34 167.08 476.87 166.89 477.33 166.75 478.39 165.31 479.03 163.76 480.37 163.1 480.97 162.82 482.92 161.49 483.49 160.94 484.02 160.47 484.55 159.42 484.9 158.72 485.5 158.53 486.07 158.17 486.49 157.56 487.13 157.01 487.55 156.51 487.87 156.48 488.79 156.59 489.78 156.37 490.67 155.82 490.95 154.93 491.66 153.33 492.72 153.41 493.07 153.74 493.71 154.18 494.42 154.46 496.61 154.24 498.66 152.99 499.19 152.58 499.72 152.25 500.36 152.16 500.96 152.3 503.12 152.94 503.65 153.02 504.07 153.02 504.6 152.94 506.66 152.38 507.29 152.05 508.25 151.91 508.78 151.83 509.49 151.83 509.95 151.91 511.89 152.13 514.19 151.94 516.28 151.75 518.22 150.92 520.81 149.34 522.96 149.15 524.73 149.34 526.75 149.62 528.27 149.62 529.08 148.87 530.15 147.68 530.25 147.26 530.71 146.68 531.07 146.38 531.49 146.38 532.48 146.93 532.98 147.07 534.18 147.1 535.52 146.71 535.84 146.68 539.17 146.66 540.79 146.32 544.62 145.58 546.84 144.47 551.97 144.19 555.44 143.22 558.84 141.37 561.77 140.35 563.19 139.02 564.89 138.13 566.3 137.22 567.36 135.56 568.18 132.74 569.24 130.85 572.17 128.45 573.17 125.1 573.02 123.13 573.77 121.14 573.63 119.23 574.09 118.04 574.79 116.6 574.87 115.36 574.51 113.97 573.49 112.31 570.9 109.1 568.32 106.47 567.86 105.5 567.54 104.17 566.59 102.35 566.09 101.52 565.92 101.3 565.67 100.27 565.74 98.8 565.32 97.01 564.5 95.48 564.15 93.6 563.48 92.22 562.84 91.03 562.41 90.34 561.78 89.45 559.58 86.05 558.35 84.58 557.89 83.89 556.75 82.31 556.05 81.17 554.88 79.6 554.52 78.35 553.92 77.38 552.86 74.17 552.72 72.29 552.47 70.69 551.52 69.77 551.94 68.61 553 67.92 554.45 67.36 555.76 66.53 558.52 64.04 563.16 60.58 567.62 56.38 570.91 52.23 572.4 51.01 575.44 49.32 580.64 47.05 583.69 46.64 588.32 46.36 591.4 45.23 593.31 43.12 594.37 39.61 594.66 38.34 596.6 35.38 597.6 31.83 598.13 27.18 597.17 24.78 596.57 23.14 596.32 22.73 596.11 20.76 595.76 18.66 594.17 17.14 591.9 15.25 591.58 14.95 590.95 14.4 590.52 13.84 589.99 13.15 589.71 12.79 589.35 12.18 588.82 11.46 588.11 10.44 587.69 9.33 587.51 8.92 587.16 5.93 586.79 5.03 586.07 3.74 585.49 2.59 585.33 1.63 585.46 1.17 585.57 1.11 586.17 1.05 586.6 1 587.09 1.11 588.51 1.02 588.66 1.4 588.79 2.04 589.02 2.65 589.23 3.69 589.62 4.77 589.96 6.25 590.34 7.07 590.74 7.94 590.88 8.09 591.34 9.14 591.76 10.38 592.36 11.41 592.47 11.63 593.53 13.48 594.06 14.06 594.09 14.09 596.57 16.25 597.74 17.41 598.76 19.35 599.19 19.96 599.33 20.9 599.44 21.34 599.54 21.95 599.54 22.06 600.53 24.36 601.59 27.27 600.47 31.4 600.43 31.56 598.37 38 597.77 39.83 594.51 46.45 592.04 49.43 589.74 51.43 585.21 53.14 580.68 55.02 578.13 55.66 575.05 56.66 572.04 58.59 571.16 59.84 570.98 61.03 572.75 62.14 573.53 63.02 573.46 63.71 572.47 63.57 570.77 62.74 568.75 62.74 567.23 62.96 565.35 63.91 564.47 65.29 562.59 66.4 561 67.92 561 70.27 561.78 73.01 562.17 74.34 562.8 77.11 563.51 79.13 563.87 79.74 564.4 80.1 564.64 80.87 565.25 83.56 565.88 86.27 566.41 87.73 566.59 88.29 567.01 89.73 568.25 91.25 568.07 92.58 568.25 93.46 568.68 95.21 569.31 96.31 570.02 97.64 570.44 99.08 570.62 99.44 571.08 100.85 571.36 102.32 573.42 104.26 575.18 106.28 575.79 107.16 576.14 109.13 577.63 111.54 579.5 113.97 580.28 116.19 580.07 118.18 580.07 119.62 580.42 120.39 579.61 121.64 579.67 125.73 579.18 127.59 578.65 129.91 578.01 132.04 577.94 133.37 578.54 134.29 579.71 135.03 581.37 135.59 581.41 135.89 581.48 136.28 580.24 137.19 576.49 138.77 573.66 139.88 570.9 140.98 568.49 142.64 567.43 143.94 567.5 145.96 569.8 147.02 571.04 148.46 572.21 149.73 573.98 150.84 574.15 151.53 573.8 151.86 572.74 151.67 570.26 149.51 566.97 148.12 563.5 147.68 559.15 147.96 553.92 149.26 550.1 149.59 544.33 150.09 542.21 150.61 540.62 151.3 539.34 153.1 538.64 153.66 537.4 153.93 535.77 153.71 534.99 153.74 533.58 154.29 532.45 154.68 530.99 154.63 528.7 155.1 527 154.9 524.73 154.65 522.26 154.51 520.06 154.63 519.36 154.85 518.79 155.54 518.26 156.29 518.26 157.39 518.97 158.36 519.6 158.86 519.6 159.28 519.07 159.36 518.54 159.08 518.01 158.92 517.55 158.72 517.02 158.58 516.56 158.5 515.85 158.31 515.43 158.17 513.38 158.03 510.37 158.36 509.66 158.64 509.38 158.69 509.13 158.92 508.32 159.47 508.14 159.61 507.68 160.02 507.15 160.44 506.55 160.58 506.02 160.63 505.38 160.85 504.96 160.91 504.5 160.99 502.91 161.6 501.92 162.57 501.56 164.31 501.39 165.2 500.93 165.48 500.4 165.97 499.97 166.39 499.44 166.72 498.27 167.27 497.99 167.5 496.86 167.88 496.22 168.3 495.16 169.49 495.34 170.37 495.34 171.01 495.16 171.05 494.63 171.15 493.11 171.07 492.68 171.29 491.77 172.39 491.16 173.28 490.7 174.06 490.46 174.61 489.64 175.49 489.18 176.19 488.76 176.82 488.23 177.29 488.12 177.38 487.13 178.07 486.53 178.48 485.47 179.59 485.01 179.92 485 179.93 484.3 180.06 483.42 180.14 482.78 180.28 481.9 180.84 481.54 181.11 480.02 180.62 479.14 180.67 477.72 181.5 477.19 182 476.56 183.02 475.95 183.24 475.32 183.24 475.07 183.3 473.48 183.66 473.2 183.8 472.38 184.27 471.5 184.96 469.8 186.29 469.38 186.98 469.27 187.87 469.62 188.37 469.98 188.92 470.51 189.39 470.97 189.61 471.5 189.94 471.5 190.3 471.04 190.5 470.08 190.91 469.52 192.71 469.45 193.26 468.92 193.54 468.03 192.71 467.68 192.02 467.33 191.47 466.97 191.13 466.26 190.91 464.21 191.05 463.68 191.38 462.8 192.16 462.27 192.63 461.74 193.27 461.28 193.82 460.64 195.81 460.75 196.64 460.22 197.14 459.12 197.75 458.59 198.11 458.24 199.08 457.35 199.69 456.54 199.91 455.94 200.1 455.48 200.32 454.95 200.6 454.42 201.02 454.06 201.21 453.07 201.76 452.47 202.32 452.01 202.87 451.48 203.28 450.95 202.95 450.24 202.32 450 202.18 448.4 201.54 445.72 201.49 445.29 201.35 444.76 201.35 441.01 201.32 439.95 201.6 439.6 201.74 438.18 202.51 437.55 202.84 436.84 203.26 436.41 203.62 435.88 203.9 435.53 204.09 434.89 204.51 433.73 205.56 433.37 205.89 432.84 206.25 431.68 207.36 431.61 207.91 431.85 208.88 432.91 209.43 433.09 209.46 435.18 209.82 436.59 210.23 436.7 211.48 436.06 212.92 434.83 213.69 433.48 214.72 432.42 216.32 431.96 218.21 431.18 223.22 430.83 223.41 430.05 223.27 429.24 222.8 428.71 222.44 427.65 221.69 426.76 221.39 423.12 221.39 422.34 221.89 422.16 222.86 422.87 223.47 423.4 223.88 425.07 225.29 427.72 228.81 428.07 229.08 427.83 229.64 426.73 230.19 426.2 230.47 425.67 230.61 425.07 230.74 424.54 230.74 424.25 230.83 422.73 230.19 422.31 230.05 421.78 230 421.25 229.78 420.89 229.83 419.83 230.19 418.84 231.3 418.84 231.63 419.37 232.96 419.76 233.35 421.99 234.81 423.76 235.7 425 236.11 426.17 235.92 427.83 234.87 428.54 234.81 428.71 235.37 428.54 235.73 427.97 237.14 427.86 237.55 428.15 238.38 428.5 238.58 429.74 239.02 430.45 240.13 431.51 240.46 432.67 239.77 433.1 239.35 433.31 239.24 434.65 236.69 435.54 236.08 436.17 236.22 436.42 237.11 436.14 239.88 436.21 241.92 436.57 242.2 437.63 242.2 441.66 241.06 443.43 240.46 444.52 239.76 445.05 238.43 445.83 237.74 446.89 237.96 447 239.43 446.36 240.95 445.02 242.2 443.53 243.5 442.08 244.72 441.98 245.05 442.33 245.6 443.75 246.38 444.28 246.65 445.05 246.79 445.51 247.15 446.47 247.9 446.75 248.95 447.71 249.78 448.34 249.78 449.58 249.45 450.11 249.23 451.28 248.9 451.53 248.76 452.23 248.26 452.76 247.84 453.83 246.71 454.25 245.38 454.25 243.53 453.65 242.56 453.82 242 455.31 241.37 456.94 240.9 457.64 240.67 458.35 242 458.25 245.41 458.67 246.65 459.66 246.51 462.42 244.85 464.36 244.16 465.6 243.97 465.99 244.27 466.31 244.52 465.53 245.49 464.19 246.79 463.9 248.04 464.72 249.14 465.67 250.19 465.66 250.2 464.61 250.75 463.45 251.08 462.03 252.05 460.16 252.33 459.56 253.02 459.73 253.85 458.67 254.4 457.33 254.49 456.16 256.56 455.63 258.64 455.81 260.77 456.52 262.23 457.26 263.98 457.26 265.11 456.91 265.58 456.76 266.25 456.13 269.01 455.95 271.51 455.07 273.17 454.15 275.05 451.82 278.34 449.87 282.74 448.71 285.29 448.53 286.81 449.06 287.86 450.69 288.31 450.9 288.31 450.97 288.33 452.17 288.91 452.7 289.52 453.94 289.94 454.93 290.49 456.63 292.68 456.74 293.23 456.24 293.23 455.07 293.12 452.35 292.51 449.8 291.85 448.21 291.71 447.68 291.82 445.6 292.49 442.66 294.29 441.07 295.75 440.43 296.92 440.51 298.52 440.08 299.41 439.73 300.18 438.56 300.32 436.86 299.68 435.56 299.35 434.04 299.32 432.87 299.68 431.56 300.57 430.32 300.99 429.3 301.73 429.3 302.48 430.96 303.95 433.44 304.33 434.46 304.67 434.81 305.58 434.36 308.21 435.06 310.37 436.83 311.94 440.12 313.91 441.25 314.88 441.61 315.9 442.03 317.12 442.6 318.2 442.6 318.61 442.24 318.67 441.78 318.75 440.83 317.67 440.48 317.01 440.12 316.12 439.06 315.71 437.43 315.63 436.2 315.27 432.31 312.97 430.47 312.64 428.84 312.83 427.6 313.19 427.36 312.97 427.78 312 428.59 310.34 428.7 309.23 426.82 308.32 424.38 307.44 422.72 306.69 421.55 306.22 421.2 306.08 419.68 305.72 419.08 305.58 418.2 305.5 416.67 305.72 416.04 305.86 414.62 306.19 413.85 307.44 413.49 307.8 413.1 308.21 412.57 308.35 411.09 308.05 410.73 307.91 408.33 307.99 408.05 308.46 408.15 309.57 407.69 309.98 406.39 310.07 405.29 309.79 404.41 309.51 403.17 308.6 402.21 308.46 401.75 308.8 401.75 310.12 402.57 311.18 403.45 311.65 404.58 311.87 405.11 312.06 405.64 312.14 408.23 312.42 409.75 312.56 410.63 312.56 411.59 312.56 414.87 312.64 415.05 312.7 415.93 312.78 416.39 313 416.47 313.55 415.86 313.89 415.4 314.02 413.28 315.41 412.05 315.46 410.98 315.19 410.98 314.49 410.81 313.89 410.1 313.39 409.75 313.39 408.3 313.47 407.77 313.53 406.11 313.58 405.64 313.44 405.04 313.39 403.88 313.25 403.59 313.44 403.59 314.08 403.24 314.36 400.87 314.36 400.34 314.08 400.34 313.64 400.69 313.39 400.77 313.17 401.76 312.2 401.65 311.92 401.05 311.42 400.52 310.82 399.99 310.26 398.82 309.16 398.11 309.07 396.63 310.26 395.88 310.4 395.18 309.77 394.58 309.27 394.22 309.07 393.05 308.8 392.63 308.66 391.22 308.58 390.86 308.72 389.59 309.21 388.99 309.32 387.4 308.91 386.23 308.77 385.81 308.58 384.57 307.53 383.93 307.11 383.58 306.89 382.06 306.84 380.82 307.25 380.82 307.94 381.1 308.14 382.69 308.36 384 308.63 384.29 308.99 384.64 309.33 384.36 309.69 384.11 310.16 383.23 310.38 382.77 310.52 381.71 310.93 381.07 311.26 380.72 311.54 380.36 311.87 380.12 314.17 379.55 315.91 378.95 317.16 378.77 317.58 378.38 318.05 377.96 318.88 377.61 319.65 377.61 321.23 377.33 321.45 377.43 322.34 379.09 324.02 379.98 324.22 380.79 324.02 381.5 323.52 381.68 322.78 382.31 321.95 383.02 321.81 383.37 321.67 383.8 322.08 384.43 323.47 384.96 323.8 386.98 324.44 388.32 324.3 389.38 323.88 390.44 323.33 391.51 322.44 391.96 321.94 393.73 321.75 394.55 321.47 395.08 321.2 395.68 320.92 396.14 320.78 396.77 320.73 397.37 320.92 397.3 321.47 396.95 321.75 396.14 322.3 395.68 322.66 395.08 323.22 394.55 323.63 394.02 324.19 393.38 324.79 392.5 325.63 391.97 326.04 391.08 326.59 390.45 327.37 388.82 329.86 389.1 330.61 389.17 331.58 388.82 331.94 388.57 333.24 388.75 333.93 389.11 334.21 390.41 334.21 391.05 334.43 390.7 334.9 390.24 335.67 390.24 336.5 390.84 338.38 392.01 340.04 392.36 340.74 393.42 341.65 394.02 341.7 394.31 341.65 394.94 341.57 395.19 341.51 395.54 341.79 395.72 342.2 396.18 342.67 395.79 343.86 395.62 345.3 395.19 345.52 394.2 346.08 392.68 347.6 392.08 348.15 391.09 348.76 390.63 348.98 388.26 349.59 387.34 349.87 386.39 350.42 385.86 351.95 385.86 352.86 384.94 353.97 384.41 354.24 384.23 354.66 384.52 356.93 384.77 357.43 384.94 358.04 386 359.09 387.06 359.45 387.7 359.64 388.41 359.86 389.29 360.14 389.72 360.14 390.25 360.14 390.88 360.55 390.95 361.3 391.24 361.8 391.73 362.1 393.39 362.66 394.38 363.07 394.39 363.85 393.04 364.18 389.68 363.15 387.28 362.8 385.05 363.07 383.81 363.99 383.6 364.15 383.14 364.9 383.43 365.32 384.35 365.92 388.24 368.14 389.97 370.05 389.97 371.71 389.44 372.4 388.56 372.73 386.58 374.67 385.52 375.91 385.16 376.47 384.53 377.24 383.93 377.71 384.07 378.63 384.35 378.77 384.24 379.1 384 379.51 380.99 379.93 380.71 380.62 381.67 382.14 381.24 384.22 381.42 384.91 381.84 385.41 381.77 385.77 381.67 386.24 381.31 386.6 380.86 387.29 380.08 387.76 379.44 387.82 377.32 387.62 376.15 387.4 375.62 387.07 373.96 387.13 373.08 386.49 372.02 385.94 370.21 386.02 369.44 386.49 368.98 387.13 368.69 388.29 368.09 388.71 367.46 388.98 366.4 389.34 365.41 390.04 364.88 390.78 364.63 392.72 364.35 393 364.6 394.52 364.53 395.29 364.6 395.63 364.07 396.12 363.01 396.6 362.02 397.43 361.42 397.84 360.36 398.06 359.9 398.34 359.37 398.67 359.37 398.81 358.91 399.45 358.66 402.77 359.55 404.65 359.9 405.07 360.68 407.33 361.21 407.75 361.92 408.3 361.81 410.18 361.99 411.02 362.52 411.79 362.98 412.68 363.76 413.45 364.57 413.78 365.98 414.2 367.22 414.97 367.75 415.52 367.22 415.75 366.16 415.88 365.63 415.94 365.28 416.08 364.64 416.36 364.11 416.77 363.65 417.46 363.65 418.52 363.94 418.85 364.47 419.35 365.35 419.95 367.54 421 368.71 421.42 369.13 421.64 369.95 422.11 370.02 422.61 369.31 423.02 369.24 423.08 368.78 423.58 368.71 424.96 369.42 425.85 369.77 426.12 372.14 426.43 372.42 426.7 373.13 427.12 374.26 427.67 374.62 427.73 376.31 427.87 376.77 428.23 376.84 428.5 376.21 429.61 376.03 429.89 376.03 430.94 376.38 431.55 377.02 431.91 377.45 432.04 378.68 432.32 379.07 432.6 379.6 432.74 381.19 433.23 382.25 433.51 382.78 433.79 383.84 434.12 384.9 434.26 385.36 434.48 385.97 434.76 387.2 435.45 387.73 435.81 388.9 436.5 389.68 436.69 389.85 436.77 390.74 437.11 391.45 437.6 391.98 437.96 392.44 438.32 392.61 438.79 392.01 439.13 391.8 439.13 390.74 438.79 390.14 438.49 388.55 437.8 386.32 437.52 386.04 437.52 384.38 437.44 383.21 437.16 382.68 436.83 382.04 436.33 381.69 436.06 380.98 435.78 379.22 435.73 378.86 435.78 378.68 436 374.44 436.89 373.52 437.36 371.93 438.69 369.28 439.1 368.22 439.58 367.69 439.77 366.6 440.18 365.64 441.15 365.64 441.79 366.6 442.76 367.59 443.17 368.12 443.73 367.77 444.09 366.71 444.28 365.61 444.64 362.54 445.39 361.55 445.8 359.85 446.91 359.04 448.57 359.14 450.01 360.21 451.7 360.74 452.25 361.69 452.95 361.97 453.28 361.69 453.5 361.27 453.78 360.56 453.78 360.03 453.69 357.63 453.89 356.92 454.11 355.47 454.86 354.41 455.41 353.81 456.46 355.05 457.93 355.05 458.62 354.31 458.95 351.83 459.37 351.3 459.51 349.18 459.98 347.03 461.09 346.43 461.45 342.5 461.7 341.73 462.06 341.55 463.99 342.15 465.46 342.15 466.29 341.44 466.62 341.16 466.85 340.46 467.32 339.93 467.79 339.57 468.42 338.94 469.39 338.69 469.81 336.36 470.22 335.83 470.5 334.92 471.54 335.35 472.11 335.42 473.34 334.99 474.06 334.2 474.92 332.62 475.06 331.18 475.35 330.6 475.95 330.42 476.92 331.31 479.08 330.85 480.27 330.32 481.3 330.21 482.68 330.5 483.04 331.73 483.45 333.33 484.42 333.93 484.42 334.74 484.09 336.44 482.84 337.32 482.62 337.67 482.76 337.14 484.01 337.39 485.89 338.45 486.63 340.04 486.94 341.28 487.22 341.74 487.55 342.34 487.96 343.22 488.51 343.75 488.79 345.73 489.01 346.16 489.01 348.91 489.01 349.2 489.23 349.73 489.56 349.16 489.92 348.56 490.12 347.75 490.53 346.69 490.53 345.74 490.26 345.27 490.12 343.86 489.9 341.81 489.98 340.5 489.62 337.11 489.49 335.24 490.04 334.53 489.96 334.35 489.76 332.94 489.49 326.65 489.55 325.77 490.1 325.31 490.85 325.06 492.59 324.88 493.01 324.42 493.7 323.72 494.53 323.26 495.08 322.84 495.22 321.85 495.69 321.21 496.33 321.03 497.3 318.1 498.82 316.69 499.93 316.05 502.47 315.7 502.75 314.64 503.3 313.83 504 313.41 505.52 311.07 506.99 310.54 507.96 310.62 508.51 311.43 509.48 314.19 509.39 314.61 509.2 315.7 508.51 316.13 508.51 316.59 508.87 316.66 509.97 316.48 510.58 316.02 510.81 314.89 511.55 313.9 512.05 312.39 512.25 310.8 512.8 306.55 512.94 305.46 513.22 303.8 514.66 303.41 516.73 303.87 517.98 304.4 518.53 305.11 518.95 305.53 519.17 306.06 519.44 307.69 519.64 308.4 520.13 308.82 520.63 310.34 521.38 311.76 521.6 314.16 521.46 315.22 522.24 315.22 522.93 311.47 523.68 311.12 523.87 309.25 523.82 308.72 523.73 306.07 524.29 304.9 523.93 300.31 523.27 299.42 523.1 298.79 523.32 298.26 523.88 297.9 524.21 297.73 524.43 297.2 524.84 296.74 525.04 296.38 525.23 295.33 525.79 294.8 526.89 295.15 529.05 294.59 532.23 294.41 532.51 294.41 533.2 294.69 534.12 295.12 535.69 295.47 536.41 295.83 536.75 296.29 537.16 296.82 537.44 296.99 537.44 297.88 537.44 298.41 537.71 298.66 538.82 298.48 539.24 297 538.9 295.48 538.68 294.13 538.49 292.29 538.55 292.01 541.59 293.32 543.53 293.96 543.94 294.99 545.44 296.75 546.68 298.42 548.56 299.83 550.03 301.7 550.64 304.64 550.66 308.52 549.19 311.74 548.25 313.93 547.84 314.74 548.11 314.21 548.94 311.46 550.25 309.51 551.16 308.52 552.6 308.77 554.34 308.7 555.45 307.54 556.47 306.9 557.53 307.08 559.05 308.14 559.6 309.84 559.46 311.32 560.43 312.56 561.48 313.9 562.78 314.79 563.42 315.78 563.5 316.38 564.05 315.85 564.66 315.67 565.16 316.62 565.77 316.8 566.68 314.51 567.43 314.05 568.76 314.68 570.61 316.17 572.36 317.23 574.24 317.23 575.48 316.88 575.9 315.82 575.65 314.93 574.93 313.17 572.91 309.63 568.9 307.51 567.85 305.28 566.66 303.34 564.59 299.8 562.9 298.81 562.76 296.87 562.62 294.47 563.18 292.35 565.2 291.61 568.58 291.79 572.31 293.38 574.55 293.63 576.08 293.63 578.01 295.68 578.98 296.1 579.53 295.4 580.17 293.1 580.78 292.22 582.86 292.01 585.21 293.53 587.01 294.31 588.06 293.25 589.17 293.14 589.33 292.37 590.74 292.44 593.04 292.55 594.15 291.98 596.36 293.33 598.02 293.5 598.66 292.16 599.68 291.99 601.21 292.52 604.28 291.71 606.22 290.47 606.49 288.95 606.22 286.55 604.89 285.42 604.95 284.78 606.47 284.32 607.66 285.31 608.27 287.08 608.35 288.14 608.99 287.54 609.4 286.2 609.87 285.03 610.98 284.15 612.92 285.04 614.85 284.51 615.27 282.81 614.72 280.51 613.61 279.1 611.95 277.58 611.04 275.46 610.82 274.22 611.37 272.7 611.46 270.05 610.74 267.65 610.82 265.18 611.51 262.85 613.04 260.73 613.65 259.67 615.17 259.88 616.31 260.09 617.88 261.08 618.71 263.28 619.54 264.27 620.18 263.63 621.15 262.75 621.98 263.17 622.86 264.69 623.36 265.22 623.55 266.39 623.36 267.27 623.64 268.15 624.55 268.47 624.99 268.53 625.02 270.51 625.4 272.74 625.13 273.37 625.68 273.44 626.73 274.4 627.28 274.58 628.25 274.05 628.89 271.93 628.81 270.41 629.83 270.41 630.88 271.82 630.88 273.52 630.83 275.64 631.52 277.3 632.02 278.36 632.43 278.11 633.18 276.77 633.59 276.24 634.29 275.71 634.78 274.44 635.17 272.74 636.83 271.23 637.75 271.51 638.99 273.17 639.96 273.7 640.73 273.6 642.12 274.13 642.95 274.59 643.78 274.02 645.02 273.32 646.33 272.96 647.85 271.45 648.49 270.81 649.23 270.46 650.15 270.81 650.98 270.64 652.14 269.54 653.05 269.72 654.63 269.72 655.96 271.73 656.24 272.79 656.79 272.97 657.56 272.09 658.03 269.97 658.53 268.8 658.78 267.92 659.56 268.27 660.8 269.58 661.63 270.75 661.91 271 662.6 269.76 663.29 268.35 663.85 267.43 664.54 266.02 664.95 265.38 665.56 266.37 666.34 269.48 666.48 270.79 667.06 271.49 667.75 272.02 668.5 271.74 668.91 270.15 669.13 268.74 670.02 268.39 671.76 267.93 672.65 267.05 672.7 265.99 672.29 264.93 672.23 264.12 673.07 263.66 674.17 262.6 674.37 261.71 674.37 261.08 675.11 261.61 675.89 262.56 676.66 262.92 677.08 262.67 678.05 262.46 679.29 263.8 679.98 264.51 680.95 265.39 681.17 266.28 681.04 266.8 679.85 266.66 676.33 268.07 675.36 269.06 674.31 269.87 673.42 270.4 673.48 271.18 674.34 271.18 677.1 271.61 678.27 273.27 679.45 273.5 679.47 Z M 287.95 537.91 288.48 536.11 288.3 533.12 288.12 532.98 287.7 532.38 286.35 532.38 285.12 533.07 283.77 533.35 283.35 533.82 283.17 534.09 282.79 534.32 282.54 534.51 282.36 534.51 282.54 534.59 280.95 536.23 279.96 536.03 279.43 535.62 278.79 535.26 277.73 534.71 276.78 533.96 276.14 533.54 274.66 532.91 273.67 532.77 271.9 532.83 271.02 533.24 270.84 533.6 270.56 533.88 270.21 534.76 269.5 536.15 269.68 537.12 269.85 537.39 270.1 537.89 269.75 538.5 269.29 539.41 269.22 540.8 269.47 541.63 270.35 542.74 271.7 542.87 273.29 542.13 274.52 542.12 274.98 542.46 275.3 546.55 276.29 547.11 276.93 547.52 277.07 548.57 277.78 548.9 278.24 548.77 280.18 547.46 280.36 547.41 281.88 546.85 282.94 545.39 283.5 543.53 283.75 543.31 285.62 543.03 286.96 542.34 287.92 541.32 288.2 540.82 288.48 540.21 288.48 539.38 287.95 537.91 Z M 350.99 409.83 346.82 410.08 346.4 410.16 344.17 410.3 342.76 410.77 342.23 410.99 341.13 411.46 340.25 411.41 339.82 411.24 337.77 411.11 336.71 411.8 335.9 412.71 335.9 415.26 336.89 415.98 339.08 416.03 339.61 416.39 340.25 416.72 340.5 417.28 340.96 417.91 341.91 419.02 343.26 419.43 345.38 419.38 346.01 419.16 348.14 418.96 349.02 418.13 349.19 416.33 348.84 414.59 349.3 414.12 350.01 413.98 350.46 413.76 351.24 413.43 352.66 413.29 353.65 412.95 354.64 411.99 354.53 411.27 354.18 410.85 353.65 410.44 350.99 409.83 Z M 221.84 525.05 224.27 525.02 225.35 524.81 226.37 524.3 227.87 522.74 228.74 520.46 228.29 518.48 227 517.58 225.89 517.25 224.3 517.31 222.02 517.64 220.58 518.54 219.66 519.83 219.45 521.24 219.63 522.92 220.35 524.06 221.12 524.84 221.84 525.05 Z M 355.05 389.37 354.34 389.65 353.81 390.01 353.18 390.84 352.29 392.28 352.29 393.33 353.42 393.47 354.41 394.3 355.65 394.44 357.07 394.3 358.13 393.47 358.76 392.58 358.76 392.5 358.76 392.09 358.69 390.98 358.16 389.95 357.63 389.54 357.28 389.4 355.05 389.37 Z M 354.15 298.46 354.4 298.18 354.33 297.3 353.45 296.74 352.81 296.6 352.21 296.33 350.86 296.24 350.26 296.74 349.98 297.3 349.63 298.46 349.35 298.82 349.17 299.29 347.86 299.93 347.93 300.26 349.52 300.26 350.51 300.62 351.11 300.81 351.64 301.36 352.28 301.86 352.64 302.08 353.34 302.36 354.12 302.28 354.69 301.86 354.76 300.98 354.33 299.51 354.15 298.46 Z M 232.92 494.62 234.54 494.33 235.08 494.04 235.47 493.39 235.47 492.35 234.82 491.56 233.31 491.09 231.69 490.84 230.15 491.09 229.11 491.7 228.75 492.46 228.93 493.39 229.46 494.03 230.26 494.54 231.26 494.62 232.92 494.62 Z M 375.52 306.39 374.45 306.06 372.86 305.23 371.87 305.37 371.41 305.51 371.59 306.12 371.94 306.62 371.59 307.5 371.17 308.33 369.47 309.66 369.65 310.55 371.49 310.27 372.48 309.72 374.07 309.66 375.3 309.19 376.22 308.41 376.12 306.95 375.52 306.39 Z M 338.61 461.5 336.92 461.62 335.68 462.31 335.05 463.14 334.27 464.38 334.34 464.88 334.98 465.38 336.74 465.57 337.98 465.1 339.39 464.55 339.92 464.13 340.45 463.36 340.38 462.11 339.96 461.7 338.61 461.5 Z M 348.62 341.36 348.09 339.2 347.74 339.48 347.28 341.27 347.1 342.11 346.75 342.88 346.75 343.77 347.28 344.96 347.99 345.73 349.48 347.11 350.71 347.25 351.46 346.42 351.28 345.59 348.62 341.36 Z M 382.07 334.21 381.11 334.26 380.65 334.76 380.12 334.82 379.52 335.09 379.06 335.45 378.96 336.89 379.06 337.11 379.67 338.41 379.95 338.36 380.3 338.08 380.73 337.67 382 337.25 382.35 336.75 382.78 335.87 382.88 335.18 382.07 334.21 Z M 343.89 351.05 343.43 351.05 343.08 351.32 343.01 352.24 343.43 352.71 344.42 353.2 346.37 353.34 346.9 353.06 347.07 352.57 346.3 352.01 345.02 351.6 344.49 351.27 343.89 351.05 Z M 389.61 271.35 388.9 271.77 388.9 272.32 389.72 273.04 390.95 273.1 391.48 272.76 391.48 272.07 390.71 271.43 389.61 271.35 Z M 339.16 362.34 338.63 361.84 337.92 361.98 337.64 361.98 337.04 362.53 336.65 363.09 336.76 363.45 337.46 363.64 338.35 363.45 339.16 362.81 339.16 362.34 Z M 378 331.14 376.23 331.55 376.3 332.05 376.66 332.24 377.65 332.19 378.28 331.63 378 331.14 Z M 384.22 328.12 383.52 328.26 383.62 328.95 384.15 329.42 384.68 329.5 384.93 329.22 384.58 328.31 384.22 328.12 Z" fill-rule="evenodd"/>
</g>
</svg>