<?xml version="1.0"?>
<svg xmlns="http://www.w3.org/2000/svg" version="1.2" baseProfile="tiny" width="800" height="553" viewBox="0 0 800 553" stroke-linecap="round" stroke-linejoin="round">
<g id="littlegrassvalleyreservoir">
<path d="M 792.24 11.59 790.56 12.19 790.12 11.91 789.23 11.68 788.16 12.65 786.37 13.74 783.61 16.08 780.91 18.71 778.92 21.14 777.21 23.78 777.19 29.27 777.99 31.81 778.02 37.51 777.55 38.98 776.42 40.02 774.91 40.76 773.35 41.16 771.12 41.54 769.23 42.35 767.98 43.6 767.77 46.13 769.09 47.34 770.94 49 771.33 49.35 773.59 51.36 774.78 53.42 775.91 55.2 776.89 57.26 777.69 59.45 778.12 60.73 778.13 64.1 777.69 67.05 777.66 67.18 776.92 70.2 775.79 75.44 775.25 77.91 773.51 83.65 772.24 85.88 771.87 86.97 771.37 88.47 770.73 98.3 770.3 101.25 769.38 103.2 767.94 106.13 766.19 108.42 764.49 110.58 763.18 112.59 762.48 114.76 761.95 116.93 761.64 119.46 761.81 122.84 763.03 126.31 764.22 128.93 764.24 128.96 764.25 128.97 765.15 130.35 763.91 131.46 762.88 132.5 762.71 132.91 762.7 134.18 763.95 136.31 764.36 138.22 764.72 143.71 763.91 145.6 762.61 147.83 761.37 148.82 760.37 149.62 753.62 154.56 750.85 157.33 750.41 157.6 747.82 159.67 745.94 162.17 744.61 166.43 743.61 170.22 742.95 173.37 741.62 176.79 740.18 180.36 739.53 183.16 739.94 185.28 741.07 187.62 741.61 188.68 742.31 190.52 744.11 192.81 745.87 194.24 746.05 194.64 747.97 198.78 747.75 209.75 747.43 212.56 746.66 215.99 746.44 219.51 746.73 222.75 747.63 225.02 748.98 228.06 750.95 230.49 751.2 231.97 751.08 232.95 748.08 233.11 744.31 235.86 740.83 238.05 736.84 241.36 734.65 242.59 728.29 248.1 727.55 249.22 727.99 250.21 729.96 251.65 732.95 252.41 736.1 253.23 740.1 254.22 743.31 255.19 746.12 256.29 748.98 258.31 752.11 260.27 755.21 261.94 758.46 263.97 762.09 266.49 765.99 269.51 768.45 271.74 769.32 273.09 769.8 274.22 769.34 275.41 768.34 276.03 768.09 276.07 766.66 276.35 764.22 276.17 760.67 275.4 758.34 275.29 755.11 276.08 750.1 276.97 745.66 276.83 741.44 276.54 738.89 276.08 733.99 276.2 729.99 276.83 721.57 278.16 718.01 278.81 715.44 279.32 712.87 280.4 710.79 281.56 709 283.43 706.68 285.92 704.92 288.43 703.77 291.08 704.68 292.99 706.69 296.41 707.12 297.82 708.04 299.45 709.48 303.21 710.82 306.26 712.06 309.23 713.4 312.84 714.52 316.24 714.92 319.34 715.75 322.73 716.53 326.05 717.32 329.02 718.23 331.92 719.13 334.61 719.88 337.23 720.78 339.28 721.92 341.62 723.78 343.41 725.99 344.35 726.22 344.44 727.04 345.23 729.25 345.97 730.45 346.91 732.12 347.64 735.25 349.45 737.46 350.48 739.23 351.56 741.25 353.22 743.55 355.16 745.02 358.14 745.11 358.63 745.15 359.14 745.25 360.67 744.97 361.31 743.7 364.23 741.83 366.73 737.81 372.15 734.6 375.19 733.08 376.71 732.81 379.38 732.29 381.06 730.37 383.89 729.85 384.67 724.4 392.86 723.83 393.71 723.29 395.6 722.66 401.36 722.28 404.17 721.07 407.17 720.28 411.52 720.51 415.18 721.64 417.45 723.38 419.66 725.14 421.59 726.71 424.43 727.4 427.05 727.51 430.01 726.4 433.64 725.3 437.21 724.29 441.56 724.23 441.57 722.95 441.74 721.4 442 719.06 441.96 715.6 442.53 712.87 443.61 710.29 445.18 708.27 446.69 707.31 448.08 705.85 448.41 703.53 447.81 701.43 447.28 697.98 447.43 695.86 448.03 693.64 447.99 691.56 447.43 689.98 447.01 687.83 446.27 686.3 444.97 685.7 443.56 686.01 441.59 687.43 439.79 689.25 436.8 689.78 434.13 689.35 429.69 687.64 424.95 685.68 422.38 683.11 419.59 680.75 417.23 678.79 415.37 676.97 414.07 675.25 413.34 674.54 413.04 672.44 411.95 670.64 410.37 669.11 408.09 668.09 405.62 666.31 402.28 663.62 399.28 663.07 398.54 661.29 396.14 659.38 393.72 657.19 391.07 655.06 388.65 652.84 384.53 651.81 382.47 650.61 381.53 649.52 379.62 646.8 375.56 645.27 373.98 643.06 372.96 641.36 372.05 640.47 371.58 639.14 370.99 637.83 369.99 637.24 368.36 636.5 365.81 636.47 364.4 637.78 363.83 638.48 363.53 640.82 362.65 643.23 361.5 646.25 360.35 651.5 358.83 658.46 357.68 663.68 357.56 666.25 356.76 667.15 356.29 668.45 354.83 669.8 352.96 671.68 349.68 672.9 346.68 673.05 343.8 671.19 341.72 668.62 339.29 666.59 336.72 661.72 332.41 659.47 329.84 656.8 326.49 655.04 324.84 650.63 323.22 645.38 320.66 639.14 317.95 634.12 315.75 630.47 314.64 627.91 314.24 622.69 314.43 620.79 315.1 618.95 316.05 617.71 317.72 616.83 320.31 615.91 322.19 614.72 324.35 614.02 326.1 613.39 327.85 612.43 328.83 612.38 328.88 611.03 329.28 607.36 329.29 605.14 329.74 603.74 330 602.03 329.55 600.27 328.39 600.11 327.48 599.7 325.15 599.14 321.2 598.58 318.16 597.56 315.54 595.45 311.99 593.59 306.61 591.8 303.34 590.91 299.67 590.66 293.61 589.68 288.6 587.76 282.87 585.87 279.04 583.9 276.89 579.97 276.05 576.09 275.14 572.42 275.15 570.09 274.83 561.64 274.96 559.31 274.78 555.11 273.86 551.22 273.16 548.51 272.83 546.44 273.43 544.54 274.17 543.53 275.28 542.23 276.8 541.43 277.92 541.51 279.89 542.68 280.54 543.32 281.89 547.56 288.22 547.65 289.98 546.9 291.17 544.33 293.16 543.79 293.4 542.2 294.11 539.88 292.8 538.23 291.65 536.02 290.77 532.53 290.49 530.75 290.25 528.86 290.01 526.97 290.4 524.9 291.07 522.55 292.85 521.09 294.02 520.58 294.3 519.45 295.4 518.31 297.35 518.12 299.32 518.09 301.08 517.57 302.83 515.87 304.49 514.03 305.72 511.34 307.29 508.92 309.15 507.9 310.47 506.49 312.55 505.57 313.95 504.94 315.76 505.24 318.37 505.81 321.12 506.49 323.53 507.35 325.65 509.47 328.79 512.59 331.44 516.07 333.82 518.59 335.7 520.63 336.86 523.51 337.54 525.85 337.51 528.18 337.76 530.39 338.22 532.38 339.03 534.52 340.76 537.49 343.13 539.95 345.14 542.93 346.88 546.41 348.63 548.28 349.44 550.53 351.23 551.63 352.17 552.72 354.09 554.19 356.43 555.65 358.99 559.45 361.66 563.19 363.69 569.2 367.25 569.24 368.04 569.29 368.79 560.51 372.93 554.4 376.56 551.59 378.27 548.74 379.9 545.58 382.24 542.61 384.51 540.86 386.45 539.16 388.67 537.09 393.56 534.83 399.57 534.72 400.06 533.4 403.06 531.41 406.55 529.76 408.84 528.77 411.64 527.77 415.7 527.78 426.46 527.56 430.68 526.8 433.34 526.89 439.57 526.91 440.59 525.49 449.99 524.36 455.32 523.5 457.2 522.91 459.72 523.01 460.36 522.93 466.05 522.42 470.27 523.77 473.67 525.1 477.63 527.21 480.9 529.35 483.4 531.25 486.25 533.26 489.1 535.56 491.6 538.46 493.97 540.01 495.33 543.15 496.72 545.91 498.04 547.79 498.99 549.7 500.92 550.13 501.96 550.23 502.19 549.17 503.16 546.38 503.81 543.82 504.19 543.04 504.25 540.82 504.77 538.25 505.78 536.94 507.1 536.48 508.43 536.24 513.14 536.85 517.44 537.85 521.46 539.17 526.2 540.04 530.93 540.72 537.69 540.87 539.46 539.85 540.7 539.61 541.4 539.6 541.41 538.83 541.74 537.22 541.78 535.5 541.33 533.19 539.67 531.44 538.31 528.51 536.92 526.19 536.32 524.2 535.58 521.87 535.26 519.09 535.63 516.51 536.99 514.87 539.5 514.21 541.88 514.09 547.36 513.07 548.26 511.62 548.29 511.18 548.3 509.19 547.21 508.21 546.56 506.18 544.69 503.64 543.52 499.43 542.54 494.39 541.46 489.41 540.89 484.52 540.94 481.52 540.68 477.62 541.03 473.55 542.3 469.85 544.06 465.77 546.46 461.24 548.77 457.65 550.32 455.09 551.2 452.85 552 446.19 551.46 440.31 551.08 437.3 551.52 435.76 551.49 434.91 551.34 436.04 549.91 442.06 542.32 443.76 540.24 445.28 538.29 447.72 535.8 449.42 533.58 452.05 530.95 452.65 529.28 452.92 526.18 453.88 524.37 454.67 522.28 455.15 518.48 455.06 516.74 455.03 516.23 456.38 513.72 458.45 511.51 460.71 509.15 462.02 507.91 462.81 505.81 462.68 491.6 462.17 483.86 461.68 481.88 460.11 479.6 457.27 477.02 454.78 474.72 452.81 473.56 451.76 472.14 449.82 469.71 447.55 466.44 445.47 462.6 443.22 458.48 440.77 455.07 438.52 450.66 437.58 449.25 436.43 447.53 436.14 444.71 438.22 442.36 440.47 440.15 443.32 436.26 445.26 432.21 446.65 428.15 448.06 423.54 448.34 420.16 447.32 417.61 445.56 415.61 444.16 413.48 442.07 410.21 440.67 408.21 440.22 404.69 440.12 401.87 439.46 399.47 438.27 396.63 436.5 394.77 433.45 393.03 430.18 392.84 427.61 393.21 422.64 394.82 421.33 396.06 420.91 397.88 419.95 399.83 418.99 401.51 416.75 403.3 415.9 403.83 414.33 404.8 412.51 404.77 411.09 403.34 408.47 399.64 406.18 396.78 403.16 394.06 399.22 391.6 396.72 389.87 393.3 388.4 388.8 386.35 383.58 383.87 380.34 382.55 376.9 381.65 374.02 380.47 370.05 379 364.99 377.36 358.46 376.4 354.46 376.05 350.81 375.85 346.62 376.06 340.78 376.1 336.21 376.58 332.53 377.5 329.39 379 325.15 380.61 322.22 381.27 318.15 383.17 318 383.19 315.77 383.55 314.34 382.54 313.66 380.84 312.46 378.28 309.7 372.89 307.38 370.88 304.89 369.01 302.38 367.42 298.61 365.24 295.21 363.07 289.79 361.43 285.99 360.52 279.62 360.13 268.13 360.22 264.49 360.15 258.84 359.92 248.99 360.17 242.98 359.79 234.78 359.64 230.94 360 226.92 360.49 222.69 361.69 218.63 363.31 214.74 365.63 210.64 368.66 207.66 370.72 206.98 370.94 206.01 371.25 203.82 371.35 200.55 370.88 197.1 370.39 192.18 370.17 189.25 370.68 186.3 371.76 184.26 373.13 182.38 374.93 180.67 377.29 180.07 379.39 180.01 381.36 179.9 385.29 180.51 389.1 181.67 393.2 182.67 396.46 184.36 401.13 184.94 406.2 185.02 410 184.56 413.09 183.23 415.04 181.03 415.91 180.83 415.98 179.39 415.39 177.07 413.81 172.63 409.51 168.01 405.49 165.49 404.32 163.13 403.86 162.16 403.57 160.06 402.96 158.98 402.52 157.92 401.24 154.57 397.38 149.24 392.51 141.21 386.6 133.51 381.69 127.23 378.2 122.01 375.72 117.68 374.38 116.59 373.94 111.71 372.73 106.62 372.08 101.72 371.43 100.5 371.02 98.65 370.4 96.13 369.09 93.47 366.51 88.06 364.45 83.16 363.52 76.99 362.71 70.97 362.89 63.47 363.61 57.05 364.9 50.81 366.63 46.02 368.09 41.59 370.13 38.28 371.05 34.08 371.41 28.61 371.45 24.22 371.8 19.65 372.28 19.38 368.9 18.39 365.37 16.19 359.56 13.59 354.59 9.93 348.76 5.89 343.49 1.73 338.15 1.67 338.07 1 335.95 3.96 334.59 5.81 333.64 10.24 331.75 15 330.84 16.66 330.17 19.59 329.79 19.81 329.81 22.14 329.98 25.05 330.03 28.67 331.22 31.93 331.69 37.56 332.77 42.11 332.99 45.93 333.06 49.61 332.14 58.06 329.89 63.2 328.71 67.81 326.82 69.85 325.73 72.09 323.66 73.43 321.57 75.17 318.22 76.39 313.6 77.99 308.84 78.21 305 78.36 302.24 79.01 298.73 80.23 294.25 81.26 290.05 81.28 283.29 81.43 281.74 81.53 280.76 82.66 279.38 84.15 278.56 84.42 278.67 86.45 279.5 87.03 279.73 92.77 282.93 98.37 284.99 106.68 287.38 111.21 288.45 118.11 289.55 121.75 289.75 125.03 289.81 128.33 289.3 131.46 288.09 135.5 287.03 138.44 286.38 143.21 285.48 146.5 284.97 148.9 284.03 151.34 281.54 154.89 278.5 158.28 274.9 160.79 269.88 162.4 264.84 163.47 259.09 163.76 255.44 163.9 254.6 164.65 249.97 165.16 245.05 166.43 238.74 167.28 234.68 167.65 228.21 167.54 219.2 167.17 213.15 166.16 210.04 164.41 207.47 161.92 205.6 157.97 203.42 153.48 200.96 152.56 200.09 152.41 199.95 152.26 199.12 152.26 199.11 153.01 198.27 154.88 196.48 159.74 192.34 162.05 188.16 163.6 184.95 163.55 180.45 162.93 176.64 162.01 170.71 161.96 165.93 162.1 161.15 162.18 160.73 162.96 156.52 163.47 151.46 162.91 145.68 162.05 141.45 161.79 140.18 160.88 133.83 161.02 129.05 161.51 124.84 162.35 120.91 163.57 116.57 164.23 112.5 163.28 107.7 162.13 103.18 161.72 98.39 160.78 93.03 159.29 87.94 157.06 82.83 153.74 77.99 151.29 74.29 148.79 72.56 147 71.27 147.02 71.19 147.1 70.97 147.6 69.45 148.4 67.07 149.37 64.98 149.66 64.87 150.85 64.44 152.49 64.47 154.09 65.62 155.35 66.48 156.24 66.92 157.69 67.23 160.43 67.28 163.14 68.03 164.58 68.75 165.82 70.04 167.05 71.75 168.83 73.33 170.06 74.55 170.08 74.57 170.42 74.9 170.93 76.18 171.06 78.15 172.09 80.42 173.48 82.69 175.06 84.69 176.26 87.38 178.73 90.52 179.83 91.63 180.85 92.67 182.44 94.38 184.4 96.25 184.89 97.94 185.75 99.93 186.77 102.62 187.99 104.47 190.84 106.63 193.73 107.8 197.1 109.18 197.33 109.27 201.29 111.17 203.65 111.63 206.02 111.67 209.5 111.03 212.42 110.8 214.81 111.5 214.96 111.54 215.09 113.23 214.32 114.63 211.91 115.99 207.29 118.16 202.1 121.03 199.88 122.26 198.36 124.06 197.57 126.16 197.86 128.84 199.22 132.38 200.58 135.78 201.23 138.46 201.23 138.59 201.1 143.1 200.64 146.33 200.56 149 201.23 151.12 201.9 153.25 202.18 156.21 201.83 161.97 202.29 165.07 203.22 170.86 204.54 175.38 206.71 182.59 208.7 189.38 209.33 192.77 211.02 197.3 213.66 200.58 216.67 203.87 220.25 206.18 224.4 207.52 228.59 207.87 231.5 208.2 233.3 208.8 233.82 209.28 233.92 209.38 234.37 209.8 234.69 211.35 234.29 212.33 232.2 215.39 230.68 217.61 230.08 219.43 229.64 221.96 229.79 229.28 230.18 234.91 229.28 240.8 229.35 244.46 230.03 246.45 231.56 250.13 233.63 254.1 234.81 257.64 236.91 260.77 238.85 262.78 242.26 264.95 246.59 266.57 251.83 268.06 257.28 268.72 266.4 268.74 274.08 267.88 281.77 266.89 291.1 265.64 298.73 262.19 302.86 261.06 306.54 260 311.44 258.54 316.75 256.8 321.11 255.19 325.3 253.57 329.32 252.23 333.61 250.9 337.63 249.84 341.88 248.51 345.28 247.51 348.97 245.89 352.5 243.77 359.51 239.88 364.85 235.68 366.99 233.47 368.74 230.68 369.61 228.66 369.81 222.68 369.89 222.62 371.16 221.72 373.05 221.33 377.49 222.32 386.07 224.23 388.62 224.76 392.39 224.9 396.3 224.12 401.82 222.39 405.73 220.7 410.16 218.45 415.03 215.44 419.69 211.86 424.71 207.59 428.25 204.13 431.02 200.95 433.8 197.62 435.94 195.05 438.28 191.15 440.98 188.81 447.87 185.06 451.5 183.22 454.54 180.95 456.64 178.39 457.5 175.66 457.86 170.74 457.18 167.56 455.95 164.37 455.7 162.4 456.17 160.79 457.46 159.55 459.1 160.52 459.17 160.56 461.74 163.21 463.93 165.36 466.4 167.51 469.38 169.32 472.28 168.74 476.86 167.34 477.96 167.36 479.17 167.96 481.5 169.11 489.77 173.4 494.58 175.1 496.46 175.91 502.36 175.8 507.37 174.55 510.38 174.18 516.44 173.65 522.12 172.84 527.14 171.09 531.12 169.76 534.86 168.13 537.73 166.21 539.54 163.85 541.29 161.14 542.83 158.42 544.59 155.85 546.74 153.28 549.62 149.89 553.07 146.15 554.13 145.07 555.73 143.45 558.48 141.32 560.41 138.82 562.95 135.63 565.04 133.13 567.13 130.78 570.01 127.8 572.15 125.87 573.58 123.08 575.26 119.03 576.13 115.46 576.26 110.6 575.8 104.41 574.78 101.71 573.88 98.53 573.58 96.84 573.88 95.02 574.99 94.97 575.12 95.03 577.75 96.35 582.45 98.4 590.67 101.71 594.67 102.62 597.21 102.95 602.88 102.7 607.67 102.15 612.8 101.11 617.98 99.93 621.44 99.15 625.68 98.31 628.92 97.31 632.44 95.54 633.68 94.93 635.9 94.48 638.14 93.39 645.23 88.03 648.36 86.25 650.88 84.54 652.31 82.38 652.2 78.02 651.08 75.18 650.12 72.49 647.78 69.57 646.65 66.95 646.45 65.54 647.16 64.53 647.18 64.49 649.89 65.6 653.2 67.41 654.74 68.21 656.12 68.66 659.65 70.97 663.19 71.95 666.45 73.06 668.44 73.87 670 73.9 672.34 73.16 678.66 70.04 683.75 68.23 691.79 65.48 696.22 63.38 700.01 62.18 703.32 60.76 706.78 58.85 711.67 55.7 716.21 52.96 720.76 49.24 723.66 45.78 727.55 41.62 730.76 38.87 730.94 38.63 733.08 35.95 735.97 31.99 738.97 28.6 741.51 25.48 744.83 22.65 749.44 19.07 752.91 17.38 758.22 15.43 763.13 13.9 766.37 12.55 769.69 10.07 773.33 8.52 778.37 5.86 783.02 3.97 783.05 3.96 785.69 2.96 791.55 1.45 794 1 795.11 1.16 795.68 1.62 796.78 2.49 796.82 2.53 797.47 3.24 798.13 4.03 798.94 5.36 799 5.45 798.83 5.87 798.69 6.92 797.02 7.73 794.68 7.9 793 8.16 793.14 9.99 792.24 11.59 Z"/>
</g>
</svg>