<?xml version="1.0"?>
<svg xmlns="http://www.w3.org/2000/svg" version="1.2" baseProfile="tiny" width="800" height="1215" viewBox="0 0 800 1215" stroke-linecap="round" stroke-linejoin="round">
<g id="newbullardsbarreservoir">
<path d="M 315.08 955.61 315.36 954.61 311.11 953.92 308.58 953.92 305.83 953.71 303.72 954.55 301.36 954.94 301.74 955.35 300.93 956.58 300.66 957.65 300.86 958.86 301.33 959.94 301.47 961.02 301.06 962.34 300.32 963.4 299.98 964.64 300.11 966 300.38 968.08 300.86 969.85 301.4 971.61 301.74 972.78 302.21 973.9 302.49 975.75 302.89 977.39 303.16 979.63 303.36 981.52 303.64 983.12 304.04 984.37 305.05 985.5 306.01 986.47 306.68 987.48 307.22 988.29 308.1 988.87 309.12 989.28 310.2 989.9 311.35 990.16 312.3 990.49 313.18 990.67 311.63 991.44 310.61 991.7 309.8 992.13 309.39 992.76 309.05 993.8 308.58 993.91 307.9 993.42 307.09 992.13 306.21 991.39 305.62 991.15 304.92 990.85 303.91 990.56 303.16 990.15 302.28 989.29 301.54 988.6 300.93 988.19 300.28 987.86 300.05 987.74 299.64 987.25 299.64 986.33 299.51 985.45 298.96 984.6 298.29 983.83 297.75 982.86 297.81 981.63 297.68 980.63 295.78 979.16 295.71 978.89 295.65 978.63 295.78 977.76 295.71 977 294.77 975.9 293.61 974.85 293.1 974.3 290.63 973.13 288.52 971.44 286.2 971.44 282.61 970.39 282.35 970.08 280.29 967.64 279.23 966.37 278.3 965.13 277.33 963.84 275.85 962.57 273.95 961.94 271.21 962.15 269.09 961.31 264.87 960.67 262.97 959.2 261.92 957.93 258.75 956.45 256.22 955.61 252.84 955.4 250.51 955.61 247.14 957.93 243.55 960.04 238.27 960.67 235.95 961.52 234.68 962.79 233.41 965.32 230.46 967.64 227.08 968.27 224.33 968.7 221.8 969.54 220.11 970.39 219.27 971.65 219.05 974.18 219.48 976.51 220.95 979.04 222.43 982.42 223.28 984.95 224.97 987.06 227.5 988.54 230.03 991.07 231.09 993.39 231.09 996.14 231.09 998.67 231.66 999.43 232.82 1000.98 233.62 1002.05 233.83 1004.37 233.83 1004.9 233.83 1005.5 233.83 1007.54 233.83 1010.28 234.05 1012.6 234.47 1015.35 234.08 1017.41 233.68 1019.54 235.26 1022.79 235.66 1023.79 236.68 1025.01 237.49 1026.02 237.56 1026.94 237.09 1027.85 236.09 1028.76 235.66 1029.15 232.82 1030.9 232.14 1031.77 231.73 1032.92 231.13 1033.79 229.71 1034.85 228.22 1036.54 226.39 1038.55 224.63 1040.68 224.22 1042 224.22 1043.11 224.69 1044.52 225.58 1045.81 226.66 1046.63 228.01 1046.97 229.57 1047.28 230.12 1047.53 230.24 1048.19 230.25 1048.25 229.37 1048.95 228.02 1049.73 225.98 1051.14 224.97 1052.48 224.36 1053.59 223.01 1054.73 221.78 1055.9 221.25 1057.45 221.38 1058.9 222.26 1060.03 223.68 1060.65 225.85 1060.73 227.54 1060.23 228.69 1059.69 229.36 1059.78 229.77 1060.35 229.84 1061.91 230.86 1063.48 232.28 1064.3 233.83 1064.45 235.66 1063.96 236.68 1063.82 237.36 1064.03 238.1 1064.88 239.53 1065.7 241.22 1066.33 242.98 1066.63 243.27 1066.75 244.33 1067.18 244.67 1067.86 244.13 1069.01 242.84 1070.75 241.96 1072.37 241.69 1073.81 241.96 1074.85 242.98 1075.79 244.61 1076.49 246.23 1076.48 247.44 1076.62 248.33 1077.07 248.93 1077.72 250.02 1078.42 251.51 1078.84 252.66 1078.86 253.2 1078.87 253.94 1079 254.42 1079.37 254.89 1080.41 254.9 1081.69 254.28 1082.4 253.4 1083.11 251.37 1084.47 250.35 1085.3 250.02 1086.49 250.7 1087.74 251.98 1088.28 254.01 1088.59 256.11 1088.82 257.43 1088.95 258.21 1089.02 258.61 1089.3 258.82 1090.03 258.34 1091.02 257.26 1091.72 256.52 1092.91 256.11 1093.74 256.32 1095.26 256.25 1096.62 256.11 1097.26 255.84 1098.61 255.78 1099.45 256.38 1100.14 257.47 1101.24 259.09 1102.54 260.51 1103.92 261.53 1104.98 262 1105.58 262.07 1106.34 261.8 1107.78 261.53 1109.17 260.65 1113.08 260.99 1113.96 261.66 1114.69 262.81 1115.47 263.03 1115.65 263.7 1116.2 263.42 1117.36 262.82 1119.51 262.41 1121.74 262.27 1123.57 262 1126.05 262.21 1127.37 262.61 1128.29 263.42 1128.95 264.64 1129.45 265.93 1129.99 266.67 1130.4 266.88 1131.24 267.55 1132.69 268.97 1133.79 271.21 1134.95 272.97 1135.54 276.49 1136.95 277.7 1137.69 278.11 1138.33 278.79 1139.54 279.4 1140.39 280.35 1140.61 280.69 1141.01 282.31 1141.12 284.07 1141.19 286.24 1141.66 286.7 1141.87 287.66 1142.32 289.21 1142.95 289.4 1143.08 289.96 1143.48 290.23 1144.36 290.23 1145.68 290.1 1146.92 289.76 1150.87 290.1 1151.6 291.25 1152.73 292.6 1153.59 293.82 1154.33 294.91 1155.31 294.84 1156.23 294.24 1157.28 294.09 1157.53 293.62 1158.53 293.35 1159.24 293.41 1160.08 294.23 1161.53 295.1 1163.11 295.92 1164.52 296.53 1165.89 296.33 1166.4 296.14 1166.69 295.65 1167.47 294.97 1168.82 294.9 1170.7 295.11 1172.14 295.2 1173.15 295.24 1173.58 294.57 1174.37 294.23 1175.16 294.77 1176.89 295.24 1178.57 295.1 1180.01 294.3 1181.04 293.08 1182.06 292.2 1183.04 291.66 1184.43 291.39 1185.63 290.64 1187.65 289.49 1189.51 287.52 1191.68 286.03 1193.41 284.07 1195.3 281.77 1197.46 279.47 1199.54 276.63 1201.14 273.71 1202.73 272.09 1203.5 270.06 1204.47 268.91 1205.41 268.03 1206.43 267.35 1207.66 266.6 1209.25 265.66 1211.15 265.54 1211.37 264.98 1212.42 264.37 1213.09 263.09 1213.55 261.19 1213.32 259.77 1212.9 258.08 1213.11 255.98 1213.16 252.32 1212.86 249.68 1212.78 247.99 1212.75 246.71 1212.61 245.49 1212.47 243.86 1212.56 241.15 1213.16 239.26 1213.45 236.35 1214 235.26 1211.51 234.99 1210.7 234.72 1209.26 234.38 1207.42 234.11 1204.25 233.77 1202.61 232.69 1199.51 232.08 1198.11 230.86 1196.29 229.57 1194.63 228.22 1192.93 226.94 1191.75 226.64 1191.49 225.44 1190.45 223.55 1189.18 220.43 1187.65 218.14 1186.57 215.7 1185.54 213.53 1184.78 210.88 1184.1 208.52 1183.66 206.01 1183.34 202.9 1182.89 200.53 1182.74 197.69 1182.77 195.11 1182.89 192.13 1183.24 190.44 1183.65 188.14 1184.38 185.97 1185.5 186.31 1183.83 186.71 1182.43 187.8 1180.57 188.95 1179.03 189.7 1178.25 190.58 1177.5 192.33 1176.69 194.17 1176.08 195.59 1175.18 197.01 1174.13 198.16 1173.39 199.79 1172.81 201.68 1171.88 202.9 1170.82 203.58 1170.03 204.32 1169.81 205.29 1169.9 205.47 1169.94 206.69 1170.28 207.84 1170.22 208.72 1169.84 210.28 1168.9 213.87 1167.16 217.39 1165.94 217.86 1165.79 219.55 1165.17 221.38 1164.32 222.8 1162.95 223.68 1161.52 223.96 1160.37 223.68 1159.12 221.86 1155.54 221.11 1154.05 219.75 1151.99 218.81 1150.49 218.6 1149.57 218.54 1148.73 218.54 1147.65 218.4 1147.41 218.26 1146.53 217.52 1145.52 216.71 1145.11 215.76 1144.85 214.95 1144.6 210.62 1140.21 209.26 1138.99 207.57 1137.33 205.68 1135.46 203.84 1133.95 202.36 1132.49 201.68 1131.04 201.3 1129.73 201 1128.67 200.6 1127.1 200.05 1125.5 199.37 1124.17 198.57 1122.32 198.09 1120.67 197.68 1119.5 196.87 1118.41 195.24 1117.39 193.49 1116.72 192.54 1116.5 188.82 1116.72 186.99 1117.18 185.43 1117.19 184.68 1116.62 184.55 1115.7 184.08 1114.69 183.68 1114.1 183.4 1113.68 182.72 1112.95 182.73 1112.27 184.69 1109.19 185.29 1108.2 185.77 1107 185.56 1106.24 185.02 1105.31 184.01 1103.78 183.2 1102.21 182.24 1100.27 181.71 1099.03 181.57 1098.27 183.53 1097.06 185.57 1096.13 186.92 1095.19 187.67 1094.01 188 1092.81 187.46 1092.08 186.45 1091.63 183.4 1090.7 180.83 1090.1 178.46 1089.82 175.68 1089.26 173.31 1088.66 171.82 1088.68 170.67 1089.26 169.32 1090.16 168.3 1090.42 167.07 1091.35 166.44 1090.51 166.23 1089.45 165.17 1087.98 164.96 1087.13 165.81 1086.29 166.86 1085.66 169.35 1085.68 171.14 1084.91 172.16 1083.81 172.43 1082.93 172.84 1082.54 175.28 1082.78 177.24 1083.13 178.73 1082.99 179.88 1082.33 180.42 1081.18 180.56 1080.07 179.88 1075.34 179.4 1073.57 178.73 1070.96 178.25 1069.04 177.51 1067.03 176.97 1065.98 175.82 1065.04 173.11 1063.52 169.55 1059.88 167.92 1063.07 165.17 1062.01 163.48 1060.96 162.01 1059.48 162.18 1058.06 162.22 1057.79 163.06 1056.74 163.27 1055.05 162.64 1054.2 162.11 1052.98 162.01 1052.72 162.01 1051.53 162.01 1051.46 163.06 1049.35 164.12 1047.66 166.02 1045.55 167.92 1043.86 169.61 1042.8 172.43 1042.29 174.05 1041.12 175.2 1039.93 175.75 1038.86 175.68 1037.66 175 1036.1 173.85 1034.96 173.99 1034.52 174.53 1033.41 175.41 1032.26 176.7 1031.45 177.58 1030.86 177.84 1029.55 178.05 1028.55 178.66 1027.68 178.99 1026.49 179 1025.33 178.25 1023.32 176.29 1022.57 177.35 1021.14 172.35 1020.43 171.09 1020.01 170.45 1018.95 170.87 1017.68 171.72 1017.26 173.2 1015.57 174.04 1013.88 172.99 1010.72 170.87 1008.61 170.03 1006.92 170.03 1005.86 170.42 1004.95 170.66 1004.38 171.93 1001.64 171.93 999.74 171.51 998.05 170.45 996.36 170.03 994.46 167.48 993.33 165.86 993.55 164.72 993.57 163.42 993.19 161.53 992.36 160.11 991.42 159.82 991.04 159.77 990.97 159.7 989.69 159.71 987.89 159.57 986.29 159.3 984.37 158.96 982.77 158.62 981.24 157.8 979.91 156.45 978.37 155.03 977.27 153.47 976.08 151.85 974.74 151.3 974.21 150.83 973.76 150.02 971.91 149.48 970.71 148.73 969.97 147.85 969.36 147.72 968.72 147.74 968.68 148.6 967.17 149.68 965.59 151.04 963.94 152.26 962.6 153.14 961.29 153.61 959.74 154.08 958.63 154.83 958 155.71 957.06 156.32 956.03 156.86 955.56 158.28 955.18 160.72 954.7 162.88 954.25 164.85 954.12 166.27 952.83 167.02 951.68 168.44 950.91 169.45 950.28 170.26 949.26 170.4 948.02 170.74 946.83 172.02 945.81 173.58 945.27 175.54 944.98 177.17 945.01 178.12 944.82 178.38 944.23 178.25 942.91 177.24 941.37 175.75 939.15 174.53 937.73 173.24 937.19 172.09 937.14 170.53 937.43 168.43 937.84 166.07 938.2 163.76 938.08 161.86 937.69 160.11 936.7 159.02 936.05 157.2 935.7 156.05 935.72 154.96 936.26 153.88 936.61 152.93 936.43 152.12 935.74 151.57 934.85 151.51 934.01 151.04 933.04 150.56 932.16 147.99 930.8 146.16 929.85 143.52 928.97 141.42 928.49 139.52 928.42 138.11 928.64 136.41 929.21 135.37 930.12 134.92 930.51 133.84 931.47 133.77 931.53 132.76 931.87 131.41 931.81 130.46 931.44 128.76 929.77 127.61 928.39 126.19 927.09 125.51 926.44 124.09 926.1 122.66 926.36 121.25 926.93 120.17 928.32 119.76 929.31 119.22 929.58 117.79 929.56 115.49 929.4 113.6 929.41 111.7 929.9 110.75 930.68 110.59 930.94 110.28 931.44 109.6 931.79 108.72 931.69 108.45 931.05 107.77 929.92 107.16 929.07 106.15 928.45 104.66 928.07 102.97 928 100.59 928.25 98.57 928.73 96.74 929.46 95.86 930.33 94.98 932.07 94.91 933.39 95.04 934.79 94.57 935.5 93.76 935.45 92.41 933.91 91.33 932.85 90.31 932.2 89.16 931.98 87.6 932 85.02 932.68 82.59 933.6 80.49 934.64 79.67 934.92 78.6 935.29 76.97 935.5 76.31 935.48 75.48 935.44 72.17 934.55 73.24 934.21 74.2 934.02 75.21 933.64 76.77 932.86 78.66 931.65 81.16 929.46 82.38 928.36 83.31 927.03 83.54 926.7 84.62 925.08 85.43 924.29 86.58 923.59 87.19 922.72 87.26 921.8 87.46 921.32 88 921.29 89.5 921.56 90.57 921.69 90.99 921.67 92.14 921.6 94.57 920.4 96.2 919.66 98.3 918.82 100.87 917.82 103.17 916.82 104.73 915.36 105.13 914.33 105.34 912.89 105.61 911.9 106.42 910.87 106.76 909.76 106.69 908.28 106.15 907.15 105.74 906.11 106.01 905.35 106.69 904.28 107.44 903.1 107.57 901.26 107.5 900.06 107.03 898.81 106.55 897.97 106.1 895.43 100.94 894.65 99.46 894.02 96.93 892.54 93.97 890.99 91.86 889.74 91.1 889.29 90.66 888.24 90.28 887.35 90.09 886.88 89.2 885.61 88.9 883.46 88.27 881.98 86.49 881.39 85.35 881.26 84.85 880.63 84.85 879.05 84.85 878.98 84.85 877.72 84.85 876.96 84.85 876.32 85.73 875.82 87.16 875.07 87.43 874.81 90.55 875.23 95.24 875.86 96.29 877.97 96.72 880.08 97.56 882.19 99.04 883.46 100.52 884.52 104.53 885.57 106.85 886.21 110.23 887.05 112.34 887.68 113.61 888.95 115.72 890.01 118.68 891.48 120.15 893.38 122 895.32 123.21 896.59 123.27 898.19 123.14 899.95 123.14 901.35 123.41 903.59 124.16 904.92 124.7 905.69 125.58 906.14 126.46 906.44 127.75 906.26 129.3 905.84 130.45 905.62 131.27 905.79 132.07 906.48 133.43 907.47 135.26 908.13 137.02 908.36 138.44 908.42 139.32 908.28 140.27 908.57 141.89 908.96 144 908.83 145.21 908.65 146.36 908.59 148.05 908.58 149.89 908.77 151.98 908.76 152.93 908.49 153.88 907.91 154.83 907.09 155.44 906.22 155.7 905.58 156.25 904.63 157.02 904.38 157.4 904.25 158.82 904.11 159.84 904.25 160.58 904.66 160.79 904.79 161.59 905.31 162.61 905.61 164.17 905.68 165.59 905.14 168.83 908.19 169.81 907.25 169.71 901.81 172.25 901.81 174.15 901.81 177.85 902.01 178.16 902.02 181.12 902.23 183.02 900.97 184.71 899.7 188.08 898.65 191.67 896.75 195.06 896.35 195.26 896.32 199.7 896.53 202.86 896.32 206.88 896.32 210.04 896.96 215.53 897.17 219.12 898.01 220.98 898.01 221.55 898.01 223.45 898.33 225.84 899.06 227.61 899.19 229.01 899.31 229.77 899.69 230.36 902.18 232 901.08 233.36 901.82 235.26 902.13 237.08 902.4 238.91 902.47 239.92 902.73 240.33 903.05 240.95 904.02 241.75 905.12 242.5 905.61 243.86 906.03 245.95 906.14 247.64 906.13 249.27 906.39 250.36 906.77 251.23 907.19 253.47 907.46 255.09 907.21 256.31 906.55 256.78 905.92 256.99 905 257.73 904.33 258.68 903.59 259.76 902.81 260.98 901.63 262 901.48 263.56 901.47 264.77 901.37 266.13 900.95 267.55 900.81 269.37 900.76 270.8 900.06 272.22 898.81 272.69 897.86 273.1 896.78 272.96 895.9 272.49 894.7 271.34 894.08 269.92 893.22 268.77 892.52 268.02 891.79 268.09 890.59 268.3 889.47 268.57 888.28 268.77 887.24 268.5 886.08 267.75 884.95 266.4 884.05 264.5 883.1 260.91 882.16 259.22 881.81 257.26 881.62 255.84 881.16 255.7 880.68 256.79 878.98 256.92 878.3 257.84 877.09 258.08 873.89 257.45 873.26 257.03 871.36 256.61 870.3 255.97 869.04 255.97 867.35 256.61 866.29 257.03 864.6 258.08 862.92 257.87 862.07 256.82 860.59 256.82 859.54 258.51 857.22 258.51 854.89 258.51 853.2 259.56 851.73 259.35 851.09 257.66 850.67 256.4 850.46 254.5 850.04 254.53 849.86 254.71 848.77 256.4 847.08 256.18 844.76 255.76 843.71 254.92 842.65 254.28 840.96 254.28 839.27 253.65 838.01 253.44 836.53 253.65 835.26 254.5 834.21 254.92 832.52 255.13 830.83 254.92 828.93 254.5 827.45 253.65 826.18 252.17 825.55 250.7 825.55 249.34 823.69 248.32 823.09 247.71 822.24 248.39 821.06 249.2 820.31 249.27 820.24 249.85 816.47 250.7 815 250.06 814.36 249.12 812.91 249.07 812.87 249.13 812.35 249.54 811.76 249.67 810.68 249.2 809.8 248.32 808.78 247.65 807.73 246.69 806.88 245.21 805.9 243.51 804.99 242.63 804.34 242.5 803.82 243.11 803.47 243.11 803.46 244.67 802.69 245.95 801.91 246.62 801.04 247.5 800.9 248.88 801.29 251.33 801.06 252.6 800.22 252.81 799.38 252.6 798.11 252.53 797.29 251.71 796.69 251.23 795.84 251.36 794.6 251.84 794.01 253.06 793.83 254.28 793.65 255.16 793.23 255.22 792.43 255.22 791.03 255.63 790.28 257.39 789.51 258.94 788.69 259.83 787.95 260.03 787.19 260.64 786.32 261.52 785.82 262.33 785.15 262.61 784.31 262.67 783.24 263.08 781.92 263.21 781.33 262.4 780.55 260.98 780.17 259.36 780.23 257.79 780.36 255.83 780.49 254.41 780.27 253.26 779.53 252.11 778.55 250.69 778.17 248.79 777.9 246.49 778.1 245.21 778.44 244.33 779.15 243.11 780.09 241.95 780.39 240.53 780.24 239.38 779.43 238.5 778.77 235.25 778.2 232.88 777.84 230.78 777.37 229.36 776.83 228.62 775.86 228.56 774.65 228.55 774.34 228.55 772.46 228.28 770.98 227.74 769.69 227.81 768.89 229.5 767.64 230.25 766.57 230.38 765.89 230.38 765.01 230.25 763.89 229.43 763.6 227.4 764.01 225.37 764.3 223.54 764.31 222.12 763.68 221.71 763.08 222.12 762.49 223.14 762.06 224.22 761.28 225.23 760.14 225.57 759.34 225.84 757.95 225.71 756.87 224.96 755.9 223.27 754.83 221.85 754.01 221.44 753.24 221.64 752.29 221.64 751.53 220.9 750.64 219.54 749.58 218.87 748.77 218.94 748.09 219.95 747.02 221.24 745.81 222.11 744.7 222.32 743.71 222.52 742.67 223.54 741.45 224.55 740.14 224.42 739.14 223.4 738.69 221.78 738.46 220.22 738.56 218.67 739.13 216.91 739.34 215.48 738.88 213.86 738.09 212.51 737.35 211.15 737.69 210.61 738.56 209.8 739.47 208.51 739.77 207.07 740.03 204.32 742.15 202.84 743.42 201.36 743.42 199.88 743.21 198.83 742.79 196.93 740.94 195.03 741.94 193.13 742.37 192.07 741.52 191.55 741 191.01 740.47 189.33 738.57 188.06 737.51 185.95 736.67 182.57 736.88 181.92 736.49 181.51 736.24 182.15 734.98 182.99 733.08 184.68 731.81 185.1 730.97 183.41 730.33 181.72 729.91 180.46 729.28 177.08 728.43 175.6 728.01 173.49 727.38 171.8 726.75 169.69 725.48 168.63 724.63 167.79 723.37 167.37 722.73 166.94 721.89 167.79 721.05 169.27 720.41 170.96 719.78 171.59 718.72 171.17 717.88 169.69 717.03 168.42 716.61 167.16 716.19 165.75 714.76 164.64 713.85 163.42 713.19 163.15 713.03 162.54 712.18 162.34 711.3 162.54 710.22 162.64 710.03 163.28 708.71 163.69 708.32 163.82 708 164.1 707.25 164.03 706.53 163.69 706.2 163.21 705.72 162.27 705.06 161.39 704.37 161.25 703.61 161.53 702.49 161.25 701.97 160.3 701.95 158.82 702.13 157.53 702.07 156.72 701.74 156.43 701.24 156.31 701.05 156.24 700.29 156.72 698.82 156.92 697.86 156.45 697.25 155.77 696.68 154.96 696.11 154.89 695.39 155.23 694.64 156.31 693.18 157.6 692.2 157.6 691.64 157.13 690.79 155.23 689.56 154.55 688.79 154.35 687.91 154.82 687.2 155.57 686.33 156.58 685.59 157.4 684.52 157.6 683.49 157.73 682.25 158.88 681.07 159.97 679.93 159.97 679.17 159.02 678.51 158.07 677.74 157.8 676.57 157.87 675.66 157.53 674.85 156.44 674.39 155.03 674.41 153.6 674.83 152.45 675.73 151.98 676.64 151.23 677.71 150.56 678.22 149.27 678.44 148.39 678.74 147.85 679.81 147.51 680.61 146.7 681.59 145.75 682.18 144.47 682.32 144.25 682.25 142.35 682.75 141.29 682.75 140.87 681.48 139.82 680.21 138.34 679.16 135.38 678.52 133.27 678.52 131.85 678.61 129.89 678.73 127.36 678.95 126.3 678.31 124.4 678.31 122.92 677.68 120.6 677.26 118.49 678.1 115.96 678.52 114.06 677.68 113.21 676.2 111.31 675.57 109.83 676.2 107.82 677.39 104.38 678.65 104.11 678.75 102.75 678.66 102.42 678.15 101.4 677.56 99.82 677.39 97.5 676.97 96.02 676.13 94.33 675.07 92.43 673.38 91.8 671.91 89.68 671.48 88 670.85 88 669.37 87.78 668.32 87.15 667.26 85.04 666.63 82.93 666.42 82.21 665.94 81.66 665.57 81.24 664.31 81.24 663.25 80.39 662.41 77.44 660.51 68.78 656.71 63.29 654.17 60.55 651.22 59.28 648.9 58.44 647.63 57.17 646.57 54.85 645.73 53.79 644.67 53.79 642.99 53.58 641.72 52.31 641.72 46.61 641.09 44.08 640.87 43.96 640.64 43.66 640.03 43.66 637.92 44.92 636.23 45.56 634.33 45.56 632.85 45.56 630.53 45.77 628.84 46.19 626.94 45.56 626.1 43.66 624.41 39.22 621.67 37.32 621.03 36.48 619.34 36.69 617.23 36.94 616.48 37.11 615.97 38.38 615.54 40.07 615.54 41.76 614.91 43.23 613.64 43.45 611.96 43.23 610.69 41.97 609.42 41.76 608.37 41.76 607.52 43.02 606.89 45.98 606.68 48.09 606.26 52.1 605.62 54.71 604.38 55.17 603.61 55.91 603.1 56.86 602.88 58.34 603.38 59.3 603.71 60.38 603.45 61.05 602.74 61.05 602.1 60.71 600.98 60.58 599.86 60.92 599.18 62 598.64 63.49 598.23 65.05 597.77 66.6 597.16 67.35 596.37 68.16 595.46 69.18 595.08 70.46 594.82 72.02 594.72 73.58 594.87 75.61 595.46 77.44 595.57 79.07 595.16 80.01 594.41 80.76 594.1 82.31 594.37 83.87 594.75 84.89 594.45 85.43 593.5 85.15 592.85 84.27 591.76 83.33 590.67 82.65 589.54 82.58 588.18 82.38 587.1 81.91 586.61 81.16 586.16 78.18 586.19 75.61 586.23 73.85 586.4 72.77 586.82 71.62 587.21 70.13 587.3 67.82 587.1 64.64 587.13 61.73 587.17 59.02 586.97 56.59 586.69 54.49 586.77 52.87 586.71 50.97 586.56 49.34 586.77 48.05 587.55 47.17 588.14 45.62 588.55 44.19 588.25 43.04 587.39 42.34 586.55 38.8 585.59 37.96 584.57 36.94 583.39 36.77 582.38 36.1 581.7 34.79 580.75 33.77 580.89 32.01 580.78 29.91 580.39 28.16 580.18 27.15 579.51 26.3 578.32 26.3 576.97 25.29 576.13 24.1 574.61 22.74 572.96 22.13 573.11 21.18 573.78 20.03 574.04 15.83 574.27 14.65 574.1 13.63 573.6 13.13 572.75 13.29 571.91 13.13 570.56 12.62 569.71 12.45 568.87 13.29 567.18 13.8 566 13.63 564.48 12.96 562.45 12.79 560.76 12.79 559.58 13.63 559.07 15.49 559.58 17.01 561.1 18.36 559.92 18.36 559.07 17.69 558.23 17.35 557.55 16.17 557.21 15.32 556.54 14.98 555.36 15.66 554.17 15.32 553.33 15.83 551.64 17.18 550.63 17.85 549.62 18.53 548.94 20.56 547.59 21.91 547.08 22.92 545.9 23.77 545.56 25.46 544.38 25.51 542.43 24.5 540.66 23.07 539.28 21.79 538.78 17.52 538.81 16.34 538.34 15.83 538.13 15.15 537.62 16.33 536.78 17.85 536.44 21.57 534.25 23.77 532.73 25.96 531.55 29.17 531.55 32.38 531.55 34.91 531.88 36.27 531.04 37.96 529.86 39.81 530.36 41.67 531.55 44.04 532.56 45.89 532.05 48.77 531.88 51.64 532.39 54 532.22 56.2 532.39 58.06 533.23 60.42 532.73 62.45 532.05 63.97 531.38 66.84 529.86 68.87 529.18 70.56 528.84 71.91 528 73.26 526.31 73.93 524.96 73.6 523.44 73.09 521.24 72.24 519.22 71.57 518.2 70.05 517.19 68.36 515.5 66.5 514.83 64.81 514.66 62.95 513.98 61.6 512.63 59.91 511.45 59.07 511.11 57.38 510.44 55.86 510.1 54.17 509.93 52.82 509.93 50.96 509.76 49.78 509.25 48.93 508.41 47.58 508.41 45.69 507.8 44.94 507.89 43.25 508.38 41.75 508.72 40.06 508.81 39.05 509.16 38.03 509.98 36.89 510.24 35.6 510.14 34.58 510.25 33.84 510.59 33.03 510.62 32.08 510.25 30.11 508.7 28.62 507.55 27.47 507.06 26.32 506.96 23.82 508.04 22.66 508.5 21.52 508.8 20.23 508.9 18.94 508.8 17.52 508.18 16.91 507.17 17.45 505.58 18.2 504.39 18.6 503.36 18.47 502.64 17.79 501.91 16.71 501.21 16.39 500.97 13.47 500.74 12.97 499.9 12.63 498.72 11.44 497.87 6.55 496.86 5.35 496.38 4.86 496.18 4.92 495.8 5.03 495.17 6.38 493.99 8.4 491.79 8.07 491.29 6.55 490.61 5.53 490.27 3.84 489.77 2.66 489.6 2.15 488.25 2.32 487.06 4.18 486.22 5.53 485.71 8.4 485.54 9.76 484.53 10.6 483.52 11.61 481.49 12.8 481.32 14.49 481.15 15.16 480.48 14.65 479.63 14.49 478.96 13.64 477.94 13.13 477.1 11.95 476.59 10.94 475.41 10.6 473.72 9.92 472.71 9.08 472.37 7.73 472.2 6.04 472.54 4.18 472.2 3.64 471.15 3.52 470.85 3.17 470.01 3.17 469.67 3.34 468.66 3.34 467.64 3.34 466.97 3.17 466.46 3.51 465.79 4.86 465.62 5.87 465.79 7.22 465.62 8.07 465.45 9.25 465.11 10.26 464.43 11.28 464.1 11.95 463.76 12.46 462.58 12.28 461.4 10.88 460.55 9.46 459.41 8.78 458.68 8.11 456.24 8.18 454.72 8.18 453.52 7.64 452.27 7.5 450.55 7.36 448.75 7.5 447.59 7.91 446.6 7.91 445.28 7.64 443.72 7.1 442.43 6.22 441.58 4.92 440.64 3.57 440.1 1 438.86 2.42 438.04 4.18 438.07 6.35 438.1 8.78 438.06 10.68 438.13 11.63 438.99 12.31 440.04 12.92 441.28 14.2 442.86 15.22 443.92 16.77 445.22 18.33 446.21 19.48 446.82 20.43 447.72 21.25 448.69 24.02 449.81 25.58 450.36 27.81 451.15 29.17 451.25 30.65 450.72 33.02 449.23 34.92 448.07 36.13 446.69 36.75 445.14 36.95 443.34 37.22 440.95 37.56 439.12 38.17 438.17 39.79 437.79 40.88 438.01 41.46 438.38 42.77 437.85 44.96 438.02 47.33 437.68 48.51 438.69 50.37 438.52 51.72 437.85 53.58 437.68 55.44 437.51 55.61 435.99 54.93 433.12 55.27 431.77 56.11 430.42 58.31 429.07 59.69 428.77 60.67 428.56 61.69 429.91 62.36 431.6 64.05 433.12 67.77 434.64 69.46 435.31 72.16 435.65 72.66 436.15 74.69 438.18 76.38 439.2 77.4 438.69 80.1 438.52 82.97 438.52 84.83 439.7 86.18 441.22 87.36 442.07 89.05 442.41 91.58 442.58 94.29 442.74 95.47 442.58 98.68 442.24 100.2 441.73 101.21 441.06 103.26 439.95 103.41 439.87 105.27 439.87 108.14 440.72 110.33 442.24 109.95 442.53 110.27 442.9 111.22 443.68 112.3 444.14 114 444.4 115.82 444.47 117.58 444.42 119 443.84 120.16 443.34 121.51 443.24 122.86 443.26 123.61 443.08 124.55 442.81 125.3 443.1 125.98 443.63 126.45 444.04 127.26 444.29 128.76 444.4 130.45 444.14 132.88 443.42 134.91 442.26 135.61 441.78 134.66 440.89 136.52 439.87 137.87 438.86 138.54 438.02 140.57 437.34 140.59 437.35 142.09 437.85 143.1 437.68 143.95 437.85 145.3 438.35 146.65 439.54 150.03 439.37 150.87 439.37 152.06 439.7 154.42 440.04 155.6 439.54 156.45 439.37 157.63 439.54 158.98 439.54 159.32 439.37 160.5 438.86 161.04 439.4 161.18 439.28 161.79 439.05 163.41 438.95 164.7 438.69 165.85 438.07 166.26 437.72 167.21 436.81 167.81 435.87 168.02 434.83 168.16 433.99 168.9 433.44 169.71 432.46 169.71 431.3 169.24 430.13 168.97 429.33 169.44 428.78 170.59 427.68 171.54 426.29 171.81 425.54 172.29 423.39 172.96 421.88 173.57 420.77 173.3 419.93 172.69 419.28 172.02 418.03 171.54 416.58 170.73 415.49 168.83 413.98 166.87 413.11 166.06 412.66 165.58 412.45 165.72 411.81 165.99 411.74 166.53 411.59 167.95 411.29 169.31 410.99 170.04 410.66 171 410.22 172.01 409.16 172.9 408.21 173.57 405.78 174.25 403.96 174.25 402.28 173.78 400.75 172.96 399.62 172.62 398.85 172.98 397.77 173.1 397.42 174.52 395.33 175.26 393.9 176.01 391.52 176.14 389.28 176.34 387.36 176.55 385.49 177.09 384.46 177.97 383.23 178.85 381.81 179.46 380.42 178.99 378.93 178.45 378.37 177.43 377.59 175.87 377.05 174.72 376.63 174.72 376.63 174.52 376.34 174.99 375.67 176.82 374.66 178.58 373.93 180.61 372.93 181.76 372.06 182.57 371.08 183.38 369.21 183.45 367.54 182.71 365.96 181.56 365.15 180.41 364.29 179.39 363.35 179.39 362.81 179.39 362.51 180.54 361.57 181.29 360.95 181.76 359.96 181.56 357.63 181.22 355.67 180.61 354.1 179.86 352.89 178.99 352.4 177.5 352.17 176.14 352.23 175.63 352.06 174.99 351.85 174.99 351.21 175.4 350.34 175.4 349.58 174.72 348.81 174.11 348 174.25 347.37 175.46 346.67 176.82 345.93 177.43 345.06 177.29 344.02 176.82 342.77 176.42 342.13 176.62 341.61 177.09 341.58 177.71 341.57 178.71 341.56 180.34 341.75 181.83 341.57 182.58 340.9 182.84 339.99 183.45 338.72 184.67 337.22 185.55 336.28 186.43 336.13 186.75 336 188.26 335.36 189.28 334.46 189.75 333.55 190.23 332.83 190.97 332.73 192.05 332.82 193 332.76 193.75 333.05 194.55 333.46 195.23 333.47 196.32 332.57 197 331.18 197.39 330.4 197.67 329.83 198.62 328.89 199.16 328.82 200.24 329.12 201.19 329.65 201.94 330.38 202.55 331.15 203.49 331.21 204.51 331.06 205.93 330.61 206.88 329.66 207.48 328.11 207.83 327.16 208.5 327.13 209.45 327.35 210.6 327.56 211.68 327.42 211.92 327.33 212.5 327.11 213.38 326.73 214.66 326.59 215.95 326.57 217.37 326.67 218.38 326.37 219.2 325.74 219.94 324.44 221.36 322.98 221.76 322.65 222.52 322 223.67 321.54 224.61 321.55 226.1 322.06 227 322.46 227.12 322.51 228.68 322.7 230.57 322.53 231.65 322.58 232.6 323 233.55 323.33 234.57 323.11 235.99 322.77 237.82 322.92 239.51 322.95 241.07 322.62 242.96 321.97 244.38 321.11 245.74 319.65 246.82 317.87 247.84 315.93 248.79 313.67 249.73 310.88 250.28 308.65 250.82 307.22 251.62 305.68 252.1 304.29 251.97 302.81 251.5 301.6 250.62 299.99 249.46 298.85 248.11 297.95 247.23 296.9 246.82 295.81 246.96 294.73 247.97 293.55 248.79 292.41 248.79 291.21 248.31 290.64 247.63 290.47 246.49 290.93 245.13 291.51 244.11 291.69 242.96 291.31 241.54 291.09 240.12 290.87 239.14 290.31 238.97 290.21 238.7 289.33 238.56 289.13 238.9 288.21 239.51 287.9 241.2 287.77 242.69 287.47 244.52 286.34 245.94 285.21 246.82 284.22 246.55 281.82 246.07 280.73 245.26 279.88 244.52 279.55 243.43 279.41 241.67 279.1 241.21 278.54 241.27 278.02 241.46 277.95 242.21 277.67 243.84 277.34 244.52 277.11 245.06 276.92 246.21 276.1 246.96 275.63 248.24 275.81 249.53 276.11 250.95 276.09 251.62 275.95 252.84 275.21 255.15 273.04 256.09 272.1 256.98 270.96 256.84 269.91 256.63 268.51 256.37 267.19 256.02 266.5 256.09 265.83 256.57 265.19 257.18 264.29 257.25 263.05 256.63 260.28 256.3 259.43 255.62 258.31 254.94 257.29 254.81 256.33 254.6 255.69 252.64 254.46 250.95 253.59 250.93 253.57 250.21 252.98 250.21 252.3 250.68 252.11 251.83 251.93 253.39 251.44 254.33 250.77 255.08 249.7 255.96 247.84 256.98 246.02 258.19 244.16 259.08 243.05 260.9 241.76 262.39 240.59 263.2 239.48 264.83 235.99 265.1 235.52 269.23 234.98 272.28 235.43 273.9 235.14 275.05 234.64 276.27 233.62 276.81 233.55 276.83 233.55 278.37 234.37 281.48 235.06 287.91 235.72 290.02 235.52 291.64 234.82 292.38 234.8 294.51 235.78 297.46 237.15 299.09 237.58 301.99 236.91 306.87 236.15 309.78 235.51 314.79 233.76 325.22 229.33 329.08 227.55 332.46 225.29 333.61 223.71 335.31 220.06 335.44 219.02 335.51 211.63 335.31 210.31 334.02 208.89 331.31 206.29 328.94 204.01 327.32 202.39 322.64 196.6 321.02 193.49 317.91 190.12 316.83 188.71 315.81 187.37 315.13 184.25 314.31 182.47 313.17 181.5 312.91 180.88 312.63 180.21 312.28 178.32 311.61 176.52 310.05 174.05 309.78 171.97 309.1 170.24 307.62 168.34 307.35 167.67 307.21 167.29 307.41 166.5 310.19 162.82 310.93 160.84 311.14 159 311.28 158.44 311.34 158.21 312.49 156.79 313.03 153.6 313.5 152.13 313.63 151.95 314.92 150.11 315.34 148.72 315.81 147.69 316.97 146.84 320.48 144.29 324.47 142.31 328.47 139.3 328.74 139.1 331.79 135.68 333.89 133.43 334.15 132.16 335.23 129.81 335.3 129.66 335.51 127.78 334.9 125.14 333.61 122.64 331.38 119.72 328.6 116.6 327.79 115.63 325.76 112.36 324.47 110.82 320.07 103.52 319.96 103.27 318.82 100.74 318.04 99.01 317.77 98.48 317.5 97.44 317.23 96.24 317.16 95.56 317.09 94.99 317.23 94.12 317.23 93.12 316.82 92.47 316.81 92.21 316.75 91.35 316.62 90.15 316.55 88.39 316.48 87.59 316.35 86.55 316.76 85.36 316.82 83.92 316.86 83.84 317.5 82.37 317.7 81.3 317.7 80.02 317.71 78.9 318.17 78.03 318.46 77.51 318.65 77.16 319.46 75.65 320.62 73.83 322.37 71.86 324.54 69.78 326.03 68.84 327.46 68.31 328.47 67.4 328.87 66.97 334.36 62.78 335.04 61.95 334.9 58.95 334.63 56.87 335.78 56.17 336.93 55.75 337.74 54.88 339.77 50.96 341.88 44.24 342.01 42.36 344.44 43.52 346.82 44.2 349.32 44.24 355 43.33 357.65 43.17 362.25 44.01 364.35 44 366.58 44 369.15 44.24 375.11 43.98 379.31 43.84 381.68 43.88 385.13 44.06 389.94 43.85 392.45 43.65 394.21 43.4 395.62 42.99 396.85 42.25 398.2 41.35 399.75 40.1 400.7 39.19 401.11 38.16 401.99 36.54 403.01 35.07 404.84 34.46 406.59 33.57 408.49 32.36 410.52 30.88 412.14 28.55 413.57 27.13 415.06 26.48 416.88 25.79 418.44 24.61 420.54 23.53 422.71 22.16 424.54 21.27 426.84 19.87 428.33 18.66 429.62 17.08 429.95 16.26 430.22 15.61 431.1 13.91 431.85 11.84 432.25 10.57 433.14 8.58 433.88 6.88 434.42 5.53 435.17 4.38 437.06 3.97 439.36 3.89 441.94 3.57 444.58 3.05 445.59 2.91 447.15 2.7 449.45 1.73 452.09 1.52 452.29 1.5 453.65 1.72 455.54 2.23 458.18 2.36 461.57 2.49 464.96 2.4 465.43 2.39 467.59 2.11 468.82 1.73 470.3 1.79 472.87 2.47 473.02 2.49 474.29 2.66 475.72 3.08 478.02 3.48 480.12 3.59 481.88 3.5 484.58 2.94 486.15 2.17 487.16 1.31 487.97 1 489.33 1.22 490.76 1.78 492.24 2.35 495.15 3.35 496.98 3.7 499.01 3.58 500.7 3.2 501.72 2.82 502.66 2.64 503.41 2.81 503.57 2.87 505.57 3.68 507.6 4.24 508.96 4.58 510.11 5 510.38 5.28 510.86 5.73 512.28 6.75 513.42 7.41 514.51 7.75 515.52 7.88 516.81 8.06 518.23 8.17 519.92 8.27 521.89 8.51 523.99 8.46 525.34 8.88 526.49 9.02 526.46 10.03 526.43 10.9 525.68 11.24 523.99 11.9 521.89 12.5 520.81 12.84 519.59 13.14 518.42 13.03 518.16 13 516.47 12.49 515.12 12.31 514.71 12.09 513.97 11.69 512.82 11.07 510.65 10.16 508.82 9.41 507.06 8.82 504.09 8.22 501.65 7.82 499.28 7.58 495.96 7.48 495.53 7.46 492.57 7.31 490.41 6.91 489.05 6.77 486.75 6.85 485.51 7.16 485.06 7.27 481.95 7.34 481.5 7.32 475.25 7.07 470.57 6.91 467.48 6.91 465.9 6.92 463.66 7.04 462.18 7.1 459.6 6.89 457.98 6.67 455.95 6.44 452.83 6.11 451.14 5.92 450.13 5.66 449.11 5.49 448.03 5.39 446.13 7.36 445.39 7.86 443.97 8.96 442.75 10.1 441.73 11.44 441.12 12.83 440.1 14.77 439.83 15.97 439.29 18.11 438.68 19.34 437.94 20.45 437.06 21.56 435.87 22.83 435.71 23.01 434.55 23.95 433.4 24.93 431.85 25.63 430.15 26.32 427.58 27.2 425.69 28.05 422.58 30.03 419.66 31.74 416.82 33.9 414.99 35.43 413.57 36.92 413.1 37.56 411.74 39.41 411.67 39.65 411.13 40.76 409.44 42.05 406.73 43.89 404.02 46.52 403.55 46.95 402.8 47.62 399.89 49.45 397.46 50.97 396.51 51.87 396.46 51.89 395.43 52.29 392.98 52.42 390.62 52.82 388.32 53.26 386.55 53.55 385.07 53.69 383.93 53.56 383.84 53.55 381.61 53.11 379.99 52.73 378.9 52.59 376.6 52.23 374.3 51.75 370.78 51.22 367.67 50.61 364.76 50.28 362.25 50.52 359.88 51.36 356.83 53.07 354.26 55.31 351.22 59.14 349.18 62.5 348.64 63.97 347.76 65.83 347.65 65.9 346.82 66.38 345.39 66.59 342.76 67.39 339.3 69.25 335.04 72.58 331.31 76.12 329.21 78.36 328.47 80.59 327.11 84.65 327.12 88.8 327.38 91.44 328.53 93.9 329.48 96.07 330.22 98.2 330.57 98.89 332.7 102.37 333.41 103.53 333.61 105.73 334.63 110.1 336.78 112.09 337.95 113.15 339.44 115.82 340.92 117.16 341.67 119.21 342.89 120.63 344.45 121.89 344.47 122.18 344.52 122.89 344.04 124.68 343.77 126.08 345.46 127.74 345.87 128.51 345.85 128.75 345.6 131.82 346.81 134.2 345.05 135.37 343.29 136.02 339.77 139.4 336.25 143.22 335.48 143.83 330.91 147.41 328.74 149.49 327.48 150.62 326.64 151.38 324.74 153.91 323.32 156.8 322.31 159.94 322.17 163.1 322.37 164.06 322.9 167.31 322.92 167.43 322.91 168.7 321.9 170.69 321.9 171.92 322.58 173.5 324.2 175.36 326.37 177 326.57 177.16 327.18 178.13 327.18 181.28 327.45 182.72 328.87 184.83 331.38 188.1 332.19 188.8 332.19 191.03 335.51 193.84 337.99 196.43 338.35 196.81 341.19 199.01 346.34 201.73 349.59 203.5 349.6 203.52 349.93 204.15 349.72 205.14 348.44 207.04 348.3 208.16 349.59 211.06 351.17 214.24 351.35 214.6 351.01 216.28 350.13 219.97 349.79 221.37 348.51 223.27 345.93 227.02 345.02 228.49 343.29 231.26 342.38 232.3 341.06 233.82 340.04 234.6 339.1 236.27 338.08 238.13 337.13 239.51 336.45 240.06 334.76 240.11 331.92 239.79 330.5 240.4 329.62 241.07 328.8 241.34 327.99 241.44 326.91 241.7 326.3 242.05 325.35 243.2 324.34 243.94 322.85 244.6 321.35 245.13 320.48 245.64 319.94 246.55 319.47 247.06 318.45 247.16 317.02 246.98 316.9 246.96 315.06 246.67 314.05 246.61 313.1 247.08 311.88 247.62 310.33 247.55 309.45 247.66 308.83 248.17 307.89 249.27 307.51 249.38 306.19 249.76 304.57 249.7 301.52 249.29 296.17 248.68 293.73 248.64 293.29 248.64 291.23 248.6 287.98 248.83 283.52 249.4 282.36 250.14 282.03 250.69 282.09 251.7 282.03 252.53 281.35 253.52 281.14 254.52 280.6 256.07 279.79 257.17 279.25 258.28 279.05 259.04 278.48 259.37 277.69 259.82 276.67 260.76 276.2 261.95 276 263.59 275.8 265.38 275.39 266.49 274.58 267.68 274.24 269.23 274.24 271.15 274.36 272.97 274.37 273.15 274.04 274.47 273.43 276.25 273.23 277.81 273.22 279.37 273.22 282.97 273.63 284.25 274.1 284.78 275.05 285.47 275.73 285.84 275.93 286.05 275.25 286.55 274.04 287.54 273.22 288.52 273.16 289.6 273.9 290.65 274.69 291.2 275.19 291.55 276.68 291.93 278.1 291.96 279.52 291.58 280.35 291.66 280.54 291.68 281.15 292.29 280.88 292.96 280.54 294.11 280.87 295.24 281.39 295.69 281.62 295.89 283.11 296.67 283.72 297.08 283.78 297.84 282.36 297.9 280.67 297.59 277.96 297.11 274.51 296.93 272.95 297.19 271.66 297.85 270.11 299.22 268.76 300.76 268.21 302.31 267.95 304.54 267.81 306.58 268.18 308.15 268.28 308.58 268.83 309.43 269.23 310.16 269.23 311.24 268.55 312.78 267.4 314.44 266.66 315.35 266.32 317.1 266.11 318.78 266.52 319.39 267.4 320 267.81 320.57 267.54 321.32 266.8 321.99 266.59 322.2 265.91 322.89 265.64 324.13 265.37 325.4 264.9 326.19 264.63 327.07 264.83 327.91 265.37 328.48 265.37 328.96 264.76 329.23 263.55 329.49 262.65 329.65 261.92 329.78 261.78 330.22 261.65 331.66 261.38 332.73 260.56 333.76 258.8 334.65 257.25 335.38 256.1 335.84 255.08 336.47 253.93 337.93 253.93 337.93 251.76 339.73 250.27 340.43 248.65 340.92 246.21 341.48 243.16 341.95 241.54 342.45 240.32 343.15 239.17 343.85 237.55 344.42 235.92 344.75 234.57 344.93 233.55 345.48 233.35 346.35 233.69 347.87 233.82 349.2 233.82 349.64 233.69 350.31 233.32 350.43 233.08 350.5 231.79 350.04 230.1 349.26 229.35 348.84 227.8 348.06 226.96 347.72 224.41 346.69 222.38 346.17 220.42 345.94 218.05 346.19 215.75 346.43 213.65 346.56 211.82 346.53 209.72 346.65 207.55 347.1 205.93 347.95 204.98 349.1 204.85 349.49 204.65 350.21 205.12 351.5 205.66 352.3 206.14 353.11 206.07 353.75 205.66 354.1 204.51 354.44 203.09 354.94 202.68 355.77 202.68 355.79 202.82 357.17 202.55 358.81 201.94 360.44 202.28 361.68 203.22 362.54 203.7 363.3 203.72 363.41 203.83 364.18 203.43 365.3 202.14 367.51 201.87 369.71 201.67 371.26 201.39 372.86 201.46 374.26 201.93 375.06 202 375.9 201.79 376.46 201.73 376.62 200.72 377.72 200.31 378.83 200.31 378.95 200.38 380.19 200.58 381.48 200.59 382.4 200.25 383.79 200.72 385.35 201.53 386.69 202.34 387.86 204.58 391.37 204.85 391.91 205.18 392.54 205.66 393.63 205.98 394.64 206.13 395.15 206.95 395.81 207.76 396.34 208.57 396.55 209.45 396.88 209.38 397.28 208.57 397.83 208.35 397.88 206.4 398.35 203.97 398.56 201.8 397.92 201.67 397.92 200.72 397.58 199.97 397.13 199.1 397.16 198.15 397.54 197 398.8 196.25 400.59 195.57 402.7 195.17 405.17 194.56 408.52 194.83 409.4 195.37 410.21 196.39 410.74 197.94 410.97 199.57 410.95 201.8 411.15 202.01 411.15 204.51 411.83 206.61 412.74 207.36 413.23 208.24 413.81 209.65 415.03 209.72 415.67 209.72 415.75 208.98 416.38 207.55 416.68 205.52 416.6 203.36 416.73 201.94 417.15 201.26 417.38 199.84 417.87 199.36 418.7 198.82 419.57 198.15 420.08 196.79 420.18 194.69 420.19 193.27 420.72 192.8 421.6 192.8 423 192.59 424.55 192.12 426.66 191.51 428.77 191.38 430.69 191.51 431.53 191.99 432.49 192.25 433.38 192.12 434.37 192.05 436.09 192.26 437.17 192.86 438.26 193.27 439.11 193.95 439.72 194.02 440.2 193.95 440.96 193 441.58 192.77 441.68 191.85 442.04 190.7 442.9 190.09 444.05 189.95 445.73 189.82 446.21 189.69 447.52 189.28 449 189.14 449.75 189.28 451.03 189.68 452.24 189.82 453.48 189.71 454.04 189.68 454.16 188.87 454.7 187.81 454.9 187.65 454.92 186.23 455.58 185.01 456.44 184.54 457.27 184.4 458.23 184.81 459.24 184.81 459.95 184.26 460.55 182.85 460.8 180.68 461.01 180.51 461.04 178.24 461.45 175.2 461.88 172.89 462.28 170.87 462.81 168.36 463.45 167.21 463.95 166.4 464.54 166.33 465.14 166.39 465.94 164.84 466.83 164.2 467.38 164.02 467.54 163.15 468.2 161.99 468.18 161.25 467.73 160.44 467.24 158.27 465.65 156.44 464.22 153.6 461.9 152.25 461.51 150.55 461.77 147.51 462.24 144.87 462.24 142.16 462.79 139.58 463.51 137.83 464.32 136.88 465.19 136.54 466.22 135.46 466.64 133.97 466.5 132.89 466.23 132.75 466.2 129.57 465.83 128.55 465.06 126.72 464.31 124.42 464.15 121.78 464.19 118.39 464.65 116.97 464.99 115.89 465.73 114.47 466.83 113.32 467.37 112.3 467.43 111.22 467.1 109.12 466.39 108.17 465.85 107.9 464.85 107.02 464.03 105.26 463.57 104.04 463.35 98.96 462.67 96.87 462.39 94.97 462.44 93.61 463.02 92.67 463.53 91.79 463.75 90.7 463.62 89.28 463.07 87.72 462.69 86.1 462.54 84.27 462.43 83.73 462.83 82.85 462.97 81.7 462.79 80.89 462.14 79.8 461.6 78.39 461.54 76.36 462.27 74.59 463.04 72.29 463.84 70.66 463.98 69.72 463.88 68.57 463.66 67.15 463.12 66.47 463.15 65.25 463.49 64.1 463.31 62.88 462.53 61.52 461.83 60.31 461.54 59.63 461.68 58.01 462.54 56.59 463.59 55.16 463.85 53.27 463.82 51.51 464.03 50.29 464.69 48.39 466.1 46.29 466.67 45.01 468.25 44.6 469.76 44.6 471.04 44.67 472.56 44.13 473.91 43.45 474.9 43.18 476.45 43.45 478.13 43.45 481.01 42.77 482.4 42.5 483.59 42.98 485.04 43.79 486.29 45.08 487.39 46.97 487.98 50.29 488.39 58.07 489.08 60.64 489.12 62.61 489.51 64.44 489.98 66.33 490.8 67.82 491.19 69.58 491.26 71.27 490.96 72.49 490.82 73.58 491.08 74.32 491.61 75.61 492.71 76.35 492.92 77.23 492.62 78.11 492.03 79.47 491.77 80.95 491.8 82.85 491.79 84.27 491.61 85.16 491.1 86.44 491.08 87.05 491.45 87.73 492.58 89.15 493.8 90.37 494.1 91.25 494.16 92.19 494.69 93.48 495.35 94.7 495.61 95.51 495.9 95.58 496.78 96.32 498.11 97.41 498.57 98.97 498.68 101.13 498.35 103.03 497.98 104.61 497.71 107.16 497.29 107.02 497.88 106.35 498.67 106.08 499.63 106.55 500.87 106.75 501.68 106.55 502.71 105.53 504.89 105.8 505.74 107.23 506.84 108.85 507.94 110.07 508.52 111.02 508.66 111.29 508.81 111.83 509.11 111.69 509.87 111.22 511.22 111.42 512.22 112.1 512.75 112.3 513.51 111.96 514.5 111.76 515.06 110.74 516.45 108.92 519.05 109.12 519.94 110 520.79 110.75 521.48 110.88 521.84 111.02 522.29 111.83 523.26 112.57 524.07 112.46 524.35 112.17 525.02 111.15 526.16 110.41 527.47 110.34 528.39 110 529.22 108.92 529.81 107.7 531.07 107.02 532.17 107.22 533.1 107.84 533.99 108.31 534.83 107.9 535.66 106.95 536.17 105.46 536.99 104.86 538.21 104.32 539.68 103.5 541.39 102.42 542.85 101.13 543.75 98.42 544.91 96.46 545.79 92.4 547.57 89.9 548.45 89.02 549.03 89.01 549.79 89.9 550.13 91.04 549.94 93.14 549.3 94.77 548.96 96.05 549.14 97.54 548.93 99.17 548.36 101.27 547.83 102.9 547.81 105.13 548.25 108.85 549.79 109.73 550.56 110.68 551.85 111.76 552.83 113.45 553.5 114.6 553.83 115.55 554.49 116.57 555.59 117.72 556.16 119.21 556.35 120.91 555.95 120.97 555.93 122.25 555.36 124.69 554.55 125.71 554.69 125.98 555.13 126.11 556.14 126.12 557.02 126.86 558.23 128.08 559.13 129.77 559.47 130.63 559.75 130.92 559.85 131.26 560.37 130.65 561.92 128.76 565.25 127.87 566.2 126.92 567.18 126.46 568.09 127.26 569.06 128.89 569.33 130.31 569.55 131.12 570.12 131.53 571.33 131.73 572.57 132.34 573.7 132.54 574.31 132.68 574.74 132.55 575.46 131.74 576.61 130.65 577.67 129.77 578.61 129.3 579.61 128.96 580.72 128.08 581.62 127.74 582.66 127.88 584.26 128.01 585.82 127.88 586.74 127.47 587.61 127.2 588.64 127.4 589.61 128.69 590.51 130.17 591.01 131.99 591.39 132 591.4 133.7 591.59 134.04 591.99 133.97 592.95 134.17 593.75 134.92 594.28 135.12 594.73 134.65 595.52 134.24 595.87 133.97 596.11 133.83 596.98 133.56 597.9 132.75 599 132.35 599.8 132.55 601 132.28 601.95 131.46 602.94 129.5 604.79 128.76 605.7 128.08 606.52 127 607.11 125.71 607.2 123.48 606.93 122.12 606.87 120.83 607.41 120.09 608.63 119.82 609.55 119.82 610.67 119.62 611.42 118.73 612.21 118.26 613.16 118.46 614.36 119.48 615.22 120.42 616.03 120.56 616.91 120.09 617.95 120.02 619.38 119.89 620.22 118.94 621.28 117.72 622.34 116.64 623.17 115.48 623.75 114.13 623.97 112.98 624.07 111.9 624.33 110.34 624.99 108.85 625.84 107.02 626.49 105.47 626.95 104.18 627.45 103.03 628.03 102.28 628.34 101.34 628.32 100.18 628.02 98.76 628.12 97.81 628.7 96.94 629.45 95.04 630.02 93.89 630.56 93.21 631.35 93.42 632.11 94.16 632.88 95.17 632.98 96.73 633.12 97.61 633.58 98.56 634.11 99.44 634.12 100.05 633.57 100.86 632.95 102.08 632.69 104.11 632.24 105.73 631.39 106.89 629.77 107.7 629.1 108.58 628.95 109.53 628.73 110.27 628.42 111.02 628.15 111.9 628.41 113.59 628.39 115.21 627.86 116.3 627.08 117.59 626.66 119.62 626.29 120.63 626.31 122.05 626.37 122.46 626.06 122.66 625.26 122.94 624.67 124.15 623.81 124.96 623.34 125.24 622.5 125.5 621.39 126.18 619.64 126.93 619.17 128.28 619 129.56 619.17 130.85 619.04 131.4 618.4 131.46 617.57 131.53 615.81 131.87 615.42 132.88 615.11 133.97 615.09 135.33 614.63 138.64 613.45 139.52 613.5 140 613.79 140.06 614.31 140.06 614.87 140.94 615.12 142.03 615.3 143.11 616.31 144.46 617.13 145.82 617.16 146.9 616.77 148.05 616.47 148.73 616.64 150.09 616.18 151.23 615.68 151.8 615.81 151.98 615.86 152.86 616.11 154.62 616.02 156.1 616.2 157.19 616.78 157.73 617.71 157.87 618.71 157.6 620.94 158.41 621.55 159.76 621.69 161.12 621.32 161.86 620.45 162.68 619.22 164.03 617.81 165.25 617.15 166.26 617.12 167.48 617.7 168.84 618.12 170.26 617.94 171 617.56 171.41 616.88 171.95 616.01 172.97 615.79 174.39 615.33 174.68 615.18 175.67 614.63 176.35 614.25 177.16 614.34 178.25 614.71 178.72 615.32 178.92 616.2 179.4 617.09 179.73 617.66 179.67 618.77 180.07 619.54 181.3 619.8 182.44 619.58 183.8 618.88 185.15 618.26 186.44 618.6 187.79 619.46 189.15 619.84 190.71 619.35 191.72 618.53 191.85 617.73 191.86 616.81 192.33 616.06 192.82 615.51 192.94 615.39 193.68 615.28 194.15 615.73 195.11 616.3 196.52 616.28 197.47 616.42 198.08 616.87 198.08 617.75 198.22 618.43 198.42 619.47 199.1 620 200.52 620.27 201.94 620.09 203.83 619.68 206.41 619.56 207.42 619.98 207.76 620.7 207.29 621.77 206.7 622.36 206.34 622.72 205.66 623.78 205.53 624.46 204.38 625.44 202.42 626.69 201.27 627.79 200.72 629.3 200.86 630.54 201.74 631.23 202.89 631.77 204.04 631.75 205.4 631.49 206.54 631.23 207.16 631.4 208.03 631.46 208.85 631.15 209.66 630.88 210.34 631.25 210.79 631.66 210.88 631.74 211.96 631.8 213.39 631.78 213.86 632.19 214.12 633.07 213.85 633.79 213.11 634.61 213.11 634.64 214.23 636.19 215.42 636.87 217.78 637.38 222.93 636.21 223.84 636.22 224.21 636.23 224.35 636.67 223.67 637.66 222.99 638.65 224.54 639.57 226.56 640.92 233.49 645.65 234.35 646.68 234.38 646.72 235.05 647.53 235.18 647.68 235.22 647.79 235.42 648.33 235.57 648.74 235.85 649.53 234.33 650.89 227.41 652.41 225.04 653.59 224.03 654.77 224.87 655.78 226.9 657.47 228.93 658.65 229.6 659.84 229.36 660.15 228.42 661.36 226.06 662.71 224.54 664.56 224.54 665.92 225.72 667.27 227.58 668.62 227.68 668.91 228.08 670.14 226.38 671.01 226.04 671.39 224.69 673.73 223.94 675.47 223.68 676.75 223.95 677.71 224.42 678.8 224.42 679.72 223.68 680.62 223 681.49 222.79 683.01 222.25 684.52 221.1 685.82 219.55 687.07 217.98 687.69 216.29 688.22 214.33 688.67 211.08 689.41 209.66 689.99 208.84 690.38 208.51 691.13 208.1 692.04 207.5 692.87 206.89 693.46 206.88 694.3 207.7 694.31 208.71 693.97 210 693.99 211.49 693.94 213.38 693.45 214.94 692.59 216.23 691.57 217.11 690.55 218.8 689.54 220.7 689.21 222.79 689.4 224.55 689.79 225.71 690.57 226.11 691.49 226.99 692.19 227.94 692.2 229.09 691.54 229.97 690.55 229.84 689.79 229.36 689.03 229.36 688.03 230.04 686.68 230.85 685.09 232.27 683.04 233.15 682.97 234.37 683.43 235.25 683.24 236.13 682.46 236.4 681.59 237.48 680.04 238.23 679.1 238.84 678.87 239.38 679.28 240.53 679.37 241.55 679.23 242.5 679.56 242.63 680.41 242.97 681.41 243.72 681.74 245.06 681.48 245.41 681.13 246.29 680.54 247.1 679.32 247.71 678.33 248.65 677.86 249.03 675.37 249.03 673.18 249.15 672.89 249.54 671.99 251.23 671.32 252.75 671.32 253.93 671.99 255.11 672.67 256.12 672.33 257.64 672.67 258.49 673.01 259.5 672.33 260.68 670.64 262.26 670.64 263.05 670.64 264.91 672.5 267.61 675.2 269.47 675.71 270.87 675.57 271.16 675.54 272.34 675.37 272.34 676.55 271.16 678.41 270.82 679.76 269.97 680.61 269.13 681.62 268.79 682.63 269.64 683.14 270.99 683.48 271.49 682.97 273.18 681.96 275.89 681.45 276.9 681.28 279.1 681.11 280.88 680.7 281.29 680.61 282.81 680.44 284.33 681.28 285.51 683.14 285.01 684.15 284.84 685.67 284.33 687.02 284.67 687.87 285.85 688.04 287.71 688.04 289.06 688.71 289.07 688.74 289.4 689.73 289.74 690.4 290.56 691.33 291.09 691.92 292.1 694.62 291.6 696.82 292.27 698.85 293.12 700.53 293.96 701.89 295.31 703.41 296.24 704.2 296.49 704.42 298.69 704.76 300.38 705.77 301.22 706.78 301.36 707.62 301.56 708.81 301.05 709.82 300.55 710.33 300.21 711.85 300.89 713.2 300.89 715.23 300.55 716.75 300.04 717.76 299.53 718.94 299.53 720.12 299.53 720.97 300.38 721.31 302.74 720.8 304.43 720.29 305.78 719.62 306.63 718.77 307.3 717.59 308.32 716.41 308.68 716.12 309.16 715.73 310.51 715.73 312.03 716.58 313.39 717.25 314.74 717.59 315.5 716.03 316.76 714.55 317.61 713.71 318.53 712.79 318.87 712.44 320.03 712.68 320.55 712.43 320.83 712.31 321.91 712.41 321.99 712.54 322.93 714.02 323.4 714.67 324.75 715.93 325.97 716.35 327.46 716.54 328.75 717.08 328.95 717.72 328.75 718.67 328.82 719.35 329.15 719.84 330.24 720.18 331.46 720.2 332.74 720.54 333.76 721.43 334.64 722.41 335.45 722.86 336.74 722.96 338.22 722.82 339.04 722.24 339.31 721.36 339.45 720 339.44 718.89 339.64 717.37 340.26 716.22 340.52 715.31 340.47 714.28 340.46 713.99 340.33 712.19 340.53 711.51 341.07 711.4 342.09 712.37 343.17 713.31 344.18 714.97 344.93 716.7 345.67 717.39 346.35 717.48 347.03 716.97 347.16 715.85 347.09 714.29 347.5 713.46 348.45 712.64 348.92 712.04 348.92 711.32 349.33 710.61 350.48 709.55 351.5 708.97 351.97 708.1 352.04 706.9 351.5 706.05 350.75 704.56 350.34 703.12 350.55 701.72 350.07 700.31 349.19 699.18 348.18 698.28 347.77 697.52 347.81 697.37 347.98 696.72 348.92 695.62 349.47 694.83 349.67 693.79 349.32 693.07 348.45 692.53 348.05 692.26 347.37 691.8 346.55 689.95 346.28 688.42 346.76 687.47 347.63 686.73 348.18 686.18 347.5 685.56 346.83 685.07 346.35 683.99 346.08 682.66 345.06 681.41 343.03 679.78 341.68 679.08 341.95 678.52 342.3 678.25 342.36 678.21 343.51 678.11 345.06 678.01 347.03 678.12 348.65 677.95 350.21 677.46 351.22 676.55 351.42 675.8 351.02 674.91 350.75 674.27 351.16 673.24 351.9 672.13 353.32 670.23 353.66 669.12 353.73 668.04 353.18 667.43 352.24 666.9 352.03 666.1 352.65 665.31 353.59 664.56 354 663.61 353.59 663 352.44 662.47 351.7 661.77 351.97 660.96 352.03 660.78 352.51 660.15 352.24 659.58 352.24 659.14 353.32 658.4 354.88 658.27 356.3 657.89 357.72 656.51 358.95 654.44 359.01 654.34 359.89 653.19 360.77 652.89 362.26 653.75 365.03 654.32 366.05 655.34 366.73 656.46 367.47 657.95 368.15 658.62 369.5 658.96 371.06 658.89 372.35 658.79 372.82 658.22 373.29 657.1 374.24 655.92 374.72 655.31 376.75 655.2 378.3 655.17 379.86 654.9 380.61 654.22 380.74 653.04 379.86 651.92 378.64 650.2 377.97 649.05 377.49 647.62 377.9 646.85 377.97 646.2 378.57 646.07 380.33 646.51 381.96 646.41 382.91 645.9 384.58 645.13 384.6 645.12 385.48 644.44 385.87 644.09 385.89 644.07 386.43 644.24 386.63 645.09 386.83 646.54 387.65 647.86 389 648.74 390.34 649.08 390.9 649.21 392.86 649.49 394.62 649.42 396.45 649.21 398.14 648.94 399.31 648.68 399.36 648.67 400.44 648.77 400.17 649.65 399.63 650.03 399.56 650.57 399.97 651.21 398.61 652.67 397.06 653.75 394.82 655.41 393 656.56 392.25 657.44 392.18 658.22 392.79 659.2 393.6 660.11 395.36 660.48 396.72 660.35 397.46 660.25 398.61 660.48 399.53 661.11 399.56 661.13 399.56 662.08 399.16 663.43 398.28 664.44 397.19 665.26 396.92 665.93 397.19 667.08 397.06 667.59 396.52 668.03 396.04 668.61 396.45 669.32 397.67 670.03 398.75 670.4 399.7 670.6 400.92 670.5 402.54 670.26 403.76 669.25 404.23 668.13 405.05 667.69 405.99 668 407.28 667.69 408.3 666.98 410.06 667.18 411.14 667.73 412.15 666.91 413.91 666.03 415.2 664.38 416.42 663.56 418.04 662.72 419.4 661.6 421.97 660.48 422 660.48 423.19 660.35 424.48 659.91 426.24 659.23 428.27 658.99 429.28 659.06 430.23 659.6 429.28 660.28 428 660.42 426.3 660.96 425.29 661.63 425.15 662.31 425.02 663.12 423.87 663.8 421.97 665.02 421.16 666.27 421.02 667.46 421.43 668.71 422.04 669.22 422.04 670.09 421.09 670.7 419.74 671.45 418.99 672.53 419.06 673.82 419.47 675.34 419.6 676.36 418.79 677.17 416.89 676.83 414.8 676.56 412.49 676.93 411 677.78 409.72 678.72 409.04 680.01 407.96 680.65 406.47 681.43 404.3 682.79 401.59 684.44 400.78 685.93 399.77 687.46 399.09 689.01 398.34 690.4 398.48 691.52 399.9 692.36 401.86 692.36 403.42 692.73 404.71 693.72 405.18 694.8 405.66 695.48 404.44 696.09 403.49 696.49 402.81 697.41 402.61 698.49 401.19 699.5 399.56 700.25 399.63 701.57 400.17 703.12 399.77 704.75 399.29 705.73 399.29 707.08 399.63 707.56 401.66 707.63 403.9 707.63 405.59 707.39 405.99 707.79 405.99 708.1 405.99 709.05 405.18 711.04 404.91 712.67 404.91 714.22 404.03 714.94 403.02 714.9 401.93 715.61 401.86 716.73 402.14 717.17 401.87 718.01 402.34 718.89 403.9 719.23 404.78 720.01 405.86 720.86 406.81 721.09 408.23 721.4 408.91 722.18 409 723.35 409.04 723.84 408.7 724.95 407.42 725.73 405.59 726.27 403.96 726.31 402.2 726.78 400.85 727.59 400.58 728.88 401.93 729.86 403.76 730.74 405.72 731.75 407.62 732.5 409.92 732.63 412.83 732.5 415.47 732.26 416.89 732.57 417.15 732.85 417.57 733.34 418.32 734.7 419.6 735.61 420.07 735.88 420.82 736.32 420.62 737.51 419.2 739.2 418.86 740.18 419.74 741.33 421.77 741.74 421.78 741.75 422.51 742.18 421.9 743.29 420.15 744.04 418.32 744.61 416.49 745.36 415.41 745.97 413.04 747.25 411.89 748.57 410.19 749.72 408.3 750.67 406.6 751.45 405.39 751.89 404.03 752.06 403.76 752.6 405.39 753.45 407.08 754.53 407.35 755.21 407.69 756.86 407.28 757.88 406.88 759.3 406.47 760.32 406.81 760.99 407.42 761.26 408.84 760.25 410.06 758.79 411.41 757.44 412.29 756.22 413.38 755.65 414.73 755.24 415.21 755.41 415.61 755.54 415.95 756.39 415.41 757.54 414.59 760.01 415 761.6 415.75 763.53 416.02 764.31 415.88 765.6 415.47 766.75 415.74 767.8 417.03 768.51 419.33 768.71 421.3 768.64 423.06 767.52 424.55 767.08 426.04 767.36 426.17 767.67 426.44 768.34 425.16 769.18 423.87 769.76 423.46 770.81 422.31 771.92 421.03 772.67 419.13 773.21 418.18 773.79 417.1 774.8 417.17 775.88 417.03 776.8 416.56 777.54 414.8 777.85 413.17 777.95 412.29 778.73 411.75 779.81 411.48 780.62 412.16 781.3 413.85 781.57 414.86 781.7 414.83 782.21 414.8 782.82 413.98 783.8 412.63 785.83 412.02 787.15 412.16 787.9 413.85 789.39 414.73 790.57 415.61 791.42 416.22 792.3 416.15 793.08 414.32 793.31 411.89 793.28 410.33 794.06 409.72 795.41 409.72 795.42 409.65 797.03 408.57 797.61 406.88 798.39 405.86 799.5 404.71 800.18 403.09 800.45 402.14 801.13 401.66 801.94 401.94 803.09 401.19 804.34 400.92 805.22 400.04 805.73 398.35 805.7 397.13 805.66 395.37 806.17 394.28 806.78 394.35 807.8 395.64 808.74 396.04 809.66 395.77 810.88 395.44 811.72 394.56 812.67 393.68 814.09 393.07 815 391.71 815.04 390.36 815.24 389 816.02 387.58 815.51 386.16 815.21 384.74 816.29 383.86 817.44 382.17 817.81 379.59 817.91 377.29 817.85 376.21 818.83 375.46 820.39 375.12 821.3 375.6 822.55 374.79 823.63 371.67 824.68 369.78 824.78 368.02 825.16 366.73 826.31 365.1 827.56 364.9 828.95 365.72 830.06 364.9 831.86 362.27 832.79 359.89 834.31 358.2 835.25 356.37 835.9 354.28 836.9 352.85 837.8 352.18 839.23 352.04 840.5 353.33 841.48 354.88 842.03 356.91 842.82 358.54 843.24 360.57 843.48 362.26 843.26 363.48 842.96 366.05 842.92 366.6 843.57 367.2 843.94 366.46 845.26 364.16 846.41 362.26 847.56 360.5 848.59 359.02 849.21 357.45 849.34 355.42 850.15 352.78 851.5 350.76 852.79 349.19 854.12 348.25 855.23 348.25 856.31 348.66 856.87 350.08 856.82 352.58 856.58 354.81 856.53 356.5 856.12 358 855.87 358.81 856.12 359.42 856.33 360.37 855.9 361.11 855.56 362.26 855.57 365.04 855.55 366.05 854.8 365.78 853.86 366.46 852.81 368.15 851.66 369.37 851.05 371.6 850.91 372.28 850.4 371.88 848.75 373.3 848.17 373.3 846.92 374.04 845.83 375.06 844.38 376.82 843.33 378.78 842.18 381.15 841.5 381.76 840.32 381.76 839.61 382.44 838.69 383.32 838.69 384.6 838.29 384.33 837.34 384.33 835.72 384.33 833.72 385.08 832.26 386.03 831.82 387.31 831.79 388.46 831.69 390.49 831.99 391.04 831.42 391.64 830 392.73 828.1 394.35 827.97 396.52 827.69 396.92 826.98 398.62 826.92 399.57 826.24 399.57 825.09 399.43 823.53 399.57 822.45 401.19 822.08 403.29 822.25 404.91 822.14 405.86 821.27 407.89 819.78 409.11 818.96 409.12 818.97 409.99 819.54 411.28 820.62 412.63 822.38 413.85 823.36 415.2 823.36 416.63 823.33 417.54 823.62 417.57 823.63 418.32 824.72 418.59 826.31 418.45 827.49 419.47 827.63 420.28 827.09 420.76 825.09 422.31 823.4 422.99 821.91 423.3 821.84 424.41 821.57 424.82 822.31 425.56 822.99 426.44 822.75 426.85 821.98 427.46 820.86 428.88 819.44 430.17 819.17 432.13 819.51 433.14 820.25 433.14 820.25 434.16 821.23 434.7 822.14 434.43 823.8 434.3 825.02 435.92 825.56 436.6 825.66 438.02 825.29 438.84 825.29 439.85 825.29 439.92 826.1 439.31 827.25 438.16 828.74 436.87 830.37 437.14 831.86 438.02 833.14 438.43 834.5 438.9 835.58 439.92 836.7 441.4 838.05 442.89 838.29 443.84 838.05 443.84 836.6 443.84 834.63 443.3 832.5 444.59 830.71 445.26 829.05 444.72 826.85 445.4 824.41 446.55 822.18 447.56 820.25 449.46 819.78 449.5 819.78 450.88 819.81 451.29 820.66 452.44 822.21 453.59 823.57 455.01 825.43 456.03 825.05 456.98 824.34 457.99 822.99 458.87 821.5 459.14 818.9 459.07 817.78 458.74 815.82 459.55 813.79 460.29 813.35 461.72 813.14 462.59 813.75 463.95 814.56 465.85 815.48 467.61 815.27 467.54 814.26 467.27 812.4 466.72 810.71 466.59 808.95 465.64 807.52 466.18 806.54 467.27 805.49 468.76 805.7 470.11 806.37 471.46 806 472.41 805.36 473.56 805.39 474.58 805.66 476.41 806.41 477.15 805.97 477.15 805.29 476.88 804.17 476.68 802.85 477.34 802 477.35 801.97 478.84 801.47 480.2 801.7 481.82 802.52 483.72 802.79 484.53 802.04 485.55 801.06 486.49 800.18 486.97 799.3 486.97 799.29 486.97 798.42 487.64 797.81 489 798.12 490.01 798.9 491.1 799.33 491.84 798.56 491.84 797.85 493.26 796.76 494.93 795.83 494.96 795.82 497.12 796.12 498.54 796.83 499.42 797.1 500.57 796.53 502 796.49 503.42 796.63 504.3 796.59 505.65 796.15 506.47 796.02 508.16 795.38 508.09 794.7 506.74 794.16 504.77 793.65 502.81 792.74 501.59 791.58 500.98 790.54 500.1 789.32 499.15 789.28 497.66 789.86 495.9 789.93 495.02 789.66 494.48 789.35 493.74 788.23 493.26 786.34 492.11 784.71 490.76 784.51 489 785.26 485.95 785.97 484.12 786.1 483.04 786.03 481.69 785.26 480.47 784.65 478.17 784.41 476.41 784.65 474.98 785.26 473.36 785.16 471.6 784.75 470.18 785.05 468.69 785.97 467 787.02 464.96 786.78 464.49 785.9 465.71 784.95 467.54 783.02 470.58 780.21 471.46 779 471.67 777.78 472.41 776.53 472.41 775.68 471.67 775.21 470.45 775.41 469.03 775.48 467.67 775.34 466.32 774.87 465.98 774.29 467.27 773.78 467.74 773.24 467.6 772.91 467.06 772.16 466.18 770.98 465.91 769.72 465.03 768 464.69 766.58 463.27 765.9 461.98 765.56 459.28 765.87 458.13 765.53 458.73 764.95 460.43 763.84 459.75 763.46 458.8 763.33 457.72 763.33 457.11 762.65 457.45 761.84 457.46 761.83 457.72 761.43 459.14 760.92 460.16 760.25 462.12 759.94 463.75 760.45 464.69 760.79 465.64 760.55 466.86 759.77 467.6 758.66 468.21 756.83 468.42 754.87 467.54 753.41 467.54 751.65 467.87 749.66 468.28 748.13 467.94 746.54 467.06 745.09 467.06 743.06 467.6 741.36 467.62 741.36 468.42 741.36 468.69 743.33 469.97 745.22 470.31 746.71 472.41 747.52 473.15 748.81 473.7 749.55 473.83 750.81 473.7 751.04 474.1 752.8 474.98 753.34 474.98 754.53 474.85 755.58 475.93 756.86 476.4 757.41 477.96 758.72 479.45 759.77 481.14 760.45 482.16 760.89 482.97 760.99 483.72 760.45 484.39 759.23 485.34 758.15 486.02 758.18 485.82 759.27 485.88 759.74 486.76 759.98 487.98 760.25 488.39 760.59 488.39 761.23 487.44 762.45 487.58 764.04 488.52 764.44 490.28 764.75 491.57 764.85 492.99 764.51 493.33 762.85 494.68 760.62 494.96 756.25 494.75 754.87 494.41 753.65 493.6 752.87 491.57 752.26 491.16 751.58 491.3 751.04 492.45 749.55 493.74 748.64 494.21 747.12 494.28 745.97 493.74 745.22 492.79 743.66 491.98 742.18 490.76 740.72 489.06 739.54 487.17 737.64 485.14 736.05 484.39 734.97 484.46 733.48 484.12 732.02 483.92 730.54 483.45 729.18 484.46 728.91 485.44 729.12 486.22 729.28 487.71 729.89 489.67 731.31 491.16 732.4 493.33 732.97 494.28 732.94 494.96 732.57 495.16 731.72 494.68 730.13 494.01 729.35 493.6 728.2 494.41 727.18 495.29 726.37 495.84 724.95 495.83 723.56 494.68 721.36 494.41 720.15 494.21 718.52 494.28 716.66 492.99 714.87 490.55 713.44 491.03 711.89 491.7 711.58 493.12 712.09 493.13 712.09 494.95 712.87 496.51 713.65 498.41 714.32 499.69 714.36 500.51 714.12 502 712.67 503.89 710.2 504.17 709.98 505.52 708.94 506.13 709.25 506.26 710.06 505.72 711.38 505.24 712.8 504.57 714.39 504.7 715.71 504.97 716.59 504.57 718.39 504.84 719.91 504.57 721.57 505.11 722.82 505.99 723.7 506.46 724.78 506.4 726.14 506.53 727.66 507.14 728.74 507.82 730.5 508.16 732.19 507.89 733.85 507.68 735.37 507.89 737.27 508.7 739.13 509.92 740.89 511.61 742.31 512.56 742.95 513.23 743.09 513.64 742.41 513.84 741.53 514.18 739.74 515.13 738.42 516.82 737.13 518.45 736.29 519.53 735 519.67 733.68 519.12 731.96 519.53 730.37 520.41 729.72 521.15 728.37 521.7 726.47 521.7 725.46 521.43 724.27 520.95 723.39 519.87 722.65 520.41 721.09 521.63 720.01 521.9 718.86 521.36 717.74 521.36 716.79 522.17 715.85 523.05 715.17 523.25 714.05 522.78 713.04 522.51 711.52 522.37 710.3 523.12 709.04 523.05 707.59 522.85 705.86 522.51 703.97 522.37 702.31 521.7 700.55 521.02 699.23 520 697.27 519.53 695.91 519.6 694.83 519.39 693.48 519.12 692.29 518.51 690.26 518.85 688.47 518.72 687.49 518.38 686.51 518.58 684.75 518.81 684.4 519.33 683.63 520.41 682.82 520.95 682.95 521.15 684.14 521.9 685.25 522.85 687.15 523.59 688.81 524.2 690.09 526.1 689.99 527.32 690.16 527.31 690.18 527.11 690.8 526.37 691.85 525.96 693.07 526.1 694.19 527.11 695.24 527.59 696.05 528.53 697.37 529.14 698.55 530.22 699.43 530.23 699.43 531.24 700.31 533.41 700.96 535.03 701.23 535.24 701.77 534.29 702.34 533.34 703.19 531.99 704.37 531.99 705.49 532.39 706.27 533.07 707.05 533.95 707.83 535.3 708.23 536.25 708.23 537.4 707.86 538.96 707.05 539.97 707.52 540.11 708.16 539.23 709.04 537.94 710.16 536.73 711.65 535.98 712.56 536.39 713.68 536.18 714.76 536.66 715.95 536.46 716.83 536.86 717.2 537.88 717.51 539.64 717.67 541.53 717.27 543.09 716.79 545.12 716.42 546.88 716.52 546.95 716.52 547.29 717.13 546.41 717.74 545.32 718.52 544.44 719.74 543.63 721.09 542.28 722.65 542.41 723.66 540.86 723.97 539.23 724.61 537.4 725.9 536.79 727.15 537.67 728.23 537.13 729.25 536.66 730.5 537.27 731.48 538.15 732.9 540.72 733.95 541.32 734.27 542.55 734.93 542.95 735.58 542.55 736.42 541.33 736.66 539.23 737.88 536.86 739.1 535.37 739.91 534.83 741.4 534.22 742.95 533.68 744.04 533.27 745.63 533.34 746.95 534.29 747.49 535.98 747.69 537.13 747.32 538.28 747.62 539.57 748.27 540.79 748.17 542.55 747.73 544.17 747.15 545.12 746.47 546.48 746.24 547.63 746.27 548.23 746.71 548.37 746.81 548.1 747.83 546.54 748.3 544.51 750.23 542.28 752.67 541.06 753.38 539.1 754.36 537.67 756.66 535.64 758.12 535.24 759.33 535.1 760.55 535.37 761.63 534.83 762.28 534.43 762.45 534.29 763.63 534.42 764.78 534.97 766 535.51 766.85 535.37 768.27 535.58 768.94 536.25 768.98 536.86 768.4 537.61 767.62 537.67 766.17 537.95 765.19 538.28 764.51 538.76 762.85 539.71 763.06 540.25 762.92 541.06 762.21 542.14 761.57 543.29 761.57 543.97 761.19 545.8 761.53 546.27 762.28 546.21 762.38 547.09 763.6 547.42 763.56 547.83 762.92 548.17 762.04 548.1 760.92 548.1 760.25 548.78 758.99 548.79 758.99 549.52 758.69 551.21 759.2 552.1 759.87 552.7 760.21 553.65 760.04 554.26 759.6 554.8 758.49 555.21 757.64 555.82 756.59 556.77 756.63 557.65 756.59 558.39 756.15 558.66 755.81 560.49 755.2 560.54 755.38 560.76 756.08 559.95 757.13 559 758.35 558.8 759.98 558.26 761.67 558.46 763.33 559.27 764.75 559.81 765.02 560.83 764.41 561.91 762.95 563.06 762.62 564.55 762.72 565.91 761.7 567.6 761.63 568.68 761.46 569.7 760.28 571.05 759.1 571.6 758.57 571.93 758.25 573.56 757.91 574.71 758.35 575.79 758.49 576.74 758.52 577.42 758.01 577.42 757.24 577.55 755.98 576.74 754.15 576.06 753.34 574.71 752.73 574.64 751.92 575.66 751.58 576.81 751.04 577.28 749.79 577.82 748.13 577.69 746.24 578.77 744.27 579.51 745.63 579.55 745.66 580.39 746.54 580.94 747.89 582.09 748.98 583.04 749.72 583.98 750.26 585.4 750.33 586.08 750.91 585.95 752.43 586.22 753.55 586.76 753.95 588.52 753 590.08 751.62 591.02 750.3 591.02 749.28 590.55 748.27 590.55 746.98 591.84 746.17 593.33 745.29 593.66 744.48 593.8 743.56 592.99 742.51 591.36 742.04 590.35 741.23 590.35 740.18 591.63 739.2 594.41 738.08 598.4 736.46 598.81 734.97 597.86 733.92 596.51 733.14 594.54 732.36 592.11 731.45 591.5 730.57 591.63 729.52 592.24 728.67 592.64 728.33 593.33 727.76 594.48 728.1 595.76 727.86 597.12 727.62 597.79 726.95 597.86 725.49 598.34 723.83 598.33 722.17 598.33 721.19 597.66 720.28 597.79 719.36 599.35 718.15 600.23 717.94 601.27 718.53 601.38 718.59 601.52 719.7 602.53 720.65 603.95 721.09 605.04 721.16 606.66 721.16 606.66 721.6 606.12 722.68 605.78 724.27 606.66 725.22 608.69 725.46 610.05 725.22 611.2 724.54 612.62 723.16 613.09 722.04 613.84 720.62 615.53 718.38 616.61 717.71 616.61 717.06 616.61 716.12 617.49 715 617.49 713.92 617.09 712.73 617.62 711.79 617.63 711.78 619.39 711.48 620.34 711.92 621.76 711.75 622.37 711.55 623.65 711.99 625.55 711.48 627.58 710.13 630.09 709.21 630.63 708.3 629.75 707.32 628.12 706.71 626.63 706.23 626.23 705.08 625.48 704.37 624.06 703.93 623.79 702.99 624.33 702 623.79 700.21 622.71 698.99 622.23 698.04 621.29 697.37 619.32 697.06 618.1 697.2 617.49 696.32 616.75 694.76 615.94 693.21 614.79 692.02 612.42 690.8 609.91 689.96 608.62 688.67 608.62 687.76 608.69 687.76 609.57 687.86 611.06 688.16 612.35 688.3 613.9 688.5 614.79 688.47 615.67 687.49 615.74 687.46 616.4 687.25 616.41 687.25 617.22 687.45 617.97 687.69 618.71 688.74 619.52 689.72 621.08 689.72 621.96 690.4 623.25 690.94 624.53 691.34 625.96 691.72 627.65 691.61 629.95 691.85 629.98 691.88 630.76 692.49 631.85 692.7 633.27 692.8 634.22 693.54 635.57 693.54 636.18 692.63 636.38 690.87 637.87 690.16 638.35 689.14 638.62 687.52 639.02 686.4 639.29 685.19 638.89 684.07 638.68 683.36 638.69 683.36 640.24 683.36 641.19 682.95 642.81 682.75 643.08 683.36 642.95 684.2 642.34 685.22 642.34 686.77 643.63 687.35 644.78 687.52 644.98 688.2 645.59 689.04 646.81 689.38 648.03 689.04 649.18 688.23 651.01 687.42 653.78 686.06 655.81 684.3 657.17 682.51 657.64 680.51 657.64 678.82 656.69 677.1 655.95 674.56 655.81 671.17 655.47 668.2 655.07 666.98 654.05 665.69 653.92 664.47 653.85 663.15 652.9 662.17 651.75 660.85 651.48 659.94 650.6 658.96 649.38 658.89 648.16 658.65 648.23 657.82 648.23 657.81 648.64 656.79 648.97 655.78 648.91 654.25 648.03 652.83 645.93 652.36 644.51 652.33 642.34 652.29 641.59 651.31 640.92 650.36 640.04 650.36 638.89 650.06 638.34 648.81 635.64 647.08 634.21 645.46 632.73 645.35 633.33 644.54 632.93 643.39 632.05 641.9 632.79 641.06 634.15 641.53 634.89 641.9 636.79 642.31 638.41 643.05 639.77 643.05 641.59 642.04 642.34 643.09 643.62 643.66 644.98 643.56 646.81 642.95 648.43 642.04 649.38 640.24 649.79 638.89 649.38 637.84 648.5 636.76 648.23 635.61 648.02 633.98 648.43 632.59 648.97 631.17 649.38 629.72 649.38 627.76 648.63 626.06 648.5 625.01 648.7 623.32 650.06 621.93 651.55 620.48 653.24 619.19 654.66 617.5 655.95 616.69 656.22 617.43 656.76 619.29 656.42 621.43 656.42 621.43 657.3 622.75 657.84 624.17 657.64 626 656.15 626.91 654.46 627.55 653.64 628.47 653.64 629.75 653.37 631.44 653.58 633.03 655 634.66 657.37 635.95 660.69 637.03 662.04 637.74 663.46 638.82 665.09 639.3 666.44 639.46 667.25 641.12 668.74 641.8 670.1 641.87 671.04 642.61 671.65 643.59 672.47 644.37 674.5 644.57 675.92 644.34 676.6 643.32 676.87 642.41 678.36 642 679.84 642.21 679.85 642.21 681.88 642.48 682.22 643.39 682.22 644.78 683.37 644.81 684.99 644.88 686.62 644.17 687.23 642.98 688.92 642.71 690.61 642.61 691.83 641.93 692.3 641.05 691.56 640.14 692.3 639.43 693.72 639.77 693.75 639.76 695.35 639.46 697.24 639.29 698.6 639.19 700.02 639.13 700.77 638.58 701.31 637.23 701.51 636.25 701.24 634.59 700.76 632.83 700.76 632.19 699.75 631.07 699.35 630.51 699.34 630.5 700.76 630.36 702.19 629.89 703.74 629.01 705.03 627.99 707.74 627.28 707.99 627.46 708.48 627.82 708.08 628.84 706.93 629.85 707.26 631.14 709.3 632.49 713.02 634.32 718.71 638.21 720.13 638.35 722.29 638.18 722.9 638.96 722.97 640.07 723.78 640.72 724.73 640.78 726.56 640.48 728.18 639.67 730.15 638.38 732.45 636.92 733.33 636.82 734.89 635.98 735.56 636.35 735.16 637.53 733.87 638.99 733.53 640.44 733.87 641.56 734.34 643.12 735.43 643.86 736.85 643.76 737.46 643.29 738.61 642.85 741.05 643.05 742.94 642.68 744.03 641.36 745.45 641.12 747.55 640.51 750.05 640.04 752.29 640.68 757.7 640.82 763.32 640.99 766.84 641.22 768.6 640.88 768.74 640.11 769.13 639.03 769.14 638.99 770.16 638.79 771.31 639.53 772.26 640.51 773.41 641.63 775.51 642.34 777.74 642.17 781.8 641.63 785.53 641.46 788.17 641.59 790.33 641.49 791.21 642.37 793.58 643.12 795.68 643.96 797.71 645.49 798.86 646.94 799 649.04 798.73 651.65 798.26 653.37 799 656.55 796.9 655.67 795.89 654.69 795.55 653.34 795.21 651.14 794.87 649.95 795.21 648.3 794.73 646.74 793.99 645.96 792.3 645.96 790.61 646.16 787.49 646.13 783.77 646.47 779.7 646.74 776.32 647.35 773.19 647.83 772.6 647.92 770.29 648.26 768.74 649.11 767.25 649.55 766.16 650.87 765.56 653 765.56 654.33 765.56 654.35 764.4 655.1 763.32 654.83 762.17 654.35 759.73 654.08 756.69 653.81 754.93 654.25 752.76 654.76 750.73 655.77 749.04 656.55 748.09 657.57 747.63 658.85 747.61 658.89 747.75 660.65 747.89 662.34 747.61 662.48 746.4 661.8 744.57 661.12 742.94 660.48 740.57 659.9 738.75 660.11 736.17 660.61 736.14 660.61 735.16 660.48 735.16 659.53 734.62 658.48 734.07 658.11 732.99 657.77 731.16 657.57 728.59 657.4 726.02 657.64 723.04 658.35 720.4 659.26 718.17 660.38 717.83 661.73 717.76 662.71 717.42 663.49 716.34 663.56 716 664.07 714.44 663.9 714.1 663.12 713.63 662.04 712.21 661.56 710.85 662.14 708.42 663.42 707.6 664.3 706.11 664.64 704.49 665.22 702.86 665.93 701.44 667.42 701.44 668.57 702.19 669.58 701.85 670.23 700.49 671.14 699.01 671.55 696.77 671.34 694.61 671.58 693.93 672.66 693.93 673.91 694.88 675.13 695.62 676.55 696.03 677.74 695.55 678.45 695.58 678.53 696.03 679.77 695.35 680.62 694.13 681.09 692.78 681.22 692.03 682 692.51 683.15 693.79 683.9 695.15 684.85 696.09 686.06 695.82 687.32 696.7 688.7 697.92 689.18 699.48 689.82 699.54 689.84 701.04 690.33 701.31 691.07 700.09 691.14 699.07 691.31 698.94 692.12 697.79 692.56 696.77 692.46 695.82 692.16 693.93 691.72 691.36 690.77 688.78 690.23 687.02 690.63 685.6 691.07 683.91 691.24 682.15 691.72 681.81 692.46 681.34 693.92 682.01 694.86 682.89 695.57 683.64 698.08 684.11 699.09 684.12 699.1 685.06 700.28 684.99 700.95 683.64 701.5 682.22 702.07 681.54 702.51 680.32 703.56 680.73 704.54 681.74 704.88 683.03 705.76 684.38 707.38 685.44 708.54 685.47 708.57 684.99 709.25 682.62 709.48 680.19 709.65 678.49 710.36 678.09 711.89 678.15 713.58 679.17 714.86 680.79 716.49 682.15 717.3 682.69 718.14 682.69 718.15 682.01 718.92 680.66 719.63 678.7 720.28 677.61 720.68 677.27 721.23 677.27 722.68 677.48 724.3 677.55 725.12 676.73 725.32 675.92 725.86 676.39 726.67 676.87 727.66 678.09 728.6 679.31 729.25 679.17 730.19 678.63 730.87 677.07 731.85 675.92 732.97 674.97 733.31 673.89 733.38 673.08 734.25 672.94 735.47 673.28 736.01 673.08 736.56 671.86 737.27 672.06 738.21 671.52 739.77 672.87 741.02 673.62 741.33 675.79 741.77 678.09 741.6 680.32 741.46 682.08 740.99 683.37 740.21 685.26 739.3 687.63 738.69 690.21 738.15 693.05 737.88 693.93 738.28 692.91 739.06 691.36 740.08 689.26 741.19 687.36 742.95 686.89 744.58 686.96 746.13 688.38 747.76 689.46 749.45 689.46 750.4 688.45 750.67 686.41 750.6 684.04 750.57 681.74 749.96 679.44 749.99 678.16 750.77 676.87 751.38 676.67 752.6 676.19 753.78 675.65 754.63 675.92 755.78 676.87 756.69 678.43 757.74 679.92 758.52 680.32 759.6 680.19 760.85 680.8 761.87 683.23 762.88 685.06 763.56 686.48 764.2 687.95 765.42 688.04 765.49 687.63 766.17 687.02 766.61 685.74 766.44 684.59 765.69 683.17 765.12 681.47 765.05 680.05 765.29 678.63 765.49 677.48 765.22 676.19 765.25 675.18 765.59 674.23 766.44 673.08 767.62 672.4 767.89 672.06 766.95 672.33 765.8 672.2 764.71 671.52 763.63 670.3 762.95 668.88 763.02 667.86 763.12 666.38 762.68 665.9 762.61 664.95 761.7 663.94 761.06 663.19 759.94 662.04 760.08 660.35 760.58 658.52 761.26 658.32 762.24 658.73 763.26 658.18 764.2 658.45 765.08 659.27 765.59 659.47 766.68 659.74 767.69 659.74 768.61 659.74 768.64 660.15 769.52 659.94 770.06 659.34 770.09 658.66 769.75 658.05 769.15 656.42 769.11 654.32 768.64 652.43 768.23 651.62 768.33 651.48 769.01 651.28 770.47 649.59 771.21 647.83 771.89 645.93 772.94 645.32 774.29 646.34 775.78 647.01 776.9 648.5 778.15 649.38 778.96 649.38 780.52 648.98 781.12 648.64 781.63 648.91 782.61 649.92 783.39 650.47 783.97 648.23 784.21 645.93 784.37 644.24 784 642.61 784.48 640.45 784.88 639.09 785.66 639.36 787.22 640.51 787.86 641.26 789.08 641.46 790.2 641.49 790.22 642.82 791.28 643.9 792.36 643.56 793.21 642.34 793.07 641.46 793.31 639.36 793.85 637.33 793.78 634.76 793.71 632.53 793.58 630.22 796.08 629.75 797.34 629.61 798.39 630.21 800.19 630.22 800.21 630.09 801.3 628.8 801.09 627.65 800.69 626.91 800.08 625.48 798.59 623.93 797.64 622.37 797.03 621.08 796.9 619.32 797.13 617.9 797.81 616.82 798.15 614.65 798.83 614.25 799.81 615.4 800.69 617.23 802.99 618.17 803.87 617.97 804.23 617.97 804.24 616.62 804.54 614.92 804.71 613.3 804.92 611.67 805.43 610.93 806.1 609.64 806.2 608.69 806.34 608.83 807.32 609.51 808.3 608.97 808.91 608.15 808.91 606.53 809.32 605.38 810.13 605.24 810.74 606.06 812.09 606.93 813.34 606.7 814.7 606.66 814.93 606.53 815.58 605.58 815.88 604.77 815.92 603.96 815.81 601.79 815.88 599.28 816.22 598.4 817.4 597.79 818.42 598.2 819.84 598.81 820.99 599.28 821.67 598.07 822.07 597.8 822.68 595.76 823.09 593.33 822.82 591.3 822.89 590.55 823.73 590.35 825.05 590.08 825.83 588.65 826.54 587.78 827.02 587.37 827.59 586.49 827.93 585.61 828.81 586.35 829.42 588.38 829.62 589.87 829.93 592.18 829.42 593.33 828.67 594.75 828.44 596.78 828.57 598.4 828 599.35 827.76 600.37 828.61 601.79 829.25 603.96 829.35 606.26 829.01 607.95 828.81 609.3 828.84 610.52 828.67 610.87 828.77 611.27 828.88 610.12 829.99 608.36 830.98 606.26 832.53 605.78 833.62 605.73 833.64 604.7 834.09 602.74 833.99 600.64 834.26 597.86 835.04 595.63 836.56 594.82 838.08 594.14 839.3 593.74 839.62 592.99 840.21 591.77 840.45 590.08 840.01 587.91 840.21 587.1 840.82 585.27 841.2 584.46 841.13 581.68 841.7 580.46 842.58 578.97 843.29 577.69 843.33 576.4 843.87 576.06 844.75 575.39 845.87 574.98 847.63 574.78 851.42 575.53 852.42 575.59 852.5 575.12 853.07 573.97 853.01 572.95 852.67 571.39 852.16 569.63 852.06 568.21 851.75 567.26 850.2 565.98 849.08 564.69 848.91 563.4 849.62 563.06 850.71 563.34 852.23 563.67 853.48 563.34 854.66 562.52 855.71 561.37 856.59 561.51 857.85 562.73 858.89 564.35 859.64 566.25 860.18 567.13 861.03 567.26 861.74 567.67 863.19 567.69 863.22 568.75 864.55 569.29 865.26 569.09 866.1 567.87 866.14 566.65 866.51 565.71 866.95 563.61 867.12 562.25 867.12 559.88 867.22 558.66 867.19 557.04 867.63 556.84 868.27 557.24 868.84 558.46 869.45 559.55 869.79 561.3 870.37 561.33 870.38 562.12 870.98 561.98 871.52 561.24 871.99 559.27 872.13 557.24 873.14 555.42 874.77 554.67 875.55 554.94 876.42 555.35 876.73 556.5 877.03 557.85 877.27 558.94 877.24 560.56 877.14 560.56 877.54 560.15 878.22 559.14 878.86 559 879.54 559.14 880.52 559.55 881.2 560.36 881.87 561.98 882.48 562.52 882.65 563.61 883.06 563.63 883.06 564.83 883.4 565.37 883.8 564.83 884.14 563.81 884.07 563.13 884.14 562.39 884.72 561.85 885.93 561.84 885.94 561.51 886.48 561.1 886.54 560.22 886.07 559.41 885.46 558.19 885.43 556.43 885.22 555.35 884.85 553.99 884.51 552.98 884.72 551.96 884.78 551.35 884.31 550.13 883.63 548.44 883.43 547.09 882.62 545.8 882.18 544.18 881.84 543.3 882.08 542.42 882.52 542.08 883.33 541.81 884.68 539.51 884.99 538.08 885.49 536.19 886.07 535.51 886.95 535.31 887.96 534.29 888.54 533.41 888.95 531.99 889.45 530.57 890.27 529.35 891.21 528.67 891.72 528.47 892.47 528.27 893.45 527.52 893.48 526.1 893.75 525.42 894.29 524.27 895.27 523.12 896.39 522.11 897.54 521.43 898.9 521.43 900.08 521.36 901.23 521.36 901.23 521.16 902.01 520.68 902.01 519.33 901.94 518.72 902.14 518.18 902.72 516.42 904.51 514.39 906.48 513.24 907.93 512.22 908.34 511.82 907.8 512.02 906.58 513.71 905.16 514.86 903.7 515.95 901.54 516.83 898.86 516.96 897.17 516.49 895.82 514.52 893.96 515 893.65 516.42 893.52 517.91 893.31 519.26 892.84 520.14 892.03 521.02 891.04 521.7 890.1 521.36 888.44 522.11 887.59 523.12 886.78 524.27 886.51 524.95 886.14 525.09 885.22 525.83 884.68 527.12 883.29 528.2 881.43 529.08 879.94 529.55 878.42 530.7 877.24 530.5 876.29 530.37 875.14 529.42 874.19 527.86 873.55 527.12 873.07 527.05 872.23 527.86 870.91 529.15 869.89 530.57 869.15 531.72 868.27 532.8 867.29 533.41 866.17 534.22 864.92 533.82 863.73 532.26 862.72 531.99 861.06 531.52 859.57 530.84 858.42 529.62 857.14 529.08 856.36 529.01 855.24 529.82 854.26 530.16 853.48 530.23 851.99 530.23 850.94 530.84 849.49 531.24 848.2 532.13 846.81 533.14 845.87 533.88 844.85 533.89 844.11 533.34 843.63 532.4 843.33 531.52 842.65 530.7 841.81 530.77 840.82 531.25 839.61 531.85 838.89 532.73 838.22 533.41 837.81 533.41 837.27 532.67 836.9 531.31 836.63 529.96 836.63 528.94 836.66 528.13 837.3 527.25 837.78 526.44 838.52 525.69 839.47 525.56 840.55 524.95 841.3 523.59 841.87 522.58 842.11 521.56 842.18 520.01 842.28 518.58 842.45 517.1 842.89 514.86 843.57 513.58 844.45 513.03 845.36 512.76 846.47 512.76 846.48 512.76 848.13 512.42 848.78 511.88 848.81 510.73 848.51 509.99 848.27 509.11 847.73 508.09 846.95 506.4 846.81 503.96 847.29 502.13 847.86 499.16 848 497.06 848.1 495.63 848.03 494.96 848.13 494.82 848.57 495.09 849.39 495.43 850.47 496.11 851.45 496.78 852.43 497.39 852.97 497.73 853.55 497.06 854.33 496.18 855.31 495.09 855.82 494.69 856.93 494.82 857.54 495.43 857.91 495.97 858.35 495.84 859.1 494.82 859.71 493.74 860.35 493.67 861.57 493.94 863.6 493.94 863.62 493.74 864.48 493.13 865.8 492.59 866.1 491.3 866.07 490.49 866.04 489.54 866.61 489.41 867.09 489.27 868.71 488.87 869.61 488.86 869.62 487.44 869.86 486.22 871.52 485.14 872.3 484.46 873.18 483.72 874.43 483.1 874.93 482.7 875.24 481.82 875.55 480.81 875.38 478.71 875.31 476.88 875.55 474.99 875.88 472.89 876.66 471.47 877.37 470.58 877.81 469.03 879.2 467.74 879.95 467.13 880.1 465.71 880.45 464.02 880.59 462.8 880.39 461.31 880.39 461.11 880.62 460.02 881.7 459.14 881.94 457.45 882.21 456.03 883.3 455.42 884.11 455.29 885.12 455.01 885.77 454.2 886.04 453.94 886.06 451.63 886.27 449.73 886.48 448.51 886.44 447.16 886.44 446.21 886.88 445.4 887.36 444.32 887.83 442.9 888.58 441.47 889.29 440.12 890.03 438.77 890.4 437.34 890.57 436.13 890.47 434.23 890.57 432.33 890.5 430.44 890.61 428.88 890.98 427.12 891.49 426.44 892.13 425.7 892.6 425.77 893.58 426.04 895.21 425.7 896.56 425.16 897.44 424.55 897.95 424.41 898.49 423.75 899.42 423.74 899.44 423.13 899.81 422.45 899.57 421.3 899.3 420.28 899.41 419.61 900.18 418.52 901.74 416.83 902.55 415.34 903.53 413.85 904.48 412.02 905.12 410.26 906.17 409.18 906.65 408.44 906.95 407.15 906.99 406.07 907.12 404.71 907.56 403.49 907.93 402.14 908.37 400.85 908.51 399.7 908.88 399.3 909.66 399.3 910.17 400.04 910.54 401.6 910.74 402.34 910.81 403.49 910.71 404.78 911.05 404.92 911.45 404.51 912.13 403.97 913.01 403.36 914.03 402.88 915.18 402.34 916.36 402.48 917 403.29 917.78 404.78 918.63 405.86 919.68 407.08 920.29 408.91 920.73 410.06 920.69 411.35 921.1 411.01 922.05 410.06 922.62 409.65 923.33 409.59 924.18 409.99 924.79 410.74 925.56 410.26 926.24 409.65 926.44 409.05 926.28 409.04 926.27 408.3 926.07 406.88 925.97 405.05 926.31 403.49 926.17 402.34 926.11 401.19 926.11 400.45 926.44 399.57 926.95 398.35 927.53 398.34 927.53 397.47 928.07 396.45 927.97 395.64 927.33 394.76 926.55 393.95 926.04 393 926.14 392.26 925.67 392.05 924.69 391.98 923.67 391.17 922.05 389.89 921.17 388.53 919.78 387.45 918.8 386.03 917.92 385.21 917.78 384.6 917.85 383.59 918.39 383.12 919.07 382.91 919.81 382.78 920.49 382.91 922.05 382.64 923.37 382.17 923.94 381.15 924.18 380.54 924.04 380.27 923.43 379.93 922.52 379.12 921.84 377.29 920.59 375.87 919.95 374.79 919.24 373.37 918.86 372.28 919 371.34 919.54 370.86 919.88 369.91 919.98 369.03 919.78 368.29 919.57 366.46 918.46 364.9 917.58 364.29 917.31 363.48 917.38 362.26 918.08 360.37 920.89 360.57 921.69 360.37 923.24 359.69 924.31 359.08 925.42 358.54 926.05 357.59 926.36 355.49 926.12 353.19 926.57 352.31 927.15 351.91 927.94 352.25 929.23 353.12 930.68 353.73 931.89 353.94 932.97 353.6 934.29 353.33 935.28 353.6 936 354.55 936.7 355.9 937 357.32 937.42 357.8 938.07 358.06 938.83 358.05 938.99 358 939.63 357.32 940.66 356.78 941.41 356.57 942.29 356.37 942.88 355.9 943.19 354.75 942.94 353.19 942.55 351.5 942.8 350.08 943.26 349.33 944.01 348.66 944.96 348.52 946.07 348.66 946.76 348.65 947.43 347.98 947.98 347.09 948.38 346.35 948.72 344.05 949.68 342.09 951.17 341.89 952.08 342.09 952.72 343.04 953.26 343.72 953.79 343.78 954.39 343.51 955.27 343.31 956.14 343.44 956.82 343.51 957.46 343.17 958.46 342.63 959.49 342.09 960.8 342.56 961.72 343.31 962.46 344.05 963.15 344.26 963.67 344.07 964.1 343.92 964.46 343.04 964.97 342.22 965.08 341.21 964.78 339.99 964.16 338.16 963.18 337.15 962.64 335.46 962.25 333.9 962.06 332.27 962.08 330.78 962.33 329.36 962.91 328.61 963.5 328.21 964.53 327.8 964.92 326.66 965.18 325.23 965.52 323.81 966.22 322.86 966.88 321.78 967.31 321.73 967.29 320.9 967.09 320.09 966.52 318.93 965.34 318.26 964.01 317.04 961.67 316.36 960.5 315.95 959.22 315.82 958.34 316.1 957.54 316.09 956.78 315.68 956.02 315.08 955.61 Z M 515.13 797.68 515.27 796.83 513.64 796.29 512.02 796.15 510.87 796.09 510.53 796.86 511.41 797.85 512.42 798.52 514.12 798.25 515.13 797.68 Z" fill-rule="evenodd"/>
</g>
</svg>