<?xml version="1.0"?>
<svg xmlns="http://www.w3.org/2000/svg" version="1.2" baseProfile="tiny" width="800" height="607" viewBox="0 0 800 607" stroke-linecap="round" stroke-linejoin="round">
<g id="lakepillsbury">
<path d="M 23.54 1 27.89 1.38 28.32 1.38 28.81 1.71 29.65 3.29 30.07 4.11 30.29 4.93 31.06 6.07 31.9 7.05 32.47 7.65 32.96 7.92 33.17 8.14 34.08 8.52 36.96 9.01 37.39 9.18 37.67 9.34 37.67 9.67 37.88 10.65 37.95 11.47 37.95 11.85 38.16 12.23 38.86 12.72 39.21 12.88 39.71 12.94 42.87 12.56 43.43 12.28 43.71 11.96 44.34 11.25 45.54 8.25 46.03 6.56 46.38 5.79 46.45 5.47 46.59 5.14 47.01 4.98 47.65 5.03 47.86 5.19 48.14 5.41 48.91 6.88 49.19 8.14 49.62 9.23 50.04 10.48 51.02 12.66 51.59 13.81 52.36 15.34 52.78 16.1 53.06 16.97 53.41 18.01 53.77 18.88 54.47 20.08 55.95 21.44 57.35 21.93 58.26 22.15 58.69 22.31 59.67 22.37 63.61 22.09 64.45 21.77 65.57 21.38 66.35 21.06 66.77 20.95 67.26 20.89 67.61 20.84 67.82 21.06 68.1 21.38 68.88 24.55 69.65 25.91 70.21 26.56 70.92 27.22 71.48 27.76 72.39 28.25 79.14 30.38 80.13 30.54 81.32 30.65 82.45 30.71 83.15 30.65 83.85 30.54 84.9 30.16 85.47 29.89 85.89 29.67 86.31 29.5 86.66 29.4 87.08 29.45 88.49 30.76 89.05 31.41 89.54 31.9 90.11 32.23 90.67 32.5 93.97 33.16 94.96 33.16 95.87 33.1 97.13 32.99 97.98 32.83 99.24 32.56 100.79 32.12 102.13 30.92 103.67 29.12 104.51 26.72 104.79 26.45 105 26.29 105.5 26.18 105.85 26.29 106.06 26.34 106.27 26.5 106.48 26.94 106.48 28.74 106.48 31.03 106.2 32.45 106.06 33.26 106.06 33.75 106.06 35.55 106.06 37.19 106.27 39.81 106.63 41.06 107.12 43.19 107.33 44.44 107.54 45.26 107.89 46.13 108.81 47.6 109.23 48.15 110.21 48.91 111.06 49.24 112.6 49.4 115.2 49.4 116.54 49.13 117.87 48.91 119.35 48.26 120.12 47.6 120.82 46.79 121.31 45.69 121.31 45.2 121.53 43.08 121.81 40.79 122.01 32.33 122.36 29.23 122.22 27.97 122.01 27.43 121.8 26.88 122.01 26.23 122.57 24.1 123.63 21.76 123.98 20.07 124.19 19.03 124.4 17.5 125.1 14.78 125.31 14.78 125.74 14.83 126.51 15.27 126.93 16.03 130.66 21.86 131.43 23.23 132.62 24.97 133.26 25.79 133.68 26.44 134.38 27.04 135.23 27.43 136 27.59 136.56 27.7 137.05 27.92 137.48 28.3 138.18 28.95 138.88 29.77 139.44 30.2 140.43 30.75 142.04 31.08 142.61 31.02 143.03 30.97 143.45 30.97 143.87 31.08 144.08 31.24 144.57 32.28 145.42 36.15 145.7 37.13 145.91 37.51 146.33 37.95 146.75 38.22 147.25 38.49 148.58 39.2 151.89 40.45 152.8 40.95 153.15 41.6 153.22 42.14 153.36 42.91 153.5 43.89 153.5 44.6 153.71 45.96 153.78 46.4 153.86 46.89 154.63 51.63 154.63 52.23 154.28 52.61 154.07 53.05 153.43 53.92 153.22 54.58 153.08 55.29 153.22 56.05 153.51 56.92 154 57.68 154.84 59.21 155.97 60.68 155.76 64.77 156.04 66.19 156.32 66.9 156.67 67.55 158.57 69.57 159.62 70.61 160.33 70.93 161.1 70.99 161.66 71.1 163.21 70.99 163.77 70.82 164.54 70.83 164.96 70.88 165.6 70.99 165.81 71.21 166.16 71.48 166.79 71.59 167.35 71.59 167.78 71.59 168.41 71.48 168.97 71.37 169.53 71.1 170.03 70.61 170.59 70.17 170.94 69.52 171.43 68.7 171.64 67.99 172.06 67.61 172.56 67.28 172.98 67.06 177.61 64.88 178.39 64.66 179.02 64.5 179.93 64.44 180.57 64.44 180.92 64.28 181.34 64.01 182.6 61.66 182.6 60.95 182.6 60.46 180.28 51.79 180.21 50.97 180.49 50.37 180.63 50.1 180.99 49.77 181.76 49.28 183.87 47.48 184.01 47.1 184.15 46.56 184.15 46.01 184.22 45.85 184.71 46.01 185.13 46.18 185.34 46.45 185.62 46.88 185.97 47.59 186.4 47.81 186.89 48.14 188.79 48.9 190.47 49.01 190.96 49.01 191.46 49.01 191.81 49.01 192.3 49.17 192.37 49.39 192.44 49.56 192.65 50.05 193 50.32 193.14 50.43 193.71 50.7 194.34 50.81 195.46 50.87 196.03 50.92 196.31 50.81 196.59 50.65 197.29 50.1 198.06 49.77 198.69 49.67 199.61 49.5 200.31 49.28 201.23 49.23 204.88 49.01 206.64 48.96 207.48 48.85 208.82 48.68 210.36 48.3 211.13 47.92 211.56 47.65 211.98 47.05 213.59 43.61 213.73 43.12 214.01 42.9 214.37 42.85 214.79 42.96 214.86 43.07 217.25 44.32 217.74 44.43 218.3 44.43 218.94 44.32 219.85 44.1 220.62 43.72 221.4 43.34 222.17 42.96 222.94 42.74 226.17 40.94 226.59 40.45 227.09 39.74 227.51 38.87 227.58 38.48 227.72 38.16 227.72 37.78 227.44 35.81 227.51 35.32 227.72 34.99 227.86 34.56 228.28 34.12 230.6 30.85 230.95 29.98 231.3 29.11 231.37 28.4 231.65 27.25 231.86 26.65 232.01 26.38 232.36 26.33 232.56 26.36 232.71 26.38 232.99 26.54 233.13 26.71 233.27 26.82 233.69 27.63 234.11 27.85 236.08 28.94 236.71 29.05 237.35 29.1 237.98 29.1 238.89 29 241.35 28.01 241.63 27.58 241.78 27.14 241.91 26.81 242.2 26.71 242.48 26.82 242.62 26.92 242.76 27.03 243.46 27.8 243.81 28.61 245.08 31.83 245.64 32.48 246.34 33.3 246.77 33.85 247.12 34.01 247.96 34.83 248.17 35.43 248.17 35.87 248.16 35.89 247.82 36.3 247.68 36.68 247.26 37.66 247.12 38.27 247.12 38.65 247.33 39.14 247.54 39.63 248.59 40.55 249.16 40.99 249.58 41.26 249.93 41.43 251.12 41.59 254.36 41.48 256.04 41.1 257.03 40.99 257.8 40.72 258.57 40.28 258.92 40.17 259.14 40.17 259.42 40.12 259.91 40.12 260.19 40.12 260.96 40.34 262.37 40.56 263.07 40.61 264.12 40.61 264.62 40.5 265.74 40.01 266.16 39.57 266.72 38.86 267.22 37.94 267.71 37.5 268.34 36.79 270.03 34.39 270.38 34.12 271.15 34.17 271.64 34.56 272.28 35.1 272.91 35.48 274.18 36.03 274.88 36.14 275.79 36.25 277.06 35.97 277.41 35.87 277.76 35.92 277.76 36.3 277.76 36.56 277.76 36.9 277.69 37.61 275.37 41.37 275.09 42.14 274.88 42.74 274.88 43.23 274.88 43.72 274.88 44.32 274.81 44.7 274.18 45.68 273.4 46.77 272.91 47.86 272.42 48.84 272.14 49.66 271.72 55.11 271.72 57.13 271.86 57.51 271.86 57.73 271.86 58.11 271.72 58.49 271.58 58.98 271.44 59.37 271.44 59.64 271.44 60.07 271.72 61 272 61.93 272.42 63.24 272.63 64.65 273.19 68.58 273.47 69.02 274.04 70.87 274.53 71.74 275.02 72.12 275.37 72.51 275.93 72.72 276.11 72.81 276.28 72.89 276.99 72.83 278.96 72.45 279.66 72.24 280.29 72.12 281.34 71.91 281.91 71.91 282.19 71.91 282.47 71.96 282.54 72.12 282.54 72.29 281.34 72.89 280.92 73.11 280.64 73.32 280.15 73.82 279.87 74.09 279.45 74.2 278.89 74.2 277.06 74.31 276.35 74.36 275.72 74.41 275.3 74.52 274.88 74.69 274.46 75.07 274.39 75.45 274.32 76.32 276.36 81.61 276.43 81.78 276.71 81.88 277.9 82.05 278.82 82.05 279.31 81.89 281.84 81.07 285 79.54 285.84 79.32 286.12 79.16 286.55 79.05 286.97 79.05 287.67 79.05 287.95 79.16 288.51 79.43 288.72 79.54 289.15 79.65 289.71 79.65 290.34 79.43 290.48 79.32 290.55 78.78 290.69 77.8 290.69 77.69 290.76 77.47 291.47 77.31 292.38 76.98 294 76.43 295.19 76 297.02 75.07 298 74.2 298.42 73.71 298.92 73.16 299.48 72.83 304.54 70.49 304.82 70.11 305.24 69.78 306.08 69.45 307.14 69.24 310.16 68.96 313.32 68.91 315.71 68.8 317.82 68.74 319.44 68.74 320.84 69.02 321.82 69.29 323.3 69.67 325.13 70.11 334.62 71.09 334.9 71.09 335.74 71.36 335.67 71.85 335.04 72.23 334.05 72.73 332.93 73 331.17 73.22 330.05 73.54 329.13 73.76 328.29 73.87 327.17 74.09 326.11 74.36 325.41 74.58 324.35 74.69 322.53 74.96 320.49 75.18 319.79 75.34 319.15 75.51 318.1 76.05 317.33 76.43 316.83 76.82 316.34 77.25 315.22 81.45 315.22 81.67 315.01 81.94 314.94 82.16 314.75 82.22 313.95 82.49 312.76 82.43 311.21 82.65 310.16 82.65 308.4 82.76 302.5 83.79 300.11 84.72 298.49 85.16 297.65 85.65 296.45 86.52 295.19 87.5 293.71 88.32 292.59 88.87 288.87 91.32 285.21 94.54 284.23 96.17 283.52 97.37 282.75 98.62 282.19 100.1 281.42 103.31 280.64 105.61 280.08 107.46 279.31 109.42 278.68 111 278.04 112.15 277.27 113.4 276.71 114.38 276.15 115.26 275.65 116.29 275.3 117 275.02 117.98 274.81 121.31 274.81 122.07 274.74 123 274.32 124.53 274.11 125.83 274.04 127.69 274.11 128.78 274.39 129.92 275.09 131.01 275.3 131.18 275.3 131.45 275.16 131.78 272.42 132.05 271.72 132.16 271.23 132.27 270.39 132.65 270.03 133.14 269.4 134.07 269.12 135.1 268.56 137.34 268.28 138.98 268 140.17 267.86 141.1 267.65 141.76 267.51 142.46 267.22 143.5 267.22 143.99 267.22 144.65 267.44 145.3 267.51 146.01 267.44 146.94 267.08 147.86 265.4 149.94 264.2 151.13 260.62 155.93 259.64 157.3 259.36 157.9 259.07 158.39 258.79 158.93 258.58 159.42 258.58 160.02 258.44 160.35 258.16 160.95 257.74 161.66 257.04 163.08 256.26 164.33 255.63 165.37 255.35 166.29 255.21 167.38 255.07 168.26 254.86 169.62 253.87 171.58 251.7 174.8 250.75 176.12 250.29 176.76 248.96 178.18 247.83 179.54 247.62 179.65 247.41 180.09 247.27 180.53 247.06 180.96 247.06 181.4 247.55 182.98 246.36 183.52 245.3 184.12 244.95 184.51 244.39 185.11 243.83 186.41 243.69 187.34 243.69 188.32 243.48 189.3 243.55 189.85 243.69 190.45 243.69 190.89 243.69 191.43 243.55 192.14 243.41 192.74 243.41 193.45 243.27 194.48 243.27 195.47 243.27 195.85 243.13 196.17 242.14 196.5 241.65 196.88 241.02 197.37 239.19 201.63 239.05 202.12 238.91 202.61 238.83 202.69 237.72 203.92 236.59 204.9 235.82 205.72 234.91 206.81 234.13 208.17 232.66 212.59 232.38 213.35 232.24 214.55 232.24 217.11 232.24 217.6 231.96 218.26 231.89 218.7 230.83 220.44 230.27 221.31 229.22 222.84 228.73 224.58 227.46 228.62 227.25 229.66 226.83 230.85 226.69 231.67 226.62 232.6 226.55 233.36 226.34 234.29 225.85 235.33 225.36 236.09 225.07 236.69 224.93 237.34 224.72 238.93 224.72 240.4 224.65 242.69 224.65 243.23 224.65 243.56 224.79 243.89 225.36 244.16 226.83 244.38 228.38 244.27 230.06 244 231.05 243.78 232.03 243.89 233.44 244 236.18 244 237.65 243.78 239.06 243.45 239.9 243.23 240.6 243.01 241.38 242.74 242.5 242.58 248.12 242.8 251.42 243.12 252.69 242.96 254.3 242.9 255.5 242.69 256.06 242.52 256.55 242.36 256.97 242.14 257.61 242.03 258.38 242.03 261.75 242.25 263.37 242.47 265.47 242.79 267.09 243.23 269.13 243.5 270.67 243.5 272.85 243.45 273.77 243.5 274.82 243.12 275.66 242.9 276.01 242.63 276.3 242.52 276.57 242.41 277.28 242.36 277.61 242.36 278.05 242.36 279.25 242.3 281.7 242.25 283.04 241.92 284.59 241.38 285.29 241.05 286.13 240.39 286.34 240.07 286.55 239.69 286.69 238.92 286.97 238.16 287.19 237.56 288.24 237.07 289.57 236.36 291.4 235.16 293.51 233.14 295.33 231.24 296.18 230.42 296.6 230.03 297.37 229.49 297.86 228.89 299.1 228.51 299.48 228.4 300.82 227.85 302.15 227.36 303.42 226.54 304.54 226 305.38 225.62 305.8 225.18 306.3 224.69 306.58 224.09 306.79 223.44 307.14 222.73 307.63 222.4 308.54 221.8 309.18 221.42 309.95 220.6 310.44 220.06 311.07 219.78 311.34 219.61 311.57 219.46 312.55 219.07 313.39 218.58 314.38 217.82 315.08 217.11 317.82 214.17 318.38 213.35 319.51 212.37 320.14 211.82 320.84 211.44 321.4 211.22 322.67 210.57 323.86 209.81 324.71 208.93 325.41 208.17 325.97 207.46 326.25 207.19 327.09 206.7 328.08 206.48 329.06 206.15 329.91 205.66 330.12 205.22 330.47 204.46 330.68 203.86 330.61 202.88 330.61 202.72 330.61 202.5 330.67 202.41 330.68 202.39 330.89 202.23 331.17 202.01 332.01 201.63 332.79 201.24 333.63 200.75 334.75 199.66 336.3 196.88 336.72 196.28 336.93 195.9 337.21 195.52 337.7 195.14 338.55 194.54 339.04 194.21 339.81 193.56 340.94 192.19 341.43 191.76 341.71 191.48 341.92 191.32 342.48 191.16 343.12 190.94 343.82 190.56 344.59 190.07 345.08 189.36 345.71 188.65 346.21 188.21 346.56 187.72 347.26 187.01 347.82 186.14 348.32 185.6 351.2 182.54 351.48 182.16 351.62 181.89 351.62 181.45 351.69 181.07 351.97 180.74 352.32 180.47 352.88 180.2 353.59 179.82 354.08 179.44 354.48 179.12 354.57 179.05 355.06 178.78 355.97 178.35 357.38 177.69 358.08 177.42 358.64 177.04 359.07 176.6 359.7 175.73 360.26 175.13 360.37 175.04 365.18 171.26 365.39 170.87 365.53 170.6 365.88 170.06 366.3 169.51 366.87 169.02 367.15 168.42 367.36 167.71 367.71 167.33 368.34 166.68 368.69 166.4 369.19 166.19 369.96 165.86 370.52 165.64 371.29 165.37 372.07 164.88 372.56 164.28 373.68 163.57 375.02 162.75 376.35 161.99 377.97 160.9 378.81 160.3 379.1 160.15 379.23 160.08 379.73 159.92 382.75 159.15 383.87 158.77 384.43 158.39 384.85 157.95 385.14 157.63 385.84 157.08 387.18 156.37 387.46 156.05 387.88 155.39 388.02 154.68 388.02 154.3 388.37 153.97 389.78 152.99 390.36 152.63 391.18 152.12 391.53 152.01 391.67 151.9 392.38 151.57 392.02 153.48 391.25 155.39 390.13 157.52 389.99 158.5 389.7 159.15 389.63 159.48 389.07 160.19 387.74 160.79 387.08 161.07 386.19 161.44 384.72 162.32 383.1 163.3 381.55 164.33 380.22 165.26 379.64 165.82 379.09 166.35 378.6 167 378.11 167.77 377.69 168.37 377.34 168.8 377.34 169.13 377.2 169.57 377.06 169.84 376.84 170.28 376.49 170.6 375.79 171.09 375.23 171.69 374.67 172.57 374.03 173.33 373.33 174.37 372.56 175.56 372.35 176.22 372.06 176.82 372.21 179 372.21 179.27 372.14 179.49 372.07 179.71 372.05 179.71 369.61 180.25 368.76 180.47 368.13 180.74 366.87 181.78 366.58 182.33 366.02 183.2 365.67 183.8 365.04 184.67 363.63 186.03 362.93 186.91 362.37 187.67 362.16 188.43 361.66 191.32 362.16 193.34 362.51 194.65 362.93 195.14 364.55 197.92 362.37 196.56 359.98 194.43 359.28 193.83 358.64 193.56 357.94 193.45 357.06 193.4 356.89 193.39 356.11 193.28 355.34 193.45 354.78 193.78 354.29 194.32 353.44 196.28 353.37 196.77 353.23 197.27 353.02 197.65 352.46 198.19 351.76 198.74 351.41 199.23 351.19 199.77 350.7 201.9 350.56 202.23 350.35 202.83 348.24 203.81 347.68 204.08 347.54 204.46 347.19 205.12 346.63 205.72 346 206.04 345.36 206.54 344.8 207.24 344.38 208.44 344.31 208.83 344.03 209.15 342.76 209.37 342.27 209.53 341.71 209.97 341.57 210.19 341.08 210.79 340.37 211.66 339.95 212.15 339.53 212.64 337.49 214.5 335.1 215.59 333.28 216.84 332.29 217.33 331.38 217.98 330.47 218.75 329.13 220.22 328.01 221.8 326.81 223.55 325.27 225.56 324.64 226.38 324.14 226.93 323.93 227.31 323.86 227.8 323.51 228.78 323.51 229.54 323.37 229.93 323.37 230.25 324.14 230.63 324.71 230.64 325.97 230.36 327.02 230.25 327.73 230.25 329.06 230.36 336.65 232 337.77 232.27 339.53 232.6 339.88 232.6 342.2 232.87 344.38 232.98 345.85 232.98 346.28 232.98 346.84 233.2 347.89 233.74 348.45 234.07 348.73 234.34 349.3 234.67 349.86 235.11 353.72 238.7 355.06 239.69 356.53 240.89 357.66 241.92 358.64 242.47 359.84 243.01 360.75 243.4 361.38 243.67 361.87 243.89 362.01 244.21 362.15 244.87 362.36 246.12 362.5 246.72 362.5 247.21 362.58 247.92 362.65 248.58 363.42 249.23 364.26 250.21 365.1 250.76 365.88 251.3 368.41 251.74 369.95 251.79 371.43 251.74 373.46 251.58 376.56 250.7 378.87 250 379.58 249.72 380.14 249.61 380.56 249.45 380.98 249.34 381.54 249.34 381.79 249.36 382.25 249.39 383.02 249.83 385.69 251.63 386.88 252.34 388.36 252.94 388.85 253.16 389.62 253.38 389.98 253.43 390.47 254.03 391.52 255.28 392.22 255.78 393 256.38 394.26 256.76 395.17 257.03 395.88 257.3 397.14 257.63 398.05 257.79 398.62 257.96 399.39 258.5 405.36 261.34 406.56 261.72 407.47 261.99 408.31 262.1 408.94 262.16 409.51 262.21 409.93 262.05 410.56 261.12 411.68 258.61 411.83 257.9 412.46 255.5 412.74 255.07 412.81 254.85 413.02 254.69 413.23 254.69 413.44 254.74 413.65 254.8 413.69 255.09 414.21 258.01 414.28 258.5 414.71 259.54 415.2 260.3 416.67 261.45 416.81 261.56 417.09 261.72 417.17 261.94 417.23 262.48 417.45 263.68 417.59 264.34 417.59 264.94 417.8 265.21 417.94 265.32 418.36 265.48 418.85 265.48 419.41 265.37 419.76 265.05 420.47 264.56 420.82 264.23 421.87 263.79 425.81 262.27 426.37 261.99 426.86 261.83 427.63 261.5 428.05 261.34 428.48 261.23 428.97 260.58 429.25 260.25 429.39 260.03 429.74 259.92 430.02 259.81 430.86 259.87 431.5 259.76 432.06 259.6 433.04 259.27 433.68 258.89 435.29 257.85 435.71 257.41 436.06 257.25 436.56 257.14 436.98 257.09 437.82 257.14 437.82 257.52 437.61 258.01 436.91 258.89 435.08 260.96 433.18 263.41 432.62 264.07 432.41 264.5 432.27 264.89 432.27 265.16 432.41 265.59 432.55 265.81 436.62 266.36 438.66 266.3 439.22 266.3 440.14 266.52 443.72 267.78 444.7 268.27 445.48 268.54 446.04 268.81 446.88 268.92 447.8 269.14 449.2 269.74 450.61 270.67 451.8 271.27 454.19 272.03 456.09 272.63 459.67 274.1 460.3 274.27 460.93 274.38 461.71 274.27 462.41 274.1 462.76 273.83 463.11 273.56 463.46 273.23 464.03 272.03 464.1 271.76 464.34 271.57 464.45 271.49 464.45 271.27 464.87 271.11 465.15 271.16 466.06 274.49 466.27 274.92 466.62 275.25 466.98 275.31 467.89 275.36 468.38 275.09 469.36 274 470.91 272.03 471.05 271.87 471.19 271.71 471.4 271.6 471.68 271.6 471.82 271.98 472.03 272.85 472.06 272.88 472.39 273.23 472.53 273.45 473.09 273.51 473.51 273.61 473.93 273.56 474.42 273.34 477.09 269.69 477.45 269.47 478.85 268 479.48 267.45 479.98 267.18 480.61 266.96 481.59 266.75 482.93 266.58 485.46 266.64 486.86 266.58 487.98 266.75 489.32 266.64 490.94 266.47 492.62 266.15 497.89 264.68 498.52 264.29 499.93 263.69 501.19 263.04 501.55 262.71 502.04 262.44 502.32 262.17 502.46 260.81 502.46 260.31 502.6 259.82 502.74 259.5 502.88 259.22 503.37 259.01 504.78 258.57 505.2 258.35 505.34 257.97 505.76 257.1 505.9 256.72 505.76 255.35 506.04 255.24 506.06 255.24 506.33 255.14 506.96 255.03 507.31 255.14 507.66 255.14 508.57 255.03 510.12 254.86 510.96 254.64 511.52 254.43 512.02 254.16 512.3 253.77 513.84 251.32 513.98 250.67 514.34 249.85 514.9 248.59 516.43 243.24 516.45 243.2 516.52 242.6 516.59 242 517.01 241.4 517.57 240.96 518.06 240.52 518.48 239.76 519.05 236.29 519.05 236.27 521.51 235.89 522.77 235.67 524.11 235.45 524.88 235.29 525.72 234.8 526.35 234.31 526.92 233.93 527.06 233.77 527.48 233.55 527.76 233.44 528.04 233.33 528.67 233.27 528.81 233.49 528.81 233.77 528.81 234.04 528.53 234.42 526.92 236.16 526.43 236.49 526 236.93 525.93 237.36 525.79 238.73 525.79 239 525.72 239.38 525.37 240.14 524.74 240.96 524.39 242 523.89 242.87 523.61 243.74 523.54 244.56 523.47 245.32 523.54 246.31 523.61 247.07 523.61 247.67 523.61 248.05 523.33 248.7 523.28 248.86 522.77 250.67 522.63 252.25 522.56 253.01 522.63 253.61 522.77 253.99 522.77 254.59 522.48 255.08 520.17 257.48 519.74 258.19 519.39 258.74 518.83 258.95 515.81 259.23 515.6 259.33 515.25 259.61 514.97 260.1 515.46 260.54 515.95 260.97 516.72 261.3 517.7 261.63 518.34 261.95 518.83 262.88 518.97 263.32 519.04 263.54 519.04 263.78 519.04 263.81 518.83 263.92 518.34 263.64 517.77 263.26 517.07 262.93 515.95 262.55 514.82 262.41 513.35 262.22 512.01 262.28 510.33 262.44 508.64 262.82 502.04 266.04 500 266.91 499.16 267.4 498.17 267.78 496.41 268.27 495.29 268.6 492.62 269.91 490.79 271.33 490.09 271.87 489.46 272.69 488.47 273.73 487.7 274.38 487.21 274.87 486.72 275.74 485.31 278.96 484.61 280.6 483.83 282.01 483.2 283.65 482.57 285.01 482.43 285.5 482.57 285.99 486.72 289.65 487.35 289.87 488.47 290.25 489.73 290.52 490.86 290.52 491.21 290.41 491.49 290.19 492.83 286.98 493.18 286.49 493.53 286.21 494.23 286.1 495.36 286 496.27 285.89 496.83 286 497.54 286.16 499.71 286.49 500.28 286.65 500.77 286.71 501.19 286.87 501.61 287.14 502.66 288.34 503.65 290.58 504.42 291.89 505.61 293.3 506.53 294.12 507.45 294.93 508.91 296.19 510.67 297.89 510.81 298.16 511.02 298.38 511.23 298.7 511.23 299.41 511.79 300.99 512.28 301.7 512.57 302.19 514.32 303.88 515.73 304.59 516.43 304.97 516.78 305.36 517.13 305.63 517.69 305.79 518.32 305.79 518.61 305.63 519.03 305.52 519.73 305.68 520.36 305.74 520.71 305.85 521.34 305.79 521.7 305.68 522.47 305.69 523.17 305.63 524.44 305.69 523.59 306.18 523.17 306.56 522.54 306.72 522.19 306.99 521.7 307.21 521.2 307.37 515.94 307.86 515.72 308.03 514.88 308.14 514.25 308.63 513.62 309.45 513.05 310.1 512.84 310.64 512.63 311.08 512.35 311.74 512.35 312.12 512.35 312.55 512.56 312.88 515.86 313.32 517.83 313.65 520.29 313.92 521.62 314.41 522.47 314.79 523.1 315.17 523.45 315.55 523.94 315.94 524.43 316.32 525.14 316.59 525.98 316.81 526.4 317.08 531.74 321.17 532.23 321.77 533.14 323.19 534.27 324.39 534.83 325.21 535.32 326.35 535.88 327.44 536.3 329.52 536.93 331.42 537.21 332.35 537.92 333.72 538.62 334.64 539.25 335.57 540.3 336.44 541.5 337.26 544.44 338.08 549.29 339.44 552.39 340.1 553.93 340.37 554.84 340.59 553.44 341.24 552.39 341.46 551.12 341.62 549.36 341.73 548.03 341.79 546.2 341.62 544.8 341.57 543.53 341.35 542.62 341.24 539.25 341.08 537.77 341.19 536.86 341.35 535.95 341.73 534.96 342.22 533.84 343.09 533.07 344.24 532.22 345.44 531.87 346.42 531.38 348.33 531.17 350.02 531.1 350.78 530.96 351.65 531.1 352.42 531.1 353.02 531.45 354.11 531.94 354.87 532.36 355.74 532.85 356.4 533.27 356.94 533.69 357.32 533.97 357.76 534.26 358.41 534.25 359.01 534.61 359.56 534.68 359.89 534.82 360.32 535.03 360.98 535.59 362.94 535.87 363.54 535.94 364.03 536.01 364.52 536.15 364.8 536.01 365.39 535.94 366.05 535.87 367.36 535.73 369.26 535.87 370.25 535.87 371.12 535.94 371.61 536.15 372.21 537.62 373.08 537.76 373.19 537.82 373.34 537.83 373.36 537.62 373.79 537.2 374.17 536.99 374.56 536.85 375.37 536.84 375.82 536.71 380.83 536.85 381.75 536.64 382.68 536.57 383.55 536.57 384.26 536.63 385.41 536.71 386.77 537.34 388.79 538.18 389.93 539.58 391.19 541.48 392.55 542.74 393.42 545.34 395.11 547.17 396.04 548.99 397.13 549.77 397.68 552.37 399.15 553.42 399.59 556.37 400.35 559.18 400.62 561.08 400.84 561.92 400.84 562.48 400.95 562.9 401.12 564.1 401.55 564.8 401.82 565.57 401.99 566.06 402.1 567.05 402.04 567.33 402.04 567.89 402.21 568.52 402.7 569.43 403.35 570.56 404.12 576.74 405.81 578.49 406.68 579.76 407.17 580.46 407.55 581.3 408.26 581.94 408.76 584.39 409.63 586.22 410.12 586.99 410.28 587.41 410.55 588.11 411.21 588.68 411.86 589.38 412.46 590.15 412.79 591.13 413.28 591.7 413.45 592.19 413.5 592.54 413.72 593.1 414.37 594.02 415.41 595 416.17 598.79 417.81 599.77 417.97 600.19 418.08 600.41 418.19 601.04 418.63 601.67 419.34 602.16 419.77 604.62 420.76 606.44 421.41 607.57 421.79 608.76 422.23 609.24 422.49 609.96 422.88 611.43 423.43 612.42 423.76 613.47 423.98 613.96 424.19 619.86 427.68 620.77 428.39 622.11 429.1 624.07 430.09 626.11 430.9 628.15 431.67 628.85 432 629.41 432.27 629.97 432.43 630.53 432.54 631.09 432.76 631.87 433.41 632.43 433.9 633.76 434.61 635.59 435.49 636.85 435.92 637.63 436.25 638.54 436.74 639.52 437.51 643.03 440.45 643.38 441.05 644.09 441.43 645.14 441.87 645.91 441.98 646.68 442.2 646.97 442.31 647.24 442.57 647.53 442.85 647.95 443.4 648.37 443.83 649.91 444.82 650.41 445.2 651.74 445.8 652.16 445.85 652.51 445.85 653.08 445.91 653.57 446.12 653.85 446.56 654.34 447.05 654.76 447.43 663.26 450.87 666.7 451.53 667.47 451.58 667.91 451.62 668.1 451.64 668.74 451.85 669.16 452.18 670.14 452.67 681.38 455.95 684.39 456.77 686.01 457.04 688.26 457.31 692.61 457.64 695.21 457.59 697.95 457.26 699.5 457.05 700.2 456.94 700.48 456.88 701.04 456.83 701.53 456.83 701.91 456.83 702.24 456.83 702.94 456.83 707.43 455.85 708.84 455.52 709.96 455.3 711.23 455.09 712.14 455.03 713.12 455.09 716.78 455.47 718.32 455.8 719.51 456.18 720.5 456.56 722.25 457.38 723.94 458.25 725.13 458.85 726.61 459.78 727.73 460.71 729.13 462.13 730.84 464.52 731.31 465.18 732.22 466.22 732.99 466.87 733.56 467.85 734.05 468.51 738.96 471.51 740.72 472.27 742.47 473.04 743.6 473.75 744.79 474.29 746.76 474.95 749.14 475.55 752.23 476.31 755.04 476.91 758.27 477.62 760.17 477.95 762.56 478.66 764.17 479.15 765.67 479.6 766 479.7 768.11 480.63 769.02 481.12 769.58 481.72 770.21 482.43 770.9 483.48 771.97 485.1 772.88 486.3 773.65 487.12 774.7 487.99 775.68 488.81 776.95 489.74 778.56 490.72 779.34 491.15 780.67 491.81 781.72 492.19 783.06 492.63 787.48 493.67 790.64 494 793.59 494.11 794.65 494.05 795.49 493.94 796.19 493.89 796.89 493.83 797.81 493.83 798.09 493.83 798.51 493.94 798.86 494.22 799 494.54 798.23 494.87 797.24 495.2 795.91 495.8 795.14 495.91 791.62 496.34 789.45 496.34 787.62 496.23 785.44 495.96 784.18 495.9 782.56 495.57 780.95 495.03 779.05 494.1 776.81 492.73 774.91 491.26 772.24 489.79 770.77 488.64 768.31 486.73 767.05 485.7 765.01 484.88 762.91 483.84 760.8 482.97 758.83 482.2 756.02 481.28 751.11 479.69 746.89 478.49 744.58 477.62 742.54 476.86 740.29 476.04 737.34 474.89 736.36 474.34 735.17 473.63 733.76 472.76 732.99 472.16 731.94 471.4 731.03 470.58 729.55 468.94 728.29 467.69 727.03 466.27 724.85 463.6 723.51 462.56 722.11 461.74 719.86 460.11 718.81 459.51 718.04 459.23 716.77 458.96 715.72 458.8 714.67 458.74 713.26 458.85 712.14 459.12 705.46 461.08 703.36 462.01 701.6 462.55 700.13 462.88 698.65 463.26 697.31 463.48 696.54 463.64 695 463.53 688.25 463.04 685.73 462.87 683.41 462.49 680.67 462 678.77 461.56 677.65 461.29 676.39 461.02 675.33 460.8 674.14 460.42 668.73 458.29 666.98 457.58 665.85 457.09 664.59 456.54 663.75 456.22 663.04 456.05 662.41 455.94 661.5 456 660.94 456.27 660.09 457.3 659.11 459.21 658.83 459.43 658.62 459.6 658.19 459.92 657.63 459.49 657.49 458.99 657.35 458.78 657.21 457.79 656.72 456.92 656.58 456.54 656.37 456.38 656.02 456.1 655.6 455.72 651.46 451.3 650.61 450.54 649.42 450.05 648.86 449.78 647.8 449.5 645.91 448.85 645.56 448.74 645.07 448.41 644.86 448.09 644.43 447.59 643.94 447.05 643.03 445.9 642.19 445.52 640.64 444.7 639.03 443.83 637.62 442.96 636.57 442.19 635.17 441.32 633.76 440.5 632.29 439.79 629.83 438.76 628.14 437.99 626.53 437.39 624.98 436.79 622.38 435.76 621.19 435.59 620.28 435.65 619.65 435.65 619.01 435.75 618.17 435.7 618.17 434.99 618.17 434.5 618.17 434.01 618.1 433.57 617.75 433.19 617.19 432.75 616.41 432.21 615.01 430.9 611.08 428.12 609.39 427.14 607.85 426.54 606.44 425.99 604.62 425.55 602.37 424.9 601.81 424.84 601.64 424.73 601.32 424.52 601.18 424.24 600.61 423.65 600.54 423.43 599.84 422.94 598.02 422.06 596.89 421.79 596.26 421.68 594.57 421.35 594.01 421.24 593.91 421.17 593.52 420.92 593.31 420.43 592.89 419.77 592.26 419.17 591.77 418.68 590.36 417.97 589.38 417.32 586.71 415.74 585.66 414.81 584.11 413.39 583.13 412.63 581.93 412.24 580.67 411.75 577.58 410.88 577.02 410.55 576.53 410.39 575.54 410.12 574.35 409.73 573.08 409.52 571.82 409.51 571.33 409.46 570.98 409.4 570.55 409.3 570.13 409.13 569.5 409.02 568.8 408.86 568.1 408.8 567.67 408.53 567.18 408.31 566.83 408.1 565.99 407.93 565.22 407.93 564.3 407.93 563.53 407.99 563.36 407.96 563.18 407.93 563.04 407.82 562.76 407.55 562.34 407.06 561.42 406.51 560.79 406.3 559.74 405.97 558.75 405.69 557.14 405.15 554.75 404.66 552.15 404.22 550.05 403.84 546.6 403.35 545.62 403.46 544.5 402.97 544.01 402.69 541.9 401.11 540.71 400.51 539.86 400.13 538.6 399.64 537.75 399.36 537.12 399.15 536.21 398.71 533.96 397.89 533.05 397.67 532.56 397.51 531.85 397.13 531.43 396.86 528.91 395.17 528.06 395 527.36 394.89 526.48 394.89 526.45 394.89 526.09 394.67 526.03 394.57 526.03 394.29 525.81 393.69 525.18 392.82 525.11 392.55 524.62 392.33 524.06 392.17 523.29 392.11 520.27 391.95 520.2 391.78 519.98 391.56 519.99 391.29 520.06 390.91 520.27 390.58 520.41 390.04 521.04 388.95 521.25 387.97 521.18 387.37 520.97 386.77 520.41 386.11 520.06 385.84 519.57 385.51 518.86 385.13 518.02 384.64 517.81 384.48 517.53 383.99 517.46 383.6 517.25 383.33 517.04 383.22 516.69 383.22 515.98 383.28 515.42 383.11 515.42 382.68 515.42 382.4 514.23 379.29 513.88 378.75 513.39 378.42 513.11 378.2 513.11 378.04 513.04 377.77 512.82 377.39 512.68 376.95 512.61 376.57 512.54 376.24 512.26 375.8 511.7 375.48 511.28 375.1 510.09 374.22 509.66 373.79 509.38 373.3 508.89 372.64 508.47 371.99 507.63 370.73 506.93 369.97 506.01 369.53 505.24 369.04 504.75 368.77 504.47 368.39 504.33 368.12 504.19 367.79 504.05 367.35 503.91 366.86 503.48 365.99 502.85 365.44 502.43 364.95 501.73 364.46 501.31 363.97 501.1 363.21 501.03 362.55 500.89 361.95 500.75 361.46 500.25 360.97 499.83 360.59 499.34 360.26 498.85 359.88 497.94 359.34 492.53 356.28 490.49 355.84 489.79 355.63 489.65 355.41 489.23 354.54 488.17 353.39 487.4 352.63 486.84 352.13 486.21 351.7 485.43 350.72 484.59 349.9 483.61 349.14 483.19 348.81 482.06 348.48 481.36 348.32 480.45 348.37 479.81 348.54 479.25 348.81 478.48 348.97 478.2 348.91 477.78 348.81 477.5 348.43 477.43 348.15 477.15 347.83 476.65 347.44 476.23 347.06 475.6 346.63 475.32 346.46 475.18 346.28 475.11 346.19 475.11 345.86 475.11 345.64 475.32 345.48 476.23 344.77 477.15 344.28 477.85 343.52 478.27 342.48 478.27 341.77 477.99 341.23 477.71 340.85 477.22 340.41 476.52 339.97 475.53 339.43 474.62 338.77 473.5 338.12 470.48 336.27 468.58 334.96 465.91 334.03 464.15 333.65 462.75 333.48 461.69 333.37 461.2 333.21 460.99 332.94 460.57 332.61 460.15 332.28 459.45 332.07 458.81 331.85 457.83 331.68 456.21 331.41 453.34 331.08 449.33 331.25 448.91 331.14 448.63 330.97 448.63 330.7 448.63 330.48 448.07 329.01 447.29 328.19 447.08 328.03 446.45 327.92 445.19 327.65 444.55 327.43 444.27 327.16 443.92 326.56 443.43 325.63 443.01 325.14 442.59 325.03 442.02 325.03 441.53 325.08 441.04 325.25 440.27 325.36 439.71 325.41 439 325.68 438.37 325.79 437.53 325.9 436.69 325.85 435.77 325.74 434.44 325.52 432.75 325.08 432.12 325.03 431.35 324.97 430.78 325.03 430.29 325.14 429.87 325.25 429.59 325.46 428.89 325.79 428.32 325.9 427.62 325.9 427.2 325.79 426.85 325.74 426.36 325.57 426.12 325.47 425.87 325.35 425.23 324.81 424.81 324.37 424.32 323.66 423.69 322.68 423.13 322.03 422.43 321.54 421.58 320.94 420.46 320.28 418.56 319.36 414.84 317.88 411.04 316.63 409.01 316.41 407.88 316.36 407.46 316.41 406.69 316.36 406.65 316.35 406.13 316.25 405.99 315.97 405.78 315.7 405.14 315.1 404.44 314.23 404.09 313.9 403.53 313.68 403.04 313.74 402.54 313.79 401.91 313.9 401.14 313.9 400.65 313.74 400.16 313.63 399.52 313.63 399.03 313.63 398.54 313.74 397.77 314.01 397.27 314.34 396.85 314.66 396.43 315.16 395.94 316.03 395.52 316.63 395.17 317.06 394.75 317.61 394.39 318.32 394.11 319.14 393.83 320.01 393.83 321.04 394.11 322.19 394.6 324.86 394.53 325.52 394.39 325.84 393.2 327.42 392.36 326.22 392.07 325.73 391.58 324.75 391.23 323.99 390.74 323.55 390.32 323.22 389.62 322.79 388.56 322.3 387.51 321.75 382.59 319.41 380.83 318.7 379.78 318.32 378.94 318.26 378.38 318.26 377.53 318.21 376.9 318.15 376.55 318.04 376.06 317.94 375.78 317.72 375.36 317.28 374.79 316.79 373.67 315.54 372.9 314.39 372.48 314.06 371.56 313.74 371 313.68 370.51 313.74 369.74 313.74 368.75 313.79 368.12 313.68 367.77 313.52 366.86 313.14 363.69 312.26 362.64 312.26 362.22 312.43 361.38 312.54 360.95 312.65 360.53 312.7 360.11 312.75 359.48 312.65 358.85 312.65 357.44 312.7 356.25 312.7 355.33 312.7 354.98 312.7 354.49 312.59 353.72 312.48 353.02 312.32 352.17 312.1 351.05 311.99 349.29 312.04 344.73 311.88 343.46 311.93 342.69 312.04 339.18 312.32 338.54 312.21 338.05 312.1 337.49 311.93 336.93 311.83 335.03 311.61 334.05 311.55 333.13 311.5 332.5 311.17 331.94 310.79 331.52 310.52 330.89 310.35 329.76 310.19 328.36 309.97 324.21 309.21 323.23 309.15 322.74 309.21 322.25 309.21 321.75 309.04 317.96 308.17 317.05 307.74 316.7 307.3 316.2 306.92 315.78 306.43 315.29 306.21 314.45 306.16 313.39 305.99 311.78 305.72 311.22 305.5 310.86 305.17 310.58 304.95 310.23 304.52 309.81 304.25 308.55 303.32 307.28 302.66 306.3 302.34 305.45 302.12 301.52 301.3 300.68 301.25 299.76 301.19 299.06 301.03 298.5 300.76 298.22 300.54 297.66 300.27 296.74 299.88 295.62 299.56 293.86 299.28 291.12 298.85 290.28 298.52 289.58 298.14 288.8 297.54 287.82 296.94 286.62 296.12 285.08 295.41 283.32 294.65 280.79 293.72 279.53 293.56 278.83 293.67 272.79 294.6 271.45 295.08 270.54 295.47 269.91 296.12 269.41 296.45 269.13 296.61 268.57 296.72 268.29 296.72 267.87 296.61 267.37 296.56 266.67 296.56 265.55 296.67 264.64 296.83 263.79 297.05 262.74 297.32 261.69 297.76 260.77 298.03 260.14 298.08 259.72 298.14 259.37 298.09 258.59 298.08 257.61 298.19 256.63 298.19 255.5 298.36 254.45 298.58 253.61 298.79 252.13 299.34 247.84 301.47 246.58 302.39 244.75 303.98 244.19 303.97 243.91 303.59 244.19 302.28 244.05 301.03 243.35 299.94 242.93 299.67 242.65 299.5 241.8 299.07 241.31 298.96 240.82 298.79 239.98 298.9 239.2 298.96 238.43 298.96 237.94 298.96 237.52 298.85 236.88 298.47 234.92 297.32 234.57 297.21 233.93 297.1 233.44 297.16 232.74 297.32 230.28 298.85 228.67 299.89 227.96 300.1 227.54 300.21 227.12 300.27 226.49 300.27 225.5 300.05 225.01 299.83 224.1 299.29 223.61 298.9 223.11 298.41 222.83 297.71 222.41 296.78 222.2 296.23 221.92 295.85 221.64 295.58 221.15 295.31 220.87 295.25 220.23 295.09 219.74 294.98 217.64 295.47 214.82 296.72 213.42 297.6 211.94 298.47 211.17 299.18 210.4 299.78 209.98 300.43 209.84 301.03 209.56 301.52 209.42 302.34 209.84 303.38 211.59 304.79 211.95 305.12 211.95 306.27 211.95 306.54 210.82 307.41 210.54 307.52 209 307.08 208.08 306.98 207.45 306.92 205.69 307.08 204.36 307.36 203.8 307.68 202.53 308.45 201.48 309.43 200.99 309.98 200.71 310.3 200.35 310.79 200.14 311.45 200.07 312.05 199.93 312.81 199.51 313.3 198.32 314.34 197.83 314.61 197.41 315.1 197.19 316.03 196.98 316.9 197.62 319.95 198.04 321.26 198.32 321.92 198.6 322.52 198.88 323.12 200.36 324.04 200.92 324.32 201.48 324.64 201.76 324.97 202.04 325.35 202.54 325.73 203.03 326.22 203.24 326.61 203.03 327.21 202.97 327.69 202.96 327.81 202.25 327.97 201.48 328.24 200.78 328.35 200.08 328.68 199.66 329.22 199.09 329.77 198.79 329.84 198.6 329.88 196.92 329.44 195.51 329.11 194.74 328.95 194.11 329.01 193.26 329.33 192.7 329.82 192 330.53 191.44 331.46 190.81 332.28 190.17 333.04 189.61 333.7 188.98 334.35 188.28 335.33 184.97 340.51 183.36 342.58 182.73 343.29 182.38 343.95 182.1 344.71 182.1 345.31 181.81 346.13 181.96 346.95 182.17 347.49 184.84 349.56 185.33 349.95 185.61 350.38 186.8 352.62 186.8 353.05 186.94 354.53 186.81 354.52 185.47 354.47 184.41 354.42 182.8 354.47 182.24 354.47 181.75 354.53 181.18 354.69 180.76 354.85 180.34 355.12 179.85 355.56 178.73 359.54 177.67 362 177.6 362.32 177.39 362.54 176.83 362.87 175.78 363.3 175.14 363.58 174.58 363.85 174.16 364.34 173.67 364.94 173.46 365.65 173.25 366.41 173.11 367.51 173.11 368.27 173.67 369.85 174.72 371.76 175.29 372.79 176.83 374.86 180.28 377.59 181.05 378.19 181.89 378.57 182.87 378.9 184.21 379.17 185.05 379.17 186.74 379.06 187.37 379.55 188 379.93 188.35 380.21 188.99 380.59 189.62 381.19 190.67 381.79 191.02 382.06 193.13 382.39 193.25 382.6 193.34 382.77 193.41 383.37 193.76 386.04 194.12 387.02 194.89 388.39 196.01 389.91 196.79 390.62 197.56 391.11 198.33 391.49 199.03 391.6 200.79 391.98 201.35 392.09 201.91 392.26 202.33 392.37 202.62 392.48 202.62 392.49 202.9 393.02 203.18 393.89 203.32 394.66 203.95 395.42 204.65 396.07 209.04 398.67 209.08 398.69 208.45 398.8 207.53 398.8 206.69 398.85 204.58 398.69 203.46 398.64 202.55 398.58 201.7 398.53 200.93 398.53 200.09 398.64 199.39 398.91 198.54 399.18 198.33 399.4 198.05 399.89 198.05 401.74 198.19 403.87 198.47 405.34 198.83 406.87 199.18 408.34 199.46 409.21 200.16 410.52 200.44 411.29 200.93 411.94 201.07 412.54 201.43 413.8 201.64 414.18 201.71 414.78 201.78 415.32 201.92 416.03 202.2 416.63 202.48 417.28 202.48 418.27 202.48 419.19 203.67 423.94 203.82 424.81 203.96 425.68 204.17 426.17 205.36 427.15 205.22 427.92 205.36 428.52 205.57 429.17 205.78 429.55 206.49 430.37 206.13 430.75 205.92 431.24 205.92 433.04 205.92 433.53 205.92 433.92 206.14 434.24 206.7 434.73 207.12 434.73 211.96 432.17 212.18 432.06 212.74 431.84 216.46 431.84 218.64 431.73 220.18 431.62 220.88 431.52 221.66 431.3 221.87 431.13 222.22 431.02 222.22 430.75 222.43 430.7 222.64 430.64 222.86 430.64 222.92 430.64 223.27 430.97 223.34 431.46 223.48 431.62 223.77 431.73 224.54 431.9 226.57 432 227.91 432.28 229.24 432.66 230.37 433.1 231.07 433.15 232.4 433.37 232.46 433.46 232.97 434.29 233.46 434.68 234.02 435.11 233.99 435.15 233.6 435.55 232.34 435.22 231.14 435 230.16 434.79 229.24 434.62 228.68 434.51 227.7 434.24 226.29 434.02 225.38 434.02 224.26 433.86 222.78 433.8 220.89 433.97 217.23 434.46 215.9 434.84 215.05 435.11 214.14 435.5 213.44 435.82 213.02 436.15 212.74 436.37 212.46 437.08 212.46 438.17 212.25 438.66 212.18 439.1 211.97 439.31 211.54 439.75 210.7 440.19 209.93 440.57 209.37 441 208.81 441.49 208.59 442.09 208.24 442.91 207.75 444.66 207.68 445.64 207.68 446.78 207.54 448.37 207.68 450.38 207.82 453.38 207.75 454.47 207.96 455.34 208.11 456.11 208.32 456.82 208.74 457.74 208.81 458.34 209.09 459.05 209.58 459.6 210.84 460.36 211.69 460.52 213.23 460.74 214.57 461.01 215.48 461.18 216.11 461.07 217.17 460.8 218.01 460.42 218.99 459.81 219.76 459.16 220.4 458.51 220.54 458.01 220.89 457.69 221.52 457.2 222.79 456.6 223.49 456.32 224.26 455.94 224.75 455.56 225.67 454.74 226.58 453.87 227.28 453.11 227.7 452.45 227.98 451.96 228.26 450.98 227.98 449.45 227.84 449.13 227.77 448.85 227.7 448.74 227.7 448.42 227.84 448.04 229.03 447.44 229.39 447.38 230.02 447.22 233.46 447.27 234.02 447.27 235.22 447.38 240.06 449.07 242.31 450.22 243.72 450.65 244.7 451.14 245.33 451.52 245.82 451.96 246.1 452.18 246.6 452.34 246.81 452.29 247.37 452.4 248 452.72 248.63 453 249.12 453.21 249.9 453.27 251.16 453.21 251.58 453.11 252.07 453.1 252.5 453.1 252.67 453.48 252.78 453.71 253.34 456.76 253.9 457.52 254.39 457.8 255.59 458.07 256.39 458.26 256.5 458.29 256.22 459.49 256.22 460.25 256.15 460.68 256.36 461.18 255.73 461.83 255.52 462.16 255.38 462.38 255.52 463.52 256.01 464.61 256.15 464.99 256.36 465.32 259.87 465.92 260.64 465.97 260.92 466.14 260.88 466.24 260.78 466.46 258.47 467.99 258.26 468.32 258.26 468.7 258.4 469.63 258.61 470.17 258.82 470.55 258.89 474.15 259.1 474.97 259.38 475.41 259.45 476.01 259.49 476.12 259.66 476.61 259.66 477.53 260.22 478.9 260.93 479.61 261.28 480.1 261.44 480.87 261.49 481.13 261.35 481.24 260.65 481.08 259.66 480.31 259.38 479.99 258.89 479.82 258.19 479.88 257.55 480.15 257.2 480.59 256.78 486.04 257.14 488.55 257.84 490.46 258.61 492.04 259.24 493.67 260.01 495.47 261 496.18 261.28 496.95 261.77 498.14 262.54 499.56 263.04 500.71 263.39 501.25 263.6 502.4 264.16 504.47 265.99 507.58 267.04 508.5 267.81 509.16 268.37 509.49 269.36 509.87 269.99 510.09 270.69 510.2 271.18 510.2 271.68 510.41 272.45 510.74 273.29 511.07 273.78 511.18 274.34 511.34 274.91 511.56 275.82 512.21 276.17 512.49 276.94 512.76 278.79 512.92 279.47 512.98 281.37 514.12 282.42 514.56 283.69 515.05 285.3 515.32 286.63 515.59 289.02 515.7 289.44 516.08 290.01 516.41 290.36 516.63 291.06 516.85 294.64 516.85 296.89 516.3 297.66 515.97 298.58 515.19 299.98 514.01 301.24 513.79 302.93 513.63 303.7 513.63 304.4 513.41 305.25 513.25 305.81 513.08 306.09 512.87 306.58 512.76 306.79 512.76 306.87 512.79 307.35 512.98 308.13 513.19 309.18 513.3 314.03 513.3 314.45 513.19 314.94 513.3 315.78 514.17 316.83 515.05 317.26 515.32 317.54 515.43 318.17 515.37 318.4 515.25 320.7 514.01 321.12 513.58 321.47 513.14 321.96 512.81 323.09 512.48 323.09 512.81 322.95 513.19 322.38 514.17 321.68 515.26 321.26 516.03 320.98 516.74 320.35 517.61 319.43 518.65 318.87 519.52 318.66 519.74 318.45 520.23 318.59 520.72 318.87 521.21 319.5 521.65 320.42 522.41 320.7 522.57 320.77 523.28 320.84 524.26 320.77 525.24 320.98 527.04 321.68 529.82 321.82 530.64 322.24 531.02 322.59 531.41 322.8 531.73 323.65 531.95 324.63 532.22 324.91 532.28 325.26 532.28 325.68 532.39 325.97 532.5 326.46 532.71 327.23 533.37 328 533.75 328.63 533.97 329.06 534.24 329.34 534.41 329.62 534.9 329.9 535.55 330.04 536.31 330.46 536.91 330.67 537.68 331.02 538.66 331.67 539.8 333.27 542.64 333.76 543.95 334.39 544.6 335.02 545.26 335.66 545.8 336.08 546.29 336.5 546.67 336.92 547.33 337.27 547.76 337.34 548.31 337.41 549.62 337.34 551.09 337.41 552.24 337.48 552.84 337.76 553.54 338.25 554.04 338.61 554.42 338.89 554.69 339.31 554.96 339.38 555.13 339.59 555.73 339.8 556.49 339.8 556.98 339.8 557.69 339.66 558.4 339.38 559.16 339.31 559.71 339.24 560.2 339.24 563.25 339.31 564.18 339.1 564.89 338.82 565.49 338.33 565.98 337.76 566.69 336.64 567.28 331.72 568.81 329.12 569.25 328.14 569.47 324.14 569.57 323.02 569.52 322.59 569.47 322.03 569.3 321.4 569.08 320.49 568.21 319.93 567.72 319.36 567.5 318.94 567.39 318.38 567.34 317.33 567.34 316.27 567.67 315.71 567.94 315.01 568.48 314.1 569.47 313.6 570.18 313.39 570.83 313.32 571.43 313.46 573.12 314.03 574.75 315.08 576.77 316.06 577.92 317.05 578.9 318.1 579.61 319.15 580.37 321.12 581.24 321.82 581.73 322.8 582.12 323.58 582.23 324.14 582.33 324.63 582.5 324.84 582.72 325.47 583.1 326.18 584.24 326.46 584.57 326.74 584.68 327.23 584.95 328.84 585.23 330.32 584.95 330.95 584.57 331.51 584.3 331.65 583.86 331.72 583.21 332 582.99 332.64 582.61 333.2 582.5 333.83 582.5 343.03 584.68 345.56 585.61 347.17 585.99 348.02 586.32 348.58 586.48 349.14 586.81 349.56 587.19 349.75 587.39 350.19 587.84 350.82 588.28 351.46 588.66 354.83 590.41 356.79 591.17 358.06 591.77 359.67 592.64 360.73 593.24 362.2 594.11 363.6 594.66 369.29 596.24 370.56 596.95 371.33 597.44 372.38 598.09 373.08 598.75 373.72 599.62 374.42 600.44 375.33 601.58 375.61 601.91 375.75 601.97 375.96 602.08 376.03 602.24 376.24 602.57 375.26 602.46 374.7 602.4 374.21 602.24 373.79 602.13 373.16 601.91 371.61 601.42 368.17 600.17 362.55 597.77 361.92 597.33 361.22 596.57 360.58 596.02 359.11 595.26 358.2 594.77 357.14 594.39 356.23 594.11 353.77 593.19 348.44 591.11 345.28 590.13 342.54 589.21 340.99 588.77 339.38 588.82 338.82 588.82 338.53 588.93 338.11 589.04 337.69 589.26 337.69 589.53 337.48 589.91 337.48 590.3 337.62 591.39 337.76 592.64 337.76 593.35 337.9 593.79 337.97 594.77 337.9 596.35 337.76 596.73 337.69 597.11 337.62 597.6 337.48 597.98 336.92 599.13 336.64 600.17 334.88 603.66 334.53 604.04 334.04 604.25 333.48 604.47 332.78 604.69 332.35 604.8 330.46 606 329.9 606 329.41 605.94 329.97 604.25 330.39 603.65 330.95 602.67 331.72 601.85 333.48 599.95 334.39 597.98 334.53 597.11 334.39 596.35 334.25 595.48 332.78 591.71 331.65 590.79 331.23 590.51 330.46 590.24 329.62 589.86 327.58 589.15 326.24 589.04 325.61 589.04 324.28 588.93 318.52 588.17 317.47 587.9 316.98 587.57 316.27 587.24 315.57 586.91 311.29 583.37 306.79 579.23 306.3 577.15 306.02 576.72 305.67 575.68 305.53 574.81 305.53 573.34 305.74 572.19 305.81 571.48 306.09 570.78 306.58 570.01 307.14 569.19 307.71 568.59 308.27 568.1 309.18 567.23 310.94 565.76 312.06 565.27 313.85 564.42 314.03 564.34 317.05 563.2 321.47 561.78 322.24 561.56 324.21 561.12 327.58 560.2 329.05 559.81 332 558.18 332.36 557.69 332.57 557.2 332.64 556.33 332.78 554.96 332.64 553.11 332.78 552.45 332.29 550.16 331.72 549.02 331.3 548.15 330.04 545.96 326.81 540.29 325.96 539.69 325.26 539.31 324.28 539.04 323.44 538.93 320.21 538.6 319.71 538.44 319.57 538.33 319.36 538.22 319.15 537.35 318.66 536.26 318.17 535.28 317.68 534.57 315.36 532.88 314.45 532.5 313.18 532.06 311.29 531.52 310.23 531.19 309.53 530.75 308.97 530.32 308.27 529.77 307.85 529.33 307.56 528.62 307 527.92 306.3 527.1 305.53 526.44 304.55 525.68 303 524.7 301.38 523.83 299.28 523.01 297.73 522.46 296.61 522.25 295.77 522.14 294.5 522.24 293.17 522.35 292.46 522.41 291.62 522.46 291.06 522.35 290.71 522.3 290.01 522.08 289.02 521.75 287.69 521.43 286.21 521.15 284.25 520.83 283.48 520.56 283.05 520.06 282.7 519.63 282.07 519.36 280.88 519.14 277.23 518.48 276.38 518.21 275.96 517.94 275.47 517.61 274.91 517.28 274.06 517.01 273.08 516.85 271.19 516.74 269.71 516.79 268.59 516.96 268.16 516.98 267.74 517.01 267.39 516.96 266.97 516.68 266.69 516.41 265.92 516.19 265.43 515.97 264.65 515.92 264.16 515.87 263.11 515.92 261.35 515.65 261.28 515.54 261.14 515.32 261.14 514.94 261.28 514.5 261.22 514.2 261.14 513.79 261.28 512.92 261 512.27 260.65 511.34 260.09 510.58 259.67 509.92 258.75 509 258.05 508.5 257.84 508.12 257.84 507.69 257.77 507.2 257.77 506.71 257.67 506.34 257.63 506.16 257.28 505.62 256.78 505.07 256.64 504.74 256.5 504.2 256.5 503.76 256.5 503.22 256.5 502.34 256.01 500.54 254.4 497.27 253.62 496.07 252.99 495.15 252.08 493.67 251.59 493.02 251.44 492.53 251.52 492.2 251.44 491.38 251.23 490.57 251.09 489.91 250.81 488.77 250.25 487.84 249.97 487.29 249.48 486.31 248.99 485.44 248.64 484.73 248.28 483.7 248.14 482.33 248 481.73 247.86 480.75 247.37 478.24 246.39 472.35 245.4 470.56 244.77 469.9 243.72 469.19 242.59 468.76 241.33 468.43 239.43 468.05 238.1 467.77 237.33 467.61 236.55 467.34 235.71 467.17 234.02 467.01 231.99 466.79 226.93 466.85 225.95 467.01 225.31 467.12 224.89 467.34 224.68 467.56 224.55 467.76 224.4 467.99 224.26 468.38 223.98 468.59 223.7 468.7 223.28 468.7 222.72 468.7 222.08 468.76 220.26 468.98 219.13 469.14 217.45 469.57 213.87 470.56 213.02 470.94 212.25 471.43 211.69 471.54 211.49 471.54 211.27 471.54 210.99 471.27 210.71 470.99 210.35 470.61 209.65 470.23 208.95 469.96 208.39 469.68 207.69 469.47 206.56 469.14 205.44 468.76 201.79 467.34 200.59 467.01 199.95 466.98 199.4 466.96 198.91 466.9 198.76 466.74 198.55 466.25 198.48 465.49 198.34 464.94 198.06 464.23 197.57 463.47 196.8 462.98 195.67 462.54 194.41 462.32 193.92 462.38 193.15 462.49 192.58 462.71 192.02 462.98 191.04 463.31 189.99 463.52 189.56 463.58 189.21 463.58 188.37 463.36 187.88 463.14 187.53 462.76 186.75 460.85 187.25 460.53 187.6 460.42 188.65 460.14 189.49 459.76 190.19 459.33 191.04 458.94 191.53 458.4 191.88 458.13 192.09 457.58 192.3 456.98 192.37 456.22 192.3 455.35 192.16 454.58 192.02 453.55 192.09 453.06 192.02 452.24 191.81 451.09 192.02 450.06 192.09 449.13 192.3 448.04 192.58 446.84 192.79 446.24 193.07 445.64 193.56 445.15 194.13 444.28 194.62 443.08 194.9 442.15 194.9 441.33 194.69 440.3 194.62 439.7 194.41 438.44 193 434.84 192.37 433.81 191.74 432.93 191.03 432.39 190.68 432.17 190.4 431.9 190.19 431.52 190.12 431.35 189.98 430.92 189.84 430.54 189.56 429.99 189.14 429.39 188.57 428.85 188.51 428.74 188.29 428.36 188.01 427.81 187.8 427.43 187.66 427.05 187.38 426.56 187.1 425.96 187.03 425.47 187.03 424.7 185.76 421.76 185.27 421.38 184.5 420.99 183.44 420.56 182.74 420.12 182.39 419.69 182.18 419.3 181.83 419.14 181.34 418.98 180.77 418.76 179.72 418.76 179.48 418.66 179.3 418.6 179.44 418.43 179.44 418.27 180.49 417.61 181.2 417.12 182.04 415.21 182.04 414.23 181.9 413.42 181.83 412.6 181.62 411.67 181.2 410.58 180.56 409.33 180.07 408.29 179.72 407.69 179.58 407.2 179.58 406.87 179.44 406.38 179.3 405.34 178.95 404.42 178.67 403.55 178.03 401.37 177.19 399.29 176.49 397.66 175.99 396.79 175.29 396.08 174.73 395.59 173.68 394.82 172.41 394.22 171.64 393.84 170.58 393.46 169.32 393.19 167.7 392.7 166.51 392.21 164.26 391.61 163.35 391.17 163.21 390.95 162.93 390.57 162.65 390.08 162.43 389.81 161.87 389.21 161.31 388.66 160.75 388.34 158.99 387.63 157.03 386.75 155.06 386.16 154.29 386.05 154 385.77 154 385.74 154.01 385.39 154 385.01 154.15 384.41 154.29 383.92 154.99 382.5 155.41 381.63 155.69 381.03 155.76 380.48 155.55 380.05 155.41 379.67 154.99 379.12 154.64 378.85 154.14 378.58 153.51 378.41 152.39 378.25 149.09 377.81 146.63 377.81 145.22 377.65 144.59 377.43 144.31 377.21 144.24 376.83 144.1 376.56 143.75 375.58 143.25 374.87 142.97 374.54 142.48 374 141.64 373.51 140.72 372.85 140.09 372.58 139.32 372.31 138.55 372.09 138.06 371.98 137.7 371.76 137.49 371.6 137.21 371.11 136.72 370.29 136.3 370.02 135.67 369.85 134.82 369.64 134.05 369.53 133.14 369.64 131.73 369.64 129.91 369.53 129.41 369.36 128.36 369.2 127.59 369.04 126.6 368.87 125.48 368.76 124.08 368.66 122.53 368.66 120.77 368.76 119.58 368.93 116 369.58 114.45 369.91 113.47 370.24 112.7 370.73 112.2 371 111.99 371.06 111.98 371.06 111.5 371.06 111.29 370.95 111.01 370.78 110.8 370.62 110.24 370.4 108.76 370.02 107.5 369.91 106.58 369.86 105.95 369.97 105.32 370.08 104.76 370.3 104.26 370.51 103.42 370.79 102.72 370.84 102.3 370.95 101.74 370.95 100.05 370.84 102.44 367.51 101.89 364.99 101.46 363.03 101.16 361.7 100.05 356.61 101.59 355.63 102.08 355.41 102.57 355.35 103.28 355.46 103.98 355.46 104.33 355.35 105.03 355.19 105.46 354.92 106.16 354.86 106.58 354.75 107.35 354.86 108.19 354.81 108.83 354.81 109.32 354.7 109.67 354.59 110.02 354.54 110.79 354.48 111.85 354.37 114.59 353.99 120.98 352.3 125.41 350.17 125.48 349.73 125.62 349.19 125.69 348.59 125.76 348.1 126.25 347.5 126.81 346.19 127.02 345.7 127.04 345.69 127.51 345.43 127.86 345.37 128.85 345.15 129.76 344.55 130.04 344.06 130.25 343.3 130.81 342.05 130.95 341.06 130.95 340.03 130.95 339.54 130.67 338.99 130.39 338.5 130.4 338.16 130.53 337.9 130.81 337.68 130.95 337.36 131.16 336.87 133.9 334.41 134.25 333.59 134.39 332.83 134.53 332.01 134.67 330.92 135.31 329.23 135.66 327.65 135.87 327.05 136.22 326.56 137.06 325.74 137.27 325.25 137.27 324.65 137.41 323.78 137.48 323.07 137.27 322.63 137.06 322.25 136.78 321.98 136.71 321.87 136.71 321.65 137.06 321.54 137.27 321.49 137.55 321.49 138.32 321.49 139.1 321.32 139.59 321.16 139.94 321.05 140.08 320.72 140.15 320.34 140.15 319.85 140.29 317.83 140.29 314.94 140.29 314.02 140.15 312.87 140.01 312.22 139.59 311.73 139.02 311.29 138.11 310.75 137.48 310.42 137.29 310.27 137.27 310.25 137.41 310.09 137.69 309.93 140.08 307.91 140.29 307.36 140.36 306.82 140.43 306.06 140.36 304.09 140.08 303.27 139.65 302.62 139.3 301.97 139.16 301.48 139.3 301.04 139.3 300.44 139.3 299.9 139.09 299.19 138.74 298.64 138.11 298.04 134.31 294.33 133.33 294.17 132.55 294.06 131.5 294.23 130.45 294.44 129.53 294.61 128.27 294.93 126.51 295.7 124.97 296.3 123.42 296.73 122.9 296.74 122.79 296.74 122.72 296.57 122.58 296.3 122.86 295.05 122.86 294.39 125.67 292.48 126.23 291.83 126.3 291.17 126.3 290.57 126.02 290.14 125.46 289.81 125.32 289.59 124.47 289.26 123.7 288.94 122.37 288.5 119.7 287.63 119.49 287.3 119.49 286.98 119.49 286.7 119.53 286.62 119.7 286.32 119.98 286.1 120.54 285.88 120.96 285.72 122.36 285.78 123.63 285.83 124.4 285.88 125.39 286.05 126.37 286.16 131.01 287.35 131.22 287.36 131.78 287.14 132.13 286.97 132.55 286.26 133.53 282.07 133.6 280.76 133.68 278.9 133.67 278.14 133.89 277.65 133.96 277.32 134.1 276.83 134.1 276.23 134.1 275.69 134.03 275.09 133.88 273.94 133.53 272.8 132.83 269.74 132.55 269.09 132.13 268.65 131.63 268.27 131.21 267.89 131.21 267.51 131.21 267.07 131.21 266.53 131.21 265.65 131.21 264.67 130.65 261.46 130.23 260.58 129.95 259.49 127.07 255.84 126.78 255.51 126.78 255.37 126.78 255.13 126.92 254.86 127.06 254.75 128.12 253.77 128.26 253.38 128.12 252.89 128.12 252.51 127.77 251.15 127.34 250.28 127.2 249.95 127.06 249.62 126.22 248.7 125.45 248.04 123.34 246.68 121.79 246.35 121.02 246.19 120.81 246.08 120.74 245.92 120.81 245.7 121.02 245.48 121.3 245.37 123.13 244.61 123.69 244.23 124.39 243.84 125.02 243.46 125.45 242.97 125.73 242.64 125.73 242.26 125.94 241.88 125.94 241.5 125.58 241.23 125.3 240.74 124.67 240.46 124.11 240.19 120.25 239.1 118.91 238.94 118.35 239.05 117.65 239.26 117.29 239.26 116.52 239.26 114.69 238.77 114.69 238.39 114.69 238.23 114.69 238.01 114.83 237.9 115.26 237.68 115.54 237.19 116.31 236.92 117.15 236.59 118.14 236.27 118.35 236.05 118.63 235.77 119.26 235.28 119.61 235.17 120.17 235.12 120.45 235.12 120.74 235.17 122.42 235.17 123.05 235.06 123.33 234.9 123.33 234.74 124.11 232.72 124.18 231.9 124.32 231.47 124.95 230.59 125.09 230.32 125.09 230.1 125.02 229.83 124.67 229.45 124.18 229.07 122.56 227.48 122.35 226.89 121.72 226.34 120.31 225.47 119.82 225.25 119.54 225.14 119.19 225.14 118.63 225.14 117.92 225.14 112.93 225.63 112.3 225.63 111.67 225.52 110.68 225.2 109.98 224.92 109.49 224.76 108.72 224.87 107.45 225.09 106.54 225.25 105.48 225.47 104.64 225.74 103.73 226.02 102.11 226.89 100.85 227.49 100.5 227.6 100.44 227.57 100.29 227.49 100.15 227.33 100.08 227 100.15 226.62 100.15 225.85 100 225.14 99.87 224.93 99.58 224.87 99.09 224.87 98.74 224.87 95.23 225.04 94.31 225.09 94.03 225.09 93.19 224.87 92.07 224.49 91.08 224.33 90.31 224 89.82 223.95 89.18 223.89 88.9 223.78 88.76 223.62 88.48 223.4 88.2 223.24 88.2 223.02 88.48 222.91 88.76 222.91 89.04 222.91 89.54 222.96 90.1 223.07 90.94 223.24 91.92 223.4 92.84 223.62 93.96 223.84 94.81 223.89 95.65 223.89 96.07 223.78 96.7 223.56 97.55 223.13 98.46 222.75 99.23 222.47 100.85 221.98 101.62 221.87 104.99 221.65 106.82 221.54 108.65 221.16 109.49 220.89 109.77 220.56 110.68 219.74 111.25 219.14 111.67 218.44 111.81 218.22 111.81 217.84 111.53 217.67 111.25 217.4 110.75 217.07 110.26 216.69 108.65 215.71 107.52 215.11 106.89 214.89 106.61 214.84 106.26 214.84 105.83 215 105.48 215.11 104.92 215.44 104.01 215.93 102.88 216.53 102.11 216.69 101.9 216.69 101.62 216.58 101.41 216.53 101.34 216.31 101.41 216.04 101.9 215.55 102.11 215.22 102.46 214.84 102.46 214.57 102.46 214.13 102.67 212.17 101.76 209.77 101.41 209.6 100.98 209.6 97.68 208.9 95.57 208.41 93.82 207.75 93.11 207.26 93.04 206.88 92.06 201.05 91.78 200.23 91.42 199.46 91.07 198.59 90.58 197.56 90.09 196.68 89.32 195.97 88.68 195.48 87 194.56 85.87 194.12 85.38 193.96 85.03 193.9 84.61 194.01 83.83 194.23 82.92 195.05 82.29 195.7 81.87 195.98 80.88 196.08 80.32 195.98 80.31 195.92 80.11 195.16 80.11 194.61 79.97 194.23 79.13 193.96 78.35 193.8 76.88 193.8 76.25 193.85 75.97 193.74 75.97 193.72 75.97 193.31 76.53 192.54 77.23 192.21 77.79 192.05 78.71 191.89 79.62 191.5 80.04 191.12 80.11 190.58 80.11 189.54 80.11 189.32 80.11 188.83 79.69 188.4 79.05 187.53 78.7 186.71 78.42 186.05 78.35 185.34 78.42 184.09 78.77 182.35 78.77 180.76 78.7 179.84 78.35 178.86 78.14 178.36 77.86 177.93 77.36 177.71 77.15 177.71 76.8 177.87 76.59 178.26 75.96 178.97 75.54 179.56 75.12 179.84 74.89 179.79 74.62 179.73 74.34 179.24 74.27 178.58 74.48 177.93 74.27 177.38 73.92 176.73 73.57 176.29 73.85 175.86 74.13 175.42 74.34 174.66 74.34 174.06 74.34 173.4 74.27 172.91 74.2 172.69 74.13 172.53 73.5 172.2 72.09 171.88 70.2 171.77 69.91 171.71 69.88 171.6 69.84 171.5 70.05 171.22 70.62 170.84 70.83 170.68 70.97 170.3 70.62 169.53 70.41 168.71 69.84 167.68 68.79 166.15 67.8 164.79 66.96 163.86 66.19 163.37 65.2 162.94 62.88 162.01 62.32 161.68 62.05 161.58 62.04 161.41 62.04 161.19 62.18 160.97 62.53 160.7 62.67 160.48 62.67 160.05 62.67 159.5 62.39 159.23 62.18 159.01 61.27 158.63 60.49 158.41 58.6 158.08 58.1 158.09 57.54 158.14 56.7 158.25 54.66 158.3 54.24 158.14 54.24 158.13 54.17 157.76 54.24 157.49 54.45 157.32 57.54 155.74 57.54 155.58 57.68 155.25 57.68 154.87 57.68 154.38 56.98 152.63 56.56 152.25 54.87 150.94 54.87 150.94 54.73 150.67 54.73 150.29 54.87 149.96 55.01 149.63 55.01 148.82 55.01 148.16 54.73 147.34 54.45 146.63 53.95 145.93 53.39 145.11 52.48 144.13 51.63 143.04 50.02 140.26 49.24 138.4 47.34 133.93 46.85 132.84 46.71 131.86 46.43 131.21 46.15 130.55 44.53 128.32 44.04 127.55 43.69 126.73 43.62 125.97 43.62 125.15 43.19 123.25 42.7 122.54 42.35 122.1 41.72 121.5 41.72 121.17 41.65 120.9 41.44 120.74 39.96 120.52 39.86 120.44 39.68 120.3 39.75 119.92 39.82 118.17 39.96 117.52 40.17 117.19 40.31 116.76 39.96 116.27 37.29 111.9 36.58 111.31 35.88 110.92 31.8 108.25 31.03 107.38 30.47 106.62 29.9 105.53 29.34 104.27 28.99 103.13 26.88 99.53 26.6 99.04 26.18 98.55 25.76 98.17 25.48 97.57 25.12 96.69 24.84 95.71 24.49 94.84 23.58 93.32 21.96 90.48 21.68 89.61 21.68 89.17 21.68 88.68 21.53 87.43 21.6 86.55 21.68 85.79 21.81 81.05 21.46 80.45 20.83 79.79 20.27 79.36 19.28 78.76 19.19 78.59 19.07 78.38 19.28 77.99 19.35 77.67 19.63 77.28 19.84 76.74 19.7 76.14 19.56 75.54 19.07 75 18.79 74.67 18.58 74.5 17.73 74.01 17.1 73.74 16.68 73.52 16.12 73.2 15.63 72.65 15.06 71.89 14.78 71.62 14.5 71.29 14.08 71.02 13.02 70.53 11.48 69.16 10.17 67.9 9.72 67.47 9.37 66.82 9.37 66 9.37 65.56 10.07 63.06 9.86 62.4 9.86 61.53 9.86 60.6 9.72 59.13 9.51 58.42 9.15 58.04 8.87 57.77 8.38 57.66 7.54 57.39 6.76 57.17 6.13 56.95 5.71 56.79 5.22 56.73 1.36 56.42 1.14 56.41 1 56.13 1.07 55.81 1.21 55.53 1.42 55.26 1.77 54.93 1.98 54.77 1.98 54.44 1.56 54.06 2.82 52.6 2.83 52.59 5.57 54.44 5.92 54.55 6.62 54.55 8.45 53.68 8.59 53.46 8.8 53.02 8.87 52.59 8.87 52.1 9.08 51.06 9.36 49.21 9.36 48.22 9.22 46.86 9.36 45.44 9.15 39.17 8.86 37.43 8.58 36.45 8.51 35.96 8.51 35.57 8.58 34.98 8.79 34.7 9.35 34.05 9.63 33.5 11.32 31.32 12.3 30.01 13.78 26.47 14.2 25.76 14.34 25.32 14.34 24.88 14.2 24.29 13.78 23.52 13.78 22.92 13.78 22.7 13.82 22.7 14.2 22.65 14.62 22.65 16.17 22.43 16.73 22.38 17.22 22.16 17.99 21.56 19.4 20.79 20.1 20.41 21.58 19.49 22.21 18.83 22.42 18.45 22.42 17.74 22 16.38 21.43 14.85 21.22 14.36 20.8 13.98 20.24 13.71 14.12 10.54 13.07 9.62 12.51 8.91 11.45 8.36 11.24 8.26 10.75 7.82 10.68 7.33 10.75 6.84 11.1 6.51 11.45 6.29 13.91 5.75 14.33 5.53 14.61 5.2 14.96 4.71 15.17 4.17 15.24 3.4 15.45 3.08 15.6 2.91 16.09 3.02 16.37 3.29 16.65 3.62 17.14 5.64 17.21 6.29 17.42 6.78 17.49 7.33 17.99 7.82 24.53 11.63 25.3 11.85 25.58 11.91 26.07 12.02 26.35 12.02 26.56 11.91 26.7 11.36 26.14 9.12 25.65 8.31 25.44 8.03 25.3 7.65 25.3 7.22 25.65 6.07 25.65 4.82 25.65 3.94 25.15 3.35 24.52 2.75 23.54 2.2 23.4 2.04 23.12 1.82 22.98 1.66 22.98 1.33 23.19 1.06 23.54 1 Z"/>
</g>
</svg>