<?xml version="1.0"?>
<svg xmlns="http://www.w3.org/2000/svg" version="1.2" baseProfile="tiny" width="800" height="703" viewBox="0 0 800 703" stroke-linecap="round" stroke-linejoin="round">
<g id="buckslake">
<path d="M 641.71 457.96 646 461.13 650.29 463.65 655.59 465.9 658.18 467.04 660.42 467.66 664.27 468.09 674.07 468.81 679.59 469.33 681.47 469.67 682.92 470.16 684.73 471.7 687.31 478.27 687.81 479.31 688.79 480.45 689.62 481.02 691.18 481.43 693.78 482.05 697.41 483.32 699.18 483.98 701.89 484.4 704.49 484.46 705.74 484.51 706.93 484.88 709.01 486.02 711.81 487.65 713.82 489.07 716.61 491.22 719.03 493.73 721.42 494.74 724.84 496.06 727.96 496.84 732.44 497.28 735.46 497.58 740.79 497.42 745.59 497.34 749.97 497.33 759.09 498.08 765.75 499.01 773.15 499.75 777.41 500.39 781.17 500.49 786.08 499.45 790.58 498.47 792.94 498.01 794.93 497.26 795.66 496.87 797.02 496.31 798.29 495.32 799 496.73 798.83 498.05 797.13 499.85 794.41 501.07 790.17 502.33 785.67 503.22 780.03 504.22 771.67 505.28 764.14 506.44 757.3 507.71 749.55 509.7 744.68 511.79 739.02 513.8 732.04 516.68 726.59 519.09 720.26 520.33 712.65 520.07 704.19 520.57 700.97 520.31 695.55 519.54 692.07 518.71 687.6 517.48 684.37 517.01 681.15 516.34 677.49 516.6 673 517.29 668.7 518.46 664.77 519.8 661.31 521.54 657.06 523.6 652.46 524.89 648.6 524.7 645.79 524.08 643.18 524.06 640.57 524.48 637.65 524.82 634.29 526.12 630.36 527.7 626.69 529.36 623.53 531.31 619.37 534.73 614.7 537.07 607.78 539.83 605.49 540.13 604.35 539.32 603.01 538.02 601.36 536.36 598.72 534.9 596.64 534.36 590.91 533.96 582.06 532.49 575.18 531.75 567.73 531.22 558.88 529.75 556.27 530.25 554.01 531.92 551.69 533.63 547.91 535.94 543.35 537.87 536.03 539.26 530.22 540.59 524.37 541.59 516.86 541.65 514.05 541.07 510.18 541.65 507.77 542.35 503.68 544.13 498.07 546.94 492.34 550.39 489.29 552.74 486.18 555.29 482.03 557.75 478.99 558.93 476.16 560.12 474.38 560.51 471.18 562.13 467.3 563.71 463.54 564.08 460.3 564.82 455.94 566.92 453.64 567.51 451.24 567.45 449.26 568.16 447.17 567.66 446.04 566.69 444.14 564.63 442.29 562.12 440.9 560.34 438.62 559.28 437.39 557.71 434.35 554.39 430.3 549.18 427.46 546.39 426.75 544.54 426.42 541.56 424.64 538.58 421.12 535.73 418.07 533.83 413.71 532.39 409.44 531.52 403.13 531.03 395.99 531.34 390.24 531.9 386.47 532.95 383.43 534.42 380.53 537.05 379.99 543.27 379.6 549.1 380 551.03 380.71 552.24 381.04 555.13 380.83 559.79 381.47 562.45 381.86 564.78 381.24 569.04 380.09 573.6 379.07 575.85 377.38 577.8 373.63 581.07 372.47 582.51 370.41 584.22 369.04 585.33 365.7 586.32 363.19 586.7 360.73 587.28 358.83 588.72 357.98 590.56 357.79 592.49 358.01 596.02 357.46 598.67 356.03 600.83 353.99 603.34 353.24 606.8 351.98 611.85 351.16 613.48 350 615.77 347.18 620.29 347.09 624.23 347.77 627.65 346.97 633.95 346.14 637.96 343.6 645.09 343.23 650.39 344.06 654.42 344.9 658.36 345.7 661.34 350.1 668.16 355.17 675.39 359.97 679.96 364.06 682.16 368.01 683.59 374.2 684.88 378.16 685.11 380.86 685.45 383.89 685.03 390.46 685.12 392.96 685.42 400.24 687.6 404.41 687.43 408.92 685.37 412.98 682.07 415.28 680.84 418.9 679.9 427.96 680.13 440.9 680.06 446.74 679.66 449.55 680.04 445.41 682.46 441.42 684.41 436.86 686.18 430.07 687.53 424.84 688.26 419.13 690.59 417.45 691.62 412.45 695.56 407.67 697.82 401.51 698.53 396.92 699.19 392.63 700.12 385.56 702 381.35 701.41 374.91 698.95 370.44 697.63 362.89 697.09 356.13 695.56 348.62 695.55 345.18 695.4 341.03 693.88 337.25 691.77 334.34 690.66 329.41 688.26 324.76 685.05 321.28 683.98 318.78 683.6 314.86 684.7 309.01 685.66 301.92 685.29 298.16 685.26 292.94 685.91 285.2 688.1 280.64 690.07 273.66 693.72 265.19 691.21 263.64 689.75 264.04 687.27 262.49 685.93 259.26 685.51 256.76 685.77 256.14 684.64 258.19 683.33 259.13 683.26 260.39 683.02 263.32 681.4 269.46 678.51 275.63 677.14 280.02 675.93 284.19 672.43 288.78 667.92 293.03 665.42 295.77 663.43 295.96 660.78 296.68 657.17 298.67 652.4 299.38 649.19 299.17 645.17 299.81 643.65 302.24 645.6 304.62 646.94 306.29 647.19 307.96 646.97 310.38 645.58 312.67 643.12 312.75 643.02 314.12 642.03 317.54 643.98 320.35 644.36 322.13 643.41 328.1 637.55 330.17 634.43 331.4 631.43 332.25 625.97 333.84 620.12 336.85 612.3 337.67 609.26 337.86 603.34 338.39 601.79 340.91 595.94 343.7 590.02 345.59 583.96 347.48 578.75 349.56 571.34 351.54 566.57 353.49 560.19 353.94 558.19 353.72 554.49 352.65 552.24 350.91 549.69 349.32 547.59 346.94 545.65 344.77 544.35 342.64 543.57 339.83 543.22 335.66 542.83 329.82 543.16 319.39 542.68 313.66 542.35 310.31 542.94 306.55 543.71 301.17 544.55 296.88 545.01 294.15 546.43 290.95 548.22 288.03 548.36 284.89 548.98 281.13 549.92 279.44 551.43 277.7 553.35 275.16 555.62 272.38 557.2 270.82 557.19 267.99 558.42 264.2 560.68 261.81 560.42 260.25 559.61 258.19 557.87 255.34 556.16 252.12 554.89 248.18 553.46 243.07 552.86 237.02 553.3 230.33 554.01 226.88 554.95 223.22 555.93 217.58 555.93 213.1 556.26 210.84 557.29 208.01 558.52 206.22 559.87 205.63 561.35 205 562.35 203.94 563.39 201.01 563.57 199.65 563.72 198.5 564.19 197.04 564.06 195.28 562.84 192.69 561.42 191.24 561.21 189.25 561.88 185.91 561.98 183.2 561.72 180.98 560.29 176.74 556.41 173.5 552.65 170.86 550.9 168.78 550.65 167.63 550.88 164.74 552.7 161.28 554.04 158.56 554.43 157.11 554.02 155.98 552.72 155.02 549.74 153.66 546.12 151.67 542.53 150.45 539.91 147.81 537.76 145.85 536.34 143.35 535.84 141.58 535.95 140.21 536.58 138.11 538.09 135.12 539.92 132.81 540.91 129.35 541.81 127.48 541.47 125.82 540.34 124.76 538.28 123.85 535.86 122.15 534.16 120.17 533.43 118 531.85 116.73 529.43 115.09 526.16 113.07 524.86 111 524 108.92 523.31 106.75 521.8 105.27 519.3 104.77 517.17 104.96 514.64 104.3 512.71 103.71 511.82 102.25 509.6 100.23 508.38 97.84 507.84 95.56 506.78 93.39 505.32 91.99 503.86 90.35 501.68 89.08 498.74 88.04 494.23 87.52 489.81 87.31 485.72 87.53 480.33 87.73 476.23 88.34 473.27 89.51 470.87 90.74 468.62 92.33 466.35 94.18 464.43 95.15 461.98 94.51 459.13 93.49 456.87 92.33 453.41 89.49 450.86 87.84 449.44 86.29 448.22 84.7 446.12 83.06 443.7 81.05 441.36 78.67 439.61 75.41 437.98 71.78 435.51 67.59 432.63 63.29 430.39 59.97 429.28 58.19 429.35 53.69 430.32 51.81 430.39 52.79 426.86 53.95 422.01 54.24 419.52 53.49 416.94 53.49 416.7 53.84 413.61 55.39 410.61 56.41 407.8 55.7 406.43 53.41 405.61 50.5 404.71 46.92 403.6 44.95 402.05 43.08 401.28 40.06 401.38 38.4 400.84 35.03 398.73 32.34 396.9 30.45 393.6 28.65 391.18 26.59 388.71 25.63 386.5 25.15 382.88 23.47 379.45 21.71 378.48 19.67 378.34 18.32 377.97 16.34 377.79 14.36 377.94 12.84 378.45 9.91 379.6 6.04 380.13 2.5 379.38 1 378.21 2.39 375.13 3.63 371.8 5.84 365.99 8.24 361.87 10.94 358.23 13.03 353.67 14.67 351.43 17 348.19 17.5 345.79 18.73 343.58 20.01 340.82 20.4 338.65 20.21 337.49 19.39 336.16 18.65 332.7 18.11 329.07 17.93 326.62 18.86 323.33 21.16 318.85 21.96 317.05 23.67 313.61 23.33 311.96 22.62 310.22 20.5 308.6 21.46 306.64 23.94 304.21 28.74 299.66 30.74 297.95 35.43 293.92 39.92 289.33 40.24 288.86 41.3 287.74 41.7 284.29 42.21 280.72 42.39 279.03 42.74 275.98 43.14 272.72 43.88 272.01 44.93 271.7 48.13 269.99 49.41 268.23 50.43 265.42 52.3 261.34 55.01 257.46 57.34 254.55 60.03 251.63 63.77 248.53 66.84 245.21 69.22 242.18 71.92 239.46 76.81 235.92 81.75 233.39 86.21 231.01 89.58 227.94 92.9 225.35 96.74 222.93 99.77 221.94 103.64 221.61 108.44 221.64 113.14 221.07 117.33 219.57 121.26 218.52 122.74 217.21 124.1 216.53 125.14 216.66 126.39 217.07 128.27 217 130.78 216.13 132.76 216.07 134.95 216.61 136.83 216.7 138.09 215.99 138.1 214.91 138.48 213.5 139.84 212.99 142.03 213.2 144.53 213.99 147.45 214.08 151.31 213.67 155.4 212.49 157.82 210.78 159.25 208.87 162.05 205.71 164.8 203 168.75 199.77 172.61 195.38 176.59 189.74 178.89 185.38 180.01 182.9 181.18 181.1 183.44 179.75 186.37 179.09 188.36 178.86 190.24 178.15 192.12 177.8 195.46 177.7 199.01 177.61 201.22 176.7 203.58 175.39 204.63 175 207.45 174.65 214.75 174.87 224.13 175.82 232 176.28 237.94 176.76 242.11 177.52 244.5 178.33 246.8 178.31 249.4 178.69 252.93 179.72 257.14 181.32 260.78 182.67 264.63 183.5 268.07 183.24 272.99 182.07 278.91 179.87 281.75 178 283.71 175.52 284.37 172.91 284.25 169.7 283.71 167.32 282.79 165.39 280.81 161.48 278.73 156.12 278.22 151.25 278.94 147.69 280.72 142.84 282.04 136.82 282.47 131.4 282.35 128.03 281.01 123.24 280.2 120.54 280.07 118.17 280.99 115.56 282.59 113.12 282.88 110.76 281.96 108.5 280.21 107 278.82 105.34 278.32 103.33 276.85 99.66 275.47 97.73 273.71 96.43 270.07 95.52 266.42 95.34 263.39 95.55 260.15 95.69 258.48 95.68 257.03 95.51 256.2 95.26 255.37 94.09 254.83 91.55 255.33 88.94 255.74 85.05 257.13 82.89 258.71 81.66 264.12 78.16 266.81 75.57 269.36 72.45 271.86 68.21 273.11 63.76 274.03 60.84 274.75 58.19 275.72 55.51 276.22 53.1 276.14 50.93 275.48 48.75 274.88 47.06 274.94 46.22 275.27 45.22 276.22 43.86 277.7 42.55 278.6 41.42 279.57 38.98 279.02 36.85 278.1 35.6 276.44 34.62 275.93 33.61 275.91 31.32 276.94 28.04 277.98 23.62 278.51 18.49 279.97 14.6 283.4 11.05 286.66 8.98 289.97 7.2 291.13 6.6 293.02 5.69 294.48 5.22 297.32 3.92 298.32 3.04 298.75 1.96 298.97 1 300.85 1.41 303.02 2.63 304.2 4.45 304.3 4.82 305.15 8.15 305.12 10.24 304.48 11.52 304.92 13.73 304 16.42 303.87 22.92 305.04 25.59 304.9 28.44 304.11 29.52 301.8 29.98 301.59 30.1 300.65 30.5 300.01 31.25 300.31 32.58 302.23 33.92 303.36 34.93 303.97 36.38 305.73 37.52 307.64 38.94 308.35 40.88 307.95 44.05 307.83 44.97 307.12 47.78 307.4 50.11 308.68 52.57 309.91 54.46 310.56 56.64 310.25 61.1 309.49 63.58 309.29 66.83 310.05 68.49 310.35 69.73 309.28 71.49 309.07 72.02 308.36 74.26 307.92 76.55 308.75 80.89 308.96 85.15 309.08 92.3 309.63 98.81 308.97 102.06 308.96 102.47 309 103.83 309.78 106.06 309.9 106.41 310.67 108.38 310.54 110.19 309.94 112.28 310.34 114 312 118.4 313.29 120.13 314.52 121.79 315.01 124.32 317.54 126.51 320.06 129.46 320.16 130.19 321.53 133.49 323.68 136.8 325.89 139.39 328.21 141.81 331.82 145.01 337.25 149.35 341.54 152.35 346.78 155.28 348.13 155.69 350.53 155.55 352.82 156.17 356.97 158.25 357.21 159.54 356.36 161.1 352.82 164.25 348.64 169 347.47 171.4 346.65 173.96 346.33 175.33 344.04 178.89 343.39 180.57 342.89 182.9 342.46 184.46 341.54 187.02 341.09 189.31 341.43 191.32 342.76 193.42 344.37 194.56 345.4 195.69 346.11 196.82 347.36 197.59 349.13 198 351.53 197.58 353.52 196.83 356.03 196.73 358.01 197.1 363.68 198.27 370.14 199.4 374.51 200.07 378.89 200.39 381.71 200.05 385.58 198.99 389.11 197.09 392.79 194.46 395.89 191.99 400.15 189.33 404.04 187.31 406.35 185.44 410.18 184.18 412.38 183.48 412.57 184.77 411.24 187 408.43 190.88 406.88 193.96 405.71 196.16 405.2 198.73 405.94 202.83 406.94 206.41 407.8 212.65 408.72 218.56 408.71 219.28 409.15 221.78 410.38 223.27 413.03 224.26 417.5 225.57 420.09 227.4 424.47 231.25 430.42 235.43 431.88 235.44 434.09 234.41 437.32 234.56 438.26 234.56 442.74 234.99 446.48 236.11 446.9 236.11 448.88 236.65 451.1 237.95 453.5 238.29 456.63 238.03 460.17 238.9 465.79 239.74 469.65 239.93 473.09 240.11 473.54 241.73 470.82 242.55 468.09 243.74 465.57 245 463.37 245.99 459.65 247.01 455.99 247.71 453.48 248.53 451.38 249.52 449.91 250.23 449.49 250.15 448.14 249.82 445.23 249.12 442.85 247.65 441.29 246.72 436.92 246.04 434.79 245.34 431.45 245.32 428.42 245.66 425.2 244.79 422.81 244.01 417.69 244.53 414.65 245.32 409.05 247.01 403.6 248.57 398.9 249.58 394.35 250.43 390.48 251.21 385.24 252.46 381.27 253.84 378.27 255.18 373.65 258.04 370.64 260.79 366.58 264.17 364.68 265.77 361.98 268.96 361.67 269.28 359.82 271.6 358.63 274.24 356.26 276.51 352.05 279.7 347.99 283.08 346.25 285 343.18 288.71 338.83 294.19 335.06 299.26 331.94 303.42 329.24 306.21 326.09 308.4 321.79 310.17 318.91 311.2 318.38 311.31 314.81 313.14 313.87 313.69 311.71 315.52 309.48 318.84 307.12 323.61 305.43 325.92 302.74 328.32 301.25 330.15 300.62 330.79 298.87 332.83 298.13 333.71 297.5 334.43 295.5 335.73 292.51 336.64 288.85 337.86 286.75 338.85 285.6 339.16 282.88 339.58 279.54 339.68 276.3 340.1 275.51 340.45 272.38 341.43 265.78 343.04 263.16 343.98 258.3 345.03 253.39 346.16 252.86 346.24 250.87 346.79 247.73 347.85 245.57 349.44 243.56 351.67 242.33 353.96 241.27 355.76 240.84 356.51 239.62 358.44 238.77 359.75 236.77 361.23 235.35 362.06 231.8 362.64 227.69 361.52 225.09 360.46 222.8 360.21 219.98 360.67 217.41 361.97 216.14 363.33 214.87 364.89 214.38 366.73 215.17 369.87 216.13 372.65 217.58 373.79 219.97 374.32 221.69 374.9 223.76 376 224.37 377.69 224.91 380.63 224.67 382.8 225.75 383.93 227.52 384.1 229.61 384.48 230.13 384.48 231.06 384.81 232.92 386.31 235.34 388.74 238.24 390.97 242.23 392.93 245.03 394.51 248.04 395.98 251.93 397.33 256.62 398.29 262.45 399.1 266.41 399.49 269.74 400.07 273.95 401.35 285.39 400.14 292.51 397.9 297.7 396.01 303.24 394.85 310.14 393.57 313.9 392.75 317.85 389.89 320.53 387.86 322.96 386.07 327.15 383.89 329.95 381.22 331.7 379.1 334.3 374.9 336.63 372.83 341.13 371.57 343.4 369.14 348.82 365.32 354.54 362.31 360.61 360.54 363.86 359.97 367.52 359.19 372.81 356.94 375.22 355.79 377.32 355.33 381.18 355.31 383.79 354.77 387.3 353.35 394.51 348.86 395.98 347.59 401.07 344.97 406.92 340.07 409.66 338.12 413.7 336.5 416.22 335 418.78 334.45 420.5 334.46 422.69 335.08 425.32 336.99 428.43 339.18 430.71 340.28 433.1 340.7 437.42 341.66 441.98 343.74 444.16 345.2 446.9 346.95 448.65 348.97 450.24 350.99 452.4 353.38 454.61 355.72 457.51 358.35 460.87 361.11 463.91 363.34 468.37 366.03 471.31 367.28 471.47 367.35 471.54 367.38 474.33 368.8 476.08 370.58 477.15 372.96 477.96 375.42 479.12 377.92 479.66 380.97 479.21 383.7 478.7 386.83 478.59 387.87 478.72 389.36 479.04 393.58 479.42 396.36 480.69 398.78 482.06 402.24 482.65 404.85 483.9 409.44 485.18 411.58 486.81 414.53 488.29 417.63 489.46 420.05 491 421.71 492.87 422.73 495.93 423.39 498.01 424.57 500.38 426.68 504.07 428.15 507.06 430.34 510.07 432.05 514.36 435.02 517.08 438.57 521.58 442.1 526.69 445.95 533.36 451.02 537.74 455.11 539.7 457.14 541.26 457.51 543.24 457.2 545.87 456.25 548.48 455.67 551.61 455.73 556.53 454.36 560.46 452.55 565.29 450.21 568.81 448.23 571.11 447.36 574.04 447.14 577.28 446.69 579.16 446.05 580.45 446.2 581.04 446.27 584.46 448.06 589.59 450.31 593.12 452.26 597.84 454.15 600.23 454.89 603.78 455.03 605.76 454.97 607.73 455.78 608.97 456.88 612.76 458.39 616.08 459.54 620.35 460.17 628.17 460.12 635.06 459.88 640.29 458.59 641.71 457.96 Z"/>
</g>
</svg>