<?xml version="1.0"?>
<svg xmlns="http://www.w3.org/2000/svg" version="1.2" baseProfile="tiny" width="800" height="499" viewBox="0 0 800 499" stroke-linecap="round" stroke-linejoin="round">
<g id="westlake">
<path d="M 216.85 240.25 221.43 238.85 227.99 239.04 233.56 241.55 236.65 241.83 242.84 240.62 249.65 238.3 259.55 239.23 266.73 238.95 274.77 235.88 279.11 232.91 281.21 226.87 285.55 220.55 285.79 216.56 282.7 201.22 283.57 197.78 287.28 195.65 294.71 195.65 298.05 194.07 299.91 190.54 302.14 189.33 334.32 189.99 355.36 193.89 369.59 195.47 375.29 197.61 382.34 198.73 392.86 197.99 401.28 195.94 407.47 193.34 417 186.1 420.1 176.81 424.31 171.88 424.31 158.68 418.74 153.29 417.75 150.97 419.61 148.46 426.42 143.35 427.04 137.77 429.77 131.27 431.01 129.6 434.1 127.93 444.01 123.75 451.06 117.71 457.61 114.12 465.91 104.55 472.35 98.98 477.3 91.73 487.82 88.66 496.49 85.14 506.4 83.28 510.61 80.49 514.69 79.94 528.31 80.59 529.92 79.48 527.94 76.41 528.31 74.83 525.21 73.9 524.84 72.69 529.18 72.23 530.42 73.16 530.16 76.41 534.5 79.48 534.25 80.87 525.58 86.63 526.2 88.31 531.15 93.6 538.32 96.39 540.55 95.47 543.89 96.39 546.99 95.19 550.7 95.37 554.79 93.05 563.7 91.85 568.9 88.6 573.24 87.39 578.56 83.21 588.09 80.61 596.77 74.29 601.1 69.84 599.86 68.72 591.69 68.25 590.46 67.32 592.94 54.78 592.57 52.92 590.71 51.34 592.57 46.69 596.78 43.16 604.58 42.89 609.78 39.17 608.55 37.96 604.21 38.05 603.35 37.12 605.45 35.73 613.13 33.32 616.84 29.79 629.84 27 637.89 21.9 645.07 20.69 650.52 18.74 653.99 20.14 658.32 24.13 662.65 25.44 672.93 23.77 675.4 21.26 676.02 19.12 675.66 12.62 679.99 8.9 680.49 6.76 678.63 3.32 679.25 1 681.73 4.72 682.72 8.9 677.51 15.41 678.13 19.87 682.21 28.42 680.72 31.2 677.38 33.53 676.39 35.2 685.42 39.76 696.31 41.34 698.42 39.95 696.56 34.18 697.8 33.25 703.99 38.83 718.96 46.37 732.33 54.46 753.48 72.12 761.89 80.86 771.66 92.02 776.98 103.36 787.74 114.09 790.6 117.25 792.08 122.82 792.45 134.25 799 145.13 798.13 153.49 794.16 159.81 779.92 166.59 770.88 176.34 768.53 178.02 761.35 178.48 754.79 175.87 748.6 175.5 731.27 179.67 720.75 184.32 710.35 191.1 700.07 195.28 694.87 195.83 681.75 193.51 674.94 193.5 673.46 195.64 675.07 196.76 684.97 198.8 687.69 200.48 688.06 201.87 686.45 204.38 684.34 205.59 680.26 206.24 670.98 206.05 666.03 207.25 672.95 211.9 676.05 216.09 679.14 218.41 694.24 219.07 699.56 220.18 702.65 221.76 711.69 230.87 718.86 231.99 724.06 235.71 727.15 239.89 728.76 244.54 726.9 249.19 733.45 260.53 732.58 263.31 727.01 265.26 701.64 265.25 699.16 266.46 699.16 268.04 703.74 273.43 707.2 274.83 711.91 276.13 723.66 277.53 727.62 279.2 736.4 291.66 741.97 297.52 743.2 300.49 739.97 326.14 742.07 331.44 748.38 337.48 754.19 347.7 755.79 360.25 758.39 366.48 760.85 378.84 763.94 388.32 764.31 395.29 761.95 406.9 759.47 412.57 754.76 417.4 752.66 417.86 750.8 416.75 748.33 410.89 741.41 408.1 738.68 406.06 736.83 403.27 737.7 397.88 745.99 390.91 747.23 388.4 746.62 387.94 743.27 387.94 737.7 390.91 729.66 396.76 725.94 400.48 722.59 410.05 721.35 420.46 722.95 428.63 722.08 431.7 709.08 448.42 706.61 449.54 695.21 460.78 693.61 461.24 690.51 460.5 688.66 458.92 683.09 451.95 682.48 446.84 680.87 445.44 676.91 444.33 672.21 444.04 660.2 445.25 655.25 445.06 642.51 443.38 639.66 441.8 639.05 438.55 640.91 424.61 639.31 417.83 636.83 415.6 635.22 415.59 630.89 418.1 627.3 423.03 627.92 429.53 627.04 439.01 623.94 447.65 618.74 455.09 614.04 459.73 606.98 465.12 599.31 474.69 585.07 485.19 565.64 490.11 554.5 495.4 547.08 498 535.32 498 528.39 496.23 519.11 494.83 508.97 491.76 500.18 487.86 495.23 482.28 476.06 474.01 465.17 474.19 463.69 471.22 464.56 463.5 462.82 463.69 458.86 468.06 456.26 469.82 450.32 469.17 443.15 464.99 422.73 449.93 412.09 444.63 402.19 442.3 391.06 437.93 382.65 431.89 376.46 422.78 373.99 421.2 367.8 419.16 365.94 417.48 364.34 408.65 361.49 406.14 360.63 404.01 363.6 401.97 363.97 398.43 365.21 396.3 369.79 394.44 374.49 395.18 376.59 396.58 379.44 400.48 382.53 401.41 386.61 398.81 401.09 393.51 405.68 389.52 407.9 385.99 407.53 383.02 405.68 379.95 405.68 376.04 407.79 373.44 418.67 371.4 441.2 364.34 460.76 357.1 480.56 352.36 487 352.83 503.45 358.59 516.2 359.52 518.92 357.02 516.08 352.37 512.74 350.7 509.27 347.72 509.65 343.26 512.99 339.83 520.42 336.48 536.13 333.23 564.35 332.03 574.87 332.5 585.39 334.54 590.96 334.73 593.43 334.27 598.39 330.09 607.67 327.95 628.71 326.75 643.93 324.43 699.63 322.03 714.23 320.37 717.94 319.44 719.43 317.58 698.64 315.53 669.93 314.87 645.79 315.33 628.09 317.74 592.45 324.51 568.69 325.06 553.83 326.45 539.23 326.73 526.61 328.4 515.47 327.65 500.25 324.95 494.68 322.81 488.12 319.37 483.42 315.66 482.8 313.15 488.37 303.11 488.63 291.03 487.64 287.31 486.16 285.45 481.45 282.48 477.12 281.73 474.4 282.66 467.22 287.59 450.25 308.03 444.44 313.23 434.28 319.73 428.34 322.06 418.44 330.7 410.52 335.62 390.96 344.26 384.53 346.12 373.02 346.86 363.74 345.93 347.89 343.14 340.47 342.95 334.28 340.35 329.08 339.23 317.2 338.58 297.77 339.78 287.87 333 279.09 331.42 273.27 331.88 270.43 332.81 262.5 337.74 258.17 343.59 255.08 353.35 251.36 360.32 251.36 365.24 248.39 377.32 245.05 385.41 243.56 398.23 238.24 404.55 230.56 409.66 217.82 414.58 216.58 413.65 216.33 408.54 215.71 407.61 212.62 406.68 176.36 406.77 169.18 410.03 167.7 413 167.08 418.11 164.98 420.9 161.88 421.64 157.55 420.53 142.95 410.77 137.26 405.01 129.21 389.86 126.37 386.14 122.04 382.42 122.66 381.77 126.74 382.24 129.83 380.38 130.45 378.98 128.84 372.67 126.99 369.23 123.27 367.37 114.86 369.23 110.9 369.23 105.58 365.98 102.11 362.07 100.63 358.08 104.22 351.85 102.73 342 99.89 334.19 99.27 326.76 92.34 312.82 93.58 310.68 97.54 307.89 96.67 306.03 90.11 301.67 86.4 303.06 83.92 303.06 52.86 283.82 38.62 272.02 31.69 265.05 23.4 254.09 20.31 254.18 17.83 257.9 15.6 259.48 7.56 259.48 3.85 258.08 1.62 256.23 1 254.18 1.99 248.33 3.85 246.28 10.03 242.56 19.81 237.82 39.61 230.11 60.04 225.19 68.7 224.53 85.41 224.91 95.43 226.58 106.57 230.02 112.14 232.99 121.18 239.68 132.56 242.94 138.5 243.68 144.69 241.54 153.73 241.54 176.87 236.81 178.73 237.74 179.35 242.66 180.96 245.17 186.53 247.03 198.29 247.96 202.61 247.22 206.7 245.54 216.85 240.25 Z M 523.26 347.17 528.83 348.38 536.5 348.1 544.91 349.22 570.04 350.15 598.5 353.6 611.86 352.12 615.82 349.79 615.83 348.4 614.59 347.47 610.26 346.35 569.05 344.3 548.26 341.32 542.44 342.06 538.98 343.45 536.25 343.27 530.31 340.94 526.35 341.41 524.13 342.99 523.26 347.17 Z M 267.46 285.42 260.66 284.76 256.94 285.7 254.47 288.02 253.85 289.87 255.46 292.2 257.69 293.59 262.26 294.52 270.56 288.48 276.13 287.09 276.75 283.84 267.46 285.42 Z M 670.19 39.84 673.04 39.19 671.18 37.33 666.85 36.4 664.38 36.4 662.52 37.33 664 38.91 670.19 39.84 Z M 606.18 58.03 608.04 56.36 607.8 52.18 606.8 51.53 605.57 51.99 604.7 53.85 604.95 57.11 606.18 58.03 Z M 643.81 63.25 645.67 62.97 646.53 62.05 645.55 60.65 643.44 60.93 642.58 61.86 643.81 63.25 Z M 636.02 56.93 638.49 55.81 637.26 54.14 634.41 55.35 636.02 56.93 Z" fill-rule="evenodd"/>
</g>
</svg>