<?xml version="1.0"?>
<svg xmlns="http://www.w3.org/2000/svg" version="1.2" baseProfile="tiny" width="800" height="883" viewBox="0 0 800 883" stroke-linecap="round" stroke-linejoin="round">
<g id="drewsreservoir">
<path d="M 54.5 130.15 51.77 131.62 49.83 132.19 45.53 134.8 43.19 135.09 42.01 135.38 41.63 135.67 40.84 135.66 36.94 135.08 36.15 134.8 34.21 134.23 26.4 129.59 26 129.58 24.45 128.41 20.92 123.47 17.41 113.03 17.02 112.15 12.33 101.71 11.16 100.28 10.78 99.1 8.82 96.78 8.82 96.51 7.64 95.61 5.69 93.6 5.69 91.55 4.91 89.25 4.9 86.06 3.35 76.75 2.56 75.29 1.4 72.11 1 71.84 1 70.96 2.55 63.39 2.95 61.39 2.56 58.76 3.34 57.33 4.5 54.99 7.62 50.08 8.4 47.73 8.8 47.44 9.19 44.56 11.92 42.52 11.93 42.22 13.1 41.37 15.04 40.19 15.82 39.33 15.82 39.03 18.56 36.99 18.55 36.72 22.07 34.67 24.02 33.79 25.98 32.92 27.14 32.37 27.54 32.34 28.32 31.79 32.22 29.43 34.95 28.58 36.51 27.69 39.24 26.84 45.49 25.67 52.91 22.78 54.48 22.47 57.59 21.05 59.16 20.17 61.9 19.57 65.01 18.73 67.74 17.83 68.52 17.27 69.7 16.69 69.7 15.21 69.3 13.79 70.48 12.33 70.48 11.16 69.7 9.7 66.17 6.51 59.54 3.9 59.16 3.9 58.36 3.31 57.21 1.88 57.21 1.58 57.99 1.02 58.14 1.02 58.77 1 59.55 1.89 60.72 2.75 63.84 3.34 67.35 4.78 70.87 4.78 71.65 5.36 72.43 6.22 72.43 6.82 72.83 7.1 72.82 7.97 73.98 8.83 76.72 9.99 80.63 10.6 81.41 10.88 85.71 12.34 89.22 14.34 91.56 14.92 92.35 15.2 94.69 15.78 97.02 16.4 99.38 17.55 101.32 18.12 107.97 21.9 111.08 23.34 112.26 23.93 116.55 26.26 118.89 27.41 120.84 28.28 123.97 29.71 125.92 30.32 127.49 31.19 134.12 33.79 138.03 34.67 141.15 35.53 143.11 36.11 144.27 36.39 147.09 37.03 148.18 37.27 150.14 39.29 151.31 40.45 151.31 40.75 152.47 41.61 155.6 45.97 155.98 47.16 156.77 48.89 157.15 49.16 157.94 52.94 159.5 54.98 161.46 57.3 163.41 59.62 164.59 61.66 166.14 65.42 166.92 69.2 167.31 69.47 168.09 73.55 168.09 76.18 166.92 78.47 166.54 79.07 165.76 80.5 164.97 82.27 164.19 84.27 163.41 86.31 162.23 89.82 161.85 90.08 161.06 94.17 161.08 97.63 161.85 100.53 163.03 102 164.58 103.13 167.31 104.59 173.17 105.78 179.02 107.79 180.97 109.24 183.71 110.7 184.09 110.71 187.22 113.02 191.51 115.04 192.69 115.63 197.76 118.24 205.19 120.87 205.97 120.84 205.97 120.84 211.82 121.72 212.98 121.71 220.39 121.44 220.79 121.71 227.44 122.3 235.23 124.32 241.09 127.25 245.77 129.55 249.68 131.61 252.03 132.76 252.41 132.77 255.14 136.51 257.09 139.13 257.87 141.73 259.04 144.65 259.82 146.98 260.22 147.26 260.59 149.58 261.77 151.92 263.34 153.93 264.5 155.4 267.63 157.71 269.58 158.58 270.37 158.6 270.75 158.87 271.53 158.89 272.3 159.44 274.26 161.49 277.39 164.97 277.38 165.24 281.28 167.86 281.29 168.17 287.14 171.94 291.43 174.27 295.72 176.56 298.85 178.33 299.25 178.3 300.81 179.47 302.75 180.65 304.7 183.85 305.47 185.57 307.05 187.62 307.82 188.47 309.38 189.65 313.29 191.66 315.24 192.24 316.8 193.1 317.18 193.11 317.78 193.91 319.14 195.74 320.71 197.48 321.49 198.06 325.38 200.38 328.51 201.82 332.02 203.56 333.58 204.43 333.96 204.44 337.49 207.05 341.38 209.07 343.72 209.65 346.07 210.23 346.45 210.54 347.63 210.53 350.75 209.68 351.53 209.66 353.48 210.23 355.04 210.53 355.44 210.84 355.43 211.11 354.65 211.7 353.87 211.68 353.48 212.28 353.1 212.58 353.1 213.15 353.87 213.74 355.83 214.61 358.17 214.58 358.55 214.89 359.33 214.91 360.51 214.59 361.29 214.04 360.11 212.57 360.11 212.27 360.51 212.01 362.85 212.28 363.62 212.56 364.01 212.88 364.8 212.86 368.71 216.05 370.26 217.22 375.73 220.72 375.71 220.98 376.9 221.84 378.46 223.89 379.62 224.48 380.8 225.91 380.4 227.08 377.28 229.99 376.89 231.16 376.49 231.45 376.5 232.02 377.28 232.87 378.06 233.19 383.52 234.33 385.47 235.78 385.47 236.08 384.69 236.68 381.18 237.25 374.94 237.81 371.43 239.26 370.64 239.85 365.17 247.68 364 249.14 363.61 250.58 363.61 254.95 364.01 255.83 364.78 256.38 364.78 256.68 367.52 257.84 369.08 258.14 372.59 261.02 372.58 261.33 375.71 263.06 378.05 263.64 380.39 264.22 381.96 264.52 382.34 264.79 391.7 265.67 392.87 267.14 395.99 268 397.17 268.59 397.55 268.87 397.4 268.98 397.17 269.16 396.39 269.18 391.71 269.73 390.53 270.89 390.53 272.07 388.59 273.51 384.68 275.83 382.72 276.7 382.34 276.73 380.78 277.87 380.77 280.19 381.17 280.47 381.17 282.22 379.98 285.69 379.6 285.99 379.6 287.43 380.38 288.02 381.94 288.01 384.68 287.15 385.84 286.87 387.79 286.87 390.92 289.49 392.86 290.36 396.77 290.93 397.15 291.21 397.55 291.22 398.32 291.8 397.54 292.66 397.55 292.97 396.38 293.24 394.81 293.55 394.43 293.85 393.25 293.83 391.31 294.4 390.52 294.99 389.35 295.57 389.35 296.75 390.14 297.3 395.2 297.02 400.67 297.02 401.45 297.61 401.85 297.61 403.01 299.04 403.4 300.5 402.22 303.7 400.27 306.32 397.54 308.06 394.81 310.66 393.63 311.81 392.47 314.15 392.07 314.44 392.08 316.19 391.68 316.45 391.68 317.32 392.46 319.35 394.02 320.83 395.59 321.7 396.75 321.99 397.15 322.26 397.15 322.87 396.37 323.43 394.81 323.74 393.63 323.45 393.23 323.13 390.52 323.15 389.74 323.71 388.96 324.6 388.95 328.37 385.83 330.39 385.83 331.84 386.61 332.73 387.38 333.01 388.56 333.3 388.94 333.58 393.63 333.59 394.01 333.87 394.03 334.17 392.46 335.05 389.72 335.91 387.78 337.09 387.39 337.95 387.77 339.67 389.33 341.72 389.32 344.34 390.9 345.21 391.67 345.49 392.07 345.5 392.85 346.09 393.23 346.93 392.84 348.97 392.84 350.15 393.62 351.57 394.79 352.47 395.95 353.9 397.13 354.19 398.3 355.66 397.9 356.79 397.52 357.09 397.52 357.96 396.74 360.3 397.51 364.92 399.08 367.54 400.25 368.43 401.41 368.99 402.97 369.29 403.37 368.99 404.15 369.01 405.33 367.85 405.31 367.24 405.71 366.38 408.45 364.95 410.01 364.95 411.17 365.24 412.34 364.65 415.47 361.75 415.86 361.76 416.24 361.46 418.98 362.32 419.76 362.33 420.25 362.13 421.11 362.28 421.78 362.4 422.09 362.91 421.32 363.5 420.53 363.49 419.36 363.77 418.97 363.49 416.24 363.48 415.08 365.51 413.9 366.39 412.74 366.98 409.6 367.56 408.43 370.16 407.66 371.02 407.27 371.31 407.27 372.49 408.83 373.36 411.95 374.22 413.52 375.09 414.29 375.37 417.03 376.53 418.97 377.41 420.92 378.28 424.04 379.75 425.99 380.63 426.38 380.6 432.23 384.67 434.18 385.55 436.14 385.85 436.92 385.83 440.41 388.45 442.76 389.03 446.28 389.02 449 388.47 451.74 387.31 453.29 387 453.69 386.7 457.2 386.7 457.98 387.29 457.2 388.18 456.8 388.75 456.03 389.6 454.07 392.79 454.08 394.28 454.45 395.12 456.41 396.57 458.36 396.87 459.14 396.89 461.88 396 462.26 396 465.39 398.31 465.78 398.32 466.94 399.18 467.73 402.08 468.12 402.39 468.11 402.66 465.77 404.13 465.77 406.15 467.34 407.32 467.72 407.33 468.88 408.49 469.67 410.22 471.61 411.66 472.02 413.99 473.58 415.73 473.56 416.04 473.18 416.33 471.62 416.04 469.66 415.16 466.93 416.02 462.64 419.81 460.69 423 459.12 427.07 459.13 428.21 460.3 433.44 461.46 436.35 463.02 440.68 464.58 443.87 465.75 446.21 466.92 448.52 467.32 449.09 468.47 451.13 469.64 453.17 470.42 454.63 477.83 460.71 477.83 460.94 477.84 461.02 478.21 461.29 475.5 463.63 474.71 465.67 475.1 472.33 475.48 472.64 475.87 477.28 476.27 477.56 476.26 479 477.04 481.91 477.82 483.63 478.21 484.82 478.61 485.09 479 487.99 479.37 488.3 479.38 488.87 480.93 492.63 482.1 495.28 484.05 499.91 485.22 502.79 487.16 507.16 488.74 508.91 488.73 510.65 489.89 512.96 491.06 516.75 491.83 518.2 493.01 520.51 493.4 521.09 494.57 523.13 495.75 525.17 500.03 531.83 501.18 532.99 502.36 534.46 504.7 537.06 504.71 537.36 508.99 541.13 511.32 543.73 514.84 547.49 517.18 549.82 517.57 549.83 521.86 553.6 523.01 555.94 523.41 557.09 523.81 557.36 523.79 558.54 523.02 561.15 519.9 565.5 520.28 566.64 521.05 567.23 524.18 566.95 524.57 566.66 531.59 566.65 533.93 566.09 534.03 566.16 534.33 566.36 534.32 568.41 533.54 569.84 529.64 572.77 527.68 575.39 527.68 577.1 528.85 582.06 530.41 584.07 531.97 586.12 535.08 588.99 535.47 589 537.42 590.45 537.81 590.46 540.93 593.07 546 595.11 547.56 595.41 550.29 596.57 551.85 596.86 553.02 598.03 553.01 599.47 563.54 615.43 565.87 617.75 566.65 618.34 567.44 619.19 568.99 624.13 570.94 626.75 572.49 627.93 574.45 628.19 576.78 627.9 581.86 625.88 582.63 625.89 586.92 627.35 589.66 627.63 590.04 627.91 590.04 628.21 589.25 628.5 586.92 629.1 586.52 629.36 584.18 629.38 583.02 629.66 581.85 630.51 581.07 631.41 581.01 631.73 580.68 633.41 580.68 634.29 581.06 635.74 582.23 636.64 582.23 636.91 583.8 637.78 587.3 638.95 591.59 640.1 595.09 642.15 597.04 643.6 600.17 646.78 600.17 648.22 600.55 649.68 601.72 650.84 602.89 652.88 604.05 654.04 609.12 661.9 611.45 663.62 614.17 666.53 615.35 668.57 618.47 671.48 620.02 674.06 623.53 677.29 627.44 678.13 631.33 678.13 634.06 678.42 634.44 678.73 634.06 679.9 633.62 680.43 632.89 681.32 632.77 681.71 632.5 682.49 632.1 683.36 631.71 683.65 631.71 686.28 632.48 690.62 634.05 692.67 634.43 692.95 634.43 693.25 633.27 693.83 633.26 694.97 635.2 696.42 635.6 697.61 638.72 701.93 639.1 702.24 638.71 704.29 639.1 706 640.66 708.05 642.22 709.79 642.99 710.65 642.99 710.95 646.89 713.84 646.89 714.15 647.67 714.73 648.44 716.76 650.01 718.51 650.79 719.93 651.95 721.09 652.34 721.67 653.12 722.56 656.62 726.06 656.62 726.32 658.97 728.08 659.35 729.8 659.74 730.11 659.74 730.68 662.85 733.6 665.2 735.32 665.2 735.62 667.15 737.07 671.43 739.97 671.42 740.54 679.62 746.07 679.6 746.37 679.22 746.67 675.31 746.66 673.37 747.8 672.97 748.67 672.98 750.72 673.75 755.94 674.53 757.4 675.31 758.83 676.47 761.17 678.42 764.36 679.59 765.53 679.97 766.11 681.53 768.11 682.32 769.01 682.32 769.31 683.47 770.17 685.42 771.05 686.59 776.28 687.37 777.7 689.32 779.76 689.32 780.02 694.37 784.38 695.16 785.85 696.72 787.02 696.72 787.28 697.88 788.18 701.78 790.2 708.4 791.94 709.57 792.83 711.12 796.29 711.9 798.05 713.07 801.53 713.46 801.81 713.46 802.38 714.63 805.86 716.58 808.49 716.97 808.49 717.29 808.5 717.69 808.78 717.69 809.95 718.08 810.23 719.65 813.99 720.04 814.87 720.42 815.45 721.59 820.98 722.38 821.83 724.33 823.85 726.68 825.61 728.62 826.18 730.17 826.18 730.57 826.49 730.57 827.06 729.02 828.51 729.02 831.4 730.58 835.19 731.4 836.92 731.39 837.49 730.22 839.56 730.23 842.45 730.61 842.76 731.01 843.6 731.8 850.61 732.58 851.16 733.75 851.76 736.88 851.17 738.04 850.89 747.82 850 750.55 850.01 755.63 850.88 759.93 852.6 762.27 852.92 764.23 853.49 769.3 856.67 771.26 857.25 776.71 857.27 777.9 857.27 778.28 857.55 779.47 857.84 781.02 858.14 783.77 859.29 785.72 860.17 789.24 861.61 790.01 861.9 796.28 865.1 796.26 865.67 796.65 867.13 799 868.32 799 869.46 798.61 870.93 797.45 872.08 795.1 872.07 792.37 872.36 791.19 873.25 790.81 873.24 788.46 875.28 786.12 875.88 784.56 875.88 784.17 875.57 781.82 875.29 776.74 873.55 775.19 873.56 772.45 874.72 770.9 875.87 769.32 875.87 763.47 873.55 759.95 872.98 759.17 872.96 758.77 872.69 752.52 871.8 746.67 868.9 743.15 866.89 741.2 866.89 740.42 867.44 740.82 873.57 740.81 877.07 741.59 880.24 741.59 880.85 740.43 882 739.65 881.98 739.25 881.71 736.9 877.93 734.95 875.61 732.99 874.17 732.79 874.14 731.04 873.86 729.08 873.86 727.92 874.14 723.63 876.48 716.89 877.64 712.2 877.08 706.74 874.46 704.79 872.98 702.84 870.96 702.44 869.81 700.88 867.15 700.1 865.73 694.26 860.78 692.3 859.91 690.35 859.9 689.95 859.59 690.34 857.59 689.19 854.67 687.62 853.5 681.37 848.24 680.2 848.25 677.08 847.39 675.9 846.8 675.52 846.52 676.3 845.63 677.86 843.91 679.44 841.28 679.44 840.71 679.82 839.81 678.65 838.38 675.52 836.34 674.75 836.32 674.37 836.05 670.84 836.05 665.76 836.32 665.38 836.05 664.59 836.03 662.65 836.6 658.34 839.25 658.34 839.52 656.78 840.4 654.81 840.7 652.48 842.44 650.13 842.43 648.97 842.71 648.71 842.64 648.19 842.73 648.17 842.42 648.97 841.83 651.7 841.85 652.48 840.99 653.26 840.66 653.65 840.67 654.43 840.12 653.64 838.66 653.66 837.18 654.05 835.17 654.19 835.17 654.19 834.87 658.09 831.68 659.25 831.1 661.6 828.79 661.6 826.47 661.21 825.59 660.04 824.73 650.68 823.54 648.73 822.4 644.84 822.4 644.45 822.09 644.45 820.64 645.23 819.78 647.19 818.91 649.52 817.17 651.09 815.12 651.87 811.63 650.7 809.33 649.53 808.17 649.53 807.86 648.75 807.31 648.75 805.83 649.54 801.47 648.76 800.62 646.81 799.75 643.3 800.62 640.96 801.79 639.79 802.64 635.5 806.43 634.34 807.58 633.16 808.74 632 809.89 630.82 811.05 630.82 811.35 627.32 814.24 627.3 814.55 625.36 815.99 622.62 817.45 622.24 817.45 621.85 817.74 621.04 817.73 622.23 816 624.19 813.95 626.53 810.2 629.26 805.85 633.16 802.05 633.56 801.49 637.08 796.54 637.46 795.41 638.24 793.94 638.63 793.65 637.85 791.05 635.13 788.44 632.01 787.54 629.28 787.56 626.55 788.42 624.6 789.6 623.43 790.45 620.31 793.65 617.59 796.25 617.19 796.82 617.19 797.12 614.85 798.86 610.95 802.35 610.55 802.04 612.12 799.45 614.08 795.38 614.47 793.34 614.47 792.47 614.07 791.62 613.29 791.04 611.35 790.73 610.96 790.46 615.25 788.72 618.37 786.39 618.37 786.08 619.93 784.94 620.72 781.76 619.15 779.14 618.38 778.56 618.37 778.25 617.59 777.67 612.53 775.05 609.02 773.92 602.4 769.83 600.85 768.96 600.46 768.95 599.68 768.4 596.17 766.36 594.21 765.78 591.1 765.49 589.55 763.75 588.37 761.71 585.65 759.68 580.97 755.32 578.64 753.56 575.91 751.84 573.96 751.53 572.79 751.54 569.28 752.12 567.33 752.99 565.77 753 565.37 752.68 567.34 749.49 567.73 748.63 567.72 747.49 566.55 745.45 563.44 743.71 560.71 742.82 557.2 740.81 555.26 739.93 553.31 739.06 548.63 736.72 545.52 735.29 543.16 734.13 540.44 732.67 537.33 730.94 537.33 730.63 536.55 730.05 532.27 726.27 530.31 725.39 527.59 725.42 526.42 725.69 524.46 726.87 523.68 727.73 522.51 729.76 522.12 730.93 521.72 731.22 521.73 731.79 520.56 732.65 520.16 732.68 519.78 732.36 519.78 725.98 519.01 723.38 517.07 721.93 513.56 721.93 510.82 722.49 508.48 723.65 508.09 723.65 506.91 724.54 503.03 728.03 501.47 730.62 500.67 731.21 497.96 729.75 496.4 728.58 494.05 728.87 491.32 729.76 485.08 733.21 482.36 734.98 477.28 739.32 476.51 740.18 475.33 742.21 474.16 745.11 474.16 753.25 473.77 753.54 473.38 753.53 472.21 752.37 471.05 751.21 469.88 749.17 469.86 748.9 469.09 748.62 468.71 748.31 467.53 748.32 465.58 748.89 460.52 751.52 460.12 751.52 458.96 752.37 455.83 755 453.88 755.57 451.93 756.71 450.77 757.9 449.98 760.51 449.98 761.65 450.38 765.42 450.07 765.71 449.59 765.71 448.42 764.85 448.03 762.25 448.43 761.96 447.65 759.93 446.86 759.34 444.92 759.34 442.18 761.37 439.06 764.28 438.28 766.01 435.17 767.46 434.39 767.75 434.01 767.75 432.83 768.63 428.53 773.26 427.77 774.99 426.59 776.45 426.19 777.62 424.25 780.24 423.47 780.8 423.07 780.83 422.98 780.75 422.69 780.51 423.07 778.47 423.08 777.9 421.92 777.31 422.69 775.31 423.08 775.01 422.68 773.82 422.31 773.55 422.69 770.93 422.69 770.06 422.31 769.22 421.14 768.32 419.96 768.33 418.8 768.61 417.62 769.77 416.84 771.8 413.73 774.4 412.57 774.42 410.99 772.67 409.82 772.69 409.44 772.98 409.43 774.69 407.48 775.57 407.1 776.43 405.92 777.02 404.76 777.91 404.49 779.06 403.5 779 402.82 778.77 402.8 777.6 403.2 776.73 405.14 775.29 405.14 774.72 406.32 774.14 406.7 772.39 407.87 771.24 407.49 770.06 407.11 769.78 405.93 769.76 405.53 770.05 404.76 770.08 404.37 769.76 405.54 767.16 405.54 764.28 407.49 762.22 409.84 759.61 411.39 757.89 411.38 757.59 412.18 757.3 413.34 757.02 416.07 756.43 417.25 755.54 419.97 752.37 421.53 751.22 425.05 750.61 426.22 749.76 426.98 748.9 426.99 747.38 426.99 746.58 426.6 745.7 423.88 743.93 422.31 742.8 418.42 742.49 418.02 742.22 418.04 741.61 419.2 740.76 421.53 740.46 421.93 740.17 425.44 740.47 426.22 740.18 428.55 739.01 432.84 739.02 434.79 738.45 437.52 737.86 441.03 735.24 442.98 732.92 444.15 728.88 444.55 728.58 448.44 728.58 453.12 728 453.9 727.71 455.84 727.14 464.04 720.16 465.22 717.83 465.21 716.69 464.43 714.66 461.71 712.62 461.7 711.45 467.55 709.13 468.73 707.1 469.11 705.93 469.89 705.38 474.18 705.66 478.87 704.8 481.19 703.63 481.99 703.35 483.93 702.47 485.11 701.89 485.49 701.9 487.06 700.71 487.83 699.85 487.83 698.41 482.77 694.92 476.92 691.73 476.15 691.44 473.02 689.97 471.08 689.1 468.35 687.94 466.79 687.68 464.84 686.8 463.27 686.51 460.94 685.35 461.72 682.14 460.56 680.71 459.77 680.12 457.83 679.25 457.05 679.23 455.09 678.96 452.76 679.52 450.81 680.7 450.03 681.56 449.63 681.85 444.58 681.56 440.27 682.73 435.21 683.57 431.7 685.63 428.96 686.79 428.14 686.77 427.8 686.77 427.41 686.49 428.19 685.64 428.97 685.04 430.92 684.17 431.7 683.58 437.56 677.77 437.94 677.78 439.12 676.32 439.1 675.75 440.28 674.9 442.22 673.72 443.79 671.97 443.78 670.83 442.22 669.65 433.65 669.06 433.27 668.79 432.49 668.77 431.71 668.22 429.76 666.17 428.98 665.32 428.58 664.74 428.59 664.43 427.03 663.57 423.52 664.44 421.57 664.44 420 665.59 419.62 665.58 418.85 664.99 418.84 662.98 419.61 660.07 420.01 659.77 420 655.74 419.23 652.84 418.07 652.25 417.68 651.97 416.89 651.96 411.83 651.09 411.43 650.21 411.05 649.94 410.27 645.85 409.88 645.27 408.71 642.97 407.16 641.8 404.43 640.64 403.25 640.62 402.87 640.34 401.69 640.36 400.92 639.77 400.92 637.72 400.14 636.3 395.06 633.38 394.28 633.36 393.9 633.09 392.35 633.1 391.94 633.39 391.18 637.44 390 638.9 388.44 639.17 385.33 639.76 384.93 640.05 383.75 640.03 382.59 640.35 381.03 641.49 380.64 642.66 379.86 643.52 379.47 643.51 378.3 642.35 378.3 640.64 377.52 640.05 376.35 640.33 375.96 640.63 374.39 640.64 373.23 640.04 371.28 637.42 368.95 635.96 368.93 635.7 370.89 634.52 372.06 633.06 372.05 632.8 374.01 631.35 375.19 630.77 375.18 630.47 375.97 629.87 375.96 629.04 374.79 628.14 365.05 627.56 364.26 627.28 362.32 626.71 361.15 626.42 360.76 626.1 356.47 625.83 356.08 625.52 356.48 624.08 356.08 622.93 355.31 621.17 353.73 619.16 351.4 617.4 349.06 617.39 346.73 617.99 346.5 617.8 346.33 617.68 346.73 616.54 350.63 613.62 353.75 612.16 355.68 611.59 357.64 611.33 361.15 611.9 362.71 613.34 367.79 616.56 369.72 617.13 371.28 617.12 371.68 617.39 374.41 616.84 375.19 616.55 378.69 615.37 382.61 613.06 383.38 612.77 383.78 612.78 388.44 608.69 388.84 608.13 388.84 607.82 390.02 606.97 391.18 605.51 391.19 601.75 390.4 599.99 389.24 599.43 389.23 599.13 386.9 597.98 383.77 597.95 381.05 598.54 378.7 599.14 378.32 599.44 374.03 598.86 372.07 597.11 372.08 594.79 372.86 592.75 373.25 592.15 373.64 591.85 373.64 588.96 373.25 587.51 371.69 586.34 370.91 585.49 370.92 582.86 370.13 580.83 368.18 579.39 365.46 579.41 362.72 580.26 361.94 580.55 360.77 581.14 359.21 582.02 358.81 582.01 355.31 584.33 355.32 584.6 352.98 586.07 350.64 586.63 349.85 586.92 347.9 587.53 345.17 588.38 338.15 593.03 335.42 593.89 331.9 594.46 329.96 596.21 329.57 596.2 329.19 596.5 328.81 596.19 329.57 590.69 330.74 589.27 331.14 587.53 331.91 586.94 336.21 585.2 340.11 582.28 342.44 581.98 345.96 580.27 349.06 576.79 349.08 576.49 351.8 574.76 352.58 574.17 356.88 570.38 360.39 566.61 360.38 564.86 360 564.02 358.83 563.16 355.71 563.44 353.76 564.31 349.47 567.49 347.52 568.67 345.96 568.94 344.01 569.81 342.44 570.08 340.5 570.96 338.94 571.27 338.15 571.56 336.2 572.12 328.8 574.75 326.85 575.32 322.55 576.79 319.04 578.81 313.19 580.82 310.47 582.28 310.07 582.27 305 585.78 304.61 585.77 303.06 586.92 300.32 588.08 296.42 590.13 296.03 590.12 295.25 590.72 286.67 597.39 286.27 597.38 282.77 599.7 281.6 601.73 280.04 603.18 274.96 606.38 273.81 605.22 272.63 604.93 270.69 605.2 269.91 605.22 269.51 604.91 269.51 604.88 269.52 604.64 272.25 602.87 273.41 601.72 273.79 601.15 273.81 600.81 274.97 600 278.47 596.8 279.65 594.77 279.65 594.47 280.05 594.17 279.66 592.72 279.65 592.45 281.99 590.98 282.77 589.55 282.77 588.68 283.95 586.65 284.72 584.61 284.72 581.68 285.89 578.21 285.12 570.97 284.73 570.4 284.34 570.08 284.34 569.51 287.86 567.19 289.8 564.87 290.58 563.41 294.86 559.35 297.98 556.45 298.76 555.02 301.5 552.98 301.5 552.68 305.01 550.66 307.75 550.07 309.29 549.19 309.69 549.2 310.87 548.04 312.43 544.27 315.15 542.81 317.49 542.51 317.88 542.82 319.44 542.82 321.4 542.52 321.78 541.95 322.17 541.66 321.78 539.33 312.82 531.78 312.42 531.81 310.86 530.63 309.3 530.34 306.58 531.5 302.67 535.56 299.55 538.16 290.19 544.55 287.86 545.71 285.12 544.86 283.17 544.55 282.39 543.97 282.4 541.35 281.6 539.32 280.83 537.89 279.66 537 278.49 536.44 274.58 535.56 273.81 534.67 273.42 534.4 273.81 534.1 274.58 534.12 276.16 532.93 276.93 530.33 275.77 529.47 272.64 529.48 271.48 528.58 271.47 526 272.25 523.09 272.65 522.79 272.64 522.22 271.86 520.76 271.86 520.19 273.82 518.14 274.21 517.27 274.21 515.83 273.83 510.88 274.21 509.75 274.59 509.45 274.6 502.76 275.38 501.33 275.38 500.46 273.82 498.98 273.82 498.71 274.34 498.42 275.37 497.83 276.16 497.54 276.54 497.55 277.72 496.4 278.5 494.93 278.89 492.89 278.89 490.57 277.72 486.21 277.72 475.49 278.51 470.57 278.51 465.89 278.9 462.71 277.33 458.95 276.16 457.48 271.09 453.12 270.31 452.27 269.93 451.69 269.15 450.8 267.98 448.8 266.03 446.75 265.25 445.02 263.68 442.97 262.13 438.04 260.96 433.99 259.78 431.95 259.01 430.49 258.22 429.07 257.84 428.75 257.84 425.56 258.61 421.51 258.23 421.2 258.23 418.61 257.45 415.14 255.88 413.4 256 412.99 256.28 412.23 256.66 411.05 257.06 410.76 257.05 404.37 256.28 400.33 255.5 394.54 255.11 394.22 255.1 391.9 253.55 384.95 252.38 377.67 250.81 374.48 247.69 370.13 246.92 367.53 244.96 364.9 243.01 362.58 242.23 361.73 240.68 359.11 237.95 356.51 236.77 355.35 235.61 354.18 234.44 353.02 234.43 352.71 232.86 351.58 227.8 346.92 226.24 345.75 223.51 344.32 218.44 342.28 215.71 341.69 214.15 341.4 213.75 341.12 207.9 340.55 203.23 339.66 202.83 339.38 196.58 338.8 196.2 338.49 192.29 338.22 191.91 337.91 189.56 337.94 183.71 337.06 181.37 337.05 180.21 336.76 178.64 335.89 175.52 334.46 172.39 333.56 171.61 333.28 169.27 332.7 163.42 328.06 163.43 327.75 161.86 326.62 161.86 326.32 161.08 325.73 161.08 324.86 163.42 321.1 163.42 319.92 163.03 319.08 161.47 317.6 163.41 315.59 165.37 309.47 166.92 307.45 168.88 306.01 168.88 305.7 174.35 302.81 180.2 300.5 181.77 300.19 184.5 299.33 186.44 297.89 187.62 297.3 192.3 296.44 195.41 295.86 199.71 294.08 201.66 293.82 203.22 292.94 203.6 292.95 204.38 292.36 206.34 290.34 208.28 287.15 209.47 283.64 210.25 282.21 210.63 281.34 211.03 281.05 210.64 277.85 212.97 275.23 213.76 272.63 213.76 270.61 212.59 265.95 212.19 265.68 211.8 263.35 210.64 261.01 207.91 257.84 206.73 256.98 206.73 256.67 205.96 256.09 202.05 253.76 200.11 253.19 193.86 249.68 191.91 249.11 187.22 248.26 184.1 247.4 179.42 245.06 175.51 238.98 174.73 238.39 174.73 238.09 172.78 236.64 171.62 236.05 170.04 235.79 164.97 233.18 161.86 232.28 158.34 231.71 156.39 230.84 155.23 229.98 154.05 218.66 153.27 216.9 149.76 214.59 146.63 211.98 145.85 211.39 144.67 210.83 136.09 209.94 135.71 209.67 134.53 209.64 132.97 210.52 132.59 210.52 131.81 211.11 128.29 213.13 124.38 213.73 124 213.99 116.19 214.02 115.79 213.71 115.8 213.56 115.81 213.45 118.14 212.28 122.04 212.28 127.11 211.7 130.23 209.94 130.64 209.07 130.64 207.63 129.06 206.45 124.39 205.9 120.48 205.03 119.7 204.71 119.32 204.43 114.24 204.44 113.07 204.73 112.69 205.29 112.28 205.58 112.3 208.78 111.8 209.15 111.12 209.67 110.72 208.78 110.34 208.51 110.33 206.76 109.95 205.31 110.71 203.58 112.67 202.7 116.97 202.41 120.48 202.97 120.88 203.29 123.21 203.26 123.99 202.7 124 202.09 123.61 200.64 121.26 198.35 120.09 197.45 114.23 192.24 114.24 191.94 113.44 191.39 111.11 191.38 108.37 192.24 106.81 192.25 106.73 192.18 106.43 191.97 106.43 191.67 107.6 190.78 107.99 190.79 109.16 189.63 109.94 188.17 109.55 187.02 107.2 184.99 103.3 182.67 101.35 182.1 98.23 177.74 97.05 176.58 95.5 176.28 92.76 175.13 91.98 171.65 90.8 170.49 90.03 169.03 85.35 165.55 82.22 162.37 79.87 160.92 77.15 162.35 75.97 162.36 73.24 162.95 72.08 164.11 70.9 166.13 70.52 166.43 69.74 166.42 67.78 166.72 67.13 165.42 67.4 164.96 69.34 164.39 70.51 163.24 71.68 161.21 72.47 160.62 75.98 159.17 77.54 158.02 77.54 156.84 76.76 156.26 75.98 155.4 73.25 154.51 70.51 154.53 65.43 158.57 62.7 158.6 61.54 158 60.76 157.42 59.59 155.99 59.59 154.24 60.75 153.08 61.92 151.05 61.93 149.31 61.14 146.71 60.36 145.82 54.5 143.49 53.72 143.52 52.55 142.92 52.17 142.34 51.77 142.03 51.77 140.89 53.33 139.44 55.67 137.7 58.01 136.53 58.01 136.23 61.14 133.63 63.48 132.2 68.56 130.43 68.95 130.44 69.33 130.14 72.84 130.14 79.09 131.03 81.05 131.03 83.01 130.42 88.85 126.96 90.81 126.97 91.98 127.82 94.71 129.29 98.23 129.85 98.61 130.12 105.64 130.72 110.31 131.58 110.71 131.89 113.83 132.18 114.23 132.45 125.55 132.45 126.73 131.87 129.45 129.26 130.23 126.65 130.61 126.36 129.44 123.48 126.71 120.84 124.37 119.12 120.08 117.37 111.49 115.94 107.98 115.34 101.34 115.05 97.83 115.36 97.05 115.34 89.62 114.47 86.51 113 85.73 112.68 84.55 112.17 84.17 112.16 81.43 110.13 78.7 108.97 72.84 109.84 70.1 112.75 70.11 113.02 67.38 115.05 64.25 116.82 62.7 117.96 61.13 119.98 60.35 122.59 59.18 124.92 56.45 128.71 54.5 130.15 Z"/>
</g>
</svg>