<?xml version="1.0"?>
<svg xmlns="http://www.w3.org/2000/svg" version="1.2" baseProfile="tiny" width="800" height="1054" viewBox="0 0 800 1054" stroke-linecap="round" stroke-linejoin="round">
<g id="lakecrowley">
<path d="M 432.62 214.85 441.03 219.51 450.42 224.61 461.69 234.54 472.07 241.6 475.38 246.17 476.72 249.39 478.86 251.48 481.01 253.59 484.23 259.14 490.94 266.56 499.22 274.09 505.54 280.3 508.16 282.68 509.18 284.28 510.67 286.62 512.58 289.6 514.96 296.04 516.51 302.84 517.35 307.25 517.82 311.31 517.05 313.9 516.59 315.46 513.94 317.47 511.51 319.63 508.81 322.03 507.56 322.78 506.13 323.58 505.7 324.47 500.9 327 500.17 327.38 499.63 327.56 498.54 328.42 496.98 329.3 494.81 330.32 493.8 331.04 490.08 333.46 485.79 336.01 480.24 338.06 475.19 340.44 473.94 341.33 473 343.07 473.14 344.26 473.82 345.37 474.87 347.68 473.8 349.37 472.48 350.51 472.55 351.93 479.24 355.41 480.87 356.74 483.7 357.63 493.43 361.62 497.6 364.23 503.71 370.21 504.36 371.65 506.3 375.78 506.98 377.17 510.51 382.69 514.3 386.09 517.52 388.32 522.63 390.82 524.28 391.26 529.27 392.58 535.98 394.3 538.91 395.14 558.24 403.07 568.44 410.23 574.97 416.49 577.47 422.04 579.8 429.29 582.03 434.56 582.12 436.62 582.84 439.66 582.39 444.14 581.5 448.7 579.89 452.81 578.99 456.39 577.03 463.82 576.67 467.84 577.03 472.41 578.89 477.72 580.87 484.34 582.46 492.22 582.64 494.24 583.84 498.04 585.1 500.99 585.69 502.46 589.44 509.51 592.89 516.58 593.69 524.23 594.45 528.56 594.99 531.11 594.77 533.93 595.93 537.56 597.2 539.41 596.58 540.64 596.9 545.9 597.47 548.88 597.47 550.36 597.25 552.37 597.83 554.29 597.89 554.39 598.82 556.72 599.71 558.47 601.84 561.83 602.55 562.43 603.16 563.51 603.5 566.09 604.23 566.94 604.8 568.29 612.55 577.28 617.94 584.56 620.71 588.08 623.46 590.97 625.34 594.1 625.64 597.14 626.13 601.94 626.41 605.19 625.96 607.97 625.11 608.78 625.18 610.1 625.92 610.78 625.96 612.96 626.09 614.34 625.49 615.61 624.93 616.35 624.86 617.69 623.93 620.3 622.51 622.95 622.77 623.84 623.59 625.41 624.42 630.62 624.21 632.7 624.57 635.54 623.98 635.99 623.23 637.41 622.19 640.31 621.37 642.4 620.92 644.71 619.43 648.74 619.73 652.91 619.77 653.63 620.51 654.3 621.52 654.56 621.59 656.36 620.77 665.26 619.9 669.95 618.8 673.24 617.27 677.11 615.42 678.48 613.87 681.1 612.56 682 611.85 683.25 610.77 685.22 609.94 687.66 609.7 688.74 610 690.58 610.77 691.6 609.69 693.19 604.41 702.29 601.05 705.49 598.25 706.03 594.67 708.42 590.68 713.19 587.22 713.9 583.34 716.23 580.54 716.53 576.72 716.83 573.5 716.94 572.19 717.9 570.04 717.3 565.93 718.26 564.02 718.14 561.04 717.3 555.73 717.78 553.47 718.14 551.5 718.97 547.58 719.37 543.37 721.59 542.34 722.36 538.92 726.19 533.8 729.92 530.1 733.92 529.1 736.39 525.84 741.41 523.53 744.95 518.91 750.69 516.82 752.03 515.41 753.07 510.04 761.12 505.94 765.6 503.93 767.16 502.74 769.1 502.74 771.49 502.59 772.38 501.17 775.29 501.39 776.41 500.35 781.77 500.05 783.93 499.61 789.97 499.68 798.02 499.83 804.88 499.61 815.1 499.98 818.53 502.44 823.67 503.78 827.17 503.63 830.75 504.09 832.89 503.85 835.52 504.62 839.74 506.45 842.55 508.91 844.62 510.13 846.26 511.43 847.65 512.73 849.84 515.48 852.26 517.48 853.91 519.11 856.03 520.21 857.08 522.57 857.87 524.96 857.39 526.86 855.84 529.57 854.29 531.06 853.63 535.07 854.41 538.47 854.05 540.52 852.35 543.03 851.28 544.73 852.26 546.17 853.06 544.38 855.69 542.15 858.52 540.41 860.62 540.47 861.79 540.48 863.08 540.7 865.41 542.71 866.44 544.68 866.57 546.78 867.65 547.01 868.45 548.44 868.9 550.54 867.44 551.12 866.62 552.29 866.69 553.21 866.43 554.7 867.91 556 869.48 557.83 870.69 558.5 872.39 560.07 873.64 561.59 873.28 562.66 872.8 564.36 872.7 564.79 873.43 565.12 875.12 567 876.06 568.07 875.4 569.63 876.04 570.49 878.29 571.92 877.26 573.35 877.53 574.24 876.59 575.76 877.4 576.76 875.98 578.91 874.94 580.88 875.62 582.51 876.67 583.58 877.34 585.29 876.16 585.45 876.24 586.27 877.07 587.21 878.1 588.5 877.52 588.06 876.49 588.32 874.56 588.41 873.16 589.67 872.15 590.96 869.82 592.36 869.32 592.71 869.2 593.26 867.75 593.34 867.6 594.27 866.78 595.24 866.82 594.98 868.6 594.85 869.96 593.15 871.16 594.41 872.69 594.36 873.94 593.69 875.01 593.12 875.3 592.43 876.45 592.64 877.52 592.88 878.28 594.04 878.54 594.94 878.4 595.59 878.15 596.61 878.23 599.83 877.35 600.92 876.97 601.8 877.06 602.71 876.73 602.77 876.24 603.72 875.76 604.4 875.23 605.36 875.63 606.36 876.25 607.64 876.2 608.1 876.63 609.27 876.37 609.84 875.92 610.3 875.17 610.44 874.38 612.15 874.12 613.58 874.96 613.49 875.53 614.72 875.61 616.03 876.09 616.73 875.94 617.57 875.53 618.65 876.05 619.13 876.71 619.93 876.52 622.39 877.23 622.38 877.63 623.83 878.08 625.32 878.3 626.93 878.68 628.23 878.38 630.02 878.56 631.32 877.12 631.67 877.25 631.96 877.71 633.2 877.94 634.45 877.93 634.98 877.22 635.61 877.14 636.99 876.19 637.89 876.14 637.96 876.45 638.3 876.49 639.3 875.89 639.85 875.83 640.41 876.05 640.5 876.24 640.49 876.67 640.6 877.36 641.2 877.45 643.11 877.34 644.16 876 644.76 875.48 646.16 875.48 646.26 876.44 647.14 876.92 648.17 876.04 649.03 876.86 648.87 877.83 649.64 878.15 649.79 878.45 652 878.44 653.12 877.86 654.5 877.95 656.29 877.14 657.08 875.52 658.36 875.28 658.95 875.12 659.78 875.19 661.16 875.64 662.48 875.62 664.45 875.37 664.66 875.2 665.82 875.02 666.34 875.12 666.72 874.81 666.61 873.83 667.27 873.42 668.14 873.26 669.96 873.12 671.03 873.17 672.75 873.61 672.99 874.45 674.03 874.8 674.01 875.7 675.02 875.55 676.03 875.29 677.03 874.43 678.11 873.73 678.86 872.27 680.05 871.19 680.8 870.56 681.58 870.71 681.42 869.82 680.82 869.87 680.35 869.57 680.27 869.04 681.17 867.55 681.76 866.68 683.23 865.78 684.06 865.41 685.28 865.57 687.57 865.99 688.56 865.31 689.2 864.99 689.34 864.82 689.4 864.27 689.97 863.52 690.81 863.15 691.08 863.3 691.89 863.49 691.9 862.03 692.17 861.34 692.25 860.4 693.5 859.67 693.92 858.88 694.79 858.66 695.51 858.67 695.67 859.34 695.95 860.01 697.19 860.89 697.55 860.45 697.61 860.19 698.89 859.32 699.58 859.44 700.77 858.77 701.16 858.8 702.79 856.66 703.74 855.76 704.55 855.17 704.68 854.77 705.23 854.57 705.82 855.09 706.53 855.09 706.96 854.64 707.89 854.69 708.73 854.14 709.63 853.74 710.27 853.14 713.55 851.64 715.18 851.18 717.88 850.06 718.96 849.99 720.27 850.55 722.73 850.99 725.45 852.15 728.83 853.22 729.52 853.63 730.79 853.65 731.26 853.58 731.72 853.73 732.81 853.67 734.64 854.48 735.62 854.55 736.3 855.01 737.4 855.31 738.63 855.19 739.25 854.11 739.94 853.82 740.56 852.95 741.88 852.26 742.77 851.88 743.11 851.97 743.87 852.17 743.37 854.11 744.08 854.92 743.75 855.34 743.51 856.05 744.38 856.38 744.64 857.46 745.28 858.14 745.51 858.85 747.03 860.14 747.81 860.29 748.7 860.05 749.96 860.41 751.12 860.17 752.61 860.12 754.4 860.47 755.83 860.68 757.41 861.12 759.13 861.22 759.71 861.55 760.76 860.68 761.47 859.88 761.88 859.82 762.77 860.18 763.28 860.53 764.27 860.38 765.52 861.22 765.73 861.01 765.1 860.38 765.09 859.59 765.16 858.6 765.64 858.12 766.14 857.61 767.32 857.07 768.29 856.83 770.38 857.32 771.27 857.43 772.86 858.78 775.63 858.44 778.24 857.95 779.9 857.79 780.15 857.57 781.04 857.36 781.45 855.78 782.31 855.82 785.77 857.84 788.11 859.29 790.69 860.15 795.26 860.84 796.08 860.93 798.33 860.67 799 860.86 798.96 863.39 798.44 865.59 798.48 868.09 798.59 870.07 798.93 870.96 798.59 871.93 797.62 872.41 794.9 872.38 792.48 872.27 790.35 872.49 789.09 872.71 788.69 872.68 787.77 874.02 784.91 875.85 779.05 876.75 775.39 877.37 771.9 878.89 770.33 879.7 767.87 880.1 762.37 880.55 760.81 881.04 756.96 881.22 755.17 880.46 753.25 879.47 748.6 878.49 745.24 877.86 743.01 877.6 740.32 876.61 736.84 875.67 735.31 875.67 733.84 876.21 732.94 876.52 731.87 876.12 730.26 875.63 728.79 876.16 725.48 878.89 724.31 880.55 723.28 882.2 722.84 883.32 722.21 885.87 715.41 894.86 714.34 894.68 713.27 895.13 711.21 896.29 709.46 897.5 707.32 899.87 705.4 903.81 705.08 904.79 705.26 906.22 705.57 907.65 705.13 908.68 704.81 911.1 703.56 914.41 702.18 917.9 701.24 919.78 697.7 922.91 696.12 924.57 695.45 925.13 696.61 927.14 698.85 928.95 699.66 929.97 700.04 931.02 700.07 932.25 699.4 932.06 698.06 931.13 695.63 928.11 694.78 927.3 693.58 926.61 692.51 927.22 691.35 928.15 690.57 928.22 688.93 929.15 687.7 930.12 685.54 931.35 684.01 931.84 683.08 932.1 681.48 933.7 679.99 934.19 676.3 934.48 674.84 935.57 672.9 937.24 671.3 940.37 670.89 942.01 670.37 942.57 670.93 943.24 671.49 944.66 671.41 945.55 670.78 946.34 667.43 947.61 665.23 948.31 663.21 949.13 662.46 949.38 662.02 950.18 662.28 951.73 662.62 952.22 664 953.89 663.94 954.72 663.49 955.6 663.15 956.91 664.16 957.7 665.15 958.87 664.88 959.94 664.13 960.48 662.61 963.43 663.09 964.41 663.33 965.37 662.85 966.29 661.87 967.1 661.51 968.68 662.13 970.38 662.73 971.66 662.28 973.66 661.77 976.85 664.03 979.67 667.25 982.79 671.47 985.06 675.12 985.05 677.05 985.09 679.01 986.38 681.61 988.9 682.55 990.33 683.66 993.24 684.78 997.04 685.23 999.5 687.38 1003.79 688.99 1006.65 689.79 1009.07 690.06 1011.75 689.77 1015.56 691.4 1017.66 692.61 1018.46 693.06 1019.18 693.43 1019.72 695.29 1020.69 697.77 1021.07 699.3 1022.15 700.87 1023.34 702.02 1024.21 702.44 1025.03 705.27 1027.89 707.69 1030.62 708.09 1032.5 707.91 1034.51 707.55 1035.14 707.19 1037.82 707.51 1038.76 707.24 1039.97 705.45 1041.04 704.87 1041.24 704.3 1042.36 704.35 1043.98 705.44 1045.1 707.38 1046.06 708.78 1046.99 709.76 1048.04 710.76 1048.78 712.41 1048.99 713.05 1049.76 714.91 1051.88 714.77 1052.71 713.48 1053 712.98 1051.54 712.27 1049.95 711.86 1049.54 710.41 1049.54 709.12 1048.73 707.54 1046.99 706.16 1046.56 704.42 1045.49 703.42 1043.58 703.51 1042.19 704.02 1041.53 704.91 1040.01 705.94 1038.94 705.72 1034.6 704.96 1033.66 702.41 1030.58 700.49 1029.46 698.87 1028.52 697.94 1027.35 697.49 1026.82 695.52 1025.88 694.39 1024.92 691.45 1024.58 689.84 1023.91 689.45 1023.02 688.86 1022.78 687.74 1020.94 687.31 1019.21 686.02 1015.26 684.43 1011.07 683.15 1008.47 682.13 1006.25 681.66 1003.9 680.97 1002.07 679.08 999.94 677.34 998.47 676.85 997.19 676.75 996.08 675.89 993.8 674.51 991.95 672.59 990.93 671.69 990.61 668.45 990.26 664.87 989.4 662.23 987.76 659.84 985.52 659.13 984.37 657.12 983.21 655.89 982.73 654.21 981.57 653.58 979.67 652.98 977.84 652.35 976.72 652.51 973.89 651.79 971.66 651.91 969.44 651.75 968.89 651.47 968.13 650.27 965.66 648.73 964.88 648.55 963.83 651.04 961.93 651.9 961.41 653.43 958.76 653.91 956.45 653.73 955.74 653.22 955.5 653.3 954.69 652.52 953.06 652.1 952.64 651.83 952.48 649.92 951.84 649.58 951.06 649.55 949.85 651.04 949.33 651.57 948.36 651.28 947.41 650.64 946.64 650.23 945.76 649.37 945.54 649.2 945.04 648.78 944.37 648.82 943.56 649.44 943.25 650.39 943.32 651.12 942.99 652.43 942.32 653.7 941.48 653.99 940.31 654.17 939.83 654.76 938.89 654.46 937.56 653.57 936.88 652.62 936.64 652.5 934.61 653.18 934.37 654.11 933.63 656.19 932.82 656.62 933.04 657.84 931.86 659.13 930.44 659.66 930.08 660.66 929.87 661.92 928.97 663.76 928.05 664.5 928.12 667.77 926.55 668.13 925.84 668.18 925.17 668.99 924.69 669.94 924.6 670.41 924.76 671.26 925.92 671.82 925.3 671.25 924.28 670.96 923.86 671.42 923.26 672.03 923.22 672.36 923.73 672.96 924.29 673.39 923.65 673.48 923.21 674.31 922.83 676.54 921.38 677.49 920.95 678.02 920.25 677.95 918.81 678.67 918.36 679.34 918.19 680.24 918.55 680.98 918.55 681.99 918.5 683.27 916.9 684.15 915.92 684.42 913.95 684.99 912.73 685.47 910.73 685.37 909.65 686.38 908.44 686.66 907.28 686.78 907.05 686.66 906.36 689.07 902.52 689.95 901.61 690.99 899.7 691.6 898.82 692.31 896.1 693.41 893.57 694.27 891.71 694.41 890.52 694.03 890.57 692.54 890.85 690.66 891.3 688.81 892.34 686.81 893.57 686.24 893.84 685.59 895.04 683.11 895.9 682.52 896.68 679.48 896.79 678.12 896.86 677.02 896.42 671.87 896.99 670.1 897.51 668.55 897.26 668.53 898.29 668.22 898.92 666.99 899.37 665.75 899.33 664.97 898.28 663.82 898.21 663.14 898.58 662.28 898.71 660.92 899.6 660.62 899.85 660.62 900.46 660.05 901.1 659.06 901.09 658.03 901.46 656.99 902.12 656.56 902.73 654.61 903.5 651.14 903.77 643.89 905.25 638.1 906.67 635.61 907.12 629.35 908.83 623.91 909.95 621.01 910.91 618.55 910.39 618.12 909.54 615.8 909.72 610.57 909.36 606.45 910.75 604.13 912.94 603.68 914.23 604.13 915.89 604.98 917.54 604.8 919.29 603.95 920.85 600.77 924.34 598.67 926.49 598.31 928.19 598.62 930.87 598.22 933.2 595.85 935.53 590.35 941.43 584.89 944.61 583.64 945.63 580.89 947.71 577.8 950.38 576.44 951.36 576.06 950.8 575.65 949.97 575.39 948.31 575.2 945.15 575.58 942.05 576.56 940.76 577.41 939.63 578.63 935.73 579.51 933.63 580.39 930.09 583.07 926.63 585.04 925.8 585.87 925.02 585.93 924.55 585.34 922.52 585.81 920.37 586.76 919.69 588.75 918.17 590.19 916.2 591.48 915.22 592.2 913.96 591.8 912.53 590.02 911.36 586.2 910.22 575.82 911.21 570.37 912.1 564.47 913.18 559.28 914.61 552.66 916.93 549.8 918.63 545.77 920.07 542.19 920.78 538.35 921.59 534.41 923.11 528.42 927.31 526.18 930.08 524.3 930.44 521.89 932.95 521.26 935.45 516.52 939.84 513.29 944.53 510.74 947.23 507.79 949.11 507.47 949.96 507.12 950.17 507.28 951.58 506.59 954.3 502.48 956.62 499.17 958.44 498.54 958.68 498.16 959.16 498.45 959.84 498.42 960.41 497.65 962.23 495.53 964.38 494.04 964.8 493 964.88 492.5 965.29 492.5 966.35 491.76 968.18 490.94 969.48 488.89 971.72 487.02 973.36 486.57 973.62 486.05 973.84 484.6 975.52 483.15 976.45 481.28 978.99 480.09 979.84 478.67 981.18 476.44 983.5 475.66 984.46 474.84 985.43 473.98 986.66 473.75 987.75 472.71 988.01 471.85 989.46 470.74 992.89 469.65 994.75 468.65 995.87 468.09 996.21 467.83 996.8 467.12 997.81 465.37 999.34 464.36 999.9 464.03 1002.62 463.8 1003.18 464.21 1003.81 464.18 1004.63 463.47 1004.59 462.01 1004.59 461.42 1004.07 461.42 1003.29 462.01 1001.95 461.79 1001.01 460.93 999.11 460.93 998.26 461.95 995.52 462.32 994.09 461.98 992.49 462.42 990.44 464.64 987.68 465.91 985.33 466.71 982.36 469.21 979.49 470.92 977.81 472.61 977 473.71 975.84 474.7 974.16 475.08 972.59 476.03 970.95 477.45 969.35 479.34 966.32 481.41 964.87 482.36 962.4 487.61 956.16 488.98 953.72 490.2 951.3 490.5 950.64 492.2 944.09 493.33 940.63 494.94 937.05 495.78 933.17 496.67 931.89 500.42 930.48 500.75 929.51 500.83 928.73 499.9 928.17 498.67 927.99 496.43 928.21 495.16 927.65 494.75 926.76 494.08 926.38 491.92 925.94 489.76 926.1 485.89 925.65 482.46 924.46 478.88 923.86 475.6 923.86 474.18 924.03 472.05 923.74 470.48 923.97 468.84 924.45 467.99 924.49 466.76 925.12 465.15 926.35 463.44 927.95 461.69 928.96 459.94 929.89 458.85 930 457.96 930.67 455.2 932 453.75 932.39 451.46 933.59 448.2 934.52 447.75 934.73 442.6 935.83 438.81 936.77 433.56 939.07 429.83 941.16 424.02 943.24 420.29 944.58 417.28 945.25 410.39 947.07 407.05 948.08 403.8 949.69 403 950.56 402.13 952.14 401.09 953.24 397.63 955.45 393.86 957.34 387.74 959.2 385.36 956.81 383.27 955.32 380.49 954.68 379.4 954.43 379.4 950.94 379.18 949.15 379.27 947.36 380.25 945.75 382.4 945.3 384.1 944.28 384.19 944.23 385.71 942.8 386.69 941.72 387.32 940.56 388.12 940.29 389.37 939.57 390.37 939.23 391.97 937.7 392.15 935.55 392.21 932.49 392.91 930.56 391.61 930.45 389.73 931.26 388.39 932.69 387.59 934.12 384.54 937.61 381.86 941.01 378.73 943.87 375.15 945.75 370.5 948.34 368.18 951.03 366.48 952.81 364.24 954.96 362 956.12 359.32 956.94 355.92 956.58 353.06 955.51 350.02 954.26 348.05 953.36 345.19 952.56 342.24 952.47 337.23 952.73 336.33 951.84 334.9 950.59 331.68 949.96 326.58 949.25 322.92 949.96 316.12 950.86 312.99 950.95 309.68 949.87 307.35 947.19 307.26 945.04 307.62 942.8 307.89 940.12 306.1 937.71 303.78 935.83 303.24 933.95 304.58 931.8 305.57 930.37 305.39 926.7 305.3 922.59 305.57 919.99 308.16 917.58 312.81 914.27 324.26 908 335.49 898.44 352.11 889.07 358.82 886.83 362.09 884.3 360.46 881.61 355.98 881.02 348.38 881.46 342.57 879.97 341.37 876.99 341.82 871.48 338.99 869.69 334.52 870.13 330.19 871.48 321.25 871.33 313.5 868.64 305.3 864.32 298.59 861.19 288.15 860.59 276.97 859.4 268.18 856.71 258.04 854.33 250.14 852.24 239.7 847.17 231.21 842.25 227.12 839.57 216.75 835.27 203.15 832.17 191.22 826.81 180.85 821.56 172.98 817.02 164.63 811.42 159.86 806.53 156.76 801.4 153.54 795.08 153.06 786.85 152.34 777.07 150.91 763.11 149.24 758.82 145.55 753.57 140.28 748.67 137 744.79 131.26 737.42 126.36 734.32 121.77 730.81 119 727.09 114.74 722.48 108.36 717.7 104.63 714.62 100.48 710.77 96.78 707.79 90.85 703.19 83.52 696.03 67.78 677.78 57.28 658.27 43.21 646.12 27.22 635.25 18.27 623.42 15.07 613.82 7.4 602.95 1.32 595.59 1 587.92 4.52 579.28 11.23 573.21 19.55 569.05 31.38 556.26 41.61 546.66 49.92 543.15 56.64 536.11 60.15 526.2 65.59 521.08 79.34 517.24 97.24 514.36 116.11 514.68 149.04 512.45 164.71 507.97 179.48 503.19 183.66 504.21 189.66 504.78 198.44 504.91 203.12 504.5 205.96 505.06 209.89 505.26 217.58 505.82 226.5 505.82 234.37 505.9 244.93 504.74 250.3 503.55 258.65 503.25 264.41 503.32 268.81 506.4 279.31 509.14 297.67 514.63 303.28 515.1 311.98 514.87 320.69 513.67 323.2 513.08 330.47 510.69 338.7 510.57 347.79 510.83 356.74 511 370.75 511.6 381.48 512.5 389.83 513.09 396.09 514.58 400.86 512.79 406.83 510.41 418.16 508.02 428.03 506.72 429.74 505.48 431.2 504.23 432.53 502.94 433.55 501.89 434.15 500.38 437.8 493.17 435.71 490.93 431.69 487.95 428.26 487.95 420.95 487.35 417.52 484.52 412.19 479.69 406.53 472.84 406.19 468.98 406 466.74 408.63 469.02 412.57 474.03 415.11 476.44 417.86 472.84 417.56 470.45 413.98 468.06 411.3 465.08 409.15 459.49 406.33 456.42 403.84 451.87 400.51 446.21 398.45 443.6 395.33 441.9 386.77 439.74 380.81 439.2 378.72 438.31 378.55 436.17 383.25 431.28 390.6 422.75 390.73 416.9 390.65 411.39 393.62 406.51 397.28 401.98 398.96 400.05 400.09 398.21 401.53 395.65 401.66 394.14 402.68 392.88 403.78 392.21 404.93 391.09 405.26 389.92 400.86 387.55 398.67 381.53 397.92 380.25 396.07 377.67 393.57 375.36 390.96 372.67 386.98 368.75 384.03 365.37 382.4 363.11 381.09 359.72 380.47 356.6 378.95 349.98 380.68 346.18 381.73 341.75 381.1 339.6 379.94 335.4 380.03 332.62 381.27 330.39 382.29 329.09 384.28 327.44 391.07 321.03 390.95 319 390.12 315.06 390.18 311.72 391.25 308.74 392.74 307.07 393.93 305.4 394.35 303.79 394.89 302.03 392.56 300.93 389.04 297.77 386.84 295.56 386.66 292.88 387.55 291.03 388.51 289.6 388.89 287.85 387.09 287.23 383.98 287.09 379.75 286.61 376.11 286.56 374.3 286.22 372.84 283.86 371.79 281.57 369.01 278.92 367.83 278.56 366.5 278.15 362.79 277.37 360.18 277.47 355.51 277.61 350.48 277.95 346.76 277.82 344.26 277.47 342.29 276.58 341.24 275.23 340.64 272.81 339.1 269.56 337.31 267.65 335.16 266.22 330.81 264.01 329.13 262.13 327.41 259.18 325.86 257.21 325.92 255.6 326.44 251.39 326.94 248.51 330.04 243.97 332.36 240.24 332.3 239.49 331.29 236.88 327.29 234.49 318.89 231.21 314.53 229.84 305.95 227.51 301.18 225.55 295.15 223.34 286.33 219.4 283.17 217.4 279.45 216.83 276.46 216.36 283.32 215.02 291.81 215.17 298.07 215.62 301.8 216.21 302.4 213.83 299.71 206.37 299.18 204.75 297.88 202.94 296 200.19 294.25 197.17 292.29 194.42 291.67 191.25 290.52 188.51 289.66 186.43 288.38 183.86 287.31 181.4 286.61 178.16 287.06 175.58 288.01 173.57 288.27 171.88 288.16 169.26 288.41 165.79 288.07 162.14 288.08 159.73 287.5 156.93 286.34 154.71 285.07 153.35 283.43 151.6 282.1 148.86 280.45 145.47 278.63 141.89 275.7 139.54 273.95 138.24 273.17 136.96 273.25 135.24 273.61 132.69 273.95 129.57 273.87 127.19 273.54 124.84 272.31 121.69 270.38 119.26 270.07 117.8 270.66 116.23 271.5 113.9 271.86 111.4 272.38 104.98 272.53 102.97 272.83 98.72 272.83 93.72 272.6 89.7 271.86 86.05 270 81.35 268.95 78.14 269.4 74.79 270.37 71.96 271.79 68.53 273.42 64.73 274.47 60.48 274.77 56.38 275.06 52.87 274.59 46.56 275.06 40.48 279.48 35.23 281.15 27.96 282.22 20.08 284.84 10.9 291.05 5.29 300.47 1.72 305.63 1.41 308.58 1.24 318.24 1 322.07 1.27 328.49 1.72 334.22 3.98 336.96 8.51 339.35 13.41 341.02 15.79 343.61 18.39 344.77 22.86 345.58 29.03 346.29 41.73 345.94 49.79 347.01 53.9 348.11 54.69 349.87 55.96 357.47 59.18 367.94 63.03 375.88 66.58 379.12 68.04 384.84 71.08 390.23 74.72 393.75 80.63 395.6 86.77 398.31 91.16 401.56 96.79 402.04 102.16 402.22 114.09 402.17 122.03 402.16 124.05 401.2 130.73 398.9 144.27 399.8 157.51 401.14 170.75 407.4 182.02 416.7 193.38 424.75 207.16 432.62 214.85 Z M 342.91 947.94 342.97 949.02 344.76 948.9 347.04 948.46 348.92 948.19 350.6 947.17 352.51 945.08 354.12 942.81 354.78 940.55 354.54 939.23 352.15 940.67 349.11 941.68 345.35 944.01 343.16 944.79 342.36 946.05 342.91 947.94 Z M 704.13 880.32 703.38 881.44 702.3 882.89 700.4 885.17 698.76 886.62 696.9 887.78 696.19 888.63 695.46 889.68 695.98 890 698.06 889.86 701.29 888.74 704.66 887.04 705.41 884.6 705.87 883.58 707.43 881.74 708.1 880.48 707.3 878.5 707.19 877.9 706.51 878.09 704.91 879.09 704.13 880.32 Z" fill-rule="evenodd"/>
</g>
</svg>