<?xml version="1.0"?>
<svg xmlns="http://www.w3.org/2000/svg" version="1.2" baseProfile="tiny" width="800" height="587" viewBox="0 0 800 587" stroke-linecap="round" stroke-linejoin="round">
<g id="clearlakereservoir">
<path d="M 33.18 109 32.44 109.3 31.26 109.69 29.33 109.94 27.99 109.89 25.52 110.33 24.33 110.14 23.15 108.8 22.36 105.79 22.26 103.96 22.11 101.93 22.51 100.94 23.25 99.16 22.9 97.38 23.2 95.8 23.64 94.27 24.48 93.73 25.4 93.97 26.31 94.22 27.15 94.76 27.89 94.91 30.17 95.41 31.95 95.8 34.72 96.84 36.99 97.58 39.26 98.87 40.7 99.76 42.28 100.2 44.55 100.79 45.79 101.68 46.98 102.18 48.46 102.38 50.44 102.92 52.66 103.76 53.95 104.4 53.3 104.85 52.27 105.79 50.19 106.72 48.76 107.32 47.48 107.57 46.28 107.81 45.49 108.45 43.37 109.84 42.58 109.94 41.84 109.94 41.09 110.28 40.08 110.31 40.75 110.98 42.9 110.68 45.35 110.23 47.79 109.42 50.07 108.53 51.43 108.01 53.13 107.27 55.95 106.68 59.88 105.71 62.62 105.27 65.07 105.49 67.52 105.93 70.48 106.23 73.5 106.22 75.43 105.63 76.62 104.89 77.58 104.66 78.84 104.52 80.77 104.07 85 103.55 88.04 103.26 89 103.78 90.11 104.52 92.34 103.92 95.82 104.22 99.23 104.52 102.79 104.52 104.57 104.52 106.8 104.37 108.87 104.44 109.99 104.22 111.91 104.07 113.77 104.29 115.25 104.59 117.25 104.66 119.27 104.82 121.11 104.96 122.07 105.48 124.22 105.93 126.74 106.22 128.45 106.52 130.01 106.07 131.27 106.67 132.68 107.11 134.9 107.63 136.9 107.19 138.09 106.82 139.13 107.11 140.61 107.11 142.17 106.74 143.8 106.22 144.99 106.07 145.88 106.3 146.84 106.59 147.73 106.44 148.92 106.37 149.14 105.63 150.18 105.33 151.36 104.74 152.48 104.07 153.29 103.4 152.85 102.66 153.89 102.59 154.63 102.29 154.7 101.33 153.37 100.74 152.33 99.92 151.66 98.51 150.7 98.29 150.82 99.05 150.82 101.03 150.08 102.14 148.1 103.13 145.26 103.75 141.55 102.89 139.82 100.91 137.47 97.57 137.69 95.34 139.11 95.06 140.17 94.93 141.19 94.42 142.27 93.5 142.62 92.49 142.55 91.23 142.62 90.36 142.62 89.37 142.55 88.53 142.4 87.67 142.25 86.73 142.57 86.09 142.57 85.25 142.23 84.73 141.46 84.8 140.72 85.12 140.04 86.01 138.99 87.62 138.55 88.61 137.32 89.6 135.96 90.28 134.79 89.66 133.05 88.3 131.88 87.68 130.12 88.07 128.42 86.75 129.29 85.02 133.8 84.28 142.18 84.4 143.24 84.33 145.21 84.21 147.31 84.09 149.91 84.33 151.52 84.52 153.25 84.7 155.04 84.83 156.52 85.2 158 85.08 159.49 84.89 161.77 85.26 163.2 85.51 165.23 86.37 166.96 86.5 168.2 86.31 169.44 86.43 169.87 87.05 171.41 86.93 174.22 87.32 176.67 87.73 177.96 87.05 179.26 86.93 181.05 86.56 182.17 86.5 186.49 86.19 188.84 85.69 191.44 86.13 194.03 86.31 199.47 86.93 202.44 87.49 204.29 87.92 205.53 87.73 206.82 87.86 207.75 87.98 209.54 88.29 211.09 88.84 211.77 89.83 212.2 91.13 211.95 92.3 210.84 92.37 208.68 91.87 206.82 91.38 205.53 91.81 204.23 92.61 202.25 93.35 201.26 93.29 200.58 93.85 199.9 94.78 198.48 95.02 197.37 94.65 195.95 94.1 195.64 94.96 196.01 96.32 196.94 97.06 198.42 97.56 199.96 97.56 200.83 97.56 201.51 98.48 202.56 98.48 204.85 98.67 207.07 98.48 209.36 98.73 212.63 98.98 214.8 99.41 216.59 99.72 219.37 100.21 221.16 100.21 223.08 100.09 224.25 101.02 225.42 101.02 226.78 100.89 228.64 100.95 233.52 101.33 236.67 101.57 238.15 101.14 239.82 100.77 243.16 100.77 244.64 101.2 245.88 101.82 248.6 102.07 251.56 102.68 253.79 103.18 256.94 103.61 258.55 104.04 259.78 104.04 261.14 104.72 262.56 105.22 263.2 104.45 263.64 105.16 263.7 105.27 264.2 105.7 265.5 105.76 266.36 106.19 267.41 106.5 269.33 106.38 270.07 106.81 271.18 107.37 272.66 108.48 273.84 108.48 274.52 108.91 276.25 108.79 276.19 109.28 276.5 110.33 277.11 112 278.47 113.36 279.59 114.1 280.14 113.61 280.14 112.31 280.76 111.76 282.18 112.37 282.8 111.45 283.29 110.83 283.73 109.9 284.59 110.21 285.33 111.2 286.69 111.2 287.87 110.58 289.66 109.53 290.59 108.54 291.82 108.11 293.24 108.36 294.05 109.16 294.29 111.08 294.6 112.43 295.28 113.73 296.21 115.09 296.95 115.59 298.5 114.97 299.92 114.54 301.09 114.72 301.18 114.75 302.57 115.15 304.12 116.08 303.07 116.76 302.33 116.08 301.21 116.57 301.03 117.38 300.53 118.06 301.03 118.98 302.14 119.66 304.55 120.78 306.28 121.08 307.95 120.59 309.93 119.79 310.73 119.05 312.58 118.37 314.87 118.06 316.29 117.69 318.58 117.25 319.38 117.44 320.87 117.62 322.41 117.13 323.58 117.01 325.56 117.13 327.54 117.44 329.21 117.62 330.26 118 331.74 118.12 332.92 118.06 333.97 118.12 334.4 118.92 335.76 119.6 337.24 120.03 338.97 120.84 341.07 121.58 342.56 121.27 343.67 121.39 344.16 122.38 345.34 123.12 346.45 123.8 347.87 124.24 348.74 125.04 349.04 125.78 349.42 126.46 350.53 127.08 351.76 127.63 352.32 126.89 353 126.95 354.54 127.33 355.78 127.39 357.02 127.63 357.08 128.75 357.51 129.55 358.56 129.98 359.86 129.67 360.66 129.06 360.54 128 360.91 127.7 360.29 126.27 360.29 125.53 360.54 124.85 360.04 124.11 359.36 123.62 359.49 122.88 358.87 122.26 357.76 122.63 356.71 122.07 355.31 121.84 353.33 121.25 352.25 119.27 351.65 118.18 349.08 117.19 346.02 116.2 343.35 115.61 341.47 114.23 338.4 112.15 335.04 110.87 331.58 110.37 326.04 110.47 320.21 110.67 313.68 110.57 310.13 110.07 305.68 110.37 303.57 109.75 302.96 109.56 300.78 108.92 299.99 107.39 299.64 106.55 299.05 105.56 298.21 105.61 297.17 105.36 295.94 104.52 294.95 103.83 293.27 103.09 292.18 102.59 292.03 101.21 292.38 99.83 292.67 98.84 293.37 98.05 293.86 97.35 295.64 97.5 298.31 97.21 300.78 96.96 303.3 96.86 304.23 96.74 305.23 96.61 307.85 96.42 309.88 96.07 312.84 95.82 315.66 95.97 318.08 96.07 319.22 96.61 319.62 97.5 320.41 98.79 322.14 99.23 323.67 99.43 325.19 99.58 326.92 99.33 328.01 100.12 330.63 100.17 332.11 98.39 334.78 97.01 336.22 97.16 337.75 97.36 338.29 97.75 338.14 98.74 338.19 99.48 339.33 99.48 340.27 99.48 340.47 100.57 341.56 99.88 343.09 99.73 346.1 99.83 349.96 99.43 352.63 97.85 354.56 97.11 355.89 96.66 356.73 95.97 358.61 96.12 359.8 95.28 360.65 94.24 377.34 96.91 387.79 98.99 393.06 99.95 406.48 101.88 413.89 102.4 418.94 101.88 419.53 101.58 424.57 100.17 426.8 99.06 428.8 97.5 430.43 96.39 432.06 95.72 433.99 94.98 436.81 94.17 439.18 93.8 441.26 93.35 442.44 92.31 442.67 90.53 441.85 89.42 440.59 88.16 439.77 86.9 440.59 86.6 442.15 87.2 443.19 88.75 445.56 90.76 446.15 92.16 445.71 93.5 446.52 94.39 448.08 95.06 451.86 96.34 454.33 95.85 456.71 94.86 459.67 93.28 460.86 92.19 462.74 91.79 464.81 91.4 466.99 91.1 469.16 90.81 471.83 90.9 475.79 91.6 477.27 92.68 478.66 93.77 480.73 94.46 483.11 93.97 486.37 93.87 488.64 93.87 492.99 93.47 497.15 92.88 498.23 92.19 499.42 91 501.3 89.72 501.3 85.86 501 83.29 500.31 80.62 500.11 78.15 501 74.79 501.6 72.42 502.39 69.85 502.58 68.07 502.98 66.98 502.49 65.2 502.98 62.43 503.18 59.76 503.08 57.89 502.68 54.82 502.68 52.45 502.39 50.77 501.6 47.9 501.4 45.73 501 44.34 500.71 42.07 500.91 40.52 501 39.79 501.79 38.51 501.79 37.22 502.49 35.74 503.87 34.26 504.96 33.07 505.16 31.39 505.55 30.2 506.34 27.44 505.95 25.26 505.95 22.99 505.65 20.12 505.6 16.42 505.85 15.24 506.4 13.82 507.27 12.22 508.44 9.87 508.83 9.45 509.62 8.63 511.04 8.01 512.33 7.21 514.19 6.84 515.86 6.28 517.34 5.29 518.45 4.37 520.12 3.5 522.78 2.89 525.19 2.58 526.79 1.96 527.85 1.59 530.26 1.53 534.58 1.9 536.06 1.9 543.85 2.95 546.14 3.07 551.7 3.81 555.47 4.49 558.93 5.67 561.4 6.16 563.25 7.15 565.66 7.95 570.36 9.43 573.82 10.18 576.48 11.23 579.14 12.09 581.18 12.28 583.71 12.28 584.95 12.52 586.49 13.02 585.5 13.88 584.39 14.69 581.98 15.3 579.88 16.17 578.21 16.85 575.24 17.28 571.92 17.65 569.57 18.21 566.24 18.83 565.31 18.83 564.69 19.63 566.67 19.38 569.2 19.26 571.61 18.95 575.86 18.76 577.53 19.32 579.75 19.01 582.6 18.89 585.38 19.2 588.96 19.14 592.24 19.2 595.64 19.75 598.17 20.43 600.77 21.17 606.33 23.09 610.71 24.51 617.14 26.3 619.8 26.86 623.01 27.91 628.82 29.82 631.17 31.12 633.89 32.36 635.8 33.59 638.21 34.77 638.77 35.57 640.01 36.56 640.81 36.68 640.75 34.95 640.62 32.23 640.87 29.7 641.43 26.55 642.35 25.13 642.79 24.02 642.72 22.47 641.8 20.43 641.43 18.89 640.5 17.71 639.33 17.78 637.1 18.21 634.88 18.52 632.47 17.84 626.84 15.43 625.42 14.44 624.74 12.4 624.56 10.73 624.31 9.56 624.93 8.75 626.97 8.69 629.25 7.83 631.54 7.64 632.9 8.14 635.87 9.06 638.52 9.31 639.94 9.13 640.69 8.38 643.16 8.38 645.07 8.32 646.69 8.32 647.24 8.32 649.71 8.2 651.31 8.57 656.13 9.74 661.14 10.86 664.79 11.91 668.25 12.83 670.04 13.88 671.34 15.06 674.36 17.56 673 17.93 671.02 18.42 671.14 20.28 672.5 21.14 673.99 22.62 673.37 24.17 675.59 25.65 677.63 25.28 681.53 26.21 684.97 25.87 686.12 23.24 687.67 21.08 689.83 20.15 694.31 15.83 697.09 12.89 698.79 13.98 701.11 11.19 704.35 11.66 705.8 11.87 706.42 11.63 705.74 10.39 705.74 9.16 706.48 8.54 707.6 8.66 708.03 9.77 707.66 10.58 708.34 11.63 707.84 12.55 707.16 12.99 708.27 13.54 711.8 13.85 710.75 12.74 714.27 13.79 716.99 13.73 719.34 12.99 721.19 12.06 723.6 9.16 726.32 6.5 727.93 4.58 729.84 3.04 730.34 2.24 730.95 3.04 732.62 2.3 734.41 1 732.68 3.16 730.27 4.4 728.3 6.25 727.62 7.43 726.26 8.72 724.65 10.14 723.66 11.26 718.51 15.01 715.25 15.8 711.94 16 710.16 15.9 707.34 15.11 704.97 15.11 703.09 16.1 702.15 17.73 701.21 18.77 699.93 19.31 697.16 20 695.08 20.99 693.65 21.64 692.71 23.07 691.47 24.45 690.63 25.84 690.68 27.17 690.28 28.85 689.69 30.14 688.16 31.73 688.9 33.43 690.53 33.95 693.57 33.06 696.98 31.58 701.51 30.1 703.06 30.24 703.95 31.13 704.25 31.43 702.1 33.06 699.43 34.62 696.54 35.21 694.24 36.62 691.64 38.1 689.49 39.07 688.08 40.03 681.71 43.44 679.93 44.55 679.85 47.67 680.87 49.5 681.61 52.22 684.2 53.08 689.02 54.56 693.1 57.03 696.69 58.76 698.23 61.57 700.7 63.42 702.56 64.81 703.48 67.74 702.87 68.67 704.87 70.99 708.58 73.92 711.36 76.09 713.53 79.02 716.15 82.57 717.73 85.07 720.63 89.68 721.71 89.99 724.19 92.15 726.5 95.24 728.2 99.72 729.28 103.12 729.96 105.53 731.14 107.39 732.26 108.65 733.52 109.83 733.89 110.65 733.37 111.54 732.55 112.43 733.29 113.54 734.48 114.65 735.59 115.25 737.45 115.17 738.71 115.69 737.3 116.36 735.15 116.73 733.96 116.28 733.52 117.03 732.85 118.8 733.07 120.14 733.89 121.33 734.78 121.92 735.22 122.88 735.74 123.92 737.08 124.81 738.49 126.07 738.26 127.18 738.63 128.37 739.89 129.41 740.27 130 741.01 131.34 742.05 131.63 742.05 132.52 742.05 134 743.01 134.89 744.79 135.71 745.98 135.86 747.46 133.49 747.76 134 747.16 135.93 747.68 137.12 748.87 138.01 750.87 138.68 753.24 139.71 754.87 140.38 756.06 141.2 758.66 142.83 759.25 143.87 760.51 145.05 761.7 145.57 762.59 146.98 763.7 148.54 764.81 150.54 766.15 152.47 766.89 154.32 767.24 156.35 767.27 156.78 767.61 157.55 768.16 158.02 768.5 158.23 768.66 158.6 769.49 159.41 769.96 160.37 770.48 161.32 770.54 162 771.01 163.02 771.59 163.76 772.09 164.2 772.27 164.97 772.95 165.43 773.6 166.45 774.22 167.9 774.74 168.77 775.46 170.04 779.01 173.84 779.44 174.64 780.31 174.92 780.12 175.32 780.8 175.72 781.2 176.46 781.57 177.39 781.79 178.1 782.38 178.41 783.09 179.55 783.58 179.92 783.8 180.48 784.82 182.11 785.28 182.36 785.28 182.89 785.81 183.26 786.21 184 786.7 184.49 786.52 184.68 787.41 185.3 787.23 185.95 787.44 186.72 788.03 187.4 788.93 188.11 789.61 188.76 790.16 189.62 790.72 190.05 791.03 190.42 791.49 191.32 791.86 192.28 792.85 192.96 793.56 193.42 793.81 193.98 794.71 194.97 794.71 195.8 794.77 197.31 794.83 198.55 795.11 199.69 795.29 200.71 795.91 201.27 796.31 202.32 796.62 203.34 796.5 204.57 796.47 205.62 796.59 206.64 796.78 207.79 797.24 208.74 797.52 210.04 797.86 210.38 798.54 210.26 798.04 211.19 798.44 211.56 798.41 212.24 798.26 212.73 798.91 213.07 798.94 213.66 799 215.36 798.85 216.34 798.32 218.41 798.01 219.37 797.8 220.33 796.1 223.64 795.85 224.56 794.77 226.51 792.3 230.12 791.68 231.73 790.63 234.08 790.26 234.51 789.67 235.81 788.43 237.26 788.4 237.75 787.72 238.83 787.29 239.36 787.14 240.16 787.63 240.72 787.51 241.37 787.75 242.14 788.56 243.62 789.05 244.21 789.05 244.7 789.05 245.23 789.3 245.94 789.64 247.08 790.1 247.52 790.47 248.16 790.19 248.35 790.29 249.4 789.79 249.65 789.67 250.2 789.89 251.72 790.22 252.15 790.38 253.17 790.47 254 790.66 254.84 790.87 255.36 791.37 256.01 791.68 256.91 791.96 257.59 791.52 257.77 791.12 257.87 791.34 258.39 791 258.88 791.03 259.56 790.97 260.12 790.75 260.77 790.97 261.66 791.03 262.59 790.87 263.24 790.56 263.7 790.5 264.23 790.6 265.19 790.41 265.74 790.47 266.73 789.58 268.52 788.71 269.67 788.09 271.24 787.29 272.57 786.64 273.59 785.19 276.18 784.63 277.3 784.7 277.79 784.91 279.34 785.4 280.26 785.34 281.25 785.4 281.99 785.4 283.51 785.37 284.77 785.19 285.51 784.94 285.76 784.08 285.7 783.67 286.47 783.74 287.24 784.08 287.86 784.45 288.3 783.92 288.45 783.33 289.04 783.09 289.75 783.09 291.14 783.21 292.19 783.21 293.27 782.69 293.7 781.88 293.76 781.17 293.36 779.77 293.67 778.25 293.93 776.91 293.67 775.69 293.11 773.65 291.97 773.02 291.26 771.43 291.22 771.09 290.82 767.86 290.34 765.69 291.73 765.07 294.2 763.22 296.98 761.73 300.32 762.47 304.02 762.32 305.9 760.95 307.64 760.28 308.9 759.27 310.28 758.84 310.84 758.19 311.7 757.51 312.07 757.01 312.78 756.8 313.46 757.2 314.27 758.37 314.67 759.33 314.85 760.2 315.19 760.35 315.69 760.13 316.37 759.73 317.11 759.61 318.19 759.33 318.99 760.1 319.21 760.63 319.43 759.76 320.57 758.93 321.09 758.22 321.59 757.91 322.24 757.85 323.23 757.35 324.43 756.86 325.11 755.75 325.36 755.07 325.64 754.32 323.6 753.71 322.45 752.69 321.31 751.91 320.72 751.08 320.51 750.38 320.52 750.06 321.03 750.06 321.96 750.31 322.85 750.52 323.6 750.93 324.55 751.23 325.14 751.61 325.64 751.57 326.41 751.88 327.06 752.25 328.23 752.59 329.16 752.84 330.33 753.18 332.03 753.4 333.91 753.92 335.12 754.91 336.54 755.81 338.21 756.43 339.97 756.61 341.7 756.46 343.18 756.21 344.39 755.96 345.35 756.08 346.77 756.01 347.04 757.66 349.34 758.16 351.81 760.14 353.54 763.6 355.02 767.68 358.11 765.2 357.12 763.1 357 761.25 355.27 758.16 354.16 756.68 351.68 755.37 349.76 754.7 347.85 754.08 346.43 753.21 343.4 752.9 341.11 752.97 339.82 752.41 338.46 751.17 337.28 751.11 337.65 749.81 336.23 748.52 334.07 747.53 331.91 746.23 330.24 745.61 329.81 745.12 328.38 743.76 327.21 743.14 327.09 742.4 326.1 740.61 324.86 738.88 323.69 737.95 322.76 736.59 322.33 737.64 323.26 738.44 323.75 738.88 324.86 739.56 325.67 738.69 325.48 737.83 324.8 737.52 324.86 737.33 324.43 736.53 323.57 735.66 322.58 734.24 321.59 733.25 320.41 732.08 319.24 731.21 318.07 729.42 316.58 728.62 315.78 727.69 315.59 726.02 314.54 725.03 314.24 723.98 312.2 723.24 310.65 722.81 309.35 722.44 308.49 721.14 308.18 720.46 307.07 719.97 306.45 719.97 305.09 719.29 303.48 718.17 300.64 717.62 297.86 717.99 294.77 718.98 291.99 719.97 291 720.09 289.4 720.65 287.79 721.08 286.68 722.13 286.43 722.99 285.2 722.75 284.08 721.94 283.34 720.52 283.28 719.84 284.08 718.79 283.22 716.63 283.77 714.1 284.82 711.93 285.88 710.14 286.49 708.53 287.61 708.1 288.59 707.36 288.59 706.19 290.02 704.83 291.81 703.22 293.04 701.43 294.09 699.82 294.71 699.2 293.1 698.46 291.44 698.03 290.26 697.41 289.77 697.35 288.84 696.17 286.8 695.56 286 694.57 283.22 693.76 281.12 693.15 278.15 692.28 276.24 690.74 275 688.45 272.53 686.78 269.19 685.36 266.1 684 263.39 681.34 260.05 679.61 258.07 677.57 255.79 676.21 253 676.09 251.83 676.58 249.61 676.15 248.25 671.21 246.95 668.3 246.46 665.4 245.96 662.56 245.1 660.09 244.17 657.8 243.55 655.14 242.62 651.37 241.14 649.39 239.41 647.79 237.37 646.37 233.79 646.55 231.44 645.38 227.8 643.52 226.31 641.18 224.77 638.33 224.4 637.16 224.46 634.44 224.03 632.21 224.03 628.94 223.47 627.39 224.03 624.37 225.08 622.27 225.94 620.84 225.88 618.99 225.88 617.01 226.62 614.54 226.5 612.5 227.12 609.23 227.49 603.66 226.99 601.07 226.81 598.54 226.31 596.87 226.44 595.14 226.44 592.54 227.3 589.14 227.98 585.19 228.6 582.22 227.49 579.69 226.13 577.46 223.35 574.81 219.95 571.53 216.61 567.82 214.82 565.91 214.14 563.44 213.03 560.84 211.3 559.67 209.51 558.37 208.21 556.67 208.07 556.08 208.02 553.67 209.01 549.84 209.63 545.95 209.57 542.86 209.07 540.45 209.14 537.6 208.89 534.64 208.21 532.23 207.34 531.05 205.61 528.89 205.49 526.85 206.23 523.08 206.17 520.73 205.99 518.2 205.68 515.91 204.01 512.82 202.9 511.22 202.96 509.49 201.97 505.04 200.8 502.2 199.13 500.22 196.72 499.17 192.58 499.54 188.62 499.79 185.35 501.21 183.99 501.64 182.26 504.36 179.79 505.04 178.37 503.86 176.82 502.2 175.89 500.53 174.54 500.16 172.87 500.77 170.46 501.27 168.79 502.2 167.37 502.38 166.75 501.58 165.21 499.85 163.85 497.25 162.49 497.37 161.07 496.82 159.95 495.77 159.27 494.59 158.72 493.61 157.11 492.8 155.38 493.11 153.96 494.04 152.66 494.53 151.24 494.04 150.19 492.99 149.39 491.63 149.39 491.32 148.52 492.37 147.97 494.1 146.67 495.58 145.31 495.09 143.21 494.9 141.54 495.64 140.55 496.63 140 497.99 139.56 499.17 138.33 500.03 136.54 498.05 134.93 496.08 133.82 494.16 132.89 491.63 131.66 490.45 130.05 490.7 128.01 490.58 126.09 489.77 124.8 489.66 122.39 489.77 120.9 489.71 118.37 489.03 116.58 487.24 115.59 485.7 115.65 483.41 116.39 480.88 116.39 477.97 115.1 475 113.37 472.72 111.45 470.49 110.03 466.48 109.04 462.95 108.61 461.66 107.68 458.69 107.93 454.8 107.99 451.27 107.81 448.8 108.05 449.48 108.61 447.26 109.1 443.67 110.28 440.83 112.56 439.04 113.49 436.88 115.28 435.33 116.58 434.22 117.57 433.35 118.43 434.16 118.99 433.29 121.09 433.29 122.7 433.85 124.43 434.84 125.79 435.64 127.33 436.81 127.7 437.74 128.07 438.67 128.6 440.03 129.18 441.57 129.99 443.98 131.16 446.27 132.4 448.56 133.63 450.66 134.37 453.07 135.05 454.92 135.61 456.59 136.23 458.44 136.85 460.11 136.91 461.22 137.15 461.9 137.9 462.03 138.95 462.4 140.24 462.65 141.48 462.52 142.84 462.15 143.77 461.04 144.14 459.49 144.2 457.76 143.95 455.42 143.33 453.56 143.21 452.57 142.72 451.34 141.42 450.97 140.99 451.27 140.37 451.34 139.75 450.53 139.63 449.73 140.18 449.3 140.8 447.63 140.68 445.96 139.75 444.6 138.58 444.91 138.21 443.8 137.59 442.13 137.09 439.47 136.91 437.8 136.78 436.13 137.46 434.65 138.02 433.11 138.27 431.01 138.58 428.84 138.7 427.92 139.32 427.85 140.18 428.6 140.92 429.96 141.42 431.99 141.91 433.42 142.16 433.91 142.78 434.96 142.78 436.32 142.1 437.37 142.65 437.43 143.89 437.25 145.25 436.88 146.92 436.07 148.34 435.08 149.08 433.79 149.51 432.06 150.01 430.76 150.5 429.34 150.75 428.78 151.12 429.52 151.98 430.45 152.79 431.62 153.47 433.23 154.52 434.4 155.13 435.15 156.49 436.13 157.36 436.94 157.67 437.8 157.73 437.93 159.03 437.31 160.88 436.32 162.8 435.39 163.78 433.48 164.4 431.31 164.09 428.35 164.09 425.69 164.71 423.03 165.45 421.67 166.5 419.57 167.06 417.6 167.12 416.24 166.94 415.62 166.26 414.94 165.95 414.32 166.26 414.63 166.57 414.01 167.43 412.28 167.55 410.49 167.37 409.5 167.24 408.08 168.23 406.53 168.85 405.24 169.53 403.07 171.08 402.76 172.13 401.9 173.18 400.79 173.49 400.23 173.55 400.54 171.82 400.23 170.95 400.79 169.16 402.02 167.86 403.69 166.01 404.74 164.65 404.8 162.98 405.61 161.13 406.53 159.77 407.71 158.29 408.45 156.31 409.19 154.7 410.12 153.22 410.3 152.05 409.99 150.99 409.38 149.51 408.51 147.91 407.71 147.29 406.29 147.78 404.99 148.59 404.12 149.33 403.75 150.07 403.2 149.64 403.07 148.77 402.39 147.97 401.34 148.03 399.92 148.34 398.81 147.6 399.43 146.86 398.32 146.92 397.2 146.86 395.53 147.04 395.29 147.72 394.05 148.28 394.42 149.51 394.85 150.19 395.97 150.25 397.26 150.69 397.39 151.55 398.07 151.8 397.64 152.6 397.02 153.28 397.14 154.45 396.58 155.32 396.4 156.31 396.77 157.36 396.21 158.84 395.84 160.2 395.35 161.31 394.98 162.55 394.42 163.29 394.05 164.77 393.5 166.32 391.76 168.79 389.91 171.14 387.62 173.55 386.51 174.91 383.79 176.02 381.26 177.38 379.65 178.43 378.36 178.86 375.64 178.74 373.53 178 371.06 177.25 368.96 176.64 367.6 176.39 366.43 177.32 366.86 178.06 368.16 178 370.14 178 371.06 178.98 370.75 179.91 371.25 181.39 370.94 182.69 370.07 183.68 368.22 184.36 367.79 185.41 367.6 186.83 366.92 188.01 365.56 188.19 364.57 188.81 363.46 188.81 363.03 188.25 362.04 188.62 362.23 190.29 361.98 191.53 362.66 193.2 363.89 194.68 364.95 195.67 366 196.84 367.54 197.77 369.09 198.63 370.07 199.56 370.45 200.49 370.2 201.78 369.46 203.27 368.78 204.38 370.01 205.37 371.43 206.54 372.61 207.1 373.41 208.58 374.4 209.51 375.2 211.11 375.39 212.6 377.06 213.09 378.42 213.34 380.15 214.88 380.58 216.18 379.9 217.11 378.6 217.42 378.48 218.1 380.02 218.16 380.21 219.45 378.73 220.26 378.85 221.86 379.71 222.61 380.83 223.04 381.88 222.73 383.85 223.78 385.52 224.64 386.39 225.94 385.03 226.68 385.46 227.43 386.45 227.61 388.18 228.04 389.23 228.04 390.65 229.09 391.46 230.33 392.07 232.12 392.75 233.36 393.56 234.65 394.3 236.14 394.55 237.99 395.1 239.47 395.6 240.21 396.34 241.39 396.65 243 396.65 245.1 396.58 246.52 396.71 247.14 397.64 248.06 398.69 249.05 398.44 250.6 398.07 251.83 397.02 252.33 396.46 252.63 396.65 253.44 396.83 253.93 396.15 255.04 396.15 256.22 396.65 257.39 396.52 258.87 396.21 260.3 396.21 261.22 395.72 262.58 394.92 264.19 394.42 265.55 393.99 266.66 393.37 267.71 392.63 269.13 392.1 270.36 391.33 271.29 390.53 272.16 389.91 273.02 389.11 274.82 388.8 276.42 387.93 278.34 387.19 280.44 386.33 282.17 385.65 283.59 384.29 284.39 383.05 284.45 383.79 286.56 383.48 289.15 382.56 290.82 382.12 293.04 381.88 294.65 381.2 295.88 380.77 297.24 380.21 297.43 379.71 298.36 377.92 301.45 376.01 303.79 375.27 305.03 373.91 306.51 372.24 308.43 370.51 309.91 369.09 311.64 367.36 313.62 365.44 315.1 364.02 315.97 362.91 316.46 362.16 316.58 360.87 316.15 358.83 315.9 358.27 315.1 357.34 314.79 356.73 316.21 356.79 317.39 355.68 318.19 354.75 318.93 353.39 319.36 352.59 319.12 351.72 318.38 351.41 318.25 351.35 320.17 351.23 321.53 351.16 322.45 350.42 323.44 349.99 324.49 351.23 324.86 352.15 324.31 353.33 323.87 354.38 324 356.05 324.49 357.28 325.23 358.7 327.03 359.51 328.63 359.51 330.49 359.38 332.15 359.07 333.14 359.14 334.19 358.83 335.24 358.27 334.87 357.16 335.43 356.54 336.17 355.92 337.96 355.74 339.51 355.06 341.79 354.13 342.97 353.64 343.65 352.71 344.02 351.91 344.39 351.1 345.5 350.3 346.49 349.87 347.72 350.48 347.54 350.98 347.97 350.18 348.47 349.37 349.08 348.69 350.26 347.33 351.31 346.28 351.8 344.98 352.17 346.16 352.54 347.09 352.36 346.9 353.66 346.9 354.71 348.2 354.95 350.48 355.63 351.04 356.68 351.84 358.85 352.77 360.45 353.57 361.5 353.33 362.99 352.89 364.04 352.83 366.63 352.77 368.24 353.39 369.78 353.45 368.92 354.38 369.35 355.18 369.29 355.43 368.48 356.42 368.42 357.22 369.1 358.39 369.04 359.2 369.04 360.74 369.53 361.86 369.84 363.21 370.52 364.08 371.64 365.01 372.56 363.89 372.93 364.02 373.61 363.03 373.12 362.66 373.24 363.34 374.29 364.33 374.72 365.13 374.17 365.38 373.12 365.56 372.25 365.44 371.2 364.39 370.77 363.77 369.6 363.28 368.98 362.54 367.31 361.92 365.27 361.61 363.6 360.68 362 360.93 361.13 360.56 359.28 360.43 358.17 359.82 357.3 358.89 357.05 358.7 357.67 357.9 358.54 357.28 359.34 356.29 359.28 354.81 357.92 354.13 356.19 353.82 353.96 354.25 352.05 355.49 349.95 356.73 348.9 358.09 348.03 358.58 347.17 357.65 347.79 358.02 346.55 359.26 343.83 360.87 342.47 361.86 341.3 362.23 340.06 363.77 339.14 365.56 338.09 366.55 336.79 367.42 335.86 367.73 334.5 366.86 334.32 367.85 333.14 368.41 332.28 369.02 331.6 370.01 331.6 370.32 330.98 369.95 330.42 369.02 330.98 367.42 330.98 366.18 331.04 365.32 331.6 363.96 332.09 363.21 331.35 362.66 330.49 362.29 329.99 362.84 329.68 363.15 328.38 363.15 327.09 362.66 325.11 362.23 324.06 362.1 322.51 363.09 321.59 364.64 320.23 364.51 319.73 365.5 318.68 366.18 317.94 367.66 317.7 370.75 317.02 373.97 316.46 376.19 316.15 378.36 315.47 379.03 314.73 380.21 313.25 383.11 311.83 385.15 310.59 385.89 309.73 385.52 309.54 386.51 308.67 386.94 307.93 385.71 307.62 384.53 307.5 384.16 307.75 383.61 306.94 384.91 305.34 385.77 304.78 385.09 303.3 385.65 301.94 386.82 300.4 388.74 297.55 390.47 294.9 392.32 291.37 393.93 288.9 396.09 287.3 398.56 286.25 399.67 285.44 401.59 285.2 403.32 285.63 405.48 285.44 406.53 285.88 408.82 286.31 410.49 287.05 411.6 287.3 413.08 288.35 414.14 288.84 415.62 289.4 417.29 289.83 416.47 291.83 416.35 293.81 415.36 296.53 413.63 298.51 411.28 300.49 409.8 302.09 408.56 303.2 405.59 304.32 403.74 305.3 400.4 307.16 396.2 310.25 394.47 311.61 392.62 312.72 391.38 314.57 389.28 318.28 388.29 319.52 386.56 321 384.21 322.85 382.48 324.71 381 325.57 377.91 326.68 375.19 327.67 372.1 329.03 371.28 329.39 370.93 329.85 370.76 330.28 370.71 330.71 370.87 331.02 370.73 331.37 370.45 331.73 369.97 331.99 369.52 332.17 369.8 332.32 370 332.54 370.56 332.56 370.99 332.75 371.97 333.19 372.62 333.69 372.8 334.27 372.86 335.21 372.93 336.25 372.95 337.31 373.38 338.25 373.99 338.71 374.68 339.07 375.92 339.34 376.4 339.47 376.47 339.68 376.94 339.55 377.36 339.83 383.26 341.04 388.82 342.9 392.78 345.24 395.25 347.72 398.09 350.68 397.1 354.14 396.24 355.63 395.87 356.61 395 357.36 395.25 358.34 397.22 357.11 399.08 356.98 402.17 356.49 404.64 356.24 407.48 356.86 411.68 358.22 418.48 360.57 420.35 361.43 422.81 362.05 426.02 362.67 426.64 363.53 429.11 364.65 432.45 367.36 435.79 369.22 439.37 370.95 442.21 372.55 443.32 373.67 443.94 376.14 446.17 377.37 448.76 380.34 450.62 383.43 451.73 386.64 454.43 388.75 459.02 391.09 460.13 393.31 461.37 396.28 463.72 397.52 465.57 399.86 466.07 402.09 468.91 404.19 469.65 405.92 469.16 407.65 468.29 409.63 470.02 411.48 470.02 409.87 472.37 408.51 475.71 408.39 482.13 409.63 487.32 411.23 490.78 412.47 492.89 411.6 494.62 414.08 498.45 414.32 503.14 415.19 506.23 414.69 508.83 415.19 510.68 416.3 515.13 418.4 517.73 419.14 519.09 420.38 522.18 421.61 527.74 423.47 530.21 426.19 534.41 427.05 535.53 429.65 539.6 429.65 542.69 429.65 544.55 428.41 546.77 428.41 548.63 428.29 547.14 429.89 544.67 430.63 542.32 430.76 540.22 430.76 538.24 430.76 535.4 431.99 534.29 433.85 532.44 435.45 531.94 437.92 530.21 439.41 527.74 441.88 526.13 444.97 523.91 443.98 521.44 446.95 519.58 447.19 519.46 448.92 517.6 450.53 516 452.51 514.64 453.62 515.63 455.35 514.76 457.94 514.76 460.04 514.39 462.15 513.4 463.75 512.54 465.36 511.42 465.85 512.04 467.46 513.4 468.08 513.03 469.19 512.52 469.59 513.22 470.04 514.45 469.64 515.99 469.74 517.42 469.25 518.61 468.31 519.4 466.73 518.8 465.64 520.09 464.01 521.62 462.62 523.5 461.29 524.98 460.94 526.61 460.84 528.15 460.99 530.42 461.73 532.55 462.52 535.12 463.27 537.09 463.41 538.87 463.41 540.95 463.17 543.22 462.92 543.92 462.87 545.15 463.36 547.38 463.91 548.56 465.05 550.1 465.49 551.98 465.79 554.4 466.13 556.62 466.18 559.49 466.58 561.86 466.43 564.14 466.23 566.46 465.89 568.34 465.54 570.12 465.79 571.85 465.84 573.78 466.53 575.75 468.16 576.15 469.4 576.05 470.43 575.71 471.42 575.95 472.95 576.35 474.14 576.89 474.98 577.93 475.57 577.93 476.81 577.78 478.14 578.03 479.92 579.02 482.15 578.82 484.03 578.42 483.04 578.52 482.05 577.39 480.32 576.84 479.28 576.89 477.35 577.34 476.02 576.64 475.43 575.71 474.19 574.96 472.51 574.77 471.08 574.72 469.15 573.68 467.67 572.15 466.73 571.21 467.07 569.72 466.97 568.83 466.58 567.25 466.63 564.73 466.97 563.79 467.12 563.79 467.81 563.4 468.11 562.51 468.26 561.47 468.65 560.08 468.65 558.8 468.26 557.81 467.67 554.89 467.67 553.36 467.91 552.57 468.21 551.78 468.21 550.2 468.31 549.26 467.96 548.42 468.21 547.18 467.57 545.65 467.67 544.31 468.21 543.18 468.11 541.84 468.31 540.01 469.2 538.97 469.69 536.95 470.24 535.31 470.88 536.16 471.87 537.23 472.92 537.67 473.52 538.05 474.03 538.27 474.96 537.23 475.47 535.9 475.47 534.78 475.33 533.37 474.96 532.93 474.03 532.6 473.32 531.93 473.25 531.22 473.62 530.96 474.59 530.48 475.07 529.04 475.55 527.96 476.25 526.96 476.81 526.29 477.07 525.51 477.7 524.85 477.59 524.96 476.96 523.88 476.51 522.07 476.29 520.92 476.36 521.25 477.37 521.1 477.77 519.92 477.92 519.58 478.14 519.43 478.7 519.03 479.14 518.21 479.18 517.36 478.81 516.24 478.26 515.84 478.22 515.17 478.51 514.91 478.74 515.06 479.14 514.46 479.37 514.24 480.18 514.17 481.22 514.24 482.67 514.13 483.78 513.72 484.78 513.24 485.26 512.57 486.19 511.54 486.86 511.02 487.52 511.02 488.12 510.72 488.52 510.39 489.08 511.13 489.6 511.87 490.16 512.69 491.12 512.91 491.79 512.5 492.38 512.87 492.38 513.17 492.97 513.54 493.42 514.35 493.12 515.13 493.12 516.06 493.34 516.73 493.71 517.51 494.23 517.8 494.97 517.69 495.64 517.54 496.24 518.36 496.75 518.54 497.61 518.54 498.57 518.77 500.05 519.36 501.09 520.17 501.61 521.18 502.46 522.33 503.13 523.55 503.87 524.77 504.76 525.7 506.06 525.85 507.21 525.07 507.65 523.85 507.8 522.51 507.47 522.21 506.87 521.4 506.21 520.17 505.28 518.4 504.32 517.13 502.65 515.95 501.46 514.43 501.13 514.13 500.87 513.61 500.05 512.54 499.83 511.57 499.72 511.42 499.94 510.2 499.28 508.98 499.2 507.68 499.28 507.38 498.9 507.9 498.53 507.49 497.83 507.94 497.24 508.01 496.42 507.53 495.42 507.68 494.42 507.46 493.68 507.35 493.16 506.75 492.79 506.72 492.01 506.09 491.49 505.68 490.71 505.2 490.49 504.57 490.41 504.27 490.04 504.05 490.05 503.74 490.02 503.56 490.19 503.57 490.44 503.7 490.47 503.62 490.76 503.47 491.05 503.35 491.31 503.26 491.59 503.25 491.91 503.05 492.14 503.02 492.36 503.19 492.4 503.02 492.51 502.9 492.83 502.4 493.85 501.66 494.46 500.64 494.68 500.27 495.39 499.19 495.48 498.29 495.82 497.8 496.72 497.3 496.97 497.61 498.05 498.57 499 498.79 500.09 499.09 502.37 499.84 505.43 500.86 508.09 501.47 509.29 502.31 510.19 503.02 510.84 504.47 511.45 505.34 512.35 506.17 513.68 506.51 515.44 506.73 516.64 507.25 517.79 508.3 519.33 509.41 519.98 510.4 520.75 511.61 521.8 512.07 523.5 512.38 525.39 512.47 527.09 513.03 527.46 513.09 528.29 512.01 528.11 511.08 528.26 510.53 527.64 510.5 526.13 510.22 524.55 510 522.85 509.23 521.53 508.21 520.94 507 520.41 504.25 519.7 503.17 519.39 502.25 519.21 501.75 519.58 500.83 519.7 499.77 519.3 499.37 518.81 499.65 518.65 499.47 517.73 498.63 517.73 498.2 517.29 497.49 516.61 496.41 516.37 495.54 516.64 495.51 517.26 495.51 518.13 494.95 518.59 493.97 517.76 492.64 517.08 492.33 516.89 491.8 515.78 491.59 514.88 490.97 514.27 490.85 513 491.03 512.5 491.03 511.67 491.34 511.15 492.24 510.93 493.32 510.47 494.06 510.47 495.08 510.62 495.76 510.34 496.31 509.51 496.81 508.8 496.72 507.78 496.38 506.33 496.13 505.31 495.76 504.72 495.79 504.32 495.14 503.85 494.65 503.67 494.31 503.3 494.37 502.9 494.15 502.65 493.9 502.9 493.63 503.02 493.41 502.74 493.26 503.14 493.01 503.82 492.76 504.38 492.17 504.78 491.31 505.09 490.6 505.21 490.2 505.46 490.29 505.74 490.63 505.83 490.35 506.26 489.67 506.45 489.36 506.91 488.81 507.28 488.34 507.62 487.97 507.87 487.04 508.06 486.7 507.81 487.29 507.75 487.69 507.65 487.6 507.41 487.08 507.44 486.61 507.41 486.55 507.01 486.86 506.54 487.23 506.42 487.66 506.39 487.91 506.73 488.37 506.6 488.93 506.23 488.84 505.89 489.21 505.58 490.01 504.75 490.6 504.07 490.78 503.7 490.57 503.64 490.26 503.98 489.86 504.1 488.96 504.47 490.1 503.58 491.03 502.99 492.05 502.4 492.67 501.88 493.35 501.26 494.09 500.92 494.74 500.24 495.2 499.41 495.63 498.29 495.97 497.43 496.38 496.75 496.38 495.64 496.01 495.14 496.99 493.85 497.92 493.13 499.25 492.64 500.7 491.99 501.2 491.68 501.29 491.22 501.88 490.2 502.4 489.46 502.65 488.69 503.3 488.22 504.04 488.04 504.53 487.17 504.69 486.62 504.44 486.25 505.06 485.23 505.74 484.08 506.2 483.31 506.26 483.03 505.71 483.19 504.97 483.56 504.56 484.02 503.73 484.24 503.39 484.67 502.8 485.01 501.6 485.6 501.04 485.26 500.76 484.7 500.3 484.95 499.96 485.38 499.43 485.38 499.28 485.72 498.82 486 498.26 485.94 497.92 485.84 498.11 486.21 497.7 486.46 497.52 486.99 497.15 487.36 496.68 487.6 496.5 488.35 496.22 489.15 495.42 489.52 495.08 489.77 494.21 490.39 493.81 490.85 493.56 491.25 493.22 491.78 492.79 492.12 492.51 492.52 492.61 492.95 490.75 493.91 490.44 494.12 490.51 494.59 490.72 494.99 490.6 495.58 489.79 495.7 489.21 495.82 489.08 496.41 488.9 497.09 488.81 497.55 488.06 497.86 487.14 498.79 486.46 499.44 485.56 499.96 485.28 500.46 484.42 500.98 484.08 501.38 483.55 501.97 483.09 502.53 482.22 503.05 482.38 503.33 481.7 503.55 481.08 504.01 480.74 504.47 480.49 504.91 480.12 505.28 479.88 505.89 479.07 506.14 478.89 506.67 478.64 507.1 477.96 507.25 477.44 507.5 476.94 507.65 476.63 507.93 476.6 508.52 476.2 508.8 475.86 509.38 475.18 509.94 474.07 510.47 473.26 511.11 472.86 511.7 472.09 511.92 470.39 512.91 468.54 513.52 465.79 513.93 464.43 513.71 463.59 513.18 463.22 512.57 463.16 511.79 462.42 510.74 461.86 511.08 461.49 511.76 461.18 512.29 461 512.97 460.13 513.49 458.87 514.17 457.1 515.19 456.05 515.56 454.79 516.15 453.52 516.34 451.51 516.58 449.66 516.15 448.3 515.07 447.12 514.05 445.42 512.38 443.82 511.61 442.92 510.99 441.25 510 440.64 509.23 440.05 508.52 438.94 508.67 437.39 509.23 436.62 509.14 435.38 508.71 434.64 508.67 434.67 509.17 433.81 509.54 432.48 509.51 432.69 509.91 433 510.22 431.89 510.37 431.34 510.87 431.46 511.42 431.52 511.98 432.51 511.95 433.31 512.17 433.93 512.41 434.36 512.47 434.3 512.84 433.25 512.6 432.88 512.6 433.19 513 432.01 512.81 429.51 512.01 427.69 511.42 426.02 511.08 424.51 510.87 422.87 510.37 422.62 510.25 423.09 509.76 422.59 509.51 421.57 509.45 420.61 509.42 420 509.76 419.44 510.16 418.48 510.34 418.02 510.06 417.15 510.16 416.57 510.62 416.07 510.93 415.52 510.84 414.53 511.33 413.69 511.55 413.41 511.89 412.61 511.79 412.05 512.07 411.28 512.54 410.51 512.23 409.55 511.83 408.1 512.47 407.57 512.84 406.46 512.94 405.66 512.94 405.13 513.12 404.02 513.28 402.63 513.68 402.04 514.05 402.14 514.88 402.26 515.35 401.7 516.09 401.7 516.83 401.05 517.69 400.56 518.03 398.86 517.85 397.63 517.73 396.57 517.88 395.18 517.23 393.33 516.98 392.37 516.83 393.48 517.29 394.78 517.57 395.68 517.79 396.54 518.34 397.41 518.87 398.24 519.39 399.11 519.76 399.54 519.73 399.39 519.21 399.63 518.93 400.78 518.78 401.8 518.59 401.95 518.07 402.45 517.76 402.85 516.68 403.25 515.75 404.14 515.16 405.63 515.04 406.62 515.35 408.1 515.81 408.96 515.87 409.09 515.22 409.74 515.29 409.52 514.7 410.6 514.39 411.65 514.02 412.33 513.8 412.73 513.06 413.91 512.69 414.84 512.38 416.26 512.04 418.39 512.04 419.59 511.98 420.46 512.07 421.73 511.64 423.3 511.76 425.87 511.73 427.41 511.89 428.77 512.35 430.35 512.78 431.37 513.22 432.76 513.65 433.56 513.83 433.5 514.23 433.28 514.67 432.05 514.82 431.61 514.79 431.34 515.1 430.96 515.1 430.75 515.66 430.35 516.34 429.76 516.8 429.67 517.42 428.77 517.79 427.72 518.22 426.95 518.75 426.39 519.12 425.03 519.15 423.73 519.49 422.34 519.67 421.29 520.07 419.66 519.46 419.04 518.81 418.91 518.16 418.2 517.76 417.4 517.14 417.12 516.18 416.41 515.72 415.95 514.95 415.36 514.27 415.14 513.8 414.99 514.2 414.53 514.3 414.37 514.79 413.97 514.95 414.19 515.16 414.74 515.16 415.02 515.66 414.77 516 414.93 516.4 415.21 516.83 414.77 517.02 413.51 517.2 412.61 516.98 412.18 517.14 412.61 517.57 413.2 518.13 413.54 518.62 413.17 519.02 412.8 519.18 412.43 519.52 411.68 519.83 410.76 520.17 410.32 520.32 409.86 520.1 409.52 520.41 408.84 520.88 408.04 521.25 407.05 521.68 406.28 522.17 405.54 522.92 404.36 523.69 404.45 524.18 403.93 524.34 404.08 524.68 403.19 524.95 402.66 524.74 401.98 525.26 400.78 525.39 399.57 525.29 398.77 525.08 398.49 525.29 398.24 524.86 398.12 525.33 398.83 525.42 398.8 525.88 398 525.97 397.04 526.16 396.39 526.41 395.89 526.87 395.21 527.49 394.69 528.17 393.67 528.2 392.59 528.51 391.54 528.91 391.69 529.34 390.52 529.5 389.13 529.53 387.27 530.3 386.56 530.82 385.88 531.26 384.77 531.44 384.31 531.97 383.69 532.03 382.92 532.59 381.99 532.62 381.5 532.99 379.86 533.45 378.75 533.85 378.1 534.13 376.21 534.16 375.07 534.19 374.05 534.59 373.37 534.75 371.98 535.06 371.08 534.84 370.34 534.84 369.29 534.84 368.61 534.84 368.43 535.46 369.32 535.83 369.94 536.2 371.11 536.2 372.01 535.95 373.52 535.86 374.57 535.86 375.41 536.01 376.03 536.48 376.21 537.4 376.92 537.81 377.73 537.78 378.99 538.21 379.89 538.52 381.19 538.8 382.82 539.1 383.72 539.2 384.31 539.41 384.83 539.13 384.71 539.51 385.64 539.47 385.91 539.78 385.95 539.44 386.19 539.2 386.47 539.63 386.41 540.03 387.15 539.94 387.4 539.47 387.77 539.29 388.17 539.35 388.66 539.85 389.44 540 389.93 539.91 390.27 540.06 391.17 540.09 391.6 540.43 392.19 540.46 392.53 540.8 391.69 541.14 391.01 541.48 390.12 541.45 389.5 541.73 388.94 542.19 388.45 542.44 387.83 542.16 387.46 541.95 386.75 542.22 386.25 542.38 385.51 542.29 385.76 543.06 385.27 543.46 386.32 543.61 386.22 544.17 385.64 544.02 385.2 544.48 384.68 544.73 384.8 543.92 384.86 543.18 384.28 543.37 384.25 543.95 383.72 543.46 383.47 543 383.32 543.61 382.98 543.77 383.6 544.08 383.26 544.29 382.64 544.45 382.15 544.02 381.22 543.74 381.68 543.12 380.91 543.34 380.45 543.89 379.98 543.37 379.33 543.15 378.19 542.53 376.92 542.19 375.16 541.88 373.77 542.04 372.6 542.63 371.67 543.06 370.62 543 370.59 543.4 370 543.37 369.85 543.83 369.88 544.29 371.27 544.7 372.2 545.19 372.44 545.53 373.06 545.56 373.99 545.87 374.27 546.27 375.04 546.64 375.72 547.26 376 547.23 376.37 546.95 377.17 547.38 377.54 547.79 377.94 548.43 378.1 548.34 378.65 548.62 379.55 548.68 380.26 548.68 380.45 548.99 380.66 548.8 381.43 549.05 382.08 549.08 382.27 549.55 382.82 550.01 382.92 550.66 382.61 551.18 382.05 551.28 381.96 551.96 381.53 552.48 381.13 552.98 381 553.5 380.48 553.35 379.86 553.87 379.55 554.33 378.87 554.86 378.28 554.92 377.45 555.57 376.83 555.6 376.09 556.25 375.44 556.34 374.54 556.74 374.76 556.93 374.08 557.3 374.3 557.98 375.07 558.26 375.75 558.01 377.02 557.86 378.59 557.79 379.89 558.04 381.31 558.54 383.13 558.81 384.18 558.51 385.02 558.35 385.51 558.78 386.47 558.94 387.34 558.72 388.23 558.69 389.22 558.81 388.23 559.18 387.61 559.86 387.68 560.91 387.31 561.07 387.34 561.75 386.16 562.68 385.79 563.76 385.48 565.02 385.57 565.64 384.09 565.24 382.95 564.84 382.21 564.68 381.09 564.78 380.35 564.56 379.64 564.41 378.47 564.31 379.12 564.81 379.55 565.24 380.14 565.55 380.97 565.46 381.81 565.83 381.84 566.29 381.43 566.75 380.91 566.66 380.75 567.19 379.8 567.46 379.02 568.08 378.25 568.42 377.36 568.3 376.92 569.13 376.65 570.37 376.49 571.33 375.66 571.26 375.32 571.36 375.47 571.67 374.91 572.35 374.67 572.96 375.04 573.27 375.41 573.74 375.38 574.17 374.95 574.57 375.16 575.25 374.36 575.4 374.57 576.55 375.41 576.89 376.24 577.47 377.14 577.47 378.41 577.88 379.33 578.43 380.11 579.39 380.85 580.25 381.31 580.69 381.77 581.34 381.93 582.32 381.43 583.13 380.51 583.62 379.77 583.44 379.06 583.44 378.87 583.87 377.79 583.59 376.89 583.56 376.49 583.87 376.12 584.36 376.06 584.95 375.32 584.83 374.51 584.21 374.11 584.36 373.43 584.73 373.09 585.38 372.81 586 371.86 585.51 370.93 584.55 370.25 583.71 369.14 583.41 368.12 583.59 367.5 583.99 366.57 584.18 365.12 584.02 366.42 583.62 367.41 582.85 367.78 581.89 367.68 580.44 366.54 579.05 366.17 577.75 366.5 576.94 366.79 576.24 367.9 575.16 368.46 574.32 368.98 573.98 368.21 573.24 367.47 572.72 366.7 572.35 365.52 571.63 364.32 571.05 363.79 570.99 363.39 570.24 363.92 569.47 363.98 568.89 363.51 567.74 362.9 566.69 361.72 566.26 361.1 566.66 360.73 567.34 361.13 568.08 360.89 568.24 361.1 568.79 360.83 569.29 360.58 568.61 360.21 568.92 360.02 569.35 359.03 569.1 359.47 568.58 360.11 568.27 360.24 568.05 359.68 568.05 359 568.55 358.32 568.79 357.67 568.67 357.33 568.21 357.27 567.53 356.53 567.03 356.01 566.97 355.33 566.78 355.42 566.14 355.02 566.01 354.65 566.6 353.84 566.35 353.19 565.8 353.1 564.99 352.27 563.63 352.02 562.92 351.15 562.64 350.63 562.46 350.04 562.83 349.36 562.98 348.59 562.58 347.63 562.15 346.64 561.53 347.57 561.22 348.81 561.13 347.29 560.91 347.26 560.36 347.97 560.08 347.17 559.86 346.61 559.49 347.29 559.12 348.25 559.12 349.67 559.28 349.98 559.09 351 558.88 352.36 558.13 353.16 557.21 353.56 556.59 353.53 556 353.53 555.38 354.06 554.83 354.34 553.62 354.52 552.73 355.17 552.36 356.59 552.42 357.15 552.08 356.38 551.74 355.76 551.74 355.14 551.37 354.52 551.96 353.78 551.77 353.53 551.15 352.7 550.69 350.91 549.95 349.95 549.36 349.18 548.74 346.55 548.8 345.19 549.39 344.33 549.92 343.99 550.35 343.52 550.87 342.84 551.58 342.1 552.6 341.27 553.72 340.53 555.04 340.71 555.94 340.25 556.84 339.38 557.15 337.93 557.18 336.66 556.99 335.37 557.02 334.01 556.62 333.05 556.47 331.04 556.56 330.36 556.4 329.25 556.9 327.76 557.58 326.4 557.86 324.71 557.61 325.39 557.18 324.83 557.08 324.24 556.13 323.69 555.79 323.04 555.69 322.48 554.71 322.48 553.87 321.99 553.03 312.6 541.42 311.86 534.25 311.13 525.78 310.62 519.92 307.16 512.01 301.75 506.77 288.62 502.12 281.45 496.93 277.5 497.18 274.34 492.05 271.57 490.51 267.12 489.52 262.67 486.06 256.98 482.1 253.03 481.61 246.85 480.13 244.62 477.65 242.37 474.79 241.9 474.19 236.71 470.73 233.25 466.53 230.78 461.84 228.84 460.76 224.11 458.13 218.91 456.15 215.85 454.39 213.72 452.44 214.71 449.97 213.89 449.38 211.99 448 207.79 447.25 205.07 445.28 204.33 441.82 200.38 441.08 199.88 438.11 197.16 437.86 194.44 436.13 195.68 434.4 193.44 431.89 189.88 432.26 187.73 433.56 185.24 433.26 183.32 431.68 180.86 427.81 179.37 425.26 180.35 421.8 177.7 420.66 175.16 419.57 168.98 418.34 164.29 415.62 162.56 410.92 166.02 409.94 163.87 405.7 162.31 401.78 161.89 401.03 163.5 401.51 164.62 401.81 164.91 402.4 165.36 402.18 165.36 401.21 164.25 400.84 162.91 400.32 160.89 399.26 160.08 397.83 155.64 396.59 149.95 393.13 146.98 390.41 143.03 391.89 139.32 386.95 136.85 384.48 129.93 381.02 124.49 377.56 118.63 375.24 113.37 372.86 108.18 369.65 100.27 365.94 95.32 362.24 89.9 357.55 90.41 356.24 88.37 354.08 87.13 351.61 85.9 350.06 84.54 349.2 81.26 346.48 79.53 344.44 78.23 341.97 76.56 339.19 75.2 334.74 74.95 331.08 75.2 328.37 75.61 326.26 76.32 324.48 77.06 322.48 78.1 320.78 78.95 319.55 80.25 318.03 84.1 314.51 85.4 313.43 86.03 312.62 87.81 310.84 89.59 309.32 90.78 307.95 92.71 305.17 93.78 303.69 95.34 301.91 96.41 300.31 97.3 298.53 97.47 297.84 97.67 296.97 97.56 296.34 97.93 295.05 97.79 293.34 97.23 292.49 97.41 291.49 97.86 290.12 98.01 288.67 97.9 287.56 97.27 286.59 97.01 285.67 97.3 284.52 97.86 283.74 97.97 283 98.3 282.37 99.01 281.4 98.9 280.4 98.68 279.74 98.82 277.59 99.01 275.58 99.42 274.88 98.86 274.58 98.34 276.36 98.38 277.14 98.01 279.51 97.75 280.81 97.34 281.92 96.78 281.78 96.19 281.52 94.57 280.43 92.65 279.46 90.42 277.61 87.53 273.98 85.68 271.16 85.16 265 85.3 262.56 85.3 260.18 85.68 258.26 86.34 255.96 86.05 252.55 86.19 250.62 86.27 248.77 86.94 247.65 87.75 246.39 87.08 245.06 87.2 242.82 87.26 241.8 87.38 239.42 88.05 237.42 87.6 236.31 88.49 234.31 90.57 234.16 91.46 233.88 91.35 235.79 90.98 237.57 91.87 239.79 90.53 238.61 90.31 239.65 91.2 240.91 91.55 241.92 92.39 243.21 93.5 245.28 94.09 247.65 93.65 249.58 92.39 251.66 91.72 252.92 90.24 254.85 90.46 255.96 90.68 257.29 90.01 257.37 90.46 258.26 90.31 259.07 91.35 259.66 90.09 259.81 89.57 260.41 90.68 260.33 91.87 260.41 93.13 261.07 91.94 258.7 91.28 256.11 91.13 254.7 91.57 253.96 92.76 253.14 93.06 251.51 94.09 250.1 94.54 247.21 94.09 244.91 93.65 242.76 93.46 241.59 92.46 239.2 92.24 237.42 92.68 236.16 92.42 233.57 93.68 230.9 95.09 229.12 95.54 227.12 95.69 225.11 96.5 223.63 97.91 222.15 99.54 220.15 100.88 220.37 100.88 219.11 100.36 217.11 99.1 216.22 99.39 214.22 99.99 212.73 101.32 211.25 102.29 208.51 102.29 207.1 102.66 205.61 102.21 204.5 103.25 203.09 104.21 200.72 104.96 199.02 106.07 197.46 106.59 195.31 106.81 193.6 108.22 191.82 107.85 190.34 108 188.56 108.89 185.82 109.26 185.15 108.66 183.3 108.52 181.74 108.29 180.26 107.48 178.92 108.07 178.03 107.18 176.92 107.33 174.99 106.44 171.66 105.92 170.4 105.4 171.66 103.18 174.84 101.77 177.07 100.06 178.18 97.39 178.18 94.06 179.07 90.42 180.63 86.12 181.74 82.19 181.74 78.19 180.48 75.15 178.48 73.44 176.62 71.29 175.07 68.62 174.77 66.91 175.14 64.47 175.36 58.39 173.66 52.9 170.25 49.49 167.21 44.89 162.91 42.67 159.35 41.14 157.24 39.81 155.86 38.42 154.23 37.88 152.55 38.08 150.42 38.52 150.07 38.52 149.23 37.98 147.8 37.29 146.61 37.09 145.18 36.2 143.85 35.46 143.45 33.88 143.5 32.89 143.9 31.4 144.54 30.66 144.93 30.17 146.12 29.97 147.01 28.98 148 27.75 148.25 26.81 148.34 25.13 148.2 24.19 147.5 23.3 146.71 22.6 146.22 21.57 144.14 20.97 142.02 20.53 140.63 20.18 139.45 20.18 138.56 19.79 138.21 18.65 137.67 16.77 136.83 14.84 135.59 13.51 135.05 11.18 134.75 9.26 134.11 7.97 133.42 6.19 132.92 5 132.03 2.88 130.5 1.79 129.86 1.25 129.17 1 127.63 1.25 126.64 1.74 125.36 2.29 124.22 3.37 123.23 5.1 122 6.59 121.16 7.72 120.66 9.35 119.87 10.34 118.98 11.43 118.69 13.9 117.6 15.09 116.71 16.38 116.36 17.86 115.62 18.3 114.73 19.29 114.34 22.11 113.1 23.44 112.66 25.22 111.92 26.86 111.12 27.99 110.93 30.17 110.38 31.75 110.19 32.84 109.94 33.97 110.09 34.37 109.59 33.18 109 Z M 297.66 484.43 296.18 485.54 298.03 487.39 288.27 484.68 283.94 485.91 286.78 490.61 293.58 490.98 303.72 494.07 309.53 496.42 310.88 497.65 310.76 501.23 311.81 502.21 314.22 502.22 317.19 503.21 320.65 503.95 322.38 507.66 321.14 509.02 323.74 511.37 324.36 512.97 326.58 515.32 325.47 517.42 326.33 518.29 329.92 518.29 333.87 518.29 334.74 512.85 337.95 511.12 340.42 511.24 344.85 511.94 346.23 511.24 348.46 508.4 354.02 509.14 364.15 510.26 356 508.9 353.44 507.76 351.42 507.29 350.03 506.29 346.11 505.19 342.15 502.59 335.6 503.83 334 502.1 333 500.27 331.77 499.88 329.05 498.27 321.7 493.36 318.65 492.14 299.27 484.43 307.05 486.41 313.6 487.15 316.32 486.28 325.35 490.11 330.17 492.21 327.1 490.07 321.14 487.27 316.2 485.54 309.77 485.91 303.72 484.68 291.85 481.09 297.66 484.43 Z M 696.49 238.55 699.83 240.04 700.43 241.52 702.65 243.3 704.95 245.75 708.8 246.71 711.4 248.42 712.88 246.71 712.91 245.01 714.44 243.15 714.51 241.37 711.7 239.59 709.25 237.44 707.54 234.77 707.25 232.1 706.28 228.99 706.51 226.69 710.29 223.06 705.91 224.24 699.98 222.98 695.75 219.87 693.68 224.1 693.38 227.73 694.34 229.21 696.42 231.21 697.53 233.66 693.83 237.74 696.49 238.55 Z M 160.55 105.66 162.04 105.04 163.77 105.54 164.88 104.55 166.36 103.68 168.09 103.81 170.19 105.04 175.14 105.04 177.1 105.04 179.46 105.04 183.54 104.42 185.89 104.42 185.89 103.19 187.37 101.71 189.47 100.96 191.7 99.85 193.43 99.85 192.32 98 190.34 98.49 187 98.25 184.16 97.5 183.17 95.77 181.07 96.02 178.35 97.88 175.88 99.37 173.28 100.53 169.58 102.39 166.8 101.64 161.56 103.7 160.06 104.8 158.94 105.09 157.85 104.13 158.45 105.91 160.55 105.66 Z M 726.38 280.77 727.27 280.87 728.3 280.08 729.84 279.98 731.17 279.44 732.46 278.79 733.74 278.4 734.98 277.46 735.42 276.37 736.61 275.23 737.5 274 735.13 274.39 733.15 274.64 731.67 274.74 729.94 273.85 728.75 273.31 727.86 272.17 727.12 271.13 727.22 270.29 726.28 269.15 725.14 268.36 723.71 268.36 722.62 268.71 720.94 270.04 719.6 271.28 721.83 272.17 723.86 273.45 724.25 275.48 724.2 277.51 724.7 279.24 725.59 279.63 726.38 280.77 Z M 397.17 143.13 397.1 141.9 396.67 141.03 395.5 139.67 395.17 139.71 394.93 139.88 394.61 139.94 394.34 139.83 394.16 139.59 393.98 139.48 393.79 139.41 393.57 139.33 393.41 139.25 393.44 139.02 393.65 138.79 394.19 138.54 394.63 138.5 394.88 137.9 395.18 137.26 396.02 136.81 396.96 136.67 397.9 136.67 398.94 136.67 399.43 136.81 400.32 137.16 400.81 136.72 401.16 136.52 400.42 135.73 399.68 135.48 399.08 135.18 398.54 134.99 398.39 134.29 398.59 133.49 398.69 132.42 398.29 131.92 397.5 131.77 396.96 131.77 396.17 131.77 395.38 131.33 394.68 131.13 393.89 131.13 392.95 131.23 392.26 131.43 391.87 131.08 391.27 131.13 391.12 131.43 391.42 131.87 391.67 132.51 390.93 133.16 390.33 133.55 390.12 134.52 390.09 135.33 389.99 136.12 390.53 136.86 391.32 137.56 391.32 137.95 391.62 138.59 392.01 139.34 392.21 139.29 392.66 138.99 393.05 139.04 393.4 139.48 393.99 139.98 393.6 140.13 393.45 140.42 393.25 140.47 392.9 141.21 393.1 141.86 393.4 142.94 393.15 143.88 393.6 144.67 394.14 144.23 394.63 144.58 395.18 144.67 395.58 144.99 396.02 145.14 396.22 145.12 396.29 144.96 396.73 144.92 397.35 144.8 397.35 144.25 397.17 143.13 Z M 327.57 521.31 327.05 522.72 327.5 523.76 324.76 523.46 323.42 523.68 322.23 523.16 321.2 523.61 318.6 522.28 316.82 522.05 316.08 522.5 316.6 523.54 317.86 525.24 319.19 524.87 320.53 525.46 321.2 526.65 322.23 526.95 323.94 526.87 324.83 527.02 326.43 526.76 328.83 525.39 330.69 524.72 332.62 523.78 333.4 522.54 332.76 521.61 331.95 519.98 328.91 520.35 327.57 521.31 Z M 356.09 170.21 357.27 171.59 358.46 172.48 358.85 174.46 360.14 174.86 361.23 176.63 362.61 177.33 363.82 176.35 363.08 175.86 361.62 174.16 362.41 173.47 361.72 171.59 360.34 169.91 359.05 167.84 357.57 166.06 355.79 164.38 353.81 163.59 353.81 162 352.82 162.6 352.82 164.87 352.72 167.93 354.01 169.22 356.09 170.21 Z M 347.62 534.44 348.61 534.93 349.75 534.74 350.99 535.28 352.47 535.63 353.76 536.32 354.69 537.06 355.68 537.26 357.66 537.75 358.84 537.31 359.39 536.66 357.66 536.07 356.67 535.58 355.19 535.28 353.56 534.98 353.54 534.12 353.9 532.91 352.96 531.72 351.09 530.29 350.44 529.45 349.01 528.85 346.98 529.35 346.19 529.5 345.3 530.48 343.97 530.63 343.37 531.72 344.02 532.56 344.71 533.45 345.85 533.99 347.62 534.44 Z M 370.95 150.68 369.09 152.04 367.48 151.8 367.98 153.77 369.09 155.01 369.96 155.87 372.43 155.63 374.9 154.02 377.37 153.28 379.47 152.54 381.95 151.18 379.23 149.82 376.01 149.7 372.43 149.2 372.43 150.56 370.95 150.68 Z M 416.34 146.95 418.12 147.39 419.4 147.94 420.14 147.2 420.59 145.71 421.63 144.82 421.58 144.43 420.74 144.18 419.95 144.97 418.56 144.77 417.28 145.02 414.61 144.67 413.47 144.67 411.84 144.87 410.11 144.97 407.59 144.23 405.91 143.83 404.82 144.13 404.92 143.59 403.93 143.24 402.99 142.7 402.99 143.29 401.11 143.59 399.97 144.13 401.16 144.87 401.56 145.56 402.99 145.71 404.32 145.66 405.46 145.96 405.96 146.6 406.5 146.8 407.83 146.5 408.77 146.5 409.81 146.21 411.34 146.11 412.93 146.31 414.41 146.6 416.34 146.95 Z M 554.15 202.65 554.5 204.08 556.28 204.33 558.16 203.09 559.1 201.31 559.24 199.04 558.16 198.55 556.18 198.55 554.99 199.24 554.5 200.18 553.9 201.41 554.15 202.65 Z M 370.24 580.73 371.53 581.47 372.72 581.42 373.65 581.03 374.54 579.65 373.26 578.26 371.43 577.57 370.24 576.88 369.3 576.58 368.76 577.27 368.61 577.96 369.45 579.5 370.24 580.73 Z M 368.06 131.9 367.38 130.11 366.83 128.38 366.15 127.33 365.59 126.77 364.66 127.2 363.24 128.56 363.92 129.3 364.11 130.35 365.16 130.97 365.4 131.96 365.71 132.58 366.64 132.58 368.06 131.9 Z M 193.99 431 194.84 431.37 195.7 430.96 195.81 430.14 196.25 430.26 198.03 430.37 198.59 430.78 200.67 431.66 202.56 432.74 203.52 433.15 204.6 433.56 205.34 434.11 205.86 434 207.06 434.01 205.23 433.15 204.3 433.15 201.48 431.78 198.77 430.18 197.28 429.5 193.15 427.6 192.87 427.92 193.44 428.74 192.59 429.37 192.95 430 193.88 430.4 193.99 431 Z M 248.87 450.47 249.53 451.29 250.57 452.29 250.91 453.03 249.2 452.55 247.46 452.03 246.53 451.44 245.6 451.14 245.55 451.67 248.46 452.81 250.02 453.33 251.28 453.88 252.2 454.66 253.5 455.26 255.1 456.03 255.84 456.63 256.65 457.22 257.14 457.96 257.69 458.63 257.69 457.89 256.95 457.22 256.28 456.07 255.5 455.37 254.65 454.14 253.8 453.48 252.61 453.7 252.32 452.96 251.43 452.73 251.02 452.07 250.09 450.96 248.87 450.47 Z M 303.59 292.28 303.87 291.9 302.63 292.21 301.83 292.31 301.61 292.8 300.87 293.11 300.04 293.17 299.17 293.2 298.86 292.92 298.34 292.92 297.78 293.17 297.29 293.7 297.29 294.69 297.78 295.49 298.06 295.86 298.52 295.89 298.68 295.09 299.2 294.65 299.92 294.07 301.31 293.36 301.99 293.02 302.79 292.58 303.59 292.28 Z M 265.2 466.95 266.98 468.58 266.39 467.39 264.76 465.76 264.09 464.58 262.98 462.8 261.34 460.72 260.31 460.05 259.94 460.2 261.05 461.76 261.94 462.65 262.53 463.61 262.98 464.43 264.16 465.91 265.2 466.95 Z M 174.78 415.65 174.97 415.92 175.44 415.77 176.01 415.94 176.73 416.39 177.45 416.86 177.54 417.27 177.61 418.32 177.79 419.61 178.43 419.75 178.9 419.43 179.1 418.93 179.55 418.81 180.14 418.93 180.76 419.35 181.03 419.82 181.18 420.19 181.57 420.24 181.82 420.52 182.19 420.61 182.96 420.57 182.02 419.95 181.4 419.53 180.49 418.93 180.14 418.61 179.67 418.54 178.93 418.09 178.29 417.9 178.14 417.4 177.59 416.61 176.93 416.24 176.23 415.84 175.62 415.38 175.17 414.88 174.8 414.31 174.48 413.67 174.01 412.71 173.96 413.42 174.41 413.97 174.6 414.88 174.78 415.65 Z M 678.38 233.33 677.39 232.77 677.7 234.01 677.08 234.87 677.08 235.49 678.5 236.23 679.18 236.29 679.62 235.24 679.37 234.25 678.38 233.33 Z M 217.52 439.96 218.93 441.59 219.15 441.37 219.59 440.78 220.93 440.7 219.45 439.89 218.19 439.51 217.74 437.96 216.33 437.96 217.52 439.96 Z M 242.01 448.58 243.12 449.29 243.71 448.51 244.49 448.55 245.57 449.18 245.2 448.29 244.16 447.8 243.12 447.66 241.75 447.66 241.12 447.99 242.01 448.58 Z M 333.36 351.48 333.04 351.73 332.68 351.76 332.51 351.68 332.33 351.48 332.13 351.51 332.13 351.69 332.25 351.94 332.45 352.05 332.65 352.13 333.01 352.27 333.22 352.05 333.44 351.82 333.53 351.49 333.67 351.28 333.9 351.2 334.47 350.81 334.95 350.47 335.53 350.18 336.13 350.04 336.76 350.04 337.21 350.01 337.58 350.09 338 350.18 339.19 350.69 339.5 350.95 339.9 351.11 340.3 351.23 340.08 350.91 337.9 350.07 337.26 349.83 336.9 349.75 336.47 349.5 336.13 349.27 335.94 348.96 335.45 348.93 335.15 349.11 334.94 349.45 334.71 349.79 334.55 350.2 334.15 350.75 333.64 351.17 333.36 351.48 Z M 35.8 110.7 36.15 110.57 36.75 110.46 37.01 110.65 37.28 110.63 37.47 110.35 37.23 110.31 36.78 110.16 36.47 110.04 36.08 109.52 35.8 109.24 35.41 109.07 35.36 109.4 35.74 109.92 35.87 110.33 35.8 110.7 Z" fill-rule="evenodd"/>
</g>
</svg>