<?xml version="1.0"?>
<svg xmlns="http://www.w3.org/2000/svg" version="1.2" baseProfile="tiny" width="800" height="495" viewBox="0 0 800 495" stroke-linecap="round" stroke-linejoin="round">
<g id="bolesmeadow">
<path d="M 221.28 157.31 218.81 159.28 217.53 160.6 216.38 162.2 215.09 164.05 212.38 166.27 209.95 168.87 208.52 170.82 207.7 172.15 206.46 173.51 204.81 174.68 202.34 176.38 200.5 177.69 199.54 178.77 198.25 180.79 197.32 183.09 196.36 184.62 195.88 185.18 194.5 186.47 193.36 187.79 191.97 189.77 191.38 191.52 191.31 193.06 192.13 194.36 193.74 195.57 196.16 196.47 200.21 197.53 201.89 197.97 204.49 198.8 206.82 199.66 208.96 200.28 211.86 200.2 215.33 199.49 217.77 199.16 219.63 199.29 220.94 199.44 221.97 199.52 225.05 199.73 227.76 200 230.14 200.51 232 200.99 233.48 201.56 236.47 202.11 238.61 202.45 240.48 202.89 242.47 203.78 244.8 204.57 247.96 205.2 251.32 205.76 254.22 206.17 257.25 206.55 260.9 206.62 264.51 205.99 267.41 205.35 270.79 204.93 272.1 205.01 272.94 205.26 274.33 205.98 275.67 206.48 277.26 206.88 278.74 207.53 279.66 208.66 280.34 209.92 280.97 211.16 281.8 212.01 282.92 212.16 283.86 211.82 285.28 210.95 286.41 210.34 287.45 209.92 288.2 209.72 289.13 209.77 290.53 210.06 292.11 210.56 294.07 211.11 295.74 211.83 298.11 212.72 299.6 212.81 301.2 212.58 302.84 212.32 305.09 211.88 307.25 211.34 308.66 210.62 308.77 209.99 308.55 209.28 308.38 208.37 308.03 207.04 307.91 205.7 307.84 204.44 307.72 203.04 307.65 201.6 307.53 200.26 307.37 199 306.97 197.32 306.99 196.47 307 195.77 306.05 193.87 304.86 192.32 303.07 190.65 300.84 189.3 298.01 188.04 295.98 186.94 294.82 185.95 294.19 184.61 293.99 182.5 293.62 179.62 293.71 176.75 294.08 174.44 294.97 172.07 295.87 170.81 296.54 170.01 297.03 169.1 296.91 167.7 296.33 165.7 295.53 163.66 295.32 162.11 295.81 160.58 296.54 159.07 297.93 156.92 300.19 153.57 302.05 151.24 302.63 150.13 303.55 148.59 304.49 147.86 305.72 147.32 308.07 146.63 310.98 145.86 312.81 145.49 315.16 145.09 318.35 144.18 322.68 143.13 325.1 143.19 326.96 143.83 328.9 145.29 330.33 146.43 332.65 147.82 334.69 148.47 336.97 149.22 338.45 150.64 340.11 151.68 342.73 151.77 344.23 151.75 346.04 152.05 347.25 152.87 348.85 154.77 350.23 156.12 351.44 156.59 352.57 156.45 353.42 155.84 354.23 154.65 355.01 153.08 355.36 151.61 355.21 149.65 354.72 147.61 354.25 145.33 353.97 142.87 353.72 140.97 353.53 138.1 353.24 135.85 352.02 133.45 350.42 131.09 350.18 128.92 350.54 127.1 351.31 125.87 352.59 124.98 354.19 124.01 357.35 122.53 360.28 120.84 363.93 117.76 366.35 115.54 368.6 113.14 370.46 110.81 372.23 108.16 373.67 106.35 375.04 105.28 377.2 104.67 379.36 104.44 382.92 104.31 386.93 104.73 389.07 105.31 390.51 106.34 392.25 108.39 393.76 109.98 395.71 110.98 398.04 111.25 401.14 110.79 403.5 109.52 405.54 107.82 407.62 106.79 409.02 106.48 409.86 106.7 410.51 107.41 410.87 108.11 412.67 109.11 413.97 109.65 415.2 110.5 417.39 112.38 419.71 116.23 420.74 118.62 420.94 120.72 420.86 122.48 421.53 124.66 423.48 128.08 425.9 131.25 427.03 133.68 427.29 134.81 427.4 136.63 427.22 138.8 426.48 143.7 424.8 149.12 423.22 154.29 422.19 156.98 421.81 159.71 421.53 162.87 420.99 164.19 419.97 166.08 418.76 168.55 418.18 169.81 418.16 170.79 418.37 172.41 418.92 175.95 419.4 177.92 419.61 179.32 421.27 183.41 424.27 185.57 428.51 186.91 431.49 187.33 432.88 188 433.89 189 435.98 190.24 439.42 191.22 440.72 191.52 441.56 191.8 442.26 192.16 442.61 193 442.41 193.91 442.25 194.97 442.14 196.02 442.64 197.14 443.83 198.45 445.21 199.66 447.3 200.41 451.41 200.7 454.5 200.69 457.69 199.92 459.92 198.61 461.96 196.56 462.73 195.16 463.73 194.23 464.58 193.67 466.74 193.06 468.53 192.76 474.42 192.47 483.87 192.28 493.23 192.27 499.12 192.47 502.1 192.95 504.61 193.53 511.64 195.29 514.25 195.91 516.3 196.59 520.92 197.44 522.5 197.77 524.18 197.93 525.39 198.36 526.49 199.39 527.28 200.1 528.38 201.16 529.96 201.84 531.54 202.42 532.97 203.24 536.5 204.92 541.01 206.54 549.14 209.22 551.65 210.25 555.03 212.29 558.22 214.6 560.37 217.25 564.38 220.69 570.4 224.04 573.92 225.72 577.13 226.87 578.43 227.41 579.54 228.05 580.69 229.01 582.44 230.92 583.58 232.41 584.41 233.29 586.58 234.85 589.18 235.97 592.19 237.22 593.96 237.8 595.27 238.06 597.12 238.85 598.93 239.88 604.15 243.05 608.93 245.27 615.4 247.44 621.54 249.08 627.46 250.26 632.29 251.78 634.94 252.99 636.24 253.53 638.59 255.66 641.38 259.37 644.4 263.08 645.5 264.42 648.58 267.08 649.91 268.46 650.74 269.45 651.59 271.77 652.34 276.62 654.51 283.89 655.72 286.99 656.56 289.28 655.98 290.85 655.42 293.16 654.87 295.46 654.22 297.56 653.69 298.96 653.75 300.85 654.8 302.4 656.21 304.13 660.47 306.6 663.3 307.99 665.15 309.27 666.3 310.3 667.4 311.64 668.25 313.82 668.54 316.07 668.46 318.03 668.44 318.94 668.47 319.79 668.36 320.76 667.51 321.6 666.41 322.5 665.1 322.87 663.51 322.79 661.83 322.45 659.17 322.08 655.81 322.08 653.79 322.3 652.48 322.5 650.61 322.52 648.46 322.39 646.27 321.88 645.25 321.42 642.66 319.85 641.04 319.1 637.97 318.19 634.97 318.19 632.54 318.1 627.7 317.14 624.76 316.48 621.5 315.85 615.42 316.08 613.45 316.51 611.71 317.13 609.73 317.84 608.13 318.88 607.13 319.61 606.28 320.44 605.52 321.27 605.22 321.76 605.35 322.6 605.99 323.17 609.25 324.36 613.2 325.7 616.26 327.09 617.32 327.66 618.24 328.76 618.32 329.74 617.77 331.56 617.61 332.99 617.39 334.6 617.33 335.45 616.92 337.05 617.39 339.72 617.6 341.34 618 342.85 617.69 344.39 616.78 345.67 615.34 347.84 613.95 349.61 612.57 351.35 612.48 353.66 614.35 356.03 616.02 357.17 617.78 357.92 620.49 358.23 624.13 358.23 627.45 358.5 629.97 358.84 631.36 359.25 631.92 359.81 631.52 360.86 630.24 361.93 627.97 363.31 626.3 365.09 624.92 366.75 623.67 368.6 623.14 369.72 622.93 370.97 623.7 372.25 624.8 373.55 626.15 374.27 628.01 374.6 631.66 374.6 634.92 375.3 639.23 374.81 640.72 374.76 642.03 375.02 642.95 375.94 643.62 377.56 644.75 380.02 645.29 381.25 645.67 383.15 645.02 385.67 644.1 390.32 643.82 392.7 643.73 395.58 643.65 397.26 642.69 398.93 641.4 400.32 638.1 401.87 636.36 402.59 635.23 403.28 633.8 404.56 634.74 406.85 638.13 408.04 642.06 408.25 644.87 407.68 648.6 405.79 650.83 403.92 653.38 402.51 654.57 401.19 654.92 399.79 654.66 398.59 654.36 396.98 654.11 395.71 654.09 393.89 654.2 393.05 654.65 391.16 656.17 389.67 659.22 389.03 662.32 388.54 664.68 387.3 666.25 385.67 667.73 383.72 669.31 381.8 670.92 380.63 672.6 380.61 674.37 381.19 676.92 382.02 680.17 383.84 682.05 385.89 683.36 388.53 684.03 390.29 684.19 391.49 683.75 392.74 683.07 394.42 682.53 395.57 682.51 396.69 683.2 397.57 684.31 397.94 685.53 398.02 689.28 397.6 694.79 397.51 699.18 397.87 703.56 398.69 705.33 399.12 709.18 401.16 712.45 403.82 714.99 405.84 716.37 406.77 718.8 406.76 721.15 406.61 724.42 406.81 728.06 406.75 740.7 405.78 752.85 403.45 763.84 400.3 767.43 398.61 770.11 397.55 771.61 397.64 772.86 398.18 776.1 399.93 779.77 401.61 783.12 402.52 784.89 402.61 788.56 401.28 791.16 399.51 792.4 398.47 793.39 397.68 794.23 397.69 795.77 397.98 796.79 398.52 798.27 399.3 799 400.43 798.91 403.03 798.3 405.75 795.55 408 793.8 408.9 791.55 409.4 789.3 409.83 787.98 410.24 786.89 411.14 786.5 412.12 786.24 413.8 786.7 416.4 787.73 419.07 789.78 422.29 790.9 425.31 791.45 428.47 792.01 431.14 791.65 432.75 791.45 433.87 791.48 434.64 791.93 435.84 792.5 437.67 790.25 440.73 788.83 441.87 787.55 442.98 787.16 444.1 787.74 445.44 788 446.7 787.45 448.52 785.2 451.27 784.74 451.67 784.02 452.3 782.69 453.21 781.38 453.58 779.5 454.12 778.78 455.06 778.28 457.16 777.19 460.65 775.5 463.44 773.88 465.07 771.56 467.05 768.95 469.26 766.54 470.54 763.35 471.45 756.45 473 749.61 473.56 743.26 473.43 738.96 473.21 737.27 473.3 736.15 473.36 734.74 474.05 733.98 474.81 732.79 475.96 732.12 476.65 731.74 477.35 731.86 478.4 732.4 479.32 733.6 480.31 733.81 481.82 733.04 482.76 731.46 482.53 729.87 482.41 728.09 482.67 726.44 483.25 724.75 483.8 723.35 483.89 721.95 483.25 721.45 482.47 721.26 479.94 720.46 477.97 718.75 476.45 716.12 474.49 712.7 472.67 707.51 469.92 705.19 469.02 702.86 468.72 700.8 468.52 697.71 468.53 691.17 468.33 686.42 467.75 684.6 467.21 682.65 466.28 680.42 466.01 677.44 465.11 672.93 463.98 670.7 463.15 668.64 462.85 667.14 463.29 666.51 462.09 665.82 461.31 665.74 460.68 665.66 459.98 663.97 460.07 662.94 460.27 661.62 460.68 659.74 461.32 658.14 461.87 657.05 462.52 656.01 463.49 655.39 464.61 654.8 466.01 653.19 467.08 651.34 468.39 649.55 469.39 648.93 470.37 647.68 471.76 647.14 473.4 647.4 474.87 648.34 477.02 648.74 478.22 648.99 479.97 649.94 481.87 651 482.97 653.02 484.61 654.89 487.6 654.92 488.44 654.54 488.79 653.79 489.17 652 489.43 649.38 489.86 648.01 490.55 647.43 491.59 646.95 492.82 646.51 493.79 646.04 494 645.19 493.92 645.04 493.88 644.36 493.7 639.29 492.11 637.15 491.53 635.85 491.06 635.35 490.28 634.73 488.04 633.59 483.64 632 478.3 629.36 474.52 625.43 471.99 622.56 470.6 617.11 469.39 609.82 469.18 601.4 469.13 594.77 468.72 591.62 467.46 589.36 465.54 587.13 464.86 584.79 465.01 582.64 465.06 581.22 465.71 580.37 466.33 578.53 467.05 577.13 467.11 576.29 466.96 575.79 466.18 575.62 465.41 575.13 463.76 574.41 462.49 573.76 461.78 571.4 460.46 568.86 458.68 567.76 457.52 567.68 456.6 567.65 455.41 567.4 454.14 566.53 453.16 564.22 451.7 559.82 449.17 556.8 447.7 554.54 445.61 552.9 443.84 551.75 442.43 550.8 440.7 548.84 437.74 546.44 435.86 544.73 434.86 540.52 432.36 536.68 429.83 533.41 427.32 527.79 421.97 524.44 418.53 522.27 416.73 519.68 415.33 517.63 414.75 514.89 413.92 510.4 411.25 508.65 409.72 507.24 407.54 506.01 405.53 504.22 404.04 503.29 403.61 501.88 403.42 500.39 403.68 499.16 404.27 498.16 405.1 495.89 406.79 493.97 410 492.45 411.5 490.61 412.32 489.28 413.32 486.4 414.98 482.72 416.73 481.78 417.04 480.95 416.6 480.77 415.9 480.88 415.13 481.23 413.6 481.98 410.8 482.8 406.7 482.73 402.5 481.87 400.98 481.05 399.78 479.9 399 478.13 398.32 476.17 398.16 473.74 398.17 470.73 398.95 466.72 401.12 461.8 404.57 452.53 410.65 447.95 413.52 439.99 416.98 431.98 420.55 428.6 421.39 426.45 421.27 424.59 420.55 421.9 419.58 419.15 418.96 415.2 418.54 413.55 418.27 412.06 417.9 410.57 417.54 409.27 417.14 408.44 416.5 407.33 415.79 406.07 415.33 404.39 415.24 402.24 415.39 400.42 415.58 398.64 415.57 396.26 415.3 393.65 414.75 391.23 414.37 388.98 414.46 387.66 415.01 386.57 416.15 385.89 417.27 385.27 418.38 384.87 419.85 384.61 421.25 384.3 423 383.75 425.03 383.16 426.71 382.81 428 381.77 429.11 380.67 430.01 379.34 431.19 377.4 432.82 376.17 433.58 373.54 434.36 370.54 434.65 365.95 435.27 362.06 435.62 355.69 436.33 350.45 436.88 343.14 437.57 339.11 438.2 337.38 438.47 336.68 438.04 335.5 436.31 334.73 434.62 333.72 433.49 332.24 432.6 331.18 431.89 330.45 430.97 330 429.85 330.07 428.58 329.63 427.18 328.75 426.15 328.11 425.3 327.85 424.39 328 423.34 328.77 422.37 329.72 421.22 330.16 420.52 330.54 419.89 330.46 419.4 329.25 419.04 326.54 418.84 323.83 418.64 321.22 418.4 319.72 418.49 316.8 419.55 312.13 422.07 310.14 423.45 309.61 424.71 309.68 426.25 310.36 427.24 311.75 428.16 313.32 428.95 314.38 429.83 314.93 430.82 314.91 431.94 314.47 433.2 313.6 434.67 313.03 435.18 312.32 435.6 311.67 435.45 310.8 434.39 310.91 433.34 310.98 432.22 310.8 431.73 310.24 431.3 309.41 430.98 308.01 430.55 306.62 430.04 304.63 428.94 302.6 427.51 301.21 426.76 299.76 426.4 298.12 426.95 297.35 427.89 296.72 429.49 296.21 431.66 295.37 434.74 293.97 437.21 291.74 438.8 289.68 439.31 289.12 438.95 289.04 438.25 289.57 437.21 290.44 435.92 291.26 434.66 291.94 433.2 292 431.93 291.36 430.88 290.37 429.33 289.6 427.67 289.3 426.13 289.12 425.35 288.39 424.71 287.26 424.63 286.23 425.08 285.64 426.27 285.31 429.77 285.66 433.91 285.31 435.1 283.99 435.99 282.86 436.2 282.3 436.09 281.95 435.17 281.73 433.98 281.57 432.36 281.55 430.54 281.36 428.22 280.88 426.05 279.76 423.23 278.77 420.98 277.08 418.75 275.38 416.91 273.53 415.81 270.51 414.55 267.45 413.12 265.69 412.37 263.42 411.02 262.41 409.99 261.58 408.93 260.44 407.66 259.15 406.7 257.34 405.7 255.3 404.52 253.6 403.04 252.3 402.32 250.44 401.71 248.57 401.55 247.08 401.43 246.53 400.79 246.31 399.74 246.34 398.2 246.32 396.73 245.78 395.39 245.13 394.61 244.02 394.43 242.66 394.34 241.21 394.4 238.78 394.55 236.25 394.77 233.63 394.75 231.77 394.48 230.34 393.35 228.21 391.75 225.68 389.34 223.42 387.74 221.3 386.18 218.94 384.79 216.7 384.31 214.45 384.23 212.12 384.17 209.13 384.17 206.42 384.08 204.27 383.88 198.57 383.3 193.31 382.48 188.17 381.77 183.97 381.48 180.32 381.48 176.95 381.62 173.41 381.21 170.52 380.93 167.44 380.34 165.2 379.86 164.24 379.02 163.88 377.82 163.62 376.84 162.75 375.67 161.65 374.26 159.97 371.58 158.83 369.99 157.23 367.8 156.42 365.34 155.95 362.89 156.23 360.29 156.87 358.12 157.89 356.1 160.17 353.98 162.39 352.39 164.57 350.83 166.52 348.89 167.92 346.56 168.85 343.9 169.12 341.8 169.14 340.26 169.49 338.86 169.88 338.3 170.64 337.68 171.96 336.67 172.87 335.28 174.18 332.7 175.62 330.43 176.52 329.32 177.29 328.7 178.6 328.36 179.82 328.48 181.01 329.33 181.88 330.81 182.7 332.43 184.59 333.53 186.83 333.9 189.63 334.11 192.26 333.82 193.62 333.2 194.29 332.36 194.22 331.24 193.72 330.04 192.8 329.12 190.82 327.49 189.06 326.32 186.93 325 185.13 323.72 183.57 322.31 181.77 320.85 178.89 319.18 176.16 317.68 173.94 316.29 172.42 314.87 170.86 313.07 170.1 311.45 169.7 309.98 169.73 308.43 169.9 306.47 170.09 303.53 170.28 300.73 170.38 297.43 170.38 294.63 170.85 291.69 171.49 289.66 171.98 288.09 172.24 286.62 171.98 285.49 170.79 284.32 169.07 283.47 166.37 282.56 164.42 281.71 162.44 280.39 160.5 278.55 158.25 276.04 156.56 273.92 154.78 271.56 153.5 269.51 152.54 267.92 151.5 265.81 150.88 263.84 150.29 262.85 149.84 258.92 149.65 256.47 149.09 253.52 148.16 250.67 147.41 247.79 146.86 244.49 145.83 241.46 144.98 239.32 144.04 236.92 142.09 233.61 140.41 230.26 138.47 226.04 136.48 222.41 134.44 218.6 132.85 215.68 131.62 213.63 130.25 211.52 128.34 208.59 126.7 205.84 125.66 203.55 124.8 201.72 123.52 200.38 121.9 199.35 119.57 198.48 117.16 197.72 113.8 197.03 110.59 195.91 108.47 194.49 106.49 192.33 105.36 190.22 104.54 188.6 103.3 187.32 101.72 186.64 99.02 185.88 96.27 185.23 94.5 185.24 92.94 185.93 91.05 187.35 87.88 189.77 85.26 192.31 83.59 194.15 81.6 195.95 79.38 197.51 76.53 199.59 74.68 201.29 72.51 202.46 69.25 204.29 66.09 205.9 63.92 207.25 61.89 208.35 59.72 209.42 57.46 210.38 54.37 211.02 49.45 211.36 45.15 211.14 41.19 210.47 37.28 209.63 33.92 208.69 30.99 207.85 28.85 207.17 27.27 206.52 26.34 205.95 26.23 205.8 25.57 204.93 25.22 203.52 24.82 201.83 24.29 200.15 23.8 199.02 22.87 198.24 21.38 197.77 19.61 197.47 18.3 197.6 16.61 198.18 14.81 199.15 13.36 199.52 11.92 199.16 10.71 198.3 9.52 197.35 7.8 196.21 6.42 195.25 5.12 194.19 4.63 193.13 4.46 192.07 4.39 190.82 4.17 189.62 3.82 188.14 3.23 187.23 2.7 185.43 1.64 184.3 1 183.46 1.02 182.19 1.37 180.87 2.52 179.4 4.12 177.92 4.65 177.43 6.13 175.89 8.01 172.37 8.94 169.86 9.5 167.41 9.62 165.52 9.04 163.9 8.13 162.56 7.82 161.22 8.03 160.25 9.13 158.64 10.47 156.9 12.14 154.71 14.1 152.41 16.72 149.67 19.56 147.35 22.72 145.45 25.32 144.07 28.61 142.87 31.81 142.03 35.99 140.7 38.35 139.5 39.73 137.69 40.66 135.38 41.54 133.15 42.38 130.87 43.31 128.43 43.47 126.75 43.3 125.91 42.66 124.85 41.42 123.68 39.85 122.12 37.69 119.89 35.82 117.35 34.24 114.01 33.58 111.48 32.86 106.91 32.65 102.77 32.48 98.85 32.28 96.39 32.27 94.57 32.01 93.23 31.52 91.55 30.67 89.33 29.78 87.15 29.11 85.04 28.64 82.09 28.63 80.2 28.9 77.88 28.94 75.57 28.84 73.26 28.54 71.08 28.07 68.83 27.36 66.59 26.88 64.44 26.67 62.97 26.69 61.84 26.99 60.8 27.51 60.41 27.99 59.86 28.48 58.53 28.64 56.99 29.29 54.61 29.52 52.16 29.47 51.2 29.41 49.85 29.97 47.19 29.95 45.71 29.97 44.46 29.61 43.89 28.96 43.6 29.13 41.85 29.57 40.24 30.36 38.08 31.17 36.93 32.41 35.96 34.29 34.93 35.57 34.41 36.7 33.93 39.43 32.52 42.31 30.79 44.3 29.48 46.42 28.31 49.53 27.46 53.56 26.97 59.45 26.71 65.49 26.42 71.49 26.02 76.73 25.58 77.95 25.52 81.49 26.15 84.99 26.85 86.96 26.86 90.85 26.31 93.2 25.52 95.08 25.05 97.04 24.82 101.62 25.46 106.29 25.75 108.53 25.88 109.73 26.66 111.55 27.34 114.25 27.86 117.12 26.8 120.87 23.5 123.06 21.59 124.83 16.35 125.65 14.75 126.61 13.39 128.64 12.08 130.44 10.73 131.93 8.78 133.8 8.24 135.86 8.15 135.12 5.27 134.37 2.32 135.14 1.06 135.98 1 136.53 1.71 137.36 2.84 137.56 4.8 137.57 6.97 138.01 8.66 140.43 9.21 141.18 8.8 141.86 7.54 142.43 7.02 144.4 7.04 149.15 7.82 155.78 8.58 157.84 8.85 159.08 9.77 160.91 12.03 162.44 13.13 164.29 14.69 167.76 16.66 178.4 23.45 181.5 25.55 183.54 27.04 186.73 28.93 187.61 29.47 188.16 29.99 189.08 30.98 190.38 32.01 194.23 33.77 200.03 36.17 209.1 39.72 219.46 43.54 224.62 45.62 227.81 47.33 229.76 48.65 232.66 50.96 237.16 53.56 240.87 55.1 244.09 55.94 248.1 56.64 252.1 57.76 255.36 58.6 258.11 59.4 260.99 60.37 263.12 61.41 264.55 62.48 265.87 64.8 267.18 67.51 268.76 70.61 270.35 73.61 271.44 75.79 271.75 76.85 271.06 78.66 270.24 80.13 270.21 81.74 270.04 83.67 269.29 86.32 267.34 88.2 263.11 89.45 258.98 90.43 255.28 91.2 252.16 92.54 250.79 93.51 249.55 95.29 249.2 96.61 249.35 98.72 250.2 100.83 251.51 103.75 252.37 105.37 253.64 107.56 253.68 108.19 253.56 109.38 253.3 111.27 252.99 112.95 253.09 115.13 253.75 117.79 254.22 120.53 254.69 122.67 255.41 124.3 255.78 124.79 256.56 125.71 256.55 126.48 255.96 127.81 255.7 129.42 255.63 131.17 255.6 132.64 254.74 133.75 253.64 135.6 252.91 137.28 252.03 139.02 250.74 140.48 248.67 141.62 247.07 142.24 244.76 143.23 242.59 144.12 239.58 145.18 238.68 145.7 236.7 146.94 232.79 148.48 230.72 149.47 229.11 150.3 227.74 151.2 226.88 152.49 224.83 154.71 221.28 157.31 Z M 585.76 260.65 584.62 261.34 583.67 262.41 583.14 263.32 583.12 264.09 583.49 264.59 584.18 265.12 585.3 265.55 586.79 265.98 587.44 266.16 588.47 265.89 589.23 265.27 590.03 264.65 590.98 264.13 591.09 263.29 590.53 262.9 589.32 262.47 588.36 261.55 587.9 260.91 586.69 260.58 585.76 260.65 Z M 123.59 190.42 124.17 189.73 124.36 188.89 119.78 186.21 118.59 187.63 117.82 188.55 119.67 189.79 122.6 191.32 123.59 190.42 Z M 359.82 186.32 361.52 185.21 362.29 184.21 363.1 183.09 362.83 182.46 362 182.03 360.78 181.92 359.18 182.46 357.67 183.53 356.85 184.43 357.12 185.14 358.05 185.54 359.82 186.32 Z M 625.78 409.04 626.14 409.6 626.51 409.96 627.11 410.17 627.67 410.14 628.47 409.87 628.86 409.32 628.41 408.33 628.14 407.56 627.54 406.92 626.8 406.6 626.15 406.52 625.49 406.65 625.11 407.14 625.05 407.7 625.13 408.4 625.78 409.04 Z" fill-rule="evenodd"/>
</g>
</svg>