<?xml version="1.0"?>
<svg xmlns="http://www.w3.org/2000/svg" version="1.2" baseProfile="tiny" width="800" height="287" viewBox="0 0 800 287" stroke-linecap="round" stroke-linejoin="round">
<g id="losbanosreservoir">
<path d="M 342.59 158.01 344.15 156.68 347.94 153.35 349.53 152.04 352.68 150.4 355.59 148.73 358.19 148.06 358.71 148.06 359.96 147.64 364.09 146.23 368.15 140.8 372.67 134.01 374.03 130.39 374.48 124.51 377.64 120.88 381.26 115.9 383.25 112.87 385.85 111.03 386.89 109.52 387.41 109.1 388.66 108.52 389.7 107.68 389.7 107.26 390.01 107.01 390.01 106.01 391.05 105.17 394.38 104.67 395.42 104.75 397.82 103.83 399.38 102 399.38 100.74 398.54 97.56 397.71 95.73 396.67 94.22 392.3 90.71 389.18 87.78 385.95 85.28 385.22 84.86 382.1 84.53 381.79 84.69 380.75 84.69 377.11 85.11 372.95 86.36 372.74 86.62 370.87 86.62 368.58 86.87 368.06 86.45 368.79 85.78 371.91 85.19 372.74 84.78 373.26 84.28 373.26 82.85 371.7 81.18 370.86 79.76 369.82 77 369.62 76.84 369.62 75.58 369.82 75.33 369.82 74.91 370.66 74.08 371.07 72.82 371.07 70.98 370.55 69.48 368.47 66.97 367.95 66.14 367.22 65.55 365.87 63.88 364.62 62.04 362.22 60.12 358.58 56.36 357.54 54.94 355.15 52.85 354.63 52.26 354.11 51.17 353.38 50.17 352.23 49.33 348.38 45.32 347.03 43.48 343.39 39.97 341.31 38.3 337.35 35.54 336.1 34.12 335.58 33.29 331.94 30.36 327.47 26.18 321.74 21.42 320.39 20.83 315.19 16.82 309.98 12.47 308.94 10.22 307.59 9.21 307.28 8.04 307.59 7.46 308.63 8.29 311.23 10.63 311.23 11.05 311.75 11.47 312.06 12.06 314.87 14.98 320.18 19.16 322.99 20.58 324.03 21.25 324.55 21.25 326.11 22.42 329.03 26.01 330.8 27.44 332.67 28.69 333.19 28.69 334.02 29.27 335.06 30.78 338.39 33.29 338.91 34.54 341.83 37.21 344.95 38.72 347.34 40.72 348.59 41.56 349.94 41.98 350.98 41.98 351.19 41.81 352.23 42.65 352.03 42.81 352.55 45.32 354.11 46.58 354.63 46.58 355.67 47.41 355.67 48 356.19 49.08 357.23 50.34 358.58 51.17 360.14 51.17 360.66 51.59 360.66 53.01 360.87 53.68 361.91 54.52 363.47 54.52 363.99 54.93 363.99 56.35 364.51 56.77 366.39 57.61 366.59 59.03 367.64 60.53 369.82 62.21 370.03 63.46 371.9 65.3 377.31 69.48 378.15 70.48 377.63 73.41 376.07 76.16 376.07 77.17 377.42 78.26 380.54 78.67 382.83 79.43 385.43 79.51 385.74 79.26 388.35 79.68 390.63 81.52 391.67 82.18 393.03 82.35 395.84 84.69 396.46 84.61 396.67 84.86 398.23 84.61 399.27 85.44 399.27 86.28 400.1 87.37 401.35 88.37 403.74 89.2 404.47 89.2 405.31 89.79 405.31 90.46 405.83 91.04 406.87 91.88 408.12 92.3 410.2 92.3 413.11 91.88 415.92 90.62 416.44 90.21 416.96 89.37 418 88.78 418.83 87.7 419.56 87.7 420.08 88.12 421.43 88.53 427.36 88.28 427.67 88.11 433.92 87.61 435.48 87.61 435.68 87.44 440.89 86.78 441.72 86.36 444.32 86.11 446.61 85.52 447.13 85.1 447.44 83.18 447.65 83.01 448.17 83.01 448.48 82.76 448.69 82.93 449.73 83.01 450.04 83.18 455.24 83.76 456.49 83.76 457.33 83.6 457.84 83.18 458.36 82.09 458.89 81.93 463.78 82.26 465.65 82.09 467.94 81 469.29 80 469.5 78.75 470.02 78.33 471.37 78.25 471.58 78.5 473.66 79.08 476.57 78.92 476.78 78.66 480.21 78.08 480.94 78.08 481.25 78.25 483.54 78.08 487.18 77.16 488.54 76.57 489.26 75.9 489.27 75.49 489.58 75.32 490.3 75.32 491.86 76.74 492.7 77.16 494.99 76.32 497.59 74.65 498.11 74.65 498.42 74.4 499.15 74.48 501.02 75.49 505.18 75.07 506.95 74.23 508.51 73.15 510.07 71.72 510.91 72.06 511.42 73.73 512.67 74.82 513.51 74.98 514.55 74.98 517.46 75.65 518.92 75.57 520.27 74.98 521.1 74.31 521.52 74.31 522.56 75.15 523.91 75.82 528.9 77.91 529.94 78.08 530.47 78.49 534.31 79.91 536.4 80.33 537.23 80.17 537.96 79.33 539 79.24 539.31 79.5 540.35 79.5 541.6 78.66 542.43 78.66 543.47 79.66 543.47 80.08 543.99 80.75 544.72 81.33 545.24 81.34 545.55 81.59 546.07 81.59 547.11 80.92 548.15 80.92 549.71 81.75 552 81.5 553.87 82.17 555.44 82.17 555.64 81.92 557.52 81.5 559.6 82.76 560.12 82.76 560.43 83.01 560.95 83.01 561.99 83.59 563.76 84.18 565.11 84.18 565.32 84.01 565.63 84.18 566.15 84.18 568.23 85.43 570 86.1 571.87 86.43 573.44 87.52 574.48 87.52 574.68 87.27 575.2 87.69 575.2 88.11 575.52 88.36 575.52 88.77 576.76 90.03 578.12 90.45 580.41 90.45 581.45 91.7 581.76 92.95 582.8 93.96 583.63 94.38 585.4 93.96 586.96 94.38 587.79 94.96 588.31 95.63 588.31 96.47 589.04 98.55 589.87 99.39 590.6 99.81 592.47 99.56 592.68 99.31 594.56 99.56 598.2 101.65 601.63 102.9 604.23 103.32 607.35 105.16 610.68 106.41 613.59 107.25 616.92 109.09 618.28 109.51 619.32 110.09 622.65 111.34 625.04 111.76 626.6 111.76 626.91 112.01 628.99 112.6 632.84 114.27 637.01 115.27 640.13 116.53 642.52 117.11 644.81 117.95 646.68 118.37 648.97 119.87 649.49 119.87 650.84 120.63 652.09 121.13 654.48 121.46 657.08 121.46 662.81 117.26 664.17 111.83 669.14 103.68 672.3 99.61 679.08 97.8 684.33 97.8 685.38 97.14 686.63 95.46 687.15 92.96 687.15 89.03 686.11 82.67 685.8 82.5 683.72 77.49 682.47 75.65 680.6 73.73 673 67.71 669.36 65.62 668.11 64.62 668.32 64.2 669.67 64.36 673.32 64.37 675.6 63.28 676.64 62.44 678.41 59.77 679.25 57.68 678.93 54.33 681.01 52.24 682.37 49.74 683.1 46.81 683.62 46.39 683.62 45.89 684.14 45.31 684.35 44.47 684.87 44.05 685.9 44.05 687.26 44.47 687.78 44.47 689.03 43.63 690.38 41.71 692.46 35.86 696.31 32.77 697.35 31.43 697.87 29.76 698.6 29.17 702.03 27.08 704.12 25.16 704.84 24.07 705.68 22.07 706.72 21.23 709.52 20.73 712.44 19.48 714.73 17.55 715.25 16.8 716.6 15.46 717.33 14.04 718.16 13.21 722.22 10.87 725.65 7.77 726.9 6.27 727.73 4.18 727.42 1.42 728.26 1 728.46 1.25 728.98 1.25 731.58 2.26 733.46 2.67 736.06 2.67 736.27 2.51 738.87 2.01 744.38 2.01 744.59 2.26 746.67 2.68 753.75 3.68 755.83 4.26 756.87 4.93 760.3 5.94 762.07 7.19 762.38 7.78 764.46 10.28 766.23 12.79 767.58 14.3 768.1 15.3 770.71 18.39 775.91 25.33 777.26 26.75 777.78 27.84 781.73 32.61 787.66 40.55 790.57 44.06 794.21 48.91 797.65 53 799 59.94 799 64.29 798.17 65.8 798.06 68.8 797.75 68.47 796.71 73.07 796.92 75.83 797.23 75.99 796.92 78.75 796.92 80.42 795.35 81.68 791.82 85.27 789.42 88.2 787.13 90.29 783.7 92.79 780.06 96.14 777.98 97.39 776.42 98.65 775.17 99.98 773.92 101.82 773.09 102.66 769.96 108.09 768.2 109.35 767.89 109.76 767.36 111.85 766.84 112.27 764.03 113.61 761.12 115.45 759.04 116.53 758.62 116.95 758.62 117.37 758.1 117.79 758.1 118.21 757.58 118.62 756.75 120.46 756.02 121.13 750.51 121.55 747.7 122.8 744.58 125.31 742.5 126.4 741.46 127.23 741.14 127.82 741.46 129.74 740.62 130.83 739.58 131.66 738.86 132.08 738.02 132.25 736.98 132.25 736.25 132.08 733.86 132.25 731.57 132.67 728.97 134.17 721.48 139.02 719.61 140.44 715.97 144.7 714.72 147.8 714.2 150.97 714.2 152.39 713.89 152.64 713.16 161.42 712.64 162.43 711.39 163.93 710.35 165.77 710.14 166.61 709.31 167.53 708.58 167.86 706.71 168.36 706.19 168.36 705.98 168.53 704.42 168.78 703.06 169.37 700.78 169.78 699.42 170.2 697.66 171.29 696.61 172.12 691.41 174.21 685.17 178.39 684.13 179.23 682.78 180.73 680.7 181.99 675.81 186.25 671.96 188.76 665.92 192.1 664.67 192.52 662.6 193.52 661.03 193.94 660.2 194.61 659.47 195.7 658.64 196.11 658.12 196.11 657.91 195.86 657.6 196.11 654.48 195.86 652.71 196.28 648.24 198.04 646.68 198.04 645.64 198.45 643.56 200.29 642.31 200.96 641.48 201.63 639.92 202.22 638.15 200.71 637.11 200.79 636.8 200.54 635.76 200.54 630.55 201.21 628.47 201.21 625.66 199.96 623.58 199.29 621.5 199.12 621.19 198.96 619.11 198.7 618.9 198.54 616.82 198.12 614.43 198.37 613.39 197.7 613.39 197.12 613.91 196.7 613.91 196.28 612.35 194.94 611 194.19 610.48 194.19 610.27 193.94 603.71 191.68 600.59 190.85 599.34 190.26 598.3 190.01 597.78 189.59 597.26 189.59 593.62 188.17 588.94 186.92 586.76 185.91 584.47 183.99 582.91 182.4 579.27 179.48 578.43 179.06 576.66 178.64 575.62 177.81 572.71 173.38 571.88 172.54 568.76 170.7 568.03 170.12 566.16 169.7 565.43 169.28 562.83 167.19 558.87 164.85 557 163.43 553.15 161.34 549.51 158.25 548.68 157.83 546.08 157.24 544.31 157.41 540.67 160.33 539.32 161 538.8 161.42 537.55 161.84 536.72 161.17 537.03 160.59 540.35 156.99 541.19 155.57 541.08 153.9 540.35 152.81 535.36 148.88 534.11 148.05 531.72 147.63 528.39 147.63 527.56 147.29 524.75 144.95 524.96 142.45 524.44 141.44 522.04 139.35 520.48 137.68 520.48 137.26 519.75 136.18 516.11 133.33 510.71 127.42 502.9 122.86 495.09 121.55 491.19 122.21 484.03 122.21 477.52 120.9 472.96 120.9 465.16 123.51 453.9 129.33 452.55 130 451.51 130.16 450.26 130.83 448.7 132.08 446.83 133.17 444.74 133.76 443.18 134.59 436.94 140.03 431.53 146.8 431.01 147.8 430.8 148.64 430.28 149.06 428.21 151.57 425.81 153.49 425.09 154.57 425.09 154.91 424.56 155.58 424.05 159.34 423.21 160.34 422.28 161.85 421.76 163.35 421.24 163.94 418.84 165.78 418.32 166.87 418.64 169.21 418.32 169.37 418.12 169.79 417.28 170.21 416.76 170.21 415 171.29 413.44 172.55 411.88 174.22 411.36 175.22 410.84 177.32 411.67 179.24 411.36 179.41 410.63 184.09 410.32 184.25 409.07 187.76 407.82 192.03 404.91 195.12 403.66 197.04 402.1 198.3 397.42 201.39 395.34 203.07 393.78 204.99 392.43 205.82 390.97 207.08 390.66 207.75 389.93 208.58 388.58 209.42 387.02 210.84 385.77 211.51 383.69 211.68 381.61 212.35 380.05 213.18 377.45 213.85 375.58 215.27 372.98 216.95 371.94 217.78 371.73 218.45 369.86 219.45 367.78 221.21 366.53 221.79 365.49 222.05 363.1 223.05 359.77 224.72 356.65 225.39 354.25 226.23 353.32 226.23 353.01 226.06 350.09 226.23 349.89 226.48 348.12 226.9 342.81 226.06 338.65 226.06 338.44 226.31 334.49 226.06 332.72 226.15 332.41 226.31 327 226.15 326.17 226.15 325.96 226.31 320.24 226.15 317.84 226.82 314.72 226.4 312.44 226.57 312.12 226.82 310.04 226.15 307.23 225.81 304.11 225.82 302.03 225.4 300.16 225.4 299.95 225.15 295.79 225.65 293.19 225.65 292.88 225.4 291.52 224.98 287.47 224.57 286.64 224.65 283.31 225.24 280.91 226.32 278.31 226.74 276.02 227.41 271.86 230.25 271.34 231.34 271.34 231.76 271.03 232.01 270.82 232.84 270.2 233.51 269.47 232.59 269.47 231.34 269.78 231.17 269.78 229.08 268.95 228.41 266.14 228 259.59 228.25 255.64 228.08 255.43 227.83 252.31 227.67 251.27 227.5 250.95 227.25 248.35 227 248.15 226.83 245.02 226.41 240.03 224.99 239.82 224.83 236.7 224.74 236.18 224.41 235.14 224.16 233.79 223.57 231.19 222.74 227.23 222.32 222.14 222.16 221.82 221.9 220.26 221.9 217.66 221.57 217.14 221.32 213.19 220.49 212.98 220.32 210.9 220.07 208.51 219.23 206.43 218.81 206.22 218.65 203.62 218.48 200.18 216.56 195.81 215.97 193.94 214.13 192.38 212.88 188.43 211.21 185.1 210.38 181.66 208.96 179.89 208.54 171.57 206.03 167.1 205.03 166.78 204.78 163.46 204.36 163.14 204.19 156.38 203.61 156.17 203.36 154.61 203.36 150.66 204.28 150.45 204.03 149.62 204.03 148.37 203.61 145.46 203.2 141.3 203.62 140.26 203.87 140.05 204.03 134.85 204.71 133.49 205.12 132.25 206.38 131.62 208.63 128.29 207.21 125.17 206.38 123.09 206.21 122.88 206.04 120.8 205.79 120.49 205.63 116.33 205.21 116.12 204.96 111.44 204.63 107.8 204.63 107.49 204.79 104.37 205.46 103.12 205.21 102.28 205.3 97.4 204.63 96.04 204.21 92.4 203.8 92.19 203.63 91.15 203.46 85.64 203.05 84.29 203.05 79.92 203.47 79.61 203.72 76.48 204.3 74.4 204.97 73.36 205.14 71.08 206.39 65.88 210.99 64.63 212.5 63.28 215.01 62.76 216.51 61.51 218.35 60.99 218.77 59.95 220.69 59.12 222.53 57.87 226.13 55.07 228.8 53.2 230.98 53.2 231.31 52.16 233.23 51.95 234.91 51.64 235.07 51.22 239.09 50.91 239.34 47.27 247.61 46.75 250.21 46.55 250.37 46.03 254.97 45.51 257.06 43.95 260.99 43.74 261.91 42.19 264 41.15 265.26 37.3 268.77 37.3 269.19 36.99 269.6 34.7 271.28 30.75 275.04 26.38 278.64 22.22 281.56 18.06 283.91 17.02 284.07 14.11 284.99 13.17 285.58 12.34 285.83 11.09 285.83 10.78 286 10.47 285.83 9.74 285.83 8.39 285 6.83 284.58 6.41 284.58 5.06 283.49 4.23 283.07 2.15 282.74 1 281.99 1.42 281.07 1.94 280.99 3.7 281.4 5.58 282.07 7.14 282.07 7.87 282.24 8.18 282.07 9.74 282.07 13.38 281.4 15.46 280.73 18.79 279.06 23.78 275.71 27.42 271.78 29.7 268.19 29.91 267.35 30.74 266.51 33.86 260.24 35.11 257.48 35.11 256.9 35.63 256.48 35.63 256.06 36.67 253.8 38.43 248.96 38.74 248.7 38.95 247.03 39.26 246.87 40.3 241.18 40.2 240.18 40.71 239.09 41.23 236.83 41.75 235.58 42.07 235.33 42.59 232.4 42.58 231.15 43.1 229.73 44.14 228.22 44.35 226.8 44.35 225.29 43.83 223.87 44.04 223.62 44.55 219.28 47.47 216.1 47.67 215.26 48.71 213.42 49.55 212.75 55.16 206.9 56.2 205.48 66.91 198.29 71.59 195.78 74.19 195.19 74.4 194.94 76.48 194.69 83.56 192.85 88.96 192.18 91.56 192.18 95.52 192.59 95.73 192.76 106.65 193.34 113.93 193.34 117.57 193.76 123.29 193.92 123.61 194.09 124.33 193.92 124.65 194.09 125.17 194.09 127.46 193.92 127.77 194.09 132.97 194.09 140.25 193.17 147.53 192.58 147.74 192.33 153.78 192.16 153.98 191.91 166.05 192.24 166.26 192.49 167.09 192.24 167.3 192.49 172.5 193.07 178.74 193.49 179.06 193.66 181.14 193.66 185.3 194.49 191.75 195.33 193.31 194.91 193.62 194.66 194.35 194.66 196.74 196.5 200.07 197.58 208.19 199.67 211.83 201.26 213.7 201.93 226.92 205.43 242.31 209.94 246.99 210.95 247.31 211.2 250.95 211.61 253.03 211.78 253.24 211.61 256.88 211.53 266.02 212.32 277.32 209.61 286.36 205.98 291.33 205.08 298.11 204.63 304.88 202.82 310.31 199.65 316.63 195.57 322.06 191.5 327.93 188.33 330.64 184.71 334.26 180.18 337.07 177.05 338.33 175.66 340.59 172.03 340.59 166.15 341.49 162.53 342.59 158.01 Z"/>
</g>
</svg>