<?xml version="1.0"?>
<svg xmlns="http://www.w3.org/2000/svg" version="1.2" baseProfile="tiny" width="800" height="761" viewBox="0 0 800 761" stroke-linecap="round" stroke-linejoin="round">
<g id="lakecasitas">
<path d="M 118.95 95.49 113.84 91.23 110.86 86.55 110.01 83.57 112.99 82.29 116.4 82.29 116.82 78.03 117.47 72.07 116.52 64.89 121.84 62.76 126.1 58.5 129.83 54.77 134.62 49.45 134.09 42.53 130.89 37.74 126.64 31.88 125.04 26.56 125.04 21.23 125.04 14.31 125.57 8.45 127.17 5.26 129.3 4.19 132.49 4.73 135.15 10.05 136.22 12.71 137.71 16.2 137.82 16.44 140.48 18.57 144.2 13.25 144.74 9.52 146.33 5.26 149.53 1 151.12 8.99 152.19 13.78 151.66 21.23 151.66 27.09 152.72 32.95 156.45 38.8 156.98 44.13 157.51 49.98 157.51 53.71 153.79 57.97 149.53 61.16 146.33 63.29 139.41 63.83 134.62 63.83 128.23 63.83 123.97 65.95 123.43 72.93 125.99 72.5 128.12 75.06 131.52 78.04 132.8 77.19 135.36 72.93 135.97 71.69 137.06 69.52 145.15 69.09 146.43 71.22 148.56 75.06 152.39 78.46 160.16 78.51 169.96 81.92 176.35 81.92 182.53 82.46 191.05 85.65 199.04 89.38 207.55 95.24 212.34 104.82 215.54 113.87 220.33 118.66 226.92 118.93 227.77 116.8 229.18 116.67 232.46 116.37 234.16 113.82 236.29 111.26 235.44 107 231.18 103.59 227.25 98.96 227.25 97.11 227.25 93.64 228.85 90.98 230.98 94.71 233.64 97.9 238.42 101.46 238.42 99.33 238.2 96.7 237.99 94.22 239.13 94.22 240.12 94.22 240.12 95.45 240.12 98.06 240.55 101.46 242.68 104.45 243.96 107.43 243.96 109.98 243.1 114.24 243.1 115.52 245.88 119.2 250.14 121.33 253.87 120.26 260.26 120.79 265.05 123.46 271.97 126.12 275.16 129.31 279.95 131.97 284.21 131.97 286.34 129.84 292.2 125.05 299.12 121.86 302.31 121.33 300.85 123.88 300.18 125.05 296.99 128.78 294.86 134.64 294.86 138.36 292.73 143.16 287.82 147.46 286.55 148.74 285.69 150.87 287.82 151.3 294.33 150.61 296.99 151.14 300.72 154.34 301.78 158.6 301.78 163.39 300.18 165.52 295.39 166.05 289.54 166.05 282.62 162.32 278.92 163.51 272.1 163.94 265.29 164.79 257.62 165.22 252.51 166.92 249.53 169.9 246.51 172.59 246.09 176.43 246.09 179.84 243.96 180.26 242.68 182.82 244.81 185.37 247.36 187.93 249.92 190.48 251.62 191.34 255.46 193.04 258.44 193.47 260.57 194.74 264.82 197.3 266.95 197.3 271.42 197.29 272.27 197.72 276.53 200.27 278.23 201.98 276.11 206.23 272.27 209.64 268.66 213.06 268.23 219.02 269.51 222 270.36 224.13 272.49 226.69 273.34 229.24 273.77 232.65 271.64 236.06 271.21 237.34 272.06 239.47 272.06 242.87 272.49 244.15 275.9 247.13 280.58 248.84 283.56 250.11 286.12 249.26 287.82 245 290.38 242.45 290.8 239.89 293.79 240.32 295.06 242.87 296.34 244.58 297.19 245.43 298.9 245.43 301.45 244.58 303.15 245.43 302.73 247.56 301.45 249.26 301.02 250.97 301.02 252.67 302.73 254.8 304.43 255.65 307.41 254.8 311.25 254.8 313.8 253.95 318.49 252.67 321.47 252.67 323.6 254.8 324.02 256.93 325.3 259.06 327.43 259.49 329.99 257.78 333.39 257.36 334.67 257.78 335.52 259.91 337.23 260.76 340.21 261.61 339.78 264.17 339.35 266.73 338.08 268 335.95 268.86 336.37 270.56 337.65 272.69 338.5 274.39 338.5 278.23 338.08 279.93 335.1 280.36 334.79 285.84 331.59 290.1 324.67 291.7 320.41 293.83 320.41 298.09 323.61 301.82 328.93 302.88 332.66 305.54 339.58 310.33 341.71 313.53 343.19 317.84 353.19 312.29 362.99 305.48 369.37 303.35 374.91 299.51 377.04 296.53 378.32 293.12 380.45 291.85 383.43 293.55 384.71 298.24 385.56 301.22 386.63 302.93 389.61 305.06 387.91 306.76 384.5 307.19 382.79 308.04 377.26 314 372.57 319.97 370.87 320.39 368.31 326.36 364.91 329.34 361.5 332.32 359.8 334.02 363.2 334.45 366.61 333.6 369.17 332.75 370.87 333.17 370.87 335.3 369.59 336.58 364.91 339.13 362.78 340.41 362.35 341.69 362.78 342.97 362.35 344.25 361.93 345.52 358.09 346.8 355.11 349.36 356.39 350.63 355.96 352.76 353.83 353.62 350.85 354.47 347.87 354.47 346.17 355.32 344.04 358.73 341.91 361.28 339.35 364.26 337.65 367.25 336.37 369.38 333.39 371.93 330.41 373.21 330.84 375.34 332.11 375.76 338.5 376.19 341.06 377.47 344.04 381.3 346.59 380.45 349.15 380.88 351.71 382.58 355.11 380.45 356.39 378.75 358.52 377.47 360.22 377.89 362.35 380.02 365.76 378.32 368.74 375.76 370.87 374.06 374.28 373.64 377.26 374.06 377.68 376.19 380.24 375.34 384.92 376.19 388.33 378.32 392.59 380.45 394.29 378.75 397.27 379.17 397.7 380.02 400.68 380.45 402.39 378.75 404.09 376.62 406.64 374.49 407.92 374.91 408.35 376.62 407.07 379.6 404.94 384.28 399.83 388.12 394.29 390.25 391.74 390.25 387.05 389.82 384.92 391.52 381.52 392.8 378.96 395.36 374.7 395.78 374.7 398.34 373.43 400.04 374.28 402.17 376.41 402.17 379.39 402.6 380.67 403.02 381.94 405.58 381.94 407.71 382.79 408.14 388.33 405.58 393.87 403.88 396 403.88 402.81 403.88 403.66 404.3 404.09 406.01 402.39 408.56 399.83 410.69 398.13 410.69 396.42 412.82 394.29 415.38 393.44 416.23 393.87 417.51 396.85 419.21 396 423.04 394.72 423.9 394.29 425.17 390.46 428.58 391.31 430.28 393.02 433.27 393.44 436.25 393.44 438.8 392.16 440.51 390.03 440.93 389.61 443.49 389.18 443.91 387.05 444.34 385.78 446.47 385.35 448.17 384.5 450.3 382.79 452.43 388.02 450.36 390.68 452.49 395.48 457.28 398.14 460.48 398.14 467.4 397.07 472.72 398.14 477.51 400.8 480.17 405.06 479.64 408.78 477.51 411.45 476.98 417.3 478.58 421.03 480.71 425.38 487.36 431.35 486.08 433.9 484.38 436.46 482.25 437.31 477.99 441.14 475.43 442.42 472.03 442.1 469.02 440.83 466.89 442.53 465.61 444.66 465.61 447.21 462.63 449.77 460.92 452.75 460.07 458.71 459.65 461.27 459.65 464.67 460.5 468.93 462.63 470.21 464.33 472.77 465.61 478.3 465.18 482.56 464.76 483.41 463.91 483.84 461.78 482.14 458.37 483.41 454.11 482.56 449 482.14 446.02 482.14 444.31 485.12 445.17 486.82 447.72 489.38 450.28 489.38 451.98 491.93 453.68 494.06 455.39 495.34 456.24 498.75 455.39 499.6 453.68 501.3 455.39 504.71 456.67 508.54 454.54 510.67 451.98 514.5 452.41 514.93 450.7 514.93 449 515.78 445.59 514.93 441.76 515.78 439.63 517.06 438.78 519.61 439.63 523.02 441.76 525.58 444.74 527.28 445.59 530.69 443.04 530.69 441.33 531.11 439.2 532.82 436.65 532.82 434.09 530.69 431.54 526.43 428.98 523.45 428.13 518.76 423.02 515.78 421.31 514.5 419.61 514.5 417.91 517.48 417.48 520.89 417.05 524.72 417.91 528.13 417.91 531.11 417.48 533.24 415.35 532.39 412.79 530.69 411.09 529.83 407.68 531.11 404.7 528.13 403 526 399.59 520.04 399.59 515.78 398.31 509.39 397.89 503.86 396.61 500.45 397.03 497.89 395.76 495.76 393.63 492.78 392.35 488.95 391.5 487.25 390.65 483.84 388.52 481.71 387.66 482.56 385.53 486.39 384.68 489.8 381.28 493.63 379.15 497.04 377.87 498.75 378.72 500.87 380.85 503.43 380 505.99 380.85 507.69 380.42 509.39 378.72 508.54 376.16 509.39 374.03 511.52 371.9 513.23 371.9 517.48 370.63 519.61 369.35 521.32 368.5 521.32 364.66 519.19 363.39 516.21 362.96 514.08 362.11 511.52 360.83 508.54 359.13 510.67 358.7 511.95 357 513.23 352.31 515.78 350.18 516.21 347.63 517.06 345.07 521.32 343.37 524.3 341.66 523.87 339.11 520.04 338.26 519.61 336.55 514.93 334.42 511.95 332.72 511.1 330.59 514.08 328.89 517.06 328.03 520.04 325.9 523.45 324.2 525.15 323.77 526 322.5 525.58 320.79 523.87 319.52 523.87 316.53 526.43 315.26 528.98 313.98 526.43 311 521.74 309.72 513.65 306.74 508.97 305.03 505.99 302.05 502.58 300.35 500.45 297.79 497.89 297.37 493.63 297.44 490.22 297.44 486.82 296.59 482.98 295.31 483.84 291.9 486.82 286.79 491.93 281.18 491.51 279.05 489.8 277.77 487.67 277.77 485.97 276.92 481.72 271.47 476.93 268.81 471.07 266.14 468.94 261.88 465.75 258.69 459.36 255.49 457.76 249.11 458.29 245.38 460.95 243.25 454.57 241.12 449.78 237.39 448.18 232.6 445.52 228.34 440.73 223.02 436.47 216.1 433.27 208.64 431.13 200.7 429.42 194.31 428.15 192.18 423.46 192.6 419.63 192.6 415.17 196.4 413.58 201.19 412.18 200.26 410.38 199.06 406.65 194.8 412.72 189.18 413.57 186.62 416.12 186.62 420.38 184.92 420.38 182.79 417.3 178.83 410.91 175.63 405.59 175.63 398.66 176.9 393.97 176.47 391.42 177.75 388.86 176.05 385.03 175.62 383.33 173.92 387.16 172.64 390.14 170.93 391.75 164.98 390.15 161.26 384.83 161.26 378.97 163.39 373.65 165.52 369.92 164.98 366.73 161.26 364.07 159.13 356.61 157.53 352.35 156.47 349.69 148.48 357.68 150.08 364.07 149.54 365.66 147.41 363 144.22 364.07 139.96 371.52 140.49 376.84 139.96 382.17 139.96 388.96 140.64 393.65 139.79 396.63 139.36 399.09 138.07 396.01 134.1 395.48 130.91 398.14 129.84 403.99 130.91 409.32 129.84 410.91 131.44 413.58 134.1 419.96 134.1 422.09 131.97 424.22 127.18 432.21 125.05 441.26 120.26 446.58 111.21 450.62 101.44 450.19 96.75 452.75 91.64 458.29 90.36 466.28 86.72 467.88 75.01 466.28 68.62 473.2 61.16 479.05 52.64 485.44 42.53 480.12 55.31 478.52 64.36 477.99 71.28 477.99 77.14 477.99 85.65 479.85 93.61 482.99 93.34 487.25 93.34 491.51 92.07 495.34 93.77 495.76 97.6 497.47 103.57 499.59 106.62 511 111.21 518.45 117.07 522.71 120.79 532.82 121.33 538.68 121.86 545.07 122.39 549.86 122.92 554.11 129.98 553.68 137.64 555.39 147.44 556.67 151.27 557.94 155.96 560.5 170.86 560.5 175.55 560.42 176.53 560.07 180.66 558.37 184.92 558.79 186.62 560.92 187.48 561.35 189.61 561.35 192.16 563.91 193.87 563.48 195.57 565.6 200.32 561.35 203.73 556.24 205.01 549.42 204.16 545.16 203.31 538.77 203.31 532.81 204.16 527.88 204.01 522.69 205.38 517.16 206.23 512.9 206.23 509.92 205.38 507.26 203.31 500.44 204.16 495.76 207.57 499.82 213.97 504.61 223.55 508.33 229.94 514.19 236.86 520.05 243.78 525.9 248.57 531.23 252.83 532.29 256.56 534.95 262.01 541.87 260.82 546.13 258.69 549.33 264.55 552.52 270.4 557.31 276.79 560.51 282.12 561.57 287.44 563.48 291.83 565.18 292.68 565.61 294.39 565.61 297.37 566.46 299.5 568.59 300.35 570.29 300.77 571.57 303.76 573.28 304.18 576.26 304.18 577.96 304.61 578.81 305.89 578.81 307.59 580.52 310.57 581.79 311.85 581.37 313.13 580.94 315.68 582.22 318.66 584.77 322.92 584.35 328.03 582.64 336.13 579.66 342.94 572.42 350.61 577.11 353.16 578.39 350.61 580.94 347.2 581.79 343.79 582.64 339.53 586.05 336.55 587.76 331.87 589.46 327.61 589.88 323.77 592.01 320.79 593.72 315.68 595.64 308.74 599.37 301.82 602.56 297.56 605.22 295.66 607.35 293.53 607.35 289.7 607.35 286.29 610.42 282.48 613.83 279.92 615.11 275.24 615.11 272.68 617.24 270.12 618.52 266.72 618.52 261.18 618.94 258.62 621.4 256.05 624.81 252.64 626.51 250.51 629.59 247.55 630.01 244.57 628.74 242.01 627.03 238.18 623.86 233.67 616.4 227.28 609.48 221.95 600.96 217.16 593.51 212.37 587.66 208.64 580.73 207.05 574.88 203.32 569.02 195.86 566.89 190.01 566.89 185.75 571.68 184.15 574.35 179.89 573.81 172.44 571.15 167.11 573.81 164.98 578.07 159.66 575.94 155.93 570.09 152.74 569.55 148.48 571.15 144.22 571.15 139.43 574.88 138.9 581.8 139.43 587.66 137.3 592.45 134.64 598.3 134.1 600.96 137.83 601.5 142.09 602.03 145.82 603.09 148.48 606.82 149.54 611.61 148.48 614.81 143.16 618 138.9 619.6 144.75 623.86 149.01 628.65 149.54 630.78 144.75 631.84 139.96 633.97 136.23 636.63 133.04 637.7 131.97 642.49 130.38 645.15 135.17 649.41 134.1 652.6 131.44 653.67 128.25 657.14 131.5 663.23 131.7 670.47 131.7 675.16 132.97 676.44 131.27 676.44 127.86 677.71 126.59 678.77 127.22 679.56 127.69 679.84 127.86 684.53 131.27 687.51 131.7 693.9 129.57 697.73 129.14 703.27 126.59 710.93 126.16 719.45 126.59 726.26 125.31 732.13 123.23 736.38 123.23 741.49 120.67 743.2 118.12 744.48 116.84 747.03 117.27 751.29 119.4 754.7 119.4 759.81 117.27 762.36 114.71 765.77 111.73 770.88 110.03 775.14 108.75 780.37 105.35 786.22 105.35 792.08 105.89 798.47 107.48 798.76 109.53 799 111.21 796.34 114.94 788.89 117.07 783.56 119.73 778.77 122.92 775.58 127.18 771.85 132.51 769.72 138.36 767.59 142.62 766.53 145.28 761.2 146.35 755.35 151.67 751.09 152.74 745.76 154.34 742.04 157 738.31 163.39 730.86 171.37 724.89 176.05 720.2 180.31 721.9 184.99 726.16 189.25 730.1 190.05 733.08 192.18 732.23 193.03 730 195.21 724.46 196.92 721.15 196.86 718.6 198.14 716.04 200.27 711.78 200.27 708.38 200.27 704.45 203.66 704.45 207.07 703.17 209.62 701.04 212.18 698.91 212.61 698.06 215.59 698.48 218.57 704.24 224.61 705.84 227.81 703.71 230.47 698.38 226.74 693.8 224.11 689.54 224.53 686.99 224.96 684 226.66 684 228.37 687.08 232.64 689.21 235.62 689.64 239.03 688.79 241.16 685.38 242.44 680.17 240.72 679.32 242 679.75 244.13 678.04 246.68 676.34 246.68 674.21 246.68 671.23 247.96 670.8 248.38 670.38 252.22 669.95 254.35 667.4 255.63 665.69 255.63 663.56 255.2 660.58 255.63 660.58 256.9 661.43 257.75 661.01 260.31 662.28 262.01 664.41 266.27 663.99 270.11 661.43 269.68 658.03 270.53 654.19 271.38 651.87 276.46 651.63 276.99 652.49 278.2 652.92 280.33 655.47 281.61 658.03 281.61 659.3 283.31 659.3 286.29 658.03 288 656.32 289.7 652.92 291.83 652.06 294.81 649.93 294.81 646.53 295.24 643.97 295.66 643.97 297.37 644.4 299.5 647.38 300.77 648.66 301.63 651.64 302.9 651.64 304.61 649.93 306.31 647.38 306.31 644.4 307.59 642.27 308.87 638.86 308.87 637.16 309.72 635.88 311 635.45 314.4 634.6 316.11 635.03 319.09 635.88 322.5 637.58 325.05 636.73 328.03 638.01 330.59 639.71 331.44 641.84 332.29 643.12 330.16 647.38 331.02 649.51 331.44 652.92 331.44 655.04 330.59 658.88 329.74 659.73 330.16 658.45 334.42 659.3 335.7 663.14 335.27 665.69 335.27 668.25 336.13 671.65 336.98 677.19 336.13 680.17 335.27 680.17 336.07 680.17 336.55 678.47 338.26 675.49 341.66 672.08 342.52 667.4 344.65 660.16 345.92 658.45 345.92 657.17 347.2 657.17 349.33 655.04 351.46 653.77 351.46 653.34 353.59 649.93 354.02 647.8 351.89 646.53 350.18 643.12 350.18 640.99 351.89 640.14 352.74 638.01 354.87 637.16 355.29 635.03 354.87 632.05 355.29 630.77 355.29 628.64 356.15 626.08 357 625.23 358.7 623.53 360.83 624.38 362.96 627.79 363.81 628.21 365.94 628.21 368.07 625.66 369.35 619.27 371.9 617.57 373.18 617.99 374.46 617.99 375.74 617.57 378.72 616.72 381.28 617.14 385.11 618.42 387.66 620.55 389.37 623.1 389.37 624.38 387.24 626.08 386.81 627.36 388.52 629.07 389.37 634.18 386.81 636.31 385.96 639.71 385.96 642.69 385.96 644.4 384.26 644.4 382.55 646.53 381.28 646.53 379.57 648.66 377.44 650.36 375.74 652.06 375.31 654.19 375.31 655.47 377.02 653.34 378.72 652.49 380.42 653.34 382.55 653.34 384.68 655.04 384.26 660.16 383.83 661.43 383.83 664.41 383.83 666.12 385.11 666.54 387.24 665.69 389.79 667.82 389.79 668.12 391.88 668.25 392.78 667.82 394.05 666.12 394.05 664.41 394.05 662.28 394.91 660.58 395.76 658.88 397.03 655.47 397.46 652.49 397.89 650.79 397.89 652.49 402.15 653.77 403.85 654.19 406.83 651.64 407.68 645.25 405.98 642.27 405.98 640.56 404.7 637.16 404.28 637.16 405.98 635.03 408.11 633.32 409.39 631.62 409.39 629.92 408.54 627.79 408.11 625.23 407.68 620.12 408.96 618.84 410.66 615.44 410.66 613.31 408.96 612.03 408.11 610.33 409.39 610.75 411.09 612.88 412.79 615.44 413.22 618.84 413.22 622.68 412.37 626.94 412.37 629.49 413.22 629.92 415.78 630.77 418.33 634.6 417.91 635.88 416.2 638.01 415.35 640.99 413.65 644.82 413.65 646.1 415.78 646.1 417.91 646.1 420.46 646.53 423.44 648.23 424.72 651.64 424.72 658.45 424.72 663.14 424.72 664.84 425.57 663.14 428.55 653.77 432.81 648.66 434.94 644.4 435.79 642.69 435.79 638.86 434.52 636.73 433.24 634.6 433.24 634.18 434.94 635.45 435.79 643.12 442.18 644.4 443.46 642.69 445.59 643.97 448.15 641.84 448.57 641.42 451.98 640.99 454.96 639.29 459.22 636.73 461.78 636.31 464.76 636.66 470.19 632.83 471.04 630.27 470.61 628.57 468.48 626.01 465.93 622.6 467.2 618.35 470.61 615.36 475.72 611.96 479.56 607.27 481.26 600.11 482.65 598.4 483.93 595.42 486.48 595.42 489.46 598.4 490.74 600.96 491.89 602.03 498.28 600.43 503.07 598.83 506.26 600.96 512.12 603.63 516.38 603.94 524.39 606.49 529.5 606.77 530.24 607.77 532.91 607.35 535.89 609.48 536.31 615.44 534.19 615.86 531.63 616.22 525.98 616.64 523 617.49 519.17 618.42 517.15 618.42 514.17 621.83 511.61 623.96 512.46 627.29 514.06 629.84 514.91 628.57 517.46 628.21 522.26 631.62 523.54 636.31 522.69 640.56 523.11 643.55 521.83 646.53 519.28 647.8 518.85 650.36 523.11 653.77 523.96 655.27 524.3 657.6 524.81 661.43 523.54 663.99 522.26 667.4 521.41 669.1 521.83 670.8 518.85 672.93 514.59 672.93 512.46 674.21 509.06 674.21 505.65 674.21 502.67 679.75 501.39 684.86 499.68 685.28 500.96 682.3 502.24 680.6 503.09 680.17 503.94 681.45 507.35 683.15 509.91 684 512.89 683.15 515.02 683.15 518 683.46 518.31 683.9 518.75 684.43 519.28 685.71 519.7 688.26 519.7 691.67 518.43 691.67 515.87 691.68 515.86 693.37 512.46 697.21 510.76 704.45 508.2 709.56 506.93 714.24 505.22 720.21 503.07 726.09 503.07 726.6 503.07 719.68 506.8 711.06 509.82 708.5 513.18 704.77 516.38 698.91 522.26 699.76 525.67 701.89 528.22 705.3 529.5 711.26 534.19 715.42 536.08 716.49 536.69 719.15 538.21 719.15 543.36 719.15 543.53 714.89 541.4 711.16 538.21 706.15 535.46 703.17 533.76 700.61 533.33 696.78 533.33 695.5 532.06 693.8 532.06 690.39 531.2 687.84 532.91 684.43 532.91 680.6 531.63 678.04 531.2 676.34 531.63 672.51 532.91 671.16 534.93 667.75 537.06 660.51 539.61 656.25 540.89 653.69 539.61 649.86 540.46 649.43 543.45 650.71 546.85 650.71 551.96 649.43 556.22 643.47 556.22 639.71 555.06 635.03 557.19 632.05 558.46 632.9 561.02 633.32 564 635.88 566.56 636.31 567.83 635.88 571.24 635.03 574.65 632.05 576.35 628.21 575.5 626.94 575.93 625.23 577.63 624.38 578.48 622.25 581.04 620.12 583.17 623.53 584.45 626.94 584.45 629.49 583.17 633.75 580.61 636.73 580.61 637.58 581.46 637.58 583.59 640.99 584.02 644.4 584.02 646.53 584.87 648.66 586.15 650.79 588.7 653.34 590.83 655.47 592.54 657.17 594.24 662.28 595.09 665.27 595.09 667.82 594.24 669.1 595.09 672.51 595.95 675.49 595.09 678.89 595.09 682.73 594.24 685.28 596.37 688.69 596.8 691.24 596.37 695.5 597.22 698.91 597.65 698.06 598.93 696.78 601.06 694.65 601.48 693.37 603.61 690.39 606.17 687.84 607.45 685.71 607.02 682.73 607.02 680.6 607.45 680.6 610.43 679.32 613.83 678.47 615.54 676.34 617.24 675.06 616.39 672.93 617.67 669.52 615.96 664.84 615.11 659.73 615.11 658.46 617.54 658.46 620.73 656.33 621.8 651.54 620.73 647.8 618.52 645.25 618.09 642.69 618.09 640.14 618.95 639.29 621.08 639.29 623.21 640.56 624.06 642.69 624.91 643.97 626.19 643.97 628.32 646.1 629.59 649.08 629.59 652.06 630.45 653.34 632.15 651.64 633.85 646.1 635.56 644.4 635.98 642.69 636.41 640.56 638.54 641.42 641.09 642.69 642.8 642.69 645.78 642.69 647.06 638.86 644.93 636.31 644.5 634.18 644.5 632.05 647.06 632.47 649.61 632.47 651.74 634.18 652.59 635.45 655.15 635.03 658.13 629.92 656.43 627.03 656.87 623.63 657.3 618.52 654.32 613.41 649.63 616.39 648.35 618.52 644.52 618.09 639.41 617.66 634.3 614.68 630.46 607.35 627.46 603.94 629.17 602.24 632.15 599.68 638.96 599.25 641.09 598.07 645.8 593.39 648.35 589.98 647.93 587 645.37 583.07 642.37 583.07 640.24 586.48 638.96 586.9 636.41 586.05 632.58 586.48 630.45 586.9 626.61 586.05 624.91 584.77 624.91 582.64 628.32 580.94 630.02 578.39 632.58 574.55 632.58 572.85 631.72 572 629.17 572 627.89 569.02 627.04 567.31 626.19 566.46 624.48 566.46 622.78 566.04 621.5 563.05 621.93 560.92 619.37 558.37 618.95 556.24 617.67 556.24 615.96 538.78 611.71 536.65 611.28 535.8 612.98 537.07 614.69 539.2 616.39 538.35 620.22 537.93 622.35 537.93 625.76 537.5 629.17 534.52 629.59 530.69 628.32 528.56 628.32 526.85 628.32 525.15 624.91 523.87 622.78 520.89 622.35 518.76 618.52 517.48 616.82 516.63 618.95 515.45 623.65 512.9 625.35 508.64 626.2 503.1 624.93 500.12 624.93 497.14 627.48 491.18 628.33 484.36 627.06 477.88 624.48 477.45 625.76 477.09 626.06 477.45 627.89 479.15 629.59 481.28 630.45 482.56 634.28 485.12 635.13 487.25 637.69 491.51 642.37 495.76 644.5 498.32 642.8 501.3 644.08 504.71 642.37 511.1 641.52 518.76 640.67 524.72 639.39 525.58 638.54 531.54 638.96 534.52 638.54 546.87 639.39 554.54 641.52 560.07 641.09 560.07 642.8 563.05 645.35 565.18 645.78 574.55 650.04 578.39 653.02 582.22 655.15 583.92 657.71 586.48 662.39 588.18 664.52 588.18 667.5 588.18 671.76 589.59 676.59 574.61 690.38 562.39 700.65 550.4 710.72 528.9 728.78 510.66 743.58 505.12 746.14 501.29 747.42 498.73 749.12 495.75 749.12 494.05 749.12 492.34 749.55 490.64 750.82 488.51 752.53 486.81 752.53 483.4 752.1 478.71 752.1 475.31 751.68 468.08 753.61 462.97 756.17 457.86 757.87 456.51 758.09 450.19 759.15 444.65 760 448.49 756.59 455.73 753.61 457.43 750.2 458.28 745.94 462.11 743.58 463.81 742.73 469.59 742.35 473.18 741.88 478.71 740.6 483.4 738.9 485.95 735.92 486.38 735.06 482.55 733.79 479.99 732.93 478.29 732.51 477.44 732.51 474.88 732.51 473.6 732.08 469.35 732.08 467.22 732.93 465.09 734.21 462.71 737.43 459.98 736.77 456.14 736.34 454.87 736.77 452.74 736.34 450.18 735.92 448.05 735.06 444.64 735.92 435.7 740.6 433.57 740.18 431.44 740.18 428.89 739.75 426.76 738.9 424.63 738.47 423.35 738.47 420.37 736.77 418.67 736.34 416.54 736.34 414.41 736.34 413.13 735.92 409.3 735.06 408.02 733.79 406.31 733.36 404.19 734.64 403.76 735.49 402.06 735.92 400.35 735.92 397.8 734.21 396.52 732.51 395.67 732.08 389.28 731.23 385.45 731.23 381.19 730.8 378.63 729.95 376.08 729.1 375.22 727.82 372.67 728.25 369.69 728.68 365.43 728.68 361.6 728.25 359.04 726.12 358.19 726.12 355.63 725.69 354.36 724.84 353.5 723.99 352.23 723.14 350.1 721.86 347.54 721.01 344.99 721.43 342.01 721.43 339.88 721.86 336.9 721.86 336.9 721.01 335.19 720.16 332.21 720.58 332.21 722.71 333.06 723.99 334.34 724.84 338.61 725.5 342.44 727.63 338.18 727.63 334.35 728.48 326.68 728.48 322.85 729.33 318.59 729.33 318.43 729.31 314.76 728.91 310.92 723.99 309.58 722.21 309.23 721.85 305.38 720.58 304.71 720.14 304.1 719.73 302.4 718.88 301.12 717.6 301.12 715.47 303.25 715.47 303.25 713.34 302.4 712.06 301.55 712.06 301.55 711.21 300.27 709.93 298.14 709.08 295.16 708.66 292.18 708.23 289.2 708.66 288.34 709.93 286.22 710.79 283.66 711.64 283.23 710.36 282.38 707.38 281.53 706.95 278.98 705.67 275.99 705.25 273.01 705.25 268.87 708.41 264.61 709.26 259.07 707.13 256.09 704.15 254.39 701.17 250.44 698.86 248.31 698.01 246.18 697.16 245 696.88 242.69 696.34 238.96 693.14 236.3 689.95 231.51 686.22 226.19 681.43 222.3 679.12 219.36 677.37 214.68 676.94 210.42 677.37 207.86 681.2 202.33 681.2 195.94 679.07 193.81 673.54 194.78 668.65 196.4 667.29 197.97 665.99 203.83 669.71 214.68 665.87 219.79 663.31 224.9 662.04 230.43 661.18 238.53 660.76 244.48 665.21 248.31 667.34 252.14 668.62 254.7 668.62 256.4 669.9 258.53 669.47 261.94 668.62 264.92 671.17 270.03 673.3 271.74 672.88 272.59 674.58 275.99 675.43 278.55 677.99 283.23 678.84 287.92 680.12 291.33 680.97 292.6 680.97 293.03 682.25 295.16 684.38 299.95 680.72 303.79 682 306.77 681.58 309.75 680.3 312.31 679.87 313.66 680.24 314.75 680.54 316.99 681.15 319.12 680.72 323.38 679.02 326.79 678.59 329.34 678.59 332.75 679.87 335.3 679.87 337.01 681.15 342.43 682.67 342.86 684.38 345.41 686.51 348.08 683.71 351.49 683.28 354.89 683.71 357.87 684.56 361.28 684.56 365.54 682.85 369.8 681.15 373.21 679.02 376.19 679.87 377.89 681.58 380.37 680.71 381.61 678.84 382.04 676.29 382.45 675.74 383.32 674.58 386.3 676.29 389.7 677.56 392.26 677.56 393.96 675.43 394.69 673.98 395.24 672.88 396.04 672.08 397.37 670.75 399.07 670.75 402.06 669.04 402.06 666.91 403.76 660.1 404.19 654.99 406.31 652.01 407.17 649.88 406.31 648.17 403.33 647.32 400.78 645.62 399.93 643.06 400.78 634.12 403.33 631.99 405.46 630.28 405.46 629.01 404.61 628.15 402.48 628.15 396.94 629.01 394.39 630.28 384.17 629.01 381.61 628.15 379.06 627.3 376.5 626.88 372.67 627.73 369.69 628.58 367.98 629.01 366.28 628.58 365.43 626.45 364.15 625.6 362.87 625.17 352.65 625.6 350.1 626.45 348.82 628.15 345.41 626.88 341.15 626.03 334.34 625.17 329.66 625.6 327.53 626.88 325.4 628.15 323.27 627.73 317.73 627.3 316.03 627.3 312.62 628.15 309.21 627.73 305.38 627.73 303.68 628.15 301.55 628.58 297.71 629.01 293.88 629.86 291.75 630.28 289.62 630.71 288.34 630.28 289.2 628.15 289.2 626.45 288.34 625.6 285.36 624.32 282.81 623.47 278.98 623.9 275.57 623.9 271.31 620.91 267.9 618.78 263.45 618.6 261.32 616.47 266.11 615.41 272.59 616.65 281.1 617.51 281.96 615.8 280.68 614.95 279.8 613.85 278.98 612.82 278.12 611.54 279.83 610.27 282.81 610.27 285.36 611.54 288.67 613.61 288.77 613.67 292.18 613.67 296.01 613.67 299.57 613.32 300.27 613.25 303.25 611.97 304.1 609.84 306.23 608.14 308.36 606.86 312.62 607.71 315.6 608.14 319.43 607.28 320.29 605.15 319.43 602.6 319.01 599.62 321.14 599.62 322.84 599.62 324.12 600.9 329.23 600.9 332.21 599.19 332.21 597.91 332.64 595.78 335.19 596.21 337.75 595.78 338.71 593.85 339.99 591.28 341.69 588.3 340.41 584.89 341.27 578.5 343.39 573.39 348.08 569.13 350.63 566.57 353.19 561.04 353.93 557.88 352.65 556.6 350.95 554.89 345.41 555.75 339.05 557.37 334.25 560.57 327.95 563.41 325.82 563.41 323.69 563.84 321.99 564.69 320.29 565.12 318.16 565.12 314.75 567.67 311.34 569.38 310.06 570.23 307.51 570.65 304.53 571.08 301.55 571.51 300.27 572.78 298.57 573.21 297.71 574.91 297.29 576.19 294.73 576.19 291.75 576.19 286.64 578.75 284.94 580.45 283.23 583.01 281.96 583.01 279.83 583.01 278.98 583.86 276.85 584.71 275.99 584.71 274.72 583.86 273.44 582.58 272.16 580.88 274.29 580.02 277.7 580.02 277.7 579.17 276.42 577.47 277.27 576.19 279.83 574.91 281.1 573.21 280.25 571.93 279.83 570.23 281.96 569.38 284.09 569.38 287.07 566.39 284.94 565.12 283.66 562.99 286.22 562.14 290.47 560.01 294.31 558.3 296.86 556.6 298.14 553.62 299.78 551.54 303.62 551.11 307.51 549.78 311.48 547.65 313.47 548.51 314.32 547.65 315.6 544.25 325.4 538.28 326.67 536.15 312.19 531.47 307.51 529.76 303.25 527.21 301.55 525.93 298.99 526.36 295.58 526.78 291.75 526.78 286.64 526.78 281.53 525.93 272.95 524.28 264.86 525.98 256.34 528.11 248.68 529.39 240.16 528.54 236.75 525.98 236.33 523 239.37 519.12 242.35 517.41 242.78 515.28 240.65 513.15 241.92 511.02 241.92 508.89 240.22 505.49 238.94 503.36 235.53 503.36 233.83 503.36 230.42 504.63 228.29 505.49 226.17 505.91 223.61 505.91 222.33 504.63 219.78 505.06 217.65 505.49 216.37 504.63 214.24 502.5 212.54 505.06 211.69 508.04 209.98 508.89 207 508.89 202.32 507.19 201.46 508.47 199.76 511.45 199.76 514 196.35 512.3 194.22 510.17 192.09 509.75 189.54 509.75 187.84 509.75 185.28 511.02 183.15 511.02 181.45 510.6 178.89 511.88 177.61 513.58 178.04 516.13 177.19 518.69 175.91 518.69 172.5 518.26 169.95 517.41 167.39 516.56 163.99 516.13 162.28 516.99 161.01 518.69 161.01 521.67 160.58 524.23 160.71 526.49 154.32 528.09 148.99 526.49 144.74 524.9 141.01 525.96 135.69 526.49 131.43 529.16 128.23 531.29 125.57 534.48 120.78 533.95 117.59 532.35 113.86 530.22 110.13 531.29 105.87 532.88 103.51 528.91 102.66 526.78 102.23 524.65 97.12 521.67 93.29 520.82 88.61 519.12 85.62 518.69 83.49 518.69 80.51 520.82 77.96 522.52 75.44 522.52 74.55 522.52 72.42 522.52 73.6 521.86 72.75 519.3 72 518.33 71.63 517.86 69.77 515.47 69.34 512.92 67.21 512.49 62.53 512.06 54.01 509.93 48.9 508.66 46.35 508.66 45.07 509.51 42.51 510.36 40.38 509.51 39.57 509.69 33.47 511.05 27.62 508.92 23.36 505.73 14.31 502 6.86 498.28 3.13 495.23 1 493.48 6.1 493.48 7.39 493.48 10.15 493.76 18.04 494.55 26.33 496.3 28.89 497.58 31.44 497.58 33.57 497.16 35.27 497.16 38.68 497.16 41.66 497.16 42.51 496.3 48.05 497.16 55.72 498.01 60.4 497.58 63.81 495.88 64.66 496.3 68.92 497.58 74.03 497.58 79.57 498.86 81.27 499.71 83.82 499.71 87.66 500.56 91.49 500.14 95.32 500.56 100.01 502.27 102.14 501.41 104.27 500.56 107.67 500.56 110.23 502.27 112.36 500.99 113.64 498.86 115.77 499.29 116.62 500.99 118.75 500.99 119.6 500.56 121.73 500.56 124.28 500.99 128.12 502.27 131.95 499.29 134.08 495.88 138.34 495.03 142.6 492.9 143.45 490.34 141.74 489.06 144.3 486.51 147.71 483.1 149.84 483.1 152.39 483.1 155.8 484.38 157.5 485.23 160.06 484.8 162.61 481.82 165.59 480.97 168.15 480.54 169.43 480.12 170.28 477.56 171.98 476.71 174.96 475.86 179.65 475.86 182.63 475.43 184.33 472.45 185.18 471.6 186.89 469.9 186.89 467.77 181.81 465.5 177.56 462.94 175.85 461.24 175.43 459.11 177.13 456.13 179.68 451.02 180.54 447.61 179.68 446.33 176.7 446.76 171.17 450.59 167.76 453.15 163.93 452.72 161.8 451.02 161.37 448.04 162.22 443.78 162.65 439.94 161.8 436.96 158.82 434.41 158.82 432.28 159.24 430.15 159.24 426.31 158.82 423.76 158.82 422.05 158.82 419.92 156.69 419.5 152 419.92 146.89 417.37 142.21 417.37 138.8 415.24 137.95 412.68 139.19 412.39 139.19 411.12 142.6 409.41 143.02 406.86 140.89 406.01 137.49 405.15 135.78 404.3 134.69 402.48 134.5 402.17 134.07 402.17 132.8 402.17 131.53 400.9 130.67 400.04 129.82 399.62 134.22 395.8 136.21 394.08 139.19 394.93 142.6 394.93 144.3 393.65 146.85 393.23 148.98 392.8 149.84 391.95 151.97 389.82 154.1 391.52 155.37 394.08 157.93 394.93 160.91 395.78 162.61 395.36 164.74 395.36 166.45 396.64 169 401.32 171.13 402.6 173.69 403.88 177.52 403.02 181.35 402.6 182.63 404.3 182.63 406.86 184.33 409.84 188.17 411.54 193.28 413.25 195.26 414.04 196.04 408.98 196.04 403.44 196.89 399.61 196.89 395.77 197.74 391.52 195.19 387.26 195.19 383 195.19 379.16 194.76 374.9 194.34 373.2 196.15 369.82 196.26 369.38 198.39 370.23 201.37 371.51 201.79 373.21 201.79 375.34 203.5 375.34 206.05 375.34 206.48 376.19 206.05 377.47 204.35 380.02 205.63 383.01 207.33 386.41 208.61 389.82 210.31 389.82 213.29 389.82 215 390.67 215 392.8 214.57 395.78 215 398.34 214.57 399.19 218.4 396.64 220.53 396.64 223.51 396.21 227.77 395.36 228.2 397.49 224.79 399.19 224.79 401.32 224.79 404.3 223.94 406.86 224.79 410.27 225.22 413.67 229.9 415.8 230.33 417.93 229.48 421.34 227.35 423.04 226.92 425.17 229.48 426.88 230.75 429.43 228.62 431.56 229.9 433.27 230.75 435.4 229.9 438.38 229.05 440.93 231.18 442.64 232.03 446.47 231.18 448.6 231.61 450.3 230.75 453.71 230.33 455.84 233.31 457.12 235.86 458.82 236.29 461.8 238.42 463.08 242.25 460.95 246.51 460.53 248.22 461.38 248.64 463.08 249.92 465.21 251.2 463.08 251.62 460.95 251.62 457.97 254.18 457.54 254.18 454.56 255.46 449.88 256.73 448.17 261.84 445.62 262.27 444.77 261.84 441.78 263.55 439.65 266.1 439.23 266.95 438.38 269.08 437.1 272.92 437.52 277.6 437.52 279.3 436.25 279.3 433.69 279.3 431.14 281.43 430.71 288.67 429.86 286.75 426.44 284.62 424.74 282.07 422.61 279.51 421.76 279.51 417.92 285.05 417.07 288.46 414.94 293.14 413.66 294.42 411.11 292.29 406.42 287.18 404.72 284.2 403.02 284.2 400.89 288.67 397.49 290.8 395.78 291.23 393.65 286.97 389.82 285.27 386.84 282.71 385.56 281.01 385.56 278.03 383.01 275.9 380.88 272.49 378.75 269.08 377.47 268.01 374.48 265.88 372.35 263.75 370.22 263.33 366.39 262.9 363.83 261.2 362.55 259.07 359.57 257.37 355.74 255.66 352.33 256.51 350.2 258.64 349.35 258.64 346.37 258.22 344.24 255.24 340.83 252.26 338.7 251.83 335.29 253.75 332.32 254.6 328.91 257.58 327.21 261.42 326.36 264.82 325.5 266.95 325.5 269.08 326.78 270.36 328.06 272.06 328.06 275.05 327.21 278.45 328.06 283.35 328.48 286.33 327.63 292.51 325.93 291.66 324.65 288.67 324.23 284.2 319.53 279.51 316.13 276.53 312.72 268.44 310.59 266.74 306.75 267.38 303.78 269.94 303.36 270.79 300.8 272.92 299.95 273.77 297.82 272.92 294.41 273.34 292.28 278.45 292.28 278.45 291.43 277.18 290.15 277.18 286.32 278.88 284.19 279.73 281.21 282.29 279.93 287.4 277.8 280.16 275.24 274.83 273.96 268.01 272.68 263.33 270.55 260.77 268.42 256.51 267.57 251.4 265.87 244.59 262.88 239.48 262.03 239.05 259.05 239.46 258.01 240.55 255.23 240.55 252.24 238.85 249.69 237.14 249.26 234.16 248.41 233.49 247.73 232.46 246.71 232.03 245 234.16 244.15 235.86 241.6 234.59 239.89 233.31 237.34 227.78 235.26 227.78 231.54 226.19 224.61 226.19 220.36 224.06 217.16 221.27 214.84 220.92 214.55 220.86 214.5 215.54 210.77 214.21 209.23 213.52 208.41 212.34 207.05 208.09 204.38 201.7 204.38 200.79 203.93 198.5 202.79 195.84 200.66 190.52 199.06 185.73 196.93 183.07 193.73 178.81 192.67 177.21 190.01 176.14 186.28 172.95 185.22 167.63 186.28 164.43 183.62 166.45 180.26 168.58 178.13 168.15 172.59 166.87 170.47 165.17 168.34 162.61 167.91 158.78 167.91 158.35 165.35 154.95 164.5 152.39 162.8 151.11 160.67 148.98 159.82 147.28 159.82 145.58 159.39 145.58 157.69 143.87 156.84 142.6 155.98 140.47 155.56 136.68 155.56 135.36 155.56 135.36 154.28 137.49 153.85 137.49 150.87 136.21 149.59 132.8 149.17 130.67 149.59 128.12 150.45 125.99 150.87 124.28 150.02 118.12 152.21 114.39 153.8 114.31 153.66 112.26 150.08 115.34 147.46 115.34 144.91 114.06 142.78 110.13 136.23 108.54 133.57 103.21 131.44 95.23 127.72 90.44 127.72 86.71 129.84 85.64 127.18 85.11 121.86 81.27 118.5 79.14 117.22 76.16 116.37 74.45 114.67 68.17 115.99 61.78 118.55 60.51 123.23 57.95 118.97 55.82 116.42 51.14 115.99 45.17 115.99 43.05 114.71 50.29 111.73 55.72 109.13 54.44 107.85 50.61 103.17 47.3 102.36 43.47 102.79 42.62 95.12 38.92 94.3 38.79 94.27 33.25 90.43 28.99 85.32 24.73 82.34 24.71 82.24 23.88 78.08 29.42 78.93 32.82 80.64 34.8 83.6 35.38 84.47 39.21 88.73 41.76 90.92 45.17 93.84 50.71 95.54 51.03 99.33 54.44 101.46 60.4 103.59 64.66 104.87 65.09 104.45 69.34 106.58 72.75 106.58 78.07 104.86 81.48 104.01 83.18 105.29 86.59 106.57 89.57 106.14 91.7 104.01 92.97 100.18 94.15 97.25 94.15 93.42 92.87 90.01 90.74 87.03 90.74 85.75 96.28 88.3 100.97 90.86 102.24 92.56 100.43 95.93 101.29 98.06 100.86 100.19 100.43 101.46 101.29 103.59 105.12 104.87 107.25 105.72 108.53 107.85 108.1 109.98 106.4 113.39 106.82 114.67 110.23 116.37 114.49 116.37 118.32 117.22 122.15 119.35 124.71 120.63 125.99 123.61 126.41 126.17 129.82 127.45 129.82 129.15 128.97 131.71 128.97 133.83 129.82 136.39 130.25 139.37 131.52 140.65 137.91 140.22 145.15 139.37 146.85 138.52 134.08 122.33 132.8 121.06 131.1 119.35 131.52 117.65 127.47 113.38 124.49 111.25 122.36 108.27 121.94 102.73 122.36 100.6 123.64 98.9 121.51 97.62 118.95 95.49 Z M 229.51 133.7 229.51 141.36 229.09 147.75 234.62 149.03 238.46 149.46 241.86 149.46 244.85 148.18 245.7 144.35 245.27 137.96 241.44 136.25 237.61 132.42 236.33 128.59 232.49 127.74 230.37 130.72 229.51 133.7 Z" fill-rule="evenodd"/>
</g>
</svg>