<?xml version="1.0"?>
<svg xmlns="http://www.w3.org/2000/svg" version="1.2" baseProfile="tiny" width="800" height="523" viewBox="0 0 800 523" stroke-linecap="round" stroke-linejoin="round">
<g id="castaiclake">
<path d="M 89.06 259.69 91.07 258.01 89.73 255.32 90.06 252.97 92.08 252.64 90.73 249.95 89.76 248.25 89.39 247.6 87.71 245.25 87.38 242.23 87.38 239.21 88.05 236.52 88.72 233.5 88.72 230.81 90.06 228.46 91.41 226.45 92.08 223.76 90.73 222.75 87.71 222.42 84.69 222.42 81.67 223.09 79.65 223.09 78.31 222.75 75.96 221.08 75.96 219.73 77.02 218.67 77.64 218.05 80.32 217.72 82 216.04 80.32 212.35 77.64 210 74.62 209.66 69.98 207.83 67.23 205.63 67.23 205.6 67.56 202.95 65.88 201.94 64.54 200.26 63.53 197.91 62.53 197.24 60.18 195.56 58.83 193.88 56.15 193.21 52.45 193.21 47.26 193.82 47.06 193.28 50.29 189.25 55.81 187.84 58.5 185.49 59.51 182.45 59.74 181.76 59.84 181.46 61.52 177.43 59.17 176.76 59.5 174.74 60.51 171.05 59.5 169.71 59.5 169.13 59.5 167.36 62.19 165.68 61.18 162.99 57.85 161.82 57.59 160.7 57.85 160.05 58.46 159.15 59.32 158.55 60.43 157.3 61.21 155.45 62.33 152.95 62.33 152.26 61.64 149.72 60.26 147.66 59.32 146.28 60.18 144.19 63.2 142.18 63.53 138.15 63.2 133.78 61.52 130.43 60.18 128.41 56.82 126.4 53.46 125.73 50.44 125.73 47.08 127.07 42.79 127.76 40.11 128.19 41.92 126.73 44.06 123.71 46.3 121.19 46.74 120.69 49.54 118.73 50.1 118.34 53.8 117.33 51.11 115.32 48.42 113.3 47.08 111.62 47.08 108.27 46.41 104.57 45.4 101.55 43.05 100.88 40.03 100.88 37.68 101.22 34.32 100.88 33.77 100.68 30.97 99.64 33.38 98.05 34.94 97.1 37.18 95.64 42.04 94.84 46.07 92.15 43.05 89.13 39.02 87.79 35.66 85.77 38.35 84.43 36.33 81.74 34.32 77.71 31.63 76.04 29.62 74.69 23.24 73.69 21.05 72.32 20.55 72.01 18.37 71.1 16.52 70.33 17.19 68.65 18.2 66.63 15.51 63.28 12.49 59.92 10.14 56.23 6.45 54.21 3.42 52.53 2.06 51.17 1.07 50.18 1 45.9 37.1 39.39 56.33 35.92 56.48 40.45 57.83 41.79 60.51 41.79 62.53 41.79 64.54 42.8 65.55 44.48 66.89 46.49 69.58 47.16 73.61 46.49 77.23 43.37 85.36 40.78 88.38 38.43 90.4 35.41 93.76 32.39 95.1 28.7 96.78 27.69 97.45 27.75 100.81 28.02 103.83 28.02 108.2 28.02 109.85 27.86 111.55 27.69 108.87 30.37 105.17 32.39 102.49 34.4 100.14 37.43 98.46 40.11 95.77 43.13 91.74 46.15 86.7 50.52 82.67 53.21 79.32 56.56 82 58.91 85.36 59.58 88.05 59.58 89.73 62.27 91.41 63.61 93.76 63.28 95.77 63.61 94.09 67.31 91.41 70.33 89.73 73.01 88.05 77.38 86.7 82.41 84.69 88.12 83.35 92.82 84.02 95.84 85.7 98.87 89.06 101.22 91.07 103.9 93.42 106.25 96.44 107.26 99.13 107.26 97.79 109.27 94.43 112.3 93.42 115.99 93.95 117.05 94.76 118.67 97.45 121.02 99.8 123.04 101.14 124.72 102.49 125.39 105.85 125.39 108.2 126.06 109.88 127.74 109.65 127.97 107.86 129.75 107.86 131.77 109.2 133.78 110.21 135.13 112.23 136.47 114.24 137.81 116.59 138.48 118.61 140.16 119.61 143.18 117.93 145.2 116.59 147.88 116.93 152.58 119.28 155.27 120.62 156.95 120.29 158.96 117.26 162.66 112.23 167.69 106.52 171.39 101.82 173.74 99.67 176.15 99.13 176.76 100.42 178.69 101.82 180.79 104.17 183.14 108.53 184.48 110.55 185.49 111.55 188.17 114.91 191.87 117.26 195.22 121.63 196.57 123.98 191.19 126.67 187.17 129.69 184.82 131.03 182.13 130.7 178.44 131.7 175.08 132.71 173.4 135.06 171.39 136.07 168.03 138.42 166.69 142.78 166.35 143.79 163.66 142.78 161.65 143.46 159.3 144.8 157.62 148.49 157.62 151.18 155.94 153.87 152.58 154.54 149.56 154.87 147.21 157.56 144.86 157.9 142.85 159.91 140.83 162.26 137.48 163.27 135.8 165.62 133.78 166.63 131.1 165.95 128.41 165.95 125.73 166.29 122.37 169.31 120.02 171.66 118 174.35 115.65 176.7 113.3 179.72 111.29 182.41 108.27 184.09 105.25 185.43 105.25 185.35 105.76 184.76 109.61 183.42 112.97 181.4 114.31 179.39 117.33 174.69 121.7 172.34 124.05 174.01 127.4 175.02 128.75 175.02 131.43 173.68 134.12 170.32 135.46 166.96 137.14 165.62 139.83 167.3 141.51 166.29 143.86 166.96 147.21 168.64 150.23 167.97 153.26 166.29 154.6 164.28 157.62 162.26 160.98 162.26 164.34 163.94 166.69 164.61 170.04 165.62 173.06 162.93 174.74 161.59 176.76 160.58 180.12 159.24 182.47 158.9 185.82 159.24 189.18 158.9 191.87 157.22 194.22 151.18 195.89 146.81 195.22 145.13 196.9 145.81 200.26 147.15 203.95 149.84 206.97 149.84 211.67 150.51 216.38 151.18 220.74 153.19 223.09 155.88 223.76 157.22 223.76 158.23 225.1 159.91 227.45 162.93 229.13 165.28 230.81 166.96 232.83 170.99 234.51 172.67 237.19 176.7 238.53 178.72 238.53 184.09 239.54 187.11 238.2 190.13 237.19 192.82 235.85 192.15 230.48 193.16 225.78 194.83 224.1 196.18 220.07 197.52 216.71 199.87 214.7 201.89 213.69 200.88 218.05 200.88 222.42 200.54 226.78 201.21 231.48 201.95 233.44 202.22 234.17 203.23 236.52 202.57 237.51 201.89 238.53 200.54 241.56 198.53 244.24 196.51 245.92 194.5 247.26 194.16 250.62 194.83 254.65 196.18 257 198.19 258.68 200.21 256.33 199.2 252.3 200.54 248.94 202.56 246.26 203.23 243.23 205.15 242.6 207.26 241.89 211.29 239.54 214.71 234.63 215.4 234.25 215.92 233.42 216.69 232.31 217.04 231.49 219.4 231.75 220.02 231.82 223.71 232.15 226.74 230.81 228.75 229.47 231.1 229.8 233.12 230.81 235.8 230.81 238.49 230.14 239.83 228.13 243.86 224.77 247.22 224.43 244.2 227.79 243.82 228.24 242.52 229.8 241.67 230.66 239.16 233.16 236.47 233.5 234.05 234.04 233.45 234.17 231.1 234.51 228.75 235.51 226.06 237.53 225.57 237.8 223.04 239.21 220.69 240.88 219.68 243.91 219.35 246.59 217.67 247.6 215.32 248.27 212.63 248.94 209.95 247.93 207.93 249.61 208.6 251.29 210.28 253.31 212.97 253.98 214.65 252.97 217.33 253.31 219.35 254.65 219.35 257.34 217.33 258.34 214.98 259.35 213.64 260.36 213.98 262.71 216.33 262.71 218.01 262.71 220.02 264.39 222.37 264.05 226.06 262.71 230.09 263.71 232.78 264.05 235.8 265.73 237.22 267.71 237.48 268.08 235.47 269.09 232.44 269.42 230.09 271.44 229.76 273.12 230.43 275.13 228.75 275.8 226.74 276.81 225.39 277.14 224.39 278.82 225.06 280.84 226.06 283.19 228.42 284.87 228.42 288.22 226.4 290.24 224.72 292.92 227.41 295.27 231.77 294.6 234.46 294.6 233.79 298.3 235.8 301.32 236.81 304.34 240.5 304 240.5 307.36 241.85 309.04 244.2 310.05 245.54 310.38 246.88 312.06 247.56 314.75 248.9 316.43 250.58 316.76 251.25 314.41 252.59 312.06 252.26 309.71 250.63 307.83 251.75 307.53 252.61 306.67 253.47 305.16 254.25 304.25 254.61 300.65 256.29 298.97 258.3 299.3 264.35 294.6 267.7 289.9 270.06 286.88 273.75 283.52 277.11 282.18 281.47 281.17 285.5 281.17 280.8 283.19 277.11 284.87 275.09 288.22 273.41 292.25 272.74 295.61 272.85 295.97 273.41 297.96 271.4 299.3 270.12 300.1 268.71 300.98 266.36 303.33 266.03 307.02 266.06 307.13 267.03 310.38 269.05 313.07 269.72 316.09 267.37 319.45 265.35 321.46 266.03 326.5 267.7 327.84 270.73 329.18 275.43 328.51 278.11 327.51 280.13 327.17 281.81 328.18 281.81 330.53 280.47 332.54 281.14 335.23 284.49 334.89 288.19 335.23 293.9 336.23 296.58 335.56 298.93 334.22 298.6 336.91 296.92 338.92 292.89 340.93 290.88 342.61 294.57 342.95 298.6 342.95 301.29 341.61 303.97 343.96 300.61 345.64 298.93 347.65 298.6 351.01 297.59 353.36 298.93 355.04 300.61 356.04 301.96 357.39 303.97 357.39 307.33 357.39 310.35 357.39 312.7 358.39 313.37 361.08 312.7 363.43 312.37 366.12 311.36 369.47 310.69 372.49 311.7 374.51 313.37 376.86 314.05 378.54 316.4 379.55 319.08 378.87 321.77 378.54 322.78 380.22 323.45 382.9 325.46 385.92 330.84 388.95 334.53 391.97 337.55 395.32 340.91 398.01 341.92 402.71 343.26 406.4 346.96 407.08 349.98 406.07 353 404.39 355.69 403.38 358.71 404.39 360.05 403.05 359.72 399.35 359.38 396.33 360.72 395.32 362.4 395.32 364.08 395.32 365.42 393.31 365.42 389.95 364.42 388.61 364.16 385.42 366.1 382.57 369.12 382.57 371.13 383.57 372.81 381.56 374.83 377.87 375.83 373.5 376.84 367.79 376.51 364.77 374.07 361.95 373.73 361.09 373.98 360.54 376.22 360.45 377.18 360.41 379.53 360.41 380.87 358.06 380.54 355.71 382.21 354.7 382.21 350.34 384.57 352.69 386.24 353.36 386.92 357.05 386.58 360.07 387.25 364.44 386.58 369.81 387.59 373.17 389.6 375.52 392.29 376.86 394.64 379.55 391.95 382.23 391.28 385.25 391.95 388.27 391.95 393.31 390.61 399.02 389.6 403.05 392.62 402.04 394.98 398.68 395.65 393.98 396.32 390.29 398.67 390.29 402.03 389.62 404.71 386.6 407.4 384.25 411.43 381.56 414.12 378.2 416.13 374.17 418.15 370.48 419.83 368.47 423.18 368.13 424.86 368.47 428.56 370.14 433.59 371.49 434.94 370.48 433.93 368.13 431.24 366.79 428.56 365.44 427.55 363.77 427.55 361.75 429.23 360.41 431.91 358.39 433.93 356.71 436.28 356.38 439.97 355.37 440.31 352.35 439.3 348.66 437.96 346.31 436.28 342.95 436.95 340.26 438.63 341.61 441.99 343.29 445.35 342.28 444 340.6 441.65 339.26 440.31 337.24 440.31 335.9 443 335.56 444.67 334.56 446.02 332.54 447.7 330.53 449.38 328.51 452.73 328.51 454.08 330.19 456.43 329.18 459.45 328.85 462.14 331.2 462.81 335.56 464.82 338.25 467.51 340.6 470.87 339.59 473.89 337.91 476.58 336.23 479.26 333.55 479.26 329.52 477.92 326.16 475.23 322.13 471.54 319.45 469.52 318.1 467.17 315.42 465.16 312.4 462.81 307.7 458.11 306.02 452.73 305.68 451.06 305.35 451.06 304.87 451.06 302.66 450.05 299.3 448.03 295.95 445.68 293.6 444 289.57 441.99 285.87 435.94 283.86 432.59 281.84 427.73 281.44 426.18 280.27 425.75 279.71 424.63 278.72 423.43 277.86 422.65 277.09 422.13 276.05 421.79 274.89 420.84 273.47 419.81 272.14 419.12 271.01 418.52 270.46 418.43 269.85 418.35 269.55 418.86 269.55 419.98 270.11 421.27 271.02 422.39 272.13 423.77 272.7 425.58 272.56 427.05 272.39 428.25 272.18 429.46 272.27 431.01 272.35 432.3 272.65 433.68 273.08 435.75 273.56 436.26 273.9 436.86 274.76 437.82 275.79 439.45 277.17 441 278.07 443.24 278.9 445.05 278.94 446.43 278.89 446.86 279.16 447.8 279.84 449.27 280.66 438.29 281.17 441.99 283.52 446.02 283.52 449.04 287.55 450.72 290.24 453.41 292.25 456.09 293.6 459.79 294.6 462.14 296.62 465.83 298.63 468.52 300.98 473.22 300.31 475.23 299.64 475.57 297.29 474.23 294.94 471.88 290.91 470.53 288.22 468.18 286.21 465.83 283.86 465.83 282.18 462.36 282.34 461.93 281.43 461.24 280.01 460.47 278.85 459.78 277.6 458.83 276.53 458.66 275.24 458.66 273.12 458.74 270.93 458.4 269.34 457.37 267.49 455.13 264.86 453.58 262.71 452.97 261.41 452.89 259.69 452.46 257.49 451.51 255.21 450.48 253.54 449.44 251.6 449.44 250.73 449.96 249.14 449.7 248.06 449.35 246.64 449.7 244.53 450.04 242.3 449.7 240.57 449.27 238.72 448.5 237.09 447.46 235.32 446.77 234.2 446.08 233.08 445.05 232.27 444.88 231.58 445.05 231.15 446.34 230.41 447.37 229.46 447.72 229.12 448.32 227.22 448.32 225.59 448.23 224.25 448.32 223.83 448.84 223.82 449.79 223.95 451.08 223.99 453.06 223.4 454.7 222.18 455.39 220.6 456.51 219.04 457.19 219.05 457.54 219.65 457.71 220.59 457.71 221.41 457.54 222.4 456.68 223.52 455.13 225.2 454.01 226.49 453.32 227.53 452.89 228.52 452.72 230.19 453.4 231.4 454.53 233 455.04 234.29 455.21 235.92 456.08 237.78 456.59 239.02 457.28 240.36 458.4 241.86 459.61 243.28 460.47 244.06 461.07 244.96 461.67 246 462.28 247.03 463.48 248.28 464.69 248.89 465.63 249.4 466.41 249.87 466.76 250.56 467.36 251.68 468.13 252.54 469.17 253.36 470.8 253.7 472.44 254.13 473.73 254.26 474.77 254.26 475.72 254.26 476.14 254.31 476.57 254.31 476.92 254.52 477.52 255.82 478.64 257.37 479.59 258.91 480.62 260.25 481.4 261.37 481.91 262.01 482.86 262.83 483.73 263.35 485.02 263.31 487 263.01 488.63 262.75 489.93 262.62 491.05 262.84 492.42 263.7 493.72 264.26 495.1 264.81 496.91 265.55 498.63 266.24 499.92 266.54 502.24 266.62 504.05 266.71 505.69 266.93 507.33 267.22 508.53 267.27 509.31 266.8 509.74 265.76 509.74 264.39 509.39 263.56 508.88 262.66 508.53 261.93 508.28 261.5 507.67 260.38 507.67 259.61 507.41 259.05 507.67 258.05 508.53 256.93 508.62 256.46 509.23 255.21 510.94 253.67 511.46 252.55 511.72 250.95 511.55 248.45 511.38 246.95 511.55 245.83 512.07 244.92 513.87 242.55 514.39 241.39 514.48 240.74 514.39 240.14 514.05 238.33 513.53 237.35 513.01 236.62 512.24 235.71 511.03 235.19 510.6 234.97 510.26 234.76 510 234.5 510 233.98 510.34 233.21 510.6 232.7 511.03 231.75 511.46 230.15 511.46 229.03 511.55 228.3 511.55 226.62 511.81 225.51 513.01 225.76 513.87 227.35 514.82 228.65 516.12 230.19 517.32 231.15 518.27 231.79 519.39 232.61 520.25 232.86 521.03 232.87 522.06 233.43 522.84 234.2 523.69 234.68 524.47 235.49 524.64 236.44 525.16 237.99 525.68 239.45 525.93 240.4 526.02 241.74 525.93 243.24 525.93 244.92 525.94 245.61 525.68 247.72 525.85 249.57 526.28 250.69 527.31 252.24 528.43 253.66 529.12 254.22 529.9 254.7 531.19 255 532.57 255 534.2 254.65 535.15 254.01 536.27 253.14 536.87 252.07 537.22 250.52 536.87 248.67 536.18 247.08 536.1 246.09 535.49 244.41 535.07 243.33 534.8 241.56 534.46 239.8 534.03 237.77 533.6 236.79 533.26 235.67 533.17 234.67 533.52 234.11 534.63 233.04 535.75 231.75 536.44 230.63 536.79 229.68 536.53 228.82 535.75 228.09 535.41 227.65 535.5 226.97 535.67 226.58 536.18 225.68 537.13 224.34 537.48 223.57 537.74 221.93 537.74 221.2 537.22 219.95 536.87 219.08 536.27 218.23 535.84 217.11 535.67 215.17 535.06 213.06 534.81 210.73 534.29 208.54 533.95 207.42 533.26 205.31 532.65 203.76 532.65 202.34 532.57 200.48 532.65 199.24 533 198.33 533.51 197.13 534.29 195.28 535.15 193.85 536.44 191.06 537.22 188.39 536.87 186.66 536.79 184.34 536.27 182.36 536.44 181.2 536.44 180.08 536.18 177.71 535.67 175.86 535.93 174.99 536.53 174.91 536.88 175.04 537.31 175.6 538.08 176.85 538.77 178.01 539.03 179.34 539.28 180.59 539.8 182.18 540.75 184.51 541.61 186.49 542.05 188.05 542.04 190.19 541.87 192.39 542.22 193.98 542.39 195.97 542.39 197.6 542.21 198.34 542.04 198.81 541.7 200.58 541.52 202.17 541.87 203.54 542.3 205.22 542.65 206.13 544.02 207.25 545.23 208.63 546.78 209.61 547.9 210.3 549.11 210.78 549.88 211.08 550.57 212.2 551.17 213.45 551.86 214.61 552.38 215.73 552.47 216.97 552.38 219.35 552.12 221.2 552.21 223.57 552.21 225.33 552.38 227.1 552.04 229.68 552.04 231.23 552.38 232.78 552.9 234.33 553.33 235.75 554.19 237.09 555.14 238.33 555.91 239.32 556.6 240.01 557.63 240.44 558.93 240.7 559.87 240.7 560.99 240.57 561.94 240.14 563.15 239.46 563.49 238.81 563.49 237.64 562.8 236.57 562.03 235.7 561.17 234.55 560.39 233.38 559.53 232.31 559.01 230.84 558.24 229.08 557.63 227.66 557.64 226.75 557.72 225.54 557.98 223.7 557.72 221.84 557.63 220.42 557.46 218.87 557.72 217.88 558.07 216.55 558.32 214.95 559.27 211.12 559.87 209.88 560.73 209.06 562.03 208.19 563.06 207.5 564.09 206.38 566.07 204.02 567.37 202.08 568.14 200.92 569.09 200.49 570.38 199.71 571.16 198.72 572.97 196.4 574.26 194.24 574.26 193.25 574.43 192.35 575.29 192.17 575.64 192.26 576.15 192.56 577.96 193.69 579.34 194.55 580.37 195.19 581.93 195.71 582.7 195.62 584.43 195.88 585.8 195.88 587.35 195.36 589.33 194.59 591.83 193.73 593.47 193.43 595.62 193.21 597.69 192.6 599.24 192.09 600.96 191.05 603.03 189.5 604.49 188.26 605.44 187.27 606.39 186.23 607.25 184.38 607.85 182.49 608.11 181.07 608.11 179.69 607.77 178.61 607.42 177.66 606.91 176.72 605.87 175.56 605.61 174.7 605.44 173.62 604.93 172.5 604.92 171.51 604.07 169.79 602.69 168.02 600.53 166 598.55 164.19 596.4 163.03 594.25 162.08 592.09 161.52 589.85 161.31 587.7 161 585.8 160.7 584.77 160.91 584.16 160.53 584.16 159.5 583.99 157.98 583.99 157.17 584 156.83 583.13 156.14 581.32 155.19 579.77 154.29 578.57 153.47 576.76 152.74 575.12 152.3 574 152.17 572.97 151.92 572.54 151.61 572.36 150.93 572.02 149.93 571.16 149.03 570.38 148.52 569.35 147.87 569.09 147.69 569.09 145.33 569.09 144.16 568.14 142.66 567.02 141.19 565.82 140.21 564.87 139.38 563.75 138.65 562.54 138.14 560.13 137.4 559.53 136.72 559.44 135.94 558.93 135.04 558.92 134.73 559.36 134.56 560.22 134.6 561.34 134.82 564.96 134.43 566.94 134.09 568.4 133.53 569.61 133.23 570.21 133.4 570.73 134.17 571.33 135.17 572.97 136.85 575.73 139.21 577.19 140.5 578.74 141.8 579.86 142.66 580.89 143.22 582.61 143.61 584.51 143.86 585.89 143.95 586.75 143.86 587.7 143.99 588.39 144.47 588.56 144.94 588.73 145.67 590.19 146.54 591.49 146.97 593.56 147.44 595.45 147.82 598.64 148.56 601.31 149.16 603.98 149.59 605.44 149.76 606.73 149.68 607.77 149.42 608.71 149.11 609.32 148.81 609.83 148.52 610.53 148.09 611.13 147.65 612.08 147.09 613.19 146.45 614.66 145.58 615.86 144.77 616.55 143.52 616.9 142.53 617.07 141.84 617.07 139.86 617.24 138.35 618.28 135.42 620.34 131.46 620.34 130.26 620.09 129.61 619.31 128.92 618.62 128.27 618.36 127.76 618.53 127.29 620.52 125.4 622.5 122.86 623.44 118.37 623.36 115.19 623.02 113.34 623.1 112.61 623.96 111.96 626.37 109.63 626.89 108.29 626.37 107.05 626.03 105.58 626.03 104.99 626.37 104.73 627.24 104.34 628.53 103.73 629.13 102.79 629.48 100.93 629.3 99.94 629.48 99.17 630.17 98.56 631.46 97.62 632.49 96.2 632.41 94.35 631.29 90.73 630.51 88.71 629.82 85.78 629.99 85.3 630.59 84.96 631.37 85.22 633.09 86.38 635.25 88.28 636.19 89.35 638.6 90.56 640.93 91.81 643.08 92.24 644.9 91.81 646.7 90.99 649.89 89.22 651.61 88.23 654.89 86.16 657.39 84.92 659.45 83.89 660.31 83.5 661.43 83.41 665.74 83.49 669.27 83.63 675.3 83.54 677.63 83.37 679.61 83.07 680.73 82.33 681.59 80.83 681.93 78.5 681.5 76.43 681.16 74.88 680.81 72.99 680.38 71.74 679.44 70.32 678.49 69.03 677.37 68.04 676.16 67 675.82 66.7 674.61 65.59 674.61 65.2 674.96 63.95 675.22 62.57 675.56 57.36 675.56 55.03 674.52 53.66 674.18 52.93 674.36 52.07 675.65 51.11 676.76 49.69 677.45 48.32 677.63 46.64 677.45 45.73 677.37 44.96 677.02 44.05 677.02 42.98 677.2 42.38 677.37 41.17 677.54 40.14 679.26 39.62 681.93 37.72 684.52 35.49 686.85 34.07 688.31 32.95 689.25 32.08 689.26 31.44 689.17 30.71 689 30.15 689 29.54 690.2 29.41 691.93 29.68 694.6 30.15 697.01 30.41 699.08 30.53 701.15 30.49 702.87 29.97 704.33 29.33 705.37 28.68 706.31 28.12 706.83 27.78 707.6 27.91 708.12 27.99 709.07 27.99 709.84 27.61 710.53 27.48 711.31 27.56 712 27.99 712.77 28.38 714.32 28.17 715.79 27.87 717.85 27.39 719.92 26.49 722.07 25.62 729.05 22.87 732.07 21.28 734.13 20.28 735.6 18.87 736.12 18.69 737.41 18.74 739.3 19.17 740.6 18.99 742.92 18.09 745.33 16.97 747.74 15.89 749.73 14.95 751.19 13.83 752.4 12.4 753.95 10.81 755.33 9.26 756.96 7.89 758.08 6.51 759.55 4.87 760.67 3.67 761.18 2.67 762.04 2.12 764.72 1.34 767.12 1.21 769.19 1.22 771.35 1.09 773.67 1 775.65 1.04 777.46 1.35 778.5 1.52 780.56 1.52 782.89 1.82 784.96 2.08 786.59 2.51 787.89 3.11 788.75 3.8 789.35 4.49 789.87 4.83 790.99 5.17 792.19 5.31 793.31 5.17 794.43 5.05 795.64 4.92 796.41 4.74 797.36 4.49 798.05 4.44 798.74 4.48 799 5.05 798.82 5.78 797.53 6.72 795.72 7.45 794.26 7.89 793.31 8.53 791.68 9.09 790.47 9.35 789.01 9.01 786.85 8.62 784.79 8.06 783.24 7.89 781.17 7.67 779.88 7.76 778.15 7.76 776.08 7.89 772.81 8.32 770.49 9.05 768.42 10.17 766.61 11.5 764.8 12.62 763.16 14.47 762.22 16.11 761.7 16.97 761.1 17.74 760.84 18.87 760.41 19.34 758.85 20.24 757.91 20.89 757.31 21.79 756.44 22.27 755.15 22.65 753.51 22.96 752.05 23.51 751.28 24.16 750.24 24.89 748.35 25.62 746.28 26.27 744.04 26.87 742.58 27.39 741.72 27.99 740.25 28.77 738.61 29.76 737.49 30.53 736.12 31.14 734.31 31.57 733.1 31.79 731.03 32.17 729.22 32.82 727.93 33.85 725.69 35.32 724.14 36.18 722.94 36.91 721.9 37.99 720.79 39.1 719.75 40.87 719.06 41.95 717.94 42.94 716.13 43.37 714.07 43.58 712.52 43.71 710.71 43.84 709.15 44.18 706.92 44.92 705.19 45.73 702.35 47.41 700.89 48.57 699.07 49.83 697.44 51.12 695.63 52.71 694.17 54.09 693.39 55.25 692.53 57.06 692.27 58.57 692.27 59.95 692.27 61.36 692.79 62.79 693.73 65.07 695.2 67.48 696.32 68.68 699.25 70.1 699.68 70.49 699.42 71.31 697.78 72.17 697.01 73.08 696.49 74.32 696.75 75.66 697.44 76.65 697.52 77.73 697.09 78.5 696.49 79.75 696.4 80.18 696.15 81.09 696.66 81.91 697.01 82.85 697.18 84.32 697.18 86.25 695.8 88.5 695.2 90 694.6 90.86 692.53 91.98 691.93 92.63 691.58 93.36 691.07 93.96 690.55 95.08 689.25 95.47 687.79 95.6 684.86 95.04 681.59 94.69 679.95 94.82 676.16 95.6 674.18 96.16 672.29 96.59 669.87 96.8 668.15 97.28 666.52 98.22 665.48 100.07 664.45 102.27 663.67 103.13 662.21 103.69 659.62 104.34 657.99 105.16 656.44 106.83 654.89 108.73 653.77 110.24 652.9 112.52 652.04 114.41 650.66 115.88 649.89 117.94 649.2 119.67 648.51 121.82 647.65 124.06 647.22 125.48 646.96 127.28 647.3 128.02 647.82 128.32 648.68 129.18 650.24 129.61 652.48 129.61 656.09 129.22 659.79 128.84 662.73 128.54 666.34 128.1 669.01 127.8 670.56 127.55 671.77 127.24 673.58 126.69 675.56 126.04 677.37 125.17 678.57 124.66 679.44 124.23 681.42 124.1 685.38 124.14 688.13 123.8 689.77 123.24 691.07 122.47 691.93 122.12 695.8 122.98 698.56 122.89 700.63 122.64 702.35 122.51 703.9 122.59 705.19 122.25 707 121.47 708.12 121 709.07 120.7 709.59 120.57 710.1 120.57 710.53 120.52 710.53 120.83 710.1 122.21 709.59 123.07 708.72 123.8 708.12 124.19 707.69 125.31 707.69 126.9 707.95 127.85 708.64 128.71 710.1 129.23 711.57 129.52 712.77 129.78 713.2 129.74 713.55 130.21 713.37 131.51 713.12 132.07 713.12 133.14 713.72 134.13 714.67 135.12 715.79 135.81 717.08 136.02 718.46 135.98 719.75 135.6 721.13 135.12 721.73 134.86 722.68 134.87 722.94 135.34 723.2 136.98 723.88 138.31 724.49 139.21 725.43 139.99 726.81 140.63 727.93 140.85 729.23 141.33 730.6 141.84 731.21 142.19 731.9 143.18 732.5 144.25 732.84 144.9 734.14 146.58 735.34 147.92 738.96 149.85 741.2 150.66 743.01 151.49 744.82 152.13 746.28 152.3 747.75 152.04 748.69 151.66 751.71 150.62 752.48 150.41 753.52 150.37 755.67 150.5 757.91 150.8 758.77 151.14 759.54 151.7 760.84 152.05 763.34 152.44 764.28 152.61 764.8 152.78 765.06 153.12 765.32 153.55 764.46 154.46 762.99 154.84 761.1 155.01 759.72 154.67 758.86 154.24 758.08 153.64 757.39 153.03 756.27 152.22 755.32 152.05 753.95 152.52 752.74 153.55 751.71 154.28 750.68 154.72 748.95 154.54 747.74 154.15 747.14 153.98 745.42 154.03 743.53 154.58 741.8 154.84 740.25 154.59 737.84 154.33 735.6 154.2 734.31 154.28 732.5 153.98 731.89 153.16 731.55 151.74 731.72 150.93 731.64 149.68 731.03 149.03 729.14 148.08 727.76 147.48 726.3 146.84 724.14 146.02 721.73 145.29 720.27 145.28 718.8 145.24 717.77 145.11 716.99 144.86 716.13 144.25 715.53 143.69 714.67 143.17 714.07 142.91 713.21 142.96 712.51 142.87 711.39 142.7 710.1 142.06 709.07 141.54 708.81 141.24 707.95 140.76 707.43 140.21 707.26 138.83 707.26 138.01 706.57 136.71 705.79 135.34 705.11 134.56 703.56 133.71 702.35 133.02 700.63 132.2 698.47 131.72 696.15 131.47 694.51 131.25 692.53 131.12 690.55 131.21 688.31 131.5 687.19 131.77 685.55 132.2 684.43 132.88 682.62 133.57 679.95 134.3 677.97 134.91 676.16 135.64 675.21 136.2 674.35 137.4 673.75 138.79 673.49 139.34 673.23 139.82 672.89 139.99 672.37 139.77 671.43 139.39 670.91 139.09 669.88 138.83 668.84 139.05 667.21 139.13 664.88 139.39 663.07 139.51 661.26 139.69 659.79 140.25 658.5 140.76 657.64 141.45 657.12 142.19 657.04 143.05 657.12 144.42 657.04 145.54 657.13 147.01 657.38 148.13 657.55 149.29 657.64 150.11 657.64 151.05 657.04 152.05 656.09 153.29 654.97 154.71 653.85 155.83 652.56 156.78 651.61 157.64 650.58 158.5 649.63 159.19 649.03 159.89 648.51 160.57 648.51 161.39 648.68 162.59 649.2 163.29 651.1 164.1 652.56 164.32 654.37 164.66 656.09 164.83 657.47 164.88 658.93 165.13 659.8 165.26 660.74 165.43 661.52 165.61 662.47 166.17 661.52 166.73 659.8 167.03 657.64 167.41 656.09 167.68 654.72 167.98 653.42 168.62 652.13 169.31 650.75 170 650.15 171.03 649.63 171.89 649.63 173.19 650.58 175.73 651.44 177.54 652.56 178.91 653.42 179.64 654.28 180.47 655.32 181.37 656.7 182.36 657.64 182.79 658.85 183.17 659.71 183.3 660.66 183.48 661.17 183.78 661.95 184.21 662.29 184.64 661.95 185.63 661.17 187.14 660.66 188.69 660.4 190.07 660.32 191.32 659.97 192.22 660.32 193.34 660.66 194.16 660.83 194.71 661.26 195.32 662.12 195.54 663.07 195.4 664.36 194.85 665.57 194.07 667.2 193.12 668.07 192.57 669.01 192.18 669.53 191.87 670.13 191.79 670.57 191.92 671.08 192.48 671.43 193.34 671.68 194.24 671.94 194.8 672.72 195.41 673.84 195.97 675.3 196.4 677.2 196.57 679.09 196.83 681.07 196.95 682.71 196.91 683.92 196.95 684.86 197 685.38 197 685.98 197.13 686.24 197.34 686.16 197.77 685.21 198.68 683.4 199.75 681.93 200.57 680.9 201.43 679.78 202.47 679.26 203.07 677.97 203.59 676.07 203.76 673.41 204.32 671.08 204.71 669.01 204.96 667.2 205.52 665.74 206.22 664.79 206.95 663.93 207.85 663.42 208.71 663.41 209.48 663.59 210.61 663.59 211.12 663.59 212.15 662.98 212.89 662.55 213.23 662.29 213.92 662.46 214.61 662.98 215.6 663.24 216.25 663.24 217.15 663.33 218.27 663.76 219.47 664.02 220.64 663.59 221.11 662.46 220.94 661.6 220.5 660.74 220.03 659.45 219.78 658.5 219.6 657.13 219.18 656.35 218.4 655.57 217.49 654.88 216.28 654.11 215.21 653.42 214.31 652.56 213.88 651.44 213.66 650.58 213.71 649.55 214.26 648.42 215.13 647.74 215.9 647.22 216.89 646.18 217.66 644.55 218.35 642.31 218.65 639.81 219.17 638.86 219.6 637.66 220.21 636.45 220.89 635.59 221.97 635.25 222.58 634.9 223.44 634.9 224.3 636.19 225.55 638.17 226.54 640.33 227.78 641.62 228.9 642.74 229.77 643.95 230.59 644.2 231.23 644.55 231.92 644.55 232.31 644.12 232.56 642.14 232.48 640.33 232.31 638.52 232.48 637.06 232.82 636.36 233.3 635.85 233.85 636.02 234.5 636.37 235.4 637.4 236.05 638.61 236.78 640.07 238.03 640.76 238.89 641.28 240.02 641.28 240.79 640.33 241.78 639.12 242.6 637.66 243.59 636.54 244.28 636.19 244.71 634.9 245.23 633.44 245.4 631.28 245.61 630.16 245.69 629.48 246 629.04 246.64 628.52 247.5 628.18 248.63 627.84 249.48 627.23 250.35 625.77 250.73 622.93 251.04 621.29 251.43 619.83 251.6 618.19 252.24 616.55 252.93 615.61 253.62 614.4 254.18 613.97 254.7 613.8 255.43 614.14 256.42 614.74 257.41 615.26 258.06 615.87 258.53 616.47 258.83 616.81 259.35 616.55 259.95 615.78 260.47 614.4 261.15 613.11 262.57 611.81 264.12 611.13 264.86 610.18 266.8 609.67 268.34 609.83 270.15 609.66 272.18 609.58 273.68 609.66 274.93 609.66 275.92 609.14 276.83 607.51 277.65 605.27 278.29 602.6 278.89 600.45 279.24 598.89 279.46 596.91 279.93 595.28 280.36 594.16 280.75 593.3 281.13 592.61 281.56 592.87 282.51 592.95 282.94 594.67 283.98 596.05 284.79 597.43 285.44 599.32 286.39 601.22 286.95 603.11 287.34 604.58 287.46 606.56 287.59 608.37 287.72 609.32 287.68 610.52 287.51 610.87 287.51 611.47 287.9 612.5 288.33 613.19 288.67 614.14 289.06 614.66 289.18 615.26 289.79 615.43 290.87 615 291.9 615.87 292.97 616.55 293.41 617.07 294.01 616.55 294.74 616.04 295.3 615.35 296.12 615 296.64 615 297.28 615.35 298.06 615.86 298.53 616.38 298.83 616.73 299.65 616.72 300.38 616.9 301.5 616.9 302.75 617.16 303.27 618.02 303.61 619.31 303.48 620.69 303.01 622.15 302.41 623.36 301.8 624.56 301.03 626.03 300.47 627.41 300.16 628.1 300 629.47 300.08 630.68 300.21 632.58 300.47 634.3 300.51 635.68 300.12 636.54 299.73 637.4 299.56 638.52 299.73 639.47 300.12 640.67 300.47 641.45 300.77 642.74 301.11 644.46 300.99 645.41 300.9 646.27 300.3 647.22 299.52 647.65 298.74 647.99 297.8 648 296.72 648.17 295.82 648.51 294.95 649.03 294.52 649.63 293.97 650.32 293.28 650.75 292.63 651.01 291.98 651.35 291.69 651.79 291.55 652.13 291.68 652.56 292.37 653.42 293.4 653.94 294.1 654.37 294.69 655.58 295.21 656.44 295.34 657.64 295.26 658.68 294.96 659.37 294.44 660.05 293.32 660.14 292.41 660.05 291.43 660.31 290.65 660.66 290.05 661.78 289.87 663.59 290.05 665.14 289.7 666.34 288.97 667.46 288.15 668.67 287.29 669.19 286.6 669.62 286.22 670.13 286.34 670.48 286.78 669.96 287.81 669.27 289.57 669.01 291.29 668.76 292.8 668.84 294.39 669.44 296.08 669.79 297.33 670.13 298.61 670.56 299.87 671.08 300.6 672.29 301.24 673.49 301.89 674.35 302.27 674.96 302.84 675.56 303.87 676.16 304.69 677.2 305.51 678.49 306.41 680.3 307.7 681.42 308.69 682.71 309.47 684.17 310.54 685.21 311.4 686.24 311.88 687.62 312.01 689.43 311.83 690.72 311.32 692.01 310.89 693.39 310.93 694.85 311.14 696.15 311.06 697.87 310.85 699.42 310.58 700.62 310.33 701.23 310.24 702.35 310.29 703.04 310.42 703.73 310.76 703.9 311.32 702.86 312.26 700.8 312.78 698.56 313.22 695.03 314.46 692.87 315.62 690.46 318.77 689.86 319.84 689.51 320.27 689 320.41 688.14 320.28 685.98 319.29 683.74 318.34 681.07 318.12 679.78 318.08 679.26 318.38 678.49 319.24 677.45 320.27 676.51 320.71 675.21 321 674.27 321.56 673.58 322.3 672.8 323.42 672.29 324.23 671.34 325.06 670.91 325.23 670.56 325.36 670.13 325.4 669.62 325.31 669.18 324.75 669.01 323.85 669.1 322.56 669.44 320.84 669.53 319.63 669.61 318.47 669.44 317.09 669.27 316.23 669.1 315.36 668.41 314.33 666.26 313.21 663.93 312.91 662.12 312.87 660.31 313.17 658.5 313.86 656.35 315.32 654.37 316.31 652.82 316.87 651.27 317.04 649.03 316.74 646.7 316.14 644.03 315.71 642.74 315.8 641.96 316.4 640.67 317.64 640.33 318.21 638.69 318.73 637.91 319.28 636.8 321.01 635.85 322.25 635.24 322.82 633.52 323.2 629.04 323.03 628.01 323.11 626.98 323.67 626.03 324.79 625.77 326.65 625.25 328.07 624.56 328.93 623.96 329.4 622.24 329.4 619.83 329.01 617.67 329.15 613.62 330 611.39 330.61 610.27 331.38 609.92 332.42 610.01 333.49 609.83 334.27 608.2 334.95 606.65 336.21 605.87 336.94 604.41 338.15 603.12 339.14 602.17 339.65 600.45 339.61 598.89 339.18 596.57 338.14 595.02 337.33 593.64 337.32 592.35 337.84 590.88 338.84 589.33 340.29 587.35 341.67 585.89 342.62 584.25 343.87 582.79 344.95 582.01 346.07 581.49 347.1 581.32 347.87 581.49 348.78 581.84 349.86 582.18 350.89 582.36 351.27 582.35 351.58 581.84 351.83 580.81 351.96 578.57 352.01 576.58 352.26 575.38 352.22 573.92 352.35 572.62 352.35 571.07 352.18 568.92 352.13 566.42 352.09 564.27 352.14 563.06 352.22 561.94 352.7 561.34 353.38 560.99 354.67 560.91 356.23 560.82 357.43 561.17 358.55 561.25 359.84 561.25 360.96 560.73 361.69 560.22 362.56 560.91 363.33 561.85 363.98 562.37 364.54 562.8 365.05 562.97 365.66 562.8 366.35 562.37 367.03 562.54 367.73 562.37 368.54 561.85 369.27 561.17 370.09 560.82 371 560.13 371.51 559.53 371.68 558.58 371.68 556.95 371.13 555.31 370.14 552.38 369.32 549.71 368.63 547.9 368.2 546.44 367.73 544.28 367.3 542.39 366.86 541.27 366.82 540.23 366.82 538.6 366.95 536.87 367.16 535.15 367.76 533.94 368.42 533.34 369.1 532.65 369.58 532.4 370.01 532.4 370.31 532.65 370.7 533.34 370.61 534.8 370.01 536.27 369.62 538.94 369.71 540.92 369.92 542.3 370.39 543.08 370.7 543.68 371.08 544.02 371.55 543.85 372.2 542.73 373.02 542.22 374.22 541.87 376.16 541.96 378.53 542.21 379.95 542.39 382.24 542.65 383.48 542.99 384.3 543.68 384.91 544.8 385.51 546 386.06 547.12 386.32 548.42 387.06 549.11 387.49 549.19 388 548.5 388.73 547.47 389.42 546.95 389.73 546.35 390.16 545.58 390.8 545.14 391.19 544.63 391.71 544.46 392.35 544.02 393.78 543.85 394.29 542.82 394.59 541.87 394.42 541.01 394.42 540.06 394.46 539.11 394.63 537.74 394.64 536.87 394.08 535.32 393.56 534.46 393.47 533.51 393.25 532.22 393.39 531.53 393.52 531.1 393.64 530.58 393.69 529.72 394.34 529.38 394.8 529.38 395.71 529.21 396.57 528.78 397.13 527.74 397.31 527.05 397.44 526.45 397.82 526.45 398.51 527.31 399.8 527.92 401.39 528.52 402.9 528.17 404.2 527.92 405.48 527.66 406.61 527.4 408.41 527.49 410.27 527.66 411.95 527.92 413.32 528.26 414.44 528.78 415.35 529.38 416.21 530.59 417.03 531.53 417.59 532.05 417.76 532.57 417.89 532.91 418.45 533 419.83 533 421.12 533 422.37 533 423.66 533.51 424.78 533.94 425.77 534.72 426.15 535.32 427.02 535.75 427.92 536.44 429.17 537.13 430.59 538.25 431.92 539.54 432.78 541.01 434.21 541.87 434.2 542.65 433.86 544.28 433.05 547.47 431.49 549.36 430.16 551.69 428.74 552.98 427.92 554.45 427.02 555.66 425.72 556.6 424.3 558.07 423.31 558.58 423.22 558.93 423.31 559.44 423.78 559.87 425.03 560.22 425.98 560.48 426.67 560.99 428.09 561.34 429.26 561.51 429.86 560.82 431.06 559.87 432.31 558.93 433.47 558.07 434.55 557.98 435.32 558.32 436.01 559.79 436.32 561.25 436.57 562.97 437 564.01 437.39 564.78 437.91 565.47 438.73 566.42 439.28 567.54 439.59 568.4 439.59 569.26 439.72 570.21 440.28 571.16 441.18 572.19 441.91 573.23 442.65 574.69 443.33 575.81 443.64 577.19 443.89 578.31 444.58 579.25 445.44 580.38 446.69 581.32 447.55 582.61 448.24 584.08 448.72 585.8 449.1 587.44 449.41 588.56 449.67 589.59 449.97 590.54 450.53 590.19 450.78 587.78 451.9 585.54 452.63 584.59 453.24 582.79 453.88 578.65 453.62 574.17 453.02 566.77 452.2 564.18 452.34 561.51 453.02 559.53 453.88 558.24 455.13 557.63 456.17 557.63 457.37 558.32 459.96 558.41 461.33 558.41 462.58 558.32 463.44 557.63 465.16 556.86 465.38 553.84 464.3 552.12 464.04 550.57 464.34 549.19 465.08 547.64 466.02 546.95 466.29 546.09 466.16 545.14 464.43 544.45 463.62 544.02 462.71 542.99 460.21 542.64 459.09 541.18 457.97 538.68 457.33 536.96 457.28 535.32 457.76 534.64 457.76 533.51 457.33 532.39 457.28 531.71 457.11 531.19 456.42 531.1 455.56 529.72 454.32 527.74 452.72 526.71 452.2 525.59 451.95 524.13 451.86 523.35 451.26 522.57 449.88 521.37 449.02 519.56 448.41 516.29 447.47 515.68 446.99 514.65 445.87 513.18 444.28 512.58 443.42 512.07 442.86 509.22 441.35 508.79 441.01 508.19 440.88 506.98 441.35 506.47 442.47 506.38 443.63 506.12 444.23 505.35 444.45 504.31 443.81 503.45 443.21 502.42 442.73 501.3 441.91 500.18 441.48 499.06 441.1 496.65 440.97 495.05 436.29 491.35 435.28 487.99 436.62 486.99 439.64 485.98 441.99 482.96 441.32 479.26 440.65 477.92 440.99 478.59 443.67 478.26 445.35 475.57 447.03 475.57 450.39 475.91 454.42 475.91 458.11 475.91 461.13 475.57 465.83 474.9 468.85 474.9 470.87 472.88 473.22 470.2 473.55 468.52 474.9 466.84 475.9 465.49 473.89 463.82 470.87 461.8 468.85 460.46 468.52 459.79 470.87 459.79 474.22 459.79 476.24 459.11 477.92 455.42 479.6 453.41 481.27 450.05 482.62 448.37 485.3 446.69 487.99 444 487.99 440.98 486.31 436.95 484.97 433.26 484.3 431.58 482.95 427.88 481.95 421.17 481.61 416.8 481.27 414.12 482.95 410.76 484.63 408.07 482.95 404.04 482.95 399.34 484.63 394.98 486.65 393.3 489 391.62 492.35 390.61 495.38 387.92 498.06 385.57 499.74 385.91 502.09 389.27 503.43 391.28 504.1 392.62 507.8 391.62 510.15 388.54 513.41 381.56 517.97 378.87 521.73 375.65 522 351.75 512.09 346.07 509.48 322.43 500.35 304.43 494.44 282.4 488.8 261.71 485.58 255.97 484.78 250.58 482.62 249.24 480.6 248.9 478.59 246.55 477.25 242.52 475.57 239.83 473.89 237.48 471.87 236.81 468.52 236.81 464.82 238.49 461.47 238.94 460.56 239.83 458.78 241.51 456.43 243.19 453.74 242.18 451.39 240.17 451.06 237.48 451.06 236.14 452.06 234.46 453.07 231.1 454.08 227.41 452.74 224.05 450.72 221.36 447.36 221.36 443.67 220.69 440.31 220.02 436.96 219.01 433.6 217.33 432.59 215.65 432.59 215.32 430.58 215.32 428.23 216.33 425.54 217.33 424.2 220.36 423.53 219.01 422.18 214.98 420.84 213.3 417.48 211.62 414.8 210.62 412.11 210.62 408.75 209.95 407.08 207.6 407.08 206.25 405.73 203.57 402.04 201.55 399.02 198.86 396.33 194.83 395.32 190.8 393.31 188.45 392.3 188.45 389.95 189.46 387.6 187.45 386.93 184.09 387.27 181.07 389.95 177.71 390.29 175.36 389.28 176.36 387.6 178.72 384.92 181.07 382.23 184.42 380.22 187.11 379.21 191.48 378.2 190.13 376.86 186.44 376.19 183.08 374.51 181.4 372.83 179.39 371.49 180.73 369.47 182.41 366.12 181.07 364.1 176.7 360.07 173.68 358.39 169.31 357.05 163.94 354.7 158.9 354.03 150.36 352.44 149.16 351.36 148.47 350.5 147.35 349.6 145.8 348.61 143.99 347.87 143.21 347.45 142.61 346.54 142.27 345.77 141.58 344.64 138.56 342.11 136.15 340.08 134.17 338.49 132.04 334.89 128.34 333.21 128.68 329.86 127 328.85 124.99 328.18 122.97 325.83 121.63 325.15 121.63 322.13 119.95 318.44 118.27 316.76 115.58 315.08 112.9 312.4 110.88 311.73 110.72 311.44 109.54 309.38 109.88 307.36 110.88 306.35 109.88 304 108.53 302.66 106.52 300.98 104.5 300.98 101.14 300.65 99.13 299.3 98.12 298.3 97.79 295.95 97.79 292.92 95.77 291.92 94.09 289.9 93.08 287.22 91.07 284.19 89.73 281.51 89.17 280.81 88.38 279.83 84.35 278.15 83.68 275.13 86.03 272.44 86.37 269.42 88.72 267.74 87.38 265.39 86.03 263.38 86.03 261.03 89.06 259.69 Z"/>
</g>
</svg>