<?xml version="1.0"?>
<svg xmlns="http://www.w3.org/2000/svg" version="1.2" baseProfile="tiny" width="800" height="471" viewBox="0 0 800 471" stroke-linecap="round" stroke-linejoin="round">
<g id="lakekaweah">
<path d="M 69.41 243.17 68.67 242.39 68.09 241.78 67.26 243.13 66.33 244.05 64.56 245.36 63.38 247.3 63.58 250.12 65.27 252.25 67.1 254.04 67.74 254.47 69.21 256.02 69.56 256.9 69.58 257.79 69.56 258.8 69.49 259.36 68.85 260.09 67.82 260.45 66.76 260.45 65.33 260.71 63.58 260.61 62.21 260.77 61.71 261.23 61.24 262.68 60.63 265.27 58.55 265.44 57.36 266.09 54.52 267.13 53.3 267.48 51.8 267.81 49.51 268.28 47.94 269.17 47.12 269.4 46.2 270.25 45.45 270.95 43.49 271.61 44.03 273.18 43.39 273.76 42.02 273.41 40.23 272.48 38.57 272.19 36.34 270.22 34.18 268.74 33.85 268.62 32.06 266.76 23.8 258.73 23.9 257.69 24.43 257.22 25.3 256.81 27.3 252.16 27.38 247.67 27.34 245.33 26.51 242.99 25.41 240.72 23.49 238.31 22.17 236.34 18.28 233.7 14.55 231.96 12.74 232.3 10.81 234.14 10.31 233.73 11.79 231.85 12.81 230.3 12.7 228.03 10.8 223.74 10.02 223.47 8.93 222.57 8.96 221.73 9.6 220.63 9.7 220.06 9.81 219.47 10.02 218.25 9.72 215.46 9.98 214.4 9.38 211.31 9.79 210.14 10.25 209.42 11 207 12.09 205.6 12.77 203 13.3 201 14.13 200.32 14.4 198.09 13.87 194.61 12.7 193.33 12.51 190.88 9.48 191.07 7.11 191.07 3.16 191.07 1 190.77 1.07 188.87 1.15 186.88 7.11 186.88 9.27 187 9.84 186.71 10.2 185.84 9.27 177.87 9.68 175.04 9.61 173.86 10.28 173.21 11.19 171.58 10.75 170.1 8.56 170.43 8.42 167.41 10.81 143.12 12.55 122.54 12.69 120.45 12.77 119.7 12.98 114.87 13.71 110.4 13.56 109.64 14.71 109.73 15.16 109.77 16 109.84 17.2 109.68 18.58 109.14 20.03 108.04 21.54 106.75 22.58 105.74 23.52 103.57 24.4 101.43 24.71 100.96 25.15 100.49 26.6 100.3 28.36 100.43 29.46 100.3 30.78 99.8 33.46 100.43 37.89 100.93 40.82 100.8 45.34 100.4 47.61 99.51 49.21 98.88 50.15 97.31 50.5 94.79 50.15 92.31 49.27 88.97 48 86.41 47.54 85.34 47.08 84.92 46.73 84.31 46.45 83.73 46.32 83.29 45.97 82.43 45.71 82.38 45.54 82.1 45.88 81.58 45.91 80.69 45.41 79.93 44.54 79.62 44.19 79.5 44.07 79.21 44.46 78.85 44.2 78.1 44.41 77.94 44.74 78.01 45.48 78.39 46.45 77.98 47.15 78.22 48.41 78.4 49.74 79.98 52.13 80.98 54.87 82.62 58.14 83.7 60.1 83.88 61.61 83.75 63.73 82.67 64.58 81.77 64.88 80.43 65.34 79.93 66.32 79.45 67.22 79.37 67.8 79.53 68.33 80.53 68.46 84.03 68.91 85.67 70.39 88.11 71.78 88.66 73.59 88.79 75.95 88.66 78.6 88.34 80.81 87.54 82.75 86.2 84.73 83.7 84.91 83.1 85.81 81.59 85.87 80.3 85.92 79.05 87 78.82 88.53 77.76 88.65 76.88 88.96 75.9 88.83 74.67 88.33 72.75 87.5 71.12 87.22 70.59 87.06 70.08 88.07 70.02 89.79 70.36 94.19 70.44 95.5 70.03 96.81 69.08 98.22 68.98 99.1 69.84 100.31 70.04 100.96 69.82 102.44 69.33 103.6 68.47 104.16 67.18 104.76 65.8 104.98 65.7 106.07 66.06 108.08 65.63 109.54 64.07 112.1 62.2 113.36 60.92 113.99 59.26 114.22 58.88 115.75 58.81 116.93 58.55 118.02 58 118.04 55.73 117.11 54.15 115.73 52.49 114.57 50.85 114.04 49.97 113.29 48.64 112.71 47 112.36 43.5 111.75 41.79 111.12 41.13 109.49 40.5 108.38 40.54 108.43 39.8 108.73 39.19 108.53 37.91 108.41 37.56 107.73 36.95 106.44 35.82 106.62 35.64 108 35.57 108.88 35.17 110.27 35.62 112.46 36.1 115.88 36.7 118.69 36.4 119.78 35.7 120.61 34.21 120.98 33.38 121.66 33.45 123.32 33.43 124.78 32.98 125.61 31.94 126.44 31.14 126.69 29.8 125.99 27.79 126.67 28.32 127.37 28.92 128.76 29.5 129.39 30.56 130.14 31.64 131.16 31.93 131.95 32.04 132.81 31.75 133.17 31.23 133.03 30.18 132.31 29.13 131.65 28.65 130.54 28.29 129.89 27.74 129.39 27.24 128.97 26.39 128.11 25.29 128.11 24.84 128.51 24.08 129.18 22.66 129.45 21.08 130.42 16.58 130.16 14.87 129.96 14.29 130.36 13.37 130.13 12.37 130.7 11.7 131.48 9.3 133.7 6.7 134.1 6.01 134.7 5.26 133.73 3.9 134.42 4 135.93 4.38 137.53 3.78 138.25 4.02 138.95 3.27 139.97 2.74 141.33 2.04 142.34 1 143.08 1.74 143.5 2.17 144.23 2.05 143.57 2.55 143 2.99 142.53 3.65 141.65 4.34 141.37 4.94 141.4 6.42 140.9 6.52 140.33 5.89 139.94 7.16 140.75 9.83 139.91 11.19 139.15 12.38 138.59 13.26 137.42 16.35 137.18 17.57 136.77 19.02 136.98 20.23 137.1 21.03 137 21.64 137.13 22.9 138.16 23.75 139.64 24.91 140.8 25.49 141.48 26.12 141.58 27.28 142.33 28.81 142.99 30.5 142.99 31.73 143.19 33.55 143.82 35.21 143.24 35.26 142.57 35.83 141.94 37.15 141.8 37.85 141.23 38.43 140.8 39.01 140.7 39.84 141.28 40.64 141.81 41.2 142.54 41.65 142.74 41.93 142.88 42.44 142.03 42.11 140.93 41.8 139.89 41.93 138.64 41.78 135.62 42.39 132.75 42.85 131.38 43.78 130.71 43.89 129.76 44.3 129.33 45 129.28 45.91 129.45 46.94 130.21 48.3 131.42 49.51 133.98 51.65 134.81 52.53 135.57 53.54 136.25 55.3 136.34 56.09 136.09 57.06 136.52 57.8 136.62 58.72 136.37 59.19 136.13 59.55 136.34 60.07 135.5 60.58 134.69 61.42 134.55 62.03 134.26 62.33 134.11 64.18 134.37 65.36 134.95 66.28 136.42 67.83 137.62 68.45 138.99 68.8 139.92 69.79 140.51 69.75 141.53 69.28 141.21 70.07 141.28 70.66 141.94 71.4 142.57 72.08 143.77 72.48 144.2 72.66 143.34 72.9 141.81 72.71 140.69 72.02 137.98 71.31 136.02 71.03 132.93 70.99 130.43 70.89 128.46 71.27 125.06 72.46 124.23 73.45 123.91 74.62 123.63 75.78 124.23 78.12 125.18 80.05 125.68 81.28 125.96 82.09 125.84 82.47 125.16 82.79 123.87 83.3 122.29 83.6 119.77 83.31 119.2 83.44 117.49 83.3 115.75 83.31 114.43 83.58 113.24 84.06 112.34 84.75 111.39 86.82 111.33 88.29 111.23 89.04 108.06 91.8 107.63 92.33 106.54 93.27 105.53 95.57 105.4 97.52 105.46 98.46 105.28 99.28 105.4 100.16 105.55 100.99 101.67 101.4 100.6 101.69 98.58 102.56 96.6 103.12 94.27 104.63 92.51 105.95 90.37 107.59 88.42 108.09 85.84 108.22 81.7 108.84 79.9 110.3 78.97 111.75 78.33 113.67 77.46 114.92 75.6 120.04 74.89 121.14 73.48 121.97 72.32 122.25 72.1 122.43 70.24 122.12 64.68 121.99 62.92 122.22 61.91 122.35 61.26 122.63 60.73 122.95 60.23 123.1 59.62 123.71 58.84 125.09 59.27 127.32 59.48 127.96 61.13 130.41 62.57 132.45 64.45 133.78 65.94 134.46 67.45 134.71 69.33 134.49 70.57 134.13 71.3 133.91 72.38 132.9 72.91 132.52 73.51 131.49 74.01 130.68 74.23 129.93 74.29 129.37 74.54 128.87 74.87 128.09 75.27 127.59 75.6 127.29 76.03 127.23 76.78 127.44 77.41 127.71 78.59 128.44 79.57 128.77 81.03 129.55 82.62 129.98 84.2 130.46 86.01 130.81 87.47 130.03 89.46 128.85 91.47 127.23 91.9 127.11 92.13 127.18 92.63 127.26 95.04 128.09 96.53 128.07 97.91 127.81 99.14 127.54 99.75 127.84 100.7 128.75 101.26 129.27 102.64 129.75 104.73 130.08 106.26 129.95 107.57 129.88 109.13 129.9 110.92 129.55 112.28 129.93 114.14 130.1 115.17 130.78 117.28 131.01 117.74 131.4 118.14 131.76 118.52 131.89 118.24 132.22 115.02 132.17 111.67 132.77 110.19 133.33 109.47 133.36 108.83 133.6 107.67 134.23 106.47 134.94 105.48 135.49 104.4 137.53 103.66 138.17 101.08 137.51 97.3 138.58 95.27 139.37 93.31 140.24 92.02 141.03 90.94 142.84 90.38 143.99 89.76 145.69 88.5 145.62 87.11 145.37 83.34 145.69 81.64 147.07 80.76 148.33 79.88 149.53 79.19 150.72 78.06 151.48 77.37 152.55 77.3 153.87 77.3 155.69 77.24 157.08 77.11 158.65 78.73 159.79 80.27 160.45 82.47 161.14 83.98 160.99 85.61 160.83 86.18 160.48 86.84 160.07 87.15 159.75 87.75 159.1 88.57 159.04 89.01 159.32 89.64 159.85 90.43 160.58 91.24 161.33 92.16 161.65 93.32 161.4 94 161.07 94.86 160.8 95.46 160.61 95.99 160.58 96.46 160.86 96.72 161.18 96.84 161.62 97 162.15 97.19 162.69 97.6 163.35 98.04 164.07 99.08 165 99.96 165.41 100.62 166.01 100.87 166.58 100.81 166.92 100.59 167.46 99.83 167.77 97.38 169.28 95.52 171.31 95.17 172.28 94.86 173.08 94.91 174.25 95.41 175.68 97 176.83 98.66 176.91 99.16 177.19 100.47 177.76 102.51 177.66 104.14 178.34 105.17 178.67 106.33 178.77 107.87 177.81 108.7 177.51 109.7 177.41 110.71 177.46 111.61 177.84 111.69 178.65 112.12 179.6 112.75 180.68 113.5 181.16 114.26 181.79 116.6 182.88 117.02 182.65 117.7 183 118.88 184.16 120.07 184.49 121.01 184.45 124.02 183.4 128.29 181.24 129.32 180.38 130.64 179.1 131.07 178.35 131.15 176.99 131.32 176.54 132.31 176.14 132.96 176.13 133.94 176.04 135.25 174.9 135.98 173.57 136.2 173.12 136.65 172.84 136.81 172.94 137.69 173.57 137.99 173.82 138.31 174.02 138.76 174.81 139.2 175.86 140.18 176.46 141.46 176.74 142.84 176.94 143.5 177.04 143.52 177.59 143.17 178.4 142.29 179.33 141.41 179.81 140.33 180.59 139.15 181.6 138.44 182.96 138.42 184.69 138.87 186.43 139.15 187.61 139.77 188.85 140.58 190.33 141.55 191.27 142.62 192.3 143.27 192.98 143.95 193.63 145.01 194.39 146.64 195.64 147.9 196 149.36 196.15 151.42 195.67 153.06 195.34 154.06 194.86 154.77 194.21 155.65 193.73 156.33 193.91 156.93 194.23 158.43 194.67 160.38 194.02 162.16 194.13 163.3 194.18 164.3 194.44 165.81 194.31 166.99 193.48 167.9 193.1 168.75 193.25 170.19 192.75 172.28 192.17 175.42 189.28 177.08 187.29 177.96 186 177.91 184.37 176.86 182.88 174.77 181.42 172.93 180.94 171.12 180.29 170.16 179.83 169.58 178.88 169.91 177.12 169.74 176.69 170.31 176.54 171.12 176.84 171.85 177.27 172.81 176.84 173.86 176.56 176.93 176.66 180.3 176.84 182.94 177.57 186.74 178 190.31 177.62 192.83 176.54 195.02 174.65 195.7 173.09 195.57 170.6 194.84 168.71 194.74 167.12 195.07 167.07 195.4 167.2 196.23 167.6 199.77 171.53 200.13 173.16 200.91 173.89 201.94 173.64 202.84 170.12 203.72 167.15 204.02 166.69 204.4 166.54 204.7 166.67 206.11 167.4 209.56 168.13 210.87 167.5 212 166.11 213.31 166.22 215.35 166.09 215.95 166.47 216.1 168.33 218.94 169.79 221.11 169.79 223.22 169.34 224 167.95 224.91 167.1 225.58 166.16 226.52 165.89 227.32 165.66 228.42 163.73 229.21 162.34 230.92 161.31 231.52 161.36 230.78 164.41 230.5 165.16 230.28 166.73 229.38 166.95 228.5 167.8 228.15 169.34 229.33 170.27 229.91 170.57 229.85 171.03 228.43 172.84 227.24 173.92 225.53 175.73 224.25 177.85 222.94 181.5 224.96 183.84 225.84 185.73 227.42 189.35 228.65 191.19 232.6 192.4 234.49 193.1 236.78 193.66 237.86 194.16 238.41 194.84 239.89 197.3 241.79 198.76 245.88 200.61 248.67 201.21 251.35 200.75 255.43 198.81 258.13 195.88 260.56 191.37 261.7 187.66 261.89 186.31 261.73 185.2 260.86 184.38 261.72 182.63 262.51 182.28 263.02 181.45 263.39 180.87 264.03 181 264.29 181.38 264.92 182.33 266.17 183.38 266.96 184.2 267.84 184.75 269.67 184.8 271.7 183.94 272.31 183.07 273.2 182.03 274.08 180.49 274.21 179.36 274.54 178.04 275.98 177.51 276.05 178.34 275.28 180.04 273.17 184.05 273.01 184.31 272.38 185.34 272.65 186.32 271.89 187.57 271.99 189.71 273.06 192.1 275.01 193.9 277.05 195.23 280.08 196.37 282.32 195.94 284.16 195.86 285.11 195.81 285.69 195.57 285.75 195.08 286.13 194.92 286.39 195.18 286.61 195.56 286.41 196.01 285.62 196.88 285.36 197.59 285.28 198.65 285.83 200.6 286.75 202.16 288 203.2 288.47 204.4 286.72 206.21 286.99 208.11 287.26 209.84 287.29 210.3 287.75 211.47 286.95 213.2 285.65 214.68 285.35 216.12 286.57 218.14 288.56 219.87 291.94 221.37 294.81 221.98 297.12 221.03 299.21 220.93 301.31 221.05 304.22 221.37 306.94 221.98 309 222.9 310.97 224.22 313.39 225.66 314.55 226.16 315.33 226.78 315.84 227.28 315.88 228.09 315.24 230.18 314.97 232.67 316.33 234.65 319.06 236.51 322.83 236.9 324.38 234.02 324.41 230.23 324.17 228.33 324.06 227.38 324.86 226.6 325.12 224.85 325.27 223.71 325.69 223.33 327.07 222.59 327.3 222.46 327.75 218.36 327.68 217.84 327.75 217.15 328.12 217.33 328.61 217.84 329.3 218.51 329.53 219.52 330.56 220.41 332.33 220.48 332.91 220.91 333.63 221.3 335.09 220.82 336.04 220.25 336.46 220.03 336.6 220.3 336.67 220.74 337.25 221.96 338.18 222.54 338.83 223.1 338.88 223.34 340.49 226.65 341.26 227.52 342.18 228.89 341.97 229.65 341.7 231.27 341.83 232.86 341.82 234.22 342.56 236.47 343.94 238.21 345.29 239.61 346.55 240.41 349 241.05 351.41 241.22 354.22 241.07 357.44 241.08 358.91 240.34 360.71 240.16 362.68 240.06 363.83 239.81 364.89 239.61 366.27 239.34 367.49 240.21 368.43 241.78 369.62 244.54 371.99 245.95 373.98 246.32 374.35 247.36 374.55 248.37 375.41 249.83 376.36 251.39 378.48 251.94 381.11 251.7 382.66 252.24 383.81 254.66 385.37 259.29 386.68 260.45 388.04 263.52 391.15 267.55 395.58 268.86 397.7 269.66 398.75 271.43 403.48 268.96 407.15 266.19 408.11 262.67 410.07 262.21 412.49 261.56 413.24 260.25 413.9 257.48 414.5 255.26 414.75 255.06 414.9 256.02 415.61 257.18 417.27 258.39 417.02 259.34 417.17 260.95 414.9 266.14 415.76 268.25 419.38 267.8 422.45 268.4 425.32 268.46 427.03 266.79 427.28 259.54 427.83 258.49 428.69 257.93 430.65 257.93 433.57 258.89 436.54 259.34 439.81 260.6 443.28 258.99 445.29 256.77 446.2 256.62 447.25 257.03 448.46 258.08 449.52 258.69 451.71 259.2 453.36 259.96 456.17 261.82 457.32 262.11 458.32 261.99 458.9 261.64 459.4 261.18 459.76 260.65 460.34 259.26 460.48 258.44 459.68 256.37 459.28 255.77 458.32 255.11 456.32 253.76 453.94 253.1 452.79 252.23 452.34 251.34 451.41 250.43 451.55 247.89 452.58 246.84 453.24 246.18 454.32 245.12 454.57 244.62 455.07 245.88 454.94 246.42 456.61 248.11 458.78 248.87 460.64 249.02 462.25 248.42 463.91 247.61 464.36 246.1 464.61 244.49 465.48 243.06 466.39 243.36 466.93 244.49 467.78 245.24 469.46 246.67 470.9 247.61 473.02 249.37 474.22 250.03 475.33 251.59 477.8 253.15 478.6 254.11 484.08 255.87 488.61 254.86 493.59 253.75 497.47 250.78 501.64 249.47 505.57 248.06 505.32 246.96 506.27 245.9 507.78 244.79 509.54 243.73 511.4 242.22 512.96 241.47 513.97 239.15 515.98 236.03 516.64 233.87 517.79 233.11 519.35 233.87 523.38 233.56 524.49 234.12 525.69 232.42 526.6 231.25 527.61 231.1 530.12 226.92 532.39 226.56 536.81 225.26 538.47 225.15 541.04 226.41 545.37 225.76 550.25 227.07 557.29 226.11 560.16 224.45 561.17 221.78 562.27 220.72 564.39 211.26 564.74 209.04 566.75 204.66 565.74 200.13 566 198.37 569.47 195.77 569.97 194.84 569.83 193.56 569.54 192.52 568.68 191.12 567.55 189.05 565.39 188.4 563.98 187.14 565.51 186.82 565.51 186.24 566.9 185.28 567.4 183.87 565.39 181.95 568.24 182.75 569.82 184.22 571.76 183.75 574.64 184.9 575.86 185.72 576.87 187.46 579.13 188.35 580.23 188.7 581.59 189.1 582.65 189.46 583.67 189.88 585.78 189.43 586.28 189.26 587.65 188.45 588.23 187.09 588.99 186.18 589.89 185.33 590.88 184.14 590.88 181.88 591.07 179.97 591.49 179.09 592.17 178.29 593.25 177 594.26 175.22 594.36 173.28 593.82 172.29 594.23 171.84 594.26 170.84 594.44 170.21 596.15 171.34 596.81 171.41 599.24 171.8 600.41 171.8 601.87 172.81 602.01 172.65 602.69 171.69 602.26 170.38 601.48 168.52 601.94 168.1 602.81 168.1 602.9 168.08 604.41 168.84 606.08 168.19 607.34 168.14 609 168.04 610.69 167.81 611.42 167.14 612.4 165.9 613.73 165.32 615.1 165.65 615.54 166.13 615.52 166.68 615.57 167.81 616.78 168.27 617.35 167.51 618.34 166.86 618.99 166.88 619.59 167.39 620.41 167.87 620.37 169.02 621 170.28 622.08 171.64 623.42 172.27 625.03 172.9 626.01 172.62 628.5 168.6 629.03 166.15 628.83 165.25 629.98 165.12 631.67 165.65 633.1 166.81 635.08 167.9 634.21 169.22 633.76 170.63 634.39 171.39 635.94 171.89 636.7 172.12 637.05 173.61 637.93 174.56 639.44 175.57 641.25 176.02 642.11 175.92 642.76 175.42 644.17 173.45 645.05 172.82 645.61 172.67 646.23 172.75 646.89 173.58 647.57 174.86 648.4 176.98 648.5 178.01 649.76 179.34 651.19 178.92 652.39 178.5 654.33 177.4 654.99 175.19 656.2 173.78 657.23 172.02 658.13 171.74 659.47 171.79 661.5 172.17 662.74 173.39 663.17 173.74 663.53 174.26 663.82 175.6 664.82 176.35 666.84 176.41 668.42 176.12 670.64 175.89 672.42 175.49 673.78 175.59 675.53 176.53 678.55 177.98 681.91 178.06 684.57 178.04 687.32 177.41 688.3 177.58 688.93 177.43 690.03 177.51 690.64 176.95 690.49 174.11 691.64 171.49 692.45 168.85 692.85 166.56 692.4 164.37 691.79 162.81 691.45 159.31 692.26 157.48 692.87 156.65 692.52 155.6 691.01 153.83 690.64 152.19 689.75 150.88 690 149.74 688.17 147.86 686.92 145.09 686.67 139.73 690.55 137.12 691.05 136.94 692.13 136.25 692.85 135.26 693.06 134.5 693.13 133.4 692.85 131.65 694.28 130.26 695.15 128.75 696.08 127.99 697.23 127.7 699.12 129.72 704.05 129.72 706.66 129.92 708.98 129.72 712.97 128.86 715.7 128.63 720.8 128.52 725.62 128.98 727.85 129.39 736.97 132.06 738.27 132.29 740.21 132.88 743.08 134.1 744.37 134.39 747.18 134.5 747.97 134.74 749.69 136.01 751.92 137.29 754 138.11 755.94 138.46 757.88 139.04 758.1 139.21 758.32 139.21 758.53 139.33 762.12 140.32 763.06 140.49 764.57 140.49 765.36 140.61 767.01 141.19 768.02 142 769.38 143.46 771.61 145.08 771.9 145.61 772.97 146.77 774.63 147.64 775.35 147.87 776.14 148.34 776.78 149.21 776.78 150.08 778.88 151.07 780.96 152.27 781.96 153.52 782.53 154.38 788.57 154.44 794.17 154.62 795.05 154.41 796.88 155.21 799 156.13 798.34 156.48 797.77 156.65 797.19 156.65 794.03 157.52 791.3 158.57 789.86 159.32 789 159.5 787.78 159.44 787.06 159.21 784.54 159.03 781.81 159.5 780.38 159.67 779.01 159.61 777.43 159.09 774.92 157.58 768.33 154.89 765.61 153.84 763.95 152.93 762.75 152.33 758.37 151.04 756.33 149.91 754.52 149.23 752.33 148.25 750.82 147.95 749.54 147.95 747.27 147.95 745.84 147.95 744.24 148.45 744.63 149.91 745.81 151.59 750.2 152.58 757.12 157.49 760.11 160.25 759.38 163.03 758.06 162.02 757.06 159.69 754.98 159.5 754.54 160.74 753.03 160.62 746.67 155.66 744.54 155.48 742.78 155.29 741.59 156.86 741.52 154.97 740.71 153.71 738.32 152.77 736.43 152.08 734.67 151.51 733.47 151.2 731.65 151.2 729.5 150.43 726.34 151.36 725.55 152.77 723.46 153.68 722.81 154.67 722.1 156.53 721.81 159.32 722.02 159.96 722.02 163.16 722.31 165.02 722.96 166.06 724.11 167.46 725.04 168.91 725.33 170.07 725.11 171.3 723.53 173.39 722.46 174.2 721.31 174.55 719.8 174.78 717.86 175.36 717.07 175.77 716.28 176.47 716.06 177.11 716.06 177.86 716.64 180.19 717.42 182.34 717.07 182.92 716.64 183.1 715.92 183.1 715.05 183.44 714.12 184.55 712.97 185.65 711.1 186.99 710.38 187.34 707.37 188.09 705.78 188.67 705.07 189.14 703.27 190.07 701.76 191 700.54 191.81 699.07 194.4 697.96 195.96 697.56 197.82 694.54 199.28 691.62 200.54 687.54 201.75 686.34 202.15 683.64 202.61 682.06 202.72 680.85 201.81 678.77 201.46 677.65 201.4 676.68 201.35 672.87 201.58 671.79 201.87 671.29 202.16 670.57 202.28 670.36 202.45 670.14 202.45 670.64 203.21 670.59 205.37 667.1 205.9 664.44 205.9 659.57 206.33 657.1 206.33 656.3 207.24 653.38 206.68 649.86 206.73 648.39 208.03 646.45 208.27 643.82 208.19 640.3 208.39 637.98 208.34 636.12 208.29 633.2 208.29 623.04 208.75 619.72 208.75 615.46 208.61 611.62 208.8 608.85 210.36 606.94 213.78 604.63 215.39 603.47 216.45 603.27 217.71 603.67 219.57 602.97 220.78 602.31 220.98 601.76 220.83 600.01 220.3 598.79 221.75 596.07 225.06 595.23 226.06 594.98 228.3 593.85 229.54 593.04 230.67 592.4 231.6 592 232.16 590.03 232.04 589.24 232.85 589.02 233.32 588.8 234.02 588.88 235.24 589.67 236.92 590.03 237.39 590.17 238.2 590.1 238.72 589.6 239.36 588.88 239.77 587.15 239.94 583.99 240 582.84 240.82 580.33 240.58 574.94 245.25 571.06 246.8 569.55 247.56 563.87 250.06 562.08 251.11 560.5 251.69 556.4 253.61 551.26 255.98 549.76 256.66 547.07 259.36 545.72 260.42 544.71 261.12 543.45 262.08 543.15 262.58 543.05 263.24 542.9 263.69 543.05 264.44 543.65 265.55 543.98 266.36 543.91 266.88 543.6 268.12 542.9 268.82 541.99 269.88 541.04 270.34 540.13 271.54 539.2 271.99 538.77 272.75 537.72 273.71 537.37 273.31 536.43 273.55 534.42 273.37 533.48 273.49 532.69 273.72 532.05 274.24 531.19 275.41 530.68 276.57 530.54 277.85 530.36 279.18 530.38 280.15 530.67 281.82 532.34 283.14 533.94 283.93 533.34 285.23 533.13 285.75 532.48 286.33 530.83 286.86 530.04 287.61 529.68 288.31 529.54 289.82 530.25 291.04 530.18 292.38 530.54 293.31 532.05 294.76 533.19 296.52 533.39 298.03 534.64 300.4 535.57 302.43 537.66 304.93 538.16 305.8 538.38 307.08 538.31 307.9 536.73 309.93 536.3 310.22 535.65 310.4 534.43 310.4 534 310.51 533.09 312.02 532.08 313.18 531.93 314.44 532.38 315.45 532.63 316.15 533.49 316.61 534.7 317.01 535.8 316.96 536.76 316.61 538.02 314.52 538.88 314.35 539.31 314.58 539.6 314.93 539.96 317.31 541.83 321.03 542.12 322.25 541.47 326.44 542.75 327.18 543.45 327.33 544.26 327.33 545.21 327.68 546.57 328.79 546.57 329.5 544.06 331.06 543.45 332.32 543.95 333.22 545.87 334.23 548.43 334.48 549.94 334.39 550.24 335.74 551.4 337 552.68 337.25 552.32 337.54 551.17 337.95 550.67 338.35 550.89 339.05 551.89 339.98 552.75 340.33 553.26 340.68 553.4 341.26 552.9 341.9 550.46 343.53 549.95 344.11 549.74 345.21 550.02 346.78 550.6 348.06 551.9 347.82 553.01 347.97 553.92 348.02 554.92 348.98 555.73 348.58 556.89 347.97 560.16 345.68 561.02 345.44 561.45 345.73 562.09 346.49 564.58 348.23 562.92 351.4 561.87 352.76 562.12 353.82 563.88 354.53 564.22 355.55 564.73 356.94 566.39 358.15 567.55 358.4 569.02 358.45 571.58 357.84 571.65 360.73 572.01 361.89 572.52 362.76 573.09 365.4 573.34 367.01 574.24 367.81 575.35 369.02 576.68 370.03 577.91 372.24 578.41 372.82 579.2 373.28 580.42 373.28 581.57 372.7 582.14 372.59 582.58 372.7 583.01 373.22 583.15 374.39 582.93 375.03 581.14 376.89 580.64 377.82 580.42 379.1 581.99 379.09 584.14 379.23 583.76 379.91 583.58 380.9 583.37 381.89 582.72 382.53 581.64 383.05 580.79 383.11 579.74 384.52 578.47 386.54 577.59 388.31 576.03 390.18 575.21 390.05 574.68 390.42 574.21 391.12 575.34 393.14 576.97 393.96 576.83 395.55 577.05 395.84 577.05 396.09 577.05 399.09 577.34 400.25 578.13 401.24 578.99 401.88 579.71 402.23 581.43 403.45 583.66 406.36 585.1 408.62 586.82 410.83 589.05 412.81 591.13 413.97 591.99 414.67 593.58 417.28 594.58 418.5 595.66 419.55 596.73 420.42 597.6 420.94 598.46 421.24 601.12 421.35 602.05 421.64 603.06 422.51 603.56 423.56 604.42 425.88 605.57 430.82 606.22 431.52 606.87 431.93 607.66 432.16 609.02 432.34 609.74 432.34 611.61 431.99 613.62 431.75 614.98 431.41 615.7 431.06 617.93 430.42 618.43 430.42 619.37 430.88 620.44 431.58 620.48 431.63 620.8 432.04 621.31 434.54 622.82 438.79 623.82 439.72 624.25 440.01 625.83 440.36 628.06 440.59 630.79 440.41 632.37 440.88 633.59 441.63 636.18 446.52 638.26 449.02 638.29 449.16 638.4 449.83 638.12 450.7 636.9 452.39 636.61 453.03 636.39 454.71 636.61 456.11 637.69 458.72 638.84 460.76 640.27 464.65 640.35 465.87 640.13 467.44 639.27 469.3 638.48 470 637.4 469.71 636.68 469.13 636.04 468.37 635.6 466.51 635.61 465.12 635.32 464.13 633.66 461.4 631.87 455.41 631.51 454.71 629.93 453.2 629.93 453.09 627.49 450.82 626.84 450.3 626.26 450.01 625.98 450.06 625.62 450.53 626.26 453.67 627.41 456.28 627.41 456.81 627.2 457.16 626.7 457.45 626.12 457.39 625.26 456.81 624.54 455.99 623.46 455.12 622.46 454.54 621.81 454.54 621.31 454.71 619.58 455.41 618.79 455.41 618.36 455 617.32 454.47 616.4 453.6 616.1 451.41 614.29 448.32 612.51 443.47 612.4 441.64 613.46 440.46 613.23 438.72 611.73 437.67 609.46 436.99 608.03 436.61 607.05 436.69 605.91 437.37 604.56 438.12 602.67 439.78 600.78 441.37 599.57 443.63 598.97 445.45 597.24 448.09 595.95 447.56 594.52 447.56 593.31 447.64 591.88 448.09 590.22 448.09 583.42 447.86 581.91 448.32 580.78 448.54 580.03 448.69 579.27 449.15 578.22 448.01 576.63 447.41 574.59 446.88 573.84 446.58 572.48 446.58 569.84 446.35 568.1 445.52 565.24 444.99 561.68 444.72 558.31 443.97 557.16 443.62 555.86 443.04 551.84 441.87 549.18 440.77 546.52 439.26 545.95 439.14 544.01 438.15 542.22 438.72 541.31 437.21 540.25 436.31 539.65 435.17 537.24 434.19 535.95 433.59 535.12 432.91 534.07 431.7 532.1 429.74 530.97 428.3 528.56 427.55 527.05 426.49 524.33 425.73 523.65 424.53 522.52 421.96 519.64 419.94 518.99 418.49 518.82 417.58 518.97 416.22 518.59 414.25 517.54 412.44 516.33 411.38 515.42 410.93 514.14 410.7 513.24 410.78 512.86 411.31 512.33 411.84 511.05 412.82 510.82 414.71 509.61 415.46 509.31 416.37 506.37 419.62 503.27 420.37 501.31 420.52 499.5 420.45 495.05 419.39 490.29 417.88 489.09 417.73 486.37 417.58 484.41 417.35 482.58 416.83 481.22 417.82 480.79 418.28 480.07 419.33 479.71 420.61 479.35 421.13 478.92 421.42 477.91 421.31 474.68 419.85 472.31 419.04 471.38 418.93 468.07 416.6 464.84 415.03 463.69 414.28 462.54 413.81 461.89 413.35 461.75 413.06 461.46 411.37 461.24 408.87 460.81 407.19 460.38 406.37 458.8 405.04 456.64 402.71 455.71 402.13 455.57 402.13 453.63 400.74 453.12 400.1 452.48 398.76 451.18 396.96 450.54 396.49 449.82 396.09 448.02 395.45 447.16 394.92 446.08 393.94 445.94 393.59 446.3 391.32 446.15 389.69 444.64 387.83 443.06 386.38 441.98 385.86 440.98 385.62 437.96 385.22 437.17 385.05 435.88 383.82 433.72 379.93 433 379 430.63 376.79 429.77 376.04 429.05 375.69 427.32 375.17 426.32 375.17 424.81 375.4 423.8 375.86 421.43 377.38 421.07 377.38 420.64 376.97 420.5 376.21 420.57 374.24 420.35 373.48 419.71 372.49 418.63 371.45 416.76 369.94 413.89 368.72 412.16 368.25 410.73 368.08 408.43 368.2 404.83 369.01 404.12 368.66 396.07 362.39 395.78 361.98 395.71 361.8 395.99 360.06 395.78 357.79 394.84 355.82 393.26 353.26 392.26 350.82 390.75 347.97 389.09 346.64 386.72 345.3 383.85 343.5 381.04 342.22 379.75 341.93 378.89 341.93 378.17 342.1 376.73 342.8 374 342.8 372.21 342.51 371.06 341.82 369.48 340.59 365.16 335.36 364.16 334.43 363.08 333.68 362.43 333.39 359.27 332.58 354.38 332.05 352.59 331.59 350.07 330.14 345.62 326.88 341.67 324.68 338.72 322.24 337.35 321.31 334.55 320.44 332.18 319.16 329.3 318 327.15 317.42 324.78 317.01 321.97 316.72 320.11 316.72 319.03 317.01 315.44 318.46 311.92 318.64 310.41 318.93 307.82 319.8 306.75 319.8 303.44 318.99 300.06 318.7 298.12 318.82 296.83 319.28 295.82 319.92 295.1 320.74 295.03 321.09 294.82 321.26 294.46 322.95 294.03 326.43 293.24 327.42 292.74 327.71 291.66 328 289.72 328.3 287.93 328.99 287.71 328.99 286.99 328.64 286.34 328.06 286.34 327.89 285.12 326.96 283.69 326.44 282.82 326.44 282.32 326.61 281.75 327.25 280.81 329.4 279.95 330.45 279.52 330.68 277.15 330.97 275.57 331.38 273.05 332.49 270.61 332.31 268.24 332.49 265.94 333.24 264.87 333.88 263.57 335.11 263.14 336.15 262.64 338.48 262 340.45 261.49 341.03 260.85 341.38 260.27 341.44 259.77 341.38 257.4 340.11 253.37 336.74 251.72 336.15 248.2 335.75 244.39 335.58 242.88 335.29 241.16 334.76 241.01 334.65 235.84 333.43 234.26 332.91 229.66 332.04 227.36 331.75 225.64 330.88 224.13 330.35 221.61 329.6 219.46 329.31 217.16 329.31 215.22 329.54 212.7 330.36 207.6 333.03 204.01 334.31 201.86 335.82 200.57 336.23 199.56 336.23 196.97 335.83 194.75 335.77 193.09 335.89 192.02 336.29 190.94 337.46 190.51 338.79 190.51 339.49 190.72 340.36 191.09 341.12 191.23 341.87 192.09 343.38 191.16 344.84 190.58 345.3 190.08 345.42 183.33 346.64 182.47 347.05 181.75 347.22 180.24 347.81 179.02 348.39 178.09 349.32 177.8 350.02 178.02 350.48 178.37 350.89 179.24 351.35 180.03 351.53 183.04 351.29 184.48 351.58 184.84 351.99 184.63 352.63 183.48 353.44 181.9 353.62 179.38 353.33 177.87 353.62 177.3 353.62 176.72 353.5 175.21 352.75 173.71 352.46 172.77 352.63 171.77 353.1 168.82 353.86 167.31 354.96 166.24 355.54 163.79 355.6 163.15 355.72 161.57 356.53 160.27 357.64 159.12 357.35 158.48 357.35 156.18 357.87 154.53 358.4 153.88 358.28 153.59 357.87 153.45 357.06 154.52 354.5 154.74 352.58 153.95 350.9 152.51 348.98 150.21 347.12 149.13 346.48 147.55 345.73 145.77 344.27 142.91 344.47 142.48 344.06 140.94 343.67 141.3 342.15 141.16 341.86 141.01 340.38 141.65 339.16 144.24 337.24 145.21 336.11 145.77 335.31 149.34 335.36 150.5 334.15 151.28 333.57 151.31 332.98 150.77 330.61 150.3 329.12 150.45 327.91 151.69 325.67 151.75 324.51 151.04 322.64 149.39 321.41 148.99 320.56 148.59 320.46 149.54 318.09 152.28 314.1 153.06 311.59 153.26 309.63 152.64 308.2 153.2 307.18 154.06 305.62 154.77 303.49 156.84 299.61 157.69 298.55 158.6 298.35 160.02 298.58 161.52 298.6 162.37 298.05 162.67 297.19 163.08 296.09 162.72 293.57 162.62 292.31 162.67 291.05 163.08 289.29 163.23 287.48 163.13 286.07 163.33 283.95 163.38 281.59 163.96 279.77 165.88 278.26 166.41 275.79 166.64 273.9 167.19 272.92 167.39 271.64 167.9 270.91 167.71 269.9 166.71 267.64 165.32 266.07 163.44 263.86 158.91 261.72 155.16 258.08 153.81 257.51 152.49 256.94 150.86 256.69 149.35 256.62 148.4 257 147.46 256.62 146.4 256.05 145.76 255.34 145.53 254.09 145.65 253.3 145.31 252.05 145.16 250.84 144.1 250.05 142.48 248.69 140.78 248.12 139.76 248.65 137.04 250.43 134.82 250.94 133.12 250.92 130.14 248.12 129.12 247.44 128.48 246.99 127.35 246.27 126.14 245.4 123.46 245.78 121.91 246.99 120.97 248.05 120.36 248.92 119.5 249.71 119.08 250.16 118.21 250.24 115.46 250.73 113.04 251.26 110.89 251.79 108.18 252.2 107.01 252.63 104.8 252.28 102.68 252.2 101.84 252.19 101.15 252.28 100.33 252.25 98.89 252.37 97.59 253.94 96.38 255.75 95.38 256.16 94.01 256.62 93.62 255.51 92.53 254.89 90.95 255.15 88.53 256.36 86.78 257.22 85.74 257 85.24 256.56 86.85 255.51 87.24 254.34 88.45 252.56 89.48 250.14 89.54 247.09 89.94 244.48 90.14 244.07 89.58 242.08 88.73 241.01 87.09 239.6 85.8 238.34 84.64 237.62 83.26 237.17 79.23 237.49 76.43 237.74 72.94 238.97 71.24 239.91 70.8 240.52 70.36 241.4 69.41 243.17 Z"/>
</g>
</svg>