<?xml version="1.0"?>
<svg xmlns="http://www.w3.org/2000/svg" version="1.2" baseProfile="tiny" width="800" height="630" viewBox="0 0 800 630" stroke-linecap="round" stroke-linejoin="round">
<g id="o&apos;neillforebay">
<path d="M 11.14 551.38 12.71 551.31 13.85 550.96 13.76 550.54 13.06 550.12 11.58 549.91 9.74 549.84 6.59 549.98 3.19 549.84 2.22 549.56 1 549.14 1.87 547.81 2.4 547.25 2.92 546.76 4.32 546.34 7.91 546.06 12.28 546.27 18.4 547.39 21.54 548.02 30.55 549.84 37.19 552.43 44.8 555.51 48.38 557.4 53.63 560.62 59.31 563.84 65.95 566.08 72.95 569.36 78.89 571.53 83.62 572.51 88.16 572.37 92.53 571.53 95.77 570.9 97.95 570.2 99.52 568.17 101.45 565.93 102.58 563.97 102.58 562.22 101.62 560.54 99 558.58 95.85 556.34 91.22 552.84 87.11 549.97 83.44 547.31 82.39 546.05 83.26 545.15 85.45 543.82 86.5 542.76 87.55 540.39 88.59 538.64 88.16 537.59 87.72 536.26 88.86 535.21 90.95 534.16 95.06 532.13 101.44 528.7 111.76 521.97 115.08 519.32 117.35 518.13 119.54 517.43 122.16 517.08 124.96 516.8 128.54 517.08 130.38 516.31 133.27 515.26 136.76 514.28 141.22 512.67 148.48 509.59 152.23 508.19 152.85 506.93 151.54 505.39 150.49 503.71 149.53 502.03 148.91 500.14 147.25 498.88 143.84 498.04 142.18 497.62 141.04 496.64 139.12 495.1 139.03 493.7 139.99 492.16 141.83 490.69 144.45 488.52 148.04 485.86 151.01 484.32 154.42 482.85 154.6 482.78 157.13 481.24 160.02 480.68 161.33 479.63 164.04 476.9 166.66 473.96 169.02 471.79 171.91 470.46 176.36 468.71 180.56 467.8 185.63 466.61 189.74 465.14 191.49 463.11 193.24 461.5 195.34 460.17 198.57 459.89 200.58 460.87 202.07 462.2 202.68 464.51 204.78 465.42 207.93 466.33 210.9 466.4 213.52 466.12 217.02 466.33 220.25 466.96 222.96 467.8 230.22 470.39 237.83 473.19 240.62 474.45 243.33 477.32 243.16 478.58 241.76 479.49 239.75 480.61 237.48 482.22 236.78 482.85 235.55 484.04 235.2 486.42 235.64 488.59 237.82 489.01 239.57 488.52 241.58 487.82 243.94 486.14 246.13 483.41 246.48 482.85 247.35 481.52 247.79 479.63 248.84 479.56 250.41 480.33 253.82 481.52 256.97 481.73 259.42 481.17 261.43 479.63 262.74 477.11 263.79 474.8 264.84 472.98 266.68 470.53 268.42 467.94 269.74 465.77 269.74 463.39 268.69 461.08 266.33 458.49 263.44 454.16 262.39 451.14 261.35 446.03 258.9 437.99 257.24 432.6 256.1 428.68 255.58 426.37 253.74 420.69 251.91 415.1 250.6 408.73 250.59 401.66 249.72 396.76 249.11 393.89 248.06 391.02 246.31 388.22 244.91 386.47 241.68 382.97 238.01 379.4 234.16 374.57 231.8 370.79 230.58 366.73 230.4 363.37 231.01 361.41 231.98 360.15 233.64 359.1 233.99 358.4 233.55 357.63 232.76 356.72 232.76 355.32 233.29 353.01 233.64 348.74 233.64 344.4 233.38 339.99 232.68 334.67 232.33 329.14 231.98 323.12 231.37 317.87 229.71 311.71 226.56 304.22 223.85 297.57 222.36 293.02 221.49 288.89 221.14 285.25 219.21 280.63 218.43 277.27 217.38 273.63 216.42 271.53 215.11 269.99 213.01 265.09 211.17 259.7 209.68 257.11 209.16 253.89 209.77 252.77 210.03 251.79 211.96 249.41 212.75 247.87 213.01 246.33 213.1 244.58 212.31 243.6 211.61 242.55 210.73 240.73 209.86 238.91 208.9 237.93 208.2 236.53 207.76 235.56 207.5 234.99 206.54 234.29 206.27 233.03 206.01 231.28 204.61 229.67 203.21 228.69 203.3 227.99 202.78 227.43 201.9 227.15 199.63 225.75 197.79 223.72 196.31 220.64 194.47 216.72 192.11 211.75 189.84 206.36 187.65 199.64 186.95 194.68 186.95 193.14 187.65 191.25 189.49 188.86 192.2 185.09 193.95 182.78 195.96 179.98 199.11 176.13 199.22 176 201.56 173.26 201.82 170.46 202.43 166.82 202.69 162.9 201.91 161.5 201.12 159.96 197.45 154.92 195.7 152.12 195.26 148.97 194.74 147.78 194.3 144.98 194.3 143.23 194.74 141.34 196.05 139.45 196.92 137.91 197.01 135.67 196.92 134.83 195.78 133.57 191.5 131.82 186.87 131.26 184.59 131.26 182.23 130.84 180.04 130.7 178.64 130.21 177.16 128.32 175.58 126.01 173.13 122.09 170.86 118.94 167.54 113.2 163.25 104.87 162.29 101.09 161.59 97.87 161.33 94.65 160.63 92.9 160.02 91.08 160.1 89.05 161.5 87.3 165.96 82.4 171.12 75.68 172.79 72.74 174.54 68.4 176.28 65.11 178.65 60.98 181.44 56.36 184.07 51.46 185.91 48.31 186.87 46.56 188.7 44.81 190.8 43 193.25 40.82 196.31 37.96 197.71 35.86 199.2 33.47 199.81 30.96 201.04 27.95 202.26 25.5 204.45 22.21 206.2 18.92 208.04 15.77 210.66 12.2 213.55 8.98 215.3 6.95 218.1 4.71 220.9 2.68 222.64 1 224.52 1.81 225.71 2.33 224.31 5.69 223.87 8.14 223.34 9.68 221.07 12.69 218.18 16.61 215.47 20.67 212.76 24.45 210.92 27.81 209.17 31.31 208.12 34.25 207.51 36 206.55 39.29 205.85 41.25 206.02 43.28 206.81 45.87 208.03 48.8 209.35 51.67 210.75 53.21 212.23 54.13 213.98 54.9 216.08 56.71 218.09 58.12 219.75 59.45 224.3 60.43 228.33 61.27 233.92 61.55 238.56 61.13 242.41 60.15 245.29 58.47 247.39 56.16 249.23 54.06 251.15 51.61 252.2 50.28 281.33 65.33 277.22 69.88 274.59 73.59 273.02 76.6 272.14 79.75 271.79 83.18 271.88 91.44 271.79 95.85 272.66 98.16 273.28 101.1 274.59 103.06 275.02 104.04 275.11 107.05 274.76 110.27 274.06 113.35 273.97 116.01 274.41 118.04 275.37 121.54 275.55 123.84 275.63 125.53 276.33 127 277.64 128.04 280.71 129.17 284.38 130.57 286.39 132.04 287.44 133.65 289.71 138.55 291.72 144.15 293.03 147.86 294.7 151.43 298.19 157.87 300.12 161.51 301.95 165.15 303.79 168.09 305.28 170.96 306.24 172.85 307.55 177.54 309.47 182.3 314.02 190 317.43 194.62 323.29 200.22 329.32 204.98 333.87 207.29 338.94 209.74 341.65 210.86 344.18 211.98 344.8 212.26 349.34 212.82 354.07 212.19 357.48 211.14 359.93 209.6 361.59 207.71 362.46 205.12 362.46 202.25 362.55 199.73 362.99 196.44 364.13 192.87 365.88 190.28 367.89 188.18 369.11 187.13 370.51 186.44 371.45 187.4 372.96 188.95 375.41 189.87 376.89 190.56 378.21 191.27 378.73 192.11 378.99 192.94 379.08 193.3 379.34 194.07 379.52 195.11 379.34 196.03 378.99 197.42 378.9 198.05 378.99 198.89 379.08 199.59 379.6 200.71 380.48 202.39 385.98 211.28 414.57 255.46 428.2 277.3 442.19 299.07 539.54 451.33 545.48 460.78 550.38 467.09 552.91 469.88 554.92 471.71 558.68 474.44 563.4 477.03 567.42 478.92 570.74 480.39 574.67 481.58 578.87 482.21 581.4 482.42 592.94 482.92 596.27 483.06 606.85 482.92 612.09 482.85 615.59 482.92 629.58 483.21 642.51 483.49 666.82 483.57 698.64 483.72 723.38 484.22 750.31 484.44 782.48 484.73 782.65 488.37 783.09 489.28 783.88 489.77 785.62 489.99 797.51 489.99 797.43 490.9 799 490.9 799 493.25 798.99 496.5 797.51 496.5 797.51 497.41 784.74 497.33 784.4 497.61 784.13 497.89 783.87 498.31 783.69 498.8 783.61 499.71 783.34 500.83 782.99 501.67 782.64 502.3 782.47 502.44 782.03 502.93 780.11 503.28 748.29 502.64 746.54 503.13 745.75 503.76 744.7 504.95 742.94 523.07 742.59 527.9 741.97 534.97 739.78 555.69 739.42 560.03 738.81 561.85 738.2 562.83 737.41 563.74 736.8 564.44 734.79 564.93 666.78 563.64 658.65 563.5 654.36 563.78 650.52 563.92 648.94 564.2 647.63 564.97 646.14 567.98 644.31 577.28 642.99 584.01 642.2 586.73 639.93 591 636.69 594.99 634.77 596.53 632.41 597.37 617.46 599.39 606.97 600.02 596.77 599.96 595.78 599.95 587.65 599.67 581.88 599.11 577.07 599.24 571.57 599.59 566.06 599.59 561.86 598.4 556.79 595.74 552.42 593.36 548.23 592.23 545.43 590.9 543.42 589.58 541.5 586.42 539.4 582.36 535.38 579.28 530.66 575.57 527.87 573.61 525.6 572.21 520 567.31 515.81 564.09 512.49 563.11 507.5 562.76 502.7 562.48 497.28 562.47 493.78 562.96 490.28 563.52 487.4 564.22 482.07 564.78 474.98 564.08 465.11 563.1 458.29 562.96 451.64 563.16 444.56 563.37 434.68 563.65 425.94 563.51 416.94 563.51 406.1 563.65 395.17 564.2 388 564.41 381.62 564.9 377.16 564.9 372.01 564.55 369.12 563.57 367.9 561.96 367.2 560.63 367.11 557.76 366.59 556.29 365.89 555.03 364.49 555.1 362.48 556.43 360.47 558.11 359.59 558.74 357.67 560.14 356.62 561.05 355.22 561.54 353.82 562.03 352.69 562.52 351.03 563.22 350.41 564.76 350.67 566.51 351.72 567.56 353.3 568.82 355.48 569.38 357.93 570.08 359.59 570.92 361.43 573.23 362.48 575.96 363.96 578.2 364.84 579.88 365.01 580.93 365.01 581.56 363.79 582.05 361.69 581 359.59 580.37 357.4 580.44 355.66 580.23 353.56 578.76 351.98 577.78 350.5 577.36 348.75 577.85 347.35 577.08 345.08 574.91 344.12 573.58 343.42 572.67 341.93 570.99 340.88 569.87 340.1 568.68 340.88 567.56 341.23 566.51 340.1 566.02 335.73 565.59 331.71 565.39 328.82 565.74 327.25 566.71 326.63 567.48 325.32 568.39 322.61 568.39 318.77 568.46 315.18 568.04 309.76 568.81 306.27 571.05 304.34 574.55 303.82 580.01 303.47 586.24 303.03 590.86 302.68 595.83 302.59 598.07 301.37 600.38 300.32 601.29 299.09 602.06 296.04 602.9 290.97 605.07 286.07 607.38 279.16 610.32 271.99 612.77 266.75 614.8 263.78 616.26 258.97 618.5 253.38 620.46 247.95 622.28 244.2 623.61 241.66 624.73 237.2 626.55 234.32 627.39 229.07 628.23 225.23 628.72 221.38 629 218.5 628.72 217.1 628.37 214.21 627.53 209.41 625.57 205.04 622.91 201.1 620.25 194.98 616.19 191.92 613.95 188.08 612.13 183.09 609.82 177.33 606.74 172.69 604.22 165.09 599.39 159.41 595.82 153.98 592.6 146.99 588.19 142.45 585.39 137.64 581.61 135.1 579.16 131.87 577.06 129.16 575.87 127.24 575.45 124.18 575.24 122.78 575.66 120.24 576.36 118.06 577.9 116.92 579.3 114.82 581.68 113.42 583.64 111.94 586.09 109.4 587.98 105.64 589.45 101.27 590.92 97.43 592.25 94.28 593.02 91.66 593.23 87.72 593.23 86.33 593.23 84.14 593.09 80.73 592.6 76.1 591.69 72.51 590.71 66.66 588.68 61.41 586.58 55.47 583.85 50.83 581.19 46.2 577.98 43.58 576.79 37.46 574.55 30.9 572.17 26.62 570.28 21.55 567.76 18.57 566.29 14.64 565.45 12.37 565.1 11.14 551.38 Z M 323.32 530.81 319.91 533.75 317.99 535.63 316.94 537.17 316.32 538.5 317.02 540.46 318.6 540.88 320.61 540.46 322.62 539.14 325.15 537.39 327.69 535.01 328.56 533.26 328.83 532.07 328.39 531.02 327.25 530.25 325.42 529.97 323.32 530.81 Z M 281.36 503.5 275.06 509.94 274.54 511.41 274.45 512.81 275.59 513.79 277.6 513.86 279.7 512.67 281.53 511.13 283.37 509.52 284.77 507.77 285.56 506.23 285.91 504.69 285.56 503.57 284.51 502.94 282.93 502.73 281.36 503.5 Z M 264.35 120.41 263.13 121.18 262.69 121.82 262.43 122.79 262.78 124.54 264.09 125.73 266.45 126.36 268.2 125.88 268.81 125.03 269.16 123.92 268.9 122.17 267.85 121.04 266.36 120.27 264.35 120.41 Z" fill-rule="evenodd"/>
</g>
</svg>