<?xml version="1.0"?>
<svg xmlns="http://www.w3.org/2000/svg" version="1.2" baseProfile="tiny" width="800" height="2911" viewBox="0 0 800 2911" stroke-linecap="round" stroke-linejoin="round">
<g id="stonygorgereservoir">
<path d="M 799 2883.63 767.29 2896.07 731.72 2910 719.07 2869.64 707.7 2831.03 664.06 2807.54 617.79 2782.63 600.01 2780.65 573.83 2766.33 560.99 2750.52 542.71 2758.92 532.34 2738.67 529.87 2709.53 544.57 2688.85 537.67 2682.83 538.85 2678.5 539.73 2674.85 539.73 2669.38 538.56 2661.4 537.68 2655.7 527.68 2625.59 524.45 2609.18 523.57 2605.53 522.69 2603.02 515.63 2591.62 514.75 2588.42 514.46 2579.76 513.58 2576.33 512.99 2569.27 512.4 2567.22 511.82 2564.02 511.82 2561.06 512.41 2558.78 513.59 2553.08 515.36 2543.28 514.78 2536.89 514.49 2531.42 513.02 2524.35 512.43 2522.98 512.43 2520.93 512.43 2518.42 512.43 2516.14 512.44 2509.52 511.56 2504.96 511.56 2501.77 511.86 2500.18 512.74 2498.35 513.62 2496.3 513.04 2491.51 509.21 2480.11 507.45 2475.32 503.92 2468.71 503.92 2466.66 504.51 2462.78 503.93 2455.03 503.93 2448.41 501.58 2437.24 500.7 2434.51 493.63 2427.2 486.28 2416.71 480.98 2409.41 471.86 2398.92 469.8 2395.05 466.56 2390.94 464.5 2386.61 465.46 2365.04 462.49 2359.11 459.28 2345.53 450.88 2328.98 430.88 2294.16 438.33 2320.01 438.33 2323.66 438.91 2326.86 437.73 2332.33 435.66 2335.29 434.19 2341.22 428.88 2351.48 426.82 2354.44 425.64 2355.81 423.87 2356.73 418.27 2358.09 412.97 2360.82 410.03 2362.42 408.26 2364.7 408.26 2366.29 407.67 2369.94 407.07 2371.76 405.89 2373.13 399.12 2377.01 392.34 2379.97 389.4 2381.79 387.63 2383.39 388.22 2384.53 391.75 2387.72 395.58 2393.2 397.34 2398.67 397.34 2400.5 396.75 2401.86 396.75 2404.6 397.34 2406.65 398.22 2410.3 399.1 2412.12 400.28 2413.49 401.45 2414.4 408.23 2420.79 410.29 2425.58 410.58 2428.09 409.69 2429.68 408.22 2432.88 406.46 2434.47 400.56 2438.58 397.32 2439.71 387.6 2440.62 385.24 2440.17 384.07 2439.02 383.48 2438.8 384.07 2436.52 384.07 2434.24 386.43 2431.5 387.02 2430.36 387.31 2428.08 386.43 2426.26 384.96 2423.75 383.19 2421.46 377.59 2416.45 374.36 2413.48 373.18 2411.2 372.89 2409.84 371.12 2408.01 366.71 2403.9 364.35 2402.76 360.23 2402.99 357.87 2402.08 355.22 2401.62 354.04 2400.71 352.87 2399.11 347.57 2398.42 346.68 2399.11 342.85 2400.48 340.2 2400.93 334.02 2399.56 333.43 2397.74 335.49 2394.78 342.86 2387.94 342.27 2385.43 342.86 2384.28 343.74 2383.6 348.16 2382.46 353.46 2379.96 357.89 2376.54 360.25 2374.72 362.31 2372.67 366.14 2368.1 367.61 2366.05 369.97 2360.58 374.1 2348.49 374.1 2346.21 374.39 2345.08 376.16 2343.71 377.93 2342.57 380.88 2339.61 382.94 2338.01 385 2335.27 387.07 2332.53 388.54 2328.89 390.9 2322.5 390.32 2320.23 388.84 2318.63 387.66 2317.71 385.02 2316.57 382.96 2315.66 377.65 2314.52 369.99 2314.29 364.1 2315.2 360.56 2316.11 351.14 2319.53 346.73 2320.21 343.48 2319.75 342.01 2319.07 340.24 2319.52 337.59 2319.52 333.76 2319.07 326.1 2317.7 326.11 2316.1 327.58 2314.73 332.88 2311.09 339.36 2308.35 342.31 2307.9 352.62 2307.9 354.68 2307.44 359.98 2306.76 362.34 2305.62 366.17 2304.49 370.88 2301.75 375.3 2297.87 376.49 2296.28 377.37 2294.68 377.66 2292.86 377.37 2291.26 376.79 2287.84 374.43 2281.69 374.43 2279.86 378.85 2271.42 378.85 2269.6 377.68 2265.72 375.32 2262.53 372.97 2260.48 371.5 2257.74 365.6 2251.13 364.13 2248.62 360.61 2240.41 359.43 2238.36 357.96 2236.98 356.48 2236.3 355.6 2235.16 349.13 2224.22 348.25 2221.71 348.55 2219.43 348.25 2217.15 347.96 2214.87 347.96 2213.27 347.96 2211.67 346.78 2209.17 345.02 2202.55 344.13 2197.31 343.55 2194.57 343.55 2188.87 343.55 2186.36 342.97 2177.01 341.5 2170.63 337.67 2163.1 338.26 2159.45 338.27 2156.26 337.97 2153.75 337.09 2151.93 336.21 2150.79 334.15 2149.65 332.08 2148.74 330.31 2148.74 328.25 2149.42 326.19 2149.64 319.42 2148.5 316.47 2149.19 314.71 2149.64 312.05 2149.64 310.58 2149.19 309.69 2147.36 309.7 2146.22 309.99 2144.85 312.06 2143.94 319.42 2139.38 321.78 2138.01 323.25 2135.96 324.72 2133.45 325.61 2129.35 326.79 2126.84 329.44 2123.2 331.51 2121.6 334.75 2119.78 336.81 2118.41 338.28 2117.5 340.64 2112.02 341.53 2110.2 341.24 2107.7 342.42 2106.33 345.66 2103.82 350.07 2100.86 350.96 2099.72 350.37 2094.02 350.96 2091.5 353.61 2087.41 355.38 2085.81 356.57 2084.21 356.86 2082.39 356.86 2078.06 356.57 2075.09 358.34 2071.45 358.93 2069.62 357.75 2067.34 356.87 2065.06 354.81 2062.1 352.75 2060.27 350.39 2059.81 344.5 2059.13 338.02 2057.3 335.96 2056.16 335.37 2054.79 336.26 2052.74 337.73 2051.83 343.33 2049.78 344.21 2048.86 345.98 2048.41 350.99 2048.41 355.7 2047.96 358.65 2047.96 361 2047.5 362.18 2046.59 364.25 2043.17 364.83 2041.12 366.61 2037.47 368.96 2031.31 372.21 2021.51 376.93 2011.03 384.3 1999.17 385.18 1997.8 389.6 1995.3 390.19 1992.56 389.9 1990.51 388.13 1988 384.6 1981.61 383.43 1972.26 384.02 1970.67 384.02 1965.65 384.91 1959.27 385.2 1955.16 386.98 1947.86 388.45 1943.08 386.98 1941.7 384.03 1943.3 378.72 1947.4 376.96 1948.32 372.84 1947.85 367.24 1948.77 364.29 1951.05 362.22 1953.56 360.75 1954.46 358.69 1955.15 356.63 1955.15 354.57 1955.6 352.21 1956.74 349.85 1959.02 348.38 1960.85 346.9 1965.41 344.84 1971.8 345.43 1977.26 346.89 1981.83 346.9 1984.57 346.01 1986.16 344.83 1987.3 340.12 1989.58 338.06 1991.86 336.87 1993 335.99 2000.29 332.75 2003.26 330.97 2006.45 320.07 2017.85 316.83 2020.13 313 2021.95 306.81 2023.54 302.69 2025.6 294.73 2027.19 287.07 2027.87 281.18 2028.78 277.94 2029.69 275.29 2030.37 273.23 2030.38 271.46 2029.92 268.52 2030.14 266.75 2030.6 264.69 2031.51 261.74 2033.34 258.2 2036.07 256.43 2038.12 256.14 2039.72 256.73 2041.32 257.32 2044.28 256.73 2045.87 255.25 2047.47 253.19 2048.61 252.6 2049.98 252.01 2051.57 252.01 2053.63 251.42 2058.41 250.83 2059.78 249.35 2060.92 242.87 2062.06 240.52 2062.51 239.34 2063.43 239.05 2064.57 238.45 2065.48 236.69 2066.17 233.74 2066.17 232.27 2065.7 231.68 2064.11 230.51 2061.37 231.09 2058.87 232.86 2055.67 232.86 2054.3 234.63 2051.57 236.7 2045.87 237.29 2040.85 235.82 2038.8 234.64 2037.2 232.58 2035.6 231.11 2034.46 225.51 2033.55 219.91 2033.78 211.96 2035.6 206.36 2037.19 200.47 2039.47 197.82 2039.7 194.58 2039.7 187.8 2038.78 182.5 2038.55 169.25 2038.1 163.65 2038.78 158.35 2040.14 151.57 2043.11 148.33 2044.47 145.68 2045.15 142.44 2045.15 138.31 2044.93 133.6 2043.78 129.18 2043.33 125.06 2044.46 121.22 2045.61 118.58 2047.66 116.51 2050.17 115.63 2052.67 113.27 2055.18 112.39 2057.46 112.39 2059.06 113.27 2062.71 115.04 2066.13 117.39 2069.78 122.1 2074.79 122.98 2077.07 126.52 2080.27 129.46 2083.69 132.4 2087.56 138.29 2096.23 139.76 2097.83 154.78 2110.83 159.78 2116.53 160.08 2117.67 160.37 2121.55 159.19 2123.15 161.54 2129.07 161.25 2130.44 161.54 2131.58 159.19 2134.77 158.3 2135.69 155.65 2136.14 154.77 2137.28 152.7 2140.93 150.35 2143.21 148.58 2145.03 146.52 2147.09 143.57 2149.14 135.03 2154.83 130.9 2158.03 128.55 2160.08 127.66 2162.36 125.3 2164.41 122.06 2167.6 119.7 2169.65 119.11 2171.02 119.11 2172.85 118.82 2174.67 117.05 2175.81 115.58 2176.49 114.4 2178.32 114.4 2179.91 114.98 2182.88 114.4 2187.67 112.33 2189.03 110.56 2189.26 108.21 2189.26 107.03 2189.72 102.32 2190.85 98.78 2192.45 97.6 2193.82 95.83 2197.47 92.29 2208.41 91.41 2210 86.4 2212.97 82.27 2216.16 79.62 2219.81 78.14 2223.68 76.97 2225.05 74.32 2225.97 71.37 2226.64 66.66 2226.87 64.89 2227.56 62.83 2228.01 62.24 2228.92 61.65 2231.2 66.66 2232.58 70.49 2236.9 74.61 2239.64 79.61 2241.69 86.38 2247.63 90.8 2254.7 96.1 2258.35 103.46 2259.72 110.83 2260.41 117.3 2262.46 121.13 2266.33 120.25 2269.3 117.01 2269.53 114.36 2267.7 109.94 2266.33 108.18 2266.33 105.23 2267.24 102.28 2268.61 98.75 2268.61 93.74 2269.06 91.68 2271.12 85.78 2272.71 80.48 2271.57 78.13 2272.71 74.3 2276.36 71.64 2282.05 73.7 2290.95 76.35 2299.16 76.35 2307.14 74.87 2315.8 68.99 2302.12 62.22 2293.91 56.92 2285.47 56.04 2278.41 56.92 2274.07 58.1 2263.58 53.99 2255.83 49.56 2252.18 44.27 2247.16 43.68 2241.92 43.09 2236.22 43.09 2235.53 43.09 2234.39 43.09 2232.79 42.8 2231.42 42.8 2228.47 41.92 2226.18 40.74 2225.27 40.15 2226.41 38.97 2228.24 38.68 2231.88 36.32 2236.9 36.03 2237.81 32.19 2242.37 31.01 2243.51 28.95 2244.42 21.59 2244.19 18.35 2243.51 17.71 2243.17 16.58 2242.6 15.7 2241.23 15.4 2240.54 15.4 2238.49 15.4 2236.89 16 2233.7 16.88 2231.42 16.89 2229.6 17.18 2227.09 18.65 2224.58 18.95 2222.3 20.13 2220.71 22.48 2219.79 26.9 2219.34 28.67 2218.88 30.14 2215.69 31.62 2213.64 31.91 2211.81 33.97 2210.68 35.44 2209.76 36.33 2209.54 40.75 2207.49 39.57 2206.34 35.74 2204.29 31.03 2201.55 28.08 2199.04 26.61 2196.99 25.44 2194.71 23.96 2191.51 22.49 2185.36 20.14 2182.16 18.37 2179.2 16.61 2177.15 15.43 2175.78 10.13 2172.82 3.36 2170.53 1.59 2168.94 1 2166.66 1 2165.29 1.3 2164.15 2.18 2163.46 4.54 2163.01 6.3 2162.78 13.67 2162.78 23.39 2163.92 31.63 2167.81 32.22 2168.71 41.05 2179.43 43.71 2181.03 46.06 2181.95 49.59 2180.58 53.13 2180.81 57.55 2184.69 58.13 2185.83 59.9 2187.2 62.85 2188.57 66.97 2188.57 70.21 2188.11 71.68 2187.65 73.75 2186.29 79.05 2183.32 80.52 2182.18 82.29 2180.36 83.47 2178.77 85.54 2174.43 87 2171.47 89.36 2167.37 90.55 2165.77 93.49 2163.95 97.02 2162.35 99.09 2160.75 102.33 2157.34 103.5 2155.51 103.5 2153.92 105.57 2147.53 107.05 2145.48 110.88 2142.06 112.35 2140.92 115.59 2137.73 115.89 2135.68 118.25 2129.07 118.84 2125.41 118.25 2119.71 117.07 2116.06 114.72 2111.96 112.36 2109.68 110.6 2108.31 107.95 2106.26 105.3 2105.12 103.53 2103.52 102.36 2101.7 100.88 2099.41 100 2097.13 97.94 2093.71 95.58 2090.97 93.52 2089.15 90.28 2087.55 87.93 2086.42 85.87 2084.36 83.51 2080.71 82.63 2078.2 82.34 2074.55 81.75 2071.36 83.51 2066.8 88.82 2058.83 93.54 2050.62 95.6 2048.11 97.37 2046.51 99.14 2045.15 100.02 2044.01 100.32 2042.41 99.73 2039.44 100.32 2035.11 101.49 2030.55 104.15 2024.85 104.45 2022.35 107.1 2020.98 109.16 2021.21 111.23 2021.66 112.4 2022.12 114.76 2023.03 122.12 2023.26 125.07 2023.26 128.6 2022.35 135.08 2020.98 141.56 2020.08 151.58 2020.3 165.72 2020.53 171.02 2020.31 174.56 2019.63 176.03 2018.26 177.5 2017.57 179.86 2016.43 183.39 2015.98 187.81 2015.3 193.41 2013.02 196.36 2011.42 199.89 2008.92 206.38 2003.9 209.62 2000.94 212.56 1999.8 219.64 1997.75 220.81 1996.84 225.82 1993.42 232.6 1986.81 234.67 1984.75 236.43 1981.56 241.15 1971.3 242.63 1966.74 243.22 1961.96 243.8 1959.91 245.28 1957.85 249.41 1954.2 251.18 1952.39 252.35 1947.59 252.36 1945.77 251.47 1943.72 245.58 1940.29 242.05 1938.24 237.93 1935.51 232.63 1931.4 231.16 1929.35 229.68 1925.47 228.21 1922.73 225.86 1920 221.74 1911.33 221.44 1909.05 222.03 1906.08 223.8 1904.03 224.99 1891.26 229.11 1888.53 236.18 1888.31 238.54 1888.76 243.84 1887.39 248.26 1887.17 260.05 1885.12 276.84 1881.93 283.02 1878.51 286.56 1875.78 288.04 1873.73 289.51 1870.76 290.69 1867.57 292.76 1859.36 292.46 1855.71 291.87 1852.52 288.64 1846.82 286.87 1844.77 284.52 1842.72 276.86 1836.33 275.39 1834.27 274.5 1831.77 274.51 1829.71 273.33 1825.84 272.74 1823.1 271.27 1820.59 270.09 1818.76 268.33 1816.71 267.74 1814.66 267.15 1813.29 267.15 1810.56 267.74 1808.96 267.74 1807.36 268.03 1805.31 267.15 1803.26 267.15 1801.66 265.39 1795.51 262.74 1791.4 258.03 1786.84 256.26 1784.33 253.32 1779.31 247.43 1771.79 243.9 1764.94 241.84 1763.35 238.3 1760.16 235.95 1756.51 229.77 1747.62 223.29 1735.29 221.53 1733.47 219.76 1732.56 217.4 1730.74 216.23 1729.82 215.05 1727.09 213.58 1720.7 210.93 1716.82 208.28 1713.86 205.63 1712.03 203.27 1710.21 197.97 1707.93 193.55 1706.33 190.02 1706.1 186.77 1706.1 182.36 1707.24 179.71 1708.38 178.53 1709.29 177.35 1709.97 173.22 1712.71 169.1 1715.44 166.74 1716.13 164.38 1715.67 163.8 1714.76 162.91 1713.39 162.91 1706.09 162.33 1703.36 161.74 1701.76 159.97 1699.02 159.97 1696.97 161.45 1694.92 162.62 1694.24 164.98 1693.78 169.69 1693.33 174.7 1692.41 177.36 1690.14 177.36 1687.86 177.36 1686.72 177.36 1683.07 176.47 1679.64 175.6 1677.37 172.65 1671.43 170.3 1667.1 162.64 1658.66 160.58 1651.36 159.11 1650.23 158.22 1648.4 156.46 1646.35 152.05 1638.36 142.62 1627.65 141.44 1625.36 139.97 1624 138.21 1624 132.9 1623.31 129.66 1621.94 128.19 1619.89 127.6 1617.61 127.9 1615.33 130.55 1609.17 131.14 1606.21 133.2 1600.97 133.5 1598.46 132.91 1596.86 129.68 1594.12 128.5 1592.3 127.03 1590.02 126.44 1588.2 126.14 1587.05 126.73 1585 127.03 1582.72 123.21 1562.88 122.62 1559.69 119.08 1555.35 117.61 1554.22 115.84 1548.97 115.55 1546.46 114.37 1545.1 113.19 1543.27 112.02 1541.68 108.19 1538.02 102.3 1534.37 100.83 1533.46 100.24 1530.04 101.42 1528.44 102.3 1524.57 102.89 1523.2 103.48 1521.38 106.43 1517.27 107.61 1513.17 107.02 1511.12 106.43 1508.61 104.96 1506.56 102.9 1504.28 101.13 1502.68 98.77 1501.08 95.53 1499.26 94.65 1498.34 94.36 1497.2 94.65 1493.56 95.83 1486.95 96.72 1485.58 96.72 1483.98 96.13 1482.15 96.14 1477.14 95.84 1473.49 92.9 1462.32 92.31 1457.76 92.02 1450.46 92.91 1446.36 93.5 1444.31 94.67 1442.71 95.85 1439.06 96.74 1436.55 95.86 1435.19 94.97 1432.9 95.56 1430.62 97.04 1428.11 98.51 1427.21 99.1 1426.06 99.1 1424.24 98.51 1423.1 94.69 1420.14 92.33 1417.85 91.44 1415.35 90.86 1413.75 91.45 1412.15 92.33 1411.01 96.75 1408.05 97.63 1406.91 99.11 1404.4 101.18 1395.05 101.48 1390.26 102.95 1381.6 105.61 1377.5 105.6 1376.13 106.78 1374.31 107.07 1371.11 107.08 1369.06 107.97 1361.31 109.15 1358.12 111.21 1355.61 112.1 1354.01 114.16 1349 114.75 1346.26 116.52 1343.76 120.35 1336.46 122.12 1333.95 124.48 1327.34 124.49 1323.46 125.07 1321.41 127.43 1317.76 127.73 1314.57 123.61 1290.85 122.43 1287.2 119.49 1279.22 116.26 1273.75 113.02 1271.01 111.84 1269.64 110.95 1268.28 109.78 1262.57 109.78 1259.61 109.78 1258.02 107.72 1251.4 106.84 1248.2 105.66 1246.61 105.07 1243.42 107.73 1236.12 105.66 1229.96 103.61 1224.49 102.72 1220.84 98.61 1207.39 97.43 1204.2 95.66 1201.23 93.6 1200.09 91.54 1197.81 90.36 1196.44 90.07 1195.3 90.37 1193.94 90.36 1191.2 91.54 1188 90.37 1182.76 91.54 1181.39 91.54 1179.8 91.55 1172.5 91.55 1169.31 90.67 1165.89 90.38 1161.55 88.91 1155.4 88.02 1153.34 85.37 1148.56 83.6 1146.73 82.13 1145.59 79.18 1143.76 78.3 1142.63 78.01 1141.49 78.9 1138.75 79.19 1137.38 79.19 1132.37 80.08 1130.54 82.43 1127.35 84.79 1123.25 85.68 1118.46 86.86 1111.16 90.1 1106.6 90.4 1105 91.29 1103.18 91.29 1098.17 91.29 1095.66 92.18 1093.15 93.35 1091.78 94.82 1090.64 97.48 1087 98.36 1084.48 97.48 1080.84 95.72 1076.05 92.47 1071.49 92.48 1070.12 93.36 1068.75 97.19 1066.47 99.55 1065.56 102.2 1064.42 104.27 1062.6 110.45 1059.41 112.82 1057.58 114.29 1055.99 115.47 1051.88 116.06 1050.28 117.83 1049.15 119.6 1046.86 120.78 1039.8 122.25 1036.61 123.13 1035.47 128.44 1031.82 129.63 1030.22 131.69 1027.95 131.98 1026.58 134.05 1020.88 141.71 1012.67 148.2 1003.55 152.32 998.53 155.28 996.03 159.1 993.52 163.53 992.15 165 991.47 165 989.65 163.53 988.28 161.17 986.23 159.11 984.86 156.16 984.17 149.09 984.17 139.07 983.02 134.95 981.66 132.88 979.15 133.18 976.18 134.06 975.05 135.84 974.13 141.43 973.22 145.26 971.85 146.15 970.49 147.33 969.8 150.87 970.04 155.87 971.18 160.59 973.46 165.01 974.37 169.13 974.83 174.44 974.83 177.97 974.37 181.8 973 183.28 971.41 185.64 967.99 186.52 963.2 186.52 961.15 185.94 954.99 185.94 952.94 185.94 948.83 187.12 940.4 188.01 936.29 190.96 929.91 191.25 927.86 192.44 921.48 192.14 919.42 193.32 915.32 197.45 907.79 197.16 905.29 194.5 905.97 191.26 906.88 188.91 907.34 185.37 906.88 181.54 905.74 173.88 903 162.98 900.94 159.15 900.03 148.54 899.57 142.65 899.57 139.7 899.12 136.16 897.97 134.39 897.06 133.22 893.41 133.51 892.27 134.99 891.59 138.53 890.22 140.59 889.99 142.65 889.31 158.57 886.12 164.16 884.76 170.36 882.25 178.01 876.32 181.85 872.22 183.33 869.26 187.16 858.08 187.75 854.21 188.04 850.56 188.05 838.47 188.35 833.68 188.94 829.81 188.94 827.76 189.84 810.43 189.84 802.67 189.84 793.33 191.32 781.7 191.32 772.57 189.86 756.84 188.39 745.9 187.8 739.74 186.62 734.72 186.92 730.61 187.81 729.03 188.1 727.2 188.99 722.18 187.82 705.31 186.35 694.36 184.59 686.83 177.81 664.95 172.51 658.1 169.57 654.68 167.21 653.31 163.68 651.72 161.32 651.26 159.85 651.49 157.49 652.17 153.96 654.68 150.42 657.19 148.35 658.1 146.88 658.78 145.11 659.01 142.75 659 140.1 658.1 135.09 657.41 131.85 655.81 128.61 652.62 128.02 651.48 128.61 649.66 130.38 648.06 131.56 646.92 136.57 643.27 139.52 639.86 141.29 638.03 146.3 630.28 147.18 625.72 145.12 621.16 144.82 619.56 146.59 618.19 152.49 616.83 156.03 617.06 161.33 617.97 164.87 617.97 166.34 616.38 167.22 615.01 167.82 613.87 167.23 612.73 165.75 610.9 163.7 603.61 162.81 601.33 162.23 597.22 162.52 593.57 162.52 590.38 162.82 585.82 162.23 580.57 162.23 573.5 162.24 568.26 163.71 565.07 165.78 561.88 166.36 560.28 165.78 555.72 165.78 554.12 165.78 551.61 164.9 549.11 165.49 545.01 165.49 543.18 164.9 541.81 164.32 537.03 164.31 533.83 164.91 532.46 163.73 529.72 163.73 527.68 162.55 526.08 162.85 524.02 162.56 521.52 163.73 518.32 162.85 517.19 161.67 514.68 160.5 508.97 161.38 506.01 161.39 504.41 162.27 497.58 161.39 488.91 161.69 486.63 162.28 480.93 162.28 478.88 162.28 476.37 161.11 469.76 159.34 465.65 155.8 459.5 155.21 458.13 153.74 452.65 153.15 451.51 152.27 450.6 149.03 444.89 144.91 439.65 143.14 437.37 141.67 434.86 140.49 433.26 137.54 429.16 132.83 424.14 129 421.41 127.82 417.3 133.15 377.62 133.61 374.77 134.03 372.15 139.95 328.37 146.43 328.15 150.85 327.92 152.62 327.47 153.8 326.79 157.04 324.73 160.58 322.68 162.64 322.23 165.3 322 169.13 322.91 170.6 324.05 173.55 324.74 175.61 324.51 177.97 323.82 180.92 324.05 181.8 324.97 183.87 326.33 185.63 327.02 187.69 326.79 190.05 325.88 192.41 324.28 197.43 319.95 200.96 315.85 200.97 313.8 200.08 308.55 200.08 304.9 200.38 303.77 201.85 302.17 203.33 300.8 205.1 298.75 207.75 296.47 209.52 292.82 211 289.4 213.06 285.75 215.42 283.02 216.6 282.56 220.14 282.57 221.91 281.65 223.68 280.29 226.04 277.09 228.69 272.54 231.64 267.98 232.53 264.1 232.82 261.59 232.82 258.85 232.53 256.57 231.65 251.79 231.94 248.14 232.83 244.26 234.01 241.3 236.66 238.11 239.02 235.82 240.5 233.77 242.56 231.27 242.56 228.99 242.57 226.48 241.97 223.97 241.98 220.55 245.52 207.1 246.11 204.13 246.11 201.4 246.11 198.21 244.35 194.33 243.76 190.91 244.35 187.72 244.65 185.67 246.71 184.53 250.54 183.61 251.13 182.48 251.43 180.19 251.43 175.41 249.37 170.62 250.55 167.65 252.03 165.83 256.75 164.92 259.1 164.01 261.46 161.73 264.12 157.62 265.29 154.89 265.29 153.06 264.71 152.15 261.76 151.01 261.17 148.5 261.47 144.63 263.24 141.21 269.44 136.19 270.61 134.82 275.33 128.21 277.69 125.7 278.87 123.42 280.35 119.78 281.24 118.18 282.12 115.22 283 113.62 287.13 111.8 288.9 110.89 290.08 109.29 292.44 106.1 293.62 102.68 293.62 99.03 292.15 91.28 292.15 89 293.33 87.63 294.22 86.04 295.4 85.12 299.52 83.53 300.41 82.62 300.7 81.25 301.29 79.88 301.29 78.29 299.53 74.63 298.94 73.04 298.94 71.21 299.24 69.62 300.71 67.8 302.19 66.88 303.36 65.29 303.07 63.01 302.19 61.41 301.31 56.4 301.31 55.03 302.78 52.06 304.55 51.38 307.5 50.92 310.74 51.15 314.87 53.21 320.17 54.34 322.53 54.35 325.77 53.89 327.55 52.98 329.61 51.84 334.62 44.09 336.09 41.35 336.69 38.84 336.69 33.6 338.17 26.31 338.76 23.8 338.76 16.5 337.88 12.4 337.88 11.26 336.99 7.61 337.88 4.64 338.18 3.5 338.77 2.37 342.9 1 344.96 1 347.32 2.37 349.67 6.24 352.32 10.81 352.61 12.4 353.8 15.14 354.68 16.05 355.56 16.73 356.74 17.65 359.1 19.47 359.98 21.52 360.27 24.72 359.98 26.31 360.27 27.91 360.86 30.87 362.34 33.61 362.33 35.66 363.21 37.26 364.09 42.96 364.09 44.33 363.21 46.15 365.27 50.26 367.04 52.76 367.63 53.91 369.99 55.96 372.05 56.64 377.35 58.01 380.89 58.47 389.44 57.33 397.39 55.51 400.63 55.28 405.64 55.52 408.3 55.74 410.07 56.43 411.25 57.57 412.43 59.39 413.02 60.99 413.02 63.04 411.54 64.64 408.59 66.69 397.39 71.47 395.03 72.39 392.38 75.8 389.43 76.26 387.07 76.49 384.42 76.72 382.06 77.63 375.57 78.76 371.45 78.76 366.73 77.16 360.84 76.7 361.13 78.76 363.49 81.95 363.19 83.78 357 95.4 353.46 100.19 351.09 104.75 350.21 107.71 350.21 110.68 353.45 111.14 358.76 111.14 380.57 111.37 384.99 110.92 391.77 111.38 394.72 112.52 396.19 113.66 396.78 116.39 396.19 117.76 393.54 119.58 384.98 122.32 377.32 124.59 372.9 126.42 372.01 128.01 371.42 129.38 372.01 131.2 372.01 134.4 372.3 137.36 372.6 140.33 372.59 142.15 369.05 145.12 364.04 146.48 358.74 146.94 356.97 147.85 354.61 149.9 353.43 151.26 352.25 154.23 351.36 155.6 350.18 156.97 346.05 159.47 343.7 161.07 342.81 162.66 341.63 164.26 341.33 166.08 341.34 167.91 341.93 170.19 343.4 172.02 345.76 173.84 346.05 175.89 344.87 177.94 342.21 180.9 332.48 196.86 330.12 199.6 329.82 200.97 329.23 203.7 328.64 206.21 329.23 208.27 329.23 209.86 328.05 211.22 326.28 212.37 324.51 216.24 319.49 232.43 319.19 234.49 319.19 236.31 319.48 238.36 319.48 241.09 320.66 242.92 324.79 245.2 334.81 248.17 338.94 249.31 341.59 250.45 344.24 252.96 344.53 255.24 344.53 256.61 343.65 260.48 343.35 263.9 343.35 266.18 343.35 268.47 344.23 270.97 345.41 273.03 346.59 274.16 348.35 275.3 351.01 275.08 354.54 273.94 355.72 272.8 356.91 270.98 357.79 268.24 358.67 265.74 362.21 259.8 365.75 254.79 367.23 252.06 367.53 249.32 369 247.04 371.07 246.13 372.83 245.44 374.31 245.22 377.55 244.53 379.02 243.16 380.2 242.48 382.86 241.8 385.21 241.57 387.28 242.03 389.34 242.94 391.7 244.76 393.76 245 397.3 244.54 401.72 243.4 406.43 241.35 408.8 239.98 411.45 237.93 412.92 235.66 415.28 232.46 417.05 231.55 420.29 231.32 422.36 231.55 425.6 231.78 427.08 230.87 429.73 230.42 432.67 231.1 433.56 231.78 433.55 234.29 433.55 236.57 434.15 237.71 435.32 239.08 437.68 239.99 441.81 242.27 443.57 244.1 444.75 245.47 442.98 248.89 439.45 250.71 435.61 251.85 431.49 252.76 426.77 254.12 425.59 255.04 423.82 256.86 422.93 258.68 421.75 260.74 423.52 260.74 426.76 260.51 429.12 260.51 430.3 260.97 431.48 262.11 431.77 263.48 428.83 266.67 423.81 270.09 420.57 272.83 416.44 275.1 414.97 276.02 411.72 276.92 408.18 277.84 404.35 278.07 401.41 278.52 399.64 279.43 398.46 280.34 398.46 281.94 399.34 283.54 402.88 287.64 409.95 290.84 414.96 292.21 416.72 293.34 419.68 295.4 420.56 296.54 421.44 298.37 419.37 306.8 417.6 310.22 417.01 312.04 417 315.69 418.48 320.02 418.48 321.85 415.23 330.97 412.58 336.21 412.28 338.26 411.1 339.86 409.33 344.88 409.32 346.47 411.69 346.47 415.81 344.88 421.71 344.42 428.19 344.42 438.21 344.89 442.04 345.34 445.58 345.11 447.64 343.52 450.3 338.28 450.89 336 450.3 332.12 449.13 327.33 447.06 323.68 446.48 320.95 447.66 318.89 450.9 315.25 457.09 309.32 461.22 306.81 464.17 305.9 466.53 305.68 468.29 305.9 470.95 305.22 476.26 302.49 478.62 304.08 480.38 305.45 481.56 306.14 483.33 306.82 487.16 307.05 488.63 307.51 489.22 310.02 488.62 317.08 488.92 319.36 490.69 321.42 493.05 323.24 493.93 324.61 495.11 325.98 494.22 327.12 490.68 330.99 489.21 332.59 487.73 336.01 487.14 340.11 488.32 346.04 491.84 365.65 493.02 369.76 493.61 372.95 495.08 378.65 493.6 390.74 493.6 393.47 493.59 399.86 493.59 403.51 493 406.47 493.58 413.31 492.99 421.06 492.98 424.71 495.05 428.36 495.05 433.15 494.46 436.57 494.45 441.36 495.04 444.09 493.86 448.65 493.56 450.25 492.67 456.86 491.79 459.82 490.02 466.89 488.54 469.4 487.66 471 483.82 477.61 483.82 479.43 483.53 481.71 483.52 486.73 483.82 489.46 485.29 492.88 485.28 494.71 485.28 496.08 485.28 497.9 483.81 503.15 482.92 506.34 479.68 509.99 477.32 513.41 477.32 515.68 478.19 518.65 478.49 520.7 480.26 522.3 483.21 524.12 485.27 524.81 487.33 524.12 489.1 522.07 491.17 519.79 495.29 517.06 500.9 513.64 503.84 512.96 507.67 512.96 510.33 513.41 516.51 515.47 520.64 517.52 528.01 520.26 532.13 521.18 540.97 522.77 550.4 522.32 558.65 522.56 560.42 523.24 561.3 524.15 560.71 525.98 555.11 530.76 551.57 531.44 544.8 534.18 536.84 536 532.12 536.22 525.05 538.5 523.87 539.41 523.57 540.56 525.63 540.56 527.99 541.47 528.88 542.38 532.12 543.98 532.71 545.57 531.23 547.17 526.22 549.22 520.62 552.87 517.67 554.01 508.83 558.33 507.65 561.07 502.34 561.75 500.28 562.89 495.26 566.99 490.55 568.82 486.12 570.87 482.89 571.78 481.11 572.01 479.05 572.69 480.53 574.28 482.88 574.75 494.09 575.2 496.44 575.66 500.27 578.4 501.74 579.54 502.03 580.91 501.74 584.1 500.56 585.7 500.27 586.6 499.08 588.2 499.08 590.26 499.08 592.31 502.61 597.55 503.79 598.24 504.97 600.06 505.26 600.97 506.15 603.25 507.03 607.82 511.74 616.03 517.04 622.87 521.16 626.98 528.53 632.45 529.12 633.6 530 635.42 530.59 637.47 527.64 641.12 524.4 641.57 520.86 640.89 507.6 636.78 503.48 634.72 499.06 632.44 484.62 623.77 482.27 621.72 479.61 620.58 478.14 618.98 475.79 617.15 473.13 614.64 470.78 613.5 468.71 613.05 466.36 613.05 457.52 613.95 451.03 617.83 447.2 620.79 443.36 624.89 441.89 628.08 441 629.23 440.7 631.05 440.71 635.84 441 637.89 441.88 639.48 447.78 645.19 451.01 646.33 458.67 648.84 460.74 650.67 462.21 652.49 464.86 657.06 466.04 657.97 468.98 659.8 471.63 660.71 475.76 661.85 480.48 661.85 486.96 660.26 490.2 660.26 505.82 667.56 504.93 670.3 503.45 671.43 495.21 674.17 493.73 674.16 489.9 675.31 489.01 676.9 486.95 679.41 485.18 679.87 484 681.24 481.65 681.92 479.28 682.6 476.93 682.37 475.16 683.05 472.8 683.05 469.56 683.05 467.2 682.37 461.6 681 457.48 680.77 455.41 681 452.17 682.13 452.17 684.64 454.23 686.93 458.36 695.36 461.01 697.42 462.48 699.01 463.36 701.07 464.53 711.55 466.3 717.25 467.47 720.9 468.36 722.04 469.83 724.09 472.78 725.01 485.16 722.28 500.49 716.81 507.56 711.57 510.51 710.43 513.75 708.38 515.23 707.92 517.29 707.46 519.06 708.15 519.64 709.97 519.93 711.8 519.64 713.17 516.99 719.78 510.2 726.62 507.25 730.04 500.47 745.09 497.22 750.56 495.45 757.4 493.68 761.73 488.37 776.77 487.19 780.42 485.71 785.21 485.12 788.86 484.53 792.05 484.81 807.79 485.69 812.57 487.75 816.91 488.34 819.42 488.35 821.01 487.16 825.12 487.16 827.16 487.45 830.81 489.8 843.81 491.27 852.48 491.56 859.09 491.85 864.11 494.2 878.47 495.08 881.67 495.08 886.69 495.38 888.96 495.67 890.79 496.85 893.07 500.67 896.94 503.33 898.77 505.69 899.91 509.81 901.96 517.17 903.34 522.48 903.57 527.78 903.34 536.92 901.75 545.47 899.47 549.3 899.24 556.37 897.65 560.49 896.28 561.68 895.37 565.22 891.27 567.28 890.59 568.75 890.58 570.81 892.41 571.99 894 572.58 895.83 572.87 899.02 571.69 901.07 563.73 904.95 556.66 907.68 549.29 911.33 546.05 912.24 542.21 912.92 543.4 913.37 553.42 914.52 555.77 915.21 557.54 916.8 558.72 917.48 559.6 920.22 559.6 921.82 559.31 922.5 558.71 923.19 555.77 924.55 547.8 926.61 543.09 927.29 536.61 927.29 530.42 927.05 525.71 926.6 521.29 926.36 515.98 926.37 510.38 927.73 509.2 928.64 507.14 932.06 504.78 940.04 504.48 944.15 505.06 955.09 506.53 961.93 508.01 964.22 510.65 966.95 518.02 972.65 520.67 974.25 521.26 975.62 523.91 980.86 525.97 984.05 529.79 988.39 531.86 990.44 533.92 992.27 537.75 995.24 539.22 996.38 540.1 997.75 540.69 998.88 540.1 1000.25 538.63 1001.17 535.98 1001.39 520.07 1001.61 518 1002.07 513.58 1003.43 512.4 1004.58 508.57 1008.22 507.98 1009.59 507.69 1011.19 507.69 1012.55 508.57 1015.29 508.86 1016.89 507.97 1022.13 507.38 1027.15 507.08 1038.78 507.96 1044.71 508.84 1050.64 511.48 1058.16 515.61 1064.55 519.72 1079.83 519.42 1093.28 519.12 1096.47 519.13 1098.52 517.94 1107.87 517.05 1111.07 514.7 1118.36 514.4 1122.47 515.28 1128.62 514.69 1135.46 515.85 1158.49 515.26 1170.12 515.54 1175.83 513.78 1186.76 513.18 1191.33 512.88 1200.68 513.18 1208.2 512.58 1217.09 514.05 1223.93 515.52 1227.58 517.29 1230.32 518.17 1232.37 519.93 1234.43 522.29 1235.56 525.24 1236.02 527.3 1236.02 529.36 1234.88 563.85 1220.99 567.09 1220.3 569.44 1219.39 572.69 1218.94 575.34 1218.94 577.1 1220.08 577.4 1221.9 577.1 1223.73 574.45 1227.37 570.62 1230.79 570.03 1231.48 572.38 1237.86 565.31 1239.69 560.59 1239.69 558.53 1240.82 557.94 1242.19 554.11 1246.98 549.69 1250.63 544.97 1252.68 543.2 1252.68 539.66 1252.9 536.43 1252.67 535.25 1252.9 534.66 1256.55 533.18 1257.69 532 1258.83 528.76 1260.42 527.58 1262.47 527.87 1267.03 530.22 1277.3 530.22 1285.51 531.1 1290.52 531.1 1292.57 532.87 1296.45 534.04 1298.05 534.63 1299.19 537.28 1300.78 539.93 1301.93 552.01 1303.98 558.79 1305.35 560.85 1306.04 561.73 1307.41 561.73 1308.55 562.61 1311.74 563.79 1313.11 564.97 1314.25 567.33 1314.71 572.62 1317.45 575.57 1317.45 583.23 1316.76 588.24 1315.85 591.49 1315.85 594.43 1316.31 596.79 1317.45 599.44 1321.56 600.91 1323.61 602.08 1325.21 603.56 1326.12 607.97 1328.86 610.04 1332.28 611.21 1336.61 611.21 1338.21 611.5 1340.03 614.16 1342.77 617.99 1346.42 618.87 1350.07 618.86 1352.34 617.98 1353.03 615.62 1353.26 612.09 1353.26 607.97 1352.11 605.02 1350.06 599.72 1345.5 597.36 1342.54 593.53 1339.11 591.18 1338.65 589.41 1339.57 583.22 1340.7 580.57 1340.48 576.74 1339.79 572.61 1338.19 567.61 1337.73 563.48 1337.73 561.71 1338.19 562.89 1340.7 564.66 1341.16 565.84 1342.3 568.49 1344.35 569.37 1346.4 569.37 1348 569.37 1350.27 567.6 1351.19 564.94 1351.19 560.82 1350.73 556.4 1350.5 551.98 1349.13 545.5 1347.99 538.73 1347.99 535.48 1347.3 531.95 1345.7 529.01 1345.02 526.65 1344.56 525.17 1345.48 522.52 1347.53 521.05 1348.21 518.98 1350.26 517.8 1352.77 515.45 1358.47 514.26 1365.08 513.08 1384.46 513.66 1387.88 514.25 1391.98 514.54 1400.88 514.53 1407.72 514.53 1415.93 514.23 1428.47 514.52 1435.54 515.4 1443.52 515.98 1452.87 518.33 1471.34 519.79 1488.22 521.26 1499.62 522.14 1503.04 522.73 1506.46 525.67 1511.02 529.79 1516.95 530.97 1519.46 526.54 1524.02 526.25 1525.39 527.42 1534.05 528.01 1540.43 529.19 1544.54 530.07 1548.19 532.12 1553.89 535.95 1569.4 537.13 1572.59 537.71 1576.47 538.59 1585.58 539.47 1588.78 538.59 1592.2 540.05 1598.13 541.82 1607.48 543.58 1609.99 544.76 1610.67 546.53 1611.13 549.18 1611.13 553.3 1611.82 555.96 1612.73 559.79 1613.41 561.85 1613.41 563.32 1614.78 562.73 1617.29 562.72 1619.8 562.73 1620.94 565.38 1623.68 565.96 1624.82 565.37 1627.55 558.6 1631.2 562.71 1643.74 573.9 1659.25 575.66 1663.58 582.73 1674.3 585.97 1681.37 587.14 1685.71 588.03 1689.58 590.08 1697.56 591.26 1700.07 594.49 1703.04 595.38 1704.63 595.96 1708.51 598.32 1716.49 602.14 1732.46 606.26 1743.17 609.19 1751.39 613.31 1761.42 615.66 1767.8 616.55 1770.31 618.02 1771.91 620.08 1775.1 620.67 1776.47 620.96 1780.12 620.08 1781.26 619.78 1782.17 619.78 1784.91 620.07 1792.43 622.13 1795.86 622.72 1797.91 624.19 1799.73 625.66 1801.1 630.37 1800.88 634.21 1799.28 636.26 1799.28 638.62 1801.33 639.8 1803.39 640.09 1806.58 640.09 1810.23 640.09 1815.02 639.79 1817.52 640.09 1819.12 640.67 1820.49 639.79 1825.05 640.08 1829.38 640.67 1832.12 640.67 1833.94 638.89 1836.68 638.89 1840.1 639.77 1843.51 639.48 1844.89 638.89 1846.48 630.93 1856.74 629.46 1858.11 628.57 1859.71 629.16 1861.53 626.8 1866.31 624.15 1869.96 623.56 1872.93 623.26 1877.71 624.14 1884.33 630.32 1900.52 634.14 1908.28 637.67 1914.43 638.56 1916.03 638.84 1917.4 638.85 1919.22 638.55 1920.82 636.19 1925.15 635.6 1926.29 635.6 1927.89 636.19 1929.25 638.25 1931.53 639.43 1933.59 639.43 1935.64 636.18 1938.6 635.3 1940.88 634.12 1947.95 632.05 1950.69 630.57 1954.33 629.4 1958.21 629.1 1960.03 629.39 1962.09 629.39 1964.14 630.57 1967.79 632.92 1970.3 634.39 1970.98 635.87 1970.98 640.88 1970.53 643.53 1970.98 646.48 1971.67 647.95 1973.04 649.12 1974.64 648.24 1977.37 646.47 1981.93 642.63 2001.99 641.44 2006.78 641.44 2012.94 641.14 2014.99 641.44 2016.13 640.85 2018.18 638.78 2021.37 635.25 2023.88 634.07 2025.93 635.24 2030.5 635.24 2032.09 635.54 2033.69 637.01 2034.83 637.6 2036.2 638.77 2036.88 649.67 2038.02 654.97 2039.16 657.62 2040.31 658.21 2042.59 654.97 2045.09 653.5 2047.6 652.91 2048.28 650.25 2052.16 649.07 2056.26 648.48 2059.68 648.19 2062.19 649.36 2066.98 651.71 2078.84 653.47 2085.45 654.06 2091.16 654.06 2093.21 654.65 2095.94 654.94 2098.91 654.64 2103.7 654.94 2106.66 655.52 2108.71 656.11 2113.96 660.82 2123.31 662.88 2127.18 666.11 2131.06 669.65 2136.31 672.59 2140.41 674.35 2143.61 677 2148.85 678.18 2152.5 679.94 2156.15 680.82 2159.57 682.59 2163.22 684.06 2168.92 685.53 2170.98 686.71 2173.03 690.53 2177.13 694.65 2182.84 697.89 2190.59 698.77 2194.24 700.83 2199.03 701.12 2201.08 701.12 2208.84 700.23 2213.85 700.82 2215.67 704.05 2220.69 706.71 2223.89 709.35 2225.94 717.01 2230.5 719.66 2233.47 722.6 2239.85 723.19 2244.42 723.77 2248.06 723.77 2252.62 721.7 2260.61 721.7 2264.48 722.58 2266.76 721.4 2274.51 720.81 2276.57 719.92 2279.53 718.45 2281.81 715.8 2284.31 708.73 2289.33 707.84 2290.24 709.9 2295.26 713.72 2301.18 717.84 2309.4 719.02 2312.59 722.55 2318.52 723.14 2319.66 726.97 2319.89 734.92 2318.53 738.45 2318.3 741.4 2319.21 742.28 2320.35 743.17 2321.49 742.58 2323.09 740.51 2326.05 738.15 2330.16 738.74 2331.53 741.39 2334.72 742.86 2336.77 743.75 2338.6 744.33 2339.96 745.22 2342.01 746.39 2345.89 746.39 2348.63 745.5 2353.65 744.02 2358.44 743.73 2360.94 742.84 2364.13 742.84 2365.96 743.13 2367.55 744.01 2370.06 745.48 2378.5 746.66 2381.92 747.83 2385.34 748.42 2388.08 751.66 2394.92 751.66 2397.2 752.53 2404.49 752.53 2406.55 751.94 2408.37 751.94 2411.11 752.24 2412.71 751.65 2414.3 749.58 2418.63 748.11 2423.42 748.11 2425.47 748.4 2428.89 751.63 2433.45 752.51 2440.3 753.39 2442.12 755.16 2443.72 756.93 2446.22 760.17 2448.05 765.17 2450.33 768.11 2452.39 770.18 2455.35 770.17 2456.95 771.35 2459 773.12 2461.05 775.77 2461.97 777.24 2463.34 777.83 2464.7 779.89 2467.21 780.47 2477.93 781.05 2479.75 781.35 2482.72 781.64 2485 784.58 2492.07 784.58 2493.9 782.52 2495.26 779.28 2497.09 775.15 2498.68 771.32 2500.5 770.14 2501.64 768.96 2503.24 767.2 2505.75 765.72 2508.25 765.72 2513.04 765.71 2516.24 766.6 2519.88 767.18 2523.31 769.24 2527.18 774.54 2535.39 779.84 2542.01 783.37 2545.43 784.54 2547.71 787.78 2549.77 789.55 2550.9 789.84 2553.87 788.96 2555.92 786.6 2557.74 783.36 2560.25 782.77 2561.39 782.47 2568.23 781.29 2569.83 778.93 2572.79 776.87 2573.47 775.69 2573.7 771.27 2573.7 768.92 2572.79 767.15 2573.24 765.68 2574.15 763.61 2576.89 762.44 2579.4 762.43 2581.45 763.61 2586.01 767.14 2593.99 771.26 2602.2 774.49 2606.08 775.96 2610.18 776.84 2612.01 778.02 2614.06 782.44 2620.68 782.73 2622.27 782.73 2628.43 783.31 2631.62 786.55 2637.32 787.72 2640.51 788.31 2642.11 789.78 2644.16 790.96 2648.96 790.96 2651.92 788.89 2660.81 784.45 2684.52 781.79 2698.66 781.2 2702.31 780.02 2704.82 779.14 2710.97 779.13 2714.16 778.84 2717.81 777.66 2718.95 777.36 2723.97 777.94 2729.67 777.94 2732.18 779.12 2736.28 780 2740.61 779.7 2742.67 778.52 2745.63 777.04 2752.47 775.87 2758.63 775.86 2766.61 777.04 2771.17 779.09 2778.92 779.98 2783.71 779.09 2787.82 778.79 2792.38 779.06 2813.58 779.06 2818.82 780.53 2822.47 781.12 2825.66 799 2883.63 Z"/>
</g>
</svg>