<?xml version="1.0"?>
<svg xmlns="http://www.w3.org/2000/svg" version="1.2" baseProfile="tiny" width="800" height="326" viewBox="0 0 800 326" stroke-linecap="round" stroke-linejoin="round">
<g id="huntingtonlake">
<path d="M 752.38 68.72 753.6 71.28 753.78 71.65 755.58 78.77 755.84 79.82 757.54 85.87 758.85 91.14 759.35 95.46 759.21 97.25 758.94 98.54 758.84 98.62 756.62 100.51 752.73 102.25 750.09 102.95 748.66 103.33 745.08 103.64 742.9 103.31 739.18 103.59 731.01 105.9 726.44 109.73 726.42 109.75 721.76 113.57 718.64 115.48 715.41 116.94 712.33 118.18 707.35 119.56 705.7 120.24 703.77 121.64 700.58 123.38 695.57 126.42 692.06 128.92 691.81 129.16 690.31 130.6 689.96 132.34 690.28 133.86 692.6 135.93 693.7 137.69 693.71 137.76 693.95 139.6 693.39 141.06 690.97 142.49 687.43 144.12 685.78 145.36 683.29 147.78 681.93 148.34 681.27 148.6 680.66 148.85 679.51 148.9 676.35 148.4 674.66 148.43 671.5 149.56 668.14 152.03 667.26 152.68 666.84 152.99 665.58 153.1 663.72 152.66 661.82 152.26 660.07 152.77 658.63 154.01 657.3 156.48 656.29 157.18 655.81 157.3 653.83 157.8 649.55 158.7 646.96 159.38 645.1 160.79 644.51 162.69 644.93 164.49 645.92 165.49 647.74 166.61 650.73 167.23 652.77 167.5 657.36 167.53 671.4 167.06 676.21 166.57 679.19 166.51 683.09 166.73 691.69 167.11 697.69 167.69 699.18 168.18 700.78 168.7 703.63 170.43 706.97 171.83 712.38 172.92 716.83 173.08 721.19 172.96 723.85 173.07 725.75 173.51 726.28 174.08 726.24 174.21 726.17 174.47 722.98 175.98 720.88 177.56 720.71 178.4 720.99 179.35 722.99 181.54 724.65 183.33 728.06 185.62 729.1 186.4 729.68 186.83 729.92 187.5 729.89 188.12 729.12 189.63 729.51 190.7 731.16 191.65 733.3 191.81 735.34 191.47 738.6 189.73 739.97 189.51 741.51 189.73 742.98 190.18 744.81 191.63 746.67 192.36 749.87 193.28 750.22 193.61 750.22 194.01 749.28 194.46 745.03 195.5 743.63 196.06 742.37 196.18 741.14 196.07 740.65 196.23 740.51 197.08 741.21 198.81 741.43 200.11 742.27 200.5 743.43 200.49 745.81 199.48 749.39 197.82 751.46 196.36 753.95 195.52 755.7 195.12 756.69 195.16 758.55 195.23 759.88 195.71 760.72 196.01 761.18 196.57 761.18 197.64 760.73 198.37 759.73 199.24 759.43 199.49 758.62 199.94 757.47 200.28 755.01 200.79 751.4 201.74 749.4 202.59 747.68 203.94 744.32 205.76 742.18 206.89 740.35 207.28 737.76 207.12 732.18 205.95 729.86 205.63 728.31 205.42 724.27 205.43 721.29 205.15 718.52 204.7 716.73 203.59 714.37 202.36 712.44 201.86 711.35 201.63 708.54 200.71 705.35 199.99 703.47 199.46 702.36 199.15 699.73 197.69 698.81 197.13 697.69 197.02 696.39 197.7 696.25 198.54 696.85 199.55 696.75 200.44 695.27 201.01 693.06 201.29 690.75 201.27 686.42 199.26 683.96 197.46 682.35 195.9 681.22 192.7 680.79 191.97 679.36 191.81 677.99 192.37 676.76 194.28 675.85 195.01 674.8 195.2 673.57 195.09 670.9 194.42 664.13 193.93 659.81 193.88 655.84 192.9 653.49 192.91 649.31 193.36 647.03 194.54 644.44 194.72 643.77 195.39 643.5 197.97 643.01 199.32 643.05 199.99 643.96 200.55 646.31 201.39 647.76 202.79 648.01 203.32 648.67 204.75 648.64 206.54 647.07 209.29 646.76 212.38 646.62 214.96 645.44 216.87 644.99 220.51 643.69 222.65 641.94 224.27 640.96 224.5 640.4 224.28 639.73 224.22 639.03 224.56 637.56 225.21 636.71 224.98 634.07 223.87 630.74 222.47 626.56 220.17 623.54 218.55 620.9 216.4 619.6 214.43 619.59 214.41 618.93 212.19 619.07 211.18 619.84 209.84 620.36 208.43 620.18 207.03 618.95 205.75 617.75 205.07 615.08 204.63 612.21 204.74 610.87 204.52 609.5 203.4 608.16 201.89 606.58 198.81 605.63 197.3 603.59 196.34 600.67 195.65 595.16 195.04 589.16 194.26 586.31 193.15 585.5 192.53 583.18 190.77 580.58 189.65 577.04 189.65 576.1 189.34 575.35 189.1 573.91 187.92 571.2 185.74 567.23 184 563.65 183.03 559.61 182.98 555.05 183.66 550.18 184.73 548.56 185.66 547.41 187.23 547.13 188.38 546.54 190.82 545.45 191.55 543.51 191.98 543.42 192 539.94 192.01 533.94 191.23 527.72 189.64 527.03 189.34 525.16 188.53 520.34 185.06 517.39 183.32 511.49 181.74 507.77 181.4 505.45 181.46 501.52 182.03 497.63 183.49 493.32 186.73 491.08 187.63 490.7 187.76 485.04 189.77 481.33 190.84 478.98 191.13 476.94 191.38 472.55 191.39 469.75 191.16 465.11 189.72 460.79 188.71 457.94 188.07 456.5 188.19 454.61 188.98 450.58 190.21 445.32 191.18 439.63 191.1 435 191.45 432.82 192.4 432.05 192.63 430.09 191.9 427.77 191.79 424.86 192.53 423.73 193.2 422.54 193.96 418.68 194.14 410.4 195.38 403.88 196.6 401 196.88 399.18 197.62 397.85 198.63 395.85 199.64 391.19 201.27 387.08 202.49 385.05 202.83 381.75 202.94 375.93 204.75 365.55 208.49 360.71 210.91 358.93 212.49 357.38 212.77 352.09 216.2 344.71 218.79 342.2 219.67 336.69 221.08 331.86 222.57 322.35 224.72 316.95 226.86 312.21 227.62 308.42 228.02 305.72 228.03 304.32 227.58 302.38 225.96 301.6 223.61 299.57 222.94 296.93 222.97 293.64 223.76 290.69 224.33 286.73 225.79 284.2 226.97 281.05 229 278.21 230.77 275.97 231.11 275.72 231.14 272.46 231.56 271.05 231.23 266.67 230.51 261.93 230.12 257.68 230.22 252.14 230.84 245.96 232.26 243.79 233.1 240.67 234.64 237.97 236.33 236.15 236.51 234.25 236.59 232.11 236.68 230.33 236.96 228.78 238.15 225.35 240.26 221.42 242.06 219.35 242.62 213.95 243.58 210.52 244.65 206.52 246.09 204.49 247.22 200.88 250.11 198.08 252.39 195.8 254.69 193.91 256.38 191.01 258.12 188.62 258.83 184.45 260.29 181.15 261.42 178.94 261.54 177.75 262.04 176.84 263.56 176.43 267.77 176.51 269.06 178.69 271.24 180.69 272.19 181.61 272.75 181.75 273.04 182.03 273.59 181.68 274.32 178.88 275.72 177.41 276.96 175.09 277.97 173.73 278.99 172.71 280.78 172.54 281.19 171.84 282.86 171.53 283.15 168.66 285.75 166.03 287.11 163.23 289.02 160.08 291.88 155.86 290.54 150.24 288.73 147.15 288.12 143.85 287.45 140.8 287.12 135.71 287.22 131.57 287.73 127.75 288.64 123.26 290.32 119.3 292.13 115.1 294.85 111.03 297.83 107.81 300.42 104.2 300.76 97.57 300.97 92.62 300.31 85.76 297.35 83.79 296.12 82.81 295.9 80.92 296.43 77.69 298.06 75.46 299.92 73.74 302.28 71.93 307.55 69.77 311.6 68.75 312.61 61.5 314.84 60.69 315.06 59.29 315.68 56.76 316.7 45.47 320.06 36.22 322.43 30.99 322.89 27.52 324.38 25.63 325 25.57 324.91 23.41 321.53 24.46 320.68 25.61 319.95 26.8 316.87 27.52 314.12 27.38 311.71 26.88 310.42 26 309.18 24.56 308.4 22.8 307.84 22.59 306.44 22.09 304.59 20.72 302.24 19.02 300.06 17.13 298.32 13.05 295.86 14.31 294.68 17.81 291.82 24.18 286.87 29.82 283.07 31.92 281.95 36.26 279.86 41.52 276.32 45.3 273.12 45.93 272.19 45.85 271.49 45.64 270.65 44.41 269.7 42.86 268.86 40.44 267.85 36.26 266.01 34.01 264.84 32.67 263.94 32.67 262.48 33.43 259.85 34.16 257.15 35.55 253.62 35.37 252.05 33.37 249.86 30.62 248.58 29.57 247.57 29.53 247.09 29.49 246.56 30.47 244.26 31.69 242.41 34 238.87 33.77 234.55 31.47 228.22 30.35 226.82 27.96 225.03 24.23 223.72 21.21 221.59 17.9 219.42 14.17 218.24 11.86 217.74 7.72 217.22 5.68 216.27 4.06 215.04 1.81 214.48 1.14 214.15 1 213.14 3.17 212.8 6.19 212.9 9.35 213.29 14.8 215.33 15.92 215.49 17.96 214.87 19.85 214.92 21.96 215.59 24.21 216.93 26.46 218.84 32.22 221.27 36.58 223.16 37.57 223.39 40.16 222.2 41.38 220.63 42.88 218.27 46.58 215.23 46.74 215.1 52.73 211.44 59.38 207.45 61.56 206.09 65.16 203.48 68.98 201.79 71.51 201.17 73.19 201.05 73.96 201.05 75.09 202.17 75.94 202.79 78.89 203.06 87.31 202.85 90.4 202.67 93.97 201.49 98.85 199.35 101.09 198.92 109.97 198.74 114.78 198.84 118.43 198.47 126.14 196.72 126.91 196.72 128.39 196.72 129.66 197.22 132.75 199.51 135.95 203.07 138.34 204.24 142 204.68 155.93 204.8 171.2 204.82 178.78 204.62 184.81 203.76 193.83 201.03 202.21 200.06 205.51 199.1 210.35 197.72 214.8 196.14 219.92 193.44 227.7 190.31 232.26 189.63 238.92 187.49 244.01 185.88 246.43 184.98 247.61 184.98 247.76 184.98 250.68 185.3 253.59 185.3 256.12 184.96 259.24 184.2 260.99 183.94 265.2 182.73 273.65 180.98 282.67 178.8 286.88 177.73 292.6 175.87 294.94 175.36 297.43 174.15 299.18 171.9 299.88 171.56 300.87 171.39 301.71 171.73 303.18 172.34 305.61 172.68 308.63 172.34 311.64 171.49 316.97 169.26 324.4 166.34 334.92 162.19 342.29 158.99 345.4 157.13 350.14 154.38 351.89 153 354.13 151.75 354.41 151.59 356.2 151.2 357.2 151.07 364.87 150.12 370.69 149.57 375.22 148.33 379 146.53 380.68 144.4 382.12 142.49 385.48 140.01 387.55 138.86 392.91 136.89 398.45 134.69 400.07 133.88 401.36 133.23 403.92 132.61 411.01 131.11 414.76 129.65 419.53 127.51 424.93 124.05 428.88 118.44 430.24 115.01 430.02 112.94 428.93 110.25 427.31 108.79 426.12 108.35 425.87 107.79 426.4 107.5 427.91 107.39 429.45 107.39 431.1 107.89 432.14 108.63 433.38 109.51 434.13 110.69 434.48 112.15 435.05 113.61 436.21 114.5 437.19 115.34 437.26 115.96 436.47 120.5 436.68 121.51 437.98 122.12 442.23 122.37 444.9 121.8 445.74 121.86 446.97 122.42 449.74 122.25 454.37 121.28 458.58 120.27 463.95 119.17 472.02 116.46 475.77 115.73 480.01 114.46 483.92 113.05 485.03 112.66 491.17 112.2 497.17 110.2 503.48 108.11 509.23 105.64 514.14 104.03 516.11 103.57 517.72 103.18 519.27 103.07 520.88 103.4 523.09 104.24 524.11 104.86 524.85 104.86 525.76 104.46 529.09 102.04 530.28 101.65 530.77 101.58 535.86 100.88 541.16 100.76 545.13 100.03 549.2 98.03 551.13 96.81 552.49 95.95 555.36 93.93 560.66 92.01 565.39 89.99 569.99 87.04 575.45 83.1 576.92 81.47 578.71 79.45 580.04 79.23 581.41 79.23 583.27 79.45 587.24 80.36 589.73 80.08 591.59 79.41 592.33 78.62 592.29 77.05 591.44 75.59 590.46 74.59 588.45 73.02 588.2 71.65 588.52 69.82 588.59 68.9 588.09 67.83 586.86 65.59 585.52 64.13 583.55 62.71 582.99 62.28 582.67 61.33 583.02 60.21 583.54 59.88 584.07 59.31 584.66 59.06 585.33 58.78 586.1 58.78 587.16 58.92 588.56 59.05 589.97 59.44 591.16 59.86 593.59 61.07 594.75 61.88 595.73 62.69 596.68 62.77 597.56 62.63 599.62 62.06 601.69 61.05 604.18 59.7 607.83 58.32 609.83 57.7 611.51 57.45 613.97 57.42 617.83 57.02 629.94 56.81 633.45 56.35 635.1 55.96 636.44 55.96 637.42 56.12 638.19 56.51 638.65 57.55 638.97 58.59 639.18 59.96 639.04 60.63 638.7 61.45 638.27 61.9 638.07 62.26 637.86 63.38 637.61 64.56 637.05 65.21 636 66.55 634.99 68.8 634.78 70.14 634.79 71.18 634.71 71.65 634.4 72.72 633.14 74.69 631.6 75.76 631.43 76.54 631.68 77.16 633.33 77.94 636.28 78.28 639.08 77.85 644.07 77.28 646 76.44 649.53 73.63 651.33 71.65 651.92 70.46 652.47 69.36 653.77 66.5 655.79 62.21 656.53 61.34 659.06 60.63 664.56 59.95 667.09 59.5 668.99 59.22 670.88 59.41 673.94 59.69 676.01 59.49 684.19 58.75 689.83 57.65 692.46 56.77 693.87 55.9 694.99 54.69 695.2 53.26 695.19 50.32 695.36 49.73 696.24 49.5 697.93 49.67 698.25 49.7 700.95 49.92 704.18 50.39 708.43 50.58 714.43 51.02 719.55 51.01 720.64 50.73 722.08 49.41 723.02 48.35 724 47.81 725.86 47.08 729.48 45.61 729.96 45.29 731.48 44.3 734.56 41.71 735.92 39.58 739.21 36.1 742.65 33.29 748.99 28.34 753.48 23.97 755.05 22.34 756.42 21.61 757.58 21.24 758.35 21.16 760.46 21.1 763.48 21.12 764.77 20.95 765.69 20.89 766.56 20.98 768.29 21.67 770.78 23.3 771.8 23.66 773.07 23.52 775.45 23.18 776.47 23.29 778.19 23.65 779.1 23.74 779.73 23.62 781.03 22.55 783.62 19.52 787.79 14.38 790.48 9.53 792.37 7.15 795.87 1.81 796.19 1.11 796.5 1 797.07 1.05 798.44 2.12 798.93 2.51 799 3.01 798.76 3.6 797.28 4.84 796.34 6.16 793.64 9.47 792.45 10.85 791.86 12.05 789.79 15.67 787.69 18.62 784.58 21.71 781.81 25.16 780.24 27.15 779.94 27.36 778.41 28.42 775.82 29.1 773.81 29.38 771.32 29.46 765.99 29.11 763.56 28.66 761.95 28.55 761.14 28.86 760.19 29.37 759.46 30.21 759.22 31.73 758.73 35.03 758.49 36.13 758.07 37.95 757.9 41.34 758.37 45.94 758.83 47.82 758.83 48.39 758.83 48.78 758.23 49.25 757.43 49.34 755.08 49.12 752.44 49.06 751.56 49.23 750.83 49.63 750.62 50.27 750.83 51.47 751.64 53.55 751.86 54.36 751.89 55.48 751.58 56.1 750.88 56.55 750.28 56.61 749.33 56.69 748.25 56.98 748.04 57.34 748.18 58.01 748.33 61.13 748.82 62.58 752.38 68.72 Z M 86.56 256.74 86.32 258.26 86.67 259.61 88.25 260.61 90.96 260.94 94.29 260.43 95.48 259.87 96.49 258.57 96.77 257.29 96.7 256.05 96.13 254.93 95.36 254.04 94.55 253.81 93.88 253.76 91.92 254.83 89.32 254.95 88.06 255.12 87.08 256.07 86.56 256.74 Z M 664.17 133.25 665.33 134.42 666.91 135.26 668.45 135.09 669.43 134.42 669.85 133.08 669.08 131.84 667.78 130.72 665.95 129.83 665 129.94 664.09 130.78 663.71 131.96 664.17 133.25 Z M 591.27 182.76 590.01 183.27 589.66 184 590.05 184.34 591.56 184.45 593.31 183.77 593.66 183.15 593.31 182.54 592.75 182.43 591.27 182.76 Z M 597.11 188.25 598.69 188.98 599.46 189.03 600.24 188.98 600.27 188.53 599.85 187.85 597.88 187.24 596.41 187.24 596.2 187.58 596.27 187.97 597.11 188.25 Z M 648.3 133.3 648.23 134.14 648.97 134.53 650.09 134.59 651.29 134.19 651.5 133.58 650.86 133.19 649.25 132.96 648.3 133.3 Z M 641.73 193.43 641.98 194.21 643.07 194.44 643.52 194.04 643.17 193.31 642.54 192.92 641.87 192.92 641.73 193.43 Z" fill-rule="evenodd"/>
</g>
</svg>