<?xml version="1.0"?>
<svg xmlns="http://www.w3.org/2000/svg" version="1.2" baseProfile="tiny" width="800" height="1396" viewBox="0 0 800 1396" stroke-linecap="round" stroke-linejoin="round">
<g id="eastparkreservoir">
<path d="M 495.08 1.75 495.88 2.43 496.76 2.38 497.33 2.13 498.21 2.05 499.16 2.05 499.46 2.23 499.84 2.65 500.11 2.88 501.29 3.05 501.94 3.05 503.97 3.35 505.22 3.51 506.75 3.68 507.63 3.83 508.83 3.98 510.06 4.11 511.44 4.36 513.22 4.68 515.17 4.91 516.42 5.03 516.82 5.08 517.08 4.81 517.5 4.36 518.43 4.26 518.98 4.38 520.38 4.53 520.98 4.61 522.69 4.86 523.39 5.01 525.24 5.41 526.5 5.68 527.27 5.88 527.97 6.01 528.95 6.34 529.6 6.49 530.33 6.56 531.38 6.76 532.28 7.04 533.44 7.31 535.01 7.84 535.74 8.19 536.84 8.64 537.64 9.19 538.21 9.77 538.82 9.91 539.78 10.65 541.26 11.98 541.44 12.74 542 13.12 541.62 14.92 540.59 15.82 540.85 16.33 541.2 16.68 541.23 17.36 541.15 18.01 541.38 18.39 542.58 18.51 542.86 18.24 543.13 17.98 543.73 17.76 544.46 17.48 545.06 17.31 545.39 17.38 545.81 17.88 545.46 18.18 544.74 18.61 544.01 18.81 542.98 18.86 542.58 19.19 542.43 19.86 541.88 20.72 541.33 21.49 540.88 22.14 540.93 22.99 539.22 25.25 539.26 28.06 538.56 28.81 537.23 30.46 535.57 31.8 535.29 32.14 534.78 32.53 534.54 32.87 533.84 32.83 533.78 32.68 533.65 32.4 533.62 32.19 533.53 31.92 533.31 31.84 533.24 31.54 533.13 31.28 533.18 31.07 533.33 30.86 533.33 30.61 533.13 30.45 532.88 30.47 532.45 30.54 532.42 30.31 532.44 29.98 532.54 29.73 532.71 29.59 532.94 29.38 533.14 29.23 533.16 28.7 533.24 28.34 533.23 28.09 533.12 27.89 532.65 27.78 532.33 27.8 531.51 28.19 531.15 28.38 531.03 28.59 531 29.3 530.48 29.68 529.91 30.22 529.54 30.59 529.3 31.03 529.16 31.21 529.01 31.43 529.2 32.23 530.92 33.85 531.24 34.77 530.68 35.17 529.48 35.89 529.16 36.82 529.4 37.14 530.08 37.7 530.24 38.38 530.28 39.62 529.84 40.3 528.76 40.86 528.48 42.15 528.72 43.19 529.16 44.19 528.96 45.67 528.64 47.12 528.12 47.92 528.16 49.4 528.12 51.61 528.2 54.61 528.12 56.22 528.2 56.98 528.92 60.38 527.61 64 528.2 65.75 528.12 66.32 528.16 67.28 528.28 68 528.2 69.48 528.32 70.2 528.84 70.85 529.44 71.25 530.04 71.05 530.4 70.93 531.2 71.21 531.64 71.73 532.61 71.89 532.93 71.65 533.57 71.49 534.33 71.33 535.29 71.41 535.89 71.57 536.61 71.53 537.62 71.29 538.18 71.05 539.06 71.29 540.15 72.22 540.98 71.97 541.87 71.85 543.07 72.13 543.91 72.65 544.19 73.61 544.07 74.85 543.75 75.98 543.23 76.66 542.15 77.3 540.66 77.78 539.98 77.82 538.22 78.46 537.66 78.18 537.5 77.74 536.13 78.02 535.25 78.42 534.41 78.5 533.65 78.74 532.21 79.5 531 79.9 530.16 80.63 529.28 81.55 528.96 83.11 528.84 84.23 528.92 85.07 529.12 85.72 529.44 86.36 529.85 88.06 530.28 88.2 531.92 89.6 535.65 89.56 536.16 89.98 537.38 90.33 537.82 90.77 538.46 91.37 539.86 91.85 541.83 92.53 542.55 93.33 542.55 94.33 542.27 95.66 541.71 97.5 541.02 98.86 540.22 99.82 538.66 100.31 536.82 100.87 533.21 101.47 529.88 101.79 526.91 101.47 525.35 101.31 524.23 101.55 523.15 101.87 522.26 102.59 522.26 103.47 522.26 104.47 522.42 105.92 522.7 106.16 522.82 106.8 522.54 107.4 522.5 108.8 522.81 109.4 523.51 109.23 523.99 108.44 524.79 107.8 526.03 107.72 526.83 107.76 527.43 107.48 528.04 106.88 529.76 106.08 530.72 105.48 532.04 104.99 533.09 104.59 534.05 104.67 535.29 104.99 536.41 105.44 536.96 105.93 537.5 105.92 538.06 106.36 538.86 106.92 539.86 107.96 540.54 108.6 541.43 110.29 541.47 111.45 541.06 112.69 540.82 114.13 540.58 115.02 539.62 118.62 538.62 122.95 537.18 123.71 536.41 124.27 535.89 125.64 535.81 126.16 536.13 127.36 536.45 128.76 536.53 129.93 536.65 130.61 537.54 131.45 538.82 133.17 539.62 134.41 540.26 135.62 541.06 137.14 541.43 138.42 541.43 139.55 541.02 140.91 540.38 142.59 539.86 143.83 539.06 144.88 537.74 147.44 537.34 148.64 537.46 149.69 537.74 150.37 538.14 151.05 538.38 151.81 539.02 152.49 539.58 153.37 540.3 153.97 540.98 154.78 540.98 155.26 541.22 155.98 541.67 156.46 542.19 156.98 543.03 157.58 544.06 158.23 544.95 157.94 545.55 157.78 546.2 157.42 546.92 156.94 547.44 156.26 548.32 155.82 549.64 155.74 549.84 155.5 550.36 155.1 551.29 155.06 552.05 154.98 552.73 155.18 553.37 155.26 553.53 154.7 554.37 154.42 555.62 154.5 556.18 154.7 556.7 154.42 557.42 154.1 558.26 154.14 559.1 154.38 559.7 154.7 560.51 154.98 561.11 155.54 561.67 155.78 562.75 155.94 564.11 156.38 564.97 156.89 566.64 156.8 567.88 155.74 567.6 154.58 567.4 153.97 568.24 153.49 569.85 153.05 570.89 153.01 572.56 152.61 574.26 152.21 575.02 151.49 575.62 150.21 576.38 148.56 577.26 147.84 577.54 149.12 577.72 150.73 578.23 155.46 581.22 156.59 588.21 159.23 584.76 159.03 583.32 159.43 581.59 160.19 580.83 160.99 578.83 161.71 577.38 162.43 575.86 163.07 574.62 162.99 572.31 161.34 570.73 160.15 569.22 161.62 568 162.38 566.95 162.98 565.64 163.26 564.42 163.32 563.73 163.32 562.59 163.14 562.05 163.1 561.27 162.92 560.17 162.95 559.39 163.35 559.06 163.8 558.68 164.47 557.64 165.13 557.12 165.55 556.64 165.85 555.86 166.31 555.34 166.83 555.13 167.11 554.38 167.83 553.6 168.31 552.88 168.91 552.19 169.29 551.38 169.8 549.99 170.78 546.96 173.21 546.57 173.8 546.42 174.42 546.45 174.66 547.26 175.21 547.8 175.45 548.63 176.01 549.63 176.23 550.88 176.25 552.97 176.41 553.95 176.49 554.92 176.61 555.71 176.97 556.7 177.26 558.53 177.75 559.34 178.11 560.4 178.2 560.61 178.53 562.38 179.45 562.83 179.44 563.78 179.87 563.96 180.26 565.01 180.83 565.64 180.83 565.82 181.01 566.72 181.53 567.09 181.47 567.28 181.74 567.52 182.2 567.43 183.15 567.51 183.75 567.85 184.76 568.23 185.51 568.6 186.11 568.9 186.59 569.6 186.95 569.93 187.49 569.85 188.79 569.9 189.7 569.79 189.93 569.46 190.41 569.48 190.81 569.34 191.4 569.07 191.48 568.66 191.46 568.44 191.07 568.45 190.6 568.44 190.05 568.39 189.21 568.35 188.44 568.23 188 567.34 187.49 566.27 186.7 565.72 186.09 564.79 185.73 563.96 185.73 561.85 186.23 561.21 186.09 560.7 185.67 558.95 185.27 557.55 184.89 555.43 184.43 554.1 184.37 552.79 185.1 550.68 184.67 549.26 184.71 547.68 184.43 545.92 184.55 544.73 184.71 543.71 184.91 542.48 185.22 541.8 185.72 540.94 186.21 539.61 187.42 539.4 187.93 539.08 188.76 538.69 189.25 537.89 189.97 537.4 190.71 537.26 191.19 537.32 192.12 537.47 192.78 537.58 193.44 538.27 194.92 538.69 195.85 539.3 196.69 539.65 197.38 540.21 197.81 541.06 197.56 541.56 197.77 541.82 198.12 542.12 198.07 542.66 197.92 543.97 198.39 544.6 198.63 545.71 199.43 546.46 200 547.32 200.51 548.17 201.26 549.17 201.98 551.57 202.58 552.86 202.9 553.68 203.32 554.16 203.82 555.77 205.29 556.2 205.83 556.94 206.34 557.77 206.78 558.22 207.05 558.62 207.48 560.4 208.81 561.27 209.02 563.28 210.11 564.05 210.58 564.56 210.91 565.03 211.02 567.52 210.94 569.04 210.67 569.66 210.5 570.5 209.9 571.55 209.71 571.75 209.81 572.71 210.05 573.59 210.07 574.33 210.1 574.86 210.16 575.7 210.16 576.3 210.07 577.77 210.24 579.35 210.07 581.39 210.95 582.22 211.02 584.09 211.32 585.67 211.55 586.35 212.08 584.62 212.9 583.79 213.05 581.31 212.53 579.28 212.53 576.35 212.53 575.15 212.9 574.02 213.5 572.22 214.4 569.81 215.38 567.26 215.31 565.68 215.01 564.78 215.53 562.97 216.73 562.97 217.19 563.58 218.99 563.5 220.49 564.78 222.37 564.33 223.87 561.25 220.27 559.83 219.34 558.69 217.64 557.64 213.8 555.98 212.3 553.22 212.1 551.27 211.05 549.68 210.85 546.59 211.7 543.81 212.23 542.75 212.23 541.48 211.7 538.85 210.33 536.28 210.61 535.44 210.89 534.51 211.07 531.9 212.49 530.99 212.64 529.9 213.73 528.1 216.36 527.27 218.61 526.59 219.67 526.29 220.94 525.77 222.82 525.47 225.15 525.69 227.11 526.14 228.23 526.82 230.41 527.35 232.37 527.35 233.57 526.82 235.45 526.22 237.1 525.99 238.15 525.92 239.88 524.57 241.38 523.14 242.66 518.48 245.14 517.5 246.72 517.58 248.75 517.42 249.35 517.05 250.85 517.5 251.76 519.3 253.11 520.88 255.21 521.63 256.57 522.54 258.67 523.51 259.72 524.79 261.53 525.62 263.33 525.92 264.61 527.5 265.58 528.25 266.11 528.9 267.56 529.68 269.27 530.13 269.72 530.95 271.37 530.43 273.1 529.75 274.53 527.35 276.56 524.87 277.68 521.71 278.74 520.28 279.19 517.73 279.19 515.92 279.71 514.72 281.14 514.72 283.17 514.64 285.88 514.04 287.23 513.22 288.13 512.61 289.26 511.34 290.38 510.21 291.59 509.83 292.49 507.8 293.39 506 294.22 504.8 294.82 503.14 295.72 501.87 296.62 501.19 297.9 500.51 299.18 499.69 300.15 498.18 300.15 496.15 299.55 495.33 299.1 494.95 297.15 494.73 295.5 494.65 293.39 495.18 292.94 498.41 290.54 499.99 289.56 500.36 288.21 500.36 287.23 499.69 284.22 499.24 282.79 498.73 280.86 497.36 280.92 496.38 280.92 495.48 281.29 494.27 282.87 493.6 284.52 493.15 286.03 492.85 287.38 490.96 289.11 491.57 291.66 489.74 292.78 489.05 294.86 489.31 297.07 489.54 298.35 490.37 300.08 489.99 301.06 488.86 302.11 487.74 305.19 487.06 307.14 486.08 308.95 486.52 311.27 487.96 310.6 489.54 310.07 491.64 309.17 493.37 308.5 494.65 306.24 494.95 304.74 496.15 302.63 497.51 302.18 498.78 301.73 499.84 302.26 500.74 303.84 500.89 304.36 500.66 305.34 502.09 306.62 504.5 309.7 505.17 311.8 504.72 314.06 503.9 316.01 503.14 316.99 501.33 318.25 500.81 319.92 498.57 321.52 498.15 322.87 499.01 324.73 502.95 335.03 504.05 340.36 504.05 349 502.62 360.64 500.86 363.61 498.05 365.37 494.88 368.33 492.05 369.37 489.51 370.06 487.59 370.7 487.57 372.72 487.67 375.15 485.18 377.11 484.19 377.74 484.22 378.56 483.94 379.2 483.5 380.24 483.82 381.89 484.18 383.21 483.62 386.54 482.46 387.5 481.26 388.18 480.69 390.62 480.65 393.31 481.1 397.4 481.7 403.85 485.47 413.19 488.83 420.69 490.88 424.85 493.04 427.3 495.13 432.63 496.29 437.2 497.29 440.65 497.45 442.45 500.51 442.15 503.02 439.96 505.23 436.96 505.87 435.56 507.03 433.63 507.79 431.87 509.12 429.54 511.84 425.78 512.92 422.37 513.61 418.83 514.17 417.88 514.72 415.14 517.34 408.7 518.09 408.03 519.49 407 519.78 406.84 520.71 404.35 521.35 403.75 522.92 403.47 523.92 403.59 524.28 402.99 524.4 402.43 524.84 401.79 525.4 400.55 525 398.3 524.12 397.46 521.95 396.62 521.23 396.22 519.91 394.77 520.31 393.29 521.43 393.21 525.12 392.53 526.36 391.05 526.36 389.4 527.05 388.8 527.29 387.8 527.93 386.52 529.24 385.63 529.02 383.7 528.13 381.14 528.16 381.12 528.06 380.51 527.58 380.15 527.22 379.76 527.46 379.13 526.5 378.89 526.2 379.28 525.78 378.86 524.66 377.81 523.79 376.66 523.85 376.18 524.75 376.3 525.15 376.57 525.57 376.84 526.17 376.93 526.62 376.93 527.22 377.21 527.82 377.36 528.84 377.42 529.81 377.57 530.32 377.48 531.55 377.6 533.17 377.57 533.92 377.51 534.38 377.66 535.31 377.24 535.73 376.78 535.97 376.45 536.45 376.12 536.51 375.61 536.51 375.04 536.6 374.59 536.72 374.02 536.21 373.78 536.21 372.97 536.42 372.49 536.54 371.73 536.84 370.23 536.81 369.54 536.36 369.3 536.39 368.94 537.29 369 538.28 369.6 538.67 370.26 539.04 370.44 539.04 371.01 538.89 371.88 539.22 372.64 539.7 372.76 540.87 373.6 541.26 373.9 541.26 374.41 541.05 375.07 541.19 375.6 542.11 375.51 543.14 374.75 544.53 374.09 545.83 373.63 546.57 373.25 548.97 372.82 549.19 372.79 550.29 373.46 550.29 373.73 550.49 373 550.82 371.91 551.33 370.65 551.9 369.69 552.41 369.18 552.24 368.17 553.23 367.53 553.38 368.19 553.38 368.64 553.74 369.15 553.53 370.29 552.87 371.49 552.44 372.85 552.56 375.52 551.39 376.48 550.67 376.81 549.47 377.42 548.48 377.84 547.93 378.23 546.31 380.87 545.89 381.74 545.89 382.08 545.14 382.89 544.6 383.7 543.58 384.6 542.31 385.23 541.29 385.86 540.45 386.22 538.64 386.4 537.92 386.88 537.17 387.67 536.9 388.54 536.39 389.77 536.15 391.12 536.09 392.36 536.21 392.84 536.63 393.98 536.93 394.43 537.41 394.94 538.75 394.34 539.37 392.9 539.79 392.48 540.51 391.6 541.5 390.49 543.06 389.83 544.27 389.29 544.48 388.75 545.47 388.12 546.17 388.28 547.32 387.39 548.62 387.68 550.01 388.18 551.33 388.54 552.84 388.84 553.41 389.38 554.58 390.01 555.06 391.06 556.08 392.66 557.5 394.31 557.68 395.12 557.95 397.26 559.3 398.07 560.5 402.07 562.19 405.19 563.32 406.43 565.22 405.82 566.37 405.58 567.12 404.38 567.78 403.66 568.89 398.43 570.63 396.23 572.56 395.57 573.55 395.66 574.3 395.57 575.79 394.81 577.04 395.21 579.26 394.88 581.16 393.86 582.78 391.09 582.87 388.36 582.78 386.22 582.32 383.65 582.59 383.83 583.29 383.22 583.56 382.68 584.8 381.77 585.13 380.87 584.83 380.36 584.4 379.55 584.92 379.43 585.79 379.64 586.36 380.09 586.6 381.5 586.39 382.23 586.15 383.1 585.67 384.03 585.37 384.72 585.16 385.17 585.55 385.83 586.03 386.64 586.73 386.56 586.82 386.55 587.59 386.46 589.09 386.31 590.6 386.13 598.03 389.61 598.87 389.26 600.12 389.75 600.85 389.56 601.36 389.14 607.37 390.14 608.2 390.21 612.29 390.89 614.89 391.47 615.92 392 617.24 390.91 618.89 390.58 620.12 389.83 620.39 389.17 621.17 388.57 622.5 387.76 624.33 386.61 625.32 385.98 625.95 385.02 626.83 384.33 627.16 383.76 627.31 383.25 627.94 383.25 628.21 384.06 628 384.42 627.4 384.96 626.62 386.13 626.56 387.13 626.53 387.79 625.68 388.45 624.63 389.32 624.18 389.74 623.97 390.28 624.6 391.6 624.12 391.81 623.4 392.6 622.89 392.72 622.08 393.32 621.38 394.94 621.6 395.3 623.16 396.29 624.39 397.29 626.77 398.46 627.94 399.03 629.68 398.97 631.25 398.88 632.21 399.09 633.17 399.24 634.43 399.72 635.55 400.41 637.04 400.96 644.93 400.41 646.22 399.48 646.97 399.33 647.6 399.12 648.71 398.61 649.23 398.25 649.83 397.74 650.73 397.47 651.78 397.29 652.95 397.29 653.8 397.29 654.52 397.17 655.9 396.93 658.82 396.35 659.9 396.2 660.95 396.08 661.67 396.47 662.12 397.83 662.2 398.2 662.57 400.05 662.36 401.04 657.94 402.01 657.34 401.98 656.47 401.43 655.72 402.16 654.91 403.24 653.89 403.84 652.41 404.41 651.09 404.89 650.07 405.49 649.08 406.24 648.17 406.76 647.78 407.36 647.33 407.84 646.58 408.29 646.01 408.17 645.38 408.5 644.75 409.04 644.26 410 643.24 410.99 642.37 411.35 640.72 411.54 640.03 411.78 640 412.89 640.57 413.28 641.32 413.64 641.68 414.06 642.01 414.63 642.61 415.29 642.43 416.01 642.62 417.07 644.08 417.28 644.81 417.37 645.65 417.34 646.46 417.07 647.42 417.31 648.26 417.73 648.65 418.21 649.01 418.78 649.23 419.29 648.38 419.02 647.12 418.06 646.16 418.39 645.41 418.57 643.45 419.56 641.83 419.32 637.86 415.92 635.88 415.77 634.67 412.53 632.96 411.17 630.7 410.32 629.78 410.04 627.36 408.51 626.49 407.82 625.68 408.71 624.87 409.01 624.06 407.21 622.95 406.7 622.08 405.88 621.87 405.31 621.87 404.29 621.41 403.45 620.54 403.3 617.99 402.49 616.72 402.04 615.94 401.1 613.16 397.77 609.69 397.95 607.25 398.34 604.76 398.91 602.02 399.99 600.76 400.98 599.26 401.77 597.93 402.88 597.27 403.51 596.49 404.77 595.53 408.11 595.77 409.37 595.98 410.27 595.5 410.45 594.9 411.14 593.93 411.72 593.09 412.32 592.55 411.99 591.41 412.65 589.7 413.52 588.58 414.45 588.19 415.02 586.72 415.59 585.94 415.35 584.86 414.18 584.46 412.98 583.43 412.11 582.11 411.92 581.57 411.53 580.26 411.05 578.91 410.29 578.6 410.24 578.6 411.17 577.4 411.54 576.8 411.9 576.29 412.41 575.81 413.07 575.35 413.46 574.78 413.79 574.9 416.41 575.32 416.62 576.08 416.86 576.89 417.16 577.49 417.31 578.12 418.3 578.24 418.96 577.64 419.2 577.4 419.8 577.58 420.19 578.12 420.73 578.42 421.4 578.99 422.27 578.93 423.44 578.42 424.1 578.27 424.97 578.27 425.54 578.57 426.14 579.08 426.84 580.62 428.1 581.64 428.91 582.51 429.66 583.26 430.44 582.81 431.44 583.62 432.37 583.74 435.22 583.59 435.82 582.72 436.67 582.42 437.39 581.43 438.38 580.47 439.01 579.65 439.76 578.86 441.09 578.87 441.12 578.78 443.25 576.47 446.11 576.35 446.65 575.53 450.01 572.41 454.73 568.2 457.65 568.11 458.22 566.43 465.13 565.13 466.61 563.66 467.93 561.89 469.88 560.59 473.43 560.8 474.06 561.46 478.9 558.73 482.45 556.08 484.25 555.12 484.73 555.03 485.22 555.9 486.12 556.51 491.02 555.78 494.56 554.78 497.15 554.64 498.6 554.01 499.95 553.59 502.08 552.77 503.26 551.94 510.26 552.96 515.1 555.11 520.99 555.94 525.93 556.59 531.43 556.41 533.61 556.17 537.65 555.65 538.29 554.92 539.77 553.84 541.74 553 543.78 552.44 545.26 552.12 546.79 551.84 550.43 552 552.8 553 555.04 554.44 557.21 555.32 558.37 558.06 566.47 558.44 566.82 562.96 570.16 567.93 570.56 568.37 570.5 569.72 569.51 570.6 569.19 571.16 568.51 570.76 568.23 572.16 567.59 573.16 567.15 573.52 566.67 572.64 566.35 572.96 565.83 573.85 565.27 575.09 564.78 575.57 564.02 576.57 563.02 577.13 562.34 577.37 562.14 578.42 561.74 578.98 561.62 580.1 560.54 581.14 559.77 581.74 558.73 582.78 558.53 583.59 558.61 584.03 559.09 584.83 559.73 585.63 560.13 585.79 560.5 585.57 561.46 585.99 561.72 586.37 562.2 589.35 568.66 589.35 569.14 589.71 569.52 593.99 572.86 596.13 573.06 601.43 572.89 603.3 572.61 607.21 570.54 607.53 570.5 608.88 569.19 610 568.99 611.57 568.67 612.25 568.23 614.89 567.71 617.02 566.43 617.94 565.02 618.3 563.86 618.02 562.94 616.98 562.58 616.98 562.1 617.9 561.82 620.63 560.9 623.03 558.09 624.52 556.2 626.2 554.59 626.4 554.16 625.93 550.93 627.23 550.38 627.53 549.58 627.68 548.62 627.28 548.22 626.28 547.37 626.03 546.12 625.88 544.52 626.03 543.21 626.38 542.91 627.33 542.96 628.83 543.11 630.24 542.31 631.34 541.16 632.29 540.11 633.19 540.01 634.09 540.36 634.65 540.81 635.9 541.36 636.9 541.41 638.3 540.66 638.75 539.31 638 537.9 637.4 536.45 637.85 535.7 638.96 535.45 639.21 535.85 640.01 536.3 641.41 536.6 642.21 537.4 643.57 537.45 647.07 536.15 647.57 535.45 648.78 532.39 651.83 530.74 653.19 529.54 652.48 528.13 651.68 526.88 650.53 525.53 650.33 523.37 651.63 521.82 653.04 520.52 653.64 521.17 652.84 522.57 652.08 524.38 653.79 526.48 655.24 528.68 655.39 530.19 654.59 531.19 652.58 532.74 651.58 535.2 651.62 538.5 650.72 539.13 650.56 540.09 649.37 540.6 648.53 542.96 648.39 545.27 648.16 545.77 646.47 546.23 646.17 546.52 646.1 547.16 646.83 547.96 647.98 547.95 651.17 548.09 651.62 549.35 652.27 549.95 652.92 549.85 653.32 549.4 654.13 550 654.23 551.2 655.83 550.95 656.28 550.4 656.38 550.5 656.88 551.05 658.13 551.05 659.29 550.95 659.74 551.65 660.74 552.25 661.29 552.3 661.84 553.15 670.06 554.81 671.46 554.11 671.36 552.9 671.46 551.05 672.01 549.6 673.57 548.6 674.82 547.94 676.47 547.89 678.08 547.59 678.38 546.89 680.48 546.74 681.49 544.89 682.29 544.89 681.79 546.59 679.78 550.8 679.53 552 677.18 553.2 677.03 554.36 677.33 556.76 677.33 558.01 675.67 558.62 675.42 559.47 672.57 561.27 668.31 561.77 665.95 561.67 664.7 565.13 661.04 568.99 660.69 571.69 659.24 573.5 659.09 574.45 659.44 575.25 661.29 575.15 663.35 575 661.94 577.45 658.99 576.15 658.03 576.4 656.78 575.45 652.67 574.4 649.11 573.9 646.51 575.15 644.55 574.3 642.9 574.95 641.8 574 641.95 573.15 640.71 572.02 639.11 571.2 637.74 572.24 634.43 573.45 633.93 573.15 633.18 573.9 633.23 574.6 632.63 575 632.18 574.45 630.57 574.4 627.42 575.5 624.26 576.15 622.66 577.55 623.11 579.41 624.01 580.56 625.91 580.71 629.72 580.26 631.23 580.56 633.88 581.46 634.88 583.42 634.73 584.22 634.28 584.72 634.28 587.37 633.73 588.18 632.33 589.28 630.47 590.68 628.47 591.83 626.97 592.74 626.01 594.09 625.76 595.94 626.32 597.34 626.92 598.2 627.67 598.7 627.82 599.05 627.27 599.25 626.57 599.18 626.73 600.87 628.57 601.15 629.52 601.2 630.27 601.45 631.48 601.9 632.18 602.1 632.43 602.96 635.59 604.51 636.84 604.96 637.34 605.11 638.44 605.46 639.39 605.31 641 605.41 641.7 605.71 642.05 606.26 642.95 606.51 643.3 606.61 643.9 606.66 645.06 607.11 645.76 607.62 646.86 607.26 647.21 607.16 648.71 607.42 650.62 606.71 650.87 607.62 649.92 609.07 648.41 608.42 646.51 609.62 644.55 609.02 643.5 610.22 641.15 610.57 640.8 611.07 638.09 612.07 637.04 611.47 636.64 612.38 636.94 613.18 637.49 613.83 637.49 614.43 638.19 615.88 639.59 617.08 640.85 617.34 641.55 617.14 641.7 617.24 641.45 617.74 636.79 619.14 637.04 621.59 635.39 622.75 635.72 624.2 636.89 624.75 637.99 625.45 637.94 626.96 638.39 627.26 639.09 627.86 638.84 628.46 637.99 629.61 638.89 631.51 639.34 632.67 639.04 633.47 638.19 635.02 636.79 636.47 636.14 636.72 636.14 636.02 636.34 633.27 636.29 632.02 635.18 629.51 635.49 628.46 635.18 627.61 632.48 624.25 629.67 620.79 627.92 618.84 626.37 615.98 624.91 616.18 624.66 615.68 623.11 615.18 621.5 615.18 620.35 615.18 619.55 615.68 618.65 616.33 617.95 617.74 615.91 620.65 614.19 622.1 614.17 625.88 612.94 629.76 613.14 636.67 612.59 637.53 610.43 639.38 609.38 641.18 606.52 641.99 607.82 639.43 607.62 638.48 607.74 636 606.97 635.07 606.52 634.57 606.62 633.67 606.02 632.62 605.12 631.76 603.97 631.31 602.76 631.01 599.21 627.61 596.7 626.5 593.79 628.31 592.14 627.76 591.24 625.55 594.15 624.31 596.9 622.4 598.35 622.35 599.6 621.98 601.01 619.89 602.26 617.99 603.11 616.78 603.11 615.83 603.48 614.83 600.87 613.3 596.2 612.48 596.6 611.17 592.99 609.72 592.49 605.2 592.09 604.51 591.84 603.81 591.49 602.05 592.14 598.75 590.39 597.04 587.48 592.08 583.97 592.89 577.62 597.52 574.25 599.24 572 602.05 570.44 601.75 569.49 600.4 567.55 596.18 565.87 593.89 565.51 593.13 564.95 592.56 564.21 591.61 564.02 591.04 562.34 588.56 561.6 587.04 561.04 586.66 561.04 586.19 559.55 584.66 557.67 584.52 556.06 584.67 554.01 585.32 549.95 588.03 547.34 590.18 545.19 592.13 543.33 594.39 539.93 598.3 537.03 601.45 535.36 604.58 534.8 605.9 534.23 606.47 533.87 607.51 533.3 608.08 530.61 610.92 531.63 612.43 531.31 614.53 530.36 616.03 530.11 617.19 528.4 622.35 527.45 622.85 527.3 624.6 525.1 626.82 524.37 628.81 523.01 630.42 522.92 630.8 521.56 632.12 519.9 632.02 517.23 632.02 515.97 631.41 514.57 630.96 512.27 633.37 509.96 633.47 505.65 633.22 503.95 632.92 502.99 632.26 498.97 631.45 494.2 630.76 490.92 630.18 487.94 629.48 486.6 628.67 485.31 628.31 484.34 627.34 483.59 626.4 483.65 624.71 484.59 621.64 484.09 618.51 484.84 614.63 485.91 611.37 486.97 607.62 487.85 603.29 488.67 599.66 490.11 594.28 489.73 591.02 488.85 589.02 487.98 585.57 489.48 581 490.54 577.49 491.3 574.11 490.82 572.12 490.48 571.17 489.29 570.73 487.35 572.11 484.03 575.99 482.03 576.11 480.84 577.24 479.77 577.8 478.14 577.68 477.2 577.37 476.33 576.74 476.58 574.74 476.33 570.79 475.89 567.03 476.53 564.82 475.95 563.71 474.82 562.9 472.88 562.71 471.24 563.3 469.12 562.27 469.06 556.01 470.28 552.68 469.24 550.94 467.93 549.5 466.24 549.56 465.24 551 464.05 553.44 463.42 558.11 462.53 560.3 461.48 563.66 461.18 565.74 461.18 568.17 462.22 569.79 464.43 571.73 464.6 573.96 465.05 575.8 463.86 576.87 462.42 577.99 460.79 579.06 460.87 582.28 461.91 584.24 462.95 587.49 465.04 590.26 466.87 592.08 465.24 592.46 464.49 593.09 462.98 594.28 461.67 595.65 460.48 597.91 458.98 602.04 461.54 604.86 463.74 606.05 465.02 606.22 466.51 607.49 465.77 608.53 462.34 609.69 460.7 610.5 459.51 611.31 458.46 612.69 458.31 614.78 459.2 617.09 460.39 619.17 459.54 620.02 459.54 621.33 458.73 621.89 458.01 622.99 455.81 622.86 454.47 625.03 456.36 628.08 456.96 629.46 457.4 630.97 456.59 631.77 455.54 632.93 456.06 635.25 456.92 636.23 457.98 636.23 457.99 636.96 456.95 638.23 455.92 638.23 454.28 639.5 454.41 643.23 454.11 645.66 453.34 648.64 454.09 651.64 454.56 655.42 456.91 658.41 457.97 659.65 458.27 661.39 456.78 663.04 458.42 664.74 459.26 663.52 461.48 659.72 464.74 658.47 467.18 657.72 468.81 657.53 470.38 657.34 471.69 657.4 472.88 657.59 474.95 656.65 476.45 654.71 476.83 651.83 477.52 649.51 479.71 648.2 482.34 648.45 484.51 647.47 486.14 648.22 487.93 647.18 490.01 646.37 491.36 646.6 492.99 647.41 494.03 648.34 493.44 649.49 492.39 652.15 491.95 653.65 491.35 655.04 492.99 655.28 494.24 655.34 495.49 655.9 497.56 656.34 500.13 657.28 501.62 658.86 502.36 659.25 503 659.51 503 659.57 504.26 660.05 505.74 662.5 506.86 663.36 507.04 663.74 507.04 664.6 506.86 665.36 506.64 666.74 506.64 668.87 505.39 670.18 503.96 671.22 503.13 671.43 502.63 671.62 501.94 671.87 500.69 672.12 499 672.12 497.56 673.06 497.43 675.82 498.93 677.72 499.82 678.87 501.46 680.26 501.6 680.43 503.5 681.28 505.93 682.62 508.46 684.71 509.96 685.4 511.28 685.77 512.72 686.4 513.91 686.9 515.6 687.65 516.85 688.59 518.21 689.69 519.51 691.4 526.02 696.55 530.49 696.29 533.03 695.36 535.89 693.54 537.84 692.41 541.15 688.53 539.65 684.4 541.47 682.27 543.72 684.96 546.1 687.65 545.35 694.35 544.29 697.42 542.56 703.96 543.91 707.82 543.18 710.29 541.15 713.21 541.97 713.96 543.98 714.46 544.07 715.13 547.42 715.52 551.11 716.59 555.06 717.97 570.32 719.32 571.99 720.47 572.74 721.23 573.11 722.37 574.6 723.99 579.43 727.71 580.92 727.9 583.03 727.01 586.64 726.41 589.2 726.86 591.68 727.46 595.06 729.64 597.39 731.07 602.05 731.44 606.42 731.53 609.39 729.45 609.58 729.07 608.84 723.66 608.47 722.71 607.55 720.81 606.99 719.95 606.43 719.48 606.05 717.2 606.8 716.25 612.42 709.65 613.7 703.41 615.74 701.78 617.22 700.65 618.53 699.89 619.09 699.9 620.58 698.95 622.44 697.35 623.37 694.98 624.9 694.32 625.23 692.05 626.17 690.92 627.65 688.83 630.08 686.76 631.83 684.58 633.24 682.69 633.79 682.03 633.77 680.34 634.07 678.69 635.5 677.26 637.15 676.13 640.16 674.55 641.66 669.52 638.05 667.34 638.58 664.86 639.86 662.9 641.29 660.95 642.71 658.24 643.62 656.97 643.99 655.46 645.42 652.68 647.36 649.75 649.85 647.87 652.63 646.29 654.81 644.57 655.87 643.14 657.45 641.03 658.35 640.28 659.32 637.2 660.45 635.32 661.8 633.29 664.14 627.73 665.36 624.39 665.83 623.54 666.75 622.6 670.67 619.48 671.59 618.92 675.5 618.27 676.16 617.14 677.37 618.19 678.19 618.86 679.54 619.24 680.82 619.46 682.1 619.31 683.6 619.24 685.26 619.54 687.21 619.24 692.02 619.77 691.19 612.33 696.08 610.22 697.58 610.22 700.74 608.57 702.09 606.31 703.97 604.81 703.52 601.2 710.66 589.63 707.05 603.23 704.72 609.24 698.94 614.2 701.04 619.62 700.97 624.12 703.37 628.18 704.27 629.84 705.63 632.77 706.08 634.65 707.2 642.61 707.43 645.62 705.25 654.71 707.2 660.42 702.47 662.75 702.01 678.53 701.64 680.9 701.22 682.99 699.49 687.15 698.94 690.94 698.26 694.99 698.56 703.64 698.48 705.36 698.34 709.1 699.09 715.36 701.04 719.19 699.54 720.85 697.36 728.66 697.51 732.72 694.54 746.14 693.73 750 693.97 752.56 694.2 753.99 693.97 754.59 693.67 755.79 693.67 757.3 690.59 759.32 691.34 760.6 690.74 763.76 686.21 767.74 684.81 770.67 685.33 773.6 691.19 774.43 692.02 777.89 690.07 778.79 685.86 779.62 683.23 776.54 678.34 773.6 674.58 773.45 670.9 773.15 665.71 773.9 662.18 774.88 661.05 777.36 658.72 779.54 658.12 782.32 658.57 784.05 660.53 784.58 662.11 785.85 667.73 787.48 668.94 787.67 669.68 788.06 670.61 788.25 671.73 787.66 673.38 787.96 675.18 788.11 678.42 788.33 678.64 791.87 677.59 793.07 679.39 798.48 680.67 800.96 682.4 801.64 683 804.34 681.87 805.09 683.75 810.28 677.21 808.78 674.96 808.4 669.4 806.97 663.38 805.02 662.71 803.06 660.6 802.09 655.49 804.27 653.01 808.93 653.03 801.55 649.7 800.06 646.4 798.48 647.16 795.93 646.6 795.45 646.24 795.07 640.46 790.51 642.26 787.81 642.19 784.35 640.61 781.72 638.28 780.22 637.12 775.01 636.57 773.78 636.01 773.11 634.89 769.12 631.29 764.96 632.66 760.95 631.54 758.77 630.98 758.19 630.79 757.34 630.23 756.77 629.12 754.3 628.56 753.73 628 752.3 624.15 751.21 618.44 753.01 612.42 754.52 609.27 755.64 604.38 755.34 601.22 754.67 598.37 754.14 594.76 754.44 592.88 754.74 591.23 755.34 589.11 755.83 587.92 757.15 587.84 758.35 588.22 760.83 590.4 762.71 595.05 763.45 598.82 763.91 602.13 763.91 607.91 764.83 610.47 765.26 612.35 765.79 614.53 766.77 617.53 766.99 618.89 770.6 617.38 778.56 619.71 782.25 621.29 787.28 617.23 789.09 611.82 786.53 606.18 785.63 601.75 786.38 594.23 785.93 591.3 782.7 587.47 780.59 582.66 780.89 579.2 781.34 577.55 783.07 577.02 785.48 579.35 787.06 582.43 788.33 586.5 790.07 587.33 790.54 588.73 791.59 589.09 791.97 592.13 793.9 595.98 798.27 596.04 799.38 595.81 800.21 595.81 801.34 595.29 803.14 594.76 805.32 594.31 809.15 596.04 813.29 601.9 815.54 602.5 816.22 603.33 817.12 604.3 818.17 605.28 818.77 605.81 819.97 607.39 822.15 610.24 827.86 618.12 832.99 618.87 833.18 620.36 834.04 621.28 838.13 621.66 840.12 622.58 842.02 623.32 842.78 623.65 843.45 624.26 844.02 624.81 845.54 625.75 846.78 628.16 849.54 628.17 850.11 629.09 851.06 630.21 852.3 630.39 853.44 630.77 854.2 631.88 856.1 632.44 856.48 632.82 857.81 633.18 858.57 633.74 858.95 634.07 859.71 634.29 860.57 634.85 861.05 636.47 862.13 637.45 864.99 639.18 870.78 635.27 875.81 628.73 877.77 622.12 875.44 616.26 872.73 616.18 871.45 614.68 870.63 614.45 868.97 612.95 866.94 610.84 864.54 608.21 862.66 605.66 861.31 603.63 860.48 602.58 858.53 601.37 857.93 600.17 855.67 599.12 851.39 597.92 850.71 596.47 850.83 594.62 849.68 593.48 847.93 591.3 846.95 590 846.95 588.07 846.13 585.54 844.8 583.71 847.48 584.9 855.61 588.05 873.93 588.52 876.4 588.79 876.88 589.26 880.01 589.81 881.15 590.56 882.01 591.11 885.33 591.67 890.46 592.05 897.29 593.15 898.52 595.02 900.43 599.3 903.77 602.41 904.45 603.59 905.11 607.31 905.99 611.21 906.67 615.13 907.73 616.05 908.3 619.96 908.98 629.36 911.58 631.27 911.88 634.47 912.65 635.96 913.79 637.35 915.32 637.82 915.79 637.82 916.46 639.68 918.17 643.21 922.27 646 924.56 647.5 925.32 648.61 925.8 653.46 926.96 656.61 927.54 660.33 928.13 664.06 928.62 665.92 929.2 667.41 929.87 670.76 932.54 671.69 933.11 680.43 934.29 686.82 932.63 690.88 930.45 691.78 929.15 692.82 926.97 692.14 926.27 691 925.06 691.16 923.78 691.88 922.72 692.12 918.53 693.62 917.27 696.29 917.97 699.7 917.09 702.08 916.89 703.06 917.17 704.43 917.41 706.01 917.85 706.65 918.21 708.36 918.53 707.45 920.39 709.8 922.02 711.88 923.64 713.17 924.14 714.17 924.48 714.62 924.57 715.35 924.7 716.75 924.7 717.72 924.18 723.28 921.27 728.88 918.33 729.74 918.77 731.88 919.84 723.76 930.13 722.19 934.87 721.06 936.52 722.04 938.85 720.68 942.98 716.32 942.53 713.02 945.61 709.03 946.82 705.27 947.34 703.47 947.12 701.84 947.02 700.49 947.14 699.69 947.29 699.04 947.29 698.69 947.79 698.79 948.8 698.84 949.65 699.26 950.78 698.76 951.83 698.26 952.43 697.71 953.06 694.75 956.17 694.2 956.74 694.01 957.5 693.27 958.15 692.52 959.96 693.3 962.15 695.4 963.93 696.25 964.95 696.68 965.41 696.73 965.93 696.73 967.21 696.71 969.06 696.58 970.29 696.2 972.44 696.03 974.1 696.03 975.28 696.41 976.23 698.03 977.25 699.64 977.86 702.02 978.18 704.2 976.95 705.22 976 707.86 975.25 709.76 974.75 710.99 974.82 712.26 975.5 712.54 976.3 713.04 978.18 715.96 983.3 717.03 985.37 716.15 987.4 714.14 988.2 713.59 988.5 713.12 988.78 712.14 988.73 707.73 988.28 706.55 989.6 707.86 991.91 710.54 993.11 713.04 993.41 715 993.44 717.75 993.79 719.05 994.19 719.2 996.12 719.51 998.65 718.01 1000.48 717.44 1001.24 716.47 1002.48 716.25 1004.48 718.98 1006.51 720.41 1007.69 722.24 1008.74 723.14 1009.67 722.54 1013.7 722.84 1016.06 725.07 1018.34 727.12 1020.25 727.85 1021.87 729.08 1023.9 731.03 1027.71 731.93 1033.89 733.31 1037.18 733.44 1041.34 732.21 1045.24 731.21 1048.47 730.73 1049.48 731.41 1051.26 733.01 1053.66 734.91 1060.15 734.16 1067.89 736.69 1070.42 736.64 1073.45 737.67 1074.28 737.03 1075.93 736.14 1078.24 733.24 1080.72 731.49 1083.75 730.29 1087.51 729.84 1089.91 730.14 1093.22 734.35 1097.13 733.82 1099.2 734.01 1100.06 734.39 1100.92 734.95 1101.49 734.95 1106.45 737.51 1110.5 738.26 1115.16 736.15 1118.77 736.59 1120.14 737.05 1124.03 738.41 1126.03 739.41 1130.84 741.41 1132.74 744.22 1133.14 746.92 1136.17 748.43 1141.46 751.44 1146.07 753.14 1150.18 754.14 1153.28 755.39 1155.3 756.32 1156.35 756.51 1157.02 757.07 1157.59 757.25 1158.35 757.81 1158.92 758.93 1160.92 761.06 1167.7 762.46 1172.41 763.66 1180.03 764.06 1187.74 764.06 1193.77 764.77 1197.38 765.47 1201.79 767.88 1223.42 768.15 1225.79 769.63 1228.36 770.99 1229.97 771.49 1232.16 769.68 1229.98 767.27 1226.87 764.97 1221.96 763.66 1217.15 761.26 1214.65 757.19 1213.43 753.84 1210.7 752.46 1210.76 749.38 1211.69 747.51 1213.11 745.77 1212.57 744.72 1213.17 743.52 1213.24 743.52 1212.42 742.99 1210.69 741.19 1209.71 739.31 1210.31 739.61 1213.77 740.44 1215.8 742.32 1218.05 742.68 1220.11 741.75 1222.09 741.18 1225.89 741.55 1227.88 741.93 1228.92 742.49 1229.4 743.04 1231.11 743.6 1231.68 744.53 1233.87 745.08 1235.58 745.45 1239.57 745.27 1240.8 744.71 1241.55 743.4 1244.49 743.23 1245.34 742.11 1247.8 739.13 1251.11 731.87 1257.53 730.19 1259.14 730.01 1263.31 733.17 1265.79 738.65 1269.23 743.58 1272 749.36 1275.92 751.77 1277.82 752.15 1278.49 753.07 1279.44 753.82 1281.72 754.18 1288.84 754.92 1293.02 756.04 1295.96 758.28 1297.97 774.82 1311.32 775.94 1312.75 778.55 1315.7 778.92 1316.36 779.47 1316.94 780.03 1326.42 781.14 1332.31 781.7 1333.07 785.6 1336.12 787.65 1336.7 795.83 1337.97 798.07 1339.31 798.63 1339.79 799 1341.5 798.82 1343.39 798.42 1343.66 798.25 1343.77 795.65 1343.76 794.53 1343.28 792.4 1341.94 790.44 1341.08 789.69 1340.6 788.22 1340.22 784.77 1339.63 779.66 1339.7 778.35 1338.75 777.24 1337.7 776.49 1335.71 775.75 1326.41 775.19 1325.93 774.46 1324.03 773.52 1320.99 772.97 1320.61 772.4 1319.46 772.04 1318.99 772.04 1318.52 768.69 1315.18 763.75 1311.46 759.39 1309.45 757.52 1308.4 756.14 1307.35 753.63 1306.2 752.32 1305.53 748.04 1302.19 747.29 1301.43 746.17 1300.09 745.52 1298.86 745.07 1296.67 744.33 1291.55 743.03 1285.94 741.45 1284.8 740.04 1284.03 738.18 1284.31 737.26 1284.87 734.83 1286.76 733.91 1287.99 733.35 1289.98 733.62 1291.41 734.92 1296.25 735.2 1296.91 736.32 1299.29 737.62 1300.72 738.36 1301.77 739.48 1303.57 740.4 1306.52 740.97 1307.66 741.89 1309.28 743.94 1311.28 754.26 1319.29 760.13 1322.45 764.31 1325.5 765.52 1326.93 766.44 1327.88 767.76 1329.98 768.3 1330.64 768.86 1333.77 768.86 1335.39 768.49 1337.95 767.75 1341.93 766.81 1342.97 766.25 1343.25 759.75 1348.25 759.46 1349.48 759.09 1350.14 758.58 1351.47 757.6 1356.21 757.22 1356.97 756.71 1358.86 756.21 1360.19 755.64 1377.26 756.01 1385.23 757.13 1393.49 755.45 1395 753.21 1393.19 752.28 1392.23 751.91 1390.81 751.35 1390.14 750.98 1388.62 750.8 1368.99 750.12 1357.57 750.12 1351.66 752.11 1343.95 751.56 1341.86 750.07 1337.68 749.32 1337.01 748.4 1333.78 747.84 1329.7 748.41 1329.04 749.14 1328.38 749.33 1327.71 748.95 1325.06 748.03 1324.2 747.29 1323.34 746.91 1322.58 742.36 1318.57 739.85 1316.95 738.73 1316.38 735.57 1316.08 735.01 1315.79 732.59 1313.88 732.21 1313.5 732.78 1307.24 732.78 1305.35 731.9 1303.63 730.56 1302.02 722.76 1295.2 720.66 1289.79 718.35 1284.37 711.4 1280.59 707.3 1279.24 705.22 1281.37 704.92 1283.97 707.23 1287.78 709.33 1286.98 711.44 1289.79 713.74 1291.79 712.74 1293.19 711.54 1291.79 709.73 1291.59 708.05 1294.13 706.23 1293.49 704.72 1292.49 698.21 1289.89 690.69 1287.48 687.79 1284.47 683.98 1283.77 681.87 1283.87 680.77 1284.98 679.27 1285.28 679.17 1282.77 676.56 1274.45 674.37 1263.82 673.07 1262.59 672.7 1261.35 671.96 1256.13 671.69 1255.56 671.4 1254.33 669.72 1250.24 668.42 1249.1 667.31 1247.86 664.7 1245.28 662.28 1242.24 660.99 1239.96 660.43 1239.38 659.32 1236.44 656.33 1229.59 655.87 1228.36 654.38 1222.28 652.25 1211.17 651.5 1209.18 650.94 1208.32 649.93 1207.18 647.97 1204.7 646.3 1201.95 645.74 1200.9 643.88 1196.53 642.39 1193.39 641.84 1192.34 641.27 1191.77 641.1 1190.92 640.54 1190.35 639.98 1189.3 638.49 1187.87 637.19 1186.25 636.44 1184.92 636.07 1184.54 635.88 1184.06 635.88 1183.69 635.32 1183.11 634.96 1182.07 634.2 1181.02 634.03 1180.45 631.92 1173.55 630.12 1174.65 630.48 1172.41 627.93 1171.81 627.11 1173.1 625.91 1171.3 624.83 1172.62 622.97 1176.23 622.13 1177.08 620.25 1178.59 618.77 1178.58 617.31 1179.96 615.93 1180.41 613.46 1181.22 609.05 1181.22 606.91 1183.5 603.09 1183.32 600.9 1187.08 597.02 1190.18 592.2 1187.67 591.97 1187.67 591.41 1186.72 591.6 1186.06 592.07 1185.2 594.97 1183.84 596.33 1183.2 595.74 1182.86 592.54 1181.03 591.79 1179.41 593.74 1177.34 595.34 1176.71 596.87 1176.02 599 1174.84 601.27 1171.58 606.28 1170.34 605.5 1167.66 602.32 1165.79 602.96 1165.04 607.04 1161.46 607.42 1160.7 608.08 1160.04 608.73 1159.09 610.96 1156.92 615.05 1152.19 615.43 1151.06 616.16 1150.3 616.17 1149.83 617.11 1148.98 617.67 1147.84 617.11 1142.43 616.36 1140.72 614.97 1136.73 612.2 1118.91 614.31 1105.91 614.87 1102.3 613.11 1097.07 612.08 1095.17 610.04 1092.88 609.48 1091.84 606.69 1085.18 604.84 1083.56 601.63 1081.46 600.93 1081.08 599.25 1080.79 598.14 1080.78 597.21 1080.97 594.04 1083.42 590.6 1086.73 589.77 1087.77 588.74 1090.32 588.09 1093.74 586.04 1098.66 584.73 1102.26 583.24 1105.76 581.38 1107.46 580.33 1109.37 578.08 1110.49 581.2 1101.1 581.16 1098.39 582.78 1093.05 582.5 1091.81 579.9 1090.28 579.33 1090.28 578.79 1089.81 577.3 1089.51 574.87 1089.41 570.32 1089.77 568.74 1089.95 564.37 1091.07 559.07 1091.71 558.22 1091.9 552.92 1092.73 551.43 1093.58 550.32 1093.76 548.26 1094.89 547.53 1094.98 546.41 1095.64 545.66 1095.73 543.8 1096.77 542.87 1096.86 541.66 1097.61 531.51 1105.16 530.4 1105.72 528.36 1106.57 518.77 1111.85 512.91 1115.15 511.11 1113.35 510.88 1110.87 516.67 1108.09 519.75 1106.06 522.38 1104.41 524.04 1103.28 525.99 1102.08 527.04 1101.25 526.97 1100.5 525.54 1099.29 523.51 1098.39 521.4 1098.17 519.75 1096.29 521.33 1095.91 523.33 1096.21 530.78 1096.33 532.86 1095.83 534.56 1094.03 536.81 1093.13 538.54 1092.16 544.09 1089.47 546.04 1088.05 549.21 1085.47 552.97 1082.23 553.95 1081.11 555.38 1079.98 554.1 1077.43 552.55 1073.57 551.25 1072.51 544.63 1070.36 547.49 1069.53 550.57 1069.01 552.67 1069.91 554.25 1071.19 565.21 1069.54 567.26 1068.88 568.18 1068.51 569.87 1067.48 571.44 1066.72 578.61 1061.35 579.91 1060.78 582.7 1061.36 584.38 1061.85 586.79 1062.14 589.11 1061.87 591.23 1060.59 593.82 1060.9 597.24 1058.71 599.44 1059.06 600.01 1059.07 600.74 1058.5 601.49 1056.8 602.05 1050.82 602.62 1048.45 605.6 1041.73 605.89 1036.32 610.1 1033.23 613.25 1028.88 612.58 1024.67 610.62 1023.25 610.26 1022.4 610 1020.59 607.95 1016.98 606.72 1014.97 605.06 1013.17 603.41 1010.41 602.5 1009.08 600.85 1006.78 595.29 999.72 591.68 997.16 589.13 996.26 587.92 994.91 586.27 993.63 584.58 993.36 583.49 991.75 581.76 991.45 581.46 989.42 581.04 987.27 580.3 987.17 577.51 987.73 570.62 989.59 569.14 989.87 567.65 989.01 565.41 987.3 565.04 985.87 563.92 985.11 562.81 984.53 559.08 983.95 557.04 983.94 547.74 984.66 545.04 985.31 538.15 985.66 536.75 985.56 535.18 985.08 528.57 984.48 524.29 985.69 522.05 983.98 522.06 983.31 522.71 978.1 522.53 975.63 522.05 973.54 521.18 971.93 516.48 966.69 515.54 965.55 514.99 964.12 514.43 963.64 514.14 962.6 512.38 959.18 510.88 956.99 510.71 956.42 509.41 954.04 508.66 952.33 507.27 948.15 504.45 938.5 504 934.84 502.85 933.34 501.8 931.79 500.79 929.85 497.79 927.08 494.53 926.03 495.33 929.43 497.64 931.04 498.04 934.64 497.04 936.85 494.53 938.2 491.47 938.6 489.42 938.8 486.81 939.1 480.67 941.06 478.04 944.36 477.09 944.76 476.04 944.16 477.19 942.96 476.94 940.86 478.85 939.65 480.1 937.8 482.25 937.45 484.26 937.15 487.97 935.39 489.27 934.14 489.17 932.09 486.91 928.63 486.86 925.47 488.12 923.17 489.27 919.86 491.57 918.51 492.73 918.01 495.08 918.36 495.73 917.31 500.84 915.96 504.2 913.4 495.63 904.33 496.23 901.48 495.83 898.82 494.53 895.81 494.88 894.16 494.38 892.71 492.93 889.48 490.4 887.75 487.57 886.34 485.86 885.39 482.6 884.69 481.3 882.49 479.25 880.33 477.16 876.41 474.71 875.49 471.74 874.65 470.62 875.77 468.65 877.58 467.09 879.1 465.93 882.99 467.17 884.5 466.27 887.27 464.2 889.32 460.8 892.53 459.11 893.77 457.19 894.81 455.3 895.73 452.46 896.78 449.65 897.94 447.97 898.78 447.05 899.58 446.16 900.94 445.28 902.63 443.92 904.31 442.84 906.6 442.48 909.2 442.88 912.37 441.96 918.78 443.8 921.75 445.72 923.51 446.76 926.39 448.33 927.36 447.81 929.68 447.41 930.85 447.81 933.53 449.05 936.3 447.81 937.94 448.05 939.94 447.25 940.43 446 940.59 443.8 940.71 442.32 943.03 443.44 944.97 440.46 946.24 438.37 945.78 435.98 945.64 436.14 944.47 435.34 942.75 433.38 941.15 432.33 941.47 430.77 943.15 429.73 944.27 428.17 944.43 426.64 943.87 421.87 943.75 418.38 944.51 416.22 944.79 413.61 944.27 410.09 943.55 408.21 943.24 406.95 941.83 404.86 939.75 402.4 936.73 402.31 934.17 400.59 932.05 397.86 931.57 395.41 933.17 392.69 935.9 392.61 936.74 391.93 937.94 391.61 939.22 392.05 941.15 392.53 942.35 393.21 943.67 393.49 944.91 394.17 946.44 393.41 946.72 390.96 947.6 388.76 950.25 389.96 950.96 388.92 952.35 388.36 953.13 387.76 953.17 386.8 953.21 385.59 952.69 383.91 952.33 381.95 952.05 380.26 952.49 379.02 953.13 377.34 954.77 377.42 956.54 378.49 958.93 378.93 959.86 378.93 961.25 376.97 962.01 376.02 963.17 374.51 963.32 373.01 964.47 371.21 965.72 370.36 967.43 370.05 969.78 369.4 971.28 368.85 972.64 368.8 973.74 369.05 974.89 368.1 975.19 366.25 976.19 363.94 978.05 362.04 979.75 359.89 982.83 357.33 986.11 355.87 988.97 354.47 990.32 354.47 992.98 355.71 994.35 355.8 994.94 355.98 996.04 355.57 996.74 355.12 997.54 354.41 997.51 354.03 996.74 353.73 994.66 350.41 992.63 349.81 990.02 350.21 986.92 351.21 986.06 351.71 984.51 352.32 981.86 351.66 977.9 352.42 976.85 353.27 976.49 353.62 975.34 353.92 974.09 357.48 971.13 358.33 968.73 357.33 964.82 358.73 963.27 359.27 961.81 357.48 960.08 356.44 958.92 354.27 957.91 351.16 956.8 351.76 955.95 357.48 955.25 358.33 954.15 361.54 946.78 360.23 945.28 359.88 942.22 357.68 939.27 359.23 939.17 361.74 939.52 363.89 939.87 369.15 942.68 370.31 942.73 371.26 942.02 370.81 938.17 371.21 937.46 371.06 936.56 371.16 934.76 372.31 933.61 372.61 930.95 374.51 928.95 375.12 926.49 374.11 923.69 375.12 922.28 376.67 921.63 376.72 917.62 375.12 916.27 373.16 916.27 368.99 914.98 367.94 914.17 357.68 907.55 360.58 907.65 363.44 908.76 366.6 908.46 368.85 909.56 373.31 908.86 375.67 907.05 379.83 905.95 380.53 903.9 384.79 902.64 389.33 901.37 393.05 899.99 395.96 899.59 398.32 899.34 400.32 898.64 404.63 899.24 407.34 897.23 409.84 894.43 413.25 891.62 416.81 888.62 419.66 886.46 420.92 882.2 423.07 881.35 425.22 877.74 426.38 874.19 428.98 869.98 432.84 864.77 435.85 860.76 439.26 854.9 442.47 850.02 444.42 842.47 443.21 839.62 444.27 838.91 445.72 838.11 447.32 838.11 448.53 838.46 449.43 838.31 450.38 838.16 451.83 837.61 452.83 836.91 453.39 835.61 454.54 830.05 455.19 827.59 456.74 822.38 455.64 820.38 453.89 818.77 452.58 817.07 450.73 814.46 450.63 808.85 449.18 803.49 447.47 801.79 447.08 794.67 444.32 787.11 443.16 778.29 443.58 774.26 442.39 768.25 442.12 766.69 440.02 763.91 437.32 760.38 435.53 758.06 435.25 755.19 433.04 752.64 431.54 749.68 429.53 741.21 426.23 735.45 425.32 733.75 418.21 722.73 418.21 718.97 416 715.06 417.71 708.9 416.36 708.3 415.45 706.69 416.1 701.58 414.5 698.13 415.2 695.12 414.6 691.86 414.9 687.4 411.39 685.1 414.01 681.14 411.8 677.33 410.99 675.03 411.24 673.33 410.24 671.47 409.59 667.06 410.09 662.85 411.29 660.85 411.14 657.74 410.74 654.64 408.99 653.14 408.64 651.23 406.98 650.53 405.42 648.91 402.78 648.23 400.62 649.88 398.22 652.48 396.51 653.69 394.01 654.44 390.85 656.14 389.9 659.39 389.15 662.16 386.54 664.06 384.09 665.31 383.03 669.92 383.13 673.68 384.37 676.73 384.76 678.27 384.49 679.29 380.63 680.54 377.97 681.04 372.81 680.99 368.7 679.99 368.35 681.93 367.23 681.93 365.54 680.69 363.34 680.54 362.14 681.49 360.53 683.1 358.08 685 357.43 683.95 355.02 686.65 353.92 687.61 350.01 690.06 349.46 692.01 349.56 693.22 350.26 693.92 350.86 695.92 351.21 696.72 350.66 697.53 350.31 698.78 349.36 699.48 349.01 700.33 348.91 701.88 348.56 703.04 346.65 705.04 344.3 705.64 341.29 705.89 338.49 705.04 341.39 703.14 343.85 701.23 344.58 698.23 343.1 695.62 343.6 693.12 344.25 689.56 342.64 687.2 346.9 683.6 346.5 680.39 348.91 680.69 350.06 679.99 351.01 678.24 352.82 677.18 355.27 676.63 356.78 676.68 357.83 677.28 360.03 676.13 362.59 675.63 359.33 672.02 364.34 671.17 366.2 671.37 368.7 671.47 370.1 671.47 371.46 670.57 372.1 668.94 369.03 664.58 367.99 662.5 367.4 660.99 366.2 658.8 365.9 657.19 368.65 657.24 372.92 655.45 373.41 653.39 373.21 651.38 374.46 646.12 369.8 640.76 365.8 640.01 365.59 638.41 367.05 637.85 368.45 636.55 370.86 633.85 373.16 630.74 373.86 627.33 374.26 623.42 377.27 620.87 380.88 616.66 379.42 616.01 377.92 615.56 376.62 616.01 374.76 616.86 370.61 620.27 367.75 621.67 365.39 623.47 363.39 624.58 361.79 625.23 359.98 625.63 358.03 626.13 357.13 625.53 356.27 623.73 356.27 620.82 356.41 617.5 355.81 615.42 355.22 613.68 355.12 612.5 355.27 611.7 356.63 611.15 357.88 610.65 358.63 609.75 360.48 604.49 360.48 601.43 359.08 598.87 360.73 598.47 364.14 601.48 366.05 604.79 367.9 604.94 370.1 602.53 372.96 600.38 374.66 599.63 375.97 600.18 376.68 599.59 377.03 598.98 376.02 598.17 376.92 591.06 376.02 590.66 375.77 589.25 373.56 588.7 370.66 586.9 370.2 585.4 371.56 585 372.76 584.65 373.81 584.19 374.36 583.59 374.81 582.44 375.27 581.64 375.82 580.09 377.04 577.42 376.72 576.38 377.77 575.88 378.97 575.73 380.03 575.68 381.08 575.73 382.23 575.38 382.08 574.12 382.28 572.37 384.51 569.02 383.41 568.48 380.14 565.93 378.22 563.55 379.37 563 380.28 561.55 380.18 559.34 382.18 559.14 383.63 559.19 384.74 558.99 385.14 558.34 384.44 555.94 382.18 553.58 382.48 551.58 380.98 550.33 382.08 549.07 383.28 548.42 384.84 548.67 385.74 549.07 386.79 549.17 387.99 549.07 388.75 548.37 390.65 542.76 389.05 539.8 389.85 538.4 391 538 391.75 537.4 392.7 535.85 393.86 533.99 393.27 532.51 391.35 530.03 385.49 528.03 387.84 526.58 388.54 524.57 391.4 525.73 393.81 524.87 395.41 525.42 396.06 526.18 398.42 526.88 399.72 526.38 400.57 526.03 401.47 525.52 402.63 523.97 403.38 522.87 404.03 522.02 404.58 520.82 404.38 519.31 402.12 516.96 404.83 515.6 405.93 514.55 405.13 512.9 405.53 511.65 407.39 511.25 407.29 509.59 407.69 507.74 407.9 505.46 406.28 503.48 404.18 504.28 404.68 502.73 406.08 501.83 407.89 501.63 409.24 501.53 410.44 500.92 411.14 499.72 412.05 497.82 413.65 496.67 414.65 495.36 415.65 492.97 415.51 491.7 413.25 487.9 415.45 487.6 416.96 486.9 418.76 486.09 420.56 483.94 421.92 482.39 423.47 481.54 423.52 479.93 424.37 478.53 423.12 477.38 423.52 476.42 424.67 475.07 425.68 474.07 425.68 472.67 421.97 470.26 423.67 468.71 423.52 467.01 424.46 464.83 421.27 462.1 422.72 459.59 423.12 457.34 421.17 455.03 421.37 449.72 422.02 446.56 421.81 442.31 419.57 439.65 418.01 436.59 415.55 436.59 414.06 438.03 412.42 439.3 410.34 440.92 407.95 443.35 405.63 444.26 404.28 444.41 403.33 444.96 403.58 445.71 402.63 446.11 402.29 445.31 401.62 442.91 402.17 439.7 402.48 437.65 401.97 433.84 402.22 430.68 402.02 427.47 400 422.52 400.29 421.52 401.11 420.9 402.12 419.65 404.3 419.02 403.7 417.51 401.19 415.91 397.99 415.31 394.08 415.71 389.77 415.91 385.84 416.97 382.75 417.61 379.89 417.48 376.61 417.94 374.63 417.21 373.2 416.6 370.37 416.71 366.52 416.51 362.51 416.81 359.1 417.92 355.59 419.22 352.69 419.52 348.98 420.92 349.08 423.63 353.49 426.43 356.9 427.74 360.2 429.34 364.01 431.34 366.69 433.84 369.07 436.04 371.75 437.89 374.43 440.67 376.66 442.29 378.15 444.95 379.49 447.27 380.38 449.7 380.36 452.03 380.14 454.05 380.64 456.92 380.52 460.45 379.48 464.61 377.68 469.12 375.61 472.05 373.67 475.17 372.24 477.28 370.75 479.7 369.69 480.66 367.66 482.01 366.08 486.37 364.35 487.42 363.68 489.23 362.17 492.38 359.69 494.86 357.81 498.02 356.08 501.1 354.13 504.48 353.38 508.62 352.85 511.77 352.25 514.1 351.95 519.29 351.8 523.35 349.39 526.43 347.67 527.48 346.54 529.81 344.21 530.41 343.83 531.84 340.9 535.6 338.35 537.78 334.51 539.88 333.01 542.81 331.14 546.13 329.65 548.55 327.26 551.33 325.62 553.3 323.98 556.3 321.51 559.57 320.53 564.98 318.35 567.41 318.64 571.57 318.95 575.2 317.74 577.98 316.54 580.52 317.15 582.94 317.7 584.34 315.46 585.95 312.94 586.55 309.27 586.68 307.03 586.91 304.52 586.93 301.32 587.18 299.26 586.47 296.84 584.9 295.65 584.28 293.87 582.54 293.72 581.39 292.83 580.46 291.63 579.03 288.71 578.81 288.12 581.51 286.92 586.9 286.92 590.48 288.35 592.26 288.79 592.95 289.54 593.3 289.98 593.53 292.66 594.11 296.09 594.92 298.48 595.62 303.24 598.39 304.88 600.48 305.77 601.63 304.82 602.56 305.2 603.76 305.5 604.96 305.65 606.47 305.12 606.54 303.51 605.74 302.77 605.74 302.27 605.86 301.44 605.49 300.76 605.79 300.01 606.54 298.45 606.96 297.11 606.61 296.29 606.83 294.95 606.83 293.46 606.91 291.97 607.48 290.93 608.86 288.54 610.59 287.51 612.02 286.16 614.1 284.9 615.34 282.96 616.61 280.62 617.59 277.82 618.25 273.65 618.83 270.82 620.55 267.69 621.01 266.43 623.13 264.16 622.55 265.83 624.29 266.04 627.44 269.17 630.57 273.72 631.92 276.69 635.04 278.91 636.95 281.75 638.26 282.08 639.4 282.52 640.44 282.34 641.18 282.18 642.11 281 642.91 280.32 642.08 278.44 641.49 273.55 642.54 270.77 644.34 267.69 645.02 264.92 646.84 261.19 648.22 258.22 648.78 255.97 649.98 254.46 650.58 252.58 651.63 250.63 653.51 247.32 656.89 245.9 664.29 247.77 668.69 247.47 672.74 248.21 676.67 249.7 680.72 251.63 685.11 253.12 688.47 255.05 690.9 257.14 692.86 260.63 694.7 264.59 694.49 266.19 692.74 269.42 693.72 268.67 695.75 268.14 697.4 266.26 699.88 265.14 703.71 265.74 705.29 266.51 706.28 266.66 708.94 268 710.45 268.82 712.58 269.5 713.56 269.57 714.91 269.34 715.81 270.47 717.47 269.42 717.39 267.77 715.36 265.59 714.39 263.63 712.88 261.6 711.83 256.53 714.49 254.74 714.49 254.09 713.26 251.61 713.48 249.35 715.51 246.57 716.49 244.31 720.39 244.01 719.81 241.83 719.95 243.19 717.69 245.95 714.37 245.95 712.41 245.5 711.36 244.61 710.32 243.42 709.74 241.38 708 237.16 708.7 234.48 708.24 231.95 707.54 231.54 706.57 228.91 704.84 225.83 704.99 223.19 705.07 221.77 704.84 219.44 704.92 217.11 707.4 213.35 707.1 210.64 707.17 206.06 707.47 202.67 707.77 200.72 708.67 199.82 710.4 199.47 713.43 197.86 716.34 197.19 718.22 195.91 719.87 194.48 722.5 193.05 725.06 192.53 728.74 191.63 732.05 192.68 736.48 193.43 740.54 194.03 745.05 193.35 749.71 192 755.95 190.95 761.81 190.57 764.36 190.12 766.99 189.97 768.95 189.22 769.85 189.6 771.73 188.32 773.08 186.36 773.38 184.94 773.83 182.61 774.88 180.88 777.51 180.13 779.39 179.82 783 180.93 787.56 181.1 790.57 182.68 795.85 183.27 799.08 184.46 801.98 186.82 804.57 188.69 806.6 189.73 809.77 190.32 812.08 189.87 814.51 190.8 815.09 191.52 816.22 194.35 817.84 196.2 818.76 200.57 818.85 203.35 817.8 205.16 817.42 206.28 815.77 208.31 816.14 205.68 819.45 203.5 822.01 202.52 823.51 201.77 823.81 200.12 823.81 198.92 823.66 197.24 823.65 194.4 823.07 191.55 825.16 192.84 828.73 196.36 832.9 198.24 836.06 198.77 837.34 204.18 840.12 205.76 839.29 207.79 838.76 209.51 838.61 210.27 838.09 211.17 837.26 212.05 839.73 213.69 841.58 215.53 843.12 215.47 844.94 213.53 843.05 208.89 840.29 207.14 842.17 205.88 843.11 203.38 846.8 201.56 844.74 195.55 846.68 195.86 845.11 193.13 842.61 192.98 840.67 190.85 838.47 189.3 836.81 186.89 835.16 184.94 834.1 183.66 835.01 183.06 836.89 182.53 838.91 182.46 840.34 182.68 842 182.68 843.27 182.16 845.68 181.66 850.36 180.31 853.94 178.25 858.6 176.29 863.04 175.69 868.98 176.58 870.83 177.17 873.95 178.21 877.88 178.2 881.88 179.39 884.38 178.95 887.95 179.26 890.39 180.64 891.14 181.21 893.27 182.67 895.58 183.56 896.74 184.3 898.24 183.86 899.17 182.67 898.59 180.43 897.66 178.65 897.43 177.45 897.31 175.67 897.55 174.33 896.97 173.14 894.88 170.68 896.28 172.25 891.99 170.9 890.03 170.16 888.29 168.67 886.32 167.55 885.57 166.49 884.32 164.54 883.32 163.41 880.3 160.8 881.1 157.39 882.7 153.99 885.31 149.58 888.51 145.57 890.52 142.76 892.92 139.75 894.93 135.75 897.13 133.94 898.93 132.54 902.34 132.76 907.82 132.46 911.06 133.21 913.6 134.84 916.38 137.13 917.91 139.27 919.66 140.46 920.93 142.64 922.62 146.1 924.47 148.92 924.8 155.79 924.99 160.8 926.19 159.45 928.96 161.94 930.97 169.37 933.05 170.12 934.95 162.55 932.92 155.74 932.02 151.33 930.04 147.48 931.21 146.3 931.89 145.25 932.24 144.35 932.29 143.65 932.14 141.44 931.74 138.74 930.88 136.83 932.19 136.03 934.79 135.13 937.2 133.82 938.65 132.02 940.6 129.21 944.46 124.55 949.62 123.1 951.48 122.15 952.58 118.91 957.85 118.71 961.46 118.91 965.47 120.8 970.31 121.85 973.62 120.86 978.21 120.31 981.1 118.91 982.51 118.91 985.51 119.31 988.52 118.79 991.96 116.92 995.19 115.73 997.52 114.24 1000.4 111.7 1002.55 110.06 1005.09 103.55 1012.63 100.69 1014.58 94.98 1014.73 91.79 1013.1 89.12 1011.73 84.31 1010.22 82.95 999.55 62.66 993.84 60.86 986.93 61.31 978.96 67.32 975.2 77.09 975.5 82.49 977.12 83.13 960.64 87.71 956.21 107.78 936.81 107.58 927.19 86.8 944.45 63.89 963.47 62.87 968.05 60.64 968.17 57.66 968.86 55.13 969.78 52.89 971.29 50.06 972.68 46.34 975.56 41.27 979.5 33.89 980.94 32.02 981.3 24.8 985.11 20.8 988.12 16.79 990.72 12.78 995.33 13.98 1001.54 11.98 1005.75 11.58 1007.36 10.97 1008.56 10.97 1014.17 9.65 1016.07 10.37 1019.58 11.29 1022.95 10.37 1028.4 9.28 1040.99 9.43 1045.4 10.68 1048.21 7.49 1047.11 6.93 1043.62 7.74 1041.97 7.59 1040.52 7.1 1040.78 6.16 1041.89 4.04 1043.93 2.92 1048.86 3.7 1051.76 2.95 1052 1.76 1051.81 1.16 1050.51 1 1048.66 4.63 1025.99 4.26 1022.42 5.89 1014.65 6.76 1007.56 6.97 1003.55 7.77 998.54 9.37 993.33 12.78 991.72 14.78 988.52 19.19 983.91 22.8 981.9 27.42 980.76 31.14 977.64 35.16 975.1 39.04 972.67 40.98 970.7 42.32 968.16 60.18 957.54 78.52 946.63 83.59 941.03 85.97 938.4 90.87 932.99 93.75 929.8 95.28 925.3 112.8 907.55 119.12 897.55 106.1 901.43 94.45 912.89 83.13 930.8 81.52 931.15 74.71 932.6 70.1 939.42 59.28 939.42 54.67 942.22 42.04 955.85 35.85 954.92 34.05 949.66 31.57 948.39 29.01 948.91 30.52 947.48 33.67 947.33 33.75 944.25 33.27 943.75 32.4 942.82 31.19 942.75 28.78 946.53 25.26 949.14 24.43 948.61 25.86 945.76 26.31 939.29 29.01 938.16 29.31 935.61 33 935.01 34.2 931.33 33.82 929.22 34.27 928.17 35.63 923.21 33.75 921.33 31.27 921.63 37.06 918.62 35.33 911.34 39.39 905.62 40.96 902.54 42.77 897.28 43.9 893.97 42.09 889.84 38.18 887.51 36.15 887.66 36.38 886.68 45.7 886.53 47.35 884.36 49.68 879.7 52.2 879.69 53.82 876.01 56.37 871.95 58.25 868.87 60.06 864.89 61.94 859.63 63.89 855.72 65.02 853.24 65.62 851.29 66.67 849.26 67.07 847 69.16 844.92 71.1 842.8 71.86 841.74 72.68 840.47 73.51 839.34 74.12 837.71 74.04 836.48 72.76 834.98 70.2 834.38 68.25 834 65.27 833.48 62.58 834.49 60.81 836.63 58.78 838.44 56.52 839.04 54.16 841.29 52.77 840.32 51.25 838.75 47.31 838.86 42.9 839.72 43.39 839.27 45.47 837.38 48.63 834.6 53.59 833.63 55.32 832.12 57.05 828.89 63.44 825.89 67.65 823.78 68.93 822.35 69.45 821.45 69.45 820.55 69.3 819.72 69 818.52 69.07 817.24 67.88 816.08 67.43 815.15 66.14 813.11 66.37 809.05 68.02 806.87 71.63 798.08 70.8 795.6 71.48 794.4 72.08 792.22 72.61 790.26 72.31 788.01 72.23 787.18 71.15 786.19 69.83 785.23 68.25 784.85 66.22 786.13 63.57 788.21 62.68 787.05 61.19 785.43 60.15 784.16 55.47 782.82 56.45 781.92 56.6 779.74 57.47 777.22 54.64 775.83 53.64 773.83 52.99 772.53 50.43 772.6 48.9 773.34 46.98 774.26 44.01 773.96 40.14 773.2 38.29 774.91 36.92 776.17 36.21 774.95 35.63 773.95 37.13 773.58 37.73 772.23 38.18 770.42 39.46 770.42 40.96 770.42 42.62 770.42 45.05 770.46 49.53 765.91 52.01 766.06 53.97 764.26 55.32 763.51 59.68 764.64 63.89 764.49 65.77 765.46 69.15 767.04 72.16 768.02 73.21 769.75 76.37 771.78 78.17 771.4 79 770.8 79.75 769.52 80.35 767.12 80.88 764.94 80.43 762.61 79.52 758.62 77.94 756.52 76.74 755.62 75.21 754.67 74.79 751.86 76.22 750.43 77.49 749.83 77.94 749.08 77.72 747.28 77.99 744.92 76.29 742.24 73.89 741.11 71.78 740.36 69.83 740.29 69.6 738.93 66.75 739.31 65.84 739.08 64.27 738.33 62.69 738.63 62.16 739.69 60.28 740.29 60.32 739.17 59.88 738.36 59.83 736.98 59.53 735.55 61.11 735.63 62.09 735.85 63.21 735.93 63.59 735.33 65.09 734.72 67.63 733.25 68.26 731.77 64.55 730.9 62.86 730.38 61.11 729.16 59 727.74 57.88 726.83 58.78 725.18 59.53 723.75 57.35 721.2 57.93 718.96 59.38 718.57 61.03 719.32 61.56 720.67 64.27 721.87 63.81 722.55 63.91 723.78 65.69 724.71 69 723.53 70.13 722.63 72.08 721.65 73.87 722.65 75.2 724.23 75.53 726.77 77.46 727.95 79.48 727.89 80.01 726.89 80.96 726.64 81.96 726.06 82.64 725.23 81.86 721.48 81.09 717.89 81.76 714.19 83.64 708.12 85.52 704.19 87.55 700.71 89.25 696.68 90.86 693.84 92.91 689.51 94.21 687.61 95.37 684.45 96.34 682.75 97.65 679.84 98.5 678.84 99.15 676.9 98.37 676.08 96.02 676.03 94.11 675.31 91.28 673.68 89.25 671.65 89.35 670.2 90.05 668.02 90.51 667.12 90.76 666.56 91.11 665.31 90.51 664.75 89.5 663.81 90.93 662.41 93.74 659.72 91.65 658.91 89.75 657.4 85.61 658.2 83.59 657.72 82.34 658.22 81.11 657.67 80.6 656.62 83.49 654.24 84.54 652.61 85.8 651.68 86.82 650.66 89.13 647.92 90.04 647.06 91.81 648.43 93.71 650.76 97.25 649.98 100.15 649.89 101.79 649.08 102.24 648.04 102.11 647.05 102.18 645.82 102.61 644.52 103.78 642.94 105.04 642.09 107.54 640.91 109.77 640.44 111 639.73 115.28 636.83 116.81 635.43 117.06 634.2 117.99 632.69 118.62 630.49 118.67 627.66 118.49 623.88 116.85 621.56 115.96 620.4 116.11 619.83 120.73 620.06 126.39 620.06 130.71 620.06 132.1 618.72 132.05 617.91 132.1 616.89 131.12 614.96 128.78 612.89 126.06 611.78 122.22 610.2 119.69 610.69 119.09 609.19 118.59 606.09 119.24 602.88 121.9 599.73 124.73 598.55 129.19 598.83 133.22 598.15 137.03 599.03 138.44 599 140.26 597.4 140.26 594.97 139.69 589.88 139.01 584.05 139.31 582.29 140.09 578.33 141.09 574.75 140.97 571.27 140.29 569.39 138.59 569.04 135.18 570.29 133.37 571.7 131.42 573.6 127.46 576.34 124.96 577.16 123.58 576.53 121.05 575.33 119.84 574.78 119.52 574.23 118.14 573.5 116.36 573.42 105.14 566.21 102.53 565.26 101.95 564.39 99.12 563.73 97.5 562.53 96.33 562.22 95.54 562.3 95.39 561.93 95.72 561.52 96.52 561.52 98.52 561.47 100.58 561.32 103.21 561.22 104.54 561.22 106.24 560.95 108.24 560.35 109.22 560.75 111.4 560.92 113.88 560 114.31 559.32 114.56 557.84 115.46 556.19 116.29 556.06 118.24 555.64 118.83 552.52 120.34 547.3 118.94 545.84 119.59 544.49 121.37 542.99 123.88 541.51 124.68 541.86 125.53 541.43 126.13 540.31 126.56 539.48 127.61 538.05 127.09 535.97 127.01 535.05 124.33 533.84 120.82 534.72 117.99 532.39 111.78 535.07 108.97 533.67 104.39 534.58 100.22 534.35 98.95 533.22 97.22 532.44 94.71 532.42 93.02 532.27 93.02 531.37 93.55 529.87 96.03 528.22 100.31 527.99 101.67 526.71 104.67 525.21 107.53 523.56 111.89 521.3 113.99 519.35 123.84 516.04 126.92 514.69 128.95 513.11 129.73 511 126.46 510.42 124.37 509.61 123.33 507.99 122.59 506.37 121.25 504.52 119.31 503.82 117.37 504.17 115.14 504.86 111.86 505.9 108.43 506.83 105.16 507.06 103.52 507.52 102.47 506.94 100.25 506.27 99.45 505.14 99.4 504.59 99.98 504.37 100.25 503.72 100.13 503.32 99.58 503.24 99.12 502.96 100.28 502.84 100.35 501.99 100.2 500.23 99.73 498.38 99.93 497.9 100.68 497.53 102.03 496.88 103.28 495.72 104.54 495.47 105.44 494 106.82 491.69 108.9 489.56 109.47 488.89 110.35 488.23 111.83 488.18 112.2 488.76 112.23 489.66 113.1 490.44 115.89 490.61 117.82 490.87 118.37 489.96 119.39 490.44 120.57 490.81 121.22 491.02 121.82 490.87 122.68 490.74 123.73 490.71 124.3 490.71 124.78 491.42 125.66 491.92 128.34 492.94 129.34 493.07 130.29 493.07 131.27 492.84 133.17 492.92 133.5 493.17 133.72 493.75 134.05 494.27 135.3 494.97 136.33 495.15 138.74 495.22 140.11 495.05 141.22 494.82 142.49 494.32 143.45 493.87 144.07 493.09 145.22 492.47 148.38 491.24 149.01 491.77 149.61 491.42 150.84 490.84 150.76 489.71 153.37 489.89 153.94 491.94 156.71 492.5 158.78 492.72 161.08 492.64 164.24 491.47 169.53 489.56 174.54 488.01 178.05 486.98 179.96 484.65 179.65 482.7 178.07 481.55 173.41 477.24 172.52 475.28 171.33 475.04 170.13 475.97 168.85 477.24 166.41 478.28 165.17 478.39 163.64 478.89 162.69 479.22 160.28 480.49 158.06 482.1 156.42 481.4 155.74 480.76 152.14 478.82 151.09 477.46 150.19 475.73 147.25 474.31 147.78 473.1 148.61 472.5 150.19 471.68 151.54 471.68 152.14 472.13 153.27 472.88 154.24 473.03 156.2 471.68 156.88 469.72 156.57 468.29 154.39 466.57 153.79 463.56 154.92 461.98 156.5 460.7 157.48 458.98 158.45 458.67 158.68 457.25 158.68 454.77 160.68 452.05 158.75 452.29 155.52 450.71 153.79 447.33 153.64 445.22 154.17 444.55 153.73 443.03 153.49 442.22 151.99 441.92 151.01 441.92 148.72 442.64 146.95 443.19 144.7 443.19 143.27 441.24 142.07 437.18 141.24 435.53 141.54 433.05 140.71 431.92 140.26 430.12 141.32 426.43 142.22 424.48 146.05 421.1 148.58 419.5 150.56 418.24 154.62 417.57 157.33 418.02 160.41 417.87 162.74 417.87 167.17 416.89 168.68 416.14 169.43 416.36 173.71 415.99 175.97 415.91 178.82 415.61 182.21 413.66 182.88 412.08 182.81 410.5 184.39 409.82 185.29 408.77 185.21 407.12 184.76 405.92 185.36 402.84 184.08 400.66 183.48 397.73 183.41 395.62 185.21 393.37 185.36 390.21 185.59 386.68 187.02 383.15 189.27 379.39 193.48 370.75 193.48 368.11 194.16 366.09 194.31 360.22 197.63 356.62 200.61 352.81 201.46 351.55 202.26 350.38 203.6 347.6 204.79 345.76 206.66 344.71 208.06 345.51 210.19 346.01 210.82 346.11 213.5 346.54 215.23 347.12 216.76 347.24 219.99 347.69 220.91 347.92 221.14 349.28 222.42 349.62 224.1 350.35 225.12 350.52 229.01 350.52 232.14 349.25 233.04 348.09 233.77 346.44 233.92 345.49 234.54 343.76 235.15 343.08 236.2 342.01 237.55 340.95 238.4 339.58 238.45 337.95 237.83 336.47 238.23 336.37 239.08 335.62 239.23 334.62 239.18 333.26 239.45 331.63 240.08 329.5 239.93 328.53 240.08 327.95 240.11 327.15 239.33 326.5 238.98 325.37 239.68 322.62 240.26 320.79 241.23 319.31 243.29 317.38 243.71 315.9 244.69 314.6 246.02 309.59 245.27 309.14 244.19 309.11 243.71 309.09 243.79 308.44 244.67 307.79 245.02 307.43 245.49 306.46 246.6 303 246.6 302.45 246.42 302.45 245.52 302.15 245.52 301.8 245.82 301.05 246.32 300.4 246.7 299.99 246.97 299.62 246.87 298.04 247.4 296.84 246.6 295.88 245.79 295.59 244.97 295.41 244.22 295.33 243.41 294.83 242.41 294.11 242.56 293.26 243.11 293.23 243.86 293.18 245.72 293.16 246.45 293.08 247.3 292.48 247.67 291.38 247.75 290.53 247.67 289.55 246.77 289.02 246.42 288.6 246.55 287.67 246.87 287.42 247.27 287.22 247.8 286.62 248.25 285.62 248.68 284.69 248.73 284.56 249.23 284.06 249.48 283.46 249.68 282.93 250.13 282.11 249.28 281.22 248 280.88 247.07 280.84 244.52 280.74 243.74 280.96 243.04 281.06 242.19 281.23 241.96 281.51 241.58 282.08 240.98 282.31 240.71 282.31 239.86 282.28 239.98 282.01 240.18 281.08 240.23 279.98 240.31 279.1 240.31 278.95 239.96 278.35 239.96 278.02 240.46 277.97 240.63 277.72 240.88 277.27 241.26 277.2 241.51 276.52 241.38 275.39 241.16 274.64 240.61 273.62 240.28 272.84 239.56 272.26 238.73 271.81 238.18 271.96 237.85 272.29 237.43 272.71 237.2 272.51 235.77 272.19 235.25 272.81 234.77 272.91 233.99 272.91 232.99 271.99 233.09 271.49 233.99 270.66 234.72 270.56 235.57 270.41 236.47 269.78 236.9 269.01 237.65 268.36 238.44 266.9 236.43 264.46 239.27 261.92 241.65 259.14 244.19 255.9 245.98 251.39 245.19 251.35 245.14 250.27 245.44 249.32 245.79 249.79 246.24 250.14 246.67 250.44 247.67 250.52 248.15 249.92 248.52 248.79 248.3 248.16 249.38 248.14 249.63 248.56 250.35 248.97 250.8 248.87 251.16 249.92 251.81 250.39 253.49 250.82 253.84 251.4 255.11 252.55 255.92 252.85 256.32 254.18 257.12 255.25 258.95 255.58 259.75 255.15 261 256.03 261.88 256.38 262.15 255.55 262.46 254.43 262.25 254.13 261.83 253.83 261.85 252.15 262.43 250.74 262.78 250.17 263.51 249.74 264.06 249.52 264.13 249.22 264.23 247.41 265.24 247.94 266.99 247.46 267.79 248.51 268.82 248.61 269.62 247.54 270.7 245.71 272.08 243.98 274.01 241.75 274.68 239.4 275.88 236.31 276.18 233.51 275.28 230.45 276.06 224.99 276.84 222.61 275.91 221.01 277.41 219.68 277.99 217.85 279.24 216.13 279.42 213.87 279.19 212.89 280.12 212.04 280.9 211.56 282.02 211.39 282.8 211.24 283.85 211.21 286.46 212.54 288.76 212.34 289.19 211.46 289.87 208.72 290.6 203.1 292.37 202.35 291.98 200 293.24 199.25 293.66 198.02 294.47 196.24 296.73 196.03 299.98 196.66 304.43 194.41 303.28 192.82 300.61 189.6 299.67 187.34 298.33 186.3 297.9 185.06 297.42 183.83 297.73 183.19 298.26 182.08 301.72 181.93 305.06 181.87 311.01 183.17 312.79 183.77 311.61 180.7 308.92 179.48 306.98 177.4 305.79 176.59 305.94 175.55 306.33 174.92 306.65 174.38 308.97 173.63 309.78 173.26 311.29 173.44 311.47 173.51 312.16 174.07 312.91 174.26 313.54 174.2 313.92 173.32 314.36 172.69 315.17 172.19 316.55 172 318.61 172.59 320.06 172.32 321.18 172.5 322.5 173.01 323.94 175.07 323.25 175.45 324.19 176.7 325.25 177.51 326.13 177.83 326.63 178.89 326.51 179.71 326.52 180.64 327.13 181.18 328.15 181.27 329.41 180.61 330.94 178.96 333.27 178.89 334.52 178.83 335.84 178.27 336.95 176.04 338.29 175.34 339.66 174.82 342.29 174.63 343.11 173.82 343.35 172.1 341.56 170.83 340.07 170.25 339.48 170.01 340.07 168.97 340.79 167.62 341.23 166.87 341.66 165.87 342.92 165.3 344.36 164.61 344.99 163.08 343.48 161.95 340 160.33 335.18 159.21 330.41 159.42 328.57 159.1 326.85 158.94 326.38 159.35 325.25 159.85 323.69 160.1 322.75 159.23 320.56 155.66 320.37 153.22 321.57 152.87 322.56 152.59 322.94 152.28 324.38 152.46 324.57 152.96 323.56 153.53 323.69 154.44 323.81 155.28 324.56 155.15 325.88 154.91 327.38 154.59 329.51 153.28 331.96 151.46 335.9 149.96 336.9 149.46 338.47 149.27 341.29 149.39 343.36 149.77 343.92 147.95 343.17 147.27 341.41 145.57 339.79 143.51 339.66 141.75 341.29 139.69 344.73 137.93 348.49 137.06 349.18 137.31 351.5 138.56 352.13 139.88 353.88 140.19 355.32 139.06 355.76 137.5 356.32 135.55 357.14 135.3 358.06 134.58 357.01 134.18 355.88 133.24 355.32 131.67 355.32 129.48 355.13 129.1 356.2 127.79 355.88 126.66 356.8 125.15 358.14 124.8 360.08 125.15 361.12 125.96 361.86 126.42 362.31 125.73 363.36 123.42 364.55 121.8 366.34 118.44 367.83 115.32 369.62 112.78 371.56 112.09 373.64 114.63 373.94 116.83 372.94 118.7 372.45 123.42 371.7 127.47 371.39 131.17 369.49 133.73 366.81 135.94 368.24 140.26 368.69 141.43 369.25 142.83 370.82 143.19 372.54 143.31 374.02 143.47 375.3 143.99 377.91 144.67 379.27 145.39 380.52 147.28 381.88 147.24 384.08 147 384.48 146.72 384.52 146.12 384.12 144.59 383.24 142.19 382.56 140.34 382.2 139.7 382.2 137.42 382.12 136.14 381.68 134.65 380.64 134.05 381.04 132.57 381.76 131.57 383.2 130.72 384.44 130.08 384.77 129.12 384.77 127.72 385.81 125.31 388.54 124.01 387.95 120.54 387.2 118.11 386.16 114.98 385.12 111.51 384.38 109.32 384.83 106.19 385.87 104.23 386.62 103.31 388.26 102.61 390.35 102.41 389.35 101.17 390.56 100.64 391.75 100.74 393.72 101.2 395.06 102.04 395.81 102.98 395.55 103.52 394.24 104.52 394.96 105.55 395.36 105.41 395.83 105.68 395.81 106.26 396.57 106.55 397.83 106.45 398.19 106.14 398.49 105.25 399.23 104.35 400.75 104.14 402.37 103.91 403.87 103.91 405.48 103.95 406.98 103.96 408.4 104.21 409.33 104.64 409.78 104.89 409.92 105.36 409.87 106.13 409.97 106.8 410.22 107.32 411.79 107.82 413.26 108.14 415.06 108.52 416.18 108.83 417.52 108.79 418.83 108.48 420.49 107.82 422.52 107.13 423.25 106.83 424.95 106.67 426.39 106.67 427.21 106.7 428.03 106.77 429.71 107.39 430.19 107.6 430.3 108.12 430.13 109.26 430 110.65 430.15 111.78 430.33 112.39 430.94 112.46 431.67 112.46 433.07 112.13 433.86 111.65 434.76 111.26 434.47 110.54 434.1 109.98 433.6 109.23 432.67 107.99 431.87 107.05 431.37 106.15 431.14 105.15 430.63 103.87 430.35 102.9 430.53 102.08 430.81 101.02 431.07 100.43 431.34 99.78 431.47 99.01 431.59 97.22 431.65 96.19 431.77 95.79 431.97 94.97 432.08 94.28 431.85 93.38 431.73 92.56 431.24 92 430.75 91.27 430.35 90.49 429.52 89.73 428.69 89.1 427.51 88.44 426.24 88.24 425.03 88.19 424.41 88.04 422.75 86.19 422.4 85.79 421.59 85.22 420.71 85.01 420.14 84.75 419.63 84.46 418.78 83.91 418.35 83.68 418.29 82.72 418.68 81.85 418.98 81.55 419.87 81.53 420.37 81.66 420.78 81.83 421.72 81.9 422.65 82.03 423.11 82.1 424.55 82.18 425.78 82.24 426.68 82.14 427.42 81.79 428.33 81.49 429.06 81.49 429.57 81.18 429.44 80.74 428.42 79.89 428 79.31 425.97 78.57 425.83 78.23 425.38 77.97 424.91 78.02 424.43 78.27 423.61 78.11 422.89 77.89 422.32 77.74 421.37 76.64 420.63 75.73 419.3 74.2 418.98 73.37 418.78 72.6 419.18 71.87 419.78 70.94 420.25 70.7 421.08 70.64 421.43 70.78 423.16 71.26 423.99 71.59 425.22 71.84 426.77 72.42 427.78 72.48 428.77 72.82 429.55 72.65 431.04 72.3 432.81 71.84 434.18 71.32 434.72 71.04 435.96 70.53 436.6 70.08 436.87 69.65 437.09 68.58 437.17 68.02 437.17 66.9 436.87 66.35 436.9 65.34 436.82 63.8 436.47 63.17 436.3 62.85 435.8 62.44 435.44 62.24 435.25 62.29 434.89 62.4 434.56 63.25 434.53 63.67 434.2 63.88 433.33 63.85 433.06 63.7 431.88 63.4 431.22 63.13 430.23 62.71 429.42 61.56 428.46 60 428.31 59.39 428.3 59.38 428.16 58.77 428.25 57.96 428.4 57.32 428.96 56.91 429.3 56.66 429.81 56.81 430.32 57.08 431.16 57.84 431.58 58.26 431.76 59.04 432.19 59.61 433.42 60.3 434.17 60.48 435.19 60.57 435.52 60.36 437.21 60.36 438.71 60.18 439.13 60.27 439.52 60.63 440.18 61.29 440.51 61.2 440.81 60.78 440.36 59.97 441.24 59.91 442.06 60.09 442.11 59.67 442.2 59.07 443.1 58.35 443.43 57.93 443.7 57.02 443.61 56.09 443.43 55.79 443.73 55.01 444.15 54.38 444.12 53.84 444.63 53.18 445.17 52.76 445.29 52.18 445.35 51.37 445.47 50.44 445.5 49.84 445.77 49.06 446.38 48.04 447.37 47.4 448.09 47.25 448.75 47.13 449.56 47.16 450.25 47.28 451.37 47.43 452.03 47.71 452.63 47.89 453.2 48.22 453.86 48.64 454.13 49.33 455.55 49.84 455.97 50.59 456.27 51.73 456.27 52.67 456.51 54.17 457.02 54.86 457.41 55.16 457.62 56 457.62 56.69 457.23 56.96 456.72 57.14 456.12 57.57 456.18 58.47 456.66 59.64 457.08 60.42 457.41 61.14 457.47 61.98 457.14 63.01 457.14 63.73 457.44 64.33 457.53 64.93 457.74 66.61 457.98 67.31 458.1 68.06 458.13 68.72 459.39 69.71 460.42 70.04 460.9 69.98 461.44 69.8 462.04 69.53 462.73 69.41 463.63 69.26 463.99 68.78 463.81 68.27 463.09 68.12 462.79 67.67 462.55 67.12 462.1 66.22 461.29 65.92 460.9 65.08 460.78 64.51 461.08 63.63 460.05 62.07 460.13 61.27 460.33 60.57 460.65 60.12 461.33 59.74 462.46 59.27 463.63 58.97 464.59 58.82 465.04 58.77 465.96 58.77 467.04 58.87 467.92 58.94 468.59 59.27 469.15 59.92 469.55 60.35 469.92 60.42 470.25 60.22 470.17 59.64 470.52 59.19 470.5 58.39 470.27 57.94 469.77 57.41 468.97 56.46 468.02 55.71 466.87 54.73 464.96 53.73 464.39 53.03 464.08 52.23 464.01 50.05 463.73 49.3 463.13 48.17 462.51 47.12 462.28 46.59 462.76 45.77 463.13 45.16 463.61 44.99 464.54 44.54 465.09 44.09 465.34 43.34 465.26 42.84 465.19 42.36 464.69 42.16 463.83 41.11 461.4 38.55 460.58 37.4 459.27 36.3 458.35 34.97 458.21 33.82 457.76 31.85 457.61 31.42 456.92 31.34 456.99 30.66 457.29 30.08 457.65 29.46 457.95 28.96 458.35 28.51 458.47 28.18 457.7 27.7 457.8 27.35 458.5 27.58 459.15 27.8 460.5 28.03 460.88 29.08 461.48 30.11 461.43 30.41 461.13 31.11 461.33 32.35 462.38 32.81 463.18 33.17 463.58 33.74 464.56 33.44 464.96 33.64 465.21 33.94 465.99 34.22 467.07 34.49 467.82 34.72 469.35 34.84 470.45 34.62 471.55 34.37 472.6 34.59 473.43 34.12 474.73 34.54 475.63 34.32 476.51 34.27 477.09 34.57 477.91 34.92 478.69 34.34 479.87 33.47 480.17 32.19 480.14 30.71 479.82 29.43 478.99 28.11 478.09 26.83 476.91 26.13 475.71 26.05 475.18 26 474.51 25.47 473.66 24.02 473.41 23.57 472.63 23.37 471.65 23.12 471.33 22.74 471.02 21.97 470.45 21.39 469.26 20.88 469.26 20.88 469 20.77 468.14 19.86 467.47 19.06 467.39 18.56 467.54 18.01 467.82 17.93 468.49 18.03 469.02 17.93 469.9 17.51 471.5 16.93 472.3 17.01 473.58 17.01 474.46 17.51 474.98 17.06 476.16 17.11 477.24 16.81 478.32 16.96 479.09 16.98 480.57 16.83 481.5 16.78 482.98 16.21 483.43 15.58 483.98 15.03 484.23 14.98 484.91 15.11 485.24 14.43 485.24 14.42 484.93 13.4 485.01 12.4 484.6 11.32 484.1 9.77 484.13 9.39 483.78 8.64 483.5 7.99 483.18 7.59 482.78 7.84 482.5 7.94 482.17 8.14 482.02 8.59 481.7 8.79 480.95 9.02 479.34 8.99 478.14 8.54 476.29 7.39 476.04 6.36 476.24 5.58 477.44 5.08 477.84 4.81 479.19 4.66 480.24 4.36 481.2 3.93 482.12 3.63 483.18 2.95 485.98 2 487.89 1.4 489.16 1.15 493.65 1 494.3 1.2 495.08 1.75 Z M 416.57 117.58 416.75 112.44 415.47 115.37 414.97 117.72 415.53 119.4 415.13 119.8 415.15 120.44 416.59 121.66 416.49 122.49 415.71 124.21 415.06 127.03 415.27 128.3 416.29 128.12 417.03 127.4 418 126.63 419.64 127.05 420.4 126.47 420.18 125.29 420.94 124.77 421.16 123.97 421.95 123.85 422.41 123.51 422.82 123.33 421.46 122.22 420.3 121.86 419.5 121.14 419.3 119.38 416.57 117.58 Z M 448.22 119.36 446.8 119.66 446.38 119.59 446.1 119.62 445.98 119.84 445.98 120.58 445.68 121.3 446.29 121.44 446.79 121.74 447.36 121.82 447.89 122 449.53 122 449.71 120.76 449.38 119.57 448.22 119.36 Z M 392.3 262.8 392.6 263.84 392.3 265 391.4 265.57 389.92 265.34 387.38 264.99 384.85 264.41 382.76 263.72 381.27 263.95 380.08 264.3 379.04 265.1 378.14 266.61 378.29 267.88 377.39 268.23 376.05 267.65 374.86 266.84 373.37 266.03 371.74 265.45 370.24 265.45 369.5 265.79 369.35 266.84 369.94 268.8 370.69 270.54 371.13 272.39 372.32 274.01 373.66 275.63 374.41 277.94 376.19 281.53 377.38 284.19 378.42 286.27 380.06 287.08 382.15 286.16 383.79 285.58 386.47 285 388.56 284.65 390.05 285 392.28 286.39 393.47 288.01 394.96 289.17 396.6 289.86 398.39 290.56 399.58 291.83 400.62 294.03 401.36 296.34 401.81 298.77 402.11 301.32 401.95 304.67 402.1 306.52 403.59 306.99 405.23 307.22 407.61 306.29 409.55 304.44 411.19 302.02 413.43 299.24 415.07 296.47 417.31 294.5 418.2 292.3 416.42 291.15 414.33 289.76 411.5 288.71 409.27 287.67 406.29 285.93 405.54 284.78 405.25 283.04 406.29 280.73 407.93 279 408.08 276.57 407.34 274.83 406.15 272.52 405.11 269.86 403.92 267.08 402.88 265.58 401.24 263.26 399.6 261.99 398.71 261.3 396.77 260.83 395.73 260.6 394.09 260.6 392.75 261.29 392.3 262.8 Z M 152.61 541.07 153.26 541.97 152.44 544.12 154.37 544.93 156.56 543.22 157.58 540.96 158.92 538.31 159.26 537.02 161.37 534.55 158.62 534.25 156.91 535.91 156.01 537.26 154.98 537.88 152.86 539.61 152.61 541.07 Z M 5.12 1032.72 4.5 1040.15 5.99 1038.99 6.47 1038.46 7.53 1037.28 7.77 1033.01 7.74 1030.99 7.43 1029.62 7.14 1028.56 6.58 1027.92 6.39 1028.99 5.12 1032.72 Z M 444.88 469 445.79 469.58 446.11 469.05 446.69 468.11 447.42 466.94 447.89 466.17 448.59 464.82 449.15 461.06 450.55 455.9 451.11 453.34 451.44 451.08 451.5 449.38 451.39 448.89 452.34 448 450.7 445.23 449 445.88 446.94 448.23 443.88 452.89 441.33 457.9 440.47 460.83 442.39 465.58 443.72 467.82 444.88 469 Z M 488.83 467.45 486.89 471.03 484.65 476 483.46 479.7 480.85 483.42 480.37 487.95 483.1 490.27 484.46 491.44 484.9 494.8 486.27 496.36 485.7 497.73 484.3 499.37 482.41 500.17 480.09 500.98 476.96 502.3 475.6 504.1 471.46 510.44 470.46 514.72 469.33 517.37 469.26 520.09 469.84 522.84 469.18 523.34 468.74 524.95 470.34 531.4 471.34 532.54 471.68 533.84 472.34 534.98 472.49 535.26 473 535.23 473.68 535.47 474.67 535.59 475.32 535.31 476.37 534.72 476.62 534.12 476.43 530.38 477.82 527.86 478.72 526.42 479.98 525.22 481.25 524.37 483.17 522.21 483.74 521.64 484.64 521.04 486.06 519.32 486.39 518.3 487.47 517.61 488.19 516.89 489.39 516.32 491.11 514.21 491.47 513.4 492.7 512.5 493.15 511.6 494.17 511.24 495.47 510.76 496.19 510.28 497.51 510.61 498.41 510.91 498.41 511.3 499.2 512.23 500.22 512.62 501.12 513.4 501.18 514.21 500.71 515.22 499.86 517.07 498.17 520.42 497.99 521.4 497.27 522.06 497.54 522.99 497.36 524.04 496.91 525.19 496.13 526.24 495.32 528.7 494.55 529.46 494.28 532.91 493.98 538.58 495.47 541.84 496.07 543.61 496.79 544.76 498.98 542.92 499.62 540.82 500.97 538.98 502.44 532.49 503.95 529.76 504.58 528.19 504.97 527.11 505.99 526.66 506.83 525.13 507.46 524.19 508.4 522.99 508.91 521.91 509.42 521.22 510.05 518.23 509.59 515.67 509.13 514.81 508.01 513.39 507.83 512.82 506.71 511.67 506.8 510.82 507.27 509.87 510.81 506.19 511.17 505.15 510.64 503.26 510.51 501.3 509.79 499.73 508.63 498.17 506.89 496.59 504.98 498.25 503.62 498.73 502.86 499.49 502.1 500.05 500.81 499.93 499.83 500.07 499.09 497.41 498.41 496.05 497.29 494.04 496.48 491.72 493.44 488.75 493.64 487.83 496.76 483.06 495.8 481.9 497.93 480.21 499.29 478.69 499.37 476.77 502.42 470.47 503.46 465.58 504.5 461.06 504.97 457.82 504.62 456.97 502.06 455.72 500.85 455.44 498.69 455.56 496.24 455.88 493.44 459.33 492.23 462.3 491.22 464.32 488.83 467.45 Z M 403.97 575.19 403.37 577.16 403.52 579.82 402.92 584.56 402.91 587.45 402.91 591.96 402.16 594.51 400.52 596.01 399.03 598.32 399.03 600.29 399.92 601.91 400.82 603.64 401.86 606.42 402.3 608.39 403.34 609.08 405.13 608.97 406.33 607.23 407.22 605.96 407.97 603.07 409.61 598.9 411.4 593.7 412.89 590 414.54 585.84 415.73 581.22 415.14 573.46 416.04 568.84 416.79 564.68 416.49 562.48 415.6 562.02 414.85 562.13 413.51 562.36 412.47 563.75 410.98 566.17 409.48 568.83 407.85 570.8 405.31 573.34 403.97 575.19 Z" fill-rule="evenodd"/>
</g>
</svg>