<?xml version="1.0"?>
<svg xmlns="http://www.w3.org/2000/svg" version="1.2" baseProfile="tiny" width="800" height="481" viewBox="0 0 800 481" stroke-linecap="round" stroke-linejoin="round">
<g id="lakecachuma">
<path d="M 238.5 11.08 237.03 11.92 235.35 11.92 233.46 11.71 232 12.75 231.16 14.85 230.53 17.37 229.69 19.68 228.22 20.73 227.17 21.36 226.33 22.2 226.12 23.67 225.71 24.51 225.29 24.72 224.66 25.77 225.71 27.24 226.54 28.29 228.01 29.13 228.85 30.18 227.59 30.39 225.08 29.13 223.19 29.13 221.72 29.97 221.93 31.65 223.61 33.11 224.87 33.74 226.12 34.79 227.38 35.84 227.59 37.1 225.5 36.26 223.4 35.84 221.3 35.84 219.83 37.52 219.83 38.57 218.79 39.62 216.9 40.25 216.06 40.25 216.27 41.51 217.74 42.56 218.79 43.61 218.79 44.45 216.9 44.45 213.54 43.82 209.35 43.19 206.83 43.19 205.16 43.82 204.53 45.29 205.56 46.49 205.79 46.76 206 48.23 204.92 49.07 204.11 49.7 202.18 50.27 202.01 50.33 201.64 51.43 201.59 51.58 200.54 53.26 199.29 55.15 196.56 55.15 194.88 54.94 194.46 56.62 194.88 58.09 194.88 60.61 194.88 61.24 193.2 62.5 191.32 62.08 189.64 62.08 187.54 62.71 186.08 62.92 184.4 64.6 184.4 65.65 183.56 66.7 182.83 67.82 181.78 68.66 181.15 69.92 181.25 71.52 181.04 72.99 179.16 74.46 177.48 75.93 176.06 77.15 176.01 77.19 176.04 77.24 176.64 78.24 180.83 79.29 182.93 78.66 184.4 78.66 185.26 80.75 186.29 82.02 187.75 82.02 189.22 82.44 189.85 83.7 190.69 84.54 191.95 85.59 193.2 85.8 194.88 85.8 196.56 85.17 197.82 85.38 198.45 86.22 199.29 87.06 199.73 90.29 199.5 89.99 200.12 91.04 200.13 91.04 201.17 91.04 201.8 92.3 203.48 94.61 205.16 93.77 206.41 94.82 207.25 95.45 209.14 95.24 211.03 94.4 213.91 91.81 214.72 91.41 217.54 90.29 219.23 89.49 220.17 89.19 221.04 89.18 222.65 89.38 223.53 89.28 224.54 89.19 228.03 88.08 229.71 87.43 231.19 87.07 232.47 86.76 235.63 86.12 236.64 85.89 239.06 85.42 240.6 85.21 241.81 84.88 244.45 84.27 244.66 83.01 240.99 77.66 237.95 76.19 233.86 73.04 231.76 70.62 231.55 69.78 232.92 69.57 235.85 70.1 237.63 70.94 239.21 71.15 240.46 69.99 240.78 67.3 240.87 66.91 241.07 66.3 241.83 65.9 242.67 66.43 243.19 68 245.18 70.94 246.97 72.62 250.53 75.03 252.63 76.08 253.78 76.19 254.62 75.24 256.3 72.72 255.88 70.94 254.83 69.68 252.9 68.64 252.23 68.02 251.36 66.91 251.76 65.97 252.5 65.6 253.91 65.7 256.34 66.47 257.82 66.87 258.55 66.71 259.16 66.57 259.83 65.93 260.17 65.4 260.64 64.28 260.7 63.51 260.44 62.43 259.97 61.53 259.56 60.85 259.7 60.38 260.84 59.71 262.05 59.34 263.53 58.46 264.27 57.76 265.48 56.74 265.95 56.21 266.35 54.53 267.83 51.1 268.46 50.79 269.19 51.94 269.4 54.78 268.77 56.67 268.77 57.61 268.88 59.4 268.77 60.34 267.41 61.6 266.78 62.86 265.94 64.54 265.52 66.22 266.09 68.76 266.22 69.1 266.55 69.43 267.97 70.41 268.1 70.95 268.03 71.42 267.8 71.67 266.47 71.67 265.42 72.2 265.52 73.46 266.78 75.56 268.1 76.46 268.3 77.21 268.1 77.74 267.7 77.94 267.07 77.95 264.79 77.13 263.63 77.55 263.11 78.92 263.74 82.48 265 85.42 265.1 86.79 264.26 88.36 265.08 90.77 265.28 91.64 266.08 93.56 266.22 94.43 266.49 95.88 266.69 96.75 267.5 98.07 267.83 98.98 268.84 100.59 269.25 101.19 270.59 103.02 271.06 103.52 272 105 272.74 106.04 273.61 107.02 274.62 107.69 275.63 107.99 276.57 107.66 277.38 106.92 278.48 106.04 280.7 104.2 281.53 103.57 283.21 103.57 285.1 102.1 284.89 101.05 284.26 99.37 284.26 97.48 285.1 96.22 286.36 95.8 287.2 94.96 287.82 93.91 288.87 92.02 288.87 90.14 288.87 88.67 289.71 88.25 289.92 85.94 289.71 84.26 288.45 83 287.62 81.53 287.62 79.64 287.82 79.56 288.66 79.22 289.5 80.9 290.76 82.58 292.65 83.84 293.07 84.47 294.12 85.52 295.16 87.2 296.21 88.04 297.68 88.46 299.15 88.25 300.41 88.04 302.29 86.99 304.18 84.89 305.02 84.05 306.28 84.05 307.53 83.42 308.79 81.95 308.79 80.69 309.84 80.69 310.05 81.74 310.68 84.26 311.73 84.89 313.41 84.47 315.08 83.84 316.97 83.84 318.65 83.84 320.74 83 322.42 82.37 323.26 81.11 323.26 79.43 323.47 77.75 324.73 76.7 325.57 75.86 326.2 74.39 326.41 72.92 327.04 71.87 328.29 70.62 328.29 68.73 328.29 67.47 327.24 65.37 326.83 63.9 326.2 62.22 326.58 61.53 327.24 60.33 328.29 59.91 328.92 60.54 329.55 62.01 330.18 63.48 331.02 64.95 332.49 66.21 333.95 65.37 335 64.74 336.05 63.48 336.68 62.22 338.57 60.75 340.04 59.7 341.29 57.6 341.29 56.13 342.13 55.71 343.81 55.71 345.49 55.5 346.74 54.45 347.58 53.82 347.16 52.36 347.28 51.54 347.37 50.89 347.79 49.63 348.42 49.63 349.68 49.63 349.68 48.37 350.31 46.48 350.31 45.64 350.94 43.54 351.57 42.7 352.41 41.86 353.04 41.23 354.71 40.39 356.39 39.76 357.65 38.92 357.75 38.9 359.54 38.5 361.42 37.87 362.89 37.03 362.89 35.77 362.89 33.46 362.89 32 363.31 30.74 364.15 29.27 364.78 27.59 365.41 26.12 365.83 25.28 366.45 24.65 367.92 23.81 370.02 23.81 370.86 24.02 372.95 24.44 374.42 24.23 374.84 22.97 374.42 21.08 374 19.61 373.44 18.86 373.37 18.77 372.95 17.72 373.16 16.25 373.79 16.04 373.95 16.04 375.05 16.04 376.52 16.88 377.36 17.93 378.81 19.39 378.83 19.4 380.03 20.34 380.1 20.36 380.14 20.38 380.16 20.4 380.18 20.41 380.29 20.54 380.71 20.87 381.55 21.71 383.02 23.39 384.49 23.6 386.37 23.81 387.42 24.86 387.84 27.17 387.84 29.27 386.58 30.53 385.96 32 385.84 33.54 385.75 34.93 386.79 37.66 387.63 38.71 388.89 40.39 389.1 41.86 389.1 43.33 388.26 44.17 387.84 44.8 387.21 45.43 386.79 46.69 385.75 47.95 384.07 47.95 382.6 48.58 380.92 49.63 379.66 50.68 379.04 51.52 378.2 52.36 377.15 53.4 376.52 54.03 375.05 54.45 374 55.5 373.58 56.55 374 58.02 375.05 58.44 376.31 58.44 377.57 58.44 379.04 58.65 379.48 58.87 380.71 59.49 380.71 60.54 380.5 62.01 380.5 62.85 379.73 63.28 378.62 63.9 377.36 63.9 375.89 63.06 374.84 63.06 373.58 64.11 373.58 65.37 374.21 66.63 374.21 68.73 374 69.57 373.79 71.04 374.21 72.92 374.21 74.81 372.95 76.28 372.59 76.41 370.44 77.12 368.97 77.12 367.08 77.12 366.66 77.96 367.71 80.69 367.71 80.76 367.71 82.58 366.45 82.58 365.41 82.16 363.31 83.42 361 83.42 359.33 83.21 357.86 84.05 356.6 84.89 354.5 85.31 353.25 85.31 351.57 86.15 352.2 87.2 353.04 88.46 354.08 90.35 354.29 92.44 353.66 93.7 352.62 93.7 351.15 94.75 351.36 96.01 352.83 97.27 353.45 98.11 353.66 99.37 354.5 100.63 354.6 100.74 355.97 102.31 355.34 103.36 353.66 103.36 351.57 102.94 349.47 101.68 346.95 101.47 345.7 101.89 346.12 103.15 348.21 103.99 349.26 105.04 350.31 106.09 351.15 106.93 351.99 107.98 352.62 109.66 353.87 110.91 356.81 112.17 359.95 112.17 360.79 112.8 361.42 114.06 360.76 115.22 360.58 115.53 358.28 115.95 356.18 115.95 354.29 115.53 351.36 114.9 350.31 114.69 348.42 113.64 347.37 112.59 345.7 111.33 344.02 110.29 341.92 110.29 340.45 111.75 338.36 112.38 336.26 113.85 335.21 114.48 335 115.53 335 116.01 335 117.21 334.16 117.63 332.91 117.21 330.39 116.37 328.5 116.58 326.83 117.21 325.57 118.05 323.47 118.68 321.37 119.94 320.12 121.62 320.19 122.99 321.45 124.04 323.12 125.09 324.17 126.34 324.17 127.81 323.29 128.34 323.12 128.44 322.08 128.02 320.61 128.02 319.77 127.39 318.09 126.76 315.99 125.92 314.32 125.3 312.85 124.67 310.96 124.25 308.66 124.04 306.98 123.62 304.67 123.62 302.99 124.25 300.69 125.71 297.75 126.76 295.66 126.76 293.77 126.55 291.46 126.55 289.76 126.71 288.3 126.92 287.67 128.39 288.51 129.23 289.55 129.44 290.39 130.49 291.65 131.33 293.75 131.33 295.85 130.91 296.68 130.91 298.15 130.91 299.2 131.12 300.04 132.59 300.88 134.27 300.67 134.9 300.22 134.74 298.36 134.06 296.68 133.85 295.01 134.48 294.8 135.32 295.64 136.79 296.47 138.68 297.73 140.36 298.36 141.83 299.83 143.51 300.67 145.39 301.93 147.7 302.97 150.64 303.6 152.74 304.65 155.26 305.7 156.94 306.75 158.2 307.8 158.83 309.26 159.25 310.73 158.83 311.78 157.57 313.25 156.94 316.81 155.89 320.59 154.63 323.1 154.21 324.57 153.37 325.62 152.53 327.3 152.11 329.18 151.9 330.44 152.53 331.7 152.53 334.01 151.9 335.06 150.01 336.94 148.54 338.62 148.33 339.67 149.38 339.88 150.85 339.88 153.16 340.09 154.63 341.77 155.68 344.28 155.68 346.17 156.73 347.64 157.78 348.89 158.62 351.83 158.62 355.39 159.04 357.49 159.25 359.59 159.04 361.06 160.3 362.52 161.77 362.73 163.23 363.57 163.86 365.04 162.4 366.3 161.35 367.56 160.3 367.98 160.72 367.98 162.4 367.35 163.44 367.35 165.12 367.35 167.01 367.98 168.27 369.44 168.69 371.12 168.69 373.85 167.85 375.1 167.85 374.06 169.74 371.54 171 370.07 172.47 369.86 174.57 369.86 176.88 370.07 180.87 370.91 183.8 371.33 186.74 372.8 188 374.68 188.42 376.15 188.63 377.91 189.14 378.96 189.14 380.21 188.51 381.68 188.3 382.31 189.56 381.68 190.81 381.05 191.86 382.31 193.54 382.94 193.75 384.83 194.8 385.46 195.43 386.71 196.69 387.76 198.37 388.39 199.42 389.65 200.47 390.91 201.31 391.96 201.52 395.31 200.89 396.78 199.84 397.41 198.79 397.03 198.04 396.36 196.69 396.57 195.43 398.25 194.38 400.13 193.12 401.39 192.07 402.65 190.39 404.54 188.72 404.96 187.46 405.17 185.78 404.33 184.31 403.49 182.63 402.86 180.95 402.23 179.48 402.02 178.22 402.6 177.45 402.65 177.38 403.91 177.59 404.75 178.85 405.79 180.11 406.42 181.58 407.26 182.84 408.73 183.89 409.78 184.73 410.2 185.99 410.2 187.25 409.15 188.51 408.52 189.56 408.52 191.44 408.31 192.91 407.89 193.96 405.66 195.59 403.28 197.32 401.6 198.79 400.76 200.26 400.34 202.15 399.71 204.25 399.5 205.93 399.5 207.4 399.08 209.08 399.08 210.33 400.13 211.38 400.76 212.22 401.6 213.27 402.65 213.9 403.91 214.32 404.54 215.16 404.54 216.21 403.7 217.26 403.7 218.1 404.54 219.57 405.58 221.04 406.63 222.09 407.89 223.14 408.94 223.98 410.2 223.77 412.29 222.3 413.55 222.3 412.08 224.4 411.46 225.24 411.46 226.71 412.08 227.97 413.76 229.64 415.86 231.32 417.96 233.63 419 234.26 420.89 234.68 422.99 235.73 424.46 236.99 426.97 239.72 429.28 243.08 430.75 245.39 432.21 247.49 433.68 250.21 434.94 252.1 435.78 253.36 439.1 256.34 441.82 258.44 443.08 258.86 443.5 256.97 444.55 255.5 445.81 255.5 447.91 254.45 448.74 253.19 449.16 252.14 450.21 250.46 451.68 250.04 452.31 248.57 452.31 247.53 452.73 245.85 453.36 244.59 454.2 243.33 455.24 242.28 456.5 241.86 458.39 241.23 459.44 240.18 459.02 238.5 458.07 236.79 457.97 236.61 457.13 235.98 458.39 236.19 460.28 237.87 462.37 238.29 463.84 237.24 464.26 235.77 464.68 234.09 465.31 232.62 465.42 232.34 466.18 230.38 466.57 229.89 467.82 228.22 470.55 228.01 472.44 227.8 473.7 226.75 473.91 225.28 474.32 222.76 474.32 221.29 474.32 220.45 473.49 219.4 472.65 218.56 471.18 216.67 470.76 214.57 470.76 213.73 470.76 212.47 470.97 210.79 471.39 210.16 471.6 209.32 472.02 208.07 472.23 207.23 473.07 205.55 473.91 204.92 474.74 204.5 474.74 203.66 474.12 203.03 474.12 202.19 475.37 201.35 474.53 200.72 473.28 199.46 472.86 197.36 472.23 195.89 473.49 195.26 475.16 195.89 477.05 196.1 479.78 195.26 479.99 193.79 479.57 192.53 480.62 191.48 481.45 191.48 482.71 193.16 484.18 192.53 484.6 191.48 485.23 190.43 485.86 189.18 487.53 187.5 488.58 185.61 490.05 183.93 491.1 182.46 492.99 180.99 493.82 179.52 495.71 179.52 497.18 179.52 498.65 178.47 499.28 177 499.91 175.74 501.79 173.85 503.68 172.59 505.36 171.54 507.03 170.71 508.5 169.45 509.76 167.56 510.39 166.51 510.64 166.61 511.44 166.93 513.53 167.77 516.05 167.77 517.52 166.93 518.57 166.51 519.41 165.88 521.5 164.83 522.13 163.99 523.81 162.94 523.81 162.1 524.65 160.63 525.7 160.63 528 159.37 528.42 158.11 528.84 157.06 530.31 156.64 531.15 156.64 532.62 156.64 533.45 156.64 535.55 155.59 537.23 154.96 538.91 154.33 540.79 153.7 542.26 153.91 543.52 154.12 545.2 155.17 545.93 155.11 547.71 154.96 547.92 154.33 548.34 153.91 549.6 153.07 551.28 152.86 552.54 152.86 553.58 152.65 553.79 151.6 554.42 151.4 555.26 150.79 555.89 150.35 556.31 148.88 556.31 147.62 556.14 147.19 555.89 146.57 555.26 145.1 554.84 144.26 555.47 143 556.73 142.79 557.99 141.32 559.04 140.27 559.9 140.27 560.71 140.27 562.18 140.48 562.18 141.32 561.76 142.79 560.08 145.1 559.45 146.36 557.99 148.25 557.57 149.51 557.66 150.87 558.7 151.5 559.33 152.97 559.12 154.02 557.87 154.44 557.24 154.65 556.19 155.7 555.14 157.38 554.93 158.85 554.72 160.32 553.46 161.15 552.62 161.57 550.11 162.2 548.85 162.2 546.33 161.57 544.87 161.15 543.82 159.69 542.77 158.85 542.35 157.59 541.51 156.33 540.25 156.33 538.37 156.96 537.11 157.38 535.64 158.85 535.85 160.32 536.9 160.74 538.16 161.15 539.2 161.36 540.46 162.2 540.88 162.83 541.93 163.88 543.4 163.88 544.87 163.67 546.96 163.67 548.64 164.51 548.43 165.56 546.96 165.77 544.66 166.19 543.37 167.27 542.95 168.74 542.11 170.63 540.64 171.26 538.34 171.89 536.45 172.31 535.19 173.15 534.77 174.41 534.77 176.5 535.19 177.76 536.24 178.6 538.55 179.44 539.6 180.28 540.22 181.54 540.01 183.22 539.6 184.9 539.39 186.37 538.97 187.42 537.92 188.68 536.87 188.68 534.56 189.31 533.3 190.36 533.1 191.2 534.77 191.2 538.34 191.2 542.11 191.2 545.05 191.2 546.72 191.2 549.24 192.04 551.34 192.04 552.81 191.83 555.11 190.36 557.42 188.89 559.72 187.42 561.61 186.58 562.52 187.03 562.87 187.21 561.61 188.47 560.77 189.73 557.42 192.46 552.39 193.51 550.35 193.51 549.66 193.51 547.14 193.51 545.05 194.14 542.53 195.4 540.22 195.19 537.71 194.98 535.19 195.19 532.68 195.61 530.79 195.61 527.85 196.65 525.76 197.7 523.87 198.54 522.19 199.59 521.96 200.4 521.77 201.06 523.03 203.37 521.14 202.95 518.84 201.9 516.95 201.27 516.53 201.69 516.11 202.74 515.27 204.42 514.43 205.47 514.01 207.36 513.8 209.04 513.18 210.3 511.92 210.72 510.03 211.35 508.56 212.82 508.14 214.08 508.77 215.75 509.3 216.33 510.87 218.06 507.93 217.01 506.68 216.38 504.37 215.54 503.11 215.54 501.64 216.17 500.59 216.17 498.92 215.54 497.24 215.33 495.35 214.5 494.3 213.87 493.79 213.44 492.44 212.81 491.4 212.39 490.71 212.13 490.56 212.13 490.63 212.86 490.74 213.87 490.74 215.54 491.37 218.27 491.58 219.95 491.58 222.05 490.74 223.31 490.74 223.94 490.95 226.67 489.69 227.72 489.27 229.61 489.27 231.08 488.64 231.5 487.18 232.34 487.18 234.23 488.01 235.48 488.64 236.32 489.9 237.58 492.84 239.05 494.67 239.58 495.77 239.89 496.72 239.46 499.6 238.14 500.64 238.14 500.85 239.61 502.53 241.5 504.63 243.18 507.14 244.44 509.24 246.33 511.55 247.38 513.01 248.43 514.48 249.47 516.79 251.15 518.68 252.2 519.72 253.04 520.77 253.25 522.45 253.88 523.29 254.09 523.71 256.19 524.55 258.92 524.66 259.05 525.81 260.39 526.85 261.86 526.85 262.19 526.85 262.91 527.69 266.27 527.9 267.94 528.53 269.62 529.16 270.67 529.53 275.36 529.11 276.62 528.69 277.88 528.27 278.93 527.22 281.24 527.43 283.34 528.06 285.44 529.32 286.91 531.21 288.38 533.51 289.64 535.4 289.64 538.13 289.01 540.64 288.38 543.16 287.12 544.21 286.07 546.72 284.81 550.08 282.92 554.48 281.24 561.4 278.93 562.87 278.51 564.55 278.3 565.39 276.83 565.39 275.78 564.76 273.26 568.53 276.2 570.63 277.46 571.47 277.67 573.35 277.46 574.4 276.83 574.82 276.2 576.08 275.99 577.55 277.04 579.43 278.09 582.16 278.72 583.21 278.72 585.31 278.72 588.03 279.77 591.18 280.82 594.11 281.45 596.84 282.29 599.77 281.87 601.87 282.5 603.55 281.66 605.02 281.03 606.06 279.77 606.27 279.14 607.74 279.35 607.97 280.04 608.16 280.61 608.16 281.87 607.95 283.55 607.95 285.02 608.37 286.49 609.21 287.33 609.84 288.38 611.31 289.43 613.19 291.32 615.29 291.74 617.6 291.74 619.06 291.32 620.95 290.69 622.42 289.85 624.73 288.38 627.03 286.91 628.5 286.28 629.76 285.02 631.44 284.18 633.32 283.13 635.21 282.29 636.26 281.87 638.14 281.66 639.61 281.24 641.5 280.82 642.76 280.4 645.27 279.98 648.42 279.14 649.68 278.3 649.68 277.67 648.42 277.04 647.37 276.41 646.53 275.36 646.53 274.31 647.16 273.68 647.58 272.85 646.95 272.01 646.95 270.96 647.58 269.28 648 268.23 648.84 266.97 649.47 265.08 649.26 264.45 648.63 263.19 648.63 263.14 648.63 262.35 649.68 262.35 650.31 264.24 650.73 265.08 652.19 265.29 653.03 265.29 654.08 265.29 655.55 265.29 656.81 264.66 657.85 264.03 658.27 264.24 658.48 265.08 659.53 265.08 660.58 265.29 662.05 265.5 662.89 264.03 662.68 262.56 662.26 261.72 661.42 260.88 660.79 260.46 660.37 259.62 660.9 259.2 661.42 258.78 662.47 258.78 662.91 258.84 664.15 258.99 664.98 258.78 665.82 258.57 666.87 258.99 667.92 259.83 668.97 260.25 670.23 261.3 670.23 262.14 670.02 263.82 670.02 264.87 670.86 265.5 671.69 265.5 672.95 265.5 674 265.71 675.68 266.13 676.31 265.5 677.77 265.08 678.4 265.71 678.4 266.97 680.5 268.02 682.39 268.23 683.65 268.65 684.27 270.12 685.32 271.17 686.37 271.8 689.31 272.43 690.98 273.05 692.45 273.89 693.71 274.52 694.76 275.15 695.81 275.99 697.48 276.62 698.32 276.83 699.37 278.72 700 280.19 700.84 280.82 701.47 281.24 702.94 281.87 704.4 282.5 705.45 281.66 706.5 280.19 706.6 280.16 707.13 279.98 708.39 280.19 709.44 281.66 710.69 281.45 712.37 281.24 714 282.05 714.05 282.08 714.68 283.55 712.37 284.39 710.9 285.86 709.65 286.7 708.39 287.75 708.39 289.22 708.81 290.06 709.86 290.48 711.11 291.74 712.58 292.78 713.84 293.41 714.89 295.3 715.73 296.56 716.36 297.4 717.4 298.45 718.03 299.92 719.5 301.18 719.71 302.44 720.97 304.12 722.23 304.75 724.11 306.01 725.16 306.85 726.42 308.11 727.89 309.79 729.15 311.26 730.4 312.09 733.58 315.02 735.05 316.07 736.93 317.12 739.03 318.17 740.71 319.22 741.97 320.27 743.23 321.95 744.06 323.42 745.53 326.36 746.16 327.62 746.16 329.51 746.58 330.98 747.14 332.31 747.63 333.49 748.89 335.8 749.73 338.11 750.56 339.58 751.4 341.26 752.03 342.52 752.24 344.2 752.45 345.46 751.82 346.72 750.77 346.72 750.77 349.03 750.77 350.71 749.73 352.39 748.47 353.43 746.58 354.06 745.74 355.95 744.27 357.63 743.02 359.52 742.6 360.99 741.97 362.04 740.71 363.3 740.71 364.98 740.71 366.87 740.5 368.55 740.92 369.6 740.29 370.86 739.45 371.07 737.35 370.65 735.89 369.6 734.84 369.6 733.58 369.6 732.11 370.23 731.06 371.28 730.02 372.53 729.39 374 728.34 375.47 728.13 376.52 727.92 378.2 727.5 379.04 726.03 379.04 724.98 379.04 723.93 379.88 723.93 380.93 723.52 383.24 723.93 384.5 724.56 385.76 724.77 386.18 726.24 387.02 727.71 387.23 729.18 388.28 730.43 389.96 731.48 390.17 732.11 389.33 732.11 388.07 731.06 387.44 730.39 386.88 729.81 386.39 729.39 385.13 728.34 384.08 728.34 383.03 730.02 382.61 731.69 382.61 733.16 382.82 734.42 383.03 735.26 384.08 736.52 385.34 736.93 386.39 737.98 386.39 738.82 385.97 740.92 385.76 741.97 386.39 743.02 387.44 743.64 388.28 744.9 389.33 746.16 390.17 747.42 390.8 749.1 391.01 751.4 391.22 753.08 391.84 754.55 392.89 754.55 394.15 752.66 394.36 752.45 395.41 752.87 396.25 753.5 397.72 753.5 399.19 753.29 400.66 753.92 402.55 755.18 401.92 756.43 401.29 757.48 401.5 757.48 402.97 757.06 404.86 756.85 406.54 755.81 408.22 755.81 409.69 755.81 411.36 755.81 412.62 755.39 414.72 754.97 416.4 754.13 417.45 753.71 418.29 753.08 419.34 753.08 420.18 751.19 420.39 750.14 419.13 749.31 417.24 749.31 415.77 748.68 413.88 747.42 412.62 746.37 412.62 745.74 413.88 744.69 414.51 742.39 413.67 740.71 413.46 740.29 414.72 741.13 416.19 742.18 417.24 742.81 418.29 742.39 419.34 740.71 419.76 740.08 420.18 738.61 420.39 738.19 421.02 737.77 422.07 738.4 423.75 739.45 424.8 740.71 426.27 741.76 427.11 743.23 427.95 744.9 428.16 747.63 429 749.93 430.46 751.82 431.72 753.29 432.98 755.18 434.24 756.43 434.87 758.32 435.71 760.42 435.71 762.1 436.55 763.35 436.97 765.03 436.97 765.66 436.55 767.76 436.55 769.64 436.97 772.16 437.81 774.05 438.86 776.77 439.28 779.08 439.07 782.23 438.23 784.74 437.6 787.05 438.23 787.26 439.91 785.16 441.17 783.9 441.59 782.23 441.59 780.13 440.96 777.82 440.96 775.31 440.96 772.16 440.96 769.23 440.54 764.82 439.91 762.52 440.33 761.89 440.33 761.68 441.38 761.89 442.85 762.94 443.9 763.35 444.74 763.56 446 762.94 447.26 762.73 448.52 762.73 449.77 762.73 451.03 762.73 452.29 762.73 453.97 763.35 456.49 764.61 457.96 765.87 458.8 766.92 459.43 768.39 460.48 769.64 461.95 770.69 462.58 771.53 464.47 772.37 466.78 774.47 469.29 775.94 470.97 777.4 472.86 778.66 474.54 780.34 476.22 781.39 477.06 782.85 477.27 784.53 477.9 786.63 477.9 788.52 478.11 790.4 478.11 793.34 477.27 795.44 477.27 796.9 477.27 797.95 477.27 798.63 477.44 798.79 477.48 799 478.95 795.02 479.79 794.38 479.83 792.08 480 789.35 480 786.42 480 783.27 480 782.25 479.59 778.03 477.9 775.73 476.22 774.26 474.96 771.74 472.44 770.48 471.39 769.44 469.71 768.39 468.46 766.92 467.2 765.45 466.15 765.03 465.52 764.19 464.26 763.48 463.06 762.94 462.16 761.68 460.9 760.63 459.64 759.16 457.96 757.9 456.7 756.85 455.02 756.64 453.34 757.27 451.87 758.32 451.45 758.95 450.4 758.95 449.15 758.32 447.68 756.85 445.79 755.6 445.16 754.13 444.95 751.19 444.74 749.31 444.32 747.84 443.69 745.53 442.85 743.85 442.01 741.76 440.33 740.29 439.49 738.19 437.39 736.31 434.87 734.21 433.61 733.16 431.51 731.69 427.95 730.64 427.11 730.64 427.95 731.69 429.84 732.11 431.93 731.69 432.56 730.64 430.46 729.81 429 729.18 427.11 729.18 424.38 728.34 422.91 728.13 420.81 728.13 419.13 729.6 418.5 730.22 418.5 730.64 415.77 730.02 415.14 728.97 415.14 728.34 415.56 727.5 416.82 726.24 416.82 725.19 414.93 723.1 415.35 722.68 416.4 721.63 414.09 720.79 412.83 720.79 411.15 722.47 410.73 723.72 411.36 726.66 411.78 728.55 412.2 730.64 412.2 734.21 411.57 736.1 411.15 737.35 410.32 737.98 408.85 735.05 407.8 732.74 408.22 730.22 408.64 728.34 408.64 726.87 407.38 726.03 405.49 726.03 404.23 727.92 404.02 729.39 403.6 730.22 402.55 729.39 400.66 728.34 399.4 730.22 400.24 732.11 401.5 731.48 400.66 729.81 398.98 728.13 396.88 726.66 395.2 724.56 394.36 723.72 394.78 722.26 395.41 721.84 394.15 721.21 392.47 719.95 392.05 718.27 392.89 717.02 392.05 717.02 390.17 718.69 388.91 720.37 388.28 720.16 385.55 718.27 384.5 718.06 383.03 718.06 381.35 718.48 379.67 719.74 376.31 720.37 373.37 721.84 370.02 724.14 367.29 725.61 365.82 726.45 364.98 727.5 363.93 728.55 362.67 729.18 361.83 729.6 360.36 728.76 359.1 728.13 357.21 727.29 354.48 726.03 351.97 724.77 347.77 724.35 345.88 724.35 343.57 724.14 342.31 722.26 339.79 720.37 337.48 719.32 335.59 718.06 333.91 717.02 331.82 716.81 330.14 715.34 328.46 714.47 325.95 712.58 322.8 711.53 321.54 710.69 320.07 709.44 318.18 708.39 316.71 707.55 315.66 706.5 314.19 705.66 313.35 705.03 312.72 704.19 312.09 703.15 311.05 702.1 309.79 701.05 308.53 700 307.06 699.16 305.38 698.53 304.33 697.9 304.12 697.07 303.28 696.65 302.65 696.02 302.44 695.18 301.6 694.34 301.18 693.08 300.34 692.66 299.5 692.24 298.66 691.61 298.03 689.73 297.82 688.89 297.4 687.84 296.77 687.42 296.56 686.58 295.72 685.95 294.88 685.11 294.88 684.27 295.09 683.23 295.51 681.97 295.72 680.5 296.56 679.03 297.19 677.15 297.61 675.68 297.4 674 298.03 672.74 298.24 671.69 298.66 670.65 299.08 669.18 299.71 667.71 300.55 667.08 301.81 666.45 303.28 665.19 304.12 664.15 305.17 663.1 305.8 662.47 306.64 661.21 307.27 660.58 307.27 659.32 307.69 658.48 308.53 657.65 309.37 657.23 311.05 656.39 312.09 655.76 313.35 655.76 314.61 655.76 315.87 657.02 316.5 658.48 316.71 658.69 317.55 658.06 318.81 657.23 319.65 657.02 320.91 656.6 321.96 656.39 322.8 655.76 324.06 655.13 325.74 655.13 327 655.13 328.68 655.13 330.15 655.76 331.61 655.97 333.29 656.18 335.6 656.81 336.23 657.44 337.7 657.02 338.33 655.97 338.75 655.97 340.64 656.6 341.69 657.23 343.58 656.6 344.42 656.18 345.68 656.18 346.73 656.6 348.2 657.65 349.25 657.65 350.29 657.23 351.13 655.97 352.18 655.34 353.23 655.76 354.91 654.71 357.01 653.87 358.48 653.87 361.42 653.87 363.52 653.24 365.41 652.61 366.67 651.56 368.14 650.73 369.6 649.89 370.23 648.84 371.28 647.16 372.12 645.27 372.75 643.18 374.22 641.5 375.9 641.29 377.16 640.08 378.82 639.45 379.87 637.99 381.76 636.73 381.97 634.42 383.02 634.42 384.7 634.42 386.58 634.42 388.26 633.37 389.73 630.86 389.73 628.97 389.31 628.92 389.28 627.5 388.47 626.87 387.84 626.24 386.37 625.4 384.7 624.57 383.23 622.68 383.44 621.21 383.65 619.74 384.49 618.28 385.95 616.81 387 615.55 387 614.29 386.79 612.61 386.79 610.73 385.95 608.84 385.74 606.74 386.37 605.28 386.37 603.81 385.74 601.71 384.9 599.4 384.9 597.73 384.07 594.16 383.86 592.9 383.02 589.76 381.55 586.61 380.92 584.52 380.08 583.89 379.03 582.84 377.56 582.42 376.3 581.37 374.2 580.32 373.36 578.65 372.1 578.28 371.73 577.81 371.26 576.97 369.37 576.76 368.32 576.76 367.06 576.97 366.01 576.97 364.34 577.39 363.92 578.44 362.66 578.65 362.24 579.69 360.98 579.9 359.3 579.9 357.62 579.69 356.15 579.69 353.84 579.69 352.79 580.11 352.16 580.95 351.32 580.95 350.27 580.95 348.8 580.34 348.36 579.72 348.15 578.46 347.31 576.99 346.47 574.68 345.42 572.8 344.37 571.54 343.54 569.86 342.49 568.6 341.23 566.51 339.55 564.83 338.29 563.36 337.66 561.89 337.24 560.42 336.4 559.17 335.56 558.96 334.3 558.33 333.25 557.07 333.25 555.6 333.67 554.13 333.88 552.67 333.88 550.57 333.67 549.52 333.25 548.05 332.41 547.01 331.78 545.54 331.36 545.54 330.52 546.8 330.52 546.89 330.2 547.21 329.05 547.84 328.21 549.1 328.21 550.36 328.21 551.62 328.21 552.46 327.16 552.25 326.32 551.62 325.48 550.93 324.87 549.59 324.2 548.25 323.02 544.39 320.34 542.21 318.15 540.37 316.31 539.19 315.64 537.18 315.64 535 315.8 533.32 316.48 531.98 317.15 530.64 317.99 529.29 318.83 527.95 319.5 525.6 320 523.09 320.34 521.41 321.01 519.23 321.51 518.06 321.85 516.88 322.69 515.2 323.19 513.36 324.03 511.01 323.7 509.67 322.86 507.82 322.18 506.65 321.85 504.97 321.34 503.63 321.18 502.29 321.18 500.61 321.34 499.27 322.18 496.58 323.02 495.24 323.19 494.24 324.54 494.57 325.71 495.53 327.2 497 328.88 499.1 329.57 499.94 330.24 499.94 331.59 500.44 333.1 501.28 334.44 502.62 335.45 504.8 336.12 506.15 336.96 507.82 337.97 509.84 339.31 510.67 340.65 510.67 341.83 510.17 343.85 508.66 345.69 507.15 346.53 506.65 347.87 505.64 349.05 505.47 350.23 505.59 351.24 505.64 351.74 505.95 352.87 506.15 353.58 505.98 354.59 505.14 355.43 503.96 355.77 503.29 355.77 502.12 355.77 500.78 355.77 499.94 355.43 499.6 354.59 500.27 353.75 501.45 353.08 500.61 352.41 499.6 351.4 499.44 350.23 499.44 349.22 499.94 348.38 500.95 347.2 501.11 345.86 501.11 344.68 500.44 343.85 499.27 343.01 497.42 342.67 495.75 342.33 494.4 341.83 493.4 340.99 492.39 340.49 491.05 339.98 489.71 339.82 488.2 339.31 487.19 338.3 485.68 337.3 484.17 336.79 482.66 336.12 482.33 335.28 482.33 333.94 481.99 332.43 480.88 332.43 480.82 332.43 479.98 333.77 478.3 334.78 476.96 334.61 475.62 334.61 474.95 335.11 474.61 336.12 474.27 337.3 473.6 337.63 472.26 337.3 471.59 336.79 471.09 335.62 470.42 335.28 468.57 335.45 467.23 335.95 465.55 336.79 464.04 337.13 462.03 337.46 460.18 338.3 458.51 337.97 458.6 337.89 459.34 337.3 460.18 336.46 461.19 336.46 462.87 335.62 464.88 334.95 466.73 334.78 467.06 334.27 468.07 333.1 468.74 332.43 469.24 331.25 470.25 330.75 471.76 330.75 472.76 329.91 473.6 329.74 474.78 328.9 475.62 328.23 476.45 327.22 476.45 325.88 476.45 324.87 476.45 323.86 476.45 322.69 476.29 321.68 475.62 321.01 474.27 321.01 473.44 321.85 472.09 322.18 469.91 323.19 468.74 323.36 466.22 324.03 465.05 324.03 463.04 325.04 461.19 325.04 460.35 324.7 459.01 324.7 457 324.87 456.16 325.37 455.15 325.21 454.48 324.54 452.97 324.54 451.46 324.87 450.62 324.2 450.12 324.2 448.94 324.37 447.94 325.21 446.09 326.38 444.92 327.22 443.58 327.39 442.91 328.4 441.9 329.4 440.73 329.57 440.05 329.07 440.22 328.23 440.33 328.07 441.06 327.05 442.4 326.55 442.4 325.54 442.57 324.54 443.58 323.7 443.07 322.86 441.56 322.35 440.56 321.68 438.88 321.18 437.87 320.67 436.53 320 435.53 319.5 434.18 318.99 433.01 318.49 431 317.99 427.98 316.98 426.3 316.14 424.79 315.3 423.95 314.12 423.28 313.28 422.78 312.45 421.43 312.28 420.26 312.61 419.09 313.28 418.42 314.12 416.12 317.02 414.86 317.02 413.86 316.86 413.6 316.81 413.6 315.76 414.23 315.34 415.07 314.5 415.07 313.24 415.07 311.99 415.49 310.94 416.12 309.05 416.54 307.37 417.37 305.27 417.58 304.01 417.58 302.96 416.96 302.12 415.91 301.28 415.07 300.23 414.44 298.58 414.22 298 414.05 297.17 413.72 296.49 413.22 295.49 412.88 295.15 412.04 294.31 409.58 293.24 406.44 292.19 404.34 291.93 402.5 291.93 399.88 291.93 396.21 291.93 392.28 291.14 388.88 289.31 386.78 288.52 385.47 288.52 383.11 289.05 380.49 289.05 377.71 287.81 373.41 285.9 370.79 284.32 369.22 279.6 369.22 277.76 371.23 272.43 371.02 269.49 372.28 267.82 370.79 265.85 368.9 265.85 367.02 267.32 365.97 268.58 364.08 270.26 362.61 271.31 360.94 272.78 357.37 272.15 355.27 271.31 353.39 270.89 351.08 271.1 347.52 271.31 343.32 270.47 341.02 270.47 339.13 271.31 336.82 272.15 334.94 272.99 334.31 273.62 332.63 274.46 330.53 274.67 327.39 274.67 326.13 275.51 323.19 275.3 321.52 274.67 320.69 273.64 320.68 273.62 320.05 272.15 320.89 270.68 322.77 269.63 324.66 268.79 324.87 267.95 326.13 265.22 325.29 263.96 323.1 264.65 321.21 265.49 318.7 265.07 317.23 263.81 315.97 263.39 314.5 263.18 311.99 263.18 310.1 263.18 306.42 260.4 305.16 260.4 303.9 260.61 301.81 261.86 300.55 262.91 298.87 263.54 296.77 263.54 295.52 264.17 294.68 264.8 294.68 265.85 293.21 267.11 291.95 266.27 290.06 266.27 289.23 267.11 288.39 268.16 287.76 269.63 288.18 270.68 289.23 271.31 289.02 272.78 286.5 273.62 285.24 273.62 284.82 274.67 284.66 275.32 284.61 275.51 283.35 275.09 281.89 274.88 280.42 275.51 279.37 276.56 278.11 277.19 277.48 278.03 276.22 278.87 274.97 279.29 274.13 279.5 273.29 280.76 272.87 282.22 271.19 282.85 269.72 281.8 268.26 280.76 266.58 278.66 265.32 275.72 264.27 274.04 264.27 272.36 264.27 271.1 264.27 269.84 264.06 269 262.81 267.32 262.39 266.27 262.39 264.17 262.39 262.49 262.08 257.09 261.25 255.62 261.04 253.52 259.99 251.84 259.15 249.74 258.1 248.06 257.05 246.38 255.58 245.97 254.33 246.38 254.33 247.64 253.91 249.53 252.65 250.16 252.86 252.05 253.7 254.36 253.7 255.83 253.7 256.67 252.02 256.67 250.97 257.93 250.34 258.77 250.31 258.75 248.67 257.93 248.25 256.04 249.71 255.41 250.13 254.36 250.13 252.26 249.29 250.79 248.25 249.53 248.25 248.27 248.67 245.13 248.67 241.98 249.5 240.09 249.71 237.78 249.92 234.84 249.92 232.95 249.29 231.27 248.04 229.59 246.57 228.33 244.68 227.28 243.42 226.24 242.17 224.77 240.7 223.72 239.44 222.25 238.81 220.57 237.13 219.1 235.46 218.47 234.2 218.26 233.15 216.37 233.15 215.11 234.2 215.11 234.83 214.27 234.41 212.8 233.15 211.54 230.84 211.12 229.58 210.7 229.58 208.6 229.79 206.72 229.17 204.62 228.33 202.1 228.33 200.21 230 198.32 231.47 196.43 232.52 194.75 232.73 193.28 232.73 191.39 230.84 189.08 229.79 187.2 228.75 185.52 228.12 183.21 227.7 181.53 226.86 179.43 226.65 176.28 226.02 174.18 225.81 172.29 225.6 168.31 225.6 165.37 226.44 161.8 226.86 159.07 226.86 157.81 226.44 156.13 225.39 154.87 223.5 153.4 222.25 152.35 220.99 150.88 219.94 150.04 218.47 150.04 217.63 150.88 216.16 152.56 214.49 155.5 213.44 156.97 212.39 158.23 210.5 159.28 208.62 159.49 206.52 161.17 205.89 162.01 204.42 163.48 202.54 164.74 199.39 166.63 197.5 168.94 196.66 170.19 195.2 172.5 193.73 173.34 192.05 174.81 191.42 176.07 190.37 178.17 189.95 179.22 188.49 181.74 188.28 183.63 188.28 185.31 188.28 187.41 188.07 189.92 188.07 191.6 188.7 193.07 189.95 193.91 191.84 195.17 193.73 195.59 195.83 196.22 197.92 197.69 199.39 198.53 200.44 200 200.02 201.68 197.92 201.05 193.94 200.42 190.37 200.21 189.12 200.21 188.07 202.52 188.07 203.57 189.95 203.78 191 203.99 192.89 204.2 194.15 204.41 194.99 205.25 194.78 206.93 192.89 207.56 191 208.39 190.37 209.86 189.95 211.33 189.95 213.85 189.75 215.32 188.49 215.32 187.23 213.01 185.76 211.54 182.83 209.44 180.52 208.81 178.42 208.81 176.75 209.65 174.86 210.28 173.39 211.54 174.44 213.01 175.91 213.85 176.95 214.9 178.42 216.16 179.26 217.42 179.47 218.89 179.68 220.36 179.68 222.25 179.68 223.72 180.1 224.98 181.15 226.24 180.63 229.18 180.52 229.8 180.52 230.85 181.57 231.9 182.62 232.32 183.66 232.74 182.62 233.58 181.15 234 179.89 234.84 179.05 236.31 178.84 237.99 179.89 239.25 180.94 240.3 181.36 241.98 181.52 242.4 182.45 243.68 182.41 245.34 181.38 248.21 181.36 248.27 181.36 248.45 181.36 249.95 181.36 250.95 181.36 252.68 182.2 254.57 182.62 256.46 181.99 257.93 180.73 257.3 180.31 255.2 179.68 253.94 178.84 253.1 177.58 253.1 176.12 253.73 174.86 255.2 173.6 256.25 171.92 257.3 170.66 258.14 169.62 258.14 169.41 257.72 168.78 256.88 168.78 256.04 169.41 255.2 169.41 253.85 169.41 253.73 170.24 252.26 170.66 251 171.5 249.95 171.92 248.69 172.13 247.22 171.92 245.97 171.29 244.71 169.62 243.66 168.99 242.19 168.99 240.93 168.36 238.62 168.15 237.36 167.52 235.89 167.1 235.05 167.1 233.79 167.1 232.74 168.15 230.01 168.57 228.12 167.94 227.07 166.47 226.87 164.58 227.28 163.95 227.91 163.12 227.07 163.74 226.03 164.58 224.56 165.21 222.67 164.58 220.78 163.33 219.52 160.6 218.68 158.92 217.63 157.45 216.58 155.78 215.32 154.52 214.27 153.05 214.27 150.74 214.06 148.65 214.48 147.18 215.32 145.29 216.58 143.83 218.05 142.15 217.42 141.94 216.37 141.1 214.48 138.58 214.48 136.07 214.69 134.81 215.53 132.71 217 131.45 218.26 131.03 219.31 131.03 219.94 130.82 221.62 130.2 223.3 129.15 223.51 127.68 222.25 125.16 221.2 123.49 219.94 121.81 219.94 118.87 220.15 117.2 219.73 115.52 218.89 115.7 218.75 116.57 218.05 117.41 217 118.24 215.95 119.71 214.48 120.76 213.22 122.23 212.17 123.7 210.91 124.32 209.86 124.32 208.39 123.49 206.93 122.23 205.67 120.97 204.2 119.5 204.2 118.03 203.57 115.1 202.31 114.05 201.26 112.37 199.37 111.12 198.11 108.81 197.69 106.71 198.32 106.71 199.58 107.34 200.63 106.29 201.68 104.82 201.68 103.15 201.68 102.1 200.63 100.63 199.37 99.37 197.69 97.91 196.64 96.23 196.01 93.92 196.85 93.29 197.69 93.08 199.79 93.5 201.05 94.55 202.52 94.55 204.41 94.97 207.35 94.34 209.44 93.5 211.33 92.66 213.43 91.82 215.11 89.73 216.79 87.63 218.05 86.75 218.44 85.74 218.89 88.68 215.32 89.52 212.8 90.15 211.33 89.73 209.23 88.68 207.35 87.63 205.88 86.16 204.62 85.32 202.73 83.65 199.16 83.44 197.69 83.86 195.38 85.32 194.12 86.37 193.07 86.16 192.02 83.44 191.81 81.13 190.76 78.2 188.25 76.31 186.99 73.16 186.99 71.9 186.99 70.62 187.15 70.23 187.2 68.97 188.45 67.92 189.29 66.35 190.87 66.24 190.97 66.17 191.23 65.82 192.44 65.62 192.34 64.57 191.81 64.57 190.13 65.2 188.45 65.82 186.99 66.03 185.1 66.66 183.84 66.66 182.16 65.2 179.85 62.89 179.64 60.79 179.64 59.32 181.95 58.07 183.63 57.23 184.47 56.55 184.21 55.55 183.84 55.13 182.37 54.5 179.85 53.45 178.59 52.4 177.12 50.73 176.91 49.26 177.96 47.37 179.22 45.28 180.69 43.39 181.95 41.71 181.95 39.61 183 37.52 184.05 34.79 185.31 32.69 186.15 30.18 187.62 28.29 188.66 25.57 190.13 24.13 190.75 24.1 190.76 22.42 190.76 22.21 189.08 23.68 188.45 25.57 187.2 27.24 186.36 29.13 184.89 30.39 184.05 30.6 183.42 30.39 181.95 27.45 181.53 24.1 180.27 22.42 179.64 20.53 177.96 20.32 176.49 20.32 174.6 21.58 172.92 23.02 171.74 23.89 171.03 25.52 170.61 26.28 170.19 27.03 169.94 27.62 169.94 28.29 169.35 28.46 168.77 28.04 168.18 27.79 167.51 27.37 166.88 27.41 166.82 27.61 165.7 28.02 164.26 27.88 163.08 27.61 161.53 27.41 160.55 26.47 158.4 26.2 157.46 25.06 155.11 24.59 153.93 23.51 151.34 23.04 150.3 22.03 148.31 21.36 147.3 20.22 143.8 19.21 141.78 18.4 140.1 16.72 135.79 15.98 134.41 15.24 132.6 14.84 131.38 14.37 129.03 13.7 127.98 12.82 125.86 12.28 124.86 11.28 122.74 10.74 121.59 10.13 120.11 9.33 119.14 8.45 117.38 7.44 116.11 6.17 114.49 5.02 112.74 4.08 111.67 3.74 111.09 2.2 109.41 1.53 108.54 1 107.93 1.28 107.73 2.46 107.65 3.88 107.65 5.14 108.23 6.32 108.82 8.41 109.54 11.77 111.21 13.24 112.05 14.91 113.52 16.38 114.15 17.64 114.99 20.16 114.99 22.46 113.94 24.98 112.05 26.03 109.12 26.24 107.23 25.82 105.13 24.14 104.92 22.04 104.92 19.32 104.92 14.28 103.66 9.88 101.98 8.83 101.35 8.62 100.3 9.88 99.25 11.77 98.62 13.24 98.62 15.12 98.2 16.8 98.2 18.9 98.2 20.99 98.62 23.72 98.83 26.45 98.62 29.17 97.78 31.48 97.15 37.2 93.56 40.77 92.51 43.49 92.51 45.38 93.35 45.67 93.61 46.85 94.61 47.71 95.3 47.9 95.45 49.99 95.24 50.62 93.77 52.3 91.88 54.19 90.83 54.61 89.79 53.14 88.11 51.25 87.27 48.74 85.59 46.64 84.33 45.59 82.86 45.17 81.6 44.54 80.34 43.49 79.08 42.65 77.19 40.98 72.36 41.38 72.96 43.28 75.72 45.17 76.98 46.43 77.4 47.27 78.45 48.32 80.13 49.57 81.81 52.51 82.86 54.61 83.28 56.28 83.7 57.96 83.49 58.8 82.02 60.39 80.6 60.69 80.34 61.11 78.87 61.11 77.19 59.43 75.93 58.59 74.88 59.43 73.83 61.11 74.46 63.2 74.46 64.46 74.25 66.14 72.36 66.35 71.31 66.14 70.06 65.3 68.38 65.09 67.33 65.09 65.65 65.73 65.65 66.14 65.65 66.77 66.49 68.03 67.54 69.07 67.54 70.75 66.49 72.01 64.81 73.06 63.97 73.9 62.92 74.11 61.03 74.32 59.56 75.99 56.41 76.62 55.15 77.25 54.31 78.09 53.89 77.92 55.72 77.88 56.2 77.55 57.04 77.12 58.1 77.04 58.3 77.04 60.19 77.04 61.45 77.04 62.92 77.04 64.81 75.78 67.54 74.32 69.01 73.27 70.68 71.38 73.62 70.54 74.88 69.7 75.93 68.65 77.4 68.24 78.24 66.98 81.18 66.14 82.86 65.51 84.33 64.46 86.22 64.67 87.06 65.93 88.11 67.82 88.11 69.49 88.11 70.54 88.11 70.75 89.79 69.28 89.99 68.03 90.62 66.14 91.67 64.88 92.72 64.04 94.19 63.62 95.45 62.78 97.34 62.78 98.81 66.56 98.18 67.69 97.98 68.86 97.76 70.78 97.41 71.17 97.34 74.11 97.34 75.78 97.34 76.83 98.81 78.93 99.65 80.4 99.65 82.07 99.65 83.33 100.7 85.01 101.12 86.27 101.33 88.78 101.12 90.67 99.44 91.72 97.76 93.36 96.26 94.24 95.45 94.85 93.82 94.86 93.77 95.28 93.14 95.58 94.32 95.7 94.82 96.02 94.98 96.96 95.45 97.38 96.5 96.96 97.97 94.86 100.07 95.07 103.01 96.96 102.8 97.59 102.17 99.27 98.81 99.9 96.5 100.53 94.61 101.36 92.3 103.67 90.2 104.72 88.74 105.98 87.27 108.49 85.8 110.17 84.12 110.59 82.65 111.43 81.39 113.32 79.29 115.63 77.44 118.14 75.93 119.61 75.3 121.07 73.83 122.33 72.78 126.74 70.68 130.09 69.01 131.98 68.17 133.45 67.96 134.49 67.75 135.12 68.17 136.38 69.01 138.06 69.22 139.95 69.22 142.25 69.01 144.35 69.43 145.82 69.64 148.33 69.43 150.22 69.22 152.74 69.22 155.25 70.27 157.14 71.1 159.24 71.73 161.12 72.36 163.01 71.52 162.59 69.43 162.59 68.5 162.59 67.96 163.64 67.75 164.69 67.75 165.32 66.7 165.11 65.23 166.37 64.39 169.51 62.92 171.4 62.5 172.87 61.24 173.08 59.35 173.08 57.25 173.49 56.2 174.75 55.78 175.17 55.15 175.59 53.68 174.75 51.58 173.7 50.12 173.58 49.34 173.49 48.86 174.12 48.02 176.22 47.39 178.11 47.39 180.41 47.39 183.35 48.23 185.24 48.02 185.66 45.5 185.24 43.4 184.19 41.72 184.19 40.46 184.46 40.38 185.66 40.04 187.96 39.83 189.64 38.57 190.27 36.68 189.8 34.96 189.64 34.37 187.75 32.06 187.12 30.6 187.96 29.97 189.01 30.81 190.9 31.65 192.16 32.27 193.83 32.9 194.88 34.16 194.88 35.63 194.88 37.52 195.3 38.57 196.35 39.83 197.82 39.83 198.03 38.57 196.77 37.1 196.56 35.84 196.56 34.58 197.19 34.16 198.87 34.58 199.7 34.16 201.38 33.53 202.64 33.53 204.11 32.48 206 32.48 207.46 31.86 207.67 30.81 206.21 30.18 204.74 29.34 203.48 27.87 202.01 25.98 200.33 23.88 200.12 22.2 200.75 22.2 201.8 22.83 202.64 24.3 204.11 25.77 206.21 27.45 207.25 28.29 208.3 28.71 210.19 29.13 211.45 29.34 212.91 28.08 211.24 25.98 210.82 25.14 213.12 25.98 214.8 26.4 215.85 25.14 216.69 24.3 216.27 22.2 214.81 21.18 214.17 20.73 214.59 19.89 217.11 19.89 217.74 19.89 219 19.68 220.04 18 221.51 17.37 222.56 17.37 223.4 16.11 224.03 14.22 224.24 12.13 224.24 10.45 224.03 9.19 225.91 7.72 229.27 6.46 231.58 6.25 233.46 6.25 234.51 6.25 236.19 4.78 236.19 3.1 236.61 1.63 237.66 1 239.33 1 241.64 1 242.06 1.63 241.22 2.47 241.22 3.94 241.26 3.97 242.06 4.57 242.27 5.83 241.64 7.09 241.01 7.72 240.17 8.77 239.33 10.03 238.5 11.08 Z M 624.32 315.27 623.27 316.11 623.06 317.37 623.06 318.84 622.85 319.68 622.22 320.52 621.39 322.62 620.55 323.88 620.34 325.14 620.76 329.13 620.76 330.18 621.39 333.32 621.39 334.79 621.39 336.47 620.97 337.94 619.92 338.78 619.29 340.04 619.92 341.3 620.13 342.77 620.13 344.03 618.45 345.5 616.56 346.55 616.56 348.65 616.56 350.53 617.82 352.84 618.87 353.47 621.18 353.47 622.22 352.63 622.22 351.58 623.06 351.16 625.16 350.32 626.84 349.28 628.1 347.81 629.14 346.34 631.24 344.66 632.08 343.61 633.55 341.93 633.76 340.88 635.43 338.99 635.85 337.52 636.69 336.47 637.53 336.05 639 335.21 639.84 333.95 639.84 332.06 639.63 330.6 639.21 329.13 637.95 327.45 637.32 325.77 636.48 324.51 635.22 323.25 634.39 321.78 633.34 320.73 631.66 319.26 629.56 317.58 627.05 315.9 625.79 315.06 624.32 315.27 Z" fill-rule="evenodd"/>
</g>
</svg>