<?xml version="1.0"?>
<svg xmlns="http://www.w3.org/2000/svg" version="1.2" baseProfile="tiny" width="800" height="258" viewBox="0 0 800 258" stroke-linecap="round" stroke-linejoin="round">
<g id="thermalitodiversionpool">
<path d="M 8.18 178.61 8.03 179.91 7.9 177.62 8.18 178.61 Z"/>
<path d="M 8.18 178.61 8.54 175.58 11.35 173.28 12.62 169.46 12.37 166.65 8.93 162.95 6.5 157.22 3.95 149.95 5.47 145.49 8.28 137.33 9.05 131.46 9.3 122.54 9.56 111.57 9.05 91.94 10.33 75.87 12.88 65.93 15.94 60.57 18.75 55.22 23.09 50.88 26.67 46.55 31.01 42.98 37.02 42.4 50.34 38.07 54.15 35.2 57.96 35.86 59.96 35.05 61.86 33.21 67.76 25.34 69.28 24.31 73.85 23.28 74.23 23.65 74.99 28.43 75.94 30.64 77.94 32.19 80.51 32.48 81.75 33 82.51 34.39 82.98 35.84 82.72 37.62 87.26 38.44 88.5 40.87 89.45 41.83 91.26 41.6 93.73 40.43 94.59 39.77 95.07 38.88 94.78 35.2 95.73 33.88 95.93 32.78 95.83 29.47 96.21 27.63 98.69 23.73 97.83 20.71 99.55 17.48 99.74 13.36 100.41 9.38 102.31 3.79 102.5 1.66 102.98 1.07 103.64 1 103.93 1.37 103.93 13.36 105.16 18.65 103.45 24.39 103.35 27.92 105.73 34.84 108.86 37.86 109.34 39.03 109.43 41.02 112.86 44.11 113.71 45.66 114.19 47.72 117.23 51.54 117.8 53.09 119.42 54.49 119.61 55.88 119.04 57.36 119.7 58.68 123.98 62.43 125.79 62.8 126.93 62.51 130.74 61.11 132.64 59.64 134.93 56.99 139.02 53.53 140.64 52.73 142.07 52.5 143.4 53.46 143.68 54.56 143.3 57.43 147.01 61.92 147.77 65.09 149.58 66.56 154.05 69.43 155.38 71.86 155.95 73.92 159.37 76.64 160.61 78.92 162.13 80.02 165.27 80.98 167.75 81.13 169.46 80.91 170.79 80.39 171.72 78.17 172.61 75.23 174.13 73.41 175.74 72.38 178.5 73.7 180.97 75.98 185.54 76.79 187.16 77.82 190.87 85.11 191.05 87.54 194.2 89.67 195.81 91.14 199.24 90.41 202.19 91.95 204.56 92.76 214.55 95.34 219.4 97.99 221.97 98.8 226.92 99.1 229.11 98.88 231.49 99.47 235.86 99.17 239.57 100.94 241.38 101.23 247.28 100.13 248.9 100.87 250.71 101.09 253.09 100.87 259.84 99.11 264.5 97.56 271.45 96.9 274.78 95.87 276.87 94.55 279.07 92.71 281.64 87.56 282.31 82.19 282.12 79.32 282.4 78.44 283.45 77.71 284.02 78.15 284.88 80.13 285.64 80.87 286.59 80.72 288.11 79.25 288.97 79.77 289.82 81.61 289.82 82.64 286.37 89.26 287.82 90.29 288.39 90.51 289.82 90.51 291.72 90.14 294.96 88.53 296.19 88.38 298.38 91.4 300.47 93.24 303.14 94.56 305.8 95.37 307.04 96.18 308.56 98.61 310.18 100.67 319.69 110.42 323.27 112.08 327.36 113.23 339.28 114.14 344.61 119.07 345.65 119.74 347.65 119.88 348.6 119.66 351.46 117.61 353.08 117.39 356.21 121.73 357.64 123.2 361.35 125.77 365.06 127.54 367.63 128.5 371.05 129.01 380.28 128.21 381.14 128.87 379.52 130.27 379.23 131.37 382.66 132.55 385.13 133.8 395.88 135.72 406.15 136.39 410.82 136.31 415.67 135.65 424.23 133.45 428.8 131.98 432.9 129.41 435.37 127.2 436.8 125.14 437.27 123.53 437.18 122.49 437.47 122.13 443.37 122.06 445.84 120.44 450.03 116.61 456.03 109.04 456.6 107.42 456.41 103.52 460.79 99.99 464.03 98.38 464.41 97.71 464.03 95.07 462.23 90.5 461 84.76 459.28 83.44 455.95 82.19 455.29 81.38 456.53 80.87 457.76 81.09 461.28 82.93 465.47 86.46 466.61 87.93 470.5 96.91 472.02 99.12 473.35 100.07 479.06 101.69 480.96 100.59 489.81 101.26 490.76 101.55 492.1 102.58 493.05 102.66 494.95 104.28 500.36 103.03 505.21 103.79 511.08 103.41 518.26 104.29 519.88 104.73 526.73 107.75 529.96 108.19 533.1 107.83 535.67 106.5 536.81 106.36 538.14 107.31 537.09 110.62 538.41 113.87 537.13 116.67 538.41 118.97 544.79 122.79 549.26 125.98 556.67 129.93 564.71 134.27 568.41 134.78 572.37 135.36 573.26 137.33 582.97 143.32 590.44 146.62 592.72 147.29 598.42 151.48 600.97 151.99 603.91 151.48 609.53 154.67 609.88 154.93 612.72 157.09 616.93 164.61 624.46 169.2 627.66 171.11 632.63 179.02 648.59 185.36 657.73 189.84 672.96 196.23 683.71 199.61 687.52 201.15 690.75 202.99 694.94 203.95 697.61 205.86 699.8 206.89 712.45 207.03 715.87 206.66 722.25 204.89 730.23 203.19 734.04 203.19 737.37 200.98 739.94 200.76 742.51 199.29 748.97 198.62 751.26 197.45 752.4 197.37 755.25 196.12 759.53 195.6 760.29 195.16 759.82 194.28 760.2 193.84 764.67 193.91 766.29 193.1 770.53 191.64 771.61 188.46 772.85 188.31 776.27 190.11 779.21 187.69 780.93 187.28 782.78 189.09 785.21 187.69 787 186.29 790.06 185.9 791.77 183.82 796.06 183.82 799 186.29 798.63 188.52 796.54 189.33 796.73 190.44 798.11 193.04 796.7 194.7 792.36 195.59 788.79 195.98 785.98 197.12 782.02 198.53 779.72 198.78 776.53 199.42 773.85 201.59 771.29 202.73 768.1 204.26 764.14 205.28 760.95 206.56 757.64 207.15 753.26 207.74 751.17 208.78 748.7 208.78 747.75 209.07 744.61 210.54 743.94 211.72 740.23 212.9 735.95 213.79 732.72 213.35 727.58 214.08 723.58 214.38 722.35 214.16 719.87 214.75 716.74 214.53 712.83 215.12 710.65 214.75 705.22 215.05 702.84 214.39 698.56 213.95 696.09 214.76 693.14 214.61 687.15 213.29 683.63 212.12 683.15 210.65 678.87 208.22 674.87 207.71 673.44 206.24 671.92 205.28 667.26 204.55 665.07 203.08 662.59 202.42 661.07 201.39 655.93 200.36 651.94 198.16 648.89 195.66 646.22 194.99 644.41 193.82 642.42 193.31 640.8 192.28 639.28 192.2 637.47 190.95 636.04 191.69 635.37 191.76 632.65 192.43 624.37 187.58 619.1 183.97 617.58 182.28 615.14 182.08 613.67 180.86 612.34 180.05 609.39 178.83 609.2 178.76 606.72 178.13 607.19 175.13 603.38 174.02 602.47 172.41 598.95 170.28 598.51 167.56 594.32 164.32 591.01 163.46 590.33 161.85 588.84 160.4 586.93 159.89 585.78 159.51 584.81 158.69 583.86 159.35 582.46 160.66 580.06 158.98 577.73 158.49 575.31 157.98 571.99 158.11 570.07 156.2 563.31 155.18 559.99 151.99 557.3 147.65 555.13 146.51 551.94 144.98 547.73 143.32 544.03 140.51 539.81 137.33 537.13 134.52 537.64 134.02 533.68 133.12 531.39 131.59 528.32 130.44 521.94 129.68 513.38 124.83 507.77 122.28 503.68 121.9 499.21 120.5 494.65 119.94 490.84 119.43 490.27 119.73 486.37 120.24 483.76 122.92 477.63 125.09 474.19 126.36 470.86 126.11 468.48 128.25 466.29 131.11 464.77 132.14 464.29 134.35 457.53 138.83 454.96 140.38 452.3 139.49 449.44 140.67 447.44 141.04 442.39 142.17 439.46 143.06 436.01 147.14 432.95 151.99 428.35 154.41 424.26 156.2 419.16 156.96 413.79 156.71 408.56 156.2 401.66 157.6 396.34 154.48 392.22 154.03 385.31 148.66 383.31 147.93 380.93 147.78 379.13 146.53 377.98 146.31 376.46 145.5 372.94 146.12 367.06 143.7 362.21 141.53 357.62 139.49 343.36 132.83 337.84 130.91 329.66 128.49 320.91 126.27 316.82 124.95 314.92 124.51 307.4 123.91 300.67 123.3 250.11 114.63 244.74 113.1 234.05 110.5 215.12 108.77 184.74 102.9 165.58 97.8 146.69 93.47 133.41 91.94 118.85 85.56 109.66 79.7 103.53 75.87 101.91 72.06 96.67 67.8 93.15 66.25 90.2 64.26 85.28 62.36 82.6 61.72 77.23 61.85 72.51 60.83 71.18 59.55 69.84 60.14 68.51 61.24 64.61 62.27 63.28 66.69 60.71 69.55 59.09 75.07 54.63 83.14 52.08 90.53 50.8 94.36 50.17 100.22 48.61 110.82 48.04 113.62 48.32 116.41 47.84 120.31 48.32 129.66 47.84 134.07 48.13 134.81 47.48 139.62 47.61 150.33 47.61 152.75 48.25 155.43 48.69 163.06 49.16 168.8 50.3 173.58 49.92 174.02 49.35 174.02 47.35 173.21 46.4 173.58 46.02 179.39 46.68 180.79 47.45 180.79 48.78 180.12 49.63 181.01 49.27 188.07 50.49 191.97 51.15 192.48 51.91 192.48 54.86 191.68 56.38 192.12 59.9 192.04 60.57 192.56 60.48 192.93 58.67 194.1 51.63 196.75 51.25 197.78 52.01 199.84 51.72 200.8 50.67 201.9 50.48 208.37 51.34 212.49 50.48 216.84 50.76 218.53 53.71 223.53 54.47 225.74 52.66 232.36 50.85 234.64 48.28 236.85 47.14 239.71 46.67 243.17 46.76 245.45 45.62 248.03 44.76 256.71 36.86 257 27.55 256.65 9.46 255.97 5.09 254.42 3.45 253.95 1.76 253.46 1 247.51 1.29 245.89 2.43 243.68 3.57 242.58 5.28 241.69 5.85 240.81 6.05 234.34 7 232.2 8.41 231.55 8.54 229.89 9.66 228.23 9.38 227.57 7.85 226.69 5.86 226.02 5.1 225.29 5.57 220.8 7.67 215.51 7.76 209.4 8.71 209.18 9.29 208.52 8.81 204.32 9 203.37 9.38 203.07 11.1 203.59 12.71 203.29 13.29 202.63 13.95 198.36 13.27 196.23 12.76 194.7 11.73 192.79 11.61 191.13 9.82 184.5 8.18 178.61 Z M 752.21 200.02 752.88 200.39 754.02 200.31 754.49 199.95 754.59 199.21 754.3 198.92 752.49 198.99 752.11 199.28 752.21 200.02 Z M 743.27 202.3 745.36 202.82 747.26 202.16 748.12 201.42 747.93 201.13 747.36 200.76 743.65 200.83 742.79 201.86 743.27 202.3 Z" fill-rule="evenodd"/>
</g>
</svg>