<?xml version="1.0"?>
<svg xmlns="http://www.w3.org/2000/svg" version="1.2" baseProfile="tiny" width="800" height="786" viewBox="0 0 800 786" stroke-linecap="round" stroke-linejoin="round">
<g id="horselake">
<path d="M 475.89 708.99 475.32 708.79 471.24 698.31 469.77 687.93 469.79 667.59 468.88 665.43 464.91 660.66 460.37 657.63 438.56 649.4 419.48 646.36 410.96 644.02 401.31 639 389.96 631.2 383.71 625.4 370.32 608.09 358.4 600.72 344.42 595.27 338.52 593.79 328.86 593.36 311.13 594.82 304.32 594.21 298.07 588.75 274.79 571.87 251.74 558.71 232.2 556.53 219.7 556.96 200.04 559.29 181.86 563.87 178.11 564.04 175.83 563.18 169.93 554.78 159.5 547.26 159.37 547.16 151.99 539.8 148.02 528.12 147.11 522.75 144.62 519.29 144.28 510.2 143.15 507.78 134.97 495.92 123.27 490.03 117.37 485.53 115.33 478.17 112.71 472.72 113.75 470.35 113.85 470.12 122.15 461.73 123.86 458.44 128.41 454.55 129.55 446.16 141.15 432.31 145.13 423.4 148.89 411.03 151.75 385.33 154.25 373.82 154.27 360.4 151.66 352.44 141.78 342.05 135.53 337.29 123.26 329.93 112.47 325.17 95.99 319.97 85.42 319.27 77.46 317.54 70.65 316.93 63.26 318.83 51.09 324.89 49.95 327.74 47.11 328.78 46.95 330.35 46.54 334.4 45.4 335.1 38.25 327.74 30.87 318.22 24.28 308 20.65 299.61 2.48 277.97 1 274.25 1 265.85 2.49 262.39 3.29 249.84 7.84 245.26 15.56 245.69 35.11 251.15 66.36 252.89 78.87 251.6 105.35 242.26 117.29 235.08 121.27 231.62 129.46 221.24 136.06 209.56 147.1 196.84 156.2 184.73 165.65 160.93 170.21 138.17 170.44 132.11 168.4 121.3 163.3 108.92 162.16 103.55 158.76 97.06 143.76 81.48 135.13 75.85 121.83 68.92 111.26 66.93 112.74 63.73 121.27 55.68 124.34 51.35 128.1 39.93 128.34 27.13 132.1 16.31 136.31 11.55 142.56 8.09 147.11 4.2 151.54 1.96 152.57 1.43 155.07 1 162.23 1.61 185.53 6.21 197.13 11.14 203.15 15.73 213.6 24.56 224.73 36.08 225.64 37.81 226.21 43.87 225.06 59.44 220.5 66.8 215.61 70.43 215.61 71.55 217.32 72.16 229.03 66.37 232.29 65.93 234.15 65.68 233.78 66.41 233.58 66.8 224.14 72.42 221.63 74.76 222.2 75.45 225.84 75.88 228.68 78.05 229.24 82.81 233.22 88.61 237.76 92.51 242.08 94.93 257.19 101.6 262.54 102.9 268.56 105.5 274.38 109.71 277.31 111.82 286.4 116.76 292.42 118.93 295.82 123.08 301.51 125.42 314.58 127.59 318.9 129.58 324.81 131.06 333.9 132.19 342.19 131.76 354.36 129.34 361.17 134.1 370.04 137.4 392.43 136.54 399.02 139.14 406.41 139.75 429.15 136.99 443.13 136.31 455.29 133.28 461.89 132.42 475.87 127.32 476.55 127.18 480.64 122.68 483.37 122.33 487.69 123.37 510.66 132.45 533.14 136.31 548.61 135.84 559.87 140.06 576.75 148.97 593.16 163.51 603.48 180.86 614.73 213.68 613.19 226.31 615.99 228.45 618.99 233.86 641.02 257.61 650.12 276.04 655.02 289.19 668.11 312.38 674.71 328.12 676.08 334.18 679.23 352.32 674.17 369.49 670.2 371.83 675.54 372.08 678.15 373.12 677.24 373.81 671.9 374.42 670.2 375.72 670.2 376.85 681.91 382.21 688.73 388.7 703.51 398.9 704.99 400.63 705.79 404.09 711.36 407.29 715.68 415.34 724.21 423.99 735.35 431.94 737.86 438.43 747.86 448.55 751.62 459.2 756.74 460.93 758.1 462.4 755.8 464.3 753.9 465.86 752.99 468.46 760.16 482.73 761.64 487.32 761.87 494.68 759.94 499.26 765.06 505.06 767.33 509.56 770.53 529.98 769.62 533.44 769.97 541.23 773.84 548.76 776.68 552.22 777.82 555.51 787.84 596.61 796.38 621.01 799 635.55 798.66 640.31 795.26 652.6 794.7 662.38 792.43 669.3 791.87 676.22 790.51 680.72 784.49 685.92 780.29 693.1 771.21 702.02 769.28 706.78 757.36 713.02 751.34 714.58 743.95 718.04 740.55 718.65 728.62 716.92 716.01 720.39 714.87 722.12 721.24 724.54 720.1 727.31 721.81 733.8 716.13 737.96 713.3 742.72 700.01 754.23 693.99 755.53 687.18 751.64 684.56 751.64 682.86 752.94 683.21 759.17 681.73 760.47 677.19 761.34 677.53 762.46 680.37 764.37 678.89 765.93 675.48 766.53 668.67 763.33 665.83 764.81 663.56 765.07 659.35 763.34 657.31 763.34 656.4 764.64 660.15 767.4 660.15 770.26 661.63 772.68 660.5 774.15 646.19 778.49 640.05 777.88 633.81 780.22 628.92 779.62 623.58 783.08 597.91 785 595.07 784.39 582.57 776.01 573.81 768.4 564.14 742 561.86 738.8 555.61 734.22 548.45 727.56 530.26 719.78 492.43 716.95 484.25 714.27 475.89 708.99 Z"/>
</g>
</svg>