<?xml version="1.0"?>
<svg xmlns="http://www.w3.org/2000/svg" version="1.2" baseProfile="tiny" width="800" height="1235" viewBox="0 0 800 1235" stroke-linecap="round" stroke-linejoin="round">
<g id="owenslake">
<path d="M 417.76 1220.09 407.01 1213.46 393.41 1205.08 389.69 1205.38 372.32 1225.29 369.79 1225.14 366.97 1223.8 318.86 1195.57 315.16 1194.01 285.54 1176.63 288.79 1171.94 305.43 1155 306.32 1152.77 297.11 1147.57 279.03 1136.86 321.22 1090.06 381.5 1023.2 436.63 1056.26 470.2 1017.62 475.64 1011.42 477.42 1009.49 478.39 1009.05 479.87 1009.42 508.01 1026.36 550.79 1051.69 591.4 1075.31 571.35 1097.45 570.02 1098.85 548.93 1122.55 529.85 1143.2 528.51 1144.62 509.44 1166.62 509.13 1166.98 497.4 1180.05 497.25 1180.21 489.38 1189.34 487.97 1190.38 460.57 1221.43 455.15 1226.33 449.28 1230.86 441.67 1234 417.76 1220.09 Z"/>
<path d="M 137.75 8.13 169.09 1 184.02 1 201.62 3.67 225.01 5.46 236.59 7.69 250.18 13.26 268.44 18.38 320.57 24.4 333.05 23.73 345.08 26.63 357.77 25.74 377.38 26.18 388.51 31.31 407.9 32.87 423.27 35.54 427.28 34.43 435.96 37.1 440.64 35.1 452.67 37.99 495.44 41.56 508.02 33.93 520.42 27.35 523.86 25.52 533.75 39.87 537.99 53.15 544.67 73.2 547.44 82.32 550.98 94 558.97 88.5 570.94 92.82 579.57 110.92 590.71 117.19 590.71 131.4 594.61 137.8 602.13 136.13 616.05 137.25 622.73 157.58 633.31 158.14 641.95 178.2 648.63 191.85 644.59 210.36 661.49 219.26 661.58 226.27 661.77 241.54 651.47 249.9 644.23 266.61 656.06 279.72 662.74 300.89 665.34 315.74 667.94 330.6 678.52 335.8 689.1 341 711.38 341.37 725.48 337.29 744.79 335.8 753.87 330.08 753.33 316.11 749.25 289 744.42 266.34 736.25 254.83 726.97 243.69 737.74 243.69 749.25 255.57 761.87 270.8 771.15 274.52 770.41 269.32 773.01 256.32 776.72 242.57 777.46 257.06 774.49 272.66 771.15 290.86 777.83 314.63 790.09 329.86 799 335.18 796.77 337.22 793.25 338.9 787.49 335 777.47 332.95 774.12 325.9 768.37 323.3 765.96 327.01 763.91 339.45 764.47 348.37 765.03 355.8 765.59 366.19 765.77 369.72 769.48 377.71 772.45 384.95 772.27 400.74 770.97 406.12 766.33 414.48 764.1 423.77 762.24 436.21 762.62 438.99 756.3 437.51 753.7 426.18 749.62 415.97 747.95 408.72 752.96 403.15 761.5 398.69 764.1 390.34 765.96 380.31 763.36 374.18 762.39 369.43 761.7 368.83 757.15 364 750.28 355 746.57 345.9 740.63 343.48 734.5 343.95 724.48 347.38 716.68 350.45 707.12 353.6 694.87 356.48 683.17 351.93 679 352.49 685.12 356.48 685.12 364.75 681.6 361.13 672.59 356.02 666.47 361.5 666.19 366.32 671.39 368.92 674.17 371.15 675.47 376.91 675.1 380.07 672.5 385.36 670.09 392.05 668.23 399.1 666.56 399.2 666 400.87 667.86 410.52 669.44 417.21 662.48 428.54 666.1 436.8 667.77 441.72 670.18 447.11 670.55 451.75 669.07 459.27 667.77 464.47 666.1 469.77 663.22 478.96 663.22 483.88 664.8 488.15 666.65 491.12 665.63 495.58 661.68 500.71 660.34 508.07 660.46 509.65 661.12 518.65 662.12 529.46 662.23 534.92 660.79 541.39 658.56 549.63 656.78 556.76 652.21 567.13 653.44 574.48 652.32 579.05 652.1 583.95 654.77 587.85 655.44 595.43 654.88 601.22 655.89 604.56 654.88 610.02 651.65 614.15 647.64 620.72 643.75 626.63 636.84 632.31 632.61 635.76 629.71 637.66 624.92 643.34 622.69 645.79 620.24 646.46 617.35 652.37 611.41 662.21 613.82 667.04 616.42 675.21 615.49 682.45 610.85 683.94 605.65 688.21 589.81 703.84 584.24 714.24 579.42 727.23 569.76 739.49 560.06 743.17 553.06 752.12 545.63 755.46 509.66 764.86 508.41 764.17 528.14 738.55 537.19 738.55 544.15 736.69 554.36 727.41 554.36 723.46 545.31 719.28 563.87 699.08 573.85 681.21 577.79 671.92 589.4 656.84 595.2 642.44 596.82 627.82 563.17 603.91 559.69 605.3 542.06 655.44 517.46 708.14 522.8 710.46 487.53 749.46 487.99 751.55 485.21 754.97 458.45 784.08 456.79 786.76 454.58 785.9 444.93 805.92 417.91 849.59 412.81 855.31 413.19 855.59 387.01 853.42 351.92 833.08 332.99 817.76 328.53 811.08 315.4 804.76 304.26 801.79 302.41 813.3 289.78 833.73 283.1 839.68 261.94 857.13 248.94 864.19 239.66 873.47 232.61 882.76 227.04 893.16 218.13 901.33 210.7 906.16 199.93 912.47 188.05 917.3 183.23 922.5 179.88 929.56 177.1 933.18 175.89 938.66 176.45 941.54 177.94 943.39 181.46 946.37 184.62 949.52 188.15 954.82 191.3 959.09 195.39 966.52 201.42 977.38 205.78 986.39 210.51 992.33 214.69 998.92 219.24 1006.17 221 1010.34 224.25 1016.56 226.02 1021.49 228.24 1027.71 230.29 1034.11 231.49 1039.31 232.23 1041.91 234.09 1043.86 237.34 1046.37 239.75 1049.99 242.07 1054.08 244.12 1057.24 240.59 1055.75 232.14 1047.21 228.06 1043.12 226.76 1036.71 222.86 1025.48 219.24 1016.94 212.28 1005.89 207.73 999.94 201.79 992.05 196.96 983.79 182.58 961.13 178.86 955.37 175.71 952.12 173.2 947.11 170.32 944.23 169.4 940.79 170.7 934.76 171.99 930.58 175.89 922.5 179.42 918.14 182.67 914.61 187.12 911.36 192.32 908.57 199.28 904.21 205.13 900.5 209.49 897.43 211.54 895.2 212.56 892.79 215.34 888.89 218.31 885.45 221.47 881.74 223.42 878.3 226.11 874.31 228.89 870.22 231.49 867.62 234.37 863.45 237.62 859.55 234.09 859.82 231.68 860.85 226.76 863.07 223.97 865.67 220.82 867.25 218.78 868.74 216.92 869.67 213.21 870.78 211.44 871.8 209.03 874.12 204.95 876.17 201.88 877 201.88 875.7 205.5 874.22 208.29 872.64 210.7 870.41 212.84 868.74 213.86 868.37 216.36 866.97 219.7 865.4 221.19 864.37 224.44 861.59 227.78 859.45 237.15 856.76 239.66 852.49 252 847.29 256.65 845.15 262.77 841.81 265.93 839.86 269.83 837.45 274.28 833.92 279.39 829.09 282.91 823.7 284.68 819.99 285.79 817.11 285.98 814.14 286.44 810.43 287.18 806.8 288.3 803.28 292.2 799.38 293.4 796.96 295.35 794.92 295.17 793.99 293.12 793.34 286.81 792.32 282.91 790.74 274.84 788.6 270.87 786.77 267.69 782.01 266.11 776.07 264.54 771.98 263.33 767.99 262.77 763.44 263.89 760.56 265.11 755.2 264.56 750.75 261.22 744.25 254.9 739.05 251.75 737.56 243.58 733.1 227.99 728.09 211.65 723.45 198.84 721.4 185.85 711.38 176.01 702.09 170.07 695.96 167.73 691.69 161.97 683.7 157.89 677.76 154.73 673.12 150.84 667.92 147.31 660.49 145.65 655.49 145.27 647.96 142.3 646.56 140.25 643.13 136.82 639.04 125.96 633.56 124.66 629.29 125.59 625.95 125.4 621.68 121 617.51 116.2 612.85 115.8 612.46 109.57 604.58 103.33 594.63 93.82 578.73 77.79 553.14 74.7 553.52 72.65 548.51 71.67 542.72 70.56 538.49 65.64 529.12 63.64 520.9 59.78 505.04 55.14 486.47 47.9 471.05 41.96 463.63 36.39 454.9 28.22 440.78 20.98 427.78 15.23 420.91 9.84 413.11 8.1 405.85 2.21 392.01 11.94 383.33 10.1 372.28 11.41 356.5 15.61 345.58 15.62 341.51 16.67 329.94 17.6 326.23 5.1 299.96 6.95 280.89 6.4 265.29 6.32 246.46 11.14 235.68 14.3 227.51 15.78 215.07 12.44 210.98 20.61 197.98 20.43 192.97 11.54 200.88 3.82 200.29 1 197.46 2.98 194.08 20.08 183.42 26.37 181.46 30.19 170.51 30.19 165.31 32.79 161.6 36.87 155.66 40.95 147.86 46.15 134.11 50.11 118.5 56.8 96 64.32 89.87 71.84 84.86 72.95 75.39 83.98 59.23 93.47 45.74 109.38 39.39 121.04 25.68 137.75 8.13 Z"/>
</g>
</svg>