<?xml version="1.0"?>
<svg xmlns="http://www.w3.org/2000/svg" version="1.2" baseProfile="tiny" width="800" height="2424" viewBox="0 0 800 2424" stroke-linecap="round" stroke-linejoin="round">
<g id="pyramidlake">
<path d="M 783.5 2417.86 783.44 2417.9 783.38 2417.91 783.33 2417.91 783.21 2417.9 783.09 2417.9 783.1 2417.81 783.11 2417.74 783.11 2417.71 783.05 2417.62 783.03 2417.55 783.07 2417.53 783.1 2417.49 783.1 2417.43 783.1 2417.39 783.03 2417.39 782.99 2417.37 783.02 2417.32 783.06 2417.28 783.07 2417.21 783.1 2417.19 783.18 2417.17 783.19 2417.14 783.18 2417.11 783.11 2417.05 783.12 2417 783.14 2416.91 783.15 2416.82 783.16 2416.79 783.19 2416.75 783.24 2416.69 783.25 2416.66 783.25 2416.59 783.23 2416.51 783.19 2416.48 783.09 2416.46 783 2416.43 782.98 2416.41 783 2416.34 783.03 2416.29 783.01 2416.23 782.99 2416.2 782.9 2416.16 782.88 2416.13 782.86 2416.1 782.81 2416.07 782.69 2416.07 782.54 2416.1 782.46 2416.11 782.45 2416.07 782.45 2416.01 782.47 2415.83 782.49 2415.76 782.57 2415.65 782.6 2415.6 782.68 2415.48 782.74 2415.38 782.74 2415.23 782.74 2415.18 782.69 2415.17 782.66 2415.15 782.68 2415.1 782.69 2415.07 782.6 2414.98 782.56 2414.9 782.52 2414.88 782.49 2414.89 782.45 2414.95 782.38 2415.01 782.37 2415.05 782.42 2415.17 782.39 2415.21 782.39 2415.27 782.38 2415.3 782.28 2415.31 782.23 2415.32 782.12 2415.32 782.04 2415.33 781.95 2415.34 781.8 2415.36 781.58 2415.38 781.43 2415.38 781.07 2415.38 780.92 2415.38 780.71 2415.37 780.6 2415.34 780.53 2415.29 780.5 2415.25 780.5 2415.16 780.5 2415 780.5 2414.84 780.48 2414.75 780.45 2414.65 780.4 2414.53 780.41 2414.46 780.4 2414.41 780.37 2414.37 780.27 2414.33 780.19 2414.28 780.13 2414.23 780.1 2414.12 780.1 2413.96 780.08 2413.85 780.05 2413.82 780 2413.8 779.91 2413.79 779.84 2413.85 779.79 2413.87 779.65 2413.88 779.54 2413.9 779.39 2413.96 779.32 2413.96 779.09 2413.95 778.94 2413.96 778.8 2413.93 778.68 2413.93 778.57 2413.95 778.5 2413.91 778.46 2413.91 778.36 2413.95 778.3 2413.91 778.26 2413.91 778.09 2413.91 777.96 2413.93 777.9 2413.93 777.72 2413.91 777.54 2413.91 777.37 2413.89 777.25 2413.9 777.18 2413.87 777.09 2413.87 777.06 2413.91 777.05 2413.96 777.02 2414 776.97 2414.02 776.87 2414 776.81 2413.95 776.76 2413.93 776.7 2413.95 776.58 2414.02 776.45 2414.09 776.36 2414.11 776.24 2414.11 776.17 2414.14 776.09 2414.17 776.03 2414.18 775.88 2414.19 775.8 2414.22 775.74 2414.23 775.71 2414.22 775.63 2414.16 775.57 2414.12 775.52 2414.07 775.47 2414.05 775.38 2414.03 775.27 2414.01 775.15 2413.98 775.07 2413.98 775.05 2413.93 775.04 2413.9 774.99 2413.88 774.92 2413.89 774.78 2413.9 774.72 2413.9 774.69 2413.93 774.68 2414.03 774.68 2414.09 774.66 2414.17 774.61 2414.23 774.6 2414.26 774.65 2414.32 774.68 2414.37 774.7 2414.44 774.69 2414.48 774.7 2414.52 774.75 2414.53 774.84 2414.54 774.89 2414.55 774.92 2414.59 774.95 2414.64 774.95 2414.73 774.95 2414.77 774.99 2414.86 774.98 2414.91 774.93 2414.96 774.86 2415 774.84 2414.98 774.81 2414.96 774.81 2414.9 774.8 2414.86 774.72 2414.83 774.7 2414.79 774.69 2414.77 774.61 2414.77 774.52 2414.77 774.47 2414.78 774.46 2414.73 774.46 2414.68 774.36 2414.65 774.34 2414.62 774.33 2414.59 774.27 2414.57 774.25 2414.56 774.23 2414.51 774.22 2414.48 774.18 2414.47 774.11 2414.46 774.08 2414.49 774.01 2414.56 773.94 2414.59 773.9 2414.62 773.88 2414.68 773.9 2414.78 773.85 2414.82 773.77 2414.8 773.73 2414.8 773.69 2414.82 773.59 2414.9 773.5 2414.96 773.41 2415 773.25 2415.07 773.08 2415.13 772.92 2415.15 772.79 2415.16 772.56 2415.2 772.39 2415.23 772.25 2415.25 772.16 2415.27 772.08 2415.21 772.05 2415.2 771.99 2415.2 771.88 2415.21 771.78 2415.23 771.69 2415.18 771.69 2415.15 771.66 2415.11 771.54 2415.11 771.42 2415.07 771.37 2415.05 771.3 2415.05 771.24 2415.03 771.21 2414.96 771.18 2414.93 771.13 2414.94 771.04 2414.94 771.01 2414.89 770.96 2414.85 770.9 2414.84 770.89 2414.83 770.9 2414.77 770.89 2414.75 770.85 2414.73 770.81 2414.71 770.81 2414.6 770.79 2414.57 770.78 2414.56 770.7 2414.57 770.64 2414.56 770.62 2414.55 770.6 2414.53 770.59 2414.45 770.57 2414.43 770.58 2414.39 770.6 2414.34 770.59 2414.31 770.53 2414.29 770.46 2414.24 770.45 2414.23 770.43 2414.18 770.39 2414.16 770.33 2414.14 770.29 2414.11 770.28 2414.07 770.27 2414.04 770.2 2414.03 770.17 2413.98 770.18 2413.95 770.22 2413.9 770.25 2413.88 770.26 2413.84 770.29 2413.82 770.34 2413.8 770.37 2413.78 770.37 2413.76 770.31 2413.72 770.29 2413.69 770.27 2413.64 770.23 2413.62 770.17 2413.59 770.14 2413.56 770.12 2413.48 770.13 2413.37 770.24 2413.43 770.29 2413.47 770.42 2413.47 770.45 2413.5 770.5 2413.58 770.5 2413.65 770.54 2413.72 770.6 2413.75 770.73 2413.77 770.81 2413.81 770.9 2413.9 770.91 2413.95 770.92 2414.04 770.98 2414.09 771.03 2414.12 771.04 2414.18 771.05 2414.2 771.14 2414.23 771.19 2414.26 771.24 2414.32 771.23 2414.36 771.21 2414.4 771.21 2414.44 771.26 2414.5 771.31 2414.55 771.4 2414.58 771.55 2414.6 771.7 2414.62 771.86 2414.62 772.13 2414.63 772.27 2414.63 772.31 2414.61 772.34 2414.55 772.38 2414.51 772.44 2414.49 772.5 2414.46 772.56 2414.4 772.62 2414.36 772.68 2414.32 772.74 2414.24 772.77 2414.22 772.87 2414.18 773.01 2414.11 773.06 2414.08 773.09 2414.05 773.09 2413.97 773.14 2413.91 773.14 2413.86 773.16 2413.84 773.23 2413.81 773.25 2413.8 773.26 2413.76 773.26 2413.64 773.29 2413.55 773.33 2413.47 773.43 2413.34 773.52 2413.24 773.62 2413.11 773.67 2413.06 773.75 2412.99 773.83 2412.92 773.9 2412.88 774.05 2412.82 774.13 2412.8 774.23 2412.79 774.36 2412.78 774.43 2412.76 774.46 2412.73 774.51 2412.65 774.52 2412.61 774.51 2412.58 774.39 2412.53 774.37 2412.51 774.37 2412.46 774.41 2412.44 774.48 2412.43 774.58 2412.47 774.63 2412.5 774.69 2412.48 774.73 2412.45 774.75 2412.42 774.74 2412.38 774.69 2412.35 774.66 2412.32 774.67 2412.29 774.75 2412.26 774.86 2412.21 774.91 2412.2 775.04 2412.2 775.12 2412.21 775.2 2412.25 775.33 2412.3 775.53 2412.32 775.59 2412.32 775.71 2412.37 775.81 2412.38 775.96 2412.39 776.15 2412.4 776.42 2412.39 776.51 2412.38 776.74 2412.34 776.88 2412.32 777.1 2412.31 777.23 2412.31 777.29 2412.3 777.42 2412.23 777.47 2412.21 777.55 2412.19 777.66 2412.18 777.75 2412.2 777.85 2412.25 777.85 2412.27 777.82 2412.31 777.77 2412.37 777.77 2412.41 777.8 2412.49 777.81 2412.55 777.76 2412.66 777.75 2412.71 777.75 2412.76 777.76 2412.79 777.83 2412.81 777.97 2412.82 778.02 2412.83 778.1 2412.79 778.14 2412.77 778.21 2412.75 778.35 2412.7 778.43 2412.62 778.45 2412.6 778.54 2412.6 778.59 2412.6 778.64 2412.58 778.69 2412.56 778.79 2412.52 778.81 2412.5 778.8 2412.45 778.81 2412.39 778.92 2412.38 779.01 2412.41 779.09 2412.44 779.16 2412.45 779.21 2412.45 779.24 2412.43 779.28 2412.37 779.33 2412.33 779.37 2412.32 779.44 2412.31 779.53 2412.32 779.55 2412.32 779.59 2412.37 779.63 2412.38 779.7 2412.38 779.75 2412.37 779.84 2412.29 779.87 2412.28 779.94 2412.29 780.06 2412.29 780.13 2412.27 780.17 2412.27 780.19 2412.21 780.22 2412.15 780.34 2412.15 780.39 2412.12 780.41 2412.11 780.5 2412.13 780.57 2412.14 780.64 2412.14 780.72 2412.11 780.87 2412.08 780.9 2412.08 780.96 2412.11 780.97 2412.14 780.98 2412.18 781.02 2412.2 781.08 2412.22 781.15 2412.23 781.23 2412.28 781.27 2412.33 781.31 2412.36 781.39 2412.4 781.49 2412.46 781.55 2412.49 781.65 2412.51 781.67 2412.5 781.7 2412.45 781.71 2412.41 781.75 2412.34 781.75 2412.32 781.73 2412.29 781.72 2412.23 781.72 2412.2 781.66 2412.08 781.64 2412.05 781.6 2412 781.58 2411.93 781.57 2411.91 781.5 2411.89 781.44 2411.85 781.43 2411.82 781.44 2411.79 781.49 2411.74 781.54 2411.68 781.54 2411.64 781.52 2411.6 781.47 2411.54 781.45 2411.49 781.43 2411.48 781.39 2411.46 781.32 2411.45 781.25 2411.44 781.2 2411.42 781.15 2411.39 781.14 2411.36 781.12 2411.3 781.09 2411.25 781.02 2411.15 780.99 2411.09 780.98 2411 780.97 2410.97 780.96 2410.94 780.89 2410.86 780.88 2410.84 780.88 2410.78 780.82 2410.73 780.82 2410.68 780.82 2410.65 780.74 2410.65 780.71 2410.64 780.65 2410.58 780.63 2410.51 780.63 2410.48 780.65 2410.45 780.67 2410.39 780.59 2410.36 780.57 2410.35 780.56 2410.29 780.53 2410.27 780.41 2410.28 780.34 2410.26 780.32 2410.25 780.27 2410.2 780.22 2410.16 780.13 2410.12 780.09 2410.09 780.07 2410.06 780.06 2409.97 780.07 2409.93 780.06 2409.91 780.02 2409.88 779.96 2409.86 779.91 2409.83 779.87 2409.79 779.84 2409.78 779.77 2409.77 779.71 2409.75 779.68 2409.71 779.77 2409.66 779.84 2409.61 779.93 2409.61 779.97 2409.61 780.02 2409.7 780.04 2409.72 780.1 2409.74 780.2 2409.83 780.25 2409.88 780.29 2409.91 780.27 2410.02 780.28 2410.05 780.34 2410.05 780.38 2410.03 780.5 2410.02 780.61 2410 780.65 2410.01 780.69 2410.05 780.71 2410.14 780.72 2410.18 780.8 2410.19 780.87 2410.22 780.87 2410.31 780.87 2410.33 780.93 2410.35 781 2410.35 781.13 2410.29 781.22 2410.29 781.26 2410.3 781.33 2410.35 781.44 2410.37 781.48 2410.4 781.48 2410.49 781.53 2410.54 781.59 2410.6 781.74 2410.71 781.83 2410.77 782.01 2410.94 782.07 2410.98 782.14 2411.01 782.17 2411.02 782.16 2411.1 782.23 2411.18 782.27 2411.23 782.33 2411.37 782.36 2411.45 782.35 2411.57 782.37 2411.6 782.42 2411.63 782.43 2411.67 782.44 2411.73 782.46 2411.76 782.5 2411.78 782.57 2411.78 782.67 2411.77 782.81 2411.77 782.88 2411.79 782.96 2411.86 783.03 2411.93 783.09 2411.97 783.22 2412 783.47 2411.98 783.75 2411.99 783.85 2411.99 783.91 2412.01 783.97 2412.02 784.06 2412.03 784.18 2412.1 784.27 2412.16 784.32 2412.2 784.35 2412.3 784.4 2412.38 784.48 2412.47 784.54 2412.52 784.61 2412.67 784.7 2412.83 784.71 2412.89 784.73 2413.04 784.73 2413.16 784.73 2413.24 784.71 2413.37 784.69 2413.56 784.67 2413.7 784.68 2413.74 784.75 2413.83 784.8 2413.9 784.94 2414.02 784.98 2414.09 785.13 2414.22 785.22 2414.28 785.3 2414.33 785.34 2414.32 785.41 2414.28 785.47 2414.22 785.46 2414.2 785.44 2414.17 785.39 2414.12 785.26 2414 785.2 2413.94 785.16 2413.89 785.14 2413.84 785.15 2413.75 785.15 2413.57 785.21 2413.42 785.24 2413.33 785.24 2413.25 785.2 2413.19 785.11 2413.09 785.08 2413.02 785.05 2412.98 785.02 2412.91 784.99 2412.79 784.96 2412.74 784.94 2412.7 784.91 2412.59 784.94 2412.5 784.95 2412.47 784.89 2412.42 784.88 2412.34 784.87 2412.27 784.92 2412.21 784.99 2412.18 784.99 2412.14 784.96 2412.11 784.9 2412.07 784.76 2411.99 784.71 2411.94 784.58 2411.82 784.52 2411.77 784.48 2411.68 784.47 2411.63 784.43 2411.6 784.33 2411.6 784.27 2411.56 784.18 2411.48 784.09 2411.44 784.01 2411.41 783.99 2411.39 784.04 2411.37 784.14 2411.34 784.23 2411.33 784.3 2411.31 784.34 2411.27 784.33 2411.2 784.32 2411.18 784.26 2411.13 784.26 2411.09 784.3 2411.02 784.32 2411 784.29 2410.94 784.26 2410.92 784.26 2410.83 784.28 2410.73 784.28 2410.68 784.36 2410.57 784.37 2410.52 784.38 2410.38 784.38 2410.3 784.45 2410.19 784.47 2410.11 784.49 2409.98 784.48 2409.96 784.46 2409.91 784.37 2409.88 784.26 2409.85 784.19 2409.81 784.15 2409.7 784.11 2409.64 784.04 2409.58 783.9 2409.43 783.79 2409.28 783.71 2409.18 783.64 2409.08 783.56 2408.94 783.54 2408.82 783.54 2408.65 783.54 2408.63 783.51 2408.6 783.41 2408.53 783.35 2408.47 783.31 2408.47 783.18 2408.43 783.03 2408.39 782.89 2408.3 782.83 2408.22 782.81 2408.17 782.9 2408.17 782.95 2408.2 783.04 2408.24 783.12 2408.25 783.21 2408.22 783.21 2408.18 783.18 2408.14 783.11 2408.08 783.1 2408.03 783.11 2407.92 783.13 2407.81 783.18 2407.76 783.22 2407.75 783.25 2407.74 783.25 2407.71 783.22 2407.66 783.18 2407.61 783.19 2407.54 783.21 2407.38 783.21 2407.31 783.19 2407.28 783.12 2407.28 783.04 2407.28 782.99 2407.24 782.97 2407.19 782.96 2407.11 782.98 2407.04 782.99 2406.92 782.98 2406.89 782.95 2406.86 782.86 2406.86 782.79 2406.81 782.74 2406.72 782.71 2406.68 782.7 2406.66 782.59 2406.66 782.43 2406.65 782.38 2406.7 782.3 2406.7 782.27 2406.76 782.24 2406.79 782.15 2406.82 782.11 2406.81 782.05 2406.79 781.98 2406.75 781.91 2406.75 781.91 2406.84 781.89 2406.9 781.85 2406.91 781.8 2406.92 781.75 2406.92 781.68 2406.92 781.62 2406.93 781.53 2406.89 781.46 2406.82 781.44 2406.79 781.44 2406.73 781.44 2406.63 781.43 2406.56 781.4 2406.46 781.39 2406.43 781.41 2406.38 781.49 2406.29 781.49 2406.25 781.48 2406.22 781.41 2406.16 781.44 2406.15 781.49 2406.15 781.56 2406.19 781.59 2406.27 781.58 2406.38 781.58 2406.49 781.59 2406.55 781.61 2406.61 781.66 2406.64 781.75 2406.59 781.87 2406.58 781.98 2406.59 782.05 2406.56 782.07 2406.53 782.07 2406.49 782.16 2406.46 782.23 2406.41 782.34 2406.38 782.46 2406.36 782.57 2406.34 782.7 2406.33 782.89 2406.35 782.97 2406.37 783.06 2406.45 783.09 2406.51 783.15 2406.59 783.3 2406.58 783.3 2406.56 783.28 2406.44 783.24 2406.37 783.14 2406.25 783.06 2406.16 782.9 2406.03 782.83 2406.01 782.67 2405.96 782.58 2405.93 782.52 2405.86 782.41 2405.74 782.34 2405.68 782.31 2405.6 782.3 2405.47 782.3 2405.42 782.22 2405.29 782.16 2405.23 782.02 2405.11 781.93 2405.04 781.85 2404.9 781.83 2404.8 781.85 2404.82 781.91 2404.88 782.06 2404.99 782.17 2405.08 782.29 2405.18 782.37 2405.28 782.49 2405.39 782.52 2405.42 782.52 2405.5 782.52 2405.59 782.56 2405.64 782.66 2405.74 782.74 2405.77 782.88 2405.79 783.01 2405.83 783.18 2405.88 783.28 2405.92 783.36 2405.92 783.55 2405.85 783.67 2405.77 783.88 2405.68 783.94 2405.66 783.95 2405.61 783.95 2405.57 783.95 2405.43 783.97 2405.39 783.98 2405.35 784 2405.29 784.01 2405.22 784 2405.16 784.01 2405.12 784.04 2404.99 784.04 2404.93 784.04 2404.77 784.04 2404.72 784.04 2404.63 784.03 2404.49 783.97 2404.35 783.95 2404.31 783.9 2404.32 783.84 2404.32 783.77 2404.29 783.69 2404.27 783.57 2404.26 783.45 2404.22 783.3 2404.13 783.22 2404.07 783.12 2403.96 783.07 2403.87 783.02 2403.72 782.98 2403.64 782.92 2403.45 782.88 2403.37 782.82 2403.2 782.75 2403.05 782.68 2402.95 782.67 2402.88 782.65 2402.74 782.64 2402.59 782.64 2402.44 782.65 2402.33 782.74 2402.15 782.8 2402.01 782.82 2401.84 782.85 2401.74 782.85 2401.6 782.85 2401.33 782.85 2401.16 782.84 2400.93 782.83 2400.77 782.81 2400.67 782.77 2400.58 782.76 2400.55 782.74 2400.5 782.68 2400.42 782.66 2400.39 782.61 2400.36 782.51 2400.31 782.46 2400.27 782.46 2400.25 782.49 2400.22 782.56 2400.18 782.58 2400.13 782.59 2400.07 782.59 2400.02 782.56 2399.91 782.52 2399.83 782.42 2399.71 782.35 2399.66 782.22 2399.54 782.1 2399.46 781.91 2399.4 781.76 2399.32 781.65 2399.28 781.55 2399.22 781.44 2399.15 781.4 2399.12 781.28 2399.1 781.26 2399.09 781.25 2399.03 781.24 2398.92 781.24 2398.91 781.2 2398.84 781.17 2398.79 781.17 2398.74 781.21 2398.72 781.25 2398.69 781.25 2398.67 781.25 2398.62 781.24 2398.59 781.22 2398.53 781.15 2398.44 781.13 2398.41 781.09 2398.38 780.99 2398.35 780.94 2398.34 780.92 2398.33 780.89 2398.26 780.89 2398.19 780.9 2398.18 780.91 2398.17 780.93 2398.16 780.98 2398.16 781.08 2398.23 781.16 2398.32 781.31 2398.49 781.44 2398.62 781.51 2398.71 781.68 2398.86 781.81 2398.97 781.93 2399.08 782 2399.15 782.1 2399.22 782.26 2399.35 782.35 2399.43 782.49 2399.55 782.56 2399.61 782.64 2399.74 782.69 2399.83 782.77 2399.98 782.83 2400.05 782.92 2400.19 782.93 2400.26 782.95 2400.34 783.01 2400.47 783.05 2400.57 783.11 2400.73 783.15 2400.85 783.18 2400.89 783.21 2400.87 783.23 2400.8 783.26 2400.77 783.3 2400.8 783.36 2400.89 783.39 2400.96 783.43 2401.05 783.45 2401.11 783.45 2401.25 783.45 2401.32 783.43 2401.39 783.39 2401.49 783.36 2401.64 783.33 2401.73 783.31 2401.89 783.28 2402.11 783.25 2402.27 783.25 2402.38 783.25 2402.53 783.33 2402.56 783.47 2402.57 783.51 2402.61 783.51 2402.83 783.5 2402.96 783.51 2402.99 783.56 2403.01 783.64 2403.02 783.68 2403.01 783.69 2402.95 783.69 2402.83 783.69 2402.68 783.94 2402.7 783.92 2402.78 783.92 2402.96 783.93 2403.06 783.95 2403.14 783.98 2403.17 784.1 2403.22 784.23 2403.26 784.41 2403.3 784.53 2403.32 784.56 2403.34 784.65 2403.4 784.71 2403.54 784.78 2403.7 784.82 2403.82 784.89 2403.98 784.92 2404.04 785.02 2404.2 785.05 2404.26 785.19 2404.43 785.25 2404.49 785.35 2404.56 785.4 2404.61 785.39 2404.77 785.39 2404.87 785.37 2405.04 785.35 2405.19 785.34 2405.38 785.34 2405.43 785.41 2405.46 785.51 2405.55 785.58 2405.58 785.63 2405.6 785.64 2405.62 785.58 2405.64 785.45 2405.65 785.34 2405.62 785.25 2405.61 785.16 2405.61 785.13 2405.63 785.04 2405.76 785 2405.83 785 2405.86 785.06 2405.94 785.1 2405.99 785.13 2406.04 785.17 2406.2 785.16 2406.3 785.14 2406.38 785.12 2406.47 785.11 2406.52 785.08 2406.53 784.99 2406.63 784.96 2406.68 784.87 2406.79 784.85 2406.85 784.72 2406.93 784.69 2406.97 784.63 2407.04 784.55 2407.08 784.52 2407.12 784.53 2407.23 784.54 2407.29 784.6 2407.39 784.58 2407.5 784.52 2407.56 784.47 2407.67 784.46 2407.75 784.42 2407.78 784.37 2407.88 784.37 2407.97 784.41 2408.01 784.48 2408.03 784.54 2408.06 784.66 2408.13 784.71 2408.14 784.77 2408.14 784.91 2408.16 785.09 2408.17 785.23 2408.19 785.28 2408.19 785.44 2408.17 785.54 2408.16 785.66 2408.15 785.71 2408.16 785.72 2408.18 785.7 2408.21 785.53 2408.36 785.48 2408.43 785.47 2408.54 785.49 2408.61 785.58 2408.67 785.71 2408.78 785.76 2408.82 785.87 2408.84 786.03 2408.87 786.18 2408.91 786.34 2408.99 786.39 2409 786.42 2409.02 786.43 2409.07 786.41 2409.11 786.37 2409.15 786.33 2409.2 786.33 2409.24 786.4 2409.29 786.47 2409.33 786.58 2409.35 786.6 2409.38 786.62 2409.5 786.64 2409.56 786.64 2409.66 786.65 2409.7 786.74 2409.74 786.8 2409.78 786.8 2409.86 786.77 2409.92 786.67 2409.98 786.58 2410.04 786.47 2410.15 786.43 2410.2 786.43 2410.25 786.37 2410.37 786.33 2410.43 786.3 2410.54 786.28 2410.59 786.28 2410.71 786.28 2410.78 786.31 2410.84 786.39 2410.96 786.42 2411.03 786.45 2411.05 786.54 2411.11 786.63 2411.17 786.72 2411.27 786.79 2411.31 786.84 2411.34 786.86 2411.45 786.83 2411.61 786.82 2411.67 786.72 2411.89 786.69 2412.01 786.71 2412.04 786.75 2412.09 786.78 2412.12 786.83 2412.14 786.91 2412.16 786.95 2412.19 787.01 2412.35 787.12 2412.48 787.18 2412.54 787.23 2412.57 787.31 2412.59 787.41 2412.62 787.47 2412.64 787.59 2412.67 787.68 2412.7 787.73 2412.77 787.81 2412.84 787.88 2412.89 787.91 2412.92 787.92 2413.03 787.92 2413.09 787.93 2413.14 787.96 2413.16 788.02 2413.17 788.14 2413.17 788.36 2413.17 788.65 2413.16 788.8 2413.16 788.93 2413.14 789.16 2413.14 789.23 2413.12 789.33 2413.08 789.4 2413.07 789.47 2413.07 789.6 2413.1 789.66 2413.13 789.69 2413.16 789.78 2413.26 789.81 2413.27 789.95 2413.27 790.06 2413.27 790.13 2413.29 790.2 2413.31 790.31 2413.4 790.38 2413.47 790.43 2413.5 790.48 2413.53 790.56 2413.55 790.7 2413.55 790.9 2413.56 791.07 2413.57 791.24 2413.59 791.34 2413.59 791.42 2413.57 791.46 2413.55 791.47 2413.53 791.48 2413.44 791.51 2413.38 791.58 2413.3 791.61 2413.23 791.65 2413.12 791.68 2413.06 791.69 2412.93 791.71 2412.8 791.73 2412.65 791.75 2412.53 791.77 2412.46 791.8 2412.33 791.8 2412.25 791.84 2412.14 791.89 2412.08 791.97 2411.97 792.03 2411.91 792.1 2411.8 792.19 2411.68 792.25 2411.63 792.36 2411.53 792.45 2411.46 792.53 2411.4 792.57 2411.33 792.58 2411.27 792.6 2411.24 792.64 2411.18 792.66 2411.13 792.64 2411 792.66 2410.96 792.69 2410.93 792.7 2410.89 792.62 2410.77 792.62 2410.72 792.65 2410.6 792.66 2410.54 792.67 2410.42 792.64 2410.36 792.6 2410.22 792.52 2410.13 792.5 2410.08 792.51 2410.04 792.58 2409.97 792.63 2409.86 792.61 2409.79 792.63 2409.74 792.64 2409.7 792.67 2409.62 792.65 2409.58 792.62 2409.55 792.54 2409.52 792.49 2409.48 792.47 2409.42 792.43 2409.36 792.36 2409.36 792.19 2409.35 792.12 2409.34 792.1 2409.31 792.09 2409.27 792.16 2409.24 792.22 2409.21 792.24 2409.18 792.27 2409.13 792.28 2409.09 792.27 2408.98 792.28 2408.93 792.29 2408.88 792.37 2408.84 792.43 2408.81 792.47 2408.75 792.45 2408.69 792.46 2408.64 792.51 2408.63 792.57 2408.63 792.6 2408.61 792.72 2408.6 792.78 2408.6 792.84 2408.61 792.95 2408.66 792.98 2408.67 793.03 2408.68 793.08 2408.68 793.1 2408.71 793.11 2408.74 793.1 2408.87 793.1 2408.99 793.1 2409.03 793.12 2409.05 793.14 2409.06 793.29 2409.04 793.43 2409.03 793.47 2409.08 793.52 2409.14 793.52 2409.23 793.51 2409.33 793.54 2409.36 793.58 2409.38 793.6 2409.39 793.62 2409.47 793.71 2409.52 793.75 2409.54 793.75 2409.56 793.74 2409.59 793.72 2409.61 793.6 2409.64 793.55 2409.67 793.57 2409.7 793.61 2409.78 793.6 2409.82 793.54 2409.87 793.51 2409.89 793.51 2410 793.51 2410.2 793.49 2410.26 793.46 2410.31 793.48 2410.4 793.55 2410.44 793.62 2410.45 793.67 2410.46 793.72 2410.48 793.76 2410.51 793.8 2410.56 793.8 2410.65 793.8 2410.7 793.81 2410.79 793.86 2410.82 793.91 2410.86 793.96 2410.89 793.97 2410.93 793.98 2411.07 794 2411.23 794.04 2411.28 794.09 2411.39 794.09 2411.42 794.07 2411.46 794.04 2411.6 794.05 2411.63 794.08 2411.68 794.14 2411.74 794.15 2411.77 794.13 2411.86 793.99 2411.88 793.91 2411.92 793.88 2412.03 793.86 2412.13 793.75 2412.28 793.71 2412.34 793.63 2412.43 793.62 2412.47 793.63 2412.52 793.61 2412.61 793.59 2412.65 793.47 2412.72 793.46 2412.74 793.45 2412.82 793.58 2412.83 793.68 2412.81 793.72 2412.75 793.75 2412.73 793.83 2412.72 793.83 2412.7 793.81 2412.57 793.81 2412.52 793.83 2412.45 793.89 2412.41 793.99 2412.34 794.05 2412.32 794.16 2412.34 794.25 2412.37 794.27 2412.38 794.27 2412.41 794.22 2412.53 794.21 2412.57 794.15 2412.65 794.07 2412.71 794.02 2412.81 794.02 2412.87 794.09 2412.87 794.17 2412.89 794.21 2412.9 794.19 2412.95 794.14 2413.08 794.1 2413.14 794 2413.3 793.86 2413.47 793.79 2413.59 793.76 2413.62 793.82 2413.62 793.97 2413.6 794.08 2413.57 794.17 2413.57 794.3 2413.59 794.38 2413.61 794.46 2413.66 794.54 2413.68 794.64 2413.7 794.68 2413.72 794.69 2413.74 794.68 2413.87 794.68 2413.93 794.73 2413.98 794.75 2413.99 794.92 2414 795.06 2413.99 795.23 2413.99 795.32 2413.99 795.38 2414.02 795.41 2414.04 795.41 2414.14 795.4 2414.22 795.34 2414.38 795.26 2414.5 795.24 2414.55 795.26 2414.58 795.37 2414.64 795.5 2414.67 795.63 2414.67 795.77 2414.65 795.9 2414.65 796.06 2414.66 796.2 2414.68 796.25 2414.7 796.31 2414.75 796.36 2414.75 796.42 2414.75 796.46 2414.71 796.47 2414.64 796.46 2414.57 796.46 2414.51 796.43 2414.39 796.44 2414.29 796.48 2414.24 796.53 2414.24 796.57 2414.24 796.63 2414.27 796.68 2414.28 796.76 2414.29 796.79 2414.28 796.89 2414.19 796.94 2414.16 797.03 2414.09 797.04 2414.06 796.99 2414.01 796.92 2413.98 796.92 2413.94 796.93 2413.85 796.94 2413.81 796.99 2413.8 797.1 2413.73 797.17 2413.68 797.26 2413.58 797.28 2413.54 797.26 2413.44 797.22 2413.38 797.2 2413.36 797.2 2413.32 797.23 2413.28 797.26 2413.25 797.29 2413.22 797.26 2413.15 797.23 2413.09 797.2 2413.03 797.22 2412.96 797.24 2412.94 797.27 2412.92 797.43 2412.92 797.46 2412.9 797.47 2412.83 797.47 2412.7 797.48 2412.67 797.52 2412.65 797.54 2412.62 797.58 2412.61 797.66 2412.67 797.77 2412.72 797.86 2412.76 798.02 2412.85 798.1 2412.91 798.19 2412.99 798.25 2413.06 798.27 2413.1 798.31 2413.15 798.38 2413.24 798.41 2413.28 798.49 2413.39 798.52 2413.43 798.58 2413.56 798.65 2413.7 798.72 2413.84 798.79 2414.02 798.88 2414.22 798.87 2414.28 798.88 2414.41 798.88 2414.52 798.88 2414.62 798.83 2414.69 798.81 2414.71 798.71 2414.78 798.68 2414.82 798.67 2414.87 798.68 2414.93 798.62 2414.98 798.56 2415.05 798.53 2415.08 798.44 2415.12 798.37 2415.15 798.31 2415.18 798.29 2415.2 798.3 2415.25 798.29 2415.29 798.22 2415.34 798.17 2415.37 798.01 2415.48 797.91 2415.55 797.72 2415.69 797.65 2415.72 797.6 2415.75 797.53 2415.82 797.52 2415.87 797.51 2415.92 797.44 2415.98 797.37 2416.05 797.36 2416.09 797.36 2416.2 797.31 2416.26 797.22 2416.29 797.12 2416.32 797.13 2416.37 797.14 2416.4 797.11 2416.41 797.03 2416.45 796.95 2416.47 796.9 2416.5 796.89 2416.53 796.93 2416.61 796.94 2416.66 796.92 2416.69 796.84 2416.79 796.84 2416.85 796.81 2416.93 796.75 2416.98 796.63 2417.05 796.61 2417.1 796.61 2417.14 796.62 2417.19 796.7 2417.24 796.79 2417.28 796.82 2417.31 796.91 2417.45 796.96 2417.51 796.97 2417.54 796.98 2417.62 796.94 2417.66 796.9 2417.79 796.88 2417.86 796.89 2417.96 796.87 2418.04 796.85 2418.09 796.85 2418.2 796.84 2418.22 796.72 2418.31 796.67 2418.38 796.66 2418.47 796.7 2418.5 796.75 2418.53 796.79 2418.57 796.9 2418.65 796.93 2418.73 796.94 2418.76 796.94 2418.86 796.94 2418.95 796.92 2418.99 796.84 2419.04 796.76 2419.07 796.69 2419.12 796.68 2419.23 796.68 2419.28 796.68 2419.37 796.66 2419.4 796.52 2419.51 796.49 2419.57 796.4 2419.68 796.32 2419.74 796.17 2419.82 796.12 2419.85 796.03 2419.89 795.99 2419.91 795.96 2419.94 795.95 2419.97 795.99 2419.98 796.03 2420.01 796.16 2420.07 796.25 2420.1 796.27 2420.13 796.35 2420.25 796.38 2420.3 796.46 2420.45 796.53 2420.55 796.53 2420.6 796.54 2420.64 796.54 2420.75 796.56 2420.78 796.58 2420.79 796.69 2420.79 796.79 2420.78 796.88 2420.76 796.97 2420.75 797.1 2420.71 797.16 2420.7 797.2 2420.71 797.27 2420.78 797.29 2420.79 797.4 2420.81 797.47 2420.81 797.49 2420.82 797.54 2420.86 797.67 2420.95 797.71 2420.98 797.77 2421.04 797.79 2421.03 797.81 2420.95 797.84 2420.87 797.87 2420.84 797.94 2420.79 798.07 2420.79 798.21 2420.81 798.27 2420.81 798.3 2420.81 798.37 2420.78 798.41 2420.79 798.55 2420.8 798.6 2420.75 798.64 2420.74 798.78 2420.75 798.82 2420.74 798.88 2420.72 798.93 2420.74 798.98 2420.77 798.99 2420.79 799 2420.8 798.98 2420.82 798.95 2420.85 798.95 2420.89 798.94 2420.91 798.91 2420.93 798.86 2420.93 798.81 2420.91 798.77 2420.92 798.74 2420.98 798.64 2420.99 798.57 2421 798.56 2421.04 798.54 2421.08 798.53 2421.12 798.46 2421.12 798.33 2421.11 798.18 2421.09 798.1 2421.09 798.08 2421.12 798.07 2421.19 798.08 2421.25 798.08 2421.29 798.05 2421.3 797.96 2421.36 797.93 2421.4 797.87 2421.43 797.81 2421.44 797.78 2421.43 797.72 2421.38 797.62 2421.28 797.55 2421.25 797.51 2421.23 797.36 2421.22 797.19 2421.22 797.1 2421.24 797.05 2421.25 797.01 2421.31 796.91 2421.3 796.85 2421.32 796.84 2421.36 796.82 2421.39 796.75 2421.43 796.7 2421.47 796.72 2421.5 796.83 2421.62 796.85 2421.66 796.87 2421.74 796.87 2421.78 796.84 2421.82 796.85 2421.85 796.84 2421.86 796.76 2421.91 796.76 2422 796.73 2422.05 796.67 2422.09 796.46 2422.16 796.35 2422.21 796.17 2422.24 796.08 2422.26 795.97 2422.29 795.88 2422.32 795.87 2422.35 795.9 2422.38 795.92 2422.44 795.91 2422.5 795.89 2422.55 795.86 2422.55 795.77 2422.54 795.56 2422.5 795.37 2422.49 795.07 2422.46 794.87 2422.46 794.71 2422.46 794.39 2422.47 794.21 2422.48 794.08 2422.48 793.98 2422.49 793.84 2422.56 793.78 2422.6 793.74 2422.66 793.69 2422.69 793.63 2422.7 793.54 2422.71 793.49 2422.71 793.47 2422.74 793.47 2422.77 793.47 2422.86 793.44 2422.86 793.43 2422.87 793.35 2422.86 793.34 2422.84 793.3 2422.8 793.27 2422.81 793.24 2422.84 793.2 2422.85 793.05 2422.86 792.92 2422.85 792.88 2422.87 792.85 2422.92 792.82 2422.94 792.77 2422.88 792.71 2422.89 792.62 2422.94 792.49 2422.97 792.32 2422.98 792.19 2423 792.08 2423 792.05 2423 792.03 2422.94 792 2422.89 791.92 2422.87 791.69 2422.87 791.61 2422.85 791.59 2422.83 791.58 2422.78 791.56 2422.74 791.39 2422.74 791.32 2422.74 791.27 2422.71 791.27 2422.68 791.25 2422.61 791.21 2422.55 791.21 2422.5 791.21 2422.41 791.18 2422.38 791.12 2422.33 791.14 2422.29 791.14 2422.17 791.14 2422.13 791 2422.15 790.92 2422.15 790.82 2422.18 790.75 2422.19 790.65 2422.19 790.56 2422.19 790.41 2422.21 790.35 2422.19 790.33 2422.16 790.3 2422.11 790.28 2422.08 790.19 2422.06 790.16 2422.04 790.15 2422.01 790.18 2422 790.3 2421.97 790.32 2421.95 790.33 2421.9 790.38 2421.89 790.5 2421.82 790.53 2421.8 790.56 2421.71 790.57 2421.67 790.65 2421.63 790.7 2421.6 790.77 2421.53 790.84 2421.5 790.98 2421.44 791.13 2421.37 791.18 2421.33 791.18 2421.27 791.15 2421.23 791.03 2421.16 791 2421.12 790.89 2421 790.86 2420.95 790.84 2420.91 790.78 2420.89 790.78 2420.83 790.82 2420.81 790.87 2420.74 790.86 2420.7 790.81 2420.66 790.77 2420.61 790.8 2420.58 790.86 2420.53 790.88 2420.5 790.89 2420.41 790.92 2420.37 790.98 2420.32 790.92 2420.3 790.83 2420.29 790.49 2420.28 790.21 2420.29 789.92 2420.29 789.71 2420.28 789.58 2420.27 789.46 2420.25 789.18 2420.19 789.14 2420.15 789.1 2420.06 789.07 2419.96 789.06 2419.91 789.06 2419.85 789.04 2419.81 788.96 2419.8 788.81 2419.77 788.61 2419.77 788.49 2419.76 788.37 2419.77 788.33 2419.8 788.31 2419.84 788.28 2419.91 788.23 2419.93 788.19 2419.95 788.18 2419.99 788.17 2420.05 788.1 2420.07 788.05 2420.12 787.99 2420.16 787.93 2420.18 787.88 2420.18 787.69 2420.16 787.61 2420.17 787.52 2420.16 787.5 2420.15 787.51 2420.11 787.63 2420.05 787.7 2420.03 787.7 2419.97 787.69 2419.94 787.62 2419.91 787.54 2419.86 787.52 2419.8 787.5 2419.78 787.39 2419.77 787.35 2419.75 787.36 2419.7 787.37 2419.6 787.42 2419.55 787.44 2419.52 787.45 2419.49 787.43 2419.48 787.36 2419.48 787.24 2419.49 787.1 2419.5 787.06 2419.49 787.02 2419.45 787.01 2419.41 786.98 2419.31 786.96 2419.3 786.89 2419.27 786.83 2419.24 786.75 2419.17 786.74 2419.12 786.67 2419.09 786.66 2419.03 786.66 2418.93 786.67 2418.86 786.69 2418.73 786.67 2418.71 786.64 2418.69 786.51 2418.68 786.37 2418.68 786.32 2418.67 786.28 2418.62 786.26 2418.56 786.22 2418.47 786.18 2418.45 786.12 2418.38 786.11 2418.29 786.1 2418.25 786.1 2418.21 786.03 2418.23 785.95 2418.18 785.89 2418.17 785.82 2418.16 785.78 2418.1 785.72 2417.95 785.71 2417.82 785.69 2417.79 785.64 2417.79 785.49 2417.79 785.27 2417.8 785.05 2417.81 785 2417.82 784.95 2417.75 784.92 2417.72 784.89 2417.7 784.85 2417.69 784.71 2417.66 784.62 2417.62 784.54 2417.6 784.46 2417.61 784.37 2417.64 784.26 2417.66 784.21 2417.66 784.17 2417.6 784.13 2417.59 784.04 2417.59 784.03 2417.61 784.02 2417.69 783.99 2417.75 783.95 2417.76 783.91 2417.75 783.83 2417.75 783.74 2417.74 783.67 2417.73 783.57 2417.76 783.54 2417.79 783.5 2417.86 Z M 794.28 2418.33 794.28 2418.27 794.27 2418.23 794.17 2418.15 794.12 2418.1 794.1 2418.06 794.1 2418.02 794.13 2417.99 794.19 2417.9 794.21 2417.85 794.23 2417.77 794.2 2417.73 794.12 2417.68 794.1 2417.65 794.1 2417.57 794.12 2417.54 794.19 2417.49 794.23 2417.47 794.28 2417.47 794.31 2417.44 794.34 2417.38 794.34 2417.33 794.31 2417.28 794.28 2417.25 794.21 2417.24 794.16 2417.19 794.12 2417.14 794.1 2417.07 794.1 2416.97 794.1 2416.92 794.1 2416.84 794.11 2416.79 794.12 2416.75 794.1 2416.71 794.02 2416.67 793.98 2416.64 793.9 2416.55 793.84 2416.49 793.78 2416.43 793.75 2416.37 793.65 2416.26 793.57 2416.19 793.46 2416.09 793.34 2416.05 793.28 2416.06 793.23 2416.08 793.19 2416.16 793.17 2416.26 793.16 2416.31 793.17 2416.32 793.17 2416.38 793.13 2416.42 793.05 2416.46 793.03 2416.48 792.97 2416.63 792.96 2416.67 792.98 2416.7 793.05 2416.7 793.14 2416.7 793.29 2416.72 793.42 2416.75 793.47 2416.77 793.57 2416.83 793.62 2416.88 793.69 2416.99 793.71 2417.03 793.74 2417.13 793.75 2417.2 793.73 2417.36 793.69 2417.45 793.66 2417.48 793.6 2417.57 793.58 2417.61 793.55 2417.73 793.53 2417.77 793.47 2417.93 793.45 2418.04 793.45 2418.08 793.47 2418.12 793.5 2418.14 793.63 2418.22 793.71 2418.27 793.88 2418.35 793.95 2418.4 793.98 2418.43 794 2418.46 793.98 2418.56 793.96 2418.62 793.93 2418.66 793.86 2418.71 793.8 2418.75 793.66 2418.82 793.55 2418.87 793.43 2418.94 793.39 2418.96 793.37 2418.99 793.39 2419.07 793.4 2419.11 793.39 2419.15 793.36 2419.22 793.35 2419.25 793.29 2419.34 793.24 2419.36 793.11 2419.38 793.05 2419.4 792.95 2419.43 792.9 2419.46 792.86 2419.5 792.86 2419.52 792.88 2419.58 792.93 2419.62 792.96 2419.65 792.96 2419.68 792.96 2419.72 792.93 2419.78 792.93 2419.84 792.91 2419.94 792.92 2420.01 792.95 2420.06 792.99 2420.1 793.04 2420.12 793.05 2420.14 793.04 2420.17 793.02 2420.21 792.96 2420.3 792.91 2420.32 792.84 2420.35 792.85 2420.43 792.84 2420.45 792.77 2420.49 792.68 2420.52 792.58 2420.54 792.59 2420.57 792.63 2420.66 792.63 2420.68 792.6 2420.7 792.52 2420.74 792.52 2420.76 792.53 2420.79 792.61 2420.87 792.63 2420.91 792.74 2421.06 792.77 2421.09 792.81 2421.11 792.84 2421.09 792.92 2421.03 792.96 2420.95 792.99 2420.87 793.08 2420.81 793.19 2420.72 793.28 2420.61 793.39 2420.53 793.5 2420.46 793.57 2420.43 793.74 2420.37 793.83 2420.35 793.92 2420.36 794.07 2420.34 794.22 2420.31 794.3 2420.28 794.34 2420.28 794.4 2420.31 794.45 2420.31 794.49 2420.26 794.48 2420.2 794.45 2420.11 794.47 2420.05 794.4 2419.94 794.38 2419.88 794.39 2419.85 794.45 2419.81 794.47 2419.77 794.47 2419.73 794.39 2419.61 794.28 2419.5 794.24 2419.45 794.24 2419.4 794.26 2419.33 794.3 2419.29 794.36 2419.28 794.42 2419.28 794.54 2419.27 794.57 2419.24 794.56 2419.19 794.53 2419.16 794.45 2419.08 794.36 2419.02 794.28 2418.99 794.28 2418.93 794.29 2418.89 794.31 2418.78 794.33 2418.68 794.34 2418.62 794.31 2418.55 794.28 2418.51 794.26 2418.47 794.28 2418.33 Z" fill-rule="evenodd"/>
<path d="M 1.98 1.33 1.99 1.39 2.04 1.42 2.15 1.41 2.19 1.45 2.25 1.54 2.28 1.57 2.37 1.59 2.48 1.67 2.41 1.71 2.46 1.8 2.62 1.88 2.69 2.03 2.66 2.2 2.68 2.39 2.71 2.5 2.8 2.59 2.88 2.7 2.86 2.72 2.81 2.73 2.75 2.62 2.64 2.54 2.51 2.49 2.45 2.52 2.42 2.58 2.48 2.73 2.54 2.84 2.61 2.91 2.62 2.94 2.64 3.08 2.64 3.22 2.6 3.24 2.55 3.25 2.53 3.26 2.46 3.25 2.41 3.22 2.41 3.19 2.39 3.1 2.35 2.97 2.33 2.94 2.27 2.86 2.19 2.72 2.18 2.7 2.17 2.7 2.15 2.57 2.11 2.44 2.1 2.42 2.02 2.28 1.89 2.16 1.79 2.07 1.67 1.98 1.49 1.85 1.39 1.81 1.25 1.73 1.03 1.66 1 1.61 1.02 1.55 1.17 1.52 1.3 1.44 1.33 1.43 1.38 1.4 1.35 1.34 1.31 1.28 1.22 1.17 1.18 1.09 1.17 1.03 1.19 1 1.24 1.02 1.26 1.08 1.38 1.16 1.47 1.2 1.57 1.22 1.67 1.29 1.72 1.32 1.76 1.32 1.75 1.21 1.76 1.16 1.8 1.15 1.91 1.18 2 1.25 2 1.26 1.98 1.33 Z"/>
</g>
</svg>