<?xml version="1.0"?>
<svg xmlns="http://www.w3.org/2000/svg" version="1.2" baseProfile="tiny" width="800" height="1174" viewBox="0 0 800 1174" stroke-linecap="round" stroke-linejoin="round">
<g id="hartlake">
<path d="M 793.45 60.26 795.72 60.86 796.13 60.48 796.13 60.47 796.91 60.92 797.68 61.37 797.45 61.88 797.27 62.35 797.18 62.85 797.09 63.43 797.72 65.11 797.18 66.19 798.09 69.42 799 74.27 797.09 81.88 796.18 89.42 794.28 95.35 793.73 99.12 790.91 103.97 790.66 105.31 790.27 107.34 788.28 111.79 787.37 117.72 787.55 120.41 788.41 124.31 789.1 127.41 789.46 132.8 789.45 133.41 789.37 136.57 788.74 138.26 783.1 143.85 781.92 145.87 781.74 147.96 782.19 153.41 781.47 156.58 781.04 157.14 779.19 159.54 779.13 160.69 779.1 161.16 778.19 164.46 777.92 164.86 776.19 167.36 773.92 169.58 773.19 171.13 774.01 174.36 774.45 175.22 776.74 179.75 778.2 184.13 778.29 189.52 779.38 193.22 782.29 197.26 785.29 200.56 786.11 202.79 786.21 205.48 791.85 209.65 794.75 212.35 795.03 213.43 794.43 214.55 793.67 215.99 793.57 218.14 793.03 218.68 790.85 219.02 790.39 219.49 793.03 221.51 792.67 222.59 790.57 223.13 790.03 223.46 790.67 224.47 791.03 226.02 791.07 228.15 791.12 230.87 790.76 236.33 791.03 240.03 793.31 245.49 793.4 248.18 792.49 250.88 790.67 252.7 788.95 253.7 784.58 256.27 780.67 260.98 778.49 265.76 778.39 267.14 778.13 270.68 775.49 278.16 775.61 279.9 775.68 280.85 775.18 281.67 774.77 282.33 773.93 282.82 772.31 283.75 770.95 285.16 770.04 287.25 770.31 289.47 773.5 298.63 775.95 302.74 776.4 304.25 776.59 304.9 775.41 309.21 774.95 315.14 771.86 322.01 772.23 325.85 772.23 329.62 770.5 334 771.78 334.94 773.14 338.04 773.05 338.51 773.96 340.8 774.33 345.31 774.96 346.79 774.78 348.71 774.69 349.69 775.6 353.59 775.55 354.3 775.51 354.88 775.59 355.17 775.87 356.29 776.6 357.57 777.15 359.25 777.06 360.94 776.51 361.81 776.88 363.09 777.51 364.1 777.06 368.55 777.17 368.77 779.15 372.79 779.24 374.61 778.88 376.29 777.51 377.37 774.61 381.68 773.61 384.51 773.24 387.34 772.43 387.81 771.52 389.3 767.7 393.34 765.97 395.9 764.47 397.01 764.06 397.31 763.98 397.33 763.34 397.45 763.5 398.81 763.7 400.54 762.48 402.46 760.7 405.26 759.61 410.99 760.61 415.57 760.52 422.64 760.07 424.45 758.8 425.13 758.25 426.48 758.71 429.24 757.91 432.19 756.53 437.25 757.08 440.15 756.89 441.29 750.9 449.18 750.64 449.45 749.35 450.79 748.08 451.6 745.81 454.23 743.35 455.64 742.17 456.05 739.35 455.17 737.71 455.17 732.35 459.01 729.81 459.82 728.72 460.5 724.99 466.22 723.99 467.16 723.36 468.65 717.36 474.37 716.09 475.85 714.9 478.48 713.54 479.49 710.45 482.46 709.18 483.13 707.36 484.74 707.2 485.18 706.82 486.23 707.36 487.31 707.34 487.66 707.09 492.09 707.46 493.37 707.27 500.24 706.67 503.41 706.37 504.95 706.2 505.2 705.55 506.17 705.73 508.93 703.73 512.09 703.1 514.59 698.65 517.28 698.19 519.23 698.65 519.84 698.37 521.39 697.46 522.06 696.01 524.02 695.01 524.89 694.65 525.57 694.92 526.58 695.56 526.71 697.28 525.1 700.19 524.35 701.6 524.61 702.01 524.69 704.57 526.16 706.1 527.05 709.83 528.46 712.92 530.89 714.65 531.83 716.29 533.31 721.38 540.58 721.65 542.54 720.74 544.89 722.29 547.32 725.38 550.22 725.38 550.24 725.47 553.58 726.17 555.42 726.84 557.15 728.02 558.43 728.11 559.44 727.38 561.66 728.11 562.67 728.66 564.43 730.2 566.04 730.57 567.12 731.57 572.98 732.47 573.92 732.57 576.21 731.29 577.22 731.39 580.25 730.21 583.62 731.93 584.7 730.84 587.46 731.75 588.54 731.81 589.37 731.84 589.95 732.21 590.56 731.84 591.43 731.03 591.77 728.39 595.34 726.3 598.85 723.39 602.21 721.03 606.39 719.85 607.26 715.31 609.09 708.4 612.99 705.53 613.67 704.4 613.94 702.68 614.25 701.4 614.48 698.49 615.28 692.86 615.69 691.95 616.7 690.86 617.17 688.86 617.04 685.86 618.45 684.5 618.59 683.23 618.92 680.68 618.92 677.77 618.45 675.68 618.52 673.14 619.06 672.41 619.4 671.41 621.48 669.41 622.23 666.23 621.22 665.6 620.75 663.96 620.48 660.6 624.32 660.33 625.73 665.14 625.39 666.96 626.47 667.28 626.94 667.42 627.14 666.96 627.55 666.91 627.71 666.69 628.36 664.87 630.51 664.42 630.85 662.78 630.78 661.42 630.38 659.51 629.17 659.33 628.83 658.33 628.9 657.24 630.38 654.87 629.7 654.31 629.38 654.06 629.23 653.43 627.7 653.15 627.01 652.51 626.61 650.87 626.41 648.51 626.54 647.51 626.88 646.97 627.42 647.51 627.89 648.78 627.75 651.51 628.43 651.97 628.83 651.51 629.44 649.96 629.97 648.6 631.12 648.33 632.74 647.69 633.21 644.6 632.13 641.42 631.32 640.93 631.06 640.42 630.79 640.08 630.69 638.7 630.31 637.15 630.18 630.33 627.35 628.52 626.34 622.24 623.78 620.52 623.45 617.97 623.31 613.06 621.83 611.25 620.75 610.25 619.61 609.7 617.59 605.05 613.62 604.33 613.01 603.33 611.46 603.33 609.51 599.69 607.69 598.15 608.5 597.33 609.44 595.42 609.78 593.06 609.31 585.34 609.38 582.25 608.84 581.19 608.57 580.16 608.3 579.34 607.63 578.79 606.28 579.7 603.99 581.79 601.63 585.06 599.14 586.79 598.67 587.88 597.45 590.24 595.77 591.37 595.63 594.96 595.16 596.42 595.61 597.6 595.97 599.05 596.65 600.06 597.42 601.42 598.46 604.34 598.86 605.87 599.07 608.97 600.42 610.06 600.89 611.05 601.56 612.05 602.23 612.29 602.56 612.78 603.24 614.06 604.12 614.69 604.86 616.24 605.74 617.33 605.46 618.87 605.67 625.24 608.63 629.96 609.91 631.69 609.84 636.33 611.79 637.69 612.67 638.87 613.95 640.33 614.01 640.96 613.34 641.08 613.35 643.78 613.47 646.14 612.93 652.69 613.2 655.96 613.67 659.05 613.88 659.96 613.54 659.35 613.06 658.5 612.39 657.25 611.96 655.41 611.32 646.05 610.65 642.41 611.12 635.42 610.24 625.6 606.74 620.6 604.79 617.96 602.43 616.23 599.67 614.14 598.06 611.14 596.84 596.42 594.56 595.43 594.19 594.24 593.75 593.05 592.6 591.87 591.46 590.78 590.18 588.6 589.1 587.3 588.65 585.69 588.09 584.88 587.7 583.33 586.95 583.24 586.14 581.6 585.33 580.05 584.26 570.14 579.41 567.14 577.99 566.32 576.92 563.6 574.96 559.33 573.62 559.69 575.17 564.51 577.32 565.96 577.93 570.24 581.63 572.38 582.16 575.15 582.84 580.42 586.01 580.96 586.68 580.51 587.22 579.28 586.43 579.15 586.35 576.24 585.4 575.15 584.86 573.51 585.13 571.51 585.06 571.69 584.06 570.82 584.06 570.6 584.06 568.33 583.11 566.69 582.78 562.78 583.59 561.15 583.79 559.69 582.98 559.23 582.01 558.42 580.29 557.06 578.94 555.15 578.47 553.6 576.38 552.8 574.13 552.14 572.27 552.42 570.86 553.05 570.93 555.23 571.8 556.14 571.6 555.87 570.93 552.51 569.78 550.87 570.05 549.14 569.72 548.95 569.73 547.78 569.78 546.96 570.32 546.76 570.75 546.42 571.47 546.39 572.03 546.33 573.42 546.03 573.52 544.06 574.16 542.24 577.06 539.6 578.81 536.51 578.07 531.79 574.3 530.79 572.89 530.65 572.01 530.51 571.07 529 569.29 528.96 569.25 529.78 568.71 530.03 568.82 531.6 569.52 540.78 570.39 544.42 569.65 545.96 569.72 546.22 569.48 546.33 569.38 546.23 568.91 544.51 568.44 542.84 567.28 541.78 566.55 540.78 566.96 540.14 567.9 538.69 568.18 538.42 568.24 537.5 567.92 536.87 567.7 532.78 566.62 530.87 565.07 529.87 563.66 529.42 562.11 529.51 560.29 531.78 556.38 531.87 555.04 531.23 552.61 529.56 550.92 526.23 547.56 525.56 547.34 524.23 546.89 520.86 547.09 519.96 547.43 517.96 547.43 513.59 549.11 509.05 548.71 505.41 549.92 504.14 550.19 502.05 550.06 499.32 545.55 496.59 545.62 493.14 546.02 489.51 546.17 488.05 546.23 486.15 546.66 480.69 547.91 479.05 547.44 477.42 547.31 476.32 547.58 472.15 549.94 470.97 551.08 470.42 550.81 469.69 551.75 466.7 553.64 465.79 551.82 463.88 553.78 461.24 554.59 460.55 554.64 457.97 554.86 455.02 555.89 452.97 556.61 448.88 560.38 448.97 560.58 449.25 561.19 449.88 561.19 451.79 559.91 452.79 558.63 455.15 556.81 463.51 555.6 465.51 554.85 466.42 556.13 465.97 557.41 463.15 561.32 462.34 562 460.79 563.94 459.98 564.96 459.78 565.08 458.61 565.77 453.43 566.92 448.25 568.8 446.25 569.34 445.02 569.23 444.8 569.21 442.89 569.61 440.89 570.49 439.8 571.37 439.26 572.51 439.71 573.72 438.8 574.93 438.17 575.2 436.99 577.29 435.08 578.57 434.35 580.39 433.72 580.9 433.26 581.27 432.94 581.74 432.54 582.35 432 582.79 431.72 583.02 432.08 584.1 433.08 583.56 435.17 581.4 436.81 580.33 438.5 580.24 439.44 580.19 440.34 580.34 441.81 580.59 446.26 581.6 447.77 582.52 448.81 583.15 449.17 588.4 450.17 590.15 451.36 591.16 451.49 592.17 451.63 593.18 449.72 595.47 449.36 599.04 448.55 601.61 447.91 604.23 447.09 605.65 446.28 606.46 443.73 607.4 440.73 608.14 440.2 608.21 438.64 608.41 437.55 609.02 437.77 610.01 438.19 611.98 436.92 613.87 437.15 615.89 437.56 619.53 438.01 620.67 441.38 621.75 441.38 622.35 440.83 623.09 441.04 624.2 441.29 625.52 441.93 626.06 440.56 627 440.29 628.08 441.2 629.9 441.2 630.75 441.2 631.18 440.75 632.12 431.3 634.88 429.94 637.11 428.85 636.97 428.3 636.64 427.21 636.43 425.75 636.57 424.48 636.91 424.49 638.26 424.21 638.66 422.49 639.2 421.49 639.06 421.59 640.06 421.76 641.69 420.4 642.16 418.13 644.99 416.22 644.99 413.4 645.73 411.77 644.25 410.95 644.19 410.49 643.38 410.28 642.14 410.22 641.76 408.4 641.69 407.04 641.02 404.13 641.9 403.72 641.5 403.58 641.36 403.11 639.88 402.76 638.8 402.54 638.51 402.4 638.33 401.04 638.67 400.77 640.48 401.04 644.93 401.59 646.75 399.5 646.95 395.86 646.95 394.13 644.93 393.77 643.65 392.95 642.64 392.13 644.06 391.04 644.26 389.95 643.65 389.43 642.81 388.68 641.57 388.65 641.33 388.59 640.69 387.68 640.76 386.95 642.11 385.59 642.71 384.75 643.3 383.95 643.86 383.5 643.66 382.86 642.65 382.32 642.24 381.23 642.65 380.41 643.39 379.54 643.66 379.32 643.73 377.41 642.92 376.5 642.11 374.14 642.31 372.87 642.52 371.87 643.06 371.8 643.25 371.69 643.59 370.87 643.86 368.78 643.86 365.96 645.75 364.78 646.29 362.96 646.09 362.42 645.75 360.69 646.23 358.87 645.89 358.48 645.96 356.24 646.36 353.88 647.85 353.79 648.12 353.51 649.06 353.6 649.8 354.69 649.93 357.88 649.12 358.07 649 358.6 648.65 361.94 648.83 362.42 648.85 365.6 648.31 367.05 648.78 367.59 648.7 369.6 648.38 370.78 647.37 371.42 646.22 374.5 645.82 374.91 645.65 375.96 645.21 377.41 645.34 379.68 646.49 381.77 647.09 384.32 647.43 389.68 647.29 391.41 648.5 392.05 649.38 391.96 650.25 392.32 650.73 394.32 651.13 396.79 651.12 396.77 651.13 393.14 652.88 391.23 650.99 389.59 650.66 385.78 651.13 383.69 650.8 382.69 649.38 381.78 649.72 381.32 650.53 378.51 651.61 377.6 651.54 377.69 650.19 377.4 650.19 375.42 650.13 373.19 649.58 372.96 649.52 370.6 649.32 370.24 650 368.24 650 368.05 650.05 367.05 650.33 365.42 651.61 364.15 651.95 360.88 651.88 357.33 652.89 356.7 653.77 353.5 653 353.06 652.9 352.96 652.9 349.79 652.83 349.61 652.16 349.97 651.62 352.15 650.94 352.88 650.27 352.64 649.04 352.42 647.91 352.78 646.77 351.78 643.2 351.33 642.73 350.51 642.79 349.69 643.87 349.24 646.63 348.87 647.27 347.97 648.79 346.35 649.99 345.97 650.27 345.81 650.36 344.88 650.88 343.97 650.75 342.15 651.28 341.52 652.36 339.52 653.64 338.07 653.44 337.16 654.12 335.79 656.27 332.62 657.96 326.35 660.32 323.53 661.87 322.8 663.21 322.67 664.1 322.53 664.97 319.09 669.91 317.09 672.78 316.74 673.5 316 675.01 311.73 677.23 310.82 678.04 310.64 679.18 312 681.2 314.01 683.76 312.92 686.32 312.74 687.8 311.01 690.7 310.56 691.64 311.1 693.23 311.29 693.8 310.65 695.96 310.11 697.3 308.75 698.51 308.29 701.28 307.39 701.88 306.83 705.19 306.48 707.27 306.74 708.71 306.85 709.29 306.91 709.35 307.48 709.9 315.67 711.71 318.76 712.99 320.67 714.54 327.48 718.11 332.48 722.21 334.76 723.49 339.03 726.99 340.94 728 341.76 728.81 342.4 729.15 344.94 732.11 347.03 733.09 348.4 733.73 348.4 737.7 349.4 739.31 351.22 741.47 353.13 741.47 354.13 742.21 355 744.82 355.86 747.4 355.5 748.81 356.86 749.62 359.13 750.36 361.04 751.43 364.68 755.2 367.59 757.36 371.95 759.58 373.04 760.73 374.13 761.63 375.41 762.68 375.83 763.15 376.86 764.29 382.59 764.96 383.13 766.45 386.86 766.31 388.04 766.91 389.68 767.05 391.04 767.66 391.08 767.76 391.31 768.33 392.37 768.83 392.58 768.93 396.4 769.61 396.55 770.13 396.68 770.55 397.86 771.83 400.22 771.83 401.58 771.42 402.13 772.43 403.75 773.16 404.67 773.58 407.31 774.32 408.4 774.79 409.13 774.38 410.13 774.38 410.31 774.85 411.67 775.6 414.04 775.93 415.49 776.34 416.49 777.34 418.13 777.08 422.85 777.48 424.67 777.95 427.3 779.23 428.3 779.43 428.76 778.01 429.76 777.88 430.39 778.28 429.94 779.09 430.03 779.97 431.12 780.84 430.48 781.85 433.94 783.87 435.85 784.34 436.71 784.27 439.12 784.07 440.03 783.74 443.21 785.28 447.21 786.23 448.39 786.7 450.39 787.03 451.04 787.03 452.84 787.03 454.12 787.5 455.75 788.71 458.21 791.54 459.48 792.49 460.3 793.9 458.93 795.11 458.93 795.79 461.57 796.12 462.03 797.54 463.12 798.34 465.66 798.21 468.75 799.82 470.93 801.37 471.16 801.75 471.39 802.11 471.75 803.53 471.66 805.01 473.93 806.42 475.03 808.58 475.84 808.44 476.66 807.7 477.04 807.84 477.57 808.04 477.12 810.19 476.66 810.8 475.3 810.67 474.21 811.34 474.21 812.49 473.99 812.65 473.85 812.76 475.12 813.23 477.12 813.43 478.48 813.29 479.66 811.88 480.39 810.46 481.48 809.99 481.84 809.39 481.92 808.51 481.93 808.38 484.48 807.5 485.84 806.49 486.75 806.29 489.75 806.22 492.11 807.16 494.47 807.63 495.83 808.37 495.93 809.52 495.65 810.19 495.93 810.59 497.74 810.53 498.5 811.03 500.56 812.41 500.73 812.75 501.01 813.29 499.93 815.91 503.11 814.9 504.24 815.46 504.47 815.58 504.88 817.09 505.56 819.62 505.65 820.63 504.93 821.44 503.56 822.31 501.57 822.98 501.84 823.59 504.25 824.07 504.57 824.13 505.84 823.73 506.5 821.48 506.93 820.02 507.47 819.14 508.83 819.88 511.11 820.08 512.65 820.02 514.56 820.49 516.1 821.3 516.2 821.4 517.1 822.37 518.38 822.71 520.83 820.82 522.19 820.76 524.19 821.09 528.01 822.57 529.37 823.52 529.49 823.77 529.92 824.66 527.74 827.62 527.01 829.51 526.47 832.41 526.46 832.42 526.01 833.42 522.65 835.3 522.08 835.4 521.47 835.51 520.96 835.34 520.02 835.04 519.47 837.53 518.57 838.27 517.48 838.54 515.11 838.47 514.29 838.07 514.66 837.4 515.93 836.99 515.93 836.18 514.29 836.52 512.93 836.52 511.75 838 511.21 839.15 512.66 839.68 512.86 840.01 513.02 840.29 513.02 841.37 514.12 841.91 515.11 843.19 516.3 843.66 517.84 842.24 519.47 840.02 521.11 838.54 522.29 838 526.02 837.19 527.47 837.93 528.65 838.94 529.95 839.5 530.38 839.68 531.65 840.62 531.25 840.77 530.38 841.1 529.84 841.77 530.92 842.85 532.38 843.79 532.38 844.43 532.38 844.8 531.79 846.57 531.47 847.49 531.44 847.9 531.38 848.57 531.93 850.32 531.84 851.26 533.75 851.74 533.57 852.41 534.38 854.7 535.75 854.77 537.74 853.76 537.74 852.9 537.74 852.54 538.11 851.4 539.38 850.66 541.47 850.25 543.38 850.52 545.19 850.99 546.92 851.73 547.56 852.54 547.92 853.96 547.41 854.06 546.65 854.23 545.29 855.3 544.2 857.39 542.75 859.35 544.2 861.5 544.17 862.01 544.11 862.98 543.82 863.52 543.75 863.66 549.65 864.26 549.94 865.15 550.02 865.58 550.04 865.73 550.21 866.57 551.11 867.6 552.39 869.06 553.94 871.15 554.05 871.49 554.3 872.22 554.21 874.11 555.94 876.26 556.66 876.73 557.03 877.75 556.85 878.42 556.3 879.03 556.32 879.15 556.67 881.58 556.94 882.46 557.24 882.71 557.67 883.07 557.85 883.87 557.03 885.56 557.58 886.23 558.94 886.77 559.76 887.38 559.31 888.12 559.34 888.24 559.76 889.67 560.4 890.54 559.85 892.02 559.85 892.76 559.85 894.11 560.67 895.52 562.4 896.74 563.4 900.44 563.77 902.73 563.31 904.62 562.5 906.23 562.22 907.45 562.68 908.39 562.42 910.52 562.32 911.35 562.27 911.47 562.05 912.03 562.05 912.73 562.05 914.12 559.78 919.44 559.75 919.81 559.69 920.65 560.51 922.07 561.6 923.48 562.23 923.88 562.96 926.37 565.87 930.41 568.15 932.64 570.06 936.07 570.2 936.57 570.69 938.23 571.87 939.44 572.6 939.78 573.24 940.99 573.88 949.27 573.06 951.63 573.06 951.8 573.06 952.84 574.06 954.32 575.7 955.53 576.52 957.29 577.07 963.01 576.66 963.47 576.25 963.95 575.89 965.57 576.7 968 576.75 969.11 576.8 970.22 578.34 973.05 578.43 974.73 578.07 977.09 579.34 979.18 580.21 980.05 580.62 980.46 580.62 980.46 581.53 982.48 581.7 984.29 581.8 985.37 584.44 987.12 584.7 988.12 585.07 989.55 584.53 990.96 583.89 991.77 584.35 994.13 584.48 994.35 584.8 994.87 584.63 995.99 584.53 996.62 585.35 997.09 585.8 997.63 585.07 998.34 584.26 999.11 584.08 1001.74 584.72 1003.22 584.72 1004.03 584.08 1005.11 580.27 1007.26 579 1007.74 577.09 1009.69 574.09 1011.64 570.37 1013.13 570.37 1013.32 570.37 1013.6 570.48 1014.18 570.55 1014.54 570.65 1014.59 571.1 1014.81 570.67 1015.18 570.55 1015.28 569.88 1015.51 567.83 1016.22 565.1 1017.5 563.83 1019.82 562.65 1021.95 562.83 1022.42 562.56 1023.57 561.93 1024.24 560.66 1024.71 559.57 1026.26 556.84 1026.67 555.12 1027.34 553.93 1028.22 553.21 1030.78 553.07 1030.82 552.21 1031.05 551.42 1030.94 551.21 1030.91 550.29 1030.05 549.85 1029.63 549.3 1028.69 548.6 1028.39 547.76 1028.02 545.76 1028.09 540.95 1029.23 538.13 1030.51 536.41 1032.27 535.59 1032.74 533.68 1032 533.4 1031.74 533.32 1031.66 532.5 1031.46 530.87 1033.14 529.41 1033.89 528.41 1033.41 525.78 1032.81 523.33 1030.79 522.6 1030.99 522.24 1031.8 523.51 1035.17 523.42 1036.24 523.29 1036.23 522.6 1036.18 522.24 1035.98 519.33 1036.72 517.7 1036.45 516.97 1035.57 516.57 1035.48 516.06 1035.37 516.02 1035.49 515.88 1035.91 515.06 1036.38 515.82 1036.98 516.7 1037.66 517.06 1038.2 517.94 1038.28 521.42 1038.6 522.12 1039.12 522.6 1039.48 524.33 1042.24 524.15 1042.78 524.42 1043.45 523.97 1044.12 522.73 1044.13 522.7 1044.13 522.06 1043.56 521.79 1043.32 520.52 1042.71 518.97 1042.85 517.34 1043.39 516.61 1044.46 516.34 1045.61 516.89 1046.69 517.44 1046.91 518.52 1047.36 518.54 1047.43 518.79 1048.44 518.63 1048.79 517.89 1050.46 517.81 1050.87 517.71 1051.4 518.25 1052.48 518.98 1053.29 518.93 1054.7 518.92 1055.16 518.89 1056.11 518.79 1057.15 518.71 1058 522.61 1057.93 523.89 1057.46 524.1 1057.76 524.7 1058.61 524.25 1059.21 522.98 1059.89 518.62 1061.1 519.44 1063.25 518.9 1064.74 517.99 1065.28 518.08 1065.43 518.26 1065.75 519.9 1065.95 521.08 1065.68 521.98 1064.74 523.44 1064.47 524.28 1064.69 524.44 1064.74 525.43 1064.4 527.07 1062.11 528.34 1061.1 529.98 1060.82 530.43 1062.04 530.43 1063.12 529.52 1064.53 527.16 1066.42 526.98 1068.84 526.95 1069.03 526.8 1069.78 524.53 1071.13 521.53 1071.81 518.72 1073.02 516.36 1073.29 515.45 1073.7 515.45 1074.57 516.54 1075.18 517.18 1075.99 518 1079.69 517.36 1080.97 516.84 1080.71 516.54 1080.57 514.99 1078.27 514.72 1077.87 513.63 1076.86 512.82 1077.13 512.36 1078.28 514.27 1082.93 515.46 1084.81 515.55 1085.95 514.64 1088.85 514.28 1089.21 513.01 1090.47 511.55 1091.61 511.46 1092.9 511.64 1093.1 512.1 1093.63 511.83 1094.38 512.01 1096.4 511.19 1098.62 511.47 1099.63 512.01 1100.44 513.01 1100.71 514.1 1100.37 522.37 1095.31 526.81 1092.55 529.81 1091.74 533.44 1091.47 533.9 1091.61 534.26 1091.94 531.18 1092.48 529.08 1093.09 527.81 1094.03 526.63 1094.37 524.64 1095.85 522.46 1097.13 519.73 1099.56 516.28 1101.65 513.29 1104.95 512.2 1105.83 509.93 1109.06 510.02 1110.07 508.12 1113.71 507.66 1115.53 507.11 1116.24 506.67 1116.81 506.74 1117.3 506.85 1117.95 505.67 1120.31 505.59 1120.62 505.31 1121.79 503.94 1123.14 504.13 1125.97 503.98 1127.54 503.68 1130.62 503.68 1132.1 503.46 1132.64 502.32 1135.46 499.05 1138.7 494.33 1141.4 485.52 1142.14 484.43 1142.75 484.15 1143.86 483.89 1144.9 482.25 1147.93 481.44 1148.74 480.71 1150.96 479.08 1152.92 478.63 1154.74 480.17 1155.21 482.17 1152.72 484.7 1147.06 485.98 1146.25 487.79 1146.45 488.16 1148.34 486.61 1151.84 486.43 1153.05 487.52 1154.06 484.44 1158.31 481.99 1159.38 480.99 1159.38 480.35 1159.59 480.35 1161.14 479.36 1162.82 476.36 1164.03 468.82 1166.33 466.92 1166.66 465.46 1166.53 465.1 1165.86 464.82 1165.65 464.46 1165.38 464.07 1165.24 463.56 1165.05 462.29 1167.14 461.92 1168.35 462.19 1168.82 461.83 1169.97 459.02 1169.76 458.29 1170.64 457.72 1170.77 457.38 1170.84 456.47 1170.51 455.66 1170.57 454.66 1172.53 451.03 1173 449.76 1172.6 448.85 1171.12 450.84 1169.36 450.39 1169.03 449.39 1169.23 448.21 1169.03 447.03 1168.49 446.73 1168.14 446.57 1167.95 447.03 1166.4 447.39 1166.06 448.75 1165.73 451.84 1166.74 453.29 1167 455.2 1166.27 455.93 1166 456.14 1165.71 456.38 1165.39 456.38 1164.71 455.61 1164.52 455.02 1164.38 448.11 1164.78 445.3 1165.66 443.61 1164.91 441.67 1164.05 438.58 1163.37 437.3 1163.17 435.21 1161.62 435.31 1160.68 433.94 1159.67 432.31 1159.33 427.4 1160.21 425.59 1160.75 421.77 1160.35 419.77 1160.35 417.14 1161.09 414.05 1161.57 409.42 1162.78 405.97 1163.05 404.88 1162.92 403.52 1162.31 402.16 1162.24 401.84 1162.29 400.7 1162.45 399.61 1162.31 397.34 1161.1 394.8 1160.83 394.09 1160.52 392.53 1159.82 390.68 1159.48 388.53 1159.08 384.81 1157.94 383.99 1157.33 383.53 1157 383.26 1153.56 380.99 1152.89 379.35 1151.95 380.17 1148.92 380.8 1148.17 379.98 1146.29 379.62 1146.96 377.71 1147.84 373.9 1147.03 371.17 1145.75 370.72 1145.22 371.62 1141.85 368.45 1140.5 367.17 1140.64 366.9 1140.03 367.17 1139.29 366.99 1138.48 366.34 1138.05 365.99 1137.81 364.72 1137.4 363.9 1136.8 363.63 1136.6 363.41 1136.31 362.81 1135.52 356.81 1129.73 345.45 1119.43 343.82 1118.89 342.82 1117.74 339.64 1115.32 338.36 1112.63 335.54 1110.4 333.27 1109.53 326.92 1108.79 325.37 1109.13 321.65 1108.87 320.01 1108.33 314.02 1106.85 313.84 1104.22 313.2 1103.35 312.2 1102.47 310.11 1101.46 310.1 1101.46 309.02 1101.53 309.29 1099.91 305.02 1098.84 305.39 1098.17 304.2 1096.89 302.93 1096.35 301.93 1094.46 303.81 1093.64 304.1 1093.52 304.11 1093.51 303.56 1092.57 301.93 1092.3 299.38 1090.96 298.57 1089.88 298.29 1088.8 298.56 1088.26 298.29 1087.39 297.11 1087.72 296.11 1087.05 296.11 1086.04 297.02 1084.76 295.93 1084.42 294.38 1084.76 293.38 1084.69 292.02 1083.08 292.11 1080.52 291.56 1079.04 293.19 1078.43 293.19 1078.43 293.74 1077.49 290.2 1077.29 289.65 1075.6 288.83 1074.53 289.47 1073.31 289.38 1072.64 287.65 1072.71 286.92 1072.3 286.38 1071.02 283.47 1070.96 282.38 1070.62 280.74 1069.01 278.74 1067.59 275.47 1063.28 272.38 1061.94 271.47 1061.2 271.2 1059.92 272.29 1059.58 275.1 1061.06 276.38 1062.27 277.73 1062.54 277.74 1062.54 277.83 1061.93 274.56 1059.58 273.83 1058.57 271.47 1057.7 271.19 1055.61 270.56 1053.32 268.92 1053.66 268.38 1053.18 266.37 1049.62 264.92 1048.27 262.56 1047.87 262.55 1047.87 262.11 1048.67 262.1 1048.68 261.1 1048.95 260.56 1048.68 259.65 1047.39 259.74 1046.92 260.46 1045.24 259.83 1043.62 260.92 1042.21 260.82 1041.27 260.1 1041.13 259.55 1040.12 261.18 1038.51 261.18 1038.5 263.55 1038.91 264.63 1038.64 266.18 1038.84 269.18 1040.93 271.26 1040.59 271.27 1040.59 271.45 1039.91 270.54 1039.11 268.36 1038.9 265.81 1036.08 266.45 1035 267.98 1034.19 267.99 1034.19 269.17 1029.2 268.07 1026.11 267.26 1025.43 265.26 1024.42 263.17 1022.67 262.98 1021.73 263.53 1019.17 262.53 1018.3 260.89 1017.83 257.89 1018.03 257.98 1016.75 257.43 1016.01 255.8 1015.94 255.8 1015.95 254.08 1018.84 254.07 1018.84 252.53 1018.91 252.53 1018.91 251.72 1019.45 248.99 1020.53 247.36 1020.05 246.81 1019.05 246.99 1017.77 243.08 1016.96 240.54 1014.6 239.36 1014.54 237.99 1013.86 235.17 1010.5 234.9 1009.76 233.63 1008.55 233.36 1007.74 231.54 1005.92 232.81 1003.29 229.17 1002.76 228.72 1002.96 228.72 1002.96 228.36 1004.04 228.35 1004.04 227.45 1004.64 222.09 1003.37 222.36 1001.21 219.27 999.46 218.9 997.37 217.72 996.84 215.72 996.23 213.99 995.09 211.54 994.08 209.72 992.6 209.44 991.72 207.72 991.11 206.63 990.58 206.35 989.9 204.36 988.69 202.81 988.49 201.45 988.02 200.9 985.66 198.17 984.32 197.72 983.64 194.72 982.23 194.08 981.42 194.35 979.87 193.44 977.72 192.17 978.06 192.17 978.06 191.99 978.73 190.9 979 190.35 978.39 190.17 977.52 188.44 977.12 187.26 977.52 186.17 977.05 183.54 975.3 182.72 973.21 180.72 972.54 178.63 971.33 178.63 970.46 178.63 970.45 179.62 970.05 179.35 967.35 177.17 967.15 176.44 966.48 175.44 967.56 175.44 967.56 175.35 968.37 175.63 969.31 175.44 969.78 174.9 969.71 173.45 968.23 169.99 965.54 168.35 964.8 167.99 963.73 168.17 962.38 168.17 962.38 167.35 961.37 164.8 959.62 163.89 957.46 162.53 956.79 160.71 956.39 159.62 955.58 159.4 954.75 159.35 954.57 159.71 953.63 159.53 952.89 158.98 952.49 158.16 952.76 157.08 954.1 157 954.09 156.62 954.04 156.53 953.64 154.8 952.43 153.44 952.29 152.98 951.89 152.89 951.15 153.26 950.75 153.25 950.33 153.25 949.81 151.62 950.01 150.44 949.34 147.99 949.68 147.53 949.42 147.44 947.4 146.98 945.72 138.26 942.98 137.95 942.71 137.51 942.31 136.56 941.9 135.86 940.32 135.84 940.28 136.73 936.66 136.75 936.58 136.02 935.51 134.11 934.63 133.39 933.56 132.66 933.49 131.39 933.83 130.75 933.36 130.67 931.75 129.58 931.21 128.85 929.6 125.4 927.4 123.22 926.86 121.49 925.59 119.41 923.24 117.95 922.78 115.77 922.84 112.87 920.9 110.87 920.23 110.41 919.76 108.23 919.63 107.32 918.68 102.78 918.08 101.69 917.27 100.33 916.93 98.52 914.98 94.16 912.36 91.62 911.21 89.43 911.01 86.62 909.86 85.21 908.55 85.17 908.51 84.84 906.07 84.81 905.82 83.65 904.7 82.44 903.53 81.97 902.73 81.81 902.45 80.36 902.04 78.18 902.11 77.96 901.99 77.54 901.77 77.09 901.05 76.91 900.76 75.27 899.55 71.62 899.26 70.19 899.14 69.47 898.66 69.09 898.4 68.93 897.92 68.91 897.86 69.28 897.39 68.07 896.53 66.46 895.37 64.65 893.62 64.31 891.94 64.1 890.92 62.83 889.44 60.11 887.42 57.84 884.66 56.93 881.42 57.35 879.46 57.39 879.27 58.57 877.86 59.03 876.71 56.21 872.26 56.4 871.72 57.76 870.99 58.08 870.32 58.49 869.5 59.22 869.23 60.4 869.7 61.12 869.98 61.57 869.96 62.58 869.91 63.67 869.17 64.03 868.09 65.39 867.69 65.5 867.71 67.57 868.09 68.76 867.29 70.12 867.02 72.21 867.62 73.57 867.56 74.3 867.22 75.02 866.28 74.93 865.71 74.24 863.58 74.21 863.47 74.93 861.79 74.94 860.58 73.76 859.09 73.76 858.68 73.76 858.15 75.76 856.47 74.94 854.31 73.76 853.3 73.22 853.23 73.12 855.32 72.58 855.79 71.67 855.72 71.49 854.92 68.67 853.77 67.22 853.63 66.58 852.83 66.35 853.06 65.85 853.56 65.94 855.25 66.4 856.19 66.94 859.76 66.73 860.4 66.58 860.84 66.26 861.11 65.85 861.44 65.03 861.18 64.22 857.88 62.31 856.06 60.95 855.72 60.13 855.92 59.67 856.73 59.21 856.99 58.86 857.2 58.63 857.15 57.49 856.86 57.05 855.94 56.59 854.98 56.22 854.62 55.13 853.56 55.32 853.16 60.77 852.62 62.59 851.75 65.86 850.67 66.68 848.85 64.86 847.1 64.2 846.72 63.68 846.43 60.14 845.82 58.69 845.95 58.69 844.75 58.69 844.67 57.51 843.73 53.78 844.6 52.51 844.27 52.3 844.09 51.87 843.73 51.69 842.78 52.6 840.02 52.51 838.2 49.97 837.93 49.06 838.67 49.06 839.68 48.24 840.89 47.15 841.57 45.61 842.17 45.69 842.71 46.33 843.94 46.96 845.14 46.87 846.55 44.96 847.63 46.05 848.97 47.32 849.78 47.87 850.12 48.05 850.58 48.14 850.8 48.11 850.96 48.05 851.34 48.29 852.11 48.41 852.48 48.22 852.93 47.96 853.56 47.39 854.11 47.14 854.37 46.32 854.57 45.59 854.16 44.41 854.16 43.23 853.69 42.32 854.5 43.23 855.74 43.59 856.25 42.32 857.13 40.14 857.53 39.5 858.81 38.32 859.28 35.5 858.6 33.87 859.14 30.14 860.82 27.42 861.56 26.6 862.37 27.16 862.9 28.23 863.92 28.5 864.59 28.05 864.93 26.14 864.93 22.05 864.39 17.24 864.86 16.5 864.7 14.51 864.25 13.96 863.8 13.69 863.58 13.7 862.57 14.33 861.56 15.33 861.15 17.42 860.89 17.46 860.54 17.51 860.01 17.06 859.4 13.88 857.65 12.88 856.64 12.7 855.49 13.61 853.81 14.88 853.07 16.43 853 17.34 853.34 20.06 854.08 20.43 853.34 21.34 852.94 21.95 853.09 22.15 853.14 23.42 852.81 24.79 852.81 26.79 853.35 30.17 852.28 31.06 852 31.02 851.79 30.97 851.53 27.52 849.78 25.97 848.02 25.46 847.2 25.43 847.15 23.43 846.14 22.55 845.33 22.25 845.06 20.68 842.91 20.53 842.7 19.89 840.54 17.26 839.94 14.71 839.94 13.26 839.4 11.81 838.39 10.54 836.7 9.17 834.39 8.9 833.94 5.54 833.26 5.36 832.59 6.54 830.97 5.91 830.37 4.73 830.3 3.09 830.97 1 830.77 1 829.42 1.18 828.88 4.36 827.47 5.27 826.53 7.82 822.62 8.55 820.13 9.37 819.32 10.82 818.85 12.28 818.65 12.37 816.77 12.61 816.68 13.1 816.5 14.82 816.3 15.64 815.55 15.82 814.75 16.73 813.74 17.73 813.13 18.28 812.26 17.1 811.85 16.46 811.04 16.62 810.55 16.83 809.9 17.65 809.02 19.15 808.5 19.37 808.42 20.11 807.5 20.19 807.41 24.64 806.13 24 804.7 23.83 804.31 24.28 803.77 25.92 802.83 27.19 801.89 30.37 800.27 31.37 800.07 31.92 799.6 31.92 798.66 31.19 796.43 32.56 796.3 33.92 796.64 34.83 796.43 35.37 795.96 35.65 794.68 38.92 794.21 39.65 793.94 39.65 793.2 39.56 790.71 40.47 789.97 41.2 788.83 40.38 787.68 40.2 786.27 40.84 783.37 40.93 780.68 40.29 779.87 40.16 779.24 40.02 778.66 41.48 776.43 40.75 775.96 36.94 775.42 36.94 774.61 37.75 774.07 40.66 774.14 41.12 772.53 39.85 771.18 40.03 770.64 44.57 770.84 45.03 771.11 45.03 772.12 44.03 773.61 44.66 774.89 45.48 774.75 47.02 773.14 47.84 771.45 47.66 770.44 44.85 769.63 40.58 769.16 39.4 768.75 39.4 768.49 39.4 767.68 40.03 767.21 41.94 767 43.67 767.41 44.39 766.74 43.88 765.94 42.85 764.38 41.85 764.65 41.58 765.39 40.49 766.13 38.85 766.26 37.58 766.13 36.4 764.37 36.12 763.31 35.77 761.95 35.54 761.64 35.13 761.07 37.59 758.65 36.95 758.04 36.69 757.26 36.59 756.97 36.95 756.02 37.68 755.55 38.59 755.42 39.95 756.5 40.77 756.36 41.5 754.95 41.95 754.54 43.41 754.48 43.59 754.07 44.32 754.34 45 753.84 45.22 753.67 44.68 752.73 43.77 751.65 43.53 751.56 42.86 751.31 42.23 748.21 40.57 747.6 39.14 747.07 39.32 745.58 39.09 744.94 38.96 744.57 36.6 744.17 37.78 742.22 37.6 739.59 36.79 737.84 36.88 736.76 37.7 735.68 36.61 734.74 35.52 734.4 32.52 734.33 31.15 733.59 29.97 734.2 29.31 733.87 29.16 733.79 28.98 732.98 29.61 732.24 30.77 731.55 31.07 731.37 31.11 730.03 31.16 728.61 30.91 726.91 30.71 725.51 30.17 725.07 29.71 724.7 29.44 723.49 29.19 723.08 28.53 722.01 27.26 723.02 24.44 723.62 23.53 723.08 21.26 722.61 20.72 721.87 18.81 720.86 17.9 720.99 16.72 720.11 15.54 720.38 15.36 720.35 14.81 720.25 14.97 719.7 15.17 718.97 16.36 716.88 14.9 715.67 14.9 715.26 16.72 713.65 16.72 712.03 18.18 712.1 19 711.83 18.91 709.41 19.54 709.34 20 709.81 20.91 710.22 21.9 710.35 22.82 710.75 25.18 710.96 24.99 710.01 24.91 709.54 28.09 709.27 29.18 708.74 30.18 709.55 30.08 710.35 30.54 711.43 32.45 711.77 33.72 711.37 34.26 710.56 33.17 708.61 32.35 705.98 32.18 705.44 31.27 704.7 29.36 704.56 28.97 704.31 28.73 704.16 28.6 703.73 28.36 702.95 28.49 702.7 28.64 702.41 31.09 701.8 31.46 700.12 33.36 700.18 34.55 700.59 35.25 700.55 35.73 700.52 36.45 700.05 36.73 697.49 36.59 696.6 36.46 695.74 35.46 696.08 33.73 695.4 31.64 695 31.46 696.35 31 697.29 30 697.62 28.46 696.81 27.7 695.88 27.64 695.8 27.82 694.39 28.64 693.58 30.1 693.04 31.74 692.71 33.73 692.71 33.94 692.73 35.64 692.91 36.73 692.82 37.19 692.78 41.37 692.11 41.7 692.49 42 692.85 41.95 693.35 41.91 693.72 42.82 694.06 43.73 693.79 46.55 693.86 46.28 692.71 44.82 691.97 45.73 691.17 47 691.37 47.45 691.6 47.64 691.71 48.09 692.65 49.27 693.86 50.45 694.06 52.27 695.01 53.45 695.28 53.77 695.41 56.99 696.76 56.99 697.16 56.36 698.17 54.08 699.45 54.27 701.07 54.72 701.47 55.26 701.41 57.08 700.46 57.99 700.67 57.9 701.01 58.9 702.02 58.79 702.68 58.72 703.09 58.82 703.94 58.9 704.51 59.9 705.32 59.53 705.85 57.53 706.06 57.41 706.01 56.99 705.85 55.72 704.3 53.63 704.37 53.53 705.25 54.53 706.86 58.35 710.03 59.07 710.1 60.17 709.36 61.07 709.02 61.66 709.28 61.98 709.43 62.07 709.96 60.8 712.46 61.61 712.65 62.61 712.32 63.07 710.9 66.07 710.9 66.34 709.55 65.98 708.95 63.8 708.41 63.8 707.94 64.34 707.67 64.98 706.86 65.35 704.17 65.12 703.55 64.8 702.69 64.8 702.68 64 702.51 63.9 702.49 62.9 701.75 62.75 701.42 62.63 701.14 63.44 699.59 64.44 698.99 64.99 698.05 65.45 695.22 66.99 691.72 67 690.5 65.45 689.56 65.45 687.81 65.91 687.54 66.54 687.54 67.55 686.93 68 686.19 67.8 685.87 67.36 685.18 65.37 684.04 65.46 682.01 66.28 681.74 76.18 680.86 77.92 679.97 82 677.9 84.27 677.84 85.91 677.44 87.36 676.09 89.09 677.15 90.08 678.61 90.09 678.63 89.19 680.15 89.18 680.17 89.72 680.85 90 681.58 90.99 682.12 91.63 682.06 93.63 680.84 94.09 679.76 95.36 679.36 96.72 679.29 97.72 679.56 99.36 679.35 101.09 679.68 102.36 680.15 103.08 680.82 103.17 681.1 103.99 683.72 105.35 683.85 106.54 683.45 109.63 683.25 110.63 682.44 111.72 682.11 113.17 681.97 113.9 680.96 113.9 678.47 113.9 678.27 114.45 677.59 115.63 677.32 116.54 676.65 116.26 675.91 113.81 675.37 113.63 674.7 114.54 672.2 114.73 670.93 117.27 670.46 120.36 670.86 120.5 670.85 121.81 670.73 122.63 670.19 122.82 669.04 121.91 668.5 120.3 668.5 119.73 668.5 118.36 667.56 117.54 667.83 116.54 667.76 115.46 667.43 112.91 665.81 109.92 662.44 109.74 661.23 110.74 658.41 110.74 658.4 110.77 658.03 110.83 657.26 110.19 656.73 110.19 656.71 110.29 655.85 110.83 654.84 111.2 652.68 110.47 652.08 106.38 647.37 105.84 645.48 104.93 645.15 104.12 644.61 103.84 643.13 103.85 643.13 106.94 639.83 106.94 637.07 107.76 636.73 109.94 635.58 111.03 632.94 112.76 631.13 114.13 628.7 114.95 628.76 115.61 628.64 116.76 628.42 117.58 628.76 118.31 627.82 118.23 627.28 118.22 627.21 118.68 626.13 122.86 623.36 124.95 623.63 126.04 622.89 126.59 622.89 127.76 622.96 128.86 622.15 130.22 618.91 131.32 617.89 132.32 617.62 133.22 617.08 134.13 615.2 134.13 615.19 133.95 614.04 133.06 612.24 133.05 612.21 133.95 610.28 133.96 610.25 133.78 609.64 131.6 608.83 130.97 607.76 130.96 607.75 131.05 606.81 131.05 606.74 130.69 606.26 129.14 605.79 128.82 605.49 128.78 605.46 129.24 604.85 129.97 604.51 130.46 603.83 130.51 603.76 130.06 603.56 129.64 602.94 129.6 602.89 130.88 601.67 131.13 600.49 131.15 600.39 129.78 601.07 128.78 600.95 128.62 600.26 128.61 600.21 132.97 594.39 133.7 592.43 134.52 591.89 135.16 591.82 135.97 591.22 135.98 591.21 135.81 589.63 135.8 589.53 137.07 588.45 137.5 588.38 138.44 588.46 139.15 588.52 139.79 589.53 140.51 589.53 140.97 589.12 142.06 586.43 148.14 579.27 148.14 578.2 150.23 577.45 151.13 575.83 152.95 574.95 153.86 573.39 155.95 572.71 158.85 570.07 161.21 567.16 161.76 565.46 161.75 565.44 161.48 563.84 161.49 563.83 163.75 562.41 164.75 559.71 164.75 559.71 163.84 558.29 163.84 558.29 165.02 556.27 166.56 554.99 169.65 553.37 170.65 552.49 170.65 550.87 172.01 548.92 172.18 548.24 172.55 546.76 175.1 545.75 175.37 544.13 175.29 541.08 175.28 540.36 175.28 540.36 175.91 539.42 176.55 539.08 178 539.15 178.73 538.87 178.55 536.72 178.82 536.18 181.9 534.7 184.09 534.16 184.54 535.17 185.27 535.24 186.73 536.65 187.36 536.85 188 536.45 187.54 533.22 189.72 530.19 191.99 527.89 196.17 525.2 197.8 522.03 199.16 520.68 201.25 520.28 201.52 519.74 201.16 518.66 202.07 517.72 201.43 515.63 201.13 515.34 200.52 514.75 195.97 512.67 195.65 511.25 195.24 509.44 194.88 508.9 194.96 508.43 194.97 508.36 196.06 507.55 197.15 506.14 198.24 502.36 198.6 502.16 199.51 501.76 201.32 499.26 201.23 497.11 201.59 496.57 202.87 496.16 203.86 494.61 203.95 492.93 203.41 490.84 204.4 489.22 205.68 488.23 206.04 487.95 206.25 487.45 206.49 486.87 206.4 485.66 208.49 483.36 208.49 482.42 208.49 482.29 206.49 480.54 206.21 480.06 207.12 478.58 209.75 476.49 211.03 472.12 211.75 467.27 211.38 465.11 211.47 464.64 212.56 463.83 214.92 459.05 218.28 455.81 219.64 455.21 221.1 455.14 221.73 454.8 222.1 453.72 223.91 452.78 224.91 450.62 225.18 448.47 226.36 447.12 226.91 446.85 227.87 445.47 228.09 445.16 231.09 443.48 235.99 442.13 238.99 440.64 239.71 439.76 239.81 439.64 239.54 439.1 235.9 436.88 235.44 435.93 235.53 433.37 235.62 431.02 237.16 425.76 237.71 424.68 241.16 422.19 241.98 420.64 247.79 416.59 249.97 413.57 250.87 410.33 252.24 407.1 253.32 406.36 254.78 404.33 256.87 402.51 261.05 401.23 261.86 400.29 262.32 398.61 265.5 396.38 267.5 395.57 268.86 394.22 269.5 393.15 271.31 392.34 271.13 390.25 271.95 389.3 275.22 387.82 281.21 382.37 281.03 380.21 279.21 372.26 279.53 370.61 279.84 369.03 286.37 356.63 288.28 350.23 292.09 347.2 292.46 344.51 291.82 343.5 293.89 325.11 292.8 323.02 288.43 318.24 288.09 317.7 287.16 316.22 284.25 314.47 281.09 311.8 281.06 311.78 275.06 307.94 273.69 306.6 272.87 303.36 269.05 299.79 268.23 297.57 268.68 295.48 268.55 295.05 268.5 294.88 266.13 293.26 265.31 291.71 265.13 289.02 266.04 285.85 265.67 284.17 264.91 282.81 263.67 280.6 263.48 277.91 265.03 274.07 266.36 271.47 266.93 270.36 267.57 267.67 266.11 265.19 266.02 265.04 265.84 263.09 268.65 260.39 270.38 259.18 272.38 258.37 273.2 258.33 273.83 258.3 275.01 257.63 275.47 256.62 275.19 253.85 276.12 251.84 276.64 250.69 277.18 243.41 278.45 236.81 280.35 231.89 282.9 227.72 285.79 224.65 288.17 222.12 290.62 220.64 290.62 219.03 295.71 213.7 297.43 212.69 297.98 210.54 299.61 208.45 298.18 205.98 297.15 204.21 295.7 202.29 293.88 199.9 292.8 197.7 292.78 197.67 292.78 195.52 289.05 190.81 287.05 187.78 281.68 183.4 279.13 182.12 275.4 181.58 275.04 182.06 275.04 182.3 275.04 182.59 276.11 183.48 276.49 183.81 283.14 186.63 283.24 186.74 283.59 187.1 283.32 187.64 281.95 187.84 276.32 186.7 274.4 185.76 272.95 183.07 272.4 181.34 271.58 178.76 271.03 174.45 273.57 168.99 276.31 165.62 279.48 161.71 279.97 160.47 280.75 158.55 283.29 157.33 283.84 156.32 283.74 154.17 284.56 152.55 284.47 150.46 287.67 146.7 289.74 144.26 290.42 143.1 293 138.67 290.55 135.84 292.72 128.36 294.99 126.81 295.9 125.27 296.81 122.5 296.26 120.35 295.96 119.71 295.53 118.8 296.81 116.37 297.44 113.68 296.71 104.45 295.52 100.68 294.15 98.73 294.06 96.64 294.4 96.11 295.33 94.62 295.42 89.23 295.04 87.57 294.78 86.4 293.51 84.32 291.94 83.25 291.14 82.7 290.5 81.76 291.32 80.88 291.22 80.34 290.23 79.4 290.17 79.06 290.13 78.86 290.65 78.23 290.86 77.99 292.77 76.64 293.04 72.8 291.76 60.81 290.02 53 289.83 49.29 290.29 44.71 291.29 40.25 292.1 36.7 292.82 33.73 293.57 31.64 294.09 30.16 296.64 25.85 299.45 22.55 303.45 19.58 307.63 17.16 311.13 15.81 312.18 15.4 313.7 14.89 319 13.11 325.91 11.29 342.46 7.78 352.92 6.22 366.93 4.6 387.3 2.98 400.78 1.95 402.4 1.83 424.68 1.28 444.18 1.08 452.06 1 470.2 1.09 491.9 1.19 566.67 6.96 574.61 7.88 596.06 10.38 627.35 14.89 655.64 19.74 660.51 20.55 664.46 21.21 677.65 23.77 679.38 24.18 697.12 28.35 709.49 31.65 717.86 34.27 736.96 39.66 749.06 43.63 793.45 60.26 Z M 195.99 901.54 197.81 902.28 200.99 902.82 201.7 903.23 203.36 904.17 203.99 904.84 207.54 906.52 210.72 907.4 211.08 907.93 213.35 909.21 214.26 910.49 215.28 911.04 215.9 911.37 216.54 912.38 217.54 912.92 219.99 912.85 221.26 913.38 221.75 913.8 222.44 914.39 222.6 914.77 222.99 915.67 223.44 915.81 225.81 916.08 226.99 916.48 229.44 918.36 233.08 919.64 235.17 919.17 235.89 918.7 236.62 918.77 240.44 919.17 241.89 919.1 242.34 918.83 241.98 917.89 240.44 917.48 239.62 916.94 239.43 916.47 239.6 915.63 239.71 915.06 239.34 914.05 238.7 914.18 236.98 913.85 237.17 913.14 237.25 912.84 236.8 912.43 236.16 912.43 235.61 912.9 234.8 912.97 231.98 912.44 230.71 912.37 228.35 912.77 223.4 911.85 222.62 911.7 220.08 910.89 218.62 909.82 218.17 908.81 215.72 909.08 214.63 908.4 213.81 907.53 213.71 905.85 210.44 904.84 209.26 904.23 207.08 901.74 204.51 899.78 204.44 899.72 202.9 899.32 198.9 898.85 197.62 898.45 196.53 897.64 196.61 896.56 196.62 896.36 197.07 895.5 197.26 895.15 196.8 894.94 194.17 894.47 193.62 893.53 193.6 893.02 193.53 891.31 193.8 890.9 196.16 890.9 196.71 890.29 196.8 889.62 196.34 888.81 192.98 888.14 192.71 887.13 193.34 885.11 194.25 884.24 194.25 883.82 194.25 883.29 190.43 883.63 189.89 883.09 189.7 882.35 190.34 881.61 190.34 881 189.7 880.67 188.89 880.94 188.25 880.6 188.31 880.01 188.34 879.66 187.79 878.92 187.25 878.98 185.98 881.21 183.53 882.76 183.53 883.23 183.53 883.57 184.09 883.83 184.25 883.9 184.34 883.92 187.07 884.51 187.28 884.97 187.34 885.12 188.89 885.92 189.8 887.27 190.07 888.88 189.53 890.91 189.72 891.39 189.99 892.05 189.87 892.36 189.72 892.79 190.01 893.21 190.53 893.94 191.54 896.63 191.53 896.64 191.45 897.64 192.17 898.18 193.17 898.23 193.45 898.25 194.73 899.69 195.54 900.6 195.99 901.54 Z M 43.18 805.2 41.46 804.05 41.28 801.69 40.28 801.49 36.73 804.25 33.1 803.44 32.37 802.97 29.83 803.03 29.01 803.37 27.38 805.33 24.64 808.62 23.55 810.77 23.19 811.31 23.27 811.46 23.37 811.65 24 811.72 26.46 811.18 29.19 809.7 31.28 808.02 32.64 807.88 34.09 808.96 34.73 810.58 34.91 811.12 32.45 813.21 33.09 813.74 35.9 813.88 36.36 814.5 36.54 814.76 36.45 816.37 36.9 817.18 37.72 817.38 38.99 817.38 41.17 816.11 43.17 815.77 46.81 813.89 48.99 812.74 49.26 811.87 49.27 809.1 49.07 808.49 48.9 807.96 48.61 807.73 47.9 807.15 44.24 805.63 43.18 805.2 Z M 87.24 814.04 85.88 816.53 85.7 816.47 85.97 818.28 86.51 818.35 87.06 817.61 87.69 817.54 87.6 821.65 88.14 822.26 89.87 823.34 90.5 823.41 90.23 823 89.78 822.33 89.7 820.88 89.69 820.64 90.6 819.57 91.96 820.11 92.51 820.91 93.87 821.18 95.87 823.54 96.13 826.98 96.19 826.99 98.32 827.45 98.86 828.06 99.61 828.09 101.68 828.19 106.31 829 110.12 829 112.4 827.99 113.4 827.79 115.31 826.72 115.4 825.84 114.68 824.65 114.22 823.89 112.77 823.01 108.31 822.33 105.68 822.74 104.14 821.66 102.59 821.32 101.32 819.71 100.05 818.9 99.87 818.02 98.52 817.57 98.05 817.41 97.33 816.4 93.78 815.86 92.96 815.43 92.24 815.05 90.96 813.74 90.61 813.37 88.42 813.5 87.24 814.04 Z M 159.32 853.57 159.32 853.77 159.32 854.11 158.77 854.58 155.87 854.65 155.51 855.73 154.9 855.9 153.6 856.27 152.69 856.27 151.87 856.74 152.33 857.14 152.24 858.09 151.95 858.23 151.15 858.63 151.69 858.9 157.87 859.97 158.02 860.49 158.24 861.25 158.69 861.65 162.6 861.25 163.54 861.48 164.23 861.65 165.32 860.98 168.14 860.97 168.96 860.7 169.96 860.64 174.32 861.71 175.77 862.86 176.4 862.86 176.41 862.86 176.5 861.58 177.13 860.77 176.9 859.69 176.68 858.68 176.74 858.48 176.86 858.07 173.28 856.72 172.22 856.32 171.8 856.17 170.95 855.85 169.96 855.98 169.41 856.06 168.59 856.53 168.14 857.54 164.85 857.1 163.14 856.87 161.96 855.86 162.41 853.77 159.96 853.23 159.32 853.57 Z M 424.1 599.73 424.82 600.13 425.91 599.93 426.28 600.06 426.46 601.61 426.24 602.43 426.19 602.62 425.01 603.63 423.46 604.1 422.1 606.6 420.1 608.08 418.92 608.62 417.65 609.76 417.56 610.37 418.56 612.86 419.83 614.82 420.83 614.61 421.74 613.94 423.29 611.98 423.74 610.71 425.28 608.75 426.46 607.88 429.55 606.93 430.28 606.33 430.57 605.08 430.64 604.78 430.37 600.6 430.55 600.26 431 598.11 430.54 594.74 430 594.27 428.82 595.08 428.09 595.82 424 598.72 424.1 599.73 Z M 261.05 1000.59 262.5 1003.42 263.16 1003.64 263.87 1003.89 265.59 1004.02 268.04 1003.48 268.41 1002.81 268.04 1000.79 266.31 998.5 263.4 996.55 263.77 995.06 264.95 994.05 266.22 993.98 266.67 993.45 267.49 993.11 267.31 992.76 267.03 992.23 265.95 991.63 264.31 992.17 262.4 991.76 261.77 991.02 260.76 990.55 259.49 990.28 258.77 988.87 257.77 988.47 256.22 989.75 255.77 989.75 256.04 991.9 256.41 992.75 257.41 995.07 257.26 996.16 257.23 996.41 257.78 997.29 257.78 998.37 258.37 999.42 258.68 999.98 260.5 1000.45 261.05 1000.59 Z M 250.82 941.59 250.07 942.43 249 943.61 244.19 943.89 242.91 943.75 241.1 943.01 240.01 942.94 235.28 941.6 233.28 941.87 232.83 942.27 233.1 943.15 234.1 943.42 236.56 945.37 238.33 945.71 238.65 945.77 239.92 944.96 241.28 945.17 244.82 947.19 248.28 947.58 249.01 948.13 249.82 949.47 252.37 950.21 255.55 950.21 257.09 949.87 261.54 949.53 263.54 949.67 265.27 949.46 265.54 948.99 263.09 947.51 262 947.44 260.91 948.12 258.91 948.26 255.82 947.72 253.18 946.24 252.86 945.73 252.27 944.82 253 944.22 253.82 943.47 252.91 942.2 251.63 941.19 250.82 941.59 Z M 258.38 962.13 258.29 961.12 256.47 961.32 254.11 962 253.2 961.66 253.34 961.4 253.56 960.99 253.15 960.62 252.65 960.18 250.93 961.12 249.66 963.89 249.84 964.76 252.02 966.65 254.2 969.07 254.21 969.11 254.29 970.15 253.75 970.89 254.66 971.76 256.02 971.83 257.39 971.36 258.29 971.36 260.39 973.85 260.94 974.22 261.48 974.59 263.39 976.34 264.11 976.27 264.02 975.53 263.48 974.79 262.29 972.9 262.29 972.03 262.29 970.41 262.92 968.32 263.29 967.18 263.83 966.91 260.74 965.7 259.78 965.05 258.83 964.42 258.52 964.42 257.47 964.42 256.83 964.76 256.29 964.62 256.45 963.34 256.47 963.21 258.38 962.13 Z M 268.72 950.2 267.72 950.54 268 951.55 272.54 954.17 274.81 955.05 275.9 956.33 276.24 957 276.72 957.94 276.82 958.5 276.9 959.02 279.9 959.76 281.81 961.31 282.06 961.15 283.36 960.3 283.32 960.03 283.27 959.69 284.17 957.33 285.35 956.26 285.53 955.31 284.9 954.37 283.44 953.7 280.26 953.57 277.34 952.84 276.45 952.63 272.36 952.35 271.36 951.95 270.36 951.08 269.25 950.49 268.72 950.2 Z M 278.99 1053.18 278.63 1054.73 279.45 1055.14 280.45 1055.27 280.44 1055.32 280.36 1055.74 281.08 1056.35 282.9 1056.48 283.81 1056.14 287.99 1057.76 288.9 1058.43 290.26 1058.84 292.08 1059.17 292.99 1059.57 294.8 1059.44 296.17 1059.57 297.89 1060.04 298.35 1059.91 298.8 1060.38 302.53 1062.6 302.8 1063.88 303.16 1064.15 305.71 1064.15 308.43 1064.89 310.52 1066.17 311.61 1066.44 312.52 1066.23 313.7 1066.5 315.43 1067.45 315.55 1067.47 316.97 1067.71 316.34 1066.37 315.18 1065.87 314.61 1065.63 314.18 1065.57 313.52 1065.49 312.16 1064.95 309.16 1064.21 307.7 1063.21 304.25 1061.79 302.98 1060.51 300.89 1059.3 300.58 1059.22 299.44 1058.9 298.85 1058.59 298.53 1058.43 297.89 1057.42 297.25 1057.08 296.37 1057.33 295.07 1057.69 290.9 1057.76 288.64 1056.76 286.63 1055.87 285.53 1053.85 284.9 1053.79 283.62 1054.39 281.99 1053.86 280.99 1053.99 279.63 1053.18 278.99 1053.18 Z M 408.84 625.46 407.66 626.47 406.57 627.01 405.94 627.75 404.85 628.36 403.94 628.29 403.3 628.63 399.12 628.83 397.94 628.63 395.31 629.24 392.67 628.7 392.12 628.3 390.77 628.65 390.31 628.77 389.21 628.1 387.12 628.5 386.2 628.3 384.03 627.83 383.4 628.03 382.94 628.77 383.76 629.78 385.13 630.05 390.4 630.12 391.04 630.86 392.31 631.39 395.31 632.07 396.53 631.91 396.85 631.87 398.49 630.99 400.85 631.19 402.3 630.25 406.67 629.17 408.21 629.03 409.75 628.56 411.21 627.68 412.3 626.4 412.13 626.08 412.03 625.87 411.58 625.58 411.39 625.46 410.39 625.19 408.84 625.46 Z M 254.79 918.75 253.16 919.09 245.43 918.96 243.16 919.57 242.8 920.51 247.16 921.18 247.71 920.98 249.34 921.45 249.89 922.06 250.52 922.33 251.94 922.1 253.07 921.92 253.46 921.67 253.8 921.45 255.07 921.31 257.06 921.52 259.52 921.45 262.7 922.19 263.42 922.19 263.7 921.58 262.24 919.96 262.05 919.69 261.88 919.43 261.48 919.34 259.88 919.02 259.88 918.15 256.88 917.54 254.97 917.81 254.91 918.14 254.79 918.75 Z M 96.48 857.68 96.65 858.16 98.11 857.82 98.65 856.95 100.83 856.08 102.01 856.41 103.72 855.97 103.83 855.94 105.56 856.01 106.83 856.01 107.92 855.34 108.92 853.79 108.74 853.25 107.2 852.58 107.28 852.1 107.38 851.57 106.99 851.28 106.74 851.1 106.47 851.04 106.11 850.96 106.02 851.36 105.29 851.84 103.84 851.09 102.47 851.97 101.29 851.83 100.2 852.1 100.38 852.64 101.84 853.18 101.83 854.06 101.66 854.18 101.29 854.46 99.47 854.26 98.29 853.04 97.58 852.78 97.38 852.71 96.11 852.7 94.48 853.65 94.75 855 95.38 855.26 96.56 855.4 96.65 856.88 96.38 857.42 96.48 857.68 Z M 59.28 792.2 56.91 795.97 59.09 798.4 60.27 799.41 62.09 799.08 62.54 798.13 63.09 797.86 64.9 797.93 65.81 798.13 67.36 797.93 67.81 797.39 67.45 796.99 65.54 795.91 63.82 793.82 63.36 793.42 63.91 792.68 63.37 791.93 62.46 791.46 61 791.26 59.28 792.2 Z M 125.28 850.63 124.92 850.36 124.19 850.7 123.46 853.26 122.46 854.13 117.82 855.21 115.92 854.2 115.46 853.19 116.46 850.9 116.28 850.45 116.19 850.22 115.56 849.89 115.47 849.97 115.01 850.43 114.46 850.56 114.07 850.09 114.01 850.02 113.92 849.35 112.38 849.89 111.56 849.75 108.75 848 108.2 847.86 107.75 848 109.11 849.95 109.01 850.49 109.38 850.76 109.83 851.1 110.41 851.1 112.56 851.1 113.47 852.58 112.83 853.39 112.74 853.86 112.83 854 113.19 854.53 114.55 855.07 115.46 856.29 115.66 856.5 116.1 856.96 117.55 856.63 121.64 856.22 121.85 856.16 122.73 855.89 125.27 854.74 126 852.52 125.74 851.83 125.28 850.63 Z M 79.8 801.71 77.8 802.99 74.26 803.53 73.98 804 74.44 804.47 75.8 804.4 79.62 805.28 80.53 805.68 81.34 807.37 82.61 808.38 83.06 809.14 83.25 809.46 83.25 809.79 82.79 809.93 82.43 810.6 84.06 811.28 84.34 812.89 85.06 812.83 85.97 812.29 86.7 811.61 88.43 810.67 85.43 807.78 84.95 807.24 84.89 807.17 84.7 806.02 83.98 805.62 82.8 805.69 81.98 805.35 82.16 804.54 82.98 804.2 82.53 803.4 79.8 801.71 Z M 70.5 839.76 69.73 837.23 69.41 836.19 68.78 835.52 67.13 835.46 66.87 835.45 64.87 836.12 64.05 837.2 62.42 837.94 61.51 837.94 60.84 838.3 60.51 838.48 60.36 838.91 60.05 839.82 60.05 842.11 59.96 842.25 63.59 841.98 64.96 838.61 65.87 838.88 66.5 838.95 66.77 839.69 66.96 840.23 67.41 840.5 70.5 839.76 Z M 624.88 620.88 626.97 621.56 629.88 621.56 630.88 621.09 632.15 619.81 632.15 619.14 631.6 618.12 628.51 616.91 625.78 616.71 623.88 617.86 623.33 618.87 623.6 619.68 624.19 620.29 624.7 620.82 624.88 620.88 Z M 92.2 862.07 91.84 859.91 90.54 858.64 89.57 857.69 89.43 857.71 88.75 857.82 86.66 859.17 85.11 859.64 84.93 860.18 85.74 861.32 88.74 863.34 89.01 864.02 89.74 864.49 90.83 864.69 92.01 864.42 92.26 863.42 92.47 862.6 92.2 862.07 Z M 133.1 843.08 132.74 843.9 133.09 844.21 133.19 844.31 135.46 845.01 135.91 847.31 136.27 847.38 137.51 847.63 138.78 847.36 140.14 847.81 141.05 848.67 141.23 849.07 141.27 849.09 141.87 849.4 142.96 848.72 143.32 848.25 142.96 847.85 142.71 847.78 141.6 847.46 139.69 844.64 139.32 843.19 139.33 843.13 139.77 841.03 139.75 841.03 139.05 841.03 138.5 841.23 137.87 842.71 137.51 842.98 133.25 843.08 133.1 843.08 Z M 85.3 849.54 86.57 850.75 87.57 850.68 90.21 849.47 90.57 849.13 91.12 846.3 91.03 845.16 90.58 845.02 89.49 845.83 88.44 845.72 87.58 845.63 85.85 844.96 84.85 845.56 83.4 847.72 83.67 848.39 85.3 849.54 Z M 62.7 829.25 61.79 828.51 61.74 828.34 61.61 827.9 60.15 827.97 59.79 828.98 61.06 830.06 61.6 831.74 61.51 832.08 60.51 832.08 59.06 833.09 58.97 833.49 59.51 833.69 60.51 833.56 61.15 833.69 61.78 834.23 61.72 834.41 61.6 834.71 59.78 835.38 58.6 836.46 58.65 836.75 58.69 836.99 60.14 837.47 62.69 835.78 63.87 834.44 64.51 833.83 64.17 833.07 64.06 832.82 64.69 831.88 64.46 831.41 64.33 831.14 63.79 831.14 62.97 830.67 62.97 830.32 62.97 829.86 62.7 829.25 Z M 77.66 854.25 79.55 853.8 79.94 853.71 80.67 853.51 83.03 853.91 84.3 852.7 84.48 852.03 84.12 851.62 81.85 851.69 79.48 851.49 76.85 850.27 75.4 850.27 74.4 851.15 74.76 852.02 76.67 854.04 77.66 854.25 Z M 418.39 1124.11 420.38 1124.72 420.29 1123.71 418.93 1121.96 417.74 1120.95 417.02 1120.34 416.84 1119.94 417.2 1119.8 418.84 1120.41 418.91 1120.41 420.2 1120.41 421.74 1120.21 422.83 1120.88 423.18 1120.62 423.29 1120.54 422.98 1119.45 422.83 1118.93 421.56 1118.86 420.29 1119.26 418.47 1119.4 417.93 1118.87 417.65 1118.59 415.57 1118.05 415.2 1118.25 414.48 1119.8 414.57 1120.48 415.2 1121.29 415.3 1121.47 415.75 1122.3 417.57 1123.31 418.39 1124.11 Z M 394.03 1102.27 393.94 1102.43 395.03 1102.57 398.39 1103.64 398.85 1104.7 399.93 1107.15 401.72 1108.32 402.39 1108.76 403.09 1108.76 403.39 1108.76 405.84 1109.5 407.11 1111.12 407.31 1111.15 408.2 1111.32 408.29 1110.58 407.84 1110.04 407.66 1109.03 407.11 1108.69 404.2 1108.02 402.3 1107.28 401.47 1106.42 400.93 1105.87 400.62 1105.18 400.39 1104.65 399.66 1103.98 399.62 1103.59 399.57 1103.17 398.93 1102.16 395.84 1101.02 394.48 1101.49 394.03 1102.27 Z M 40.73 798.73 41.92 797.65 41.55 796.37 42.83 795.76 43.37 794.62 42.92 793.88 42.1 793.54 40.92 793.61 38.83 795.7 37.65 796.44 37.28 797.24 37.83 798.05 36.73 799.74 37.46 801.15 38.1 801.15 38.46 800.14 40.73 798.73 Z M 49.6 819.19 50.71 817.79 50.65 816.81 50.62 816.45 49.99 815.5 48.54 815.17 48.1 815.17 47.72 815.17 45.9 817.46 45.18 817.74 44.53 817.99 43.72 818.07 43.17 818.13 41.99 819 42.53 819.47 43.35 819.81 45.26 819.27 48.44 819.95 49.26 819.61 49.6 819.19 Z M 107.82 862.21 109.09 861.6 109.01 860.93 108.01 860.8 106.82 861.74 105.46 862.07 105.19 862.75 103.37 862.95 103.19 862.68 100.37 861.13 100.01 861.26 100.14 862.37 100.19 862.81 101.1 863.69 102.78 864.63 103.64 865.1 104.46 865.04 105.23 864.64 105.37 864.57 109 864.57 109.73 864.16 109.82 863.76 109.37 863.35 107.73 862.95 107.82 862.21 Z M 374.86 1096.18 372.68 1098.07 371.59 1098 370.86 1098.2 370.59 1098.81 370.38 1098.78 368.86 1098.54 368.32 1098.94 368.32 1099.55 369.14 1101.23 370.23 1102.38 370.96 1102.24 371.77 1100.96 373.04 1100.22 373.23 1099.68 374.13 1099.95 375.41 1099.28 375.59 1098.67 375.58 1096.85 375.58 1096.11 374.86 1096.18 Z M 415.02 618.39 415.11 618.93 414.57 619.4 411.02 620.61 409.02 621.49 408.93 622.16 410.57 622.9 413.11 622.77 415.38 620.75 417.2 618.18 417.88 617.28 418.11 616.97 418 616.58 417.93 616.3 417.56 616.5 416.65 616.16 416.17 616.82 415.02 618.39 Z M 85.49 840.38 82.95 841.31 79.59 840.91 77.77 841.38 77.68 842.32 80.4 842.46 81.95 842.87 83.13 843.54 87.85 842.6 88.22 842.4 87.79 841.58 87.76 841.52 87.31 840.91 85.49 840.38 Z M 86.86 837.08 86.86 838.83 87.49 839.23 89.04 839.23 90.76 838.56 91.49 838.09 92.13 837.35 91.87 835.88 91.86 835.8 91.58 835.19 90.42 834.94 90.31 834.92 89.13 834.99 88.04 835.53 86.86 837.08 Z M 42.99 712.65 40.72 711.37 40.08 711.44 39.17 712.18 38.53 712.85 37.81 713.39 37.53 715.07 39.47 715.66 39.99 715.82 40.99 715.61 42.53 714.87 43.17 713.66 42.99 712.65 Z M 79.32 835.12 78.5 836.33 78.68 837.54 82.31 837.54 82.41 837.21 83.02 837.33 83.77 837.48 84.86 836.33 85.04 835.39 84.77 834.85 83.86 834.45 82.3 834.4 81.77 834.38 81.31 834.52 79.32 835.12 Z M 271.09 1051.37 271.45 1051.91 271.75 1051.78 271.91 1051.71 273.09 1052.65 274.18 1052.78 275.27 1053.86 275.72 1054.06 276.54 1053.72 277.63 1052.85 277.72 1052.18 276.99 1052.04 275.45 1051.16 274.72 1050.56 273.63 1050.16 272.27 1049.95 271.72 1050.22 271.63 1050.76 271.09 1051.37 Z M 177.03 865.08 176.83 865.72 178.2 866.62 178.36 866.73 178.83 866.94 179.13 867.07 179.14 867.07 180.06 867 181.06 867.47 181.13 867.46 182.12 867.34 183.19 866.59 182.91 866.17 182.63 865.72 181.47 864.47 181 864.42 180.77 864.4 177.61 864.81 177.03 865.08 Z M 43.81 705.24 40.63 702.55 39.45 702.75 39.54 704.1 40.54 705.44 40.54 706.32 41.08 706.92 41.9 707.33 42.81 707.13 44.08 706.05 43.81 705.24 Z M 31.26 828.29 31.43 827.47 31.53 826.95 31.31 826.22 31.17 825.8 30.83 824.02 30.81 823.92 29.9 823.91 29.08 824.11 28.58 824.49 28.26 824.72 27.9 825.66 28.45 826.88 28.99 828.09 29.56 828.34 29.9 828.49 31.26 828.29 Z M 50.34 823.11 51.16 823.18 53.43 821.36 53.89 820.69 54.07 818.6 53.07 818.47 51.52 819.74 49.62 821.3 49.53 822.24 50.34 823.11 Z M 93.83 860.38 95.1 860.52 95.65 860.52 96.1 860.32 96.1 859.78 95.28 858.83 94.11 857.49 93.56 856.14 93.4 855.99 93.2 855.8 91.57 856 90.93 856.88 93.56 859.91 93.67 860.09 93.83 860.38 Z M 46.63 701.13 47.9 702.62 49.54 702.48 50.08 701.94 49.87 700.93 49.63 699.79 48.91 699.05 48.63 698.57 47.36 698.51 46.45 699.05 46.63 701.13 Z M 71.22 845.01 72.41 844.07 72.35 843.82 72.31 843.67 71.77 843.2 70.14 842.66 69.04 842.79 68.41 843.26 67.77 844.07 67.59 845.22 67.86 846.09 68.5 846.29 70.41 845.15 71.22 845.01 Z M 44.11 824.07 44.53 824.53 45.16 824.46 46.89 823.25 46.89 821.77 46.17 821.09 45.91 821.05 45.26 820.96 44.08 821.2 43.62 821.29 42.8 821.97 42.83 822.28 42.9 823.11 43.53 823.45 44.11 824.07 Z M 69.99 799.75 69.89 800.87 69.81 801.84 71.81 801.5 73.71 802.18 74.53 802.18 74.99 801.84 75.08 801.1 74.08 800.03 73.17 799.69 70.79 799.74 69.99 799.75 Z M 51.64 797.86 52.91 797.99 54.07 797.67 54.36 797.59 54.36 797.05 52.73 795.9 52 795.36 49.64 795.16 49.64 796.44 50.82 797.45 51.64 797.86 Z M 380.3 620.56 378.67 620.29 378.3 620.35 378.03 621.37 380.12 623.25 381.94 623.86 382.3 622.78 381.45 621.95 380.85 621.37 380.45 620.78 380.3 620.56 Z M 91.84 853.71 91.84 852.37 90.3 851.83 89.48 851.89 88.93 852.7 88.84 853.85 89.66 854.86 90.48 854.86 90.66 854.86 91.29 854.52 91.79 853.79 91.84 853.71 Z M 39.87 740.47 40.69 740.74 41.96 740.6 42.15 738.92 41.42 737.57 40.15 737.57 39.33 737.97 39.33 738.71 39.87 740.47 Z M 72.01 827.15 71.24 827.91 71.33 828.78 72.42 828.78 73.96 827.91 74.69 828.04 75.69 827.84 75.24 826.7 74.69 826.16 74.21 826.18 72.97 826.22 72.01 827.15 Z M 97.68 861.94 97.38 861.8 96.96 861.89 96.74 861.93 95.29 862.92 94.38 863.55 94.38 863.75 94.37 863.95 94.68 864.18 95.19 864.56 96.28 864.69 97.55 864.22 97.83 862.95 97.83 862 97.68 861.94 Z M 283.73 1066.86 283.45 1065.51 282 1065.1 281.37 1066.45 282.73 1068.07 283.73 1068.74 284.27 1068.74 284.27 1067.39 283.73 1066.86 Z M 97.2 850.21 98.29 850.89 99.93 851.02 100.29 850.82 99.93 849.54 99.57 849.34 98.84 849.14 97.84 848.4 97.67 848.37 97.39 848.33 96.89 848.64 96.75 848.73 96.8 848.91 97.2 850.21 Z M 264.72 1046.52 266.45 1046.59 266.89 1046.45 267.09 1046.39 267.63 1045.78 266.27 1044.97 265.45 1044.91 265 1044.7 264 1044.91 263.27 1045.38 263.45 1045.78 264.72 1046.52 Z M 20.9 716.95 20.08 716.61 19.63 717.22 19.63 718.84 20.9 720.32 21.62 719.71 21.63 717.76 20.9 716.95 Z M 79.05 833.3 79.41 833.43 80.3 833.16 81.14 832.9 81.27 832.84 81.77 832.63 81.72 832.18 81.69 831.95 80.69 831.01 79.32 830.67 79.11 831.36 78.96 831.82 79.05 833.3 Z M 33.01 802.02 34.82 803.1 36.01 801.76 35.73 800.88 35.1 800.54 33.92 800.41 33.28 801.15 32.92 801.42 33.01 802.02 Z M 37.54 710.22 38.54 710.02 39.17 709.14 39.08 708.88 37.36 707.73 36.36 708.47 36.21 709.64 36.17 709.95 36.78 710.25 36.99 710.36 37.54 710.22 Z M 125.49 624.26 125.4 625.06 127.49 625.74 128.49 625.6 129.22 624.53 127.67 623.92 125.95 623.92 125.49 624.26 Z M 134.96 604.05 133.87 603.24 132.51 603.65 132.33 604.72 132.96 605.53 134.6 605.6 135.15 605 135.06 604.53 134.96 604.05 Z M 142.96 850.55 140.23 848.93 139.42 849.14 139.4 849.23 139.33 849.74 139.5 849.87 140.42 850.55 140.24 851.29 141.51 851.56 142.33 851.09 142.51 850.75 142.96 850.55 Z M 30.54 712.64 29.17 711.97 28.08 713.05 27.9 714.19 28.99 714.46 30.17 714.26 30.53 713.92 30.54 712.98 30.54 712.64 Z M 118.83 852.04 120.28 852.58 120.91 852.45 121.73 852.65 121.82 852.38 121.37 851.51 120.92 851.17 120.46 850.43 119.46 850.16 118.92 850.63 118.83 852.04 Z M 63.45 800.89 62.72 801.91 63.17 803.12 64.17 802.78 64.81 802.78 65.27 800.89 64.63 800.42 63.45 800.89 Z M 50.75 776.84 49.38 777.65 49.52 778.01 49.84 778.86 50.65 779.07 51.56 778.93 52.2 778.32 51.47 777.18 50.75 776.84 Z M 132.3 629.31 131.31 628.03 129.49 628.7 129.49 629.17 130.76 630.32 131.58 630.18 132.05 629.88 132.21 629.78 132.3 629.31 Z M 91.53 697.72 92.98 697.79 93.43 697.79 94.16 697.25 94.07 696.78 93.44 696.38 93.44 696.04 92.98 695.75 92.8 695.63 92.16 695.84 91.25 697.59 91.53 697.72 Z M 127.04 627.89 129.4 628.03 130.03 627.49 130.13 627.29 129.03 626.55 126.85 626.61 126.58 626.95 126.73 627.27 127.04 627.89 Z M 66.5 803.08 66.81 803.39 67.42 803.56 67.53 803.59 68.26 801.84 68.06 801.14 67.99 800.9 67.45 800.69 66.35 801.5 66.26 802.85 66.5 803.08 Z M 44.02 777.72 42.75 777.65 42.3 778.32 42.34 778.58 42.39 778.93 43.27 779.58 43.38 779.67 44.47 779.53 44.93 778.46 44.57 778.05 44.02 777.72 Z M 60.7 715.08 61.52 715.62 62.16 715.35 62.8 714.88 62.98 714.01 62.29 713.54 61.98 713.33 60.8 713.47 60.7 715.08 Z M 259.7 1002.47 258.05 1002.14 257.51 1002.48 257.37 1002.78 257.05 1003.49 256.6 1004.03 256.8 1004.21 256.96 1004.36 257.51 1004.09 258.87 1003.42 259.96 1003.01 260.05 1002.54 259.7 1002.47 Z M 43.05 746.19 44.59 747.07 45.33 746.46 45.41 746.4 45.23 745.66 44.96 744.98 44.14 744.93 43.96 744.91 43.67 745.11 42.87 745.65 42.96 745.94 43.05 746.19 Z M 112.83 653.28 113.65 653.48 114.56 653.01 115.01 652.4 114.91 652.09 114.83 651.86 114.2 651.53 112.93 651.59 112.56 652 112.83 653.28 Z M 49.46 801.63 50.82 801.76 52 801.02 51.82 800.49 50.91 799.94 50 799.81 49.46 800.15 49.82 800.82 49.46 801.63 Z M 523.3 824.74 524.74 824.86 525.28 824.39 525.01 823.25 523.98 822.99 523.92 822.98 523.1 823.32 523.07 823.39 522.92 823.72 523.19 824.73 523.3 824.74 Z M 367.03 621.03 366.03 620.63 364.85 621.44 365.4 622.31 365.94 622.58 366.85 622.65 367.31 622.38 367.03 621.03 Z M 149.05 854.05 147.96 853.58 147.14 853.65 146.69 854.32 148.15 855.12 148.87 855.12 149.96 854.65 150.23 854.18 149.05 854.05 Z M 123.31 626.88 124.4 627.02 125.13 626.41 125.13 626.03 125.13 625.8 124.19 625.05 124.13 625 123.67 625.33 122.49 625.8 123.05 626.53 123.31 626.88 Z M 23.26 720.12 24.33 720.12 24.53 720.12 24.71 720.25 25.26 720.05 25.62 719.65 24.26 718.43 23.54 718.43 23.42 718.58 22.9 719.24 23.26 720.12 Z M 44.62 712.52 45.44 712.58 45.8 712.25 46.8 711.98 45.99 710.97 44.8 710.83 43.99 711.03 44.02 711.26 44.08 711.57 44.28 711.93 44.62 712.52 Z M 29.44 715.81 28.35 715.27 27.26 715.54 26.9 716.48 27.04 716.58 27.44 716.89 28.26 716.68 29.26 716.82 29.72 716.55 29.72 716.15 29.63 716.04 29.44 715.81 Z M 242.68 975.37 242.22 975.27 241.81 975.55 241.22 975.95 241.04 976.42 241.31 976.89 241.81 977.02 242.31 977.16 243.22 976.96 243.22 975.47 242.68 975.37 Z M 46.82 800.28 46.46 801.49 46.64 802.03 47.27 802.3 47.82 802.3 48.64 801.36 48.55 800.89 47.55 800.41 46.82 800.28 Z M 368.94 619.01 368.49 618.61 367.94 618.81 367.03 618.88 366.31 619.62 366.4 619.89 366.94 620.22 368.31 620.16 368.94 619.01 Z M 122.04 627.08 122.04 626.52 122.04 626.21 121.67 625.67 120.95 625.53 120.4 626.14 120.38 626.38 120.31 627.28 121.22 627.62 121.58 627.42 122.04 627.08 Z M 23.45 712.84 21.99 712.37 21.45 712.77 21.27 713.72 21.35 713.86 21.45 714.05 22.72 714.19 23.45 712.84 Z M 119.95 628.16 119.22 627.69 118.67 628.49 119.4 629.57 120.03 629.71 121.03 629.24 120.76 628.56 120.13 628.43 120.03 628.29 119.95 628.16 Z M 146.88 857.15 148.15 857.42 148.78 856.34 147.51 855.66 146.78 856.14 146.51 856.68 146.88 857.15 Z" fill-rule="evenodd"/>
</g>
</svg>