<?xml version="1.0"?>
<svg xmlns="http://www.w3.org/2000/svg" version="1.2" baseProfile="tiny" width="800" height="1646" viewBox="0 0 800 1646" stroke-linecap="round" stroke-linejoin="round">
<g id="cherrylake">
<path d="M 562.45 644.19 564.89 649.59 570.63 653.7 574.52 657.8 577.17 660.92 579.43 662.89 582.5 665.76 585.79 667.08 589.89 669.88 596.46 674.33 598.71 676.21 601.98 680.63 603.41 681.79 606.69 684.58 607.91 686.55 611.99 692.13 615.02 700.95 618.45 710.77 621.48 717.8 624.54 722.55 626.98 726.98 630.43 733.68 635.91 744.49 639.56 752.67 642.17 760.85 645 768.05 648.88 772.89 653.19 777.15 657.47 782.24 660.53 786.17 662.98 789.94 665 793.87 668.68 799.44 671.71 806.97 675.14 815.64 679.22 822.35 681.85 828.24 685.11 833.98 687.96 838.23 691.23 842 693.27 845.62 695.71 849.38 697.54 852.98 698.96 856.25 700.14 861.48 702.18 866.23 705.02 870.98 708.08 875.4 709.9 879.33 711.12 882.93 713.56 886.69 714.56 888.99 715.97 890 720.1 895.23 729.17 902.74 731.43 905.02 733.28 914.49 735.75 921.83 760.68 951.87 768.31 959.87 775.52 973.42 782.32 982.56 786.65 986.81 788.71 988.27 789.12 998.39 793.64 1011.77 797.76 1018.79 799 1022.22 797.76 1026.96 793.64 1032.5 790.33 1041.48 789.92 1046.54 791.56 1052.9 790.74 1054.21 789.09 1054.7 777.54 1054.36 763.73 1053.71 752.59 1050.44 746.2 1049.95 743.52 1049.95 739.81 1051.42 737.34 1055.66 736.51 1061.7 736.5 1074.1 735.68 1076.38 732.79 1077.53 713 1078.99 705.99 1079.97 657.73 1095.45 653.41 1095.78 640.83 1089.25 634.03 1086.96 624.75 1085.82 605.79 1085.16 594.86 1085.32 579.81 1086.13 570.53 1087.27 567.44 1087.92 555.06 1094.61 549.7 1099.34 544.75 1100.81 535.27 1101.62 522.28 1101.46 516.91 1102.43 513.62 1103.08 510.52 1107 510.93 1110.1 514.44 1117.61 520.41 1127.57 522.88 1133.93 525.15 1137.36 527.42 1138.99 534.42 1142.42 546.38 1146.02 556.89 1147.81 561.64 1148.14 592.35 1154.68 604.93 1157.13 617.91 1156.32 620.19 1156.65 622.04 1158.6 610.7 1168.56 602.86 1184.71 600.38 1186.34 593.16 1187.81 586.77 1190.91 583.47 1193.35 581.82 1196.45 581.2 1202.99 582.43 1206.25 583.67 1208.21 586.97 1210 606.55 1215.07 609.23 1216.7 610.47 1219.31 595.41 1225.84 582.42 1232.69 568.81 1242.31 567.78 1244.92 567.57 1246.39 568.6 1249.17 570.25 1250.47 583.45 1253.58 600.14 1251.14 601.18 1252.6 594.16 1259.13 591.89 1263.86 590.45 1272.67 589.62 1275.61 584.67 1282.63 579.1 1287.85 577.04 1291.44 576.42 1294.38 577.45 1299.11 575.59 1303.03 563.42 1310.2 560.54 1312.16 547.96 1316.73 531.47 1318.36 522.81 1321.29 516 1324.22 507.55 1328.96 493.94 1335.97 491.47 1337.77 484.25 1348.21 480.54 1352.13 475.58 1356.2 452.08 1371.54 447.75 1373.99 440.95 1375.62 437.03 1377.08 429.81 1381.81 418.26 1391.12 409.19 1399.44 398.26 1411.51 395.79 1415.75 394.13 1419.67 392.48 1430.28 392.06 1436.64 391.44 1451.33 392.47 1454.92 401.12 1467.33 409.99 1477.45 412.67 1479.41 414.93 1481.69 415.14 1484.47 412.87 1491.65 405.44 1500.46 396.58 1510.08 392.66 1515.63 389.36 1521.34 375.13 1532.77 370.59 1537.01 368.32 1541.57 366.47 1547.78 365.23 1562.47 363.99 1564.75 364.4 1566.38 300.49 1587.26 217.01 1614.99 187.74 1624.61 183.2 1625.92 128.57 1644.35 124.04 1645 118.48 1634.23 99.93 1614.48 95.19 1610.24 90.24 1603.87 85.92 1600.76 80.76 1596.36 70.05 1580.2 67.99 1578.41 63.87 1578.08 60.16 1578.57 57.47 1584.12 56.03 1584.93 53.56 1585.26 50.46 1584.28 45.11 1573.02 42.84 1569.59 38.1 1564.85 34.39 1559.96 26.97 1553.27 24.09 1551.31 14.61 1549.18 6.98 1549.35 3.27 1549.02 1 1547.88 2.86 1545.43 12.55 1544.13 19.97 1542.17 24.91 1539.72 33.37 1533.03 42.23 1524.38 44.5 1520.63 44.91 1516.88 44.91 1510.18 43.88 1506.1 40.38 1501.05 40.38 1499.25 43.89 1494.52 45.54 1490.93 46.36 1487.34 48.42 1485.54 53.58 1485.7 63.06 1483.42 65.94 1484.89 65.12 1487.34 65.12 1495.5 69.45 1498.11 75.84 1500.4 83.67 1502.19 89.03 1504.32 94.18 1509.7 95.01 1511.82 93.97 1514.27 87.38 1521.29 86.76 1525.04 87.37 1530.43 90.26 1532.88 98.5 1535.98 120.35 1541.69 131.69 1544.96 133.75 1544.63 136.84 1541.7 136.64 1536.47 134.58 1523.91 131.9 1520.97 125.72 1515.09 120.36 1511.5 107.37 1506.44 106.14 1505.13 105.73 1502.36 100.57 1493.05 77.49 1466.45 72.34 1458.62 70.28 1450.78 67.6 1445.89 67.19 1443.6 67.81 1442.3 72.76 1438.05 76.68 1432.51 77.91 1430.06 78.12 1416.51 77.3 1414.07 76.68 1398.23 79.78 1393.66 81.42 1392.68 85.14 1394.97 92.35 1394.48 99.57 1393.18 106.78 1390.57 118.12 1385.84 129.87 1376.37 134 1371.64 138.12 1365.76 152.76 1341.78 154.21 1335.41 156.27 1323.99 160.81 1315.5 167.62 1302.29 170.3 1292.17 172.57 1288.09 175.87 1274.38 175.25 1253.98 173.61 1244.51 171.76 1206.98 168.26 1196.2 166.41 1186.9 166 1163.73 168.06 1150.34 169.92 1143.65 171.57 1127.82 175.08 1121.78 177.14 1115.58 177.56 1108.73 176.53 1095.35 175.5 1088.82 175.71 1083.27 174.48 1062.05 174.89 1051.93 177.57 1037.08 177.57 1032.35 176.55 1025.17 174.69 1003.79 171.19 998.24 169.13 991.55 165.63 984.69 164.81 977.84 143.57 955.48 136.36 949.76 127.29 944.7 121.51 939.64 115.54 933.28 110.18 929.85 106.67 925.61 93.48 914.51 89.77 909.77 81.32 896.72 79.39 889.86 79.5 888.64 79.42 886.77 79.64 885.3 79.25 881.22 78.85 880.07 77.63 877.94 76.41 876.3 74.15 874.66 71.48 873.01 69.02 870.55 68 869.56 66.57 867.11 65.56 865.15 65.37 863.35 65.59 861.47 66.85 859.6 67.89 857.81 68.73 855.36 69.58 852.43 69.82 848.67 70.25 845.41 69.67 841.16 68.66 837.73 67.66 834.13 68.51 830.54 69.57 827.44 72.28 823.87 76.85 819.65 79.14 817.86 83.28 815.76 87.21 814.63 90.31 814 94.24 812.55 100.44 810.61 110.57 808.22 115.84 806.29 118.95 805.49 121.43 803.87 122.47 802.73 123.32 800.77 122.71 798.97 121.89 798.15 119.64 797.17 115.62 795.18 110.69 793.03 105.55 790.72 102.26 789.4 97.32 788.72 94.83 789.36 90.91 789.67 87.62 789.16 83.29 788.81 78.96 788.47 75.04 786.98 69.5 784.82 62.91 782.52 57.36 780.36 50.79 776.73 45.65 773.28 41.36 768.61 39.12 764.84 37.92 760.26 37.34 755.36 38.18 753.09 39.45 750.14 41.12 746.07 42.6 741.51 44.73 733.68 46.84 727.32 48.13 721.45 48.59 714.6 48.24 707.25 47.87 702.02 47.28 697.28 46.9 693.36 45.69 690.9 44.06 687.8 42.23 683.54 40 679.77 38.39 672.91 36.57 668.81 34.95 665.71 32.71 661.61 30.08 654.74 28.26 650.33 25.82 645.74 22.98 639.69 20.55 634.61 17.29 629.54 16.08 625.28 15.9 621.53 18 616.8 20.72 612.41 23.44 607.69 26.99 601.99 31.36 597.44 34.48 594.36 39.47 589.81 45.09 583.47 50.29 578.6 54.65 574.21 57.6 566.71 58.26 561.81 58.06 560.18 58.48 558.88 58.91 556.92 59.35 554.14 60.6 551.86 62.27 549.43 66.01 546.17 69.54 543.26 72.45 541.31 75.97 539.69 81.76 538.26 88.17 536 93.55 534.72 97.48 533.11 100.37 532.3 103.26 531.67 106.99 530.22 113.4 528.12 120.95 525.88 125.72 523.28 129.66 520.37 132.58 517.12 134.88 513.21 136.15 508.81 135.77 505.37 134.55 502.43 133.14 498.5 131.51 495.23 129.68 491.96 126.83 486.56 123.78 480.5 120.95 473.47 119.76 468.4 119.59 463.42 120.24 459.66 121.31 454.45 122.39 448.9 122.64 443.34 122.88 439.43 123.51 436.82 124.39 430.78 126.27 426.87 128.98 424.44 132.5 422.34 136.44 419.9 142.88 415.69 149.1 410.83 152 408.56 155.12 404.97 157.83 401.88 160.56 397 162.04 392.27 163.73 386.08 165.23 380.53 166.09 375.48 166.96 370.91 167.61 366.01 168.89 361.28 168.93 356.06 169.17 351.98 170.23 347.9 171.5 343.17 173.19 339.1 175.72 332.75 177.83 327.03 179.32 321.01 180.59 316.77 181.44 312.85 182.72 309.27 183.79 303.89 184.43 300.3 183.42 297.35 183.64 296.37 184.47 296.05 185.71 295.89 187.77 295.41 189.02 295.1 191.08 294.61 193.57 293.32 195.44 292.18 197.51 290.56 200 288.29 202.3 285.04 205.63 281.13 208.55 278.05 212.29 274.31 216.86 270.41 221.64 266.35 225.38 263.27 228.07 261.65 231.2 259.06 236.8 254.03 242.83 248.83 248.63 245.92 250.29 244.78 254.64 242.84 258.98 241.72 261.67 240.43 263.33 240.6 265.59 240.94 269.92 241.29 273.83 241.64 279.19 242.64 286.41 243.82 291.96 245.32 294.44 245.33 297.54 245.67 300.42 246.67 304.13 247.01 309.08 247.36 313.41 248.04 317.94 249.37 322.47 250.04 327.42 250.39 330.73 249.92 333.83 248.63 337.77 246.04 339.86 243.28 341.32 240.66 342.58 238.22 345.08 234.65 348 231.72 351.55 225.21 353.65 221.14 355.74 218.53 359.47 215.45 364.67 211.07 368.83 207.17 376.1 200.84 381.29 196.45 384 193.37 386.08 191.42 387.35 188.97 389.23 185.07 391.33 181.48 394.04 177.42 397.17 173.35 399.67 169.93 401.35 166.85 403.64 164.65 406.13 162.38 409.65 159.94 413.6 157.35 417.95 154.76 422.3 152.99 427.89 151.05 431.62 148.95 435.56 146.36 438.88 144.25 443.86 141.5 447.99 139.56 453.38 136.98 458.57 133.9 463.55 130.66 466.66 128.39 468.53 127.59 469.98 126.61 472.27 123.68 474.56 121.08 477.68 117.83 481.64 114.1 484.55 110.37 487.48 105.31 489.79 100.75 492.1 94.89 493.18 90.15 494.25 85.43 494.28 81.34 494.31 77.92 492.68 74.8 491.25 73.66 489.81 72.66 486.73 70.86 485.3 69.38 484.27 67.25 483.48 63.33 483.51 60.06 484.17 55 485.05 49.79 485.06 47.66 484.46 45.05 485.09 42.77 486.35 40.65 488.23 37.88 491.15 35.12 494.67 33.01 499.44 29.61 505.36 24.9 510.97 20.03 514.93 16.13 517 14.52 519.09 11.42 520.36 7.84 521.21 3.93 523.09 1.49 524.13 1 526.39 2.31 528.44 3.47 530.08 5.6 530.88 8.55 531.48 10.02 531.88 12.79 529.16 16.53 525.22 19.94 521.89 22.86 517.74 25.94 514 28.87 512.12 32.45 510.44 35.22 510.22 37.66 510.8 40.93 512.01 44.85 513.42 48.79 515.67 52.55 517.7 55.5 519.34 56.98 520.99 57.48 523.67 57.97 528.21 58 532.33 58.03 536.47 56.9 538.76 55.29 540.41 54.14 542.07 53.67 542.9 52.53 543.95 51.22 546.23 49.77 549.12 48.47 550.79 47.83 553.88 47.69 555.94 48.35 557.37 49.5 560.04 51.8 562.7 54.43 565.17 55.58 568.05 56.57 569.69 57.56 571.74 59.21 573.57 62.48 576.21 67.72 578.25 70.99 578.87 71.97 582.94 77.55 588.68 82.31 593.19 85.28 597.5 88.73 600.17 90.86 601.6 93.16 603.63 96.43 606.68 101.35 609.76 104.63 611.2 106.1 611.58 108.22 612.8 111.5 614.01 114.44 615.01 117.39 615.4 120.33 615.99 125.07 616.57 129.48 616.96 132.42 616.93 136.51 617.31 140.42 617.89 144.18 617.66 148.1 617.22 150.71 616.59 153.32 615.74 156.75 615.07 162.13 614.42 165.39 613.14 170.53 612.27 175.26 610.6 178.51 609.34 180.96 608.71 183.08 608.27 187.16 608.85 190.92 608.4 194.99 607.12 199.73 605.44 204.13 603.53 210.16 600.16 219.61 596.15 230.2 593.4 237.53 591.52 242.43 588.13 251.72 586.03 256.44 584.15 259.86 579.58 264.08 574.98 269.61 570.6 275.79 567.7 278.22 566.45 279.85 564.76 284.58 562.45 289.14 559.53 293.04 555.57 297.1 552.02 303.29 550.35 305.08 549.31 306.7 546.19 309.96 542.44 313.85 539.95 315.64 537.87 316.77 535.19 317.41 532.09 317.72 530.02 318.2 528.98 319.17 526.9 320.96 524.21 322.25 520.07 323.54 516.34 325.32 512.62 327.09 509.92 328.54 507.02 330.16 505.14 331.95 503.69 334.39 502.11 337.98 500.42 342.05 498.96 345.47 497.27 349.22 495.78 353.94 494.31 358.34 492.22 361.44 490.55 363.56 488.67 367.3 487.6 371.37 484.65 379.69 481.27 388.65 480.42 392.08 477.47 398.92 475.38 403.32 473.91 406.58 471.8 412.28 469.06 418.31 466.55 422.7 465.29 426.12 464.22 430.37 463.55 436.4 463.94 439.99 464.94 443.26 465.12 447.19 465.7 451.11 468.32 458.14 472.59 466.49 475.85 472.14 479.71 479.19 483.16 486.22 486.41 493.42 488.83 499.97 491.48 504.55 494.13 507.34 498.86 509.98 503.28 511.96 507.4 513.94 511.7 516.41 514.56 520.02 517.23 522.8 519.89 525.27 526.25 529.55 531.77 534.63 535.66 538.57 540.37 543.49 545.06 550.87 550.35 559.22 555.04 566.27 559.74 572.82 564.03 576.92 567.5 582.16 570.96 586.92 574.44 591.01 577.52 593.32 579.99 593.82 584.32 594.01 588.24 593.21 590.72 593.39 593.6 594.55 595.23 596.52 595.4 601.09 596.81 606.15 597.6 610.89 598.38 615.31 598.55 620.04 597.29 622.49 595.62 624.27 592.73 624.91 588.4 624.89 586.74 625.86 582.8 628.78 579.07 630.89 573.89 633.47 568.72 635.57 564.78 637.02 562.92 637.82 562.29 639.61 562.45 644.19 Z M 427.85 1098.17 431.97 1104.53 438.98 1113.35 444.34 1117.27 449.7 1118.58 454.85 1118.9 462.48 1114.83 467.43 1109.28 468.88 1103.89 468.47 1100.79 467.02 1098.18 464.14 1096.38 451.97 1091.65 442.9 1090.01 438.16 1090.34 434.24 1091.32 429.71 1094.42 427.85 1098.17 Z" fill-rule="evenodd"/>
</g>
</svg>