<?xml version="1.0"?>
<svg xmlns="http://www.w3.org/2000/svg" version="1.2" baseProfile="tiny" width="800" height="362" viewBox="0 0 800 362" stroke-linecap="round" stroke-linejoin="round">
<g id="spicermeadowreservoir">
<path d="M 176.4 264.44 177.47 264.31 178.71 264.44 179.73 264.44 180.16 264.18 180.75 263.68 181.02 262.83 181.88 262.2 182.95 262.15 183.27 261.64 183.49 261.48 185.1 261.39 185.64 260.59 187.14 259.91 187.95 259.19 187.89 258.18 189.61 257.63 188.86 256.4 189.07 255.6 189.77 254.03 190.41 253.48 191.33 252.34 192.13 250.18 193.05 248.45 193.69 246.84 194.49 245.78 195.84 244.56 196.37 242.48 197.61 240.96 198.25 240.03 199.49 240.2 200.46 239.35 201.58 238.63 202.28 237.79 203.19 236.14 204.48 234.7 205.72 233.6 206.63 232.67 207.54 231.7 208.89 230.77 209.15 229.62 210.17 228.57 210.98 228.44 212.32 228.23 213.88 227.63 215.17 226.41 216.73 224.38 218.61 222.39 219.74 221.2 219.9 221.2 219.95 221.29 220.22 222.81 220.33 222.9 220.81 223.23 221.19 223.74 221.3 224.5 220.81 225.64 219.69 226.24 218.02 227.55 218.29 228.65 218.83 230.3 219.1 231.95 221.51 229.96 222.16 231.44 222.59 230.84 223.61 232.66 223.56 233.85 223.88 234.06 224.15 234.61 224.63 235.03 225.28 235.03 225.33 234.82 226.62 234.82 227.32 234.57 227.43 234.9 227.86 234.9 228.88 234.61 230.01 234.4 230.81 233.51 231.56 234.31 232.91 234.61 233.93 234.22 234.79 234.39 238.01 232.62 238.6 231.94 239.03 232.02 239.94 231.35 241.13 230.46 241.88 229.4 242.15 227.96 242.9 227.41 243.65 226.57 243.97 225.55 244.89 224.92 246.07 225.17 246.6 224.79 246.77 223.73 247.84 223.48 249.4 222.08 250.63 221.15 251.44 220.35 252.03 219.33 252.08 218.15 252.03 217.43 251.6 216.12 251.54 215.02 252.24 213.54 252.35 212.4 253.26 211.81 253.31 211.17 252.72 210.83 252.51 209.56 253.31 209.31 253.96 208.42 255.19 207.37 256.43 206.69 257.4 206.22 259.01 205.25 261.53 203.94 263.09 203.3 265.29 202.33 266.26 201.7 267.82 200.81 269.7 199.83 270.29 199.37 270.99 199.45 272.23 199.16 273.19 198.78 273.67 197.85 275.45 197.25 275.72 196.07 276.74 195.52 277.33 194.38 278.99 192.94 279.85 191.97 281.3 190.91 283.02 189.72 283.02 188.58 282.81 188.03 284.04 186.97 284.15 187.31 284.9 188.16 285.17 188.88 285.66 189.09 285.65 189.47 287.48 188.11 287.75 188.41 289.31 186.93 289.36 186.25 290.97 184.39 290.81 183.88 290.59 182.66 290.97 181.98 291.56 181.48 292.31 180.71 293.17 180.12 294.03 179.15 294.95 178.56 295.06 178.6 295.43 178.77 295.75 178.85 296.45 179.11 296.99 180.29 297.74 180.5 297.63 180.58 297.04 181.3 296.94 181.52 297.31 181.77 297.47 181.77 297.64 181.77 298.55 181.18 298.76 181.18 299.19 181.9 299.3 181.94 299.78 181.94 299.95 182.23 300.75 182.15 300.91 182.23 300.21 182.74 298.98 183.93 297.64 185.24 295.65 186.51 294.2 187.9 293.23 189.04 293.18 189.85 293.18 190.74 293.18 191.54 292.8 191.88 292.16 192.93 291.78 193.87 290.98 193.82 290.71 194.33 290.44 194.67 290.28 195.52 290.28 196.45 289.74 197.04 289.04 197.67 287.7 198.22 287.49 198.64 287.86 198.9 287.7 199.74 288.08 200.12 287.97 200.72 288.51 200.93 288.67 201.27 287.27 201.86 287.06 203 287.33 203.42 287.43 203.64 287.11 204.31 287 205.37 286.31 205.67 285.5 206.3 285.99 207.02 285.98 207.86 285.98 209.01 284.96 209.68 284.96 210.44 284.96 211.25 284.97 211.84 285.07 212.9 286.2 213.07 286.09 213.79 281.8 215.65 281.15 216.03 281.26 216.45 281.85 216.49 281.85 217.17 281.8 217.59 282.5 217.72 282.87 217.97 283.52 217.8 283.62 218.48 284.22 218.56 284.97 217.97 286.79 217.04 288.46 217.04 288.57 217.8 289.05 218.44 290.56 218.52 291.26 218.65 292.01 218.77 293.19 218.18 294.96 217.89 296.41 217.8 296.9 218.31 297.92 218.27 298.62 217.76 299.48 217.46 300.28 217.5 301.63 216.91 302.86 216.28 303.61 215.68 304.31 215.85 305.98 215.18 308.77 213.82 310.06 213.06 312.05 211.54 312.91 211.24 313.77 211.45 314.25 211.33 315 210.78 315.7 210.02 316.24 209.93 316.94 209.59 318.28 209.08 319.25 208.75 320.05 208.07 321.07 207.18 321.99 206.42 322.9 205.78 323.87 205.07 324.89 204.35 325.69 203.76 326.18 202.87 327.36 201.98 328.33 201.09 329.24 200.37 329.35 199.86 330.21 199.52 331.17 198.34 331.44 198.51 332.78 196.99 333.11 197.66 333.64 197.03 334.29 195.59 334.02 194.79 335.15 193.39 335.26 192.67 335.69 192.17 336.17 192.42 337.13 191.19 338.26 189.58 338.91 188.82 338.1 187.77 338.26 187.17 338.91 186.96 339.61 186.5 340.63 186.29 340.74 188.44 341 189.63 341.38 190.73 341.76 191.7 340.58 192.88 340.63 193.6 340.63 194.28 340.25 195.25 339.93 195.97 340.63 196.39 341.17 196.82 341.38 197.62 342.3 197.83 342.99 198.17 343.48 198.89 343.96 199.73 344.23 200.16 344.82 199.61 346.11 199.48 346.27 199.99 346.22 200.83 346.11 201.13 345.74 201.8 345.25 202.06 344.61 201.97 343.64 201.81 342.62 200.96 341.97 200.75 341.33 201 340.42 201.51 340.25 202.19 339.61 202.95 339.61 203.84 340.04 203.92 340.26 203.54 340.85 204.3 341.01 204.3 342.19 204.81 341.76 205.06 341.12 205.23 340.79 206.16 341.55 206.5 340.58 206.97 340.53 207.9 339.94 208.91 340.96 209.21 341.17 210.98 340.1 211.36 340.04 212.42 338.81 212.46 337.84 212.46 336.5 213.1 335.64 213.94 335.15 215 334.62 215.17 333.7 215.43 333.65 216.65 333.7 217.79 331.93 218.68 331.12 218.68 329.94 219.82 329.89 220.71 329.25 221.09 327.96 221.68 326.94 222.15 325.86 223 325.22 224.35 325.27 225.28 324.79 226.17 324.04 226.8 323.66 227.44 323.18 228.28 322.05 228.41 320.97 229.09 321.08 230.02 321.51 230.69 320.38 231.2 318.83 231.58 317.96 232.47 316.84 233.32 316.3 234.42 315.28 234.92 314.1 235.73 313.02 236.49 312.38 236.19 311.9 235.77 311.04 235.73 310.07 236.45 308.99 237.12 308.19 238.05 308.35 238.9 308.67 240.34 309.32 240.93 310.02 241.35 310.77 242.03 311.25 242.41 310.23 243.34 309.43 244.44 308.83 245.24 309 246.05 309.43 247.02 310.02 248.16 310.13 249.01 310.07 250.15 310.02 251.29 310.88 252.01 312.38 252.48 313.78 252.77 314.8 253.11 316.25 253.28 316.84 253.91 317.6 253.57 318.83 253.32 319.85 252.56 321.46 252.3 322.16 251.54 323.29 250.57 324.47 249.26 325.98 248.79 327.53 248.24 329.09 247.86 329.74 247.02 330.92 246.42 331.94 246.04 332.48 245.54 333.44 244.18 334.14 243.46 335.16 242.79 336.51 242.53 339.14 242.15 340.16 241.81 340.75 241.39 341.82 240.84 343.38 240.71 344.73 240.33 346.88 239.27 347.47 238.22 348.22 237.37 348.7 237.75 349.45 237.2 350.42 236.48 352.03 235.43 353.38 234.58 354.45 233.69 355.95 233.23 357.19 233.01 358.1 231.41 359.18 231.28 359.5 230.9 360.31 230.56 361.06 230.52 361.7 230.1 361.7 229.42 363.15 228.36 364.87 227.73 366.65 226.92 368.37 226.25 368.69 224.51 370.3 223.2 371.37 222.23 373.47 221.47 374.06 220.62 375.08 220.75 375.62 221.09 376.05 220.96 378.2 218.55 380.08 217.83 381.31 217.24 383.09 217.24 384.86 216.94 385.13 216.56 385.5 217.28 385.77 217.91 384.91 218.21 385.13 218.55 386.74 218.38 387.6 218.12 387.76 217.32 388.78 217.02 390.56 216.77 390.82 216.22 391.85 216.43 392.44 216.13 392.81 215.04 392.86 214.61 394.32 214.02 394.64 213.17 395.39 212.5 396.3 212.33 397.06 212.5 397.76 212.33 398.4 211.95 398.99 211.61 400.07 211.4 400.55 210.97 401.62 210.21 403.23 210 404.53 210.59 405.44 211.19 406.46 210.97 406.68 210.59 407.59 210.89 408.56 210.76 409.31 209.87 410.33 209.54 411.03 209.62 411.4 209.49 411.56 209.32 412.64 209.11 412.69 209.7 413.39 209.7 414.36 209.54 416.19 208.86 417.15 207.97 417.85 207.59 418.93 207.29 419.89 206.96 420.05 207.29 420.97 207.29 421.56 206.79 422.1 206.45 423.6 205.6 424.78 205.86 425.8 205.94 426.56 205.22 427.68 204.5 428.49 204.42 429.24 204.33 430.48 204.08 431.23 203.74 432.15 203.44 432.57 203.66 433.6 203.28 434.46 202.68 435.37 202.18 436.28 201.58 437.09 201.37 437.73 200.82 438.43 200.31 439.4 199.81 440.53 198.83 442.25 197.69 442.3 198.45 443.64 199.21 444.5 199.98 445.26 200.31 446.6 200.82 447.46 200.65 448.21 200.31 448.37 200.4 449.34 199.85 450.04 199.26 450.63 198.54 451.6 197.69 452.83 196.85 453.8 196.04 454.5 194.69 455.14 193.55 456.54 192.32 457.51 191.98 458.58 192.28 459.07 191.94 459.06 191.14 459.82 191.39 460.03 191.35 460.52 190.38 460.57 189.36 460.41 188.98 460.57 188.94 461.11 189.28 461.21 189.23 461.59 188.05 462.45 187.5 463.69 186.82 464.12 186.57 464.22 186.57 465.19 187.75 466.27 188.43 466.48 189.61 466.48 190.42 467.07 190.59 467.45 191.43 467.99 192.11 468.74 192.32 469.38 192.41 470.24 192.11 471.26 191.9 471.91 191.31 472.39 191.9 472.82 191.69 473.95 191.22 474.7 190.37 474.86 189.7 476.85 188.89 477.5 188.56 478.73 187.71 480.29 186.74 481.9 185.64 483.19 184.79 483.84 184.88 485.13 183.99 486.53 183.18 487.81 182.38 490.12 180.65 491.31 180.14 493.56 178.53 495.07 177.86 497.65 177.31 498.78 176.59 500.01 175.49 501.41 175.23 502.54 174.39 503.78 174.01 504.9 173.71 505.93 173.33 506.84 172.36 508.4 172.02 509.79 171.13 510.71 171.13 511.41 171.22 512.8 170.75 513.29 170.29 514.95 169.78 515.49 169.1 516.83 168.68 517.85 168.13 518.29 167.16 518.98 167.03 519.41 167.11 519.79 166.78 520.6 166.27 520.86 165.93 521.62 165.63 522.58 165.21 522.42 164.79 522.96 164.32 523.5 163.14 523.82 162.46 524.09 160.73 524.04 159.8 524.89 158.66 525.06 157.85 525.92 157.47 526.02 157.73 526.78 157.73 526.94 156.58 527.58 155.78 528.17 155.27 528.82 155.1 529.73 154.17 529.68 153.41 529.14 152.23 529.19 151.17 529.41 150.03 529.41 148.76 530.05 148 531.02 147.79 532.9 147.7 534.14 147.62 535.11 147.07 535.48 146.52 537.85 146.18 539.57 145.76 541.18 145.21 542.85 144.96 544.24 144.45 545.64 143.73 546.28 143.69 546.66 143.47 547.74 143.18 547.79 142.8 547.63 142.33 547.84 141.53 548.33 141.45 549.24 141.28 550.1 140.73 550.32 141.11 551.12 141.07 551.23 140.51 551.77 140.47 552.09 140.01 552.04 139.63 552.36 139.03 552.95 138.74 553.16 138.65 553.49 138.36 554.08 138.74 554.83 139.04 555.53 138.99 556.44 138.61 556.71 139.25 556.77 139.63 557.52 139.8 557.89 140.18 558.05 139.92 559.08 139.42 559.51 139.16 560.31 138.87 560.69 138.87 561.12 138.36 561.87 137.98 562.78 137.6 563.7 137.26 564.18 136.62 565.09 136.2 565.1 135.44 566.39 134.68 567.25 135.06 567.67 134.43 568.05 133.37 568.43 132.27 569.18 131.21 570.31 130.41 571.33 129.39 573.27 128.8 574.18 128.25 574.39 128.21 575.42 128.04 576.54 127.58 576.97 127.87 577.3 127.96 578.53 127.53 578.59 126.9 579.12 126.31 579.88 126.27 581.7 125.97 581.81 125.08 583.32 124.66 583.48 124.36 583.53 123.98 583.8 123.73 584.77 123.14 585.3 121.66 585.9 120.81 586.16 119.67 587.4 118.78 587.72 117.93 587.78 116.75 588.37 115.9 588.96 115.44 589.44 116.07 589.98 116.88 590.41 116.88 591.7 116.5 592.67 116.54 593.26 116.45 593.48 116.2 592.99 115.4 593.48 114.64 594.28 114.76 594.44 115.02 594.44 115.69 595.62 115.57 596.11 115.06 596.16 114.21 596.38 113.62 597.88 113.33 598.63 112.14 599.39 112.35 599.87 112.69 600.84 112.48 601.11 111.93 601.22 111.17 602.02 110.62 602.29 109.52 601.65 109.52 600.57 109.56 599.98 109.44 599.98 108.59 600.14 107.79 599.55 107.24 599.55 106.73 599.93 106.64 600.19 107.24 601.43 107.41 601.86 107.95 602.61 107.79 603.8 107.57 605.25 107.41 606.7 106.81 608.15 106.05 608.58 105.59 609.06 106.18 609.98 106.05 612.18 105.59 612.93 105.12 613.95 105.21 614.65 105.21 615.67 104.62 616 104.83 615.4 105.38 615.67 105.59 616.48 105.08 617.07 105.12 618.15 104.91 618.41 104.57 619.54 104.36 620.51 103.56 621.42 103.26 622.34 103.09 622.72 102.59 623.58 102.29 624.6 101.99 625.89 101.44 626.69 101.19 627.66 101.06 629.06 100.64 629.7 100.26 631.15 99.8 632.77 98.78 634.54 98.23 635.62 97.77 637.23 97.05 637.77 97.34 639.22 96.79 641.58 95.23 642.12 94.43 643.52 93.54 644.48 92.78 645.4 92.27 646.74 91.81 647.17 91.38 648.79 91.09 649.91 90.03 650.29 89.44 651.53 89.27 652.17 89.02 652.87 88 653.09 87.03 653.52 85.8 654.32 84.74 654.97 83.6 655.99 82.46 657.07 81.57 657.6 80.69 658.09 79.63 659.16 79.25 659.81 79.21 660.56 78.95 661.31 78.4 662.12 77.6 662.33 76.63 663.84 75.48 665.13 74.34 666.04 73.24 666.58 71.34 666.85 70.58 667.12 69.99 667.98 70.2 668.79 69.35 669.59 67.66 670.77 66.77 672.5 65.97 674.48 64.91 675.29 64.74 676.31 63.81 676.8 63.81 676.9 64.07 678.78 63.9 678.79 63.22 679.48 62.76 680.02 61.74 681.58 60.77 682.01 59.37 681.9 58.95 680.99 58.61 680.34 57.89 680.61 57.56 681.69 56.71 682.33 56.41 682.98 56.88 683.19 54.89 683.84 54.47 685.08 53.79 685.83 52.4 685.83 51.85 686.04 51.34 687.07 51.38 687.87 50.79 688.41 50.71 690.18 49.56 691.26 49.35 691.53 48.85 691.74 48.63 692.76 48.47 693.41 48 694.06 47.28 695.24 46.69 695.51 46.06 697.07 45.38 698.19 45.34 698.46 45.76 699.43 45.59 701.69 45.72 702.33 45.59 703.03 44.83 703.95 44.03 704.81 43.18 706.2 42.21 707.82 41.83 708.84 40.98 709.64 39.84 710.61 38.66 712.23 37.98 713.52 36.92 714.38 36.42 714.86 36.63 715.4 36.38 716.8 35.83 718.79 35.49 720.77 35.66 721.1 36.29 722.28 35.95 722.39 35.57 723.3 34.6 723.73 34.18 723.57 33.08 723.62 31.81 725.02 31.6 726.74 31.43 728.95 30.75 731.2 30.25 732.66 29.49 732.93 28.34 732.66 27.33 733.41 27.12 734.27 27.16 735.24 26.7 735.88 25.77 736.26 26.02 736.9 26.19 737.76 25.94 737.93 25.09 739.38 24.92 741.1 24.84 742.6 24.41 743.46 23.31 745.72 21.33 746.69 19.97 747.6 19.47 748.36 19.76 749.54 19.59 752.01 18.11 752.17 17.52 755.45 16.09 757.71 15.41 758.25 14.1 759.32 13.93 759.7 13.8 760.24 13.72 762.28 14.06 764.59 14.02 767.6 13.55 769.75 12.62 771.31 11.65 772.66 11.14 774.22 10.3 774.81 9.54 777.07 9.07 778.89 8.94 780.08 8.65 782.87 8.1 784.59 7.68 785.83 6.49 786.96 5.44 788.3 5.06 789.16 4.59 790.19 3.11 791.32 1.8 792.87 1.8 794.43 2.06 795.56 1.8 796.74 1 796.26 2.4 796.53 2.78 797.39 3.54 799 5.91 798.73 6.88 798.62 7.09 798.14 6.75 797.39 6.03 796.42 5.14 795.78 4.34 794.92 3.87 793.52 4.09 792.5 4.68 791.74 6.16 790.45 7.26 788.41 8.06 786.74 8.53 785.56 9.24 784.59 9.96 784.27 10.47 783.57 11.74 782.76 13.18 781.79 14.7 780.66 15.59 779.43 16.35 778.03 17.15 775.83 17.66 774.8 18.46 773.3 19.26 769.27 20.02 765.29 20.7 765.18 22.47 762.49 23.11 761.36 24 760.83 24.67 759.8 25.18 759.1 26.28 758.94 27.17 758.94 27.84 759.91 27.93 761.15 28.01 762.81 28.39 764.8 28.78 764.37 29.83 764.16 30.81 763.24 32.29 764.15 34.06 764.69 35.2 765.44 35.58 766.46 36.85 766.41 37.74 766.62 39.31 766.62 40.62 766.62 41.59 767 41.89 767.05 42.52 767.86 43.2 767.86 43.87 768.61 44.04 768.88 44.89 769.74 44.81 769.85 44.3 771.35 44.3 772.32 44.38 774.36 44.09 775.44 44.38 775.11 45.74 774.95 45.95 774.15 47.39 772.75 48.53 770.97 49.71 769.25 50.26 767.86 51.23 766.3 52.33 764.52 52.67 762.75 52.97 762.32 53.64 760.76 54.74 758.23 55.88 754.79 56.56 753.66 58.25 752.43 59.14 750.17 59.35 749.2 60.36 749.79 61.29 750.11 62.06 749.63 62.86 749.52 63.79 750.27 64.25 750.54 64.8 750.92 65.1 752.15 65.02 752.53 65.4 752.37 67 751.83 68.44 750.54 69.84 749.41 71.61 747.96 72.63 746.29 73.39 745.59 74.95 745.32 76.77 745.05 78.67 744.84 80.62 744.57 81.34 743.49 81.59 742.26 81.17 740.97 81.17 738.23 81.51 734.89 81.93 732.85 82.18 730.97 82.98 729.03 83.87 727.37 83.83 724.73 84.51 723.39 85.82 722.47 87 720.92 87.97 720.06 89.37 719.03 90.64 716.94 91.19 714.57 92.66 711.51 93.76 708.77 94.36 706.67 93.09 706.46 91.18 705.17 90.17 705.01 87.97 706.3 87.25 707.64 86.28 708.77 85.01 710.17 83.91 711.24 82.73 713.07 81.8 714.2 81.03 714.58 80.48 715.54 79.3 716.67 77.99 717.53 76.04 717.7 74.61 716.84 72.87 716.46 72.2 714.96 71.98 713.5 72.36 710.87 72.83 709.26 73.46 707.64 73.97 707.05 74.39 706.62 74.73 705.82 75.41 704.42 75.49 702.32 75.7 698.72 76.29 698.24 77.22 697.22 77.77 697 79.34 695.98 80.02 694.42 79.85 693.62 78.96 691.63 78.96 690.77 79.8 688.94 80.18 686.47 80.39 683.99 81.2 682.6 82.13 681.25 82.63 678.78 82.51 677.49 83.4 675.77 83.39 675.07 83.9 674.48 84.49 673.94 84.83 673.51 85.34 672.44 85.68 671.84 85.72 671.31 85.72 670.55 86.06 668.73 85.47 668.56 85.09 666.74 85.55 665.5 86.27 665.13 87.24 664.48 88 663.78 88.98 663.51 89.36 662.92 90.03 662.38 90.41 661.36 91.01 660.13 91.89 660.02 92.78 659.8 93.75 659.1 93.88 658.57 93.96 658.41 94.73 659.32 94.9 659.53 95.78 660.55 96.12 661.04 98.66 660.93 99.21 661.09 100.44 660.88 102.13 660.45 102.85 657.38 103.99 655.07 104.79 652.87 105.81 650.72 106.82 648.19 107.41 646.15 108.09 644.43 108.64 639.8 110.16 634 112.15 631.53 112.99 626.48 115.06 623.68 116.92 621.74 118.28 620.35 118.91 617.87 119.88 617.28 121.02 615.72 121.36 614.33 122.38 613.31 123.31 611.37 124.07 610.03 124.66 608.31 124.87 607.82 124.74 607.12 125.04 606.16 126.23 606.27 126.78 604.6 127.83 602.66 128.89 601.43 129.95 600.57 130.92 598.95 131.64 596.96 132.86 596.7 133.5 594.17 134.34 592.93 134.81 591.86 136.5 588.74 137.39 586.91 138.02 585.89 138.53 585.25 139.42 582.51 141.74 581.43 142.72 579.98 143.82 578.64 144.66 577.24 145.38 575.79 146.18 574.5 146.86 571.17 148.55 569.12 150.16 567.89 151.09 566.81 151.85 566.22 152.82 565.2 152.82 564.72 152.74 564.23 152.82 563.48 153.33 562.94 153.96 561.55 155.57 561.71 156.08 561.76 156.33 561.17 157.09 560.53 157.73 559.56 158.32 559.67 159.25 559.23 160.1 558.48 160.94 558.32 160.98 557.09 161.66 556.28 162.63 555.2 163.31 553.32 163.52 552.46 163.86 551.28 164.2 550.96 165 550.74 165.55 551.28 166.57 552.25 167.45 553.16 168.43 554.4 169.27 554.4 170.08 553.86 170.75 552.62 170.58 551.76 170.96 550.96 171.47 550.74 173.08 549.94 173.75 549.56 174.6 548.49 174.9 548.49 175.74 546.61 176.72 546.5 177.39 545.05 178.45 544.67 179.21 543.86 179.72 542.63 180.56 540.37 182.09 537.52 183.27 534.46 183.35 532.04 183.78 529.57 184.37 527.31 185.3 525 185.89 522.26 186.95 518.77 188.51 513.34 191.01 509.15 192.45 507.86 192.57 507 192.4 505.12 193.29 503.51 193.46 502.11 193.38 500.44 193.46 500.07 194.22 499.42 194.48 497.81 195.03 496.41 195.58 495.02 196.34 494.05 196.8 493.35 197.61 492.71 198.24 490.99 198.2 489.7 198.83 488.24 199.04 486.69 199.21 485.07 199.21 483.03 199.55 481.8 200.31 480.35 200.48 479.54 200.48 478.52 200.57 477.5 200.91 476.48 201.2 475.24 201.33 474.27 201.54 472.98 201.75 472.02 201.71 470.78 202 470.41 201.92 469.22 202.55 467.83 202.55 466.11 202.89 464.44 202.94 462.99 203.4 461.59 203.65 461 203.44 458.58 204.54 457.19 205.3 455.14 206.78 453.26 208.01 452.3 208.39 451.44 208.9 451.33 209.49 450.36 209.58 450.25 210 449.82 210.12 449.39 210.68 448.21 211.06 447.94 211.52 446.92 212.45 444.93 212.62 443.11 213.04 440.9 213.51 439.19 214.31 437.57 215.07 436.28 215.79 435.48 216.3 431.5 217.44 429.89 218.16 428.06 219.85 427.79 220.78 427.42 221.5 426.67 222.31 425.43 223.07 425 223.53 424.41 224.21 423.55 225.18 423.17 226.11 422.53 226.75 422.58 227.25 422.42 228.06 422.96 228.52 422.21 228.9 421.88 229.07 420.59 228.52 420.54 227.63 419.84 227 419.36 226.45 419.09 226.79 419.2 227.55 418.93 227.55 418.66 227.63 417.85 227.26 417.64 227.08 416.51 227.17 415.92 227.09 415.01 227.04 413.5 227 411.57 227.17 411.25 227.13 410.44 227.72 409.9 228.19 409.15 228.61 408.34 228.91 407.48 229.29 407 229.67 406.03 229.88 404.8 230.94 404.58 231.57 403.88 232.33 403.45 233.22 402.76 233.85 403.35 234.28 403.62 234.95 402.27 235.5 400.77 234.87 400.39 234.66 399.75 235.16 399.1 236.05 397.76 236.6 396.26 236.98 395.88 237.36 395.83 238.25 396.36 238.34 396.09 239.35 397.12 239.99 396.52 240.87 396.26 241.97 397.33 242.78 397.39 243.62 397.82 244.98 396.36 245.82 395.18 246.5 393.79 247.09 391.85 249.33 391.21 249.46 390.56 248.91 390.94 248.06 391.64 247.09 390.72 246.33 391.58 245.44 392.71 244.13 393.36 242.52 393.09 242.4 392.44 242.91 392.17 243.16 391.42 242.86 389.22 243.12 388.79 243.46 388.73 244.43 388.57 245.65 388.47 246.71 388.63 247.39 388.09 247.94 387.77 249.21 386.75 249.33 386.37 248.45 382.88 249.04 382.66 249.59 382.02 249.59 381.05 250.56 379.44 251.75 376.59 252.46 374.28 253.18 373.05 253.44 372.13 254.62 371.38 254.58 369.23 255.72 368.43 255.85 367.78 256.82 366.44 258.34 365.53 258.64 363.97 258.77 362.19 258.68 361.34 259.44 359.24 259.66 357.52 260.08 355.37 260.59 353.81 261.1 352.68 261.98 351.56 263 350.91 263.59 350.81 264.52 350.16 265.45 350.91 266.85 349.57 268.29 347.58 268.58 345.11 269.09 343.39 269.34 341.35 269.43 338.61 269.43 336.68 270.15 335.06 270.4 333.08 270.61 331.09 270.83 329.1 271.29 327.11 271.84 324.64 272.22 322.55 272.65 320.4 273.03 318.73 273.28 317.33 273.62 315.29 274 314.06 274.76 312.23 274.93 310.99 275.48 308.79 275.86 307.18 275.9 306.16 276.24 305.57 277.13 304.06 277.3 302.67 277.51 300.73 277.81 298.05 279.37 296.92 279.93 295.79 280.69 294.56 281.45 293.21 281.83 292.52 282.13 292.3 282.89 291.06 283.56 290.9 284.16 290.8 284.66 290.04 284.66 289.94 284.32 289.02 284.45 288.97 285.42 288.33 285.51 287.84 285.64 287.47 285.98 286.34 286.06 286.44 287.92 285.42 288 285.21 287.96 284.78 288.3 284.03 289.15 283.01 289.44 281.34 289.57 280.54 290.25 279.78 291.35 278.82 291.52 277.9 292.36 276.94 293.12 276.02 293.5 275.22 293.67 275.17 296 274.79 296.72 273.34 297.52 273.34 298.07 274.15 298.2 274.09 299.13 273.72 299.81 274.47 300.36 274.47 301.46 274.79 302.34 274.69 303.49 274.79 304.54 276.03 304.29 276.46 304.42 276.08 305.22 275.71 305.77 275.22 306.91 274.47 307.71 273.83 308.77 272.97 309.79 272 310.97 271.09 311.56 270.39 312.07 270.39 313.04 270.34 314.02 270.77 314.99 271.84 315.58 272.59 315.58 272.7 315.96 272 318.37 271.25 318.33 270.77 318.46 269.53 319.01 268.14 319.05 267.28 319.68 266.63 320.36 265.99 320.74 265.45 321.84 264.86 322.98 264.22 323.36 263.95 324.13 263.25 325.18 262.07 326.24 261.59 327.76 260.84 328.74 259.81 329.03 258.31 329.03 257.13 328.65 257.02 328.57 256.05 328.36 255.78 327.13 255.73 326.2 254.71 325.31 254.12 324.51 253.8 323.49 253.85 321.89 253.69 320.41 253.9 318.72 254.12 317.49 253.9 316.98 253.47 316.77 252.23 316.77 251.11 316.35 251 315.76 251.05 314.49 251.37 312.96 251.64 311.61 251.8 309.88 251.85 308.82 251.85 307.55 252.01 306.07 252.39 305.14 253.46 304.08 254.27 303.32 255.13 302.52 256.47 302.26 257.49 302.18 258.57 301.67 259.37 300.61 260.39 299.56 259.96 299.26 259.48 299.13 259.8 298.5 260.61 297.74 261.3 296.81 262.06 295.88 262.92 294.52 263.88 294.18 264.9 292.58 265.87 291.39 265.65 290.72 265.87 290.21 266.51 290.12 266.41 289.49 266.14 288.98 266.24 287.67 265.92 286.66 265.49 286.45 263.07 288.22 262.21 288.47 261.57 288.43 260.55 288.18 260.28 288.05 259.58 288.1 259.26 288.86 258.78 288.98 258.29 288.94 257.81 288.82 257.81 288.48 256.95 288.69 256.73 288.27 257.49 287.42 257.38 287.25 256.73 287.38 255.93 287.72 254.1 288.14 252.6 289.28 251.9 289.66 251.58 289.54 251.36 289.45 250.02 290 249.91 290.59 249.43 290.97 248.41 291.14 248.35 291.57 247.55 291.78 246.69 291.78 245.83 292.2 245.45 292.41 244.06 292.79 243.2 293.26 242.34 293.73 241.37 294.23 240.51 294.74 239.97 295.33 239.28 295.97 238.15 296.52 237.02 297.11 236.38 297.03 236 297.36 235.68 297.7 234.66 298.38 233.8 298.51 232.89 299.52 231.92 300.71 232.03 301.76 232.35 302.35 232.56 303.03 232.08 303.16 231.92 303.54 232.08 304.26 231.71 304.93 230.9 305.7 230.69 306.03 230.26 306.97 229.88 307.73 229.24 307.85 228.32 307.6 227.78 306.92 227.52 306.29 227.19 305.06 227.19 303.75 227.19 303.2 227.08 302.57 226.6 302.44 226.22 302.14 225.36 301.85 224.72 301.47 224.56 300.96 224.18 300.84 223.59 300.88 220.15 302.1 220.15 301.77 217.47 302.57 216.82 303.12 216.55 304.01 215.91 305.02 213.98 305.24 212.74 305.36 211.56 306.25 210.97 307.44 210.75 308.7 209.63 309.47 208.66 309.64 207.53 309.64 206.08 309.59 205.22 309.59 204.52 309.85 203.93 310.27 202.48 310.99 201.41 310.95 200.71 310.78 199.58 310.99 198.72 311.46 197.97 312.09 196.57 313.02 195.5 313.57 194.48 314.08 193.89 314.38 193.03 314.17 192.81 314.12 191.68 313.32 191.2 312.52 190.18 312.35 189.11 312.69 187.76 313.45 186.69 314.21 185.18 313.96 185.29 313.11 185.4 312.6 185.56 311.72 185.45 310.79 184.65 310.57 184.11 310.49 182.71 310.49 182.17 310.74 180.83 311.76 179.65 312.48 178.68 312.48 178.04 312.35 177.66 311.85 177.66 310.92 177.55 309.98 177.39 309.1 176.37 309.05 176.21 309.82 175.94 310.24 175.3 310.45 174.54 311.38 173.79 311.8 172.72 312.23 170.95 312.78 170.03 313.5 169.77 314.22 169.23 314.51 168.32 315.19 168.1 315.99 168.21 316.25 169.5 315.78 170.57 316.16 169.87 316.75 168.96 317.35 168.05 317.9 166.6 318.78 165.52 318.07 165.36 317.73 164.56 317.56 163.96 317.47 163.27 317.73 162.09 317.94 161.87 317.52 161.92 316.46 161.55 316.16 160.53 316.71 159.56 316.93 158.7 317.43 158.38 318.07 158.27 318.87 158.43 319.38 158.92 319.72 159.88 320.22 159.29 320.9 160.1 321.62 160.9 321.45 161.92 320.52 163.11 320.01 163.86 319.84 164.34 320.22 163.86 321.07 163.11 321.87 162.52 322.21 161.5 322.76 160.69 323.56 160.1 324.24 159.67 325.17 159.62 326.31 158.44 327.92 156.83 329.11 155.7 329.53 154.68 330.04 153.34 330.97 152.1 331.94 150.92 333.25 149.31 334.27 148.23 334.61 146.89 335.11 145.06 335.41 143.08 335.67 141.68 335.79 140.28 335.84 138.73 335.88 137.33 336.68 136.52 337.23 135.61 337.91 134.59 338.21 133.84 338.38 133.3 337.91 133.03 337.36 132.66 336.69 131.8 336.86 130.83 337.28 130.19 338 129.38 339.27 128.68 340.62 127.72 341.47 126.91 341.85 126.37 341.26 126.37 340.49 126.32 339.95 126.16 339.44 125.62 339.35 124.65 339.18 124.65 338.42 124.92 337.45 124.7 336.98 123.09 337.03 122.23 336.86 122.02 336.48 122.45 335.59 122.72 334.79 122.88 333.69 122.12 333.18 121.43 332.97 120.03 333.31 118.47 334.03 118.2 333.9 118.2 332.97 117.99 332.93 117.56 333.1 117.24 333.82 116.43 334.32 115.57 334.41 115.14 334.28 113.69 334.71 112.35 335.13 110.95 335.13 110.52 334.54 111.11 333.95 110.63 333.78 110.47 332.76 110.3 331.58 109.87 330.18 109.77 328.91 109.33 328.07 107.88 327.86 106.33 327.82 105.41 327.86 104.18 328.62 102.94 329.21 102.4 328.83 101.65 328.75 101.65 329.42 100.69 329.64 100.36 329.97 99.4 330.06 99.02 330.74 98.59 330.95 98.11 330.95 96.93 331.63 96.82 332.13 97.41 332.51 96.66 333.53 96.88 334.12 95.8 334.5 94.62 335.52 93.01 336.83 91.29 337.93 90.7 338.78 90.54 339.49 90.86 340 90.86 340.55 90.43 341.02 89.9 341.57 89.2 342.37 89.42 343.17 88.77 343.43 88.77 344.27 88.77 344.53 87.75 345.42 87.21 346.26 86.03 347.79 84.96 348.17 83.62 348.72 82.38 349.23 80.61 349.56 79.27 349.78 77.82 349.73 77.22 349.27 76.53 349.06 76.1 349.78 75.88 350.58 77.28 350.88 77.66 351.47 76.64 352.31 75.61 352.36 74.92 352.31 74.38 352.95 75.08 354.01 75.29 354.77 74.76 355.28 74.27 356.08 73.68 356.76 71.59 357.81 70.78 357.52 70.3 356.97 69.71 356.04 67.67 356.55 66.97 356.59 65.25 357.35 64.12 356.76 63.58 355.66 62.03 356.55 60.79 356.42 59.29 356.3 57.03 356.68 54.99 357.19 52.79 357.7 50.21 358.46 47.31 360.02 46.56 360.07 46.02 360.15 45.16 360.28 44.57 360.32 43.55 360.75 42.85 361 42.05 360.79 41.35 360.75 40.7 360.83 40.06 360.83 39.47 360.07 38.82 359.39 38.66 358.72 37.85 358.72 37.42 358.63 37.16 357.96 36.99 356.82 36.13 356.06 35.43 355.29 34.36 354.58 33.39 354.49 31.19 355.17 29.69 355.34 26.3 350.94 22.48 345.7 19.36 341.56 18.5 340.42 15.6 335.6 15.33 335.3 15.38 334.63 16.24 333.95 17.1 333.74 17.85 333.36 18.49 332.64 18.87 331.96 19.08 331.2 19.08 330.52 19.13 329.8 19.73 328.83 19.83 328.03 19.72 327.52 19.24 327.1 19.24 326.42 19.83 325.78 20.74 324.94 21.55 324.22 22.14 323.37 22.78 322.48 23.53 321.22 24.34 319.99 25.2 318.38 26.16 316.56 26.59 315.5 27.4 314.32 27.77 313.3 27.82 312.33 27.77 311.15 27.98 310.34 27.82 309.92 27.07 309.88 26 309.97 25.4 310.35 24.33 311.11 22.13 311.74 19.71 313.27 19.71 313.82 19.61 314.58 19.29 315.68 18.64 316.36 18.53 316.99 18.8 317.71 19.02 318.51 18.91 319.27 18.81 320.63 18.59 321.13 18.27 321.47 17.09 323.04 16.98 323.63 16.98 324.56 16.61 325.03 15.91 325.83 15.37 326.51 15.43 327.05 15.37 328.07 15.64 329.09 15.43 330.19 14.19 331.2 12.69 331.84 11.29 332.01 4.41 326.64 4.41 326.54 1 323.86 1.2 323.23 1.33 322.74 1.77 322.28 2.28 321.9 2.63 321.56 3.02 320.57 3.1 319.66 3.16 318.85 3.13 318.28 3.06 317.58 2.96 316.95 2.61 316.46 2.51 315.93 2.75 315.47 2.7 314.85 2.52 314.14 2.44 313.63 2.45 312.99 2.59 312.3 2.8 311.7 3.08 311.22 3.27 310.46 3.27 309.69 3.33 309.12 3.52 308.68 3.68 308.38 4.42 307.84 4.42 308.88 5.9 306.63 6.44 305.15 7.24 303.67 7.51 302.07 7.72 300.21 8.85 298.85 9.06 297.12 8.74 296.23 7.5 295.64 6.7 295.26 6.86 294.45 6.86 293.86 6.86 293.36 7.66 292.04 8.47 293.48 10.19 292.89 12.6 292.34 14.43 292.38 15.99 291.24 16.85 289.76 17.65 288.74 18.67 288.11 18.99 286.24 20.49 284.68 21.3 283.71 22.32 283.03 23.07 281.13 24.2 280.83 25.16 280.53 26.24 279.43 27.04 278.75 28.23 278.54 29.73 277.06 29.78 275.62 29.62 274.61 28.97 273.72 28.38 272.96 27.63 272.5 26.39 272.24 24.73 272.29 22.36 272.63 20.48 273.39 17.8 273.94 16.67 274.07 16.03 273.31 15 272.54 14.2 271.15 15 269.75 15.81 269.96 16.88 270.34 19.03 269.88 21.61 269.58 24.35 268.99 26.77 268.06 28.75 267.04 31.01 265.64 32.78 264.42 34.71 263.1 36.32 261.96 37.13 261.28 38.15 260.44 39.71 259.21 40.89 258.36 41.05 257.77 41.69 256.76 42.93 255.57 44.32 253.88 45.4 252.95 46.74 252.52 47.28 251.47 48.14 250.92 48.51 250.71 48.62 249.86 50.34 248.85 51.79 248.42 52.49 247.45 52.75 247.28 53.29 247.37 54.96 247.66 58.13 248.63 60.44 248.75 62.27 249.01 63.23 250.95 64.42 252.01 64.9 253.07 64.85 254.17 64.26 254.72 63.51 256.07 62.27 256.54 61.95 257.97 62.27 258.86 62.22 260.09 61.74 261.15 61.68 262.41 61.63 263.64 62.01 264.53 63.24 265.29 65.45 265.88 68.08 265.79 69.53 265.12 70.55 265.07 71.3 264.95 72.16 264.44 73.18 263.59 74.26 263.08 75.65 262.45 77.53 260.97 78.99 262.74 79.68 263.21 79.85 264.1 79.53 265.28 79.36 266.25 79.47 267.18 79.74 267.95 79.69 268.88 79.37 269.17 79.26 269.64 79.31 269.93 80.07 270.19 81.14 270.57 81.25 271.29 82.22 271.58 83.45 272.26 84.15 272.21 85.55 272 85.76 271.66 86.41 271.41 87.16 271.07 87.64 270.73 87.86 270.27 88.66 269.51 89.9 268.49 90.38 267.98 90.49 267.22 90.65 266.8 91.29 267.01 92.47 267.18 93.12 267.14 94.09 267.31 94.73 267.09 95.86 266.71 96.56 266.8 97.47 267.64 98.12 268.28 98.71 269.08 99.62 269.29 100.43 269.71 101.67 269.84 102.58 270.26 101.18 270.6 100.27 271.02 98.71 271.41 98.44 272.29 98.07 272.76 96.94 272.67 96.67 273.69 95.6 274.24 95.6 274.75 95.11 274.92 93.88 275.47 93.99 276.02 92.91 276.82 92.96 275.85 91.95 276.53 92.11 277.03 93.18 278.09 93.93 278.55 93.45 278.81 93.56 279.4 93.72 280.46 94.74 280.71 94.47 281.72 93.99 281.98 93.4 282.49 92.76 282.74 92.54 283.5 92.43 284.26 93.24 284.52 93.88 284.98 93.67 285.79 94.21 286.72 93.62 287.31 93.78 288.07 93.24 288.28 93.35 289.46 94.1 290.94 94.32 291.24 94.32 292.21 94.11 292.85 93.68 293.44 92.71 294.33 91.69 294.92 90.29 295.01 90.13 295.68 89.38 296.36 89.7 297.08 90.19 297.67 90.19 298.09 90.24 298.47 90.51 298.69 90.13 299.02 89.92 299.45 89.87 300 90.4 300.29 91.75 300.29 93.14 300.29 94.65 300.04 95.56 299.53 96.58 299.19 97.23 299.36 98.35 299.06 99.16 299.23 99.59 298.68 100.29 299.36 100.67 298.85 101.26 299.44 101.9 299.36 102.49 299.86 103.14 300.5 103.41 300.2 104.86 300.2 105.02 300.79 106.04 300.62 106.42 301.09 106.79 301.47 107.33 301.05 108.3 301.55 108.56 301.98 109.58 301.47 110.01 300.41 110.87 299.44 111.68 298.08 111.46 297.91 111.25 297.45 112.11 296.94 112.8 295.55 113.66 294.49 115.49 293.18 116.89 291.87 118.12 290.85 118.71 289.62 118.55 288.78 118.12 288.06 118.65 286.54 119.24 286.03 119.35 285.1 120.37 283.58 120.91 281.84 121.61 280.19 121.71 278.58 121.71 277.02 122.19 276.51 123.05 274.82 123.59 273.51 125.31 270 125.47 267.8 126.43 266.53 127.34 264.92 128.95 264.2 129.55 264.07 130.35 263.61 131.53 262.47 132.45 261.41 132.82 260.14 133.68 259.21 134.81 258.62 135.45 257.77 135.29 257.18 135.56 256.08 136.31 255.36 136.69 253.92 137.49 252.36 138.03 251.13 138.56 249.95 139.74 248.64 141.03 247.03 142.38 246.14 144.15 245.34 145.06 245 147.05 244.78 148.07 243.85 149.52 243.35 150.76 242.92 151.94 242.67 152.26 241.78 154.3 241.27 155.48 240.81 155.97 239.96 156.66 239.41 157.85 237.85 159.4 236.41 160.91 234.93 162.09 235.73 161.6 235.73 161.23 236.49 160.58 237.46 159.35 238.35 159.35 239.28 159.73 239.79 160.32 239.66 160.96 239.11 162.2 238.65 162.79 238.05 163.22 236.7 163.32 236.79 163.92 237.55 164.13 238.31 164.56 239.15 164.83 239.7 164.62 240.63 164.56 241.61 164.35 242.58 163.81 242.92 163.65 243.38 163.76 244.23 164.4 245.45 165.1 246.22 165.86 246.6 166.88 247.23 167.74 248.16 167.52 249.34 167.79 249.89 167.74 251.16 168.44 251.63 169.19 251.33 169.46 252.01 169.51 252.77 170.7 252.39 171.07 252.26 171.45 253.11 171.29 253.74 170.86 254.33 169.62 254.88 169.62 255.35 168.44 256.24 168.49 257 169.03 257.29 169.19 258.22 169.09 259.03 168.23 259.54 168.01 260.17 169.09 260.21 170.81 259.96 171.45 259.62 172.31 260.38 173.92 260.25 174.89 260 175.97 259.45 176.72 258.81 177.47 259.53 178.38 260.21 177.58 260.8 177.42 261.35 176.4 261.56 175.81 261.86 175.81 262.66 176.24 263.08 175.43 263.76 175.32 264.19 176.4 264.44 Z M 270.37 254.22 269.72 254.56 268.86 254.85 268.7 255.28 268.33 255.53 267.68 255.53 267.52 255.66 267.68 255.91 267.31 256.42 267.25 256.8 267.14 257.14 267.52 257.35 267.9 257.56 268.11 257.77 268.38 258.11 268.92 258.66 268.38 258.91 268.54 259.17 269.35 259.21 270.15 259.12 270.48 259.21 270.69 259.46 270.58 259.67 270.69 259.97 270.91 259.97 271.01 260.27 271.66 260.27 272.09 260.18 272.57 259.8 273.11 259.8 273.86 259.46 274.72 259.34 275.85 259.29 276.28 259.12 276.71 258.7 277.41 258.49 277.62 258.15 278.64 257.64 279.18 257.6 279.77 257.09 280.15 256.25 280.63 256.03 280.9 255.32 281.38 254.81 281.27 254.6 281.65 254.09 281.86 253.62 281.97 253.12 281.49 252.86 281.27 252.78 280.9 252.86 280.9 252.4 280.52 252.4 280.25 252.44 280.15 252.19 279.5 252.19 279.39 252.36 278.91 252.23 278.69 251.97 278.16 251.93 277.83 252.23 277.51 252.48 277.35 252.86 276.87 252.74 276.65 252.65 275.69 252.95 275.04 252.95 274.61 252.61 274.02 252.99 273.48 253.12 273 253.25 272.84 253.03 272.25 253.12 272.35 253.46 271.6 253.5 270.74 253.92 270.37 254.22 Z M 313.13 222.32 312.86 222.62 312.48 222.83 312.32 222.7 312.75 222.24 313.13 221.73 313.5 221.39 313.34 221.26 312.75 221.48 312.37 221.9 312.1 221.77 312.27 221.43 312.1 221.35 311.67 221.43 311.46 221.52 310.44 222.07 309.63 222.45 308.99 222.87 308.4 223.25 308.08 223.59 308.02 224.4 307 224.9 306.89 225.2 306.36 225.58 305.98 225.96 305.44 226.17 305.17 226.76 304.53 227.31 303.94 227.48 303.19 228.54 302.92 228.33 302.49 228.75 301.63 229.22 301.47 229.81 301.84 230.02 302.49 229.6 302.97 229.56 303.13 229.64 303.62 230.11 303.3 230.49 303.62 230.82 304.37 231.12 305.66 230.02 306.36 229.05 306.9 228.96 307.43 228.75 308.02 228.41 308.34 228.2 308.77 228.2 309.42 228.41 310.82 227.99 311.25 227.44 311.46 227.1 312.05 227.06 312.37 227.23 312.8 227.23 313.02 226.76 313.5 226.38 314.04 226.42 314.47 226.26 315.06 226.04 315.49 225.79 316.14 225.28 316.35 224.94 316.51 224.52 316.78 224.31 317.26 223.67 317 223.46 316.51 223.59 316.51 223.12 316.08 222.91 316.35 222.03 316.03 221.94 316.24 221.26 316.51 220.88 316.94 220.71 317.48 220.42 317.37 220 316.72 220 316.24 220.46 315.7 221.05 315.22 221.65 315.11 221.18 314.58 221.52 313.34 222.24 313.13 222.32 Z M 332.21 265.96 331.89 266.05 331.46 266.47 331.57 266.89 331.68 267.1 331.68 267.36 332.11 267.4 332.22 267.7 332 267.74 331.95 268.2 332.22 268.5 332.32 268.8 332.32 269.13 332.22 269.43 332.59 269.47 333.13 269.43 333.72 269.35 334.1 269.18 334.58 268.8 334.96 268.63 335.17 269.05 335.33 269.22 336.03 269.01 336.51 268.88 337.32 268.67 338.02 268.62 338.39 268.62 339.04 268.5 339.58 268.37 340.38 268.24 340.97 268.07 341.51 267.86 342.05 267.61 342.75 267.48 343.01 267.36 343.23 266.97 343.34 266.64 343.39 266.34 343.61 266.13 343.23 265.96 343.12 265.58 343.12 265.11 343.01 264.73 342.96 264.44 342.64 263.93 342.75 263.64 342.64 263.3 342.37 263.17 341.72 263.08 341.56 262.96 341.13 262.96 341.03 262.62 340.76 262.62 340.17 262.75 339.36 263 339.41 263.3 339.9 263.38 339.74 263.68 338.93 263.59 338.77 263.13 338.55 263.55 338.34 263.85 337.91 263.93 337.26 264.19 336.84 264.44 336.3 264.61 336.03 264.52 335.44 264.31 335.28 264.19 335.28 264.06 334.58 264.06 334.04 264.14 334.04 264.4 334.09 264.99 333.83 265.2 333.13 265.29 332.7 265.37 332.21 265.96 Z M 64.28 285.55 63.26 285.59 62.24 285.63 61.43 285.93 60.74 286.35 59.55 286.86 58.8 287.11 58.37 287.24 58.48 287.75 58.7 288.04 58.48 288.8 59.13 289.48 59.67 290.03 59.56 290.75 59.99 291.21 61.01 291.13 61.01 290.54 61.28 289.48 61.6 288.55 62.19 287.91 63.42 287.83 63.69 288.25 64.12 288.59 64.82 288.46 65.36 288.12 65.47 287.19 65.84 286.39 65.84 285.76 65.09 285.59 64.28 285.55 Z M 158.14 273.03 158.67 273.45 159.05 273.54 159.32 273.41 159.69 273.37 160.34 273.33 160.5 273.2 160.72 273.2 160.93 273.2 161.09 272.94 161.04 272.52 161.04 272.23 161.63 271.93 161.68 272.18 161.9 272.44 162.49 272.35 162.65 272.06 162.86 271.68 162.76 271.55 163.02 271.17 163.29 270.96 163.51 270.49 163.72 270.15 164.1 269.77 164.74 269.6 164.37 269.31 164.15 269.05 163.88 268.59 163.83 268.25 163.18 268.29 162.59 268.29 162.06 268.42 161.52 268.67 161.03 268.88 160.5 269.39 160.12 269.73 159.69 270.03 159.26 270.2 158.67 270.41 158.4 270.58 157.87 270.79 157.44 271.21 157.6 271.42 157.71 271.68 157.81 271.93 158.35 271.85 158.56 272.06 158.03 272.48 157.44 272.73 157.22 272.9 157.44 273.2 158.14 273.03 Z M 54.94 290.75 55.21 290.33 55.31 289.65 56.01 288.85 56.92 287.45 56.98 286.77 56.97 285.8 56.97 285.17 56.65 284.96 55.9 285.04 55.09 285.3 54.34 285.63 53.97 286.1 53.43 286.48 53.11 286.86 52.3 287.45 52.2 287.92 52.25 288.6 52.52 289.1 52.73 289.78 53.43 290.03 54.29 290.24 54.94 290.75 Z M 62.24 285.04 62.83 284.78 63.47 284.66 63.74 284.36 64.39 284.23 64.92 283.98 65.84 283.9 66.59 283.64 67.5 283.05 68.15 283.09 68.74 282.37 69.33 281.69 69.97 280.43 68.74 280.17 67.39 281.19 66.7 282.16 66.05 282.2 65.19 282.2 64.92 281.4 64.49 281.1 62.83 281.61 62.83 282.54 63.37 282.88 62.51 283.6 61 284.11 60.79 284.62 61.27 285 61.6 284.87 62.24 285.04 Z M 545.37 146.65 544.57 146.56 543.87 146.56 543.65 146.77 543.06 147.45 542.31 147.92 541.93 148.21 541.55 148.59 541.34 149.02 541.66 149.14 541.82 149.82 542.04 150.03 542.2 150.41 542.31 150.71 542.36 151.09 542.42 151.38 543.01 151.38 542.84 150.96 543.06 150.41 543.87 149.95 544.3 149.82 545.26 149.4 545.53 148.85 545.91 148.34 546.12 147.79 546.23 147.41 546.23 147.11 546.12 146.86 545.91 146.73 545.59 146.65 545.37 146.65 Z M 251.3 265.47 251.67 265.26 252.26 265.18 253.12 265.18 253.66 265.18 254.31 264.92 254.84 264.96 255.76 264.54 256.13 264.2 256.29 264.12 256.51 263.7 256.62 263.31 257.26 262.55 257.58 262.26 257.85 261.83 258.28 261.54 258.33 261.33 258.33 260.99 258.33 260.56 258.17 260.27 257.58 260.35 256.94 260.65 256.78 261.16 256.67 261.41 256.45 261.79 256.24 262 256.02 262.3 255.49 262.68 255.54 263.06 254.9 263.15 254.36 263.48 253.77 263.99 253.29 264.37 253.07 264.75 252.37 264.67 252.32 264.5 252.26 264.37 251.89 264.29 251.4 264.88 251.14 265.3 251.3 265.47 Z M 364.56 250.73 364.13 250.56 363.8 250.48 363.64 249.93 363.54 249.46 363.16 249.59 362.62 249.72 362.62 249.21 362.57 248.83 362.3 248.74 362.14 249.04 361.71 249.42 361.33 249.8 360.31 250.23 360.31 250.48 360.74 250.35 360.85 250.61 360.96 251.07 361.33 251.32 361.44 251.45 361.98 251.37 362.3 251.24 362.57 251.79 362.73 252 363.54 251.92 364.07 251.7 364.56 251.45 364.56 250.99 364.56 250.73 Z M 558.64 145.38 558.32 145.67 558.05 145.8 557.73 146.18 557.46 146.56 557.3 147.11 557.41 147.24 557.68 147.49 557.89 147.62 558.22 147.66 558.7 147.41 559.07 147.16 559.29 146.77 559.67 146.56 559.88 146.35 559.99 146.1 560.31 145.84 560.53 145.63 560.74 145.42 561.01 145.08 561.01 144.83 560.53 144.83 560.1 144.96 559.67 145 559.45 145.13 559.08 145.17 558.7 145.21 558.64 145.38 Z M 396.95 233.81 396.95 233.43 396.69 233.43 396.42 233.73 396.04 234.19 395.56 234.45 395.07 234.57 394.91 234.66 394.11 234.74 394.05 235.17 394.05 235.55 394.05 236.01 394.48 236.05 394.91 236.01 395.29 235.93 395.5 235.8 395.61 235.5 396.25 235.46 396.68 235.38 397.06 234.95 396.79 234.79 396.95 234.32 396.95 233.81 Z M 156.45 320.23 156.82 320.23 157.09 319.85 157.47 319.85 157.63 320.06 157.95 319.93 158.11 319.68 157.57 319.34 157.63 319.08 157.89 318.87 157.9 318.49 157.79 318.2 157.46 317.98 157.2 317.98 156.93 318.03 156.82 318.28 156.82 318.53 156.93 318.87 156.93 318.96 156.82 319.17 156.45 319.38 156.23 319.59 156.02 319.76 155.8 319.97 155.96 320.1 156.45 320.23 Z M 248.29 265.26 248.56 265.05 248.45 264.8 248.18 264.76 247.75 264.75 247.75 264.97 247.32 264.97 247.11 265.26 246.78 265.47 246.57 265.77 246.14 266.07 245.93 266.4 245.66 266.62 245.66 266.79 246.3 266.74 246.79 266.7 246.89 266.45 247.54 266.32 247.54 266.15 247.97 265.94 247.97 265.68 248.07 265.39 248.29 265.26 Z M 560.63 144.62 560.9 144.45 561.12 144.45 561.33 144.36 561.44 144.24 561.55 143.77 561.66 143.39 561.17 143.31 560.69 143.26 560.53 143.35 560.47 143.73 560.1 143.81 559.72 143.81 559.29 143.81 558.86 143.9 558.86 144.41 559.29 144.45 559.94 144.45 560.1 144.57 560.63 144.62 Z M 358.86 249.3 359.08 249.51 359.24 249.72 359.51 249.93 359.83 249.85 360.2 249.63 360.47 249.25 360.63 248.83 360.63 248.45 360.15 248.53 359.5 248.83 358.86 249.3 Z M 271.35 302.26 271.84 302.18 272.21 302.01 272.8 301.92 273.23 301.84 273.23 301.67 272.64 301.5 272.7 301.08 272.48 300.91 272.11 301.08 272 301.58 271.57 301.58 271.08 301.67 270.98 302.01 271.35 302.26 Z M 145.28 248.42 145.06 248.63 145.06 248.8 145.23 249.06 145.39 249.35 145.76 249.61 145.92 249.9 146.3 249.73 146.52 249.52 146.52 249.4 146.3 249.1 146.3 248.85 146.19 248.59 145.76 248.38 145.28 248.42 Z M 403.56 212.07 403.45 212.16 403.02 212.24 402.86 212.67 402.97 212.79 403.24 212.79 403.61 212.58 403.77 212.33 404.69 212.16 404.74 212.03 404.47 211.65 404.31 211.44 403.88 211.35 403.45 211.44 403.45 211.9 403.56 212.07 Z M 166.65 317.81 167.08 317.73 167.3 317.3 167.24 316.88 166.86 316.59 166.76 316.33 166.22 316.37 166.06 316.8 166.22 317.05 166.38 317.3 166.38 317.64 166.65 317.81 Z M 255.81 261.5 256.13 261.12 255.97 261.03 255.7 260.95 255.22 261.16 254.73 261.33 254.52 261.67 255.11 262 255.7 261.88 255.81 261.5 Z M 335.69 212.51 336.34 212.46 336.82 212.34 337.3 212.08 337.25 211.87 336.82 211.83 336.6 211.87 336.5 211.58 336.17 211.96 335.48 212.13 335.64 212.42 335.69 212.51 Z M 272.59 303.57 272.8 303.19 272.8 302.85 272.8 302.51 272.43 302.47 272 302.47 271.89 302.64 271.89 302.81 272 303.23 272.21 303.53 272.59 303.57 Z M 126.86 266.7 126.65 267.12 126.7 267.46 126.97 267.42 127.45 267.21 127.94 266.87 127.83 266.44 127.45 266.44 127.13 266.53 126.86 266.7 Z M 340.15 196.73 339.88 196.82 339.34 197.03 339.18 197.15 339.5 197.49 339.56 197.79 339.56 197.92 339.77 197.96 340.09 197.75 340.15 197.11 340.15 196.73 Z M 194.23 246.93 194.5 247.26 194.55 247.47 194.66 247.6 194.87 247.56 195.25 247.35 195.25 247.01 195.03 246.92 194.87 246.59 194.66 246.59 194.49 246.71 194.23 246.93 Z M 251.35 263.32 251.62 263.06 251.35 262.98 251.14 262.94 250.65 263.06 250.44 263.32 250.44 263.61 250.38 263.78 250.65 263.87 251.03 263.57 251.24 263.44 251.35 263.32 Z M 401.09 233.85 400.98 234.28 401.2 234.78 401.41 234.66 401.74 234.4 402 233.9 401.84 233.81 401.41 233.85 401.09 233.85 Z M 286.86 245.93 286.64 245.71 286.43 245.93 285.84 246.1 285.62 246.14 285.46 246.48 285.57 246.6 286.05 246.6 286.43 246.35 286.64 246.22 286.81 246.05 286.86 245.93 Z M 384.97 243.84 385.35 243.67 385.51 243.54 385.51 243.33 385.4 243.29 385.13 243.41 384.65 243.62 384.44 243.84 384.54 244.01 384.97 243.84 Z M 260.16 260.23 260.48 259.8 260.75 259.59 260.81 259.38 260.16 259.42 260.05 259.89 260.16 260.23 Z M 64.5 355.45 64.5 355.66 64.87 355.87 65.14 355.75 65.25 355.45 65.09 355.24 64.5 355.45 Z M 249.79 267.55 250.06 267.46 250.33 267.33 250.44 267.21 250.6 266.99 250.39 266.91 250.01 267.04 249.79 267.33 249.79 267.55 Z M 334.08 213.48 334.4 213.35 334.45 213.1 334.19 212.97 334.03 212.97 333.86 212.97 333.81 213.18 333.86 213.39 334.08 213.48 Z M 254.3 261.96 254.14 261.79 253.88 261.75 253.77 261.92 253.66 262.17 253.88 262.34 254.25 262.17 254.3 261.96 Z M 763.29 52.29 763.18 52.16 762.8 52.2 762.59 52.33 762.75 52.59 763.18 52.59 763.29 52.54 763.29 52.29 Z M 393.41 234.24 393.3 234.4 393.09 234.53 393.08 234.79 393.3 234.91 393.46 234.95 393.57 234.57 393.57 234.4 393.41 234.24 Z M 158.46 276.37 158.03 276.46 158.03 276.67 158.3 276.84 158.41 276.84 158.67 276.67 158.67 276.54 158.46 276.37 Z M 39.36 358.3 39.63 358.04 39.79 357.96 39.79 357.74 39.57 357.74 39.41 357.75 39.2 357.87 39.25 357.96 39.2 358.25 39.36 358.3 Z M 85.71 274.37 85.82 274.12 85.82 273.69 85.55 273.53 85.44 274.03 85.71 274.37 Z M 29.62 273.26 29.89 273.21 30.16 273.13 30.05 272.96 29.89 272.79 29.72 272.79 29.51 272.96 29.51 273.13 29.62 273.26 Z M 162.84 242.03 162.58 242.28 162.74 242.54 162.84 242.58 163.06 242.54 163.17 242.33 162.84 242.03 Z M 167.03 316.25 167.19 316.2 167.4 316.08 167.51 315.87 167.3 315.7 167.03 315.78 166.97 316.04 167.03 316.25 Z M 694.97 48.13 695.29 48.13 695.4 48 695.51 47.92 695.51 47.75 695.4 47.62 695.29 47.62 695.13 47.75 694.97 48 694.97 48.13 Z M 124.07 274.9 124.07 275.07 124.07 275.2 124.23 275.24 124.5 275.03 124.5 274.9 124.45 274.78 124.07 274.69 124.07 274.9 Z M 418.02 226.28 418.18 226.2 418.28 226.07 418.45 225.94 418.45 225.73 418.28 225.69 418.07 225.82 417.96 225.94 417.96 226.11 418.02 226.28 Z M 269.21 313.34 269.1 313.55 269.37 313.72 269.43 313.85 269.53 313.89 269.69 313.85 269.69 313.64 269.53 313.51 269.21 313.34 Z M 129.12 265.39 129.22 265.64 129.39 265.6 129.6 265.43 129.55 265.22 129.44 265.17 129.17 265.17 129.12 265.39 Z M 556.76 148.47 556.98 148.47 557.09 148.3 557.09 148.08 557.09 147.92 556.82 148 556.82 148.21 556.76 148.47 Z M 733.09 31.52 733.41 31.43 733.46 31.09 733.25 31.09 733.08 31.26 733.03 31.43 733.09 31.52 Z M 758.46 25.9 758.51 25.73 758.57 25.64 758.51 25.52 758.3 25.64 758.08 25.81 758.24 25.94 758.46 25.9 Z" fill-rule="evenodd"/>
</g>
</svg>