<?xml version="1.0"?>
<svg xmlns="http://www.w3.org/2000/svg" version="1.2" baseProfile="tiny" width="800" height="975" viewBox="0 0 800 975" stroke-linecap="round" stroke-linejoin="round">
<g id="gooselake">
<path d="M 793.93 960.78 793.94 960.79 793.94 960.79 793.94 960.81 793.94 960.81 793.95 960.81 793.95 960.83 793.96 960.84 793.96 960.84 793.97 960.85 793.97 960.86 793.97 960.87 793.97 960.88 793.97 960.9 793.96 960.94 793.97 960.97 793.97 960.97 793.98 960.98 793.98 960.98 793.98 961 794 961.03 794 961.03 794.02 961.05 794.03 961.07 794.04 961.08 794.04 961.08 794.06 961.1 794.08 961.12 794.08 961.12 794.09 961.12 794.09 961.12 794.1 961.12 794.11 961.11 794.11 961.11 794.11 961.08 794.13 961.04 794.13 961.02 794.12 961.01 794.11 960.99 794.11 960.99 794.09 960.95 794.07 960.93 794.07 960.92 794.07 960.92 794.05 960.88 794.03 960.85 794.03 960.84 794.03 960.83 794.04 960.83 794.05 960.82 794.06 960.82 794.06 960.81 794.07 960.79 794.07 960.79 794.09 960.78 794.1 960.78 794.11 960.79 794.12 960.8 794.12 960.81 794.13 960.82 794.13 960.82 794.15 960.82 794.15 960.82 794.16 960.83 794.16 960.83 794.16 960.83 794.18 960.87 794.18 960.87 794.18 960.87 794.19 960.87 794.2 960.87 794.2 960.85 794.2 960.85 794.2 960.85 794.19 960.8 794.19 960.79 794.19 960.78 794.19 960.77 794.2 960.77 794.24 960.77 794.25 960.77 794.25 960.77 794.25 960.77 794.25 960.77 794.26 960.77 794.26 960.77 794.27 960.78 794.29 960.79 794.31 960.81 794.33 960.83 794.33 960.84 794.34 960.85 794.34 960.85 794.35 960.86 794.37 960.89 794.45 960.97 794.48 961 794.49 961.01 794.5 961.03 794.5 961.03 794.5 961.03 794.5 961.03 794.5 961.03 794.53 961.08 794.55 961.1 794.57 961.12 794.58 961.14 794.59 961.14 794.59 961.14 794.59 961.15 794.59 961.15 794.61 961.17 794.62 961.19 794.63 961.21 794.63 961.22 794.65 961.22 794.65 961.22 794.66 961.23 794.67 961.24 794.68 961.27 794.69 961.3 794.69 961.31 794.71 961.37 794.71 961.37 794.71 961.4 794.71 961.4 794.71 961.41 794.71 961.44 794.72 961.48 794.72 961.48 794.72 961.49 794.72 961.49 794.72 961.5 794.74 961.53 794.75 961.54 794.84 961.7 794.89 961.85 794.94 962.03 794.98 962.22 795.11 962.37 795.15 962.52 795.17 962.67 795.18 962.79 795.25 962.89 795.36 962.99 795.42 963.09 795.54 963.19 795.61 963.16 795.61 963.09 795.69 963.05 795.73 962.93 795.71 962.82 795.71 962.73 795.81 962.86 795.92 962.92 795.99 962.96 795.99 963.05 796.05 963.16 796.01 963.18 795.96 963.23 795.95 963.29 796 963.42 795.95 963.54 795.81 963.68 795.76 963.8 795.8 963.94 795.79 963.98 795.78 964 795.77 964 795.77 964 795.76 964.06 795.75 964.07 795.74 964.08 795.73 964.1 795.72 964.15 795.72 964.18 795.72 964.21 795.73 964.21 795.73 964.21 795.73 964.22 795.73 964.22 795.73 964.22 795.74 964.27 795.75 964.36 795.75 964.36 795.76 964.36 795.76 964.39 795.76 964.41 795.77 964.42 795.82 964.43 795.83 964.44 795.85 964.45 795.85 964.46 795.86 964.49 795.87 964.54 795.88 964.57 795.88 964.57 795.89 964.59 795.9 964.61 795.92 964.62 795.92 964.62 795.93 964.62 795.94 964.63 795.95 964.64 795.95 964.64 795.95 964.66 795.96 964.68 795.96 964.69 795.96 964.69 795.94 964.71 795.94 964.71 795.94 964.71 795.94 964.72 795.94 964.73 795.94 964.73 795.95 964.76 795.95 964.77 795.95 964.78 795.94 964.8 795.93 964.82 795.92 964.83 795.91 964.85 795.9 964.86 795.86 964.89 795.86 964.89 795.84 964.91 795.84 964.91 795.83 964.92 795.83 964.92 795.83 964.93 795.83 964.97 795.83 964.97 795.83 965 795.83 965.02 795.83 965.02 795.83 965.03 795.82 965.04 795.8 965.06 795.8 965.06 795.78 965.08 795.77 965.09 795.77 965.1 795.77 965.11 795.78 965.11 795.8 965.13 795.8 965.14 795.8 965.14 795.79 965.16 795.79 965.18 795.78 965.18 795.77 965.19 795.76 965.2 795.76 965.21 795.75 965.23 795.72 965.28 795.71 965.33 795.7 965.41 795.69 965.42 795.69 965.44 795.68 965.49 795.68 965.5 795.68 965.5 795.68 965.54 795.69 965.54 795.68 965.59 795.68 965.62 795.67 965.65 795.67 965.71 795.68 965.75 795.68 965.76 795.68 965.81 795.68 965.81 795.69 965.87 795.69 965.88 795.69 965.88 795.69 965.91 795.71 965.95 795.71 965.95 795.71 965.98 795.71 965.99 795.72 965.99 795.72 965.99 795.72 966 795.72 966 795.73 966.01 795.73 966.01 795.74 966.03 795.76 966.08 795.77 966.09 795.77 966.1 795.78 966.11 795.78 966.11 795.78 966.12 795.79 966.12 795.79 966.12 795.82 966.15 795.83 966.16 795.83 966.17 795.83 966.18 795.83 966.18 795.8 966.19 795.8 966.19 795.8 966.2 795.78 966.21 795.78 966.23 795.79 966.25 795.79 966.26 795.8 966.26 795.8 966.26 795.81 966.26 795.81 966.25 795.8 966.25 795.8 966.23 795.8 966.22 795.81 966.21 795.82 966.21 795.85 966.21 795.86 966.21 795.87 966.22 795.9 966.33 795.9 966.34 795.9 966.35 795.9 966.35 795.87 966.35 795.85 966.36 795.83 966.36 795.83 966.35 795.83 966.35 795.82 966.34 795.81 966.28 795.81 966.28 795.81 966.28 795.8 966.28 795.79 966.28 795.79 966.29 795.81 966.36 795.82 966.37 795.82 966.37 795.84 966.37 795.87 966.37 795.9 966.36 795.91 966.36 795.91 966.37 795.91 966.37 795.91 966.37 795.91 966.37 795.91 966.37 795.92 966.4 795.92 966.4 795.92 966.44 795.92 966.45 795.92 966.46 795.92 966.47 795.92 966.47 795.88 966.48 795.88 966.48 795.87 966.5 795.87 966.5 795.86 966.51 795.85 966.52 795.84 966.53 795.84 966.53 795.84 966.54 795.84 966.54 795.84 966.55 795.84 966.55 795.84 966.55 795.85 966.56 795.86 966.58 795.87 966.6 795.87 966.61 795.85 966.65 795.84 966.66 795.84 966.67 795.84 966.7 795.84 966.7 795.84 966.7 795.84 966.71 795.84 966.72 795.85 966.73 795.86 966.74 795.87 966.74 795.87 966.74 795.87 966.75 795.87 966.75 795.86 966.79 795.86 966.8 795.86 966.8 795.87 966.82 795.89 966.83 795.91 966.84 795.92 966.85 795.92 966.87 795.94 966.89 795.95 966.9 795.95 966.91 795.95 966.91 795.97 966.92 796 966.93 796.01 966.94 796.05 966.95 796.07 966.95 796.08 966.96 796.1 966.97 796.17 966.98 796.19 966.98 796.2 966.99 796.21 967 796.23 967.03 796.23 967.03 796.23 967.04 796.23 967.04 796.24 967.08 796.24 967.08 796.25 967.12 796.26 967.12 796.28 967.17 796.28 967.18 796.3 967.2 796.3 967.2 796.31 967.24 796.33 967.27 796.33 967.28 796.34 967.31 796.35 967.33 796.35 967.34 796.35 967.38 796.35 967.38 796.35 967.39 796.35 967.39 796.36 967.4 796.38 967.43 796.38 967.43 796.38 967.44 796.39 967.48 796.39 967.48 796.39 967.48 796.39 967.48 796.41 967.57 796.41 967.59 796.41 967.59 796.43 967.63 796.44 967.67 796.44 967.68 796.44 967.7 796.44 967.7 796.45 967.71 796.45 967.71 796.46 967.72 796.46 967.74 796.47 967.75 796.47 967.8 796.47 967.81 796.47 967.81 796.48 967.82 796.48 967.85 796.48 967.85 796.48 967.92 796.48 967.94 796.49 967.97 796.49 967.97 796.49 967.99 796.47 968.03 796.47 968.06 796.47 968.06 796.47 968.07 796.47 968.16 796.47 968.19 796.47 968.19 796.47 968.2 796.43 968.34 796.43 968.39 796.41 968.44 796.41 968.45 796.41 968.45 796.41 968.45 796.39 968.51 796.38 968.55 796.35 968.61 796.34 968.65 796.34 968.65 796.33 968.67 796.31 968.68 796.31 968.68 796.31 968.68 796.31 968.69 796.31 968.69 796.3 968.7 796.3 968.71 796.3 968.71 796.3 968.72 796.3 968.72 796.29 968.73 796.29 968.74 796.28 968.76 796.26 968.82 796.26 968.83 796.25 968.84 796.25 968.84 796.24 968.86 796.23 968.91 796.2 968.99 796.2 969.03 796.19 969.05 796.18 969.08 796.18 969.16 796.18 969.21 796.17 969.22 796.17 969.26 796.16 969.3 796.15 969.35 796.14 969.39 796.13 969.4 796.13 969.41 796.1 969.47 796.08 969.55 796.07 969.56 796.07 969.57 796.04 969.65 796.01 969.77 796 969.84 795.99 969.86 795.99 969.9 795.98 969.92 795.98 969.94 795.99 969.96 795.99 969.97 795.98 969.97 795.98 969.97 795.97 969.98 795.95 969.99 795.95 970.01 795.94 970.03 795.94 970.05 795.94 970.15 795.94 970.2 795.94 970.2 795.94 970.2 795.95 970.23 795.95 970.24 795.95 970.3 795.95 970.31 795.96 970.33 795.96 970.34 795.97 970.34 795.97 970.35 795.98 970.37 795.99 970.37 796 970.38 796.03 970.42 796.04 970.45 796.04 970.45 796.04 970.45 796.05 970.47 796.05 970.48 796.05 970.48 796.05 970.48 796.05 970.48 796.06 970.5 796.06 970.56 796.06 970.57 796.07 970.58 796.07 970.59 796.07 970.59 796.08 970.6 796.08 970.61 796.09 970.61 796.09 970.62 796.09 970.62 796.11 970.64 796.12 970.64 796.12 970.64 796.13 970.66 796.15 970.67 796.16 970.67 796.21 970.68 796.23 970.69 796.25 970.7 796.3 970.74 796.31 970.75 796.33 970.77 796.33 970.77 796.34 970.77 796.37 970.78 796.37 970.79 796.39 970.8 796.41 970.81 796.44 970.82 796.46 970.83 796.5 970.84 796.52 970.86 796.54 970.87 796.55 970.87 796.56 970.87 796.57 970.89 796.63 970.9 796.65 970.9 796.7 970.95 796.72 970.96 796.77 970.99 796.82 971.01 796.85 971.03 796.95 971.11 796.99 971.16 796.99 971.17 796.97 971.21 797 971.29 797.07 971.33 797.13 971.39 797.17 971.46 797.22 971.5 797.3 971.5 797.33 971.54 797.41 971.56 797.5 971.57 797.5 971.58 797.54 971.6 797.6 971.69 797.62 971.72 797.6 971.74 797.57 971.78 797.59 971.83 797.61 971.9 797.63 971.98 797.65 972.03 797.62 972.05 797.56 972.08 797.51 972.15 797.5 972.23 797.47 972.32 797.44 972.48 797.38 972.57 797.42 972.6 797.48 972.66 797.5 972.72 797.53 972.82 797.58 972.98 797.6 973.05 797.63 973.13 797.7 973.18 797.81 973.24 797.91 973.28 798.03 973.3 798.11 973.28 798.18 973.23 798.18 973.24 798.2 973.24 798.22 973.24 798.25 973.24 798.26 973.24 798.27 973.24 798.28 973.24 798.28 973.24 798.36 973.26 798.42 973.29 798.43 973.29 798.44 973.29 798.44 973.3 798.46 973.31 798.48 973.32 798.48 973.33 798.48 973.37 798.48 973.37 798.48 973.37 798.49 973.38 798.52 973.38 798.54 973.38 798.54 973.38 798.54 973.38 798.55 973.39 798.57 973.39 798.58 973.39 798.6 973.4 798.62 973.41 798.62 973.41 798.63 973.42 798.65 973.44 798.65 973.44 798.66 973.45 798.67 973.45 798.67 973.45 798.68 973.47 798.68 973.48 798.68 973.49 798.67 973.5 798.67 973.5 798.67 973.51 798.67 973.51 798.67 973.51 798.68 973.52 798.69 973.53 798.69 973.54 798.7 973.54 798.71 973.54 798.72 973.55 798.75 973.56 798.76 973.57 798.76 973.57 798.76 973.58 798.77 973.59 798.77 973.59 798.77 973.59 798.79 973.6 798.79 973.6 798.81 973.63 798.84 973.67 798.86 973.69 798.86 973.69 798.87 973.71 798.88 973.71 798.89 973.73 798.9 973.74 798.9 973.75 798.9 973.76 798.91 973.77 798.93 973.78 798.93 973.79 798.93 973.79 798.94 973.81 798.95 973.82 798.95 973.84 798.96 973.86 798.97 973.88 798.97 973.88 798.97 973.88 798.98 973.9 798.99 973.93 798.99 973.96 799 973.98 799 973.98 799 973.99 798.99 973.99 798.99 973.99 798.98 973.99 798.98 973.99 798.96 973.98 798.94 973.98 798.91 973.98 798.88 973.98 798.85 973.97 798.84 973.97 798.84 973.97 798.82 973.98 798.81 973.97 798.78 973.97 798.78 973.97 798.76 973.98 798.75 973.98 798.74 973.98 798.72 973.98 798.68 973.98 798.67 973.98 798.67 973.98 798.65 973.97 798.64 973.97 798.61 973.98 798.6 973.99 798.59 973.99 798.56 973.99 798.53 973.98 798.52 973.98 798.43 973.99 798.38 973.99 798.36 973.99 798.33 973.97 798.31 973.97 798.3 973.97 798.28 973.97 798.27 973.97 798.26 973.97 798.23 973.97 798.16 973.97 798.12 973.97 798.06 973.98 798.04 973.99 798.01 973.99 798 973.99 798 974 798 974 797.98 974 797.97 974 797.96 973.98 797.96 973.98 797.96 973.98 797.94 973.97 797.92 973.97 797.9 973.96 797.86 973.97 797.84 973.97 797.83 973.97 797.73 973.91 797.56 973.79 797.5 973.65 797.36 973.45 797.23 973.3 797.17 973.3 797.11 973.22 796.99 973.07 796.9 973.02 796.91 972.9 796.71 972.82 796.41 972.85 796.25 972.71 796.22 972.62 796.2 972.52 796.15 972.35 796.15 972.27 796.15 972.27 795.99 972.17 795.95 972.13 795.92 972.08 795.89 971.99 795.89 971.93 795.87 971.86 795.9 971.8 795.96 971.8 796.02 971.82 796.06 971.81 796.09 971.77 796.13 971.71 796.15 971.68 796.19 971.68 796.22 971.65 796.24 971.6 796.28 971.56 796.33 971.55 796.38 971.54 796.41 971.49 796.45 971.44 796.46 971.39 796.45 971.34 796.44 971.33 796.38 971.32 796.27 971.3 796.2 971.29 796.07 971.22 795.99 971.16 795.95 971.05 795.92 970.97 795.91 970.97 795.89 970.95 795.86 970.92 795.84 970.89 795.83 970.86 795.77 970.83 795.74 970.78 795.73 970.78 795.69 970.77 795.67 970.75 795.64 970.71 795.63 970.66 795.62 970.59 795.64 970.56 795.64 970.52 795.61 970.46 795.62 970.43 795.61 970.39 795.61 970.34 795.64 970.32 795.64 970.28 795.63 970.25 795.64 970.21 795.61 970.17 795.58 970.16 795.53 970.13 795.51 970.1 795.5 970.07 795.49 970.06 795.46 970.03 795.42 970.01 795.37 969.99 795.34 969.96 795.32 969.94 795.3 969.9 795.32 969.86 795.29 969.82 795.26 969.81 795.23 969.78 795.17 969.75 795.14 969.71 795.14 969.7 795.11 969.66 795.06 969.63 795.02 969.58 795.04 969.54 795.05 969.52 795.05 969.49 795.03 969.42 795.03 969.36 795.07 969.34 795.06 969.27 795.02 969.21 794.97 969.18 794.94 969.2 794.89 969.21 794.87 969.29 794.88 969.38 794.87 969.42 794.82 969.41 794.82 969.33 794.81 969.26 794.79 969.23 794.74 969.21 794.68 969.24 794.63 969.28 794.6 969.32 794.57 969.35 794.55 969.33 794.54 969.3 794.47 969.27 794.41 969.25 794.35 969.22 794.28 969.21 794.23 969.21 794.21 969.22 794.18 969.22 794.13 969.22 794.09 969.18 794.05 969.13 794.03 969.08 793.99 969.02 793.95 968.99 793.91 968.94 793.86 968.9 793.83 968.87 793.77 968.87 793.73 968.87 793.68 968.88 793.64 968.85 793.61 968.81 793.59 968.78 793.55 968.76 793.5 968.75 793.45 968.75 793.43 968.76 793.42 968.78 793.41 968.79 793.31 968.8 793.3 968.81 793.29 968.81 793.28 968.82 793.27 968.82 793.26 968.83 793.24 968.84 793.24 968.84 793.23 968.84 793.23 968.83 793.22 968.82 793.22 968.82 793.22 968.81 793.18 968.79 793.15 968.78 793.11 968.75 793.1 968.72 793.08 968.69 793.05 968.69 793 968.58 792.98 968.57 792.92 968.56 792.85 968.52 792.85 968.48 792.87 968.46 792.85 968.44 792.83 968.43 792.84 968.4 792.83 968.33 792.79 968.24 792.8 968.17 792.83 968.14 792.89 968.08 792.91 968.06 792.97 968 793.01 967.98 793.02 967.98 793.1 967.97 793.14 967.96 793.22 967.92 793.29 967.89 793.25 967.84 793.25 967.78 793.27 967.76 793.32 967.73 793.37 967.75 793.39 967.78 793.43 967.89 793.47 967.91 793.49 967.95 793.5 968 793.54 968.03 793.57 968.06 793.61 968.07 793.61 968.11 793.62 968.14 793.66 968.26 793.7 968.32 793.79 968.36 793.89 968.4 793.96 968.44 793.98 968.51 794 968.56 794.09 968.55 794.18 968.42 794.21 968.33 794.17 968.19 794.1 968.15 794.03 968.17 794.02 968.11 794.02 968.06 793.96 968.03 793.92 968 793.91 967.95 793.94 967.91 794.02 967.88 794.05 967.85 794.06 967.8 794.07 967.73 794.11 967.68 794.16 967.66 794.23 967.68 794.25 967.72 794.26 967.78 794.26 967.81 794.29 967.83 794.32 967.88 794.3 967.92 794.3 967.94 794.34 967.94 794.39 967.91 794.42 967.88 794.45 967.89 794.49 967.88 794.53 967.81 794.6 967.8 794.65 967.77 794.63 967.7 794.65 967.65 794.71 967.65 794.75 967.68 794.79 967.73 794.81 967.81 794.84 967.85 794.85 967.9 794.91 967.94 794.98 967.96 795.08 967.91 795.08 967.86 795.07 967.82 795.05 967.75 795.07 967.69 795.15 967.76 795.13 967.82 795.13 967.93 795.13 968.03 795.21 968.05 795.31 968.03 795.34 968.04 795.4 968.04 795.47 967.97 795.42 967.9 795.34 967.77 795.33 967.64 795.32 967.54 795.3 967.44 795.19 967.31 795.14 967.24 795.01 967.16 794.89 967.14 794.77 967.06 794.68 967.03 794.62 967.03 794.54 967.02 794.5 967 794.42 966.96 794.4 966.97 794.43 967.03 794.4 967.04 794.31 967.04 794.24 967.04 794.21 967.02 794.16 967.01 794.12 967.03 794 967.05 793.99 967.05 793.95 967.03 793.93 966.93 793.85 966.87 793.81 966.85 793.84 966.8 793.93 966.73 793.91 966.67 793.88 966.65 793.96 966.56 793.92 966.48 793.84 966.43 793.73 966.36 793.65 966.33 793.57 966.29 793.47 966.25 793.39 966.34 793.32 966.32 793.22 966.28 793.18 966.19 793.17 966.06 793.14 965.92 793.12 965.84 793.12 965.73 793.02 965.71 793 965.82 792.95 965.82 792.87 965.78 792.81 965.81 792.76 965.81 792.75 965.77 792.79 965.73 792.75 965.71 792.59 965.67 792.59 965.63 792.62 965.6 792.61 965.53 792.59 965.43 792.58 965.39 792.61 965.36 792.64 965.31 792.66 965.26 792.72 965.16 792.77 965.12 792.89 965.05 792.96 964.99 793.05 964.93 793.14 964.89 793.17 964.86 793.21 964.82 793.28 964.77 793.35 964.71 793.36 964.68 793.36 964.61 793.36 964.57 793.4 964.49 793.4 964.43 793.44 964.39 793.5 964.32 793.55 964.26 793.59 964.23 793.64 964.22 793.67 964.23 793.7 964.29 793.73 964.32 793.79 964.33 793.81 964.32 793.85 964.32 793.97 964.34 794.06 964.36 794.18 964.36 794.28 964.34 794.33 964.26 794.37 964.2 794.44 964.14 794.52 964.09 794.6 964.05 794.66 964.03 794.73 963.96 794.8 963.86 794.88 963.75 794.93 963.57 794.95 963.42 794.96 963.31 794.87 963.18 794.8 963.06 794.78 962.97 794.78 962.91 794.77 962.74 794.76 962.55 794.66 962.45 794.6 962.39 794.56 962.29 794.51 962.21 794.49 962.17 794.48 962.09 794.49 962.02 794.45 961.95 794.43 961.91 794.46 961.85 794.5 961.78 794.44 961.63 794.34 961.46 794.21 961.32 794.12 961.19 794.1 961.16 793.97 961.07 793.97 961.06 793.96 961.06 793.96 961.06 793.96 961.05 793.95 961.03 793.94 961.03 793.94 961.02 793.94 961.02 793.94 961.02 793.93 961 793.92 961 793.92 961 793.91 960.98 793.91 960.97 793.9 960.96 793.9 960.96 793.9 960.94 793.9 960.94 793.89 960.91 793.89 960.89 793.89 960.88 793.89 960.87 793.88 960.83 793.88 960.83 793.88 960.83 793.88 960.83 793.88 960.81 793.88 960.79 793.88 960.79 793.88 960.79 793.89 960.78 793.91 960.78 793.93 960.78 793.93 960.78 Z"/>
<path d="M 4.22 43.93 4.2 43.85 4.17 43.73 4.14 43.63 4.12 43.52 4.11 43.43 4.08 43.31 4.08 43.26 4.08 43.2 4.07 43.09 4.07 42.96 4.06 42.85 4.06 42.75 4.06 42.69 4.05 42.65 4.03 42.6 4.01 42.57 4.01 42.57 3.98 42.54 3.96 42.49 3.92 42.4 3.9 42.33 3.9 42.3 3.89 42.18 3.88 42.11 3.88 42.06 3.88 42.03 3.9 42.01 3.92 41.93 3.94 41.88 3.94 41.82 3.94 41.77 3.96 41.75 3.98 41.73 4.01 41.72 4.04 41.72 4.05 41.71 4.13 41.7 4.32 41.67 4.37 41.67 4.41 41.66 4.55 41.66 4.63 41.66 4.67 41.66 4.76 41.66 4.9 41.66 5.02 41.67 5.15 41.68 5.24 41.69 5.33 41.71 5.39 41.74 5.44 41.77 5.48 41.8 5.5 41.83 5.53 41.86 5.54 41.89 5.57 41.93 5.59 41.95 5.63 41.98 5.67 41.99 5.71 41.99 5.74 41.99 5.78 41.97 5.82 41.94 5.85 41.88 5.85 41.85 5.85 41.83 5.84 41.78 5.84 41.74 5.84 41.72 5.85 41.69 5.85 41.65 5.87 41.6 5.9 41.55 5.92 41.51 5.94 41.49 5.96 41.48 6.06 41.42 6.14 41.38 6.22 41.34 6.24 41.33 6.32 41.32 6.43 41.31 6.46 41.31 6.55 41.31 6.63 41.33 6.74 41.34 6.81 41.34 6.87 41.34 6.97 41.33 7.02 41.32 7.03 41.31 7.04 41.29 7.05 41.26 7.05 41.23 7.06 41.21 7.06 41.2 7.08 41.2 7.09 41.2 7.09 41.2 7.12 41.25 7.19 41.43 7.32 41.76 7.57 42.38 7.64 42.56 7.82 43.01 8.11 43.74 8.2 43.97 8.14 43.98 8.08 43.98 8.01 43.99 7.94 43.99 7.88 43.98 7.81 43.98 7.8 43.98 7.74 43.99 7.66 44 7.56 44.03 7.5 44.05 7.41 44.06 7.34 44.06 7.24 44.05 7.18 44.04 7.08 44.01 6.97 43.97 6.89 43.95 6.79 43.93 6.74 43.92 6.7 43.92 6.67 43.93 6.63 43.92 6.57 43.93 6.51 43.94 6.42 43.96 6.33 43.97 6.27 43.96 6.23 43.96 6.19 43.97 6.14 43.97 6.11 43.97 6.07 43.96 6.04 43.96 5.99 43.96 5.9 43.96 5.82 43.97 5.72 43.99 5.64 44.01 5.62 44.02 5.54 44.05 5.49 44.08 5.46 44.1 5.44 44.11 5.36 44.15 5.22 44.23 5.13 44.29 5.09 44.31 4.99 44.39 4.85 44.49 4.82 44.51 4.78 44.54 4.71 44.6 4.7 44.62 4.67 44.68 4.64 44.74 4.63 44.76 4.6 44.78 4.54 44.8 4.51 44.82 4.47 44.81 4.43 44.8 4.37 44.75 4.32 44.69 4.28 44.63 4.25 44.58 4.25 44.57 4.24 44.51 4.23 44.43 4.22 44.36 4.22 44.31 4.22 44.2 4.22 44.08 4.22 44 4.22 43.97 4.22 43.93 Z"/>
<path d="M 14.51 1.57 14.53 1.58 14.59 1.59 14.61 1.59 14.65 1.59 14.68 1.59 14.69 1.58 14.72 1.57 14.73 1.56 14.74 1.53 14.75 1.52 14.77 1.51 14.78 1.51 14.81 1.51 14.84 1.5 14.87 1.49 14.9 1.48 14.91 1.48 14.91 1.48 14.94 1.47 14.95 1.46 14.97 1.45 14.97 1.45 14.97 1.44 14.99 1.43 15 1.41 15 1.4 15.01 1.37 15.02 1.33 15.04 1.32 15.05 1.31 15.06 1.3 15.08 1.3 15.11 1.29 15.14 1.29 15.17 1.3 15.19 1.3 15.21 1.3 15.23 1.31 15.27 1.31 15.29 1.32 15.42 1.32 15.46 1.33 15.49 1.34 15.55 1.35 15.56 1.36 15.59 1.37 15.6 1.38 15.68 1.39 15.69 1.4 15.72 1.42 15.74 1.43 15.8 1.44 15.82 1.45 15.85 1.46 15.87 1.47 15.9 1.47 15.91 1.48 15.93 1.48 15.95 1.48 15.96 1.48 15.99 1.47 16.01 1.47 16.04 1.47 16.12 1.49 16.17 1.51 16.19 1.51 16.22 1.51 16.24 1.52 16.25 1.52 16.28 1.53 16.3 1.53 16.32 1.53 16.34 1.54 16.38 1.55 16.41 1.56 16.41 1.56 16.43 1.57 16.49 1.59 16.51 1.59 16.56 1.61 16.6 1.61 16.62 1.61 16.65 1.62 16.69 1.63 16.7 1.64 16.75 1.65 16.76 1.66 16.78 1.66 16.79 1.66 16.84 1.66 16.85 1.66 16.86 1.66 16.88 1.67 16.91 1.69 16.93 1.7 16.95 1.71 16.99 1.72 17.04 1.73 17.09 1.74 17.14 1.75 17.2 1.76 17.27 1.77 17.29 1.77 17.36 1.79 17.4 1.8 17.44 1.8 17.5 1.81 17.56 1.82 17.6 1.83 17.64 1.83 17.67 1.84 17.73 1.85 17.78 1.86 17.85 1.87 17.87 1.87 17.93 1.88 17.98 1.9 18.02 1.91 18.05 1.92 18.1 1.93 18.17 1.94 18.23 1.95 18.25 1.95 18.3 1.96 18.37 1.97 18.44 1.99 18.47 1.99 18.51 2 18.54 2 18.56 2 18.6 2.02 18.61 2.02 18.69 2.05 18.74 2.06 18.78 2.08 18.85 2.1 18.9 2.11 18.92 2.12 18.94 2.13 18.96 2.13 18.98 2.13 19 2.14 19.06 2.16 19.11 2.17 19.13 2.17 19.16 2.18 19.19 2.19 19.21 2.19 19.23 2.2 19.27 2.2 19.29 2.2 19.4 2.21 19.7 2.25 19.87 2.28 20.14 2.35 20.31 2.38 20.41 2.41 20.49 2.45 20.65 2.48 20.71 2.51 20.85 2.55 21.06 2.64 21.13 2.67 21.17 2.69 21.19 2.71 21.22 2.75 21.25 2.77 21.28 2.79 21.32 2.81 21.37 2.81 21.42 2.8 21.44 2.79 21.47 2.79 21.51 2.79 21.55 2.81 21.7 2.86 21.84 2.9 21.92 2.92 22.01 2.95 22.09 2.99 22.14 3.02 22.19 3.04 22.26 3.06 22.34 3.08 22.55 3.14 22.77 3.22 22.84 3.25 22.92 3.3 23.02 3.34 23.13 3.4 23.25 3.45 23.29 3.47 23.3 3.48 23.43 3.55 23.49 3.6 23.51 3.61 23.57 3.67 23.63 3.72 23.7 3.78 23.75 3.84 23.79 3.87 23.82 3.91 23.85 3.96 24.02 4.18 24.06 4.25 24.09 4.32 24.14 4.4 24.17 4.45 24.22 4.53 24.29 4.62 24.37 4.7 24.41 4.75 24.44 4.82 24.51 4.89 24.57 4.95 24.61 5.02 24.63 5.06 24.65 5.09 24.68 5.15 24.77 5.24 24.81 5.29 24.85 5.36 24.98 5.5 24.99 5.54 25.02 5.6 25.06 5.66 25.12 5.7 25.15 5.73 25.18 5.77 25.21 5.84 25.25 5.88 25.28 5.92 25.3 5.96 25.33 6.03 25.38 6.23 25.4 6.26 25.44 6.32 25.49 6.4 25.54 6.46 25.59 6.49 25.6 6.52 25.66 6.57 25.67 6.6 25.69 6.62 25.75 6.67 25.78 6.7 25.79 6.73 25.8 6.75 25.85 6.79 25.91 6.83 25.93 6.85 26.01 6.92 26.06 6.98 26.13 7.09 26.16 7.13 26.18 7.2 26.21 7.24 26.22 7.26 26.23 7.32 26.29 7.43 26.35 7.58 26.37 7.61 26.4 7.66 26.51 7.88 26.53 7.94 26.53 7.98 26.53 7.99 26.55 8.06 26.57 8.1 26.61 8.14 26.62 8.19 26.63 8.2 26.65 8.22 26.65 8.24 26.66 8.25 26.66 8.27 26.66 8.29 26.65 8.32 26.65 8.38 26.64 8.38 26.63 8.39 26.63 8.4 26.65 8.41 26.65 8.42 26.64 8.43 26.63 8.44 26.62 8.44 26.62 8.44 26.62 8.47 26.63 8.48 26.64 8.48 26.64 8.48 26.64 8.5 26.64 8.54 26.65 8.57 26.65 8.59 26.67 8.63 26.67 8.66 26.68 8.69 26.69 8.7 26.68 8.73 26.68 8.75 26.69 8.77 26.65 8.78 26.64 8.79 26.64 8.83 26.64 8.88 26.63 8.93 26.61 8.94 26.6 8.97 26.58 9 26.58 9.02 26.62 9.08 26.62 9.11 26.63 9.13 26.62 9.15 26.58 9.21 26.58 9.23 26.6 9.28 26.61 9.34 26.61 9.38 26.59 9.44 26.56 9.51 26.54 9.56 26.5 9.69 26.5 9.69 26.49 9.71 26.49 9.73 26.42 9.96 26.41 10.03 26.39 10.05 26.4 10.07 26.38 10.08 26.38 10.09 26.41 10.13 26.41 10.15 26.39 10.2 26.39 10.25 26.37 10.26 26.36 10.28 26.36 10.35 26.32 10.49 26.31 10.52 26.33 10.56 26.33 10.58 26.31 10.61 26.29 10.67 26.28 10.72 26.27 10.77 26.26 10.8 26.25 10.81 26.23 10.87 26.23 10.92 26.22 10.93 26.21 10.97 26.2 11.04 26.19 11.1 26.2 11.12 26.21 11.13 26.23 11.15 26.23 11.16 26.23 11.16 26.22 11.17 26.19 11.18 26.18 11.21 26.17 11.23 26.16 11.29 26.13 11.38 26.12 11.45 26.11 11.48 26.1 11.49 26.08 11.56 26.05 11.61 26.04 11.66 26 11.75 25.98 11.8 25.95 11.83 25.94 11.87 25.93 11.88 25.93 11.88 25.9 11.9 25.89 11.92 25.88 11.95 25.89 11.98 25.91 12 25.91 12.01 25.89 12.04 25.89 12.05 25.89 12.08 25.87 12.13 25.88 12.19 25.87 12.37 25.86 12.4 25.86 12.45 25.84 12.47 25.83 12.5 25.82 12.57 25.82 12.59 25.84 12.64 25.84 12.67 25.83 12.71 25.83 12.8 25.78 12.87 25.77 12.91 25.76 12.95 25.75 12.97 25.7 13 25.7 13.01 25.71 13.02 25.73 13.05 25.72 13.06 25.72 13.08 25.75 13.1 25.77 13.11 25.77 13.12 25.74 13.14 25.73 13.16 25.73 13.22 25.73 13.23 25.74 13.27 25.73 13.28 25.73 13.29 25.73 13.31 25.72 13.32 25.7 13.34 25.69 13.35 25.68 13.37 25.67 13.4 25.67 13.42 25.66 13.48 25.66 13.51 25.65 13.56 25.65 13.57 25.64 13.59 25.64 13.6 25.6 13.65 25.6 13.65 25.6 13.66 25.6 13.67 25.6 13.68 25.6 13.68 25.61 13.69 25.6 13.7 25.59 13.71 25.58 13.71 25.57 13.72 25.56 13.72 25.55 13.74 25.55 13.74 25.54 13.75 25.53 13.78 25.53 13.79 25.53 13.81 25.52 13.85 25.52 13.87 25.51 13.88 25.51 13.9 25.51 13.94 25.51 13.96 25.5 13.97 25.49 13.98 25.49 14 25.48 14.02 25.48 14.05 25.49 14.08 25.5 14.09 25.51 14.1 25.52 14.12 25.52 14.13 25.53 14.13 25.53 14.15 25.53 14.19 25.53 14.2 25.52 14.22 25.53 14.24 25.53 14.26 25.54 14.27 25.54 14.28 25.55 14.29 25.56 14.3 25.57 14.32 25.57 14.34 25.57 14.37 25.57 14.39 25.58 14.41 25.59 14.44 25.6 14.45 25.6 14.47 25.6 14.51 25.6 14.52 25.6 14.53 25.61 14.56 25.62 14.58 25.62 14.6 25.62 14.61 25.6 14.65 25.6 14.68 25.6 14.7 25.6 14.73 25.6 14.75 25.61 14.77 25.62 14.81 25.63 14.83 25.63 14.87 25.63 14.89 25.63 14.9 25.61 14.97 25.6 15.03 25.57 15.11 25.56 15.13 25.56 15.16 25.56 15.18 25.57 15.2 25.58 15.23 25.59 15.24 25.58 15.28 25.59 15.3 25.59 15.31 25.6 15.33 25.61 15.33 25.63 15.35 25.66 15.38 25.75 15.43 25.76 15.44 25.76 15.45 25.77 15.46 25.77 15.48 25.77 15.5 25.76 15.54 25.76 15.56 25.77 15.58 25.78 15.6 25.8 15.64 25.82 15.67 25.84 15.69 25.85 15.71 25.88 15.74 25.89 15.75 25.91 15.77 25.91 15.78 25.92 15.79 25.92 15.8 25.92 15.86 25.92 15.89 25.92 15.91 25.92 15.93 25.93 15.95 25.94 15.96 25.96 15.98 25.98 16 26 16.02 26.05 16.05 26.06 16.06 26.07 16.07 26.08 16.08 26.08 16.08 26.09 16.1 26.09 16.15 26.09 16.17 26.12 16.2 26.13 16.21 26.21 16.28 26.23 16.29 26.26 16.32 26.28 16.34 26.28 16.35 26.29 16.38 26.29 16.38 26.3 16.39 26.31 16.41 26.32 16.42 26.32 16.44 26.32 16.46 26.31 16.52 26.32 16.54 26.33 16.56 26.34 16.58 26.35 16.6 26.35 16.6 26.38 16.61 26.38 16.62 26.38 16.62 26.39 16.63 26.39 16.64 26.41 16.66 26.44 16.7 26.45 16.72 26.46 16.73 26.46 16.75 26.47 16.78 26.47 16.79 26.48 16.8 26.49 16.81 26.5 16.81 26.53 16.82 26.54 16.82 26.55 16.83 26.55 16.84 26.56 16.86 26.56 16.87 26.55 16.89 26.55 16.9 26.53 16.92 26.48 16.97 26.46 17 26.45 17.02 26.44 17.06 26.43 17.07 26.43 17.08 26.43 17.1 26.43 17.13 26.43 17.14 26.44 17.15 26.44 17.15 26.48 17.18 26.49 17.2 26.49 17.2 26.49 17.21 26.49 17.22 26.49 17.23 26.48 17.23 26.47 17.24 26.46 17.24 26.45 17.25 26.44 17.25 26.39 17.26 26.38 17.26 26.37 17.27 26.37 17.27 26.35 17.3 26.35 17.33 26.35 17.34 26.35 17.37 26.35 17.38 26.34 17.39 26.33 17.4 26.33 17.41 26.33 17.42 26.34 17.44 26.34 17.45 26.34 17.46 26.33 17.47 26.33 17.48 26.31 17.49 26.29 17.51 26.28 17.51 26.27 17.52 26.27 17.53 26.27 17.54 26.27 17.55 26.27 17.56 26.28 17.56 26.28 17.58 26.27 17.59 26.26 17.62 26.24 17.65 26.22 17.67 26.15 17.75 26.14 17.76 26.1 17.81 26.05 17.87 25.98 17.93 25.97 17.95 25.96 17.95 25.89 17.99 25.86 18.01 25.86 18.01 25.86 18.02 25.86 18.04 25.86 18.04 25.85 18.06 25.83 18.08 25.82 18.09 25.81 18.1 25.8 18.14 25.79 18.15 25.78 18.16 25.77 18.17 25.72 18.18 25.72 18.18 25.72 18.19 25.71 18.2 25.71 18.22 25.71 18.22 25.72 18.24 25.72 18.24 25.72 18.25 25.72 18.26 25.71 18.27 25.7 18.29 25.69 18.3 25.66 18.31 25.66 18.31 25.66 18.32 25.66 18.34 25.66 18.35 25.65 18.36 25.64 18.37 25.61 18.38 25.59 18.39 25.59 18.4 25.59 18.41 25.59 18.42 25.59 18.42 25.6 18.45 25.6 18.45 25.59 18.46 25.59 18.48 25.56 18.55 25.53 18.62 25.51 18.66 25.5 18.68 25.49 18.69 25.47 18.7 25.46 18.71 25.45 18.72 25.44 18.73 25.44 18.74 25.44 18.74 25.44 18.75 25.46 18.76 25.46 18.76 25.46 18.77 25.46 18.78 25.44 18.8 25.43 18.81 25.38 18.85 25.36 18.87 25.35 18.89 25.32 18.92 25.28 18.98 25.27 19.01 25.26 19.02 25.25 19.03 25.23 19.05 25.22 19.07 25.21 19.09 25.21 19.11 25.2 19.13 25.18 19.14 25.17 19.16 25.13 19.18 25.12 19.19 25.12 19.2 25.12 19.21 25.13 19.23 25.12 19.24 25.11 19.26 25.09 19.3 25.08 19.33 25.07 19.35 25.06 19.35 25.05 19.36 25 19.4 24.98 19.42 24.97 19.42 24.96 19.43 24.96 19.45 24.95 19.46 24.93 19.49 24.92 19.5 24.9 19.54 24.9 19.55 24.9 19.56 24.9 19.61 24.9 19.63 24.9 19.64 24.91 19.65 24.9 19.66 24.88 19.67 24.86 19.68 24.85 19.69 24.84 19.69 24.84 19.7 24.84 19.71 24.84 19.71 24.85 19.72 24.85 19.72 24.86 19.72 24.89 19.72 24.9 19.72 24.9 19.72 24.91 19.73 24.91 19.74 24.91 19.75 24.9 19.76 24.88 19.78 24.88 19.79 24.88 19.8 24.88 19.81 24.9 19.85 24.91 19.87 24.91 19.88 24.91 19.89 24.9 19.91 24.89 19.92 24.89 19.93 24.87 19.94 24.86 19.94 24.83 19.96 24.82 19.96 24.81 19.97 24.8 19.99 24.8 20 24.8 20.02 24.81 20.03 24.81 20.06 24.81 20.07 24.82 20.1 24.82 20.11 24.82 20.12 24.82 20.14 24.82 20.17 24.82 20.19 24.82 20.19 24.81 20.21 24.77 20.24 24.75 20.27 24.73 20.29 24.69 20.32 24.66 20.35 24.63 20.36 24.62 20.37 24.6 20.38 24.59 20.41 24.58 20.42 24.57 20.42 24.55 20.43 24.5 20.46 24.46 20.48 24.45 20.48 24.39 20.53 24.23 20.65 24.15 20.7 24.15 20.7 24.15 20.71 24.15 20.73 24.14 20.74 24.14 20.74 24.14 20.74 24.13 20.74 24.12 20.74 24.12 20.73 24.11 20.72 24.1 20.72 24.1 20.72 24.09 20.73 24.06 20.74 24.05 20.75 23.99 20.77 23.97 20.78 23.89 20.81 23.8 20.85 23.77 20.86 23.74 20.88 23.69 20.91 23.67 20.92 23.65 20.93 23.61 20.94 23.59 20.95 23.57 20.97 23.53 21 23.51 21.01 23.47 21.04 23.39 21.08 23.37 21.1 23.33 21.11 23.31 21.12 23.27 21.16 23.25 21.17 23.23 21.18 23.19 21.2 23.13 21.22 23.11 21.23 23.09 21.23 23.06 21.23 23.04 21.23 23.03 21.24 23.02 21.24 23.01 21.25 23 21.26 22.98 21.29 22.97 21.29 22.96 21.3 22.94 21.35 22.92 21.37 22.91 21.38 22.89 21.39 22.86 21.41 22.85 21.41 22.84 21.43 22.8 21.48 22.79 21.49 22.72 21.52 22.69 21.53 22.66 21.55 22.63 21.57 22.6 21.59 22.54 21.63 22.52 21.65 22.49 21.67 22.41 21.71 22.38 21.72 22.36 21.74 22.32 21.77 22.29 21.79 22.28 21.79 22.27 21.8 22.25 21.8 22.24 21.8 22.24 21.8 22.24 21.81 22.24 21.82 22.24 21.84 22.23 21.85 22.23 21.86 22.21 21.87 22.17 21.92 22.15 21.93 22.13 21.95 22.12 21.98 22.1 22.01 22.09 22.03 22.07 22.05 22.05 22.07 21.96 22.14 21.95 22.15 21.93 22.17 21.93 22.17 21.92 22.18 21.91 22.18 21.9 22.18 21.88 22.18 21.86 22.19 21.85 22.19 21.84 22.2 21.84 22.21 21.83 22.21 21.82 22.22 21.8 22.23 21.74 22.25 21.73 22.25 21.73 22.26 21.72 22.27 21.71 22.28 21.71 22.29 21.72 22.31 21.71 22.32 21.68 22.35 21.67 22.37 21.64 22.4 21.62 22.44 21.6 22.46 21.59 22.48 21.59 22.5 21.59 22.51 21.59 22.55 21.59 22.55 21.59 22.56 21.59 22.58 21.58 22.59 21.58 22.61 21.57 22.62 21.56 22.64 21.55 22.65 21.54 22.66 21.52 22.67 21.5 22.68 21.49 22.7 21.49 22.7 21.49 22.72 21.49 22.73 21.49 22.73 21.5 22.75 21.5 22.75 21.5 22.76 21.5 22.77 21.49 22.78 21.48 22.8 21.47 22.8 21.47 22.82 21.47 22.84 21.47 22.86 21.46 22.88 21.45 22.9 21.43 22.92 21.42 22.93 21.4 22.94 21.36 22.94 21.35 22.95 21.35 22.95 21.33 22.97 21.29 23.02 21.28 23.04 21.27 23.05 21.23 23.07 21.22 23.08 21.18 23.12 21.15 23.14 21.09 23.17 21.03 23.21 21.01 23.22 20.98 23.24 20.96 23.24 20.94 23.25 20.93 23.26 20.92 23.28 20.91 23.29 20.9 23.32 20.9 23.33 20.9 23.38 20.89 23.4 20.89 23.42 20.89 23.43 20.88 23.45 20.86 23.46 20.85 23.47 20.82 23.48 20.8 23.49 20.79 23.5 20.79 23.51 20.78 23.52 20.77 23.53 20.77 23.55 20.76 23.56 20.76 23.58 20.77 23.6 20.77 23.62 20.78 23.66 20.79 23.69 20.79 23.7 20.78 23.71 20.79 23.78 20.79 23.81 20.78 23.83 20.77 23.85 20.77 23.88 20.75 23.93 20.75 23.96 20.74 24 20.73 24.03 20.72 24.08 20.7 24.15 20.67 24.21 20.67 24.22 20.66 24.23 20.64 24.24 20.64 24.25 20.63 24.26 20.63 24.28 20.62 24.29 20.62 24.3 20.6 24.31 20.59 24.32 20.58 24.32 20.57 24.32 20.55 24.33 20.55 24.34 20.55 24.35 20.55 24.35 20.56 24.37 20.57 24.38 20.57 24.39 20.56 24.4 20.56 24.4 20.56 24.42 20.57 24.45 20.57 24.47 20.57 24.51 20.57 24.52 20.59 24.55 20.59 24.58 20.61 24.62 20.61 24.63 20.61 24.64 20.61 24.67 20.6 24.69 20.6 24.72 20.61 24.76 20.61 24.79 20.62 24.8 20.61 24.82 20.61 24.82 20.59 24.84 20.59 24.85 20.58 24.86 20.58 24.87 20.59 24.87 20.61 24.9 20.61 24.91 20.61 24.93 20.61 24.94 20.61 24.95 20.59 24.98 20.59 24.99 20.59 25.02 20.59 25.04 20.58 25.05 20.58 25.06 20.57 25.07 20.57 25.07 20.56 25.08 20.54 25.09 20.54 25.09 20.54 25.11 20.54 25.12 20.56 25.14 20.56 25.15 20.57 25.16 20.56 25.17 20.56 25.21 20.54 25.25 20.52 25.29 20.52 25.3 20.52 25.32 20.52 25.33 20.52 25.35 20.53 25.38 20.55 25.41 20.57 25.42 20.6 25.44 20.61 25.45 20.62 25.46 20.64 25.5 20.66 25.52 20.67 25.52 20.67 25.52 20.7 25.53 20.72 25.54 20.71 25.55 20.67 25.58 20.66 25.59 20.65 25.6 20.64 25.62 20.63 25.62 20.63 25.63 20.63 25.65 20.63 25.67 20.64 25.69 20.64 25.7 20.64 25.71 20.64 25.71 20.63 25.72 20.62 25.73 20.61 25.73 20.6 25.74 20.6 25.75 20.59 25.76 20.58 25.81 20.58 25.82 20.57 25.83 20.54 25.86 20.53 25.87 20.52 25.88 20.52 25.9 20.51 25.9 20.51 25.91 20.51 25.93 20.51 25.95 20.52 25.96 20.53 25.98 20.53 25.99 20.54 26.02 20.56 26.08 20.57 26.09 20.57 26.11 20.57 26.12 20.57 26.13 20.55 26.17 20.55 26.17 20.55 26.19 20.55 26.2 20.58 26.25 20.59 26.26 20.59 26.27 20.59 26.29 20.59 26.32 20.59 26.33 20.59 26.37 20.59 26.39 20.59 26.41 20.6 26.42 20.61 26.43 20.62 26.44 20.64 26.45 20.64 26.45 20.65 26.46 20.65 26.47 20.65 26.5 20.65 26.53 20.64 26.56 20.64 26.58 20.64 26.59 20.65 26.64 20.65 26.69 20.65 26.71 20.66 26.72 20.66 26.74 20.68 26.76 20.68 26.78 20.69 26.82 20.68 26.84 20.69 26.86 20.7 26.89 20.7 26.9 20.7 26.91 20.7 26.92 20.68 26.95 20.68 26.96 20.68 26.97 20.68 26.97 20.69 26.98 20.72 26.99 20.73 27 20.73 27.01 20.74 27.04 20.74 27.05 20.73 27.07 20.7 27.15 20.7 27.17 20.7 27.18 20.7 27.2 20.7 27.22 20.73 27.27 20.73 27.28 20.74 27.3 20.73 27.34 20.72 27.37 20.7 27.41 20.68 27.45 20.67 27.47 20.63 27.56 20.62 27.59 20.62 27.6 20.62 27.62 20.63 27.63 20.63 27.63 20.63 27.64 20.62 27.67 20.63 27.7 20.64 27.74 20.66 27.77 20.67 27.81 20.68 27.82 20.69 27.83 20.7 27.85 20.71 27.86 20.72 27.87 20.73 27.87 20.73 27.88 20.74 27.9 20.74 27.91 20.73 27.93 20.73 27.94 20.74 27.97 20.74 27.98 20.75 28 20.76 28.02 20.78 28.03 20.8 28.04 20.84 28.06 20.86 28.07 20.9 28.1 20.94 28.13 20.96 28.16 20.99 28.18 21.06 28.28 21.08 28.3 21.1 28.33 21.11 28.34 21.18 28.38 21.2 28.39 21.21 28.4 21.21 28.42 21.21 28.42 21.21 28.44 21.2 28.46 21.19 28.47 21.18 28.48 21.17 28.49 21.08 28.53 21.06 28.54 21.04 28.56 21.03 28.57 21.03 28.58 21.03 28.59 21.03 28.59 21.04 28.6 21.05 28.6 21.13 28.62 21.17 28.63 21.2 28.64 21.22 28.64 21.23 28.65 21.24 28.66 21.25 28.67 21.33 28.73 21.35 28.77 21.4 28.81 21.42 28.85 21.44 28.87 21.46 28.9 21.47 28.92 21.48 28.93 21.49 28.94 21.51 28.94 21.53 28.94 21.55 28.93 21.56 28.93 21.57 28.92 21.57 28.91 21.58 28.9 21.58 28.88 21.58 28.87 21.59 28.86 21.59 28.85 21.6 28.85 21.61 28.84 21.62 28.84 21.63 28.84 21.64 28.84 21.67 28.85 21.69 28.86 21.71 28.87 21.72 28.89 21.74 28.92 21.75 28.95 21.75 28.96 21.75 28.97 21.75 29 21.75 29.03 21.72 29.15 21.7 29.19 21.69 29.21 21.67 29.23 21.66 29.24 21.64 29.25 21.59 29.28 21.57 29.29 21.57 29.3 21.56 29.31 21.55 29.33 21.55 29.34 21.55 29.35 21.55 29.36 21.55 29.37 21.57 29.38 21.61 29.41 21.63 29.42 21.63 29.43 21.63 29.43 21.62 29.44 21.61 29.44 21.6 29.45 21.58 29.45 21.56 29.46 21.54 29.46 21.49 29.46 21.47 29.46 21.44 29.45 21.38 29.45 21.35 29.45 21.3 29.45 21.28 29.45 21.27 29.46 21.25 29.46 21.24 29.47 21.22 29.48 21.19 29.5 21.18 29.51 21.18 29.52 21.17 29.53 21.15 29.54 21.12 29.56 21.1 29.57 21.09 29.58 21.08 29.58 21.04 29.58 21.01 29.58 20.99 29.57 20.92 29.55 20.91 29.54 20.89 29.54 20.88 29.54 20.87 29.54 20.83 29.55 20.82 29.55 20.82 29.55 20.82 29.56 20.81 29.57 20.81 29.59 20.81 29.64 20.81 29.65 20.81 29.65 20.8 29.66 20.79 29.67 20.75 29.68 20.73 29.69 20.72 29.7 20.71 29.71 20.7 29.72 20.7 29.73 20.69 29.76 20.71 29.79 20.72 29.81 20.75 29.86 20.78 29.92 20.81 29.98 20.83 30.02 20.85 30.04 20.88 30.07 20.9 30.11 20.92 30.16 20.95 30.19 20.98 30.23 20.99 30.27 21.02 30.33 21.04 30.37 21.06 30.4 21.08 30.43 21.1 30.48 21.12 30.54 21.13 30.58 21.13 30.62 21.12 30.67 21.1 30.72 21.07 30.77 21.02 30.83 20.99 30.89 20.97 30.92 20.94 30.98 20.92 31.03 20.88 31.08 20.86 31.12 20.84 31.15 20.82 31.2 20.8 31.24 20.76 31.3 20.73 31.35 20.7 31.38 20.67 31.42 20.63 31.49 20.59 31.57 20.52 31.65 20.48 31.7 20.43 31.73 20.37 31.76 20.28 31.8 20.22 31.83 20.18 31.87 20.15 31.91 20.13 31.95 20.11 32.04 20.1 32.14 20.1 32.17 20.1 32.22 20.1 32.28 20.1 32.31 20.09 32.36 20.08 32.4 20.08 32.43 20.06 32.52 20.06 32.56 20.05 32.64 20.05 32.7 20.05 32.79 20.06 32.86 20.07 32.92 20.08 33 20.09 33.07 20.09 33.12 20.1 33.13 20.11 33.15 20.13 33.21 20.13 33.21 20.16 33.27 20.19 33.33 20.22 33.39 20.23 33.44 20.24 33.46 20.23 33.48 20.22 33.56 20.19 33.64 20.17 33.71 20.15 33.77 20.12 33.85 20.1 33.91 20.09 33.97 20.09 34.02 20.09 34.05 20.09 34.09 20.09 34.13 20.08 34.21 20.08 34.3 20.07 34.34 20.08 34.37 20.08 34.41 20.09 34.44 20.1 34.47 20.11 34.52 20.11 34.53 20.11 34.58 20.11 34.69 20.11 34.78 20.12 34.84 20.12 34.9 20.12 34.93 20.12 34.95 20.12 34.99 20.12 35.04 20.12 35.04 20.11 35.07 20.1 35.12 20.08 35.18 20.06 35.24 20.05 35.29 20.04 35.34 20.03 35.39 20.02 35.45 20.01 35.5 20 35.55 19.99 35.6 19.99 35.63 19.98 35.68 19.98 35.73 19.97 35.77 19.97 35.8 19.97 35.82 19.96 35.86 19.96 35.89 19.93 35.95 19.9 36.02 19.87 36.08 19.85 36.15 19.83 36.21 19.81 36.27 19.8 36.31 19.79 36.34 19.77 36.38 19.74 36.43 19.7 36.48 19.69 36.49 19.66 36.52 19.64 36.56 19.62 36.6 19.6 36.62 19.59 36.66 19.57 36.7 19.55 36.75 19.54 36.79 19.51 36.83 19.49 36.86 19.46 36.92 19.43 36.99 19.4 37.06 19.37 37.11 19.34 37.17 19.31 37.22 19.29 37.28 19.28 37.31 19.25 37.34 19.23 37.36 19.2 37.4 19.16 37.46 19.13 37.51 19.1 37.54 19.06 37.57 18.97 37.64 18.86 37.73 18.8 37.79 18.73 37.87 18.65 37.96 18.58 38.04 18.52 38.11 18.46 38.19 18.43 38.23 18.4 38.27 18.37 38.3 18.3 38.35 18.24 38.39 18.21 38.41 18.19 38.44 18.16 38.46 18.1 38.45 18.05 38.44 18.02 38.42 17.99 38.39 17.98 38.37 17.95 38.33 17.92 38.29 17.91 38.23 17.9 38.19 17.9 38.16 17.91 38.13 17.92 38.08 17.94 38.05 17.97 38.01 17.99 37.99 18.01 37.96 18.02 37.92 18.02 37.9 18 37.87 17.96 37.82 17.9 37.73 17.84 37.67 17.78 37.63 17.7 37.58 17.6 37.51 17.48 37.41 17.4 37.35 17.38 37.32 17.37 37.29 17.36 37.27 17.37 37.25 17.37 37.22 17.36 37.21 17.35 37.21 17.33 37.21 17.26 37.26 17.19 37.32 17.17 37.35 17.15 37.39 17.13 37.43 17.12 37.47 17.12 37.54 17.1 37.62 17.08 37.69 17.06 37.76 17.05 37.83 17.04 37.89 17.02 37.96 17 38.02 16.97 38.1 16.93 38.17 16.88 38.25 16.84 38.29 16.74 38.36 16.64 38.46 16.52 38.57 16.44 38.66 16.39 38.7 16.36 38.75 16.32 38.79 16.24 38.91 16.14 39.05 16.04 39.18 15.98 39.24 15.95 39.3 15.92 39.34 15.91 39.38 15.9 39.39 15.9 39.43 15.91 39.45 15.92 39.5 15.94 39.53 15.95 39.56 15.95 39.59 15.96 39.62 15.96 39.66 15.95 39.69 15.93 39.72 15.86 39.74 15.77 39.77 15.7 39.8 15.63 39.84 15.55 39.88 15.5 39.9 15.48 39.91 15.41 39.97 15.31 40.06 15.2 40.17 15.15 40.21 15.09 40.26 15.01 40.32 14.95 40.34 14.81 40.38 14.68 40.43 14.57 40.46 14.52 40.48 14.49 40.51 14.47 40.52 14.43 40.58 14.37 40.68 14.35 40.73 14.32 40.75 14.28 40.77 14.17 40.81 14.09 40.85 13.99 40.9 13.96 40.92 13.91 40.95 13.84 40.99 13.78 41 13.71 41.01 13.64 41.02 13.58 41.03 13.53 41.05 13.51 41.06 13.46 41.1 13.44 41.13 13.42 41.18 13.39 41.25 13.35 41.34 13.3 41.44 13.25 41.53 13.2 41.61 13.18 41.65 13.14 41.67 13.12 41.69 13.08 41.7 13.05 41.71 13.02 41.73 12.99 41.74 12.91 41.77 12.85 41.8 12.79 41.83 12.75 41.88 12.74 41.93 12.74 41.95 12.76 42 12.79 42.06 12.81 42.13 12.83 42.19 12.84 42.23 12.84 42.26 12.83 42.3 12.8 42.33 12.77 42.34 12.72 42.34 12.68 42.34 12.62 42.35 12.58 42.37 12.56 42.37 12.52 42.41 12.49 42.46 12.47 42.46 12.44 42.45 12.43 42.44 12.41 42.44 12.37 42.45 12.35 42.44 12.3 42.41 12.24 42.37 12.2 42.35 12.17 42.29 12.15 42.24 12.14 42.22 12.14 42.17 12.14 42.12 12.14 42.06 12.14 42.03 12.13 41.98 12.13 41.92 12.13 41.87 12.12 41.83 12.11 41.75 12.11 41.66 12.1 41.6 12.12 41.52 12.12 41.43 12.12 41.35 12.1 41.29 12.06 41.22 12.03 41.18 11.98 41.13 11.92 41.1 11.86 41.08 11.79 41.05 11.72 41.01 11.68 40.98 11.64 40.95 11.61 40.91 11.6 40.85 11.59 40.8 11.57 40.74 11.55 40.69 11.52 40.65 11.49 40.63 11.47 40.62 11.45 40.63 11.43 40.65 11.43 40.67 11.43 40.72 11.45 40.79 11.46 40.86 11.46 40.91 11.46 40.94 11.46 40.98 11.45 41.03 11.42 41.08 11.41 41.11 11.4 41.15 11.37 41.19 11.33 41.2 11.28 41.2 11.22 41.2 11.17 41.2 11.11 41.2 11.06 41.21 11.03 41.21 11 41.24 11 41.26 11.01 41.28 11.03 41.31 11.04 41.34 11.04 41.39 11.02 41.42 10.98 41.47 10.92 41.5 10.88 41.53 10.86 41.56 10.85 41.6 10.85 41.64 10.86 41.67 10.88 41.72 10.93 41.77 10.96 41.8 11.01 41.84 11.01 41.87 11.01 41.89 10.98 41.93 10.93 41.97 10.91 42 10.88 42.06 10.84 42.14 10.8 42.2 10.76 42.26 10.73 42.31 10.71 42.35 10.66 42.39 10.63 42.41 10.6 42.42 10.59 42.41 10.56 42.39 10.54 42.38 10.52 42.33 10.49 42.24 10.46 42.18 10.46 42.16 10.45 42.1 10.44 42.05 10.45 41.95 10.45 41.9 10.45 41.87 10.45 41.77 10.43 41.68 10.41 41.63 10.38 41.59 10.34 41.56 10.31 41.56 10.26 41.56 10.2 41.55 10.12 41.54 10.06 41.54 10.04 41.54 10.03 41.54 10.03 41.56 10.05 41.58 10.08 41.59 10.16 41.61 10.21 41.62 10.25 41.65 10.26 41.68 10.25 41.7 10.23 41.72 10.19 41.74 10.16 41.76 10.12 41.76 10.08 41.76 10.03 41.76 10 41.76 9.98 41.75 9.94 41.72 9.94 41.71 9.93 41.69 9.92 41.66 9.9 41.66 9.89 41.66 9.88 41.67 9.88 41.71 9.9 41.75 9.91 41.78 9.91 41.8 9.89 41.81 9.85 41.82 9.82 41.83 9.81 41.85 9.8 41.93 9.79 41.99 9.79 42.03 9.75 42.09 9.72 42.15 9.69 42.19 9.66 42.25 9.63 42.29 9.61 42.32 9.59 42.36 9.55 42.47 9.51 42.56 9.51 42.59 9.5 42.66 9.48 42.72 9.48 42.79 9.47 42.85 9.46 42.93 9.45 43.03 9.44 43.12 9.43 43.17 9.43 43.22 9.42 43.23 9.4 43.3 9.37 43.37 9.35 43.42 9.31 43.47 9.26 43.52 9.23 43.54 9.17 43.58 9.11 43.6 9.06 43.61 8.96 43.63 8.88 43.64 8.85 43.65 8.78 43.66 8.7 43.68 8.67 43.7 8.65 43.71 8.58 43.76 8.51 43.8 8.47 43.83 8.41 43.86 8.35 43.9 8.29 43.94 8.22 43.78 8.07 43.41 7.89 42.97 7.72 42.54 7.61 42.26 7.44 41.83 7.36 41.63 7.21 41.27 7.18 41.18 7.28 41.17 7.32 41.16 7.37 41.14 7.5 41.09 7.57 41.06 7.61 41.05 7.64 41.05 7.68 41.06 7.75 41.08 7.86 41.13 7.95 41.17 7.99 41.19 8.05 41.24 8.1 41.29 8.12 41.29 8.14 41.29 8.14 41.27 8.13 41.25 8.09 41.21 8.04 41.16 8 41.12 7.98 41.1 7.98 41.07 7.97 41.02 7.97 40.96 7.96 40.92 7.94 40.9 7.91 40.88 7.86 40.86 7.81 40.83 7.75 40.79 7.7 40.76 7.67 40.73 7.65 40.7 7.61 40.64 7.56 40.56 7.52 40.51 7.51 40.49 7.49 40.46 7.48 40.44 7.44 40.4 7.41 40.38 7.36 40.36 7.34 40.35 7.33 40.33 7.31 40.3 7.28 40.26 7.27 40.25 7.24 40.24 7.23 40.22 7.22 40.19 7.21 40.18 7.17 40.16 7.12 40.12 7.09 40.08 7.06 40.03 7.03 39.98 7.01 39.94 7.02 39.91 7.03 39.88 7.06 39.83 7.08 39.81 7.1 39.78 7.11 39.76 7.11 39.73 7.12 39.71 7.15 39.68 7.19 39.67 7.21 39.67 7.23 39.68 7.25 39.68 7.28 39.67 7.29 39.65 7.29 39.63 7.29 39.6 7.28 39.57 7.26 39.51 7.23 39.44 7.21 39.38 7.2 39.31 7.21 39.27 7.21 39.2 7.2 39.15 7.21 39.07 7.22 39.01 7.24 38.97 7.26 38.9 7.26 38.88 7.26 38.85 7.25 38.81 7.24 38.77 7.21 38.7 7.17 38.6 7.14 38.54 7.1 38.51 7.05 38.45 6.99 38.41 6.96 38.39 6.93 38.38 6.91 38.35 6.88 38.31 6.84 38.28 6.78 38.26 6.73 38.22 6.69 38.17 6.64 38.12 6.61 38.08 6.56 38.04 6.51 38.01 6.47 37.97 6.44 37.94 6.43 37.93 6.41 37.92 6.41 37.92 6.39 37.89 6.36 37.83 6.33 37.74 6.29 37.68 6.26 37.63 6.24 37.61 6.19 37.57 6.13 37.53 6.06 37.5 5.99 37.46 5.95 37.43 5.92 37.39 5.9 37.35 5.88 37.27 5.88 37.24 5.86 37.22 5.84 37.2 5.84 37.2 5.84 37.18 5.84 37.18 5.85 37.18 5.88 37.17 5.92 37.16 5.95 37.15 6.01 37.1 6.07 37.06 6.14 37.01 6.16 36.99 6.2 36.95 6.24 36.9 6.3 36.85 6.34 36.82 6.35 36.8 6.36 36.77 6.34 36.74 6.31 36.71 6.27 36.66 6.23 36.62 6.2 36.56 6.19 36.53 6.2 36.49 6.2 36.49 6.22 36.47 6.26 36.43 6.28 36.43 6.33 36.42 6.38 36.42 6.41 36.41 6.42 36.39 6.41 36.37 6.38 36.37 6.33 36.36 6.29 36.34 6.25 36.31 6.23 36.29 6.22 36.27 6.22 36.24 6.22 36.2 6.23 36.15 6.24 36.09 6.26 36.03 6.28 35.99 6.31 35.95 6.33 35.92 6.33 35.9 6.3 35.88 6.29 35.87 6.29 35.84 6.31 35.82 6.33 35.81 6.37 35.79 6.43 35.77 6.51 35.75 6.53 35.73 6.53 35.72 6.51 35.72 6.49 35.72 6.44 35.72 6.35 35.74 6.31 35.73 6.28 35.71 6.27 35.69 6.26 35.66 6.25 35.64 6.23 35.62 6.2 35.59 6.17 35.57 6.16 35.54 6.15 35.52 6.14 35.49 6.14 35.46 6.15 35.42 6.16 35.38 6.18 35.32 6.2 35.28 6.22 35.24 6.23 35.2 6.22 35.18 6.21 35.17 6.18 35.16 6.14 35.16 6.11 35.15 6.09 35.13 6.07 35.1 6.05 35.07 6.03 35.05 6.01 35.04 6 35.02 5.98 35.01 5.96 35 5.94 34.99 5.92 34.97 5.91 34.96 5.89 34.96 5.88 34.94 5.87 34.93 5.86 34.91 5.85 34.89 5.82 34.88 5.77 34.85 5.73 34.83 5.7 34.8 5.67 34.76 5.64 34.73 5.62 34.69 5.61 34.66 5.6 34.65 5.58 34.64 5.56 34.63 5.54 34.61 5.54 34.59 5.56 34.57 5.56 34.55 5.55 34.53 5.54 34.5 5.54 34.49 5.54 34.45 5.54 34.42 5.54 34.39 5.51 34.35 5.49 34.31 5.46 34.27 5.45 34.23 5.44 34.19 5.45 34.16 5.45 34.11 5.46 34.09 5.48 34.06 5.5 34.03 5.5 34.01 5.5 33.98 5.5 33.97 5.53 33.95 5.55 33.93 5.56 33.91 5.55 33.9 5.53 33.9 5.51 33.89 5.5 33.87 5.5 33.84 5.49 33.8 5.49 33.71 5.49 33.62 5.5 33.55 5.51 33.5 5.54 33.44 5.57 33.39 5.62 33.33 5.67 33.28 5.68 33.26 5.7 33.23 5.71 33.22 5.73 33.17 5.75 33.13 5.77 33.1 5.79 33.09 5.81 33.07 5.84 33.07 5.84 33.05 5.83 33.04 5.8 33.03 5.79 33.02 5.77 33 5.77 32.98 5.76 32.95 5.75 32.93 5.72 32.9 5.7 32.88 5.68 32.87 5.66 32.84 5.61 32.77 5.59 32.73 5.56 32.68 5.53 32.62 5.5 32.56 5.5 32.55 5.51 32.52 5.51 32.47 5.49 32.44 5.46 32.41 5.44 32.38 5.4 32.34 5.37 32.3 5.35 32.27 5.34 32.22 5.33 32.17 5.31 32.13 5.3 32.12 5.28 32.1 5.24 32.09 5.2 32.08 5.19 32.06 5.17 32.03 5.13 31.97 5.12 31.95 5.07 31.89 5.03 31.83 5.03 31.82 5.02 31.81 5.02 31.8 5.01 31.78 5.01 31.77 5.01 31.75 5.02 31.75 5.02 31.73 5.02 31.72 5.02 31.71 5.01 31.7 5 31.69 4.99 31.69 4.97 31.7 4.96 31.7 4.93 31.7 4.93 31.7 4.91 31.67 4.86 31.63 4.78 31.56 4.73 31.52 4.66 31.48 4.58 31.43 4.51 31.4 4.45 31.36 4.43 31.35 4.37 31.3 4.33 31.28 4.34 31.26 4.34 31.24 4.33 31.23 4.31 31.23 4.29 31.22 4.25 31.21 4.22 31.2 4.19 31.17 4.18 31.16 4.16 31.14 4.12 31.12 4.08 31.09 4.03 31.04 3.98 30.98 3.92 30.92 3.87 30.85 3.85 30.83 3.8 30.79 3.73 30.73 3.66 30.68 3.58 30.63 3.54 30.6 3.53 30.58 3.51 30.54 3.5 30.53 3.49 30.52 3.47 30.5 3.42 30.48 3.36 30.45 3.3 30.43 3.23 30.4 3.16 30.38 3.09 30.35 3.03 30.33 3.01 30.31 2.96 30.29 2.91 30.26 2.87 30.22 2.85 30.18 2.84 30.15 2.83 30.11 2.82 30.07 2.83 30.05 2.83 30.02 2.84 29.98 2.84 29.95 2.84 29.91 2.85 29.88 2.86 29.85 2.87 29.83 2.87 29.82 2.86 29.8 2.85 29.78 2.84 29.76 2.84 29.75 2.84 29.74 2.84 29.73 2.84 29.71 2.83 29.7 2.82 29.69 2.81 29.68 2.81 29.66 2.8 29.65 2.79 29.62 2.78 29.6 2.77 29.59 2.76 29.57 2.74 29.54 2.72 29.51 2.71 29.5 2.69 29.49 2.68 29.48 2.62 29.38 2.58 29.29 2.56 29.28 2.54 29.27 2.52 29.26 2.5 29.24 2.51 29.19 2.5 29.13 2.44 29 2.42 28.97 2.41 28.91 2.37 28.8 2.36 28.78 2.34 28.75 2.28 28.72 2.26 28.7 2.23 28.64 2.21 28.62 2.18 28.6 2.16 28.58 2.12 28.51 2.11 28.48 2.07 28.43 2.03 28.39 1.92 28.3 1.82 28.24 1.78 28.21 1.71 28.16 1.67 28.13 1.65 28.11 1.59 27.99 1.55 27.95 1.52 27.91 1.49 27.88 1.47 27.86 1.45 27.78 1.43 27.72 1.42 27.68 1.44 27.56 1.46 27.53 1.52 27.49 1.56 27.44 1.59 27.38 1.61 27.36 1.66 27.33 1.68 27.32 1.71 27.29 1.74 27.26 1.79 27.19 1.8 27.15 1.81 27.11 1.81 27.09 1.79 27.07 1.78 27.06 1.76 27.04 1.71 27 1.69 26.96 1.63 26.91 1.58 26.84 1.58 26.84 1.51 26.76 1.46 26.72 1.45 26.7 1.45 26.67 1.44 26.6 1.44 26.57 1.42 26.55 1.33 26.46 1.31 26.43 1.3 26.41 1.31 26.33 1.31 26.27 1.32 26.2 1.32 25.99 1.32 25.97 1.32 25.85 1.31 25.77 1.3 25.73 1.3 25.69 1.26 25.6 1.21 25.46 1.19 25.42 1.19 25.36 1.18 25.32 1.16 25.28 1.13 25.25 1.12 25.23 1.08 25.2 1.06 25.17 1.05 25.13 1.04 25.11 1.01 25.08 1 25.07 1 25.05 1.03 24.98 1.04 24.96 1.04 24.91 1.05 24.87 1.03 24.78 1.04 24.76 1.05 24.74 1.05 24.66 1.02 24.44 1.03 24.41 1.05 24.39 1.1 24.35 1.14 24.32 1.15 24.32 1.17 24.33 1.2 24.35 1.22 24.35 1.24 24.35 1.3 24.37 1.33 24.38 1.36 24.37 1.37 24.36 1.4 24.33 1.41 24.3 1.43 24.19 1.45 24.13 1.49 24.05 1.52 24 1.52 23.95 1.49 23.83 1.48 23.76 1.49 23.67 1.5 23.61 1.51 23.58 1.52 23.57 1.57 23.53 1.61 23.47 1.64 23.45 1.67 23.42 1.69 23.39 1.72 23.38 1.85 23.34 1.86 23.33 1.93 23.28 1.96 23.26 2.03 23.19 2.17 23.09 2.19 23.06 2.2 23.04 2.2 23.02 2.19 23 2.18 22.99 2.1 22.94 1.98 22.86 1.96 22.84 1.93 22.78 1.92 22.74 1.91 22.69 1.91 22.66 1.91 22.55 1.9 22.52 1.87 22.47 1.87 22.44 1.88 22.42 1.89 22.4 1.95 22.36 1.99 22.31 2.01 22.3 2.09 22.19 2.1 22.15 2.12 22.13 2.2 22.07 2.28 21.97 2.31 21.95 2.36 21.93 2.38 21.9 2.38 21.89 2.37 21.86 2.35 21.83 2.32 21.8 2.25 21.7 2.23 21.66 2.2 21.57 2.19 21.53 2.2 21.46 2.19 21.4 2.18 21.35 2.19 21.31 2.2 21.28 2.22 21.25 2.25 21.22 2.27 21.18 2.27 21.16 2.26 21.15 2.21 21.11 2.2 21.1 2.2 21.08 2.2 21.02 2.19 20.98 2.17 20.93 2.17 20.91 2.22 20.82 2.23 20.78 2.23 20.75 2.23 20.72 2.24 20.68 2.25 20.65 2.25 20.62 2.27 20.57 2.27 20.55 2.27 20.53 2.28 20.47 2.28 20.45 2.27 20.42 2.27 20.39 2.34 20.2 2.37 20.1 2.38 20.07 2.37 20.04 2.37 20.02 2.4 19.98 2.42 19.95 2.45 19.9 2.48 19.83 2.51 19.78 2.59 19.62 2.6 19.57 2.61 19.54 2.63 19.46 2.64 19.41 2.63 19.38 2.6 19.33 2.58 19.31 2.56 19.28 2.55 19.22 2.56 19.18 2.57 19.14 2.58 19.11 2.62 19.06 2.67 19.01 2.68 18.99 2.68 18.97 2.67 18.91 2.68 18.87 2.68 18.84 2.69 18.81 2.69 18.8 2.7 18.8 2.72 18.79 2.74 18.77 2.76 18.74 2.77 18.72 2.78 18.69 2.78 18.68 2.79 18.68 2.8 18.68 2.81 18.68 2.81 18.67 2.81 18.65 2.81 18.63 2.81 18.62 2.82 18.61 2.84 18.6 2.86 18.57 2.87 18.54 2.88 18.52 2.9 18.48 2.93 18.43 2.94 18.41 2.96 18.39 2.98 18.36 3.02 18.32 3.05 18.29 3.08 18.26 3.1 18.25 3.14 18.21 3.16 18.18 3.19 18.13 3.22 18.1 3.24 18.08 3.26 18.06 3.3 18.04 3.33 18.02 3.37 18 3.41 17.97 3.43 17.96 3.45 17.93 3.45 17.91 3.44 17.9 3.43 17.88 3.43 17.87 3.44 17.86 3.46 17.85 3.49 17.83 3.52 17.81 3.53 17.8 3.55 17.76 3.55 17.74 3.54 17.71 3.54 17.69 3.54 17.67 3.54 17.65 3.55 17.63 3.56 17.61 3.58 17.59 3.61 17.57 3.64 17.55 3.67 17.52 3.69 17.5 3.71 17.47 3.72 17.45 3.71 17.43 3.71 17.41 3.7 17.39 3.68 17.38 3.67 17.36 3.65 17.35 3.6 17.34 3.56 17.32 3.52 17.3 3.5 17.29 3.47 17.28 3.46 17.28 3.44 17.26 3.42 17.25 3.4 17.23 3.37 17.2 3.35 17.19 3.32 17.17 3.29 17.14 3.27 17.12 3.26 17.1 3.25 17.08 3.25 17.05 3.25 17 3.24 16.98 3.23 16.95 3.22 16.93 3.21 16.91 3.2 16.9 3.18 16.89 3.16 16.87 3.1 16.85 3.08 16.84 3.07 16.83 3.07 16.83 3.07 16.81 3.08 16.8 3.1 16.79 3.11 16.77 3.12 16.76 3.11 16.75 3.1 16.73 3.09 16.72 3.05 16.69 2.99 16.63 2.97 16.6 2.97 16.58 2.97 16.56 2.97 16.53 2.97 16.49 2.97 16.44 2.97 16.41 2.96 16.39 2.95 16.36 2.95 16.32 2.93 16.29 2.91 16.26 2.9 16.23 2.87 16.19 2.86 16.16 2.84 16.12 2.84 16.09 2.84 16.06 2.84 16.03 2.85 16.02 2.85 16 2.86 15.97 2.88 15.93 2.89 15.9 2.89 15.87 2.88 15.84 2.88 15.81 2.88 15.8 2.89 15.76 2.9 15.74 2.91 15.7 2.92 15.66 2.93 15.63 2.93 15.62 2.92 15.6 2.9 15.56 2.89 15.54 2.89 15.51 2.89 15.49 2.9 15.48 2.92 15.45 2.93 15.43 2.93 15.42 2.91 15.39 2.91 15.36 2.92 15.34 2.94 15.32 2.96 15.3 2.99 15.29 3.01 15.27 3.03 15.24 3.05 15.22 3.08 15.18 3.09 15.15 3.1 15.11 3.1 15.07 3.1 15.05 3.12 15.03 3.16 15.01 3.18 15 3.22 14.98 3.27 14.96 3.32 14.93 3.37 14.92 3.4 14.91 3.45 14.9 3.49 14.89 3.53 14.88 3.59 14.86 3.62 14.85 3.66 14.85 3.72 14.84 3.79 14.82 3.85 14.82 3.91 14.81 3.94 14.81 3.97 14.81 4 14.82 4.03 14.83 4.07 14.83 4.11 14.83 4.16 14.81 4.19 14.8 4.21 14.78 4.23 14.76 4.25 14.75 4.28 14.75 4.31 14.74 4.33 14.74 4.35 14.73 4.38 14.73 4.42 14.72 4.45 14.71 4.48 14.69 4.5 14.67 4.53 14.63 4.54 14.62 4.56 14.6 4.58 14.57 4.59 14.55 4.61 14.53 4.63 14.51 4.66 14.5 4.67 14.48 4.68 14.47 4.68 14.46 4.67 14.45 4.66 14.44 4.65 14.43 4.65 14.42 4.65 14.41 4.67 14.39 4.69 14.38 4.71 14.36 4.71 14.35 4.71 14.34 4.71 14.33 4.71 14.3 4.7 14.28 4.69 14.25 4.67 14.22 4.65 14.2 4.63 14.17 4.61 14.16 4.58 14.14 4.55 14.11 4.51 14.08 4.48 14.07 4.47 14.07 4.46 14.06 4.42 14.05 4.39 14.04 4.36 14.02 4.33 14 4.3 13.99 4.27 13.97 4.26 13.96 4.24 13.94 4.22 13.93 4.19 13.91 4.16 13.89 4.15 13.89 4.13 13.88 4.1 13.86 4.06 13.84 4.04 13.83 3.99 13.81 3.94 13.78 3.92 13.77 3.9 13.76 3.88 13.74 3.86 13.73 3.84 13.71 3.82 13.7 3.81 13.69 3.79 13.67 3.77 13.66 3.76 13.65 3.74 13.64 3.71 13.62 3.69 13.6 3.67 13.59 3.63 13.57 3.61 13.55 3.58 13.53 3.56 13.53 3.53 13.51 3.51 13.49 3.5 13.48 3.47 13.47 3.46 13.46 3.44 13.45 3.43 13.44 3.42 13.43 3.41 13.42 3.4 13.4 3.38 13.39 3.35 13.37 3.33 13.35 3.31 13.34 3.3 13.32 3.29 13.3 3.31 13.26 3.34 13.25 3.38 13.24 3.39 13.22 3.38 13.21 3.36 13.19 3.35 13.18 3.35 13.18 3.35 13.16 3.36 13.15 3.36 13.15 3.37 13.15 3.39 13.14 3.42 13.14 3.44 13.14 3.48 13.13 3.48 13.12 3.5 13.12 3.51 13.11 3.52 13.11 3.53 13.1 3.57 13.1 3.59 13.1 3.6 13.11 3.62 13.14 3.63 13.16 3.64 13.17 3.68 13.18 3.7 13.19 3.72 13.19 3.74 13.19 3.76 13.19 3.77 13.18 3.78 13.17 3.78 13.16 3.79 13.15 3.76 13.08 3.73 13.02 3.72 13 3.72 13 3.7 12.99 3.69 12.99 3.67 12.99 3.65 12.99 3.64 13.01 3.63 13.02 3.61 13.02 3.59 13.02 3.5 13 3.45 12.98 3.4 12.96 3.37 12.94 3.35 12.93 3.3 12.89 3.23 12.83 3.17 12.77 3.16 12.75 3.16 12.73 3.14 12.68 3.13 12.67 3.12 12.67 3.1 12.67 3.09 12.66 3.09 12.65 3.09 12.65 3.1 12.63 3.1 12.62 3.1 12.6 3.11 12.6 3.12 12.6 3.15 12.6 3.17 12.6 3.18 12.59 3.19 12.58 3.19 12.58 3.18 12.57 3.18 12.57 3.17 12.56 3.14 12.55 3.13 12.54 3.12 12.53 3.11 12.53 3.1 12.52 3.09 12.52 3.08 12.53 3.07 12.53 3.06 12.55 3.04 12.57 3.03 12.57 3.03 12.56 3.02 12.56 3 12.55 3 12.55 3 12.53 3 12.53 3 12.52 2.99 12.51 2.97 12.51 2.95 12.52 2.94 12.52 2.93 12.51 2.93 12.51 2.94 12.49 2.94 12.46 2.93 12.45 2.93 12.44 2.93 12.43 2.91 12.42 2.91 12.41 2.86 12.4 2.86 12.39 2.84 12.37 2.84 12.36 2.82 12.35 2.82 12.34 2.79 12.33 2.78 12.33 2.77 12.3 2.76 12.29 2.74 12.28 2.75 12.27 2.75 12.27 2.76 12.25 2.77 12.22 2.78 12.19 2.78 12.17 2.78 12.16 2.79 12.15 2.79 12.14 2.83 12.11 2.84 12.1 2.84 12.1 2.84 12.09 2.84 12.08 2.83 12.07 2.83 12.06 2.82 12.05 2.81 12.05 2.79 12.05 2.79 12.05 2.77 12.05 2.74 12.06 2.73 12.07 2.71 12.08 2.7 12.08 2.69 12.08 2.67 12.09 2.64 12.09 2.63 12.09 2.62 12.09 2.62 12.09 2.62 12.08 2.61 12.07 2.61 12.03 2.61 12.03 2.6 12.02 2.56 12.01 2.56 12 2.55 12 2.55 11.99 2.55 11.97 2.56 11.95 2.57 11.9 2.58 11.86 2.6 11.83 2.62 11.81 2.63 11.78 2.65 11.75 2.65 11.72 2.65 11.71 2.65 11.68 2.63 11.66 2.62 11.64 2.6 11.61 2.59 11.61 2.58 11.6 2.56 11.6 2.55 11.6 2.52 11.6 2.5 11.61 2.46 11.64 2.44 11.64 2.45 11.62 2.46 11.6 2.5 11.54 2.5 11.53 2.5 11.51 2.48 11.47 2.47 11.45 2.46 11.44 2.46 11.44 2.45 11.43 2.42 11.43 2.41 11.43 2.41 11.42 2.4 11.42 2.4 11.41 2.4 11.41 2.41 11.4 2.43 11.39 2.45 11.38 2.47 11.38 2.49 11.38 2.49 11.37 2.5 11.37 2.53 11.34 2.54 11.31 2.54 11.3 2.53 11.28 2.52 11.26 2.52 11.25 2.51 11.25 2.47 11.2 2.46 11.2 2.44 11.18 2.43 11.17 2.42 11.16 2.43 11.16 2.43 11.15 2.44 11.15 2.46 11.16 2.49 11.17 2.51 11.17 2.52 11.17 2.52 11.17 2.53 11.16 2.53 11.14 2.53 11.13 2.52 11.11 2.49 11.09 2.47 11.07 2.45 11.04 2.4 10.99 2.38 10.97 2.38 10.96 2.38 10.94 2.38 10.93 2.38 10.91 2.38 10.9 2.38 10.89 2.39 10.89 2.4 10.88 2.42 10.89 2.44 10.88 2.46 10.88 2.48 10.88 2.49 10.87 2.5 10.86 2.5 10.86 2.51 10.85 2.52 10.83 2.53 10.79 2.53 10.79 2.54 10.79 2.54 10.78 2.55 10.78 2.56 10.79 2.58 10.8 2.59 10.8 2.6 10.8 2.61 10.8 2.62 10.79 2.62 10.79 2.63 10.78 2.63 10.77 2.63 10.77 2.63 10.77 2.63 10.75 2.61 10.73 2.61 10.72 2.61 10.71 2.62 10.7 2.63 10.7 2.63 10.68 2.62 10.67 2.61 10.67 2.58 10.66 2.57 10.66 2.57 10.64 2.57 10.64 2.57 10.64 2.57 10.63 2.59 10.63 2.64 10.65 2.66 10.65 2.68 10.67 2.69 10.67 2.72 10.68 2.73 10.69 2.74 10.69 2.75 10.68 2.75 10.67 2.75 10.66 2.75 10.64 2.75 10.63 2.76 10.62 2.77 10.6 2.77 10.6 2.77 10.6 2.78 10.59 2.79 10.59 2.8 10.6 2.8 10.61 2.8 10.61 2.8 10.62 2.8 10.64 2.8 10.65 2.81 10.65 2.82 10.66 2.87 10.66 2.88 10.66 2.88 10.67 2.89 10.67 2.88 10.69 2.87 10.7 2.84 10.73 2.84 10.73 2.84 10.75 2.83 10.75 2.84 10.77 2.87 10.8 2.9 10.86 2.91 10.87 2.92 10.87 2.92 10.87 2.93 10.88 2.94 10.88 2.94 10.88 2.95 10.88 2.96 10.88 2.97 10.88 2.98 10.87 2.99 10.86 3 10.84 3 10.82 3 10.81 3 10.79 3.02 10.77 3.03 10.76 3.03 10.75 3.02 10.74 3 10.72 2.97 10.71 2.93 10.67 2.92 10.67 2.9 10.64 2.88 10.6 2.87 10.57 2.87 10.55 2.87 10.54 2.88 10.53 2.88 10.5 2.89 10.49 2.89 10.48 2.89 10.47 2.88 10.47 2.86 10.44 2.86 10.44 2.86 10.44 2.86 10.43 2.88 10.43 2.89 10.43 2.91 10.43 2.92 10.44 2.93 10.45 2.94 10.46 2.94 10.47 2.93 10.53 2.92 10.56 2.92 10.58 2.92 10.6 2.93 10.62 2.94 10.64 2.95 10.65 2.97 10.66 3.03 10.69 3.05 10.7 3.07 10.71 3.12 10.73 3.13 10.73 3.14 10.72 3.15 10.73 3.15 10.73 3.15 10.73 3.11 10.75 3.1 10.75 3.1 10.76 3.11 10.76 3.14 10.78 3.15 10.78 3.16 10.8 3.16 10.82 3.16 10.85 3.17 10.86 3.17 10.86 3.18 10.86 3.22 10.84 3.23 10.84 3.25 10.84 3.27 10.84 3.28 10.85 3.28 10.85 3.28 10.87 3.28 10.88 3.28 10.88 3.3 10.88 3.31 10.88 3.32 10.87 3.33 10.84 3.33 10.84 3.34 10.84 3.35 10.84 3.36 10.85 3.38 10.86 3.39 10.87 3.4 10.87 3.42 10.87 3.43 10.86 3.44 10.86 3.44 10.85 3.44 10.83 3.43 10.82 3.42 10.79 3.41 10.76 3.4 10.7 3.39 10.67 3.37 10.65 3.35 10.63 3.31 10.59 3.28 10.56 3.27 10.55 3.25 10.54 3.21 10.53 3.18 10.52 3.16 10.52 3.16 10.51 3.15 10.5 3.15 10.49 3.16 10.49 3.16 10.49 3.19 10.49 3.21 10.49 3.23 10.49 3.23 10.49 3.25 10.5 3.28 10.52 3.29 10.53 3.31 10.54 3.32 10.54 3.33 10.55 3.36 10.57 3.37 10.6 3.39 10.61 3.42 10.66 3.43 10.67 3.44 10.69 3.45 10.7 3.46 10.75 3.47 10.77 3.48 10.79 3.5 10.8 3.51 10.81 3.53 10.81 3.55 10.8 3.56 10.78 3.57 10.77 3.59 10.71 3.59 10.69 3.6 10.69 3.62 10.67 3.65 10.64 3.66 10.62 3.66 10.61 3.66 10.6 3.67 10.6 3.69 10.58 3.71 10.56 3.73 10.54 3.75 10.53 3.77 10.52 3.79 10.52 3.8 10.52 3.82 10.52 3.84 10.51 3.86 10.49 3.87 10.45 3.86 10.4 3.87 10.36 3.87 10.35 3.88 10.34 3.89 10.33 3.9 10.32 3.93 10.31 3.95 10.31 3.97 10.29 3.99 10.27 4 10.26 4.03 10.24 4.05 10.23 4.07 10.2 4.07 10.19 4.08 10.17 4.08 10.16 4.07 10.13 4.07 10.09 4.07 10.08 4.07 10.06 4.08 10.02 4.09 10 4.1 9.99 4.13 9.96 4.15 9.95 4.16 9.92 4.17 9.91 4.17 9.9 4.16 9.89 4.15 9.87 4.14 9.84 4.14 9.82 4.14 9.8 4.15 9.8 4.16 9.79 4.17 9.79 4.18 9.79 4.18 9.8 4.19 9.8 4.19 9.81 4.18 9.83 4.18 9.84 4.18 9.86 4.19 9.88 4.21 9.89 4.22 9.9 4.23 9.9 4.24 9.89 4.24 9.87 4.25 9.86 4.25 9.86 4.27 9.86 4.27 9.89 4.28 9.89 4.29 9.89 4.3 9.88 4.3 9.87 4.31 9.87 4.32 9.87 4.35 9.87 4.38 9.87 4.39 9.86 4.4 9.86 4.43 9.83 4.44 9.82 4.44 9.81 4.45 9.79 4.45 9.78 4.45 9.77 4.43 9.74 4.42 9.73 4.41 9.71 4.4 9.7 4.38 9.67 4.38 9.67 4.39 9.64 4.4 9.63 4.4 9.63 4.4 9.63 4.43 9.64 4.46 9.64 4.47 9.64 4.49 9.64 4.5 9.63 4.52 9.62 4.55 9.59 4.56 9.57 4.58 9.55 4.59 9.54 4.6 9.52 4.6 9.51 4.65 9.48 4.68 9.46 4.71 9.43 4.73 9.42 4.74 9.42 4.75 9.41 4.75 9.4 4.75 9.39 4.75 9.37 4.75 9.34 4.75 9.32 4.75 9.29 4.74 9.27 4.73 9.25 4.75 9.25 4.76 9.26 4.77 9.27 4.79 9.31 4.8 9.34 4.81 9.36 4.82 9.37 4.83 9.37 4.84 9.37 4.85 9.36 4.87 9.33 4.89 9.28 4.9 9.26 4.91 9.24 4.92 9.21 4.92 9.2 4.93 9.17 4.93 9.15 4.94 9.09 4.94 9.07 4.93 9.05 4.94 9.03 4.95 9.01 4.99 8.91 4.99 8.9 4.98 8.82 4.97 8.78 4.96 8.77 4.96 8.75 4.96 8.74 4.96 8.7 4.96 8.67 4.96 8.65 4.97 8.63 4.99 8.61 5.01 8.57 5.02 8.56 5.03 8.55 5.05 8.52 5.08 8.48 5.09 8.47 5.11 8.45 5.13 8.41 5.14 8.4 5.15 8.38 5.17 8.35 5.19 8.33 5.19 8.32 5.2 8.29 5.21 8.26 5.24 8.19 5.25 8.18 5.25 8.16 5.26 8.14 5.28 8.1 5.29 8.07 5.31 8.03 5.32 8.01 5.35 7.93 5.36 7.91 5.37 7.9 5.39 7.88 5.42 7.84 5.49 7.79 5.52 7.77 5.54 7.75 5.58 7.72 5.6 7.7 5.61 7.68 5.62 7.68 5.63 7.67 5.66 7.64 5.67 7.62 5.69 7.58 5.69 7.54 5.7 7.51 5.71 7.5 5.72 7.49 5.73 7.48 5.77 7.47 5.79 7.47 5.82 7.47 5.83 7.47 5.86 7.47 5.87 7.46 5.87 7.46 5.88 7.45 5.89 7.44 5.9 7.43 5.93 7.33 5.94 7.3 5.94 7.28 5.93 7.26 5.93 7.25 5.92 7.23 5.91 7.21 5.88 7.19 5.88 7.17 5.88 7.16 5.88 7.15 5.89 7.13 5.89 7.12 5.9 7.11 5.91 7.1 5.92 7.09 5.94 7.09 5.97 7.08 6.01 7.08 6.07 7.08 6.13 7.07 6.16 7.06 6.2 7.05 6.21 7.04 6.23 7.03 6.25 7.02 6.25 7.02 6.27 7 6.29 6.99 6.3 6.99 6.32 6.98 6.34 6.97 6.34 6.96 6.35 6.95 6.35 6.93 6.34 6.91 6.34 6.9 6.34 6.89 6.34 6.88 6.34 6.88 6.35 6.87 6.42 6.85 6.44 6.85 6.48 6.82 6.5 6.8 6.52 6.79 6.58 6.76 6.59 6.76 6.6 6.74 6.61 6.73 6.61 6.73 6.61 6.73 6.62 6.71 6.63 6.69 6.65 6.64 6.66 6.62 6.67 6.61 6.69 6.58 6.7 6.57 6.72 6.56 6.75 6.55 6.78 6.54 6.82 6.53 6.85 6.52 6.85 6.52 6.89 6.51 6.94 6.51 7.05 6.48 7.1 6.47 7.15 6.46 7.25 6.44 7.28 6.44 7.33 6.44 7.36 6.45 7.42 6.47 7.43 6.47 7.47 6.48 7.49 6.49 7.51 6.49 7.53 6.48 7.56 6.47 7.59 6.46 7.63 6.43 7.65 6.42 7.69 6.4 7.71 6.4 7.73 6.4 7.73 6.39 7.75 6.38 7.76 6.37 7.79 6.35 7.82 6.33 7.83 6.33 7.86 6.32 7.88 6.31 7.89 6.31 7.9 6.3 7.95 6.3 7.97 6.31 8 6.32 8.01 6.32 8.03 6.32 8.05 6.32 8.07 6.31 8.08 6.31 8.08 6.3 8.09 6.3 8.09 6.26 8.1 6.25 8.11 6.24 8.16 6.21 8.17 6.2 8.19 6.19 8.2 6.18 8.22 6.16 8.23 6.15 8.25 6.14 8.26 6.13 8.28 6.12 8.29 6.11 8.31 6.07 8.32 6.04 8.33 6.01 8.35 5.98 8.37 5.94 8.37 5.94 8.38 5.92 8.38 5.9 8.41 5.86 8.42 5.83 8.44 5.81 8.45 5.8 8.46 5.79 8.47 5.78 8.48 5.78 8.49 5.77 8.51 5.74 8.51 5.72 8.52 5.69 8.52 5.64 8.53 5.62 8.54 5.59 8.58 5.54 8.59 5.52 8.62 5.48 8.65 5.45 8.68 5.42 8.7 5.38 8.74 5.35 8.77 5.31 8.78 5.3 8.78 5.29 8.78 5.27 8.78 5.25 8.77 5.23 8.75 5.2 8.75 5.19 8.74 5.19 8.7 5.17 8.68 5.14 8.65 5.1 8.62 5.06 8.61 5.03 8.61 5.01 8.61 4.98 8.61 4.96 8.61 4.95 8.62 4.94 8.63 4.92 8.64 4.9 8.64 4.88 8.65 4.86 8.67 4.82 8.68 4.79 8.67 4.75 8.67 4.74 8.65 4.71 8.64 4.68 8.64 4.64 8.64 4.63 8.64 4.6 8.64 4.6 8.64 4.58 8.63 4.55 8.63 4.55 8.6 4.52 8.57 4.49 8.55 4.46 8.53 4.43 8.52 4.42 8.51 4.4 8.5 4.37 8.5 4.34 8.5 4.32 8.5 4.31 8.5 4.3 8.51 4.29 8.51 4.29 8.54 4.27 8.59 4.25 8.63 4.23 8.7 4.18 8.72 4.17 8.72 4.16 8.72 4.15 8.73 4.13 8.73 4.12 8.73 4.12 8.73 4.12 8.74 4.12 8.75 4.13 8.76 4.14 8.77 4.16 8.77 4.17 8.79 4.18 8.81 4.18 8.84 4.18 8.86 4.18 8.87 4.17 8.88 4.17 8.9 4.15 8.91 4.14 8.92 4.13 8.92 4.12 8.92 4.11 8.9 4.08 8.85 4.04 8.84 4.03 8.84 4.03 8.84 4.02 8.84 4.02 8.86 4.02 8.88 4.02 8.89 4.02 8.92 4 8.95 3.98 8.96 3.97 9.01 3.95 9.09 3.93 9.16 3.92 9.19 3.91 9.21 3.9 9.22 3.89 9.25 3.86 9.27 3.85 9.28 3.84 9.29 3.84 9.33 3.81 9.35 3.8 9.36 3.8 9.38 3.8 9.39 3.8 9.41 3.8 9.43 3.79 9.44 3.78 9.44 3.77 9.45 3.77 9.44 3.74 9.44 3.73 9.41 3.69 9.4 3.66 9.4 3.66 9.41 3.65 9.41 3.65 9.43 3.65 9.45 3.64 9.46 3.63 9.48 3.61 9.48 3.58 9.49 3.57 9.48 3.56 9.48 3.55 9.46 3.53 9.45 3.51 9.45 3.49 9.45 3.47 9.46 3.43 9.46 3.42 9.46 3.41 9.46 3.41 9.44 3.39 9.43 3.38 9.43 3.38 9.43 3.37 9.45 3.36 9.46 3.36 9.47 3.35 9.49 3.34 9.5 3.33 9.52 3.32 9.52 3.32 9.54 3.31 9.57 3.31 9.6 3.32 9.63 3.33 9.64 3.33 9.66 3.35 9.66 3.35 9.67 3.37 9.69 3.43 9.7 3.44 9.71 3.45 9.72 3.45 9.73 3.45 9.74 3.45 9.76 3.45 9.77 3.45 9.78 3.44 9.8 3.44 9.82 3.42 9.85 3.39 9.87 3.36 9.89 3.34 9.9 3.32 9.9 3.29 9.9 3.24 9.9 3.23 9.91 3.2 9.92 3.19 9.94 3.17 9.95 3.16 9.97 3.15 10.04 3.13 10.05 3.13 10.06 3.12 10.06 3.12 10.06 3.11 10.06 3.1 10.06 3.1 10.05 3.1 10.05 3.1 10.03 3.08 10 3.06 9.98 3.04 9.95 3.01 9.94 3 9.92 2.97 9.91 2.95 9.91 2.93 9.92 2.9 9.92 2.89 9.92 2.85 9.9 2.79 9.89 2.76 9.9 2.73 9.91 2.7 9.93 2.69 9.94 2.67 9.96 2.65 9.97 2.64 9.98 2.63 9.99 2.61 9.99 2.59 9.99 2.56 9.99 2.55 9.98 2.5 9.98 2.49 9.98 2.48 9.97 2.47 9.95 2.46 9.93 2.46 9.89 2.45 9.88 2.44 9.86 2.43 9.83 2.4 9.82 2.38 9.8 2.36 9.8 2.34 9.8 2.34 9.81 2.33 9.83 2.32 9.85 2.31 9.86 2.3 9.89 2.28 9.93 2.22 9.96 2.19 9.97 2.17 9.98 2.16 10 2.13 10.02 2.1 10.03 2.09 10.04 2.07 10.05 2.02 10.07 1.97 10.07 1.97 10.08 1.95 10.09 1.94 10.11 1.93 10.15 1.91 10.18 1.9 10.23 1.86 10.24 1.86 10.27 1.85 10.33 1.84 10.35 1.84 10.37 1.83 10.38 1.82 10.38 1.81 10.4 1.79 10.41 1.69 10.43 1.66 10.44 1.64 10.45 1.63 10.49 1.6 10.53 1.57 10.54 1.56 10.54 1.54 10.54 1.53 10.55 1.49 10.55 1.49 10.55 1.48 10.57 1.47 10.6 1.48 10.63 1.48 10.64 1.48 10.7 1.45 10.8 1.41 10.84 1.39 10.87 1.37 10.91 1.35 10.94 1.33 10.98 1.31 11 1.29 11.03 1.28 11.06 1.26 11.1 1.24 11.12 1.22 11.14 1.21 11.17 1.21 11.2 1.2 11.23 1.19 11.23 1.19 11.23 1.19 11.27 1.18 11.28 1.18 11.29 1.18 11.33 1.19 11.37 1.2 11.4 1.2 11.44 1.2 11.53 1.2 11.57 1.2 11.61 1.21 11.66 1.22 11.7 1.22 11.71 1.22 11.76 1.22 11.79 1.22 11.81 1.22 11.83 1.22 11.88 1.21 11.9 1.21 11.94 1.19 11.98 1.19 11.99 1.18 12.02 1.17 12.07 1.17 12.13 1.15 12.19 1.13 12.21 1.13 12.27 1.1 12.32 1.09 12.37 1.06 12.4 1.05 12.43 1.05 12.47 1.04 12.49 1.03 12.57 1.03 12.61 1.03 12.66 1.03 12.78 1.03 12.82 1.03 12.86 1.04 12.89 1.04 12.92 1.05 12.98 1.05 13.04 1.05 13.09 1.05 13.11 1.06 13.17 1.05 13.19 1.05 13.22 1.05 13.24 1.05 13.28 1.05 13.3 1.04 13.31 1.04 13.32 1.01 13.34 1 13.34 1 13.35 1 13.36 1 13.37 1.02 13.39 1.04 13.4 1.06 13.41 1.06 13.44 1.07 13.46 1.08 13.47 1.08 13.49 1.07 13.52 1.07 13.54 1.07 13.55 1.07 13.57 1.08 13.6 1.09 13.62 1.09 13.65 1.11 13.66 1.11 13.68 1.13 13.71 1.13 13.76 1.16 13.79 1.17 13.82 1.19 13.86 1.22 13.88 1.24 13.91 1.27 13.95 1.3 13.99 1.33 14.02 1.35 14.08 1.38 14.1 1.4 14.12 1.42 14.17 1.47 14.19 1.49 14.18 1.52 14.17 1.56 14.16 1.58 14.16 1.59 14.17 1.6 14.18 1.61 14.18 1.62 14.2 1.62 14.23 1.63 14.26 1.63 14.33 1.63 14.37 1.62 14.4 1.61 14.42 1.6 14.42 1.59 14.47 1.58 14.51 1.57 Z M 3.69 12.6 3.7 12.6 3.7 12.6 3.71 12.59 3.72 12.58 3.72 12.56 3.72 12.54 3.71 12.52 3.7 12.52 3.69 12.51 3.66 12.5 3.65 12.49 3.65 12.48 3.65 12.47 3.67 12.43 3.68 12.41 3.69 12.35 3.69 12.33 3.68 12.26 3.67 12.23 3.67 12.22 3.66 12.21 3.64 12.21 3.63 12.22 3.62 12.23 3.61 12.24 3.59 12.24 3.58 12.23 3.57 12.23 3.55 12.22 3.54 12.21 3.54 12.2 3.55 12.19 3.55 12.17 3.57 12.14 3.57 12.13 3.57 12.1 3.57 12.09 3.57 12.08 3.57 12.06 3.55 12.05 3.55 12.05 3.53 12.05 3.51 12.04 3.51 12.04 3.5 12.03 3.51 12.01 3.5 12.01 3.49 12 3.48 11.99 3.47 11.98 3.46 11.98 3.43 11.98 3.4 11.98 3.39 11.98 3.37 11.98 3.36 11.99 3.34 12.03 3.33 12.04 3.32 12.05 3.31 12.06 3.31 12.07 3.31 12.13 3.31 12.15 3.3 12.16 3.28 12.18 3.27 12.18 3.26 12.19 3.23 12.18 3.22 12.18 3.2 12.17 3.17 12.16 3.15 12.15 3.13 12.15 3.12 12.16 3.12 12.17 3.12 12.18 3.12 12.19 3.15 12.23 3.16 12.28 3.17 12.29 3.19 12.32 3.21 12.34 3.23 12.36 3.27 12.38 3.32 12.43 3.46 12.52 3.53 12.56 3.57 12.58 3.6 12.6 3.63 12.6 3.65 12.6 3.66 12.6 3.69 12.6 Z M 3.13 12.1 3.16 12.09 3.19 12.07 3.2 12.07 3.21 12.07 3.22 12.07 3.22 12.08 3.23 12.1 3.23 12.1 3.24 12.1 3.25 12.09 3.25 12.08 3.28 12.02 3.29 12.01 3.29 12 3.28 11.99 3.27 11.98 3.26 11.98 3.19 11.95 3.18 11.94 3.16 11.93 3.14 11.9 3.13 11.87 3.12 11.85 3.12 11.83 3.12 11.81 3.13 11.79 3.13 11.79 3.15 11.78 3.16 11.78 3.17 11.78 3.18 11.78 3.22 11.78 3.26 11.79 3.28 11.79 3.29 11.79 3.31 11.78 3.32 11.77 3.34 11.75 3.34 11.74 3.33 11.73 3.32 11.71 3.3 11.69 3.27 11.66 3.26 11.65 3.25 11.64 3.25 11.62 3.24 11.59 3.24 11.58 3.25 11.58 3.25 11.57 3.26 11.57 3.3 11.57 3.31 11.57 3.31 11.57 3.31 11.55 3.31 11.55 3.3 11.54 3.28 11.53 3.28 11.53 3.28 11.52 3.28 11.51 3.28 11.49 3.27 11.49 3.26 11.48 3.25 11.48 3.22 11.48 3.16 11.48 3.15 11.48 3.14 11.47 3.13 11.47 3.11 11.44 3.11 11.43 3.1 11.43 3.09 11.43 3.08 11.43 3.06 11.46 3.05 11.47 3.03 11.49 3 11.5 2.98 11.52 2.97 11.53 2.96 11.56 2.96 11.57 2.96 11.6 2.96 11.62 2.95 11.63 2.92 11.69 2.91 11.71 2.9 11.75 2.9 11.76 2.89 11.79 2.89 11.82 2.9 11.83 2.91 11.84 2.92 11.85 2.93 11.86 2.97 11.88 2.97 11.88 2.98 11.89 2.99 11.92 3.01 11.95 3.03 12 3.04 12.02 3.05 12.06 3.05 12.07 3.05 12.09 3.06 12.1 3.07 12.11 3.07 12.11 3.09 12.11 3.11 12.11 3.13 12.1 Z M 3.61 12.01 3.62 12 3.62 11.99 3.62 11.98 3.62 11.97 3.63 11.97 3.63 11.97 3.65 11.97 3.67 11.97 3.67 11.97 3.68 11.97 3.7 11.96 3.71 11.95 3.71 11.94 3.72 11.92 3.71 11.91 3.71 11.9 3.69 11.89 3.69 11.88 3.69 11.88 3.69 11.86 3.69 11.84 3.68 11.81 3.68 11.79 3.67 11.77 3.64 11.75 3.61 11.73 3.59 11.72 3.55 11.7 3.49 11.67 3.47 11.65 3.46 11.64 3.42 11.61 3.37 11.59 3.35 11.58 3.35 11.58 3.35 11.59 3.34 11.59 3.34 11.6 3.33 11.61 3.34 11.61 3.35 11.64 3.38 11.68 3.39 11.69 3.39 11.7 3.4 11.71 3.42 11.72 3.45 11.74 3.45 11.75 3.46 11.76 3.47 11.77 3.51 11.78 3.53 11.8 3.59 11.83 3.6 11.85 3.61 11.86 3.61 11.87 3.61 11.89 3.6 11.91 3.59 11.92 3.57 11.96 3.57 11.97 3.57 11.98 3.57 12 3.58 12.01 3.58 12.01 3.59 12.02 3.6 12.01 3.61 12.01 Z M 9.68 41.81 9.69 41.79 9.69 41.78 9.71 41.76 9.73 41.73 9.75 41.69 9.75 41.67 9.74 41.66 9.73 41.65 9.69 41.65 9.66 41.67 9.65 41.68 9.65 41.71 9.65 41.75 9.65 41.79 9.65 41.82 9.66 41.82 9.67 41.82 9.68 41.81 Z M 10.67 40.55 10.63 40.56 10.58 40.57 10.54 40.58 10.53 40.6 10.54 40.61 10.56 40.61 10.6 40.59 10.69 40.57 10.71 40.56 10.71 40.55 10.7 40.54 10.68 40.55 10.67 40.55 Z M 21.3 28.89 21.3 28.88 21.29 28.87 21.27 28.85 21.26 28.81 21.25 28.81 21.24 28.8 21.24 28.79 21.23 28.79 21.23 28.79 21.22 28.8 21.22 28.8 21.22 28.81 21.22 28.82 21.24 28.86 21.25 28.87 21.25 28.88 21.26 28.89 21.27 28.9 21.28 28.9 21.28 28.9 21.29 28.89 21.3 28.89 Z M 24.97 19.2 24.97 19.19 24.96 19.19 24.96 19.19 24.95 19.18 24.92 19.17 24.91 19.17 24.9 19.18 24.88 19.18 24.86 19.19 24.86 19.19 24.86 19.2 24.86 19.2 24.87 19.2 24.88 19.2 24.91 19.2 24.93 19.2 24.93 19.2 24.94 19.2 24.95 19.21 24.96 19.21 24.97 19.2 24.97 19.2 Z M 25.06 19.33 25.07 19.3 25.07 19.29 25.08 19.28 25.08 19.28 25.08 19.27 25.07 19.27 25.06 19.26 25.05 19.26 25.04 19.26 25.04 19.26 25.03 19.27 25.03 19.27 25.03 19.28 25.04 19.29 25.04 19.29 25.04 19.3 25.03 19.31 25.03 19.32 25.03 19.32 25.03 19.33 25.04 19.33 25.05 19.33 25.06 19.33 Z M 21.41 28.93 21.42 28.91 21.41 28.9 21.41 28.89 21.4 28.89 21.39 28.89 21.38 28.89 21.38 28.89 21.37 28.9 21.37 28.91 21.37 28.93 21.38 28.94 21.38 28.95 21.38 28.95 21.39 28.95 21.4 28.95 21.41 28.95 21.41 28.93 Z M 25.15 18.99 25.16 18.99 25.16 18.98 25.16 18.97 25.16 18.96 25.15 18.95 25.15 18.95 25.14 18.95 25.13 18.96 25.1 18.98 25.1 18.98 25.1 18.98 25.11 18.99 25.11 18.99 25.13 18.99 25.15 18.99 25.15 18.99 Z M 25.04 19.02 25.06 19.01 25.06 19.01 25.07 19.01 25.07 19 25.07 19 25.07 19 25.05 18.99 25.04 18.99 25.03 18.99 25.02 18.99 25.01 19 25.01 19 25.01 19.01 25.01 19.01 25.02 19.02 25.02 19.03 25.04 19.03 25.04 19.02 Z M 25.07 19.22 25.08 19.22 25.08 19.22 25.09 19.22 25.1 19.21 25.1 19.21 25.1 19.2 25.1 19.2 25.1 19.19 25.09 19.19 25.09 19.19 25.08 19.19 25.08 19.19 25.07 19.19 25.06 19.2 25.05 19.22 25.05 19.22 25.05 19.23 25.06 19.23 25.07 19.22 Z M 25.05 19.07 25.08 19.06 25.1 19.05 25.09 19.05 25.09 19.04 25.07 19.05 25.07 19.05 25.05 19.04 25.04 19.04 25.04 19.05 25.03 19.05 25.03 19.07 25.03 19.07 25.04 19.07 25.05 19.07 25.05 19.07 Z M 26.65 8.76 26.66 8.76 26.66 8.74 26.66 8.73 26.65 8.73 26.64 8.73 26.64 8.73 26.64 8.74 26.64 8.75 26.65 8.76 Z" fill-rule="evenodd"/>
</g>
</svg>