<?xml version="1.0"?>
<svg xmlns="http://www.w3.org/2000/svg" version="1.2" baseProfile="tiny" width="800" height="942" viewBox="0 0 800 942" stroke-linecap="round" stroke-linejoin="round">
<g id="lakenatoma">
<path d="M 377.3 559.07 377 556.29 376.23 553.99 376.09 553.29 375.77 551.7 375.77 550.47 377 548.94 379.53 546.28 382.14 540.41 383.94 530.87 384.3 521.47 382.41 507.9 381.96 479.43 380.78 465.65 377.27 449.74 374.02 443.6 370.6 438.79 366.27 428.19 364.83 418.16 365.1 412.01 365.82 408.69 367.08 405.15 368.34 402.75 370.33 400.63 371.31 400.32 372.13 400.07 372.85 400.42 374.66 403.6 376.28 402.4 376.91 399.71 380.24 395.83 388.18 391.02 393.59 388.69 397.37 388.34 399.63 386.36 402.6 386.36 406.21 385.3 410.99 381.76 415.67 379.43 424.24 376.39 428.21 373.99 432.17 371.94 449.93 362.83 463.19 354.63 473.38 349.61 476.53 347.49 492.13 340.36 497.63 338.38 499.97 337.81 502.95 336.05 502.5 337.46 503.13 338.17 504.75 337.96 512.6 333.36 519.63 330.46 520.53 332.23 524.86 331.17 528.38 328.13 530.18 324.6 538.57 319.65 539.47 319.8 538.29 322.62 539.29 324.04 541.72 322.48 548.3 319.94 549.38 319.09 550.02 315.56 551.82 314.29 561.56 313.01 566.42 311.74 568.68 311.25 576.61 310.9 581.57 308.21 584.1 307.86 588.79 305.67 596.72 305.32 602.76 303.34 607.09 300.16 610.88 298.18 611.78 294.08 616.92 290.9 619.9 287.72 629.82 284.33 631.62 282.92 635.41 277.41 638.11 276.71 640.91 273.67 642.71 271.97 645.69 271.41 650.02 269.36 653.9 265.82 668.95 262.22 676.62 257.42 677.7 251.06 681.31 247.67 682.67 243.07 683.3 235.66 683 234.48 682.58 232.83 682.76 228.94 683.39 223.08 684.57 220.46 690.79 201.67 691.16 198.7 690.26 191.07 690.62 185.27 688.64 181.52 687.83 173.05 688.73 163.01 691.8 155.03 692.71 148.46 694.69 145.84 695.59 143.02 694.87 140.54 695.05 137.36 697.31 124.92 696.78 113.62 693.72 97.93 693.17 96.73 692 91.64 693.09 87.89 694.63 73.83 695.98 69.95 697.06 68.89 698.15 64.86 707.8 49.24 719.53 35.4 726.3 30.1 736.22 26.57 757.68 25.02 760.84 25.16 765.44 24.59 772.11 24.1 778.7 21.56 786.28 13.58 788.09 9.9 789.17 4.04 791.7 1 794.79 2.77 796.42 3.7 799 5.17 792.32 13.37 792.68 13.93 785.01 22.76 782.12 25.31 773.56 27.42 768.96 27.78 764.18 28.2 752.45 28.27 734.59 29.89 731.71 31.51 727.2 35.18 719.98 43.03 714.84 46.77 711.86 50.09 699.59 75.25 696.52 87.82 696.42 89.59 696.06 95.17 696.87 98.57 698.76 109.38 701.1 117.72 700.92 124.57 700.47 129.73 699.11 134.11 699.2 141.04 697.67 147.04 695.14 150.58 691.25 173.4 690.8 179.41 692.69 185.77 692.78 192.83 693.68 198.84 690.97 205.55 690.61 212.62 688.81 217.07 688.8 219.76 688.89 219.97 691.42 226.82 692.32 235.45 691.95 244.14 689.97 248.52 689.51 251.34 687.08 255.44 685.45 261.31 677.16 267.67 674.45 267.88 670.67 269.85 667.87 269.5 664.98 270.21 664.8 273.03 663.63 274.09 657.32 275.51 654.88 277.84 652.36 279.11 648.75 279.11 647.4 279.81 641.99 283.91 641.81 285.33 637.75 288.86 633.51 293.88 633.35 293.96 631.89 294.72 624.94 296.2 623.59 297.62 621.97 301.86 615.47 308.57 605.55 315 596.54 317.83 587.25 317.33 568.14 324.32 564.98 329.83 558.49 334.78 557.77 336.41 556.86 337.11 552.18 338.17 551.99 341.92 551.09 343.33 548.12 342.98 547.22 343.68 547.04 345.31 540.73 345.8 537.12 347.64 537.57 349.05 542.07 352.87 542.79 354.49 541.62 355.69 540.72 355.77 537.57 353.79 532.61 352.94 528.73 353.86 526.66 354.99 521.88 357.74 507.18 367.35 490.41 372.93 480.32 378.23 474.91 379.51 468.14 383.96 463.64 385.23 449.84 386.85 446.69 388.83 443.08 391.31 439.74 393.99 434.34 395.12 431.18 397.24 430.46 396.53 431.99 394.91 431.36 393.85 427.93 392.86 425.95 393.35 423.43 395.33 425.68 396.89 425.5 397.8 422.34 400.98 423.25 402.19 426.4 402.75 425.77 405.72 423.52 407.13 414.5 410.38 408.37 414.13 404.13 418.51 401.43 418.37 398 419.08 395.12 421.55 391.24 423.32 389.08 426.57 391.33 437.66 394.58 441.55 396.83 441.9 403.14 440.06 400.35 435.89 400.35 434.62 404.86 428.4 405.58 428.62 405.58 429.46 403.77 433 403.32 435.82 405.58 438.16 407.65 438.16 409.9 440.06 413.78 439.5 415.31 439.85 416.21 441.83 415.4 450.1 416.39 465.5 416.12 467.06 415.22 467.77 412.97 467.84 412.07 468.54 412.25 469.18 412.97 473.21 422.43 515.68 421.53 519.21 418.65 522.25 418.2 523.8 418.46 527.55 416.93 534.76 416.57 545.57 414.59 554.61 416.21 569.1 410.26 584.15 408.55 594.75 403.86 608.04 391.15 635.67 381.15 659.91 376.64 668.74 373.85 679.34 373.4 682.52 372.77 688.18 370.78 695.17 371.05 701.18 367.72 712.56 367.36 718.92 368.44 722.45 370.79 724.5 379.98 725.42 381.6 724.29 380.88 722.73 381.6 722.02 382.5 722.17 383.58 723.09 385.02 726.41 386.11 727.47 390.61 728.17 392.05 729.23 395.03 738.21 398 742.09 405.21 745.42 407.46 745.27 413.14 743.51 414.22 743.65 409.72 747.4 406.56 748.81 403.68 749.16 386.47 745.84 380.34 741.67 374.48 738.85 371.33 739.34 367.72 742.24 364.12 746.97 363.4 749.66 363.67 753.68 358.35 765.77 357.9 770.15 356.1 772.84 356.55 775.45 358.89 780.26 360.24 781.32 366.28 783.72 366.37 784.43 365.47 785.13 362.23 785.2 357.99 786.76 344.93 792.62 341.05 796.93 336.64 803.65 332.04 808.1 328.79 810.15 319.69 815.45 304.29 823.15 300.41 825.34 284.64 832.13 277.44 836.94 269.78 838.7 266.17 840.54 260.32 844.57 256.08 844.78 227.7 858.71 219.32 864.22 203.37 870.51 200.4 872.28 189.68 882.88 185.71 884.93 176.61 884.79 173.91 887.05 173.37 897.3 175.63 899.63 179.59 899.77 180.85 900.34 179.41 901.18 161.12 910.59 156.62 905.5 156.8 902.53 157.43 901.47 159.95 898.64 160.67 897.37 159.32 892.42 162.02 890.3 162.65 885.85 167.15 880.55 167.6 878.78 166.88 878.29 146.61 881.33 141.83 881.54 138.05 884.02 131.92 885.08 128.59 886.7 114.08 886.78 102.1 889.96 95.79 890.88 79.75 895.69 67.14 901.27 59.3 903.4 45.52 908.21 39.03 911.6 38.31 912.45 41.74 923.05 42.28 928.35 41.38 932.59 39.13 935.98 36.88 937.75 28.32 940.79 27.15 941 24.45 939.73 22.91 937.47 22.64 935.14 30.03 931.74 33.45 926.3 33 924.18 32.1 923.26 30.75 923.12 14.44 927.5 11.82 921 9.37 914.94 6.32 907.44 2.17 897.41 3.61 896.91 1 891.4 1.63 891.96 6.31 889.77 8.12 886.94 11 885.39 27.49 876.48 37.84 869.34 42.08 865.66 51.98 847.08 62.52 831.67 67.2 828.42 69.46 827.36 76.21 824.18 80.48 823.15 82.97 822.55 88.38 822.55 89.55 823.04 88.65 823.61 84.59 823.96 81.17 825.23 80.27 826.08 82.16 827.35 86.85 826.43 87.12 829.4 85.5 830.82 79.01 832.3 73.6 835.48 72.26 837.6 73.16 839.02 78.11 840.57 79.28 841.49 79.73 843.4 81.99 845.16 82.44 846.08 81.54 847.49 79.29 846.22 78.38 846.22 77.93 846.93 79.29 848.55 81.36 849.4 80.91 851.52 83.62 853.29 91.54 855.41 95.6 854.49 98.12 853.21 110.47 852.65 114.34 852.15 123.17 848.19 125.69 848.33 127.77 847.2 131.46 846.85 138.22 844.44 142.99 844.58 147.32 843.38 148.85 841.76 149.75 840.84 152.45 839.64 154.98 841.76 155.61 841.19 155.34 838.01 156.24 837.16 160.83 835.89 170.29 834.97 174.62 836.52 175.97 836.52 181.11 834.4 183.36 835.11 185.43 834.9 187.86 831.72 189.67 831.15 192.37 831.36 193.54 830.44 193.27 829.74 191.02 829.95 188.94 827.69 189.85 827.12 192.19 828.18 193.09 827.26 192.55 825.36 193.9 824.65 195.79 825 196.69 825.85 195.52 828.54 198.95 831.01 202.73 829.17 204.17 829.52 212.91 828.25 214.26 827.19 213.36 824.22 209.49 821.25 209.31 819.63 210.66 819.06 213.54 819.27 216.25 821.39 217.42 824.93 219.04 825.78 222.82 822.03 230.75 820.83 240.58 815.95 245.89 813.76 259.86 807.12 269.59 801.46 292.93 789.52 314.83 776.3 317.98 773.83 321.94 769.23 332.67 749.37 336 734.89 336.18 729.02 334.11 724.08 334.11 721.6 336.27 706.9 338.34 675.32 340.32 666.62 341.13 657.79 343.38 651.43 349.15 644.15 354.29 633.83 360.78 627.47 361.5 626.06 362.13 624.08 360.51 617.93 362.94 609.95 367.63 600.76 367.63 596.52 370.69 589.59 371.95 575.25 375.56 568.18 377.3 559.07 Z M 404.22 441.12 397.73 443.1 397.01 443.67 397.01 446.99 400.26 452.86 403.68 457.02 406.66 459.85 408.01 460.06 409.54 458.65 411.8 448.54 409.72 445.22 409.27 442.89 407.83 441.69 405.58 441.34 404.22 441.12 Z M 391.69 417.87 395.93 414.13 399.18 413.78 401.88 415.89 404.58 416.04 407.74 413.07 408.19 410.95 409.54 409.46 414.68 406.85 417.21 404.52 417.57 402.26 416.49 401.55 415.13 401.69 410.8 404.38 407.02 407.77 405.67 408.12 404.94 407.06 404.04 407.06 399.99 409.89 392.77 413.28 390.34 415.19 389.44 416.96 389.89 418.58 391.69 417.87 Z M 126.32 849.61 126.78 852.43 129.3 853.85 130.65 853.49 133.08 851.51 142.82 851.65 145.7 850.94 146.87 848.12 146.15 846 142.36 846.92 137.59 846.21 132.36 847.91 129.84 848.62 126.5 849.32 126.32 849.61 Z M 367.36 731.42 371.42 729.8 376.91 729.3 377.36 728.74 376.19 727.68 366.01 727.75 364.21 729.16 365.11 731.42 367.36 731.42 Z M 152.45 847.55 154.8 847.05 158.31 845.08 158.13 843.88 155.43 843.52 149.12 845.43 148.4 846 148.4 849.04 149.3 849.67 152.45 847.55 Z M 385.42 593.18 387.41 593.79 388.79 592.88 389.55 591.65 389.86 589.81 389.71 587.55 388.54 586.13 386.01 587.19 384.3 590.02 384.3 590.73 385.42 593.18 Z M 184.99 878.71 186.34 877.65 188.15 875.74 187.69 875.04 181.12 876.1 180.49 876.66 183.64 878.92 184.99 878.71 Z" fill-rule="evenodd"/>
<path d="M 414.41 434.2 412.16 434.2 410.8 433.14 410.53 431.02 411.17 430.52 412.07 430.66 413.24 428.9 414.77 428.55 415.49 433.49 414.41 434.2 Z"/>
</g>
</svg>