<?xml version="1.0"?>
<svg xmlns="http://www.w3.org/2000/svg" version="1.2" baseProfile="tiny" width="800" height="1023" viewBox="0 0 800 1023" stroke-linecap="round" stroke-linejoin="round">
<g id="massacrelake">
<path d="M 333.2 824.69 326.24 826.3 320.56 829.52 310.17 839.01 302.57 848.02 291.85 849.23 285.42 848.83 268.27 844.01 268.27 842.64 272.34 839.19 276.09 833.8 276.3 830.74 274.69 824.31 273.93 823.51 270.18 823.91 268.79 827.93 264.29 826.97 263.43 827.53 264.3 833.96 262.15 835.81 261.62 837.42 259.48 838.63 259.16 840.4 260.55 842.41 256.48 846.83 256.27 848.28 256.81 852.7 258.63 854.47 257.89 858.89 264.54 870.39 265.4 875.61 267.55 877.79 268.62 881.64 270.98 885.02 272.59 890.09 278.82 902.55 279.36 906.16 282.04 912.03 283.44 920.96 281 930.38 280.48 936.65 275.66 945.9 262.81 960.94 255.64 966.26 249.64 969.07 240 971.25 235.71 973.1 232.28 973.42 228.53 970.61 225.53 969.41 220.49 968.6 213.52 963.22 208.91 962.18 204.41 962.42 191.77 966.85 185.35 970.87 180.85 977.07 177.64 983.34 173.36 988.57 167.15 991.39 156.97 993 149.15 996.22 145.72 996.63 137.68 996.39 123.43 993.58 114.64 993.59 111.11 993.83 97.48 998.21 94.37 999.34 93.08 1006.65 88.36 1012.12 88.36 1013.89 86.75 1016.14 76.03 1020.56 67.45 1022 62.63 1020.79 51.6 1019.82 44.85 1017.16 40.35 1016.6 38.42 1014.75 37.68 1010.16 36.28 1007.91 33.07 1005.74 29.54 1004.93 26.64 1001.72 21.18 998.34 22.04 996.73 28.68 998.1 31.36 998.1 31.68 997.3 25.79 993.68 26.33 989.09 20.34 985.87 16.05 978.63 10.38 971.56 9.09 968.58 7.07 952.66 7.94 944.62 4.62 932.96 6.88 920.98 8.16 914.92 7.09 909.85 8.17 907.28 9.99 906.24 11.6 903.42 9.45 902.06 4.85 903.26 2.49 901.09 1 888.54 2.61 884.36 4.76 882.35 7.44 880.91 10.12 880.91 12.26 883.32 15.04 889.92 18.79 893.38 28.22 894.75 34.32 896.68 38.93 896.92 41.61 896.04 35.4 893.31 29.72 889.12 29.41 883.81 22.66 877.62 22.13 875.05 23.42 865.56 24.49 863.95 24.39 857.12 25.25 855.11 28.15 851.49 29.43 850.68 32.65 850.45 34.58 846.99 37.8 844.02 35.87 842.97 29.65 842 26.22 844.81 22.47 846.5 14.11 846.34 8.54 845.13 5 843.11 1.47 838.29 1.69 830.89 9.63 818.75 16.6 815.54 19.29 811.44 21.97 810.48 25.72 807.02 26.79 807.67 26.79 811.68 28.4 812.49 32.15 809.6 33.76 805.42 35.9 807.43 36.44 809.44 37.83 810.4 39.44 810 38.05 802.36 44.38 800.52 51.34 800.12 53.81 798.67 51.57 788.22 47.82 781.62 46.97 776.56 49.33 774.15 50.08 771.73 48.16 761.68 49.02 761.12 50.63 761.44 58.45 765.47 62.41 765.87 66.49 765.23 71.74 762.82 77.1 759.2 84.07 757.12 83 755.91 74.11 755.58 72.28 754.94 68.54 751.72 64.36 741.51 59.76 736.28 60.62 731.86 59.23 731.05 56.55 730.89 53.55 726.87 54.09 724.05 56.24 721.64 57.85 716.98 65.03 711.92 83.7 692.79 88.75 688.93 94 681.7 97.48 680.39 97.8 679.98 102.84 673.55 103.36 665.35 109.35 653.04 119.21 648.21 128.32 647.4 135.61 648.6 144.19 651.17 154.59 655.99 187.96 681.95 196.76 691.83 205.34 707.67 208.35 714.74 214.25 722.94 220.48 734.04 222.31 741.43 229.08 760 229.62 767.64 232.52 776.89 232.53 782.68 237.68 793.53 242.72 798.59 243.8 804.22 248.42 812.42 251.1 813.87 257.53 813.22 258.6 814.02 259.14 817.48 260.53 819.89 262.89 821.5 269.11 821.66 277.15 820.85 284.11 821.49 287.54 820.85 289.47 819.88 290.76 817.23 288.07 812.8 288.07 806.61 281.63 796.73 280.02 789.49 275.72 783.7 257.17 769.4 256.63 765.62 258.02 760.39 249.97 751.31 245.68 742.87 246.21 737.24 247.28 734.83 248.89 732.98 252.64 730.8 254.45 727.99 255.53 727.35 267.64 727.18 270.32 725.57 272.78 721.55 277.6 716.48 277.06 714.07 273.84 712.06 271.7 711.66 266.02 711.66 259.05 713.51 257.98 712.07 261.51 702.42 263.12 701.05 271.69 697.02 276.19 696.38 280.8 696.78 284.55 699.83 286.16 699.83 287.45 698.62 287.76 692.91 285.62 687.53 282.4 685.52 273.28 684.08 270.28 682.87 267.92 680.46 266.53 676.84 268.13 672.82 271.67 671.21 274.56 670.81 275.95 669.6 277.56 665.18 281.52 662.76 282.06 659.15 278.84 653.92 278.3 650.3 284.18 637.27 282.35 633.01 282.89 630.44 282.03 628.03 283.09 616.13 280.41 610.66 278.58 609.86 275.05 612.67 272.69 613.72 271.09 616.69 264.12 618.71 253.08 618.95 249.32 617.91 247.39 616.14 246.64 616.14 243.43 620.57 238.61 621.78 232.39 620.97 225.21 621.22 217.7 620.18 207.73 620.83 204.19 619.78 200.44 616.41 198.08 612.79 195.39 605.07 193.46 602.9 186.81 599.85 185.41 598.64 180.58 592.45 176.61 589.64 176.08 586.42 178.75 580.55 185.93 574.52 188.93 569.69 192.36 567.92 201.47 565.27 205.54 566.47 207.15 566.07 216.79 558.67 220.86 554 222.68 549.98 224.61 547.97 232.11 545.15 235.54 545.55 240.15 548.52 239.83 550.77 238.55 551.58 235.01 551.98 234.47 552.79 236.41 553.99 238.23 554.23 239.62 555.44 238.55 558.01 243.38 562.43 243.92 565.08 242.85 568.86 243.61 572.32 253.05 582.53 258.41 586.15 263.24 587.35 266.99 585.34 269.13 586.38 271.81 586.38 275.88 583.32 282.53 581.55 283.6 583.32 283.07 586.38 286.61 589.75 286.82 591.2 285.22 596.59 287.37 596.18 290.58 592 289.5 587.58 287.14 584.77 286.6 582.11 284.46 580.1 284.67 575.68 283.38 572.71 281.23 569.65 276.41 566.44 273.19 563.62 272.65 562.26 267.72 559.04 265.35 555.59 264.81 545.7 269.09 539.9 269.63 536.29 271.77 532.43 275.52 530.41 275.84 529.45 261.57 519.97 257.49 515.14 244.41 509.76 241.94 507.51 240.65 502.93 237.65 499.88 236.57 497.06 236.03 491.43 238.71 488.06 238.71 487.01 239.24 485.64 244.39 484.35 249.74 480.73 248.88 477.76 245.99 475.11 242.98 470.12 234.93 463.29 230.96 456.86 230.96 452.44 232.24 447.37 233.31 446.41 237.05 435.31 240.27 431.13 238.11 421.48 241.11 416.01 242.39 405.55 241.1 399.12 236.48 395.67 235.95 394.46 239.48 393.25 241.84 391.24 244.3 381.83 243.23 381.03 239.48 385.21 236.47 385.21 234.33 384.25 229.5 378.62 230.57 375.97 234.32 372.75 236.78 367.93 251.25 355.29 253.07 351.43 253.6 346.37 252.31 343.15 248.55 339.13 245.55 333.51 241.79 331.1 240.72 331.5 241.58 333.35 243.72 335.12 243.73 338.33 239.65 341.79 236.76 342.19 230.32 340.59 226.57 337.54 223.56 329.09 224.41 325.47 226.77 322.26 232.44 306.01 236.72 299.98 238 294.35 242.28 285.1 243.89 279.23 250.64 274.4 252.99 269.74 252.45 260.89 255.99 256.31 261.35 251.88 259.95 246.42 260.26 240.22 262.94 237.01 265.62 230.57 268.83 226.95 283.3 219.23 295.96 215.6 297.03 214.8 297.78 211.42 295.94 199.36 296.48 196.71 306.87 188.66 312.77 187.29 313.63 186.25 313.3 184.64 309.87 180.46 308.79 176.6 310.4 172.42 312.76 169.36 315.76 167.75 328.63 163.48 331.3 160.91 333.12 155.84 334.73 153.83 339.02 151.02 348.46 148.04 349.53 146.19 349.52 142.01 351.99 139.35 352.52 134.93 354.67 132.92 368.82 128.49 373.43 128.49 375.04 127.68 376.11 124.46 378.79 123.26 377.72 119.88 375.79 118.68 376.11 117.87 378.46 118.27 382.01 121.25 382.76 120.68 384.68 113.04 386.83 111.35 392.4 108.54 398.09 108.78 403.66 105.96 407.42 102.9 422.54 101.29 441.31 101.28 443.67 101.28 445.28 100.32 439.37 97.91 436.91 96.78 434.33 94.05 432.94 91.64 432.39 85.2 425.74 81.99 421.99 78.21 419.3 77.41 417.05 73.95 413.29 70.98 413.61 70.17 419.52 73.15 421.13 75.96 425.95 77.81 428.96 80.78 433.47 82.79 435.08 84.4 436.48 92.44 439.37 95.65 450.64 99.91 454.5 101.52 458.47 103.13 460.62 102.08 462.22 99.51 465.12 96.85 468.12 95.65 476.49 95.24 483.14 95.88 498.48 99.49 503.52 99.09 507.06 95.47 508.34 95.63 513.5 100.45 516.18 99.25 519.93 96.03 522.07 95.63 528.51 91.44 533.55 91.2 537.63 91.6 545.45 93.61 548.89 95.22 544.06 99.24 544.6 101.65 549.97 106.47 550.83 109.13 555.87 107.68 569.6 108.88 578.39 108.88 590.73 104.05 598.02 105.25 601.02 104.85 606.06 100.43 609.6 92.79 613.35 88.77 614.64 88.12 615.5 88.77 615.71 91.58 617.11 92.38 618.18 92.14 623.54 86.35 624.07 83.13 622.46 81.53 619.46 80.32 609.81 77.67 597.15 76.87 600.47 75.5 608.52 76.06 620 78.31 620.85 77.51 619.46 76.06 619.78 75.26 628.9 80.88 631.8 84.1 631.8 86.35 627.83 94.39 626.76 99.22 625.16 102.27 623.55 105.09 625.16 105.49 628.59 106.85 630.2 106.69 632.35 106.05 633.2 104.28 634.49 103.63 638.03 103.63 643.39 101.62 648.75 100.58 650.9 101.62 654.97 100.01 657.33 97.2 658.4 94.38 659.8 85.3 663.01 82.72 668.91 81.68 671.59 82.08 678.03 85.29 682.32 85.29 684.47 83.28 685 81.67 685 75.88 682.53 68.81 683.06 65.19 684.99 63.82 685.75 70.01 686.82 71.06 687.89 70.41 693.04 69.21 697.01 69.21 708.59 68.64 718.46 64.78 719 64.78 723.93 62.37 726.61 61.8 729.51 58.99 729.83 56.74 728.76 54.89 729.29 50.46 730.58 51.67 731.97 55.29 733.8 56.09 741.84 50.06 744.52 49.66 753.96 48.29 755.79 47.24 771.87 42.82 776.16 43.22 778.63 45.23 780.78 48.28 783.46 49.89 786.68 49.89 789.68 47.88 790.75 35.17 794.72 28.58 793.43 26.57 791.71 20.7 792.25 18.13 795.79 13.87 795.78 7.27 797.39 1 799 2.61 798.25 11.86 794.71 19.49 794.72 21.91 797.18 27.94 796.86 29.95 793.65 35.17 792.9 45.87 789.9 49.89 788.82 51.5 784.75 52.06 779.92 49.65 778.63 46.84 776.49 45.23 770.8 44.67 757.93 49.09 751.82 50.46 742.91 51.51 731.12 62.36 716.85 68.8 713.63 69.44 712.35 70.41 696.8 72.02 693.04 72.66 688.97 75.64 688.76 82.72 686.61 86.9 683.39 88.75 679.32 88.35 671.81 85.7 668.38 85.29 665.16 86.1 662.69 89.32 662.7 95.99 657.87 104.19 654.44 107.09 650.37 107.09 646.61 106.29 643.61 110.71 639.11 113.53 639.11 115.13 640.18 117.54 642.33 119.15 644.69 119.55 651.98 118.51 654.12 119.31 660.89 123.57 673.44 130 688.99 140.61 697.58 148.65 712.7 160.15 718.82 166.18 726.33 171.96 745.96 192.3 750.79 198.74 756.48 208.38 760.45 217.63 775.48 262.66 776.56 276.16 776.41 278.76 775.81 289.03 773.67 295.87 770.46 314.2 760.49 340.74 753.85 356.26 751.92 363.9 745.28 380.78 744.74 385.77 742.28 393.49 734.78 408.37 732.42 414.8 721.38 430.89 714.2 439.09 703.16 448.18 697.48 451.23 693.73 459.68 691.37 463.05 677.97 477.13 669.62 492.65 665.65 497.88 663.19 502.7 654.62 528.44 650.66 537.68 646.91 551.35 641.57 584.81 640.5 599.28 639.43 604.91 633.76 621.39 613.93 646.73 605.37 661.2 594.33 671.9 591.12 676.08 585.22 680.51 579.33 683.16 581.47 684.77 580.4 685.74 562.93 697.24 551.68 699.65 547.18 703.51 544.72 704.08 541.82 705.93 521.14 710.12 517.38 710.36 509.88 713.98 500.24 722.18 485.99 732.48 482.56 735.7 479.35 742.37 460.28 757.42 451.17 760.88 445.81 761.84 432.41 762.09 427.27 760.64 414.4 759.68 412.58 760.65 410.12 763.87 404.98 763.71 403.15 764.51 399.94 770.14 397.26 771.11 387.08 769.91 381.93 766.93 388.67 748.6 396.7 738.38 403.67 732.75 405.81 731.7 410.31 732.35 414.17 729.93 417.92 728.88 418.67 728.32 418.14 727.52 416.53 726.72 410.31 725.91 401.73 726.72 386.51 724.07 371.18 725.53 361 724.32 354.78 722.48 348.13 719.1 333.12 716.46 330.66 715.49 329.37 714.45 327.98 711.23 324.01 708.42 315.97 708.02 311.89 706.01 304.6 704.81 304.6 706.26 309.21 707.06 314.57 710.27 319.72 711.48 322.62 713.08 325.62 717.66 330.66 721.52 332.27 725.7 337.1 729.72 346.54 735.35 350.29 738.4 359.19 746.6 362.63 751.26 371.53 758.66 379.04 767.5 377.65 772.97 379.05 782.61 378.19 788.49 376.06 794.52 371.24 801.11 368.02 803.77 359.24 806.75 350.88 811.97 340.91 815.03 338.02 816.8 336.09 818.66 333.2 824.69 Z M 14.33 837.65 14.55 831.78 18.31 822.94 17.24 819.56 15.31 820.93 14.56 825.75 11.34 831.22 10.58 836.28 14.12 839.82 17.12 841.67 19.47 841.67 14.33 837.65 Z M 451.61 107.47 452.47 108.35 453.97 108.35 455.47 106.91 455.15 105.62 454.4 104.49 450.43 101.68 447.96 100.32 447.42 100.56 447.21 100.72 446.46 103.21 451.61 107.47 Z M 28.61 817.4 26.78 816.27 26.03 815.87 23.89 816.67 23.57 817.47 24.75 818.68 26.67 820.37 27.96 820.53 28.71 819.73 28.61 817.4 Z" fill-rule="evenodd"/>
</g>
</svg>