<?xml version="1.0"?>
<svg xmlns="http://www.w3.org/2000/svg" version="1.2" baseProfile="tiny" width="800" height="863" viewBox="0 0 800 863" stroke-linecap="round" stroke-linejoin="round">
<g id="thermalitoafterbay">
<path d="M 442.26 225.3 438.67 224.84 438.13 225.38 438.67 226 439.99 227.16 440 227.54 436.65 230.43 435.58 231.18 433.18 231.37 430.55 231.38 429.11 231.2 427.55 230.08 427.07 229.9 426.59 229.52 425.15 229.06 424.43 228.69 423.65 229.41 423.72 230 423.96 230.23 426 231.76 426.72 232.13 428.04 232.97 428.34 233.53 428.77 236.23 429.14 237.71 429.38 238.18 429.74 238.83 430.34 239.48 432.5 241.15 433.52 241.29 435.62 241.24 437.05 240.96 437.77 240.77 438.13 240.49 438.97 240.3 440.88 240.48 441.6 240.95 441.6 241.22 441.22 241.6 440.89 242.25 439.94 243.18 438.47 244.42 437.91 245.61 437.5 247.99 437.21 250.08 437.45 251.48 437.28 252.37 436.86 253.07 436.39 254.28 436.63 254.74 436.99 255.11 437.35 256.6 437.35 256.88 437.72 258.65 437.96 259.21 438.32 259.58 438.44 260.23 437.85 260.7 435.57 261.36 431.27 262.48 430.67 262.02 430.06 261.28 429.82 260.62 428.02 259.05 427.78 258.58 427.78 258.21 427.3 257.84 426.09 256.63 425.25 255.61 425.19 255 425.72 251.97 426.55 251.04 426.79 250.29 426.79 249.74 426.42 249.08 426.42 248.52 426.18 247.03 425.7 246.57 424.26 245.46 423.41 244.53 423.29 244.16 422.21 242.95 422.21 242.57 421.73 242.02 419.32 239.88 418.6 239.32 417.76 239.04 415.84 237.93 413.69 237.75 412.13 238.59 411.06 239.48 410.7 239.99 410.34 240.37 410.11 241.76 409.51 242.23 408.91 242.42 407.72 243.26 406.88 243.35 405.38 243.4 404.85 243.54 403.23 244.29 402.81 244.39 401.8 245.04 401.26 245.32 400.3 244.58 400.53 243.56 400.17 241.79 399.81 241.51 399.74 240.34 399.92 239.08 401.47 237.59 401.7 235.54 400.86 234.43 398.33 232.1 397.49 231.55 396.89 231.36 394.26 231.55 393.42 231.93 392.59 232.12 391.75 232.58 390.91 233.24 390.79 233.8 389.96 234.45 389.12 234.64 387.2 234.46 385.04 232.78 384.08 231.67 383.84 230.74 384.07 228.6 382.81 227.67 382.36 227.46 379.99 227.02 376.99 224.66 375.18 222.56 374.94 222.1 374.58 221.17 374.04 220.8 373.62 220.61 373.26 220.52 372.54 219.96 372.77 219.68 373.13 219.4 373.13 219.12 372.41 218.66 370.85 218.85 369.78 219.41 363.67 219.14 361.75 218.03 360.79 217.85 360.43 217.94 359.6 218.59 359.6 218.97 358.16 220.09 357.93 220.65 357.75 221.44 358.18 225.4 357.83 225.77 357.59 226.24 356.99 226.8 356.64 227.64 356.47 231.04 357.02 232.48 357.62 234.43 357.63 236.95 357.88 239.46 358.6 240.3 361.76 242.64 362.57 242.9 364.48 243.17 367.12 243.63 368.68 244.75 371.8 244.74 372.51 245.11 373.03 245.6 373.42 247.3 373.07 265.88 372.72 266.16 372.24 266.16 370.44 264.95 367.2 264.59 366.36 264.12 365.46 263.47 364.92 263.19 364.08 263.01 362.53 263.71 361.57 264.23 360.26 265.07 359.54 265.07 357.86 264.79 355.1 263.5 354.62 263.22 353.06 263.32 351.69 263.18 348.93 262.81 344.86 262.54 343.84 262.87 341.21 263.53 338.87 263.49 335.94 262.8 334.5 261.87 332.94 261.69 331.14 260.29 329.69 258.99 322.85 253.7 322.25 253.51 321.41 253.05 321.05 252.77 320.57 252.68 319.61 252.22 317.68 250.82 317.2 250.27 316.95 247.85 316.59 246.45 316.23 245.98 316.11 245.61 308.66 239.95 307.94 239.11 307.69 237.06 307.33 236.41 307.33 236.04 303.36 232.51 301.92 230.84 301.55 228.7 300.89 228.23 300.23 228.14 298.2 229.77 297.78 230.38 297.12 231.03 296.77 231.78 297.01 232.06 297.25 233.18 296.89 233.46 294.26 233.37 293.42 233.05 292.67 233.58 292.61 233.82 292.23 234.3 291.39 234.87 290.91 234.96 289.84 235.52 288.28 235.99 286.73 236.37 286.25 236.65 285.41 236.93 276.99 243.37 275.38 244.03 274.3 244.69 273.23 244.88 272.27 244.13 271.78 243.67 271.78 243.39 271.3 242.83 269.98 240.88 268.96 240.13 267.46 239.53 266.38 239.02 264.94 238.09 264.34 237.91 262.78 237.63 260.37 235.78 258.93 234.38 257.49 233.27 257.07 233.22 253.12 233.51 247.13 234.37 245.76 234.74 243.96 234.98 243.13 235.45 241.93 235.82 240.38 236.11 238.09 234.34 238.09 233.97 237.61 233.5 237.37 232.95 237 231.73 236.52 231.27 236.52 230.8 234.84 228.85 233.82 228.11 233.03 227.74 231.24 227.47 229.8 227.1 229.44 226.82 228.96 226.73 228.12 226.26 227.04 226.08 226.21 226.73 226.15 227.62 226.34 229.71 226.94 230.74 227.54 231.48 231.87 235.05 232.59 235.94 233.19 236.59 233.79 237.14 234.76 239.28 234.95 241.75 234.77 242.08 234.51 243.31 233.47 245.71 233.35 246.27 233.95 246.92 234.19 247.48 234.79 248.51 234.8 248.97 234.44 249.25 233.12 249.07 232.52 248.7 231.08 248.51 227.61 248.99 225.7 250.48 223.9 250.21 221.74 248.91 220.19 248.63 219.59 248.73 218.39 249.38 216.12 249.95 214.92 250.69 213.97 251.49 213.7 251.84 213.26 253.59 213.38 254.42 212.31 255.45 212.31 255.82 211.41 256.48 211.35 256.94 211.12 257.18 210.76 257.22 208 255.37 207.16 255.18 206.8 255.18 205.72 255.75 203.69 256.31 201.29 256.22 200.34 256.69 199.86 257.06 196.21 257.4 195.19 257.73 191.48 258.02 189.68 257.93 186.56 255.42 186.56 254.86 185.96 254.49 183.44 254.68 181.64 254.41 173.96 254.86 170.1 261.04 164.44 267.22 162.63 272.37 166.24 274.69 169.84 275.2 172.67 273.14 173.7 269.28 174.47 266.96 177.01 263.45 177.37 264.29 177.73 264.94 178.33 265.59 178.58 266.06 178.94 266.43 179.18 267.08 179.54 267.45 179.9 268.1 180.26 268.47 180.99 269.68 181.59 270.33 182.67 272.1 183.52 273.03 183.88 273.96 184.36 274.8 185.2 275.82 187.37 277.68 187.37 277.96 187.49 278.42 187.85 278.79 187.97 279.26 187.5 279.63 186.3 279.64 185.7 279.73 185.1 280.2 185.4 280.94 184.87 281.22 183.61 281.36 172.12 282.42 160.74 283.56 151.05 284.42 138.36 285.38 135.12 285.58 120.09 286.22 119.5 286.69 120.42 290.91 121.26 291.56 129.16 291.26 143.83 290.34 152.67 289.9 163.92 288.85 191.46 285.76 193.2 284.93 195.18 285.85 196.99 286.87 198.06 287.15 199.89 286.75 200.7 286.77 202.02 287.61 204.29 287.88 205.26 288.34 205.86 288.81 206.1 290.2 206.34 290.48 207.3 291.22 210.9 291.68 213.06 292.05 214.86 293.16 217.74 295.39 219.18 296.32 219.78 296.41 220.98 297.06 223.5 297.8 225.53 298.07 228.77 298.35 230.44 297.97 231.52 297.32 232.47 296.43 234.62 294.23 236.29 293.02 237.37 292.74 239.05 292.45 242.75 290.4 247.54 290.2 247.9 290.29 248.86 290.75 249.34 291.13 249.34 291.59 246.48 294.07 246.12 294.58 245.52 295.14 245.46 295.47 244.75 296.63 244.4 298.54 244.66 303.01 245.44 305.29 246.05 306.69 246.41 307.99 247.01 308.64 249.18 310.31 249.9 310.68 250.74 310.87 252.3 311.61 253.26 312.16 253.98 312.26 254.33 312.53 254.81 312.63 255.29 312.9 256.37 313.18 256.73 313.46 258.53 314.06 259.97 314.48 265.12 314.93 265.72 315.21 268.24 316 269.35 316.25 271.48 316.59 272.2 317.06 273.04 317.24 273.64 317.24 273.93 317.05 274.62 316.75 275.37 316.63 275.91 316.49 276.89 315.9 277.19 315.95 278.66 316.39 281.65 316.01 283.92 314.51 287.87 313.48 289.91 313.2 291.94 312.82 292.54 312.45 294.45 311.42 295.65 311.13 296.12 310.85 297.44 310.48 298.04 310.1 298.4 310.1 299.47 309.54 301.62 308.05 302.34 307.49 302.81 306.55 303.03 299.85 303.62 299.38 303.98 299.19 305.06 299.75 306.38 299.93 306.86 299.56 307.09 298.63 307.57 298.16 308.11 297.79 309.37 298.53 310.09 299.27 310.93 299.92 311.29 299.92 312.01 300.29 314.88 300.1 315.61 300.56 315.61 300.84 315.07 301.31 313.46 302.34 311.9 303.55 311.43 304.02 311.07 305.14 309.16 306.82 309.16 307.1 308.69 307.75 306.79 312.13 306.11 321.54 306.35 322.56 306.95 323.21 309.53 325.17 310.79 325.81 313.32 327.58 315.11 328.13 317.03 328.59 317.63 328.97 318.71 329.34 321.35 329.52 323.98 329.79 324.4 330.07 326.26 330.95 327.11 331.46 327.11 331.83 325.43 333.28 324 334.35 320.53 335.39 317.66 335.67 316.11 336.51 315.15 336.79 312.36 336.13 310 335.87 307.72 336.25 307.48 336.35 306.41 336.81 305.93 337.19 305.45 337.75 305.7 339.33 306.3 340.07 307.15 342.03 307.75 343.61 308.23 344.26 309.2 346.22 309.57 349.1 310.06 350.78 310.54 351.8 310.84 352.17 312.82 353.94 316.19 356.54 316.91 356.91 317.86 357.19 320.02 357.55 321.94 358.94 323.62 360.06 323.98 360.06 324.7 360.43 326.5 360.89 330.09 361.35 330.82 361.72 331.18 362.04 330.34 362.74 329.62 362.98 328.55 363.12 327.71 363.31 326.63 364.15 326.17 366.85 325.45 367.6 325.33 368.34 326.06 369.27 326.66 369.78 327.02 370.2 326.8 374.67 326.2 375.24 325.12 375.52 324.52 375.52 323.92 375.43 321.41 374.13 320.21 375.06 320.21 375.34 320.33 375.62 320.57 375.9 325.74 379.99 325.51 381.57 325.99 382.96 326.35 383.34 326.47 383.71 325.99 384.08 324.83 384.2 324.08 383.81 323.71 382.13 323.71 380.92 323.46 379.9 322.26 379.25 321.19 378.92 320.22 378.51 317.22 376.19 316.74 375.72 316.98 374.79 317.33 374.51 317.57 373.86 317.8 371.9 316.6 370.6 315.99 368.74 314.79 368 313.83 367.63 311.74 367.4 309.52 367.26 308.09 367.45 306.17 368.67 305.82 368.67 304.14 369.04 302.35 369.98 301.51 370.17 300.91 369.7 301.26 366.54 301.01 365.7 298.25 363.56 298.19 363.24 298.17 357.28 297.62 356.02 297.26 355.37 296.78 354.9 295.64 354.16 295.1 353.88 293.06 353.42 292.7 353.24 289.7 350.92 286.69 347.57 286.69 347.29 285.01 346.09 284.29 345.85 281.09 346.21 279.74 346.56 279.26 346.84 278.43 347.12 277.23 347.87 275.44 349.32 274.81 350.04 274.75 350.28 274.37 350.77 274.13 351.42 273.77 351.79 273.06 353.38 272.58 353.84 272.53 354.17 272.23 354.5 271.39 355.06 269.23 353.39 267.91 351.99 267.66 351.34 267.18 350.88 266.69 347.71 266.33 347.43 265.91 346.69 265.35 342.5 264.63 341.38 264.27 340.64 263.9 339.43 263.3 338.78 263.06 338.03 262.58 337.57 262.46 337.2 261.13 335.62 258.49 332.64 257.1 329.85 256.8 328.74 255.59 327.16 255.47 326.78 255.11 326.5 254.75 325.85 253.06 323.99 252.16 323.34 251.5 323.07 250.78 322.6 250.06 322.37 248.21 322.19 247.07 322.43 245.87 322.99 245.04 323.45 242.17 325.7 241.46 326.35 241.22 326.91 237.05 331.85 236.33 332.79 235.74 333.44 233.95 335.17 233.23 336.15 232.87 336.52 232.76 336.99 232.4 337.36 232.11 338.62 229.67 343.79 229.55 344.17 229.2 344.63 228.24 346.78 227.98 347.82 227.78 349.2 228.14 350.78 228.74 351.43 230.85 353.01 231.75 353.48 233.07 354.5 232.83 355.24 231.16 357.2 230.81 358.97 230.45 359.44 230.69 359.72 231.06 361.95 230.7 362.32 230.35 363.07 231.19 365.02 231.56 366.14 232.16 366.79 232.76 367.26 233.72 367.16 234.44 367.62 235.04 368.65 235.4 369.39 235.88 369.95 236.13 371.91 236.13 372.37 235.78 373.68 234.71 374.7 234.47 375.26 234.71 376.56 235.19 377.03 235.98 377.59 237.11 376.93 237.71 377.3 238.67 377.58 240.95 379.25 241.55 379.25 242.75 379.9 243.95 380.18 244.91 380.45 249.35 383.7 250.55 383.98 253.66 383.5 254.38 383.88 254.86 384.25 254.99 385.27 254.99 385.74 255.23 386.57 257.15 387.97 257.99 388.34 258.83 388.8 259.73 389.61 262.32 392.61 262.68 392.89 262.92 393.45 263.52 394.1 264.48 394.75 265.2 395.03 265.69 395.31 265.81 396.33 267.85 398.28 267.85 399.02 267.5 399.35 267.38 399.87 267.98 400.33 269.3 400.33 270.86 401.07 272.17 400.88 273.01 401.34 273.62 403.67 274.94 404.57 277.46 404.22 278.05 404.31 282.14 407.28 282.5 407.28 283.46 407.46 284.54 408.11 285.02 408.48 285.26 409.04 285.26 409.7 285.02 409.97 284.31 410.54 282.39 410.73 281.31 411.01 280.96 411.29 280.24 411.48 278.32 411.2 274.86 413.96 273.31 415.4 272.59 415.97 271.28 416.25 270.2 416.81 269.24 417.09 266.13 417.56 265.78 417.84 265.18 417.84 264.58 417.94 263.98 418.31 263.26 418.92 262.67 419.62 261.48 422.33 261.25 423.82 260.89 424.28 260.66 425.96 261.33 429.17 261.64 431.92 261.64 432.94 261.89 434.34 262.25 434.62 262.37 435.17 262.73 435.55 263.09 436.2 264.42 439.08 264.67 441.04 264.61 441.64 264.32 442.16 264.2 443.09 265.04 444.02 265.16 444.48 265.17 445.41 266.97 447.08 267.03 447.41 267.21 447.74 266.81 451.04 265.1 458.64 268.94 461.66 268.47 462.08 267.03 462.08 266.19 462.73 265.96 463.76 267.28 464.69 268 464.78 268.72 465.15 272.38 468.03 276.52 469.79 279.4 471.27 280.84 472.2 282.16 472.48 283.6 473.31 285.76 474.98 286.84 475.63 287.32 475.72 288.28 476.28 288.82 476.33 289.24 476.47 290.08 476.65 290.8 476.65 291.39 476.18 291.75 475.34 292.7 474.41 293.27 474.08 294.14 474.59 294.57 476.41 295.11 478.31 296.8 479.61 300.63 480.16 301.59 480.63 302.55 481.42 302.91 481.93 303.04 482.49 303.51 482.95 304.6 483.79 305.25 483.74 306.27 483.78 307.23 484.25 307.71 484.8 308.08 486.67 308.44 487.5 308.8 488.15 310.37 489.92 310.49 490.66 310.98 492.06 311.34 492.71 312.18 493.55 312.54 494.39 313.14 495.13 320.11 500.89 320.35 501.54 321.32 502.75 321.92 503.4 322.94 504.1 323.71 503.81 324.19 504.05 324.85 504.09 326.11 503.86 327.91 503.94 328.26 504.15 330.18 504.41 331.5 504.87 335.33 505.33 336.89 505.04 338.56 504.01 339.28 503.92 340 504.29 340.48 504.66 342.9 510.34 343.38 511.73 344.59 514.62 345.19 515.27 346.63 516.38 346.99 516.29 347.59 516.29 349.02 515.26 349.26 514.79 349.49 511.53 349.72 510.32 350.2 509.86 351.04 509.2 351.63 509.11 351.99 509.11 353.43 509.94 354.51 510.78 354.75 511.24 355.48 512.08 356.44 513.01 358.12 514.35 359.44 515.61 360.41 517.84 360.77 518.49 361.43 519.33 363.54 521.28 363.54 521.84 363.9 523.14 364.38 523.61 367.51 525.95 370.02 526.48 370.74 526.85 371.46 527.32 372.18 528.06 373.75 529.27 374.58 529.27 376.37 527.96 377.69 527.12 379.66 526.79 386.07 526.54 387.14 526.63 388.7 526.91 389.78 527.56 390.38 528.11 390.63 530.07 390.51 530.63 389.8 532.03 389.92 532.4 390.16 532.63 390.28 532.96 391.4 534 391.97 535.65 392.45 536.12 393.05 536.58 395.56 536.58 396.04 536.2 396.04 535.27 396.88 534.71 398.31 535.31 400.83 536.94 401.19 537.22 401.32 538.15 400.84 538.52 400.18 538.57 396.89 538.62 396.53 538.9 396.29 539.18 398.45 540.86 398.7 541.88 399.78 542.72 400.26 542.81 401.34 543.46 401.34 544.11 400.39 544.95 400.33 545.37 400.57 546.16 400.88 549.42 400.53 551.19 399.34 552.26 398.5 553.24 398.27 554.08 397.08 555.48 396.84 556.32 397.8 557.06 398.16 557.06 400.31 555.57 401.15 555.56 401.45 555.38 402.82 554.26 404.48 550.25 404.71 549.22 405.31 548.57 407.04 547.26 407.58 546.98 408.3 546.52 410.45 546.14 411.52 545.3 412.36 544.46 412.53 543.66 412.83 541.76 412.11 541.29 411.39 541.29 410.55 541.39 409.23 540.65 408.63 540.74 408.15 540.74 407.55 540.65 405.27 538.79 405.03 538.33 405.44 535.67 405.62 535.34 405.97 534.23 406.45 533.76 406.68 532.64 406.44 531.62 404.88 530.13 404.4 529.48 404.28 529.11 402.71 527.67 401.87 526.69 401.63 525.11 401.74 524.64 402.7 523.71 403.17 521.84 404.01 521.19 404.85 521.93 405.45 523.42 405.69 524.26 406.05 524.59 406.66 525.28 409.12 527.14 409.54 527.23 409.9 527.51 410.62 527.74 413.73 528.25 414.57 528.71 414.93 528.99 415.17 529.55 415.77 530.2 418.24 532.06 418.78 532.34 420.22 533.26 420.94 533.45 422.38 533.91 423.09 534 424.41 533.91 425.61 533.72 426.45 534.18 427.76 533.99 428.48 534.36 428.84 534.64 428.91 535.15 429.45 537.06 429.81 537.81 430.05 538.08 430.18 538.55 430.42 539.01 433.18 541.24 433.42 542.08 436.19 544.31 436.43 544.87 436.08 547.94 436.2 548.41 437.04 549.34 437.16 549.8 437.17 550.46 437.05 551.29 436.69 551.76 436.23 555.86 433.72 557.82 433.49 558.38 434.09 558.84 435.28 558.66 435.64 558.38 436.48 558.19 437.56 558.19 438.4 558.65 438.75 558.65 439.23 558.93 439.95 559.11 441.6 559.32 444.03 559.94 444.99 560.41 445.47 560.78 445.11 561.43 446.31 562.36 449.01 562.58 456.73 562.99 457.33 563.27 458.53 564.01 458.89 564.01 459.61 564.38 463.2 564.56 463.92 564.93 464.28 565.21 464.65 566.42 466.81 568.18 466.93 569.02 466.67 570.02 466.1 571.35 465.74 571.72 465.39 572.28 465.03 573.12 465.75 573.77 468.51 573.49 469.22 574 468.03 575.26 468.51 575.72 469.65 575.58 471.14 575.16 471.86 575.06 474.26 574.5 475.21 573.75 475.21 573.47 474.97 573.01 476.34 571.98 476.88 571.7 477.96 571.32 478.43 571.04 480.35 570.57 481.9 570.29 482.98 569.92 483.34 569.73 483.7 569.73 484.05 569.45 484.65 569.26 486.92 567.67 491.47 567.85 494.46 565.61 495.05 565.42 496.49 565.23 496.97 564.86 496.72 562.99 496.24 562.58 495.88 562.16 496.48 561.69 497.07 561.32 498.57 561.08 500.78 560.84 501.26 560.47 501.26 560.1 500.42 559.35 500.9 558.89 501.25 558.7 502.81 558.51 503.29 558.04 503.52 557.11 504.72 555.95 505.08 555.52 506.51 554.22 506.51 553.85 506.08 553.57 505.73 553.43 505.19 553.57 504.59 553.85 504.05 554.22 502.92 554.88 502.26 554.27 502.43 553.76 502.91 553.29 502.91 552.92 502.19 552.46 500.27 552.46 499.67 552.37 497.33 550.51 496.07 549.86 495.47 549.77 494.51 548.98 495.47 548.19 495.95 548.19 496.42 547.77 496.3 547.44 494.98 546.23 494.98 545.86 495.1 545.39 495.99 544.74 496.89 544.27 497.25 543.99 497.25 543.71 496.41 543.16 495.09 542.88 493.11 541.67 492.21 541.3 491.73 541.02 490.29 540.84 489.69 540.47 488.79 539.82 488.01 540.38 488.14 540.66 488.14 541.68 487.9 542.99 486.83 543.92 486.59 544.02 485.48 543.18 485.63 542.34 485.98 542.06 485.98 541.78 485.86 541.32 485.62 541.04 484.9 540.48 483.83 541.23 483.47 541.23 482.39 540.39 482.03 539.93 481.78 539 481.24 538.63 480.7 538.35 479.98 537.88 479.14 537.7 477.53 538.63 476.87 538.73 476.3 538.15 476.51 537.61 477.7 536.21 479.02 535.18 479.37 535.18 479.85 534.81 479.79 534.39 479.01 533.69 480.92 532.01 480.91 530.9 480.67 529.5 479.59 528.38 479.34 527.08 479.34 525.5 478.8 525.12 477.54 524.38 477.06 524.01 477.77 523.45 479.45 523.07 480.41 523.17 481.49 523.91 481.74 526.61 482.94 528.28 483.3 528.56 483.3 529.03 483.66 529.31 484.02 530.33 483.73 532.8 483.44 533.68 484.37 534.17 484.88 533.96 486.31 532.75 486.06 531.44 486.84 530.93 487.5 531.07 487.86 531.35 488.82 531.35 489.9 531.62 490.98 531.99 491.94 532.45 492.78 533.1 493.5 533.76 493.5 534.13 494.94 535.24 495.42 535.24 495.78 534.96 495.78 534.5 495.41 532.82 495.05 531.7 495.64 531.24 496.24 531.23 496.96 531.7 497.2 532.35 498.41 533.47 498.68 534.79 499.01 535.3 499.37 533.93 499.36 533.28 498.88 532.44 499.24 532.16 499.72 532.25 500.68 532.9 500.68 533.18 501.76 534.02 502.24 533.6 502.35 532.9 502.71 532.62 502.71 531.97 502.95 530.89 503.55 532.8 503.83 542.21 504.08 546.03 504.8 546.49 505.28 546.21 504.86 529.35 504.6 525.35 505.32 524.7 506.04 525.25 507.95 525.25 508.79 525.15 509.15 524.87 509.26 523.76 509.38 523.2 509.5 523.1 510.34 523.57 510.71 526.45 511.07 526.73 511.32 528.41 512.1 528.97 512.64 528.59 512.75 527.19 512.26 525.05 512.98 524.49 513.82 524.68 514.36 524.96 514.9 525.33 515.5 526.07 515.74 526.54 515.98 527.56 516.23 527.84 519.23 530.16 520.18 529.69 521.26 530.06 521.62 530.34 522.1 530.34 522.46 530.06 522.46 529.22 523.29 528.57 524.49 528.66 525.69 529.4 526.05 529.4 527.24 528.37 527.6 528.37 529.04 529.58 531.19 527.76 530.95 527.53 530.23 527.16 526.61 526.82 526.04 526.61 524.96 526.05 524.18 526.01 523.16 525.31 522.92 524.01 522.08 523.54 521.36 524.1 520.88 524.57 520.65 525.59 519.27 526.81 518.37 526.16 517.89 525.69 517.16 522.81 516.32 521.97 515.96 521.23 516.56 520.67 516.92 520.67 517.75 520.76 518.71 521.41 520.03 521.68 521.11 521.68 522.18 520.75 522.18 520.28 521.34 519.82 518.83 519.82 517.42 518.59 517.51 518.15 518.46 517.12 517.86 516.47 517.74 516.1 517.38 515.73 516.42 515.26 514.86 514.9 512.94 513.36 513.59 512.89 515.21 512.94 515.57 512.84 516.88 511.72 517 511.26 517.24 510.93 519.27 509.2 519.71 508.11 520.7 507.25 521.29 507.34 521.89 507.24 522.61 506.5 522.61 506.12 521.41 505.38 519.49 504.92 518.95 504.64 517.45 503.53 518.17 502.97 518.76 502.87 519.72 502.87 523.79 503.05 525.83 501.74 529.66 501.45 530.25 500.89 530.25 500.61 530.61 499.87 530.61 499.59 530.12 497.16 529.78 495.05 528.79 494.19 528.07 493.82 526.03 493.45 523.76 492.9 523.4 492.71 522.68 492.52 522.32 492.25 519.08 491.79 516.26 489.65 515.48 490.21 515.13 492.45 514.18 493.2 513.7 493.2 512.35 492.41 511.75 492.15 509.74 492.27 509.15 492.74 508.31 492.09 508.3 491.44 508.54 490.6 508.3 489.67 508.16 486.41 508.15 483.43 508.15 481.75 507.87 471.23 508.46 470.76 509.06 470.57 510.38 470.66 513.98 471.03 514.93 471.49 515.41 471.86 515.66 473.17 516.02 473.49 516.38 474.19 516.33 475.17 516.03 475.77 515.79 476.71 515.37 477.27 513.76 478.76 512.81 479.04 511.01 479.23 509.82 480.21 509.46 480.63 509.28 481.52 509.11 481.94 509.23 483.15 509.35 483.42 509.36 486.87 509.61 488.27 509.97 488.64 510.45 488.55 511.4 487.71 511.52 487.24 511.52 486.96 511.4 486.5 511.01 486.1 510.67 484.07 510.73 483.28 511.02 482.4 511.5 481.93 512.96 480.88 514.13 480.71 514.85 481.08 516.41 482.18 517.28 481.34 517.33 481.1 517.84 480.52 518.2 480.24 518.67 476.98 519.26 476.32 519.74 475.95 520.58 476.42 520.65 477.58 520.23 478.46 520.05 479.26 519.89 483.4 521.33 484.52 521.75 484.56 522.89 484.89 523.37 484.98 524.69 485.81 525.17 486.18 525.77 487.21 527.09 488.7 529.01 490.18 529.79 490.13 530.57 489.99 531.29 489.53 532.24 489.34 534.52 490.82 535.96 490.63 536.47 490.38 538.11 490.53 539.19 489.79 539.79 489.79 540.51 489.32 540.98 488.39 541.82 487.55 542.05 486.8 542.05 486.43 541.57 485.78 541.45 485.41 541.09 485.13 541.09 484.75 541.92 484.19 542.49 484.42 543.12 484.75 543.6 484.84 544.08 484.38 544.32 484 544.85 483.67 545.64 483.95 548.39 483.72 549.35 484.18 549.83 484.64 549.71 485.57 549.24 487.44 548.76 487.72 548.04 487.63 546.96 487.07 546.37 487.54 546.49 487.82 550.21 491.07 550.45 491.53 550.81 491.91 551.06 492.93 551.54 494.42 552.04 500.75 552.64 501.4 553.31 501.82 554.56 501.44 556.95 501.21 558.21 500.36 558.87 500.46 560.31 501.2 561.03 501.76 561.52 504.27 561.88 504.74 563.32 505.85 567.63 506.4 569.07 507.33 570.15 507.05 572.06 506.76 572.66 506.85 573.5 507.41 573.74 508.16 574.23 509.27 574.71 510.11 575.31 510.76 576.39 511.6 582.14 511.31 583.1 511.49 584.18 512.14 585.08 512.95 585.86 513.91 585.92 514.98 585.15 516.61 585.39 517.45 585.88 518.28 585.88 519.22 585.7 520.1 584.81 522.01 584.55 523.48 585.06 524.15 585.66 524.71 586.27 527.78 586.87 529.08 587.72 530.02 590.6 532.15 591.56 532.52 594.31 532.89 596.83 533.35 598.51 534.46 598.51 534.93 596.96 536.28 596.36 536.98 596.13 538.01 596.49 538.94 597.12 539.71 597.18 539.94 597.57 540.43 597.75 540.94 597.82 542.48 598.06 543.13 598.66 543.78 600.46 545.17 601.24 545.22 602.56 545.21 602.98 545.07 604.17 544.88 605.49 545.72 605.98 546.65 606.58 547.21 607.18 548.7 607.54 549.35 608.87 550.84 610.19 551.86 610.72 551.48 611.74 550.92 612.93 550.18 615.45 549.98 617 549.79 617.84 549.33 618.32 549.23 618.68 548.95 619.28 548.86 620.29 548.9 620.71 549.13 624.67 549.59 625.63 550.06 626.23 550.52 626.23 551.82 627.43 552.75 628.63 553.03 630.07 553.96 629.96 555.45 629.6 557.03 627.69 558.43 626.38 559.28 625.66 559.46 624.7 559.93 623.75 560.68 623.27 561.14 623.04 562.64 622.44 563.1 621.48 563.29 620.89 563.67 619.69 564.65 619.33 565.16 618.98 565.53 618.86 566 618.5 566.37 618.15 568.05 619.11 568.79 621.02 568.79 621.62 568.88 624.02 570.55 625.22 570.55 625.58 570.83 626.3 571.01 627.98 570.82 629.65 569.79 630.25 569.7 632.88 569.69 633.6 570.07 634.32 570.67 634.92 571.46 635.52 572.02 635.77 572.76 636.49 573.97 636.49 574.9 636.14 576.39 636.26 576.67 636.56 577.04 637.7 578.07 637.47 579.56 638.55 580.39 642.38 580.85 643.1 581.22 644.3 581.97 648.55 582.28 649.09 582.42 650.71 582.56 652.32 582.23 652.74 582.41 653.52 582.88 653.53 584.65 653.65 584.93 655.09 586.23 655.94 588.65 656.31 591.07 656.67 591.53 657.51 592.18 658.47 592.09 660.14 591.81 661.93 590.87 664.21 590.31 666.48 588.81 667.31 588.16 669.58 586.1 669.82 585.64 670.41 583.22 670.88 582.75 671.18 582.56 673.04 583.77 673.52 583.58 673.88 583.3 674.47 582.56 675.49 581.81 676.03 582.18 676.03 582.55 675.91 583.02 675.67 583.3 675.2 583.67 675.08 584.05 674.36 584.88 674.24 585.35 673.89 585.72 673.65 587.03 673.36 589.68 673.55 591.03 674.15 591.68 676.91 594.01 677.03 594.75 677.39 595.22 678.95 596.43 679.32 596.61 682.79 596.23 683.2 595.95 683.62 595.76 685.77 594.27 687.09 594.45 687.93 594.45 688.35 594.17 690.2 593.24 691.15 592.68 691.75 592.49 692.35 592.58 693.79 593.51 694.15 593.79 694.51 595 696.02 596.11 696.79 595.5 696.91 594.99 697.27 594.71 697.27 594.43 698.4 593.59 700.13 592.47 700.49 590.98 700.36 589.21 700.59 588 700.95 586.97 701.79 586.13 702.14 585.39 702.38 584.18 702.6 579.33 702.83 577.38 703.55 576.72 703.78 575.23 704.5 574.67 705.13 575.14 705.46 576.81 705.35 577.28 706.19 577.93 706.67 578.02 707.75 578.67 707.63 579.14 707.64 581.93 707.94 583.56 708.31 585.05 709.64 588.17 709.95 592.08 710.01 593.71 710.2 594.13 710.04 599.58 709.63 602.6 709.63 603.91 709.94 605.54 709.65 609.78 710.08 611.78 710.62 613.22 710.75 613.78 711.35 614.43 711.59 615.08 711.95 615.36 712.44 617.88 713.16 618.43 714.59 618.15 715.43 617.68 717.46 617.03 718.66 616.74 722.54 614.13 725.11 611.98 725.94 610.12 726.29 608.25 727.72 607.04 728.43 604.99 730.46 603.4 730.7 601.82 731.17 601.35 731.59 601.07 732.13 601.44 732.38 603.3 733.46 604.33 733.58 604.7 731.07 606.75 730.72 608.62 730.84 609.08 731.08 609.31 731.2 609.64 731.56 609.92 732.29 611.5 732.41 611.87 733.25 612.8 733.97 614.01 734.33 614.39 734.64 616.39 734.41 618.9 733.76 620.35 733.28 621.93 732.69 622.49 732.45 623.14 732.21 623.98 732.33 624.64 732.58 624.87 732.94 625.38 733.06 625.75 734.02 627.42 734.03 628.54 734.27 629.94 734.76 631.62 736.44 633.19 736.81 635.62 737.05 636.27 739.93 638.31 740.64 638.31 741.6 638.12 743.27 637.19 744.83 637.65 745.67 637.65 746.33 637.18 747.64 636.39 748.9 636.8 753.09 637.17 753.81 637.54 755.31 638.65 757.65 640.51 758.13 640.61 759.45 641.07 763.76 641.25 768.43 641.14 769.39 641.7 771.55 643.37 772.75 643.18 773.82 642.53 774.78 642.34 775.62 642.9 775.62 643.83 776.4 644.39 777.9 643.45 778.8 644.01 779.58 644.57 780.18 644.57 781.61 643.63 782.15 644 782.57 644.19 783.53 644.1 784.12 643.72 785.44 643.35 788.67 643.06 790.1 642.13 790.7 642.12 792.31 641 794.41 641.09 795.25 641.56 795.14 643.14 794.3 643.98 794 644.54 793.71 646.68 793.11 647.24 792.88 647.8 795.1 649.47 796.24 650.03 798.16 651.24 798.67 651.7 799 652.45 798.52 652.82 797.56 652.64 795.11 652.32 792.06 652.46 788.23 653.31 787.15 653.5 786.08 654.06 785.12 654.34 782.49 654.62 781.29 655.09 780.46 655.56 779.8 655.61 779.26 655.79 773.87 656.13 773.51 656.41 772.44 656.69 763.52 656.38 762.5 656.15 761.66 656.9 761.42 657.23 761.01 657.55 760.59 657.37 759.63 656.62 759.03 656.44 756.75 657 753.64 657.38 752.81 658.03 751.14 659.15 750.54 659.16 749.46 660 749.34 660.46 749.34 660.74 748.87 661.11 747.43 661.3 746.12 662.33 745.88 662.89 745.41 664.94 746.25 665.59 747.09 665.4 747.93 665.87 747.93 667.17 747.82 668.57 749.86 670.24 749.71 671.06 749.86 672.01 750.16 672.36 752.51 674.38 755.87 677.45 756.47 678.05 756.59 678.52 756.24 679.45 755.88 679.92 756 680.57 756 680.94 755.65 682.06 754.69 682.9 754.22 683.27 753.26 683.37 752.3 682.91 751.94 682.81 751.46 683.19 751.11 684.21 751.23 685.42 750.75 685.79 750.15 685.8 749.56 686.17 749.17 686.57 749.08 687.2 748.25 687.85 747.05 687.94 745.85 688.23 744.54 689.07 744.06 689.44 743.58 689.91 743.35 690.37 742.76 692.98 740.85 694.57 739.06 695.97 737.99 698.21 737.84 700.33 738.96 701.75 740.64 703.05 741.12 702.95 743.27 701.83 743.98 701.36 745.66 701.55 746.62 700.89 747.09 700.89 747.45 701.17 748.53 701.45 749.73 701.63 750.81 701.35 751.89 702 752.25 702.47 752.85 702.93 753.69 703.49 754.05 704.79 753.46 705.35 753.22 705.91 753.22 706.56 752.3 707.17 751.19 707.68 749.46 708.8 748.8 709.08 747.36 709.83 742.35 712.54 740.91 713.48 740.32 713.57 738.94 714.51 738.28 714.79 735.06 716.47 730.4 719.09 723.59 722.73 722.16 723.67 721.68 723.76 721.08 724.04 720.3 724.6 719.65 724.89 713.55 728.06 709.01 730.49 694.2 738.25 690.37 740.4 688.64 741.62 680.52 746.76 664.1 759.46 656.59 766.04 655.28 767.58 654.44 768.23 654.08 768.89 653.25 769.72 653.07 770.33 654.09 771.21 652.44 772.28 650.75 773.36 649.94 773.34 648.71 773.55 647.7 774.11 641.43 778.97 635.16 783.45 632.6 785.14 629.49 786.91 623.75 789.9 619.09 791.96 618.14 792.15 617.3 792.62 616.25 792.88 615.75 793.18 613.83 793.65 612.4 794.12 603.07 796.56 600.74 797.08 599.72 797.22 598.64 797.5 596.67 797.92 589.97 798.96 584.89 799.48 579.38 799.77 574.83 799.78 566.15 799.1 550.82 796.99 543.82 796.4 541.06 796.31 527 796.57 520.77 796.96 518.14 797.34 511.62 798.4 510.66 797.77 511.36 793.12 510.82 792.74 510.41 793.02 509.81 793.68 509.69 794.33 509.21 794.79 508.62 795.26 505.75 795.73 503.96 796.85 500.72 797.51 497.61 798.08 496.18 798.83 494.03 800.32 490.8 800.7 489.31 801.45 487.22 802.94 485.42 803.32 483.03 803.7 480.53 805.47 480.05 805.47 478.91 804.54 478.61 804.36 477.53 804.55 474.66 806.51 472.99 807.44 472.03 807.73 469.17 808.48 468.48 808.55 466.77 808.39 466.05 808.02 465.69 808.02 464.62 808.86 463.63 809.82 463.57 809.98 464.98 811.09 466.31 811.84 466.31 812.12 463.68 813.7 462.13 814.92 461.17 815.85 460.82 816.78 460.4 817.16 458.79 818.37 456.52 819.68 455.09 820.8 453.89 821.92 453.66 822.48 451.87 824.25 450.32 825.47 441.74 831.07 435.42 842.26 433.39 844.18 428.74 848.75 426 851.23 423.61 852.81 419.79 854.5 417.87 854.78 416.73 855.11 413.45 855.54 395.37 855.79 394.48 855.8 393.58 855.82 389.99 855.87 349.11 856.28 253.95 857.51 192.79 858.4 192.13 858.45 191.29 857.7 190.09 856.87 188.53 856.59 187.93 856.59 187.34 857.06 185.79 858.46 159.09 858.8 102.18 859.16 97.03 859.55 90.69 860.12 74.84 861.88 25.52 862 22.32 861.75 19.53 861.08 18.57 860.62 18.09 860.62 14.37 857.74 13.29 856.53 12.81 855.7 12.2 854.3 11.72 852.62 11.23 850.3 10.07 804.2 9.12 761.88 8.7 747.44 8.11 721.93 8.75 718.62 8.99 717.69 9.4 716.71 10.17 713.49 10.64 711.82 11.4 708.51 14.51 693.18 16.91 680.93 17.37 674.87 16.99 671.99 15.53 665.94 13.76 657.79 13.46 657 13.28 656.21 12.97 655.42 12.79 654.63 12.12 652.63 10.78 647.23 9.87 642.81 9.61 637.41 9.67 624.65 7.18 349 7.19 348.72 7.18 348.43 7.05 344.24 7.02 323.43 7.48 320.26 8.61 317.79 8.85 317.14 9.44 316.58 9.44 316.3 9.8 315.97 12.06 313.13 17.37 309.02 18.93 307.99 22.69 306.21 26.76 304.47 27.35 304.15 27.95 303.96 28.91 303.49 30.22 302.93 31.18 302.18 32.13 301.34 32.97 300.5 34.15 297.89 34.33 296.91 36.75 289.78 37.35 289.13 38.66 288.1 40.52 287.86 42.61 287.9 51.9 288.39 76.81 289.91 88.37 290.31 88.73 290.03 88.96 286.67 88 286.11 72.43 285.41 64.76 284.96 50.2 284.02 39.6 283.44 38.64 283.44 37.32 282.42 37.14 281.07 36.63 274.74 36.03 273.11 35.24 271.53 33.67 269.11 32.05 267.26 28.45 264.66 27.79 264.38 26.94 263.92 25.99 263.73 25.63 263.45 23.71 262.99 18.67 261.51 18.19 261.42 17.59 261.15 17.11 261.05 16.27 260.68 15.79 260.59 14.95 260.22 14.23 260.04 11.71 258.46 8.11 255.67 7.14 254.79 6.06 253.35 5.58 252.51 5.52 252.19 4.85 250.75 4.25 248.98 3.33 244.65 2.96 241.39 2.35 210.94 2.19 204.51 1.28 191.58 1.36 182.36 1 181.52 1.36 181.06 1.54 180.59 2.08 179.66 2.8 178.17 4.48 175.29 6.41 171.38 7.25 169.98 9.17 166.07 10.85 163.19 12.78 159.28 14.82 155.74 15.54 154.25 16.38 152.85 17.1 151.36 18.78 148.39 19.5 146.89 20.35 145.41 21.07 143.92 22.75 141.03 23.47 139.54 24.31 138.05 24.95 136.73 25.03 136.56 27.24 132.72 27.92 131.54 28.64 130.05 29.48 128.56 30.2 127.07 31.88 124.18 32.6 122.69 33.44 121.2 34.16 119.71 35.85 116.74 36.57 115.25 38.25 112.36 39.33 110.31 41.13 107.43 50.19 96.21 62.37 87.4 69.8 81.43 84.28 73.22 94.9 69.84 99.73 65.5 107.93 61.63 118.55 55.36 130.62 53.91 149.92 61.15 158.61 71.29 158.13 77.56 158.13 86.25 156.66 90.46 154.75 95.91 154.32 98.93 153.79 102.67 156.68 107.98 161.03 113.77 162.47 122.46 161.03 130.67 158.61 139.36 160.06 147.08 161.99 154.32 162.57 163.85 171.95 169.3 174.04 169.07 175.24 168.42 181.07 161.12 180 153.93 181.54 149.71 189.01 143.45 199.07 135.87 191.43 126.16 177.44 109.91 177.92 104.6 182.2 100.79 187.42 95.4 188.54 85.77 192.4 80.94 197.71 73.7 201.09 60.67 203.98 51.98 208.33 44.25 216.53 46.67 222.32 48.6 231.01 47.63 239.31 52.12 246.45 51.5 254.18 49.56 254.18 55.84 248.87 67.43 257.61 77.43 260.53 93.27 252.56 95.34 248.26 110.29 246.71 121.55 248.31 130.18 258.48 132.72 272.77 129.71 285.17 127.11 295.51 125.71 299.33 130.4 305.35 139.74 302.92 140.09 301.23 144.04 296.07 148.61 276.83 150.71 269.6 153.4 263.11 156.72 259.53 160.99 261.14 169.62 267.48 172.97 273.83 176.31 284.44 181.49 295.08 183.94 301.75 182.53 309.68 168.8 314.99 166.87 323.2 167.84 326.38 172.67 338.16 169.77 344.43 168.32 348.78 172.18 354.33 176.15 371 179.66 376.93 177.45 383.53 170.73 389.32 171.7 390.19 176.01 400.32 189.27 410.24 188.08 415.94 186.93 421.39 186.42 433.73 185.14 437.63 183.98 445.42 183.8 450.63 183.58 455.48 184.94 458.54 185.36 463.5 186.53 468.96 187.15 471.59 187.34 488.73 186.71 504.97 185.66 518.27 184.75 526.12 183.79 541.46 181.67 547.03 180.14 549.55 179.4 559.38 176.71 562.26 175.88 577.25 170.13 589.6 164 591.4 162.98 593.98 161.4 595 160.84 599.62 158.05 600.64 157.49 604.66 154.89 610.48 150.99 614.26 148.67 639.11 130.39 644.03 127.42 647.09 125.46 650.57 122.77 651.71 121.74 654.05 120.54 655.37 119.93 682.64 102.18 693.71 94.72 699.89 90.6 712.25 80.81 722.45 70.76 730.01 63.31 764.24 31.64 776.6 19.8 777.63 16.19 774.28 11.81 774.03 9.5 775.31 7.44 779.98 5.19 788.7 1 789.93 4.1 790.89 4.57 793.76 6.9 794 7.37 794.36 7.74 794.72 8.39 795.07 8.77 795.55 9.6 795.49 11.14 794.83 12.87 794.46 13.98 792.66 16.87 790.14 19.56 785.1 23.89 784.49 24.59 783.78 25.61 782.69 26.82 779.93 29.24 778.31 30.35 773.81 34.3 773.45 34.81 772.25 36.11 770.92 37.7 769.48 39.05 767.08 41.6 752.2 54.76 748.47 58.11 747.51 59.18 744.39 61.92 736.95 68.66 736.35 69.31 736.11 69.87 732.02 73.64 731.06 74.8 716.65 87.58 713.89 90.51 709.33 94.65 704.29 98.04 702.97 99.07 702.73 99.34 701.35 100.28 696.37 103.43 661.54 127.42 628.33 149.3 607.48 162.95 600.98 165.23 595.9 169.64 581.48 177.88 565.26 183.8 546.47 188.69 532.31 191.52 522.81 191.37 498.06 193.62 483.5 195.6 474.4 198.22 466.93 200.79 464.36 201.82 461.46 203.33 457.41 205.43 452.52 208.26 450.71 212.38 443.94 225.11 442.26 225.3 Z M 303.7 741.5 304.06 741.5 310.52 740.55 312.8 740.17 313.99 740.08 314.77 739.84 316.63 739.61 319.5 738.95 323.26 737.96 327.87 738 328.71 737.81 330.92 737.11 333.97 736.77 335.83 736.26 337.56 735.97 339.18 735.51 341.15 735.27 342.23 735.08 343.48 734.75 348.87 734.09 352.28 733.75 355.63 733.93 356.47 734.39 359.82 734.95 361.32 735.78 364.63 738.1 365.58 738.29 365.94 738.57 367.26 738.84 368.7 738.61 369.5 738.4 371.09 738.18 371.99 737.95 375.28 737.52 377.79 736.86 378.27 736.4 378.62 735.46 378.74 735.28 378.62 734.53 379.01 734.18 379.31 734.13 380.05 734.53 381.13 734.71 381.85 734.71 383.16 733.87 385.68 733.59 386.15 733.21 386.15 732.93 386.39 732.65 387.71 732 392.61 730.78 393.8 730.12 394.52 730.31 395 730.58 396.44 730.77 397.4 730.95 398.83 729.92 399.55 729.74 400.33 729.69 400.99 729.55 404.09 726.65 404.44 725.63 404.43 723.49 404.06 720.51 404.9 719.85 407.53 720.13 408.01 719.75 408.01 718.63 408.72 718.08 409.56 718.35 410.52 718.82 411.6 719.65 416.51 719.83 417.11 719.36 417.46 717.5 417.82 717.03 418.17 714.51 418.52 713.68 419.12 713.12 419.71 712.23 420.07 711.9 420.42 710.23 420.42 709.48 420.11 707.43 419.63 706.27 419.36 705.31 419.2 704.18 420.03 702.22 420.99 701.47 421.97 700.98 422.27 700.93 423.17 700.51 423.47 700.46 423.74 700.35 424.45 699.83 425.79 698.46 425.85 698.22 427.32 696.99 428.63 696.8 429.71 696 430.18 695.58 430.42 694.37 433.04 692.13 433.52 690.27 435.36 686.4 435.65 684.77 435.89 684.21 440.54 680.38 440.89 678.79 443.52 676.46 443.76 675.53 444.29 674.36 444.58 672.45 444.2 667.42 445.98 663.04 446.34 662.67 446.58 662.02 446.93 661.64 447.17 660.99 448.24 659.87 448.36 658.47 446.92 657.64 446.44 657.55 444.04 655.69 443.8 655.32 442.71 654.39 441.76 653.92 440.43 653.09 437.92 651.7 437.44 651.7 436.96 652.07 436.48 652.54 436.48 652.91 435.95 653.28 434.51 652.26 434.21 652.45 433.61 653.1 433.49 653.57 433.14 653.85 432.42 653.85 431.46 654.41 430.62 653.95 428.65 654.79 427.04 656.01 425.73 657.5 425.49 658.15 424.77 658.9 424.66 659.27 424.3 659.55 423.94 660.48 422.75 661.79 422.04 663.19 421.68 663.47 421.44 664.12 421.2 664.59 420.67 664.96 419.29 663.94 418.8 663.29 414.84 659.66 414.21 658.83 413.88 658.27 410.64 656.04 409.55 655.21 404.99 651.95 404.63 651.95 403.92 652.52 403.44 652.98 403.27 655.08 403.04 656.66 403.47 660.34 402.99 660.71 402.51 660.72 400.83 659.6 400.23 659.14 397.08 657.54 395.68 657.56 395.32 657.29 394.6 657.19 394.12 657.29 392.93 658.13 392.21 658.04 391.79 657.9 391.13 657.85 390.65 658.23 390.17 658.69 389.94 659.81 388.98 660.75 388.75 661.3 388.39 661.68 386.96 662.61 386.54 662.8 385.4 663.64 383.97 665.32 383.14 667.46 383.15 668.86 382.92 671.38 382.56 672.12 381.85 672.68 380.77 671.85 380.17 671.2 379.8 670.08 379.62 669.05 379.32 668.4 378.72 667.75 378.71 666.63 378.1 664.12 377.74 663.19 377.5 662.73 376.06 661.8 375.7 661.61 374.5 661.43 373.54 660.69 372.64 659.64 371.74 659.01 369.46 659.2 368.75 659.58 367.91 660.23 367.43 660.7 366.96 662.1 366.61 662.94 365.41 663.96 359.44 668.63 359.21 669.47 358.97 669.75 358.49 670.13 356.46 669.85 355.26 669.11 354.78 669.02 353.34 669.49 350.84 671.17 349.76 671.17 348.68 670.33 348.31 669.12 345.43 666.89 343.51 664.76 342.12 663.74 341.47 664.2 340.96 664.79 340.9 665.02 340.16 665.79 339.98 666.26 339.56 667 339.18 667.49 339.12 667.72 338.13 668.59 336.7 668.5 336.22 668.13 335.86 667.94 334.96 667.71 330.84 670.47 330 670.65 329.05 671.12 326.17 671.78 325.46 672.34 324.74 673.09 324.26 673.46 323.67 673.46 322.77 673.23 322.41 673.28 321.39 674.03 319.96 674.03 319.48 674.4 319 674.87 318.77 675.8 318.41 676.08 316.85 676.27 314.81 674.88 313.5 675.72 311.34 675.35 309.72 674.15 309.19 674.52 308.47 675.27 308.11 675.55 307.63 675.17 307.03 674.52 306.18 672.38 305.7 670.9 305.46 670.43 304.86 669.96 303.9 669.5 302.34 669.13 301.38 668.86 300.66 668.49 300.3 668.49 299.82 668.86 299.83 669.88 299.35 670.26 296.51 670.33 295.64 670.92 295.4 671.2 295.28 671.76 294.93 672.69 294.18 673.11 292.89 672.23 292.17 671.86 290.62 672.05 290.2 671.82 289.66 672.14 289.42 672.42 289.42 672.7 288.95 673.08 287.99 672.98 287.39 672.71 286.79 673.08 285.6 674.01 284.28 674.02 279.49 674.21 277.46 675.61 274.98 675.36 274.35 674.97 273.87 674.97 272.19 673.86 271.83 673.76 269.92 674.05 268.12 674.15 267.28 674.05 265.96 673.03 265.72 672.76 266.07 671.54 266.43 671.17 266.67 670.7 267.15 670.14 267.38 669.3 267.5 668.47 267.26 668 266.42 667.45 265.34 667.63 264.62 667.08 263.78 666.24 262.46 665.59 261.26 665.41 260.9 665.41 260.06 665.6 258.51 666.72 258.15 667.18 257.8 667.46 256.96 667.56 255.76 667.38 254.57 668.22 252.77 668.13 250.98 669.53 249.79 670.56 247.99 670.75 247.22 671.21 246.2 671.96 245.37 672.8 244.66 674.67 244.3 676.16 244.54 676.71 245.03 677.18 246.71 678.48 248.02 678.76 250.91 680.89 252.7 681.45 253.18 681.73 254.38 682 254.86 682.28 256.18 682.56 257.38 683.21 257.98 683.39 258.34 683.67 258.11 684.97 257.87 685.44 255.72 687.31 255.13 687.96 254.47 689.59 254.18 691.04 254.43 693.92 255.15 695.13 255.89 698.76 256.49 699.41 257.6 700.18 259.6 700.15 262 699.49 262.71 699.12 263.31 698.93 264.8 698.18 269.88 694.07 270.83 693.61 273.95 693.97 275.26 693.6 276.1 693.13 279.09 692.75 285.31 692.18 287.76 691.47 290.22 691.19 291.17 690.86 293.32 689.18 297.14 686.47 303.61 686.27 305.16 685.89 308.62 683.09 309.58 683.27 310.66 683.83 311.02 683.83 311.86 684.29 313.06 684.48 315.78 684.35 317 684.47 322.22 687.16 325.53 689.48 326.18 689.76 327.09 690.41 327.93 690.87 329.24 691.52 330.56 691.8 331.04 692.07 331.64 692.17 332.48 692.63 333.59 693.14 334.28 693.6 334.04 693.84 333.44 694.21 332.25 694.4 331.53 694.87 328.19 696.74 327.11 697.3 326.63 697.39 325.2 698.23 323.71 698.98 322.22 700.1 321.74 700.57 321.51 702.53 323.67 704.2 325.23 705.03 326.31 705.22 327.32 705.45 328.34 705.59 329.03 706.12 327.75 707.08 327.03 707.26 326.68 707.54 325.84 707.73 322.85 708.67 319.68 710.26 317.71 711.75 316.88 712.6 316.64 713.43 313.3 716.52 313.06 716.8 312.71 717.73 312.17 718.1 311.15 717.36 310.19 716.89 308.28 717.36 307.86 717.13 306 717.28 305.64 717 304.8 716.81 304.09 717 302.29 715.89 301.81 716.26 300.97 717.1 300.74 717.75 300.44 718.08 300.03 720.83 299.64 728.79 299.35 730.14 299.6 733.4 300.08 734.05 302.01 736.19 302.26 738.33 302.74 738.89 302.62 740.29 302.74 740.75 303.7 741.5 Z M 589.22 660.27 590.35 660.36 597 661.71 600.62 667.34 603.03 672.17 604.24 674.98 610.27 672.97 617.11 669.75 621.13 664.52 619.92 661.3 619.12 658.09 622.74 654.06 629.17 653.26 639.06 654.53 639.66 654.53 640.02 654.25 640.01 653.7 639.59 652.95 639.29 652.58 639.17 652.25 638.81 651.93 638.69 651.27 639.04 649.79 639.4 648.85 639.4 648.48 639.63 647.36 639.44 644.71 639.26 643.73 639.05 643.19 638.9 642.61 636.98 641.13 637.15 640.8 637.21 640.47 636.73 640.06 637.09 639.73 637.09 639.45 636.85 638.89 636.96 637.77 636.36 636 635.87 634.89 633.71 633.22 633.83 632.84 634.07 632.38 635.74 630.98 635.98 630.14 635.97 629.49 635.73 627.06 635.13 626.51 634.76 625.76 634.4 624.37 634.04 623.53 633.2 622.6 632.83 621.9 632.35 621.44 628.87 618.79 628.51 618.32 626.59 616.65 626.35 616 626.22 615.16 625.62 614.51 625.38 613.95 625.14 612.65 621.63 610.28 621.06 609.96 619.14 610.15 617.89 610.8 616.27 612.01 613.77 614.16 613.29 615.65 613.78 617.05 614.26 617.51 614.5 618.35 615.77 620.21 617.03 622.82 617.76 623.93 617.65 627.19 614.9 629.53 613.47 630.93 613.11 631.21 612.52 631.3 610.07 632.61 609.65 632.89 608.93 632.89 606.53 632.25 605.69 632.16 603.06 632.53 601.99 632.82 601.03 633 598.99 631.84 597.43 631.15 596.77 631.1 593.96 631.53 593.12 631.06 592.64 630.97 592.22 631.11 590.37 631.35 589.41 630.61 589.04 628.84 588.32 628.09 588.2 627.44 588.43 626.51 589.03 625.95 589.83 624.06 590.21 622.31 592.23 617.75 593.18 615.97 593.54 615.6 593.9 614.86 594.14 614.48 593.89 613.55 593.56 612.64 593.41 611.88 592.56 610.95 592.23 609.39 591.24 608.53 590.52 608.16 587.76 607.7 586.57 607.7 585.85 607.89 585.01 608.35 584.12 608.45 582.37 607.15 579.49 604.83 577.57 603.71 576.73 603.53 576.02 603.16 572.78 602.98 571.47 603.35 571.11 603.63 570.27 603.82 569.73 604.1 568.72 604.85 568.12 605.64 567.88 605.88 567.28 606.15 566.45 606.81 565.85 607.56 565.43 607.74 565.02 608.02 563.94 608.03 563.58 607.75 562.86 607.47 562.26 607.84 561.91 608.31 561.07 608.96 558.68 610.46 556.53 610.44 555.81 610.93 555.69 611.49 553.66 612.8 552.82 613.54 552.71 614.38 552.83 615.13 553.43 615.78 553.44 616.52 553.2 618.2 552.72 618.57 552.25 619.13 552.01 619.97 552.02 620.81 552.26 621.28 552.86 621.83 554.66 623.88 555.14 624.72 555.99 626.48 556.71 627.41 557.08 629.28 557.44 629.93 559.84 631.79 560.92 631.97 561.46 632.25 562.36 632.9 562.6 634.29 562.12 634.67 560.09 634.39 559.01 634.3 557.69 634.68 556.98 635.05 555.78 635.99 554.95 636.82 554.71 637.48 553.94 638.41 553.4 639.16 553.28 639.53 554.12 640.55 552.57 641.77 553.05 642.23 553.05 642.51 552.69 642.79 551.74 642.89 550.78 643.63 550.79 644.75 551.03 645.22 551.23 651.88 551.39 653.2 551.78 654.25 552.5 655.64 553.71 657.13 554.07 657.97 554.08 660.11 553.19 662.4 552.84 663.89 552.78 664.96 553.03 666.82 553.75 668.5 554.71 669.89 555.8 671.19 557.12 672.59 559.4 674.72 560.48 675.61 567.33 680.95 567.69 681.13 568.28 681.04 569.24 680.38 569.6 679.92 569.83 678.99 569.82 676.85 570.06 674.98 570.53 674.51 571.85 673.49 572.35 673.28 574.36 673.48 575.44 673.85 575.92 674.13 576.52 674.22 577 674.5 578.08 674.69 578.62 674.82 581.31 675.05 581.91 674.86 583.1 673.74 583.58 672.44 583.87 670.9 583.56 669.55 582.96 668.72 582.54 667.64 582.04 662.75 582.28 662.34 582.66 660.91 583.17 660.33 583.77 659.86 584.36 659.49 586.4 659.67 588.14 660.09 589.22 660.27 Z M 264.06 587.91 264.3 588.38 265.02 588.93 265.38 588.93 265.86 589.21 266.94 589.58 268.86 590.04 271.5 590.6 272.81 590.69 274.55 590.91 275.87 591.01 279.8 591.91 280 592.07 282.64 592.71 282.84 592.7 284.42 593.28 286.22 594.4 287.92 595.22 289.96 597.17 290.32 597.82 292.01 599.77 293.57 602 293.93 602.65 294.29 603.03 294.78 603.86 296.46 606 297.66 607.12 300.18 609.07 300.9 609.06 301.74 609.71 304.2 611.29 306.78 612.68 307.51 613.15 308.1 613.24 308.94 613.7 309.42 613.79 309.78 614.07 310.5 614.16 310.92 614.44 311.82 614.91 313.28 615.51 314.58 616 317.36 616.9 319.51 617.26 321.19 617.45 321.53 617.31 317.57 616.38 317.11 616.24 315.78 615.83 314.48 615.41 313.26 614.72 312.66 614.44 309.24 613.28 305.76 611.8 300.9 608.32 299.58 606.92 300.05 606.64 301.01 606.83 301.37 606.55 301.49 605.99 302.44 605.06 302.17 604.64 301.62 604.89 301.15 605.07 300.19 605.36 299 606.04 298.15 605.48 298.97 604.88 299.93 604.69 300.29 604.41 300.55 604.27 300.64 604.13 302.91 602.35 303.51 602.35 304.47 602.16 308.65 599.36 312.58 595.9 313.41 593.76 318.54 587.79 318.29 586.39 318.11 585.97 318.17 585.46 318.65 584.9 319 584.62 319.24 584.06 319.36 583.32 317.68 582.02 317.08 581.37 316.92 580.53 317.43 580.06 318.63 580.34 319.35 580.43 319.77 580.57 320.31 580.61 320.78 580.15 321.13 578 321.85 577.54 324.97 579.58 326.29 579.67 328.44 579.48 331.31 578.68 333.17 578.02 337.18 578.15 337.9 578.52 338.38 578.9 338.62 579.73 338.98 580.01 339.35 581.32 339.84 584.3 340.44 584.85 340.8 585.27 341.88 586.15 344.27 586.43 346.01 586.84 346.43 586.89 347.15 586.33 346.9 583.26 346.17 581.49 345.81 581.07 344.25 579.53 343.89 578.7 343.52 577.21 343.75 575.25 344.17 574.55 344.34 573.67 344.09 570.97 341.93 568.46 341.45 567.57 341.09 567.25 340.72 566.13 340.15 565.04 334.23 560.14 332.19 558.33 331.95 557.77 332.18 556.37 333.46 553.78 334.09 553.2 335.28 552.45 336.66 551.8 338.15 550.72 339.46 549.56 339.58 549.28 339.33 547.23 338.91 546.74 337.89 545.83 335.94 544.67 335.49 544.44 334.65 544.26 332.37 542.49 330.93 541.19 330.8 540.91 329.84 539.8 329.33 538.31 331.03 536.91 332.64 536.16 335.33 533.92 335.33 533.45 335.08 531.03 334.59 530.01 333.51 529.27 330.39 526.85 329.79 526.2 328.94 522.48 328.21 520.71 327.73 520.34 325.99 519.32 324.97 518.57 325.41 517.06 325.73 513.96 325.33 510.59 324.7 509.91 324.45 509.17 322.77 508.15 322.29 508.06 316.78 506.58 316.36 506.35 315.64 506.25 312.35 506.4 308.22 507.48 304.93 508 304.21 508.19 303.38 508.75 300.75 510.81 299.08 512.39 298.48 512.77 296.93 513.14 293.71 515.29 293.29 515.48 290.3 517.44 286.42 520.06 284.63 521.46 283.79 522.3 283.44 523.23 282.84 523.89 282.25 525.47 282.02 526.49 281.7 529.27 280.12 530.97 280 531.34 279.53 532.37 278.21 533.58 278.09 533.96 277.38 534.79 273.07 535.18 272.47 535.36 271.64 535.92 270.32 536.95 269.85 538.26 269.5 541.33 269.03 541.71 266.39 542.09 262.8 542.37 260.89 542.94 259.9 543.52 259.6 543.57 258.5 544.15 256.7 544.53 256.29 544.67 254.07 545 253.47 545.37 252.34 545.61 249.29 545.48 248.86 545.24 247.91 545.15 243.12 545.26 240.45 545.57 239.47 546.15 238.51 546.9 237.56 548.11 237.32 548.76 237.1 551.37 237.33 551.65 239.02 552.95 241.29 553.51 243.03 554.01 249.02 554.74 254.23 554.5 260.69 552.81 261.17 552.53 262 552.34 262.48 552.06 263.32 551.87 263.8 551.59 264.4 551.5 264.87 551.21 265.47 551.12 265.95 550.84 266.55 550.75 267.14 550.37 269.18 550.09 272.05 549.34 272.53 549.06 273.36 548.87 273.84 548.59 275.28 548.21 276.17 547.88 284.85 547.63 285.57 547.81 286.77 548.46 287.74 549.49 288.58 550.88 288.94 551.25 290.02 552.6 292.18 554.64 293.39 555.71 293.99 556.18 296.86 556.27 298.42 555.98 299.55 555.42 302.6 553.36 304.21 552.34 306.06 550.93 310.36 547.48 311.91 547.76 312.51 547.94 313.59 548.68 314.02 549.15 314.44 549.75 314.68 549.98 314.68 550.26 316.9 552.73 317.15 554.77 316.8 556.27 316.5 557.99 316.8 558.31 317.11 559.94 317.59 560.41 317.39 562.06 315.58 566.65 316.06 567.12 316.06 567.68 315.94 568.14 316.31 568.42 316.31 569.45 317.15 570.1 318.95 570.28 319.61 570.7 319.67 571.02 318.24 572.24 316.8 573.17 315.43 573.92 312.5 575.79 310.83 576.16 302.09 576.37 301.25 577.02 300.78 577.49 300.75 578.03 301.62 579.12 301.98 579.44 302.11 580.47 301.63 582.33 299.25 584.29 299.14 585.88 298.54 586.34 294.71 586.91 292.08 587.57 291.48 587.76 290.05 588.88 289.69 590.55 290.42 591.3 290.78 591.58 290.54 593.25 290.37 593.67 290.19 594.93 289.83 595.21 289.35 595.12 288.51 594.66 286.69 593.56 284.89 592.63 283.47 592.06 282.75 591.69 280.48 591.04 275.57 590.12 272.33 589.66 271.48 589.62 269.21 589.11 266.94 588.56 266.1 588.19 265.62 588.09 265 587.83 264.04 587.34 262.72 586.41 259.95 583.99 257.67 581.3 257.09 581.04 258.78 582.99 259.56 584.1 261.06 585.5 264.06 587.91 Z M 169.89 484.01 172.52 483.68 176.23 482.5 177.06 482.04 179.93 480.68 182.44 479.6 183.04 479.51 184.12 478.95 189.26 477.63 189.86 477.35 190.34 477.25 190.93 477.07 192.25 475.85 192.96 475.29 194.75 474.36 195.11 474.36 196.07 473.7 197.62 472.95 198.82 472.48 202.05 471.92 202.89 471.45 204.8 470.61 205.51 470.51 206.65 470.18 212.58 469.84 212.94 469.56 214.01 469.28 215.69 469 216.28 468.72 216.76 468.62 217.36 468.34 217.96 468.15 219.27 467.55 221.25 467.08 223.58 466.75 229.69 467.01 232.8 467 235.44 466.81 236.63 466.34 237.59 466.43 238.43 466.94 239.51 467.45 240.11 467.08 240.22 466.05 240.21 462.79 241.28 462.05 242.36 461.86 242.72 461.58 243.07 460.09 244.39 459.06 244.74 457.85 245.1 457.43 245.69 456.91 246.17 457.01 246.83 457.28 249.18 459.05 249.6 459.23 250.25 458.77 250.49 457.46 251.2 456.9 252.16 457.18 253.24 458.29 253.66 458.57 254.08 458.2 254.25 455.68 253.95 455.03 253.59 454.66 253.23 453.82 251.89 449.73 249.01 447.31 248.65 446.85 247.69 446.11 246.73 445.64 244.68 443.97 243.6 443.41 243.19 443.32 241.8 442.3 241.2 441.65 240.84 440.07 240.71 438.21 241.07 437.46 241.42 437.09 241.54 436.62 241.29 434.01 240.75 433.64 239.86 434.3 239.62 434.95 239.14 435.69 238.9 436.25 238.07 437.09 236.76 438.59 235.81 439.8 235.57 440.36 232.71 443.63 232.59 444 231.64 445.12 231.34 445.91 231.16 446.7 230.45 448.47 229.38 450.9 228.01 452.02 226.28 453.14 224.19 454.17 223.89 454.36 223.53 454.36 222.34 455.01 221.26 455.2 220.54 455.67 219.71 455.86 218.99 456.23 216.84 456.7 207.74 456.72 206.53 455.7 206.04 452.54 204.84 451.79 203.04 451.43 199.21 451.06 194.36 451.31 192.27 451.64 190.59 452.11 190.23 452.29 189.88 452.58 189.04 452.76 187.13 453.79 186.17 453.98 185.09 454.54 184.26 454.73 183.3 455.29 182.94 455.29 182.23 455.76 174.28 459.69 173.5 460.25 173.03 460.72 172.32 463.7 171.65 468.61 171.15 471.15 170.21 473.95 169.37 475.91 166.03 478.52 165.56 478.99 165.38 480.25 165.57 481.32 166.29 482.06 168.45 483.73 169.89 484.01 Z M 230.08 653 230.44 653 231.4 652.25 231.51 651.78 232.59 650.62 235.45 648.33 235.81 648.14 238.8 647.86 240.47 647.39 244.17 644.4 245.61 643.74 247.04 643.46 251.59 642.98 252.07 642.56 251.83 642.33 251.11 641.96 249.07 642.25 247.87 641.32 248.47 640.85 250.39 640.66 252.66 640.65 254.22 640.46 254.81 639.9 254.81 639.25 254.56 637.76 254.2 637.39 254.08 637.06 255.63 635.71 255.99 634.13 257.18 633.1 258.14 633.28 260.54 634.58 261.14 634.67 261.73 634.67 262.21 634.3 261.06 631.37 261.6 630.85 262.32 631.04 262.62 631.22 265.32 633.27 267.71 632.89 268.31 633.07 268.61 633.26 269.51 633.91 269.76 635.12 269.76 635.86 271.44 637.35 271.69 638.19 272.65 638.77 273.48 638.18 273.6 637.16 273.23 635.02 271.67 633.62 271.43 633.16 270.89 632.6 271.9 631.39 272.13 629.71 272.49 629.43 272.85 629.24 273.27 629.38 273.81 629.43 274.28 629.06 273.68 627.66 273.38 627.17 275.58 625.14 275.94 624.21 276.06 623.56 274.73 621.98 274.49 621.14 274.97 620.76 275.69 620.76 276.53 620.67 278.91 618.99 279.75 618.8 283.22 618.51 284.06 618.23 284.69 617.9 285.85 617.11 285.96 616.27 286.74 615.61 287.76 616.36 287.76 616.64 287.88 616.92 289.08 617.85 291.12 617.56 292.25 617.23 293.63 617.93 294.95 617.65 295.43 617.36 295.91 617.27 307.88 618.18 305.61 617.43 297.69 612.89 294.44 610.38 292.16 608.43 290.96 606.94 290.35 605.92 289.99 605.55 289.63 604.71 289.27 604.34 289.03 603.87 288.43 603.22 287.71 602.02 287.34 601.64 287.1 601.08 286.74 600.81 285.84 599.76 284.1 598.3 282.54 597.28 281.82 597.09 280.86 596.54 277.26 595.8 274.09 595.01 267.32 594.14 266.6 594.8 267.44 595.54 268.37 595.7 269.48 596.28 269.84 596.56 272.72 597.11 274.52 597.57 275.24 598.04 276.08 598.32 276.44 598.59 276.56 599.15 276.92 599.52 277.04 599.9 279.81 603.06 280.17 604.83 279.46 605.39 278.62 605.48 276.11 605.39 274.43 606.61 272.28 608.38 271.87 608.57 271.45 608.85 270.37 608.95 269.41 608.76 268.57 608.76 266.9 609.14 266.06 609.61 265.23 609.8 263.55 610.73 262.72 611.39 262.24 611.95 262.12 612.32 263.09 613.43 263.09 614.92 262.97 615.2 262.5 615.58 260.7 615.86 259.15 616.7 256.87 616.99 256.52 617.27 255.14 617.36 253.64 616.25 253.04 615.6 252.55 614.11 251.35 613.37 249.2 613.09 247.28 611.61 247.03 611.33 246.91 610.82 246.55 610.49 246.07 610.4 245.03 610.66 244.04 610.59 243.08 610.03 242.12 610.78 241.17 611.81 240.21 612.74 239.02 613.67 238.66 613.86 237.47 614.14 237.11 614.33 236.27 614.98 238.32 616.56 240.71 617.58 242.33 618.32 242.63 618.51 243.23 618.6 244.07 619.07 244.55 619.16 245.27 619.62 245.75 619.71 246.47 620.18 247.31 620.36 247.79 620.64 248.15 620.64 248.99 621.15 250.13 621.66 250.67 622.03 251.27 622.31 251.87 622.77 252.71 623.61 252.71 623.89 253.19 624.35 253.56 627.15 255.48 628.63 256.8 629.47 257.29 629.84 257.29 630.21 256.57 630.77 252.14 630.6 251.72 630.74 246.4 631.26 244.01 632.48 242.81 632.67 237.9 632.3 236.82 632.59 236.29 632.87 235.39 633.52 234.2 634.73 232.86 637.81 233.14 639.11 233.44 639.81 233.5 640.14 231.71 641.91 231.36 642.94 231.01 644.43 230.35 645.59 229.88 648.25 228.87 650.02 228.52 650.3 228.07 652.05 229 652.91 230.08 653 Z M 205.31 744.42 207.95 744.23 208.54 743.85 210.22 743.48 211.47 742.64 212.72 741.61 213.02 740.91 212.83 738.91 212.65 738.58 212.59 738.26 211.63 737.33 211.39 737.05 211.27 736.77 211.5 735.84 211.86 735.37 211.86 734.9 211.02 734.26 210.77 732.11 210.29 731.74 209.57 731.37 208.85 731.28 207.89 730.54 207.88 729.42 207.04 728.72 202.84 725.61 202.24 725.33 200.92 724.31 200.68 723.2 200.2 722.82 199.24 722.36 198.64 721.9 198.63 721.62 198.99 720.5 198.62 717.61 198.01 715.94 197.05 715.19 194.41 713.8 192.02 713.34 190.91 712.81 190.22 712.6 189.74 712.33 188.3 712.05 186.14 710.38 185.9 709.45 184.94 708.8 184.22 708.98 181.82 708.76 180.86 708.43 179.78 707.78 176.84 706.3 174.14 704.72 173.07 704.54 172.11 704.54 171.15 704.82 169.3 705.85 168.88 706.13 167.57 706.41 166.61 706.42 164 706.07 160.38 705.22 159.18 704.48 158.34 704.29 157.98 704.11 156.96 703.97 155.82 704.21 154.75 704.77 153.68 705.61 153.2 706.07 153.08 707.01 153.33 707.57 154.05 708.4 157.05 710.72 157.65 710.86 160.29 711.74 164.96 713.03 166.16 713.59 167 714.24 167 715.17 166.65 715.45 166.41 716.2 166.3 718.34 168.7 720.29 169.18 720.38 169.66 720.66 172.77 721.21 178.52 721.76 179.24 722.13 180.44 722.4 180.92 722.68 181.52 722.77 182.36 723.28 183.74 723.89 188.6 727.6 188.84 728.25 189.39 729 189.99 730.25 190.05 731.14 189.94 731.6 188.51 733 188.27 733.56 188.1 735.52 188.52 736.26 191.76 738.86 192.96 739.05 193.92 739.6 198.48 743.13 198.84 743.32 201.24 743.5 201.96 743.87 203.28 744.15 205.31 744.42 Z M 428.67 799.06 437.58 798.07 442.73 798.24 443.51 798.19 444.35 798.01 445.78 796.98 448.88 794.08 449.12 793.8 449.35 793.06 449.83 792.59 449.83 792.31 450.31 791.85 450.9 790.45 451.26 790.07 451.25 789.42 450.89 787.65 448.84 783 448.48 782.44 447.87 781.79 447.51 781.14 445.71 779.47 444.03 778.17 443.19 777.7 441.63 776.96 437.56 777.53 437.02 777.67 436.01 777.81 435.47 777.95 432.9 778.38 431.88 778.61 429.31 779.04 428.77 779.18 418.36 780.5 401.07 782.82 400.24 783.48 400.48 784.13 401.32 785.06 401.45 786.27 401.33 788.78 401.94 789.99 402.6 790.74 404.1 792.64 406.74 794.73 407.94 794.92 413.81 795.27 415.85 795.83 416.81 796.29 417.41 796.76 417.77 796.94 418.61 797.13 419.68 797.68 422.68 798.14 427.71 798.78 428.67 799.06 Z M 141.6 377.21 144.89 378.63 147.59 380.3 151 378.24 152.67 376.57 152.74 379.4 153.45 382.49 153.19 384.12 152.8 386.42 153.7 387.9 156.92 389.06 158.79 388.61 159.86 387.39 159.82 384.81 159.81 384.25 158.79 382.36 159.62 379.98 159.92 378.26 159.19 373.44 158.89 371.53 158.16 369.95 157.8 369.67 157.68 369.11 156.77 367.93 155.05 365.56 152.91 364.21 151.83 363.94 149.67 363.66 146.99 363.34 144.95 363.44 143.51 362.32 142.43 361.3 140.62 359.24 139.48 358.42 138.82 358.38 138.05 358.52 137.33 358.99 136.13 359.64 133.98 359.65 131.9 360.98 131.3 361.35 130.71 361.82 130.11 362.47 130 364.06 130.24 364.99 132.16 366.47 133 366.84 136 367.58 136.54 367.86 138.4 369.25 138.52 369.62 138.88 370 139.25 370.74 139.73 371.3 139.97 372.51 139.63 375.86 140.77 377.41 141.6 377.21 Z M 555.46 550.57 555.88 550.48 556.42 550.11 557.37 549.27 556.76 545.08 556.51 542.75 556.03 541.63 554.35 540.52 553.51 540.33 550.03 538.01 549.19 537.64 547.87 537.64 547.16 538.21 547.37 539.11 547.88 539.69 547.53 543.7 547.78 544.91 548.38 545.75 549.22 546.72 553.31 549.93 553.67 550.11 555.46 550.57 Z M 131.18 390.34 130.02 389.38 129.7 388.22 124.94 382.75 123.92 382.8 121.61 383.99 121.46 386.16 122.3 389.51 124.72 390.52 126.64 392.47 126.89 393.77 127.85 394.52 131.56 394.32 131.95 391.44 131.18 390.34 Z M 579.48 698.71 580.32 698.71 581.28 698.52 581.87 698.06 581.87 697.31 581.63 696.1 581.15 695.64 580.55 695.17 578.48 693.92 576.59 692.57 576.35 692.2 576.1 691.55 572.38 688.48 572.02 687.74 571.66 687.46 569.98 686.44 569.38 686.16 568.9 686.16 568.07 686.91 568.55 687.84 569.15 688.4 569.15 688.77 569.27 689.05 569.63 689.33 569.87 690.07 572.76 692.86 573.36 693.51 574.44 694.81 574.56 695.18 575.16 695.74 575.4 696.07 578.52 698.53 579 698.53 579.48 698.71 Z M 565.82 567.6 566.3 567.6 566.78 567.22 566.54 566.38 563.54 564.25 562.7 564.07 562.22 564.44 561.98 564.72 562.1 565.04 564.87 567.23 565.22 567.41 565.82 567.6 Z" fill-rule="evenodd"/>
</g>
</svg>