<?xml version="1.0"?>
<svg xmlns="http://www.w3.org/2000/svg" version="1.2" baseProfile="tiny" width="800" height="724" viewBox="0 0 800 724" stroke-linecap="round" stroke-linejoin="round">
<g id="perrisreservoir">
<path d="M 745.55 19.32 751.65 22.37 763.11 22.37 777.62 19.32 768.45 34.58 768.78 37.22 769.98 46.79 755.47 66.64 756.24 78.08 743.25 100.22 737.15 122.35 727.98 152.88 725.69 165.85 740.2 196.38 759.29 216.23 760.95 219.08 767.31 212.72 769.85 205.08 770.19 199.01 777.62 190.28 776.85 215.46 773.04 223.09 792.89 236.07 799 242.94 795.18 260.49 788.31 272.7 795.95 283.39 780.67 289.49 773.04 292.85 764.59 303.5 758.4 311.3 743.76 325.93 732.31 337.37 732.31 350.09 729.76 363.45 722.68 374.65 703.55 403.98 682.93 429.93 662.31 463.51 651.62 470.38 631.13 474.12 617.13 477.93 590.4 490.02 579.58 506.55 566.22 538.35 551.58 573.97 548.4 586.69 550.95 611.49 551.58 622.31 549.04 626.76 543.31 632.48 540.13 643.93 532.49 659.2 525.62 671.1 507.29 677.21 484.38 685.6 474.7 688.83 463.76 692.47 459.66 696.58 456.13 700.1 445.15 705.32 433.22 710.03 416.42 720.71 409.55 717.66 401.91 723 393.51 720.71 386.34 715.05 382.3 711.72 366.11 698.44 320.14 661.66 251.26 606.55 216.74 578.16 175.5 544.73 127.24 506.42 98.53 483.37 83.41 467.34 77.3 459.25 75.16 454.67 69.1 440.77 46.05 384.13 42.04 374.33 29.34 342.78 1 270.41 22.38 266.6 42.24 268.12 52.16 271.18 66.67 273.47 76.6 279.57 77.4 275.98 78.13 272.7 81.95 266.6 96.45 262.02 102.85 259.89 105.62 258.97 118.6 248.28 133.87 244.46 143.04 243.7 159.07 236.83 173.58 230.73 183.51 223.86 209.47 221.57 228.56 209.36 242.31 201.72 255.29 200.96 272.47 201.53 285.59 203.53 288.83 203.18 295.76 200.2 301.11 190.28 300.11 184.77 298.76 183.24 294.61 178.53 290.95 174.39 288.63 169.75 286.67 165.84 287.28 156.38 288.89 149.06 295.59 143.32 305.1 140.57 318.67 142.19 328.03 149.92 341.57 172.14 345.09 176.26 351.58 181.55 354.68 183.08 360.04 183.9 364.01 183.77 375.18 183.41 384.35 175.01 380.53 165.85 373.65 162.8 368.31 160.51 362.2 152.12 360.67 145.25 362.2 141.43 375.95 131.51 395.04 123.88 417.95 120.82 433.51 136.41 436.76 139.58 442.4 141.94 447.05 142.52 452.97 141.35 464.53 142.96 472.93 144.48 487.44 131.51 497.36 118.53 506.53 113.96 520.27 101.74 544.71 97.93 571.44 107.85 593.58 114.72 603.51 113.96 610.38 108.61 614.2 87.24 608.85 73.5 604.27 61.29 609.62 49.08 624.13 39.92 628.04 40.07 644.75 40.69 672.24 40.69 692.09 36.11 711.95 20.08 730.27 5.58 743.25 1 750.89 4.82 747.84 14.74 745.55 19.32 Z M 604.4 177.73 570.67 195.54 552.22 206.36 543.95 221.62 532.49 252.15 536.31 256.6 545.85 261.05 547.76 271.86 549.67 287.13 559.85 296.67 568.13 303.03 576.4 311.93 593.58 315.11 610.76 313.84 642.58 317.02 659.13 313.21 673.76 305.57 679.04 300.75 688.4 289.04 690.8 285.33 696.22 276.4 698.58 272.5 711.95 258.51 712.58 250.88 724.04 240.7 732.31 234.98 732.31 223.53 726.58 212.08 717.04 193 705.58 184.09 687.76 173.28 668.67 166.29 652.76 165.65 638.13 166.29 621.58 168.83 604.4 177.73 Z" fill-rule="evenodd"/>
</g>
</svg>