<?xml version="1.0"?>
<svg xmlns="http://www.w3.org/2000/svg" version="1.2" baseProfile="tiny" width="800" height="945" viewBox="0 0 800 945" stroke-linecap="round" stroke-linejoin="round">
<g id="lakemendocino">
<path d="M 726.67 76.5 720.39 79.14 714.9 80.56 702.87 82.18 700 83 684.57 85.64 676.46 87.46 669.93 91.12 668.1 91.53 667.57 91.93 662.08 93.05 661.56 93.46 657.38 93.86 651.1 95.49 645.61 98.13 635.93 99.96 635.15 100.56 631.75 100.97 631.23 101.38 618.15 104.22 615.8 105.24 610.83 106.66 608.74 107.68 603.25 111.54 601.68 113.98 601.15 116.22 601.68 119.47 603.24 122.11 601.4 135.03 601.66 147.84 600.61 151.7 597.47 154.96 590.67 160.24 587.8 164.1 585.18 165.73 584.4 165.73 580.47 167.66 576.29 170.1 569.37 173.28 565.98 174.29 562.41 175.57 558.11 175.9 554.7 175.9 554.4 175.85 551.96 175.47 548.09 174.36 541.04 174.36 538.18 174.47 535.54 171.82 533.12 171.16 531.58 169.95 531.47 168.85 531.91 167.2 529.82 166.76 527.61 166.87 524.97 166.87 519.91 165.99 515.06 164.89 507.69 162.35 503.95 160.92 500.42 159.82 496.79 158.61 494.04 158.06 490.96 156.96 488.42 155.97 484.79 155.2 481.05 154.43 476.53 153.43 475.65 152.33 474 151.78 470.92 151.34 468.61 150.9 466.08 150.68 464.98 150.68 465.42 151.67 466.85 152.11 468.45 153.03 469.99 153.67 470.94 153.93 471.27 154.44 469.33 154.21 467.31 153.67 461.55 151.8 456.74 150.18 451.35 148.26 440.24 143.57 431.28 140.79 417.67 137.93 407.15 135.55 400.68 134.18 394.29 133.34 387.07 132.82 381.57 133.21 376.99 134.97 368.53 137.44 363.25 138.41 358.45 138.89 354.44 139.38 351.09 139.16 348.54 139.25 346.91 139.64 341.1 140.44 337.79 140.74 335.28 140.88 333.92 140.88 333.26 140.74 332.91 140.22 331.23 140.35 327.53 140.88 322.34 142.42 315.51 144.62 310.93 146.29 308.91 147.13 307.85 148.06 308.47 148.81 310.32 148.1 312.17 147.31 313.93 147.57 314.9 148.89 313.93 149.91 311.99 150.57 308.25 151.27 306.09 151.62 303.84 152.42 302.21 153.08 300.89 153.56 300.81 154.53 303.01 156.03 304.06 157.61 304.42 158.28 304.95 159.51 307.37 160.43 309.96 161.45 311.24 162.86 311.15 166.07 313.09 171.09 316.22 176.29 319.3 181.14 323.3 193.54 323.96 198.49 323.08 202.02 320.88 206.75 319.89 209.17 318.51 213.66 317.87 214.89 316.34 216.97 315.66 217.53 313.02 218.41 312.14 219.63 310.93 221.39 310.33 222.67 310.16 223.04 309.39 225.35 306.97 227.55 301.68 230.64 297.17 231.96 292.11 233.39 289.13 233.72 286.85 233.6 284.84 233.5 282.86 233.72 276.14 236.69 270.42 239.67 268.22 242.75 267.45 244.95 267.01 247.05 266.46 248.7 266.46 251.45 267.01 254.64 268.22 258.83 270.09 262.79 270.75 264.77 270.97 266.87 271.08 269.62 271.19 272.81 272.07 275.02 273.17 277 273.94 277.88 275.37 277.66 276.91 277 279.56 276.23 282.75 275.24 288.47 272.7 295.19 270.06 298.82 268.74 302.45 268.08 307.85 268.19 317.65 268.52 321.83 268.41 329.42 269.62 341.42 272.81 350.67 274.8 363.66 276.67 369.94 277.99 376.43 280.3 382.71 283.72 388.43 288.01 392.17 291.09 393.94 293.3 394.49 295.28 394.82 297.81 395.48 299.68 397.9 302.11 399.66 304.53 401.31 307.94 401.53 312.35 401.53 315.21 399.66 318.29 397.68 320.39 395.04 321.38 392.83 322.48 391.51 326 391.51 327.98 391.18 333.05 391.49 334.84 392.06 338.12 393.49 341.42 394.49 343.73 395.26 344.83 398.34 345.05 399.55 345.49 399.44 346.15 398.34 347.48 398.34 349.24 399.22 350.89 401.09 351.55 403.07 351.11 404.94 351 406.6 353.86 406.82 355.18 407.1 356.69 405.9 359.5 402.85 362.27 398.45 363.38 394.59 365.14 393.82 368.11 394.92 372.41 395.47 375.6 397.01 377.25 399.66 378.57 399.88 382.54 397.46 384.74 394.48 387.27 391.73 390.58 391.29 394.21 392.06 397.07 393.93 398.72 396.9 399.94 398.12 400.71 395.36 403.35 394.83 405.73 394.48 407.31 397.23 409.41 400.76 413.15 411 426.81 414.3 431.1 417.16 432.42 420.13 434.07 422.55 436.72 424.98 439.69 428.39 442.11 430.15 445.75 431.14 449.49 431.14 452.79 432.02 458.74 432.68 462.81 434.33 466.12 436.98 468.87 438.4 470.27 439.64 472.18 440.31 474.12 440.48 476.34 440.55 477.32 440.65 478.97 439.13 482.67 437.14 485.31 436.48 485.97 437.62 488.89 438.47 491.04 437.8 500.51 437.15 502.6 435.16 508.88 432.08 514.17 429.89 517.02 427.67 518.03 420.41 520.55 417.99 521.87 416.67 523.19 415.46 524.41 414.69 525.51 413.7 527.71 413.15 530.35 413.15 532 413.7 533.88 414.36 535.31 416.34 539.27 416.45 541.59 416.78 543.46 416.23 545.77 414.69 551.17 412.15 556.56 407.09 565.48 405.55 566.91 404.12 568.23 403.57 570.11 402.58 573.08 400.49 578.26 397.95 581.89 396.63 583.76 394.81 585 393.4 586.03 391.99 586.69 388.83 588.09 387.39 588.47 385.74 589.02 383.21 590.12 381.77 590.89 380.23 592.76 380.12 593.64 380.34 595.07 381 596.5 381.88 598.27 382.43 600.14 382.21 601.35 381.44 602.23 379.57 602.01 377.81 601.79 376.38 600.58 373.41 598.6 371.43 597.72 369.33 596.39 367.9 596.06 366.03 595.73 364.6 595.62 361.52 596.5 358.77 597.72 353.02 598.35 350.77 598.75 341.87 598.04 337.21 597.69 334.12 596.9 330.87 595.57 327.96 593.81 325.49 591.08 322.94 589.06 320.03 587.91 313.34 587.65 305.33 586.94 293.61 586.41 282.39 585.86 279.35 585.71 267.37 584.83 266.17 584.73 250.65 583.52 247.62 583.43 244.48 584.8 238 586.91 234.57 589.55 230.87 590.61 226.38 592.59 218.06 594.31 213.3 594.44 207.09 596.95 204.45 596.82 200.62 596.56 197.05 596.16 193.22 596.16 191.11 595.5 187.94 594.44 186.75 594.44 185.82 594.58 184.37 595.5 184.5 596.56 185.43 598.28 187.28 599.99 189.79 602.9 188.73 606.2 187.14 607.53 184.37 611.89 182.39 613.74 180.01 615.72 178.03 619.42 178.29 620.74 179.22 623.78 180.28 626.03 182.26 629.59 183.71 632.9 187.28 636.2 190.31 636.73 195.2 637.92 202.6 639.64 212.11 641.36 218.85 642.81 223.47 643.73 230.21 642.54 233.25 642.28 234.31 640.56 234.31 638.98 233.78 636.2 235.1 635.14 238.53 635.41 239.72 636.86 247.45 641.49 250.09 642.15 253 641.95 256.17 641.55 258.81 641.62 262.25 642.35 265.35 644.06 267.93 646.97 272.22 648.82 275.19 648.82 277.83 648.36 280.21 649.55 281.47 651.66 285.17 656.42 287.01 657.68 291.31 660.45 295.14 662.1 299.56 662.3 302.8 662.9 303.71 665.2 304.32 666.73 311.04 674.15 313.02 676.84 314.6 679.96 315.31 683.97 315.66 688.6 316.1 694.19 316.89 697.85 317.11 701.59 316.14 705.25 314.73 708.46 313.55 711.33 313.5 713.04 314.38 713.84 316.45 714.41 319.36 714.37 322.13 713.88 326.01 713.48 331.25 713.48 335.34 713.35 338.82 712.65 341.6 712.12 344.5 712.12 348.6 712.91 352.25 712.74 355.38 712.96 359.08 711.99 360.4 710.84 362.2 709.65 365.46 709.21 367.36 709.52 369.03 711.11 369.51 712.16 370.31 712.91 371.85 714.76 373.48 714.89 375.77 714.67 377.53 713.31 379.29 711.99 382.24 710.93 385.1 710.71 387.74 710.22 389.46 709.92 390.74 708.82 392.1 707.54 394 704.23 395.45 703 399.15 703.53 401.92 702.96 404.21 702.6 403.86 703.93 402.1 705.16 401 706.22 400.21 709.56 398.49 712.91 397.61 714.63 396.24 715.64 394.26 716.83 391.4 718.15 389.55 719.7 388.27 721.28 387.61 723.26 386.51 723.7 384.97 724.58 385.19 726.13 386.73 727.01 388.05 727.67 391.35 727.89 393.56 728.55 395.1 730.09 395.1 731.85 395.98 735.82 396.86 738.68 398.4 740.22 400.38 741.1 402.8 742.64 404.34 743.75 406.11 744.41 408.53 744.41 410.07 743.97 412.49 744.41 414.25 744.85 416.67 746.39 419.1 747.93 421.52 750.35 423.5 751.23 424.16 753 423.46 755.55 422.84 757.84 422.18 760.26 417.33 761.81 408.97 762.69 406.11 762.47 405.23 761.37 403.9 760.04 402.36 760.26 401.7 761.37 397.74 763.13 388.93 762.69 387.61 764.45 383.87 765.55 381.01 764.67 378.8 761.59 374.84 759.38 371.32 757.84 364.71 756.74 360.31 756.96 357.67 757.84 355.03 759.6 351.72 760.26 347.98 759.6 343.8 759.6 339.39 758.94 337.19 757.62 333.23 755.64 330.24 759.31 326.71 760.92 319.66 763.69 316.67 765.72 313.1 768.89 309.18 771.8 306.98 773.25 305.31 773.82 302.53 774.53 300.73 774.66 299.29 774.74 297.7 775.26 295.76 777.38 293.73 779.31 292.24 780.9 291.44 782.57 290.99 783.31 290.21 784.6 289.59 785.31 288.54 784.95 287.93 784.73 286.6 784.25 285.54 784.25 283.43 784.42 282.2 785.04 276.38 789.45 274.27 791.12 274.01 792.53 274.01 794.2 274.27 795.52 273.92 796.93 271.63 800.72 271.36 802.22 271.54 803.89 271.98 805.3 271.89 806.45 271.19 807.68 270.66 808.47 270.22 812.44 270.31 815.08 270.31 816.23 270.48 817.28 272.07 817.64 274.36 818.25 276.65 818.96 277.7 819.57 279.03 820.02 281.4 820.19 281.84 820.37 282.81 821.34 284.4 822.48 285.98 823.19 287.57 823.63 289.86 823.8 289.07 824.24 288.62 824.68 288.62 825.48 288.98 826.27 289.14 826.8 289.33 827.42 288.1 827.42 286.86 827.68 286.07 827.59 283.96 826.71 282.11 825.92 279.64 825.3 277.09 824.6 274.97 824.77 273.53 824.85 271.86 825.38 270.48 826.37 269.68 827.23 268.56 829.61 268.36 834.3 268.23 836.54 268.43 841.1 268.5 844.87 267.77 847.97 266.45 851.94 264.99 855.11 263.34 859.74 261.49 863.3 260.57 865.88 260.64 867.33 260.83 868.85 261.82 870.24 262.02 871.3 261.89 872.55 260.83 873.94 259.13 876.04 256.78 876.85 254.29 878.48 252.07 883.87 246.71 891.59 244.76 892.62 240.63 894.16 238.32 895.26 236.17 896.97 233.26 900.49 230.9 902.37 223.19 910.1 219.48 913.16 218.09 914.02 215.84 914.94 214.7 915.4 214.19 915.61 213.53 916.33 213 917.26 212.21 916.73 210.96 916.33 209.3 916.66 207.32 917.32 204.15 918.38 199.66 919.83 196.69 920.49 193.39 921.29 190.61 921.42 188.1 921.49 184.93 921.62 183.21 921.29 178.13 921.09 174.76 921.09 169.54 921.55 166.37 922.15 158.44 921.49 155.8 921.42 151.05 921.49 148.93 921.22 146.95 920.3 145.1 919.97 136.98 919.57 135.59 919.9 134.34 920.3 131.83 920.96 131.1 920.83 129.91 920.23 127.73 919.5 126.48 919.04 123.77 919.11 122.31 919.31 119.47 920.23 116.57 921.75 112.54 926.86 110.58 941 109.04 942.08 106.86 943.47 103.62 944 100.38 943.94 99.92 943.93 97.81 943.34 95.36 942.28 92.52 941.16 88.16 938.91 84.07 936.6 81.89 935.01 80.24 933.89 80.24 933.56 80.24 932.11 79.91 932.04 78.52 931.84 77.2 931.58 73.76 931.45 72.97 930.98 70.92 930.79 68.48 931.38 64.32 932.37 59.7 933.63 59.7 934.35 59.7 935.21 58.11 935.81 56.86 936.27 54.94 937 54.28 937 53.62 937.19 53.49 937.86 53.35 938.85 53.42 940.3 53.95 940.83 54.41 941.09 54.87 941.82 55.8 942.55 55.53 942.88 54.61 943.21 53.95 942.81 53.49 942.02 52.83 941.03 52.1 940.3 51.97 939.71 51.97 938.12 51.9 937.26 51.24 936.73 50.25 936.4 49.13 936 48.04 935.4 47.34 935.01 46.09 934.15 44.7 933.1 44.04 932.11 42.65 931.71 41.97 929.9 39.47 925.58 38.68 922.94 39.47 918.97 40.53 912.23 41.32 906.42 42.25 897.83 42.77 889.24 43.17 881.05 43.3 871.93 43.57 865.98 43.04 859.11 42.25 848.28 40.66 836.38 39.6 828.59 38.94 824.75 38.28 820.92 37.36 818.54 39.34 818.01 45.55 820.53 50.04 822.51 54.27 824.23 69.33 828.19 76.46 832.02 79.5 832.82 86.9 834.8 103.81 837.84 106.32 838.76 109.36 840.48 111.6 842.07 114.77 844.71 116.75 845.63 118.73 845.63 120.98 845.1 121.64 843.78 122.7 842.33 122.96 839.95 123.09 838.23 124.94 835.33 126.4 833.34 128.51 828.19 129.7 824.75 130.23 822.11 130.36 818.81 129.96 817.49 127.32 815.64 125.34 814.58 123.23 814.05 120.98 813.79 119.26 812.86 116.62 811.54 114.11 810.48 97.47 805.99 95.35 806.12 87.16 806.78 83.99 807.58 72.63 809.95 67.48 810.75 63.38 812.07 58.89 812.6 53.34 812.6 49.25 813.13 46.34 812.33 42.77 812.07 39.6 811.67 36.83 811.54 35.77 811.14 35.11 808.1 30.28 792.66 28.24 786.17 23.49 774.54 17.68 760.93 12.26 750.09 11.4 748.51 12.06 746.99 13.58 746.26 15.43 746.39 17.87 746.85 18.4 747.65 18.93 749.1 23.82 749.5 26.13 751.55 28.31 753 29.43 753.26 30.42 752.8 31.61 750.49 32.01 749.04 34.72 746.92 36.83 745.73 38.61 745.53 40.86 745.73 43.3 746.46 44.95 747.45 45.68 749.76 47.13 750.22 48.06 749.5 48.72 747.05 51.16 747.38 53.67 747.12 57.24 745.67 57.31 744.54 55.72 744.34 55.92 742.82 58.36 735.69 60.67 732.05 58.89 728.75 58.23 728.02 56.84 728.29 55.13 733.44 53.67 730.8 52.15 730.67 49.78 730.67 49.25 731.72 45.81 732.52 42.91 733.18 41.92 732.98 39.87 730.34 38.81 729.68 38.02 729.68 37.09 729.94 35.84 730.53 34.58 730.87 32.47 730.53 31.22 730.2 30.36 729.15 29.89 727.36 29.89 726.24 30.56 724.79 31.74 724.13 32.74 723.99 34.12 724.06 35.77 724.46 37.62 724.06 40.79 720.95 43.96 716.46 46.41 713.82 48.98 711.24 50.77 710.32 52.09 710.25 53.54 708.53 53.74 703.91 53.54 700.41 53.34 699.75 52.48 698.89 51.42 698.26 50.62 694.6 49.74 693.17 48.75 691.74 47.38 690.75 46.94 689.76 47.1 689.04 45.17 684.36 43.91 682.49 43.3 680.73 43.25 679.79 42.86 679.08 41.93 678.63 41.49 678.14 40.22 675.88 39.4 674.96 38.35 673.79 36.59 673.02 34.66 672.74 33.01 673.02 31.41 674.06 30.04 674.84 27.67 675.55 26.63 675.61 25.14 675.11 23.82 675 22.26 675.27 22.22 675.28 21.45 675.33 21.56 674.67 22.03 674.03 22.44 673.46 23.43 672.69 24.31 671.97 24.37 671.53 23.82 670.87 22.88 670.49 17.76 670.05 15.45 669.72 14.35 669.88 13.36 670.32 12.59 670.49 12.7 669.55 13.47 668.83 13.91 668.23 13.91 667.35 13.08 666.91 11.27 666.3 9.73 665.64 9.62 665.37 11.87 664.98 13.97 663.71 16.17 662.06 18.04 659.69 19.58 657.05 20.63 655.23 20.74 652.76 20.57 651.05 20.55 649.92 20.35 646.38 20.42 645.06 20.73 644.32 21.08 643.9 21.36 642.94 21.45 641.78 21.34 640.37 18.77 635.42 15.27 628.81 14.47 626.63 13.55 621.34 13.42 620.71 13.11 619.15 12.49 616.12 12.16 611.56 11.9 609.45 11.04 605.75 10.51 603.37 9.92 599.94 9.78 595.18 10.84 589.76 11.17 586.52 10.97 585 9.92 583.75 7.74 582.43 5.76 580.97 4.63 580.18 4.57 579.78 6.68 579.06 8.9 578.53 10.58 578.13 12.29 576.61 12.82 574.56 13.22 572.05 13.42 571.35 14.01 569.34 15.33 566.11 16.02 563.82 16.52 562.14 16.85 560.56 16.98 557.32 17.04 556.61 17.18 554.61 17.91 551.5 18.57 547.54 19.3 545.62 19.23 544.1 18.97 542.52 17.65 540.4 15.53 538.95 10.05 535.25 6.94 533.27 5.36 531.88 4.17 530.16 3.25 529.63 2.19 529.04 1 528.05 2.26 528.18 3.38 528.11 4.37 527.59 5.27 526.82 7.27 523.21 9.32 519.5 15.38 508.82 18.13 505.85 21.9 502.97 22.31 502.66 22.75 501.99 23.97 500.12 24.41 496.71 23.97 494.62 23.75 493.16 23.64 492.41 23.56 490.48 23.53 489.55 24.63 486.58 28.04 482.17 33.1 478.98 34.09 476.34 35.75 475.68 38.72 473.03 38.84 472.9 42.02 469.4 47.63 465.1 61.84 451.01 67.89 445.17 69.43 442.75 72.27 440.12 72.4 440 72.45 439.97 77.58 437.35 83.96 434.71 90.24 432.95 96.73 432.29 103.56 432.62 108.29 432.95 115.34 434.6 127.45 437.9 133.94 439.12 135.7 439.67 132.99 437.24 129 431.04 126.58 427.07 124.15 422.23 120.19 417.38 113.37 409.23 110.94 407.25 103.9 403.06 87.83 394.7 85.76 393.07 84.04 391.48 83.63 390.59 81.89 386.69 79.16 384.4 76.51 381.84 74.93 377 74.14 374.44 70.44 371.53 58.37 362.64 56.52 360.96 55.82 356.38 57.84 352.95 60.31 347.84 62.69 342.55 63.13 336.56 63.74 331.1 62.42 322.55 60.31 313.57 59.43 307.66 58.99 305.9 58.11 304.76 56.26 304.14 54.41 304.05 53.18 303.79 52.38 302.38 53.62 300.18 55.03 297 54.94 295.15 52.3 292.25 48.95 286.96 47.54 284.5 47.45 282.91 48.33 282.47 48.77 280.8 49.3 278.33 48.07 273.84 47.63 270.4 47.63 266.52 48.42 263.53 49.92 260.97 50.97 257.89 50.97 255.16 50.62 252.43 49.65 249.52 49.12 247.32 48.86 244.5 49.57 242.21 51.59 240.36 52.74 238.33 53.09 235.87 53.09 234.37 52.3 232.87 49.92 231.55 47.89 230.67 46.57 230.14 45.43 228.47 45.87 227.5 47.1 227.58 48.95 227.67 51.06 227.06 52.3 225.12 52.91 220.89 53.35 217.89 54.5 212.34 55.82 208.56 55.99 205.38 55.38 202.48 55.64 200.1 56.52 198.34 57.4 197.81 58.55 197.02 60.93 195.17 62.69 193.67 65.24 193.23 67 192.61 67.8 191.2 67.71 189.7 69.91 189.26 70.97 189 74.75 188.38 77.13 186.62 77.75 185.56 78.98 184.51 80.3 184.06 81.71 184.86 83.38 186.36 85.23 187.68 87.7 187.85 88.76 187.06 91.4 184.77 92.63 183.27 93.78 182.21 95.27 181.69 96.42 181.42 97.74 181.69 98.97 182.21 100.29 183.01 102.58 183.01 105.66 183.18 107.6 182.21 109.01 181.95 110.24 181.95 111.21 182.3 112.8 182.92 115.62 183.1 117.55 182.57 120.46 181.69 124.16 180.63 126.54 178.51 131.73 178.25 140.01 178.07 146.79 177.63 151.9 177.72 154.46 176.49 157.71 175.17 160.88 173.85 164.23 173.85 166.78 173.41 171.36 172 179.2 169.62 184.66 168.12 189.33 167.77 193.82 167.68 198.23 167.68 203.42 166.62 208 166.18 214.61 164.95 223.59 163.01 230.19 160.54 232.31 158.6 233.89 157.46 235.83 157.2 239.27 156.84 245.61 154.46 249.22 153.58 253.18 153.94 258.46 154.2 263.92 153.58 267.18 151.2 270.71 148.47 274.93 146.54 280.39 144.86 289.64 142.66 296.25 141.25 300.03 140.55 301.79 138.78 303.56 137.46 305.23 136.67 307.17 136.14 308.4 136.32 309.98 135.79 310.6 134.82 310.87 133.41 314.48 131.38 317.29 129.89 319.5 128.92 321.08 128.21 322.49 127.77 326.19 127.68 332.27 127.33 334.12 126.8 337.29 125.92 340.02 125.13 346.53 125.04 349.35 124.6 356.66 124.6 362.47 124.69 383.17 125.22 385.2 124.51 389.16 124.69 396.91 125.92 403.34 126.54 406.07 126.98 408.8 126.98 413.73 127.42 415.84 127.42 418.84 128.65 422.18 128.65 425 129.18 427.03 129.97 428.17 131.12 428.88 133.15 430.38 134.47 440.15 138.34 453.71 144.42 457.76 145.92 461.99 147.24 463.4 147.42 467.89 147.86 470.36 148.65 474.85 149.8 478.46 150.32 481.98 150.06 484.45 149.44 485.59 149.27 489.56 150.5 491.67 151.82 494.84 153.41 500.21 155.61 507.96 158.69 512.63 160.72 525.14 165.3 528.31 165.74 531.65 165.3 533.86 165.56 535.53 166.45 539.05 169.62 544.95 171.03 548.92 172.52 555.17 172.96 563.09 172 569.44 170.06 573.31 167.86 577.45 165.04 579.92 164.16 583.09 163.1 586.96 160.63 590.04 158.43 592.33 154.46 591.54 153.58 588.9 149.88 586.26 144.69 584.54 143.26 586.77 129.83 586.64 126.17 588.6 120.08 594.49 110.92 599.59 105.84 603.91 103.4 610.18 101.37 637.24 94.36 644.83 93.25 660.25 89.49 664.96 86.44 668.1 86.24 675.42 83.6 681.7 83.8 695.03 80.96 700 79.13 702.88 77.1 709.67 77.51 717.25 76.9 724.32 73.85 728.76 69.79 730.6 65.52 731.65 61.66 731.65 60.03 734.92 57.49 738.31 53.83 740.15 48.95 740.68 43.66 741.46 41.42 741.99 41.02 741.99 40.2 748.27 32.27 752.98 29.02 756.64 27.19 761.88 23.95 765.84 22.54 771.74 21.48 777.38 18.49 779.65 15.71 785.41 14.29 789.07 12.46 792.2 9.82 793.59 8.23 796.29 1 799 1.53 798.93 2.61 798.8 4.63 797.86 8.85 793.51 13.07 790.63 14.9 787.76 16.32 783.72 19.54 775.71 22.8 768.13 24.92 763.88 26.73 762.13 28.21 754.54 33.7 751.14 36.95 748 41.83 744.07 53.83 741.06 60.64 736.87 66.33 735.04 69.79 733.21 71.82 726.67 76.5 Z M 70.26 778.64 68.72 777.32 68.5 774.89 68.94 772.47 67.83 770.27 61.23 765.2 60.79 761.9 60.57 758.82 59.91 756.17 58.37 754.63 56.61 754.19 55.06 756.83 55.28 759.26 52.42 760.14 50.44 762.12 50 764.32 50.22 766.08 50.22 769.39 49.34 770.71 48.02 771.59 45.82 772.69 44.06 773.57 42.96 773.57 41.41 773.57 40.53 774.45 43.07 783.56 43.18 783.48 45.38 783.92 45.82 781.94 56.39 778.86 61.23 781.06 64.09 783.7 66.73 783.26 67.39 781.94 69.38 781.72 70.48 780.62 70.26 778.64 Z M 118.69 783.15 118.47 783.99 117.84 786.46 116.45 787.58 114.93 788.24 113.61 789.43 112.82 790.69 112.88 791.74 114.07 791.94 116.65 790.82 118.23 789.63 119.29 788.7 119.95 788.64 120.87 788.9 121.4 789.56 122.39 790.22 124.51 790.55 126.29 790.36 127.22 790.75 126.16 792.54 137.98 793.53 146.04 794.06 146.96 793.2 146.7 790.62 145.78 788.64 144.57 787.15 141.96 784.1 139.63 781.57 136.79 778.79 134.81 777.47 132.9 776.28 131.57 776.61 130.45 777.67 130.17 778.5 130.12 779.59 129.2 782.49 128.67 783.81 127.88 784.47 126.62 785.47 125.23 785.4 123.98 785 122.59 784.28 121.27 783.42 120.15 782.96 119.02 782.69 118.69 783.15 Z M 256.74 700.45 257.62 700.67 258.72 700.45 258.28 695.39 256.96 692.3 255.64 688.34 255.64 685.92 254.98 685.04 254.51 682.97 253.66 683.27 250.14 682.83 245.29 684.15 242.21 686.14 241.11 686.8 240.01 687.68 240.89 689.22 248.38 694.29 253.66 698.69 256.74 700.45 Z" fill-rule="evenodd"/>
</g>
</svg>