<?xml version="1.0"?>
<svg xmlns="http://www.w3.org/2000/svg" version="1.2" baseProfile="tiny" width="800" height="341" viewBox="0 0 800 341" stroke-linecap="round" stroke-linejoin="round">
<g id="lakenacimiento">
<path d="M 728.15 3.3 728.1 3.84 727.7 4.11 727.24 4.74 726.84 5.5 726.52 5.82 726.07 6.36 726.03 6.95 726.43 7.44 727.2 7.44 728.1 7.17 729.27 7.26 730.58 7.53 731.26 7.98 732.02 8.75 732.84 9.42 733.83 10.23 734.51 10.78 735.09 11.45 735.72 12.26 736.31 12.62 737.26 13.07 738.47 13.43 739.47 13.43 740.73 13.34 741.81 13.3 742.71 13.34 743.57 13.61 744.2 13.75 745.1 13.75 746.41 13.79 747.36 13.52 748.26 13.21 748.98 12.67 749.21 12.08 749.84 11.63 750.79 11.32 751.91 11.5 752.95 11.77 754.49 12.4 755.57 12.94 756.33 13.79 756.47 14.61 756.33 15.46 756.79 16.45 758.27 17.44 759.81 18.52 760.66 19.25 761.88 19.79 763.55 20.64 764.99 21.36 765.94 21.45 766.57 21.18 767.75 21.36 768.83 21.9 770.36 22.76 771.85 23.62 772.98 24.83 774.01 25.82 775.01 26.72 775.73 27.4 776.59 27.72 777.62 27.94 778.07 28.57 778.21 28.93 778.48 29.38 778.84 29.79 779.29 30.28 779.61 30.87 780.24 31.18 780.96 31.27 781.68 31.36 782.09 31.64 782.49 32 782.85 32.49 783.31 32.76 784.03 32.99 784.3 33.53 784.93 34.2 785.65 34.47 786.51 34.79 787.23 35.46 787.91 36.05 788.63 36.64 789.8 37.04 790.61 37.54 791.2 38.35 791.92 38.89 793.67 39.66 793.72 39.93 793.9 41.14 794.25 42.3 799 50.58 797.9 51.65 797.19 52.09 796.82 52.43 796.78 52.7 796.89 53.07 796.89 53.44 796.65 53.78 796.31 54.12 795.84 54.27 795.57 54.36 795.03 54.66 793.98 54.9 793.33 54.9 792.96 54.73 792.76 54.29 792.45 54.15 792.29 54.32 792.25 54.66 791.85 54.86 791.59 54.86 791.17 54.86 790.76 54.66 790.15 54.56 789.78 54.83 789.65 55.2 789.61 55.71 789.75 56.08 789.55 56.45 789.21 56.59 788.84 56.45 788.62 56.06 788.6 56.01 788.19 55.74 787.92 55.78 787.72 55.94 787.45 56.08 787.04 56.25 786.7 56.72 786.5 57.13 786.13 57.03 785.89 56.76 785.76 56.38 785.82 56.05 785.69 55.98 785.38 56.15 784.95 56.15 784.78 55.84 784.88 55.44 785.15 55.13 785.38 54.83 785.66 54.32 785.55 53.88 785.25 53.53 784.34 53.25 783.27 53.14 782.2 53.42 781.64 53.76 781.47 54.32 780.68 54.94 779.95 55.11 779.78 54.77 779.78 54.26 779.5 53.76 779.05 53.59 778.82 53.36 778.88 53.02 779.05 52.63 778.82 52.18 777.97 51.39 777.13 50.66 776.11 50.15 775.49 50.15 774.65 50.94 774.48 51.67 774.14 52.01 773.69 51.73 773.07 51.62 773.13 51.33 773.46 50.77 773.63 50.1 773.35 49.53 772.39 48.8 771.15 47.96 769.74 46.94 768.5 46.27 766.98 45.93 765.06 45.31 763.2 44.46 761.51 43.39 760.1 42.61 759.2 42.55 759.2 42.89 758.98 43.23 758.19 43.56 757.92 43.95 757.78 44.12 757.78 44.46 758.05 44.69 758.15 44.83 758.22 44.93 758.23 44.98 758.26 45.3 758.29 45.6 758.59 45.81 759 45.81 759.09 45.82 759.37 46.32 759.6 47.28 759.3 47.67 758.97 47.9 758.76 48.24 758.39 48.71 758.32 49.09 758.32 49.52 758.59 50.06 758.93 50.64 759.24 51.18 759.51 51.82 759.68 52.5 759.78 53.07 759.85 53.41 759.58 53.92 759.07 54.09 758.8 53.87 758.73 53.82 758.83 53.11 758.56 52.46 758.12 52.09 757.88 51.72 757.68 51.11 757.31 50.44 756.87 50 756.5 49.76 756.13 49.79 755.95 49.82 755.85 49.83 756.06 49.19 756.5 48.61 756.77 47.97 756.6 47.26 756.16 46.62 755.89 46.21 755.85 45.64 755.79 45 755.55 44.49 755.48 44.08 755.35 43.71 754.91 43.75 754.47 44.02 754.06 44.22 753.62 44.25 753.57 44.21 753.35 44.02 753.52 43.68 754.1 43.07 754.27 42.43 754.4 41.75 754.87 41.52 755.45 41.35 755.75 40.84 755.85 40.3 755.62 39.79 754.4 38.98 752.84 38.07 751.05 37.19 749.22 36.48 747.74 35.57 745.57 34.59 744.18 34.12 743.51 34.01 742.7 34.05 741.92 33.95 741.21 33.71 739.72 33.74 738.03 34.08 737.32 34.32 736.95 34.52 736.91 34.93 736.71 35.1 736.3 35.03 735.93 34.89 735.49 34.62 734.71 34.56 733.56 34.62 732.58 34.89 732.18 35.13 731.8 35.37 731.36 35.57 730.96 35.67 730.25 35.57 727.41 34.76 724.53 33.98 721.89 33.64 719.59 33.64 717.94 34.15 716.62 34.86 715.16 35.67 714.52 36.21 714.22 36.82 714.18 37.53 714.42 38.04 715.4 38.48 715.57 38.71 714.89 38.71 714.08 38.68 713.03 38.51 712.39 38.31 711.48 38.37 710.7 38.71 709.75 39.66 709.38 40.27 709.24 40.91 708.57 41.25 707.69 41.85 707.15 42.5 706.84 43.21 706.94 43.85 707.25 44.49 707.48 44.96 707.28 45.2 706.71 44.93 706.4 44.62 706.13 44.73 705.76 44.93 705.35 45.3 705.08 45.67 704.78 46.11 704.78 46.62 704.91 47.06 705.08 47.6 705.08 48.07 705.32 48.44 705.79 48.88 706.13 49.15 706.37 49.63 706.94 50.03 707.42 50.27 708.13 50.4 708.01 50.46 707.72 50.61 706.87 50.61 705.93 50.23 705.25 50.1 704.71 50.13 704.37 50.44 703.76 50.88 703.15 51.21 702.88 51.86 702.68 52.33 702.65 52.87 702.92 53.27 703.22 53.65 703.7 53.95 703.76 54.39 703.86 54.86 704.17 55.34 704.37 55.71 703.9 55.78 703.29 55.47 702.75 55.17 702.31 54.83 701.7 54.49 701.39 54.59 701.73 55.03 702.34 55.37 702.95 55.88 703.39 56.32 703.59 56.69 704.17 57.03 704.51 57.57 704.98 58.01 705.56 58.58 706.47 59.22 706.81 59.66 707.28 59.86 707.89 60.07 708.33 60.47 708.53 61.11 708.46 61.52 708.4 61.89 708.57 62.36 709.28 62.5 709.75 62.26 709.82 61.76 710.16 61.42 710.76 61.59 711.51 61.96 712.32 62.23 713.3 62.7 713.67 63.28 713.98 63.78 714.55 63.95 715.16 63.82 716.28 63.72 717.33 64.19 718.11 64.73 718.27 65.17 718.34 65.54 718.88 65.47 719.49 65.24 720.27 65.3 721.28 65.78 722.81 66.86 725.14 68.41 727.64 69.63 730.21 70.98 731.67 71.49 732.75 71.59 733.06 71.96 732.79 72.37 732.38 72.74 732.18 73.38 732.68 74.33 734.1 75.54 735.63 76.76 736.27 77.64 736.37 78.08 736.24 78.65 736.68 79.02 738.8 78.94 740.49 78.77 741.17 78.99 741.51 79.67 742.07 80.17 742.24 80.4 741.45 80.4 740.88 79.95 739.59 80.17 738.99 80.62 738.91 80.68 738.4 81.02 737.5 81.19 736.66 81.3 735.92 81.58 735.36 82.43 734.85 83.05 734.29 83.95 734.35 84.79 734.46 86.03 734.23 88.06 733.73 89.75 732.88 91.04 732.15 91.55 731.64 92.06 731.53 92.68 731.75 93.63 732.32 93.97 732.99 94.14 733.22 94.48 733.27 95.04 732.82 95.44 732.15 95.66 731.92 96.17 732.09 96.73 732.71 97.41 733.05 98.08 734.29 99.21 735.08 99.83 735.36 100.45 735.42 101.01 735.19 101.58 734.29 101.95 734.23 101.97 733.22 102.25 732.09 103.38 731.58 104.17 731.19 104.84 730.62 105.46 730.12 106.19 729.55 106.7 729.05 107.09 728.76 107.43 729.1 108 730.12 108.33 730.79 109.18 731.58 110.02 732.15 110.92 732.6 111.99 733.27 113.12 734.12 114.41 734.38 114.66 736.29 116.15 735.71 116.94 735.62 117.93 735.8 119.37 735.44 120.99 734.63 123.34 733.91 125.14 733 126.58 732.28 128.02 730.93 128.92 729.49 129.46 728.13 130.09 727.23 130.72 726.33 130.99 725.16 131.54 724.25 131.81 723.71 132.35 722.72 132.44 721.82 131.99 720.38 131.99 719.44 132.36 719.03 133.21 718.44 133.62 717.81 133.12 717.5 132.22 716.91 132.13 716.37 132.63 715.78 132.54 715.42 131.99 715.06 131.99 714.43 132.31 713.62 132.63 713.01 131.9 712.22 131.57 710.42 131.57 709.85 132.02 709.85 132.92 708.73 133.48 707.49 133.59 706.36 132.92 705.57 132.36 704.89 132.69 703.99 133.26 703.43 134.04 702.98 134.72 702.3 135.06 701.96 135.85 700.95 136.41 699.82 136.52 698.92 136.97 697.79 136.97 696.55 136.75 695.08 136.64 694.29 136.64 694.07 137.31 694.41 137.99 694.74 138.66 694.29 139.56 694.31 140.18 694.48 140.86 694.48 141.48 693.74 141.99 693.18 142.04 692.62 141.93 692.45 142.38 692.5 143.06 692.78 144.24 692.84 144.63 693.24 144.97 693.57 145.42 693.52 145.98 693.01 146.55 692.67 147.11 692.33 147.73 691.71 148.35 690.92 148.74 689.8 149.36 688.89 150.1 688.5 150.6 688.67 151.05 689.4 151.33 690.47 151.84 690.87 152.29 690.53 152.91 689.85 153.25 688.73 153.36 687.71 153.02 686.75 152.85 686.08 153.42 685.51 154.04 684.95 154.94 684.95 155.73 684.55 156.06 684.89 156.57 685.57 156.52 686.19 156.52 686.87 156.68 687.15 157.13 687.09 157.25 686.87 157.7 686.58 158.09 686.7 158.66 687.37 159.05 687.88 159.5 688.33 160.23 688.67 161.25 689.29 161.36 690.42 160.96 691.49 160.74 692.67 160.18 693.46 159.67 694.31 159.5 695.1 159.5 695.66 159.33 696.17 158.88 696.73 159.05 697.58 158.88 698.2 158.71 698.1 158.83 697.58 159.44 696.67 160.18 696.39 160.68 695.6 160.8 694.98 160.8 694.08 161.25 693.52 161.87 693.24 162.15 693.07 163.05 693.07 163.5 692.11 163.1 691.49 163.1 690.47 163.44 689.23 163.67 688.5 163.78 688.11 164.23 688.32 165.06 689 166.13 689.51 167.14 690.3 167.82 691.31 167.99 692.5 167.82 693.57 167.48 694.69 167.42 696.27 167.82 697.06 167.7 697.51 167.42 697.91 167.65 698.08 167.93 698.25 168.44 698.58 168.77 699.09 168.66 699.49 168.44 700.05 168.27 700.84 168.38 701.46 168.27 701.91 168.1 702.64 168.27 703.6 168.66 704.5 168.72 705.35 168.55 706.03 168.49 707.1 168.44 707.89 168.1 708.62 167.87 709.3 167.93 709.97 167.82 710.09 168.1 709.01 168.49 708.22 168.89 707.72 169.51 707.1 169.67 706.25 169.96 704.73 170.13 703.71 170.01 702.25 170.13 701.18 170.35 700.67 170.8 700.22 171.2 698.36 171.25 697.29 171.14 696.67 170.69 695.99 170.41 695.26 170.35 694.81 170.24 694.13 170.46 694.07 171.03 694.24 171.65 694.58 172.32 695.15 172.88 695.37 173.79 695.54 174.86 695.15 175.48 695.09 175.93 695.65 176.04 696.72 175.64 698.19 175.48 700.28 175.42 702.14 175.81 703.49 176.49 705.41 176.83 707.6 177.56 707.89 178.57 708.22 179.64 709.01 179.81 709.63 179.25 710.03 177.9 710.42 176.94 711.44 176.77 712.4 175.87 714.43 174.86 715.84 174.24 716.34 173.28 717.81 172.38 718.26 171.53 718.88 170.8 720.4 171.03 722.54 169.39 721.76 170.8 721.13 171.87 720.57 172.6 720.35 173.39 720.12 174.24 719.33 174.63 718.26 174.24 717.41 173.9 716.74 174.35 716.29 175.25 715.78 176.09 715.33 176.94 714.65 177.9 713.64 178.57 713.3 179.08 712.96 179.64 712.79 180.54 712.45 181.39 712.23 182.18 712.4 183.08 711.83 183.7 711.66 184.37 711.89 185.44 712.28 186.06 713.13 186.34 714.09 186.57 715.1 187.3 715.72 188.43 715.84 189.27 715.89 190.29 716.17 191.47 716.74 192.2 717.41 192.2 717.92 191.81 718.12 191.87 718.26 191.92 718.03 192.65 717.92 193.16 718.2 193.78 719.61 194.62 721.47 195.58 723.11 195.81 724.4 196.14 725.08 196.88 725.42 197.3 725.81 197.78 725.98 198.45 725.93 199.35 726.15 200.48 726.77 201.61 728.07 202.45 729.14 203.13 729.08 203.28 728.91 203.75 726.83 203.07 724.63 202 723.28 200.76 722.6 199.8 722.26 199.13 721.76 198.56 720.74 198.34 719.16 198.4 716.96 198.62 714.6 198.45 713.81 198.45 712.85 197.78 711.72 196.48 711.33 195.41 710.71 194 710.2 193.16 709.86 192.37 709.07 191.86 708.96 190.85 708.9 189.89 708.56 189.27 707.6 188.93 706.7 188.77 705.69 188.77 705.74 188.48 706.31 188.03 706.63 187.71 706.64 187.71 706.5 187.5 706.1 187.2 705.76 186.86 705.42 186.46 704.84 186.09 704.3 185.98 703.66 186.02 702.92 186.39 701.7 186.56 700.72 186.46 699.57 185.88 698.79 185.14 698.52 184.53 698.35 183.48 698.21 182.77 697.74 182.54 697.4 182.74 696.93 183.15 696.08 183.38 695.07 183.58 694.66 183.85 694.43 184.19 693.82 184.7 693.72 184.29 693.61 183.89 693.34 183.45 693.17 183.21 692.43 183.11 691.62 183.11 690.77 183.25 689.79 182.77 688.44 181.86 687.46 180.81 686.65 180.07 685.9 179.5 684.79 178.96 683.94 178.25 683.3 177.84 682.65 177.77 682.22 177.87 681.74 177.71 681.57 177.37 681.67 176.89 681.91 176.59 682.38 176.35 683.03 175.95 683.74 175.54 683.97 174.9 683.94 174.06 683.74 173.55 683.06 173.21 682.15 173.04 681.13 172.6 679.95 171.69 679.11 170.86 678.75 169.87 678.03 169.02 676.81 168.03 675.77 167.17 675.05 166.09 674.82 165.05 674.82 164.47 674.91 163.75 674.64 163.03 674.37 162.39 673.61 162.26 672.7 162.21 672.07 161.76 671.94 161.36 671.8 160.68 671.58 159.96 671.53 159.15 671.71 158.48 671.67 157.84 671.31 157.66 670.94 157.84 670.36 158.07 669.46 158.39 668.55 158.93 667.38 159.29 667.56 158.79 667.43 158.48 667.65 158.29 667.83 158.2 668.51 157.8 668.64 157.3 668.46 157.03 667.79 156.85 667.25 156.76 667.74 156.45 668.37 156.09 669.14 155.82 670.04 155.86 670.63 155.86 671.03 155.28 671.4 154.42 671.76 153.52 673.06 152.3 673.7 151.49 674.06 150.55 674.51 149.69 674.91 148.74 675 147.62 674.55 146.67 674.33 145.77 674.82 144.55 675.18 143.88 676.09 143.16 676.9 142.26 677.39 141.31 677.89 140.45 678.61 139.87 679.78 139.55 680.64 139.01 680.78 138.38 680.6 137.93 680.64 137.26 680.46 136.89 679.87 136.98 678.97 136.71 678.43 136.22 677.75 135.32 677.08 134.82 675.64 134.06 674.06 133.25 672.43 132.52 671.67 132.07 670.85 131.53 669.64 131.17 668.82 131.17 666.93 131.4 665.26 131.53 663.95 131.22 663.23 131.13 662.69 131.13 662.1 131.26 661.92 131.53 662.1 131.71 662.47 131.98 663.14 132.21 663.73 132.48 664.18 132.93 664.77 133.34 665.44 133.61 665.98 133.88 666.25 134.33 666.93 134.96 667.47 135.54 667.74 136.49 668.24 137.3 668.6 137.98 668.96 138.97 669.23 139.37 669.37 139.69 669.23 139.96 668.64 140.18 668.28 140.59 668.1 140.23 668.42 139.87 668.51 139.6 668.24 139.15 667.88 138.29 667.47 137.53 666.8 136.67 666.34 136.35 665.98 136.53 665.85 136.98 666.07 137.44 665.89 137.8 665.44 137.35 665.22 136.85 665.08 136.04 664.72 135.41 664.18 135.18 663.82 135.27 663.41 135.45 663.23 134.96 662.74 134.46 662.19 134.28 661.38 134.1 660.53 133.88 659.76 133.65 658.86 133.38 658.54 132.75 657.64 131.98 656.78 131.17 656.47 130.59 656.02 130.41 655.61 130.68 655.43 131.08 655.52 131.4 655.47 131.85 654.93 132.34 654.26 132.52 653.58 132.66 652.9 132.88 652.54 133.02 652.23 133.38 651.82 133.88 651.19 134.33 650.83 134.82 650.87 135.36 651.01 136.04 651.46 136.44 651.82 136.53 651.96 137.07 651.78 137.48 652.05 137.93 652.32 138.47 653.22 139.64 653.4 140.23 653.31 140.77 652.77 141.9 652.05 142.57 650.92 143.29 649.61 143.97 648.21 144.42 647.4 144.55 646.73 145.14 646.18 145.95 645.73 147.44 645.46 148.7 645.37 149.91 645.37 150.95 645.78 152.03 645.73 152.71 645.1 153.29 644.11 154.38 643.34 155.55 643.16 156.76 642.44 158.25 641.31 159.38 640.14 160.1 639.64 161.04 639.55 162.03 639.78 162.67 640.73 162.89 641.54 162.94 641.9 163.38 641.94 163.43 641.4 163.7 640.28 163.7 639.28 163.52 638.56 163.21 637.66 162.44 636.89 161.67 635.81 160.64 634.82 160.01 633.56 159.56 632.7 159.2 632.18 159.26 631.84 159.74 631.3 160.55 631.23 161.22 631.57 161.83 632.04 162.37 631.3 162.37 630.42 162.57 629.54 163.12 628.59 163.99 628.05 165.01 627.58 165.68 626.56 166.02 625.41 166.63 622.51 167.85 619.39 168.25 616.15 168.18 613.37 167.31 610.53 166.7 607.01 165.82 604.17 165.28 601.74 165.68 600.05 166.02 599.23 166.49 599.3 167.04 599.91 167.17 601.06 167.31 601.74 167.71 601.93 167.91 601.94 167.91 601.67 168.32 601.06 168.66 600.92 169.13 601.13 169.6 601.13 170.75 601.06 172.44 600.32 173.39 599.3 174.13 598.76 175.35 598.22 176.5 597.47 177.44 596.32 178.05 595.51 178.59 595.11 179.33 594.57 179.81 593.82 179.74 592.87 180.15 592.2 180.69 591.18 180.96 589.9 180.92 589.19 180.78 588.82 180.81 588.35 180.98 587.81 180.92 586.96 180.78 586.08 180.88 585.44 181.32 584.63 182.57 583.82 184.4 583.85 186.86 584.12 187.98 584.39 188.52 584.7 188.99 584.56 189.4 584.59 190.28 584.83 191.96 584.97 193.05 584.86 194.03 584.59 195.14 584.7 196.43 584.7 197.81 584.36 199.3 583.34 201.02 582.06 202.27 580.97 202.81 579.99 203.69 579.76 204.64 579.55 205.01 579.25 204.81 579.52 203.59 580.33 202.74 581.18 201.97 582.09 201.05 582.7 199.74 583 198.49 582.97 197.44 582.9 196.49 582.73 195.78 582.63 195.11 582.73 194.53 583.21 193.45 583.48 192.64 583.38 191.42 582.97 190.31 582.4 188.96 581.62 187.3 581.52 185.95 581.85 184.29 581.85 183.72 582.16 182.88 582.53 182.13 582.63 181.63 582.36 181.32 582.36 180.98 582.77 180.92 583.34 180.44 583.88 179.6 583.95 179.02 585.14 178.42 585.88 177.94 586.39 177.57 586.76 177 586.93 176.66 587.03 176.7 587.33 176.83 587.5 177.13 587.91 177.27 588.48 177.74 588.79 178.01 589.36 178.14 589.7 178.48 589.77 178.79 590.31 178.96 590.85 179.02 591.19 178.85 591.73 178.35 591.77 177.94 591.53 177.37 591.46 176.69 591.05 175.81 590.38 174.46 589.94 173.18 589.77 172.3 589.8 171.12 590.07 170.17 590.21 169.6 590.34 168.95 590.34 168.48 589.7 167.67 588.92 166.66 587.91 165.78 587.4 164.8 587.03 163.48 586.93 162.53 586.73 161.69 586.52 161.15 586.12 160.64 585 160.3 583.99 159.86 583.85 159.53 583.99 159.32 584.36 159.15 584.9 158.99 585.1 158.72 585.03 158.28 585.03 157.7 585.07 157.3 584.73 156.99 583.85 156.86 583.27 156.79 582.8 156.38 582.67 155.91 582.94 155.57 583.24 155.44 583.24 155.07 582.94 154.69 583.03 154.71 583.24 154.73 583.75 154.9 584.05 155.17 584.15 155.47 584.12 155.81 584.39 155.94 585.54 156.05 586.18 156.25 586.83 157.3 587.03 158.28 587.5 158.78 588.35 158.88 588.75 158.65 589.19 158.14 589.5 157.67 590.07 157.2 590.45 156.62 591.16 156.35 591.66 155.74 591.7 155.17 591.26 154.49 590.92 153.92 591.33 154.02 592.04 154.42 592.95 154.69 593.96 154.49 595.82 153.78 596.57 153.68 596.87 153.55 597.18 153.61 597.35 153.88 597.65 154.15 598.29 154.56 599.51 154.96 600.66 155.54 602.08 156.01 603.5 156.32 604.48 156.42 605.23 156.42 605.46 156.05 605.36 155.54 605.16 155.13 604.82 154.56 604.72 154.12 604.89 153.58 605.02 154.19 605.33 154.36 605.8 154.63 606.45 155.1 606.72 155.4 606.95 155.88 607.49 156.38 608 156.92 608.71 156.96 609.25 156.92 609.56 157.06 609.86 157.4 610.67 157.63 611.79 157.5 612.26 157.47 612.8 157.53 613.21 157.47 613.68 157.09 614.12 156.89 614.6 156.65 615.07 156.35 615.38 156.08 615.48 155.74 615.31 155.51 615.14 155.44 614.73 155.2 614.56 154.9 614.6 154.49 614.73 154.05 615.36 153.3 616.15 153.02 616.77 152.62 617.22 151.72 617.9 150.82 619.54 149.64 620.66 148.57 621.51 147.84 622.02 147.33 622.19 146.71 622.19 145.98 621.96 145.24 621.53 144.78 621.34 144.57 621.68 144.79 622.19 144.96 622.58 145.13 623.03 145.41 623.43 145.75 624.27 145.98 625.34 145.92 625.91 145.75 626.64 145.86 627.2 146.03 627.88 146.2 628.78 146.31 629.52 146.26 630.02 145.92 630.19 145.36 630.02 144.68 629.85 144.34 629.35 143.72 629.29 143.27 629.4 142.82 629.63 142.54 630.25 142.26 630.76 142.09 630.98 141.7 630.98 141.19 631.04 140.57 631.32 141.25 631.6 141.64 631.66 142.15 631.6 142.49 631.38 142.99 631.38 143.44 631.88 143.84 632.39 143.89 632.9 143.61 633.41 142.94 633.91 141.47 634.53 140.85 635.21 140.06 636.05 139.67 636.96 139.28 637.75 138.66 638.41 137.94 638.75 137.38 638.75 136.98 638.24 136.65 637.9 135.91 638.07 135.52 638.92 135.8 639.77 135.91 640.78 135.58 641.12 135.07 640.84 134.51 640.84 133.83 641.29 133.38 642.47 133.1 642.92 132.42 643.32 131.69 643.71 130.85 644.39 130.23 645.23 129.21 645.91 128.42 646.25 127.8 645.8 127.47 644.67 127.19 643.54 126.51 641.57 125.89 639.99 125.72 637.85 125.55 635.09 125.05 632.21 124.54 630.41 123.98 628.66 123.19 627.14 122.62 625.11 121.72 623.98 120.77 623.02 120.26 621.61 119.02 620.2 118.63 619.41 118.74 618.45 118.96 616.71 118.74 614.51 117.72 612.82 116.94 611.01 116.71 609.55 116.82 608.31 117.16 607.24 117.27 606.22 117.05 605.32 117.1 604.64 117.27 604.11 117.65 602.4 117.83 601.27 117.42 600.64 116.61 599.06 116.07 597.66 116.34 596.9 117.47 596.72 116.65 596.36 115.75 595.63 114.99 594.46 114.81 593.38 115.08 593.11 115.98 592.57 116.92 591.48 117.51 591.8 116.83 591.75 116.2 591.39 115.44 591.48 114.76 591.94 114.04 592.21 113.59 591.39 113.05 590.4 112.55 589.77 111.74 588.55 111.16 587.65 110.62 586.3 110.08 585.03 109.94 584.09 110.66 583.19 111.11 582.46 110.71 582.15 110.17 580.93 109.45 580.03 109.45 578.95 109.94 578.45 110.71 578.54 111.56 578.95 112.15 579.22 112.96 579.98 113.46 580.43 114 580.39 114.54 580.3 115.21 580.48 115.84 580.89 116.2 581.16 116.7 581.16 117.58 580.08 116.59 579.26 115.96 578.72 115.06 578.09 114.25 577.55 113.26 576.83 112.99 575.48 113.35 574.57 113.35 574.57 112.9 575.03 112.18 575.3 111.55 574.93 110.64 574.3 110.01 573.76 109.92 572.41 110.1 570.79 110.46 569.61 110.91 568.98 111.55 568.53 112.18 567.9 112.81 567 113.26 566.55 112.9 566.91 111.91 566.1 111.73 565.1 112.09 565.64 111.27 566.28 110.73 566.64 110.01 566.28 109.47 565.46 109.47 564.2 109.47 563.03 109.02 562.13 108.93 561.68 109.56 561.46 110.57 561.15 111.57 560.54 112.13 560.38 112.29 560.33 111.57 560.29 110.76 560.02 109.99 559.16 109.45 558.26 109.13 557.54 109.31 556.91 109 556.09 108.59 554.97 108.82 553.75 109.13 553.12 108.82 552.85 108.1 552.35 107.69 551.54 107.65 550.64 107.42 550.05 107.06 549.92 106.79 550.77 106.43 551.86 106.11 552.62 105.71 553.07 105.3 552.8 104.63 551.99 103.95 550.1 102.78 548.74 102.42 547.62 101.88 547.35 101.11 546.76 100.35 546.17 100.17 545.59 100.57 544.95 101.16 543.87 101.65 542.43 102.87 542.93 102.33 542.94 102.28 543.15 101.52 543.24 100.84 543.65 100.21 544.19 99.67 544.23 99.09 544.82 98.46 545.09 97.78 545 97.37 544.46 97.19 544.05 96.7 544.05 96.29 544.28 95.75 544.23 95.21 543.83 94.63 543.11 93.82 542.65 93.54 542.52 93.91 541.84 94.49 540.9 95.26 540.44 95.98 540.22 96.34 539.68 96.65 539.36 97.24 539.27 97.96 538.73 97.92 538.19 98.01 538.51 97.46 538.78 96.83 538.82 96.43 538.91 95.93 538.82 95.08 538.64 94.72 538.32 94.58 538.01 94.45 538.01 94.27 538.14 94.04 538.73 93.86 539.18 93.73 539.54 93.5 539.59 92.78 539.86 92.1 540.08 91.52 539.99 90.84 539.86 90.57 539.32 90.21 538.32 89.76 537.24 89.58 536.75 89.26 536.21 89.17 534.99 89.49 534.18 90.17 533.59 91.07 532.69 91.79 533.05 90.89 533.23 90.39 533.32 89.76 533.45 89.45 533.86 89.08 533.77 88.59 533.54 88.54 532.91 88.41 531.79 88.18 531.02 88.18 530.43 88.45 529.8 88.9 528.54 89.45 527.64 89.54 527.27 89.4 527.95 89.22 528.27 88.9 528.85 88.41 529.26 88.09 529.35 87.64 528.9 87.55 527.91 87.37 526.24 87.28 524.84 87.01 522.13 86.56 519.56 85.93 517.44 85.3 515.5 84.67 514.65 84.4 513.97 83.95 513.25 83.59 512.66 83.36 511.44 83.9 510.68 84.49 510.36 84.85 510.32 85.39 509.73 84.8 509.82 84.58 509.87 83.95 510.05 83.18 510.32 82.69 510.32 82.33 510 82.06 509.23 81.65 508.2 81.16 507.07 80.93 505.13 80.84 502.42 80.97 500.53 81.02 499.04 81.29 498.05 81.88 496.52 82.51 494.4 83.99 492.91 86.29 492.73 88.41 493 89.26 493.09 90.17 492.86 91.11 492.95 91.79 492.68 92.37 491.87 92.78 491.24 93.82 490.83 95.26 490.83 96.2 490.74 97.6 490.88 98.73 491.19 99.36 491.45 99.68 491.51 99.76 491.51 100.3 491.19 100.48 490.65 100.66 490.02 100.57 489.16 101.07 488.71 101.52 488.94 101.88 489.57 102.42 489.43 103.05 489.03 102.96 488.31 102.78 487.59 102.29 487.5 101.65 487.54 101.02 487.22 100.71 486.95 100.3 486.95 99.76 486.91 99.09 486.46 98.82 485.83 98.28 485.24 98.01 484.52 98.1 483.08 98.91 480.6 100.12 479.33 100.98 477.35 101.97 475.63 102.78 473.87 103.37 472.84 103.82 472.39 104.13 472.16 104.63 471.71 104.67 471.35 104.54 470.81 104.76 470 104.94 469.55 104.81 468.55 105.44 467.47 105.84 466.66 106.07 466.61 106.25 466.66 106.75 466.97 107.24 467.56 107.78 467.83 108.19 467.92 108.5 467.47 108.64 466.7 108.46 466.21 108.5 465.71 108.86 465.44 109.31 464.99 109 464.63 108.64 464.54 108.1 464.27 107.6 463.77 107.6 463.01 108.01 462.19 108.55 461.88 109.04 461.88 109.45 461.56 109.9 460.89 110.26 460.03 110.35 459.08 110.48 458.22 110.98 457.41 111.12 456.78 111.57 455.65 112.83 455.07 113.82 453.71 114.99 453.08 116.03 452.72 116.7 452.09 116.93 451.55 117.24 451.32 117.92 451.5 118.64 452.09 119.14 452.63 119.9 453.52 121.48 454.09 122.89 454.4 123.52 454.27 123.99 454.61 124.4 455.59 124.69 456.53 125.23 457.26 125.41 457.93 126.04 458.79 126.58 459.24 126.85 459.92 126.81 460.32 126.76 460.73 126.9 461.13 127.3 461.45 127.58 461.99 127.89 462.04 128.57 461.77 129.11 461.63 129.56 461.49 130.23 461.54 131 461.4 131.36 461.22 131.68 461.27 131.99 461.54 132.22 461.54 132.67 461.36 133.03 461 133.43 460.59 133.43 460.05 133.7 459.78 133.97 459.42 134.56 459.42 135.28 459.83 135.77 460.46 136.18 460.64 136.68 460.55 137.31 460.64 138.12 461.04 138.52 461.13 139.33 461.63 139.87 461.77 140.33 462.13 140.55 462.53 140.42 462.98 140.55 463.39 140.91 463.61 141.32 463.98 141.54 464.7 141.86 463.7 141.95 463.21 141.99 463.03 141.68 462.71 141.45 462.22 141.45 461.36 141.59 460.86 141.59 460.46 141.36 460.37 141 460.23 140.6 459.92 140.1 459.51 139.83 458.83 139.6 458.29 139.47 457.8 139.42 457.39 139.65 456.94 140.33 456.53 141.27 456.17 142.62 456.13 143.39 455.95 143.79 455.9 144.15 455.9 144.61 456.31 145.1 456.58 145.64 456.98 146.23 458.25 146.86 459.51 147.04 460.73 147.04 461.49 147.35 462.04 147.76 462.44 147.76 462.89 147.53 463.48 147.22 464.29 147.22 465.01 147.53 466.01 147.76 466.73 147.8 467.18 147.62 466.82 148.12 466.37 148.39 465.91 148.48 465.37 148.66 464.92 148.75 464.88 149.02 465.33 149.47 466.05 149.79 466.19 150.1 466.41 150.69 466.46 151.27 466.59 151.72 466.01 151.59 465.73 151 465.37 150.6 464.92 150.37 464.43 150.42 463.8 150.19 462.89 150.15 462.35 150.24 462.35 150.46 462.5 150.71 462.94 151.22 463.72 152.1 464.36 152.97 464.83 153.99 465.34 154.53 465.85 154.83 466.35 155.07 466.52 155.44 466.35 155.85 465.81 156.05 465.54 156.39 465.41 157.03 465.58 158.28 465.91 159.39 466.22 160.41 466.39 161.42 466.35 162.2 466.49 163.21 466.25 164.36 466.05 166.02 465.88 167.94 465.88 169.13 466.08 170.17 466.15 170.95 465.88 171.66 465.31 172.34 464.63 172.71 463.99 173.28 463.78 173.99 463.85 174.63 464.16 175.14 464.93 175.38 466.12 175.55 467.2 175.65 466.52 175.92 465.91 176.29 465.1 176.76 464.05 177.1 462.94 177.34 462.02 177.71 460.91 178.59 459.72 179.57 459.39 180.38 459.12 180.95 458.27 181.46 457.22 181.97 456.14 183.08 454.89 184.57 454.08 186.02 453.87 186.73 453.67 187.85 453.09 188.96 452.28 189.84 451.23 190.99 450.93 192.04 450.9 192.58 450.96 192.98 451.3 193.35 451.84 193.32 452.32 193.56 452.55 194.1 452.49 194.6 452.32 194.97 452.08 195.21 452.08 195.52 452.42 196.09 452.59 196.39 452.62 196.77 452.59 197.31 452.59 197.68 452.76 198.66 452.79 199.16 453.03 199.57 453.5 200.18 453.84 200.85 453.84 201.19 453.81 201.56 454.31 201.83 455.02 201.9 455.63 201.97 455.5 202.27 455.46 202.51 455.7 203.02 456.27 203.9 456.75 204.44 457.19 204.81 457.46 205.48 458.2 206.26 459.45 206.7 461.08 206.87 461.79 206.7 462.13 206.13 462.7 205.69 463.14 205.42 463.48 205.48 463.51 205.72 463.31 206.26 463.41 206.53 464.12 207.04 465.54 207.34 466.86 207.68 467.74 208.15 468.82 209.17 469.23 209.88 469.33 210.96 469.47 212.07 470.08 212.88 470.92 213.73 471.46 214.4 471.8 215.18 472.68 216.03 473.26 216.43 473.59 217.11 474.34 217.85 476.33 218.7 478.5 219.47 480.32 220.01 481.04 220.28 481.61 220.62 482.15 221.3 482.79 221.67 483.4 221.8 484.35 222.21 485.74 222.95 487.12 224 488.14 224.64 489.15 224.91 489.63 224.85 490.44 225.01 491.22 225.25 491.72 225.08 492.06 224.57 492.57 224.47 493.42 224.41 493.79 224.14 494.06 223.9 494.53 223.73 495.24 223.63 494.7 223.93 494.16 224.37 493.75 224.78 493.25 224.98 493.01 225.35 492.98 225.82 493.28 226.5 493.79 227.41 494.73 228.29 495.38 228.66 496.43 229.14 497.2 229.31 497.88 229.31 499.1 229.27 499.74 228.87 500.28 228.49 501.06 228.53 501.67 228.6 502.53 228.33 502.85 228.22 503.45 227.92 503.83 227.72 504.58 227.41 503.6 228.12 502.62 228.83 502.11 229.2 501.06 229.68 500.49 230.25 499.54 230.59 499.17 230.79 498.79 231.4 498.62 232.35 498.62 232.79 498.83 233.02 499.2 233.19 499.61 233.7 500.08 234.14 500.82 234.51 501.33 234.54 502.01 234.51 502.82 234.71 503.39 235.35 504.21 235.79 504.61 236.2 505.09 236.44 505.24 236.5 505.32 236.54 504.78 236.67 504.48 236.74 504.75 237.04 505.63 237.25 505.56 237.4 505.53 237.48 504.34 237.45 503.5 236.91 502.92 236.33 502.31 236.2 501.6 236.33 501.16 236.74 501.16 237.85 501.03 239.98 500.72 241.33 500.25 242.15 500.38 242.89 500.69 244.21 500.32 245.09 500.18 245.66 499.91 246.03 499.64 246.4 499.67 246.84 500.35 247.18 501.5 246.88 502.41 246.5 503.16 246.5 504 246.61 502.68 246.94 501.87 247.42 501.16 248.02 501.26 248.43 502.01 249.07 502.51 249.34 502.68 249.85 502.92 250.39 502.99 251 502.68 251.47 502.28 251.13 501.97 250.39 501.26 250.02 500.52 249.71 499.64 249.51 498.73 249.55 498.15 249.95 498.08 250.49 498.18 251.3 498.59 252.21 498.69 253.06 498.73 254.45 498.35 255.73 497.81 256.57 497.64 256.88 497.34 257.35 496.93 257.82 496.6 258.47 496.43 259.14 496.56 260.02 496.9 260.56 497.24 261 497.37 261.68 497.63 262.22 497.71 262.39 498.18 262.89 498.15 263.1 497.41 262.76 496.87 262.01 496.16 261.37 495.34 261.07 494.53 261.1 493.96 261.64 493.55 262.42 493.21 262.76 492.87 263.06 492.98 263.33 492.77 263.67 492.98 264.28 492.91 265.26 492.1 267.05 491.45 267.45 490.95 267.96 490.61 268.64 489.42 269.48 488.44 270.7 487.97 271.31 487.16 271.85 487.16 272.35 486.51 273.4 486.41 274.04 487.36 274.89 488.07 275.8 488.48 276.75 488.58 277.32 488.61 278.13 488.34 278.6 488.38 279.31 488.54 279.72 489.32 279.99 490.2 280.02 491.08 280.19 491.49 280.5 491.79 281.31 492.5 281.75 493.04 281.85 493.79 282.29 494.5 282.63 495.38 282.56 495.24 282.78 495.04 283.1 494.16 283.37 493.11 283.3 492.87 282.93 492.27 282.76 491.59 282.56 491.15 282.29 490.95 281.75 490.68 281.24 490.27 280.87 489.59 280.67 488.78 280.56 487.87 280.4 487.29 280.33 485.74 280.8 482.62 282.12 481.24 282.9 480.43 283.67 478.94 286.17 478.06 286.98 477.62 287.83 477.38 288.81 477.35 289.62 477.58 290.77 478.09 291.99 478.97 293.27 479.75 294.05 479.95 295.03 480.26 296.78 480.36 297.9 480.9 298.85 481.71 300.16 482.19 300.87 482.56 301.35 483.03 302.43 483.61 303.17 483.61 303.2 483.67 303.58 483.98 304.69 484.38 305.74 484.82 306.95 485.13 307.53 485.23 308.07 485.36 308.68 485.2 308.81 485.16 309.22 485.33 309.32 485.36 309.62 485.47 310.13 485.57 310.43 485.43 310.77 485.26 311.25 484.32 312.5 483.06 313.21 481.41 313.88 480.56 313.96 479.89 314.02 478.87 314.25 478.4 314.56 477.69 315.03 476.64 316.38 476.16 317.6 475.72 318.61 475.72 319.49 475.96 320.34 476.47 321.08 477.55 321.52 479.65 322.06 480.63 322.3 480.97 322.6 481.37 322.63 481.95 322.63 483.06 322.77 484.21 323.55 485.2 324.39 486.08 324.96 486.85 326.11 487.33 326.82 487.83 328.07 488 329.63 488.1 331.49 488.44 332.91 489.02 334.22 489.39 335.64 489.8 336.72 490.74 338.41 491.01 339.21 491.28 340 490.71 339.49 489.63 337.7 488.61 335.64 487.46 332.77 486.92 331.79 486.92 330.84 487.19 329.73 487.02 327.9 486.14 326.21 485.26 325.47 485.13 325.57 485.2 326.38 484.86 326.55 484.65 325.54 484.08 324.56 483.44 324.02 482.42 323.68 481.1 323.48 478.84 323.14 476.81 322.87 475.01 322.06 474.27 321.45 474 320.77 474.04 320.39 474.07 320.07 474.13 318.88 474.13 318.14 474.13 318.11 474 317.46 474.47 316.48 475.01 315.27 475.72 314.52 476.74 313.85 478.7 312.83 480.02 311.92 481.54 311.28 482.69 310.81 483.3 310.03 483.54 309.22 483.2 308.1 482.49 306.55 482.05 305.94 481.51 304.69 480.8 303.44 480.05 302.73 479.62 302.46 478.67 301.85 477.45 301.11 476.23 300.43 475.39 299.89 474.95 299.32 474.61 298.78 473.93 298.34 473.72 298.21 473.32 297.97 473.19 297.8 473.12 297.39 472.92 297.19 472.68 296.92 472.48 296.48 472.38 296.28 472.17 295.77 472.17 295.5 472.31 295.09 472 294.76 472 294.61 471.94 293.51 471.9 292.59 471.67 292.19 471.53 292.09 471.8 291.65 471.94 290.9 471.83 290.26 471.77 289.62 471.87 288.78 471.83 287.83 471.83 287.05 472 286.48 472.54 285.7 472.71 285.06 472.48 284.18 471.97 283.5 471.87 282.76 472.21 281.95 472.85 281.38 473.36 280.7 473.86 280.29 474.44 279.69 474.61 279.11 474.95 278.6 475.62 278.17 475.89 277.69 476.37 277.32 476.94 277.08 478.13 277.12 479.24 277.29 480.16 277.25 481.2 277.29 482.32 277.62 483.47 277.76 484.38 277.42 485.09 276.95 485.5 276.44 485.53 276.1 485.2 275.9 484.69 275.56 484.45 274.92 484.38 274.28 484.69 273.33 484.93 272.12 485.36 271.17 486.38 269.75 487.6 268.47 488.44 267.56 488.68 267.35 489.09 267.25 489.43 267.43 489.66 267.56 489.86 267.29 489.95 266.99 490 266.85 490.24 266.54 490.46 266.47 490.54 266.44 490.54 266.22 490.54 266.17 490.37 266.07 490.34 265.7 490.4 265.16 490.37 264.35 490.13 263.53 489.69 262.45 489.36 261.41 488.95 260.46 488.21 259.28 487.73 258.6 487.6 258.03 487.53 257.18 487.53 256.13 487.29 254.85 486.85 253.77 486.72 253.19 486.85 252.25 487.16 250.9 487.16 250.02 487.26 249.17 487.53 248.67 487.94 248.33 487.73 247.79 486.58 246.84 485.91 246 485.53 245.42 484.42 244.48 483.4 243.63 482.83 242.96 482.05 242.48 481.71 241.84 481.61 241.3 480.83 240.86 480.16 240.05 478.7 238.7 477.48 237.58 476.84 237.08 476.37 236.81 476.13 236.74 475.66 236.91 475.25 237.21 474.95 237.48 474.95 237.89 475.15 238.39 475.59 238.94 475.59 239.34 475.15 239.95 474.84 240.59 474.54 241.1 474.47 241.64 474.34 242.35 474.24 242.55 474.44 243.13 474.17 243.53 473.78 243.06 473.46 242.69 473.46 242.15 473.39 241.54 472.98 240.9 473.39 240.62 473.76 239.81 473.76 239.24 473.49 238.6 472.98 237.96 472.88 237.45 473.02 236.77 473.12 236.23 472.82 235.73 472.82 234.81 472.61 234.24 472.21 233.77 471.33 233.5 469.94 233.36 468.49 233.16 466.63 232.68 465.2 232.21 463.95 231.67 463.14 231.54 462.26 231.67 461.65 232.25 461.31 232.92 461.25 233.83 461.38 234.37 461.38 234.68 461.15 234.91 460.91 235.46 460.6 236.06 460.23 236.57 459.66 237.18 458.85 237.69 458.03 237.99 457.46 238.39 456.92 238.67 456.38 238.87 455.53 239.58 454.89 239.78 454.58 240.02 454.65 240.69 454.85 241.4 454.82 242.01 454.82 242.35 454.99 242.99 454.97 243.14 454.96 243.26 454.55 242.75 454.14 242.55 453.74 242.18 453.47 241.6 453.06 241.3 452.59 241.2 452.28 241.03 452.05 241 451.84 241.23 451.84 241.67 451.74 241.98 451.54 242.35 451.47 242.72 451.2 243.16 450.63 243.46 450.15 243.67 449.81 244.04 449.2 244.31 448.49 244.54 447.89 244.61 447.14 244.61 446.3 244.71 444.74 244.54 442.41 244.14 441.15 244.07 440.71 244.27 440.48 244.61 440.58 244.98 440.95 245.32 440.48 245.36 439.67 244.95 439.23 244.44 439.09 243.8 438.85 243.36 438.11 242.89 436.82 242.38 435.57 242.15 434.79 242.15 434.05 242.42 433.54 242.72 433.27 242.31 431.99 242.01 431.04 241.64 430.09 241.67 429.11 241.44 428.1 240.96 426.98 240.35 426.17 239.95 425.29 239.21 423.84 237.72 422.41 235.96 421.47 234.1 420.99 232.45 420.49 230.96 419.91 230.15 419.23 229.88 418.42 229.81 417.65 229.81 416.7 229.91 415.68 229.78 414.63 229.2 414.03 228.87 413.35 228.97 412.4 229.31 412 229.78 411.35 230.39 411.18 231.1 411.49 231.94 412.23 233.16 412.98 233.93 413.48 235.08 414.36 235.93 415.82 237.41 418.46 239.92 419.23 240.22 420.22 241.13 421.1 241.67 422.01 241.88 423.53 241.88 423.57 241.97 423.7 242.28 423.63 242.75 423.43 243.56 422.85 244.65 421.81 245.66 421.06 246.4 420.25 246.88 419.37 247.38 419.63 246.98 420.08 246.3 421.4 244.98 422.31 243.8 422.25 242.96 422.08 242.65 421.64 242.65 421.06 242.82 420.28 242.55 419.4 242.08 419.07 241.67 418.9 241.23 418.39 241.03 417.27 240.22 415.01 238.5 413.42 237.08 411.62 235.29 411.11 234.93 411.11 234.89 411.15 234.68 410.71 233.87 409.94 232.87 409.63 232.39 409.15 232.22 409.01 231.97 409.12 231.6 409.09 231.04 408.81 230.62 408.64 230.25 408.53 229.43 408.42 228.65 408.16 227.83 407.77 227.41 407.34 227.12 407.32 227.1 407.37 226.7 407.94 226.11 408.25 225.27 408.5 224.62 408.84 224.23 409.32 224.23 409.66 224.28 409.71 223.97 410.47 223.32 411.74 222.96 413.69 222.85 415.18 223.13 416.03 223.44 416.48 224.25 417.07 224.48 418.76 224.39 419.75 224.51 420.28 224.87 420.65 225.27 421.5 225.61 422.51 226.42 423.84 227.21 424.93 228.22 425.44 229.72 425.61 230.62 425.44 231.27 425.53 231.74 425.98 232.03 426.46 232.17 426.6 232.76 426.77 233.57 426.82 234.14 427.36 234.59 427.33 234.95 427.58 235.43 428.29 235.85 428.57 236.31 429.25 236.7 430.12 236.64 430.37 237.07 431.08 237.4 431.87 237.91 432.32 238.14 433.02 238.14 433.93 237.94 435.17 237.8 436.18 237.8 437.11 237.54 437.79 237.38 438.49 237.15 439.06 236.92 440.13 236.59 440.89 236.22 441.37 236.14 441.99 235.8 442.16 235.49 442.67 235.12 443.48 234 443.68 233.69 443.65 233.38 443.31 233.24 442.36 232.79 441.23 232.31 440.07 231.49 438.97 230.17 438.21 228.62 437.65 227.27 437.25 226.51 437.06 225.46 437.08 224.65 437.34 223.86 437.9 222.9 438.18 221.83 437.99 221.21 437.48 220.57 437.11 219.89 436.94 219.27 437.03 218.48 437.39 217.78 438.04 217.21 438.52 216.74 438.97 215.86 439.71 214.74 440.61 213.75 441.09 212.91 441.68 211.95 442.36 211.3 444.36 210.4 446.13 209.39 447.03 208.77 447.2 208.09 446.92 207.53 446.33 207.3 445.82 206.96 445.46 206.2 444.64 204.99 443.51 203.39 442.78 202.52 442.47 201.45 442.38 200.07 442.58 198.91 442.52 198.04 442.33 197.5 441.76 197.19 441.18 197 441.09 196.97 440.66 196.71 440.35 196.26 440.27 195.59 440.44 194.97 440.58 194.1 440.47 193.12 440.47 193.11 440.33 192.46 440.35 191.79 440.66 191.25 441.11 190.89 441.28 190.44 441.68 190.27 441.66 190.02 441.69 189.61 441.28 189.14 440.84 188.46 440.64 187.79 440.64 186.94 440.74 186.4 440.51 186.13 439.9 185.93 439.12 185.32 438.31 184.75 437.6 184.31 437.06 184 436.21 183.4 435.67 182.92 435.06 182.55 434.18 182.38 433.06 182.38 432.12 182.35 431.54 182.55 431.04 182.82 430.56 183.29 430.02 183.6 429.51 183.94 429.11 184.17 429.4 183.72 429.41 183.7 430.12 183.02 430.63 182.45 430.97 181.67 431.31 181.4 431.71 181.3 432.35 181.37 433.2 181.27 433.81 181.1 434.38 181.1 434.76 181.3 435.37 181.3 435.97 181.17 436.55 181.23 437.19 181.23 437.77 181.44 438 181.77 438.24 182.01 438.61 182.21 439.05 182.35 439.19 182.11 439.12 181.77 438.82 181.23 438.07 180.69 437.39 180.32 437.06 179.81 436.82 179.04 436.85 178.36 437.02 177.69 437.36 177.18 437.7 176.87 438 176.17 438.48 175.62 438.88 175.22 438.26 174.96 437.38 174.72 437.01 174.48 436.81 174.38 436.5 174.52 436.26 174.85 435.69 175.16 434.84 175.36 434.3 175.6 433.86 175.7 433.49 176.07 432.81 176.51 432.37 176.61 431.43 176.44 430.41 176.1 429.57 175.83 428.96 175.36 428.42 174.75 428.11 174.35 427.61 174.04 426.89 174.14 426.56 174.58 426.08 174.79 425.51 175.09 425.14 175.43 424.66 176.04 424.05 176.24 423.41 176.54 423.75 176.04 424.02 175.89 424.32 175.73 424.32 175.58 424.29 175.08 424.27 174.77 424.28 174.76 424.5 174.46 424.87 174.26 425.32 174.26 425.66 174.07 425.63 173.67 425.37 173.53 424.95 173.62 424.49 174 424.44 174.04 423.8 174.4 422.84 174.63 421.99 174.6 421.37 174.57 420.89 174.88 419.85 175.25 418.78 175.42 417.71 175.87 417.93 175.39 418.38 175.16 418.83 174.97 419.31 174.66 419.62 174.29 419.88 173.87 420.33 173.59 420.72 173.56 421.12 173.56 421.68 173.31 422.13 173.31 422.89 173.48 423.6 173.25 423.99 172.71 424.44 172.52 424.96 172.38 425.68 172.43 426.19 172.57 426.7 172.6 427.09 172.38 427.14 172.3 427.26 172.1 427.26 172.1 427.55 172.04 428.56 172.27 429.35 173.51 429.49 173.81 429.91 174.21 430.48 174.29 431.12 173.93 431.74 173.67 432.31 173.59 432.76 173.7 433.15 173.53 433.13 172.94 432.96 172.41 433.63 172.71 434 172.86 434.14 172.81 434.29 172.75 434.56 172.66 434.91 172.23 435.01 172.1 435.44 171.62 435.97 171.28 436.51 171.34 437.21 171.45 438.28 171.64 438.68 171.84 438.78 171.88 439.02 171.98 439.06 171.96 439.47 171.79 439.93 171.47 440.37 170.86 440.41 170.42 440.37 169.98 440.61 169.37 441.62 168.93 442.47 168.39 443.35 167.92 444.7 167.58 445.51 167.58 446.02 167.38 446.29 167.01 446.46 166.47 446.87 165.72 448.29 164.81 449.54 164.1 449.84 163.63 450.15 163.09 450.35 162.45 450.49 161.7 450.55 161.2 450.69 160.69 450.55 159.91 450.42 159.27 450.21 159.2 449.87 159.23 449.39 159.42 449.08 159.82 448.74 160.49 448.35 161.14 447.92 161.4 447.22 161.56 446.71 161.65 446.32 162.1 446.23 162.61 445.73 162.94 445.16 163.23 444.46 163.56 443.72 163.85 443.58 163.68 443.75 163.51 444.12 163.37 444.4 163.03 444.74 162.52 444.96 162.18 445.02 161.82 445.11 161.56 445.25 161.23 445.13 160.86 444.8 160.78 444.51 160.86 444.26 160.75 444.2 160.38 444.29 160.07 444.54 159.85 445.08 159.68 445.64 159.76 446.06 159.85 446.43 159.79 446.52 159.37 446.6 158.89 446.68 158.24 446.77 157.88 446.9 157.34 446.63 156.97 446.05 156.8 445.72 156.67 445.55 156.23 445.88 155.96 446.02 155.49 445.78 154.98 445.21 154.51 444.67 154.54 444.36 154.88 444.16 155.49 443.58 155.99 442.84 156.4 441.83 156.5 441.01 156.6 440.34 156.74 440.61 156.33 441.62 155.86 442.23 155.38 442.33 154.67 442.13 154.1 441.62 153.83 441.12 153.42 440.71 152.82 441.39 152.95 442.5 152.82 443.21 152.71 443.45 152.31 443.25 151.43 443.15 150.76 442.67 150.11 442.16 149.71 442.06 149.3 441.25 148.76 441.15 148.49 440.95 147.85 440.27 146.43 439.86 145.28 439.53 143.66 439.32 142.58 439.16 141.85 438.68 141.38 438.48 140.57 438.55 139.76 438.62 138.94 439.16 138.34 439.63 137.86 439.63 137.12 439.43 136.51 439.7 135.9 440.17 135.16 440.17 134.55 439.7 133.94 439.9 133.54 440.31 132.93 440.65 132.25 441.32 131.98 442 132.19 442.47 131.85 442.88 131.11 443.62 130.29 444.91 129.75 445.99 129.55 447.07 129.08 447.68 128.61 447.68 128.13 447.07 127.59 446.19 127.12 445.31 126.71 444.77 126.17 444.03 125.97 443.56 125.63 443.56 125.23 443.76 124.48 443.76 123.54 443.22 122.66 442.68 121.98 441.93 121.78 441.73 122.12 441.32 122.59 441.25 123.13 440.44 123.87 439.16 125.02 438.75 125.77 437.06 126.44 435.03 127.05 432.87 127.12 430.97 126.85 429.01 127.12 427.39 127.52 425.69 128.13 423.39 128.33 421.7 128.13 420.42 127.66 419.94 127.12 420.22 126.92 421.23 126.85 422.04 126.51 422.58 126.04 422.85 125.29 422.79 124.89 422.45 124.28 421.5 123.87 420.28 123.4 418.66 123.33 417.64 123.06 416.76 122.32 416.09 122.12 415.41 122.52 414.67 123.13 413.25 123.74 411.76 123.73 410.69 123.25 409.9 122.97 409.9 123.19 410.04 123.7 409.95 124.12 409.7 124.51 409.59 125.02 409.7 125.53 410.15 126.15 410.69 126.63 411.31 126.85 411.84 127.16 412.66 127.39 412.72 127.78 412.27 127.81 411.14 127.86 409.95 127.47 409.08 127.05 408.24 126.63 407.42 126.63 406.46 126.65 405.84 126.4 405.05 126.23 404.29 126.43 404.01 126.63 403.61 127.16 403.5 127.53 403.61 127.84 403.53 128.17 403.44 128.43 403.44 128.68 403.53 128.91 403.33 129.05 402.99 128.96 402.77 128.77 402.74 128.48 402.79 128.23 402.99 128.06 403.02 127.81 402.77 127.7 402.4 127.98 402.17 128.17 402.06 128.51 401.67 128.91 401.27 128.82 401.36 128.48 401.5 128.23 401.5 127.95 401.61 127.72 402.12 127.47 402.46 127.16 402.96 126.74 403.3 125.98 403.58 125.7 403.92 125.33 404.6 125.25 405.22 125.3 405.59 125.25 405.92 125.08 406.29 125.02 406.37 124.82 406.29 124.63 405.92 124.37 405.53 123.87 405.16 122.91 404.97 122.06 405.08 121.5 405.28 121.16 405.42 120.97 405.28 120.83 404.71 120.71 403.53 120.71 401.5 120.4 399.67 120.12 398.03 119.92 396.93 119.87 395.72 120.06 394.42 120.49 392.25 120.85 389.52 121.47 387.69 122.01 386.5 122.26 385.57 122.4 384.64 122.71 383.57 122.66 382.56 122.71 381.29 123.25 380.67 123.89 380.16 124.85 379.45 125.41 378.67 126.43 377.71 128.34 377.12 129.75 376.92 130.46 376.75 131.16 376.52 131.5 376.02 131.86 375.54 132.26 375.2 132.93 374.92 133.61 374.49 134.23 374.04 134.76 373.85 135.38 373.79 135.95 373.99 136.79 374.01 137.21 373.87 137.35 373.51 137.1 373.2 136.96 372.63 137.07 372.32 137.35 372.1 137.8 371.82 138.31 371.42 138.82 371.28 139.27 371.22 139.75 370.94 140 370.46 140.37 370.15 140.73 369.7 141.13 369.42 141.49 368.86 141.89 368.46 142.23 367.76 142.87 366.97 143.3 366.07 143.58 365.36 143.97 364.68 144.65 363.92 145.01 363.27 145.29 362.82 145.63 362.29 145.77 361.61 145.77 361.22 145.77 360.88 146.03 360.79 146.39 360.65 146.84 360.29 147.43 360.12 147.97 360 148.7 360.09 149.1 360.31 149.41 360.85 149.66 361.41 149.86 362.06 150.17 362.43 150.64 362.8 150.95 363.19 151.35 363.5 151.74 363.84 152.17 364.2 152.64 364.54 153.07 364.71 153.52 364.68 153.52 364.46 153.57 364.12 153.29 363.78 153.09 363.25 152.84 362.68 152.47 362.12 152.17 361.7 152.19 361.1 152.11 360.62 152 360.31 152.19 360.15 152.53 360.17 152.87 360.29 153.12 360.54 153.35 360.51 153.54 360.26 153.57 359.84 153.49 359.44 153.32 359.16 152.98 358.85 152.78 358.51 152.81 358.29 153.07 358.14 153.49 357.89 153.74 357.24 153.94 356.71 154.08 356.45 154.28 356.37 154.61 356.06 154.95 355.3 155.26 354.76 155.54 354.51 155.85 354.54 156.22 354.54 156.59 354.37 156.98 353.83 157.21 353.47 157.12 353.44 156.95 353.75 156.7 353.78 156.45 353.66 156.22 353.55 156.11 353.38 155.6 353.52 155.23 353.83 155.07 354.34 154.84 354.71 154.45 354.96 154.11 354.99 153.8 355.04 153.4 355.3 153.04 355.52 152.87 355.83 152.56 356 152.19 356.26 151.8 356.65 151.49 357.07 151.35 357.16 151.01 357.16 150.45 357.13 149.97 356.96 149.18 356.71 148.34 356.59 147.8 356.71 147.18 356.71 146.68 356.6 146.46 356.4 146.43 355.98 146.46 355.13 146.4 354.01 146.51 353.33 146.63 352.31 146.54 350.96 146.57 350.45 146.63 349.69 146.43 348.96 146.34 348.57 146.32 347.97 145.95 347.35 145.78 346.79 145.75 345.84 145.67 345.21 145.67 344.8 145.99 344.12 146.75 343.81 147.34 343.76 147.79 343.85 148.38 344.17 149.1 344.71 150.04 345.25 150.67 346.06 151.35 346.65 151.98 346.92 152.7 347.28 153.11 347.37 153.47 347.24 153.83 346.87 154.32 346.06 154.82 345.75 155.27 345.57 156.04 345.48 156.62 345.25 156.85 344.39 157.07 343.58 157.52 343.09 158.29 342.05 159.1 342.23 158.29 342.27 157.43 342.68 156.85 343.18 155.99 343.31 154.55 343.67 153.92 344.03 153.11 343.85 152.39 343.31 151.89 342.36 150.9 341.64 150.18 341.46 149.37 340.88 148.06 340.47 146.89 340.61 146.21 340.52 145.81 339.21 145.99 337.76 145.99 336.82 145.99 337.99 144.86 338.98 144.32 339.39 143.65 339.39 142.65 338.58 141.98 337.58 141.3 336.1 140.4 334.47 139.5 333.25 138.51 332.49 138.06 331.81 138.15 331.4 138.87 331.4 139.64 331.81 140.22 331.81 140.9 330.95 141.89 330.19 143.15 329.92 144.28 330.23 144.64 330.28 145.31 330.01 145.76 328.65 146.35 327.66 146.44 327.08 146.93 327.21 146.08 327.57 145.58 328.07 144.95 328.11 144.37 328.86 143.53 329 143 329.08 142.15 329.28 141.42 329.17 140.72 328.8 139.87 328.4 139.03 328.12 138.3 327.64 137.42 327.19 136.75 326.77 136.32 326.74 136.04 327.19 135.82 327.7 135.68 328.24 135.76 328.8 135.42 329.14 134.8 329.14 133.87 328.86 132.92 328.24 131.54 327.84 130.1 327.36 129.2 326.52 127.06 325.81 125.76 325.25 125.37 324.01 124.98 322.65 124.86 321.44 125.26 320.74 125.85 320.46 126.53 320.2 126.1 320.17 125.48 320.23 124.75 320.17 124.16 319.83 123.74 319.67 123.23 319.78 122.55 319.98 122.02 320.2 121.63 320.2 121.23 319.89 120.81 319.13 120.25 318.85 119.71 318.54 119.37 318.17 118.92 317.52 118.53 316.96 118.64 316.45 119.01 315.69 119.06 314.87 119.15 314.45 119.32 313.86 119.49 312.99 119.51 312.05 119.77 311.18 119.68 310.34 119.8 309.63 120.27 308.9 120.87 308 121.51 307.54 122.02 307.43 122.58 307.43 123.34 307.49 123.85 307.29 124.55 306.98 125.26 306.73 125.23 306.67 124.84 306.47 124.58 306.08 124.16 305.83 123.82 305.63 123.4 305.77 123.09 305.91 122.55 305.91 121.88 305.85 121.2 305.63 120.58 305.35 119.77 305.35 119.32 305.46 118.87 305.26 118.44 304.58 118.05 303.57 117.94 302.53 118.11 301.54 118.31 300.36 118 299.01 117.5 297.3 117.09 296.12 116.96 294.77 116.46 292.24 115.83 290.76 115.7 289.67 115.16 288.77 114.71 287.1 114.35 285.79 113.99 284.85 113.4 283.63 113.13 282.05 112.81 280.74 112.23 279.12 111.55 277.86 110.92 276.82 110.92 275.69 110.79 274.43 110.97 273.57 111.15 272.76 111.1 271.95 110.79 270.96 110.65 270.37 110.74 270.05 110.97 270.51 111.33 270.78 111.69 271.09 112.05 271.05 112.59 270.64 112.9 269.83 113.39 269.22 113.73 268.92 114.17 268.99 114.64 269.09 115.08 269.29 115.22 269.66 115.35 270.14 115.45 270.48 115.96 270.71 116.6 271.05 117.11 271.46 117.38 271.96 117.75 272.13 118.22 272 118.73 271.69 119.51 271.42 120.39 271.49 120.93 271.9 121.16 272.25 121.67 271.56 121.57 270.75 121.3 270.17 121.03 269.97 120.49 269.83 119.78 269.63 119 269.29 118.59 268.78 118.22 268.31 118.02 267.91 118.12 267.84 118.53 267.53 118.93 267.8 119.34 267.74 119.74 267.57 120.25 267.4 120.72 267.26 121.2 266.92 121.5 267.09 121.77 267.09 122.11 266.99 122.78 266.35 123.39 265.61 123.87 265.4 124.27 265.74 124.39 265.85 124.79 265.62 125.18 265.12 125.46 264.44 125.63 264.27 125.97 263.76 126.48 263.26 127.15 263.09 127.6 263.03 128.22 262.81 128.56 262.02 129.58 261.34 130.48 260.61 130.7 260.21 130.42 259.82 130.03 259.14 129.58 258.13 129.46 256.77 129.97 255.65 130.7 254.97 131.72 254.24 133.29 253.56 134.25 252.15 135.55 251.14 136.39 250.52 137.35 250.06 138.25 250.23 138.81 249.95 139.6 249.56 140.56 248.6 141.63 247.7 142.3 246.74 142.98 246.46 143.82 246.23 144.73 246.34 145.23 246.91 145.46 247.42 145.8 248.04 146.41 248.32 147.37 248.32 147.71 248.32 148.16 247.98 148.33 247.19 147.94 246.4 147.54 245.27 147.37 244.31 147.34 243.57 147.34 242.96 147.47 242.45 147.81 241.98 148.22 241.71 148.86 241.47 149.43 241.1 149.74 240.73 149.74 240.32 149.4 240.08 149.03 240.02 148.55 240.08 148.22 240.29 147.84 240.42 147.44 240.49 146.83 240.46 146.29 240.25 145.75 239.75 145.51 239.54 145.68 239.24 146.02 238.93 146.36 238.53 146.53 238.33 146.43 238.02 145.99 237.82 145.51 237.85 144.84 237.94 144.31 237.96 143.5 237.71 142.84 236.6 141.51 235.21 140.3 233.72 139.13 232.5 138.45 230.18 137.82 228.1 137.26 226.59 136.54 225.44 135.84 224.34 135.57 223.89 135.27 223.1 134.76 221.32 133.97 219.92 133.38 218.34 133.27 217.28 133.36 216.29 133.65 215.5 134.17 214.96 134.76 214.8 135.3 215 135.77 215.52 135.99 216.2 136.26 216.89 136.64 217.26 137.18 217.43 137.6 217.43 138.05 217.29 138.33 217.06 138.73 216.84 139.15 216.61 139.49 216.4 139.85 216.27 140.59 216.47 141.4 216.74 141.67 217.28 142.55 217.76 143.56 217.69 144.44 217.59 144.44 217.42 144.44 217.22 143.7 216.75 143.06 216.16 142.56 215.54 141.85 215.21 141.3 215.03 141.01 214.89 140.5 214.75 139.68 214.82 139.19 214.89 138.93 214.95 138.73 214.95 138.72 215.26 138.38 215.54 138.33 215.59 138.32 216.14 138.21 216.24 138.01 216.03 137.74 215.46 137.64 214.67 137.41 213.43 137.19 212.75 136.74 212.53 135.61 212.86 134.6 213.54 133.92 214.78 133.02 215.5 132.68 216.1 132.34 216.91 132.03 217.45 131.86 217.89 131.93 218.57 131.83 219.11 131.66 219.43 131.69 219.79 131.73 220.3 131.83 220.74 131.71 220.94 131.66 221.65 131.86 222.39 131.86 222.87 131.93 223.21 132.1 223.71 132.35 223.81 132.4 224.29 132.54 224.52 132.61 225.17 132.88 226.72 133.72 228.01 134.02 228.41 134.06 228.65 134.6 228.99 134.26 228.91 133.93 228.69 133.38 228.45 132.67 228.48 131.79 228.65 130.98 229.09 130 229.44 128.52 229.44 127.16 229.33 125.81 228.76 125.14 228.42 123.79 228.65 122.43 228.87 121.08 228.87 120.07 229.02 118.31 228.97 117.14 228.7 115.78 227.98 114.75 227.3 114.21 226.4 113.85 225.45 113.4 224.78 112.86 224.42 112 224.37 111.5 224.28 110.69 223.92 110.06 223.38 109.7 222.3 109.07 221.4 108.44 220.58 108.17 219.59 107.99 218.42 108.22 217.47 108.67 216.52 108.67 215.94 108.26 214.5 107.99 213.5 107.81 212.96 107.45 212.6 106.95 212.66 106.74 212.69 106.64 213.46 106.32 214.31 106.32 215.44 106.32 216.84 106.23 217.74 106.14 218.46 105.69 219.05 105.42 219.73 105.42 220.31 105.69 220.85 106.05 221.58 106.28 222.16 106.68 222.97 107.09 223.7 107.63 223.83 108.04 224.37 108.44 224.96 108.94 225.82 109.34 226.45 109.75 226.72 109.34 226.94 108.44 226.99 107.49 227.12 106.64 227.44 105.78 227.53 105.15 227.26 104.43 226.81 103.71 225.82 102.81 224.33 101.55 223.38 100.6 221.44 99.47 219.41 98.12 217.7 96.82 215.85 95.51 214.18 93.93 212.6 92.9 210.75 91.41 209.49 90.69 208.54 90.73 207.87 91.28 207.01 91.91 205.75 92.45 204.84 92.81 204.44 93.39 204.26 93.93 204.44 94.25 204.48 94.83 203.99 94.74 203.31 94.47 202.59 93.53 202.45 92.99 202.5 92.67 202.9 92.4 203.45 92.13 203.63 91.68 204.03 91.14 204.8 90.96 205.29 90.46 205.34 89.74 205.29 88.44 205.07 87.54 204.12 86.63 202.81 86.09 201.1 85.28 199.43 84.43 198.35 83.48 197.22 82.53 196.09 82.26 195.55 81.68 194.61 81 193.88 80.28 193.21 80.1 192.62 80.24 191.85 79.88 190.64 79.61 189.46 78.89 188.29 77.89 187.7 76.86 186.89 76 185.94 75.36 184.73 74.69 183.6 74.52 182.56 74.52 181.74 74.8 181.29 75.14 180.9 75.64 180.53 75.87 180.42 75.75 180.31 75.64 180.42 75.33 180.56 74.85 180.73 74.66 180.98 74.32 181.15 73.95 181.57 73.64 181.74 73.17 181.66 72.55 181.32 71.9 180.73 71.17 179.6 70.32 178.5 69.81 177.66 69.56 176.9 69.22 175.54 68.97 174.02 68.72 172.44 68.8 171.57 68.55 170.47 68.58 169.59 68.8 168.64 68.89 167.88 69.14 167.03 69.19 166.95 68.94 166.78 68.55 166.32 68.32 165.9 68.07 165.82 67.84 165.7 67.62 165.31 67.45 164.86 67.45 164.61 67.73 164.1 68.04 163.79 68.01 163.39 68.18 163.06 68.49 162.69 68.55 161.93 68.89 161.19 69.17 160.41 69.17 159.79 69.25 159.5 69.5 158.94 69.81 158.4 69.96 157.76 69.93 156.74 70.07 155.9 69.96 155.05 69.81 154.63 69.59 153.67 69.56 153.27 69.67 152.85 69.62 152.17 69.48 151.3 69.48 150.71 69.53 150.03 69.56 149.67 69.48 149.52 69.31 149.24 69.14 148.82 69.17 148 69.22 147.27 69.31 146.14 69.42 145.41 69.34 144.82 69.5 144.14 69.31 142.96 69.34 141.91 69.48 140.79 69.56 139.83 69.73 138.87 69.62 137.69 69.62 136.3 69.36 134.95 69.14 134.02 69 133.4 68.89 132.89 68.63 132.22 68.15 131.37 67.76 130.22 67.45 129.6 67.2 129.14 66.97 128.27 66.55 127.23 66.1 126.35 65.51 125.28 65.14 124.58 64.94 124.16 65 123.79 64.94 123.7 64.72 123.25 64.3 122.44 63.79 121.17 63.11 118.86 62.07 117.45 61.31 116.63 60.8 116.01 60.32 115.59 59.9 114.97 59.79 114.2 59.82 113.56 59.59 113.11 59.28 112.6 58.97 112.2 58.92 111.86 58.58 111.24 58.55 110.68 58.44 109.98 58.47 109.53 58.61 108.88 58.58 108.29 58.52 107.98 58.35 107.47 58.07 106.76 57.99 105.92 57.99 105.1 57.9 104.4 57.71 103.77 57.48 103.18 57.28 102.22 57.42 101.55 57.48 100.96 57.42 100.45 57.37 99.91 57.66 99.16 58.03 98.55 58.57 97.71 59.04 96.39 60.16 95.84 60.58 95.65 60.73 94.87 61 93.89 61.44 93.11 62.02 92.33 62.72 91.59 63.23 90.74 63.5 89.83 63.74 89.02 64.14 87.9 64.75 87.19 65.46 86.44 66.1 85.84 66.61 85.53 66.64 84.99 66.88 84.72 67.56 84.52 68.37 84.38 68.91 84.25 69.55 84.14 70.16 83.5 71.34 83.03 72.39 82.39 74.38 81.57 75.8 80.9 76.88 80.73 77.79 80.56 79.11 79.98 80.13 79.41 81.55 79.17 82.19 79.38 82.49 79.61 82.69 79.75 82.9 79.31 82.93 78.87 83 78.56 83.27 77.85 84.49 77.01 85.53 76.13 87.05 75.45 88.03 74.94 88.51 74.17 89.45 73.9 90.06 73.93 90.57 73.96 91.34 73.73 91.75 73.42 92.43 72.68 93.17 71.73 94.12 70.44 95.2 69.33 95.91 68.28 96.21 67.71 96.48 66.76 96.72 65.98 97.19 64.97 97.7 64.15 98.1 63.61 98.51 62.53 98.85 61.35 99.18 60.6 99.52 60.06 99.86 59.59 100.23 59.15 100.37 58.71 100.67 58.37 101.04 58.17 101.38 57.59 101.72 57.02 102.06 56.51 102.6 56.2 103.14 56.17 103.48 56.37 103.85 56.44 104.29 56.34 104.62 56.3 104.66 55.9 105.03 55.47 105.14 54.39 105.69 53.71 106 52.9 106.23 52.18 106.41 51.59 106.32 51 106.32 50.42 106.32 49.56 106.54 48.75 106.99 47.98 107.31 46.22 107.49 45.14 107.76 44.69 108.21 44.47 108.78 44.5 109.79 44.57 110.57 44.53 110.98 44.67 111.31 44.84 111.92 45.35 112.33 46.33 112.7 47.71 113.44 48.63 114.02 49.34 114.9 49.91 115.91 50.28 117.03 50.25 118 50.39 118.78 51.03 119.46 51.67 120 51.91 120.47 51.94 121.08 52.25 121.49 52.45 121.79 52.56 122.27 52.65 122.95 52.99 123.76 53.26 124.37 53.32 125.59 52.92 126.2 52.24 126.94 51.97 127.89 51.36 128.83 50.35 129.17 48.39 129.37 45.81 129.37 43.04 129.1 41.21 129.1 38.98 129.17 37.7 128.83 35.6 129.1 34.38 128.77 33.23 129.04 31.61 129.1 28.43 129.24 25.38 129.44 23.22 129.04 21.53 128.97 18.89 128.97 16.45 128.36 14.69 127.48 13.27 126.47 12.06 125.39 11.04 124.37 9.69 123.56 8.54 122.48 8.34 121.4 8.54 120.05 9.15 118.63 9.82 117.41 10.09 116.26 10.91 114.44 12.33 112.88 13.21 111.6 13.41 110.25 12.94 108.9 12.6 107.34 12.12 105.32 11.38 104.23 10.64 103.42 10.23 102.14 9.28 99.91 8.61 98.02 8.13 97.54 7.73 96.26 7.05 95.65 5.9 94.16 5.02 93.08 4.01 91.33 3.53 90.18 2.99 90.04 2.72 89.64 2.45 89.03 1.71 88.56 1 87.77 1.64 87.74 3.4 88.89 5.22 90.72 7.25 92.21 8.4 93.29 8.61 94.37 8.88 95.38 9.89 96.73 10.7 98.63 11.24 100.18 11.85 101.46 12.26 102.54 13 103.36 13.95 104.84 14.09 105.86 14.02 106.46 14.42 107.14 15.17 108.36 15.84 110.11 15.98 111.13 15.51 111.8 14.63 112.55 14.29 113.43 14.02 114.37 13.21 115.25 12.73 116.2 12.53 117.14 12.53 118.22 12.53 119.57 12.73 121.74 12.8 123.09 13.41 124.24 14.49 125.05 14.69 125.66 15.98 126 16.79 126.6 17.81 126.47 19.57 126.81 21.12 127.08 22.61 127.35 24.03 127.41 25.92 127.55 29.51 127.21 30.4 127.37 31.04 127.33 31.88 127.26 32.63 127.2 33.27 127.23 33.91 127.09 33.94 127.1 34.56 127.13 35.2 127.23 36.52 127.09 37.67 126.86 38.55 126.82 39.16 126.96 39.53 127.06 40 126.93 40.2 126.86 40.54 126.96 41.12 127.09 41.69 127.09 42 126.99 42.37 126.99 42.74 127.16 43.05 127.16 43.55 127.13 43.86 127.03 44.64 127.06 45.65 127.3 46.6 127.23 47.38 126.86 48.36 126.35 49.27 125.78 50.01 124.97 50.25 124.43 50.18 123.88 49.95 123.14 49.74 122.57 49.68 122.03 49.68 121.72 49.47 121.52 49.44 121.25 49.34 120.91 49.24 120.61 49.07 120.47 49.03 120.2 48.83 119.86 48.66 119.59 48.63 119.29 48.42 119.02 48.36 118.68 48.26 118.31 48.02 117.94 47.85 117.7 47.58 117.36 47.17 117.19 46.8 116.89 45.48 115.64 44.03 114.25 42.78 113.27 41.93 112.63 41.76 112.06 41.63 111.62 41.39 111.18 41.08 110.91 40.85 110.54 40.68 109.73 40.68 109.22 40.75 108.85 40.85 108.04 41.25 107.02 41.69 106.52 41.96 106.14 42.54 106.11 43.08 106.01 43.52 105.74 44.09 105.81 44.94 105.47 45.99 105.06 46.7 104.69 48.19 104.56 49.71 104.69 50.42 104.56 51.13 104.29 52.15 103.78 52.58 103.37 52.89 103.04 53.46 102.9 54.17 102.77 54.92 102.66 55.26 102.33 55.6 101.95 56.1 101.38 56.58 100.7 56.95 100.4 57.15 100.16 57.59 99.79 58.3 99.18 58.34 98.95 58.13 98.64 58.17 98.24 58.5 97.93 59.08 97.8 59.79 97.63 60.06 97.36 60.47 97.16 61.45 96.89 61.79 96.58 62.83 96.35 63.51 96.04 64.05 95.8 63.98 95.6 64.12 95.26 64.63 94.62 66.22 93.47 67.6 92.59 68.01 92.43 68.52 91.89 68.82 91.01 69.02 90.53 69.06 89.96 69.26 89.28 70.14 88.61 70.95 87.73 71.9 86.58 72.2 85.97 72.24 85.36 72.44 84.52 73.32 83 74.33 81.48 74.71 80.33 74.88 79.08 74.91 78.37 75.25 77.22 75.35 76.48 75.35 75.46 75.42 74.79 75.55 73.77 75.65 72.79 75.89 71.95 76.23 70.67 76.77 69.45 77.38 68.64 77.95 68.23 78.43 67.59 78.6 67.05 78.9 66.51 79.41 66.17 79.95 65.5 80.46 64.92 81.1 64.35 81.71 63.84 82.45 63.23 82.79 62.99 82.93 62.66 83.27 62.42 83.77 62.15 83.91 61.74 84.01 61.34 84.14 60.87 84.25 60.36 84.35 59.92 84.48 59.31 84.75 58.64 85.16 58.13 85.57 57.62 86.17 57.32 86.68 57.12 87.43 56.91 88.27 56.68 88.98 56.47 90 56.03 90.64 55.73 91.28 55.59 91.96 55.49 92.43 55.26 92.6 54.95 92.43 54.51 92.2 54.18 91.59 53.84 90.74 53.57 89.66 53.26 89.02 53.06 88.44 52.96 87.9 52.69 87.09 52.59 86.48 52.45 86.17 52.25 85.57 52.25 85.13 52.42 84.48 52.18 84.11 51.81 83.94 51.68 84.13 51.63 84.38 51.72 84.67 51.87 84.97 51.94 85.33 51.97 85.72 51.9 86.22 51.85 86.7 52 87.31 52.02 88.13 52 88.74 52.17 89.77 52.48 90.82 52.92 91.63 53.14 92.38 53.46 93.12 53.78 94.25 54.11 95.2 54.21 96.15 54.11 97.06 54.01 97.84 53.9 98.45 53.9 98.85 54.01 99.23 53.97 100.24 54.01 100.84 54.02 101.52 54.19 101.83 54.07 102.28 54.05 102.65 53.93 103.07 53.85 103.49 53.82 103.8 53.82 104.23 53.9 104.54 53.82 105.18 53.88 105.83 53.99 106.42 54.19 106.79 54.36 106.96 54.58 107.07 54.75 107.5 54.75 107.89 54.75 108.4 54.83 108.85 54.83 109.22 54.69 109.38 54.95 109.81 55.03 110.34 55.03 110.85 55.26 111.44 55.34 112.15 55.34 112.51 55.54 113.02 55.51 113.47 55.45 113.81 55.59 114.18 55.68 114.51 55.62 115.39 55.9 116.04 56.19 116.71 56.3 117.64 56.69 118.94 57.06 119.67 57.17 120.41 57.42 121.05 57.59 121.53 57.73 121.96 57.71 122.18 57.71 122.6 57.99 123.17 58.35 123.65 58.58 124.3 58.72 125.09 59.09 125.73 59.45 126.3 59.68 126.8 59.71 127.26 59.87 127.99 60.16 129.26 60.38 130.38 60.49 131.34 60.66 132.33 60.83 132.67 60.66 132.92 60.49 133.6 60.24 134.02 60.02 134.11 59.4 134.22 59 134.53 58.72 134.98 58.66 134.78 59 134.75 59.48 134.78 60.02 134.53 60.72 134.36 61 134.36 61.31 134.64 61.68 135.29 61.96 136.47 62.3 137.77 62.69 139.49 63.14 140.53 63.42 141.55 63.39 143.21 63.68 144 63.96 144.68 63.87 145.72 63.84 146.56 63.68 147.16 63.48 147.97 63.39 148.39 63.28 148.7 62.94 149.12 62.88 149.43 63.05 150.16 63.11 151.01 63.02 151.83 62.94 152.87 63.08 153.46 63.25 153.91 63.31 154.39 63.28 154.53 63.53 154.9 63.7 155.15 63.53 155.49 63.33 155.74 63.19 155.82 63.23 155.91 63.28 156.08 63.81 156.28 64.29 156.79 64.8 157.29 64.97 157.63 64.85 157.77 64.6 158.22 64.46 158.76 64.35 159.66 64.32 160.48 64.46 161.04 64.57 161.8 64.74 162.76 64.69 163.21 64.49 163.58 64.21 164.4 63.78 164.96 63.16 165.21 62.77 165.61 62.29 165.98 62.01 166.51 62.04 167.22 62.12 168.12 62.24 169.1 62.26 170.01 62.12 170.68 61.87 170.94 61.7 171.33 61.56 172.23 61.53 173.11 61.59 174.6 61.84 176.1 62.12 177.79 62.29 179.22 62.49 180.63 62.74 181.99 63.25 183.42 64.29 183.65 64.71 184.02 65.16 184.21 65.61 184.5 66.12 184.89 66.35 185.23 66.66 186.19 66.97 187.29 67.53 188.47 67.98 189.17 68.46 189.85 69.08 190.11 69.53 190.25 70.09 190.27 70.63 190.5 70.91 190.7 71.22 190.61 71.64 190.25 72.01 190.27 72.37 190.13 72.77 190.27 73.08 190.78 73.16 191.18 73.22 191.71 73.41 192.02 73.33 192.36 73.53 192.95 73.98 193.71 74.32 194.59 74.46 195.04 74.48 195.32 74.4 195.6 74.63 196.02 75.02 196.98 75.39 197.86 75.67 198.76 75.84 199.52 76.06 200 76.34 200.51 76.65 201.1 76.99 201.4 77.39 201.74 77.33 201.87 77.12 202.28 77.12 202.69 77.43 203.13 77.87 203.97 78.41 204.72 79.12 205.02 79.46 205.22 79.9 205.16 80.06 205.49 80.37 206.24 80.3 207.15 80.67 207.9 81.11 208.4 81.65 208.67 82.02 209.05 82.13 209.52 82.5 209.65 82.8 209.86 82.94 210.2 83 210.47 83.31 211.45 83.46 211.95 83.4 212.63 83.79 212.97 84.3 213.59 84.41 214.15 84.98 215.56 85.71 217.31 86.22 218.83 86.78 219.45 87.51 219.62 88.13 220.47 88.47 221.82 88.97 223.4 89.65 224.13 90.16 224.47 91 224.98 91.51 225.82 92.07 227.23 92.58 228.13 93.14 229.09 93.71 229.88 93.82 231.46 94.89 232.59 96.01 233.49 96.41 234.22 97.14 236.14 98.44 237.04 99.17 237.55 99.73 237.55 100.18 237.94 100.58 238.4 100.8 239.52 100.97 240.88 101.48 241.61 101.87 242.29 102.15 242.29 101.59 242.06 101.14 242.12 100.69 242.45 100.18 242.74 99.39 243.58 99.06 244.54 98.72 244.82 98.21 245.16 97.76 245.61 97.48 246.46 97.31 246.96 97.31 247.02 96.86 246.68 96.35 246.12 96.07 245.61 95.51 245.1 95 244.54 94.21 243.41 93.48 242 93.14 241.04 93.03 239.92 93.2 239.13 93.37 238.28 93.09 237.66 92.64 237.38 92.07 237.61 91.34 238.28 90.44 238.9 89.48 239.13 88.75 239.18 87.96 239.3 87.57 239.64 87.4 239.78 87.4 240.03 87.4 240.15 87.8 240.02 88.48 239.68 89.36 239.37 90.1 238.97 90.85 238.66 91.49 238.63 92.1 238.6 92.5 238.87 92.7 239.64 92.57 240.59 92.1 240.69 91.76 240.73 91.45 240.96 91.22 241.78 91.15 242.45 91.08 243.23 91.18 243.97 91.52 244.65 91.72 245.23 91.83 245.73 91.62 246.14 91.55 246.44 91.72 246.51 92.37 247.15 92.94 247.8 93.21 248.34 93.21 248.78 93.45 248.81 93.75 249.25 94.02 249.86 94.6 250.57 95.34 251.08 95.74 251.48 96.22 251.48 96.69 251.11 97.13 250.94 97.5 250.44 97.64 249.76 97.74 249.25 97.91 248.88 98.41 248.51 98.92 248.41 99.39 248.47 100.14 248.81 100.91 249.08 101.62 249.66 102 250.3 102.27 250.84 102.84 251.18 103.52 251.82 103.89 252.57 104.12 253.11 104.46 253.68 104.73 254.33 105.1 255.14 105.21 255.51 104.9 256.05 104.7 256.9 104.5 257.78 104.36 258.69 104.4 259.7 104.19 260.24 103.96 261.53 103.72 262.17 103.55 262.44 103.18 262.65 102.81 263.49 102.37 264.74 101.69 265.39 101.42 266.33 101.32 267.29 100.73 267.65 99.91 268.28 99.51 268.73 99.33 269.45 99.33 269.94 99.49 270.4 99.64 271.08 100.37 272.43 100.55 274.24 100.55 275.36 100.32 275.86 100.09 276.54 100 277.3 100.28 279.24 100.23 281.63 100.5 283.62 100.73 285.15 100.55 285.83 100.05 288.53 99.69 291.01 99.33 292.64 98.97 294.03 98.61 294.67 98.52 295.48 98.74 296.24 98.88 297.24 98.56 297.6 97.89 297.87 96.94 297.91 96.4 297.99 96.15 298.05 95.95 298.64 96.09 299.13 96.9 299.45 97.35 299.58 97.98 299.81 98.52 300 98.9 300.26 99.18 300.88 99.18 301.41 99.18 302.65 99.49 303.64 99.77 304.82 99.89 305.98 99.6 306.94 98.96 307.7 98.37 308.18 97.75 308.35 96.7 308.46 95.92 308.43 95.58 308.6 94.99 308.63 94.06 308.49 92.99 308.23 92.48 308.07 92.09 308.12 91.52 308.49 91.24 309.67 91.27 310.8 91.24 312.24 90.99 312.72 90.65 312.66 90.28 312.83 89.78 313.2 89.1 313.42 88.65 313.67 88.29 313.96 88.34 314.13 88.82 314.21 89.72 314.13 90.51 313.9 90.9 314.15 91.21 314.55 91.33 315.2 91.3 314.8 91.61 314.07 91.92 313.42 92.2 312.74 92.71 312.18 92.99 312.1 93.21 312.29 93.55 312.83 93.89 313.14 94.45 313.2 94.96 313.05 95.41 312.72 96.17 312.46 96.79 312.12 97.38 312.1 97.77 312.24 98.31 312.32 98.9 312.21 99.63 312.32 100.2 312.55 100.98 312.83 101.77 313.25 102.08 313.82 102 314.29 101.91 314.97 102.03 315.37 102.39 315.65 103.21 315.99 104 316.8 104.67 317.82 105.38 318.58 105.72 319.26 105.88 319.74 105.63 320.27 105.57 320.89 105.69 321.43 105.49 321.76 105.35 321.14 105.94 320.98 106.42 321.06 106.79 321.34 107.38 321.62 108.02 321.79 108.64 322.13 109.18 322.36 109.52 322.41 109.94 322.72 110.08 323.09 110.22 323.65 110.28 324.3 110.28 324.61 110.19 324.78 110.67 324.87 111.04 325.03 111.23 325.54 111.29 325.99 111.38 326.44 111.26 327.46 111.52 327.85 111.85 328.42 111.85 328.95 111.77 329.52 111.43 330.08 111.18 330.95 111.01 331.55 111.07 332.03 111.35 332.39 111.83 332.5 112.5 332.31 113.09 331.94 113.77 331.88 114.22 331.77 114.53 332.03 114.89 332.42 115.26 332.98 115.57 333.69 115.91 333.97 116.27 334.27 116.62 335.34 117.13 336.33 117.72 336.81 118.12 337.32 118.59 337.65 119.07 338.11 119.27 338.36 119.33 338.53 119.66 338.84 119.97 339.29 120.09 339.57 120.31 339.97 120.28 340.22 120.14 340.59 120 341.07 120.09 341.63 120.26 342.14 120.09 342.47 119.86 342.93 119.69 343.24 119.47 343.26 119.24 343.32 118.9 343.46 118.57 343.6 118.34 343.74 117.92 343.8 117.69 343.74 117.44 343.57 117.21 343.46 116.99 343.46 116.74 343.66 116.54 343.86 116.4 344.02 116.2 344.05 116.21 344.19 116.29 344.42 116.6 344.93 116.85 345.46 116.96 345.63 117.33 345.77 117.69 346 117.89 345.97 118.03 345.74 118.54 345.66 118.82 345.72 119.07 345.91 119.35 345.91 119.69 345.77 120.06 345.74 120.31 345.89 120.76 345.86 121.24 345.46 121.66 345.1 121.95 345.04 122.28 345.24 122.54 346.03 122.76 347.18 122.93 348.73 122.79 349.8 122.54 350.65 122.45 352.4 122.51 353.92 122.54 355.86 122.4 358.46 122.23 361.22 121.47 362.74 120.71 364.21 119.44 364.97 118.48 365.42 117.16 365.9 116.37 366.6 115.41 367.25 114.57 367.9 114.12 368.49 113.13 368.78 112.32 369.35 111.56 370.36 110.52 371.32 109.68 372.67 108.92 373.63 108.5 374.68 108.19 374.84 107.93 374.79 107.45 374.59 107.14 374.53 106.81 374.25 106.24 374.87 106.64 375.63 106.97 376.31 107.2 376.7 107.59 377.58 107.54 378.2 107.2 378.59 106.86 378.54 106.44 378.37 105.99 378.28 105.65 378.17 105 377.63 104.36 376.85 103.65 375.86 102.75 375.13 102.13 374.62 101.6 374.11 101.01 373.07 100.19 371.6 99.29 370.81 98.7 370.28 98.1 370.22 97.65 369.8 97.12 369.46 96.81 370.05 96.84 370.62 97.09 371.41 97.71 372.39 98.39 373.41 98.64 373.8 98.58 374.08 98.78 374.36 99.09 374.9 99.34 375.61 99.37 375.97 99.6 376.28 100.08 376.65 100.67 377.41 101.12 378.31 101.43 379.02 101.43 379.69 101.54 380.17 101.82 380.4 102.38 380.76 102.89 381.27 103.15 382.03 103.51 382.79 104.13 383.33 104.95 383.75 105.31 384.43 105.26 384.91 104.75 385.27 104.38 385.75 104.38 386.4 104.78 386.8 105.09 387.44 105 388.94 104.67 390.23 104.38 391.67 104.33 392.69 103.99 393.22 103.71 393.36 103.26 393.45 102.89 393.65 102.81 393.93 102.61 394.04 102.19 393.87 101.79 393.7 101.51 393.45 101.29 393.39 101.01 393.52 101.06 393.73 101.15 394.49 101.12 394.97 101.09 395.53 101.23 396.04 101.74 396.32 102.3 396.41 102.81 396.66 103.17 397.31 103.45 398.1 103.6 399 103.54 399.99 103.54 401.12 103.74 401.74 104.07 402.13 104.41 402.58 104.5 403 104.24 403.17 103.91 403.34 103.71 403.48 103.67 403.57 103.65 403.71 103.96 403.96 104.22 404.13 104.41 404.24 104.81 404.5 105.34 405.01 105.9 405.94 106.19 406.7 106.64 407.46 106.64 408.05 106.81 408.5 107.2 409.15 107.37 409.75 107.77 410.29 108.38 411.11 108.52 411.98 108.45 413 108.58 413.68 108.99 414.22 109.67 414.49 110.21 414.89 110.54 415.1 109.94 415.1 109.53 415.16 109.06 415.64 109.12 416.45 109.39 417.13 109.46 417.33 109.94 417.67 110.68 418.14 111.15 418.34 111.49 419.22 111.96 420.1 111.9 420.91 112.1 421.73 112.37 422.13 112.37 422.34 112.71 422.47 113.25 423.76 113.58 424.64 113.79 425.79 113.45 426.6 112.91 427.48 112.84 428.9 113.11 429.44 112.98 429.57 112.64 429.44 112.03 429.24 111.76 429.17 111.35 429.64 111.08 429.78 110.68 429.89 109.92 430.54 110 430.95 109.91 431.63 109.87 431.99 109.91 432.17 110.18 432.12 110.41 432.21 110.81 432.3 111.08 432.48 111.49 432.8 111.81 433.07 112.21 433.3 112.66 433.48 112.89 433.79 113.11 434.38 113.2 435.1 113.29 435.82 113.07 436.86 112.98 438.03 113.02 438.93 113.2 439.93 113.29 440.65 113.56 441.14 113.43 441.64 112.8 441.86 112.26 441.46 111.99 440.78 111.67 440.38 111.35 440.24 111.04 440.24 110.72 440.92 110.63 441.32 110.63 441.5 110.32 441.23 110.05 441.19 109.6 441.41 109.15 441.5 108.83 441.5 108.47 441.32 107.93 441.46 107.48 441.5 107.52 441.91 107.93 442.27 108.2 442.68 108.65 442.77 109.19 443.22 109.6 443.62 109.69 444.03 109.19 445.11 107.8 446.24 106.85 447.01 106.53 448.09 106.22 449.13 104.96 450.43 103.06 451.11 101.76 451.34 100.45 451.52 99.6 451.65 98.78 451.47 98.11 450.93 97.66 450.7 97.34 450.7 96.8 450.7 96.59 450.7 96.49 451.07 96.22 451.52 96.26 451.97 96.04 452.24 95.59 452.15 94.82 451.56 93.65 451.29 92.88 450.97 92.61 450.88 92.21 450.79 91.31 450.7 90.49 450.66 89.82 450.84 89.14 450.97 88.56 450.66 87.52 450.12 86.98 449.98 86.31 449.76 85.72 449.17 85.49 448.09 85.13 447.32 85.13 446.6 85.31 446.33 85.31 445.88 85.22 445.79 84.95 446.19 84.68 446.55 84.41 446.65 84.01 446.65 83.56 446.87 83.15 447.28 82.88 447.32 82.52 447.1 82.21 447 81.8 447.26 81.49 447.54 81.77 447.96 82.02 448.47 82.11 448.92 82.3 449.31 82.67 449.88 83.04 450.55 83.09 451.03 82.95 451.34 82.84 452.1 82.98 452.84 83.4 453.37 83.99 453.69 84.39 453.89 85.13 454 85.66 454.48 86.11 455.58 86.11 456.59 86.14 457.27 86.22 457.78 86.51 458.42 86.48 458.73 86.25 458.88 85.91 458.59 85.63 458.11 85.52 457.83 85.13 457.35 84.7 457.24 84.28 456.9 83.77 456.82 83.58 456.34 83.35 456.87 83.3 457.69 83.52 458.31 83.55 459.27 83.1 460.4 82.48 461.21 82.2 461.92 82 462.51 81.63 463.13 81.27 463.3 80.79 463.98 80.4 464.32 80.2 464.37 79.86 464.17 79.49 463.95 78.87 463.84 78.51 463.86 78.17 463.61 77.89 463.44 77.66 463.92 77.83 464.48 77.97 465.05 78.4 465.67 78.71 466.15 78.96 466.74 78.9 467.33 78.65 467.73 78.26 467.9 77.69 467.67 76.93 467.36 76.48 467.08 76.2 466.8 75.97 466.43 75.55 466.01 74.96 465.81 74.43 465.92 74.06 466.06 73.86 466.18 73.61 466.29 73.27 466.37 73.24 466.43 73.75 466.74 74.23 467.33 74.74 467.87 74.93 468.52 74.93 469.14 74.79 469.38 74.85 469.61 74.9 469.68 74.96 470.46 75.61 471.11 76.43 471.81 76.79 472.07 77.35 472.66 77.78 473.11 78.28 473.62 78.76 474.13 78.73 474.52 78.4 474.89 77.55 475.68 76.28 476.52 75.52 476.97 74.79 477.06 74.06 477.48 73.16 478.16 72 478.97 71.72 480.55 71.02 481.17 70.34 481.65 69.58 482.72 68.91 483.09 68.48 483.03 68.2 482.89 68.15 482.47 68.34 481.79 68.74 481.06 68.85 480.19 68.54 479.42 68.23 479.28 67.7 479.2 67.22 478.75 66.65 478.52 66.18 478.69 65.27 478.69 64.68 478.69 63.73 478.44 62.94 477.96 62.46 477.85 61.95 477.85 61.47 478.1 61.81 478.55 62.21 479.54 62.63 480.41 62.97 480.64 63.25 480.61 63.56 480.16 63.95 479.88 64.26 479.9 64.71 479.93 65.22 479.82 65.67 479.82 65.89 479.9 66.12 480.27 66.09 480.86 65.67 481.14 65.11 481.17 64.6 481.03 63.89 481.12 63.08 481.26 62.4 481.37 62.15 481.57 62.21 481.96 62.66 482.3 63.05 482.98 63.42 483.46 63.73 483.93 64.01 484.5 64.06 485.2 63.78 485.6 63.22 486.11 62.68 486.64 62.29 487.2 62.06 487.82 62.12 488.5 62.4 489.06 62.52 489.66 62.35 490.39 62.04 491.15 61.95 491.88 61.95 492.48 62.29 493.15 62.68 494.03 62.77 494.65 62.57 494.9 62.09 494.79 61.5 494.65 60.99 494.7 60.32 494.87 59.78 495.27 59.28 495.94 58.69 496.08 57.91 495.74 56.96 495.2 56.02 494.69 55.14 494.25 54.7 494.05 54.33 494.15 54.06 494.39 53.85 494.49 53.55 494.64 53.55 494.76 53.55 495.07 53.95 495.27 54.56 495.57 55.1 496.42 55.81 497.13 56.32 497.64 56.76 497.91 57.44 498.04 58.01 498.21 58.52 498.25 58.92 498.14 59.23 498.14 59.53 498.41 59.94 498.52 60.41 498.38 60.65 498.28 61.12 498.38 61.69 498.65 62.3 498.92 63.08 499.09 63.59 499.46 63.86 499.97 64.16 500.11 64.87 500.55 65.48 500.85 65.78 501.53 65.82 502.54 65.65 503.25 65.61 503.79 65.61 504.37 65.68 504.67 65.58 504.81 65.27 504.77 65 504.61 64.67 504.77 64.46 505.15 64.43 505.62 64.5 505.99 64.46 506.47 64.06 506.6 63.59 506.6 62.94 506.7 62.3 506.63 61.66 506.6 60.88 506.5 60.41 506.3 59.9 506.23 59.6 506.36 59.09 506.7 58.69 507.24 58.48 507.24 59.06 507.31 59.4 507.68 60.07 508.22 60.48 509.1 61.19 509.65 61.56 510.02 61.86 510.56 61.96 511.34 61.52 512.42 61.25 514.01 61.08 514.99 61.02 515.9 60.75 516.71 60.41 518.54 60.04 519.59 59.7 520.98 59.36 522.47 59.26 523.72 59.16 524.29 58.92 524.33 58.31 524.6 57.5 525.21 56.86 526.25 56.32 526.73 55.85 527 55.1 526.96 54.36 526.93 53.85 526.93 53.08 526.73 51.86 526.52 50.98 526.59 49.93 527.1 49.02 527.51 48.58 527.37 48.11 527.2 47.77 527.3 47.47 527.3 47.13 527.1 46.79 527 46.32 527.07 45.91 527.44 45.41 527.95 45 527.81 44.36 527.47 43.58 527.34 42.77 527.39 42.76 527.51 42.74 527.64 43.34 528.15 44.16 528.55 44.6 528.62 45.03 528.52 45.74 528.52 46.35 528.82 46.99 529.26 47.4 529.47 48.04 529.67 48.75 529.47 49.19 529.16 49.63 528.96 50.1 529.1 50.68 529.47 51.12 530.08 51.59 530.68 51.66 531.4 51.45 532.07 51.32 532.44 50.95 532.55 50.37 532.88 49.9 533.19 49.53 533.22 49.19 533.29 48.31 533.56 47.7 533.83 47.33 534.24 46.96 534.3 46.45 534.2 45.95 534.14 45.54 534.27 45.07 534.54 44.66 534.81 44.46 534.95 44.09 535.22 44.19 535.18 44.93 535.35 45.85 535.79 46.69 535.96 47.03 536.44 47.37 536.91 47.33 537.04 47.5 536.6 47.77 536 48.28 535.52 48.89 535.32 49.46 535.18 50.17 534.78 50.68 534.07 51.42 533.59 52.27 532.75 52.94 532.38 53.58 532.21 54.83 532.21 55.85 532.44 56.93 532.65 57.37 532.61 58.28 532.21 58.69 531.63 59.33 531.19 59.73 530.96 60.31 530.45 60.81 530.21 61.32 530.21 62.13 530.35 62.67 530.31 63.48 530.45 64.33 530.65 64.9 530.62 65.85 530.72 66.49 530.52 66.9 530.72 67.84 531.19 68.65 531.09 69.16 531.12 69.84 531.29 70.85 531.4 71.26 531.9 71.42 533.42 72.24 533.9 72.64 534.34 72.67 534.74 72.4 535.42 72.1 536.27 71.8 538.13 71.86 539.34 72.2 540.29 72.67 542.46 72.91 548.78 72.74 552.27 72.71 554.53 72.71 559.07 72.64 561.57 72.78 562.72 72.51 563.63 72.34 564.24 72.24 564.48 72.17 564.68 71.83 564.71 71.39 565.15 71.05 565.86 70.58 566.41 70.04 566.78 69.5 566.85 68.86 566.74 68.35 566.47 67.84 566.37 67.27 566.44 66.66 566.24 66.02 565.9 65.48 565.63 65.04 565.46 64.6 565.69 64.56 566.27 64.53 566.81 64.4 567.28 64.4 567.51 64.51 567.78 64.29 567.92 63.7 568.28 62.57 568.75 61.24 569 60.64 569.56 60.16 570.13 59.62 570.62 58.88 570.8 58.18 570.8 57.53 570.76 56.9 571.03 56.47 570.89 56.09 570.53 55.5 570.51 54.96 570.31 54.6 569.68 54.46 569.73 54.41 569.83 54.28 570.42 54.28 570.85 54.49 571.07 54.89 571.34 55.37 571.79 55.7 572.4 55.84 572.85 56.04 573.04 56.54 573.53 57.35 573.89 57.69 574.19 57.89 574.75 57.75 575.52 57.28 576.35 56.65 576.37 56.24 576.1 55.37 575.94 54.15 575.9 53.16 576.28 51.81 576.91 50.79 577.82 49.87 578.69 48.79 578.92 47.49 579.03 46.71 579.54 46.2 580.33 45.86 580.84 45.35 581.12 44.79 581.74 44.62 582.53 44.4 582.19 45.07 582.25 45.8 582.13 46.59 581.57 47.1 580.84 47.49 580.61 48 580.61 48.85 580.5 49.75 580.38 50.65 580.1 51.15 579.93 51.89 579.54 52.73 579.09 53.24 579.03 53.75 579.26 54.36 579.71 55.27 579.82 56.17 579.54 57.52 579.03 58.53 578.58 58.98 578.19 59.38 578.13 60.11 578.86 60.39 579.54 60.28 580.05 60.56 580.05 60.84 579.2 61.01 578.41 61.24 577.74 61.4 577 61.18 575.99 61.46 574.92 61.74 574.25 62.25 573.51 62.76 573.41 63.34 573.41 63.71 573.54 64.18 573.48 64.72 573.21 65.36 572.97 65.97 572.87 66.38 572.93 66.78 572.7 67.32 572.36 68.2 572.36 68.74 572.46 69.32 572.63 69.96 572.9 70.67 573.92 71.01 575.51 71.34 578.55 71.78 582.17 71.88 584.4 72.05 586.13 72.46 587.11 72.66 589 72.46 590.79 72.63 592.62 73.34 593.18 73.81 593.64 74.18 593.91 74.96 594.38 75.43 596.07 76.04 597.63 76.11 599.08 75.91 601.65 76.45 604.05 77.43 605.48 77.73 606.35 77.97 606.96 78.17 607.03 78.81 607.54 79.35 608.72 80.2 609.7 80.84 609.91 81.48 610.41 81.89 610.68 82.43 611.39 83 612.17 83.78 613.22 85.06 613.83 86.14 614.65 87.1 615.44 88.12 616.34 88.79 617.69 88.79 618.48 88.34 618.71 87.67 618.71 86.54 618.93 85.98 620.29 85.3 621.19 84.4 621.87 83.84 623.11 83.61 623.67 83.16 623.44 84.4 622.77 85.19 622.65 85.98 622.09 86.65 621.98 87.33 623.56 86.54 624.68 85.53 625.47 84.4 625.92 83.39 626.58 83 627.15 82.61 627.48 81.76 627.71 80.92 628.22 80.47 628.22 79.73 628.78 80.19 628.75 80.85 628.72 81.26 628.95 82.1 629.06 82.83 628.89 83.68 628.95 84.18 629.8 84.3 631.43 83.79 633.52 83.06 635.26 82.49 636.17 81.76 637.18 80.75 637.24 80.19 636.9 79.4 636.34 78.78 636.05 78.05 635.66 77.14 635.09 76.52 635.04 76.02 635.15 75.45 635.09 74.89 634.81 74.44 634.64 73.93 634.77 73.43 634.81 73.26 635.09 72.92 635.49 73.77 636.34 73.88 636.79 74.61 637.18 75.62 638.08 76.07 638.93 76.36 639.27 76.64 639.44 77.14 639.49 77.71 639.83 78.16 640.39 78.16 640.73 77.82 640.55 77.27 640.45 76.49 640.28 75.24 639.95 73.89 639.88 72.95 640.45 73.76 641.3 74.43 641.84 75.51 642.48 76.7 642.89 77.74 643.19 78.25 643.73 78.32 644.17 78.32 644.28 78.76 644.17 79.3 644.11 79.7 644.34 80.04 644.92 80.14 645.43 80.14 645.8 80.55 646 81.22 646.54 81.76 647.18 82.2 647.59 82.81 648.23 83.35 648.81 83.45 649.01 83.72 649.02 84.37 649.09 84.43 649.17 84.52 649.49 84.84 650.24 85.58 650.84 86.12 651.59 86.39 652.2 86.66 652.4 87.54 652.81 88.29 653.08 88.96 653.42 89.5 653.82 89.86 654.14 89.91 654.5 90.04 654.45 90.49 654.5 91.08 654.72 92.07 654.72 92.75 655.17 93.29 656.08 93.96 656.53 94.59 656.84 94.91 657.2 94.95 657.79 94.91 658.06 95.22 658.06 95.68 657.7 95.95 657.7 96.31 657.97 96.76 658.47 96.85 658.47 97.21 658.47 97.75 658.83 98.24 659.14 98.83 659.73 99.37 660.32 99.64 660.63 100.23 661.04 100.41 661.4 100.18 661.67 99.96 662.26 100.14 662.53 100.63 662.66 101.35 662.39 101.94 663.25 102.61 664.15 103.15 664.96 103.29 666.18 103.51 667.35 104.01 668.57 103.87 669.79 104.1 670.82 103.83 671.46 103.65 672.36 103.69 673.03 103.33 674.25 102.52 675.79 101.76 676.55 101.17 676.96 100.63 676.91 100.09 676.33 99.14 676.1 98.51 676.55 98.47 677.05 98.78 677.68 98.83 678.63 98.87 679.39 98.47 680.12 97.52 681.11 96.31 681.74 95.54 682.46 94.32 682.82 93.33 682.78 92.88 682.51 92.25 682.6 91.3 683.27 90.04 684.17 89.46 684.67 88.56 685.75 87.12 686.52 85.94 687.11 85.18 687.38 84.28 687.38 83.24 686.97 82.7 686.71 82.33 686.66 82.25 686.43 81.35 686.57 80.45 686.57 78.96 686.25 77.92 686.11 76.71 686.15 76.36 686.29 75.13 687.06 73.82 687.69 72.74 687.51 71.84 687.29 70.72 686.79 70.08 686.11 69.9 685.71 70.27 685.26 70.58 684.81 70.85 683.81 71.08 682.91 70.76 682.24 70.04 681.78 69.72 681.06 69.36 682.1 69.32 683 69.05 683.86 68.96 683.95 68.24 683.86 67.2 683.72 66.21 683.77 65.53 683.99 64.86 683.95 64.05 683.36 63.55 682.6 63.33 681.78 63.46 681.15 63.91 680.48 63.96 679.62 63.87 678.76 63.33 678.31 63.06 677.41 62.79 676.82 62.29 675.97 62.11 675.15 61.34 674.88 60.58 674.25 59.63 673.8 58.91 673.12 58.33 672.4 57.92 671.82 57.42 671.1 56.75 671.28 56.82 672.4 57.24 673.85 57.65 674.79 58.42 675.65 58.69 676.82 59.72 678.49 60.44 680.12 60.53 681.51 59.63 682.1 58.87 681.47 57.88 680.84 56.52 680.57 54.99 680.66 53.37 680.75 52.56 681.74 52.29 681.92 51.3 682.19 50.85 682.73 50.4 682.92 49.97 683.16 49.63 683.26 49.29 683.3 48.85 683.4 48.65 683.19 48.45 683.43 48.04 683.73 47.84 683.7 47.43 683.63 47.03 683.77 46.59 684.07 46.11 684.17 45.68 684.07 45.34 684.17 45.03 684.28 44.56 683.95 44.07 683.94 44.05 683.09 43.78 682.55 43.8 682.39 43.71 682.55 43.59 682.7 43.48 682.71 43.48 683.35 43.37 683.49 43.31 683.94 43.12 684.51 42.86 684.76 42.5 684.85 42.08 684.9 41.57 684.91 41.53 684.96 41.31 684.99 41.17 685.09 41.05 685.32 40.75 685.63 40.44 685.83 40.38 686.06 40.3 686.56 40.27 686.87 40.1 687.04 39.71 687.3 39.51 687.41 39.43 687.44 39.36 687.49 39.2 687.18 39.12 687.1 38.72 687.17 38.57 687.27 38.33 687.44 37.94 687.46 37.9 687.61 37.63 687.87 37.54 688.03 37.49 688.09 37.29 688.14 37.15 688.48 36.87 688.79 36.53 688.82 36.22 688.71 35.8 688.43 35.6 687.92 35.26 687.33 34.92 687.3 34.75 687.79 34.83 687.93 34.85 688.18 34.87 688.43 34.9 688.83 34.9 689.02 35.03 689.29 35.21 689.69 35.08 689.75 34.87 689.78 34.76 690.03 34.64 690.05 34.63 690.32 34.36 690.4 34.17 690.43 34.12 690.5 33.95 690.5 33.64 690.32 33.37 690.32 33.05 690.5 32.91 690.95 32.82 691.32 32.73 691.54 32.42 691.54 31.92 691.59 31.61 692.04 31.38 692.26 31.07 692.71 30.93 693.53 30.75 694.02 30.44 694.52 29.94 695.24 29.67 695.65 29.45 696.01 29.22 696.64 29.09 697.31 29 697.54 28.77 697.54 28.45 697.31 28.23 696.64 28.23 696.19 27.78 695.65 27.46 694.52 26.83 693.84 26.7 693.25 26.34 692.53 25.93 692.04 25.66 692.33 25.57 692.49 25.53 692.98 25.57 693.28 25.77 693.39 25.84 693.47 25.81 693.89 25.62 693.98 25.12 693.93 24.49 693.84 23.86 693.53 23.18 693.03 22.46 692.85 21.61 692.85 20.71 692.8 20.07 692.58 19.67 692.22 19.35 692.08 18.86 691.85 18.53 691.77 18.41 691.68 18.05 692.26 17.87 692.4 17.51 692.67 17.55 692.75 17.91 692.76 17.96 692.98 18.41 693.25 18.86 693.89 19.17 694.61 19.49 695.28 19.98 695.46 20.75 695.42 21.25 695.42 21.83 695.69 22.15 696.1 22.64 696.28 23.27 696.32 23.77 696.55 24.44 696.82 25.03 697.31 25.35 697.76 25.39 698.44 25.44 699.03 25.57 699.43 25.84 700.16 26.34 701.06 26.7 701.55 26.56 701.69 26.16 701.6 25.8 701.15 25.75 700.79 25.62 700.56 25.35 700.56 25.03 700.61 24.62 700.74 24.31 700.74 24.13 701.64 23.86 702.73 23.86 703.63 23.99 704.62 24.13 705.16 24.31 705.61 24.35 705.75 23.99 706.02 23.63 706.29 23.09 706.56 22.28 706.6 21.61 706.33 20.98 706.37 20.98 706.88 21.07 707.33 21.11 707.73 21.02 708.23 21.02 708.86 20.93 709.63 20.62 710.17 20.39 710.89 20.03 711.52 19.49 711.93 18.95 712.2 18.27 712.2 17.82 712.42 17.46 712.87 17.28 713.42 17.06 713.73 16.74 713.82 16.38 714.14 16.06 714.5 16.02 715.13 15.88 715.58 15.48 716.03 15.16 716.48 14.76 716.66 14.31 716.44 13.99 716.3 13.54 716.39 13.23 716.75 12.87 717.02 12.28 716.98 11.65 716.84 11.15 716.57 10.75 716.48 10.07 716.5 9.46 716.57 8.97 716.24 8.07 716.49 8.26 716.78 8.48 717.19 8.88 717.91 9.29 718.49 9.69 719.08 9.96 719.53 10.51 719.85 10.73 720.3 10.69 720.61 10.23 720.66 9.87 720.98 9.65 721.43 9.38 721.97 9.15 722.46 8.93 722.91 8.84 723.14 8.48 723.28 8.34 723.64 8.21 723.82 7.94 723.86 7.49 723.86 6.86 723.91 6.36 724.36 5.82 724.72 5.46 725.21 4.83 725.35 4.2 725.17 3.61 725.08 3.16 725.26 2.76 725.71 2.8 725.94 3.03 725.89 3.48 726.16 3.61 726.57 3.48 726.84 2.98 726.88 2.49 727.11 2.04 727.15 1.45 727.15 1.29 727.15 1 727.56 1.27 727.83 1.95 727.97 2.62 728.15 3.3 Z M 446.23 223.72 447.02 224.51 447.47 224 447.19 223.5 446.68 222.59 446.68 221.86 447.02 221.13 447.02 220.51 447.52 219.38 447.92 218.43 448.71 218.03 449.33 218.15 449.95 217.69 450.91 217.64 450.91 217.08 450.4 216.68 449.89 216.46 448.82 216.79 447.81 216.96 447.02 217.47 446.11 218.48 445.44 219.83 445.21 221.13 445.44 222.59 446.23 223.72 Z M 252.12 123.03 252.8 123.17 253.47 122.96 253.54 122.02 253.54 120.46 253.47 119.38 252.59 119.38 251.58 119.45 250.63 119.65 249.75 120.26 249.62 121 249.95 121.82 251.17 122.56 252.12 123.03 Z M 648.94 127.61 649.58 127.79 650.48 127.79 651.2 127.65 651.56 127.33 651.83 127.11 652.33 126.97 652.78 126.7 652.78 126.39 652.51 126.16 651.11 126.21 649.35 126.39 648.13 126.75 647.86 127.24 648.22 127.47 648.94 127.61 Z" fill-rule="evenodd"/>
</g>
</svg>