<?xml version="1.0"?>
<svg xmlns="http://www.w3.org/2000/svg" version="1.2" baseProfile="tiny" width="800" height="1873" viewBox="0 0 800 1873" stroke-linecap="round" stroke-linejoin="round">
<g id="castaiclagoon">
<path d="M 129.51 622.88 158.92 584.65 191.27 549.36 193.22 539.98 205.97 478.79 197.15 461.14 214.3 443.99 220.68 437.62 217.74 405.27 173.62 372.92 171.09 398.27 170.68 402.33 153.03 422.91 97.15 411.15 82.11 379.61 82.11 342.85 74.76 302.42 60.06 273.01 38.33 246.47 67.74 243.53 82.45 252.35 41.27 128.85 70.93 115.37 73.63 114.14 81.6 144.04 108.92 246.47 117.35 240.15 120.68 237.65 126.23 273.01 132.13 290.7 140.94 317.12 155.34 363.91 155.64 364.91 160.64 365.3 177.26 366.62 199.11 368.36 203.03 378.8 212.34 380.13 223.62 381.74 265.93 375.94 273.28 339.18 302.69 276.69 317.4 236.25 320.33 157.33 337.53 76.99 361.52 67.17 368.87 30.41 379.9 1 405.75 1 409.31 1 431.37 1 464.45 23.05 479.16 37.76 501.22 59.81 490.19 85.54 501.22 125.98 512.25 148.03 515.17 151.54 530.63 170.09 571.07 195.82 611.51 210.52 625.51 226.27 640.92 243.61 674 298.74 696.06 339.18 714.44 383.29 714.44 416.37 737.94 453.29 740.18 456.8 762.24 471.51 784.29 486.21 799 526.64 787.97 570.75 773.27 607.51 765.91 658.97 765.91 703.08 754.88 754.55 736.5 839.09 725.47 894.23 710.77 942.01 710.77 993.48 718.12 1026.56 736.7 1051.33 740.18 1055.96 770.66 1105.15 784.29 1162.56 784.41 1163.58 791.65 1228.73 769.59 1298.57 751.21 1390.47 732.83 1438.25 707.09 1460.31 692.39 1493.39 648.27 1541.17 589.45 1618.37 567.39 1673.51 552.69 1706.59 534.3 1735.99 508.57 1750.7 504.89 1780.1 502.73 1817.62 495.14 1832.76 483.84 1842.18 474.42 1844.53 462.12 1850.68 431.04 1859.58 396.14 1867.15 372.56 1870.95 354.63 1871.87 341.43 1871.84 324.45 1871.38 221.82 1872 179.76 1872 115.2 1872 56.38 1864.65 8.56 1855.33 2.88 1844.53 1 1827.58 4.78 1818.62 4.78 1805.87 4.78 1781.36 5.71 1759.68 5.71 1740.32 8.52 1733.74 17.04 1730.41 27.43 1727.64 30.25 1721.47 33.99 1707.84 34.03 1696.97 34 1688.96 30.65 1647.77 32.68 1629.43 34.32 1614.69 63.73 1603.66 93.14 1614.69 106.83 1624.47 118.88 1633.07 140.94 1633.07 169.77 1620.26 174.02 1618.37 188.33 1575.65 199.76 1515.44 181.38 1489.71 174.02 1438.25 188.73 1390.47 218.14 1353.71 221.82 1298.57 221.82 1261.81 203.43 1243.43 177.7 1221.38 144.61 1210.35 111.53 1188.29 85.79 1169.92 67.41 1140.51 60.06 1103.75 60.06 1044.94 63.73 1008.18 63.73 967.74 45.35 927.31 38 905.26 38 868.5 23.29 839.09 8.59 787.63 4.91 750.87 23.29 728.82 45.35 703.08 46.32 699.2 52.7 673.68 63.73 655.3 93.14 636.92 129.51 622.88 Z"/>
</g>
</svg>