<?xml version="1.0"?>
<svg xmlns="http://www.w3.org/2000/svg" version="1.2" baseProfile="tiny" width="800" height="675" viewBox="0 0 800 675" stroke-linecap="round" stroke-linejoin="round">
<g id="sanvicentereservoir">
<path d="M 640.29 426.62 633.89 429.84 631.91 433.3 632.9 436.27 632.41 441.22 630.92 446.16 629.44 450.61 628.94 455.56 627.46 461.49 629.44 465.45 628.98 466.5 627.46 469.9 623.51 473.37 614.11 473.86 612.79 473.53 608.18 472.38 602.25 471.39 594.34 468.42 590.39 465.45 584.45 464.96 582.48 467.92 583.96 477.32 582.48 482.27 579.02 482.76 577.55 481.29 574.07 477.82 569.62 476.83 565.67 480.29 561.71 482.76 559.24 487.22 557.61 492.66 556.28 497.11 556.28 505.02 557.84 509.32 558.25 510.46 556.28 518.38 556.16 518.63 551.87 527.68 551.83 527.77 548.37 537.67 548.35 537.69 541.45 549.04 535.51 556.46 532.01 559.67 529.58 561.9 525.13 565.86 519.69 571.3 514.75 575.75 513.11 575.34 510.8 574.76 508.82 572.29 509.31 566.36 509.31 562.4 509.31 559.43 502.92 560.32 494.02 561.8 482.16 567.24 475.73 572.68 466.34 583.57 461.39 589.5 455.95 597.46 454.97 598.9 451.47 602.96 445.05 603.95 441.09 604.94 438.62 606.91 433.68 608.4 428.73 608.89 423.79 608.89 418.85 608.89 413.9 610.87 412.06 611.06 408.96 611.37 404.02 606.91 397.59 606.91 390.18 606.91 383.75 607.9 379.3 611.86 375.35 615.32 369.94 619.18 364.5 620.66 362.11 620.66 358.57 620.66 349.22 615.37 344.08 614.58 341.31 614.58 339.33 616.16 335.77 616.56 334.62 615.41 333.04 613.83 332.61 613.39 330.24 610.23 327.86 608.64 325.89 607.46 317.19 603.1 314.57 601.37 309.6 603.95 304.65 608.4 300.2 614.83 300.7 621.26 302.18 627.19 301.19 631.15 303.17 636.1 306.14 637.58 305.18 642.43 306.09 646.35 309.11 647.67 310.1 648.57 304.49 649.84 304.26 649.89 294.8 653.1 286.17 656.64 285.67 657.05 285.43 657.54 274.24 661.85 272.19 662.64 271.94 662.15 271.28 662.15 270.87 661.49 269.8 661.74 270.13 662.56 257.13 667.66 254.18 668.82 248.65 671.27 245.29 672.77 244.82 672.99 242.66 674 239.89 668.74 239.4 663.8 239.4 660.33 237.92 655.88 233.47 653.41 228.03 652.91 225.56 650.44 220.12 647.97 213.69 646.48 210.23 646.48 206.28 647.97 196.57 653.36 187 660.33 183.04 662.81 176.12 662.81 170.19 661.82 163.27 662.31 159.32 663.3 154.37 662.81 152.89 658.35 151.41 650.94 145.47 648.46 140.53 647.47 134.1 646.48 133.82 646.37 129.16 644.51 128.17 638.08 128.17 632.4 128.17 630.16 132.62 627.69 134.22 628.09 139.91 629.51 144.06 629.25 145.94 629.22 145.97 629.13 146.74 626.45 144.76 624.47 136.08 622.74 135.59 618.29 151.9 614.83 167.23 613.34 177.61 609.88 181.56 609.88 184.53 604.94 185.02 599.49 181.56 594.05 175.13 592.08 166.73 589.11 160.8 586.63 157.34 584.66 157.76 582.98 158.33 580.7 164.75 576.74 170.69 572.79 171.67 568.33 169.7 564.38 166.24 561.9 162.78 560.42 157.34 560.42 154.87 557.95 150.91 552.01 145.47 554.48 141.02 559.43 136.58 562.89 133.69 562.6 131.63 562.4 128.17 559.43 125.21 554.48 118.26 553.25 114.7 555.31 111.24 561.25 108.89 563.21 107.8 563.62 104.44 564.87 98.51 564.87 95.55 567.34 92.58 573.28 89.64 573.77 86.65 574.27 80.22 573.28 73.79 573.28 63.45 569.52 62.92 569.32 61.44 562.89 58.47 555.97 54.51 547.06 45.89 540.58 38.2 543.11 33.26 545.09 30.89 545.09 27.33 545.09 24.85 542.12 19.42 535.69 19.42 534.48 19.42 533.71 19.91 527.77 19.83 527.59 17.44 521.84 17.93 515.9 17.93 510.96 17.87 510.48 17.44 507 18.92 505.02 22.88 503.04 29.3 503.54 30.79 501.06 28.31 495.62 26.34 492.66 23.37 487.22 17.93 485.73 16.45 477.82 15.46 468.42 12.37 455.89 8.91 450.45 6.04 445.53 5.45 444.52 2.48 439.57 1 435.12 2.98 432.65 3.97 427.21 3.74 426.9 1 423.25 4.95 422.75 8.91 424.24 9.9 428.69 10.39 432.65 11.88 437.59 13.36 441.05 17.81 444.52 21.76 448.47 25.72 453.91 30.66 459.36 35.6 464.3 39.06 470.24 44.5 476.17 48.95 480.62 54.88 486.07 58.34 490.02 64.4 489.19 67.86 489.19 74.78 493.65 75.29 494.16 81.21 500.08 88.13 502.55 94.06 502.05 96.53 503.04 99.99 506.51 104.44 506.51 104.44 504.53 102.96 498.59 100.98 490.68 97.03 482.76 93.57 475.34 89.61 467.92 82.2 459.52 82.03 459.09 77.75 448.63 74.29 442.2 68.85 439.24 62.83 439.24 60.94 439.24 58.47 439.24 57.48 433.3 56.49 428.85 51.55 426.87 51.04 424.6 50.56 422.42 50.56 418.46 49.08 413.52 48.64 410.9 48.09 407.58 49.08 404.61 48.58 401.15 47.1 398.18 43.02 394.56 37.09 393.57 37.19 391.63 37.21 391.26 41.66 390.27 44.94 386.05 45.12 385.82 49.08 383.34 53.03 380.87 55.5 374.94 58.47 369.49 55.01 363.56 50.07 360.59 49.08 357.63 48.58 356.14 52.54 353.17 52.54 348.72 52.89 344.48 53.03 342.79 56.49 340.81 56.99 337.34 55.01 330.91 55.01 325.47 56.63 316.58 56.99 314.59 56.99 310.14 57.67 309.38 60.94 305.69 65.88 309.15 67.37 310.14 65.39 314.59 65.39 319.54 69.84 323.99 74.78 327.45 75.72 327.45 81.7 327.45 86.65 328.94 83.68 331.9 80.22 334.87 81.21 339.32 84.67 341.8 89.61 344.76 93.57 350.7 95.05 356.14 96.53 358.61 101.97 357.62 106.92 359.11 113.84 360.59 115.81 364.05 119.77 363.56 125.21 362.57 132.62 361.09 137.07 358.61 139.17 356.17 140.04 355.15 145.97 354.16 151.41 354.16 151.41 354.44 151.41 356.63 148.44 359.6 144.67 362.35 143 363.56 136.08 369.99 133.67 373.3 132.13 375.43 128.67 380.87 126.19 388.29 126.69 393.24 128.67 397.19 138.06 399.67 144.98 400.66 151.41 401.65 156.35 402.14 163.27 402.14 166.24 401.65 165.76 402.44 163.27 406.59 162.51 407.48 160.3 410.05 158.13 414.41 157.83 415 153.88 421.43 152.89 430.33 152.89 437.26 155.36 441.71 157.34 446.16 161.79 448.63 168.21 449.13 176.21 446.9 181.12 446.9 182.23 446.95 186.5 447.15 187.99 449.62 187.49 455.56 187.49 462.48 188.48 466.94 189.47 472.38 191.45 475.84 198.37 473.86 203.81 467.92 209.82 467.18 213.28 467.68 216.66 462.48 220.12 459.52 220.56 459.32 224.57 457.54 228.03 458.03 229.69 462.59 230.01 463.47 228.03 468.91 229.51 473.86 232.97 476.83 232.97 481.28 230.5 484.25 227.54 487.22 227.04 491.17 228.52 495.13 229.51 501.06 226.05 507 221.6 511.95 221.6 514.91 223.58 517.88 228.52 517.39 235.94 511.45 239.89 508.98 247.31 507 251.76 506.01 257.2 506.01 261.15 508.98 266.59 508.98 267.58 502.55 265.11 492.16 264.61 484.74 262.63 474.36 263.62 468.42 265.6 465.95 268.57 464.46 270.05 457.54 271.53 454.57 270.54 452.1 268.57 449.13 265.11 445.67 263.13 442.2 260.66 438.74 254.23 437.26 254.14 437.03 253.24 434.79 257.2 432.81 263.62 431.32 267.58 428.36 270.05 424.89 266.59 421.43 264.12 417.97 263.4 415.47 263.13 414.51 266.09 410.55 270.54 409.56 274.99 406.59 276.97 401.65 276.97 397.19 276.97 392.74 274.99 389.28 271.53 384.33 265.6 380.38 265.12 377.75 264.61 374.94 266.09 370.48 266.47 370.21 269.14 368.26 271.12 365.79 271.61 363.31 272.8 361.34 273.1 360.84 276.06 355.4 277.05 351.94 277.26 351.12 278.04 347.98 279.03 345.01 281.5 348.47 283.97 352.92 286.44 354.9 291.39 356.88 295.84 357.38 299.3 358.86 305.15 358.61 312.56 358.61 317.51 353.67 321.87 349.3 321.96 349.22 326.9 344.27 330.85 340.81 334.81 337.84 337.28 334.87 337.77 331.9 336.79 326.46 334.31 323.37 332.83 321.52 329.37 316.08 325.91 310.14 321.46 308.16 320.07 303.53 319.98 303.22 322.45 300.25 326.4 296.79 327.61 296.42 331.35 295.3 334.31 293.82 339.26 290.36 344.7 288.38 347.66 286.4 351.12 285.9 356.07 285.9 360.51 283.93 363.98 280.96 365.46 277 366.25 273.43 366.45 272.55 364.47 268.59 364.87 267.39 364.96 267.11 367.44 266.61 373.37 268.1 378.31 268.1 379.66 269.31 383.25 272.55 389.19 277.5 395.12 281.95 398.58 287.39 403.03 291.84 410.94 296.29 414.4 298.76 419.34 301.73 425.77 306.68 434.75 312.37 435.66 309.15 438.13 307.17 443.56 305.36 444.06 305.19 449 306.68 449.8 307.39 453.95 311.13 457.41 315.09 462.84 319.54 467.79 323 470.26 327.45 472.73 332.89 473.23 340.31 476.19 342.79 480.64 343.77 482.12 345.26 484.1 348.23 487.56 351.19 492.51 351.19 501.4 350.2 504.37 347.73 508.32 344.76 513.27 340.81 519.2 336.85 523.15 332.4 525.63 327.45 520.68 322.51 518.21 318.55 516.73 311.62 517.72 304.7 520.19 294.81 519.2 288.38 520.68 279.97 520.19 273.54 520.19 267.11 517.22 264.63 514.75 260.18 512.77 254.74 512.28 250.29 513.27 245.84 510.75 234.12 507.98 228.98 507.19 223.04 507.98 219.88 506 216.71 501.26 215.13 497.7 215.13 492.16 216.32 491.71 213.42 491.52 212.2 491.52 208.25 491.52 204.29 493 199.84 496.46 196.87 496.46 191.43 497.7 184.66 497.7 178.72 498.44 173.13 494.98 167.19 493.49 159.28 491.02 153.34 489.54 144.94 486.08 137.52 484.1 128.61 483.11 122.68 482.62 115.75 483.04 115.19 485.58 111.8 487.56 111.8 489.04 115.26 489.79 120.95 490.97 124.51 493.35 128.08 497.3 131.24 501.26 135.59 507.58 144.69 512.28 144.94 514.75 145.43 521.67 145.93 524.64 143.95 526.62 141.47 528.59 136.53 532.05 130.59 535.02 128.61 535.35 128.8 539.47 131.09 542.43 134.05 544.91 139.5 549.85 142.96 554.79 146.42 557.76 148.4 560.73 148.4 564.68 144.94 569.13 144.94 577.19 143.11 581.14 140.34 583.91 137.18 588.9 134.05 591.37 131.09 594.34 122.68 594.34 116.25 597.36 109.48 599.34 104.73 601.31 99.58 600.27 92.51 599.45 85.13 599.28 83.6 599.28 77.72 599.28 77.67 597.8 72.72 596.26 70.56 592.86 65.8 590.39 57.88 589.4 48.48 589.4 37.6 588.9 30.68 588.9 22.76 587.42 15.84 587.42 11.88 584.95 4.96 584.65 2.6 584.45 1 588.41 1.5 591.87 5.45 594.83 11.39 595.14 13.54 595.82 18.31 594.83 24.25 594.99 31.92 597.36 36.27 599.73 41.81 600.71 44.38 604.08 53.29 610.16 58.87 612.14 61.34 615.6 65.3 618.7 68.72 620.54 70.74 621.53 78.66 623.51 85.09 624 91.52 624.99 99.93 624.99 104.87 621.48 104.73 617.92 104.73 614.36 107.5 614.36 111.06 614.76 114.23 618.07 116.25 621.53 116.74 625.48 115.75 629.44 113.28 632.41 113.77 634.38 114.76 636.36 117.24 637.35 121.69 637.54 122.27 638.83 126.14 638.83 130.59 639.82 134.55 640.5 136.15 641.3 138.01 636.91 139.55 632.16 143.51 631.42 151.86 630.77 153.47 630.43 154.33 627.46 155.82 617.08 159.28 612.14 162.74 610.42 164.46 610.39 164.49 606.2 168.68 603.24 172.63 599.28 177.09 596.32 182.03 590.39 185.5 588.41 187.97 588.41 190.94 588.1 191.1 581.98 194.4 578.03 196.38 576.54 197.86 574.07 199.84 572.1 200.33 568.14 199.34 564.68 200.33 561.71 201.82 559.24 204.79 561.22 207.75 563.2 211.71 566.16 215.17 569.62 217.65 571.6 219.62 574.57 219.62 576.05 224.57 576.54 229.52 574.07 233.97 573.08 237.93 577.53 243.37 581.98 244.85 585.44 242.87 586.93 244.85 591.37 247.32 595.33 248.31 600.77 244.36 606.7 240.4 611.15 236.94 613.91 236.01 617.08 234.96 620.05 238.91 622.02 242.87 623.51 247.32 625.98 250.79 630.92 250.29 631.42 252.76 629.44 255.73 629.61 255.93 631.91 258.7 633.89 261.67 637.84 269.58 639.33 272.55 642.29 275.52 647.24 276.01 652.67 277.5 660.09 279.97 666.02 279.47 670.96 280.46 674.92 282.94 681.35 280.46 685.79 277.99 689.75 276.51 696.18 275.02 702.11 274.03 706.06 269.58 714.47 266.12 718.92 263.65 720.28 263.95 723.37 264.63 731.27 266.61 739.68 269.58 740.9 270.19 744.62 272.05 745.12 277 747.59 281.45 752.04 285.9 755 289.37 760.44 295.3 763.9 299.75 770.33 308.16 775.27 312.61 782.19 320.03 787.63 325.97 791.09 331.9 794.06 334.87 798.51 338.33 799 340.81 798.65 341.94 798.01 344.03 797.57 345.47 797.02 347.24 796.57 347.24 789.61 347.24 784.66 344.76 780.71 340.31 772.8 336.36 766.87 333.88 760.44 331.41 756.49 329.43 749.57 328.44 744.62 328.44 740.67 326.46 735.72 323.99 728.31 323.99 720.89 326.46 717.93 330.42 718.42 336.85 716.44 341.3 714.47 344.76 711.48 346.14 708.04 347.73 704.09 350.2 699.64 353.17 695.19 356.14 689.75 357.13 683.82 365.54 681.14 368.21 678.87 370.48 670.96 373.95 665.53 375.93 665.03 379.39 666.02 383.34 666.02 389.77 667.5 394.72 669.48 398.18 668.93 399.85 668 402.63 665.53 405.6 664.04 407.09 667.01 410.55 669.24 413.23 669.48 413.52 667.99 415 667.5 415.49 660.58 418.46 653.66 418.96 650.7 421.43 645.04 425.04 640.29 426.62 Z M 435.66 487.22 440.1 491.17 448.51 490.68 451.47 484.74 455.92 478.81 458.89 472.38 465.81 464.96 469.77 460.51 474.21 455.06 476.69 447.15 476.19 441.71 473.72 433.3 471.25 430.33 467.29 430.33 462.84 431.32 456.42 429.84 452.96 423.41 448.01 419.95 440.1 416.98 436.63 413.29 428.72 413.78 425.26 413.78 417.36 413.52 409.95 409.56 405.5 409.56 400.56 407.58 388.2 412.03 379.3 416.48 373.86 422.42 367.93 427.86 369.91 435.28 371.88 441.71 375.35 451.6 378.81 459.52 383.25 463.97 391.66 466.44 401.05 468.42 411.43 467.92 416.38 471.39 420.33 475.34 423.3 478.81 426.76 484.25 432.69 484.74 435.66 487.22 Z" fill-rule="evenodd"/>
</g>
</svg>