<?xml version="1.0"?>
<svg xmlns="http://www.w3.org/2000/svg" version="1.2" baseProfile="tiny" width="800" height="296" viewBox="0 0 800 296" stroke-linecap="round" stroke-linejoin="round">
<g id="hetchhetchyreservoir">
<path d="M 164.05 2.93 167.93 4.41 169.17 5.15 169.51 5.49 169.55 6.13 168.95 7.35 169.29 8.93 169.59 9.24 172.73 9.44 175.37 9.44 177.12 9.88 177.78 10.98 181.3 12.07 184.15 12.95 188.54 13.61 191.4 13.61 196.01 13.61 198.64 13.39 199.36 13.94 200.22 14.62 200.73 15.39 202.27 16.24 203.12 17.28 203.51 17.48 204.27 17.76 205.43 18.33 206.24 19.07 209.62 20.19 214.46 21.28 215.99 22.6 216.22 23.9 218.52 26.64 223.24 28.74 226.53 30.72 228.73 32.69 232.46 34.94 235.62 37.17 237.92 38.49 239.33 39.19 244.62 42.59 246.41 43.44 249.81 43.88 253.55 43.88 257.06 44.53 261.23 45.41 265.18 45.85 268.26 45.85 271.77 46.51 276.16 46.73 278.36 46.29 281.43 46.29 283.41 46.73 287.36 46.95 292.42 47.17 295.27 47.82 300.1 48.04 303.83 48.04 307.35 47.61 310.42 47.39 313.06 47.39 316.57 47.39 319.43 47.39 320.96 48.26 324.7 48.26 328.87 48.04 333.26 47.17 337.21 45.63 340.51 43 344.02 42.12 347.97 41.68 350.83 41.68 353.25 40.37 353.7 40.33 358.74 39.93 362.03 39.71 366.64 39.71 371.47 38.39 373.01 38.39 373 40.1 372.87 41.45 373.13 42.23 373.47 42.57 374.15 43.07 375.43 43.71 375.77 44.05 375.99 44.56 376.03 44.99 375.86 45.84 374.97 47.39 374.75 48.47 374.75 49.68 373.22 51.2 372.83 51.88 372.28 54.21 372.32 54.81 372.62 55.59 375.86 57.69 378.72 59.23 382.89 59.45 385.55 60.21 386.24 60.51 386.07 60.85 385.6 61.05 383.64 61.42 383.21 61.73 382.06 62.67 381.59 62.71 381.35 64.49 382.45 66.03 385.31 66.69 386.63 67.78 386.63 69.1 387.28 70.86 387.72 72.61 388.6 74.58 390.14 76.34 392.55 80.07 393.65 82.92 394.75 84.45 394.97 85.99 396.73 86.21 398.26 86.87 397.17 88.18 394.97 89.06 393.65 91.03 393.43 92.13 393.87 93.45 394.97 94.54 395.19 96.08 394.75 98.27 394.31 99.81 394.53 102.22 395.85 103.1 397.83 104.41 401.34 105.73 403.1 107.27 404.63 109.9 406.61 112.75 407.49 115.82 408.11 118.29 408.37 119.33 407.93 121.3 407.71 123.5 408.81 124.81 410.78 126.57 411 128.54 411.22 129.64 408.81 130.08 407.49 130.74 406.83 132.27 405.73 134.46 406.17 136.44 407.71 137.53 411.44 139.73 414.73 141.48 418.91 143.02 424.18 145.21 427.91 145.65 432.08 146.97 435.82 147.84 440.65 148.28 443.94 149.16 447.02 149.82 453.6 150.04 461.51 150.04 466.56 150.04 470.95 150.04 476.88 149.6 481.27 150.04 484.13 150.26 488.74 150.26 492.47 150.7 495.99 152.23 497.96 153.33 499.37 155.76 501.25 156.17 502.06 156.2 504.24 157.01 507.48 157.65 509.53 158.63 511.91 159.24 512.73 159.74 512.73 160.01 513.37 161.06 514.13 161.6 514.77 161.97 516.63 161.22 517.94 161.55 518.39 161.66 520.36 162.1 522.78 162.76 525.42 163.64 526.95 165.39 527.83 166.49 529.81 167.37 531.78 167.8 534.64 170 536.62 170.44 539.03 171.53 540.57 172.41 542.76 173.07 545.84 173.29 550.45 173.51 554.84 174.82 557.92 175.92 561.21 176.58 564.07 177.24 566.04 178.99 568.46 180.53 570.21 181.4 570.21 182.72 571.09 184.25 572.63 185.57 575.49 186.45 577.9 187.11 580.76 187.76 583.39 188.2 586.03 187.98 588.88 188.64 591.3 189.08 593.93 190.18 596.35 191.05 599.42 191.49 603.37 192.15 607.99 193.03 611.06 194.34 614.36 196.1 616.77 197.42 617.87 199.17 617.83 202.01 616.68 202.89 616.17 203.05 615.02 203.83 614.38 204.57 614.29 205.08 614.76 206.8 616.77 209.7 619.85 212.11 622.26 213.21 627.31 214.3 631.92 214.08 638.07 212.77 643.56 211.89 648.83 210.79 650.37 210.36 650.81 211.09 651.03 211.45 651.25 211.89 653.66 212.11 656.08 212.11 656.96 212.77 656.96 214.08 652.79 215.4 649.27 216.94 649.27 217.59 650.81 218.03 653.88 218.03 657.4 218.03 662.23 218.25 665.96 218.69 669.91 218.25 675.19 218.25 680.02 218.25 689.46 218.47 696.27 219.13 700.66 218.69 703.51 218.91 708.13 219.57 710.32 220.88 713.84 221.98 716.91 223.74 719.33 225.27 721.96 228.56 724.16 229.22 727.89 230.32 729.43 231.85 731.84 234.7 735.14 236.9 736.89 238.43 739.97 239.09 741.4 239.59 744.36 240.63 746.12 241.94 747.44 242.44 747.87 242.6 748.75 245.01 749.41 248.08 749.63 251.59 749.85 254.66 748.53 255.76 748.53 256.64 748.53 259.27 749.19 261.68 750.51 262.34 752.71 262.56 753.58 263.88 754.9 264.97 759.95 266.29 763.25 266.73 766.76 267.82 770.27 268.7 773.35 271.77 776.42 273.97 779.94 275.72 783.23 276.38 785.21 276.82 787.18 277.47 789.6 278.57 793.77 279.01 796.19 280.11 796.85 281.86 795.51 286.95 798.61 288.3 799 289.78 798.72 294.56 792.13 295 785.67 292.34 779.72 291.44 777.18 291.6 775.8 290.98 774.44 290.51 772.41 290.86 772.03 290.64 771.62 290.4 770.51 290.06 768.97 288.36 767.86 288.06 764.49 287.05 761.49 286.69 757.98 286.25 755.34 285.15 752.27 283.18 751.17 281.64 750.7 280.98 750.07 280.11 748.75 278.13 748.63 276.52 747.43 275.88 746.67 275.74 745.22 275.88 744.32 276.14 743.26 276.72 741.42 276.72 740.53 276.45 739.2 276.31 737.67 275.4 736.18 274.76 735.2 273.78 733.96 271.79 732.68 270.34 732.68 269.97 731.4 266.53 730.98 266.16 730.08 264.84 728.97 264 728.2 263.25 727.31 262.68 727.48 261.97 727.22 261.5 725.09 260.45 724.67 259.95 724.32 259.2 723.64 258.33 723.04 257.89 722.36 257.62 721.89 257.08 721.38 256.88 720.44 256.81 719.55 256.5 717.8 256.3 716.78 256 716.01 255.63 715.54 255.22 714.98 254.14 713.24 252.69 712.68 251.85 711.91 250.16 710.68 248.41 709.87 247.73 708.12 246.99 707.78 246.62 707.65 246.08 706.46 244.52 704.62 243.24 703.3 242.16 701.34 240.85 700.7 240.37 698.95 239.5 695.92 238.35 690.42 236.97 687.82 236.46 685.6 236.19 683.77 235.18 681.55 234.27 680.48 233.96 678.44 233.73 677.12 233.72 675.45 233.49 673.87 233.52 672.38 233.73 671.31 233.69 670.42 233.29 669.1 232.95 667.65 232.78 666.67 232.81 664.7 233.39 663.13 233.18 661.76 233.12 659.76 232.41 657.92 232.07 655.96 232.07 654.43 232.27 652.68 232.85 650.46 233.25 650.08 233.35 647.26 232.98 645.68 233.05 642.83 231.83 641.89 231.6 640.95 231.6 639.07 231.97 638.13 232.34 636.64 232.58 634.51 233.22 632.08 233.49 632.08 233.49 630.54 233.96 628.84 233.56 627.26 233.69 622.4 234.91 620.09 235.21 619.24 235.18 616.98 233.22 614.34 231.5 613.27 231.03 612.4 230.88 611.22 230.69 610.07 230.69 608.75 230.08 607.94 229.91 604.53 228.46 604.1 228.12 602.72 227.25 602.5 226.15 603.37 225.27 602.72 224.61 600.96 223.96 599.64 223.3 597.67 221.76 595.03 220.72 593.86 220.26 593.18 220.03 592.24 219.22 591.43 218.91 591.09 218.61 590.58 217.66 589.85 217.19 588.79 217.06 585.72 217.33 584.86 216.59 583.75 216.08 581.84 215.51 579.4 215.24 576.89 214.7 573.86 214.5 572.41 213.82 572.03 213.58 570.21 212.55 569.99 211.45 569.99 209.92 568.14 209.84 566.91 209.03 564.52 208.32 562.47 207.51 560.68 206.06 558.14 205.75 556.53 205.02 555.72 204.65 554.62 203.78 552.87 202.02 549.93 200.33 548.95 200.46 547.8 200.87 546.6 201.88 545.92 202.11 542.89 202.05 540.67 200.94 538.03 199.69 535.64 198.61 534.79 198.03 533.81 197.63 533.08 197.53 530.61 196.62 529.03 195.37 527.79 194.59 526.81 194.19 525.27 194.09 523.57 193.41 522.63 193.18 520.28 191.93 518.15 190.85 516.66 190.28 515.38 189.97 512.82 188.49 508.94 186.53 508.25 186.26 506.38 184.78 505.35 184.07 504.88 183.53 501.51 181.54 500.96 181.03 500.62 180.33 500.15 179.79 498.19 178.4 496.91 177.76 495.5 177.32 493.66 175.6 493.11 174.46 492.38 173.92 491.44 173.41 490.72 173.34 489.57 173.48 488.93 173.68 488.46 173.51 484.96 170.95 480.01 168.05 476.6 166.67 474.72 166.36 473.73 166.3 468.03 165.93 463.63 165.89 461.67 165.99 459.03 166.43 456.59 166 453.86 166.13 450.92 166.44 445.72 167.48 445.12 167.45 443.24 166.61 441.58 166.27 439.32 166.27 437.1 166.68 436.38 166.54 434.45 165.43 433 164.92 431.85 164.65 428.99 163.27 426.86 162.39 421.87 160.84 419.99 160.61 419.35 160.64 418.84 160.74 416.67 160.58 413.64 161.22 411.66 161.04 411.22 161 409.02 159.91 405.51 159.03 402.44 158.81 400.81 159.12 400.72 159.14 397.26 159.81 396.15 160.21 394.06 160.31 391.9 159.91 391.24 158.37 390.14 156.84 388.82 155.52 385.31 153.99 382.23 152.67 379 151.51 375.75 151.18 374.6 151.11 374.09 151.04 372.97 150.59 369.94 149.38 368.18 147.84 366.64 145.87 366.07 145.01 365.32 143.9 361.59 141.26 358.3 140.17 355.66 138.19 352.59 136 351.49 134.03 350.83 132.05 349.07 129.64 346.66 127.01 344.47 125.17 343.23 124.1 342.59 123.83 340.71 123.35 339.61 122.38 338.79 121.87 338.46 121.42 337.21 119.77 336.34 118.89 333.92 116.48 331.29 114.07 326.67 110.78 323.94 109.33 323.68 109.02 322.5 107.27 322.5 105.07 322.06 103.98 321.4 103.1 320.74 101.78 319.21 100.03 318.11 99.37 317.01 97.83 316.13 95.42 313.06 92.35 309.55 88.75 307.16 87.33 302.89 85.99 301.18 85.75 296.75 85.52 289.84 85.69 288.56 85.52 283.52 86.43 282.46 86.2 281.52 85.93 280.66 85.79 279.21 85.86 278.53 85.8 277 84.99 275.71 84.65 269.7 83.71 267.03 82.87 256.13 79.46 253.95 78.96 252.29 78.42 250.62 77.71 249.81 77.55 248.92 77.14 247.72 76.4 246.53 75.32 246.1 75.02 245.07 74.71 242.47 74.65 240.85 74.85 240.17 74.75 239.66 74.51 239.31 74.01 237.56 73.04 234.78 71.62 233.5 70.61 231.16 69.15 228.73 66.99 222.46 63.45 221.99 63.08 221.74 61.76 220.8 61.32 219.39 59.97 217.98 58.12 216.88 57.07 216.06 56.66 214.83 56.36 214.49 56.16 214.23 55.65 213.72 55.24 212.91 54.94 211.63 53.89 210.86 53.39 206.73 51.36 205.74 51.02 204.34 50.92 201.56 49.67 200.03 49.1 192.78 46.97 189.45 45.72 188.17 45.35 187.36 45.21 185.99 45.31 185.53 45.52 185.14 46.09 185.1 46.46 183.05 47.88 180.23 49.33 178.36 50.2 176.73 51.58 174.64 52.7 173.49 54.79 170.84 56.27 168.58 57.69 160.56 61.63 159.36 62.34 156.55 62.58 154.24 63.55 151.43 64.26 148.95 64.56 148.14 64.73 147.37 65.14 143.58 65.61 141.14 66.21 139.86 67.16 139.48 67.63 139.69 68.51 136.49 70.7 134.74 71.54 130.52 71.95 125.7 71.81 123.39 72.08 119.89 72.72 118.96 72.82 117.59 72.79 115.71 72.25 113.54 71.97 112.86 72.01 111.96 72.45 111.19 72.99 110.93 73.53 111.66 75.99 111.32 77.78 111.27 79.06 110.76 79.67 106.28 82.7 104.1 84.29 101.46 85.77 99.34 86.71 92.24 89.85 90.45 90.46 87.68 91.13 86.23 91.4 79.95 93.52 77.99 94.03 70.18 95.55 67.41 96.56 66.13 97.06 65.96 97.16 65.28 97.43 64.94 97.53 64.21 96.86 63.61 97.03 63.27 97 62.72 96.08 62.21 95.64 58.03 93.55 56.79 93.35 56.36 92.91 55.94 92.67 55.43 92.57 53.08 93.01 53.16 93.28 54.02 93.99 53.59 96.65 53.16 97.03 52.44 97.19 51.84 97.19 51.58 97.03 49.92 97.02 48.94 97.19 48.38 97.43 48.3 97.7 48.34 98 48.21 98.41 46 99.25 45.65 100.16 44.5 100.63 43.73 100.77 40.83 100.97 40.41 100.7 39.81 100.53 39.08 100.77 38.32 101.31 35.59 101.64 33.88 102.05 33.28 102.05 32.04 101.44 30.59 100.33 25.86 100.43 20.53 101.27 19.82 101.55 19.74 101.58 19.61 101.28 17.86 101.72 16.28 102.31 15.09 102.71 14.83 101.78 14.34 100.13 13.72 98.76 13.04 97.32 13.42 96.9 13.11 96.46 12.4 96.79 11.89 96.33 11.19 95.69 10.89 95.47 10.12 94.9 9.2 94.21 7.73 93.48 6.21 92.8 6.29 92.8 7.44 92.77 8.93 91.71 9.68 90.76 9.74 89.39 9.1 88.72 8.16 88.18 6.97 87.97 5.64 87.94 4.49 87.74 2.98 85.11 1.22 83.8 1 82.26 1 80.51 2.76 78.53 4.73 76.12 5.17 73.93 6.49 71.29 7.59 68.88 8.69 65.15 10 62.64 10.04 62.27 11.02 60.65 10.94 59.77 11.71 57.17 12.48 55.99 15.84 51.21 16.06 49.9 15.85 48.87 16.32 47.63 16.94 47.37 17.97 47.52 18.99 46.24 19.69 44.96 20.46 44.22 20.89 43.91 22.46 43.31 22.57 43.25 24.77 42.16 28.05 43.07 30.31 43.14 32.19 43.04 36.54 41.52 37.61 41.18 38.46 41.12 39.36 41.08 40.55 40.81 40.94 40.85 41.58 40.64 43.03 40 48.96 38.66 51.73 37.27 53.18 36.87 56.94 36.06 57.37 35.79 57.96 35.18 60.31 34.71 62.1 33.9 64.11 33.13 65.22 32.99 66.75 33.09 68.55 32.96 74.18 32.86 76.27 32.52 83.05 31.98 83.65 31.78 86.76 30.23 88.22 29.35 88.86 29.22 92.61 28.58 95.26 28.41 97.18 28.21 98.16 27.94 99.57 27.47 101.61 26.08 103.49 23.99 105.46 22.37 108.57 18.49 109.85 17.04 111.9 13.94 112.67 13.03 113.85 12.17 114.42 11.75 117.32 9.15 117.92 8.95 126.97 6.69 130.17 5.55 133.2 4.8 135.33 4.6 136.14 4.67 140.15 4.47 141.95 4.33 142.29 4.07 143.48 2.92 143.99 2.89 144.51 3.12 145.91 4.13 146.72 3.16 149.07 3.09 149.54 2.79 150.05 2.25 151.93 1.71 152.23 1.03 153.21 1 155.99 1.17 157.44 1.2 159.44 1.81 164.05 2.93 Z"/>
</g>
</svg>