<?xml version="1.0"?>
<svg xmlns="http://www.w3.org/2000/svg" version="1.2" baseProfile="tiny" width="800" height="373" viewBox="0 0 800 373" stroke-linecap="round" stroke-linejoin="round">
<g id="thermalitoforebay">
<path d="M 186.26 371.83 183.26 372 181.26 371.49 178.93 369.34 174.7 369.08 173.37 370.46 172.59 370.54 166.92 369.09 157.92 365.56 151.8 362.64 149.8 361.09 148.13 358.51 147.8 355.41 148.13 354.47 151.02 351.02 151.68 346.89 153.01 346.38 154.9 346.2 159.24 346.46 159.9 345.6 162.24 345.34 162.68 344.22 161.79 343.53 158.01 343.19 154.7 343.4 151.92 343.23 149.26 341.34 146.14 340.91 142.59 340.91 138.92 341.6 135.03 340.91 133.48 341.17 131.37 343.32 129.59 344.53 125.56 345.62 122.82 347.62 116.78 347.6 115.11 347.17 83.77 338.68 82.86 338.36 70.37 328.36 59.84 319.33 57.41 317.5 48.74 312.73 46.38 312.3 45.27 312.3 42 312.67 37.97 313.2 34.15 314.22 32.06 315.4 31.23 315.62 29.14 316.8 25.11 319.28 21.91 320.35 19.41 321.75 16.49 323.47 14.96 324.01 13.22 325.19 8 327.77 5.23 325.39 5.1 324.96 4.12 323.88 3.71 322.48 1 317.89 4.55 315.63 6.08 314.44 9.83 312.18 11.02 311.54 17.78 307.92 22.23 306.1 24.32 305.02 25.29 304.7 25.85 304.38 26.82 304.06 31.55 301.69 32.94 301.04 39.09 298.04 50.9 290.61 59.04 285.55 64.49 281.89 73.83 283.16 75.27 282.94 76.8 281.97 83.79 276.55 85.26 275.26 100.7 262.34 105.37 258.04 112.81 249.95 118.25 246.33 121.58 245.3 125.36 241.68 127.03 241.25 128.47 240.3 129.36 238.41 132.69 237.37 133.02 236.77 133.91 232.04 138.68 224.55 138.68 220.68 139.24 220.25 141.24 219.99 144.46 217.15 145.57 215.69 147.45 210.95 148.45 210.18 150.78 209.49 153.01 207.42 154.12 205.61 156.12 204.32 158.45 203.72 160.01 202.6 163.67 202 165.23 200.7 167.34 200.88 169.56 199.15 170.9 199.24 171.68 198.98 172.9 199.93 174.01 200.27 179.34 199.67 182.79 200.18 184.57 199.84 187.24 198.03 188.24 197.94 190.01 196.13 191.12 196.39 192.9 195.27 194.46 195.18 196.57 193.21 198.35 193.03 199.46 192.34 200.13 192.34 201.35 191.4 205.13 190.53 206.9 189.58 208.01 188.29 208.35 186.57 210.79 185.37 212.46 183.65 211.34 181.5 213.68 179.17 213.45 177.62 214.79 175.3 214.45 173.75 215.34 172.89 215.45 171.17 217.11 170.31 219.23 168.59 219.34 168.07 221 167.38 222.78 165.66 224.56 165.83 227.56 165.06 230.11 162.73 235.11 159.8 236.45 159.8 237.89 160.32 240.01 161.69 241.01 161.78 244.56 159.02 251.57 159.62 254.57 160.57 256.79 160.14 259.68 158.24 261.46 159.79 267.35 159.87 270.13 160.99 274.02 160.99 279.36 163.66 280.69 163.83 283.14 163.05 284.8 161.5 285.14 160.38 283.36 158.06 285.8 156.85 292.36 151.43 296.8 146.79 300.46 143.86 306.02 137.92 313.24 131.63 316.13 129.65 318.79 126.13 321.79 123.8 322.9 121.91 325.24 120.7 330.35 116.91 333.46 116.66 340.02 113.21 345.69 113.81 349.58 112.95 351.58 112.95 356.36 110.8 360.02 108.04 362.14 107.78 366.58 108.12 370.36 108.81 375.48 108.21 378.7 108.47 381.98 108.15 385.81 107.77 394.26 105.1 397.93 105.45 402.04 104.93 406.82 105.79 409.49 105.87 413.05 104.84 416.27 103.12 419.49 102.08 429.83 95.97 433.94 95.2 435.05 95.37 438.16 93.47 440.72 93.9 442.94 93.56 453.17 90.46 465.06 90.11 466.73 90.62 471.51 94.92 472.74 95.35 476.63 95.53 478.41 96.99 479.52 97.33 481.41 97.5 483.97 96.99 485.52 98.02 486.74 98.19 488.08 97.93 489.97 96.38 491.08 96.21 493.53 97.41 497.97 98.1 501.42 99.56 500.98 100.25 499.97 100.34 496.75 99.73 494.53 100.08 494.08 100.51 494.31 103.61 493.75 104.55 489.64 106.79 488.64 108.6 487.64 109.46 485.86 109.8 485.19 110.32 484.31 112.39 481.2 115.48 480.2 117.21 480.53 118.93 482.31 120.65 484.65 121.16 491.42 121.07 494.32 121.5 497.32 120.81 499.98 118.58 501.99 117.8 506.65 117.54 509.88 116.59 512.99 117.11 513.77 116.85 514.99 116.34 515.99 115.13 516.99 112.03 518.32 109.88 521.88 107.81 524.54 105.4 525.54 102.57 525.87 99.73 525.65 98.87 524.21 97.75 524.43 96.03 523.54 95.51 521.87 95.43 519.76 93.45 517.2 92.5 517.31 91.73 518.53 90.44 521.31 89.57 524.87 89.14 526.09 87.94 526.31 87.08 525.87 84.5 524.2 80.54 520.42 76.58 520.97 76.15 522.97 76.07 528.75 76.67 534.53 75.29 535.54 74.34 535.42 72.97 532.09 71.5 531.76 70.9 533.86 69.95 536.09 67.29 539.87 65.22 543.87 64.27 547.2 62.81 548.2 62.64 550.43 64.62 552.98 64.79 560.99 63.92 565.99 61.94 569.77 62.37 572.32 61.25 574.77 61.68 577.11 61.42 589.78 56.52 592.44 53.94 597.34 53.93 599 52.38 601.45 52.3 603.22 50.75 607 50.15 608.56 48.68 611.78 48.51 614.01 45.67 614.23 44.12 613.89 43.26 610.56 40.42 610.45 39.22 611.67 39.48 613.45 41.02 614.78 41.28 616.56 42.23 621.79 43.78 623.12 43.77 624.12 43.17 624.68 41.88 625.9 42.48 628.68 42.14 634.01 40.76 637.46 38.95 638.46 38.35 639.13 37.15 638.91 34.91 638.02 33.62 636.12 32.42 630.79 30.78 629.34 29.32 629.12 27.51 631.01 22.69 636.45 18.56 637.12 16.75 639.12 15.81 639.12 14.78 639.67 14.34 641.56 14.43 643.79 13.74 655.46 5.31 662.24 1.52 663.13 1.95 663.68 2.81 665.46 1.69 666.57 1.95 669.24 3.84 670.58 3.67 672.25 2.64 674.25 3.07 677.25 1.35 678.58 2.46 681.69 1.09 682.58 1 683.25 1.43 681.03 3.15 687.48 8.31 690.48 12.01 691.48 15.28 691.26 17.78 688.93 24.14 685.15 30.17 682.26 32.66 679.48 34.13 676.59 35.16 674.81 35.33 669.48 35.25 664.14 34.65 657.58 33.01 653.24 32.76 651.58 33.19 650.35 34.22 648.36 38.18 648.02 40.67 648.58 41.27 649.91 41.19 651.92 40.33 654.47 39.98 657.69 40.41 660.92 42.39 662.92 46.09 663.03 47.04 661.92 48.84 662.37 49.62 660.81 50.65 660.59 51.68 659.26 52.97 657.37 53.66 648.36 55.04 645.14 56.93 644.03 58.74 645.7 65.54 648.03 68.98 654.26 73.37 660.04 75.77 666.49 76.98 670.38 77.15 678.61 76.46 727.63 60.7 731.74 60.01 776.65 60.52 780.32 60.87 783.43 61.64 798.44 67.83 798.73 71.78 799 75.49 784.77 80.57 782.22 81.26 737.75 81.78 726.85 83.25 669.94 100.64 664.61 103.73 661.94 105.89 656.94 107.52 654.61 108.99 653.05 110.36 649.61 110.45 646.16 111.91 643.72 112.09 642.38 113.03 639.27 113.55 635.71 115.36 633.6 117.42 628.38 118.63 622.37 120.95 619.59 121.3 618.04 120.87 613.48 121.3 605.48 124.57 601.74 127.91 588.22 142.36 579.36 153.54 566.77 159.6 555.12 162.86 543.55 163.86 542.82 163.92 528.08 165.19 326.16 164.5 316.88 166.59 299.16 173.58 284.24 183.83 276.78 195.94 274.45 207.13 273.99 274.69 273.99 332.48 269.79 338.07 264.66 342.73 251.14 348.78 214.78 362.76 193.93 369.59 186.26 371.83 Z M 486.87 126.93 487.98 126.75 488.76 126.15 490.43 124.26 490.54 123.57 489.54 122.97 487.87 122.97 486.2 122.37 485.2 122.88 486.32 126.5 486.87 126.93 Z" fill-rule="evenodd"/>
</g>
</svg>