<?xml version="1.0"?>
<svg xmlns="http://www.w3.org/2000/svg" version="1.2" baseProfile="tiny" width="800" height="586" viewBox="0 0 800 586" stroke-linecap="round" stroke-linejoin="round">
<g id="lakesuccess">
<path d="M 701.01 403.59 693.02 397.1 680.82 395.8 673.1 396.84 669.19 400.59 666.12 405.02 663.86 406.31 662.47 407.1 658.19 408.98 656.11 409.24 651.52 410.7 648.08 415.54 642.66 419.5 636.29 421.54 628.21 425.96 614.81 430.65 605.84 433.73 603.24 434.09 601.83 435.08 600.94 434.04 590.62 431.64 583.74 430.76 580.36 430.09 577.38 429.51 569.09 425.96 566.92 424.32 564.68 422.61 563.45 421.68 558.66 418.46 556.1 416.79 555.06 415.54 546.67 414.03 541.97 413.72 536.66 413.98 532.38 415.54 528.26 417.89 526.07 418.36 524.48 417.25 527.39 405.15 526.89 404.75 520.67 403.94 519.48 406.99 514.73 427.04 512.75 431.45 506.71 442.11 495.43 456.87 494.15 457.83 492.96 458.71 486.04 458.95 484.26 459.75 475.76 468.17 470.62 474.27 458.06 485.57 452.91 492.23 451.73 493.03 449.89 493.44 442.83 495.03 440.56 496.31 437.59 498.88 432.94 506.58 430.57 514.84 428.88 517.81 428.71 517.9 427.4 518.61 421.96 519.65 416.82 522.29 413.07 525.5 409.9 530.15 404.26 534 398.13 542.1 383.4 557.42 380.04 563.03 375.59 568.64 372.72 571.53 369.26 573.53 364.02 578.34 358.98 585 234.63 555.31 230.48 554.34 227.81 553.7 216.94 551.29 215.14 550.5 220.77 529.29 219.38 527.06 213.82 519.56 219.66 519.56 223.28 514.28 247.19 513.72 257.2 500.39 253.62 498.49 255.12 493.87 253.31 491.77 253.17 490.44 253.55 489.57 254.8 488.78 255.68 487.03 254.77 485.29 259.84 479.15 261.93 476.77 262.76 465.65 263.04 452.59 263.87 440.64 268.6 430.92 269.44 422.58 266.86 417.02 262.9 411.5 254.14 402.85 252.37 398.26 252.76 396.44 252.99 395.35 255.6 394.72 260.19 392.43 263.84 388.89 267.59 383.88 268.12 381.07 268.32 375.86 269.16 371.48 274.27 359.19 274.89 347.41 272.29 339.91 270.93 338.45 269.47 334.91 269.68 333.03 270.83 325.63 271.45 321.36 269.58 318.55 264.78 312.71 260.19 308.02 256.02 306.77 252.79 307.92 247.26 308.65 242.67 308.86 238.92 308.13 237.87 306.88 238.03 305.94 238.71 301.87 239.86 299.27 239.69 296.06 234.57 290.07 223.62 281.82 222.05 278.87 217.01 276.87 210.32 274.18 205.54 272.53 200.5 270.79 188.34 268.45 178.6 267.67 167.22 267.49 160.35 268.01 156.27 267.32 153.84 266.28 151.23 263.85 149.58 260.2 147.06 258.72 143.93 255.94 142.45 252.3 138.28 250.3 133.16 249.95 130.46 248.74 128.98 247.95 127.42 244.48 114.82 238.14 108.48 234.58 106.22 230.59 101.7 230.15 97.35 233.97 94.31 235.71 91.1 234.76 89.17 233.14 87.27 231.54 87.62 228.33 85.27 226.33 83.01 226.42 78.24 228.24 76.24 229.46 73.27 231.07 71.98 227.81 69.63 227.11 64.94 225.64 64.77 223.12 63.67 218.17 63.38 216.87 61.49 215.04 65.84 211.74 64.1 209.31 62.19 206.19 63.23 202.89 64.1 200.45 60.1 198.54 57.67 195.07 57.15 191.94 58.71 188.12 57.15 182.04 51.41 173.01 43.62 168.34 37.34 161.72 35.78 159.23 32.47 153.91 22.91 150.61 18.74 147.66 12.13 148.87 12.83 144.01 11.61 136.37 14.74 129.94 15.09 124.21 11.96 119.52 7.62 113.96 5.7 107.02 7.27 100.24 13.7 101.11 19.09 99.72 21 96.08 22.04 93.82 22.04 91.04 22.04 86.7 20.65 82.36 17.87 79.92 15.61 79.23 13.7 78.19 11.79 76.8 11.09 73.5 8.14 71.59 5.18 70.2 1 68.6 1.53 65.33 6.57 63.25 15.61 56.65 19.09 51.44 22.21 51.96 26.04 52.83 31.08 59.95 32.26 63.49 40.29 78.01 43.94 81.49 47.42 84.44 49.67 87.74 50.2 93.12 51.47 98.66 54.71 101.81 54.53 106.63 54.44 108.86 54.37 110.84 53.15 119.35 55.41 129.59 61.67 147.83 61.49 153.21 65.49 156.34 70.7 158.95 79.05 161.38 83.74 166.93 95.21 177.36 99.38 183.09 107.72 191.08 124.41 201.5 143 205.14 155.87 203.75 158.99 196.46 159.17 178.74 152.22 155.13 146.13 148 144.74 140.54 146.48 128.55 148.39 131.16 152.55 139.87 158.65 144.7 169.25 146.44 172.03 142.97 177.07 130.46 185.93 102.68 184.89 93.3 180.2 81.49 176.37 71.24 179.85 58.74 184.37 67.25 191.49 79.4 197.58 85.83 200.88 80.62 205.92 71.76 209.05 64.81 211.65 55.09 207.14 38.76 204.53 28.55 204.39 20.21 206.34 9.52 211.2 4.93 213.18 7.11 215.23 9.38 216.9 17.3 222.33 13.68 221.49 22.44 220.93 28.41 227.49 35.31 234.1 43.3 235.84 47.47 245.57 47.47 248.35 49.55 246.61 53.03 241.05 59.63 242.09 61.02 248 64.14 253.91 66.57 252.87 69.35 237.23 69.35 232.36 80.47 234.79 86.03 237.92 91.24 229.23 97.49 228.88 102.7 225.58 116.85 221.24 132.92 217.76 151.59 218.19 160.27 222.11 171.99 222.11 181.98 219.93 190.23 228.62 211.51 236.01 222.79 241.66 226.7 245.78 228.05 252.11 227.6 258.17 228.44 263.38 230.61 265.18 237.59 261.64 245.81 260.77 250.58 263.82 258.4 269.46 259.27 275.98 261 281.98 259.26 286.96 253.83 301.55 238.82 314.96 232.37 344.5 227.6 355.78 223.13 358.39 216.18 360.73 206.8 373.4 199.56 390.56 191.12 397.51 180.7 397.51 175.49 391.96 169.26 387.46 165.51 381.82 161.17 376.66 135.55 376.66 126.43 381.87 113.84 354.5 93.43 346.7 85.14 355.75 78.36 357.54 66.51 351.02 56.96 343.53 45.35 349.41 45.35 362.75 49.58 374.48 57.83 380.57 65.64 384.48 74.76 385.35 80.84 402.29 80.84 407.94 69.99 414.46 63.04 417.26 59.35 418.51 57.27 418.65 48.66 418.09 42.82 416.15 31.15 416.15 28.93 416.29 23.51 418.66 23.51 420.46 23.51 421.15 18.23 419.62 14.2 415.45 4.06 413.09 1 416.01 2.53 417.82 7.53 421.99 13.64 427.13 18.09 435.06 18.37 431.44 27.68 432.42 33.23 435.47 35.6 437.84 38.1 437.98 41.57 443.82 48.24 446.04 52.82 443.96 61.72 441.59 72 441.73 73.94 442.84 75.47 444.1 83.39 443.82 87.14 441.73 91.31 440.34 97.28 440.48 102.01 441.45 105.34 441.87 107.15 442.29 109.79 442.29 114.51 440.34 121.04 435.89 128.27 433.95 129.66 435.89 131.6 438.53 133.27 443.54 138.13 446.18 141.19 452.44 138.27 461.75 134.8 470.65 133.83 480.38 132.85 498.74 127.99 503.33 127.43 521.54 113.54 517.51 109.37 519.31 106.45 534.47 97.01 541 95.34 556.02 90.62 561.3 89.23 564.64 88.67 572.43 87.98 579.8 83.11 592.17 80.47 599.12 79.22 617.75 79.92 622.44 81.66 624.84 82.56 630.65 82.19 651.33 79.24 645.53 94.28 640.66 98.79 634.08 103.69 631.87 106.68 643.75 110.76 649.45 110.9 659.6 107.15 666.56 104.51 668.84 103.39 678.93 91.73 685.74 84.36 678.69 100.19 683.07 96.81 687.61 90.4 690.58 88 695.27 84.93 703.18 76.82 705.63 81 700.73 88.82 690.3 98.51 677.06 117.06 672.89 121.96 667.26 125.08 661 125.92 658.08 128.83 652.55 130.4 646.71 130.61 637.85 133.32 633.68 135.61 632.74 138.73 635.87 140.4 639.83 145.51 643.38 147.59 649.22 146.76 658.18 141.62 665.48 138.66 671.04 137.1 672.09 144.74 679.04 145.26 683.04 144.4 690.68 140.92 698.16 140.92 699.55 145.44 704.59 146.13 712.41 137.1 724.57 131.72 728.22 125.99 729.96 124.94 737.78 117.13 743.34 115.39 753.49 115.52 757.6 115.57 758.99 119.39 756.73 125.81 750.3 127.9 745.6 129.77 742.48 135.89 735.7 139.36 728.05 143.87 716.41 150.65 708.06 153.6 703.37 156.9 697.81 159.51 691.55 161.59 691.03 163.5 675.22 163.15 664.96 165.06 657.49 166.11 651.58 165.93 648.38 165.51 646.2 169.58 645.77 169.92 640.38 174.09 621.19 181.03 617.86 186.31 622.58 190.76 622.33 194.36 622.31 194.65 613.13 193.54 600.06 204.93 588.94 219.38 579.48 223.83 576.42 226.05 572.53 230.77 570.86 231.05 567.8 230.22 560.85 233.28 553.07 236.33 549.73 241.89 548.34 251.62 541.39 254.39 528.59 260.51 522.2 264.4 509.73 271.06 510.57 277.45 500.28 288.01 495.27 295.23 488.88 303.01 485.54 313.3 482.48 319.41 471.64 327.74 471.64 331.64 463.02 336.64 459.96 342.19 451.89 344.97 445.78 356.64 441.33 366.37 445.5 369.15 451.34 369.43 456.9 368.04 463.29 368.59 463.85 378.32 463.29 381.24 466.01 384.05 471.95 384.36 478 383.74 481.13 382.17 482.48 379.99 488.22 376.65 495.52 372.9 502.5 370.4 512.1 369.46 528.16 368.73 529.62 369.88 527.74 377.9 525.65 386.97 525.74 388.44 527.42 388.6 530.95 389.03 531.45 388.63 536 370.18 540.51 371.67 551 377.79 559.45 382.27 566.33 385.4 576.13 390.09 580.61 393.63 591.98 397.7 599.91 398.84 610.33 399.16 612.73 398.22 619.53 391.85 625.69 388.48 635.88 382.9 638.28 383 643.49 377.79 658.51 364.98 669.36 362.68 684.58 362.58 689.79 364.46 692.71 366.23 696.36 366.54 698.13 366.5 702.72 363 709.27 359.04 710.55 357.58 709.09 361.85 707.94 365.5 707.21 368.94 708.56 371.65 710.96 374.88 717.12 379.25 725.46 384.67 736.62 391.86 744.49 396.88 747.95 398.89 751.71 399.45 755.94 401.42 758.56 404.28 764.35 410.62 766.8 411.4 771.76 414.62 773.76 416.05 775.02 418.22 774.27 422.52 777.23 426.08 778.92 430.51 780.09 434.15 782.01 439.23 783.66 440.84 786.52 444.83 796.39 447.14 799 448.44 788.26 451.43 786.98 451.14 772.94 447.9 767.99 445.33 765.77 443.05 761.88 431.93 758.89 430.25 758.84 430.32 756.32 434.57 750.9 436.65 746.34 437.18 735.29 431.55 729.21 428.05 723.42 424.4 715.18 417.32 711.66 412.11 701.01 403.59 Z"/>
</g>
</svg>