<?xml version="1.0"?>
<svg xmlns="http://www.w3.org/2000/svg" version="1.2" baseProfile="tiny" width="800" height="530" viewBox="0 0 800 530" stroke-linecap="round" stroke-linejoin="round">
<g id="campfarwestreservoir">
<path d="M 280.15 201.56 280.02 198.55 278.65 197.32 272.89 193.55 270.84 188.62 266.11 185.34 259.13 187.67 257.83 190.33 257.9 193.76 256.59 196.49 256.87 200.67 255.09 202.52 251.25 200.53 245.98 195.6 236.6 191.57 232.42 190.81 227.35 192.32 223.31 195.26 218.45 200.53 214.68 202.24 212.76 205.6 213.86 210.59 219.34 220.45 223.79 224.21 226.27 229.5 229.83 235.88 235.42 241.14 249.39 246.39 254 245.9 263.2 244.26 269.77 245.08 274.22 242.22 276.82 243.45 275.25 250.3 275.32 252.68 281.62 256.64 284.77 259.93 288.19 264.04 293.81 264.72 297.78 264.45 301.89 263.21 302 258.07 301.56 251.83 301.72 250.79 307.04 248.92 307.81 245.97 306.22 237.43 304.57 231.29 306.76 230.53 316.19 236.55 318.54 236.55 320.13 234.52 325.5 236.44 328.79 240.55 337.12 243.36 342.14 242.7 345.42 240.4 346.74 237.61 348.14 237.12 353.64 240.24 354.55 241.88 357.59 242.13 360.46 247.39 364.32 249.68 372.38 253.54 375.67 247.8 381.95 245.78 382.63 247.28 382.63 259.05 384.82 263.71 388.93 270.83 394 272.74 393.18 274.25 390.71 274.25 388.11 276.58 384.41 282.6 381.94 287.11 384.23 292 388.27 294.8 392.1 297.27 387.03 304.93 383.88 310.68 383.47 312.94 385.32 314.72 387.58 315.06 389.84 316.91 398.2 320.81 400.66 322.18 394.29 328.2 389.84 330.66 387.79 332.99 386.42 339.15 387.03 346.61 394.23 348.87 396.01 351.74 395.8 357.01 393.81 363.17 394.5 369.4 398.13 370.09 409.57 374.12 416 374.47 422.03 376.18 423.88 382.68 426.14 385.55 429.7 387.2 432.71 388.09 434.7 386.44 439.01 388.43 441.89 392.47 448.46 393.15 450.86 394.45 455.45 396.78 460.17 398.22 463.05 397.33 467.43 395.41 469.9 398.97 473.53 401.43 483.32 405.47 489.58 408.33 493.76 407.85 499.58 406.14 502.8 403.47 506.02 400.32 507.18 397.51 511.91 399.57 514.99 400.46 517.18 399.84 518.41 398.75 519.85 398.95 521.22 400.46 521.97 402.99 527.38 407.37 532.25 408.53 540.12 411.07 543.2 411.2 545.26 409.29 547.45 406.41 548.68 402.85 550.67 399.77 552.17 398.13 554.57 397.45 555.68 396.1 556.63 397.45 555.32 400.53 556.63 401.55 556.49 402.78 556.21 404.56 556.9 405.32 556.08 407.85 554.94 412.55 556.17 414.88 558.02 417.41 564.6 422.68 569.8 425.15 572.27 424.67 573.02 426.11 573.77 428.98 576.73 432.57 581.28 436.91 586.25 439.14 589.36 438.93 593.75 436.2 598.88 430.17 600.46 430.28 602.21 431.68 605.25 432.91 607.72 435.03 613.33 437.56 613.82 438.55 618.85 442.11 620.8 443 624.36 442.16 626.37 441.87 628.03 441.29 628.87 442.22 627.99 443.07 627.48 445.44 628.3 447.66 629.9 448.56 632.45 452.84 636.64 457.02 639.03 460.1 640.98 462.16 643.17 462.29 645.64 461.83 647.33 460.34 649.42 458.7 650.78 457.8 653 459.81 655.91 460.63 657.06 461.45 660.64 462.19 662.12 461.58 663.47 463.42 665.65 463.87 669.56 464.12 670.42 466.46 674.32 468.23 680.03 471.23 684.14 472.58 685.87 472.66 687.68 473.11 695.15 473.57 698.65 474.59 700.49 475.33 704.54 475.26 713.8 472.5 722.5 470.66 724.41 470.45 728.85 471.92 733.73 473.18 735.26 473.07 736.96 472.36 738.09 472.83 739.53 475.21 740.1 479.53 740.1 484.95 741.75 486.32 743.26 485.28 746.21 484.84 749.31 483.66 753.2 483.22 754.13 481.31 753.42 480.32 752.21 479.99 750.87 478.38 750.23 477.01 750.57 476.05 751.28 476.62 753.09 478.87 754.9 479.12 756.38 479.94 757.56 482.5 758.12 484.69 759.63 487.21 763.19 488.94 766.75 490.19 770.81 489.87 772.83 491.34 774.89 491.89 778.12 491.37 781.9 491.44 783.76 490.18 786.67 489.88 788.1 488.57 789.06 487.07 789.71 486.59 791.88 487.21 795.77 487.21 797.36 486.77 799 487.05 798.79 489.97 796.35 496.2 794.59 496.16 792.08 495.87 788.9 496.34 787.35 496.36 782.34 497.63 779.26 498.37 776.67 498.09 768 498.13 762.11 497.88 758.88 498.43 756.91 498.26 753.51 497.77 748.75 497.88 743.93 496.29 739.98 496.29 737.84 496.07 735.1 495.85 732.37 496.07 729.46 494.81 726.5 492.84 722.78 491.58 722.23 488.85 718.61 484.19 715.88 482.74 714.16 482.53 711.77 482.39 707.93 482.94 703.75 484.28 702.62 485.23 702.83 486.29 704.68 486.71 706.22 488.18 707.49 491.29 708.75 496.29 703.89 490.47 701.22 489.78 698.55 489.58 696.12 488.86 693.58 486.98 690.23 486.19 687.04 484.79 683.07 482.7 680.85 482.29 679 482.67 677.49 482.12 675.74 480.37 668.52 477.03 667.01 477.09 663.45 475.45 662.49 475.62 657.46 474.49 653.97 473.39 650.58 472.61 647.08 472.57 643.22 472.54 637.22 472.81 634.89 472.78 634.04 472.16 632.6 470.86 630.58 468.36 629.62 468.4 629.04 466.89 627.64 465.76 626.03 463.23 623.97 461.21 621.92 460.08 619.38 458.94 613.63 456.53 610.72 454.83 606.94 454.18 604.97 452.48 603.66 452.15 602.94 453.35 601.14 455.49 600.75 460.14 601.68 465.07 604.31 471.65 603.16 472.63 601.68 475.91 600.37 478.7 599.66 485.11 597.96 490.15 598.89 497.48 599.99 502.8 599.99 506.57 598.29 511.56 596.26 511.83 596.97 504.38 595.27 501.45 594.79 498.72 593.49 497.69 592.71 493.51 592.5 490.64 592.06 486.98 591.23 484.07 591.03 481.78 590.51 477.05 589.32 474.73 588.91 470.62 588.15 470.14 585 469.15 584.8 467.2 582.78 465.08 582.23 459.81 578.7 457.48 576 455.05 573.15 452.18 569.18 449.23 563.46 443.42 561.82 441.57 560.14 440.82 557.4 438.83 552.03 435.51 547.88 434.31 543.95 432.09 541.58 431.37 536.38 430.31 528.91 429.63 526.76 429.11 520.32 425.49 514.57 423.4 509.26 422.34 504.29 421.72 500.63 421.99 498.2 422.85 494.54 422.47 487.21 421.28 486.18 420.52 485.15 420.83 482.83 420.8 472.77 420.83 466.95 418.3 462.14 417.58 457.71 416.87 447.63 418.02 445.54 421.25 446.31 426.29 450.11 429.93 453.12 432.02 457.83 433.71 461.94 434.1 464.68 433.44 466.71 434.86 470.05 438.26 472.19 445.81 470.16 448.06 466.33 447.73 465.01 448 466.22 454.63 468.52 456.54 476.57 461.47 480.13 463.94 478.05 467.22 478.43 469.25 481.94 473.52 484.73 474.94 484.13 476.09 480.57 475.93 478.38 478.77 474.17 478.64 473.23 478.61 473.23 476.31 467.09 470.4 462.55 465.09 455.81 459.01 452.03 454.68 446.66 449.81 442.82 450.41 437.12 449.75 434.28 447.51 431.45 445.18 428.82 445.76 429.15 449.7 429.07 455.61 427.59 459.06 429.4 463.91 428.41 472.2 423.65 469.16 421.62 463.03 413.96 454.01 405.74 452.04 403.77 456.31 405.63 464.78 410.39 472.17 409.57 477.34 409.65 481.45 408.5 490.32 410.8 496.15 414.91 499.02 414.83 501.9 412.61 504.03 406.04 513.56 408.58 523.74 408.42 526.04 404.63 527.59 401.19 529 399.96 526.54 397.08 521.94 394.94 516.76 393.46 515.78 394.45 512.33 393.55 510.28 391.08 509.45 390.75 507.48 394.04 505.76 395.77 501.24 393.46 499.93 390.09 497.13 386.15 496.48 383.85 498.94 383.77 501.32 376.62 503.13 373.81 501.54 369.98 501.98 364.69 504.84 362.64 506.14 360.8 507.31 361.24 504.84 358.77 503.97 361.57 502.82 365.76 499.41 367.35 498.97 369.16 496.5 369.32 491.74 366.2 489.39 366.09 485.88 366.48 485.02 370.8 487.16 375.79 489.71 377.43 484.61 374.47 479.41 371.95 473.61 369.49 469.12 368.45 466.92 369.84 465.66 369.18 460.24 367.87 458.43 368.8 456.52 370.28 456.63 370.88 455.86 370.17 454.76 369.68 453.83 368.74 454.11 368.09 453.07 369.57 452.41 368.63 450.6 370.67 449.88 372.31 451.87 373.68 455.98 374.77 456.26 373.6 457.48 372.99 459.89 373.35 462.22 375.71 463.56 372.39 467.53 372.94 472.18 373.87 471.91 377.65 467.2 377.32 465.29 377.32 459.48 378.86 458.77 380.01 460.08 381.71 459.43 382.53 457.51 380.88 456.42 380.39 453.08 379.57 450.56 375.15 446.82 374.16 444.03 371.53 441.15 373.34 434.83 366.43 427.93 364.71 422.67 360.02 418.81 363.47 412.16 362.26 409.06 359.12 407.48 356 411.26 356.82 414.79 355.34 419.8 358.71 420.38 361.09 425.38 358.87 428.51 357.72 431.79 357.89 436.23 356 438.11 353.2 438.53 351.07 435.73 345.4 435.08 340.15 434.49 335.97 434.7 330.22 436.96 324.26 443.53 322.76 447.16 324.02 448.86 326.86 452.53 329.44 454.88 327.96 457.24 327.63 459.48 322.48 457.95 322.87 454.88 322.26 453.52 318.32 451.98 316.84 450.45 314.7 450.89 314.26 448.86 314.98 442.51 314.04 440.54 310.65 439.66 309.11 437.31 309.55 435.67 310.32 433.69 313.54 431.64 313 428.97 314.73 427.9 314.32 426.76 311.98 428.36 309.55 428.03 301.09 423.84 302.07 418.42 302.65 414.31 308.26 412.15 308.68 409.14 303.47 405.85 299.91 406.81 298.95 409.96 294.98 409.41 294.02 406.81 287.72 405.31 292.79 399.01 286.62 397.37 281.83 397.37 284.3 389.43 275.94 382.99 272.38 376.56 279.91 380.12 284.3 378.75 289.36 370.54 287.86 365.61 289.09 361.78 287.17 357.12 288.93 353.18 288.6 345.95 279.61 337.41 273.37 340.69 276.43 332.37 270.19 324.49 261.97 320.98 259.56 318.46 259.23 313.43 254.41 310.36 246.19 309.16 238.8 304.78 226.55 297.85 222.61 290.86 217.85 285.53 215.33 280.71 207.11 273.49 201.08 271.19 194.29 262.43 187.61 259.8 184.65 261.11 176.21 258.7 173.8 255.97 165.8 253.34 157.04 248.96 155.61 250.16 160.76 255.2 164.16 263.63 167.01 272.17 173.25 274.58 175.12 274.03 179.72 276.88 180.16 282.03 186.18 288.38 186.51 291.34 187.83 292.1 191.33 291.67 198.45 297.8 193.83 305.05 203.27 322.84 209.85 332.7 217.41 345.4 222.01 355.04 216.97 353.28 210.94 346.93 204.48 343.65 198.23 344.08 200.32 341.02 199.77 337.73 195.14 332.07 188.07 326.65 182.73 326.48 180.02 329.27 177.8 329.85 177.14 326.15 178.46 323.03 178.46 320.08 171.8 315.48 163.26 314.41 165.23 308.5 156.76 299.05 150.52 295.52 145.75 295.03 142.55 292.23 127.92 281.97 114.47 274.91 105.98 276.38 99.73 275.64 95.31 276.4 88.04 271.05 85.17 266.86 79.66 261.85 77.77 261.44 74.32 252.98 69.06 243.53 64.68 238.8 59.04 231.13 49.01 222.1 40.46 216.84 41.9 215.12 46.75 213.56 45.52 211.75 42.23 210.68 41.08 209.04 38.21 208.38 35.82 207.31 36.64 205.01 35.66 201.48 31.55 192.37 27.93 189.49 24.45 189.24 22.31 187.43 20.83 189.15 17.38 188.17 10.39 189.32 11.21 185.79 15.32 182.09 12.69 177.74 7.85 179.55 2.67 174.78 6.37 172.48 9 167.14 2.17 163.53 3.82 156.55 4.06 149.57 3.41 143.98 4.97 136.18 9.9 135.61 14.61 139.43 20.03 142.14 25.21 146.17 35.9 147.32 33.35 140.58 29.4 138.37 24.97 137.71 17.98 129.82 8.78 129.08 2.45 127.61 1 125.9 17.33 120.84 18.29 114.13 19.8 109.89 20.07 105.23 22.95 106.6 27.5 120.6 61.86 129.14 75.99 126.68 78.13 139.49 84.37 142.45 100.32 137.36 100.32 129.31 94.89 123.56 88.15 118.63 88.81 110.09 93.74 107.95 93.58 104.34 88.65 96.29 88.26 91.08 91.93 93.17 100.48 97.11 106.89 103.03 112.15 113.37 124.48 118.3 131.76 124.16 128.59 136.97 132.2 146.61 140.64 149.67 143.49 147.7 153.37 139.04 150.06 145.4 153.59 151.94 155.51 154.4 159.59 158.34 163.26 161.63 167.42 163.16 169.5 164.75 175.58 166.72 181.17 169.07 186.32 172.41 188.51 175.26 194.21 178.22 198.65 178.76 200.79 177.4 202.1 173.67 201.44 166.01 203.25 167.16 207.25 168.53 213.88 171.15 219.63 171.26 221.93 170.11 224.77 168.1 229.21 163.83 239.21 163.46 244.25 160.84 245.4 158.15 244.9 155.69 244.12 151.03 243.23 147.71 241.34 145.01 237.17 143.12 232.51 140.56 234.29 137.31 236 133.78 235.66 128.31 234.43 126.22 234.01 123.07 232.65 118.28 233.88 117.87 235.93 118.76 238.23 120.4 240.04 121.5 241.82 121.15 242.4 119.61 244.49 118.21 246.55 117.94 248.33 120.47 249.7 122.56 248.67 124.44 249.08 125.98 250.21 126.53 252.39 126.42 253.81 128.27 256.75 130.5 260.62 130.94 265.21 131.63 266.54 132.83 269.74 133.88 272.48 133.72 274.95 129.94 273.85 127.97 269.03 125.18 267.33 122.28 267.39 115.71 272.7 119.37 277.04 117.45 280.81 116.91 282.45 114.45 283 110.18 284.37 107.6 290.4 107.6 295.11 97.97 295.55 89.21 292.7 82.53 289.13 77.01 284.91 73.18 281.57 71.53 283.65 65.57 281.4 62.72 282.45 60.31 282.56 57.41 282.39 51.44 282.9 46.24 287.54 50.67 290.99 51.71 292.09 48.81 288.42 44.54 287.92 41.09 290.39 35.23 295.21 34.69 295.38 32.77 294.77 30.69 291.92 29.7 288.69 30.85 287.32 29.59 287.76 26.69 287.98 22.86 287.43 18.04 288.53 14.7 291.65 7.26 293.13 4.13 292.89 1 296.91 5.5 299.37 7.58 299.1 12.02 300.85 16.47 305.38 20.98 308.88 21.97 311.95 26.24 310.2 30.95 312.28 37.19 314.03 37.96 316.23 35.66 321.38 35.66 317.76 41.02 318.2 44.64 322.8 51.1 318.86 50.55 317.87 54.93 319.4 62.16 321.92 64.57 322.91 69.06 325.43 71.79 328.61 74.42 328.5 77.82 326.2 79.46 324.59 83.39 324.1 91.11 326.4 97.52 331.41 105.07 337.66 106.47 341.03 105.24 342.1 100.97 345.09 96.35 341.59 90.23 340.28 85.38 341.11 81.63 343.83 79.33 350.56 76.45 352.77 86.62 356.77 88.65 364.38 91.33 373.64 89.36 376.05 87 377.2 80.71 377.97 78.46 382.57 79.06 385.42 79.28 390.42 76.68 395.42 68.68 395.35 62.65 393.57 59.09 392.27 53.69 391.59 50.68 393.85 50.54 396.93 49.51 399.39 46.16 399.12 43.35 401.11 39.93 401.17 36.99 399.46 33.57 401.54 32.88 403.99 32.07 410.56 35.03 415.49 42.8 417.58 47.84 416.04 50.36 410.56 53.53 407.17 54.52 410.13 59.01 414.29 63.39 416.81 62.18 418.12 57.69 419.88 55.06 422.62 54.74 424.7 59.44 426.56 62.29 430.72 63.61 436.59 61.66 438.78 58.38 436.59 54.96 435.84 51.61 436.66 49.8 440.8 47.09 442.96 45.73 443.92 44.36 444.74 39.46 443.88 36.19 445.02 36.1 445.79 37.46 446.73 39.12 447.21 45.14 447.99 46.38 442.99 48.77 441.1 50.85 442.66 53.32 445.59 56.26 445.04 60.38 443.15 62.92 442.25 66.29 443.81 68.43 447.84 68.02 452.03 64.81 453.59 61.12 455.56 59.8 460.24 67.85 465.26 78.36 464.02 81.49 460.72 82.93 459.32 87.78 461.38 92.95 465.65 95.83 473.95 98.54 477.62 97.29 479.12 96.3 481.59 95.95 483.88 96.23 486.42 95.37 488.02 94.09 489.26 93.87 489.29 97.12 491.14 98.9 493.09 99.55 495.59 99.72 503.78 103 510.18 105.23 513.29 104.71 514.36 106.6 517.51 107.9 519.12 107.72 522.97 108.52 528.35 110.51 527.52 112.22 527.56 112.73 531.77 112.97 535.88 112.97 539.78 112.29 538.71 114.61 533.32 116.13 522.89 115.19 513.56 113.38 510.85 112.68 499.71 111.47 497.82 109.85 494.08 108.7 491.49 109.6 489.44 111.25 488.58 113.96 489.97 117.65 492.07 119.25 492.65 125.08 491.12 126.4 491.91 129.23 494.53 132.72 490.02 130.4 487.18 126.78 487.43 123.62 485.66 120.71 479.21 111.22 477.36 110.69 476.17 108.72 471.16 107.66 466.28 107.53 460.97 106.46 457.21 103.52 454.33 101.09 453.48 99.31 449.23 95.58 446.15 93.56 443.68 90.89 443.03 88.33 443.89 85.56 443.27 83.67 440.36 81.83 438.17 81.21 437.28 82.1 437.04 85.59 438.31 88.02 440.6 90.76 440.53 92.4 438.34 95.1 437.62 96.03 438.51 98.39 438.51 99.76 436.56 101.61 435.88 100.72 436.73 99.72 436.73 98.49 435.57 97.6 434.22 95.34 434.03 93.33 434.03 90.72 433.34 89.66 432.14 88.19 430.47 85.04 429.58 84.5 427.57 84.28 424.13 84.17 422.28 85.07 421.76 88.47 420.94 90.03 418.31 90.94 414.94 90.12 410.25 89.13 407.21 88.06 404.91 87.08 401.71 86.42 399.73 87.16 397.97 89 395.28 94.26 389.43 98.99 387.36 100.24 381.79 105.07 380.07 106.51 376.23 110.31 374.42 113.51 374.69 116.18 375.51 117.34 374.49 119.45 374.28 122.81 374.97 127.39 380.1 130.81 380.38 138.62 381.47 146.08 377.14 147.13 374.18 150.19 368.81 153.92 356.97 149.32 348.21 141.21 339.44 138.26 336.37 141.87 338.78 150.63 336.37 153.48 332.21 153.7 328.27 154.9 325.96 160.05 326.29 164.87 328.23 168.75 332.34 172.04 333.77 177.58 337.13 181 340.9 187.92 344.25 189.42 344.12 191.34 338.23 196.95 335.28 198.25 335.21 201.06 337.27 202.22 337.2 209.75 335.14 210.43 331.79 209.13 329.19 209 330.97 219.13 329.05 222 324.12 222.82 319.19 220.49 314.94 216.8 306.11 205.73 303.03 206.14 301.31 211.69 300.08 218.6 297.62 218.6 294.46 215.86 292.41 215.79 291.25 212.65 288.44 209.29 285.56 207.03 283.92 203.89 280.15 201.56 Z M 351.5 267.46 357.2 264.94 359.39 262.86 358.95 260.13 355.12 253.77 353.25 249.72 348.21 247.86 345.58 247.53 345.69 250.16 347.45 254.65 345.91 257.72 342.41 260.45 339.67 264.94 343.28 269.43 349.09 271.73 351.5 267.46 Z" fill-rule="evenodd"/>
</g>
</svg>