<?xml version="1.0"?>
<svg xmlns="http://www.w3.org/2000/svg" version="1.2" baseProfile="tiny" width="800" height="797" viewBox="0 0 800 797" stroke-linecap="round" stroke-linejoin="round">
<g id="shaverlake">
<path d="M 206.57 4.26 206.37 7.84 205.3 11.91 204.49 14.62 204.38 15.93 205.7 18.41 208.33 20.59 209.2 21.98 209.21 22.35 209.21 23.73 208.24 26.27 206.23 29.59 206.13 31.34 206.8 34.39 208.23 37.1 209.06 39.8 210.39 45.21 211.28 50.19 212 54.77 212.11 56.62 212.12 56.82 211.15 58.31 209.63 60.24 208.76 62.77 208.99 65.86 211.58 70.79 213.34 74.55 214.39 80.22 215.51 85.5 216.18 90.26 216.73 93.23 217.68 96.28 218.17 97.42 218.55 98.29 220.1 101.99 222.4 104.39 225.52 108.27 226.84 110.45 230.02 114.72 231.77 116.72 233.52 117.28 235.59 117.32 237.23 117.58 238.98 118.28 239.52 119.03 239.64 119.19 239.92 120.94 238.62 123.17 235.79 125.44 235.36 127.19 235.81 131.38 236.32 134.87 237.2 138.89 237.28 139.86 237.31 140.38 236.12 141.43 235.86 141.53 235.25 141.77 233.62 141.52 232.31 141.09 230.78 140.65 229.03 140.66 227.29 141.45 226.09 142.32 224.67 142.54 223.02 142.38 219.65 142.03 215.28 142.26 212.78 142.75 210.6 144.06 207.72 147.43 206.1 151.58 204.81 155.3 202.71 161.51 201.19 165.09 200.01 169.46 200.08 174.74 200.65 179.15 201.53 181.59 201.98 184.21 201.94 184.33 201.38 186.22 199.97 188.24 198.67 189.55 198.9 191.91 199.02 194.83 200.34 197.84 203.68 201.67 205.29 202.98 206.52 203.98 208.28 206.16 212 209.64 215.94 211.99 217.47 212.86 220.2 213.2 223.69 213.68 234.99 214.44 235.96 214.78 240.67 217.35 244.94 220.65 247.12 221.35 249.08 221.08 251.7 220.11 252.35 219.28 253.87 216.35 254.35 213.91 254.12 211.46 253.46 209.1 252.9 207.88 252.24 204.13 252.23 201.47 252.27 200.59 252.28 200.38 254.12 198.62 255.1 197.31 255.53 195.92 255.42 194.56 255.08 191.02 255.33 185.35 255.87 183.86 257.01 183.19 257.29 183.03 258.48 181.98 261.1 182.01 263.39 182.58 264.15 182.44 268.29 180.64 269.81 179.85 271.02 179.59 271.34 179.72 271.89 179.94 272.22 180.72 271.35 182.39 270.93 185.18 271.76 189.06 272.65 191.9 273.96 193.86 274.29 194.47 276.37 196.04 280.19 197.08 281.25 197.38 281.39 197.42 282.49 197.94 282.49 199.86 283.21 201.26 284.31 202.83 286.16 203.26 286.49 203.26 287.12 203.96 287.36 204.22 287.81 206.14 288.36 207.53 289.13 208.62 291.32 210.19 293.06 211.41 293.35 211.81 294.27 213.07 295.54 215.77 296.31 218.3 297.95 219.78 301.56 221.17 303.42 222.26 306.04 225.09 308.12 226.66 310.64 226.82 313.58 226.29 316.41 225.19 318.15 223.66 319.23 221.17 319.66 218.99 319.76 216.76 320.13 213.96 320.35 213.18 320.74 212.69 320.75 212.66 321.21 212.09 321.28 212.09 322.09 212.17 323.51 213.52 324.77 215.7 326.54 219.54 328.29 223.51 329.28 225.6 330.54 227.48 330.23 230.4 329.69 232.15 329.59 233.94 327.63 236.08 325.13 237.53 323.6 238.41 321.86 239.94 320.51 242.91 321.06 244.48 323.03 246.14 325.55 247.75 327.73 249.84 329.05 251.71 330.43 254.38 330.65 254.81 331.2 255.9 331.43 258.39 331.12 263.54 331.67 265.72 331.95 267.73 331.85 270 330.84 270.22 330.21 270.36 325.2 271.42 321.82 272.69 318.56 274.88 316.28 277.24 314.65 279.65 313.73 281.83 312.98 285.5 311.24 288.35 310.38 290.61 309.2 293.42 309.36 295.34 309.48 297 309.92 299.09 310.92 301.05 312.34 303.28 314.96 305.23 318.57 307.37 320.82 308.76 321.17 309.28 321.58 309.89 322.46 312.34 322.7 315.92 323.14 318.18 323.8 320.06 326.37 322.15 329.99 325.11 331.85 327.33 333.49 329.2 334.92 332.08 336.3 336.27 337.29 339.06 339.59 343.25 341.9 346.56 345.57 350 348.52 352.09 352.57 354.74 355.62 356.27 358.47 357.96 362.07 359.44 366.55 361.09 372.17 361.6 376.54 361.9 381.88 361.88 385.81 361.87 387.88 361.6 390.55 361.34 391.05 361.34 393.06 361.33 395.3 362.15 396.83 363.11 397.93 364.9 397.72 368.26 397.95 370.62 398.5 373.24 398.94 374.63 399.88 375.37 402.93 376.76 405.33 377.15 409.1 377.51 410.08 377.6 410.25 377.62 415 379.96 418.77 381.97 422.16 383.36 424.45 384.09 424.54 384.13 428.38 385.74 433.47 388.79 438.71 391.74 441.99 392.39 443.08 392.55 443.18 392.56 445.71 393.31 445.81 393.34 448.33 396.31 452.49 399.7 454.46 401.62 454.8 402.11 455.61 403.28 455.73 405.9 456.17 408.17 458.04 412.05 459.06 414.24 459.25 414.66 459.85 415.75 459.64 418.77 459.32 420.51 459.22 422.13 460.32 425.01 460.99 427.06 461.26 429.24 460.95 433.04 460.2 435.27 459.22 436.32 456.39 437.85 453.67 439.22 452.91 440.05 452.36 441.62 452.65 445.64 453.87 449.83 454.75 452.45 456.72 454.93 457.6 455.89 460.19 458.07 463.68 462.73 465.44 467.09 465.83 470.58 466.6 472.94 468.9 474.11 473.38 474.54 481.12 474.61 486.35 474.03 492.02 472.27 493.98 471.04 495.93 467.98 497.6 463.96 502.02 458.06 504.67 456.74 507.34 455.16 510.16 453.58 513.21 452.4 514.17 452.25 514.96 452.13 515.94 452.65 517.58 453.52 520.63 453.69 524.34 453.59 526.09 454.9 526.59 455.55 528.88 458.07 530.96 460.39 535.33 461.51 542.64 461.63 547.33 461.09 550.16 460.17 553.05 458.07 555.6 457.02 558.17 456.96 561.06 456.78 563.18 455.73 563.72 454.77 564.26 452.63 564.25 450.05 563.81 447.65 562.82 445.47 562.38 444.73 562.66 443.97 562.7 443.86 563.79 442.19 566.01 440.09 568.08 437.86 568.62 436.59 569.16 435.81 569.59 432.31 569.8 430.13 569.69 428.82 568.2 427.33 565.69 426.03 565.63 425.57 565.58 425.25 564.92 424.29 565.34 419.35 565.88 416.08 566.68 413.19 566.13 411.01 565.58 409.88 563.83 408.14 563.28 407.44 563.32 407.15 563.6 404.82 563.81 403.33 564.08 400.54 563.84 395.74 563.4 393.55 563.39 391.98 563.48 391.75 564.15 390.05 564.91 388.92 566.37 387.34 567.58 386.7 568.01 386.47 570.95 385.59 572.3 385.52 575.53 385.36 578.69 385.27 581.96 385.3 582.1 385.36 584.37 386.3 586.45 387.78 587.03 389.11 587.82 390.92 588.92 393.97 589.59 397.33 589.92 400 591.52 403.92 592.29 406.5 593 407.94 594.27 409.55 597.11 410.94 601.15 411.37 607.15 413.8 611.52 414.54 613.95 415.38 615.29 415.83 616.92 416.09 618.67 416 621.83 415.38 625.54 415.51 628.6 416.2 632.09 416.98 636.34 417.84 639.84 418.09 642.56 417.82 645.5 416.55 646.81 415.68 648.17 413.93 648.49 413.14 648.7 411.4 650.55 408.68 652.07 406.41 653.7 404.4 655.1 401.86 656.57 399.42 658.74 395.56 660.04 393.51 661.99 391.41 663.4 388.87 663.95 387.33 664.32 386.3 665.07 383.41 665.83 380.31 665.93 377.6 666.25 374.81 666.4 372.8 666.94 371.58 667.92 370.7 669.4 371.75 669.79 373.49 670.99 375.41 671.6 377.16 672.15 379.08 673.25 380.82 674.89 382.39 676.31 382.95 677.4 383.82 677.95 384.26 677.99 384.71 678.06 385.65 677.53 387.31 677.48 389.5 678.14 390.81 680.21 391.59 682.83 392.19 684.25 392.06 687.19 390.88 694.87 387.58 696.5 387.23 702.28 386.87 704.79 385.68 708.92 381.96 710.99 380.87 716.22 378.67 719.59 376.48 724.43 373.76 727.05 373.11 727.99 372.93 728.74 372.79 732.18 372.05 736.26 371.33 741.77 370.1 749.61 368.56 753.1 367.5 755.93 366.53 756.75 366.1 757.57 365.83 759.53 365.78 760.19 367.27 760.09 369.01 758.68 371.24 756.5 373.78 754.82 375.62 754.66 375.97 754.39 376.58 754.18 379.46 753.92 381.56 753.76 383.22 752.78 386.01 751.76 388.64 751.11 390.56 750.79 392.31 751.01 394.75 751.46 397.9 752.13 400.78 754.92 404.61 756.45 406.35 757.66 408.71 757.23 409.59 755.81 409.85 754.07 410.11 752 411.43 750.15 414.14 749.78 416.5 749.79 418.94 749.35 419.9 748.92 420.16 747.61 420 746.49 419.45 745.64 419.04 743.13 417.56 739.53 416.21 736.47 415.7 732.76 415.71 731.02 416.23 729.38 416.23 727.74 416.07 724.58 414.72 720.37 412.81 718.73 412.03 716.66 411.68 712.85 413 710.29 415.1 708.12 417.6 706.49 420.39 705.41 422.67 704.65 424.41 704.55 426.94 704.5 429.57 705.28 431.83 705.93 433.58 705.94 434.89 705.94 436.46 705.4 437.99 703.55 438.74 699.63 439.27 697.67 439.71 694.62 441.2 690.65 445.62 688.8 448.42 688.16 451.3 688.17 453.88 688.78 456.28 689.58 458.07 691.42 462.65 694.16 465.7 697 466.83 697.86 467.47 698.64 468.05 700 469.88 700.25 476.34 700.05 476.94 699.82 477.65 697.64 480.28 697.27 482.89 698.05 486.3 699.03 488.04 702.86 490.04 704.17 491.22 704.4 494.62 703.32 498.69 703.39 503.31 704.6 504.58 707.98 505.88 710.93 507.19 711.34 507.8 712.09 508.93 711.99 513.21 713.09 515.22 717.73 518.87 722.38 521.53 727.13 524.22 735.99 532.15 738.3 535.68 735.3 536.34 731.91 536 726.36 536.1 721.4 537.07 718.41 539.13 715.69 544.03 714.73 547.87 714.8 553.02 716.02 558.61 715.89 570.14 715.59 575.29 714.99 577.56 713.36 579.14 712.28 579.67 710.31 580.63 700.07 582.88 695.87 583.68 693.43 584.99 691.63 587.53 685.94 595.71 685.23 597.63 685.35 599.46 687.06 604.21 687.07 608.67 685.67 613.61 685.36 617.63 686.42 624.44 686.7 626.18 685.99 627.75 682.78 630.47 681.48 632.22 681.43 633.26 682.03 634.92 683.8 641.12 686.61 647.31 688.15 652.15 688.91 652.59 691.2 652.94 692.62 653.55 695.47 655.72 697.06 658.77 699.79 659.9 707.43 661.07 717.47 662.44 720.63 663.26 723.41 664.65 726.86 666.13 731.44 666.91 731.65 667.05 732.86 667.87 734.23 670.31 735.99 673.01 739.59 676.01 742.11 677.49 744.4 678.27 746.17 679.52 746.26 679.58 746.37 680.54 745.94 682.38 746.11 683.77 747.43 685.25 750.16 687.6 751.69 690.14 753.13 695.55 753.85 699.65 756.48 703.36 759.11 706.49 764.53 711.63 767.26 713.37 771.84 715.94 773.92 716.99 776.44 719.77 780.71 723.52 783.93 724.65 789.71 726.51 794.4 726.94 796.15 727.37 797.36 729.29 799 732.34 797.47 732.52 793.71 732.79 788.65 733.41 787.01 732.85 783.72 729.71 781.98 728.84 780.01 728.59 776.74 728.59 771.39 727.99 769.42 724.54 767.39 721.67 762.58 717.75 756.79 714.27 752.43 712.23 747.89 709.09 742.43 707.45 740.35 706.49 739.37 705.18 739.36 705.1 739.02 699.94 739.56 698.54 739.56 697.59 738.52 695.66 732.5 690.83 727.92 688.92 724.42 686.83 716.6 680.96 712.23 676.95 709.16 674.16 706.87 673.82 701.2 673.78 698.58 674.31 694.67 678.08 692.07 681.93 691.2 681.93 687.8 678.31 680.8 672.3 676.43 670.22 672.01 668.83 666.72 667.66 662.19 667.49 659.03 666.98 658.15 666.37 658.14 666.35 656.84 664.28 654.26 657.35 653.59 655.55 651.39 650.88 649.04 648.18 642.69 641.38 640.4 639.61 636.56 636.64 630.77 631.76 627.98 628.75 626.44 626.88 626.46 625.96 626.49 624.78 628.39 621.38 631.25 615.34 631.9 613.07 631.56 610.46 629.7 607.05 626.14 602.87 622.85 598.6 616.95 594.02 612.47 591.76 608.54 590.2 600.73 588.34 591.34 584.52 587.52 583.74 569.31 583.7 564.08 584.58 563.44 584.37 562 583.89 553.81 580.15 547.04 578.03 543.11 576.63 536.13 576.74 530.18 575.58 522.98 573.76 519.7 573.76 517.2 574.52 513.6 575.35 510.77 575.53 506.03 576.81 503.74 578.12 500.7 582.37 495.7 586.39 491.51 589.72 490.54 591.56 490.45 596.63 490.13 598.46 486.98 602.05 486.38 603.45 486.61 606.15 487.39 608.51 487.95 614.53 489.66 619.5 491.75 625.88 491.76 627.89 489.47 627.76 486.58 626.94 479.85 623.07 474.72 619.49 471 617.67 465.59 613.62 462.53 612.24 459.04 611.72 456.75 611.98 453.92 613.57 450.55 615.8 445.59 618.34 442.65 618.83 439.27 619.67 433.12 622.17 427.94 623.45 424.35 624.81 420.98 627.26 419.3 630.32 418.77 633.95 419.55 637.66 421.2 641.76 422.03 644.9 421.6 648.13 421.07 650.85 421.69 657.04 422.46 659.49 425.31 663.67 425.71 666.29 425.5 670.83 426.05 671.62 427.59 673.88 428.81 679.82 431.61 685.84 431.62 688.8 431.26 689.37 430.32 690.82 428.36 692.31 423.58 695.15 416.24 700.94 411.02 706.45 409.4 709.82 409.25 712.4 410.57 716.49 410.47 718.33 408.83 718.59 407.52 717.9 406.97 717.06 405 714.06 401.76 709.39 399.94 708.2 399.25 707.75 394.44 704.39 385.8 698.04 378.75 693.6 369.57 688.73 368.27 688.27 365.1 687.13 361.81 684.6 356.84 682.17 344.61 677.18 337.5 672.13 335.53 671.26 330.73 670.36 329.26 669.62 328.71 668.18 328.7 668.12 328.15 665.21 328.68 660.32 326.21 656.74 323.37 654.17 316.49 652.14 314.79 650.92 314.56 649.77 314.4 649.04 315.38 647.29 317.22 644.41 317.22 643.28 316.61 641.53 315.41 640.48 308.64 640.41 306.68 639.54 306.15 638.75 304.93 636.93 303.27 632.04 301.24 629.38 297.31 626.73 294.74 625.82 292.83 625.04 288.56 621.47 279.21 613.67 275.38 611.06 274.07 611.24 269.94 613.26 267.11 614.27 263.51 614.37 261.65 615.24 259.21 617.17 257.03 617 256.65 616.57 255.44 615.09 253.68 609.72 252.56 604.92 250.42 600.03 250.03 598.02 250.62 594.79 251.59 592.69 253.55 591.07 255.23 587.97 257.45 584.78 257.94 583.73 258.9 579.36 259.33 577.7 261.12 574.9 262.3 567.65 262.94 565.47 264.51 562.49 265.05 560.92 265.04 559.61 264.05 557.43 263.5 554.02 262.94 552.19 261.19 549.84 259.71 548.71 256.99 548.32 254.04 548.72 252.03 550.3 250.51 553.62 249.55 557.72 247.39 562.32 244.94 565.33 241.68 568.09 238.31 569.59 235.48 571.08 232.86 571.82 231.55 572.13 230.31 574.54 229.99 576.72 229.23 578.74 228.7 580.31 228.81 581.62 231.12 587.42 232.4 593.31 233.29 597.8 233.26 604.92 231.85 605.93 230.98 606.1 227.48 604.15 222.29 601.28 218.25 600.24 216.29 600.38 211.06 601.44 208.33 602.67 207.74 605.11 208.09 609.83 208.11 615.94 206.55 619.88 205.36 622.15 201.33 624.08 200.02 625.35 199.59 627.88 198.51 629.28 198.58 632.87 199.25 636.18 199.26 637.84 198.83 641.16 199.56 645.26 200.44 648.06 202.41 650.45 203.84 653.68 204.68 657.87 205.36 664.77 206.46 666.95 210.34 670.52 211.11 672.17 211.34 676.93 212.77 678.02 215.44 679.24 217.03 680.32 219.61 684.47 220.71 687.65 220.5 690.45 219.1 693.77 217.69 695.74 217.75 698.32 218.86 701.8 221.6 705.72 227.78 711.3 228.33 712.48 228.45 713.92 224.32 717.51 223.45 718.56 223.54 729.04 223.88 732.71 224.55 735.33 224.34 737.33 222.66 741.27 222.66 742.4 223.27 744.24 223.33 744.41 223.33 745.8 221.82 749.69 222 752.62 222.88 756.2 223.11 757.99 221.06 763.1 220.4 763.89 219.82 763.63 219.64 763.54 218.43 760.97 216.34 756.87 215.87 755.62 215.46 754.52 215.39 749.53 213.4 743.78 210.6 737.5 203.91 728.52 200.67 723.2 196.46 718.45 189.72 712.35 187.8 708.57 187.26 707.51 186.25 702.41 185.95 694.81 186.17 681.01 185.61 677.26 183.85 672.94 181.38 669.81 178.97 665.75 177.53 661.95 175.34 659.21 173.42 655.5 172.32 651.84 170.67 648.7 167.71 643.99 165.24 641.98 160.33 640.21 156.4 638.73 151.27 638.57 147.12 637.14 144.94 637.06 142.44 637.59 138.95 639.6 137.11 642.49 133.7 648.92 131.76 654.47 129.65 659.85 128.57 663.34 127.16 664.66 126.16 664.78 125.31 664.88 123.57 664.84 120.18 663.8 117.34 663.46 109.26 661.6 101.63 661.18 96.4 661.41 91.61 664.22 88.13 666.93 85.63 668.34 83.45 669.87 81.23 672.24 78.83 673.64 77.2 675.04 77.1 676.35 77.87 677.57 79.29 679.88 79.41 681.76 78.93 684.64 79.16 688.88 80.84 696.64 82.97 700.35 84.95 703.14 85.83 706.68 86.93 709.25 90.39 713.91 94.45 721.76 98.92 733.89 101.51 739.6 104.91 744.75 107.86 747.71 109.18 749.28 110.82 753.03 112.33 760.71 112.3 767.87 112.74 769.35 114.61 772.23 118.99 776.37 120.36 778.29 123.22 786.31 125.21 790.93 125.71 793.11 125.82 795.56 124.95 796 124.33 795.85 123.86 795.74 122.33 794.87 119.92 792.61 117.57 789.12 113.72 782.8 111.31 779.49 105.13 774.18 103.38 772.26 101.84 768.94 100.3 765.76 98.27 762.71 95.38 759.95 93.67 758.31 91.15 754.52 88.9 750.07 85.5 747.11 79.38 743.41 74.03 740.9 71.96 740.46 68.68 740.21 64.36 737.89 62.61 736.95 55.52 733.65 51.81 732.96 48.96 731.35 48.4 730.25 47.43 728.34 45.12 724.46 40.14 720.24 39.05 719.07 39.03 718.97 38.6 717.23 39.35 709.64 39.92 704 40.45 701.68 40.55 697.97 35.66 689.47 32.63 682.54 31.19 675.64 30.08 671.19 28.93 669.36 24.77 666.84 17.56 664.15 14.06 661.27 12.75 660.1 12.8 659.97 13.18 659.14 17.69 656.15 21.72 653.7 23.67 651.9 25.51 648.06 26.04 645 25.87 642.82 24.01 639.85 20.6 634.01 17.37 630.09 11.89 624.21 10.47 621.24 8.83 618.96 8.71 618.8 8.97 616.45 10.81 612.68 12.33 609.88 12.42 606.78 11.04 600.37 11.12 594.26 9.95 588.23 7.52 581.08 7.3 578.37 4.04 570.7 3.99 570.38 3.82 569.3 4.25 567.37 7.4 564.66 8.86 560.82 9.62 559.77 9.87 559.84 10.82 560.11 11.48 560.81 11.49 562.99 12.31 565.88 14.51 568.97 18.66 572.32 20.42 573.84 22.56 577.77 24.32 582.04 27.18 588.93 29.44 592.37 30.99 599.84 35.24 611.4 36.02 616.11 36.84 617.33 42.53 620.9 46.69 624.82 48.99 628.39 51.25 633.58 52.78 635.5 54.64 636.19 57.15 636.27 59.1 635.31 61.17 632.16 64.48 628.92 68.99 626.16 70.14 625.15 70.67 622.49 72.51 619.77 76.92 616.45 78.98 615.31 81.17 614.9 83.78 614.11 85.96 613.93 87.59 613.67 90.15 613.22 91.73 612 92.7 610.07 94.77 606.35 97.31 602.82 101.11 598.66 101.76 597.35 102.61 592.45 102.33 588.61 101.22 584.86 100.23 582.2 99.99 577.4 100.31 575.69 100.79 575.19 101.35 574.6 105.81 572.36 109.62 569.99 111.9 567.37 113.19 563.96 113.45 561.07 112.95 559.11 110.93 556.8 109.72 555.5 109.5 554.05 110.4 548.51 110.49 542.48 108.23 535.41 106.24 528.26 104.82 516.99 104.2 511.32 104.18 506 105.68 497.52 107.12 489.83 110.69 483.62 111.83 481.09 111.81 476.15 110.92 470.44 110.42 469.04 104.84 464.9 101.56 463.82 100.84 463.41 99.81 462.82 99.26 461.07 98.8 458.06 98.19 454.05 97.42 451.7 96 448.73 95.22 446.37 95.1 444.02 94.6 441.96 93.5 440.17 92.96 439.04 90.22 436.52 87.6 434.82 86.28 433.95 84.31 431.81 83.54 430.64 82.34 429.9 79.56 428.9 77.92 428.47 75.51 428.34 73.12 428.4 70.56 430.02 69.26 431.29 68.18 433.69 67.64 435.87 68.09 439.76 69.03 442.77 68.82 444.52 66.97 447.14 63.83 451.08 61.98 453.09 60.36 455.72 58.8 458.06 57.39 463.1 55.18 471.45 54.11 475.69 52.59 477.7 51.92 478.11 50.74 478.84 46.81 479.42 44.42 479.25 42.81 478.59 41.25 477.95 39.17 476.12 38.39 473.72 36.68 466.43 34.35 458.06 32.32 453.87 31.43 451.21 30.34 449.77 28.15 447.24 26.5 445.71 23 444.15 21.37 443.76 18.48 443.9 15.05 444.39 12.54 444.97 8.94 445.41 6.54 445.5 4.69 445.03 3.48 444.73 3.92 443.5 6.03 440.96 7.77 438.87 8.09 437.73 8.18 431.79 7.56 427.25 7.11 424.29 7.1 422.1 7.85 417.47 8.66 415.46 9.63 414.67 13.45 413.09 17.25 410.98 19.86 407.84 19.42 406 17.65 401.07 17.54 399.86 17.37 397.97 16.7 394.48 15.6 391.82 14.39 388.9 14.42 388.28 14.44 388.03 15.51 384.27 15.5 381.64 14.83 376.24 14.88 375.18 15.84 372.3 17.36 370.29 19.53 367.31 22.37 366.31 29.02 364.54 30.65 364.01 33.7 362.61 35.01 362.08 36.26 361.42 38.76 361.63 41.44 362.37 43.95 362.32 46.51 361.31 49.02 360.08 50.21 359.37 51.19 357.1 52.37 353.43 52.14 351.86 51.75 348.24 50.87 345.58 48.78 342 47.57 340.56 45.72 339.74 44.62 338.87 43.02 334.07 41.92 330.97 39.37 323.03 38.43 318.93 37.43 315.53 36.23 313.09 34.25 309.6 31.45 305.02 29.81 302.97 27.17 299.79 25.64 298.88 24.22 298.49 19.42 298.59 18.44 298.51 17.46 297.9 14.83 296.85 12.65 296.81 9.39 299.4 6.24 302.51 3.95 304.18 2.54 303.74 2.51 303.72 1.22 302.7 1 302.17 1.15 300.79 1.21 300.16 1.86 297.63 3.05 295.27 2.66 293.44 2.98 291.6 4.28 289.46 7.44 287.88 8.96 286.74 11.24 284.46 11.88 281.76 11.81 277.82 11.15 275.33 10.38 274.34 9.39 273.03 9.39 272.7 9.39 272.24 9.72 271.21 10.36 269.18 12.25 265.34 15.08 261.61 16.26 258.51 17.24 256.06 18.91 252.39 20.32 250.56 22.06 248.76 23.58 247.54 24.45 246.92 27.29 247 30.67 247.3 34.39 247.94 37.99 249.24 39.85 250.59 41.39 253.78 42.76 256 46.81 258.17 50.41 259.3 53.69 260.6 57.51 262.16 59.26 262.94 61.24 265.16 62.94 269.36 64.91 271.97 68.09 274.32 71.04 275.36 73.77 275.61 76.17 275.65 79 274.33 82.21 274.24 83.8 274.41 87.3 275.67 92.54 278.62 95.49 278.96 98 278.61 102.14 278.07 106.93 277.41 109.44 276.49 110.64 275.43 112.16 273.86 112.26 272.37 111.86 267.88 111.52 264.47 110.96 261.03 110.19 258.28 109.63 255.83 108.91 252.34 107.92 248.68 107.69 247.45 106.92 245.36 105.93 244.05 102.87 242.23 100.8 241.31 99.65 240.88 96.91 239.49 95.05 237.57 94.17 236.09 93.74 234.7 93.06 230.81 92.62 228.67 92.66 225.05 93.4 218.67 93.38 214.7 92.77 211.3 92.22 209.02 91.98 205.7 91.87 203.48 92.29 201.17 93.31 197.71 93.64 196.01 94.28 194.52 95.58 192.86 97.54 190.5 99.49 187.52 100.2 186.21 100.51 183.59 100.51 180.93 100.27 178.96 113.16 154.83 112.81 145.02 111.88 119.16 111.64 114.09 112.84 113.13 113.49 112.69 114.69 112.6 117.74 112.42 120.47 111.8 122.97 110.22 124.6 108.52 125.69 107.03 128.24 104.93 130.1 104.35 132.6 103.26 135 101.33 137.16 98.44 137.92 96.34 138.02 94.25 137.5 87.7 137.27 83.68 137.7 80.84 137.85 79.49 139.37 75.6 140.44 72.1 140.43 68.44 141.02 65.33 141.28 64.68 142.57 61.4 143.07 60.14 145.24 57.86 148.4 55.49 153.02 52.08 157.15 48.01 159.65 45.29 162.04 42.58 164.25 39.62 164.92 38.73 165.13 38.41 167.41 35.01 169.47 31.82 170.56 30.07 170.92 28.92 171.32 27.63 172.01 25.44 173.2 23.47 173.57 22.09 174.06 20.24 174.93 17.61 178.02 12.81 179.97 10.7 182.26 8.34 184.98 6.24 187.59 4.49 189.33 4 190.11 3.85 191.62 3.56 193.04 3.73 194.14 5.08 195.67 5.38 197.08 5.03 198.5 4.46 199.91 2.49 200.56 1.53 201.21 1.09 203.18 1 205.15 1.69 206.02 2.26 206.57 4.26 Z M 278.93 324.23 281.34 325.53 284.06 325.35 287.98 324.03 290.97 321.45 292.06 319.61 292.81 317.6 292.58 313.93 291.92 312.36 289.4 310.36 286.5 307.79 285.73 306.05 285.18 304.48 282.67 302.52 281.68 301.78 280.31 301.35 278.41 301.26 276.55 302.4 275.8 305.37 275.49 307.82 275.66 310.66 275.78 313.41 275.13 315.37 274.7 317.03 275.15 319.65 277.18 322.66 278.93 324.23 Z" fill-rule="evenodd"/>
</g>
</svg>