<?xml version="1.0"?>
<svg xmlns="http://www.w3.org/2000/svg" version="1.2" baseProfile="tiny" width="800" height="950" viewBox="0 0 800 950" stroke-linecap="round" stroke-linejoin="round">
<g id="pardeereservoir">
<path d="M 347.31 171.48 344.79 173.28 343.6 174.69 343 177.15 345.76 183.09 346.11 182.79 345.09 185.35 343.05 186.88 341 186.88 338.09 183.38 336.18 183.1 334.14 183.29 333.42 184.23 333.79 188.95 333.54 189.61 331.27 191.22 328.64 192.54 325.89 195.37 319.3 192.07 316.9 191.5 314.03 191.79 312.95 192.26 309.82 200.17 312.89 202.73 315.95 202.73 322.31 202.67 325.53 202.64 329 203.49 329 203.6 329 204.24 324.81 207.46 324.58 208.87 325.05 210.76 326.61 212.36 331.16 215 332.24 216.04 328.89 220.95 328.29 222.65 330.09 223.69 339.55 224.16 341.23 226.61 344.22 229.25 345.54 232.09 346.62 233.12 348.41 233.97 353.68 234.54 354.64 235.1 357.04 240.29 359.31 243.6 361.35 245.49 366.02 248.5 367.22 250.77 366.86 251.24 358.96 252.94 354.53 255.21 346.27 254.55 342.44 254.65 338.37 256.16 336.21 258.9 336.22 260.88 337.05 262.96 338.45 265.1 337.94 267.66 335.89 270.73 337.42 272.26 343.05 273.29 346.63 274.82 349.69 276.86 354.29 278.4 355.83 279.93 357.36 283 361.01 287.12 363.64 287.3 368.1 285.56 370.65 283.51 372.19 285.04 373.72 288.11 374.74 290.67 373.21 293.74 372.19 296.29 372.7 299.36 374.74 301.92 372.39 305.05 374.23 308.56 378.83 313.16 382.92 313.68 385.99 315.72 387.01 319.3 385.48 322.88 387.52 326.46 389.57 329.01 390.08 332.08 390.08 335.66 390.59 340.26 394.17 344.35 401.86 349.12 408.57 353.18 411.56 354.31 414.32 354.5 416.35 353.93 421.38 350.91 423.29 349.02 424.25 345.62 423.77 343.26 421.73 338.54 421.73 335.81 420.77 333.26 414.78 324.76 414.06 320.14 412.86 317.03 411.79 314.95 408.19 310.61 405.92 303.96 407.97 302.94 409.31 304.55 410.53 306.01 418.37 310.6 421.84 314.85 436.08 322.37 438.13 322.37 438.13 326.46 439.66 329.52 441.2 332.08 442.73 335.66 448.86 340.26 452.44 340.77 453.47 344.35 455.51 347.93 460.11 351 464.71 354.58 468.29 357.64 473.91 359.18 478 360.71 481.58 365.83 491.29 370.43 496.92 371.96 500.5 371.45 506.63 371.45 510.72 372.98 514.3 374.52 519.56 373.26 520.63 366.08 521.35 364.1 527.34 358.72 530.33 354.66 532.6 353.34 540.86 352.67 544.57 350.03 545.65 347.58 543.97 340.69 544.33 338.61 546.24 334.08 546.96 324.26 546.72 322.56 545.52 320.49 540.13 316.43 540.25 310.86 538.09 307.93 539.17 298.21 537.37 294.15 541.32 291.6 545.31 287.23 545.63 286.88 546.47 288.02 548.39 295.56 550.3 297.45 556.29 300.66 557.49 302.64 559.17 308.12 560.24 309.35 560.96 309.91 562.76 309.91 566.83 305 569.34 303.49 569.81 303.41 570.42 303.3 571.02 304.25 570.3 309.15 571.38 312.27 574.02 314.72 577.97 316.99 580.24 317.18 582.04 316.8 584.91 315.66 588.74 315.29 594.97 313.4 598.56 312.93 603.34 311.32 604.66 313.21 605.38 316.32 607.66 321.51 607.66 323.21 606.22 326.23 605.86 328.5 607.54 330.67 609.46 331.61 616.4 332.93 621.55 332.27 623.82 330.76 627.17 325.47 635.91 323.68 643.1 323.11 649.32 320.47 651.12 320.09 651.59 320.56 652.32 325 653.87 326.04 654.95 325.85 683.41 313.73 689.49 321.82 700.79 336.84 692.81 340.32 680.75 348.29 675.69 352.3 669.09 359.34 665.62 363.43 665.97 368.14 662.74 370.97 659.27 375.4 658.07 378.9 657.72 382.11 658.19 383.8 653.88 386.73 645.15 393.72 640.84 392.11 637.37 391.93 630.78 393.16 628.39 394.38 626.35 396.18 623.36 402.41 620.25 405.05 615.7 407.79 613.91 409.87 612.47 412.6 609.48 422.14 609.24 429.22 610.32 432.43 611.52 434.41 614.75 437.53 615.11 438.56 616.07 443.57 617.15 445.83 619.54 449.13 619.78 451.78 621.46 455.46 621.82 457.25 621.34 457.73 620.26 457.73 617.27 456.4 610.09 451.12 606.73 449.32 601.23 447.44 599.55 446.49 596.08 440.74 587.1 431.39 575.96 415.82 573.92 414.03 572.01 412.99 569.13 412.71 566.74 413.46 562.55 416.39 554.29 425.83 552.98 428.1 552.26 429.98 553.26 436.11 554.9 439.79 556.53 443.06 558.17 445.11 555.31 450.01 549.87 451.22 546.4 450.47 543.17 450.19 541.13 450.75 535.39 454.34 530.72 454.72 529.4 455.29 523.9 461.24 520.54 463.22 519.23 463.59 512.17 463.79 510.73 464.16 509.89 465.11 509.3 467.09 509.53 469.36 510.61 470.49 513.01 472.28 522.71 477.85 524.62 477.85 525.82 477.28 527.61 475.87 530.01 472.28 531.32 471.24 533.6 472.56 538.15 473.69 539.82 476.52 541.74 478.5 547.01 480.58 551.92 484.83 554.19 486.05 559.22 486.9 568.44 485.96 569.52 486.52 572.03 491.15 573.59 492.57 576.7 494.36 580.29 495.02 586.64 494.92 589.27 497.19 590.23 497.38 599.68 496.34 599.92 496.9 598.37 499.54 594.9 503.23 592.51 504.93 588.44 507.1 581.61 509.93 579.46 511.63 578.26 513.33 578.14 517.3 580.18 521.64 586.65 528.81 587.01 534.66 587.71 538.11 588.81 543.44 588.33 544.1 587.13 543.25 577.67 531.64 573.72 528.34 566.89 524.28 559.35 522.21 554.2 522.21 552.77 523.15 551.57 524.76 551.57 530.89 554.69 535.33 555.29 538.44 556.96 542.88 560.08 545.8 564.51 548.35 566.9 551.75 569.89 554.58 571.45 557.41 572.77 558.83 575.64 560.34 582.23 562.04 583.9 562.89 582.83 563.83 576.24 567.23 575.17 568.74 574.81 570.91 575.29 573.08 579.84 579.88 580.44 586.2 581.87 589.7 584.75 592.62 590.02 596.11 591.69 600.08 594.81 603.38 596.12 607.16 599.48 610.93 604.98 615.37 609.05 618.1 613.01 620.18 615.88 621.12 619.95 621.31 623.06 619.61 624.38 619.42 624.73 619.71 627.49 630.37 628.81 631.69 634.19 632.07 635.87 633.02 635.87 633.77 635.87 636.13 634.08 640.76 632.64 648.12 632.76 650.29 633.6 651.99 636.47 654.72 640.31 657.37 642.58 658.5 647.13 659.54 648.21 660.1 649.28 662.27 653.35 666.14 652.75 669.83 653.83 674.64 653.71 677.38 654.31 679.17 656.83 681.53 663.41 684.93 669.4 688.8 670.07 689.42 671.04 689.42 674.03 691.3 681.93 691.77 683.85 691.3 686.36 689.42 687.84 689.42 688.31 688.23 690.58 683.51 692.02 678.41 694.05 674.07 696.8 671.33 702.19 670.95 702.19 671.71 699.2 676.43 698.6 678.13 698.6 679.73 699.91 683.03 697.64 688.89 697.52 689.45 695.22 698.76 696.78 704.71 696.76 704.71 688.52 705.84 685.17 707.73 683.37 711.5 682.78 719.24 685.17 727.55 688.64 732.55 689.24 738.78 691.28 743.88 697.98 750.58 699.06 757.29 701.93 759.36 705.4 764.55 703.55 765.95 701.02 765.42 697.75 765.26 693.99 762.15 690.88 758.55 687.77 756.75 683.68 755.77 680.08 758.06 679.92 760.84 680.25 763.3 683.03 765.75 688.1 767.88 692.35 769.51 695.8 771.82 693.91 773.24 689.97 779.28 689.13 781.64 691.52 784.19 698.44 782.13 701.3 782.13 704.98 784.18 704.17 786.22 703.35 789.09 703.76 792.36 704.17 794.41 702.94 796.04 702.34 796.64 699.67 799.31 700.32 799.84 701.71 800.95 704.57 801.36 709.48 801.36 712.75 802.59 715.21 803.4 720.52 804.22 723.8 802.59 728.7 800.95 731.97 798.9 733.2 798.9 736.88 798.09 738.94 797.61 741.43 797.02 742.15 797.59 738.38 802.33 737.72 803.16 736.4 805.99 735.57 810.52 737.24 815.53 733.2 815.26 729.52 815.67 727.48 816.49 723.8 818.95 719.51 822.19 721.69 822.98 722.28 825.82 725.63 828.93 731.74 831.1 734.13 832.61 736.17 835.73 739.76 838.18 743.83 839.6 749.81 839.5 751.25 840.45 747.18 845.73 746.46 848.66 747.06 853.47 748.62 857.25 754.84 865.46 765.97 875.09 770.16 876.32 774.71 875.94 776.86 876.98 778.3 878.49 779.13 881.7 782.73 885.19 799 895.76 797.45 898.03 792.9 899.82 789.43 902.09 788.23 904.54 790.27 909.26 790.27 915.87 789.43 921.91 790.27 928.89 793.26 935.41 793.02 944.66 793.49 947.02 793.62 947.68 791.95 949 787.88 947.39 785.48 935.69 782.25 925.21 780.57 922.38 780.2 918.15 779.05 914.88 776.43 913.4 773.98 913.4 772.18 913.24 769.4 909.81 766.78 908.99 761.06 908.81 762.26 906.62 764.49 904.57 765.15 902.28 764.66 899.66 763.35 897.21 758.93 897.21 753.53 899.66 748.02 903.32 746.11 901.43 745.67 899.05 747.32 896.39 748.46 894.1 746.01 890.5 742.24 887.39 739.3 886.41 736.85 886.25 736.36 888.54 733.41 889.85 730.63 892.3 728.99 895.57 727.2 898.19 724.9 904.41 726.26 907.56 722.29 910.3 721.39 910.83 719.83 911.77 719.34 914.22 717.87 916.02 717.87 915.04 717.54 912.59 717.54 911.11 716.24 908.99 713.78 908.66 710.51 908.66 706.91 908.82 702.61 910 702.55 910.02 703.03 908.32 705.54 906.15 708.05 904.92 710.57 903.69 713.32 901.33 715.25 899.66 715.41 898.05 715.42 898.03 714.11 897.21 711.65 896.55 706.26 895.95 711.49 891.15 713.62 889.35 714.27 888.54 713.29 887.39 709.2 886.57 706.42 886.57 700.2 887.55 696.08 888.4 696.32 882.17 697.76 881.04 702.55 880 703.89 878.64 704.75 874.13 705.28 871.36 702.66 869.56 699.39 867.1 696.28 866.45 693.5 866.45 692.52 868.25 691.7 871.52 689.9 871.52 685.48 870.05 681.06 868.09 674.69 863.01 661.93 846.28 660.21 841.5 656.4 836.35 651.13 834.14 647.08 834.14 645.49 834.51 644.63 836.47 643.28 838.19 641.68 837.57 641.07 835.98 639.47 835.86 636.65 835 631.38 833.89 626.35 832.91 624.87 833.03 623.65 835 623.08 838.38 620.77 839.47 620.55 839.36 618.62 838.43 617.76 835.86 615.8 829.97 614.57 825.3 614.2 821.99 613.34 820.15 611.87 818.8 611.01 815.98 610.64 811.19 608.43 806.65 604.26 804.32 602.05 804.2 602.67 801.62 604.63 796.47 604.26 791.68 602.91 787.63 600.09 784.07 597.27 780.76 593.22 777.45 588.93 774.13 586.11 772.42 583.16 769.35 579.48 766.53 576.41 765.91 572 765.91 568.19 766.04 564.51 767.51 561.94 767.51 559.48 767.63 555.68 769.72 552.61 771.31 550.16 774.99 551.39 779.29 553.9 782.89 554.97 790.44 554.49 791.68 550.4 797.2 548.93 799.29 547.58 801.13 547.58 803.83 547.83 806.65 547.21 809.23 546.85 812.17 547.46 815.85 547.83 820.76 549.95 821.97 551.27 825.36 554.14 828.95 557.37 836.49 557.73 837.35 560.97 842.16 561.51 842.71 572.22 853.3 575.87 863.4 576.51 865.18 575.06 864.81 573.84 863.59 571.87 861.99 570.52 860.76 567.46 859.29 565.86 859.78 563.53 858.8 563.53 857.21 564.51 855.49 564.51 853.77 561.57 852.91 559.48 853.16 556.91 853.52 556.17 856.1 556.17 858.8 558.75 861.38 559.24 862.36 558.01 863.59 555.92 865.43 553.47 867.39 554.08 871.3 556.94 872.12 555.71 874.16 553.94 874.16 552.85 874.16 549.67 869.84 549.3 865.79 549.42 861.62 547.95 856.35 546.72 853.16 544.51 851.93 542.8 851.32 539.48 850.21 536.79 848.74 533.2 849.25 533.56 846.23 536.17 846.16 537.89 845.06 539.61 843.83 539.98 841.5 539.48 839.17 537.03 835.98 535.56 834.26 534.33 832.42 533.72 830.09 532.37 829.47 529.91 829.11 525.87 828.86 524.76 828 525.38 825.55 526.11 823.34 526.23 819.54 526.23 817.57 525.5 816.34 524.03 815.61 521.2 815.36 518.75 815.24 514.19 815 512 811.93 512 810.7 512.62 808.12 512.74 806.28 511.14 804.2 508.94 803.09 506.6 802.11 505.62 801.5 506.85 799.04 506.97 797.57 507.34 794.38 505.75 793.15 503.91 792.91 501.33 792.54 500.84 791.8 500.84 791.19 502.31 789.6 503.29 788.37 502.8 786.77 501.94 786.41 499.86 785.91 497.4 786.16 493.85 786.28 489.27 786.86 489.51 785.16 494.17 781.76 497.16 776.95 498.36 766.56 497.78 765.25 498.52 763.61 499.01 762.63 499.5 760.5 499.18 759.03 497.62 757.89 495.99 757.89 494.11 758.05 491.73 758.62 490.34 758.54 489.69 757.97 489.53 757.15 486.42 755.76 485.76 755.92 483.64 756 481.12 756.09 480.64 754.58 481.24 751.93 482.04 750.67 483.56 749.87 483.72 745.21 483.88 741.03 482.82 736.54 480.7 736.21 479.91 734.66 474.05 730.04 473.21 727.02 475.48 720.88 475 718.15 475 718.14 474.99 718.13 473.69 716.44 473.3 714.97 472.84 713.23 474.04 709.65 473.9 705.8 475.05 703.08 475.21 701.28 474.97 700.13 474.72 699.97 473.66 700.05 471.17 700.02 470.93 698.83 472.02 696.78 472.76 695.63 472.6 693.59 471.7 691.87 469.65 691.05 467.44 691.13 467.03 689.74 466.13 685.16 465.4 683.12 462.37 681.73 459.1 681.56 456.56 681.4 452.15 680.91 448.71 680.58 445.11 680.99 440.7 682.63 438.57 682.63 437.75 681.24 437.02 679.44 433.5 675.35 430.96 673.79 427.77 671.5 424.99 670.27 418.78 667.98 414.36 665.61 412.64 663.89 411.91 662.26 410.68 661.11 408.14 660.54 405.61 660.21 403.56 659.07 400.86 656.45 395.29 653.46 394.82 652.51 394.45 652.04 387.99 637.48 383.43 627.22 381.04 621.93 381.27 617.02 380.2 615.33 376.48 613.16 368.34 611.65 364.51 608.91 363.55 606.46 363.67 604.76 364.75 602.3 364.39 599.38 364.03 598.53 359 594.28 358.16 592.4 357.8 589.18 356.48 586.82 354.21 584.94 352.17 584 352.05 583.9 350.73 581.92 347.5 578.05 342.95 573.42 337.68 569.18 332.53 565.31 331.4 564.58 325.95 561.06 319.84 558.61 313.37 555.59 308.7 553.61 303.56 551.44 303.56 551.35 305.71 545.59 307.14 539.17 308.82 537.19 311.93 534.45 312.4 533.5 310.88 520.79 307.61 514.41 304.99 509.17 303.84 508.36 298.12 504.43 291.08 502.47 287.16 501.48 280.78 497.56 278.18 493.94 279.95 494.15 281.02 493.96 286.83 491.5 288.14 488.07 287.49 482.34 286.34 479.73 283.89 476.78 282.74 474.49 281.54 469.7 282.56 467.72 282.68 465.74 284.87 463.04 284.38 460.26 282.91 455.5 281.71 451.65 282.94 446.74 282.94 444.7 282.53 442.65 280.9 441.02 277.21 438.57 276.85 432.61 274.89 430.64 271.62 429.33 262.79 428.35 259.68 429.17 256.08 429.17 253.43 428.34 257.55 426.39 257.88 424.1 256.73 421.32 253.95 416.08 254.93 410.68 255.26 407.41 254.12 405.94 249 406.25 246.54 405.43 245.32 403.8 247.36 400.52 248.59 395.61 249.41 390.71 248.18 388.66 244.79 383.85 245.94 376.82 244.79 372.56 242.5 370.44 238.9 370.6 232.8 370.99 232.49 370.6 231.22 369.02 231.17 368.95 231.17 366.9 231.99 364.04 231.99 359.95 232.8 355.86 233.21 352.59 231.79 351.17 231.58 350.95 231.25 350.95 229.53 350.95 227.49 351.77 224.62 353.81 223.81 355.45 220.94 355.45 219.45 354.53 212.76 350.95 211.95 348.5 211.54 346.04 211.13 343.18 211.13 341.95 208.67 341.54 207.86 343.59 205.4 345.22 201.72 348.09 196.82 348.5 188.23 343.59 185.77 343.18 183.32 344.82 181.68 347.68 179.18 347.43 177.59 347.27 172.28 345.22 163.98 339.35 160.87 335.75 156.29 333.3 148.99 332.69 145.17 332.81 142.23 329.86 143.86 324.95 145.33 321.52 146.15 314.32 143.86 310.72 140.38 309.23 139.15 308 138.33 305.14 138.74 302.28 138.33 300.23 137.52 298.19 136.29 296.55 135.52 291.91 128.48 287 121.29 286.02 120.34 287.55 117.48 287.55 115.84 283.87 115.43 280.6 114.62 278.55 113.96 277.47 113.39 276.51 111.55 276.51 108.07 276.51 106.03 277.33 103.98 276.1 103.16 274.06 103.16 272.01 99.75 266.91 96.64 266.06 93.65 265.97 85.74 268.14 85.49 267.39 84.42 264.18 86.82 262.2 88.85 259.17 95.79 254.45 98.3 252.19 99.62 249.35 100.1 244.92 102.25 238.5 102.79 233.87 101.42 228.82 99.38 226.78 99.79 223.91 102.65 224.73 105.1 226.37 108.01 228.61 108.05 228.64 110.5 228.64 112.96 227.83 115.57 226.84 117.7 225.7 119.83 224.06 122.28 222.1 123.59 219.97 123.92 218.83 123.41 218.37 122.43 217.46 120.63 216.65 114.21 215.27 112.46 214.51 112.46 212.87 115.88 211.97 115.72 208.63 112.98 205.75 111.96 203.56 113.27 203.72 117.31 205.55 121.61 205.52 123.9 202.09 125.21 197.34 126.85 194.56 128.32 190.22 134.21 188.34 137.64 185.23 136.01 183.6 131.1 182.29 125.05 178.85 121.46 176.88 122.13 175.77 122.69 174.83 125.55 173.6 128.43 174.3 132.41 174.76 134.86 173.45 133.88 171.16 131.59 168.06 132.25 166.42 135.51 163.43 138.36 163.53 140.27 163.15 144.02 163.31 145.17 161.51 143.37 158.4 135.03 152.35 134.86 149.4 137.99 147.11 141.57 146.95 143.04 145.97 141.41 144.17 140.59 142.21 141.9 137.62 143.37 134.84 141.41 132.23 138.95 129.94 139.44 127.81 139.61 122.57 136.99 120.94 130.28 119.96 127.67 117.83 123.9 116.36 124.89 108.18 124.07 103.76 119.16 100.65 112.87 103.66 110.42 103.66 105.51 103.66 103.88 104.89 101.01 106.94 97.74 106.94 95.7 105.3 94.47 102.03 93.24 99.16 91.2 97.53 87.93 101.62 85.06 104.48 81.38 106.12 79.75 103.66 81.38 98.35 82.2 93.44 81.57 90.19 82.2 86.89 79.34 85.67 76.89 87.71 75.25 90.17 74.84 92.62 71.98 95.89 69.12 99.98 66.66 101.62 63.39 101.21 63.39 99.57 64.62 93.03 63.39 90.98 61.35 90.57 58.48 90.17 59.3 88.53 62.16 83.62 63.8 80.76 63.39 78.3 62.98 76.26 60.58 72.66 57.35 72.85 49.69 75.59 46.81 82.01 45.28 84.56 42.72 86.1 37.48 85.04 35.45 85.79 34.49 86.83 33.89 88.34 34 92.98 34.62 103.27 30.94 105.97 25.36 103.25 22.49 102.44 18.81 102.44 16.36 101.62 13.09 100.39 9.82 97.53 9.82 91.8 11.45 85.67 11.86 81.99 13.5 80.76 25.98 77.96 25.56 73.42 25.26 70.13 23.46 68.52 7.63 70.14 3.45 51.49 8.61 51.24 12.53 53.7 16.95 55.17 21.77 57.1 22.97 54.36 21.65 51.53 20.69 50.59 16.98 48.61 14.3 47.55 7.13 46.83 7.13 43.88 4.68 39.96 2.96 36.52 1.98 34.07 1 30.38 3.45 26.95 7.87 25.48 10.81 25.48 15.23 27.68 17.69 30.88 23.82 30.88 26.52 27.19 28.97 25.72 33.88 24.74 37.56 23.76 40.26 26.95 40.75 31.86 42.22 35.05 45.66 34.8 51.46 34.81 49.58 28.91 49.58 25.97 49.58 23.51 48.36 20.81 45.41 19.1 40.75 17.38 39.52 14.43 40.51 9.77 46.88 5.08 46.88 4.42 52.39 2.81 54.74 2.09 60.36 1.43 60.53 1.41 64.62 1 67.07 2.23 67.43 4.72 67.48 5.09 66.66 7.95 68.71 8.77 74.43 10 80.57 12.86 83.84 16.13 87.93 19 90.38 22.68 90.92 23.89 92.02 26.36 92.67 26.68 96.11 28.4 99.38 29.63 102.65 32.9 103.99 36.83 108.23 40.69 112.4 47.32 115.1 52.23 122.95 59.34 118.54 64.52 119.02 69.24 125.55 77.08 130.05 80.35 137 84.44 141.91 86.48 145.18 87.71 152.54 89.76 152.84 90.05 154.18 91.39 155.81 94.26 156.63 96.3 158.27 98.35 159.9 100.8 161.95 104.07 166.45 106.94 168.08 108.16 168.08 111.03 172.58 116.75 174.63 120.02 177.08 122.89 180.35 125.34 184.85 129.84 186.89 133.11 191.8 136.79 195.07 139.66 196.71 142.52 198.75 145.38 202.43 147.84 205.71 149.88 208.98 153.15 213.55 151.7 215.58 147.83 216.06 145.38 215.7 139.81 214.14 131.41 215.93 126.59 216.29 123.86 215.93 121.59 213.41 115.27 215.2 112.06 215.68 109.51 214.29 106.12 213.35 103.3 213.07 102.44 213.89 99.16 215.11 95.89 214.7 92.62 213.72 85.65 212.18 81.05 213.2 76.96 218.32 82.58 223.43 86.16 228.03 88.72 231.59 88.64 234.47 86.47 239.79 80.54 241.39 81.61 242.85 82.58 242.85 85.14 244.9 89.23 245.92 93.32 243.36 96.9 240.81 100.48 240.81 105.59 242.34 111.21 245.41 113.77 248.48 115.81 250.06 118.46 251.54 120.93 253.08 123.99 252.57 126.55 252.57 128.51 252.57 129.11 253.26 128.53 255.63 126.55 261.26 127.57 261.77 131.15 264.32 134.73 267.39 137.29 274.55 139.84 278.13 140.87 281.7 141.89 283.24 145.47 283.96 150.83 290.39 151.6 291.42 153.65 292.95 157.23 296.02 155.69 298.06 154.16 300.11 154.16 304.2 154.16 307.26 156.72 313.91 158.25 324.43 157.9 331.85 153.46 337 150.91 346.82 142.41 349.69 138.63 353.64 139.86 356.04 140.05 356.31 140.04 363.02 138.71 365.03 138.31 368.61 138.31 373.72 137.29 374.11 137.48 375.76 138.31 373.72 139.84 372.19 142.4 369.12 143.93 367.07 146.49 362.98 148.54 361.45 149.56 360.94 151.09 361.45 153.65 365.54 156.2 366.44 157.4 367.07 158.25 362.47 158.25 359.39 157.42 353.53 158.64 351.49 159.31 349.1 161 348.86 161.95 349.34 164.03 354.8 168.99 358.84 170.42 359.87 171.45 360.48 172.05 359.25 172.46 357.21 172.46 351.23 171.03 347.31 171.48 Z M 127.79 225.18 125.74 226 122.88 226.82 118.79 228.45 116.75 229.68 113.88 231.32 113.88 233.36 114.7 235 113.88 237.86 113.47 239.91 114.7 242.36 116.75 243.59 119.2 244.81 121.65 243.59 123.7 242.36 126.15 242.77 129.83 243.59 131.47 244 133.51 244 135.56 244.41 136.78 245.22 137.6 247.27 139.65 248.09 141.69 248.09 143.74 250.13 142.92 250.54 141.28 251.77 142.92 253.4 144.55 255.04 145.37 257.08 147.01 259.13 149.05 261.58 152.32 262.81 155.6 264.86 158.87 265.27 162.55 265.67 165.41 264.45 166.23 262.4 165.82 260.77 162.14 259.54 160.09 258.72 158.46 256.27 156.82 254.63 156.41 252.18 157.31 251.51 159.69 249.72 163.37 249.72 164.18 248.9 163.77 246.45 161.32 244.41 156.82 244.41 154.37 244.41 151.1 244.81 149.05 242.36 149.05 239.91 148.23 237.04 149.46 235.82 150.69 234.18 149.34 231.71 148.23 229.68 144.96 228.86 142.92 228.45 139.65 229.27 135.56 229.27 132.69 228.45 130.24 224.77 127.79 225.18 Z M 123.21 251.04 121.77 250.76 118.42 251.42 117.7 252.56 117.82 254.07 118.9 255.01 120.22 255.48 124.76 255.39 125.49 254.91 126.08 253.78 125.24 252.08 123.21 251.04 Z M 389.89 610.42 391.33 611.55 392.4 611.55 393.12 610.32 391.68 606.36 389.89 605.41 389.05 605.98 388.81 608.34 389.89 610.42 Z M 624.99 688.14 625.69 689.42 627 689.42 630.11 693.86 631.42 692.91 630.71 689.42 631.24 689.42 632.05 688.14 632.77 687.2 632.05 686.35 626.07 686.35 624.27 687.11 624.99 688.14 Z M 692.61 857.16 693.57 858.1 695.24 857.91 696.44 856.31 695 854.52 693.57 854.52 692.61 855.27 692.61 857.16 Z" fill-rule="evenodd"/>
</g>
</svg>