<?xml version="1.0"?>
<svg xmlns="http://www.w3.org/2000/svg" version="1.2" baseProfile="tiny" width="800" height="825" viewBox="0 0 800 825" stroke-linecap="round" stroke-linejoin="round">
<g id="artesialake">
<path d="M 505.07 93.5 504.4 94.95 504.4 95.73 504.48 95.87 506.76 99.79 508.43 101.63 511.29 103.59 511.8 103.59 517.34 106.34 524.39 108.83 531.78 110.93 541.69 114.73 559.82 119.7 564.19 120.49 568.89 120.88 569.23 121.14 575.1 121.01 582.32 118.12 584.67 116.68 588.36 113.53 590.54 109.99 590.54 107.63 588.52 100.81 588.52 99.5 590.37 95.18 594.9 91.77 600.27 88.75 603.79 86 610.51 79.96 614.87 75.11 617.22 71.83 617.89 68.42 617.21 63.96 617.89 61.87 619.23 60.03 620.4 59.37 623.09 58.85 625.44 58.98 631.32 62.91 633.5 65.8 643.58 81.52 645.26 84.8 647.61 87.55 659.71 106.56 662.06 109.44 662.57 110.88 666.27 115.73 668.79 119.8 671.64 122.29 683.74 133.95 690.12 139.19 690.79 140.11 695.49 143.65 697 144.3 701.54 147.45 701.88 148.23 709.43 152.69 715.65 157.02 722.7 164.35 728.08 171.56 730.26 176.15 731.27 183.23 731.94 185.2 732.44 185.98 733.46 190.18 736.14 195.55 739.17 198.83 739.67 200.14 744.54 206.69 746.73 208.66 749.25 210.23 753.45 212.33 754.79 213.38 756.47 215.21 757.64 217.44 758.15 219.27 758.49 227.14 758.32 227.27 759.16 235.14 763.2 244.45 763.53 245.36 763.87 245.63 764.88 249.43 767.23 254.54 768.91 257.29 770.08 258.47 770.93 260.17 772.77 262.01 774.45 264.5 776.97 269.09 779.83 275.77 780.84 279.57 781.34 282.2 781.34 286.78 778.84 306.98 779.51 324.02 779.52 327.56 778.85 332.02 779.19 334.11 780.7 337 785.06 340.67 791.78 343.94 795.81 346.3 798.33 349.18 799 351.02 798.5 353.12 797.49 354.95 795.14 357.71 790.78 362.3 789.61 362.82 788.43 364.26 788.09 365.84 788.77 369.51 789.77 372.52 790.28 381.31 787.77 388.25 785.92 391.27 784.75 393.89 784.41 396.25 785.09 405.3 785.93 410.54 785.76 413.29 784.42 416.31 781.9 419.06 773.01 426.94 765.63 435.06 762.78 437.69 759.09 442.8 755.73 448.57 754.06 450.28 752.21 453.42 746.67 459.98 744.32 461.82 742.64 462.6 740.46 463.13 736.43 463.65 725.35 464.18 723.34 464.44 723 464.31 715.45 464.71 711.42 465.24 707.73 466.29 694.98 472.98 688.6 476.91 679.54 483.47 676.02 486.61 672.83 490.81 668.97 498.42 667.8 502.22 667.47 504.71 667.63 505.5 667.3 507.46 667.13 512.05 666.46 513.49 666.3 519.92 664.95 524.64 663.28 528.83 661.1 533.03 656.9 538.01 651.87 545.75 643.15 563.71 636.95 574.73 630.07 581.55 624.87 587.45 621.35 594.13 618.83 597.28 616.99 600.56 615.48 604.76 614.65 617.21 613.64 619.31 613.47 620.88 612.13 622.33 609.61 624.55 606.76 626.65 603.57 628.1 599.04 631.64 596.87 634.52 596.19 636.49 595.86 639.9 595.03 653.53 595.53 655.89 596.37 657.99 599.23 660.87 600.91 663.76 601.41 667.17 600.74 670.44 600.24 671.88 595.21 679.62 592.86 684.87 592.02 688.8 590.85 692.6 589.68 699.81 589.18 702.17 584.99 711.48 583.31 714.5 580.96 717.25 576.77 721.32 575.59 723.15 573.25 727.09 570.73 732.73 569.22 734.96 564.19 739.55 551.27 750.43 543.56 758.43 541.88 761.58 540.37 763.28 538.7 766.04 536.18 772.46 535.01 773.91 533 781.12 531.83 784.26 530.82 785.71 529.31 786.62 524.95 787.94 508.83 789.52 506.99 790.04 503.8 792.4 503.13 793.84 502.29 796.6 501.46 806.17 501.63 807.08 501.29 808.4 501.29 810.89 501.63 811.67 501.3 816.92 499.96 820.59 498.95 822.43 496.77 823.74 492.91 824 490.06 823.74 485.02 822.43 483.18 822.3 479.82 822.57 478.81 822.43 470.42 822.83 464.04 821.65 459.85 820.21 449.94 815.89 447.59 815.37 442.05 812.75 436.52 810.52 427.62 808.43 422.75 808.17 417.71 807.12 412.68 804.89 406.3 800.44 401.26 797.82 398.58 796.51 391.86 794.28 386.16 792.71 376.25 790.62 370.55 789.7 368.87 789.05 357.96 786.69 357.79 786.82 356.78 786.3 354.26 786.04 343.35 781.98 340.49 780.28 338.82 778.96 334.28 774.25 331.09 770.05 329.92 767.43 329.58 762.45 329.57 753.66 329.24 750.39 328.89 737.67 328.55 736.1 328.36 707.91 327.69 706.34 328.36 699.65 328.35 684.45 327.84 678.68 328.51 671.47 328.33 657.57 327.99 645.25 327.31 641.44 326.97 631.61 326.47 627.29 325.96 616.8 326.12 614.04 325.28 608.28 324.77 602.25 325.11 602.12 323.75 589.14 323.24 577.86 320.19 532.9 319.85 525.42 320.52 524.11 319.51 521.1 318.49 509.43 318.49 501.56 317.81 498.81 316.64 497.37 311.6 489.11 310.92 487.67 309.25 486.1 303.03 476.53 296.98 468.54 296.31 466.83 292.78 462.64 291.94 460.67 284.21 450.06 283.37 448.22 277.66 440.36 277.15 439.05 269.59 428.56 268.29 427.13 267.57 426.34 266.57 423.84 261.69 416.64 260.18 415.2 258.5 412.05 244.55 392.13 237.66 381.38 234.64 377.71 233.46 375.35 231.44 372.21 227.58 366.84 224.89 363.56 224.05 361.73 220.02 356.22 219.68 355.43 215.98 350.32 215.65 349.41 208.93 339.84 207.92 337.74 202.37 329.75 201.36 328.57 200.35 326.21 197.5 322.93 192.96 316.12 190.27 311.27 186.74 306.29 184.55 302.35 176.32 291.22 175.31 288.99 171.78 284.01 163.71 270.9 160.86 268.02 159.68 264.87 153.96 256.75 152.28 253.73 146.74 246.92 136.99 233.29 134.97 231.19 129.43 223.33 126.91 220.58 119.34 210.09 116.65 207.08 115.65 205.12 111.28 199.22 109.93 197.64 108.08 195.94 106.74 193.58 102.37 187.82 100.69 185.06 98.34 182.57 91.95 173.66 91.61 172.74 82.87 161.74 81.03 158.85 75.14 151.52 71.11 145.62 67.92 141.69 63.04 134.22 51.95 118.88 51.11 117.18 50.6 116.79 37.82 97.13 35.47 94.12 30.59 86.78 28.75 84.55 21.35 73.41 19.17 71.05 18.83 69.48 17.99 68.04 5.88 50.61 5.21 49.04 3.36 46.15 1.68 41.96 1 38.55 1 37.63 1.84 36.06 6.2 33.7 10.23 32.12 20.47 29.62 22.15 29.62 26.18 28.44 28.87 28.04 34.57 26.6 36.25 26.47 47.83 23.84 56.9 22.39 62.1 22.13 64.45 21.47 72.01 20.42 76.38 19.89 82.92 20.55 88.47 21.98 93 25 97.7 26.96 100.73 27.74 110.13 29.97 116.85 30.62 121.21 30.62 124.07 30.36 131.62 28.25 137.66 26.02 146.73 23.53 156.13 22.21 162 21.81 165.87 21.15 173.76 20.76 174.09 21.02 189.03 19.57 191.89 19.96 194.41 19.57 196.59 18.91 215.06 17.33 216.74 16.8 229.16 15.88 233.36 14.43 241.59 12.47 243.43 12.47 247.29 11.41 248.63 10.76 251.82 10.23 254.85 9.44 261.06 9.18 262.07 8.79 266.1 8.39 269.79 7.73 273.99 7.34 276.84 7.34 278.52 6.81 281.88 6.42 286.91 5.63 290.94 5.23 294.8 5.89 300.34 5.23 311.43 8.11 317.81 9.41 318.15 9.29 327.72 10.85 331.41 11.11 333.09 11.51 335.94 11.24 340.81 11.24 347.7 10.19 353.24 8.61 355.59 7.43 356.93 6.9 361.63 3.89 362.81 3.63 365.83 1.66 368.51 1 374.73 1 379.76 1.65 383.29 2.96 386.81 4.66 394.71 9.12 398.74 11.87 400.09 12.26 402.94 13.31 411.51 17.63 416.38 20.38 418.23 20.91 433.68 28.51 436.53 29.68 449.46 36.23 450.98 36.63 462.73 42.91 474.15 46.58 479.53 49.07 481.04 49.33 489.94 53.53 493.3 55.49 494.98 55.88 495.65 56.41 496.49 56.41 503.54 59.94 507.07 62.3 507.57 63.22 510.6 65.71 511.61 67.02 512.61 69.12 513.63 73.7 512.79 77.64 511.61 79.87 508.09 85.77 505.91 88.65 504.57 92.59 505.07 93.5 Z"/>
</g>
</svg>